G04 start of page 14 for group -3984 idx -3984 *
G04 Title: 971 BBB Cape, fab *
G04 Creator: pcb 20110918 *
G04 CreationDate: Thu Dec  5 05:46:54 2013 UTC *
G04 For: brians *
G04 Format: Gerber/RS-274X *
G04 PCB-Dimensions: 500000 400000 *
G04 PCB-Coordinate-Origin: lower left *
%MOIN*%
%FSLAX25Y25*%
%LNFAB*%
%ADD318C,0.0100*%
%ADD317C,0.0075*%
%ADD316C,0.0060*%
%ADD315R,0.0080X0.0080*%
%ADD314C,0.0001*%
G54D314*G36*
X313399Y340295D02*X318765Y334929D01*
X318199Y334363D01*
X312833Y339729D01*
X313399Y340295D01*
G37*
G36*
X312833Y334929D02*X318199Y340295D01*
X318765Y339729D01*
X313399Y334363D01*
X312833Y334929D01*
G37*
G54D315*X314199Y338929D02*X317399D01*
X314199D02*Y335729D01*
X317399D01*
Y338929D02*Y335729D01*
G54D314*G36*
X12600Y414216D02*X17966Y408850D01*
X17400Y408284D01*
X12034Y413650D01*
X12600Y414216D01*
G37*
G36*
X12034Y408850D02*X17400Y414216D01*
X17966Y413650D01*
X12600Y408284D01*
X12034Y408850D01*
G37*
G54D315*X13400Y412850D02*X16600D01*
X13400D02*Y409650D01*
X16600D01*
Y412850D02*Y409650D01*
G54D316*X135000Y413500D02*X136500Y410500D01*
X138000Y413500D01*
X136500Y410500D02*Y407500D01*
X139800Y410800D02*X142050D01*
X139800Y407500D02*X142800D01*
X139800Y413500D02*Y407500D01*
Y413500D02*X142800D01*
X147600D02*X148350Y412750D01*
X145350Y413500D02*X147600D01*
X144600Y412750D02*X145350Y413500D01*
X144600Y412750D02*Y411250D01*
X145350Y410500D01*
X147600D01*
X148350Y409750D01*
Y408250D01*
X147600Y407500D02*X148350Y408250D01*
X145350Y407500D02*X147600D01*
X144600Y408250D02*X145350Y407500D01*
X98000Y412300D02*X99200Y413500D01*
Y407500D01*
X98000D02*X100250D01*
X45000Y408250D02*X45750Y407500D01*
X45000Y412750D02*Y408250D01*
Y412750D02*X45750Y413500D01*
X47250D01*
X48000Y412750D01*
Y408250D01*
X47250Y407500D02*X48000Y408250D01*
X45750Y407500D02*X47250D01*
X45000Y409000D02*X48000Y412000D01*
X49800Y407500D02*X50550D01*
X52350Y412750D02*X53100Y413500D01*
X55350D01*
X56100Y412750D01*
Y411250D01*
X52350Y407500D02*X56100Y411250D01*
X52350Y407500D02*X56100D01*
X57900Y408250D02*X58650Y407500D01*
X57900Y412750D02*Y408250D01*
Y412750D02*X58650Y413500D01*
X60150D01*
X60900Y412750D01*
Y408250D01*
X60150Y407500D02*X60900Y408250D01*
X58650Y407500D02*X60150D01*
X57900Y409000D02*X60900Y412000D01*
X62700Y408250D02*X63450Y407500D01*
X62700Y412750D02*Y408250D01*
Y412750D02*X63450Y413500D01*
X64950D01*
X65700Y412750D01*
Y408250D01*
X64950Y407500D02*X65700Y408250D01*
X63450Y407500D02*X64950D01*
X62700Y409000D02*X65700Y412000D01*
X345799Y195529D02*Y189129D01*
X342599Y192329D02*X348999D01*
X344199Y193929D02*X347399D01*
X344199D02*Y190729D01*
X347399D01*
Y193929D02*Y190729D01*
X15000Y429450D02*Y423050D01*
X11800Y426250D02*X18200D01*
X13400Y427850D02*X16600D01*
X13400D02*Y424650D01*
X16600D01*
Y427850D02*Y424650D01*
X135000Y428500D02*X136500Y425500D01*
X138000Y428500D01*
X136500Y425500D02*Y422500D01*
X139800Y425800D02*X142050D01*
X139800Y422500D02*X142800D01*
X139800Y428500D02*Y422500D01*
Y428500D02*X142800D01*
X147600D02*X148350Y427750D01*
X145350Y428500D02*X147600D01*
X144600Y427750D02*X145350Y428500D01*
X144600Y427750D02*Y426250D01*
X145350Y425500D01*
X147600D01*
X148350Y424750D01*
Y423250D01*
X147600Y422500D02*X148350Y423250D01*
X145350Y422500D02*X147600D01*
X144600Y423250D02*X145350Y422500D01*
X98000Y427300D02*X99200Y428500D01*
Y422500D01*
X98000D02*X100250D01*
X45000Y423250D02*X45750Y422500D01*
X45000Y427750D02*Y423250D01*
Y427750D02*X45750Y428500D01*
X47250D01*
X48000Y427750D01*
Y423250D01*
X47250Y422500D02*X48000Y423250D01*
X45750Y422500D02*X47250D01*
X45000Y424000D02*X48000Y427000D01*
X49800Y422500D02*X50550D01*
X52350Y427300D02*X53550Y428500D01*
Y422500D01*
X52350D02*X54600D01*
X57150D02*X59400Y425500D01*
Y427750D02*Y425500D01*
X58650Y428500D02*X59400Y427750D01*
X57150Y428500D02*X58650D01*
X56400Y427750D02*X57150Y428500D01*
X56400Y427750D02*Y426250D01*
X57150Y425500D01*
X59400D01*
X61200Y423250D02*X61950Y422500D01*
X61200Y427750D02*Y423250D01*
Y427750D02*X61950Y428500D01*
X63450D01*
X64200Y427750D01*
Y423250D01*
X63450Y422500D02*X64200Y423250D01*
X61950Y422500D02*X63450D01*
X61200Y424000D02*X64200Y427000D01*
X85799Y179829D02*Y176629D01*
Y179829D02*X88572Y181429D01*
X85799Y179829D02*X83026Y181429D01*
X84199Y179829D02*G75*G03X87399Y179829I1600J0D01*G01*
G75*G03X84199Y179829I-1600J0D01*G01*
X85799Y369829D02*Y366629D01*
Y369829D02*X88572Y371429D01*
X85799Y369829D02*X83026Y371429D01*
X84199Y369829D02*G75*G03X87399Y369829I1600J0D01*G01*
G75*G03X84199Y369829I-1600J0D01*G01*
X345799Y357329D02*Y354129D01*
Y357329D02*X348572Y358929D01*
X345799Y357329D02*X343026Y358929D01*
X344199Y357329D02*G75*G03X347399Y357329I1600J0D01*G01*
G75*G03X344199Y357329I-1600J0D01*G01*
X353000Y150000D02*Y146800D01*
Y150000D02*X355773Y151600D01*
X353000Y150000D02*X350227Y151600D01*
X351400Y150000D02*G75*G03X354600Y150000I1600J0D01*G01*
G75*G03X351400Y150000I-1600J0D01*G01*
X15000Y441250D02*Y438050D01*
Y441250D02*X17773Y442850D01*
X15000Y441250D02*X12227Y442850D01*
X13400Y441250D02*G75*G03X16600Y441250I1600J0D01*G01*
G75*G03X13400Y441250I-1600J0D01*G01*
X135000Y443500D02*X136500Y440500D01*
X138000Y443500D01*
X136500Y440500D02*Y437500D01*
X139800Y440800D02*X142050D01*
X139800Y437500D02*X142800D01*
X139800Y443500D02*Y437500D01*
Y443500D02*X142800D01*
X147600D02*X148350Y442750D01*
X145350Y443500D02*X147600D01*
X144600Y442750D02*X145350Y443500D01*
X144600Y442750D02*Y441250D01*
X145350Y440500D01*
X147600D01*
X148350Y439750D01*
Y438250D01*
X147600Y437500D02*X148350Y438250D01*
X145350Y437500D02*X147600D01*
X144600Y438250D02*X145350Y437500D01*
X98000Y439750D02*X101000Y443500D01*
X98000Y439750D02*X101750D01*
X101000Y443500D02*Y437500D01*
X45000Y438250D02*X45750Y437500D01*
X45000Y442750D02*Y438250D01*
Y442750D02*X45750Y443500D01*
X47250D01*
X48000Y442750D01*
Y438250D01*
X47250Y437500D02*X48000Y438250D01*
X45750Y437500D02*X47250D01*
X45000Y439000D02*X48000Y442000D01*
X49800Y437500D02*X50550D01*
X52350Y442300D02*X53550Y443500D01*
Y437500D01*
X52350D02*X54600D01*
X56400Y442750D02*X57150Y443500D01*
X59400D01*
X60150Y442750D01*
Y441250D01*
X56400Y437500D02*X60150Y441250D01*
X56400Y437500D02*X60150D01*
X62700D02*X64950Y440500D01*
Y442750D02*Y440500D01*
X64200Y443500D02*X64950Y442750D01*
X62700Y443500D02*X64200D01*
X61950Y442750D02*X62700Y443500D01*
X61950Y442750D02*Y441250D01*
X62700Y440500D01*
X64950D01*
X104199Y186429D02*X107399D01*
X104199D02*Y183229D01*
X107399D01*
Y186429D02*Y183229D01*
X104199Y176429D02*X107399D01*
X104199D02*Y173229D01*
X107399D01*
Y176429D02*Y173229D01*
X114199Y186429D02*X117399D01*
X114199D02*Y183229D01*
X117399D01*
Y186429D02*Y183229D01*
X114199Y176429D02*X117399D01*
X114199D02*Y173229D01*
X117399D01*
Y176429D02*Y173229D01*
X124199Y186429D02*X127399D01*
X124199D02*Y183229D01*
X127399D01*
Y186429D02*Y183229D01*
X124199Y176429D02*X127399D01*
X124199D02*Y173229D01*
X127399D01*
Y176429D02*Y173229D01*
X134199Y186429D02*X137399D01*
X134199D02*Y183229D01*
X137399D01*
Y186429D02*Y183229D01*
X134199Y176429D02*X137399D01*
X134199D02*Y173229D01*
X137399D01*
Y176429D02*Y173229D01*
X144199Y186429D02*X147399D01*
X144199D02*Y183229D01*
X147399D01*
Y186429D02*Y183229D01*
X144199Y176429D02*X147399D01*
X144199D02*Y173229D01*
X147399D01*
Y176429D02*Y173229D01*
X154199Y186429D02*X157399D01*
X154199D02*Y183229D01*
X157399D01*
Y186429D02*Y183229D01*
X154199Y176429D02*X157399D01*
X154199D02*Y173229D01*
X157399D01*
Y176429D02*Y173229D01*
X164199Y186429D02*X167399D01*
X164199D02*Y183229D01*
X167399D01*
Y186429D02*Y183229D01*
X164199Y176429D02*X167399D01*
X164199D02*Y173229D01*
X167399D01*
Y176429D02*Y173229D01*
X174199Y186429D02*X177399D01*
X174199D02*Y183229D01*
X177399D01*
Y186429D02*Y183229D01*
X174199Y176429D02*X177399D01*
X174199D02*Y173229D01*
X177399D01*
Y176429D02*Y173229D01*
X184199Y186429D02*X187399D01*
X184199D02*Y183229D01*
X187399D01*
Y186429D02*Y183229D01*
X184199Y176429D02*X187399D01*
X184199D02*Y173229D01*
X187399D01*
Y176429D02*Y173229D01*
X194199Y186429D02*X197399D01*
X194199D02*Y183229D01*
X197399D01*
Y186429D02*Y183229D01*
X194199Y176429D02*X197399D01*
X194199D02*Y173229D01*
X197399D01*
Y176429D02*Y173229D01*
X204199Y186429D02*X207399D01*
X204199D02*Y183229D01*
X207399D01*
Y186429D02*Y183229D01*
X204199Y176429D02*X207399D01*
X204199D02*Y173229D01*
X207399D01*
Y176429D02*Y173229D01*
X214199Y186429D02*X217399D01*
X214199D02*Y183229D01*
X217399D01*
Y186429D02*Y183229D01*
X214199Y176429D02*X217399D01*
X214199D02*Y173229D01*
X217399D01*
Y176429D02*Y173229D01*
X224199Y186429D02*X227399D01*
X224199D02*Y183229D01*
X227399D01*
Y186429D02*Y183229D01*
X224199Y176429D02*X227399D01*
X224199D02*Y173229D01*
X227399D01*
Y176429D02*Y173229D01*
X234199Y186429D02*X237399D01*
X234199D02*Y183229D01*
X237399D01*
Y186429D02*Y183229D01*
X234199Y176429D02*X237399D01*
X234199D02*Y173229D01*
X237399D01*
Y176429D02*Y173229D01*
X244199Y186429D02*X247399D01*
X244199D02*Y183229D01*
X247399D01*
Y186429D02*Y183229D01*
X244199Y176429D02*X247399D01*
X244199D02*Y173229D01*
X247399D01*
Y176429D02*Y173229D01*
X254199Y186429D02*X257399D01*
X254199D02*Y183229D01*
X257399D01*
Y186429D02*Y183229D01*
X254199Y176429D02*X257399D01*
X254199D02*Y173229D01*
X257399D01*
Y176429D02*Y173229D01*
X264199Y186429D02*X267399D01*
X264199D02*Y183229D01*
X267399D01*
Y186429D02*Y183229D01*
X264199Y176429D02*X267399D01*
X264199D02*Y173229D01*
X267399D01*
Y176429D02*Y173229D01*
X274199Y186429D02*X277399D01*
X274199D02*Y183229D01*
X277399D01*
Y186429D02*Y183229D01*
X274199Y176429D02*X277399D01*
X274199D02*Y173229D01*
X277399D01*
Y176429D02*Y173229D01*
X284199Y186429D02*X287399D01*
X284199D02*Y183229D01*
X287399D01*
Y186429D02*Y183229D01*
X284199Y176429D02*X287399D01*
X284199D02*Y173229D01*
X287399D01*
Y176429D02*Y173229D01*
X294199Y186429D02*X297399D01*
X294199D02*Y183229D01*
X297399D01*
Y186429D02*Y183229D01*
X294199Y176429D02*X297399D01*
X294199D02*Y173229D01*
X297399D01*
Y176429D02*Y173229D01*
X304199Y186429D02*X307399D01*
X304199D02*Y183229D01*
X307399D01*
Y186429D02*Y183229D01*
X304199Y176429D02*X307399D01*
X304199D02*Y173229D01*
X307399D01*
Y176429D02*Y173229D01*
X314199Y186429D02*X317399D01*
X314199D02*Y183229D01*
X317399D01*
Y186429D02*Y183229D01*
X314199Y176429D02*X317399D01*
X314199D02*Y173229D01*
X317399D01*
Y176429D02*Y173229D01*
X324199Y186429D02*X327399D01*
X324199D02*Y183229D01*
X327399D01*
Y186429D02*Y183229D01*
X324199Y176429D02*X327399D01*
X324199D02*Y173229D01*
X327399D01*
Y176429D02*Y173229D01*
X104199Y376429D02*X107399D01*
X104199D02*Y373229D01*
X107399D01*
Y376429D02*Y373229D01*
X104199Y366429D02*X107399D01*
X104199D02*Y363229D01*
X107399D01*
Y366429D02*Y363229D01*
X114199Y376429D02*X117399D01*
X114199D02*Y373229D01*
X117399D01*
Y376429D02*Y373229D01*
X114199Y366429D02*X117399D01*
X114199D02*Y363229D01*
X117399D01*
Y366429D02*Y363229D01*
X124199Y376429D02*X127399D01*
X124199D02*Y373229D01*
X127399D01*
Y376429D02*Y373229D01*
X124199Y366429D02*X127399D01*
X124199D02*Y363229D01*
X127399D01*
Y366429D02*Y363229D01*
X134199Y376429D02*X137399D01*
X134199D02*Y373229D01*
X137399D01*
Y376429D02*Y373229D01*
X134199Y366429D02*X137399D01*
X134199D02*Y363229D01*
X137399D01*
Y366429D02*Y363229D01*
X144199Y376429D02*X147399D01*
X144199D02*Y373229D01*
X147399D01*
Y376429D02*Y373229D01*
X144199Y366429D02*X147399D01*
X144199D02*Y363229D01*
X147399D01*
Y366429D02*Y363229D01*
X154199Y376429D02*X157399D01*
X154199D02*Y373229D01*
X157399D01*
Y376429D02*Y373229D01*
X154199Y366429D02*X157399D01*
X154199D02*Y363229D01*
X157399D01*
Y366429D02*Y363229D01*
X164199Y376429D02*X167399D01*
X164199D02*Y373229D01*
X167399D01*
Y376429D02*Y373229D01*
X164199Y366429D02*X167399D01*
X164199D02*Y363229D01*
X167399D01*
Y366429D02*Y363229D01*
X174199Y376429D02*X177399D01*
X174199D02*Y373229D01*
X177399D01*
Y376429D02*Y373229D01*
X174199Y366429D02*X177399D01*
X174199D02*Y363229D01*
X177399D01*
Y366429D02*Y363229D01*
X184199Y376429D02*X187399D01*
X184199D02*Y373229D01*
X187399D01*
Y376429D02*Y373229D01*
X184199Y366429D02*X187399D01*
X184199D02*Y363229D01*
X187399D01*
Y366429D02*Y363229D01*
X194199Y376429D02*X197399D01*
X194199D02*Y373229D01*
X197399D01*
Y376429D02*Y373229D01*
X194199Y366429D02*X197399D01*
X194199D02*Y363229D01*
X197399D01*
Y366429D02*Y363229D01*
X204199Y376429D02*X207399D01*
X204199D02*Y373229D01*
X207399D01*
Y376429D02*Y373229D01*
X204199Y366429D02*X207399D01*
X204199D02*Y363229D01*
X207399D01*
Y366429D02*Y363229D01*
X214199Y376429D02*X217399D01*
X214199D02*Y373229D01*
X217399D01*
Y376429D02*Y373229D01*
X214199Y366429D02*X217399D01*
X214199D02*Y363229D01*
X217399D01*
Y366429D02*Y363229D01*
X224199Y376429D02*X227399D01*
X224199D02*Y373229D01*
X227399D01*
Y376429D02*Y373229D01*
X224199Y366429D02*X227399D01*
X224199D02*Y363229D01*
X227399D01*
Y366429D02*Y363229D01*
X234199Y376429D02*X237399D01*
X234199D02*Y373229D01*
X237399D01*
Y376429D02*Y373229D01*
X234199Y366429D02*X237399D01*
X234199D02*Y363229D01*
X237399D01*
Y366429D02*Y363229D01*
X244199Y376429D02*X247399D01*
X244199D02*Y373229D01*
X247399D01*
Y376429D02*Y373229D01*
X244199Y366429D02*X247399D01*
X244199D02*Y363229D01*
X247399D01*
Y366429D02*Y363229D01*
X254199Y376429D02*X257399D01*
X254199D02*Y373229D01*
X257399D01*
Y376429D02*Y373229D01*
X254199Y366429D02*X257399D01*
X254199D02*Y363229D01*
X257399D01*
Y366429D02*Y363229D01*
X264199Y376429D02*X267399D01*
X264199D02*Y373229D01*
X267399D01*
Y376429D02*Y373229D01*
X264199Y366429D02*X267399D01*
X264199D02*Y363229D01*
X267399D01*
Y366429D02*Y363229D01*
X274199Y376429D02*X277399D01*
X274199D02*Y373229D01*
X277399D01*
Y376429D02*Y373229D01*
X274199Y366429D02*X277399D01*
X274199D02*Y363229D01*
X277399D01*
Y366429D02*Y363229D01*
X284199Y376429D02*X287399D01*
X284199D02*Y373229D01*
X287399D01*
Y376429D02*Y373229D01*
X284199Y366429D02*X287399D01*
X284199D02*Y363229D01*
X287399D01*
Y366429D02*Y363229D01*
X294199Y376429D02*X297399D01*
X294199D02*Y373229D01*
X297399D01*
Y376429D02*Y373229D01*
X294199Y366429D02*X297399D01*
X294199D02*Y363229D01*
X297399D01*
Y366429D02*Y363229D01*
X304199Y376429D02*X307399D01*
X304199D02*Y373229D01*
X307399D01*
Y376429D02*Y373229D01*
X304199Y366429D02*X307399D01*
X304199D02*Y363229D01*
X307399D01*
Y366429D02*Y363229D01*
X314199Y376429D02*X317399D01*
X314199D02*Y373229D01*
X317399D01*
Y376429D02*Y373229D01*
X314199Y366429D02*X317399D01*
X314199D02*Y363229D01*
X317399D01*
Y366429D02*Y363229D01*
X324199Y376429D02*X327399D01*
X324199D02*Y373229D01*
X327399D01*
Y376429D02*Y373229D01*
X324199Y366429D02*X327399D01*
X324199D02*Y363229D01*
X327399D01*
Y366429D02*Y363229D01*
X194199Y198929D02*X197399D01*
X194199D02*Y195729D01*
X197399D01*
Y198929D02*Y195729D01*
X204199Y198929D02*X207399D01*
X204199D02*Y195729D01*
X207399D01*
Y198929D02*Y195729D01*
X214199Y198929D02*X217399D01*
X214199D02*Y195729D01*
X217399D01*
Y198929D02*Y195729D01*
X224199Y198929D02*X227399D01*
X224199D02*Y195729D01*
X227399D01*
Y198929D02*Y195729D01*
X234199Y198929D02*X237399D01*
X234199D02*Y195729D01*
X237399D01*
Y198929D02*Y195729D01*
X13400Y457850D02*X16600D01*
X13400D02*Y454650D01*
X16600D01*
Y457850D02*Y454650D01*
X135000Y458500D02*X136500Y455500D01*
X138000Y458500D01*
X136500Y455500D02*Y452500D01*
X139800Y455800D02*X142050D01*
X139800Y452500D02*X142800D01*
X139800Y458500D02*Y452500D01*
Y458500D02*X142800D01*
X147600D02*X148350Y457750D01*
X145350Y458500D02*X147600D01*
X144600Y457750D02*X145350Y458500D01*
X144600Y457750D02*Y456250D01*
X145350Y455500D01*
X147600D01*
X148350Y454750D01*
Y453250D01*
X147600Y452500D02*X148350Y453250D01*
X145350Y452500D02*X147600D01*
X144600Y453250D02*X145350Y452500D01*
X98750D02*X101000Y455500D01*
Y457750D02*Y455500D01*
X100250Y458500D02*X101000Y457750D01*
X98750Y458500D02*X100250D01*
X98000Y457750D02*X98750Y458500D01*
X98000Y457750D02*Y456250D01*
X98750Y455500D01*
X101000D01*
X103550Y452500D02*X106550Y458500D01*
X102800D02*X106550D01*
X45000Y453250D02*X45750Y452500D01*
X45000Y457750D02*Y453250D01*
Y457750D02*X45750Y458500D01*
X47250D01*
X48000Y457750D01*
Y453250D01*
X47250Y452500D02*X48000Y453250D01*
X45750Y452500D02*X47250D01*
X45000Y454000D02*X48000Y457000D01*
X49800Y452500D02*X50550D01*
X52350Y453250D02*X53100Y452500D01*
X52350Y457750D02*Y453250D01*
Y457750D02*X53100Y458500D01*
X54600D01*
X55350Y457750D01*
Y453250D01*
X54600Y452500D02*X55350Y453250D01*
X53100Y452500D02*X54600D01*
X52350Y454000D02*X55350Y457000D01*
X57150Y454750D02*X60150Y458500D01*
X57150Y454750D02*X60900D01*
X60150Y458500D02*Y452500D01*
X64950Y458500D02*X65700Y457750D01*
X63450Y458500D02*X64950D01*
X62700Y457750D02*X63450Y458500D01*
X62700Y457750D02*Y453250D01*
X63450Y452500D01*
X64950Y455800D02*X65700Y455050D01*
X62700Y455800D02*X64950D01*
X63450Y452500D02*X64950D01*
X65700Y453250D01*
Y455050D02*Y453250D01*
X452700Y384000D02*G75*G03X454300Y384000I800J0D01*G01*
G75*G03X452700Y384000I-800J0D01*G01*
X462700D02*G75*G03X464300Y384000I800J0D01*G01*
G75*G03X462700Y384000I-800J0D01*G01*
X472700D02*G75*G03X474300Y384000I800J0D01*G01*
G75*G03X472700Y384000I-800J0D01*G01*
X452700Y324000D02*G75*G03X454300Y324000I800J0D01*G01*
G75*G03X452700Y324000I-800J0D01*G01*
X462700D02*G75*G03X464300Y324000I800J0D01*G01*
G75*G03X462700Y324000I-800J0D01*G01*
X472700D02*G75*G03X474300Y324000I800J0D01*G01*
G75*G03X472700Y324000I-800J0D01*G01*
X452700Y294000D02*G75*G03X454300Y294000I800J0D01*G01*
G75*G03X452700Y294000I-800J0D01*G01*
X462700D02*G75*G03X464300Y294000I800J0D01*G01*
G75*G03X462700Y294000I-800J0D01*G01*
X472700D02*G75*G03X474300Y294000I800J0D01*G01*
G75*G03X472700Y294000I-800J0D01*G01*
X452700Y264000D02*G75*G03X454300Y264000I800J0D01*G01*
G75*G03X452700Y264000I-800J0D01*G01*
X462700D02*G75*G03X464300Y264000I800J0D01*G01*
G75*G03X462700Y264000I-800J0D01*G01*
X472700D02*G75*G03X474300Y264000I800J0D01*G01*
G75*G03X472700Y264000I-800J0D01*G01*
X452700Y234000D02*G75*G03X454300Y234000I800J0D01*G01*
G75*G03X452700Y234000I-800J0D01*G01*
X462700D02*G75*G03X464300Y234000I800J0D01*G01*
G75*G03X462700Y234000I-800J0D01*G01*
X472700D02*G75*G03X474300Y234000I800J0D01*G01*
G75*G03X472700Y234000I-800J0D01*G01*
X452700Y204000D02*G75*G03X454300Y204000I800J0D01*G01*
G75*G03X452700Y204000I-800J0D01*G01*
X462700D02*G75*G03X464300Y204000I800J0D01*G01*
G75*G03X462700Y204000I-800J0D01*G01*
X472700D02*G75*G03X474300Y204000I800J0D01*G01*
G75*G03X472700Y204000I-800J0D01*G01*
X452700Y174000D02*G75*G03X454300Y174000I800J0D01*G01*
G75*G03X452700Y174000I-800J0D01*G01*
X462700D02*G75*G03X464300Y174000I800J0D01*G01*
G75*G03X462700Y174000I-800J0D01*G01*
X472700D02*G75*G03X474300Y174000I800J0D01*G01*
G75*G03X472700Y174000I-800J0D01*G01*
X452700Y144000D02*G75*G03X454300Y144000I800J0D01*G01*
G75*G03X452700Y144000I-800J0D01*G01*
X462700D02*G75*G03X464300Y144000I800J0D01*G01*
G75*G03X462700Y144000I-800J0D01*G01*
X472700D02*G75*G03X474300Y144000I800J0D01*G01*
G75*G03X472700Y144000I-800J0D01*G01*
X452700Y114000D02*G75*G03X454300Y114000I800J0D01*G01*
G75*G03X452700Y114000I-800J0D01*G01*
X462700D02*G75*G03X464300Y114000I800J0D01*G01*
G75*G03X462700Y114000I-800J0D01*G01*
X472700D02*G75*G03X474300Y114000I800J0D01*G01*
G75*G03X472700Y114000I-800J0D01*G01*
X452700Y84000D02*G75*G03X454300Y84000I800J0D01*G01*
G75*G03X452700Y84000I-800J0D01*G01*
X462700D02*G75*G03X464300Y84000I800J0D01*G01*
G75*G03X462700Y84000I-800J0D01*G01*
X472700D02*G75*G03X474300Y84000I800J0D01*G01*
G75*G03X472700Y84000I-800J0D01*G01*
X452700Y54000D02*G75*G03X454300Y54000I800J0D01*G01*
G75*G03X452700Y54000I-800J0D01*G01*
X462700D02*G75*G03X464300Y54000I800J0D01*G01*
G75*G03X462700Y54000I-800J0D01*G01*
X472700D02*G75*G03X474300Y54000I800J0D01*G01*
G75*G03X472700Y54000I-800J0D01*G01*
X406200Y384000D02*G75*G03X407800Y384000I800J0D01*G01*
G75*G03X406200Y384000I-800J0D01*G01*
X416200D02*G75*G03X417800Y384000I800J0D01*G01*
G75*G03X416200Y384000I-800J0D01*G01*
X426200D02*G75*G03X427800Y384000I800J0D01*G01*
G75*G03X426200Y384000I-800J0D01*G01*
X436200D02*G75*G03X437800Y384000I800J0D01*G01*
G75*G03X436200Y384000I-800J0D01*G01*
X406200Y174000D02*G75*G03X407800Y174000I800J0D01*G01*
G75*G03X406200Y174000I-800J0D01*G01*
X416200D02*G75*G03X417800Y174000I800J0D01*G01*
G75*G03X416200Y174000I-800J0D01*G01*
X426200D02*G75*G03X427800Y174000I800J0D01*G01*
G75*G03X426200Y174000I-800J0D01*G01*
X436200D02*G75*G03X437800Y174000I800J0D01*G01*
G75*G03X436200Y174000I-800J0D01*G01*
X406200Y204000D02*G75*G03X407800Y204000I800J0D01*G01*
G75*G03X406200Y204000I-800J0D01*G01*
X416200D02*G75*G03X417800Y204000I800J0D01*G01*
G75*G03X416200Y204000I-800J0D01*G01*
X426200D02*G75*G03X427800Y204000I800J0D01*G01*
G75*G03X426200Y204000I-800J0D01*G01*
X436200D02*G75*G03X437800Y204000I800J0D01*G01*
G75*G03X436200Y204000I-800J0D01*G01*
X406200Y234000D02*G75*G03X407800Y234000I800J0D01*G01*
G75*G03X406200Y234000I-800J0D01*G01*
X416200D02*G75*G03X417800Y234000I800J0D01*G01*
G75*G03X416200Y234000I-800J0D01*G01*
X426200D02*G75*G03X427800Y234000I800J0D01*G01*
G75*G03X426200Y234000I-800J0D01*G01*
X436200D02*G75*G03X437800Y234000I800J0D01*G01*
G75*G03X436200Y234000I-800J0D01*G01*
X406200Y264000D02*G75*G03X407800Y264000I800J0D01*G01*
G75*G03X406200Y264000I-800J0D01*G01*
X416200D02*G75*G03X417800Y264000I800J0D01*G01*
G75*G03X416200Y264000I-800J0D01*G01*
X426200D02*G75*G03X427800Y264000I800J0D01*G01*
G75*G03X426200Y264000I-800J0D01*G01*
X436200D02*G75*G03X437800Y264000I800J0D01*G01*
G75*G03X436200Y264000I-800J0D01*G01*
X406200Y294000D02*G75*G03X407800Y294000I800J0D01*G01*
G75*G03X406200Y294000I-800J0D01*G01*
X416200D02*G75*G03X417800Y294000I800J0D01*G01*
G75*G03X416200Y294000I-800J0D01*G01*
X426200D02*G75*G03X427800Y294000I800J0D01*G01*
G75*G03X426200Y294000I-800J0D01*G01*
X436200D02*G75*G03X437800Y294000I800J0D01*G01*
G75*G03X436200Y294000I-800J0D01*G01*
X406200Y324000D02*G75*G03X407800Y324000I800J0D01*G01*
G75*G03X406200Y324000I-800J0D01*G01*
X416200D02*G75*G03X417800Y324000I800J0D01*G01*
G75*G03X416200Y324000I-800J0D01*G01*
X426200D02*G75*G03X427800Y324000I800J0D01*G01*
G75*G03X426200Y324000I-800J0D01*G01*
X436200D02*G75*G03X437800Y324000I800J0D01*G01*
G75*G03X436200Y324000I-800J0D01*G01*
X452700Y354000D02*G75*G03X454300Y354000I800J0D01*G01*
G75*G03X452700Y354000I-800J0D01*G01*
X462700D02*G75*G03X464300Y354000I800J0D01*G01*
G75*G03X462700Y354000I-800J0D01*G01*
X472700D02*G75*G03X474300Y354000I800J0D01*G01*
G75*G03X472700Y354000I-800J0D01*G01*
X406200D02*G75*G03X407800Y354000I800J0D01*G01*
G75*G03X406200Y354000I-800J0D01*G01*
X416200D02*G75*G03X417800Y354000I800J0D01*G01*
G75*G03X416200Y354000I-800J0D01*G01*
X426200D02*G75*G03X427800Y354000I800J0D01*G01*
G75*G03X426200Y354000I-800J0D01*G01*
X436200D02*G75*G03X437800Y354000I800J0D01*G01*
G75*G03X436200Y354000I-800J0D01*G01*
X204641Y47500D02*G75*G03X206241Y47500I800J0D01*G01*
G75*G03X204641Y47500I-800J0D01*G01*
Y57500D02*G75*G03X206241Y57500I800J0D01*G01*
G75*G03X204641Y57500I-800J0D01*G01*
Y67500D02*G75*G03X206241Y67500I800J0D01*G01*
G75*G03X204641Y67500I-800J0D01*G01*
X234641Y47500D02*G75*G03X236241Y47500I800J0D01*G01*
G75*G03X234641Y47500I-800J0D01*G01*
Y57500D02*G75*G03X236241Y57500I800J0D01*G01*
G75*G03X234641Y57500I-800J0D01*G01*
Y67500D02*G75*G03X236241Y67500I800J0D01*G01*
G75*G03X234641Y67500I-800J0D01*G01*
X264641Y47500D02*G75*G03X266241Y47500I800J0D01*G01*
G75*G03X264641Y47500I-800J0D01*G01*
Y57500D02*G75*G03X266241Y57500I800J0D01*G01*
G75*G03X264641Y57500I-800J0D01*G01*
Y67500D02*G75*G03X266241Y67500I800J0D01*G01*
G75*G03X264641Y67500I-800J0D01*G01*
X294641Y47500D02*G75*G03X296241Y47500I800J0D01*G01*
G75*G03X294641Y47500I-800J0D01*G01*
Y57500D02*G75*G03X296241Y57500I800J0D01*G01*
G75*G03X294641Y57500I-800J0D01*G01*
Y67500D02*G75*G03X296241Y67500I800J0D01*G01*
G75*G03X294641Y67500I-800J0D01*G01*
X174641Y47500D02*G75*G03X176241Y47500I800J0D01*G01*
G75*G03X174641Y47500I-800J0D01*G01*
Y57500D02*G75*G03X176241Y57500I800J0D01*G01*
G75*G03X174641Y57500I-800J0D01*G01*
Y67500D02*G75*G03X176241Y67500I800J0D01*G01*
G75*G03X174641Y67500I-800J0D01*G01*
X144641Y47500D02*G75*G03X146241Y47500I800J0D01*G01*
G75*G03X144641Y47500I-800J0D01*G01*
Y57500D02*G75*G03X146241Y57500I800J0D01*G01*
G75*G03X144641Y57500I-800J0D01*G01*
Y67500D02*G75*G03X146241Y67500I800J0D01*G01*
G75*G03X144641Y67500I-800J0D01*G01*
X114641Y47500D02*G75*G03X116241Y47500I800J0D01*G01*
G75*G03X114641Y47500I-800J0D01*G01*
Y57500D02*G75*G03X116241Y57500I800J0D01*G01*
G75*G03X114641Y57500I-800J0D01*G01*
Y67500D02*G75*G03X116241Y67500I800J0D01*G01*
G75*G03X114641Y67500I-800J0D01*G01*
X84641Y47500D02*G75*G03X86241Y47500I800J0D01*G01*
G75*G03X84641Y47500I-800J0D01*G01*
Y57500D02*G75*G03X86241Y57500I800J0D01*G01*
G75*G03X84641Y57500I-800J0D01*G01*
Y67500D02*G75*G03X86241Y67500I800J0D01*G01*
G75*G03X84641Y67500I-800J0D01*G01*
X311641Y249000D02*G75*G03X313241Y249000I800J0D01*G01*
G75*G03X311641Y249000I-800J0D01*G01*
X321641D02*G75*G03X323241Y249000I800J0D01*G01*
G75*G03X321641Y249000I-800J0D01*G01*
X331641D02*G75*G03X333241Y249000I800J0D01*G01*
G75*G03X331641Y249000I-800J0D01*G01*
X341641D02*G75*G03X343241Y249000I800J0D01*G01*
G75*G03X341641Y249000I-800J0D01*G01*
X84641Y240000D02*G75*G03X86241Y240000I800J0D01*G01*
G75*G03X84641Y240000I-800J0D01*G01*
Y230000D02*G75*G03X86241Y230000I800J0D01*G01*
G75*G03X84641Y230000I-800J0D01*G01*
Y220000D02*G75*G03X86241Y220000I800J0D01*G01*
G75*G03X84641Y220000I-800J0D01*G01*
X14200Y471250D02*G75*G03X15800Y471250I800J0D01*G01*
G75*G03X14200Y471250I-800J0D01*G01*
X135000Y473500D02*X136500Y470500D01*
X138000Y473500D01*
X136500Y470500D02*Y467500D01*
X139800Y470800D02*X142050D01*
X139800Y467500D02*X142800D01*
X139800Y473500D02*Y467500D01*
Y473500D02*X142800D01*
X147600D02*X148350Y472750D01*
X145350Y473500D02*X147600D01*
X144600Y472750D02*X145350Y473500D01*
X144600Y472750D02*Y471250D01*
X145350Y470500D01*
X147600D01*
X148350Y469750D01*
Y468250D01*
X147600Y467500D02*X148350Y468250D01*
X145350Y467500D02*X147600D01*
X144600Y468250D02*X145350Y467500D01*
X98750D02*X101000Y470500D01*
Y472750D02*Y470500D01*
X100250Y473500D02*X101000Y472750D01*
X98750Y473500D02*X100250D01*
X98000Y472750D02*X98750Y473500D01*
X98000Y472750D02*Y471250D01*
X98750Y470500D01*
X101000D01*
X103550Y467500D02*X105800Y470500D01*
Y472750D02*Y470500D01*
X105050Y473500D02*X105800Y472750D01*
X103550Y473500D02*X105050D01*
X102800Y472750D02*X103550Y473500D01*
X102800Y472750D02*Y471250D01*
X103550Y470500D01*
X105800D01*
X45000Y468250D02*X45750Y467500D01*
X45000Y472750D02*Y468250D01*
Y472750D02*X45750Y473500D01*
X47250D01*
X48000Y472750D01*
Y468250D01*
X47250Y467500D02*X48000Y468250D01*
X45750Y467500D02*X47250D01*
X45000Y469000D02*X48000Y472000D01*
X49800Y467500D02*X50550D01*
X52350Y468250D02*X53100Y467500D01*
X52350Y472750D02*Y468250D01*
Y472750D02*X53100Y473500D01*
X54600D01*
X55350Y472750D01*
Y468250D01*
X54600Y467500D02*X55350Y468250D01*
X53100Y467500D02*X54600D01*
X52350Y469000D02*X55350Y472000D01*
X57150Y469750D02*X60150Y473500D01*
X57150Y469750D02*X60900D01*
X60150Y473500D02*Y467500D01*
X62700Y468250D02*X63450Y467500D01*
X62700Y472750D02*Y468250D01*
Y472750D02*X63450Y473500D01*
X64950D01*
X65700Y472750D01*
Y468250D01*
X64950Y467500D02*X65700Y468250D01*
X63450Y467500D02*X64950D01*
X62700Y469000D02*X65700Y472000D01*
X439741Y124200D02*X442141Y121800D01*
X439741D02*X442141Y124200D01*
X13800Y487450D02*X16200Y485050D01*
X13800D02*X16200Y487450D01*
X135000Y488500D02*X136500Y485500D01*
X138000Y488500D01*
X136500Y485500D02*Y482500D01*
X139800Y485800D02*X142050D01*
X139800Y482500D02*X142800D01*
X139800Y488500D02*Y482500D01*
Y488500D02*X142800D01*
X147600D02*X148350Y487750D01*
X145350Y488500D02*X147600D01*
X144600Y487750D02*X145350Y488500D01*
X144600Y487750D02*Y486250D01*
X145350Y485500D01*
X147600D01*
X148350Y484750D01*
Y483250D01*
X147600Y482500D02*X148350Y483250D01*
X145350Y482500D02*X147600D01*
X144600Y483250D02*X145350Y482500D01*
X98000Y487300D02*X99200Y488500D01*
Y482500D01*
X98000D02*X100250D01*
X45000Y483250D02*X45750Y482500D01*
X45000Y487750D02*Y483250D01*
Y487750D02*X45750Y488500D01*
X47250D01*
X48000Y487750D01*
Y483250D01*
X47250Y482500D02*X48000Y483250D01*
X45750Y482500D02*X47250D01*
X45000Y484000D02*X48000Y487000D01*
X49800Y482500D02*X50550D01*
X52350Y483250D02*X53100Y482500D01*
X52350Y487750D02*Y483250D01*
Y487750D02*X53100Y488500D01*
X54600D01*
X55350Y487750D01*
Y483250D01*
X54600Y482500D02*X55350Y483250D01*
X53100Y482500D02*X54600D01*
X52350Y484000D02*X55350Y487000D01*
X57150Y487750D02*X57900Y488500D01*
X59400D01*
X60150Y487750D01*
X59400Y482500D02*X60150Y483250D01*
X57900Y482500D02*X59400D01*
X57150Y483250D02*X57900Y482500D01*
Y485800D02*X59400D01*
X60150Y487750D02*Y486550D01*
Y485050D02*Y483250D01*
Y485050D02*X59400Y485800D01*
X60150Y486550D02*X59400Y485800D01*
X61950Y488500D02*X64950D01*
X61950D02*Y485500D01*
X62700Y486250D01*
X64200D01*
X64950Y485500D01*
Y483250D01*
X64200Y482500D02*X64950Y483250D01*
X62700Y482500D02*X64200D01*
X61950Y483250D02*X62700Y482500D01*
X432324Y112600D02*Y109400D01*
X430724Y111000D02*X433924D01*
X386441Y164600D02*Y161400D01*
X384841Y163000D02*X388041D01*
X387441Y327600D02*Y324400D01*
X385841Y326000D02*X389041D01*
X393441Y356600D02*Y353400D01*
X391841Y355000D02*X395041D01*
X386720Y283600D02*Y280400D01*
X385120Y282000D02*X388320D01*
X400441Y195600D02*Y192400D01*
X398841Y194000D02*X402041D01*
X389441Y185600D02*Y182400D01*
X387841Y184000D02*X391041D01*
X400441Y190600D02*Y187400D01*
X398841Y189000D02*X402041D01*
X393441Y209600D02*Y206400D01*
X391841Y208000D02*X395041D01*
X393441Y328600D02*Y325400D01*
X391841Y327000D02*X395041D01*
X385941Y356100D02*Y352900D01*
X384341Y354500D02*X387541D01*
X375441Y236600D02*Y233400D01*
X373841Y235000D02*X377041D01*
X384162Y189600D02*Y186400D01*
X382562Y188000D02*X385762D01*
X387070Y236600D02*Y233400D01*
X385470Y235000D02*X388670D01*
X384162Y307600D02*Y304400D01*
X382562Y306000D02*X385762D01*
X458441Y376600D02*Y373400D01*
X456841Y375000D02*X460041D01*
X458441Y346600D02*Y343400D01*
X456841Y345000D02*X460041D01*
X458441Y316600D02*Y313400D01*
X456841Y315000D02*X460041D01*
X458441Y286600D02*Y283400D01*
X456841Y285000D02*X460041D01*
X458441Y255600D02*Y252400D01*
X456841Y254000D02*X460041D01*
X458441Y226600D02*Y223400D01*
X456841Y225000D02*X460041D01*
X458441Y196600D02*Y193400D01*
X456841Y195000D02*X460041D01*
X458441Y165600D02*Y162400D01*
X456841Y164000D02*X460041D01*
X446441Y103600D02*Y100400D01*
X444841Y102000D02*X448041D01*
X434882Y76600D02*Y73400D01*
X433282Y75000D02*X436482D01*
X423441Y76600D02*Y73400D01*
X421841Y75000D02*X425041D01*
X372441Y171986D02*Y168786D01*
X370841Y170386D02*X374041D01*
X398441Y249600D02*Y246400D01*
X396841Y248000D02*X400041D01*
X398441Y254600D02*Y251400D01*
X396841Y253000D02*X400041D01*
X384512Y259600D02*Y256400D01*
X382912Y258000D02*X386112D01*
X398441Y315600D02*Y312400D01*
X396841Y314000D02*X400041D01*
X398441Y310600D02*Y307400D01*
X396841Y309000D02*X400041D01*
X372441Y292289D02*Y289089D01*
X370841Y290689D02*X374041D01*
X372441Y352789D02*Y349589D01*
X370841Y351189D02*X374041D01*
X383662Y380100D02*Y376900D01*
X382062Y378500D02*X385262D01*
X397441Y374600D02*Y371400D01*
X395841Y373000D02*X399041D01*
X397941Y369041D02*Y365841D01*
X396341Y367441D02*X399541D01*
X15000Y502850D02*Y499650D01*
X13400Y501250D02*X16600D01*
X135000Y503500D02*X136500Y500500D01*
X138000Y503500D01*
X136500Y500500D02*Y497500D01*
X139800Y500800D02*X142050D01*
X139800Y497500D02*X142800D01*
X139800Y503500D02*Y497500D01*
Y503500D02*X142800D01*
X147600D02*X148350Y502750D01*
X145350Y503500D02*X147600D01*
X144600Y502750D02*X145350Y503500D01*
X144600Y502750D02*Y501250D01*
X145350Y500500D01*
X147600D01*
X148350Y499750D01*
Y498250D01*
X147600Y497500D02*X148350Y498250D01*
X145350Y497500D02*X147600D01*
X144600Y498250D02*X145350Y497500D01*
X98000Y502750D02*X98750Y503500D01*
X100250D01*
X101000Y502750D01*
X100250Y497500D02*X101000Y498250D01*
X98750Y497500D02*X100250D01*
X98000Y498250D02*X98750Y497500D01*
Y500800D02*X100250D01*
X101000Y502750D02*Y501550D01*
Y500050D02*Y498250D01*
Y500050D02*X100250Y500800D01*
X101000Y501550D02*X100250Y500800D01*
X103550Y497500D02*X106550Y503500D01*
X102800D02*X106550D01*
X45000Y498250D02*X45750Y497500D01*
X45000Y502750D02*Y498250D01*
Y502750D02*X45750Y503500D01*
X47250D01*
X48000Y502750D01*
Y498250D01*
X47250Y497500D02*X48000Y498250D01*
X45750Y497500D02*X47250D01*
X45000Y499000D02*X48000Y502000D01*
X49800Y497500D02*X50550D01*
X52350Y498250D02*X53100Y497500D01*
X52350Y502750D02*Y498250D01*
Y502750D02*X53100Y503500D01*
X54600D01*
X55350Y502750D01*
Y498250D01*
X54600Y497500D02*X55350Y498250D01*
X53100Y497500D02*X54600D01*
X52350Y499000D02*X55350Y502000D01*
X57150Y502750D02*X57900Y503500D01*
X60150D01*
X60900Y502750D01*
Y501250D01*
X57150Y497500D02*X60900Y501250D01*
X57150Y497500D02*X60900D01*
X62700Y498250D02*X63450Y497500D01*
X62700Y502750D02*Y498250D01*
Y502750D02*X63450Y503500D01*
X64950D01*
X65700Y502750D01*
Y498250D01*
X64950Y497500D02*X65700Y498250D01*
X63450Y497500D02*X64950D01*
X62700Y499000D02*X65700Y502000D01*
X307716Y275075D02*Y273475D01*
Y275075D02*X309103Y275875D01*
X307716Y275075D02*X306329Y275875D01*
X308992Y271971D02*Y270371D01*
Y271971D02*X310379Y272771D01*
X308992Y271971D02*X307605Y272771D01*
X308872Y266522D02*Y264922D01*
Y266522D02*X310259Y267322D01*
X308872Y266522D02*X307485Y267322D01*
X245557Y279508D02*Y277908D01*
Y279508D02*X246944Y280308D01*
X245557Y279508D02*X244170Y280308D01*
X266413Y296594D02*Y294994D01*
Y296594D02*X267800Y297394D01*
X266413Y296594D02*X265026Y297394D01*
X263240Y295329D02*Y293729D01*
Y295329D02*X264627Y296129D01*
X263240Y295329D02*X261853Y296129D01*
X262740Y291829D02*Y290229D01*
Y291829D02*X264127Y292629D01*
X262740Y291829D02*X261353Y292629D01*
X254740Y298329D02*Y296729D01*
Y298329D02*X256127Y299129D01*
X254740Y298329D02*X253353Y299129D01*
X287917Y307829D02*Y306229D01*
Y307829D02*X289304Y308629D01*
X287917Y307829D02*X286530Y308629D01*
X269653Y298631D02*Y297031D01*
Y298631D02*X271040Y299431D01*
X269653Y298631D02*X268266Y299431D01*
X273229Y298582D02*Y296982D01*
Y298582D02*X274616Y299382D01*
X273229Y298582D02*X271842Y299382D01*
X278225Y279602D02*Y278002D01*
Y279602D02*X279612Y280402D01*
X278225Y279602D02*X276838Y280402D01*
X262750Y268772D02*Y267172D01*
Y268772D02*X264137Y269572D01*
X262750Y268772D02*X261363Y269572D01*
X293902Y282263D02*Y280663D01*
Y282263D02*X295289Y283063D01*
X293902Y282263D02*X292515Y283063D01*
X260341Y284249D02*Y282649D01*
Y284249D02*X261728Y285049D01*
X260341Y284249D02*X258954Y285049D01*
X296779Y304963D02*Y303363D01*
Y304963D02*X298166Y305763D01*
X296779Y304963D02*X295392Y305763D01*
X253101Y261836D02*Y260236D01*
Y261836D02*X254488Y262636D01*
X253101Y261836D02*X251714Y262636D01*
X239302Y262235D02*Y260635D01*
Y262235D02*X240689Y263035D01*
X239302Y262235D02*X237915Y263035D01*
X295937Y243628D02*Y242028D01*
Y243628D02*X297324Y244428D01*
X295937Y243628D02*X294550Y244428D01*
X278207Y298612D02*Y297012D01*
Y298612D02*X279594Y299412D01*
X278207Y298612D02*X276820Y299412D01*
X277174Y308219D02*Y306619D01*
Y308219D02*X278561Y309019D01*
X277174Y308219D02*X275787Y309019D01*
X242456Y293543D02*Y291943D01*
Y293543D02*X243843Y294343D01*
X242456Y293543D02*X241069Y294343D01*
X242168Y298800D02*Y297200D01*
Y298800D02*X243555Y299600D01*
X242168Y298800D02*X240781Y299600D01*
X312157Y300156D02*Y298556D01*
Y300156D02*X313544Y300956D01*
X312157Y300156D02*X310770Y300956D01*
X312122Y295038D02*Y293438D01*
Y295038D02*X313509Y295838D01*
X312122Y295038D02*X310735Y295838D01*
X277449Y347500D02*Y345900D01*
Y347500D02*X278836Y348300D01*
X277449Y347500D02*X276062Y348300D01*
X303365Y330000D02*Y328400D01*
Y330000D02*X304752Y330800D01*
X303365Y330000D02*X301978Y330800D01*
X285430Y325000D02*Y323400D01*
Y325000D02*X286817Y325800D01*
X285430Y325000D02*X284043Y325800D01*
X302941Y340007D02*Y338407D01*
Y340007D02*X304328Y340807D01*
X302941Y340007D02*X301554Y340807D01*
X371602Y260228D02*Y258628D01*
Y260228D02*X372989Y261028D01*
X371602Y260228D02*X370215Y261028D01*
X396441Y235000D02*Y233400D01*
Y235000D02*X397828Y235800D01*
X396441Y235000D02*X395054Y235800D01*
X385941Y366000D02*Y364400D01*
Y366000D02*X387328Y366800D01*
X385941Y366000D02*X384554Y366800D01*
X398441Y291000D02*Y289400D01*
Y291000D02*X399828Y291800D01*
X398441Y291000D02*X397054Y291800D01*
X386023Y157813D02*Y156213D01*
Y157813D02*X387410Y158613D01*
X386023Y157813D02*X384636Y158613D01*
X398441Y173000D02*Y171400D01*
Y173000D02*X399828Y173800D01*
X398441Y173000D02*X397054Y173800D01*
X354441Y85000D02*Y83400D01*
Y85000D02*X355828Y85800D01*
X354441Y85000D02*X353054Y85800D01*
X354441Y89500D02*Y87900D01*
Y89500D02*X355828Y90300D01*
X354441Y89500D02*X353054Y90300D01*
X354441Y95500D02*Y93900D01*
Y95500D02*X355828Y96300D01*
X354441Y95500D02*X353054Y96300D01*
X354441Y101500D02*Y99900D01*
Y101500D02*X355828Y102300D01*
X354441Y101500D02*X353054Y102300D01*
X354441Y107500D02*Y105900D01*
Y107500D02*X355828Y108300D01*
X354441Y107500D02*X353054Y108300D01*
X354441Y113500D02*Y111900D01*
Y113500D02*X355828Y114300D01*
X354441Y113500D02*X353054Y114300D01*
X354441Y119500D02*Y117900D01*
Y119500D02*X355828Y120300D01*
X354441Y119500D02*X353054Y120300D01*
X387441Y119500D02*Y117900D01*
Y119500D02*X388828Y120300D01*
X387441Y119500D02*X386054Y120300D01*
X387441Y113500D02*Y111900D01*
Y113500D02*X388828Y114300D01*
X387441Y113500D02*X386054Y114300D01*
X387441Y107500D02*Y105900D01*
Y107500D02*X388828Y108300D01*
X387441Y107500D02*X386054Y108300D01*
X387441Y101500D02*Y99900D01*
Y101500D02*X388828Y102300D01*
X387441Y101500D02*X386054Y102300D01*
X387441Y89500D02*Y87900D01*
Y89500D02*X388828Y90300D01*
X387441Y89500D02*X386054Y90300D01*
X387441Y85000D02*Y83400D01*
Y85000D02*X388828Y85800D01*
X387441Y85000D02*X386054Y85800D01*
X387441Y95500D02*Y93900D01*
Y95500D02*X388828Y96300D01*
X387441Y95500D02*X386054Y96300D01*
X390941Y76000D02*Y74400D01*
Y76000D02*X392328Y76800D01*
X390941Y76000D02*X389554Y76800D01*
X390941Y71500D02*Y69900D01*
Y71500D02*X392328Y72300D01*
X390941Y71500D02*X389554Y72300D01*
X391441Y66000D02*Y64400D01*
Y66000D02*X392828Y66800D01*
X391441Y66000D02*X390054Y66800D01*
X394941Y58500D02*Y56900D01*
Y58500D02*X396328Y59300D01*
X394941Y58500D02*X393554Y59300D01*
X393941Y51500D02*Y49900D01*
Y51500D02*X395328Y52300D01*
X393941Y51500D02*X392554Y52300D01*
X392441Y45000D02*Y43400D01*
Y45000D02*X393828Y45800D01*
X392441Y45000D02*X391054Y45800D01*
X434449Y56500D02*Y54900D01*
Y56500D02*X435836Y57300D01*
X434449Y56500D02*X433062Y57300D01*
X440449Y56500D02*Y54900D01*
Y56500D02*X441836Y57300D01*
X440449Y56500D02*X439062Y57300D01*
X163941Y127500D02*Y125900D01*
Y127500D02*X165328Y128300D01*
X163941Y127500D02*X162554Y128300D01*
X193390Y127500D02*Y125900D01*
Y127500D02*X194777Y128300D01*
X193390Y127500D02*X192003Y128300D01*
X112222Y127340D02*Y125740D01*
Y127340D02*X113609Y128140D01*
X112222Y127340D02*X110835Y128140D01*
X245441Y127500D02*Y125900D01*
Y127500D02*X246828Y128300D01*
X245441Y127500D02*X244054Y128300D01*
X114441Y121500D02*Y119900D01*
Y121500D02*X115828Y122300D01*
X114441Y121500D02*X113054Y122300D01*
X115441Y132500D02*Y130900D01*
Y132500D02*X116828Y133300D01*
X115441Y132500D02*X114054Y133300D01*
X152441Y121500D02*Y119900D01*
Y121500D02*X153828Y122300D01*
X152441Y121500D02*X151054Y122300D01*
X151941Y132000D02*Y130400D01*
Y132000D02*X153328Y132800D01*
X151941Y132000D02*X150554Y132800D01*
X127941Y148000D02*Y146400D01*
Y148000D02*X129328Y148800D01*
X127941Y148000D02*X126554Y148800D01*
X141441Y148000D02*Y146400D01*
Y148000D02*X142828Y148800D01*
X141441Y148000D02*X140054Y148800D01*
X198441Y122500D02*Y120900D01*
Y122500D02*X199828Y123300D01*
X198441Y122500D02*X197054Y123300D01*
X195441Y133000D02*Y131400D01*
Y133000D02*X196828Y133800D01*
X195441Y133000D02*X194054Y133800D01*
X208941Y148000D02*Y146400D01*
Y148000D02*X210328Y148800D01*
X208941Y148000D02*X207554Y148800D01*
X223941Y148000D02*Y146400D01*
Y148000D02*X225328Y148800D01*
X223941Y148000D02*X222554Y148800D01*
X234441Y122500D02*Y120900D01*
Y122500D02*X235828Y123300D01*
X234441Y122500D02*X233054Y123300D01*
X235941Y133000D02*Y131400D01*
Y133000D02*X237328Y133800D01*
X235941Y133000D02*X234554Y133800D01*
X128941Y274500D02*Y272900D01*
Y274500D02*X130328Y275300D01*
X128941Y274500D02*X127554Y275300D01*
X128941Y268500D02*Y266900D01*
Y268500D02*X130328Y269300D01*
X128941Y268500D02*X127554Y269300D01*
X128941Y262500D02*Y260900D01*
Y262500D02*X130328Y263300D01*
X128941Y262500D02*X127554Y263300D01*
X128941Y255000D02*Y253400D01*
Y255000D02*X130328Y255800D01*
X128941Y255000D02*X127554Y255800D01*
X128941Y248500D02*Y246900D01*
Y248500D02*X130328Y249300D01*
X128941Y248500D02*X127554Y249300D01*
X128941Y242500D02*Y240900D01*
Y242500D02*X130328Y243300D01*
X128941Y242500D02*X127554Y243300D01*
X162441Y242500D02*Y240900D01*
Y242500D02*X163828Y243300D01*
X162441Y242500D02*X161054Y243300D01*
X162441Y248500D02*Y246900D01*
Y248500D02*X163828Y249300D01*
X162441Y248500D02*X161054Y249300D01*
X161941Y255000D02*Y253400D01*
Y255000D02*X163328Y255800D01*
X161941Y255000D02*X160554Y255800D01*
X162441Y262500D02*Y260900D01*
Y262500D02*X163828Y263300D01*
X162441Y262500D02*X161054Y263300D01*
X162941Y268500D02*Y266900D01*
Y268500D02*X164328Y269300D01*
X162941Y268500D02*X161554Y269300D01*
X162941Y274500D02*Y272900D01*
Y274500D02*X164328Y275300D01*
X162941Y274500D02*X161554Y275300D01*
X165941Y231000D02*Y229400D01*
Y231000D02*X167328Y231800D01*
X165941Y231000D02*X164554Y231800D01*
X165941Y226500D02*Y224900D01*
Y226500D02*X167328Y227300D01*
X165941Y226500D02*X164554Y227300D01*
X165941Y220500D02*Y218900D01*
Y220500D02*X167328Y221300D01*
X165941Y220500D02*X164554Y221300D01*
X169441Y214000D02*Y212400D01*
Y214000D02*X170828Y214800D01*
X169441Y214000D02*X168054Y214800D01*
X169441Y208500D02*Y206900D01*
Y208500D02*X170828Y209300D01*
X169441Y208500D02*X168054Y209300D01*
X169441Y201500D02*Y199900D01*
Y201500D02*X170828Y202300D01*
X169441Y201500D02*X168054Y202300D01*
X141307Y300883D02*Y299283D01*
Y300883D02*X142694Y301683D01*
X141307Y300883D02*X139920Y301683D01*
X158441Y323829D02*Y322229D01*
Y323829D02*X159828Y324629D01*
X158441Y323829D02*X157054Y324629D01*
X158441Y328829D02*Y327229D01*
Y328829D02*X159828Y329629D01*
X158441Y328829D02*X157054Y329629D01*
X158441Y326500D02*Y324900D01*
Y326500D02*X159828Y327300D01*
X158441Y326500D02*X157054Y327300D01*
X197441Y314500D02*Y312900D01*
Y314500D02*X198828Y315300D01*
X197441Y314500D02*X196054Y315300D01*
X195441Y311500D02*Y309900D01*
Y311500D02*X196828Y312300D01*
X195441Y311500D02*X194054Y312300D01*
X197441Y308500D02*Y306900D01*
Y308500D02*X198828Y309300D01*
X197441Y308500D02*X196054Y309300D01*
X124831Y302385D02*Y300785D01*
Y302385D02*X126218Y303185D01*
X124831Y302385D02*X123444Y303185D01*
X135441Y338500D02*Y336900D01*
Y338500D02*X136828Y339300D01*
X135441Y338500D02*X134054Y339300D01*
X135441Y335000D02*Y333400D01*
Y335000D02*X136828Y335800D01*
X135441Y335000D02*X134054Y335800D01*
X139941Y338000D02*Y336400D01*
Y338000D02*X141328Y338800D01*
X139941Y338000D02*X138554Y338800D01*
X153941Y338000D02*Y336400D01*
Y338000D02*X155328Y338800D01*
X153941Y338000D02*X152554Y338800D01*
X111941Y334000D02*Y332400D01*
Y334000D02*X113328Y334800D01*
X111941Y334000D02*X110554Y334800D01*
X117941Y334000D02*Y332400D01*
Y334000D02*X119328Y334800D01*
X117941Y334000D02*X116554Y334800D01*
X126441Y334000D02*Y332400D01*
Y334000D02*X127828Y334800D01*
X126441Y334000D02*X125054Y334800D01*
X126441Y340500D02*Y338900D01*
Y340500D02*X127828Y341300D01*
X126441Y340500D02*X125054Y341300D01*
X111941Y341000D02*Y339400D01*
Y341000D02*X113328Y341800D01*
X111941Y341000D02*X110554Y341800D01*
X111941Y357500D02*Y355900D01*
Y357500D02*X113328Y358300D01*
X111941Y357500D02*X110554Y358300D01*
X142441Y357500D02*Y355900D01*
Y357500D02*X143828Y358300D01*
X142441Y357500D02*X141054Y358300D01*
X142441Y349500D02*Y347900D01*
Y349500D02*X143828Y350300D01*
X142441Y349500D02*X141054Y350300D01*
X154941Y345500D02*Y343900D01*
Y345500D02*X156328Y346300D01*
X154941Y345500D02*X153554Y346300D01*
X149441Y349500D02*Y347900D01*
Y349500D02*X150828Y350300D01*
X149441Y349500D02*X148054Y350300D01*
X121941Y357500D02*Y355900D01*
Y357500D02*X123328Y358300D01*
X121941Y357500D02*X120554Y358300D01*
X130941Y357500D02*Y355900D01*
Y357500D02*X132328Y358300D01*
X130941Y357500D02*X129554Y358300D01*
X309441Y141568D02*Y139968D01*
Y141568D02*X310828Y142368D01*
X309441Y141568D02*X308054Y142368D01*
X309441Y136450D02*Y134850D01*
Y136450D02*X310828Y137250D01*
X309441Y136450D02*X308054Y137250D01*
X310941Y115940D02*Y114340D01*
Y115940D02*X312328Y116740D01*
X310941Y115940D02*X309554Y116740D01*
X305696Y107500D02*Y105900D01*
Y107500D02*X307083Y108300D01*
X305696Y107500D02*X304309Y108300D01*
X263441Y320000D02*Y318400D01*
Y320000D02*X264828Y320800D01*
X263441Y320000D02*X262054Y320800D01*
X304584Y207483D02*Y205883D01*
Y207483D02*X305971Y208283D01*
X304584Y207483D02*X303197Y208283D01*
X304706Y210583D02*Y208983D01*
Y210583D02*X306093Y211383D01*
X304706Y210583D02*X303319Y211383D01*
X305280Y204383D02*Y202783D01*
Y204383D02*X306667Y205183D01*
X305280Y204383D02*X303893Y205183D01*
X246941Y238000D02*Y236400D01*
Y238000D02*X248328Y238800D01*
X246941Y238000D02*X245554Y238800D01*
X242441Y229500D02*Y227900D01*
Y229500D02*X243828Y230300D01*
X242441Y229500D02*X241054Y230300D01*
X246441Y229500D02*Y227900D01*
Y229500D02*X247828Y230300D01*
X246441Y229500D02*X245054Y230300D01*
X250941Y229500D02*Y227900D01*
Y229500D02*X252328Y230300D01*
X250941Y229500D02*X249554Y230300D01*
X221884Y254000D02*Y252400D01*
Y254000D02*X223271Y254800D01*
X221884Y254000D02*X220497Y254800D01*
X224441Y252000D02*Y250400D01*
Y252000D02*X225828Y252800D01*
X224441Y252000D02*X223054Y252800D01*
X356441Y233000D02*Y231400D01*
Y233000D02*X357828Y233800D01*
X356441Y233000D02*X355054Y233800D01*
X338441Y224192D02*Y222592D01*
Y224192D02*X339828Y224992D01*
X338441Y224192D02*X337054Y224992D01*
X338441Y230124D02*Y228524D01*
Y230124D02*X339828Y230924D01*
X338441Y230124D02*X337054Y230924D01*
X225441Y249000D02*Y247400D01*
Y249000D02*X226828Y249800D01*
X225441Y249000D02*X224054Y249800D01*
X219441Y272500D02*Y270900D01*
Y272500D02*X220828Y273300D01*
X219441Y272500D02*X218054Y273300D01*
X220729Y265580D02*Y263980D01*
Y265580D02*X222116Y266380D01*
X220729Y265580D02*X219342Y266380D01*
X217441Y279000D02*Y277400D01*
Y279000D02*X218828Y279800D01*
X217441Y279000D02*X216054Y279800D01*
X260568Y316997D02*Y315397D01*
Y316997D02*X261955Y317797D01*
X260568Y316997D02*X259181Y317797D01*
X240391Y278564D02*Y276964D01*
Y278564D02*X241778Y279364D01*
X240391Y278564D02*X239004Y279364D01*
X230441Y293000D02*Y291400D01*
Y293000D02*X231828Y293800D01*
X230441Y293000D02*X229054Y293800D01*
X264034Y282931D02*Y281331D01*
Y282931D02*X265421Y283731D01*
X264034Y282931D02*X262647Y283731D01*
X279441Y285000D02*Y283400D01*
Y285000D02*X280828Y285800D01*
X279441Y285000D02*X278054Y285800D01*
X246731Y303031D02*Y301431D01*
Y303031D02*X248118Y303831D01*
X246731Y303031D02*X245344Y303831D01*
X270441Y336000D02*Y334400D01*
Y336000D02*X271828Y336800D01*
X270441Y336000D02*X269054Y336800D01*
X270441Y342500D02*Y340900D01*
Y342500D02*X271828Y343300D01*
X270441Y342500D02*X269054Y343300D01*
X270441Y349500D02*Y347900D01*
Y349500D02*X271828Y350300D01*
X270441Y349500D02*X269054Y350300D01*
X392188Y239000D02*Y237400D01*
Y239000D02*X393575Y239800D01*
X392188Y239000D02*X390801Y239800D01*
X388207Y247280D02*Y245680D01*
Y247280D02*X389594Y248080D01*
X388207Y247280D02*X386820Y248080D01*
X191363Y344449D02*Y342849D01*
Y344449D02*X192750Y345249D01*
X191363Y344449D02*X189976Y345249D01*
X178887Y342818D02*Y341218D01*
Y342818D02*X180274Y343618D01*
X178887Y342818D02*X177500Y343618D01*
X168732Y350833D02*Y349233D01*
Y350833D02*X170119Y351633D01*
X168732Y350833D02*X167345Y351633D01*
X296727Y256227D02*Y254627D01*
Y256227D02*X298114Y257027D01*
X296727Y256227D02*X295340Y257027D01*
X339837Y341827D02*Y340227D01*
Y341827D02*X341224Y342627D01*
X339837Y341827D02*X338450Y342627D01*
X353390Y339521D02*Y337921D01*
Y339521D02*X354777Y340321D01*
X353390Y339521D02*X352003Y340321D01*
X337441Y163000D02*Y161400D01*
Y163000D02*X338828Y163800D01*
X337441Y163000D02*X336054Y163800D01*
X377347Y162178D02*Y160578D01*
Y162178D02*X378734Y162978D01*
X377347Y162178D02*X375960Y162978D01*
X230441Y247000D02*Y245400D01*
Y247000D02*X231828Y247800D01*
X230441Y247000D02*X229054Y247800D01*
X358941Y208500D02*Y206900D01*
Y208500D02*X360328Y209300D01*
X358941Y208500D02*X357554Y209300D01*
X220441Y259500D02*Y257900D01*
Y259500D02*X221828Y260300D01*
X220441Y259500D02*X219054Y260300D01*
X218441Y261500D02*Y259900D01*
Y261500D02*X219828Y262300D01*
X218441Y261500D02*X217054Y262300D01*
X198441Y262500D02*Y260900D01*
Y262500D02*X199828Y263300D01*
X198441Y262500D02*X197054Y263300D01*
X198441Y269500D02*Y267900D01*
Y269500D02*X199828Y270300D01*
X198441Y269500D02*X197054Y270300D01*
X205441Y277000D02*Y275400D01*
Y277000D02*X206828Y277800D01*
X205441Y277000D02*X204054Y277800D01*
X185441Y228000D02*Y226400D01*
Y228000D02*X186828Y228800D01*
X185441Y228000D02*X184054Y228800D01*
X177441Y228000D02*Y226400D01*
Y228000D02*X178828Y228800D01*
X177441Y228000D02*X176054Y228800D01*
X177441Y217500D02*Y215900D01*
Y217500D02*X178828Y218300D01*
X177441Y217500D02*X176054Y218300D01*
X185441Y217500D02*Y215900D01*
Y217500D02*X186828Y218300D01*
X185441Y217500D02*X184054Y218300D01*
X193941Y212500D02*Y210900D01*
Y212500D02*X195328Y213300D01*
X193941Y212500D02*X192554Y213300D01*
X202441Y212500D02*Y210900D01*
Y212500D02*X203828Y213300D01*
X202441Y212500D02*X201054Y213300D01*
X210441Y212500D02*Y210900D01*
Y212500D02*X211828Y213300D01*
X210441Y212500D02*X209054Y213300D01*
X220441Y215000D02*Y213400D01*
Y215000D02*X221828Y215800D01*
X220441Y215000D02*X219054Y215800D01*
X224941Y220500D02*Y218900D01*
Y220500D02*X226328Y221300D01*
X224941Y220500D02*X223554Y221300D01*
X225441Y226500D02*Y224900D01*
Y226500D02*X226828Y227300D01*
X225441Y226500D02*X224054Y227300D01*
X224941Y235500D02*Y233900D01*
Y235500D02*X226328Y236300D01*
X224941Y235500D02*X223554Y236300D01*
X224441Y244000D02*Y242400D01*
Y244000D02*X225828Y244800D01*
X224441Y244000D02*X223054Y244800D01*
X212941Y238000D02*Y236400D01*
Y238000D02*X214328Y238800D01*
X212941Y238000D02*X211554Y238800D01*
X203941Y237500D02*Y235900D01*
Y237500D02*X205328Y238300D01*
X203941Y237500D02*X202554Y238300D01*
X193941Y237000D02*Y235400D01*
Y237000D02*X195328Y237800D01*
X193941Y237000D02*X192554Y237800D01*
X236441Y235500D02*Y233900D01*
Y235500D02*X237828Y236300D01*
X236441Y235500D02*X235054Y236300D01*
X181941Y258500D02*Y256900D01*
Y258500D02*X183328Y259300D01*
X181941Y258500D02*X180554Y259300D01*
X104441Y204500D02*Y202900D01*
Y204500D02*X105828Y205300D01*
X104441Y204500D02*X103054Y205300D01*
X100941Y204500D02*Y202900D01*
Y204500D02*X102328Y205300D01*
X100941Y204500D02*X99554Y205300D01*
X260941Y191500D02*Y189900D01*
Y191500D02*X262328Y192300D01*
X260941Y191500D02*X259554Y192300D01*
X269441Y198500D02*Y196900D01*
Y198500D02*X270828Y199300D01*
X269441Y198500D02*X268054Y199300D01*
X269941Y231500D02*Y229900D01*
Y231500D02*X271328Y232300D01*
X269941Y231500D02*X268554Y232300D01*
X251941Y210500D02*Y208900D01*
Y210500D02*X253328Y211300D01*
X251941Y210500D02*X250554Y211300D01*
X243941Y202000D02*Y200400D01*
Y202000D02*X245328Y202800D01*
X243941Y202000D02*X242554Y202800D01*
X245863Y191524D02*Y189924D01*
Y191524D02*X247250Y192324D01*
X245863Y191524D02*X244476Y192324D01*
X261502Y307367D02*Y305767D01*
Y307367D02*X262889Y308167D01*
X261502Y307367D02*X260115Y308167D01*
X268941Y314000D02*Y312400D01*
Y314000D02*X270328Y314800D01*
X268941Y314000D02*X267554Y314800D01*
X249101Y328793D02*Y327193D01*
Y328793D02*X250488Y329593D01*
X249101Y328793D02*X247714Y329593D01*
X229818Y354988D02*Y353388D01*
Y354988D02*X231205Y355788D01*
X229818Y354988D02*X228431Y355788D01*
X270441Y357000D02*Y355400D01*
Y357000D02*X271828Y357800D01*
X270441Y357000D02*X269054Y357800D01*
X15000Y516250D02*Y514650D01*
Y516250D02*X16387Y517050D01*
X15000Y516250D02*X13613Y517050D01*
X135000Y518500D02*X136500Y515500D01*
X138000Y518500D01*
X136500Y515500D02*Y512500D01*
X139800Y515800D02*X142050D01*
X139800Y512500D02*X142800D01*
X139800Y518500D02*Y512500D01*
Y518500D02*X142800D01*
X147600D02*X148350Y517750D01*
X145350Y518500D02*X147600D01*
X144600Y517750D02*X145350Y518500D01*
X144600Y517750D02*Y516250D01*
X145350Y515500D01*
X147600D01*
X148350Y514750D01*
Y513250D01*
X147600Y512500D02*X148350Y513250D01*
X145350Y512500D02*X147600D01*
X144600Y513250D02*X145350Y512500D01*
X98000Y517300D02*X99200Y518500D01*
Y512500D01*
X98000D02*X100250D01*
X102800D02*X105050Y515500D01*
Y517750D02*Y515500D01*
X104300Y518500D02*X105050Y517750D01*
X102800Y518500D02*X104300D01*
X102050Y517750D02*X102800Y518500D01*
X102050Y517750D02*Y516250D01*
X102800Y515500D01*
X105050D01*
X106850Y517750D02*X107600Y518500D01*
X109850D01*
X110600Y517750D01*
Y516250D01*
X106850Y512500D02*X110600Y516250D01*
X106850Y512500D02*X110600D01*
X45000Y513250D02*X45750Y512500D01*
X45000Y517750D02*Y513250D01*
Y517750D02*X45750Y518500D01*
X47250D01*
X48000Y517750D01*
Y513250D01*
X47250Y512500D02*X48000Y513250D01*
X45750Y512500D02*X47250D01*
X45000Y514000D02*X48000Y517000D01*
X49800Y512500D02*X50550D01*
X52350Y513250D02*X53100Y512500D01*
X52350Y517750D02*Y513250D01*
Y517750D02*X53100Y518500D01*
X54600D01*
X55350Y517750D01*
Y513250D01*
X54600Y512500D02*X55350Y513250D01*
X53100Y512500D02*X54600D01*
X52350Y514000D02*X55350Y517000D01*
X57150Y517300D02*X58350Y518500D01*
Y512500D01*
X57150D02*X59400D01*
X61200Y513250D02*X61950Y512500D01*
X61200Y517750D02*Y513250D01*
Y517750D02*X61950Y518500D01*
X63450D01*
X64200Y517750D01*
Y513250D01*
X63450Y512500D02*X64200Y513250D01*
X61950Y512500D02*X63450D01*
X61200Y514000D02*X64200Y517000D01*
X3000Y533500D02*X3750Y532750D01*
X750Y533500D02*X3000D01*
X0Y532750D02*X750Y533500D01*
X0Y532750D02*Y531250D01*
X750Y530500D01*
X3000D01*
X3750Y529750D01*
Y528250D01*
X3000Y527500D02*X3750Y528250D01*
X750Y527500D02*X3000D01*
X0Y528250D02*X750Y527500D01*
X5550Y530500D02*Y528250D01*
X6300Y527500D01*
X8550Y530500D02*Y526000D01*
X7800Y525250D02*X8550Y526000D01*
X6300Y525250D02*X7800D01*
X5550Y526000D02*X6300Y525250D01*
Y527500D02*X7800D01*
X8550Y528250D01*
X11100Y529750D02*Y527500D01*
Y529750D02*X11850Y530500D01*
X12600D01*
X13350Y529750D01*
Y527500D01*
Y529750D02*X14100Y530500D01*
X14850D01*
X15600Y529750D01*
Y527500D01*
X10350Y530500D02*X11100Y529750D01*
X17400Y533500D02*Y527500D01*
Y528250D02*X18150Y527500D01*
X19650D01*
X20400Y528250D01*
Y529750D02*Y528250D01*
X19650Y530500D02*X20400Y529750D01*
X18150Y530500D02*X19650D01*
X17400Y529750D02*X18150Y530500D01*
X22200Y529750D02*Y528250D01*
Y529750D02*X22950Y530500D01*
X24450D01*
X25200Y529750D01*
Y528250D01*
X24450Y527500D02*X25200Y528250D01*
X22950Y527500D02*X24450D01*
X22200Y528250D02*X22950Y527500D01*
X27000Y533500D02*Y528250D01*
X27750Y527500D01*
X0Y524250D02*X29250D01*
X41750Y533500D02*Y527500D01*
X43700Y533500D02*X44750Y532450D01*
Y528550D01*
X43700Y527500D02*X44750Y528550D01*
X41000Y527500D02*X43700D01*
X41000Y533500D02*X43700D01*
G54D317*X46550Y532000D02*Y531850D01*
G54D316*Y529750D02*Y527500D01*
X50300Y530500D02*X51050Y529750D01*
X48800Y530500D02*X50300D01*
X48050Y529750D02*X48800Y530500D01*
X48050Y529750D02*Y528250D01*
X48800Y527500D01*
X51050Y530500D02*Y528250D01*
X51800Y527500D01*
X48800D02*X50300D01*
X51050Y528250D01*
X54350Y529750D02*Y527500D01*
Y529750D02*X55100Y530500D01*
X55850D01*
X56600Y529750D01*
Y527500D01*
Y529750D02*X57350Y530500D01*
X58100D01*
X58850Y529750D01*
Y527500D01*
X53600Y530500D02*X54350Y529750D01*
X60650Y527500D02*X61400D01*
X65900Y528250D02*X66650Y527500D01*
X65900Y532750D02*X66650Y533500D01*
X65900Y532750D02*Y528250D01*
X68450Y533500D02*X69950D01*
X69200D02*Y527500D01*
X68450D02*X69950D01*
X72500Y529750D02*Y527500D01*
Y529750D02*X73250Y530500D01*
X74000D01*
X74750Y529750D01*
Y527500D01*
X71750Y530500D02*X72500Y529750D01*
X77300Y530500D02*X79550D01*
X76550Y529750D02*X77300Y530500D01*
X76550Y529750D02*Y528250D01*
X77300Y527500D01*
X79550D01*
X81350Y533500D02*Y527500D01*
Y529750D02*X82100Y530500D01*
X83600D01*
X84350Y529750D01*
Y527500D01*
X86150Y533500D02*X86900Y532750D01*
Y528250D01*
X86150Y527500D02*X86900Y528250D01*
X41000Y524250D02*X88700D01*
X96050Y527500D02*X98000D01*
X95000Y528550D02*X96050Y527500D01*
X95000Y532450D02*Y528550D01*
Y532450D02*X96050Y533500D01*
X98000D01*
X99800Y529750D02*Y528250D01*
Y529750D02*X100550Y530500D01*
X102050D01*
X102800Y529750D01*
Y528250D01*
X102050Y527500D02*X102800Y528250D01*
X100550Y527500D02*X102050D01*
X99800Y528250D02*X100550Y527500D01*
X104600Y530500D02*Y528250D01*
X105350Y527500D01*
X106850D01*
X107600Y528250D01*
Y530500D02*Y528250D01*
X110150Y529750D02*Y527500D01*
Y529750D02*X110900Y530500D01*
X111650D01*
X112400Y529750D01*
Y527500D01*
X109400Y530500D02*X110150Y529750D01*
X114950Y533500D02*Y528250D01*
X115700Y527500D01*
X114200Y531250D02*X115700D01*
X95000Y524250D02*X117200D01*
X130750Y533500D02*Y527500D01*
X130000Y533500D02*X133000D01*
X133750Y532750D01*
Y531250D01*
X133000Y530500D02*X133750Y531250D01*
X130750Y530500D02*X133000D01*
X135550Y533500D02*Y528250D01*
X136300Y527500D01*
X140050Y530500D02*X140800Y529750D01*
X138550Y530500D02*X140050D01*
X137800Y529750D02*X138550Y530500D01*
X137800Y529750D02*Y528250D01*
X138550Y527500D01*
X140800Y530500D02*Y528250D01*
X141550Y527500D01*
X138550D02*X140050D01*
X140800Y528250D01*
X144100Y533500D02*Y528250D01*
X144850Y527500D01*
X143350Y531250D02*X144850D01*
X147100Y527500D02*X149350D01*
X146350Y528250D02*X147100Y527500D01*
X146350Y529750D02*Y528250D01*
Y529750D02*X147100Y530500D01*
X148600D01*
X149350Y529750D01*
X146350Y529000D02*X149350D01*
Y529750D02*Y529000D01*
X154150Y533500D02*Y527500D01*
X153400D02*X154150Y528250D01*
X151900Y527500D02*X153400D01*
X151150Y528250D02*X151900Y527500D01*
X151150Y529750D02*Y528250D01*
Y529750D02*X151900Y530500D01*
X153400D01*
X154150Y529750D01*
X157450Y530500D02*Y529750D01*
Y528250D02*Y527500D01*
X155950Y532750D02*Y532000D01*
Y532750D02*X156700Y533500D01*
X158200D01*
X158950Y532750D01*
Y532000D01*
X157450Y530500D02*X158950Y532000D01*
X130000Y524250D02*X160750D01*
X0Y548500D02*X3000D01*
X1500D02*Y542500D01*
X4800Y548500D02*Y542500D01*
Y544750D02*X5550Y545500D01*
X7050D01*
X7800Y544750D01*
Y542500D01*
X10350D02*X12600D01*
X9600Y543250D02*X10350Y542500D01*
X9600Y544750D02*Y543250D01*
Y544750D02*X10350Y545500D01*
X11850D01*
X12600Y544750D01*
X9600Y544000D02*X12600D01*
Y544750D02*Y544000D01*
X15150Y544750D02*Y542500D01*
Y544750D02*X15900Y545500D01*
X17400D01*
X14400D02*X15150Y544750D01*
X19950Y542500D02*X22200D01*
X19200Y543250D02*X19950Y542500D01*
X19200Y544750D02*Y543250D01*
Y544750D02*X19950Y545500D01*
X21450D01*
X22200Y544750D01*
X19200Y544000D02*X22200D01*
Y544750D02*Y544000D01*
X28950Y545500D02*X29700Y544750D01*
X27450Y545500D02*X28950D01*
X26700Y544750D02*X27450Y545500D01*
X26700Y544750D02*Y543250D01*
X27450Y542500D01*
X29700Y545500D02*Y543250D01*
X30450Y542500D01*
X27450D02*X28950D01*
X29700Y543250D01*
X33000Y544750D02*Y542500D01*
Y544750D02*X33750Y545500D01*
X35250D01*
X32250D02*X33000Y544750D01*
X37800Y542500D02*X40050D01*
X37050Y543250D02*X37800Y542500D01*
X37050Y544750D02*Y543250D01*
Y544750D02*X37800Y545500D01*
X39300D01*
X40050Y544750D01*
X37050Y544000D02*X40050D01*
Y544750D02*Y544000D01*
X44550Y543250D02*X45300Y542500D01*
X44550Y544450D02*Y543250D01*
Y544450D02*X45600Y545500D01*
X46500D01*
X47550Y544450D01*
Y543250D01*
X46800Y542500D02*X47550Y543250D01*
X45300Y542500D02*X46800D01*
X44550Y546550D02*X45600Y545500D01*
X44550Y547750D02*Y546550D01*
Y547750D02*X45300Y548500D01*
X46800D01*
X47550Y547750D01*
Y546550D01*
X46500Y545500D02*X47550Y546550D01*
X55050Y548500D02*Y542500D01*
X54300D02*X55050Y543250D01*
X52800Y542500D02*X54300D01*
X52050Y543250D02*X52800Y542500D01*
X52050Y544750D02*Y543250D01*
Y544750D02*X52800Y545500D01*
X54300D01*
X55050Y544750D01*
G54D317*X56850Y547000D02*Y546850D01*
G54D316*Y544750D02*Y542500D01*
X59100Y547750D02*Y542500D01*
Y547750D02*X59850Y548500D01*
X60600D01*
X58350Y545500D02*X59850D01*
X62850Y547750D02*Y542500D01*
Y547750D02*X63600Y548500D01*
X64350D01*
X62100Y545500D02*X63600D01*
X66600Y542500D02*X68850D01*
X65850Y543250D02*X66600Y542500D01*
X65850Y544750D02*Y543250D01*
Y544750D02*X66600Y545500D01*
X68100D01*
X68850Y544750D01*
X65850Y544000D02*X68850D01*
Y544750D02*Y544000D01*
X71400Y544750D02*Y542500D01*
Y544750D02*X72150Y545500D01*
X73650D01*
X70650D02*X71400Y544750D01*
X76200Y542500D02*X78450D01*
X75450Y543250D02*X76200Y542500D01*
X75450Y544750D02*Y543250D01*
Y544750D02*X76200Y545500D01*
X77700D01*
X78450Y544750D01*
X75450Y544000D02*X78450D01*
Y544750D02*Y544000D01*
X81000Y544750D02*Y542500D01*
Y544750D02*X81750Y545500D01*
X82500D01*
X83250Y544750D01*
Y542500D01*
X80250Y545500D02*X81000Y544750D01*
X85800Y548500D02*Y543250D01*
X86550Y542500D01*
X85050Y546250D02*X86550D01*
X93750Y548500D02*Y542500D01*
X93000D02*X93750Y543250D01*
X91500Y542500D02*X93000D01*
X90750Y543250D02*X91500Y542500D01*
X90750Y544750D02*Y543250D01*
Y544750D02*X91500Y545500D01*
X93000D01*
X93750Y544750D01*
X96300D02*Y542500D01*
Y544750D02*X97050Y545500D01*
X98550D01*
X95550D02*X96300Y544750D01*
G54D317*X100350Y547000D02*Y546850D01*
G54D316*Y544750D02*Y542500D01*
X101850Y548500D02*Y543250D01*
X102600Y542500D01*
X104100Y548500D02*Y543250D01*
X104850Y542500D01*
X109800D02*X112050D01*
X112800Y543250D01*
X112050Y544000D02*X112800Y543250D01*
X109800Y544000D02*X112050D01*
X109050Y544750D02*X109800Y544000D01*
X109050Y544750D02*X109800Y545500D01*
X112050D01*
X112800Y544750D01*
X109050Y543250D02*X109800Y542500D01*
G54D317*X114600Y547000D02*Y546850D01*
G54D316*Y544750D02*Y542500D01*
X116100Y545500D02*X119100D01*
X116100Y542500D02*X119100Y545500D01*
X116100Y542500D02*X119100D01*
X121650D02*X123900D01*
X120900Y543250D02*X121650Y542500D01*
X120900Y544750D02*Y543250D01*
Y544750D02*X121650Y545500D01*
X123150D01*
X123900Y544750D01*
X120900Y544000D02*X123900D01*
Y544750D02*Y544000D01*
X126450Y542500D02*X128700D01*
X129450Y543250D01*
X128700Y544000D02*X129450Y543250D01*
X126450Y544000D02*X128700D01*
X125700Y544750D02*X126450Y544000D01*
X125700Y544750D02*X126450Y545500D01*
X128700D01*
X129450Y544750D01*
X125700Y543250D02*X126450Y542500D01*
X133950Y545500D02*Y543250D01*
X134700Y542500D01*
X136200D01*
X136950Y543250D01*
Y545500D02*Y543250D01*
X139500Y542500D02*X141750D01*
X142500Y543250D01*
X141750Y544000D02*X142500Y543250D01*
X139500Y544000D02*X141750D01*
X138750Y544750D02*X139500Y544000D01*
X138750Y544750D02*X139500Y545500D01*
X141750D01*
X142500Y544750D01*
X138750Y543250D02*X139500Y542500D01*
X145050D02*X147300D01*
X144300Y543250D02*X145050Y542500D01*
X144300Y544750D02*Y543250D01*
Y544750D02*X145050Y545500D01*
X146550D01*
X147300Y544750D01*
X144300Y544000D02*X147300D01*
Y544750D02*Y544000D01*
X152100Y548500D02*Y542500D01*
X151350D02*X152100Y543250D01*
X149850Y542500D02*X151350D01*
X149100Y543250D02*X149850Y542500D01*
X149100Y544750D02*Y543250D01*
Y544750D02*X149850Y545500D01*
X151350D01*
X152100Y544750D01*
G54D317*X156600Y547000D02*Y546850D01*
G54D316*Y544750D02*Y542500D01*
X158850Y544750D02*Y542500D01*
Y544750D02*X159600Y545500D01*
X160350D01*
X161100Y544750D01*
Y542500D01*
X158100Y545500D02*X158850Y544750D01*
X166350Y548500D02*Y543250D01*
X167100Y542500D01*
X165600Y546250D02*X167100D01*
X168600Y548500D02*Y542500D01*
Y544750D02*X169350Y545500D01*
X170850D01*
X171600Y544750D01*
Y542500D01*
G54D317*X173400Y547000D02*Y546850D01*
G54D316*Y544750D02*Y542500D01*
X175650D02*X177900D01*
X178650Y543250D01*
X177900Y544000D02*X178650Y543250D01*
X175650Y544000D02*X177900D01*
X174900Y544750D02*X175650Y544000D01*
X174900Y544750D02*X175650Y545500D01*
X177900D01*
X178650Y544750D01*
X174900Y543250D02*X175650Y542500D01*
X183150Y548500D02*Y543250D01*
X183900Y542500D01*
X187650Y545500D02*X188400Y544750D01*
X186150Y545500D02*X187650D01*
X185400Y544750D02*X186150Y545500D01*
X185400Y544750D02*Y543250D01*
X186150Y542500D01*
X188400Y545500D02*Y543250D01*
X189150Y542500D01*
X186150D02*X187650D01*
X188400Y543250D01*
X190950Y545500D02*Y543250D01*
X191700Y542500D01*
X193950Y545500D02*Y541000D01*
X193200Y540250D02*X193950Y541000D01*
X191700Y540250D02*X193200D01*
X190950Y541000D02*X191700Y540250D01*
Y542500D02*X193200D01*
X193950Y543250D01*
X195750Y544750D02*Y543250D01*
Y544750D02*X196500Y545500D01*
X198000D01*
X198750Y544750D01*
Y543250D01*
X198000Y542500D02*X198750Y543250D01*
X196500Y542500D02*X198000D01*
X195750Y543250D02*X196500Y542500D01*
X200550Y545500D02*Y543250D01*
X201300Y542500D01*
X202800D01*
X203550Y543250D01*
Y545500D02*Y543250D01*
X206100Y548500D02*Y543250D01*
X206850Y542500D01*
X205350Y546250D02*X206850D01*
X208350Y541000D02*X209850Y542500D01*
X214350Y544750D02*X217350Y548500D01*
X214350Y544750D02*X218100D01*
X217350Y548500D02*Y542500D01*
X219900Y547750D02*X220650Y548500D01*
X222150D01*
X222900Y547750D01*
X222150Y542500D02*X222900Y543250D01*
X220650Y542500D02*X222150D01*
X219900Y543250D02*X220650Y542500D01*
Y545800D02*X222150D01*
X222900Y547750D02*Y546550D01*
Y545050D02*Y543250D01*
Y545050D02*X222150Y545800D01*
X222900Y546550D02*X222150Y545800D01*
X224700Y547750D02*X225450Y548500D01*
X227700D01*
X228450Y547750D01*
Y546250D01*
X224700Y542500D02*X228450Y546250D01*
X224700Y542500D02*X228450D01*
X232950Y548500D02*Y542500D01*
Y544750D02*X233700Y545500D01*
X235200D01*
X235950Y544750D01*
Y542500D01*
X237750Y544750D02*Y543250D01*
Y544750D02*X238500Y545500D01*
X240000D01*
X240750Y544750D01*
Y543250D01*
X240000Y542500D02*X240750Y543250D01*
X238500Y542500D02*X240000D01*
X237750Y543250D02*X238500Y542500D01*
X242550Y548500D02*Y543250D01*
X243300Y542500D01*
X245550D02*X247800D01*
X244800Y543250D02*X245550Y542500D01*
X244800Y544750D02*Y543250D01*
Y544750D02*X245550Y545500D01*
X247050D01*
X247800Y544750D01*
X244800Y544000D02*X247800D01*
Y544750D02*Y544000D01*
X250350Y542500D02*X252600D01*
X253350Y543250D01*
X252600Y544000D02*X253350Y543250D01*
X250350Y544000D02*X252600D01*
X249600Y544750D02*X250350Y544000D01*
X249600Y544750D02*X250350Y545500D01*
X252600D01*
X253350Y544750D01*
X249600Y543250D02*X250350Y542500D01*
X258600Y548500D02*Y543250D01*
X259350Y542500D01*
X257850Y546250D02*X259350D01*
X260850Y544750D02*Y543250D01*
Y544750D02*X261600Y545500D01*
X263100D01*
X263850Y544750D01*
Y543250D01*
X263100Y542500D02*X263850Y543250D01*
X261600Y542500D02*X263100D01*
X260850Y543250D02*X261600Y542500D01*
X266400Y548500D02*Y543250D01*
X267150Y542500D01*
X265650Y546250D02*X267150D01*
X270900Y545500D02*X271650Y544750D01*
X269400Y545500D02*X270900D01*
X268650Y544750D02*X269400Y545500D01*
X268650Y544750D02*Y543250D01*
X269400Y542500D01*
X271650Y545500D02*Y543250D01*
X272400Y542500D01*
X269400D02*X270900D01*
X271650Y543250D01*
X274200Y548500D02*Y543250D01*
X274950Y542500D01*
G54D318*X74500Y399800D02*X478100D01*
X484600Y393300D02*Y42000D01*
X479100Y35500D02*X73500D01*
X68000Y42000D02*Y244000D01*
X74500Y250500D02*X101000D01*
X107500Y256000D02*Y312500D01*
X101000Y319000D02*X74500D01*
X68000Y325500D02*Y393300D01*
X478100Y399800D02*G75*G02X484600Y393300I0J-6500D01*G01*
Y42000D02*G75*G02X478100Y35500I-6500J0D01*G01*
X74500D02*G75*G02X68000Y42000I0J6500D01*G01*
Y244000D02*G75*G02X74500Y250500I6500J0D01*G01*
X107500Y257000D02*G75*G02X101000Y250500I-6500J0D01*G01*
Y319000D02*G75*G02X107500Y312500I0J-6500D01*G01*
X74500Y319000D02*G75*G02X68000Y325500I0J6500D01*G01*
Y393300D02*G75*G02X74500Y399800I6500J0D01*G01*
G54D316*X163675Y-9500D02*X166675D01*
X167425Y-8750D01*
Y-6950D02*Y-8750D01*
X166675Y-6200D02*X167425Y-6950D01*
X164425Y-6200D02*X166675D01*
X164425Y-3500D02*Y-9500D01*
X163675Y-3500D02*X166675D01*
X167425Y-4250D01*
Y-5450D01*
X166675Y-6200D02*X167425Y-5450D01*
X169225Y-7250D02*Y-8750D01*
Y-7250D02*X169975Y-6500D01*
X171475D01*
X172225Y-7250D01*
Y-8750D01*
X171475Y-9500D02*X172225Y-8750D01*
X169975Y-9500D02*X171475D01*
X169225Y-8750D02*X169975Y-9500D01*
X176275Y-6500D02*X177025Y-7250D01*
X174775Y-6500D02*X176275D01*
X174025Y-7250D02*X174775Y-6500D01*
X174025Y-7250D02*Y-8750D01*
X174775Y-9500D01*
X177025Y-6500D02*Y-8750D01*
X177775Y-9500D01*
X174775D02*X176275D01*
X177025Y-8750D01*
X180325Y-7250D02*Y-9500D01*
Y-7250D02*X181075Y-6500D01*
X182575D01*
X179575D02*X180325Y-7250D01*
X187375Y-3500D02*Y-9500D01*
X186625D02*X187375Y-8750D01*
X185125Y-9500D02*X186625D01*
X184375Y-8750D02*X185125Y-9500D01*
X184375Y-7250D02*Y-8750D01*
Y-7250D02*X185125Y-6500D01*
X186625D01*
X187375Y-7250D01*
X191875D02*Y-8750D01*
Y-7250D02*X192625Y-6500D01*
X194125D01*
X194875Y-7250D01*
Y-8750D01*
X194125Y-9500D02*X194875Y-8750D01*
X192625Y-9500D02*X194125D01*
X191875Y-8750D02*X192625Y-9500D01*
X196675Y-6500D02*Y-8750D01*
X197425Y-9500D01*
X198925D01*
X199675Y-8750D01*
Y-6500D02*Y-8750D01*
X202225Y-3500D02*Y-8750D01*
X202975Y-9500D01*
X201475Y-5750D02*X202975D01*
X204475Y-3500D02*Y-8750D01*
X205225Y-9500D01*
G54D317*X206725Y-5000D02*Y-5150D01*
G54D316*Y-7250D02*Y-9500D01*
X208975Y-7250D02*Y-9500D01*
Y-7250D02*X209725Y-6500D01*
X210475D01*
X211225Y-7250D01*
Y-9500D01*
X208225Y-6500D02*X208975Y-7250D01*
X213775Y-9500D02*X216025D01*
X213025Y-8750D02*X213775Y-9500D01*
X213025Y-7250D02*Y-8750D01*
Y-7250D02*X213775Y-6500D01*
X215275D01*
X216025Y-7250D01*
X213025Y-8000D02*X216025D01*
Y-7250D02*Y-8000D01*
G54D317*X220525Y-5000D02*Y-5150D01*
G54D316*Y-7250D02*Y-9500D01*
X222775D02*X225025D01*
X225775Y-8750D01*
X225025Y-8000D02*X225775Y-8750D01*
X222775Y-8000D02*X225025D01*
X222025Y-7250D02*X222775Y-8000D01*
X222025Y-7250D02*X222775Y-6500D01*
X225025D01*
X225775Y-7250D01*
X222025Y-8750D02*X222775Y-9500D01*
X231025Y-3500D02*Y-8750D01*
X231775Y-9500D01*
X230275Y-5750D02*X231775D01*
X233275Y-3500D02*Y-9500D01*
Y-7250D02*X234025Y-6500D01*
X235525D01*
X236275Y-7250D01*
Y-9500D01*
X238825D02*X241075D01*
X238075Y-8750D02*X238825Y-9500D01*
X238075Y-7250D02*Y-8750D01*
Y-7250D02*X238825Y-6500D01*
X240325D01*
X241075Y-7250D01*
X238075Y-8000D02*X241075D01*
Y-7250D02*Y-8000D01*
X246325Y-6500D02*X248575D01*
X245575Y-7250D02*X246325Y-6500D01*
X245575Y-7250D02*Y-8750D01*
X246325Y-9500D01*
X248575D01*
X251125D02*X253375D01*
X250375Y-8750D02*X251125Y-9500D01*
X250375Y-7250D02*Y-8750D01*
Y-7250D02*X251125Y-6500D01*
X252625D01*
X253375Y-7250D01*
X250375Y-8000D02*X253375D01*
Y-7250D02*Y-8000D01*
X255925Y-7250D02*Y-9500D01*
Y-7250D02*X256675Y-6500D01*
X257425D01*
X258175Y-7250D01*
Y-9500D01*
X255175Y-6500D02*X255925Y-7250D01*
X260725Y-3500D02*Y-8750D01*
X261475Y-9500D01*
X259975Y-5750D02*X261475D01*
X263725Y-9500D02*X265975D01*
X262975Y-8750D02*X263725Y-9500D01*
X262975Y-7250D02*Y-8750D01*
Y-7250D02*X263725Y-6500D01*
X265225D01*
X265975Y-7250D01*
X262975Y-8000D02*X265975D01*
Y-7250D02*Y-8000D01*
X268525Y-7250D02*Y-9500D01*
Y-7250D02*X269275Y-6500D01*
X270775D01*
X267775D02*X268525Y-7250D01*
X272575Y-3500D02*Y-8750D01*
X273325Y-9500D01*
G54D317*X274825Y-5000D02*Y-5150D01*
G54D316*Y-7250D02*Y-9500D01*
X277075Y-7250D02*Y-9500D01*
Y-7250D02*X277825Y-6500D01*
X278575D01*
X279325Y-7250D01*
Y-9500D01*
X276325Y-6500D02*X277075Y-7250D01*
X281875Y-9500D02*X284125D01*
X281125Y-8750D02*X281875Y-9500D01*
X281125Y-7250D02*Y-8750D01*
Y-7250D02*X281875Y-6500D01*
X283375D01*
X284125Y-7250D01*
X281125Y-8000D02*X284125D01*
Y-7250D02*Y-8000D01*
X288625Y-7250D02*Y-8750D01*
Y-7250D02*X289375Y-6500D01*
X290875D01*
X291625Y-7250D01*
Y-8750D01*
X290875Y-9500D02*X291625Y-8750D01*
X289375Y-9500D02*X290875D01*
X288625Y-8750D02*X289375Y-9500D01*
X294175Y-4250D02*Y-9500D01*
Y-4250D02*X294925Y-3500D01*
X295675D01*
X293425Y-6500D02*X294925D01*
X300625Y-3500D02*Y-8750D01*
X301375Y-9500D01*
X299875Y-5750D02*X301375D01*
X302875Y-3500D02*Y-9500D01*
Y-7250D02*X303625Y-6500D01*
X305125D01*
X305875Y-7250D01*
Y-9500D01*
G54D317*X307675Y-5000D02*Y-5150D01*
G54D316*Y-7250D02*Y-9500D01*
X309925D02*X312175D01*
X312925Y-8750D01*
X312175Y-8000D02*X312925Y-8750D01*
X309925Y-8000D02*X312175D01*
X309175Y-7250D02*X309925Y-8000D01*
X309175Y-7250D02*X309925Y-6500D01*
X312175D01*
X312925Y-7250D01*
X309175Y-8750D02*X309925Y-9500D01*
X318175Y-7250D02*Y-11750D01*
X317425Y-6500D02*X318175Y-7250D01*
X318925Y-6500D01*
X320425D01*
X321175Y-7250D01*
Y-8750D01*
X320425Y-9500D02*X321175Y-8750D01*
X318925Y-9500D02*X320425D01*
X318175Y-8750D02*X318925Y-9500D01*
X325225Y-6500D02*X325975Y-7250D01*
X323725Y-6500D02*X325225D01*
X322975Y-7250D02*X323725Y-6500D01*
X322975Y-7250D02*Y-8750D01*
X323725Y-9500D01*
X325975Y-6500D02*Y-8750D01*
X326725Y-9500D01*
X323725D02*X325225D01*
X325975Y-8750D01*
X329275Y-3500D02*Y-8750D01*
X330025Y-9500D01*
X328525Y-5750D02*X330025D01*
X331525Y-3500D02*Y-9500D01*
Y-7250D02*X332275Y-6500D01*
X333775D01*
X334525Y-7250D01*
Y-9500D01*
X200750Y428500D02*Y422500D01*
X202700Y428500D02*X203750Y427450D01*
Y423550D01*
X202700Y422500D02*X203750Y423550D01*
X200000Y422500D02*X202700D01*
X200000Y428500D02*X202700D01*
X207800Y425500D02*X208550Y424750D01*
X206300Y425500D02*X207800D01*
X205550Y424750D02*X206300Y425500D01*
X205550Y424750D02*Y423250D01*
X206300Y422500D01*
X208550Y425500D02*Y423250D01*
X209300Y422500D01*
X206300D02*X207800D01*
X208550Y423250D01*
X211850Y428500D02*Y423250D01*
X212600Y422500D01*
X211100Y426250D02*X212600D01*
X214850Y422500D02*X217100D01*
X214100Y423250D02*X214850Y422500D01*
X214100Y424750D02*Y423250D01*
Y424750D02*X214850Y425500D01*
X216350D01*
X217100Y424750D01*
X214100Y424000D02*X217100D01*
Y424750D02*Y424000D01*
X218900Y426250D02*X219650D01*
X218900Y424750D02*X219650D01*
X224150Y428500D02*X227150D01*
X225650D02*Y422500D01*
X228950Y428500D02*Y422500D01*
Y424750D02*X229700Y425500D01*
X231200D01*
X231950Y424750D01*
Y422500D01*
X233750Y425500D02*Y423250D01*
X234500Y422500D01*
X236000D01*
X236750Y423250D01*
Y425500D02*Y423250D01*
X242000Y428500D02*Y422500D01*
X243950Y428500D02*X245000Y427450D01*
Y423550D01*
X243950Y422500D02*X245000Y423550D01*
X241250Y422500D02*X243950D01*
X241250Y428500D02*X243950D01*
X247550Y422500D02*X249800D01*
X246800Y423250D02*X247550Y422500D01*
X246800Y424750D02*Y423250D01*
Y424750D02*X247550Y425500D01*
X249050D01*
X249800Y424750D01*
X246800Y424000D02*X249800D01*
Y424750D02*Y424000D01*
X252350Y425500D02*X254600D01*
X251600Y424750D02*X252350Y425500D01*
X251600Y424750D02*Y423250D01*
X252350Y422500D01*
X254600D01*
X261800Y428500D02*X264800D01*
X261800D02*Y425500D01*
X262550Y426250D01*
X264050D01*
X264800Y425500D01*
Y423250D01*
X264050Y422500D02*X264800Y423250D01*
X262550Y422500D02*X264050D01*
X261800Y423250D02*X262550Y422500D01*
X269300Y423250D02*X270050Y422500D01*
X269300Y427750D02*Y423250D01*
Y427750D02*X270050Y428500D01*
X271550D01*
X272300Y427750D01*
Y423250D01*
X271550Y422500D02*X272300Y423250D01*
X270050Y422500D02*X271550D01*
X269300Y424000D02*X272300Y427000D01*
X274100Y428500D02*X277100D01*
X274100D02*Y425500D01*
X274850Y426250D01*
X276350D01*
X277100Y425500D01*
Y423250D01*
X276350Y422500D02*X277100Y423250D01*
X274850Y422500D02*X276350D01*
X274100Y423250D02*X274850Y422500D01*
X278900Y426250D02*X279650D01*
X278900Y424750D02*X279650D01*
X281450D02*X284450Y428500D01*
X281450Y424750D02*X285200D01*
X284450Y428500D02*Y422500D01*
X289250Y428500D02*X290000Y427750D01*
X287750Y428500D02*X289250D01*
X287000Y427750D02*X287750Y428500D01*
X287000Y427750D02*Y423250D01*
X287750Y422500D01*
X289250Y425800D02*X290000Y425050D01*
X287000Y425800D02*X289250D01*
X287750Y422500D02*X289250D01*
X290000Y423250D01*
Y425050D02*Y423250D01*
X291800Y426250D02*X292550D01*
X291800Y424750D02*X292550D01*
X294350Y428500D02*X297350D01*
X294350D02*Y425500D01*
X295100Y426250D01*
X296600D01*
X297350Y425500D01*
Y423250D01*
X296600Y422500D02*X297350Y423250D01*
X295100Y422500D02*X296600D01*
X294350Y423250D02*X295100Y422500D01*
X299150Y424750D02*X302150Y428500D01*
X299150Y424750D02*X302900D01*
X302150Y428500D02*Y422500D01*
X307400Y427750D02*X308150Y428500D01*
X310400D01*
X311150Y427750D01*
Y426250D01*
X307400Y422500D02*X311150Y426250D01*
X307400Y422500D02*X311150D01*
X312950Y423250D02*X313700Y422500D01*
X312950Y427750D02*Y423250D01*
Y427750D02*X313700Y428500D01*
X315200D01*
X315950Y427750D01*
Y423250D01*
X315200Y422500D02*X315950Y423250D01*
X313700Y422500D02*X315200D01*
X312950Y424000D02*X315950Y427000D01*
X317750Y427300D02*X318950Y428500D01*
Y422500D01*
X317750D02*X320000D01*
X321800Y427750D02*X322550Y428500D01*
X324050D01*
X324800Y427750D01*
X324050Y422500D02*X324800Y423250D01*
X322550Y422500D02*X324050D01*
X321800Y423250D02*X322550Y422500D01*
Y425800D02*X324050D01*
X324800Y427750D02*Y426550D01*
Y425050D02*Y423250D01*
Y425050D02*X324050Y425800D01*
X324800Y426550D02*X324050Y425800D01*
X329300Y428500D02*Y423250D01*
X330050Y422500D01*
X331550D01*
X332300Y423250D01*
Y428500D02*Y423250D01*
X334100Y428500D02*X337100D01*
X335600D02*Y422500D01*
X339950D02*X341900D01*
X338900Y423550D02*X339950Y422500D01*
X338900Y427450D02*Y423550D01*
Y427450D02*X339950Y428500D01*
X341900D01*
X200000Y442000D02*Y437500D01*
Y442000D02*X201050Y443500D01*
X202700D01*
X203750Y442000D01*
Y437500D01*
X200000Y440500D02*X203750D01*
X205550D02*Y438250D01*
X206300Y437500D01*
X207800D01*
X208550Y438250D01*
Y440500D02*Y438250D01*
X211100Y443500D02*Y438250D01*
X211850Y437500D01*
X210350Y441250D02*X211850D01*
X213350Y443500D02*Y437500D01*
Y439750D02*X214100Y440500D01*
X215600D01*
X216350Y439750D01*
Y437500D01*
X218150Y439750D02*Y438250D01*
Y439750D02*X218900Y440500D01*
X220400D01*
X221150Y439750D01*
Y438250D01*
X220400Y437500D02*X221150Y438250D01*
X218900Y437500D02*X220400D01*
X218150Y438250D02*X218900Y437500D01*
X223700Y439750D02*Y437500D01*
Y439750D02*X224450Y440500D01*
X225950D01*
X222950D02*X223700Y439750D01*
X227750Y441250D02*X228500D01*
X227750Y439750D02*X228500D01*
X233000Y437500D02*X236000D01*
X236750Y438250D01*
Y440050D02*Y438250D01*
X236000Y440800D02*X236750Y440050D01*
X233750Y440800D02*X236000D01*
X233750Y443500D02*Y437500D01*
X233000Y443500D02*X236000D01*
X236750Y442750D01*
Y441550D01*
X236000Y440800D02*X236750Y441550D01*
X239300Y439750D02*Y437500D01*
Y439750D02*X240050Y440500D01*
X241550D01*
X238550D02*X239300Y439750D01*
G54D317*X243350Y442000D02*Y441850D01*
G54D316*Y439750D02*Y437500D01*
X247100Y440500D02*X247850Y439750D01*
X245600Y440500D02*X247100D01*
X244850Y439750D02*X245600Y440500D01*
X244850Y439750D02*Y438250D01*
X245600Y437500D01*
X247850Y440500D02*Y438250D01*
X248600Y437500D01*
X245600D02*X247100D01*
X247850Y438250D01*
X251150Y439750D02*Y437500D01*
Y439750D02*X251900Y440500D01*
X252650D01*
X253400Y439750D01*
Y437500D01*
X250400Y440500D02*X251150Y439750D01*
X260900Y443500D02*X261650Y442750D01*
X258650Y443500D02*X260900D01*
X257900Y442750D02*X258650Y443500D01*
X257900Y442750D02*Y441250D01*
X258650Y440500D01*
X260900D01*
X261650Y439750D01*
Y438250D01*
X260900Y437500D02*X261650Y438250D01*
X258650Y437500D02*X260900D01*
X257900Y438250D02*X258650Y437500D01*
G54D317*X263450Y442000D02*Y441850D01*
G54D316*Y439750D02*Y437500D01*
X264950Y443500D02*Y438250D01*
X265700Y437500D01*
X267200Y440500D02*X268700Y437500D01*
X270200Y440500D02*X268700Y437500D01*
X272750D02*X275000D01*
X272000Y438250D02*X272750Y437500D01*
X272000Y439750D02*Y438250D01*
Y439750D02*X272750Y440500D01*
X274250D01*
X275000Y439750D01*
X272000Y439000D02*X275000D01*
Y439750D02*Y439000D01*
X277550Y439750D02*Y437500D01*
Y439750D02*X278300Y440500D01*
X279800D01*
X276800D02*X277550Y439750D01*
X282350D02*Y437500D01*
Y439750D02*X283100Y440500D01*
X283850D01*
X284600Y439750D01*
Y437500D01*
Y439750D02*X285350Y440500D01*
X286100D01*
X286850Y439750D01*
Y437500D01*
X281600Y440500D02*X282350Y439750D01*
X290900Y440500D02*X291650Y439750D01*
X289400Y440500D02*X290900D01*
X288650Y439750D02*X289400Y440500D01*
X288650Y439750D02*Y438250D01*
X289400Y437500D01*
X291650Y440500D02*Y438250D01*
X292400Y437500D01*
X289400D02*X290900D01*
X291650Y438250D01*
X294950Y439750D02*Y437500D01*
Y439750D02*X295700Y440500D01*
X296450D01*
X297200Y439750D01*
Y437500D01*
X294200Y440500D02*X294950Y439750D01*
X200000Y458500D02*X203000D01*
X201500D02*Y452500D01*
G54D317*X204800Y457000D02*Y456850D01*
G54D316*Y454750D02*Y452500D01*
X207050Y458500D02*Y453250D01*
X207800Y452500D01*
X206300Y456250D02*X207800D01*
X209300Y458500D02*Y453250D01*
X210050Y452500D01*
X212300D02*X214550D01*
X211550Y453250D02*X212300Y452500D01*
X211550Y454750D02*Y453250D01*
Y454750D02*X212300Y455500D01*
X213800D01*
X214550Y454750D01*
X211550Y454000D02*X214550D01*
Y454750D02*Y454000D01*
X216350Y456250D02*X217100D01*
X216350Y454750D02*X217100D01*
X222350Y452500D02*X224600Y455500D01*
Y457750D02*Y455500D01*
X223850Y458500D02*X224600Y457750D01*
X222350Y458500D02*X223850D01*
X221600Y457750D02*X222350Y458500D01*
X221600Y457750D02*Y456250D01*
X222350Y455500D01*
X224600D01*
X227150Y452500D02*X230150Y458500D01*
X226400D02*X230150D01*
X231950Y457300D02*X233150Y458500D01*
Y452500D01*
X231950D02*X234200D01*
X238700D02*X241700D01*
X242450Y453250D01*
Y455050D02*Y453250D01*
X241700Y455800D02*X242450Y455050D01*
X239450Y455800D02*X241700D01*
X239450Y458500D02*Y452500D01*
X238700Y458500D02*X241700D01*
X242450Y457750D01*
Y456550D01*
X241700Y455800D02*X242450Y456550D01*
X244250Y452500D02*X247250D01*
X248000Y453250D01*
Y455050D02*Y453250D01*
X247250Y455800D02*X248000Y455050D01*
X245000Y455800D02*X247250D01*
X245000Y458500D02*Y452500D01*
X244250Y458500D02*X247250D01*
X248000Y457750D01*
Y456550D01*
X247250Y455800D02*X248000Y456550D01*
X249800Y452500D02*X252800D01*
X253550Y453250D01*
Y455050D02*Y453250D01*
X252800Y455800D02*X253550Y455050D01*
X250550Y455800D02*X252800D01*
X250550Y458500D02*Y452500D01*
X249800Y458500D02*X252800D01*
X253550Y457750D01*
Y456550D01*
X252800Y455800D02*X253550Y456550D01*
X259100Y452500D02*X261050D01*
X258050Y453550D02*X259100Y452500D01*
X258050Y457450D02*Y453550D01*
Y457450D02*X259100Y458500D01*
X261050D01*
X265100Y455500D02*X265850Y454750D01*
X263600Y455500D02*X265100D01*
X262850Y454750D02*X263600Y455500D01*
X262850Y454750D02*Y453250D01*
X263600Y452500D01*
X265850Y455500D02*Y453250D01*
X266600Y452500D01*
X263600D02*X265100D01*
X265850Y453250D01*
X269150Y454750D02*Y450250D01*
X268400Y455500D02*X269150Y454750D01*
X269900Y455500D01*
X271400D01*
X272150Y454750D01*
Y453250D01*
X271400Y452500D02*X272150Y453250D01*
X269900Y452500D02*X271400D01*
X269150Y453250D02*X269900Y452500D01*
X274700D02*X276950D01*
X273950Y453250D02*X274700Y452500D01*
X273950Y454750D02*Y453250D01*
Y454750D02*X274700Y455500D01*
X276200D01*
X276950Y454750D01*
X273950Y454000D02*X276950D01*
Y454750D02*Y454000D01*
X281450Y455500D02*X284450D01*
X288950Y458500D02*Y452500D01*
Y458500D02*X291950D01*
X288950Y455800D02*X291200D01*
X296000Y455500D02*X296750Y454750D01*
X294500Y455500D02*X296000D01*
X293750Y454750D02*X294500Y455500D01*
X293750Y454750D02*Y453250D01*
X294500Y452500D01*
X296750Y455500D02*Y453250D01*
X297500Y452500D01*
X294500D02*X296000D01*
X296750Y453250D01*
X299300Y458500D02*Y452500D01*
Y453250D02*X300050Y452500D01*
X301550D01*
X302300Y453250D01*
Y454750D02*Y453250D01*
X301550Y455500D02*X302300Y454750D01*
X300050Y455500D02*X301550D01*
X299300Y454750D02*X300050Y455500D01*
X304850Y454750D02*Y452500D01*
Y454750D02*X305600Y455500D01*
X307100D01*
X304100D02*X304850Y454750D01*
G54D317*X308900Y457000D02*Y456850D01*
G54D316*Y454750D02*Y452500D01*
X311150Y455500D02*X313400D01*
X310400Y454750D02*X311150Y455500D01*
X310400Y454750D02*Y453250D01*
X311150Y452500D01*
X313400D01*
X317450Y455500D02*X318200Y454750D01*
X315950Y455500D02*X317450D01*
X315200Y454750D02*X315950Y455500D01*
X315200Y454750D02*Y453250D01*
X315950Y452500D01*
X318200Y455500D02*Y453250D01*
X318950Y452500D01*
X315950D02*X317450D01*
X318200Y453250D01*
X321500Y458500D02*Y453250D01*
X322250Y452500D01*
X320750Y456250D02*X322250D01*
G54D317*X323750Y457000D02*Y456850D01*
G54D316*Y454750D02*Y452500D01*
X325250Y454750D02*Y453250D01*
Y454750D02*X326000Y455500D01*
X327500D01*
X328250Y454750D01*
Y453250D01*
X327500Y452500D02*X328250Y453250D01*
X326000Y452500D02*X327500D01*
X325250Y453250D02*X326000Y452500D01*
X330800Y454750D02*Y452500D01*
Y454750D02*X331550Y455500D01*
X332300D01*
X333050Y454750D01*
Y452500D01*
X330050Y455500D02*X330800Y454750D01*
X338300Y458500D02*Y452500D01*
X340250Y458500D02*X341300Y457450D01*
Y453550D01*
X340250Y452500D02*X341300Y453550D01*
X337550Y452500D02*X340250D01*
X337550Y458500D02*X340250D01*
X343850Y454750D02*Y452500D01*
Y454750D02*X344600Y455500D01*
X346100D01*
X343100D02*X343850Y454750D01*
X350150Y455500D02*X350900Y454750D01*
X348650Y455500D02*X350150D01*
X347900Y454750D02*X348650Y455500D01*
X347900Y454750D02*Y453250D01*
X348650Y452500D01*
X350900Y455500D02*Y453250D01*
X351650Y452500D01*
X348650D02*X350150D01*
X350900Y453250D01*
X353450Y455500D02*Y453250D01*
X354200Y452500D01*
X354950D01*
X355700Y453250D01*
Y455500D02*Y453250D01*
X356450Y452500D01*
X357200D01*
X357950Y453250D01*
Y455500D02*Y453250D01*
G54D317*X359750Y457000D02*Y456850D01*
G54D316*Y454750D02*Y452500D01*
X362000Y454750D02*Y452500D01*
Y454750D02*X362750Y455500D01*
X363500D01*
X364250Y454750D01*
Y452500D01*
X361250Y455500D02*X362000Y454750D01*
X368300Y455500D02*X369050Y454750D01*
X366800Y455500D02*X368300D01*
X366050Y454750D02*X366800Y455500D01*
X366050Y454750D02*Y453250D01*
X366800Y452500D01*
X368300D01*
X369050Y453250D01*
X366050Y451000D02*X366800Y450250D01*
X368300D01*
X369050Y451000D01*
Y455500D02*Y451000D01*
M02*
