G04 start of page 10 for group -4079 idx -4079 *
G04 Title: 971 BBB Cape, topsilk *
G04 Creator: pcb 20110918 *
G04 CreationDate: Thu Dec  5 05:46:54 2013 UTC *
G04 For: brians *
G04 Format: Gerber/RS-274X *
G04 PCB-Dimensions: 500000 400000 *
G04 PCB-Coordinate-Origin: lower left *
%MOIN*%
%FSLAX25Y25*%
%LNTOPSILK*%
%ADD294C,0.0030*%
%ADD293C,0.0080*%
%ADD292C,0.0100*%
%ADD291C,0.0046*%
%ADD290C,0.0054*%
%ADD289C,0.0070*%
%ADD288C,0.0072*%
%ADD287C,0.0040*%
%ADD286C,0.0042*%
G54D286*X389250Y174022D02*X385050Y176122D01*
Y173497D01*
Y238072D02*Y235972D01*
X387150D01*
X386625Y236497D01*
Y237547D02*Y236497D01*
Y237547D02*X387150Y238072D01*
X388725D01*
X389250Y237547D02*X388725Y238072D01*
X389250Y237547D02*Y236497D01*
X388725Y235972D02*X389250Y236497D01*
X387675Y265792D02*X385050Y267892D01*
X387675Y268417D02*Y265792D01*
X385050Y267892D02*X389250D01*
X385575Y298027D02*X385050Y298552D01*
Y299602D02*Y298552D01*
Y299602D02*X385575Y300127D01*
X389250Y299602D02*X388725Y300127D01*
X389250Y299602D02*Y298552D01*
X388725Y298027D02*X389250Y298552D01*
X386940Y299602D02*Y298552D01*
X385575Y300127D02*X386415D01*
X387465D02*X388725D01*
X387465D02*X386940Y299602D01*
X386415Y300127D02*X386940Y299602D01*
X385890Y359977D02*X385050Y360817D01*
X389250D01*
Y361552D02*Y359977D01*
X388725Y389272D02*X389250Y389797D01*
X385575Y389272D02*X388725D01*
X385575D02*X385050Y389797D01*
Y390847D02*Y389797D01*
Y390847D02*X385575Y391372D01*
X388725D01*
X389250Y390847D02*X388725Y391372D01*
X389250Y390847D02*Y389797D01*
X388200Y389272D02*X386100Y391372D01*
G54D287*X308438Y226485D02*X310438D01*
X317538Y228485D02*Y224485D01*
X318838Y228485D02*X319538Y227785D01*
Y225185D01*
X318838Y224485D02*X319538Y225185D01*
X317038Y224485D02*X318838D01*
X317038Y228485D02*X318838D01*
X320738D02*X321738D01*
X321238D02*Y224485D01*
X320738D02*X321738D01*
X322938Y227985D02*Y224985D01*
Y227985D02*X323438Y228485D01*
X324438D01*
X324938Y227985D01*
Y224985D01*
X324438Y224485D02*X324938Y224985D01*
X323438Y224485D02*X324438D01*
X322938Y224985D02*X323438Y224485D01*
X328638D02*X329938D01*
X327938Y225185D02*X328638Y224485D01*
X327938Y227785D02*Y225185D01*
Y227785D02*X328638Y228485D01*
X329938D01*
X331138D02*Y224485D01*
X333138D01*
X334338Y228485D02*Y224485D01*
Y226485D02*X336338Y228485D01*
X334338Y226485D02*X336338Y224485D01*
X339338Y228485D02*X341338D01*
X341838Y227985D01*
Y226985D01*
X341338Y226485D02*X341838Y226985D01*
X339838Y226485D02*X341338D01*
X339838Y228485D02*Y224485D01*
X340638Y226485D02*X341838Y224485D01*
X345038Y228485D02*X345538Y227985D01*
X343538Y228485D02*X345038D01*
X343038Y227985D02*X343538Y228485D01*
X343038Y227985D02*Y226985D01*
X343538Y226485D01*
X345038D01*
X345538Y225985D01*
Y224985D01*
X345038Y224485D02*X345538Y224985D01*
X343538Y224485D02*X345038D01*
X343038Y224985D02*X343538Y224485D01*
X346738Y228485D02*X348738D01*
X347738D02*Y224485D01*
X310438Y220485D02*X310938Y219985D01*
X308938Y220485D02*X310438D01*
X308438Y219985D02*X308938Y220485D01*
X308438Y219985D02*Y218985D01*
X308938Y218485D01*
X310438D01*
X310938Y217985D01*
Y216985D01*
X310438Y216485D02*X310938Y216985D01*
X308938Y216485D02*X310438D01*
X308438Y216985D02*X308938Y216485D01*
X312138Y220485D02*Y218485D01*
X312638Y216485D01*
X313638Y218485D01*
X314638Y216485D01*
X315138Y218485D01*
Y220485D02*Y218485D01*
X316838Y220485D02*Y216485D01*
X318138Y220485D02*X318838Y219785D01*
Y217185D01*
X318138Y216485D02*X318838Y217185D01*
X316338Y216485D02*X318138D01*
X316338Y220485D02*X318138D01*
X322338Y218485D02*X323838D01*
X321838Y217985D02*X322338Y218485D01*
X321838Y217985D02*Y216985D01*
X322338Y216485D01*
X323838D01*
X325038Y217985D02*Y216985D01*
Y217985D02*X325538Y218485D01*
X326538D01*
X327038Y217985D01*
Y216985D01*
X326538Y216485D02*X327038Y216985D01*
X325538Y216485D02*X326538D01*
X325038Y216985D02*X325538Y216485D01*
X328738Y217985D02*Y216485D01*
Y217985D02*X329238Y218485D01*
X329738D01*
X330238Y217985D01*
Y216485D01*
X328238Y218485D02*X328738Y217985D01*
X331938D02*Y216485D01*
Y217985D02*X332438Y218485D01*
X332938D01*
X333438Y217985D01*
Y216485D01*
X331438Y218485D02*X331938Y217985D01*
X335138Y216485D02*X336638D01*
X334638Y216985D02*X335138Y216485D01*
X334638Y217985D02*Y216985D01*
Y217985D02*X335138Y218485D01*
X336138D01*
X336638Y217985D01*
X334638Y217485D02*X336638D01*
Y217985D02*Y217485D01*
X338338Y218485D02*X339838D01*
X337838Y217985D02*X338338Y218485D01*
X337838Y217985D02*Y216985D01*
X338338Y216485D01*
X339838D01*
X341538Y220485D02*Y216985D01*
X342038Y216485D01*
X341038Y218985D02*X342038D01*
X343038Y217985D02*Y216985D01*
Y217985D02*X343538Y218485D01*
X344538D01*
X345038Y217985D01*
Y216985D01*
X344538Y216485D02*X345038Y216985D01*
X343538Y216485D02*X344538D01*
X343038Y216985D02*X343538Y216485D01*
X346738Y217985D02*Y216485D01*
Y217985D02*X347238Y218485D01*
X348238D01*
X346238D02*X346738Y217985D01*
X236256Y328497D02*Y326997D01*
X238456Y328997D02*Y326997D01*
X234456D02*X238456D01*
X234456Y328997D02*Y326997D01*
Y332197D02*Y330197D01*
Y332197D02*X234956Y332697D01*
X235956D01*
X236456Y332197D02*X235956Y332697D01*
X236456Y332197D02*Y330697D01*
X234456D02*X238456D01*
X236456Y331497D02*X238456Y332697D01*
X234456Y335897D02*Y333897D01*
Y335897D02*X234956Y336397D01*
X235956D01*
X236456Y335897D02*X235956Y336397D01*
X236456Y335897D02*Y334397D01*
X234456D02*X238456D01*
X236456Y335197D02*X238456Y336397D01*
X234456Y339397D02*X238456D01*
X234456Y341897D02*X238456D01*
X236456D02*Y339397D01*
X238456Y345097D02*Y343097D01*
Y345097D02*X237956Y345597D01*
X236756D02*X237956D01*
X236256Y345097D02*X236756Y345597D01*
X236256Y345097D02*Y343597D01*
X234456D02*X238456D01*
X234456Y345097D02*Y343097D01*
Y345097D02*X234956Y345597D01*
X235756D01*
X236256Y345097D02*X235756Y345597D01*
X234456Y351097D02*Y348597D01*
X238456D02*X234456Y351097D01*
X238456D02*Y348597D01*
X234456Y354597D02*X238456D01*
X234456Y355897D02*X235156Y356597D01*
X237756D01*
X238456Y355897D02*X237756Y356597D01*
X238456Y355897D02*Y354097D01*
X234456Y355897D02*Y354097D01*
X238456Y359797D02*Y357797D01*
Y359797D02*X237956Y360297D01*
X236756D02*X237956D01*
X236256Y359797D02*X236756Y360297D01*
X236256Y359797D02*Y358297D01*
X234456D02*X238456D01*
X234456Y359797D02*Y357797D01*
Y359797D02*X234956Y360297D01*
X235756D01*
X236256Y359797D02*X235756Y360297D01*
G54D288*X322150Y46597D02*Y42997D01*
Y58837D02*Y55237D01*
X320350Y57037D02*X323950D01*
X320350Y67477D02*X325750D01*
X320350D02*X318550Y68737D01*
Y70717D02*Y68737D01*
Y70717D02*X320350Y71977D01*
X325750D01*
X322150D02*Y67477D01*
G54D286*X87438Y79216D02*X87963Y78691D01*
X87438Y82366D02*Y79216D01*
Y82366D02*X87963Y82891D01*
X89013D01*
X89538Y82366D01*
Y79216D01*
X89013Y78691D02*X89538Y79216D01*
X87963Y78691D02*X89013D01*
X87438Y79741D02*X89538Y81841D01*
X115368Y82051D02*X116208Y82891D01*
Y78691D01*
X115368D02*X116943D01*
X146553Y82366D02*X147078Y82891D01*
X148653D01*
X149178Y82366D01*
Y81316D01*
X146553Y78691D02*X149178Y81316D01*
X146553Y78691D02*X149178D01*
X176898Y82366D02*X177423Y82891D01*
X178473D01*
X178998Y82366D01*
X178473Y78691D02*X178998Y79216D01*
X177423Y78691D02*X178473D01*
X176898Y79216D02*X177423Y78691D01*
Y81001D02*X178473D01*
X178998Y82366D02*Y81526D01*
Y80476D02*Y79216D01*
Y80476D02*X178473Y81001D01*
X178998Y81526D02*X178473Y81001D01*
X206718Y80266D02*X208818Y82891D01*
X206718Y80266D02*X209343D01*
X208818Y82891D02*Y78691D01*
X237063Y82891D02*X239163D01*
X237063D02*Y80791D01*
X237588Y81316D01*
X238638D01*
X239163Y80791D01*
Y79216D01*
X238638Y78691D02*X239163Y79216D01*
X237588Y78691D02*X238638D01*
X237063Y79216D02*X237588Y78691D01*
X268458Y82891D02*X268983Y82366D01*
X267408Y82891D02*X268458D01*
X266883Y82366D02*X267408Y82891D01*
X266883Y82366D02*Y79216D01*
X267408Y78691D01*
X268458Y81001D02*X268983Y80476D01*
X266883Y81001D02*X268458D01*
X267408Y78691D02*X268458D01*
X268983Y79216D01*
Y80476D02*Y79216D01*
X297228Y78691D02*X299328Y82891D01*
X296703D02*X299328D01*
G54D289*X111691Y227000D02*Y223500D01*
Y218250D02*Y214750D01*
X109941Y216500D02*X113441D01*
G54D286*X443890Y51997D02*X443050Y52837D01*
X447250D01*
Y53572D02*Y51997D01*
X443890Y54832D02*X443050Y55672D01*
X447250D01*
Y56407D02*Y54832D01*
X443890Y82237D02*X443050Y83077D01*
X447250D01*
Y83812D02*Y82237D01*
X446725Y85072D02*X447250Y85597D01*
X443575Y85072D02*X446725D01*
X443575D02*X443050Y85597D01*
Y86647D02*Y85597D01*
Y86647D02*X443575Y87172D01*
X446725D01*
X447250Y86647D02*X446725Y87172D01*
X447250Y86647D02*Y85597D01*
X446200Y85072D02*X444100Y87172D01*
X447250Y115417D02*X445150Y116992D01*
X443575D02*X445150D01*
X443050Y116467D02*X443575Y116992D01*
X443050Y116467D02*Y115417D01*
X443575Y114892D02*X443050Y115417D01*
X443575Y114892D02*X444625D01*
X445150Y115417D01*
Y116992D02*Y115417D01*
X446725Y144712D02*X447250Y145237D01*
X445885Y144712D02*X446725D01*
X445885D02*X445150Y145447D01*
Y146077D02*Y145447D01*
Y146077D02*X445885Y146812D01*
X446725D01*
X447250Y146287D02*X446725Y146812D01*
X447250Y146287D02*Y145237D01*
X444415Y144712D02*X445150Y145447D01*
X443575Y144712D02*X444415D01*
X443575D02*X443050Y145237D01*
Y146287D02*Y145237D01*
Y146287D02*X443575Y146812D01*
X444415D01*
X445150Y146077D02*X444415Y146812D01*
X447250Y176947D02*X443050Y179047D01*
Y176422D01*
Y208342D02*X443575Y208867D01*
X443050Y208342D02*Y207292D01*
X443575Y206767D02*X443050Y207292D01*
X443575Y206767D02*X446725D01*
X447250Y207292D01*
X444940Y208342D02*X445465Y208867D01*
X444940Y208342D02*Y206767D01*
X447250Y208342D02*Y207292D01*
Y208342D02*X446725Y208867D01*
X445465D02*X446725D01*
X443050Y238687D02*Y236587D01*
X445150D01*
X444625Y237112D01*
Y238162D02*Y237112D01*
Y238162D02*X445150Y238687D01*
X446725D01*
X447250Y238162D02*X446725Y238687D01*
X447250Y238162D02*Y237112D01*
X446725Y236587D02*X447250Y237112D01*
X445675Y266407D02*X443050Y268507D01*
X445675Y269032D02*Y266407D01*
X443050Y268507D02*X447250D01*
X443575Y296752D02*X443050Y297277D01*
Y298327D02*Y297277D01*
Y298327D02*X443575Y298852D01*
X447250Y298327D02*X446725Y298852D01*
X447250Y298327D02*Y297277D01*
X446725Y296752D02*X447250Y297277D01*
X444940Y298327D02*Y297277D01*
X443575Y298852D02*X444415D01*
X445465D02*X446725D01*
X445465D02*X444940Y298327D01*
X444415Y298852D02*X444940Y298327D01*
X443575Y326572D02*X443050Y327097D01*
Y328672D02*Y327097D01*
Y328672D02*X443575Y329197D01*
X444625D01*
X447250Y326572D02*X444625Y329197D01*
X447250D02*Y326572D01*
X443890Y356917D02*X443050Y357757D01*
X447250D01*
Y358492D02*Y356917D01*
X446725Y386212D02*X447250Y386737D01*
X443575Y386212D02*X446725D01*
X443575D02*X443050Y386737D01*
Y387787D02*Y386737D01*
Y387787D02*X443575Y388312D01*
X446725D01*
X447250Y387787D02*X446725Y388312D01*
X447250Y387787D02*Y386737D01*
X446200Y386212D02*X444100Y388312D01*
G54D288*X408938Y134585D02*X412538D01*
X424418D02*X428018D01*
X426218Y136385D02*Y132785D01*
X440798Y138185D02*Y130985D01*
X443138Y138185D02*X444398Y136925D01*
Y132245D01*
X443138Y130985D02*X444398Y132245D01*
X439898Y130985D02*X443138D01*
X439898Y138185D02*X443138D01*
G54D290*X404438Y150435D02*X407138D01*
X413618D02*X416318D01*
X414968Y151785D02*Y149085D01*
X425228Y151785D02*Y147735D01*
Y151785D02*X426173Y153135D01*
X427658D01*
X428603Y151785D01*
Y147735D01*
X425228Y150435D02*X428603D01*
X435083Y147735D02*X437783D01*
X438458Y148410D01*
Y150030D02*Y148410D01*
X437783Y150705D02*X438458Y150030D01*
X435758Y150705D02*X437783D01*
X435758Y153135D02*Y147735D01*
X435083Y153135D02*X437783D01*
X438458Y152460D01*
Y151380D01*
X437783Y150705D02*X438458Y151380D01*
G54D291*X190941Y241350D02*Y236750D01*
Y241350D02*X193241D01*
X190941Y239280D02*X192666D01*
X194621Y241350D02*X196921D01*
X197496Y240775D01*
Y239625D01*
X196921Y239050D02*X197496Y239625D01*
X195196Y239050D02*X196921D01*
X195196Y241350D02*Y236750D01*
X196116Y239050D02*X197496Y236750D01*
X199681D02*X201176D01*
X198876Y237555D02*X199681Y236750D01*
X198876Y240545D02*Y237555D01*
Y240545D02*X199681Y241350D01*
X201176D01*
X204626D02*X206926D01*
X205776D02*Y236750D01*
X208881D02*X210606D01*
X208306Y237325D02*X208881Y236750D01*
X208306Y238475D02*Y237325D01*
Y238475D02*X208881Y239050D01*
X210031D01*
X210606Y238475D01*
X208306Y237900D02*X210606D01*
Y238475D02*Y237900D01*
X213711Y239050D02*X214286Y238475D01*
X212561Y239050D02*X213711D01*
X211986Y238475D02*X212561Y239050D01*
X211986Y238475D02*Y237325D01*
X212561Y236750D01*
X214286Y239050D02*Y237325D01*
X214861Y236750D01*
X212561D02*X213711D01*
X214286Y237325D01*
X216816Y238475D02*Y236750D01*
Y238475D02*X217391Y239050D01*
X217966D01*
X218541Y238475D01*
Y236750D01*
Y238475D02*X219116Y239050D01*
X219691D01*
X220266Y238475D01*
Y236750D01*
X216241Y239050D02*X216816Y238475D01*
X224291Y236750D02*X226016Y239050D01*
Y240775D02*Y239050D01*
X225441Y241350D02*X226016Y240775D01*
X224291Y241350D02*X225441D01*
X223716Y240775D02*X224291Y241350D01*
X223716Y240775D02*Y239625D01*
X224291Y239050D01*
X226016D01*
X227971Y236750D02*X230271Y241350D01*
X227396D02*X230271D01*
X231651Y240430D02*X232571Y241350D01*
Y236750D01*
X231651D02*X233376D01*
X236826D02*X239126D01*
X239701Y237325D01*
Y238705D02*Y237325D01*
X239126Y239280D02*X239701Y238705D01*
X237401Y239280D02*X239126D01*
X237401Y241350D02*Y236750D01*
X236826Y241350D02*X239126D01*
X239701Y240775D01*
Y239855D01*
X239126Y239280D02*X239701Y239855D01*
X241081Y236750D02*X243381D01*
X243956Y237325D01*
Y238705D02*Y237325D01*
X243381Y239280D02*X243956Y238705D01*
X241656Y239280D02*X243381D01*
X241656Y241350D02*Y236750D01*
X241081Y241350D02*X243381D01*
X243956Y240775D01*
Y239855D01*
X243381Y239280D02*X243956Y239855D01*
X245336Y236750D02*X247636D01*
X248211Y237325D01*
Y238705D02*Y237325D01*
X247636Y239280D02*X248211Y238705D01*
X245911Y239280D02*X247636D01*
X245911Y241350D02*Y236750D01*
X245336Y241350D02*X247636D01*
X248211Y240775D01*
Y239855D01*
X247636Y239280D02*X248211Y239855D01*
X252466Y236750D02*X253961D01*
X251661Y237555D02*X252466Y236750D01*
X251661Y240545D02*Y237555D01*
Y240545D02*X252466Y241350D01*
X253961D01*
X257066Y239050D02*X257641Y238475D01*
X255916Y239050D02*X257066D01*
X255341Y238475D02*X255916Y239050D01*
X255341Y238475D02*Y237325D01*
X255916Y236750D01*
X257641Y239050D02*Y237325D01*
X258216Y236750D01*
X255916D02*X257066D01*
X257641Y237325D01*
X260171Y238475D02*Y235025D01*
X259596Y239050D02*X260171Y238475D01*
X260746Y239050D01*
X261896D01*
X262471Y238475D01*
Y237325D01*
X261896Y236750D02*X262471Y237325D01*
X260746Y236750D02*X261896D01*
X260171Y237325D02*X260746Y236750D01*
X264426D02*X266151D01*
X263851Y237325D02*X264426Y236750D01*
X263851Y238475D02*Y237325D01*
Y238475D02*X264426Y239050D01*
X265576D01*
X266151Y238475D01*
X263851Y237900D02*X266151D01*
Y238475D02*Y237900D01*
X202441Y227775D02*X203016Y228350D01*
X204741D01*
X205316Y227775D01*
Y226625D01*
X202441Y223750D02*X205316Y226625D01*
X202441Y223750D02*X205316D01*
X206696Y224325D02*X207271Y223750D01*
X206696Y227775D02*Y224325D01*
Y227775D02*X207271Y228350D01*
X208421D01*
X208996Y227775D01*
Y224325D01*
X208421Y223750D02*X208996Y224325D01*
X207271Y223750D02*X208421D01*
X206696Y224900D02*X208996Y227200D01*
X210376Y227430D02*X211296Y228350D01*
Y223750D01*
X210376D02*X212101D01*
X213481Y227775D02*X214056Y228350D01*
X215206D01*
X215781Y227775D01*
X215206Y223750D02*X215781Y224325D01*
X214056Y223750D02*X215206D01*
X213481Y224325D02*X214056Y223750D01*
Y226280D02*X215206D01*
X215781Y227775D02*Y226855D01*
Y225705D02*Y224325D01*
Y225705D02*X215206Y226280D01*
X215781Y226855D02*X215206Y226280D01*
X217161Y227430D02*X218081Y228350D01*
Y223750D01*
X217161D02*X218886D01*
X220266Y227775D02*X220841Y228350D01*
X222566D01*
X223141Y227775D01*
Y226625D01*
X220266Y223750D02*X223141Y226625D01*
X220266Y223750D02*X223141D01*
X224521Y224325D02*X225096Y223750D01*
X224521Y227775D02*Y224325D01*
Y227775D02*X225096Y228350D01*
X226246D01*
X226821Y227775D01*
Y224325D01*
X226246Y223750D02*X226821Y224325D01*
X225096Y223750D02*X226246D01*
X224521Y224900D02*X226821Y227200D01*
X228201Y225475D02*X230501Y228350D01*
X228201Y225475D02*X231076D01*
X230501Y228350D02*Y223750D01*
X234526Y227775D02*X235101Y228350D01*
X236826D01*
X237401Y227775D01*
Y226625D01*
X234526Y223750D02*X237401Y226625D01*
X234526Y223750D02*X237401D01*
X238781Y224325D02*X239356Y223750D01*
X238781Y227775D02*Y224325D01*
Y227775D02*X239356Y228350D01*
X240506D01*
X241081Y227775D01*
Y224325D01*
X240506Y223750D02*X241081Y224325D01*
X239356Y223750D02*X240506D01*
X238781Y224900D02*X241081Y227200D01*
X242461Y227430D02*X243381Y228350D01*
Y223750D01*
X242461D02*X244186D01*
X245566Y227775D02*X246141Y228350D01*
X247291D01*
X247866Y227775D01*
X247291Y223750D02*X247866Y224325D01*
X246141Y223750D02*X247291D01*
X245566Y224325D02*X246141Y223750D01*
Y226280D02*X247291D01*
X247866Y227775D02*Y226855D01*
Y225705D02*Y224325D01*
Y225705D02*X247291Y226280D01*
X247866Y226855D02*X247291Y226280D01*
X249246Y226050D02*X251546D01*
X252926Y228350D02*Y223750D01*
Y224325D02*X253501Y223750D01*
X254651D01*
X255226Y224325D01*
Y225475D02*Y224325D01*
X254651Y226050D02*X255226Y225475D01*
X253501Y226050D02*X254651D01*
X252926Y225475D02*X253501Y226050D01*
X256606Y227430D02*X257526Y228350D01*
Y223750D01*
X256606D02*X258331D01*
G54D292*X448500Y126200D02*Y101200D01*
X478500Y126200D02*Y101200D01*
Y126200D02*X448500D01*
Y119700D02*X478500D01*
X458500Y101200D02*Y119700D01*
X468500Y101200D02*Y119700D01*
X448500Y101200D02*X478500D01*
X448500D02*X458500D01*
X448500Y96200D02*Y71200D01*
X478500Y96200D02*Y71200D01*
Y96200D02*X448500D01*
Y89700D02*X478500D01*
X458500Y71200D02*Y89700D01*
X468500Y71200D02*Y89700D01*
X448500Y71200D02*X478500D01*
X448500D02*X458500D01*
X448500Y66200D02*Y41200D01*
X478500Y66200D02*Y41200D01*
Y66200D02*X448500D01*
Y59700D02*X478500D01*
X458500Y41200D02*Y59700D01*
X468500Y41200D02*Y59700D01*
X448500Y41200D02*X478500D01*
X448500D02*X458500D01*
X448500Y216200D02*Y191200D01*
X478500Y216200D02*Y191200D01*
Y216200D02*X448500D01*
Y209700D02*X478500D01*
X458500Y191200D02*Y209700D01*
X468500Y191200D02*Y209700D01*
X448500Y191200D02*X478500D01*
X448500D02*X458500D01*
X448500Y186200D02*Y161200D01*
X478500Y186200D02*Y161200D01*
Y186200D02*X448500D01*
Y179700D02*X478500D01*
X458500Y161200D02*Y179700D01*
X468500Y161200D02*Y179700D01*
X448500Y161200D02*X478500D01*
X448500D02*X458500D01*
X448500Y156200D02*Y131200D01*
X478500Y156200D02*Y131200D01*
Y156200D02*X448500D01*
Y149700D02*X478500D01*
X458500Y131200D02*Y149700D01*
X468500Y131200D02*Y149700D01*
X448500Y131200D02*X478500D01*
X448500D02*X458500D01*
X402000Y186200D02*Y161200D01*
X442000Y186200D02*Y161200D01*
Y186200D02*X402000D01*
Y179700D02*X442000D01*
X412000Y161200D02*Y179700D01*
X422000Y161200D02*Y179700D01*
X432000Y161200D02*Y179700D01*
X402000Y161200D02*X442000D01*
X402000D02*X412000D01*
X448500Y396200D02*Y371200D01*
X478500Y396200D02*Y371200D01*
X448500Y396200D02*X478500D01*
X448500Y389700D02*X478500D01*
X458500D02*Y371200D01*
X468500Y389700D02*Y371200D01*
X448500D02*X478500D01*
X448500D02*X458500D01*
X448500Y366200D02*Y341200D01*
X478500Y366200D02*Y341200D01*
Y366200D02*X448500D01*
Y359700D02*X478500D01*
X458500Y341200D02*Y359700D01*
X468500Y341200D02*Y359700D01*
X448500Y341200D02*X478500D01*
X448500D02*X458500D01*
X402000Y366200D02*Y341200D01*
X442000Y366200D02*Y341200D01*
Y366200D02*X402000D01*
Y359700D02*X442000D01*
X412000Y341200D02*Y359700D01*
X422000Y341200D02*Y359700D01*
X432000Y341200D02*Y359700D01*
X402000Y341200D02*X442000D01*
X402000D02*X412000D01*
X402000Y396200D02*Y371200D01*
X442000Y396200D02*Y371200D01*
Y396200D02*X402000D01*
Y389700D02*X442000D01*
X412000Y371200D02*Y389700D01*
X422000Y371200D02*Y389700D01*
X432000Y371200D02*Y389700D01*
X402000Y371200D02*X442000D01*
X402000D02*X412000D01*
X448500Y336200D02*Y311200D01*
X478500Y336200D02*Y311200D01*
Y336200D02*X448500D01*
Y329700D02*X478500D01*
X458500Y311200D02*Y329700D01*
X468500Y311200D02*Y329700D01*
X448500Y311200D02*X478500D01*
X448500D02*X458500D01*
X448500Y306200D02*Y281200D01*
X478500Y306200D02*Y281200D01*
Y306200D02*X448500D01*
Y299700D02*X478500D01*
X458500Y281200D02*Y299700D01*
X468500Y281200D02*Y299700D01*
X448500Y281200D02*X478500D01*
X448500D02*X458500D01*
X402000Y306200D02*Y281200D01*
X442000Y306200D02*Y281200D01*
Y306200D02*X402000D01*
Y299700D02*X442000D01*
X412000Y281200D02*Y299700D01*
X422000Y281200D02*Y299700D01*
X432000Y281200D02*Y299700D01*
X402000Y281200D02*X442000D01*
X402000D02*X412000D01*
X402000Y336200D02*Y311200D01*
X442000Y336200D02*Y311200D01*
X402000Y336200D02*X442000D01*
X402000Y329700D02*X442000D01*
X412000D02*Y311200D01*
X422000Y329700D02*Y311200D01*
X432000Y329700D02*Y311200D01*
X402000D02*X442000D01*
X402000D02*X412000D01*
X402000Y276200D02*Y251200D01*
X442000Y276200D02*Y251200D01*
X402000Y276200D02*X442000D01*
X402000Y269700D02*X442000D01*
X412000D02*Y251200D01*
X422000Y269700D02*Y251200D01*
X432000Y269700D02*Y251200D01*
X402000D02*X442000D01*
X402000D02*X412000D01*
X374835Y346566D02*X396047D01*
X374835D02*Y315434D01*
X396047D01*
Y346566D02*Y333500D01*
Y328500D02*Y315434D01*
Y333500D02*G75*G03X396047Y328500I0J-2500D01*G01*
G54D293*X242304Y270584D02*X243090D01*
X242304Y265074D02*X243090D01*
X287686Y248850D02*Y248064D01*
X293196Y248850D02*Y248064D01*
G54D292*X146799Y335829D02*Y296829D01*
X192799D01*
Y335829D01*
X146799D02*X167299D01*
X192799D02*X172299D01*
X167299D02*G75*G03X172299Y335829I2500J0D01*G01*
G54D293*X120894Y283923D02*X118925Y285892D01*
X120894Y283923D02*X134673D01*
Y315419D02*Y283923D01*
X118925Y315419D02*X134673D01*
X118925D02*Y285892D01*
G54D292*X145699Y294729D02*X159599D01*
X145699D02*Y281929D01*
X159599D01*
Y294729D02*Y281929D01*
X127831Y222173D02*Y237921D01*
X164051Y222173D02*X127831D01*
X164051Y237921D02*Y222173D01*
X126256Y237921D02*Y278079D01*
X165626Y237921D02*Y278079D01*
Y237921D02*X126256D01*
X165626Y278079D02*X126256D01*
G54D293*X93186Y208393D02*Y207607D01*
X98696Y208393D02*Y207607D01*
X173196Y245393D02*Y244607D01*
X167686Y245393D02*Y244607D01*
X248505Y359255D02*X249291D01*
X248505Y353745D02*X249291D01*
X248505Y338255D02*X249291D01*
X248505Y332745D02*X249291D01*
X248462Y345255D02*X249248D01*
X248462Y339745D02*X249248D01*
X296525Y297214D02*Y261544D01*
X257955D02*X296525D01*
X257955Y300114D02*Y261544D01*
Y300114D02*X293625D01*
X296525Y297214D01*
X293625Y298214D02*G75*G03X293625Y298214I0J-1000D01*G01*
X248462Y352255D02*X249248D01*
X248462Y346745D02*X249248D01*
G54D292*X291150Y314280D02*G75*G03X291150Y314280I500J0D01*G01*
X133241Y42500D02*X158241D01*
X133241Y72500D02*X158241D01*
X133241D02*Y42500D01*
X139741Y72500D02*Y42500D01*
Y52500D02*X158241D01*
X139741Y62500D02*X158241D01*
Y72500D02*Y42500D01*
Y52500D02*Y42500D01*
X103241D02*X128241D01*
X103241Y72500D02*X128241D01*
X103241D02*Y42500D01*
X109741Y72500D02*Y42500D01*
Y52500D02*X128241D01*
X109741Y62500D02*X128241D01*
Y72500D02*Y42500D01*
Y52500D02*Y42500D01*
X73241D02*X98241D01*
X73241Y72500D02*X98241D01*
X73241D02*Y42500D01*
X79741Y72500D02*Y42500D01*
Y52500D02*X98241D01*
X79741Y62500D02*X98241D01*
Y72500D02*Y42500D01*
Y52500D02*Y42500D01*
X193241D02*X218241D01*
X193241Y72500D02*X218241D01*
X193241D02*Y42500D01*
X199741Y72500D02*Y42500D01*
Y52500D02*X218241D01*
X199741Y62500D02*X218241D01*
Y72500D02*Y42500D01*
Y52500D02*Y42500D01*
X223241D02*X248241D01*
X223241Y72500D02*X248241D01*
X223241D02*Y42500D01*
X229741Y72500D02*Y42500D01*
Y52500D02*X248241D01*
X229741Y62500D02*X248241D01*
Y72500D02*Y42500D01*
Y52500D02*Y42500D01*
X163241D02*X188241D01*
X163241Y72500D02*X188241D01*
X163241D02*Y42500D01*
X169741Y72500D02*Y42500D01*
Y52500D02*X188241D01*
X169741Y62500D02*X188241D01*
Y72500D02*Y42500D01*
Y52500D02*Y42500D01*
X200441Y144500D02*Y110500D01*
X231441D01*
Y144500D01*
X200441D02*X213441D01*
X231441D02*X218441D01*
X213441D02*G75*G03X218441Y144500I2500J0D01*G01*
G54D293*X112885Y239433D02*Y235497D01*
X102257Y239433D02*Y235497D01*
X124885D02*Y239433D01*
X114257Y235497D02*Y239433D01*
X160635Y215125D02*X161421D01*
X160635Y209615D02*X161421D01*
X148816Y202220D02*Y201434D01*
X154326Y202220D02*Y201434D01*
G54D292*X118666Y144340D02*Y110340D01*
X149666D01*
Y144340D01*
X118666D02*X131666D01*
X149666D02*X136666D01*
X131666D02*G75*G03X136666Y144340I2500J0D01*G01*
X72641Y245000D02*X97641D01*
X72641Y215000D02*X97641D01*
Y245000D02*Y215000D01*
X91141Y245000D02*Y215000D01*
X72641Y235000D02*X91141D01*
X72641Y225000D02*X91141D01*
X72641Y245000D02*Y215000D01*
Y245000D02*Y235000D01*
X253241Y42500D02*X278241D01*
X253241Y72500D02*X278241D01*
X253241D02*Y42500D01*
X259741Y72500D02*Y42500D01*
Y52500D02*X278241D01*
X259741Y62500D02*X278241D01*
Y72500D02*Y42500D01*
Y52500D02*Y42500D01*
X283241D02*X308241D01*
X283241Y72500D02*X308241D01*
X283241D02*Y42500D01*
X289741Y72500D02*Y42500D01*
Y52500D02*X308241D01*
X289741Y62500D02*X308241D01*
Y72500D02*Y42500D01*
Y52500D02*Y42500D01*
X269438Y147822D02*Y108822D01*
X300438D01*
Y147822D01*
X269438D02*X282438D01*
X300438D02*X287438D01*
X282438D02*G75*G03X287438Y147822I2500J0D01*G01*
X374835Y228566D02*X396047D01*
X374835D02*Y197434D01*
X396047D01*
Y228566D02*Y215500D01*
Y210500D02*Y197434D01*
Y215500D02*G75*G03X396047Y210500I0J-2500D01*G01*
X402000Y216200D02*Y191200D01*
X442000Y216200D02*Y191200D01*
Y216200D02*X402000D01*
Y209700D02*X442000D01*
X412000Y191200D02*Y209700D01*
X422000Y191200D02*Y209700D01*
X432000Y191200D02*Y209700D01*
X402000Y191200D02*X442000D01*
X402000D02*X412000D01*
X448500Y246200D02*Y221200D01*
X478500Y246200D02*Y221200D01*
X448500Y246200D02*X478500D01*
X448500Y239700D02*X478500D01*
X458500D02*Y221200D01*
X468500Y239700D02*Y221200D01*
X448500D02*X478500D01*
X448500D02*X458500D01*
X402000Y246200D02*Y221200D01*
X442000Y246200D02*Y221200D01*
Y246200D02*X402000D01*
Y239700D02*X442000D01*
X412000Y221200D02*Y239700D01*
X422000Y221200D02*Y239700D01*
X432000Y221200D02*Y239700D01*
X402000Y221200D02*X442000D01*
X402000D02*X412000D01*
X448500Y276200D02*Y251200D01*
X478500Y276200D02*Y251200D01*
Y276200D02*X448500D01*
Y269700D02*X478500D01*
X458500Y251200D02*Y269700D01*
X468500Y251200D02*Y269700D01*
X448500Y251200D02*X478500D01*
X448500D02*X458500D01*
X307441Y261200D02*Y236200D01*
X347441Y261200D02*Y236200D01*
Y261200D02*X307441D01*
Y254700D02*X347441D01*
X317441Y236200D02*Y254700D01*
X327441Y236200D02*Y254700D01*
X337441Y236200D02*Y254700D01*
X307441Y236200D02*X347441D01*
X307441D02*X317441D01*
G54D293*X386091Y60756D02*X386877D01*
X386091Y55246D02*X386877D01*
X371686Y47850D02*Y47064D01*
X377196Y47850D02*Y47064D01*
G54D294*X347755Y85968D02*Y82032D01*
X337127Y85968D02*Y82032D01*
G54D293*X334755Y85968D02*Y82032D01*
X324127Y85968D02*Y82032D01*
G54D292*X353331Y67174D02*Y82922D01*
X389551Y67174D02*X353331D01*
X389551Y82922D02*Y67174D01*
X351756Y82922D02*Y123080D01*
X391126Y82922D02*Y123080D01*
Y82922D02*X351756D01*
X391126Y123080D02*X351756D01*
G54D293*X400196Y86393D02*Y85607D01*
X394686Y86393D02*Y85607D01*
M02*
