G04 start of page 2 for group 0 idx 0 *
G04 Title: 971 BBB Cape, top *
G04 Creator: pcb 20110918 *
G04 CreationDate: Thu Dec  5 05:46:53 2013 UTC *
G04 For: brians *
G04 Format: Gerber/RS-274X *
G04 PCB-Dimensions: 500000 400000 *
G04 PCB-Coordinate-Origin: lower left *
%MOIN*%
%FSLAX25Y25*%
%LNTOP*%
%ADD199C,0.0350*%
%ADD198C,0.0600*%
%ADD197C,0.0200*%
%ADD196C,0.0360*%
%ADD195R,0.0748X0.0748*%
%ADD194R,0.0948X0.0948*%
%ADD193R,0.0340X0.0340*%
%ADD192R,0.0110X0.0110*%
%ADD191R,0.0200X0.0200*%
%ADD190R,0.2106X0.2106*%
%ADD189R,0.0350X0.0350*%
%ADD188R,0.0512X0.0512*%
%ADD187R,0.0130X0.0130*%
%ADD186R,0.0295X0.0295*%
%ADD185C,0.2100*%
%ADD184C,0.0660*%
%ADD183C,0.2200*%
%ADD182C,0.1830*%
%ADD181C,0.0650*%
%ADD180C,0.0550*%
%ADD179C,0.0400*%
%ADD178C,0.0250*%
%ADD177C,0.0080*%
%ADD176C,0.0100*%
%ADD175C,0.0001*%
G54D175*G36*
X323441Y99000D02*X347441Y123000D01*
X391441D01*
Y83000D01*
X323441D01*
Y99000D01*
G37*
G36*
X384441Y78000D02*X393441D01*
Y64000D01*
X396941Y60500D01*
Y42500D01*
X385941D01*
Y53500D01*
X387441Y55000D01*
Y63000D01*
X384441Y66000D01*
Y78000D01*
G37*
G36*
X315441Y81000D02*X358441D01*
Y54000D01*
X345441D01*
X331441Y68000D01*
X315441D01*
Y81000D01*
G37*
G36*
X275792Y211941D02*X280021Y216170D01*
X280057Y216201D01*
X280180Y216344D01*
X280180Y216344D01*
X280279Y216506D01*
X280351Y216680D01*
X280395Y216864D01*
X280410Y217052D01*
X280406Y217099D01*
Y244696D01*
X282630Y246920D01*
Y237610D01*
X282625Y237551D01*
X282644Y237316D01*
X282699Y237086D01*
X282789Y236868D01*
X282913Y236667D01*
X283066Y236487D01*
X283111Y236449D01*
X283441Y236119D01*
Y188427D01*
X283264Y188319D01*
X282749Y187879D01*
X282309Y187364D01*
X281956Y186787D01*
X281697Y186162D01*
X281539Y185504D01*
X281486Y184829D01*
X281539Y184154D01*
X281697Y183496D01*
X281956Y182871D01*
X282309Y182294D01*
X282749Y181779D01*
X283264Y181339D01*
X283441Y181231D01*
Y178427D01*
X283264Y178319D01*
X282749Y177879D01*
X282309Y177364D01*
X281956Y176787D01*
X281697Y176162D01*
X281539Y175504D01*
X281486Y174829D01*
X281539Y174154D01*
X281697Y173496D01*
X281956Y172871D01*
X282309Y172294D01*
X282749Y171779D01*
X283264Y171339D01*
X283441Y171231D01*
Y169500D01*
X275792D01*
Y170516D01*
X275799Y170516D01*
X276474Y170569D01*
X277132Y170727D01*
X277757Y170986D01*
X278334Y171339D01*
X278849Y171779D01*
X279289Y172294D01*
X279642Y172871D01*
X279901Y173496D01*
X280059Y174154D01*
X280099Y174829D01*
X280059Y175504D01*
X279901Y176162D01*
X279642Y176787D01*
X279289Y177364D01*
X278849Y177879D01*
X278334Y178319D01*
X277757Y178672D01*
X277132Y178931D01*
X276474Y179089D01*
X275799Y179142D01*
X275792Y179142D01*
Y180516D01*
X275799Y180516D01*
X276474Y180569D01*
X277132Y180727D01*
X277757Y180986D01*
X278334Y181339D01*
X278849Y181779D01*
X279289Y182294D01*
X279642Y182871D01*
X279901Y183496D01*
X280059Y184154D01*
X280099Y184829D01*
X280059Y185504D01*
X279901Y186162D01*
X279642Y186787D01*
X279289Y187364D01*
X278849Y187879D01*
X278334Y188319D01*
X277757Y188672D01*
X277132Y188931D01*
X276474Y189089D01*
X275799Y189142D01*
X275792Y189142D01*
Y211941D01*
G37*
G36*
X269438Y205587D02*X275792Y211941D01*
Y189142D01*
X275124Y189089D01*
X274466Y188931D01*
X273841Y188672D01*
X273264Y188319D01*
X272749Y187879D01*
X272309Y187364D01*
X271956Y186787D01*
X271697Y186162D01*
X271539Y185504D01*
X271486Y184829D01*
X271539Y184154D01*
X271697Y183496D01*
X271956Y182871D01*
X272309Y182294D01*
X272749Y181779D01*
X273264Y181339D01*
X273841Y180986D01*
X274466Y180727D01*
X275124Y180569D01*
X275792Y180516D01*
Y179142D01*
X275124Y179089D01*
X274466Y178931D01*
X273841Y178672D01*
X273264Y178319D01*
X272749Y177879D01*
X272309Y177364D01*
X271956Y176787D01*
X271697Y176162D01*
X271539Y175504D01*
X271486Y174829D01*
X271539Y174154D01*
X271697Y173496D01*
X271956Y172871D01*
X272309Y172294D01*
X272749Y171779D01*
X273264Y171339D01*
X273841Y170986D01*
X274466Y170727D01*
X275124Y170569D01*
X275792Y170516D01*
Y169500D01*
X269438D01*
Y172538D01*
X269642Y172871D01*
X269901Y173496D01*
X270059Y174154D01*
X270099Y174829D01*
X270059Y175504D01*
X269901Y176162D01*
X269642Y176787D01*
X269438Y177120D01*
Y182538D01*
X269642Y182871D01*
X269901Y183496D01*
X270059Y184154D01*
X270099Y184829D01*
X270059Y185504D01*
X269901Y186162D01*
X269642Y186787D01*
X269438Y187120D01*
Y196695D01*
X269441Y196694D01*
X269723Y196717D01*
X269999Y196783D01*
X270261Y196891D01*
X270502Y197039D01*
X270718Y197223D01*
X270902Y197439D01*
X271050Y197680D01*
X271158Y197942D01*
X271224Y198218D01*
X271241Y198500D01*
X271224Y198782D01*
X271158Y199058D01*
X271050Y199320D01*
X270902Y199561D01*
X270718Y199777D01*
X270502Y199961D01*
X270261Y200109D01*
X269999Y200217D01*
X269723Y200283D01*
X269441Y200306D01*
X269438Y200305D01*
Y205587D01*
G37*
G36*
X260938Y197087D02*X269438Y205587D01*
Y200305D01*
X269159Y200283D01*
X268883Y200217D01*
X268621Y200109D01*
X268380Y199961D01*
X268164Y199777D01*
X267980Y199561D01*
X267832Y199320D01*
X267724Y199058D01*
X267658Y198782D01*
X267635Y198500D01*
X267658Y198218D01*
X267724Y197942D01*
X267832Y197680D01*
X267980Y197439D01*
X268164Y197223D01*
X268380Y197039D01*
X268621Y196891D01*
X268883Y196783D01*
X269159Y196717D01*
X269438Y196695D01*
Y187120D01*
X269289Y187364D01*
X268849Y187879D01*
X268334Y188319D01*
X267757Y188672D01*
X267132Y188931D01*
X266474Y189089D01*
X265799Y189142D01*
X265124Y189089D01*
X264466Y188931D01*
X263841Y188672D01*
X263264Y188319D01*
X262749Y187879D01*
X262309Y187364D01*
X261956Y186787D01*
X261697Y186162D01*
X261539Y185504D01*
X261486Y184829D01*
X261539Y184154D01*
X261697Y183496D01*
X261956Y182871D01*
X262309Y182294D01*
X262749Y181779D01*
X263264Y181339D01*
X263841Y180986D01*
X264466Y180727D01*
X265124Y180569D01*
X265799Y180516D01*
X266474Y180569D01*
X267132Y180727D01*
X267757Y180986D01*
X268334Y181339D01*
X268849Y181779D01*
X269289Y182294D01*
X269438Y182538D01*
Y177120D01*
X269289Y177364D01*
X268849Y177879D01*
X268334Y178319D01*
X267757Y178672D01*
X267132Y178931D01*
X266474Y179089D01*
X265799Y179142D01*
X265124Y179089D01*
X264466Y178931D01*
X263841Y178672D01*
X263264Y178319D01*
X262749Y177879D01*
X262309Y177364D01*
X261956Y176787D01*
X261697Y176162D01*
X261539Y175504D01*
X261486Y174829D01*
X261539Y174154D01*
X261697Y173496D01*
X261956Y172871D01*
X262309Y172294D01*
X262749Y171779D01*
X263264Y171339D01*
X263841Y170986D01*
X264466Y170727D01*
X265124Y170569D01*
X265799Y170516D01*
X266474Y170569D01*
X267132Y170727D01*
X267757Y170986D01*
X268334Y171339D01*
X268849Y171779D01*
X269289Y172294D01*
X269438Y172538D01*
Y169500D01*
X260938D01*
Y189695D01*
X260941Y189694D01*
X261223Y189717D01*
X261499Y189783D01*
X261761Y189891D01*
X262002Y190039D01*
X262218Y190223D01*
X262402Y190439D01*
X262550Y190680D01*
X262658Y190942D01*
X262724Y191218D01*
X262741Y191500D01*
X262724Y191782D01*
X262658Y192058D01*
X262550Y192320D01*
X262402Y192561D01*
X262218Y192777D01*
X262002Y192961D01*
X261761Y193109D01*
X261499Y193217D01*
X261223Y193283D01*
X260941Y193306D01*
X260938Y193305D01*
Y197087D01*
G37*
G36*
X269938Y243063D02*X270797Y243922D01*
X270833Y243953D01*
X270956Y244096D01*
X270956Y244097D01*
X270956Y244097D01*
X271020Y244202D01*
X271055Y244258D01*
Y244258D01*
X271055Y244258D01*
X271120Y244415D01*
X271127Y244432D01*
X271127Y244432D01*
X271127Y244432D01*
X271148Y244519D01*
X271171Y244616D01*
Y244616D01*
X271171Y244616D01*
X271186Y244804D01*
X271182Y244851D01*
Y251016D01*
X271666Y251500D01*
X278449D01*
X273987Y247038D01*
X273951Y247007D01*
X273828Y246864D01*
X273729Y246702D01*
X273657Y246528D01*
X273613Y246344D01*
X273598Y246156D01*
X273602Y246109D01*
Y226938D01*
X269938Y223274D01*
Y229695D01*
X269941Y229694D01*
X270223Y229717D01*
X270499Y229783D01*
X270761Y229891D01*
X271002Y230039D01*
X271218Y230223D01*
X271402Y230439D01*
X271550Y230680D01*
X271658Y230942D01*
X271724Y231218D01*
X271741Y231500D01*
X271724Y231782D01*
X271658Y232058D01*
X271550Y232320D01*
X271402Y232561D01*
X271218Y232777D01*
X271002Y232961D01*
X270761Y233109D01*
X270499Y233217D01*
X270223Y233283D01*
X269941Y233306D01*
X269938Y233305D01*
Y243063D01*
G37*
G36*
X260938Y234062D02*X269938Y243063D01*
Y233305D01*
X269659Y233283D01*
X269383Y233217D01*
X269121Y233109D01*
X268880Y232961D01*
X268664Y232777D01*
X268480Y232561D01*
X268332Y232320D01*
X268224Y232058D01*
X268158Y231782D01*
X268135Y231500D01*
X268158Y231218D01*
X268224Y230942D01*
X268332Y230680D01*
X268480Y230439D01*
X268664Y230223D01*
X268880Y230039D01*
X269121Y229891D01*
X269383Y229783D01*
X269659Y229717D01*
X269938Y229695D01*
Y223274D01*
X260938Y214274D01*
Y234062D01*
G37*
G36*
X255792Y180516D02*X255799Y180516D01*
X256474Y180569D01*
X257132Y180727D01*
X257757Y180986D01*
X258334Y181339D01*
X258849Y181779D01*
X259289Y182294D01*
X259642Y182871D01*
X259901Y183496D01*
X260059Y184154D01*
X260099Y184829D01*
X260059Y185504D01*
X259901Y186162D01*
X259642Y186787D01*
X259289Y187364D01*
X258849Y187879D01*
X258334Y188319D01*
X257757Y188672D01*
X257132Y188931D01*
X256474Y189089D01*
X255799Y189142D01*
X255792Y189142D01*
Y191941D01*
X260938Y197087D01*
Y193305D01*
X260659Y193283D01*
X260383Y193217D01*
X260121Y193109D01*
X259880Y192961D01*
X259664Y192777D01*
X259480Y192561D01*
X259332Y192320D01*
X259224Y192058D01*
X259158Y191782D01*
X259135Y191500D01*
X259158Y191218D01*
X259224Y190942D01*
X259332Y190680D01*
X259480Y190439D01*
X259664Y190223D01*
X259880Y190039D01*
X260121Y189891D01*
X260383Y189783D01*
X260659Y189717D01*
X260938Y189695D01*
Y169500D01*
X255792D01*
Y170516D01*
X255799Y170516D01*
X256474Y170569D01*
X257132Y170727D01*
X257757Y170986D01*
X258334Y171339D01*
X258849Y171779D01*
X259289Y172294D01*
X259642Y172871D01*
X259901Y173496D01*
X260059Y174154D01*
X260099Y174829D01*
X260059Y175504D01*
X259901Y176162D01*
X259642Y176787D01*
X259289Y177364D01*
X258849Y177879D01*
X258334Y178319D01*
X257757Y178672D01*
X257132Y178931D01*
X256474Y179089D01*
X255799Y179142D01*
X255792Y179142D01*
Y180516D01*
G37*
G36*
Y189142D02*X255124Y189089D01*
X254466Y188931D01*
X253841Y188672D01*
X253264Y188319D01*
X252749Y187879D01*
X252309Y187364D01*
X252114Y187045D01*
Y188263D01*
X255792Y191941D01*
Y189142D01*
G37*
G36*
X243938Y170946D02*X244466Y170727D01*
X245124Y170569D01*
X245799Y170516D01*
X246474Y170569D01*
X247132Y170727D01*
X247757Y170986D01*
X248334Y171339D01*
X248849Y171779D01*
X249289Y172294D01*
X249642Y172871D01*
X249901Y173496D01*
X250059Y174154D01*
X250099Y174829D01*
X250059Y175504D01*
X249901Y176162D01*
X249642Y176787D01*
X249289Y177364D01*
X248849Y177879D01*
X248334Y178319D01*
X247757Y178672D01*
X247504Y178777D01*
X248534D01*
X248581Y178773D01*
X248769Y178788D01*
X248769Y178788D01*
X248769Y178788D01*
X248895Y178818D01*
X248953Y178832D01*
X248953Y178832D01*
X248953Y178832D01*
X249061Y178877D01*
X249127Y178904D01*
X249127Y178904D01*
X249127Y178904D01*
X249231Y178968D01*
X249288Y179003D01*
X249288Y179003D01*
X249289Y179003D01*
X249432Y179126D01*
X249463Y179162D01*
X251729Y181427D01*
X251765Y181458D01*
X251887Y181600D01*
X251888Y181601D01*
X251888Y181601D01*
X251888Y181601D01*
X251931Y181671D01*
X251986Y181762D01*
X251986Y181762D01*
X251987Y181763D01*
X252017Y181837D01*
X252059Y181937D01*
X252059Y181937D01*
X252059Y181937D01*
X252079Y182020D01*
X252103Y182120D01*
X252103Y182121D01*
X252103Y182121D01*
X252103Y182122D01*
X252118Y182309D01*
X252114Y182356D01*
Y182613D01*
X252309Y182294D01*
X252749Y181779D01*
X253264Y181339D01*
X253841Y180986D01*
X254466Y180727D01*
X255124Y180569D01*
X255792Y180516D01*
Y179142D01*
X255124Y179089D01*
X254466Y178931D01*
X253841Y178672D01*
X253264Y178319D01*
X252749Y177879D01*
X252309Y177364D01*
X251956Y176787D01*
X251697Y176162D01*
X251539Y175504D01*
X251486Y174829D01*
X251539Y174154D01*
X251697Y173496D01*
X251956Y172871D01*
X252309Y172294D01*
X252749Y171779D01*
X253264Y171339D01*
X253841Y170986D01*
X254466Y170727D01*
X255124Y170569D01*
X255792Y170516D01*
Y169500D01*
X243938D01*
Y170946D01*
G37*
G36*
Y178777D02*X244094D01*
X243938Y178712D01*
Y178777D01*
G37*
G36*
X251938Y225845D02*X252176D01*
X252223Y225841D01*
X252411Y225856D01*
X252595Y225900D01*
X252769Y225972D01*
X252931Y226071D01*
X253074Y226194D01*
X253105Y226230D01*
X257627Y230751D01*
X257637Y230764D01*
X257659Y230783D01*
X260938Y234062D01*
Y214274D01*
X251938Y205274D01*
Y208695D01*
X251941Y208694D01*
X252223Y208717D01*
X252499Y208783D01*
X252761Y208891D01*
X253002Y209039D01*
X253218Y209223D01*
X253402Y209439D01*
X253550Y209680D01*
X253658Y209942D01*
X253724Y210218D01*
X253741Y210500D01*
X253724Y210782D01*
X253658Y211058D01*
X253550Y211320D01*
X253402Y211561D01*
X253218Y211777D01*
X253002Y211961D01*
X252761Y212109D01*
X252499Y212217D01*
X252223Y212283D01*
X251941Y212306D01*
X251938Y212305D01*
Y225845D01*
G37*
G36*
X243938D02*X251938D01*
Y212305D01*
X251659Y212283D01*
X251383Y212217D01*
X251121Y212109D01*
X250880Y211961D01*
X250664Y211777D01*
X250480Y211561D01*
X250332Y211320D01*
X250224Y211058D01*
X250158Y210782D01*
X250135Y210500D01*
X250158Y210218D01*
X250224Y209942D01*
X250332Y209680D01*
X250480Y209439D01*
X250664Y209223D01*
X250880Y209039D01*
X251121Y208891D01*
X251383Y208783D01*
X251659Y208717D01*
X251938Y208695D01*
Y205274D01*
X243938Y197274D01*
Y200195D01*
X243941Y200194D01*
X244223Y200217D01*
X244499Y200283D01*
X244761Y200391D01*
X245002Y200539D01*
X245218Y200723D01*
X245402Y200939D01*
X245550Y201180D01*
X245658Y201442D01*
X245724Y201718D01*
X245741Y202000D01*
X245724Y202282D01*
X245658Y202558D01*
X245550Y202820D01*
X245402Y203061D01*
X245218Y203277D01*
X245002Y203461D01*
X244761Y203609D01*
X244499Y203717D01*
X244223Y203783D01*
X243941Y203806D01*
X243938Y203805D01*
Y225845D01*
G37*
G36*
X215792Y180516D02*X215799Y180516D01*
X216474Y180569D01*
X217132Y180727D01*
X217674Y180951D01*
X219463Y179162D01*
X219494Y179126D01*
X219637Y179003D01*
X219637Y179003D01*
X219799Y178904D01*
X219973Y178832D01*
X220157Y178788D01*
X220345Y178773D01*
X220392Y178777D01*
X224094D01*
X223841Y178672D01*
X223264Y178319D01*
X222749Y177879D01*
X222309Y177364D01*
X221956Y176787D01*
X221697Y176162D01*
X221539Y175504D01*
X221486Y174829D01*
X221539Y174154D01*
X221697Y173496D01*
X221956Y172871D01*
X222309Y172294D01*
X222749Y171779D01*
X223264Y171339D01*
X223841Y170986D01*
X224466Y170727D01*
X225124Y170569D01*
X225799Y170516D01*
X226474Y170569D01*
X227132Y170727D01*
X227757Y170986D01*
X228334Y171339D01*
X228849Y171779D01*
X229289Y172294D01*
X229642Y172871D01*
X229901Y173496D01*
X230059Y174154D01*
X230099Y174829D01*
X230059Y175504D01*
X229901Y176162D01*
X229642Y176787D01*
X229289Y177364D01*
X228849Y177879D01*
X228334Y178319D01*
X227757Y178672D01*
X227504Y178777D01*
X233567D01*
X233567Y178777D01*
X234094D01*
X233841Y178672D01*
X233264Y178319D01*
X232749Y177879D01*
X232309Y177364D01*
X231956Y176787D01*
X231697Y176162D01*
X231539Y175504D01*
X231486Y174829D01*
X231539Y174154D01*
X231697Y173496D01*
X231956Y172871D01*
X232309Y172294D01*
X232749Y171779D01*
X233264Y171339D01*
X233841Y170986D01*
X234466Y170727D01*
X235124Y170569D01*
X235799Y170516D01*
X236474Y170569D01*
X237132Y170727D01*
X237757Y170986D01*
X238334Y171339D01*
X238849Y171779D01*
X239289Y172294D01*
X239642Y172871D01*
X239901Y173496D01*
X240059Y174154D01*
X240099Y174829D01*
X240059Y175504D01*
X239901Y176162D01*
X239642Y176787D01*
X239289Y177364D01*
X238849Y177879D01*
X238334Y178319D01*
X237757Y178672D01*
X237504Y178777D01*
X243938D01*
Y178712D01*
X243841Y178672D01*
X243264Y178319D01*
X242749Y177879D01*
X242309Y177364D01*
X241956Y176787D01*
X241697Y176162D01*
X241539Y175504D01*
X241486Y174829D01*
X241539Y174154D01*
X241697Y173496D01*
X241956Y172871D01*
X242309Y172294D01*
X242749Y171779D01*
X243264Y171339D01*
X243841Y170986D01*
X243938Y170946D01*
Y169500D01*
X215792D01*
Y170516D01*
X215799Y170516D01*
X216474Y170569D01*
X217132Y170727D01*
X217757Y170986D01*
X218334Y171339D01*
X218849Y171779D01*
X219289Y172294D01*
X219642Y172871D01*
X219901Y173496D01*
X220059Y174154D01*
X220099Y174829D01*
X220059Y175504D01*
X219901Y176162D01*
X219642Y176787D01*
X219289Y177364D01*
X218849Y177879D01*
X218334Y178319D01*
X217757Y178672D01*
X217132Y178931D01*
X216474Y179089D01*
X215799Y179142D01*
X215792Y179142D01*
Y180516D01*
G37*
G36*
X235792Y223699D02*X237938Y225845D01*
X243938D01*
Y203805D01*
X243659Y203783D01*
X243383Y203717D01*
X243121Y203609D01*
X242880Y203461D01*
X242664Y203277D01*
X242480Y203061D01*
X242332Y202820D01*
X242224Y202558D01*
X242158Y202282D01*
X242135Y202000D01*
X242158Y201718D01*
X242224Y201442D01*
X242332Y201180D01*
X242480Y200939D01*
X242664Y200723D01*
X242880Y200539D01*
X243121Y200391D01*
X243383Y200283D01*
X243659Y200217D01*
X243938Y200195D01*
Y197274D01*
X238686Y192022D01*
X235792D01*
Y193016D01*
X235799Y193016D01*
X236474Y193069D01*
X237132Y193227D01*
X237757Y193486D01*
X238334Y193839D01*
X238849Y194279D01*
X239289Y194794D01*
X239642Y195371D01*
X239901Y195996D01*
X240059Y196654D01*
X240099Y197329D01*
X240059Y198004D01*
X239901Y198662D01*
X239642Y199287D01*
X239289Y199864D01*
X238849Y200379D01*
X238334Y200819D01*
X237757Y201172D01*
X237132Y201431D01*
X236474Y201589D01*
X235799Y201642D01*
X235792Y201642D01*
Y223699D01*
G37*
G36*
X225792Y213699D02*X235792Y223699D01*
Y201642D01*
X235124Y201589D01*
X234466Y201431D01*
X233841Y201172D01*
X233264Y200819D01*
X232749Y200379D01*
X232309Y199864D01*
X231956Y199287D01*
X231697Y198662D01*
X231539Y198004D01*
X231486Y197329D01*
X231539Y196654D01*
X231697Y195996D01*
X231956Y195371D01*
X232309Y194794D01*
X232749Y194279D01*
X233264Y193839D01*
X233841Y193486D01*
X234466Y193227D01*
X235124Y193069D01*
X235792Y193016D01*
Y192022D01*
X231887D01*
X231840Y192026D01*
X231652Y192011D01*
X231468Y191967D01*
X231294Y191895D01*
X231132Y191796D01*
X231132Y191796D01*
X230989Y191673D01*
X230958Y191637D01*
X227903Y188583D01*
X227757Y188672D01*
X227132Y188931D01*
X226474Y189089D01*
X225799Y189142D01*
X225792Y189142D01*
Y193016D01*
X225799Y193016D01*
X226474Y193069D01*
X227132Y193227D01*
X227757Y193486D01*
X228334Y193839D01*
X228849Y194279D01*
X229289Y194794D01*
X229642Y195371D01*
X229901Y195996D01*
X230059Y196654D01*
X230099Y197329D01*
X230059Y198004D01*
X229901Y198662D01*
X229642Y199287D01*
X229289Y199864D01*
X228849Y200379D01*
X228334Y200819D01*
X227757Y201172D01*
X227132Y201431D01*
X226474Y201589D01*
X225799Y201642D01*
X225792Y201642D01*
Y213699D01*
G37*
G36*
X218349Y206800D02*X218396Y206796D01*
X218584Y206811D01*
X218584Y206811D01*
X218768Y206855D01*
X218942Y206927D01*
X219104Y207026D01*
X219247Y207149D01*
X219278Y207185D01*
X225792Y213699D01*
Y201642D01*
X225124Y201589D01*
X224466Y201431D01*
X223841Y201172D01*
X223264Y200819D01*
X222749Y200379D01*
X222309Y199864D01*
X221956Y199287D01*
X221697Y198662D01*
X221539Y198004D01*
X221486Y197329D01*
X221539Y196654D01*
X221697Y195996D01*
X221956Y195371D01*
X222309Y194794D01*
X222749Y194279D01*
X223264Y193839D01*
X223841Y193486D01*
X224466Y193227D01*
X225124Y193069D01*
X225792Y193016D01*
Y189142D01*
X225124Y189089D01*
X224466Y188931D01*
X223841Y188672D01*
X223264Y188319D01*
X222749Y187879D01*
X222309Y187364D01*
X221956Y186787D01*
X221697Y186162D01*
X221539Y185504D01*
X221486Y184829D01*
X221539Y184154D01*
X221697Y183496D01*
X221956Y182871D01*
X222309Y182294D01*
X222749Y181779D01*
X223264Y181339D01*
X223529Y181177D01*
X220842D01*
X219454Y182565D01*
X219642Y182871D01*
X219901Y183496D01*
X220059Y184154D01*
X220099Y184829D01*
X220059Y185504D01*
X219901Y186162D01*
X219642Y186787D01*
X219289Y187364D01*
X218849Y187879D01*
X218334Y188319D01*
X217757Y188672D01*
X217132Y188931D01*
X216474Y189089D01*
X215799Y189142D01*
X215792Y189142D01*
Y193016D01*
X215799Y193016D01*
X216474Y193069D01*
X217132Y193227D01*
X217757Y193486D01*
X218334Y193839D01*
X218849Y194279D01*
X219289Y194794D01*
X219642Y195371D01*
X219901Y195996D01*
X220059Y196654D01*
X220099Y197329D01*
X220059Y198004D01*
X219901Y198662D01*
X219642Y199287D01*
X219289Y199864D01*
X218849Y200379D01*
X218334Y200819D01*
X217757Y201172D01*
X217132Y201431D01*
X216474Y201589D01*
X215799Y201642D01*
X215792Y201642D01*
Y206800D01*
X218349D01*
G37*
G36*
X215792Y189142D02*X215124Y189089D01*
X214466Y188931D01*
X213841Y188672D01*
X213264Y188319D01*
X212749Y187879D01*
X212309Y187364D01*
X211956Y186787D01*
X211697Y186162D01*
X211539Y185504D01*
X211486Y184829D01*
X211539Y184154D01*
X211697Y183496D01*
X211956Y182871D01*
X212309Y182294D01*
X212749Y181779D01*
X213264Y181339D01*
X213841Y180986D01*
X214466Y180727D01*
X215124Y180569D01*
X215792Y180516D01*
Y179142D01*
X215124Y179089D01*
X214466Y178931D01*
X213841Y178672D01*
X213264Y178319D01*
X212749Y177879D01*
X212309Y177364D01*
X211956Y176787D01*
X211697Y176162D01*
X211539Y175504D01*
X211486Y174829D01*
X211539Y174154D01*
X211697Y173496D01*
X211956Y172871D01*
X212309Y172294D01*
X212749Y171779D01*
X213264Y171339D01*
X213841Y170986D01*
X214466Y170727D01*
X215124Y170569D01*
X215792Y170516D01*
Y169500D01*
X211441D01*
Y206800D01*
X215792D01*
Y201642D01*
X215124Y201589D01*
X214466Y201431D01*
X213841Y201172D01*
X213264Y200819D01*
X212749Y200379D01*
X212309Y199864D01*
X211956Y199287D01*
X211697Y198662D01*
X211539Y198004D01*
X211486Y197329D01*
X211539Y196654D01*
X211697Y195996D01*
X211956Y195371D01*
X212309Y194794D01*
X212749Y194279D01*
X213264Y193839D01*
X213841Y193486D01*
X214466Y193227D01*
X215124Y193069D01*
X215792Y193016D01*
Y189142D01*
G37*
G36*
X267324Y200573D02*X271324D01*
Y196573D01*
X267324D01*
Y200573D01*
G37*
G36*
X271324D01*
Y196573D01*
X267324D01*
Y200573D01*
G37*
G36*
X258824Y193573D02*X262824D01*
Y189573D01*
X258824D01*
Y193573D01*
G37*
G36*
X241824Y204073D02*X245824D01*
Y200073D01*
X241824D01*
Y204073D01*
G37*
G36*
X249824Y212573D02*X253824D01*
Y208573D01*
X249824D01*
Y212573D01*
G37*
G36*
X267824Y233573D02*X271824D01*
Y229573D01*
X267824D01*
Y233573D01*
G37*
G36*
X159441Y233000D02*X168441D01*
Y219000D01*
X171941Y215500D01*
Y197500D01*
X160941D01*
Y208500D01*
X162441Y210000D01*
Y218000D01*
X159441Y221000D01*
Y233000D01*
G37*
G36*
X182941Y321000D02*X199941D01*
Y302500D01*
X182941D01*
Y321000D01*
G37*
G36*
X80441Y248000D02*X109941D01*
Y266500D01*
X121941Y278500D01*
X165941D01*
Y237000D01*
X80441D01*
Y248000D01*
G37*
G36*
X74941Y235000D02*X90441D01*
Y225000D01*
X74941D01*
Y235000D01*
G37*
G36*
X100441D02*X115941D01*
Y225000D01*
X100441D01*
Y235000D01*
G37*
G36*
X112441D02*X127941D01*
Y225000D01*
X112441D01*
Y235000D01*
G37*
G36*
X117441D02*X132941Y234500D01*
Y225000D01*
X117441D01*
Y235000D01*
G37*
G36*
Y232500D02*X132941D01*
Y222500D01*
X117441D01*
Y232500D01*
G37*
G36*
X114941Y223000D02*X130441D01*
Y213000D01*
X114941D01*
Y223000D01*
G37*
G36*
X116441Y224000D02*X131941D01*
Y214000D01*
X116441D01*
Y224000D01*
G37*
G36*
X99941D02*X115441D01*
Y214000D01*
X99941D01*
Y224000D01*
G37*
G36*
X116441Y217500D02*X131941D01*
Y207500D01*
X116441D01*
Y217500D01*
G37*
G36*
X85784Y194500D02*X101441D01*
Y155500D01*
X85784D01*
Y169749D01*
X85799Y169748D01*
X87376Y169872D01*
X88914Y170241D01*
X90376Y170847D01*
X91724Y171673D01*
X92927Y172701D01*
X93955Y173904D01*
X94781Y175252D01*
X95387Y176714D01*
X95756Y178252D01*
X95849Y179829D01*
X95756Y181406D01*
X95387Y182944D01*
X94781Y184406D01*
X93955Y185754D01*
X92927Y186957D01*
X91724Y187985D01*
X90376Y188811D01*
X88914Y189417D01*
X87376Y189786D01*
X85799Y189910D01*
X85784Y189909D01*
Y194500D01*
G37*
G36*
X69941D02*X85784D01*
Y189909D01*
X84222Y189786D01*
X82684Y189417D01*
X81222Y188811D01*
X79874Y187985D01*
X78671Y186957D01*
X77643Y185754D01*
X76817Y184406D01*
X76211Y182944D01*
X75842Y181406D01*
X75718Y179829D01*
X75842Y178252D01*
X76211Y176714D01*
X76817Y175252D01*
X77643Y173904D01*
X78671Y172701D01*
X79874Y171673D01*
X81222Y170847D01*
X82684Y170241D01*
X84222Y169872D01*
X85784Y169749D01*
Y155500D01*
X69941D01*
Y194500D01*
G37*
G36*
X102941Y228002D02*X113042Y228010D01*
X113195Y228047D01*
X113340Y228107D01*
X113475Y228189D01*
X113571Y228272D01*
X113667Y228189D01*
X113802Y228107D01*
X113947Y228047D01*
X114100Y228010D01*
X114257Y228001D01*
X125042Y228010D01*
X125195Y228047D01*
X125340Y228107D01*
X125475Y228189D01*
X125594Y228292D01*
X125697Y228411D01*
X125779Y228546D01*
X125839Y228691D01*
X125876Y228844D01*
X125885Y229001D01*
X125876Y234276D01*
X125839Y234429D01*
X125779Y234574D01*
X125697Y234709D01*
X125594Y234828D01*
X125475Y234931D01*
X125458Y234941D01*
X132941Y235000D01*
X132922Y233953D01*
X132850Y233971D01*
X132693Y233980D01*
X129032Y233971D01*
X128879Y233934D01*
X128734Y233874D01*
X128599Y233792D01*
X128480Y233689D01*
X128377Y233570D01*
X128295Y233435D01*
X128235Y233290D01*
X128198Y233137D01*
X128189Y232980D01*
X128198Y223020D01*
X128203Y223000D01*
Y219972D01*
X128165Y219928D01*
X128083Y219793D01*
X128023Y219648D01*
X127986Y219495D01*
X127977Y219338D01*
X127986Y215245D01*
X128023Y215092D01*
X128083Y214947D01*
X128165Y214812D01*
X128203Y214768D01*
Y213972D01*
X128165Y213928D01*
X128083Y213793D01*
X128023Y213648D01*
X127986Y213495D01*
X127977Y213338D01*
X127986Y209245D01*
X128023Y209092D01*
X128083Y208947D01*
X128165Y208812D01*
X128268Y208693D01*
X128387Y208590D01*
X128522Y208508D01*
X128667Y208448D01*
X128820Y208411D01*
X128977Y208402D01*
X132086Y208411D01*
X132239Y208448D01*
X132384Y208508D01*
X132460Y208555D01*
X132441Y207500D01*
X116441D01*
X102941Y194000D01*
Y202250D01*
X104441D01*
X104794Y202271D01*
X105138Y202354D01*
X105466Y202489D01*
X105768Y202674D01*
X106037Y202904D01*
X106267Y203173D01*
X106452Y203475D01*
X106587Y203803D01*
X106670Y204147D01*
X106698Y204500D01*
X106670Y204853D01*
X106587Y205197D01*
X106452Y205525D01*
X106267Y205827D01*
X106037Y206096D01*
X105768Y206326D01*
X105466Y206511D01*
X105138Y206646D01*
X104794Y206729D01*
X104441Y206750D01*
X102941D01*
Y208969D01*
X105066Y208974D01*
X105219Y209011D01*
X105364Y209071D01*
X105499Y209153D01*
X105618Y209256D01*
X105721Y209375D01*
X105803Y209510D01*
X105863Y209655D01*
X105900Y209808D01*
X105909Y209965D01*
X105900Y213074D01*
X105863Y213227D01*
X105803Y213372D01*
X105721Y213507D01*
X105618Y213626D01*
X105499Y213729D01*
X105364Y213811D01*
X105219Y213871D01*
X105066Y213908D01*
X104909Y213917D01*
X102941Y213913D01*
Y214087D01*
X105066Y214092D01*
X105219Y214129D01*
X105364Y214189D01*
X105499Y214271D01*
X105618Y214374D01*
X105721Y214493D01*
X105803Y214628D01*
X105863Y214773D01*
X105900Y214926D01*
X105909Y215083D01*
X105900Y218192D01*
X105863Y218345D01*
X105803Y218490D01*
X105721Y218625D01*
X105618Y218744D01*
X105499Y218847D01*
X105364Y218929D01*
X105219Y218989D01*
X105066Y219026D01*
X104909Y219035D01*
X102941Y219031D01*
Y228002D01*
G37*
G36*
Y206750D02*X99884D01*
X99884Y207173D01*
X99847Y207326D01*
X99787Y207471D01*
X99705Y207606D01*
X99602Y207725D01*
X99483Y207828D01*
X99348Y207910D01*
X99203Y207970D01*
X99078Y208000D01*
X99203Y208030D01*
X99348Y208090D01*
X99483Y208172D01*
X99602Y208275D01*
X99705Y208394D01*
X99787Y208529D01*
X99847Y208674D01*
X99884Y208827D01*
X99893Y208984D01*
X99892Y209293D01*
X100232D01*
X100264Y209256D01*
X100383Y209153D01*
X100518Y209071D01*
X100663Y209011D01*
X100816Y208974D01*
X100973Y208965D01*
X102941Y208969D01*
Y206750D01*
G37*
G36*
X85434Y225236D02*X85441Y225235D01*
X86186Y225294D01*
X86913Y225469D01*
X87604Y225755D01*
X88242Y226145D01*
X88810Y226631D01*
X89296Y227199D01*
X89686Y227837D01*
X89972Y228528D01*
X90147Y229255D01*
X90191Y230000D01*
X90147Y230745D01*
X89972Y231472D01*
X89686Y232163D01*
X89296Y232801D01*
X88810Y233369D01*
X88242Y233855D01*
X87604Y234245D01*
X86913Y234531D01*
X86497Y234631D01*
X101481Y234750D01*
X101445Y234709D01*
X101363Y234574D01*
X101303Y234429D01*
X101266Y234276D01*
X101257Y234119D01*
X101266Y228844D01*
X101303Y228691D01*
X101363Y228546D01*
X101445Y228411D01*
X101548Y228292D01*
X101667Y228189D01*
X101802Y228107D01*
X101947Y228047D01*
X102100Y228010D01*
X102257Y228001D01*
X102941Y228002D01*
Y219031D01*
X100816Y219026D01*
X100663Y218989D01*
X100518Y218929D01*
X100383Y218847D01*
X100264Y218744D01*
X100161Y218625D01*
X100079Y218490D01*
X100019Y218345D01*
X99982Y218192D01*
X99973Y218035D01*
X99982Y214926D01*
X100019Y214773D01*
X100079Y214628D01*
X100161Y214493D01*
X100264Y214374D01*
X100383Y214271D01*
X100518Y214189D01*
X100663Y214129D01*
X100816Y214092D01*
X100973Y214083D01*
X102941Y214087D01*
Y213913D01*
X100816Y213908D01*
X100663Y213871D01*
X100518Y213811D01*
X100489Y213793D01*
X99885D01*
X99884Y214259D01*
X99847Y214412D01*
X99787Y214557D01*
X99705Y214692D01*
X99602Y214811D01*
X99483Y214914D01*
X99348Y214996D01*
X99203Y215056D01*
X99050Y215093D01*
X98893Y215102D01*
X92832Y215093D01*
X92679Y215056D01*
X92534Y214996D01*
X92399Y214914D01*
X92280Y214811D01*
X92177Y214692D01*
X92095Y214557D01*
X92035Y214412D01*
X91998Y214259D01*
X91989Y214102D01*
X91998Y208827D01*
X92035Y208674D01*
X92095Y208529D01*
X92177Y208394D01*
X92280Y208275D01*
X92399Y208172D01*
X92534Y208090D01*
X92679Y208030D01*
X92804Y208000D01*
X92679Y207970D01*
X92534Y207910D01*
X92399Y207828D01*
X92280Y207725D01*
X92177Y207606D01*
X92095Y207471D01*
X92035Y207326D01*
X91998Y207173D01*
X91989Y207016D01*
X91998Y201741D01*
X92035Y201588D01*
X92095Y201443D01*
X92177Y201308D01*
X92280Y201189D01*
X92399Y201086D01*
X92534Y201004D01*
X92679Y200944D01*
X92832Y200907D01*
X92989Y200898D01*
X99050Y200907D01*
X99203Y200944D01*
X99348Y201004D01*
X99483Y201086D01*
X99602Y201189D01*
X99705Y201308D01*
X99787Y201443D01*
X99847Y201588D01*
X99884Y201741D01*
X99893Y201898D01*
X99892Y202250D01*
X102941D01*
Y194000D01*
X101941Y193000D01*
Y192500D01*
X85434D01*
Y215236D01*
X85441Y215235D01*
X86186Y215294D01*
X86913Y215469D01*
X87604Y215755D01*
X88242Y216145D01*
X88810Y216631D01*
X89296Y217199D01*
X89686Y217837D01*
X89972Y218528D01*
X90147Y219255D01*
X90191Y220000D01*
X90147Y220745D01*
X89972Y221472D01*
X89686Y222163D01*
X89296Y222801D01*
X88810Y223369D01*
X88242Y223855D01*
X87604Y224245D01*
X86913Y224531D01*
X86186Y224706D01*
X85441Y224765D01*
X85434Y224764D01*
Y225236D01*
G37*
G36*
X69941Y234500D02*X84313Y234614D01*
X83969Y234531D01*
X83278Y234245D01*
X82640Y233855D01*
X82072Y233369D01*
X81586Y232801D01*
X81196Y232163D01*
X80910Y231472D01*
X80735Y230745D01*
X80676Y230000D01*
X80735Y229255D01*
X80910Y228528D01*
X81196Y227837D01*
X81586Y227199D01*
X82072Y226631D01*
X82640Y226145D01*
X83278Y225755D01*
X83969Y225469D01*
X84696Y225294D01*
X85434Y225236D01*
Y224764D01*
X84696Y224706D01*
X83969Y224531D01*
X83278Y224245D01*
X82640Y223855D01*
X82072Y223369D01*
X81586Y222801D01*
X81196Y222163D01*
X80910Y221472D01*
X80735Y220745D01*
X80676Y220000D01*
X80735Y219255D01*
X80910Y218528D01*
X81196Y217837D01*
X81586Y217199D01*
X82072Y216631D01*
X82640Y216145D01*
X83278Y215755D01*
X83969Y215469D01*
X84696Y215294D01*
X85434Y215236D01*
Y192500D01*
X69941D01*
Y234500D01*
G37*
G54D176*X371215Y358262D02*X371157D01*
X387623D02*X371287D01*
X379941Y355000D02*X370441D01*
X384162Y344917D02*Y350779D01*
X379044Y340311D02*Y336000D01*
X381603Y342614D02*Y338000D01*
X384162Y350779D02*X379941Y355000D01*
X386720Y353721D02*X385941Y354500D01*
X381603Y338000D02*X391838D01*
X376485Y347145D02*X372441Y351189D01*
X376485Y342614D02*Y347145D01*
X389279Y342614D02*Y355913D01*
X386720Y342614D02*Y353721D01*
X458441Y375000D02*X456641D01*
Y373200D01*
X448750D01*
Y349250D01*
X458441Y345000D02*X456641D01*
Y336000D01*
X448750Y330300D02*X376485D01*
X448750D02*Y322775D01*
X376485Y330300D02*Y325219D01*
X456641Y336000D02*X379044D01*
X402250Y323839D02*X391838D01*
X458441Y316800D02*Y315000D01*
Y316800D02*X458250D01*
D03*
X448750D01*
Y328750D02*Y316800D01*
X391838Y323839D02*Y321689D01*
X394397Y319386D02*Y315434D01*
X379044Y319386D02*Y324000D01*
X379441Y312000D02*X370441D01*
X381603Y314162D02*X379441Y312000D01*
X381044Y326000D02*X387441D01*
X379044Y324000D02*X381044Y326000D01*
X389279Y319386D02*Y324162D01*
X387441Y326000D02*X389279Y324162D01*
X381603Y321689D02*Y314162D01*
X376485Y328750D02*Y321689D01*
X402250Y323839D02*Y317434D01*
X395831Y314000D02*X398441D01*
G54D177*X387172Y312000D02*X386720Y312452D01*
Y319386D01*
G54D176*X448750Y349250D02*X394397D01*
X391838Y338000D02*Y353397D01*
X394397Y349250D02*Y344917D01*
X393441Y365941D02*X396441D01*
X397941Y367441D01*
X397441Y373000D02*X395441D01*
X393441Y371000D01*
X389279Y356605D02*X387623Y358262D01*
X389279Y356005D02*Y356605D01*
X391838Y353397D02*X393441Y355000D01*
G54D177*Y358500D01*
X385941Y366000D02*X393441Y358500D01*
X306581Y273940D02*X307716Y275075D01*
X305390Y270003D02*X308872Y266522D01*
X297976Y273940D02*X306581D01*
X297976Y271971D02*X308992D01*
X297976Y270003D02*X305390D01*
X297976Y287719D02*X295178D01*
X297976Y279845D02*X296286D01*
X294441Y278000D01*
X295259Y287719D02*X293902Y286362D01*
Y282263D01*
X294482Y268095D02*Y265543D01*
X297976Y266066D02*X301042Y263000D01*
X318441D01*
X294482Y265543D02*X298803Y261222D01*
X317755D01*
X313869Y257572D02*X299592D01*
X294164Y263000D01*
G54D176*X295489Y226192D02*X312917D01*
X284130Y237551D02*X295489Y226192D01*
X296103Y228124D02*X312620D01*
X286099Y238128D02*X296103Y228124D01*
X284130Y260093D02*Y237551D01*
X286099Y260093D02*Y238128D01*
G54D177*X280193Y251547D02*Y258394D01*
X282162Y260093D02*Y248149D01*
X279206Y245193D02*Y230234D01*
X292004Y260093D02*X294441D01*
X274802Y246156D02*X280193Y251547D01*
X282162Y248149D02*X279206Y245193D01*
X296748Y252388D02*Y253650D01*
Y247270D02*Y245000D01*
X296662Y244914D01*
X290441D01*
X295937D02*Y243628D01*
X294348Y260093D02*X296748Y257693D01*
Y253693D01*
X290048Y252000D02*Y258394D01*
X289441Y263000D02*X288067Y261626D01*
Y258394D01*
X279890Y282687D02*X294482Y268095D01*
X294164Y263000D02*X289441D01*
X318441D02*X332441Y249000D01*
X317755Y261222D02*X327407Y251570D01*
Y246410D01*
X330486Y243331D01*
X313869Y257572D02*X322441Y249000D01*
X262477Y260093D02*Y253536D01*
X264445Y260093D02*Y251504D01*
X266414Y260093D02*X266441Y249500D01*
X274802Y246156D02*Y226441D01*
X256810Y231631D02*X269982Y244804D01*
X268382Y260093D02*Y246941D01*
X274288Y260093D02*Y255819D01*
X269982Y251513D01*
Y244804D01*
X257443Y270002D02*X261210Y266235D01*
X263795D01*
X266978Y269418D01*
X288066Y300735D02*X289428Y299372D01*
X286098Y300431D02*X288774Y297755D01*
X288066Y304963D02*Y300735D01*
X286098Y304963D02*Y300440D01*
Y300614D02*Y300440D01*
Y300475D02*Y300431D01*
X278224Y304963D02*Y298517D01*
X276255Y304963D02*Y307300D01*
X277174Y308219D01*
X266413Y304963D02*Y296594D01*
X264444Y304963D02*Y298992D01*
Y299125D02*X263240Y297921D01*
X262476Y304963D02*X260740Y303227D01*
Y293329D01*
X258841Y290090D02*Y301933D01*
X260740Y293329D02*X262240Y291829D01*
X262740D01*
X253106Y295592D02*X254740Y297226D01*
Y298329D01*
X263240Y297921D02*Y295329D01*
X270351Y295943D02*Y297933D01*
X272319Y295908D02*Y297672D01*
X270351Y297933D02*X269653Y298631D01*
X272319Y297672D02*X273229Y298582D01*
X253106Y270002D02*X257334D01*
X261609Y279844D02*X264034Y282269D01*
X266978Y286653D02*X262278D01*
X258841Y290090D01*
X274287Y304963D02*Y317689D01*
X270726Y321249D01*
X275887Y312972D02*Y318352D01*
X270350Y304963D02*Y309150D01*
X272318Y304963D02*Y315385D01*
X280192Y308667D02*X275887Y312972D01*
X278941Y328992D02*Y313000D01*
X282161Y309780D01*
Y303264D01*
X272318Y315385D02*X269965Y317738D01*
X278941Y328008D02*Y337500D01*
X280119Y338678D01*
X285430D01*
X277449Y342559D02*Y347500D01*
G54D178*X260839Y342992D02*X260347Y342500D01*
X265957Y349992D02*Y342500D01*
Y349992D02*X266449Y349500D01*
X270441D01*
X265957Y342500D02*X266000Y342457D01*
Y335500D01*
X265957Y342008D02*X266449Y342500D01*
X270441D01*
X266000Y335992D02*X266008Y336000D01*
X270441D01*
X266000Y356992D02*Y349500D01*
Y356992D02*X270441D01*
G54D177*X270708Y321267D02*X264708D01*
X271118Y323121D02*X261394D01*
X260568Y322295D01*
X264708Y321267D02*X263441Y320000D01*
X260568Y322295D02*Y316997D01*
X269965Y317738D02*X265196D01*
X260348Y312890D01*
X270350Y309150D02*X269500Y310000D01*
Y310492D02*X268941Y311051D01*
Y314000D01*
X268381Y304963D02*Y305794D01*
X267156Y307019D01*
X267255Y306920D02*X264382Y309793D01*
Y310000D01*
Y310492D02*X261502Y307612D01*
Y307367D01*
X260348Y312890D02*X257209D01*
X254546Y315552D01*
Y323347D01*
X303365Y324772D02*Y330000D01*
X296453Y340007D02*X302941D01*
X339837Y341827D02*X349316D01*
X358050Y350561D01*
X353390Y339521D02*X360933Y347064D01*
Y352336D01*
X358050Y350561D02*Y353251D01*
X363061Y358262D01*
X360933Y352336D02*X363598Y355000D01*
X371157Y358262D02*X363061D01*
X370441Y355000D02*X363598D01*
X307462Y300156D02*X312157D01*
X304176Y305229D02*X369319D01*
X303559Y307000D02*X376441D01*
X302670Y312000D02*X370441D01*
X297976Y283782D02*X333399D01*
X297976Y281814D02*X333104D01*
X297976Y277877D02*X334778D01*
X297976Y285751D02*X333942D01*
X297976Y289688D02*X332396D01*
X332251Y291656D02*X332761D01*
X371602Y260228D02*Y245343D01*
X377944Y239000D01*
X358441Y252000D02*Y235000D01*
X363241Y256452D02*Y255546D01*
X364841Y257243D02*Y256457D01*
X366441Y257976D02*Y256869D01*
X358441Y235000D02*X356441Y233000D01*
X312620Y228124D02*X336441D01*
X312917Y226192D02*X336441D01*
Y228124D02*X338441Y230124D01*
X330486Y243331D02*X336772D01*
X342441Y249000D01*
X398441Y291000D02*X389279Y300162D01*
Y321689D02*Y300162D01*
X369319Y305229D02*X401986Y272561D01*
X387182Y304280D02*X384902Y302000D01*
X381441D01*
X387172Y304270D02*Y312000D01*
X333399Y283782D02*X361641Y255540D01*
X333104Y281814D02*X360041Y254877D01*
X334778Y277877D02*X358441Y254214D01*
Y252000D01*
X333942Y285751D02*X363241Y256452D01*
X332396Y289688D02*X364841Y257243D01*
X332761Y291656D02*X366441Y257976D01*
X396441Y235000D02*X395441D01*
X391838Y231397D01*
X401986Y245532D02*X391461Y235007D01*
X388207Y247280D02*Y242981D01*
X392188Y239000D01*
X401986Y272561D02*Y253764D01*
Y253878D02*Y245532D01*
X291991Y307772D02*X298420D01*
X295931Y299372D02*X297971Y301411D01*
X296702Y297755D02*X304176Y305229D01*
X292003Y304963D02*X296779D01*
X297938Y301378D02*X303559Y307000D01*
X289428Y299372D02*X295931D01*
X288774Y297755D02*X296702D01*
X297976Y295593D02*X302689D01*
X304230Y299288D02*X305098Y300156D01*
X303365Y319654D02*X298786D01*
X296453Y317321D01*
X294941Y310500D02*X296453Y312012D01*
Y317321D01*
X298441Y307772D02*X302670Y312000D01*
X305098Y300156D02*X307954D01*
X297976Y291656D02*X332557D01*
X302689Y295593D02*X304230Y297134D01*
Y299288D01*
X305357Y295038D02*X303944Y293625D01*
X299675D01*
X305357Y295038D02*X312122D01*
X290035Y305815D02*X291991Y307772D01*
X290035Y304963D02*Y305815D01*
X284129Y304963D02*Y309188D01*
X285441Y310500D01*
X294941D01*
X285430Y318650D02*Y325000D01*
X275887Y318352D02*X271118Y323121D01*
X280192Y308667D02*Y300309D01*
X281692Y298809D01*
Y293836D01*
X275876Y288020D01*
X294441Y278000D02*X288441D01*
X281441Y285000D01*
X279441D01*
X275876Y288020D02*Y284637D01*
X277826Y282687D01*
X279890D01*
X264034Y282269D02*Y282931D01*
X266978Y269418D02*Y286653D01*
G54D176*X387425Y186369D02*X385730Y184673D01*
G54D177*X379833Y188086D02*X383246Y184673D01*
X385730D01*
G54D176*X387441Y189962D02*Y186369D01*
X387479Y190000D02*X387441Y189962D01*
X386720Y190759D02*X387479Y190000D01*
X386720Y203689D02*Y190759D01*
X378441Y195000D02*X376441D01*
X381603Y198162D02*X378441Y195000D01*
X381603Y203689D02*Y198162D01*
G54D177*X379833Y192610D02*Y188086D01*
G54D176*X384162Y201386D02*Y188000D01*
G54D177*X366441Y203078D02*X374519Y195000D01*
X364841Y202092D02*X374323Y192610D01*
X363241Y201429D02*X377441Y187229D01*
X374519Y195000D02*X376510D01*
X374323Y192610D02*X379833D01*
G54D176*X387441Y186369D02*X387425D01*
X387441D03*
X391810Y186000D02*X394810Y183000D01*
X389279Y184162D02*X389441Y184000D01*
X389279Y187162D02*Y184162D01*
G54D177*X389441Y184000D02*X398441Y175000D01*
G54D176*X399882Y188441D02*X395441D01*
X400441Y189000D02*X399882Y188441D01*
X400000Y193559D02*X395441D01*
G54D177*X377441Y187229D02*Y168118D01*
Y166395D02*X386151Y157685D01*
X377441Y166395D02*Y168000D01*
X369127Y171314D03*
Y169388D02*Y193214D01*
Y169388D02*X376337Y162178D01*
X377347D01*
G54D176*X400441Y194000D02*X400000Y193559D01*
X391838Y199083D02*Y195535D01*
G54D177*X361641Y200700D02*X369127Y193214D01*
G54D176*X458250Y196800D02*X412250D01*
X394397Y229250D02*Y226917D01*
X456641Y225000D02*Y218000D01*
X458441Y196800D02*Y195000D01*
Y196800D02*X458250D01*
D03*
X456641Y218000D02*X379044D01*
Y206000D02*X389279D01*
X379044Y201386D02*Y206000D01*
X389279Y201386D02*Y206000D01*
G54D177*X358941Y208500D02*X360041Y209600D01*
G54D176*X391838Y224614D02*Y220000D01*
G54D177*X336441Y226192D02*X338441Y224192D01*
G54D176*X391810Y195575D02*Y186000D01*
X391838Y195603D02*X391810Y195575D01*
X389279Y203689D02*Y187096D01*
X412250Y204300D02*Y196800D01*
Y211300D02*Y197300D01*
Y211300D02*X389117D01*
X391973Y197309D02*X391838D01*
X394441Y200000D02*X400441Y194000D01*
X401750Y211300D02*X376485D01*
Y203689D01*
Y208000D02*Y203689D01*
X445441Y169109D02*X448750Y165800D01*
X445441Y181000D02*Y169109D01*
X443441Y183000D02*X445441Y181000D01*
X458441Y165800D02*Y164000D01*
Y165800D02*X458250D01*
D03*
X448750D01*
X394810Y183000D02*X443441D01*
G54D177*X398441Y175000D02*Y173000D01*
G54D178*X440941Y123000D02*X398441Y165500D01*
Y173000D01*
G54D177*X328601Y146898D02*X332661Y150958D01*
Y187953D01*
X334308Y150202D02*Y188569D01*
X335927Y149558D02*X337441Y151072D01*
Y163000D01*
G54D176*X432000Y72118D02*X434882Y75000D01*
X432000Y70000D02*Y72118D01*
X426882Y71559D02*X423441Y75000D01*
X426882Y70000D02*Y71559D01*
G54D178*X339686Y89905D02*X329441D01*
X339686D02*X352782Y103001D01*
X371441D01*
X397048Y89543D02*Y94393D01*
X394441Y97000D01*
X386941D01*
X356323Y63493D02*X356441Y63611D01*
X361441Y63493D02*Y73080D01*
X367323Y65618D02*X366441Y66500D01*
Y73080D01*
X367323Y63493D02*Y65618D01*
Y59382D02*Y63001D01*
X365434Y57493D02*X367323Y59382D01*
X361441Y57493D02*X365434D01*
X371441Y66000D02*X372441Y65000D01*
Y63001D01*
Y63493D02*Y57001D01*
X371441Y76229D02*Y66000D01*
Y109694D02*Y73080D01*
X372441Y56509D02*X370450D01*
X374048Y51000D02*X374049Y51001D01*
X370450Y56509D02*X368941Y55000D01*
Y44500D01*
X369527Y43914D01*
X378362D02*X369527D01*
X382323Y45493D02*X379934D01*
X379941D02*X378362Y43914D01*
X374049Y51001D02*X382323D01*
X387441D02*Y45001D01*
X377559Y62882D02*Y57001D01*
X382941Y57608D02*X382942Y57607D01*
X382941Y63500D02*Y58001D01*
X382323Y57383D02*X382941Y58001D01*
X389941Y62500D02*X390027Y58001D01*
X382323Y51493D02*Y57383D01*
X390027Y58394D02*Y53587D01*
X387441Y51001D01*
X376441Y64000D02*X377559Y62882D01*
X386441Y76229D02*Y66000D01*
X381441Y76229D02*Y65000D01*
X376441Y76229D02*Y64000D01*
X386441Y66000D02*X389941Y62500D01*
X381441Y65000D02*X382941Y63500D01*
X397048Y82457D02*X397441Y82064D01*
Y76000D01*
X396949Y70882D02*X392067Y66000D01*
X391441D01*
G54D176*X381441Y302000D02*X376441Y307000D01*
X458441Y254000D02*X456641D01*
Y252200D01*
X448750D01*
Y229250D01*
X458441Y225000D02*X456641D01*
X379044Y222311D02*Y218000D01*
X386720Y224614D02*Y234650D01*
X381603Y220000D02*X391838D01*
X381603Y224614D02*Y220000D01*
G54D177*X391838Y231397D02*Y224614D01*
G54D176*X448750Y229250D02*X394397D01*
X397497Y247056D02*X393135D01*
X398441Y248000D02*X397497Y247056D01*
X397615Y252174D02*X398441Y253000D01*
X393135Y252174D02*X397615D01*
X458441Y286800D02*Y285000D01*
Y286800D02*X458250D01*
D03*
X432250D01*
Y317434D02*Y286800D01*
Y317434D02*X402250D01*
X394397Y315434D02*X395831Y314000D01*
X384162Y319386D02*Y306000D01*
X392949Y311118D02*X395831Y314000D01*
X395441Y306000D02*X398441Y309000D01*
X392949Y306000D02*X395441D01*
X389279Y232825D02*X391441Y234987D01*
X389279Y226917D02*Y232825D01*
X384162Y232782D02*X377944Y239000D01*
X384162Y226917D02*Y232782D01*
X386720Y234650D02*X387070Y235000D01*
X376485Y233956D02*X375441Y235000D01*
X376485Y224614D02*Y233956D01*
G54D177*X366441Y257772D02*Y203078D01*
X364841Y256865D02*Y202092D01*
X363241Y256202D02*Y201429D01*
X360041Y254877D02*Y210000D01*
X361641Y255540D02*Y200767D01*
X360041Y209600D02*Y229900D01*
G54D176*X238192Y283781D02*X227240Y272829D01*
G54D177*X237756Y285750D02*X225528Y273522D01*
X237358Y287718D02*X223884Y274244D01*
G54D176*X232350Y273939D02*X229240Y270829D01*
G54D177*X228128Y289687D02*X220754D01*
X203441Y293000D02*X204441Y292000D01*
G54D176*X252106Y260829D02*X248799D01*
X253106Y261829D02*X252106Y260829D01*
X253106Y266065D02*Y261829D01*
G54D177*Y271970D02*X259552D01*
X253106Y268033D02*X249600D01*
X249396Y267829D01*
X270351Y260093D02*Y296024D01*
X272319Y260093D02*Y295594D01*
X278225Y260093D02*Y279602D01*
X259552Y271970D02*X262750Y268772D01*
X260501Y279844D02*X261609D01*
X250834Y291655D02*X254805D01*
X247189Y277876D02*X245557Y279508D01*
X253106Y277876D02*X247189D01*
X253106Y275907D02*X245166D01*
X245207D02*X242550Y278564D01*
X240391D01*
G54D176*X253106Y283781D02*X238192D01*
G54D177*X253106Y285750D02*X237756D01*
X253106Y287718D02*X237358D01*
G54D176*X253106Y273939D02*X232350D01*
G54D177*X253106Y289687D02*X228091D01*
X253106Y279844D02*X260641D01*
X253106Y281813D02*X257905D01*
X260341Y284249D01*
X253106Y293624D02*X252274D01*
X250724Y295174D01*
Y297065D01*
X249939Y297850D01*
X246827D01*
X249757Y292732D02*X250834Y291655D01*
X249757Y292732D02*X243267D01*
X242456Y293543D01*
X246335Y297850D02*X243118D01*
X242168Y298800D01*
X239154Y268222D02*Y265356D01*
X243681Y260829D01*
X240788Y263721D02*X239302Y262235D01*
X223884Y274244D02*Y256000D01*
X225528Y273522D02*Y253087D01*
X227240Y272829D02*Y250799D01*
X229240Y270829D02*Y248201D01*
X223884Y256000D02*X221884Y254000D01*
X225528Y253087D02*X224441Y252000D01*
X227240Y250799D02*X225441Y249000D01*
X229240Y248201D02*X230441Y247000D01*
X237441Y227045D02*X218396Y208000D01*
X189441D01*
X172611Y191170D01*
X220729Y265580D02*X218246Y268063D01*
X219441Y272500D02*X222262Y275321D01*
X218309Y268000D02*X216941Y269368D01*
Y274500D01*
X249396Y267829D02*X246240D01*
X262477Y253536D02*X246941Y238000D01*
X264445Y251504D02*X242441Y229500D01*
X266441Y249500D02*X246441Y229500D01*
X268382Y246941D02*X250941Y229500D01*
X239183Y190822D02*X274802Y226441D01*
X279206Y230265D02*Y217052D01*
X250914Y188760D01*
X237359Y227045D02*X252223D01*
X256778Y231600D01*
G54D178*X275291Y220952D02*X245863Y191524D01*
X130941Y231228D02*X130453Y230740D01*
X135941Y231228D02*X135571Y230858D01*
X140941Y231228D02*X141012Y231157D01*
X145941Y231228D02*X146130Y231039D01*
G54D179*X99311Y243370D02*X107571D01*
G54D178*X130453Y230740D02*Y211370D01*
X135571Y230858D02*Y217370D01*
X141012Y231157D02*Y216468D01*
X146130Y231039D02*Y217370D01*
X150941Y231228D02*Y212118D01*
X146130Y217370D02*X146571Y216929D01*
Y211370D01*
X146441Y211500D02*X146571Y211630D01*
X141012Y217862D02*Y213571D01*
X138811Y211370D01*
X135571D01*
X102449Y211441D02*X102347Y211543D01*
X95941D01*
X150941Y212118D02*X151689Y211370D01*
X145941Y264693D02*X146130Y264504D01*
Y226000D01*
X155941Y231228D02*Y213914D01*
X160941Y231228D02*Y220500D01*
X170949Y231882D02*X170067Y231000D01*
X165941D01*
X170949Y237000D02*X170441Y237508D01*
Y241457D01*
X170048Y248543D02*X170005Y248500D01*
X162441D01*
X148799Y308829D02*X141799Y308888D01*
X141307D02*X126799D01*
X148799Y303829D02*X148740Y303770D01*
X141799D01*
X124831Y309514D02*Y302385D01*
X141307Y303770D02*Y300883D01*
X148799Y298829D02*X148599Y298629D01*
Y292229D01*
X148299D02*X145899Y289829D01*
X126799D01*
X167299Y298829D02*X156799Y288329D01*
X140949Y328941D02*X141061Y328829D01*
X140949Y323559D02*X141219Y323829D01*
X140949Y318441D02*Y314492D01*
X141799Y313642D01*
Y308888D01*
X141061Y328829D02*X151799D01*
X148799Y333829D02*X141441D01*
X151799Y328829D02*Y323829D01*
X148799Y328829D02*X158441D01*
Y324500D01*
X148799Y323829D02*X158441D01*
Y327000D01*
X141219Y323829D02*X151799D01*
G54D177*X159770Y318829D02*X151799D01*
X158270Y313829D02*X151799D01*
X151115Y359500D02*X145803Y364811D01*
X145249Y359724D02*X139132D01*
X135740Y363117D01*
Y364932D01*
X162155Y342818D02*X145249Y359724D01*
G54D178*X168732Y355962D02*Y350833D01*
G54D177*X151115Y359500D02*X172571D01*
X173850Y358221D01*
Y355962D01*
G54D178*X155941Y213914D02*X157485Y212370D01*
X160941Y220500D02*X164571Y216870D01*
Y212370D01*
X163571Y211370D01*
Y205370D01*
X157485Y211977D02*X158453Y211009D01*
Y205370D01*
X151571D01*
X158382Y199992D02*X156674Y198284D01*
X149157D01*
X146441Y201000D01*
Y211500D01*
G54D177*X152164Y191170D02*X145828Y184834D01*
G54D178*X163571Y204878D02*X163500Y204807D01*
Y199500D01*
G54D177*X172611Y191170D02*X152164D01*
G54D178*X167299Y298829D02*X197799D01*
X197307Y323888D02*X187799D01*
G54D177*X179441Y338500D02*X159770Y318829D01*
X180941Y336500D02*X158270Y313829D01*
X178887Y342818D02*X162155D01*
X184799Y328829D02*X199112D01*
X205941Y295500D02*Y325147D01*
X197259Y333829D01*
X199112Y328829D02*X203441Y324500D01*
X197259Y333829D02*X187799D01*
X197441Y336500D02*X180941D01*
X198441Y338500D02*X179441D01*
X191363Y344449D02*X179851Y355962D01*
X173850D01*
X222262Y275321D02*Y280532D01*
X216941Y274500D02*X219941Y277500D01*
Y281500D01*
X203519Y292922D02*X217441Y279000D01*
X219941Y281500D02*X205941Y295500D01*
X222262Y280500D02*Y283179D01*
X208441Y297000D01*
X220754Y289687D02*X210941Y299500D01*
X208441Y297000D02*Y325500D01*
X210941Y299500D02*Y326000D01*
X203441Y324500D02*Y293000D01*
X208441Y325500D02*X197441Y336500D01*
X210941Y326000D02*X198441Y338500D01*
X245312Y349893D02*X230441Y335022D01*
X245312Y342893D02*X240441Y338022D01*
X230441Y335022D02*Y293000D01*
X240441Y309321D02*X246731Y303031D01*
G54D178*X252834Y335500D02*X260882D01*
X260347Y342500D02*X252398D01*
Y349893D02*X252791Y349500D01*
X260839D01*
G54D177*X229818Y354988D02*X231331Y356500D01*
X245355D01*
G54D178*X252441Y356893D02*X252834Y356500D01*
X260882D01*
G54D177*X240441Y338022D02*Y309321D01*
X258841Y302100D02*X245355Y315586D01*
Y335500D01*
G54D178*X252441Y335893D02*X252834Y335500D01*
G54D177*X254546Y323347D02*X249101Y328793D01*
G54D178*X120666Y142340D02*X119666Y141340D01*
X131882Y132156D02*Y148000D01*
X131390D02*X127941D01*
X137000Y148492D02*Y130941D01*
Y148492D02*X137492Y148000D01*
X141441D01*
X131882Y148492D02*X131390Y148000D01*
G54D177*X111041Y153000D02*X188441D01*
X109441Y155000D02*X187441D01*
G54D178*X119666Y141340D02*X113975D01*
X120666Y137340D02*X116666Y141340D01*
X115036D01*
X108857Y141832D02*Y136143D01*
X114000Y112992D02*X114652Y112340D01*
X118840Y117340D02*X114000Y112500D01*
X108882Y112992D02*Y118882D01*
X108941Y118941D01*
G54D177*X108449D02*X107500D01*
X105441Y121000D01*
G54D178*X114652Y112340D02*X123916D01*
X120666Y117340D02*X118840D01*
G54D177*X115281Y122340D02*X123916D01*
G54D178*X108857Y136143D02*X108941Y136059D01*
X112542Y127340D02*X108941Y130941D01*
X120666Y127340D02*X112222D01*
G54D177*X115441Y132500D02*X115601Y132340D01*
X123916D01*
G54D178*X112542Y127340D02*X127065D01*
X112222D02*X108941Y124059D01*
G54D177*X114441Y121500D02*X115281Y122340D01*
X105441Y121000D02*Y151000D01*
X108857Y141832D02*Y150816D01*
X105441Y151000D02*X109441Y155000D01*
X108857Y150816D02*X111041Y153000D01*
G54D178*X141166Y112340D02*X155222D01*
X155382Y112500D01*
X150542Y117340D01*
X144416D01*
X159949Y130941D02*X160441Y130449D01*
G54D177*X151941Y132000D02*X151601Y132340D01*
X144416D01*
G54D178*X127065Y127340D02*X131882Y132156D01*
X137000Y130941D02*X140601Y127340D01*
X144416D01*
G54D177*X152441Y121500D02*X151601Y122340D01*
X144416D01*
G54D180*X332196Y78095D02*X107941D01*
X86941Y99095D01*
G54D178*X160441Y130449D02*Y124059D01*
Y127500D02*X163941D01*
X141166Y142340D02*X154177D01*
X155438Y141079D01*
X141166Y137340D02*X151222D01*
X155382Y141500D01*
X160500Y141992D02*Y136059D01*
X159949Y118941D02*X160500Y118390D01*
Y112500D01*
G54D177*X159949Y118941D02*X163382D01*
X166441Y122000D01*
X160933Y136059D02*X162500D01*
X163941Y137500D01*
Y149500D01*
X165241Y150800D01*
X166441Y122000D02*Y148200D01*
X167441Y149200D01*
G54D180*X86941Y99095D02*Y158500D01*
G54D178*X199874Y137500D02*X195441Y141933D01*
X190382Y141992D02*Y136059D01*
G54D177*X186941Y121949D02*Y144000D01*
G54D178*X195475Y112832D02*X195807Y112500D01*
X200635Y117500D02*X195475Y112340D01*
X189949Y118941D02*Y112340D01*
G54D177*Y118941D02*X186941Y121949D01*
X198441Y122500D02*X205691D01*
G54D178*X189949Y130941D02*X193390Y127500D01*
X205691D01*
X193882D01*
X190441Y124059D01*
G54D177*X195441Y133000D02*X195941Y132500D01*
X205691D01*
G54D178*X195807Y112500D02*X205691D01*
X222941D02*X236882D01*
X202441Y117500D02*X200635D01*
X222941D02*X231882D01*
X208941Y127500D02*X213882Y132441D01*
X222941Y127500D02*X219000Y131441D01*
X219008Y148000D02*X223941D01*
X222941Y142500D02*X235178D01*
X236178Y141500D01*
X236382D01*
X232882Y137500D02*X236382Y141000D01*
Y141500D01*
G54D177*X236641Y152000D02*X249808Y138833D01*
X252441Y139000D02*X237441Y154000D01*
X238072Y155632D02*X257882Y135822D01*
X238704Y157263D02*X257573Y138394D01*
G54D178*X241500Y141992D02*Y136941D01*
X242441Y136000D01*
G54D177*X238941Y159500D02*X252619Y145822D01*
X239941Y161500D02*X252941Y148500D01*
G54D178*X195500Y141992D02*X196008Y142500D01*
X205691D01*
X202441Y137500D02*X199874D01*
G54D177*X190382Y141008D02*Y144941D01*
X197441Y152000D01*
X186941Y144000D02*X196941Y154000D01*
X189878Y149200D02*X196310Y155632D01*
X189215Y150800D02*X195678Y157263D01*
X188441Y153000D02*X194941Y159500D01*
X187441Y155000D02*X193941Y161500D01*
G54D178*X95548Y204457D02*X95591Y204500D01*
X104441D01*
X213882Y132441D02*Y148500D01*
X219000Y131441D02*Y148500D01*
X213882Y148992D02*X212890Y148000D01*
X208941D01*
X219000Y148008D02*X219008Y148000D01*
G54D177*X167441Y149200D02*X189878D01*
X165241Y150800D02*X189215D01*
X197441Y152000D02*X236641D01*
X237441Y154000D02*X196941D01*
X196310Y155632D02*X238072D01*
X195678Y157263D02*X238704D01*
X238678D02*X238704D01*
X194941Y159500D02*X238941D01*
X193941Y161500D02*X239941D01*
G54D178*X222941Y137500D02*X232882D01*
G54D177*X235941Y133000D02*X235441Y132500D01*
X226191D01*
X234441Y122500D02*X226191D01*
G54D178*X231882Y117500D02*X236882Y112500D01*
X241449Y118941D02*Y113051D01*
X242000Y112500D01*
G54D177*Y112992D02*X246992Y108000D01*
X247941Y117500D02*Y133000D01*
X249808Y138833D02*Y121727D01*
X253317Y118218D01*
X252441Y123000D02*Y139000D01*
X247941Y133000D02*X245000Y135941D01*
G54D178*X241449Y130941D02*X241941Y130449D01*
Y124059D01*
Y127500D02*X245441D01*
G54D177*X245000Y135941D02*X242000D01*
X279941Y108000D02*X280941Y109000D01*
X246992Y108000D02*X279941D01*
X278619Y115822D02*X274688D01*
X271438Y110822D02*X254619D01*
X247941Y117500D01*
X254619Y120822D02*X252441Y123000D01*
X280941Y109000D02*Y113500D01*
X280691Y147030D02*Y143314D01*
X278199Y140822D01*
X280941Y113500D02*X278619Y115822D01*
X280221Y118218D02*X280909Y118906D01*
Y123034D01*
Y123000D02*X278088Y125822D01*
X274688D01*
X253317Y118218D02*X280221D01*
X271438Y120822D02*X254619D01*
X257882Y135822D02*X274688D01*
X257573Y138394D02*X279063D01*
X252619Y145822D02*X274688D01*
X252941Y148500D02*X279221D01*
X280691Y147030D01*
X237387Y179977D02*X220345D01*
X215709Y184613D01*
Y184752D01*
X225824Y184806D02*X231840Y190822D01*
X239183D01*
X250914Y188760D02*Y182309D01*
X248581Y179977D01*
X233567D01*
X279972Y130822D02*X274688D01*
X278199Y140822D02*X274688D01*
X279047Y138394D02*X281047D01*
X282441Y137000D01*
Y133291D01*
X279972Y130822D02*X282441Y133291D01*
G54D178*X305696Y115940D02*X310941D01*
X305696Y110822D02*Y107500D01*
X291938Y110822D02*X306188D01*
G54D177*X291938Y115822D02*X299638D01*
X291938Y125822D02*X307525D01*
X291938Y120822D02*X304788D01*
X299638Y115822D02*X303038Y119222D01*
X305451D01*
X304700Y120822D02*X304927D01*
X305083Y119222D02*X305590D01*
X291938Y130822D02*X309763D01*
G54D178*X304263Y135822D02*X304941Y136500D01*
X304472Y136450D02*X309441D01*
G54D177*X312289Y210583D02*X304706D01*
X313178Y207483D02*X304584D01*
X310421Y204383D02*X305280D01*
X334308Y188633D02*X312358Y210583D01*
X332661Y188000D02*X313178Y207483D01*
X320804Y141863D02*Y193925D01*
Y194000D02*X310421Y204383D01*
G54D178*X304472Y141568D02*X303726Y140822D01*
X291938Y145822D02*X300709D01*
X304964Y141568D01*
X304472D02*X309441D01*
X291938Y135822D02*X304263D01*
X303726Y140822D02*X295188D01*
G54D177*X307525Y125822D02*X329417Y147713D01*
X305590Y119222D02*X335927Y149558D01*
X304927Y120822D02*X334308Y150202D01*
X309763Y130822D02*X320804Y141863D01*
X91441Y342700D02*X92041Y343300D01*
X93841D01*
X94441Y342700D01*
Y341500D01*
X91441Y338500D02*X94441Y341500D01*
X91441Y338500D02*X94441D01*
X95881Y339100D02*X96481Y338500D01*
X95881Y342700D02*Y339100D01*
Y342700D02*X96481Y343300D01*
X97681D01*
X98281Y342700D01*
Y339100D01*
X97681Y338500D02*X98281Y339100D01*
X96481Y338500D02*X97681D01*
X95881Y339700D02*X98281Y342100D01*
X99721Y342340D02*X100681Y343300D01*
Y338500D01*
X99721D02*X101521D01*
X102961Y342700D02*X103561Y343300D01*
X104761D01*
X105361Y342700D01*
X104761Y338500D02*X105361Y339100D01*
X103561Y338500D02*X104761D01*
X102961Y339100D02*X103561Y338500D01*
Y341140D02*X104761D01*
X105361Y342700D02*Y341740D01*
Y340540D02*Y339100D01*
Y340540D02*X104761Y341140D01*
X105361Y341740D02*X104761Y341140D01*
X106801Y342340D02*X107761Y343300D01*
Y338500D01*
X106801D02*X108601D01*
X110041Y342700D02*X110641Y343300D01*
X112441D01*
X113041Y342700D01*
Y341500D01*
X110041Y338500D02*X113041Y341500D01*
X110041Y338500D02*X113041D01*
X114481Y339100D02*X115081Y338500D01*
X114481Y342700D02*Y339100D01*
Y342700D02*X115081Y343300D01*
X116281D01*
X116881Y342700D01*
Y339100D01*
X116281Y338500D02*X116881Y339100D01*
X115081Y338500D02*X116281D01*
X114481Y339700D02*X116881Y342100D01*
X118321Y340300D02*X120721Y343300D01*
X118321Y340300D02*X121321D01*
X120721Y343300D02*Y338500D01*
G54D181*X417000Y384000D03*
Y294000D03*
Y354000D03*
X427000Y384000D03*
Y294000D03*
Y354000D03*
G54D175*G36*
X403750Y357250D02*Y350750D01*
X410250D01*
Y357250D01*
X403750D01*
G37*
G54D182*X345799Y357329D03*
G54D183*X315799Y337329D03*
G54D182*X85799Y369829D03*
G54D184*X105799Y374829D03*
G54D175*G36*
X102499Y368129D02*Y361529D01*
X109099D01*
Y368129D01*
X102499D01*
G37*
G54D184*X115799Y374829D03*
Y364829D03*
X125799Y374829D03*
Y364829D03*
X135799Y374829D03*
Y364829D03*
X145799Y374829D03*
Y364829D03*
X155799D03*
X165799D03*
X155799Y374829D03*
X165799D03*
X175799D03*
X185799D03*
X195799D03*
X205799D03*
X175799Y364829D03*
X185799D03*
X195799D03*
X205799D03*
X215799Y374829D03*
X225799D03*
X235799D03*
X215799Y364829D03*
X225799D03*
X235799D03*
X245799D03*
X255799D03*
X265799D03*
X245799Y374829D03*
X255799D03*
X265799D03*
X275799D03*
Y364829D03*
X285799Y374829D03*
X295799D03*
X305799D03*
X315799D03*
X325799D03*
X285799Y364829D03*
X295799D03*
X305799D03*
X315799D03*
X325799D03*
G54D175*G36*
X450250Y267250D02*Y260750D01*
X456750D01*
Y267250D01*
X450250D01*
G37*
G36*
Y207250D02*Y200750D01*
X456750D01*
Y207250D01*
X450250D01*
G37*
G36*
Y177250D02*Y170750D01*
X456750D01*
Y177250D01*
X450250D01*
G37*
G54D181*X463500Y264000D03*
Y204000D03*
Y174000D03*
Y144000D03*
Y114000D03*
Y84000D03*
X473500Y264000D03*
Y204000D03*
Y174000D03*
Y144000D03*
Y114000D03*
Y84000D03*
G54D175*G36*
X450250Y237250D02*Y230750D01*
X456750D01*
Y237250D01*
X450250D01*
G37*
G54D181*X463500Y234000D03*
X473500D03*
G54D175*G36*
X450250Y147250D02*Y140750D01*
X456750D01*
Y147250D01*
X450250D01*
G37*
G36*
Y117250D02*Y110750D01*
X456750D01*
Y117250D01*
X450250D01*
G37*
G36*
Y87250D02*Y80750D01*
X456750D01*
Y87250D01*
X450250D01*
G37*
G36*
Y57250D02*Y50750D01*
X456750D01*
Y57250D01*
X450250D01*
G37*
G54D181*X463500Y54000D03*
X473500D03*
G54D175*G36*
X450250Y327250D02*Y320750D01*
X456750D01*
Y327250D01*
X450250D01*
G37*
G54D181*X463500Y324000D03*
X473500D03*
G54D175*G36*
X450250Y297250D02*Y290750D01*
X456750D01*
Y297250D01*
X450250D01*
G37*
G54D181*X463500Y294000D03*
X473500D03*
X437000Y324000D03*
G54D175*G36*
X309191Y252250D02*Y245750D01*
X315691D01*
Y252250D01*
X309191D01*
G37*
G54D181*X322441Y249000D03*
X332441D03*
X342441D03*
G54D185*X345799Y192329D03*
G54D182*X353000Y150000D03*
G54D175*G36*
X450250Y387250D02*Y380750D01*
X456750D01*
Y387250D01*
X450250D01*
G37*
G54D181*X463500Y384000D03*
X473500D03*
G54D175*G36*
X403750Y387250D02*Y380750D01*
X410250D01*
Y387250D01*
X403750D01*
G37*
G36*
Y297250D02*Y290750D01*
X410250D01*
Y297250D01*
X403750D01*
G37*
G36*
Y327250D02*Y320750D01*
X410250D01*
Y327250D01*
X403750D01*
G37*
G54D181*X417000Y324000D03*
X427000D03*
G54D175*G36*
X450250Y357250D02*Y350750D01*
X456750D01*
Y357250D01*
X450250D01*
G37*
G54D181*X437000Y354000D03*
X463500D03*
X473500D03*
X437000Y384000D03*
Y174000D03*
Y204000D03*
Y234000D03*
Y264000D03*
Y294000D03*
G54D175*G36*
X403750Y177250D02*Y170750D01*
X410250D01*
Y177250D01*
X403750D01*
G37*
G36*
Y207250D02*Y200750D01*
X410250D01*
Y207250D01*
X403750D01*
G37*
G36*
Y237250D02*Y230750D01*
X410250D01*
Y237250D01*
X403750D01*
G37*
G36*
Y267250D02*Y260750D01*
X410250D01*
Y267250D01*
X403750D01*
G37*
G54D181*X417000Y174000D03*
Y204000D03*
Y234000D03*
Y264000D03*
X427000Y174000D03*
Y204000D03*
Y234000D03*
Y264000D03*
G54D175*G36*
X202191Y50750D02*Y44250D01*
X208691D01*
Y50750D01*
X202191D01*
G37*
G54D181*X205441Y57500D03*
Y67500D03*
G54D175*G36*
X232191Y50750D02*Y44250D01*
X238691D01*
Y50750D01*
X232191D01*
G37*
G54D181*X235441Y57500D03*
Y67500D03*
G54D175*G36*
X262191Y50750D02*Y44250D01*
X268691D01*
Y50750D01*
X262191D01*
G37*
G36*
X172191D02*Y44250D01*
X178691D01*
Y50750D01*
X172191D01*
G37*
G36*
X142191D02*Y44250D01*
X148691D01*
Y50750D01*
X142191D01*
G37*
G36*
X112191D02*Y44250D01*
X118691D01*
Y50750D01*
X112191D01*
G37*
G36*
X82191D02*Y44250D01*
X88691D01*
Y50750D01*
X82191D01*
G37*
G54D181*X265441Y57500D03*
X175441D03*
X145441D03*
X115441D03*
X85441D03*
X265441Y67500D03*
X175441D03*
G54D175*G36*
X292191Y50750D02*Y44250D01*
X298691D01*
Y50750D01*
X292191D01*
G37*
G54D181*X295441Y57500D03*
Y67500D03*
X145441D03*
X115441D03*
X85441D03*
G54D182*X85799Y179829D03*
G54D184*X105799Y184829D03*
G54D175*G36*
X102499Y178129D02*Y171529D01*
X109099D01*
Y178129D01*
X102499D01*
G37*
G54D184*X115799Y184829D03*
Y174829D03*
X125799Y184829D03*
Y174829D03*
G54D175*G36*
X82191Y243250D02*Y236750D01*
X88691D01*
Y243250D01*
X82191D01*
G37*
G54D181*X85441Y230000D03*
Y220000D03*
G54D184*X135799Y184829D03*
X145799D03*
X155799D03*
X135799Y174829D03*
X145799D03*
X155799D03*
X165799Y184829D03*
X175799D03*
X185799D03*
X195799D03*
X165799Y174829D03*
X175799D03*
X185799D03*
X195799D03*
G54D175*G36*
X192499Y200629D02*Y194029D01*
X199099D01*
Y200629D01*
X192499D01*
G37*
G54D184*X205799Y197329D03*
X215799D03*
X225799D03*
X235799D03*
X205799Y184829D03*
X215799D03*
X225799D03*
X205799Y174829D03*
X215799D03*
X225799D03*
X235799D03*
X245799D03*
X255799D03*
X235799Y184829D03*
X245799D03*
X255799D03*
X265799D03*
Y174829D03*
X275799Y184829D03*
X285799D03*
X295799D03*
X305799D03*
X315799D03*
X325799D03*
X275799Y174829D03*
X285799D03*
X295799D03*
X305799D03*
X315799D03*
X325799D03*
G54D186*X394949Y188441D02*X395933D01*
X394949Y193559D02*X395933D01*
G54D187*X394397Y203689D02*Y199083D01*
X376485Y203689D02*Y199083D01*
X379044Y203689D02*Y199083D01*
X381603Y203689D02*Y199083D01*
X384162Y203689D02*Y199083D01*
X386720Y203689D02*Y199083D01*
X389279Y203689D02*Y199083D01*
X391838Y203689D02*Y199083D01*
G54D186*X392643Y247056D02*X393627D01*
X392643Y252174D02*X393627D01*
G54D187*X394397Y226917D02*Y222311D01*
X391838Y226917D02*Y222311D01*
X389279Y226917D02*Y222311D01*
X386720Y226917D02*Y222311D01*
G54D188*X397048Y89543D02*X397834D01*
X397048Y82457D02*X397834D01*
G54D186*X396949Y70882D02*X397933D01*
X396949Y76000D02*X397933D01*
G54D187*X384162Y226917D02*Y222311D01*
X381603Y226917D02*Y222311D01*
X379044Y226917D02*Y222311D01*
X376485Y226917D02*Y222311D01*
G54D186*X392949Y365941D02*X393933D01*
X392949Y371059D02*X393933D01*
G54D187*X394397Y344917D02*Y340311D01*
X391838Y344917D02*Y340311D01*
X389279Y344917D02*Y340311D01*
X386720Y344917D02*Y340311D01*
X389279Y321689D02*Y317083D01*
X391838Y321689D02*Y317083D01*
X394397Y321689D02*Y317083D01*
X384162Y344917D02*Y340311D01*
Y321689D02*Y317083D01*
X386720Y321689D02*Y317083D01*
X381603Y344917D02*Y340311D01*
Y321689D02*Y317083D01*
X379044Y344917D02*Y340311D01*
X376485Y344917D02*Y340311D01*
Y321689D02*Y317083D01*
X379044Y321689D02*Y317083D01*
G54D186*X392949Y306000D02*X393933D01*
X392949Y311118D02*X393933D01*
G54D188*X326686Y89905D02*X332196D01*
X326686Y78095D02*X332196D01*
G54D189*X356441Y76229D02*Y69930D01*
X361441Y76229D02*Y69930D01*
X366441Y76229D02*Y69930D01*
G54D190*X371441Y109694D02*Y96308D01*
G54D189*Y76229D02*Y69930D01*
X376441Y76229D02*Y69930D01*
X381441Y76229D02*Y69930D01*
X386441Y76229D02*Y69930D01*
G54D186*X305696Y110822D02*X306680D01*
G54D191*X291938D02*X298438D01*
X291938Y115822D02*X298438D01*
G54D186*X305696Y115940D02*X306680D01*
X304472Y136450D02*X305456D01*
X304472Y141568D02*X305456D01*
G54D191*X271438Y145822D02*X277938D01*
X271438Y140822D02*X277938D01*
X271438Y135822D02*X277938D01*
X271438Y130822D02*X277938D01*
G54D186*X235941Y141992D02*Y141008D01*
X241059Y141992D02*Y141008D01*
G54D191*X271438Y125822D02*X277938D01*
X291938D02*X298438D01*
X291938Y130822D02*X298438D01*
X291938Y135822D02*X298438D01*
X291938Y140822D02*X298438D01*
X291938Y145822D02*X298438D01*
X271438Y120822D02*X277938D01*
X291938D02*X298438D01*
X271438Y115822D02*X277938D01*
X271438Y110822D02*X277938D01*
G54D192*X253106Y279844D02*X256504D01*
X253106Y277876D02*X256504D01*
X253106Y275907D02*X256504D01*
X253106Y273939D02*X256504D01*
X253106Y271970D02*X256504D01*
X253106Y270002D02*X256504D01*
G54D186*X266000Y356992D02*Y356008D01*
X260882Y356992D02*Y356008D01*
G54D188*X245355Y356893D02*Y356107D01*
X252441Y356893D02*Y356107D01*
G54D192*X253106Y268033D02*X256504D01*
X253106Y266065D02*X256504D01*
X262477Y260093D02*Y256695D01*
X264445Y260093D02*Y256695D01*
X266414Y260093D02*Y256695D01*
X268382Y260093D02*Y256695D01*
X270351Y260093D02*Y256695D01*
X272319Y260093D02*Y256695D01*
X274288Y260093D02*Y256695D01*
X276256Y260093D02*Y256695D01*
X278225Y260093D02*Y256695D01*
X280193Y260093D02*Y256695D01*
X282162Y260093D02*Y256695D01*
X284130Y260093D02*Y256695D01*
X286099Y260093D02*Y256695D01*
X288067Y260093D02*Y256695D01*
X290036Y260093D02*Y256695D01*
X292004Y260093D02*Y256695D01*
X297976Y266066D02*X301374D01*
X297976Y268034D02*X301374D01*
X297976Y270003D02*X301374D01*
X297976Y271971D02*X301374D01*
X297976Y273940D02*X301374D01*
X297976Y275908D02*X301374D01*
X297976Y277877D02*X301374D01*
X297976Y279845D02*X301374D01*
X297976Y281814D02*X301374D01*
X297976Y283782D02*X301374D01*
X297976Y285751D02*X301374D01*
X297976Y287719D02*X301374D01*
X297976Y289688D02*X301374D01*
X297976Y291656D02*X301374D01*
X297976Y293625D02*X301374D01*
X297976Y295593D02*X301374D01*
G54D186*X432000Y70492D02*Y69508D01*
X426882Y70492D02*Y69508D01*
G54D188*X339686Y89905D02*X345196D01*
X339686Y78095D02*X345196D01*
X382941Y58394D02*Y57608D01*
X390027Y58394D02*Y57608D01*
G54D186*X377559Y57493D02*Y56509D01*
X372441Y57493D02*Y56509D01*
Y63493D02*Y62509D01*
X367323Y63493D02*Y62509D01*
X356323Y63493D02*Y62509D01*
X361441Y63493D02*Y62509D01*
X356323Y57493D02*Y56509D01*
X361441Y57493D02*Y56509D01*
X382323Y45493D02*Y44509D01*
G54D188*X374048Y43914D02*X374834D01*
G54D186*X387441Y45493D02*Y44509D01*
Y51493D02*Y50509D01*
X382323Y51493D02*Y50509D01*
G54D188*X374048Y51000D02*X374834D01*
G54D186*X246335Y297850D02*X247319D01*
X269500Y310492D02*Y309508D01*
X264382Y310492D02*Y309508D01*
G54D192*X268381Y304963D02*Y301565D01*
X266413Y304963D02*Y301565D01*
X264444Y304963D02*Y301565D01*
X262476Y304963D02*Y301565D01*
G54D188*X245312Y349893D02*Y349107D01*
Y342893D02*Y342107D01*
X252398Y349893D02*Y349107D01*
G54D186*X265957Y349992D02*Y349008D01*
X260839Y349992D02*Y349008D01*
G54D188*X245355Y335893D02*Y335107D01*
X252441Y335893D02*Y335107D01*
G54D186*X266000Y335992D02*Y335008D01*
X260882Y335992D02*Y335008D01*
X265957Y342992D02*Y342008D01*
X260839Y342992D02*Y342008D01*
G54D188*X252398Y342893D02*Y342107D01*
G54D186*X168732Y356454D02*Y355470D01*
X173850Y356454D02*Y355470D01*
G54D191*X148799Y333829D02*X154799D01*
X148799Y328829D02*X154799D01*
X148799Y323829D02*X154799D01*
X184799D02*X190799D01*
X184799Y328829D02*X190799D01*
X184799Y333829D02*X190799D01*
G54D186*X197307Y323888D02*X198291D01*
G54D191*X148799Y318829D02*X154799D01*
X148799Y313829D02*X154799D01*
X148799Y308829D02*X154799D01*
X148799Y303829D02*X154799D01*
X148799Y298829D02*X154799D01*
G54D186*X140949Y334059D02*X141933D01*
X140949Y328941D02*X141933D01*
X141307Y308888D02*X142291D01*
X140949Y323559D02*X141933D01*
X140949Y318441D02*X141933D01*
X141307Y303770D02*X142291D01*
X246335Y292732D02*X247319D01*
G54D193*X148299Y292229D02*X148899D01*
X148299Y284429D02*X148899D01*
X156499Y288329D02*X157099D01*
G54D191*X184799Y298829D02*X190799D01*
X184799Y303829D02*X190799D01*
G54D186*X197307Y303888D02*X198291D01*
G54D191*X184799Y308829D02*X190799D01*
X184799Y313829D02*X190799D01*
X184799Y318829D02*X190799D01*
G54D186*X197307Y318770D02*X198291D01*
X197307Y298770D02*X198291D01*
X158453Y205862D02*Y204878D01*
X163571Y205862D02*Y204878D01*
X146571Y211862D02*Y210878D01*
X151689Y211862D02*Y210878D01*
G54D189*X160941Y231228D02*Y224929D01*
G54D188*X157485Y212763D02*Y211977D01*
X164571Y212763D02*Y211977D01*
G54D186*X158382Y199992D02*Y199008D01*
X163500Y199992D02*Y199008D01*
G54D189*X145941Y231228D02*Y224929D01*
X150941Y231228D02*Y224929D01*
X155941Y231228D02*Y224929D01*
G54D186*X146130Y217862D02*Y216878D01*
X131882Y148492D02*Y147508D01*
X137000Y148492D02*Y147508D01*
G54D189*X130941Y231228D02*Y224929D01*
X135941Y231228D02*Y224929D01*
X140941Y231228D02*Y224929D01*
G54D186*X141012Y217862D02*Y216878D01*
X130453Y217862D02*Y216878D01*
X135571Y217862D02*Y216878D01*
X130453Y211862D02*Y210878D01*
X135571Y211862D02*Y210878D01*
G54D188*X151178Y198284D02*X151964D01*
X151178Y205370D02*X151964D01*
G54D194*X124831Y309514D02*X128768D01*
X124831Y289829D02*X128768D01*
G54D188*X104816Y243370D02*X110326D01*
X104816Y231560D02*X110326D01*
X116816Y243370D02*X122326D01*
X116816Y231560D02*X122326D01*
G54D190*X145941Y264693D02*Y251307D01*
G54D188*X170048Y248543D02*X170834D01*
X170048Y241457D02*X170834D01*
G54D186*X170949Y231882D02*X171933D01*
X170949Y237000D02*X171933D01*
G54D188*X95548Y204457D02*X96334D01*
X95548Y211543D02*X96334D01*
G54D186*X102449Y216559D02*X103433D01*
X102449Y211441D02*X103433D01*
X241449Y130941D02*X242433D01*
X241449Y136059D02*X242433D01*
X236882Y112992D02*Y112008D01*
X242000Y112992D02*Y112008D01*
X241449Y124059D02*X242433D01*
X241449Y118941D02*X242433D01*
G54D191*X222941Y112500D02*X229441D01*
X222941Y117500D02*X229441D01*
X222941Y122500D02*X229441D01*
X222941Y127500D02*X229441D01*
X222941Y132500D02*X229441D01*
X222941Y137500D02*X229441D01*
X222941Y142500D02*X229441D01*
G54D186*X213882Y148992D02*Y148008D01*
X219000Y148992D02*Y148008D01*
X189949Y136059D02*X190933D01*
X195500Y141992D02*Y141008D01*
X190382Y141992D02*Y141008D01*
X159949Y136059D02*X160933D01*
X155382Y141992D02*Y141008D01*
X160500Y141992D02*Y141008D01*
X189949Y124059D02*X190933D01*
X189949Y118941D02*X190933D01*
X195475Y112832D02*Y111848D01*
X190357Y112832D02*Y111848D01*
G54D191*X202441Y142500D02*X208941D01*
X202441Y137500D02*X208941D01*
X202441Y132500D02*X208941D01*
X202441Y127500D02*X208941D01*
X202441Y122500D02*X208941D01*
X202441Y117500D02*X208941D01*
X202441Y112500D02*X208941D01*
G54D186*X155382Y112992D02*Y112008D01*
X160500Y112992D02*Y112008D01*
X159949Y124059D02*X160933D01*
X159949Y118941D02*X160933D01*
X189949Y130941D02*X190933D01*
X108449D02*X109433D01*
X159949D02*X160933D01*
G54D191*X141166Y112340D02*X147666D01*
X141166Y117340D02*X147666D01*
X141166Y122340D02*X147666D01*
X141166Y127340D02*X147666D01*
G54D186*X108449Y124059D02*X109433D01*
X108449Y118941D02*X109433D01*
G54D191*X141166Y132340D02*X147666D01*
X141166Y137340D02*X147666D01*
X141166Y142340D02*X147666D01*
G54D186*X113975Y141832D02*Y140848D01*
X108857Y141832D02*Y140848D01*
X108449Y136059D02*X109433D01*
G54D191*X120666Y142340D02*X127166D01*
X120666Y137340D02*X127166D01*
X120666Y132340D02*X127166D01*
X120666Y127340D02*X127166D01*
X120666Y122340D02*X127166D01*
X120666Y117340D02*X127166D01*
X120666Y112340D02*X127166D01*
G54D186*X114000Y112992D02*Y112008D01*
X108882Y112992D02*Y112008D01*
X296748Y247270D02*X297732D01*
G54D188*X290048Y244914D02*X290834D01*
G54D186*X296748Y252388D02*X297732D01*
G54D188*X290048Y252000D02*X290834D01*
G54D186*X243681Y261321D02*Y260337D01*
G54D188*X239154Y268222D02*Y267436D01*
X246240Y268222D02*Y267436D01*
G54D186*X248799Y261321D02*Y260337D01*
G54D195*X296453Y340007D02*Y337349D01*
X285430Y340007D02*Y337349D01*
G54D186*X277449Y342559D02*X278433D01*
X277449Y337441D02*X278433D01*
G54D195*X296453Y318650D02*Y315992D01*
G54D186*X303365Y324772D02*X304349D01*
X303365Y319654D02*X304349D01*
X307462Y295038D02*X308446D01*
X307462Y300156D02*X308446D01*
G54D192*X292003Y304963D02*Y301565D01*
G54D195*X285430Y318650D02*Y315992D01*
G54D192*X290035Y304963D02*Y301565D01*
X288066Y304963D02*Y301565D01*
X286098Y304963D02*Y301565D01*
X284129Y304963D02*Y301565D01*
X282161Y304963D02*Y301565D01*
X280192Y304963D02*Y301565D01*
X278224Y304963D02*Y301565D01*
X276255Y304963D02*Y301565D01*
X274287Y304963D02*Y301565D01*
X272318Y304963D02*Y301565D01*
X270350Y304963D02*Y301565D01*
X253106Y295592D02*X256504D01*
X253106Y293624D02*X256504D01*
X253106Y291655D02*X256504D01*
X253106Y289687D02*X256504D01*
X253106Y287718D02*X256504D01*
X253106Y285750D02*X256504D01*
X253106Y283781D02*X256504D01*
X253106Y281813D02*X256504D01*
G54D196*X386441Y163000D03*
X400441Y194000D03*
X389441Y184000D03*
X400441Y189000D03*
G54D197*X386023Y157813D03*
X398441Y173000D03*
G54D196*X393441Y208000D03*
G54D197*X358941Y208500D03*
G54D196*X384162Y188000D03*
X458441Y195000D03*
Y164000D03*
X372441Y170386D03*
G54D197*X337441Y163000D03*
X377347Y162178D03*
X304584Y207483D03*
X305280Y204383D03*
X260941Y191500D03*
X269441Y198500D03*
X243941Y202000D03*
X245863Y191524D03*
G54D196*X432324Y111000D03*
X446441Y102000D03*
X434882Y75000D03*
G54D198*X440941Y123000D03*
G54D196*X423441Y75000D03*
G54D197*X434449Y56500D03*
X440449D03*
X354441Y85000D03*
Y89500D03*
Y95500D03*
Y101500D03*
Y107500D03*
Y113500D03*
Y119500D03*
X245441Y127500D03*
X309441Y141568D03*
Y136450D03*
X310941Y115940D03*
X305696Y107500D03*
X387441Y119500D03*
Y113500D03*
Y107500D03*
Y101500D03*
Y95500D03*
Y89500D03*
Y85000D03*
X390941Y76000D03*
Y71500D03*
X391441Y66000D03*
X394941Y58500D03*
X393941Y51500D03*
X392441Y45000D03*
G54D196*X387441Y326000D03*
X393441Y355000D03*
X386720Y282000D03*
X393441Y327000D03*
X384162Y306000D03*
X385941Y354500D03*
X458441Y375000D03*
X383662Y378500D03*
X397441Y373000D03*
X397941Y367441D03*
G54D197*X385941Y366000D03*
G54D196*X458441Y345000D03*
Y315000D03*
Y285000D03*
X398441Y314000D03*
Y309000D03*
G54D197*Y291000D03*
G54D196*X372441Y290689D03*
Y351189D03*
G54D197*X339837Y341827D03*
X353390Y339521D03*
G54D196*X375441Y235000D03*
G54D197*X356441Y233000D03*
X338441Y224192D03*
Y230124D03*
G54D196*X384512Y258000D03*
G54D197*X371602Y260228D03*
G54D196*X458441Y254000D03*
Y225000D03*
X387070Y235000D03*
X398441Y248000D03*
Y253000D03*
G54D197*X396441Y235000D03*
X392188Y239000D03*
X388207Y247280D03*
G54D178*X307716Y275075D03*
X308992Y271971D03*
X308872Y266522D03*
X287917Y307829D03*
X293902Y282263D03*
X296779Y304963D03*
X295937Y243628D03*
G54D197*X304706Y210583D03*
G54D178*X296727Y256227D03*
X312157Y300156D03*
X312122Y295038D03*
X303365Y330000D03*
X285430Y325000D03*
X302941Y340007D03*
X245557Y279508D03*
X242456Y293543D03*
X254740Y298329D03*
X242168Y298800D03*
G54D197*X230441Y293000D03*
X240391Y278564D03*
G54D178*X266413Y296594D03*
X263240Y295329D03*
X262740Y291829D03*
X260341Y284249D03*
X264034Y282931D03*
G54D197*X246731Y303031D03*
G54D178*X262750Y268772D03*
X253101Y261836D03*
X239302Y262235D03*
G54D197*X221884Y254000D03*
X224441Y252000D03*
X225441Y249000D03*
X224441Y244000D03*
X230441Y247000D03*
G54D178*X269653Y298631D03*
G54D197*X263441Y320000D03*
G54D178*X268941Y314000D03*
X273229Y298582D03*
X278225Y279602D03*
X278207Y298612D03*
X277174Y308219D03*
X277449Y347500D03*
G54D197*X260568Y316997D03*
X261502Y307367D03*
X279441Y285000D03*
X270441Y336000D03*
X249101Y328793D03*
X270441Y342500D03*
Y349500D03*
Y357000D03*
X246941Y238000D03*
X242441Y229500D03*
X246441D03*
X250941D03*
X236441Y235500D03*
X224941Y220500D03*
X225441Y226500D03*
X224941Y235500D03*
X269941Y231500D03*
X251941Y210500D03*
X163941Y127500D03*
X193390D03*
X152441Y121500D03*
X151941Y132000D03*
X112222Y127340D03*
X114441Y121500D03*
X115441Y132500D03*
X127941Y148000D03*
X141441D03*
X208941D03*
X223941D03*
X198441Y122500D03*
X234441D03*
X195441Y133000D03*
X235941D03*
X128941Y274500D03*
Y268500D03*
Y262500D03*
Y255000D03*
Y248500D03*
Y242500D03*
X162441Y248500D03*
X161941Y255000D03*
X181941Y258500D03*
X162441Y262500D03*
X198441D03*
X219441Y272500D03*
X217441Y279000D03*
X198441Y269500D03*
X205441Y277000D03*
X220729Y265580D03*
X220441Y259500D03*
X218441Y261500D03*
X162441Y242500D03*
X165941Y231000D03*
Y226500D03*
Y220500D03*
X169441Y214000D03*
Y208500D03*
Y201500D03*
X185441Y228000D03*
X212941Y238000D03*
X203941Y237500D03*
X193941Y237000D03*
X177441Y228000D03*
Y217500D03*
X104441Y204500D03*
X100941D03*
X185441Y217500D03*
X193941Y212500D03*
X202441D03*
X210441D03*
X220441Y215000D03*
X162941Y268500D03*
Y274500D03*
X158441Y323829D03*
Y328829D03*
Y326500D03*
X141307Y300883D03*
X197441Y314500D03*
X195441Y311500D03*
X197441Y308500D03*
X124831Y302385D03*
X135441Y338500D03*
X126441Y340500D03*
X111941Y341000D03*
Y357500D03*
X121941D03*
X130941D03*
X135441Y335000D03*
X111941Y334000D03*
X117941D03*
X126441D03*
X139941Y338000D03*
X142441Y357500D03*
Y349500D03*
X153941Y338000D03*
X154941Y345500D03*
X149441Y349500D03*
X178887Y342818D03*
X168732Y350833D03*
X191363Y344449D03*
X229818Y354988D03*
G54D176*G54D197*G54D176*G54D197*G54D176*G54D197*G54D199*G54D197*G54D176*G54D197*G54D176*G54D197*G54D176*G54D197*G54D176*G54D197*G54D176*G54D197*G54D176*G54D197*G54D176*M02*
