M48
INCH
T256C0.035
T255C0.010
T254C0.020
T253C0.190
T252C0.046
T251C0.200
T250C0.129
T249C0.040
%
T255
X038602Y015781
X039844Y017300
X035894Y020850
X033744Y016300
X037735Y016218
X030458Y020748
X030528Y020438
X026094Y019150
X026944Y019850
X024394Y020200
X024586Y019152
X043445Y005650
X044045Y005650
X035444Y008500
X035444Y008950
X035444Y009550
X035444Y010150
X035444Y010750
X035444Y011350
X035444Y011950
X024544Y012750
X030944Y014157
X030944Y013645
X031094Y011594
X030570Y010750
X038744Y011950
X038744Y011350
X038744Y010750
X038744Y010150
X038744Y009550
X038744Y008950
X038744Y008500
X039094Y007600
X039094Y007150
X039144Y006600
X039494Y005850
X039394Y005150
X039244Y004500
X038594Y036600
X039844Y029100
X033984Y034183
X035339Y033952
X035644Y023300
X033844Y022419
X033844Y023012
X037160Y026023
X039644Y023500
X039219Y023900
X038821Y024728
X030772Y027508
X030899Y027197
X030887Y026652
X028792Y030783
X029390Y028226
X029678Y030496
X029594Y024363
X030471Y021058
X029673Y025623
X031216Y030016
X031212Y029504
X030336Y033000
X028543Y032500
X030294Y034001
X024556Y027951
X024246Y029354
X025474Y029833
X024217Y029880
X023044Y029300
X024039Y027856
X026641Y029659
X026324Y029533
X026274Y029183
X026034Y028425
X026403Y028293
X024673Y030303
X026275Y026877
X025310Y026184
X023930Y026224
X022188Y025400
X022444Y025200
X022544Y024900
X022444Y024400
X023044Y024700
X026965Y029863
X026344Y032000
X026894Y031400
X027323Y029858
X027822Y027960
X027821Y029861
X027717Y030822
X027745Y034750
X026057Y031700
X026150Y030737
X027944Y028500
X027044Y033600
X024910Y032879
X027044Y034250
X027044Y034950
X027044Y035700
X024694Y023800
X024244Y022950
X024644Y022950
X025094Y022950
X023644Y023550
X022494Y022050
X022544Y022650
X022494Y023550
X026994Y023150
X025194Y021050
X016394Y012750
X019339Y012750
X015244Y012150
X015194Y013200
X011222Y012734
X011444Y012150
X011544Y013250
X012794Y014800
X014144Y014800
X020894Y014800
X022394Y014800
X019844Y012250
X023444Y012250
X019544Y013300
X023594Y013300
X012894Y027450
X012894Y026850
X012894Y026250
X012894Y025500
X012894Y024850
X012894Y024250
X016244Y024850
X016194Y025500
X018194Y025850
X016244Y026250
X019844Y026250
X021944Y027250
X021744Y027900
X019844Y026950
X020544Y027700
X022073Y026558
X022044Y025950
X021844Y026150
X016244Y024250
X016594Y023100
X016594Y022650
X016594Y022050
X016944Y021400
X016944Y020850
X016944Y020150
X018544Y022800
X021294Y023800
X020394Y023750
X019394Y023700
X017744Y022800
X017744Y021750
X010444Y020450
X010094Y020450
X018544Y021750
X019394Y021250
X020244Y021250
X021044Y021250
X022044Y021500
X016294Y026850
X016294Y027450
X015844Y032383
X015844Y032883
X015844Y032650
X014131Y030088
X019744Y031450
X019544Y031150
X019744Y030850
X012483Y030238
X013544Y033850
X012644Y034050
X011194Y034100
X011194Y035750
X012194Y035750
X013094Y035750
X013544Y033500
X011194Y033400
X011794Y033400
X012644Y033400
X013994Y033800
X014244Y035750
X014244Y034950
X015394Y033800
X015494Y034550
X014944Y034950
X017889Y034282
X016873Y035083
X019136Y034445
X022982Y035499
T254
X038644Y016300
X040044Y019400
X038944Y018400
X040044Y018900
X039344Y020800
X038416Y018800
X045844Y019500
X045844Y016400
X037244Y017039
X043232Y011100
X044644Y010200
X043488Y007500
X042344Y007500
X038744Y032600
X039344Y035500
X038672Y028200
X039344Y032700
X038416Y030600
X038594Y035450
X045844Y037500
X038366Y037850
X039744Y037300
X039794Y036744
X045844Y034500
X045844Y031500
X045844Y028500
X039844Y031400
X039844Y030900
X037244Y029069
X037244Y035119
X037544Y023500
X038451Y025800
X045844Y025400
X045844Y022500
X038707Y023500
X039844Y024800
X039844Y025300
T256
X044094Y012300
T249
X041700Y038400
X041700Y029400
X041700Y035400
X042700Y038400
X042700Y029400
X042700Y035400
X040700Y035400
X045350Y026400
X045350Y020400
X045350Y017400
X046350Y026400
X046350Y020400
X046350Y017400
X046350Y014400
X046350Y011400
X046350Y008400
X047350Y026400
X047350Y020400
X047350Y017400
X047350Y014400
X047350Y011400
X047350Y008400
X045350Y023400
X046350Y023400
X047350Y023400
X045350Y014400
X045350Y011400
X045350Y008400
X045350Y005400
X046350Y005400
X047350Y005400
X045350Y032400
X046350Y032400
X047350Y032400
X045350Y029400
X046350Y029400
X047350Y029400
X043700Y032400
X031244Y024900
X032244Y024900
X033244Y024900
X034244Y024900
X045350Y038400
X046350Y038400
X047350Y038400
X040700Y038400
X040700Y029400
X040700Y032400
X041700Y032400
X042700Y032400
X045350Y035400
X043700Y035400
X046350Y035400
X047350Y035400
X043700Y038400
X043700Y017400
X043700Y020400
X043700Y023400
X043700Y026400
X043700Y029400
X040700Y017400
X040700Y020400
X040700Y023400
X040700Y026400
X041700Y017400
X041700Y020400
X041700Y023400
X041700Y026400
X042700Y017400
X042700Y020400
X042700Y023400
X042700Y026400
X020544Y004750
X020544Y005750
X020544Y006750
X023544Y004750
X023544Y005750
X023544Y006750
X026544Y004750
X017544Y004750
X014544Y004750
X011544Y004750
X008544Y004750
X026544Y005750
X017544Y005750
X014544Y005750
X011544Y005750
X008544Y005750
X026544Y006750
X017544Y006750
X029544Y004750
X029544Y005750
X029544Y006750
X014544Y006750
X011544Y006750
X008544Y006750
X008544Y024000
X008544Y023000
X008544Y022000
T252
X010580Y037483
X010580Y036483
X011580Y037483
X011580Y036483
X012580Y037483
X012580Y036483
X013580Y037483
X013580Y036483
X014580Y037483
X014580Y036483
X015580Y036483
X016580Y036483
X015580Y037483
X016580Y037483
X017580Y037483
X018580Y037483
X019580Y037483
X020580Y037483
X017580Y036483
X018580Y036483
X019580Y036483
X020580Y036483
X021580Y037483
X022580Y037483
X023580Y037483
X021580Y036483
X022580Y036483
X023580Y036483
X024580Y036483
X025580Y036483
X026580Y036483
X024580Y037483
X025580Y037483
X026580Y037483
X027580Y037483
X027580Y036483
X028580Y037483
X029580Y037483
X030580Y037483
X031580Y037483
X032580Y037483
X028580Y036483
X029580Y036483
X030580Y036483
X031580Y036483
X032580Y036483
X010580Y018483
X010580Y017483
X011580Y018483
X011580Y017483
X012580Y018483
X012580Y017483
X013580Y018483
X014580Y018483
X015580Y018483
X013580Y017483
X014580Y017483
X015580Y017483
X016580Y018483
X017580Y018483
X018580Y018483
X019580Y018483
X016580Y017483
X017580Y017483
X018580Y017483
X019580Y017483
X019580Y019733
X020580Y019733
X021580Y019733
X022580Y019733
X023580Y019733
X020580Y018483
X021580Y018483
X022580Y018483
X020580Y017483
X021580Y017483
X022580Y017483
X023580Y017483
X024580Y017483
X025580Y017483
X023580Y018483
X024580Y018483
X025580Y018483
X026580Y018483
X026580Y017483
X027580Y018483
X028580Y018483
X029580Y018483
X030580Y018483
X031580Y018483
X032580Y018483
X027580Y017483
X028580Y017483
X029580Y017483
X030580Y017483
X031580Y017483
X032580Y017483
T250
X034580Y035733
X008580Y036983
X035300Y015000
X008580Y017983
T253
X034580Y019233
T251
X031580Y033733
M30
