%TF.GenerationSoftware,KiCad,Pcbnew,6.0.7-f9a2dced07~116~ubuntu20.04.1*%
%TF.CreationDate,2022-09-17T13:59:54-07:00*%
%TF.ProjectId,encoder_adapter,656e636f-6465-4725-9f61-646170746572,V1*%
%TF.SameCoordinates,Original*%
%TF.FileFunction,Copper,L1,Top*%
%TF.FilePolarity,Positive*%
%FSLAX46Y46*%
G04 Gerber Fmt 4.6, Leading zero omitted, Abs format (unit mm)*
G04 Created by KiCad (PCBNEW 6.0.7-f9a2dced07~116~ubuntu20.04.1) date 2022-09-17 13:59:54*
%MOMM*%
%LPD*%
G01*
G04 APERTURE LIST*
%TA.AperFunction,ComponentPad*%
%ADD10R,1.701800X1.701800*%
%TD*%
%TA.AperFunction,ComponentPad*%
%ADD11C,1.701800*%
%TD*%
%TA.AperFunction,ComponentPad*%
%ADD12R,1.700000X1.700000*%
%TD*%
%TA.AperFunction,ComponentPad*%
%ADD13O,1.700000X1.700000*%
%TD*%
%TA.AperFunction,ViaPad*%
%ADD14C,1.016000*%
%TD*%
%TA.AperFunction,Conductor*%
%ADD15C,0.508000*%
%TD*%
G04 APERTURE END LIST*
D10*
%TO.P,J1,1,Pin_1*%
%TO.N,/GND*%
X131064000Y-106680000D03*
D11*
%TO.P,J1,2,Pin_2*%
%TO.N,/VCC*%
X131064000Y-104140000D03*
%TO.P,J1,3,Pin_3*%
%TO.N,/A*%
X131064000Y-101600000D03*
%TO.P,J1,4,Pin_4*%
%TO.N,/B*%
X131064000Y-99060000D03*
%TO.P,J1,5,Pin_5*%
%TO.N,/IDX*%
X131064000Y-96520000D03*
%TD*%
D12*
%TO.P,J2,1,Pin_1*%
%TO.N,/GND*%
X124460000Y-96520000D03*
D13*
%TO.P,J2,2,Pin_2*%
%TO.N,/IDX*%
X124460000Y-99060000D03*
%TO.P,J2,3,Pin_3*%
%TO.N,/A*%
X124460000Y-101600000D03*
%TO.P,J2,4,Pin_4*%
%TO.N,/VCC*%
X124460000Y-104140000D03*
%TO.P,J2,5,Pin_5*%
%TO.N,/B*%
X124460000Y-106680000D03*
%TD*%
D14*
%TO.N,/GND*%
X129032000Y-110744000D03*
%TD*%
D15*
%TO.N,/GND*%
X129032000Y-107188000D02*
X129540000Y-106680000D01*
X129540000Y-106680000D02*
X131064000Y-106680000D01*
X129032000Y-110744000D02*
X129032000Y-107188000D01*
%TD*%
%TA.AperFunction,Conductor*%
%TO.N,/GND*%
G36*
X131304362Y-94620251D02*
G01*
X131332395Y-94628608D01*
X131338705Y-94629607D01*
X131339315Y-94629896D01*
X131340598Y-94630188D01*
X131340533Y-94630474D01*
X131402859Y-94660016D01*
X131440389Y-94720282D01*
X131445000Y-94754057D01*
X131445000Y-95056568D01*
X131424998Y-95124689D01*
X131371342Y-95171182D01*
X131296906Y-95180616D01*
X131192369Y-95161995D01*
X131106707Y-95160948D01*
X130974017Y-95159327D01*
X130974015Y-95159327D01*
X130968848Y-95159264D01*
X130747882Y-95193076D01*
X130599948Y-95241429D01*
X130540325Y-95260916D01*
X130540323Y-95260917D01*
X130535406Y-95262524D01*
X130530820Y-95264911D01*
X130530816Y-95264913D01*
X130509876Y-95275814D01*
X130337125Y-95365743D01*
X130332983Y-95368853D01*
X130184971Y-95479983D01*
X130158365Y-95499959D01*
X130003927Y-95661570D01*
X130001013Y-95665842D01*
X130001012Y-95665843D01*
X129916914Y-95789127D01*
X129877958Y-95846234D01*
X129783840Y-96048993D01*
X129724102Y-96264401D01*
X129700348Y-96486673D01*
X129700645Y-96491825D01*
X129700645Y-96491829D01*
X129706112Y-96586634D01*
X129713216Y-96709840D01*
X129714353Y-96714886D01*
X129714354Y-96714892D01*
X129728323Y-96776876D01*
X129762360Y-96927909D01*
X129846460Y-97135024D01*
X129963259Y-97325621D01*
X130109618Y-97494583D01*
X130281608Y-97637372D01*
X130344336Y-97674027D01*
X130353582Y-97679430D01*
X130402306Y-97731068D01*
X130415377Y-97800851D01*
X130388646Y-97866623D01*
X130348195Y-97899980D01*
X130345763Y-97901246D01*
X130337125Y-97905743D01*
X130158365Y-98039959D01*
X130003927Y-98201570D01*
X130001013Y-98205842D01*
X130001012Y-98205843D01*
X129985709Y-98228277D01*
X129877958Y-98386234D01*
X129783840Y-98588993D01*
X129724102Y-98804401D01*
X129700348Y-99026673D01*
X129700645Y-99031825D01*
X129700645Y-99031829D01*
X129711193Y-99214755D01*
X129713216Y-99249840D01*
X129714353Y-99254886D01*
X129714354Y-99254892D01*
X129734197Y-99342939D01*
X129762360Y-99467909D01*
X129846460Y-99675024D01*
X129963259Y-99865621D01*
X130109618Y-100034583D01*
X130281608Y-100177372D01*
X130353582Y-100219430D01*
X130402306Y-100271068D01*
X130415377Y-100340851D01*
X130388646Y-100406623D01*
X130348195Y-100439980D01*
X130345763Y-100441246D01*
X130337125Y-100445743D01*
X130158365Y-100579959D01*
X130003927Y-100741570D01*
X130001013Y-100745842D01*
X130001012Y-100745843D01*
X129985709Y-100768277D01*
X129877958Y-100926234D01*
X129783840Y-101128993D01*
X129724102Y-101344401D01*
X129700348Y-101566673D01*
X129700645Y-101571825D01*
X129700645Y-101571829D01*
X129711193Y-101754755D01*
X129713216Y-101789840D01*
X129714353Y-101794886D01*
X129714354Y-101794892D01*
X129734197Y-101882939D01*
X129762360Y-102007909D01*
X129846460Y-102215024D01*
X129963259Y-102405621D01*
X130109618Y-102574583D01*
X130281608Y-102717372D01*
X130353582Y-102759430D01*
X130402306Y-102811068D01*
X130415377Y-102880851D01*
X130388646Y-102946623D01*
X130348195Y-102979980D01*
X130345763Y-102981246D01*
X130337125Y-102985743D01*
X130158365Y-103119959D01*
X130003927Y-103281570D01*
X130001013Y-103285842D01*
X130001012Y-103285843D01*
X129985709Y-103308277D01*
X129877958Y-103466234D01*
X129783840Y-103668993D01*
X129724102Y-103884401D01*
X129700348Y-104106673D01*
X129700645Y-104111825D01*
X129700645Y-104111829D01*
X129711193Y-104294755D01*
X129713216Y-104329840D01*
X129714353Y-104334886D01*
X129714354Y-104334892D01*
X129734197Y-104422939D01*
X129762360Y-104547909D01*
X129846460Y-104755024D01*
X129963259Y-104945621D01*
X130109618Y-105114583D01*
X130281608Y-105257372D01*
X130373204Y-105310896D01*
X130423545Y-105340313D01*
X130472269Y-105391951D01*
X130485340Y-105461734D01*
X130458609Y-105527506D01*
X130400562Y-105568385D01*
X130359975Y-105575101D01*
X130194272Y-105575101D01*
X130182012Y-105576309D01*
X130126169Y-105587415D01*
X130103673Y-105596733D01*
X130040292Y-105639083D01*
X130023083Y-105656292D01*
X129980732Y-105719675D01*
X129971416Y-105742166D01*
X129960307Y-105798015D01*
X129959100Y-105810270D01*
X129959100Y-106407885D01*
X129963575Y-106423124D01*
X129964965Y-106424329D01*
X129972648Y-106426000D01*
X131192000Y-106426000D01*
X131260121Y-106446002D01*
X131306614Y-106499658D01*
X131318000Y-106552000D01*
X131318000Y-107766784D01*
X131322475Y-107782023D01*
X131323865Y-107783228D01*
X131344783Y-107787778D01*
X131343824Y-107792188D01*
X131387121Y-107804901D01*
X131433614Y-107858557D01*
X131445000Y-107910899D01*
X131445000Y-108449875D01*
X131424998Y-108517996D01*
X131371342Y-108564489D01*
X131343905Y-108573389D01*
X131298650Y-108582514D01*
X131273745Y-108585000D01*
X123951000Y-108585000D01*
X123882879Y-108564998D01*
X123836386Y-108511342D01*
X123825000Y-108459000D01*
X123825000Y-108074762D01*
X123845002Y-108006641D01*
X123898658Y-107960148D01*
X123968932Y-107950044D01*
X123995949Y-107957052D01*
X124049503Y-107977502D01*
X124079692Y-107989030D01*
X124084760Y-107990061D01*
X124084763Y-107990062D01*
X124166252Y-108006641D01*
X124298597Y-108033567D01*
X124303772Y-108033757D01*
X124303774Y-108033757D01*
X124516673Y-108041564D01*
X124516677Y-108041564D01*
X124521837Y-108041753D01*
X124526957Y-108041097D01*
X124526959Y-108041097D01*
X124738288Y-108014025D01*
X124738289Y-108014025D01*
X124743416Y-108013368D01*
X124765838Y-108006641D01*
X124952429Y-107950661D01*
X124952434Y-107950659D01*
X124957384Y-107949174D01*
X125157994Y-107850896D01*
X125339860Y-107721173D01*
X125498096Y-107563489D01*
X125507984Y-107549728D01*
X129959101Y-107549728D01*
X129960309Y-107561988D01*
X129971415Y-107617831D01*
X129980733Y-107640327D01*
X130023083Y-107703708D01*
X130040292Y-107720917D01*
X130103675Y-107763268D01*
X130126166Y-107772584D01*
X130182015Y-107783693D01*
X130194270Y-107784900D01*
X130791885Y-107784900D01*
X130807124Y-107780425D01*
X130808329Y-107779035D01*
X130810000Y-107771352D01*
X130810000Y-106952115D01*
X130805525Y-106936876D01*
X130804135Y-106935671D01*
X130796452Y-106934000D01*
X129977216Y-106934000D01*
X129961977Y-106938475D01*
X129960772Y-106939865D01*
X129959101Y-106947548D01*
X129959101Y-107549728D01*
X125507984Y-107549728D01*
X125628453Y-107382077D01*
X125727430Y-107181811D01*
X125792370Y-106968069D01*
X125821529Y-106746590D01*
X125823156Y-106680000D01*
X125804852Y-106457361D01*
X125750431Y-106240702D01*
X125661354Y-106035840D01*
X125540014Y-105848277D01*
X125389670Y-105683051D01*
X125385619Y-105679852D01*
X125385615Y-105679848D01*
X125218414Y-105547800D01*
X125218410Y-105547798D01*
X125214359Y-105544598D01*
X125173053Y-105521796D01*
X125123084Y-105471364D01*
X125108312Y-105401921D01*
X125133428Y-105335516D01*
X125160780Y-105308909D01*
X125237666Y-105254067D01*
X125339860Y-105181173D01*
X125498096Y-105023489D01*
X125628453Y-104842077D01*
X125669295Y-104759440D01*
X125725136Y-104646453D01*
X125725137Y-104646451D01*
X125727430Y-104641811D01*
X125792370Y-104428069D01*
X125821529Y-104206590D01*
X125823156Y-104140000D01*
X125804852Y-103917361D01*
X125750431Y-103700702D01*
X125661354Y-103495840D01*
X125540014Y-103308277D01*
X125389670Y-103143051D01*
X125385619Y-103139852D01*
X125385615Y-103139848D01*
X125218414Y-103007800D01*
X125218410Y-103007798D01*
X125214359Y-103004598D01*
X125173053Y-102981796D01*
X125123084Y-102931364D01*
X125108312Y-102861921D01*
X125133428Y-102795516D01*
X125160780Y-102768909D01*
X125237666Y-102714067D01*
X125339860Y-102641173D01*
X125498096Y-102483489D01*
X125628453Y-102302077D01*
X125669295Y-102219440D01*
X125725136Y-102106453D01*
X125725137Y-102106451D01*
X125727430Y-102101811D01*
X125792370Y-101888069D01*
X125821529Y-101666590D01*
X125823156Y-101600000D01*
X125804852Y-101377361D01*
X125750431Y-101160702D01*
X125661354Y-100955840D01*
X125540014Y-100768277D01*
X125389670Y-100603051D01*
X125385619Y-100599852D01*
X125385615Y-100599848D01*
X125218414Y-100467800D01*
X125218410Y-100467798D01*
X125214359Y-100464598D01*
X125173053Y-100441796D01*
X125123084Y-100391364D01*
X125108312Y-100321921D01*
X125133428Y-100255516D01*
X125160780Y-100228909D01*
X125237666Y-100174067D01*
X125339860Y-100101173D01*
X125498096Y-99943489D01*
X125628453Y-99762077D01*
X125669295Y-99679440D01*
X125725136Y-99566453D01*
X125725137Y-99566451D01*
X125727430Y-99561811D01*
X125792370Y-99348069D01*
X125821529Y-99126590D01*
X125823156Y-99060000D01*
X125804852Y-98837361D01*
X125750431Y-98620702D01*
X125661354Y-98415840D01*
X125540014Y-98228277D01*
X125389670Y-98063051D01*
X125385619Y-98059852D01*
X125385615Y-98059848D01*
X125218414Y-97927800D01*
X125218410Y-97927798D01*
X125214359Y-97924598D01*
X125097897Y-97860308D01*
X125047927Y-97809875D01*
X125033155Y-97740432D01*
X125058271Y-97674027D01*
X125115302Y-97631742D01*
X125158791Y-97623999D01*
X125328828Y-97623999D01*
X125341088Y-97622791D01*
X125396931Y-97611685D01*
X125419427Y-97602367D01*
X125482808Y-97560017D01*
X125500017Y-97542808D01*
X125542368Y-97479425D01*
X125551684Y-97456934D01*
X125562793Y-97401085D01*
X125564000Y-97388830D01*
X125564000Y-96792115D01*
X125559525Y-96776876D01*
X125558135Y-96775671D01*
X125550452Y-96774000D01*
X124332000Y-96774000D01*
X124263879Y-96753998D01*
X124217386Y-96700342D01*
X124206000Y-96648000D01*
X124206000Y-96247885D01*
X124714000Y-96247885D01*
X124718475Y-96263124D01*
X124719865Y-96264329D01*
X124727548Y-96266000D01*
X125545884Y-96266000D01*
X125561123Y-96261525D01*
X125562328Y-96260135D01*
X125563999Y-96252452D01*
X125563999Y-95651172D01*
X125562791Y-95638912D01*
X125551685Y-95583069D01*
X125542367Y-95560573D01*
X125500017Y-95497192D01*
X125482808Y-95479983D01*
X125419425Y-95437632D01*
X125396934Y-95428316D01*
X125341085Y-95417207D01*
X125328830Y-95416000D01*
X124732115Y-95416000D01*
X124716876Y-95420475D01*
X124715671Y-95421865D01*
X124714000Y-95429548D01*
X124714000Y-96247885D01*
X124206000Y-96247885D01*
X124206000Y-95434116D01*
X124201525Y-95418877D01*
X124200135Y-95417672D01*
X124192452Y-95416001D01*
X123951000Y-95416001D01*
X123882879Y-95395999D01*
X123836386Y-95342343D01*
X123825000Y-95290001D01*
X123825000Y-94741000D01*
X123845002Y-94672879D01*
X123898658Y-94626386D01*
X123951000Y-94615000D01*
X131268365Y-94615000D01*
X131304362Y-94620251D01*
G37*
%TD.AperFunction*%
%TD*%
M02*
