%TF.GenerationSoftware,KiCad,Pcbnew,6.0.7-f9a2dced07~116~ubuntu20.04.1*%
%TF.CreationDate,2022-09-17T13:59:54-07:00*%
%TF.ProjectId,encoder_adapter,656e636f-6465-4725-9f61-646170746572,V1*%
%TF.SameCoordinates,Original*%
%TF.FileFunction,Copper,L2,Bot*%
%TF.FilePolarity,Positive*%
%FSLAX46Y46*%
G04 Gerber Fmt 4.6, Leading zero omitted, Abs format (unit mm)*
G04 Created by KiCad (PCBNEW 6.0.7-f9a2dced07~116~ubuntu20.04.1) date 2022-09-17 13:59:54*
%MOMM*%
%LPD*%
G01*
G04 APERTURE LIST*
G04 Aperture macros list*
%AMRoundRect*
0 Rectangle with rounded corners*
0 $1 Rounding radius*
0 $2 $3 $4 $5 $6 $7 $8 $9 X,Y pos of 4 corners*
0 Add a 4 corners polygon primitive as box body*
4,1,4,$2,$3,$4,$5,$6,$7,$8,$9,$2,$3,0*
0 Add four circle primitives for the rounded corners*
1,1,$1+$1,$2,$3*
1,1,$1+$1,$4,$5*
1,1,$1+$1,$6,$7*
1,1,$1+$1,$8,$9*
0 Add four rect primitives between the rounded corners*
20,1,$1+$1,$2,$3,$4,$5,0*
20,1,$1+$1,$4,$5,$6,$7,0*
20,1,$1+$1,$6,$7,$8,$9,0*
20,1,$1+$1,$8,$9,$2,$3,0*%
G04 Aperture macros list end*
%TA.AperFunction,ComponentPad*%
%ADD10R,1.701800X1.701800*%
%TD*%
%TA.AperFunction,ComponentPad*%
%ADD11C,1.701800*%
%TD*%
%TA.AperFunction,ComponentPad*%
%ADD12R,1.700000X1.700000*%
%TD*%
%TA.AperFunction,ComponentPad*%
%ADD13O,1.700000X1.700000*%
%TD*%
%TA.AperFunction,SMDPad,CuDef*%
%ADD14RoundRect,0.250000X-0.450000X0.262500X-0.450000X-0.262500X0.450000X-0.262500X0.450000X0.262500X0*%
%TD*%
%TA.AperFunction,SMDPad,CuDef*%
%ADD15RoundRect,0.250000X0.375000X0.625000X-0.375000X0.625000X-0.375000X-0.625000X0.375000X-0.625000X0*%
%TD*%
%TA.AperFunction,ViaPad*%
%ADD16C,1.016000*%
%TD*%
%TA.AperFunction,Conductor*%
%ADD17C,0.508000*%
%TD*%
G04 APERTURE END LIST*
D10*
%TO.P,J1,1,Pin_1*%
%TO.N,/GND*%
X131064000Y-106680000D03*
D11*
%TO.P,J1,2,Pin_2*%
%TO.N,/VCC*%
X131064000Y-104140000D03*
%TO.P,J1,3,Pin_3*%
%TO.N,/A*%
X131064000Y-101600000D03*
%TO.P,J1,4,Pin_4*%
%TO.N,/B*%
X131064000Y-99060000D03*
%TO.P,J1,5,Pin_5*%
%TO.N,/IDX*%
X131064000Y-96520000D03*
%TD*%
D12*
%TO.P,J2,1,Pin_1*%
%TO.N,/GND*%
X124460000Y-96520000D03*
D13*
%TO.P,J2,2,Pin_2*%
%TO.N,/IDX*%
X124460000Y-99060000D03*
%TO.P,J2,3,Pin_3*%
%TO.N,/A*%
X124460000Y-101600000D03*
%TO.P,J2,4,Pin_4*%
%TO.N,/VCC*%
X124460000Y-104140000D03*
%TO.P,J2,5,Pin_5*%
%TO.N,/B*%
X124460000Y-106680000D03*
%TD*%
D14*
%TO.P,R1,1*%
%TO.N,/VCC*%
X122428000Y-109323500D03*
%TO.P,R1,2*%
%TO.N,Net-(D1-Pad2)*%
X122428000Y-111148500D03*
%TD*%
D15*
%TO.P,D1,1,K*%
%TO.N,/GND*%
X127305489Y-112268000D03*
%TO.P,D1,2,A*%
%TO.N,Net-(D1-Pad2)*%
X124505489Y-112268000D03*
%TD*%
D16*
%TO.N,/GND*%
X129032000Y-110744000D03*
%TD*%
D17*
%TO.N,/GND*%
X129032000Y-110744000D02*
X129032000Y-111760000D01*
X129032000Y-111760000D02*
X128524000Y-112268000D01*
X128524000Y-112268000D02*
X127305489Y-112268000D01*
%TO.N,/VCC*%
X122428000Y-104648000D02*
X122428000Y-109323500D01*
X124460000Y-104140000D02*
X129032000Y-104140000D01*
X124460000Y-104140000D02*
X122936000Y-104140000D01*
X129032000Y-104140000D02*
X131064000Y-104140000D01*
X122936000Y-104140000D02*
X122428000Y-104648000D01*
%TO.N,/A*%
X124460000Y-101600000D02*
X131064000Y-101600000D01*
%TO.N,/B*%
X132842000Y-107442000D02*
X132842000Y-99822000D01*
X126746000Y-106680000D02*
X128270000Y-108204000D01*
X132080000Y-99060000D02*
X131064000Y-99060000D01*
X128270000Y-108204000D02*
X132080000Y-108204000D01*
X124460000Y-106680000D02*
X126746000Y-106680000D01*
X132842000Y-99822000D02*
X132080000Y-99060000D01*
X132080000Y-108204000D02*
X132842000Y-107442000D01*
%TO.N,/IDX*%
X124460000Y-99060000D02*
X125730000Y-99060000D01*
X125730000Y-99060000D02*
X128270000Y-96520000D01*
X128270000Y-96520000D02*
X131064000Y-96520000D01*
%TO.N,Net-(D1-Pad2)*%
X122428000Y-112268000D02*
X122428000Y-111148495D01*
X122428000Y-112268000D02*
X124505489Y-112268000D01*
%TD*%
M02*
