M48
INCH
T85C0.012
T84C0.020
T83C0.033
T82C0.045
T81C0.215
%
T85
X019850Y023250
X019850Y022900
X019850Y022600
X022350Y033050
X022350Y022700
X022800Y023150
X022850Y035650
X022850Y034900
X023150Y031050
X023150Y023150
X023200Y030250
X023450Y023150
X024700Y024250
X025100Y024200
X025400Y036250
X025500Y023200
X025800Y028650
X025850Y028000
X025850Y025300
X025850Y023200
X026150Y023200
X026350Y028050
X026599Y024999
X026700Y032250
X027000Y025050
X027400Y033400
X027400Y032550
X027500Y022950
X027650Y033900
X027650Y032300
X028200Y032550
X028200Y022950
X028250Y036700
X028250Y035800
X028250Y034950
X028800Y032550
X029150Y032550
X029400Y033850
X029400Y032350
X029650Y034250
X029750Y033350
X029800Y036950
X029800Y036150
X029950Y032600
X030000Y033600
X030000Y022350
X030300Y034150
X030350Y032500
X030600Y034250
X030850Y036650
X031700Y032600
X031800Y035300
X031950Y036650
X032850Y033650
X032850Y022050
X032900Y032600
X033150Y033700
X033150Y022950
X033650Y036550
X034000Y036550
X034300Y032150
X034350Y036550
X034600Y032250
X034700Y036550
X035000Y036550
X035400Y032700
X035950Y029000
X036450Y031150
X036550Y028750
X036900Y036000
X036900Y015050
X036900Y004500
X037400Y036000
X037400Y015050
X037400Y004500
X037450Y032800
X037450Y011850
X037450Y001300
X037900Y036000
X037900Y015050
X037900Y004500
X038150Y032800
X038150Y011850
X038150Y001300
X038400Y036000
X038400Y015050
X038400Y004500
T84
X018500Y038300
X018500Y037250
X018500Y035700
X018500Y034150
X018500Y032750
X018500Y031200
X018500Y029550
X018500Y028400
X018500Y027150
X018500Y026100
X019350Y038250
X020250Y038250
X020650Y022200
X021200Y022200
X021450Y029050
X021700Y027800
X021700Y027050
X021800Y036100
X021800Y029450
X022300Y023850
X022900Y025150
X023000Y034100
X023000Y029000
X023000Y028050
X023000Y025650
X023200Y029400
X023400Y028200
X023428Y025922
X023800Y028350
X023850Y030600
X024300Y024450
X024300Y022400
X024700Y023650
X024750Y026150
X024750Y025700
X024850Y025250
X024950Y027400
X025950Y030250
X026150Y029550
X026250Y033450
X026480Y030620
X026600Y026700
X026700Y023100
X026700Y021850
X026900Y034300
X027100Y022900
X027600Y025700
X028174Y031326
X028550Y024100
X028750Y025000
X028750Y022850
X030250Y028150
X030300Y030950
X030350Y031850
X030400Y025050
X030700Y030600
X031150Y024100
X031150Y022900
X031300Y025000
X031400Y025750
X032000Y033400
X032050Y032500
X032050Y030550
X032050Y025250
X033000Y032050
X033350Y029250
X033350Y003850
X033350Y001000
X033400Y030150
X033400Y029700
X033400Y026300
X033450Y028550
X034200Y024800
X034200Y023700
X034200Y013750
X034300Y026100
X034350Y030700
X034350Y028200
X034650Y022200
X035500Y032350
X035500Y026100
X035500Y001000
X035550Y028100
X035550Y013150
X035600Y005950
X035850Y032050
X036050Y033250
X036250Y029400
X037200Y030750
X037750Y031250
X038400Y037150
X038400Y016200
X038400Y005650
T83
X037366Y030284
X037366Y028316
T82
X038429Y030678
X038429Y027922
T81
X036950Y040150
X036950Y019200
X036950Y008650
M30
