G04 start of page 3 for group 1 idx 1 *
G04 Title: fet12logic, signal2 *
G04 Creator: pcb 20140316 *
G04 CreationDate: Thu 12 Apr 2018 02:45:11 AM GMT UTC *
G04 For: brian *
G04 Format: Gerber/RS-274X *
G04 PCB-Dimensions (mil): 6000.00 5000.00 *
G04 PCB-Coordinate-Origin: lower left *
%MOIN*%
%FSLAX25Y25*%
%LNGROUP1*%
%ADD54C,0.0335*%
%ADD53C,0.0453*%
%ADD52C,0.2150*%
%ADD51C,0.0118*%
%ADD50C,0.0200*%
%ADD49C,0.0240*%
%ADD48C,0.0360*%
%ADD47C,0.0492*%
%ADD46C,0.0610*%
%ADD45C,0.2350*%
%ADD44C,0.0250*%
%ADD43C,0.0001*%
G54D43*G36*
X246996Y254550D02*X247042Y254539D01*
X247026Y254529D01*
X246996Y254503D01*
Y254550D01*
G37*
G36*
X383997Y420000D02*X385000D01*
X388000Y417000D01*
Y10500D01*
X385000Y7500D01*
X383997D01*
Y43194D01*
X384000Y43193D01*
X384283Y43216D01*
X384558Y43282D01*
X384820Y43390D01*
X385062Y43538D01*
X385277Y43723D01*
X385462Y43938D01*
X385610Y44180D01*
X385718Y44442D01*
X385784Y44717D01*
X385801Y45000D01*
X385784Y45283D01*
X385718Y45558D01*
X385610Y45820D01*
X385462Y46062D01*
X385277Y46277D01*
X385062Y46462D01*
X384820Y46610D01*
X384558Y46718D01*
X384283Y46784D01*
X384000Y46807D01*
X383997Y46806D01*
Y148694D01*
X384000Y148693D01*
X384283Y148716D01*
X384558Y148782D01*
X384820Y148890D01*
X385062Y149038D01*
X385277Y149223D01*
X385462Y149438D01*
X385610Y149680D01*
X385718Y149942D01*
X385784Y150217D01*
X385801Y150500D01*
X385784Y150783D01*
X385718Y151058D01*
X385610Y151320D01*
X385462Y151562D01*
X385277Y151777D01*
X385062Y151962D01*
X384820Y152110D01*
X384558Y152218D01*
X384283Y152284D01*
X384000Y152307D01*
X383997Y152306D01*
Y358194D01*
X384000Y358193D01*
X384283Y358216D01*
X384558Y358282D01*
X384820Y358390D01*
X385062Y358538D01*
X385277Y358723D01*
X385462Y358938D01*
X385610Y359180D01*
X385718Y359442D01*
X385784Y359717D01*
X385801Y360000D01*
X385784Y360283D01*
X385718Y360558D01*
X385610Y360820D01*
X385462Y361062D01*
X385277Y361277D01*
X385062Y361462D01*
X384820Y361610D01*
X384558Y361718D01*
X384283Y361784D01*
X384000Y361807D01*
X383997Y361806D01*
Y420000D01*
G37*
G36*
X377496D02*X383997D01*
Y361806D01*
X383717Y361784D01*
X383442Y361718D01*
X383180Y361610D01*
X382938Y361462D01*
X382723Y361277D01*
X382538Y361062D01*
X382390Y360820D01*
X382282Y360558D01*
X382216Y360283D01*
X382193Y360000D01*
X382216Y359717D01*
X382282Y359442D01*
X382390Y359180D01*
X382538Y358938D01*
X382723Y358723D01*
X382938Y358538D01*
X383180Y358390D01*
X383442Y358282D01*
X383717Y358216D01*
X383997Y358194D01*
Y152306D01*
X383717Y152284D01*
X383442Y152218D01*
X383180Y152110D01*
X382938Y151962D01*
X382723Y151777D01*
X382538Y151562D01*
X382390Y151320D01*
X382282Y151058D01*
X382216Y150783D01*
X382193Y150500D01*
X382216Y150217D01*
X382282Y149942D01*
X382390Y149680D01*
X382538Y149438D01*
X382723Y149223D01*
X382938Y149038D01*
X383180Y148890D01*
X383442Y148782D01*
X383717Y148716D01*
X383997Y148694D01*
Y46806D01*
X383717Y46784D01*
X383442Y46718D01*
X383180Y46610D01*
X382938Y46462D01*
X382723Y46277D01*
X382538Y46062D01*
X382390Y45820D01*
X382282Y45558D01*
X382216Y45283D01*
X382193Y45000D01*
X382216Y44717D01*
X382282Y44442D01*
X382390Y44180D01*
X382538Y43938D01*
X382723Y43723D01*
X382938Y43538D01*
X383180Y43390D01*
X383442Y43282D01*
X383717Y43216D01*
X383997Y43194D01*
Y7500D01*
X377496D01*
Y44007D01*
X377538Y43938D01*
X377723Y43723D01*
X377938Y43538D01*
X378180Y43390D01*
X378442Y43282D01*
X378717Y43216D01*
X379000Y43193D01*
X379283Y43216D01*
X379558Y43282D01*
X379820Y43390D01*
X380062Y43538D01*
X380277Y43723D01*
X380462Y43938D01*
X380610Y44180D01*
X380718Y44442D01*
X380784Y44717D01*
X380801Y45000D01*
X380784Y45283D01*
X380718Y45558D01*
X380610Y45820D01*
X380462Y46062D01*
X380277Y46277D01*
X380062Y46462D01*
X379820Y46610D01*
X379558Y46718D01*
X379283Y46784D01*
X379000Y46807D01*
X378717Y46784D01*
X378442Y46718D01*
X378180Y46610D01*
X377938Y46462D01*
X377723Y46277D01*
X377538Y46062D01*
X377496Y45993D01*
Y149507D01*
X377538Y149438D01*
X377723Y149223D01*
X377938Y149038D01*
X378180Y148890D01*
X378442Y148782D01*
X378717Y148716D01*
X379000Y148693D01*
X379283Y148716D01*
X379558Y148782D01*
X379820Y148890D01*
X380062Y149038D01*
X380277Y149223D01*
X380462Y149438D01*
X380610Y149680D01*
X380718Y149942D01*
X380784Y150217D01*
X380801Y150500D01*
X380784Y150783D01*
X380718Y151058D01*
X380610Y151320D01*
X380462Y151562D01*
X380277Y151777D01*
X380062Y151962D01*
X379820Y152110D01*
X379558Y152218D01*
X379283Y152284D01*
X379000Y152307D01*
X378717Y152284D01*
X378442Y152218D01*
X378180Y152110D01*
X377938Y151962D01*
X377723Y151777D01*
X377538Y151562D01*
X377496Y151493D01*
Y309993D01*
X377500Y309992D01*
X377892Y310023D01*
X378275Y310115D01*
X378638Y310266D01*
X378974Y310471D01*
X379273Y310727D01*
X379529Y311026D01*
X379734Y311362D01*
X379885Y311725D01*
X379977Y312108D01*
X380000Y312500D01*
X379977Y312892D01*
X379885Y313275D01*
X379734Y313638D01*
X379529Y313974D01*
X379273Y314273D01*
X378974Y314529D01*
X378638Y314734D01*
X378275Y314885D01*
X377892Y314977D01*
X377500Y315008D01*
X377496Y315007D01*
Y359007D01*
X377538Y358938D01*
X377723Y358723D01*
X377938Y358538D01*
X378180Y358390D01*
X378442Y358282D01*
X378717Y358216D01*
X379000Y358193D01*
X379283Y358216D01*
X379558Y358282D01*
X379820Y358390D01*
X380062Y358538D01*
X380277Y358723D01*
X380462Y358938D01*
X380610Y359180D01*
X380718Y359442D01*
X380784Y359717D01*
X380801Y360000D01*
X380784Y360283D01*
X380718Y360558D01*
X380610Y360820D01*
X380462Y361062D01*
X380277Y361277D01*
X380062Y361462D01*
X379820Y361610D01*
X379558Y361718D01*
X379283Y361784D01*
X379000Y361807D01*
X378717Y361784D01*
X378442Y361718D01*
X378180Y361610D01*
X377938Y361462D01*
X377723Y361277D01*
X377538Y361062D01*
X377496Y360993D01*
Y420000D01*
G37*
G36*
X371996D02*X377496D01*
Y360993D01*
X377390Y360820D01*
X377282Y360558D01*
X377216Y360283D01*
X377193Y360000D01*
X377216Y359717D01*
X377282Y359442D01*
X377390Y359180D01*
X377496Y359007D01*
Y315007D01*
X377108Y314977D01*
X376725Y314885D01*
X376362Y314734D01*
X376026Y314529D01*
X375727Y314273D01*
X375471Y313974D01*
X375266Y313638D01*
X375115Y313275D01*
X375023Y312892D01*
X374992Y312500D01*
X375023Y312108D01*
X375115Y311725D01*
X375266Y311362D01*
X375471Y311026D01*
X375727Y310727D01*
X376026Y310471D01*
X376362Y310266D01*
X376725Y310115D01*
X377108Y310023D01*
X377496Y309993D01*
Y151493D01*
X377390Y151320D01*
X377282Y151058D01*
X377216Y150783D01*
X377193Y150500D01*
X377216Y150217D01*
X377282Y149942D01*
X377390Y149680D01*
X377496Y149507D01*
Y45993D01*
X377390Y45820D01*
X377282Y45558D01*
X377216Y45283D01*
X377193Y45000D01*
X377216Y44717D01*
X377282Y44442D01*
X377390Y44180D01*
X377496Y44007D01*
Y7500D01*
X371996D01*
Y304993D01*
X372000Y304992D01*
X372392Y305023D01*
X372775Y305115D01*
X373138Y305266D01*
X373474Y305471D01*
X373773Y305727D01*
X374029Y306026D01*
X374234Y306362D01*
X374385Y306725D01*
X374477Y307108D01*
X374500Y307500D01*
X374477Y307892D01*
X374385Y308275D01*
X374234Y308638D01*
X374029Y308974D01*
X373773Y309273D01*
X373474Y309529D01*
X373138Y309734D01*
X372775Y309885D01*
X372392Y309977D01*
X372000Y310008D01*
X371996Y310007D01*
Y420000D01*
G37*
G36*
X365497D02*X371996D01*
Y310007D01*
X371608Y309977D01*
X371225Y309885D01*
X370862Y309734D01*
X370526Y309529D01*
X370227Y309273D01*
X369971Y308974D01*
X369766Y308638D01*
X369615Y308275D01*
X369523Y307892D01*
X369492Y307500D01*
X369523Y307108D01*
X369615Y306725D01*
X369766Y306362D01*
X369971Y306026D01*
X370227Y305727D01*
X370526Y305471D01*
X370862Y305266D01*
X371225Y305115D01*
X371608Y305023D01*
X371996Y304993D01*
Y7500D01*
X365497D01*
Y285694D01*
X365500Y285693D01*
X365783Y285716D01*
X366058Y285782D01*
X366320Y285890D01*
X366562Y286038D01*
X366777Y286223D01*
X366962Y286438D01*
X367110Y286680D01*
X367218Y286942D01*
X367284Y287217D01*
X367301Y287500D01*
X367284Y287783D01*
X367218Y288058D01*
X367110Y288320D01*
X366962Y288562D01*
X366777Y288777D01*
X366562Y288962D01*
X366320Y289110D01*
X366058Y289218D01*
X365783Y289284D01*
X365500Y289307D01*
X365497Y289306D01*
Y309999D01*
X365562Y310038D01*
X365777Y310223D01*
X365962Y310438D01*
X366110Y310680D01*
X366218Y310942D01*
X366284Y311217D01*
X366301Y311500D01*
X366284Y311783D01*
X366218Y312058D01*
X366110Y312320D01*
X365962Y312562D01*
X365777Y312777D01*
X365562Y312962D01*
X365497Y313001D01*
Y420000D01*
G37*
G36*
X359497D02*X365497D01*
Y313001D01*
X365320Y313110D01*
X365058Y313218D01*
X364783Y313284D01*
X364500Y313307D01*
X364217Y313284D01*
X363942Y313218D01*
X363680Y313110D01*
X363438Y312962D01*
X363223Y312777D01*
X363038Y312562D01*
X362890Y312320D01*
X362782Y312058D01*
X362716Y311783D01*
X362693Y311500D01*
X362716Y311217D01*
X362782Y310942D01*
X362890Y310680D01*
X363038Y310438D01*
X363223Y310223D01*
X363438Y310038D01*
X363680Y309890D01*
X363942Y309782D01*
X364217Y309716D01*
X364500Y309693D01*
X364783Y309716D01*
X365058Y309782D01*
X365320Y309890D01*
X365497Y309999D01*
Y289306D01*
X365217Y289284D01*
X364942Y289218D01*
X364680Y289110D01*
X364438Y288962D01*
X364223Y288777D01*
X364038Y288562D01*
X363890Y288320D01*
X363782Y288058D01*
X363716Y287783D01*
X363693Y287500D01*
X363716Y287217D01*
X363782Y286942D01*
X363890Y286680D01*
X364038Y286438D01*
X364223Y286223D01*
X364438Y286038D01*
X364680Y285890D01*
X364942Y285782D01*
X365217Y285716D01*
X365497Y285694D01*
Y7500D01*
X359497D01*
Y288194D01*
X359500Y288193D01*
X359783Y288216D01*
X360058Y288282D01*
X360320Y288390D01*
X360562Y288538D01*
X360777Y288723D01*
X360962Y288938D01*
X361110Y289180D01*
X361218Y289442D01*
X361284Y289717D01*
X361301Y290000D01*
X361284Y290283D01*
X361218Y290558D01*
X361110Y290820D01*
X360962Y291062D01*
X360777Y291277D01*
X360562Y291462D01*
X360320Y291610D01*
X360058Y291718D01*
X359783Y291784D01*
X359500Y291807D01*
X359497Y291806D01*
Y318207D01*
X359638Y318266D01*
X359974Y318471D01*
X360273Y318727D01*
X360529Y319026D01*
X360734Y319362D01*
X360885Y319725D01*
X360977Y320108D01*
X361000Y320500D01*
X360977Y320892D01*
X360885Y321275D01*
X360734Y321638D01*
X360529Y321974D01*
X360273Y322273D01*
X359974Y322529D01*
X359638Y322734D01*
X359497Y322793D01*
Y420000D01*
G37*
G36*
X353997Y419997D02*X354000Y420000D01*
X359497D01*
Y322793D01*
X359275Y322885D01*
X358892Y322977D01*
X358500Y323008D01*
X358108Y322977D01*
X357725Y322885D01*
X357362Y322734D01*
X357026Y322529D01*
X356727Y322273D01*
X356471Y321974D01*
X356266Y321638D01*
X356115Y321275D01*
X356023Y320892D01*
X355992Y320500D01*
X356023Y320108D01*
X356115Y319725D01*
X356266Y319362D01*
X356471Y319026D01*
X356727Y318727D01*
X357026Y318471D01*
X357362Y318266D01*
X357725Y318115D01*
X358108Y318023D01*
X358500Y317992D01*
X358892Y318023D01*
X359275Y318115D01*
X359497Y318207D01*
Y291806D01*
X359217Y291784D01*
X358942Y291718D01*
X358680Y291610D01*
X358438Y291462D01*
X358223Y291277D01*
X358038Y291062D01*
X357890Y290820D01*
X357782Y290558D01*
X357716Y290283D01*
X357693Y290000D01*
X357716Y289717D01*
X357782Y289442D01*
X357890Y289180D01*
X358038Y288938D01*
X358223Y288723D01*
X358438Y288538D01*
X358680Y288390D01*
X358942Y288282D01*
X359217Y288216D01*
X359497Y288194D01*
Y7500D01*
X353997D01*
Y57996D01*
X354227Y57727D01*
X354526Y57471D01*
X354862Y57266D01*
X355225Y57115D01*
X355608Y57023D01*
X356000Y56992D01*
X356392Y57023D01*
X356775Y57115D01*
X357138Y57266D01*
X357474Y57471D01*
X357773Y57727D01*
X358029Y58026D01*
X358234Y58362D01*
X358385Y58725D01*
X358477Y59108D01*
X358500Y59500D01*
X358477Y59892D01*
X358385Y60275D01*
X358234Y60638D01*
X358029Y60974D01*
X357773Y61273D01*
X357474Y61529D01*
X357138Y61734D01*
X356775Y61885D01*
X356392Y61977D01*
X356000Y62008D01*
X355608Y61977D01*
X355225Y61885D01*
X354862Y61734D01*
X354526Y61529D01*
X354227Y61273D01*
X353997Y61004D01*
Y325194D01*
X354000Y325193D01*
X354283Y325216D01*
X354558Y325282D01*
X354820Y325390D01*
X355062Y325538D01*
X355277Y325723D01*
X355462Y325938D01*
X355610Y326180D01*
X355718Y326442D01*
X355784Y326717D01*
X355801Y327000D01*
X355784Y327283D01*
X355718Y327558D01*
X355610Y327820D01*
X355462Y328062D01*
X355277Y328277D01*
X355062Y328462D01*
X354820Y328610D01*
X354558Y328718D01*
X354283Y328784D01*
X354000Y328807D01*
X353997Y328806D01*
Y419997D01*
G37*
G36*
X345997Y371000D02*X351000D01*
Y417000D01*
X353997Y419997D01*
Y328806D01*
X353717Y328784D01*
X353442Y328718D01*
X353180Y328610D01*
X352938Y328462D01*
X352723Y328277D01*
X352538Y328062D01*
X352390Y327820D01*
X352282Y327558D01*
X352216Y327283D01*
X352193Y327000D01*
X352216Y326717D01*
X352282Y326442D01*
X352390Y326180D01*
X352538Y325938D01*
X352723Y325723D01*
X352938Y325538D01*
X353180Y325390D01*
X353442Y325282D01*
X353717Y325216D01*
X353997Y325194D01*
Y61004D01*
X353971Y60974D01*
X353766Y60638D01*
X353615Y60275D01*
X353523Y59892D01*
X353492Y59500D01*
X353523Y59108D01*
X353615Y58725D01*
X353766Y58362D01*
X353971Y58026D01*
X353997Y57996D01*
Y7500D01*
X345997D01*
Y281953D01*
X346000Y282000D01*
X345997Y282047D01*
Y306953D01*
X346000Y307000D01*
X345997Y307047D01*
Y320694D01*
X346000Y320693D01*
X346283Y320716D01*
X346558Y320782D01*
X346820Y320890D01*
X347062Y321038D01*
X347277Y321223D01*
X347462Y321438D01*
X347610Y321680D01*
X347718Y321942D01*
X347784Y322217D01*
X347801Y322500D01*
X347784Y322783D01*
X347718Y323058D01*
X347610Y323320D01*
X347462Y323562D01*
X347277Y323777D01*
X347062Y323962D01*
X346820Y324110D01*
X346558Y324218D01*
X346283Y324284D01*
X346000Y324307D01*
X345997Y324306D01*
Y364002D01*
X346180Y363890D01*
X346442Y363782D01*
X346717Y363716D01*
X347000Y363693D01*
X347283Y363716D01*
X347558Y363782D01*
X347820Y363890D01*
X348062Y364038D01*
X348277Y364223D01*
X348462Y364438D01*
X348500Y364501D01*
X348538Y364438D01*
X348723Y364223D01*
X348938Y364038D01*
X349180Y363890D01*
X349442Y363782D01*
X349717Y363716D01*
X350000Y363693D01*
X350283Y363716D01*
X350558Y363782D01*
X350820Y363890D01*
X351062Y364038D01*
X351277Y364223D01*
X351462Y364438D01*
X351610Y364680D01*
X351718Y364942D01*
X351784Y365217D01*
X351801Y365500D01*
X351784Y365783D01*
X351718Y366058D01*
X351610Y366320D01*
X351462Y366562D01*
X351277Y366777D01*
X351062Y366962D01*
X350820Y367110D01*
X350558Y367218D01*
X350283Y367284D01*
X350000Y367307D01*
X349717Y367284D01*
X349442Y367218D01*
X349180Y367110D01*
X348938Y366962D01*
X348723Y366777D01*
X348538Y366562D01*
X348500Y366499D01*
X348462Y366562D01*
X348277Y366777D01*
X348062Y366962D01*
X347820Y367110D01*
X347558Y367218D01*
X347283Y367284D01*
X347000Y367307D01*
X346717Y367284D01*
X346442Y367218D01*
X346180Y367110D01*
X345997Y366998D01*
Y371000D01*
G37*
G36*
Y282047D02*X345977Y282392D01*
X345885Y282775D01*
X345734Y283138D01*
X345529Y283474D01*
X345273Y283773D01*
X344974Y284029D01*
X344638Y284234D01*
X344275Y284385D01*
X343892Y284477D01*
X343500Y284508D01*
X343496Y284507D01*
Y304493D01*
X343500Y304492D01*
X343892Y304523D01*
X344275Y304615D01*
X344638Y304766D01*
X344974Y304971D01*
X345273Y305227D01*
X345529Y305526D01*
X345734Y305862D01*
X345885Y306225D01*
X345977Y306608D01*
X345997Y306953D01*
Y282047D01*
G37*
G36*
Y7500D02*X343496D01*
Y135490D01*
X343773Y135727D01*
X344029Y136026D01*
X344234Y136362D01*
X344385Y136725D01*
X344477Y137108D01*
X344500Y137500D01*
X344477Y137892D01*
X344385Y138275D01*
X344234Y138638D01*
X344029Y138974D01*
X343773Y139273D01*
X343496Y139510D01*
Y258548D01*
X343775Y258615D01*
X344138Y258766D01*
X344474Y258971D01*
X344773Y259227D01*
X345029Y259526D01*
X345234Y259862D01*
X345385Y260225D01*
X345477Y260608D01*
X345500Y261000D01*
X345477Y261392D01*
X345385Y261775D01*
X345234Y262138D01*
X345029Y262474D01*
X344773Y262773D01*
X344474Y263029D01*
X344138Y263234D01*
X343775Y263385D01*
X343496Y263452D01*
Y279493D01*
X343500Y279492D01*
X343892Y279523D01*
X344275Y279615D01*
X344638Y279766D01*
X344974Y279971D01*
X345273Y280227D01*
X345529Y280526D01*
X345734Y280862D01*
X345885Y281225D01*
X345977Y281608D01*
X345997Y281953D01*
Y7500D01*
G37*
G36*
X343496Y371000D02*X345997D01*
Y366998D01*
X345938Y366962D01*
X345723Y366777D01*
X345538Y366562D01*
X345390Y366320D01*
X345282Y366058D01*
X345216Y365783D01*
X345193Y365500D01*
X345216Y365217D01*
X345282Y364942D01*
X345390Y364680D01*
X345538Y364438D01*
X345723Y364223D01*
X345938Y364038D01*
X345997Y364002D01*
Y324306D01*
X345717Y324284D01*
X345442Y324218D01*
X345180Y324110D01*
X344938Y323962D01*
X344723Y323777D01*
X344538Y323562D01*
X344390Y323320D01*
X344282Y323058D01*
X344216Y322783D01*
X344193Y322500D01*
X344216Y322217D01*
X344282Y321942D01*
X344390Y321680D01*
X344538Y321438D01*
X344723Y321223D01*
X344938Y321038D01*
X345180Y320890D01*
X345442Y320782D01*
X345717Y320716D01*
X345997Y320694D01*
Y307047D01*
X345977Y307392D01*
X345885Y307775D01*
X345734Y308138D01*
X345529Y308474D01*
X345273Y308773D01*
X344974Y309029D01*
X344638Y309234D01*
X344275Y309385D01*
X343892Y309477D01*
X343500Y309508D01*
X343496Y309507D01*
Y371000D01*
G37*
G36*
X336497D02*X343496D01*
Y309507D01*
X343108Y309477D01*
X342725Y309385D01*
X342362Y309234D01*
X342026Y309029D01*
X341727Y308773D01*
X341471Y308474D01*
X341266Y308138D01*
X341115Y307775D01*
X341023Y307392D01*
X340992Y307000D01*
X341023Y306608D01*
X341115Y306225D01*
X341266Y305862D01*
X341471Y305526D01*
X341727Y305227D01*
X342026Y304971D01*
X342362Y304766D01*
X342725Y304615D01*
X343108Y304523D01*
X343496Y304493D01*
Y284507D01*
X343108Y284477D01*
X342725Y284385D01*
X342362Y284234D01*
X342026Y284029D01*
X341727Y283773D01*
X341471Y283474D01*
X341266Y283138D01*
X341115Y282775D01*
X341023Y282392D01*
X340992Y282000D01*
X341023Y281608D01*
X341115Y281225D01*
X341266Y280862D01*
X341471Y280526D01*
X341727Y280227D01*
X342026Y279971D01*
X342362Y279766D01*
X342725Y279615D01*
X343108Y279523D01*
X343496Y279493D01*
Y263452D01*
X343392Y263477D01*
X343000Y263508D01*
X342608Y263477D01*
X342225Y263385D01*
X341862Y263234D01*
X341526Y263029D01*
X341227Y262773D01*
X340971Y262474D01*
X340766Y262138D01*
X340615Y261775D01*
X340523Y261392D01*
X340492Y261000D01*
X340523Y260608D01*
X340615Y260225D01*
X340766Y259862D01*
X340971Y259526D01*
X341227Y259227D01*
X341526Y258971D01*
X341862Y258766D01*
X342225Y258615D01*
X342608Y258523D01*
X343000Y258492D01*
X343392Y258523D01*
X343496Y258548D01*
Y139510D01*
X343474Y139529D01*
X343138Y139734D01*
X342775Y139885D01*
X342392Y139977D01*
X342000Y140008D01*
X341608Y139977D01*
X341225Y139885D01*
X340862Y139734D01*
X340526Y139529D01*
X340227Y139273D01*
X339971Y138974D01*
X339766Y138638D01*
X339615Y138275D01*
X339523Y137892D01*
X339492Y137500D01*
X339523Y137108D01*
X339615Y136725D01*
X339766Y136362D01*
X339971Y136026D01*
X340227Y135727D01*
X340526Y135471D01*
X340862Y135266D01*
X341225Y135115D01*
X341608Y135023D01*
X342000Y134992D01*
X342392Y135023D01*
X342775Y135115D01*
X343138Y135266D01*
X343474Y135471D01*
X343496Y135490D01*
Y7500D01*
X336497D01*
Y363694D01*
X336500Y363693D01*
X336783Y363716D01*
X337058Y363782D01*
X337320Y363890D01*
X337562Y364038D01*
X337777Y364223D01*
X337962Y364438D01*
X338110Y364680D01*
X338218Y364942D01*
X338284Y365217D01*
X338301Y365500D01*
X338284Y365783D01*
X338218Y366058D01*
X338110Y366320D01*
X337962Y366562D01*
X337777Y366777D01*
X337562Y366962D01*
X337320Y367110D01*
X337058Y367218D01*
X336783Y367284D01*
X336500Y367307D01*
X336497Y367306D01*
Y371000D01*
G37*
G36*
X333496D02*X336497D01*
Y367306D01*
X336217Y367284D01*
X335942Y367218D01*
X335680Y367110D01*
X335438Y366962D01*
X335223Y366777D01*
X335038Y366562D01*
X334890Y366320D01*
X334782Y366058D01*
X334716Y365783D01*
X334693Y365500D01*
X334716Y365217D01*
X334782Y364942D01*
X334890Y364680D01*
X335038Y364438D01*
X335223Y364223D01*
X335438Y364038D01*
X335680Y363890D01*
X335942Y363782D01*
X336217Y363716D01*
X336497Y363694D01*
Y7500D01*
X334000D01*
X333496Y8004D01*
Y289993D01*
X333500Y289992D01*
X333892Y290023D01*
X334275Y290115D01*
X334638Y290266D01*
X334974Y290471D01*
X335273Y290727D01*
X335529Y291026D01*
X335734Y291362D01*
X335885Y291725D01*
X335977Y292108D01*
X336000Y292500D01*
X335977Y292892D01*
X335885Y293275D01*
X335734Y293638D01*
X335529Y293974D01*
X335273Y294273D01*
X334974Y294529D01*
X334638Y294734D01*
X334275Y294885D01*
X333892Y294977D01*
X333500Y295008D01*
X333496Y295007D01*
Y371000D01*
G37*
G36*
X331497Y290996D02*X331727Y290727D01*
X332026Y290471D01*
X332362Y290266D01*
X332725Y290115D01*
X333108Y290023D01*
X333496Y289993D01*
Y8004D01*
X331497Y10003D01*
Y227694D01*
X331500Y227693D01*
X331783Y227716D01*
X332058Y227782D01*
X332320Y227890D01*
X332562Y228038D01*
X332777Y228223D01*
X332962Y228438D01*
X333110Y228680D01*
X333218Y228942D01*
X333284Y229217D01*
X333301Y229500D01*
X333284Y229783D01*
X333218Y230058D01*
X333110Y230320D01*
X332962Y230562D01*
X332777Y230777D01*
X332562Y230962D01*
X332320Y231110D01*
X332058Y231218D01*
X331783Y231284D01*
X331500Y231307D01*
X331497Y231306D01*
Y290996D01*
G37*
G36*
Y371000D02*X333496D01*
Y295007D01*
X333108Y294977D01*
X332725Y294885D01*
X332362Y294734D01*
X332026Y294529D01*
X331727Y294273D01*
X331497Y294004D01*
Y318491D01*
X331773Y318727D01*
X332029Y319026D01*
X332234Y319362D01*
X332385Y319725D01*
X332477Y320108D01*
X332500Y320500D01*
X332477Y320892D01*
X332385Y321275D01*
X332234Y321638D01*
X332029Y321974D01*
X331773Y322273D01*
X331497Y322509D01*
Y335194D01*
X331500Y335193D01*
X331783Y335216D01*
X332058Y335282D01*
X332320Y335390D01*
X332562Y335538D01*
X332777Y335723D01*
X332962Y335938D01*
X333110Y336180D01*
X333218Y336442D01*
X333284Y336717D01*
X333301Y337000D01*
X333284Y337283D01*
X333218Y337558D01*
X333110Y337820D01*
X332962Y338062D01*
X332777Y338277D01*
X332562Y338462D01*
X332320Y338610D01*
X332058Y338718D01*
X331783Y338784D01*
X331500Y338807D01*
X331497Y338806D01*
Y371000D01*
G37*
G36*
Y322509D02*X331474Y322529D01*
X331138Y322734D01*
X330775Y322885D01*
X330392Y322977D01*
X330000Y323008D01*
X329608Y322977D01*
X329225Y322885D01*
X328997Y322791D01*
Y324194D01*
X329000Y324193D01*
X329283Y324216D01*
X329558Y324282D01*
X329820Y324390D01*
X330062Y324538D01*
X330277Y324723D01*
X330462Y324938D01*
X330610Y325180D01*
X330718Y325442D01*
X330784Y325717D01*
X330801Y326000D01*
X330784Y326283D01*
X330718Y326558D01*
X330610Y326820D01*
X330462Y327062D01*
X330277Y327277D01*
X330062Y327462D01*
X329820Y327610D01*
X329558Y327718D01*
X329283Y327784D01*
X329000Y327807D01*
X328997Y327806D01*
Y334767D01*
X329058Y334782D01*
X329320Y334890D01*
X329562Y335038D01*
X329777Y335223D01*
X329962Y335438D01*
X330110Y335680D01*
X330158Y335798D01*
X330223Y335723D01*
X330438Y335538D01*
X330680Y335390D01*
X330942Y335282D01*
X331217Y335216D01*
X331497Y335194D01*
Y322509D01*
G37*
G36*
Y294004D02*X331471Y293974D01*
X331266Y293638D01*
X331115Y293275D01*
X331023Y292892D01*
X330992Y292500D01*
X331023Y292108D01*
X331115Y291725D01*
X331266Y291362D01*
X331471Y291026D01*
X331497Y290996D01*
Y231306D01*
X331217Y231284D01*
X330942Y231218D01*
X330680Y231110D01*
X330438Y230962D01*
X330223Y230777D01*
X330038Y230562D01*
X329890Y230320D01*
X329782Y230058D01*
X329716Y229783D01*
X329693Y229500D01*
X329716Y229217D01*
X329782Y228942D01*
X329890Y228680D01*
X330038Y228438D01*
X330223Y228223D01*
X330438Y228038D01*
X330680Y227890D01*
X330942Y227782D01*
X331217Y227716D01*
X331497Y227694D01*
Y10003D01*
X331000Y10500D01*
Y216500D01*
X328997D01*
Y218767D01*
X329058Y218782D01*
X329320Y218890D01*
X329562Y219038D01*
X329777Y219223D01*
X329962Y219438D01*
X330110Y219680D01*
X330218Y219942D01*
X330284Y220217D01*
X330301Y220500D01*
X330284Y220783D01*
X330218Y221058D01*
X330110Y221320D01*
X329962Y221562D01*
X329777Y221777D01*
X329562Y221962D01*
X329320Y222110D01*
X329058Y222218D01*
X328997Y222233D01*
Y318209D01*
X329225Y318115D01*
X329608Y318023D01*
X330000Y317992D01*
X330392Y318023D01*
X330775Y318115D01*
X331138Y318266D01*
X331474Y318471D01*
X331497Y318491D01*
Y294004D01*
G37*
G36*
X328997Y371000D02*X331497D01*
Y338806D01*
X331217Y338784D01*
X330942Y338718D01*
X330680Y338610D01*
X330438Y338462D01*
X330223Y338277D01*
X330038Y338062D01*
X329890Y337820D01*
X329842Y337702D01*
X329777Y337777D01*
X329562Y337962D01*
X329320Y338110D01*
X329058Y338218D01*
X328997Y338233D01*
Y371000D01*
G37*
G36*
X320496D02*X328997D01*
Y338233D01*
X328783Y338284D01*
X328500Y338307D01*
X328217Y338284D01*
X327942Y338218D01*
X327680Y338110D01*
X327438Y337962D01*
X327223Y337777D01*
X327038Y337562D01*
X326890Y337320D01*
X326782Y337058D01*
X326716Y336783D01*
X326693Y336500D01*
X326716Y336217D01*
X326782Y335942D01*
X326890Y335680D01*
X327038Y335438D01*
X327223Y335223D01*
X327438Y335038D01*
X327680Y334890D01*
X327942Y334782D01*
X328217Y334716D01*
X328500Y334693D01*
X328783Y334716D01*
X328997Y334767D01*
Y327806D01*
X328717Y327784D01*
X328442Y327718D01*
X328180Y327610D01*
X327938Y327462D01*
X327723Y327277D01*
X327538Y327062D01*
X327390Y326820D01*
X327282Y326558D01*
X327216Y326283D01*
X327193Y326000D01*
X327216Y325717D01*
X327282Y325442D01*
X327390Y325180D01*
X327538Y324938D01*
X327723Y324723D01*
X327938Y324538D01*
X328180Y324390D01*
X328442Y324282D01*
X328717Y324216D01*
X328997Y324194D01*
Y322791D01*
X328862Y322734D01*
X328526Y322529D01*
X328227Y322273D01*
X327971Y321974D01*
X327766Y321638D01*
X327615Y321275D01*
X327523Y320892D01*
X327492Y320500D01*
X327523Y320108D01*
X327615Y319725D01*
X327766Y319362D01*
X327971Y319026D01*
X328227Y318727D01*
X328526Y318471D01*
X328862Y318266D01*
X328997Y318209D01*
Y222233D01*
X328783Y222284D01*
X328500Y222307D01*
X328217Y222284D01*
X327942Y222218D01*
X327680Y222110D01*
X327438Y221962D01*
X327223Y221777D01*
X327038Y221562D01*
X326890Y221320D01*
X326782Y221058D01*
X326716Y220783D01*
X326693Y220500D01*
X326716Y220217D01*
X326782Y219942D01*
X326890Y219680D01*
X327038Y219438D01*
X327223Y219223D01*
X327438Y219038D01*
X327680Y218890D01*
X327942Y218782D01*
X328217Y218716D01*
X328500Y218693D01*
X328783Y218716D01*
X328997Y218767D01*
Y216500D01*
X320496D01*
Y249993D01*
X320500Y249992D01*
X320892Y250023D01*
X321275Y250115D01*
X321638Y250266D01*
X321974Y250471D01*
X322273Y250727D01*
X322529Y251026D01*
X322734Y251362D01*
X322885Y251725D01*
X322977Y252108D01*
X323000Y252500D01*
X322977Y252892D01*
X322885Y253275D01*
X322734Y253638D01*
X322529Y253974D01*
X322273Y254273D01*
X321974Y254529D01*
X321638Y254734D01*
X321275Y254885D01*
X320892Y254977D01*
X320500Y255008D01*
X320496Y255007D01*
Y302993D01*
X320500Y302992D01*
X320892Y303023D01*
X321275Y303115D01*
X321638Y303266D01*
X321974Y303471D01*
X322273Y303727D01*
X322529Y304026D01*
X322734Y304362D01*
X322885Y304725D01*
X322977Y305108D01*
X323000Y305500D01*
X322977Y305892D01*
X322885Y306275D01*
X322734Y306638D01*
X322529Y306974D01*
X322273Y307273D01*
X321974Y307529D01*
X321638Y307734D01*
X321275Y307885D01*
X320892Y307977D01*
X320500Y308008D01*
X320496Y308007D01*
Y322493D01*
X320500Y322492D01*
X320892Y322523D01*
X321275Y322615D01*
X321638Y322766D01*
X321974Y322971D01*
X322273Y323227D01*
X322529Y323526D01*
X322734Y323862D01*
X322885Y324225D01*
X322977Y324608D01*
X323000Y325000D01*
X322977Y325392D01*
X322885Y325775D01*
X322734Y326138D01*
X322529Y326474D01*
X322273Y326773D01*
X321974Y327029D01*
X321638Y327234D01*
X321275Y327385D01*
X320892Y327477D01*
X320500Y327508D01*
X320496Y327507D01*
Y331548D01*
X320775Y331615D01*
X321138Y331766D01*
X321474Y331971D01*
X321773Y332227D01*
X322029Y332526D01*
X322234Y332862D01*
X322385Y333225D01*
X322477Y333608D01*
X322500Y334000D01*
X322477Y334392D01*
X322385Y334775D01*
X322234Y335138D01*
X322029Y335474D01*
X321773Y335773D01*
X321474Y336029D01*
X321138Y336234D01*
X320775Y336385D01*
X320496Y336452D01*
Y371000D01*
G37*
G36*
X317997Y252437D02*X318023Y252108D01*
X318115Y251725D01*
X318266Y251362D01*
X318471Y251026D01*
X318727Y250727D01*
X319026Y250471D01*
X319362Y250266D01*
X319725Y250115D01*
X320108Y250023D01*
X320496Y249993D01*
Y216500D01*
X317997D01*
Y252437D01*
G37*
G36*
Y305437D02*X318023Y305108D01*
X318115Y304725D01*
X318266Y304362D01*
X318471Y304026D01*
X318727Y303727D01*
X319026Y303471D01*
X319362Y303266D01*
X319725Y303115D01*
X320108Y303023D01*
X320496Y302993D01*
Y255007D01*
X320108Y254977D01*
X319725Y254885D01*
X319362Y254734D01*
X319026Y254529D01*
X318727Y254273D01*
X318471Y253974D01*
X318266Y253638D01*
X318115Y253275D01*
X318023Y252892D01*
X317997Y252563D01*
Y305437D01*
G37*
G36*
Y324937D02*X318023Y324608D01*
X318115Y324225D01*
X318266Y323862D01*
X318471Y323526D01*
X318727Y323227D01*
X319026Y322971D01*
X319362Y322766D01*
X319725Y322615D01*
X320108Y322523D01*
X320496Y322493D01*
Y308007D01*
X320108Y307977D01*
X319725Y307885D01*
X319362Y307734D01*
X319026Y307529D01*
X318727Y307273D01*
X318471Y306974D01*
X318266Y306638D01*
X318115Y306275D01*
X318023Y305892D01*
X317997Y305563D01*
Y324937D01*
G37*
G36*
Y332496D02*X318227Y332227D01*
X318526Y331971D01*
X318862Y331766D01*
X319225Y331615D01*
X319608Y331523D01*
X320000Y331492D01*
X320392Y331523D01*
X320496Y331548D01*
Y327507D01*
X320108Y327477D01*
X319725Y327385D01*
X319362Y327234D01*
X319026Y327029D01*
X318727Y326773D01*
X318471Y326474D01*
X318266Y326138D01*
X318115Y325775D01*
X318023Y325392D01*
X317997Y325063D01*
Y332496D01*
G37*
G36*
Y371000D02*X320496D01*
Y336452D01*
X320392Y336477D01*
X320000Y336508D01*
X319608Y336477D01*
X319225Y336385D01*
X318862Y336234D01*
X318526Y336029D01*
X318227Y335773D01*
X317997Y335504D01*
Y351194D01*
X318000Y351193D01*
X318283Y351216D01*
X318558Y351282D01*
X318820Y351390D01*
X319062Y351538D01*
X319277Y351723D01*
X319462Y351938D01*
X319610Y352180D01*
X319718Y352442D01*
X319784Y352717D01*
X319801Y353000D01*
X319784Y353283D01*
X319718Y353558D01*
X319610Y353820D01*
X319462Y354062D01*
X319277Y354277D01*
X319062Y354462D01*
X318820Y354610D01*
X318558Y354718D01*
X318283Y354784D01*
X318000Y354807D01*
X317997Y354806D01*
Y371000D01*
G37*
G36*
X311496D02*X317997D01*
Y354806D01*
X317717Y354784D01*
X317442Y354718D01*
X317180Y354610D01*
X316938Y354462D01*
X316723Y354277D01*
X316538Y354062D01*
X316390Y353820D01*
X316282Y353558D01*
X316216Y353283D01*
X316193Y353000D01*
X316216Y352717D01*
X316282Y352442D01*
X316390Y352180D01*
X316538Y351938D01*
X316723Y351723D01*
X316938Y351538D01*
X317180Y351390D01*
X317442Y351282D01*
X317717Y351216D01*
X317997Y351194D01*
Y335504D01*
X317971Y335474D01*
X317766Y335138D01*
X317615Y334775D01*
X317523Y334392D01*
X317492Y334000D01*
X317523Y333608D01*
X317615Y333225D01*
X317766Y332862D01*
X317971Y332526D01*
X317997Y332496D01*
Y325063D01*
X317992Y325000D01*
X317997Y324937D01*
Y305563D01*
X317992Y305500D01*
X317997Y305437D01*
Y252563D01*
X317992Y252500D01*
X317997Y252437D01*
Y216500D01*
X311496D01*
Y238493D01*
X311500Y238492D01*
X311892Y238523D01*
X312275Y238615D01*
X312638Y238766D01*
X312974Y238971D01*
X313273Y239227D01*
X313529Y239526D01*
X313734Y239862D01*
X313885Y240225D01*
X313977Y240608D01*
X314000Y241000D01*
X313977Y241392D01*
X313885Y241775D01*
X313734Y242138D01*
X313529Y242474D01*
X313273Y242773D01*
X312974Y243029D01*
X312638Y243234D01*
X312275Y243385D01*
X311892Y243477D01*
X311500Y243508D01*
X311496Y243507D01*
Y257451D01*
X311523Y257108D01*
X311615Y256725D01*
X311766Y256362D01*
X311971Y256026D01*
X312227Y255727D01*
X312526Y255471D01*
X312862Y255266D01*
X313225Y255115D01*
X313608Y255023D01*
X314000Y254992D01*
X314392Y255023D01*
X314775Y255115D01*
X315138Y255266D01*
X315474Y255471D01*
X315773Y255727D01*
X316029Y256026D01*
X316234Y256362D01*
X316385Y256725D01*
X316477Y257108D01*
X316500Y257500D01*
X316477Y257892D01*
X316385Y258275D01*
X316234Y258638D01*
X316029Y258974D01*
X315773Y259273D01*
X315474Y259529D01*
X315138Y259734D01*
X314775Y259885D01*
X314392Y259977D01*
X314000Y260008D01*
X313608Y259977D01*
X313225Y259885D01*
X312862Y259734D01*
X312526Y259529D01*
X312227Y259273D01*
X311971Y258974D01*
X311766Y258638D01*
X311615Y258275D01*
X311523Y257892D01*
X311496Y257549D01*
Y371000D01*
G37*
G36*
X306996D02*X311496D01*
Y257549D01*
X311492Y257500D01*
X311496Y257451D01*
Y243507D01*
X311108Y243477D01*
X310725Y243385D01*
X310362Y243234D01*
X310026Y243029D01*
X309727Y242773D01*
X309471Y242474D01*
X309266Y242138D01*
X309115Y241775D01*
X309023Y241392D01*
X308992Y241000D01*
X309023Y240608D01*
X309115Y240225D01*
X309266Y239862D01*
X309471Y239526D01*
X309727Y239227D01*
X310026Y238971D01*
X310362Y238766D01*
X310725Y238615D01*
X311108Y238523D01*
X311496Y238493D01*
Y216500D01*
X306996D01*
Y303493D01*
X307000Y303492D01*
X307392Y303523D01*
X307775Y303615D01*
X308138Y303766D01*
X308474Y303971D01*
X308773Y304227D01*
X309029Y304526D01*
X309234Y304862D01*
X309385Y305225D01*
X309477Y305608D01*
X309500Y306000D01*
X309477Y306392D01*
X309385Y306775D01*
X309234Y307138D01*
X309029Y307474D01*
X308773Y307773D01*
X308474Y308029D01*
X308138Y308234D01*
X307775Y308385D01*
X307392Y308477D01*
X307000Y308508D01*
X306996Y308507D01*
Y340998D01*
X307062Y341038D01*
X307277Y341223D01*
X307462Y341438D01*
X307610Y341680D01*
X307718Y341942D01*
X307784Y342217D01*
X307801Y342500D01*
X307784Y342783D01*
X307718Y343058D01*
X307610Y343320D01*
X307462Y343562D01*
X307277Y343777D01*
X307062Y343962D01*
X306996Y344002D01*
Y365507D01*
X307038Y365438D01*
X307223Y365223D01*
X307438Y365038D01*
X307680Y364890D01*
X307942Y364782D01*
X308217Y364716D01*
X308500Y364693D01*
X308783Y364716D01*
X309058Y364782D01*
X309320Y364890D01*
X309562Y365038D01*
X309777Y365223D01*
X309962Y365438D01*
X310110Y365680D01*
X310218Y365942D01*
X310284Y366217D01*
X310301Y366500D01*
X310284Y366783D01*
X310218Y367058D01*
X310110Y367320D01*
X309962Y367562D01*
X309777Y367777D01*
X309562Y367962D01*
X309320Y368110D01*
X309058Y368218D01*
X308783Y368284D01*
X308500Y368307D01*
X308217Y368284D01*
X307942Y368218D01*
X307680Y368110D01*
X307438Y367962D01*
X307223Y367777D01*
X307038Y367562D01*
X306996Y367493D01*
Y371000D01*
G37*
G36*
Y216500D02*X303496D01*
Y248050D01*
X303608Y248023D01*
X304000Y247992D01*
X304392Y248023D01*
X304775Y248115D01*
X305138Y248266D01*
X305474Y248471D01*
X305773Y248727D01*
X306029Y249026D01*
X306234Y249362D01*
X306385Y249725D01*
X306477Y250108D01*
X306500Y250500D01*
X306477Y250892D01*
X306385Y251275D01*
X306234Y251638D01*
X306029Y251974D01*
X305773Y252273D01*
X305474Y252529D01*
X305138Y252734D01*
X304775Y252885D01*
X304392Y252977D01*
X304000Y253008D01*
X303608Y252977D01*
X303496Y252950D01*
Y279207D01*
X303638Y279266D01*
X303974Y279471D01*
X304273Y279727D01*
X304529Y280026D01*
X304734Y280362D01*
X304885Y280725D01*
X304977Y281108D01*
X305000Y281500D01*
X304977Y281892D01*
X304885Y282275D01*
X304734Y282638D01*
X304529Y282974D01*
X304273Y283273D01*
X303974Y283529D01*
X303638Y283734D01*
X303496Y283793D01*
Y307048D01*
X303775Y307115D01*
X304138Y307266D01*
X304474Y307471D01*
X304773Y307727D01*
X305029Y308026D01*
X305234Y308362D01*
X305385Y308725D01*
X305477Y309108D01*
X305500Y309500D01*
X305477Y309892D01*
X305385Y310275D01*
X305234Y310638D01*
X305029Y310974D01*
X304773Y311273D01*
X304474Y311529D01*
X304138Y311734D01*
X303775Y311885D01*
X303496Y311952D01*
Y315993D01*
X303500Y315992D01*
X303892Y316023D01*
X304275Y316115D01*
X304638Y316266D01*
X304974Y316471D01*
X305273Y316727D01*
X305529Y317026D01*
X305734Y317362D01*
X305885Y317725D01*
X305977Y318108D01*
X306000Y318500D01*
X305977Y318892D01*
X305885Y319275D01*
X305734Y319638D01*
X305529Y319974D01*
X305273Y320273D01*
X304974Y320529D01*
X304638Y320734D01*
X304275Y320885D01*
X303892Y320977D01*
X303500Y321008D01*
X303496Y321007D01*
Y323194D01*
X303500Y323193D01*
X303783Y323216D01*
X304058Y323282D01*
X304320Y323390D01*
X304562Y323538D01*
X304777Y323723D01*
X304962Y323938D01*
X305110Y324180D01*
X305218Y324442D01*
X305284Y324717D01*
X305301Y325000D01*
X305284Y325283D01*
X305218Y325558D01*
X305110Y325820D01*
X304962Y326062D01*
X304777Y326277D01*
X304562Y326462D01*
X304320Y326610D01*
X304058Y326718D01*
X303783Y326784D01*
X303500Y326807D01*
X303496Y326806D01*
Y339767D01*
X303558Y339782D01*
X303820Y339890D01*
X304062Y340038D01*
X304277Y340223D01*
X304462Y340438D01*
X304610Y340680D01*
X304718Y340942D01*
X304775Y341178D01*
X304938Y341038D01*
X305180Y340890D01*
X305442Y340782D01*
X305717Y340716D01*
X306000Y340693D01*
X306283Y340716D01*
X306558Y340782D01*
X306820Y340890D01*
X306996Y340998D01*
Y308507D01*
X306608Y308477D01*
X306225Y308385D01*
X305862Y308234D01*
X305526Y308029D01*
X305227Y307773D01*
X304971Y307474D01*
X304766Y307138D01*
X304615Y306775D01*
X304523Y306392D01*
X304492Y306000D01*
X304523Y305608D01*
X304615Y305225D01*
X304766Y304862D01*
X304971Y304526D01*
X305227Y304227D01*
X305526Y303971D01*
X305862Y303766D01*
X306225Y303615D01*
X306608Y303523D01*
X306996Y303493D01*
Y216500D01*
G37*
G36*
X303496Y371000D02*X306996D01*
Y367493D01*
X306890Y367320D01*
X306782Y367058D01*
X306716Y366783D01*
X306693Y366500D01*
X306716Y366217D01*
X306782Y365942D01*
X306890Y365680D01*
X306996Y365507D01*
Y344002D01*
X306820Y344110D01*
X306558Y344218D01*
X306283Y344284D01*
X306000Y344307D01*
X305717Y344284D01*
X305442Y344218D01*
X305180Y344110D01*
X304938Y343962D01*
X304723Y343777D01*
X304538Y343562D01*
X304390Y343320D01*
X304282Y343058D01*
X304225Y342822D01*
X304062Y342962D01*
X303820Y343110D01*
X303558Y343218D01*
X303496Y343233D01*
Y371000D01*
G37*
G36*
X299997Y281437D02*X300023Y281108D01*
X300115Y280725D01*
X300266Y280362D01*
X300471Y280026D01*
X300727Y279727D01*
X301026Y279471D01*
X301362Y279266D01*
X301725Y279115D01*
X302108Y279023D01*
X302500Y278992D01*
X302892Y279023D01*
X303275Y279115D01*
X303496Y279207D01*
Y252950D01*
X303225Y252885D01*
X302862Y252734D01*
X302526Y252529D01*
X302227Y252273D01*
X301971Y251974D01*
X301766Y251638D01*
X301615Y251275D01*
X301523Y250892D01*
X301492Y250500D01*
X301523Y250108D01*
X301615Y249725D01*
X301766Y249362D01*
X301971Y249026D01*
X302227Y248727D01*
X302526Y248471D01*
X302862Y248266D01*
X303225Y248115D01*
X303496Y248050D01*
Y216500D01*
X299997D01*
Y221694D01*
X300000Y221693D01*
X300283Y221716D01*
X300558Y221782D01*
X300820Y221890D01*
X301062Y222038D01*
X301277Y222223D01*
X301462Y222438D01*
X301610Y222680D01*
X301718Y222942D01*
X301784Y223217D01*
X301801Y223500D01*
X301784Y223783D01*
X301718Y224058D01*
X301610Y224320D01*
X301462Y224562D01*
X301277Y224777D01*
X301062Y224962D01*
X300820Y225110D01*
X300558Y225218D01*
X300283Y225284D01*
X300000Y225307D01*
X299997Y225306D01*
Y281437D01*
G37*
G36*
Y371000D02*X303496D01*
Y343233D01*
X303283Y343284D01*
X303000Y343307D01*
X302717Y343284D01*
X302442Y343218D01*
X302180Y343110D01*
X301938Y342962D01*
X301723Y342777D01*
X301538Y342562D01*
X301390Y342320D01*
X301282Y342058D01*
X301216Y341783D01*
X301193Y341500D01*
X301216Y341217D01*
X301282Y340942D01*
X301390Y340680D01*
X301538Y340438D01*
X301723Y340223D01*
X301938Y340038D01*
X302180Y339890D01*
X302442Y339782D01*
X302717Y339716D01*
X303000Y339693D01*
X303283Y339716D01*
X303496Y339767D01*
Y326806D01*
X303217Y326784D01*
X302942Y326718D01*
X302680Y326610D01*
X302438Y326462D01*
X302223Y326277D01*
X302038Y326062D01*
X301890Y325820D01*
X301782Y325558D01*
X301716Y325283D01*
X301693Y325000D01*
X301716Y324717D01*
X301782Y324442D01*
X301890Y324180D01*
X302038Y323938D01*
X302223Y323723D01*
X302438Y323538D01*
X302680Y323390D01*
X302942Y323282D01*
X303217Y323216D01*
X303496Y323194D01*
Y321007D01*
X303108Y320977D01*
X302725Y320885D01*
X302362Y320734D01*
X302026Y320529D01*
X301727Y320273D01*
X301471Y319974D01*
X301266Y319638D01*
X301115Y319275D01*
X301023Y318892D01*
X300992Y318500D01*
X301023Y318108D01*
X301115Y317725D01*
X301266Y317362D01*
X301471Y317026D01*
X301727Y316727D01*
X302026Y316471D01*
X302362Y316266D01*
X302725Y316115D01*
X303108Y316023D01*
X303496Y315993D01*
Y311952D01*
X303392Y311977D01*
X303000Y312008D01*
X302608Y311977D01*
X302225Y311885D01*
X301862Y311734D01*
X301526Y311529D01*
X301227Y311273D01*
X300971Y310974D01*
X300766Y310638D01*
X300615Y310275D01*
X300523Y309892D01*
X300492Y309500D01*
X300523Y309108D01*
X300615Y308725D01*
X300766Y308362D01*
X300971Y308026D01*
X301227Y307727D01*
X301526Y307471D01*
X301862Y307266D01*
X302225Y307115D01*
X302608Y307023D01*
X303000Y306992D01*
X303392Y307023D01*
X303496Y307048D01*
Y283793D01*
X303275Y283885D01*
X302892Y283977D01*
X302500Y284008D01*
X302108Y283977D01*
X301725Y283885D01*
X301362Y283734D01*
X301026Y283529D01*
X300727Y283273D01*
X300471Y282974D01*
X300266Y282638D01*
X300115Y282275D01*
X300023Y281892D01*
X299997Y281563D01*
Y324267D01*
X300058Y324282D01*
X300320Y324390D01*
X300562Y324538D01*
X300777Y324723D01*
X300962Y324938D01*
X301110Y325180D01*
X301218Y325442D01*
X301284Y325717D01*
X301301Y326000D01*
X301284Y326283D01*
X301218Y326558D01*
X301110Y326820D01*
X300962Y327062D01*
X300777Y327277D01*
X300562Y327462D01*
X300320Y327610D01*
X300058Y327718D01*
X299997Y327733D01*
Y334194D01*
X300000Y334193D01*
X300283Y334216D01*
X300558Y334282D01*
X300820Y334390D01*
X301062Y334538D01*
X301277Y334723D01*
X301462Y334938D01*
X301610Y335180D01*
X301718Y335442D01*
X301784Y335717D01*
X301801Y336000D01*
X301784Y336283D01*
X301718Y336558D01*
X301610Y336820D01*
X301462Y337062D01*
X301277Y337277D01*
X301062Y337462D01*
X300820Y337610D01*
X300558Y337718D01*
X300283Y337784D01*
X300000Y337807D01*
X299997Y337806D01*
Y371000D01*
G37*
G36*
X296497Y332002D02*X296680Y331890D01*
X296942Y331782D01*
X297217Y331716D01*
X297500Y331693D01*
X297783Y331716D01*
X298058Y331782D01*
X298320Y331890D01*
X298562Y332038D01*
X298777Y332223D01*
X298962Y332438D01*
X299110Y332680D01*
X299218Y332942D01*
X299284Y333217D01*
X299301Y333500D01*
X299284Y333783D01*
X299218Y334058D01*
X299110Y334320D01*
X298999Y334501D01*
X299180Y334390D01*
X299442Y334282D01*
X299717Y334216D01*
X299997Y334194D01*
Y327733D01*
X299783Y327784D01*
X299500Y327807D01*
X299217Y327784D01*
X298942Y327718D01*
X298680Y327610D01*
X298438Y327462D01*
X298223Y327277D01*
X298038Y327062D01*
X297890Y326820D01*
X297782Y326558D01*
X297716Y326283D01*
X297693Y326000D01*
X297716Y325717D01*
X297782Y325442D01*
X297890Y325180D01*
X298038Y324938D01*
X298223Y324723D01*
X298438Y324538D01*
X298680Y324390D01*
X298942Y324282D01*
X299217Y324216D01*
X299500Y324193D01*
X299783Y324216D01*
X299997Y324267D01*
Y281563D01*
X299992Y281500D01*
X299997Y281437D01*
Y225306D01*
X299717Y225284D01*
X299442Y225218D01*
X299180Y225110D01*
X298938Y224962D01*
X298723Y224777D01*
X298538Y224562D01*
X298390Y224320D01*
X298282Y224058D01*
X298216Y223783D01*
X298193Y223500D01*
X298216Y223217D01*
X298282Y222942D01*
X298390Y222680D01*
X298538Y222438D01*
X298723Y222223D01*
X298938Y222038D01*
X299180Y221890D01*
X299442Y221782D01*
X299717Y221716D01*
X299997Y221694D01*
Y216500D01*
X296497D01*
Y332002D01*
G37*
G36*
Y371000D02*X299997D01*
Y337806D01*
X299717Y337784D01*
X299442Y337718D01*
X299180Y337610D01*
X298938Y337462D01*
X298723Y337277D01*
X298538Y337062D01*
X298390Y336820D01*
X298282Y336558D01*
X298216Y336283D01*
X298193Y336000D01*
X298216Y335717D01*
X298282Y335442D01*
X298390Y335180D01*
X298501Y334999D01*
X298320Y335110D01*
X298058Y335218D01*
X297783Y335284D01*
X297500Y335307D01*
X297217Y335284D01*
X296942Y335218D01*
X296680Y335110D01*
X296497Y334998D01*
Y340694D01*
X296500Y340693D01*
X296783Y340716D01*
X297058Y340782D01*
X297320Y340890D01*
X297562Y341038D01*
X297777Y341223D01*
X297962Y341438D01*
X298110Y341680D01*
X298218Y341942D01*
X298284Y342217D01*
X298301Y342500D01*
X298284Y342783D01*
X298218Y343058D01*
X298110Y343320D01*
X297962Y343562D01*
X297777Y343777D01*
X297562Y343962D01*
X297320Y344110D01*
X297058Y344218D01*
X296783Y344284D01*
X296500Y344307D01*
X296497Y344306D01*
Y371000D01*
G37*
G36*
X293997D02*X296497D01*
Y344306D01*
X296217Y344284D01*
X295942Y344218D01*
X295680Y344110D01*
X295438Y343962D01*
X295223Y343777D01*
X295038Y343562D01*
X294890Y343320D01*
X294782Y343058D01*
X294716Y342783D01*
X294693Y342500D01*
X294716Y342217D01*
X294782Y341942D01*
X294890Y341680D01*
X295038Y341438D01*
X295223Y341223D01*
X295438Y341038D01*
X295680Y340890D01*
X295942Y340782D01*
X296217Y340716D01*
X296497Y340694D01*
Y334998D01*
X296438Y334962D01*
X296223Y334777D01*
X296038Y334562D01*
X295890Y334320D01*
X295782Y334058D01*
X295716Y333783D01*
X295693Y333500D01*
X295716Y333217D01*
X295782Y332942D01*
X295890Y332680D01*
X296038Y332438D01*
X296223Y332223D01*
X296438Y332038D01*
X296497Y332002D01*
Y216500D01*
X293997D01*
Y321694D01*
X294000Y321693D01*
X294283Y321716D01*
X294558Y321782D01*
X294820Y321890D01*
X295062Y322038D01*
X295277Y322223D01*
X295462Y322438D01*
X295610Y322680D01*
X295718Y322942D01*
X295784Y323217D01*
X295801Y323500D01*
X295784Y323783D01*
X295718Y324058D01*
X295610Y324320D01*
X295462Y324562D01*
X295277Y324777D01*
X295062Y324962D01*
X294820Y325110D01*
X294558Y325218D01*
X294283Y325284D01*
X294000Y325307D01*
X293997Y325306D01*
Y336694D01*
X294000Y336693D01*
X294283Y336716D01*
X294558Y336782D01*
X294820Y336890D01*
X295062Y337038D01*
X295277Y337223D01*
X295462Y337438D01*
X295610Y337680D01*
X295718Y337942D01*
X295784Y338217D01*
X295801Y338500D01*
X295784Y338783D01*
X295718Y339058D01*
X295610Y339320D01*
X295462Y339562D01*
X295277Y339777D01*
X295062Y339962D01*
X294820Y340110D01*
X294558Y340218D01*
X294283Y340284D01*
X294000Y340307D01*
X293997Y340306D01*
Y371000D01*
G37*
G36*
X287997D02*X293997D01*
Y340306D01*
X293717Y340284D01*
X293442Y340218D01*
X293180Y340110D01*
X292938Y339962D01*
X292723Y339777D01*
X292538Y339562D01*
X292390Y339320D01*
X292282Y339058D01*
X292216Y338783D01*
X292193Y338500D01*
X292216Y338217D01*
X292282Y337942D01*
X292390Y337680D01*
X292538Y337438D01*
X292723Y337223D01*
X292938Y337038D01*
X293180Y336890D01*
X293442Y336782D01*
X293717Y336716D01*
X293997Y336694D01*
Y325306D01*
X293717Y325284D01*
X293442Y325218D01*
X293180Y325110D01*
X292938Y324962D01*
X292723Y324777D01*
X292538Y324562D01*
X292390Y324320D01*
X292282Y324058D01*
X292216Y323783D01*
X292193Y323500D01*
X292216Y323217D01*
X292282Y322942D01*
X292390Y322680D01*
X292538Y322438D01*
X292723Y322223D01*
X292938Y322038D01*
X293180Y321890D01*
X293442Y321782D01*
X293717Y321716D01*
X293997Y321694D01*
Y216500D01*
X287997D01*
Y240953D01*
X288000Y241000D01*
X287997Y241047D01*
Y323694D01*
X288000Y323693D01*
X288283Y323716D01*
X288558Y323782D01*
X288820Y323890D01*
X289062Y324038D01*
X289277Y324223D01*
X289462Y324438D01*
X289610Y324680D01*
X289718Y324942D01*
X289784Y325217D01*
X289801Y325500D01*
X289784Y325783D01*
X289718Y326058D01*
X289610Y326320D01*
X289462Y326562D01*
X289277Y326777D01*
X289062Y326962D01*
X288820Y327110D01*
X288558Y327218D01*
X288283Y327284D01*
X288000Y327307D01*
X287997Y327306D01*
Y371000D01*
G37*
G36*
Y216500D02*X285496D01*
Y238493D01*
X285500Y238492D01*
X285892Y238523D01*
X286275Y238615D01*
X286638Y238766D01*
X286974Y238971D01*
X287273Y239227D01*
X287529Y239526D01*
X287734Y239862D01*
X287885Y240225D01*
X287977Y240608D01*
X287997Y240953D01*
Y216500D01*
G37*
G36*
X285496Y371000D02*X287997D01*
Y327306D01*
X287717Y327284D01*
X287442Y327218D01*
X287180Y327110D01*
X286938Y326962D01*
X286723Y326777D01*
X286538Y326562D01*
X286390Y326320D01*
X286282Y326058D01*
X286216Y325783D01*
X286193Y325500D01*
X286216Y325217D01*
X286282Y324942D01*
X286390Y324680D01*
X286538Y324438D01*
X286723Y324223D01*
X286938Y324038D01*
X287180Y323890D01*
X287442Y323782D01*
X287717Y323716D01*
X287997Y323694D01*
Y241047D01*
X287977Y241392D01*
X287885Y241775D01*
X287734Y242138D01*
X287529Y242474D01*
X287273Y242773D01*
X286974Y243029D01*
X286638Y243234D01*
X286275Y243385D01*
X285892Y243477D01*
X285500Y243508D01*
X285496Y243507D01*
Y371000D01*
G37*
G36*
X281997D02*X285496D01*
Y243507D01*
X285108Y243477D01*
X284725Y243385D01*
X284362Y243234D01*
X284026Y243029D01*
X283727Y242773D01*
X283471Y242474D01*
X283266Y242138D01*
X283115Y241775D01*
X283023Y241392D01*
X282992Y241000D01*
X283023Y240608D01*
X283115Y240225D01*
X283266Y239862D01*
X283471Y239526D01*
X283727Y239227D01*
X284026Y238971D01*
X284362Y238766D01*
X284725Y238615D01*
X285108Y238523D01*
X285496Y238493D01*
Y216500D01*
X281997D01*
Y227694D01*
X282000Y227693D01*
X282283Y227716D01*
X282558Y227782D01*
X282820Y227890D01*
X283062Y228038D01*
X283277Y228223D01*
X283462Y228438D01*
X283610Y228680D01*
X283718Y228942D01*
X283784Y229217D01*
X283801Y229500D01*
X283784Y229783D01*
X283718Y230058D01*
X283610Y230320D01*
X283462Y230562D01*
X283277Y230777D01*
X283062Y230962D01*
X282820Y231110D01*
X282558Y231218D01*
X282283Y231284D01*
X282000Y231307D01*
X281997Y231306D01*
Y310777D01*
X282128Y310787D01*
X282511Y310879D01*
X282874Y311030D01*
X283210Y311235D01*
X283509Y311491D01*
X283765Y311790D01*
X283970Y312126D01*
X284121Y312489D01*
X284213Y312872D01*
X284236Y313264D01*
X284213Y313656D01*
X284121Y314039D01*
X283970Y314403D01*
X283765Y314738D01*
X283509Y315037D01*
X283210Y315293D01*
X282874Y315499D01*
X282511Y315649D01*
X282128Y315741D01*
X281997Y315751D01*
Y323694D01*
X282000Y323693D01*
X282283Y323716D01*
X282558Y323782D01*
X282820Y323890D01*
X283062Y324038D01*
X283277Y324223D01*
X283462Y324438D01*
X283610Y324680D01*
X283718Y324942D01*
X283784Y325217D01*
X283801Y325500D01*
X283784Y325783D01*
X283718Y326058D01*
X283610Y326320D01*
X283462Y326562D01*
X283277Y326777D01*
X283062Y326962D01*
X282820Y327110D01*
X282558Y327218D01*
X282283Y327284D01*
X282000Y327307D01*
X281997Y327306D01*
Y347769D01*
X282217Y347716D01*
X282500Y347693D01*
X282783Y347716D01*
X283058Y347782D01*
X283320Y347890D01*
X283562Y348038D01*
X283777Y348223D01*
X283962Y348438D01*
X284110Y348680D01*
X284218Y348942D01*
X284284Y349217D01*
X284301Y349500D01*
X284284Y349783D01*
X284218Y350058D01*
X284110Y350320D01*
X283962Y350562D01*
X283777Y350777D01*
X283562Y350962D01*
X283320Y351110D01*
X283058Y351218D01*
X282783Y351284D01*
X282500Y351307D01*
X282217Y351284D01*
X281997Y351231D01*
Y356269D01*
X282217Y356216D01*
X282500Y356193D01*
X282783Y356216D01*
X283058Y356282D01*
X283320Y356390D01*
X283562Y356538D01*
X283777Y356723D01*
X283962Y356938D01*
X284110Y357180D01*
X284218Y357442D01*
X284284Y357717D01*
X284301Y358000D01*
X284284Y358283D01*
X284218Y358558D01*
X284110Y358820D01*
X283962Y359062D01*
X283777Y359277D01*
X283562Y359462D01*
X283320Y359610D01*
X283058Y359718D01*
X282783Y359784D01*
X282500Y359807D01*
X282217Y359784D01*
X281997Y359731D01*
Y365269D01*
X282217Y365216D01*
X282500Y365193D01*
X282783Y365216D01*
X283058Y365282D01*
X283320Y365390D01*
X283562Y365538D01*
X283777Y365723D01*
X283962Y365938D01*
X284110Y366180D01*
X284218Y366442D01*
X284284Y366717D01*
X284301Y367000D01*
X284284Y367283D01*
X284218Y367558D01*
X284110Y367820D01*
X283962Y368062D01*
X283777Y368277D01*
X283562Y368462D01*
X283320Y368610D01*
X283058Y368718D01*
X282783Y368784D01*
X282500Y368807D01*
X282217Y368784D01*
X281997Y368731D01*
Y371000D01*
G37*
G36*
X276497D02*X281997D01*
Y368731D01*
X281942Y368718D01*
X281680Y368610D01*
X281438Y368462D01*
X281223Y368277D01*
X281038Y368062D01*
X280890Y367820D01*
X280782Y367558D01*
X280716Y367283D01*
X280693Y367000D01*
X280716Y366717D01*
X280782Y366442D01*
X280890Y366180D01*
X281038Y365938D01*
X281223Y365723D01*
X281438Y365538D01*
X281680Y365390D01*
X281942Y365282D01*
X281997Y365269D01*
Y359731D01*
X281942Y359718D01*
X281680Y359610D01*
X281438Y359462D01*
X281223Y359277D01*
X281038Y359062D01*
X280890Y358820D01*
X280782Y358558D01*
X280716Y358283D01*
X280693Y358000D01*
X280716Y357717D01*
X280782Y357442D01*
X280890Y357180D01*
X281038Y356938D01*
X281223Y356723D01*
X281438Y356538D01*
X281680Y356390D01*
X281942Y356282D01*
X281997Y356269D01*
Y351231D01*
X281942Y351218D01*
X281680Y351110D01*
X281438Y350962D01*
X281223Y350777D01*
X281038Y350562D01*
X280890Y350320D01*
X280782Y350058D01*
X280716Y349783D01*
X280693Y349500D01*
X280716Y349217D01*
X280782Y348942D01*
X280890Y348680D01*
X281038Y348438D01*
X281223Y348223D01*
X281438Y348038D01*
X281680Y347890D01*
X281942Y347782D01*
X281997Y347769D01*
Y327306D01*
X281717Y327284D01*
X281442Y327218D01*
X281180Y327110D01*
X280938Y326962D01*
X280723Y326777D01*
X280538Y326562D01*
X280390Y326320D01*
X280282Y326058D01*
X280216Y325783D01*
X280193Y325500D01*
X280216Y325217D01*
X280282Y324942D01*
X280390Y324680D01*
X280538Y324438D01*
X280723Y324223D01*
X280938Y324038D01*
X281180Y323890D01*
X281442Y323782D01*
X281717Y323716D01*
X281997Y323694D01*
Y315751D01*
X281736Y315772D01*
X281344Y315741D01*
X280961Y315649D01*
X280597Y315499D01*
X280262Y315293D01*
X279963Y315037D01*
X279707Y314738D01*
X279501Y314403D01*
X279351Y314039D01*
X279259Y313656D01*
X279228Y313264D01*
X279259Y312872D01*
X279351Y312489D01*
X279501Y312126D01*
X279707Y311790D01*
X279963Y311491D01*
X280262Y311235D01*
X280597Y311030D01*
X280961Y310879D01*
X281344Y310787D01*
X281736Y310756D01*
X281997Y310777D01*
Y231306D01*
X281717Y231284D01*
X281442Y231218D01*
X281180Y231110D01*
X280938Y230962D01*
X280723Y230777D01*
X280538Y230562D01*
X280390Y230320D01*
X280282Y230058D01*
X280216Y229783D01*
X280193Y229500D01*
X280216Y229217D01*
X280282Y228942D01*
X280390Y228680D01*
X280538Y228438D01*
X280723Y228223D01*
X280938Y228038D01*
X281180Y227890D01*
X281442Y227782D01*
X281717Y227716D01*
X281997Y227694D01*
Y216500D01*
X276497D01*
Y228496D01*
X276610Y228680D01*
X276718Y228942D01*
X276784Y229217D01*
X276801Y229500D01*
X276784Y229783D01*
X276718Y230058D01*
X276610Y230320D01*
X276497Y230504D01*
Y254548D01*
X276775Y254615D01*
X277138Y254766D01*
X277474Y254971D01*
X277773Y255227D01*
X278029Y255526D01*
X278234Y255862D01*
X278385Y256225D01*
X278477Y256608D01*
X278500Y257000D01*
X278477Y257392D01*
X278385Y257775D01*
X278234Y258138D01*
X278029Y258474D01*
X277773Y258773D01*
X277474Y259029D01*
X277138Y259234D01*
X276775Y259385D01*
X276497Y259452D01*
Y321194D01*
X276500Y321193D01*
X276783Y321216D01*
X277058Y321282D01*
X277320Y321390D01*
X277562Y321538D01*
X277777Y321723D01*
X277962Y321938D01*
X278110Y322180D01*
X278218Y322442D01*
X278284Y322717D01*
X278301Y323000D01*
X278284Y323283D01*
X278218Y323558D01*
X278110Y323820D01*
X277962Y324062D01*
X277777Y324277D01*
X277562Y324462D01*
X277320Y324610D01*
X277058Y324718D01*
X276783Y324784D01*
X276500Y324807D01*
X276497Y324806D01*
Y337194D01*
X276500Y337193D01*
X276783Y337216D01*
X277058Y337282D01*
X277320Y337390D01*
X277562Y337538D01*
X277777Y337723D01*
X277962Y337938D01*
X278110Y338180D01*
X278218Y338442D01*
X278284Y338717D01*
X278301Y339000D01*
X278284Y339283D01*
X278218Y339558D01*
X278110Y339820D01*
X277962Y340062D01*
X277777Y340277D01*
X277562Y340462D01*
X277320Y340610D01*
X277058Y340718D01*
X276783Y340784D01*
X276500Y340807D01*
X276497Y340806D01*
Y371000D01*
G37*
G36*
Y259452D02*X276392Y259477D01*
X276000Y259508D01*
X275608Y259477D01*
X275225Y259385D01*
X274862Y259234D01*
X274526Y259029D01*
X274227Y258773D01*
X273997Y258504D01*
Y323694D01*
X274000Y323693D01*
X274283Y323716D01*
X274558Y323782D01*
X274820Y323890D01*
X275001Y324001D01*
X274890Y323820D01*
X274782Y323558D01*
X274716Y323283D01*
X274693Y323000D01*
X274716Y322717D01*
X274782Y322442D01*
X274890Y322180D01*
X275038Y321938D01*
X275223Y321723D01*
X275438Y321538D01*
X275680Y321390D01*
X275942Y321282D01*
X276217Y321216D01*
X276497Y321194D01*
Y259452D01*
G37*
G36*
Y230504D02*X276462Y230562D01*
X276277Y230777D01*
X276062Y230962D01*
X275820Y231110D01*
X275558Y231218D01*
X275283Y231284D01*
X275000Y231307D01*
X274717Y231284D01*
X274442Y231218D01*
X274180Y231110D01*
X273997Y230998D01*
Y255496D01*
X274227Y255227D01*
X274526Y254971D01*
X274862Y254766D01*
X275225Y254615D01*
X275608Y254523D01*
X276000Y254492D01*
X276392Y254523D01*
X276497Y254548D01*
Y230504D01*
G37*
G36*
Y216500D02*X273997D01*
Y228002D01*
X274180Y227890D01*
X274442Y227782D01*
X274717Y227716D01*
X275000Y227693D01*
X275283Y227716D01*
X275558Y227782D01*
X275820Y227890D01*
X276062Y228038D01*
X276277Y228223D01*
X276462Y228438D01*
X276497Y228496D01*
Y216500D01*
G37*
G36*
X273997Y371000D02*X276497D01*
Y340806D01*
X276217Y340784D01*
X275942Y340718D01*
X275680Y340610D01*
X275438Y340462D01*
X275223Y340277D01*
X275038Y340062D01*
X274890Y339820D01*
X274782Y339558D01*
X274716Y339283D01*
X274693Y339000D01*
X274716Y338717D01*
X274782Y338442D01*
X274890Y338180D01*
X275038Y337938D01*
X275223Y337723D01*
X275438Y337538D01*
X275680Y337390D01*
X275942Y337282D01*
X276217Y337216D01*
X276497Y337194D01*
Y324806D01*
X276217Y324784D01*
X275942Y324718D01*
X275680Y324610D01*
X275499Y324499D01*
X275610Y324680D01*
X275718Y324942D01*
X275784Y325217D01*
X275801Y325500D01*
X275784Y325783D01*
X275718Y326058D01*
X275610Y326320D01*
X275462Y326562D01*
X275277Y326777D01*
X275062Y326962D01*
X274820Y327110D01*
X274558Y327218D01*
X274283Y327284D01*
X274000Y327307D01*
X273997Y327306D01*
Y332194D01*
X274000Y332193D01*
X274283Y332216D01*
X274558Y332282D01*
X274820Y332390D01*
X275062Y332538D01*
X275277Y332723D01*
X275462Y332938D01*
X275610Y333180D01*
X275718Y333442D01*
X275784Y333717D01*
X275801Y334000D01*
X275784Y334283D01*
X275718Y334558D01*
X275610Y334820D01*
X275462Y335062D01*
X275277Y335277D01*
X275062Y335462D01*
X274820Y335610D01*
X274558Y335718D01*
X274283Y335784D01*
X274000Y335807D01*
X273997Y335806D01*
Y371000D01*
G37*
G36*
X266997Y228493D02*X267000Y228492D01*
X267392Y228523D01*
X267775Y228615D01*
X268138Y228766D01*
X268474Y228971D01*
X268493Y228988D01*
X268523Y228608D01*
X268615Y228225D01*
X268766Y227862D01*
X268971Y227526D01*
X269227Y227227D01*
X269526Y226971D01*
X269862Y226766D01*
X270225Y226615D01*
X270608Y226523D01*
X271000Y226492D01*
X271392Y226523D01*
X271775Y226615D01*
X272138Y226766D01*
X272474Y226971D01*
X272773Y227227D01*
X273029Y227526D01*
X273234Y227862D01*
X273385Y228225D01*
X273465Y228558D01*
X273538Y228438D01*
X273723Y228223D01*
X273938Y228038D01*
X273997Y228002D01*
Y216500D01*
X268508D01*
X268773Y216727D01*
X269029Y217026D01*
X269234Y217362D01*
X269385Y217725D01*
X269477Y218108D01*
X269500Y218500D01*
X269477Y218892D01*
X269385Y219275D01*
X269234Y219638D01*
X269029Y219974D01*
X268773Y220273D01*
X268474Y220529D01*
X268138Y220734D01*
X267775Y220885D01*
X267392Y220977D01*
X267000Y221008D01*
X266997Y221007D01*
Y228493D01*
G37*
G36*
X269997Y371000D02*X273997D01*
Y335806D01*
X273717Y335784D01*
X273442Y335718D01*
X273180Y335610D01*
X272938Y335462D01*
X272723Y335277D01*
X272538Y335062D01*
X272390Y334820D01*
X272282Y334558D01*
X272216Y334283D01*
X272193Y334000D01*
X272216Y333717D01*
X272282Y333442D01*
X272390Y333180D01*
X272538Y332938D01*
X272723Y332723D01*
X272938Y332538D01*
X273180Y332390D01*
X273442Y332282D01*
X273717Y332216D01*
X273997Y332194D01*
Y327306D01*
X273717Y327284D01*
X273442Y327218D01*
X273180Y327110D01*
X272938Y326962D01*
X272723Y326777D01*
X272538Y326562D01*
X272390Y326320D01*
X272282Y326058D01*
X272216Y325783D01*
X272193Y325500D01*
X272216Y325217D01*
X272282Y324942D01*
X272390Y324680D01*
X272538Y324438D01*
X272723Y324223D01*
X272938Y324038D01*
X273180Y323890D01*
X273442Y323782D01*
X273717Y323716D01*
X273997Y323694D01*
Y258504D01*
X273971Y258474D01*
X273766Y258138D01*
X273615Y257775D01*
X273523Y257392D01*
X273492Y257000D01*
X273523Y256608D01*
X273615Y256225D01*
X273766Y255862D01*
X273971Y255526D01*
X273997Y255496D01*
Y230998D01*
X273938Y230962D01*
X273723Y230777D01*
X273538Y230562D01*
X273390Y230320D01*
X273282Y230058D01*
X273277Y230036D01*
X273234Y230138D01*
X273029Y230474D01*
X272773Y230773D01*
X272474Y231029D01*
X272138Y231234D01*
X271775Y231385D01*
X271392Y231477D01*
X271000Y231508D01*
X270608Y231477D01*
X270225Y231385D01*
X269997Y231291D01*
Y248694D01*
X270000Y248693D01*
X270283Y248716D01*
X270558Y248782D01*
X270820Y248890D01*
X271062Y249038D01*
X271277Y249223D01*
X271462Y249438D01*
X271610Y249680D01*
X271718Y249942D01*
X271784Y250217D01*
X271801Y250500D01*
X271784Y250783D01*
X271718Y251058D01*
X271610Y251320D01*
X271462Y251562D01*
X271277Y251777D01*
X271062Y251962D01*
X270820Y252110D01*
X270558Y252218D01*
X270283Y252284D01*
X270000Y252307D01*
X269997Y252306D01*
Y371000D01*
G37*
G36*
X266997D02*X269997D01*
Y252306D01*
X269717Y252284D01*
X269442Y252218D01*
X269180Y252110D01*
X268938Y251962D01*
X268723Y251777D01*
X268538Y251562D01*
X268390Y251320D01*
X268282Y251058D01*
X268216Y250783D01*
X268193Y250500D01*
X268216Y250217D01*
X268282Y249942D01*
X268390Y249680D01*
X268538Y249438D01*
X268723Y249223D01*
X268938Y249038D01*
X269180Y248890D01*
X269442Y248782D01*
X269717Y248716D01*
X269997Y248694D01*
Y231291D01*
X269862Y231234D01*
X269526Y231029D01*
X269500Y231006D01*
X269477Y231392D01*
X269385Y231775D01*
X269234Y232138D01*
X269029Y232474D01*
X268773Y232773D01*
X268474Y233029D01*
X268138Y233234D01*
X267775Y233385D01*
X267392Y233477D01*
X267000Y233508D01*
X266997Y233507D01*
Y248495D01*
X267051Y248527D01*
X267266Y248712D01*
X267451Y248927D01*
X267599Y249169D01*
X267707Y249431D01*
X267773Y249706D01*
X267790Y249989D01*
X267773Y250272D01*
X267707Y250547D01*
X267599Y250809D01*
X267451Y251051D01*
X267266Y251266D01*
X267051Y251451D01*
X266997Y251483D01*
Y264707D01*
X267138Y264766D01*
X267474Y264971D01*
X267773Y265227D01*
X268029Y265526D01*
X268234Y265862D01*
X268385Y266225D01*
X268477Y266608D01*
X268500Y267000D01*
X268477Y267392D01*
X268385Y267775D01*
X268234Y268138D01*
X268029Y268474D01*
X267773Y268773D01*
X267474Y269029D01*
X267138Y269234D01*
X266997Y269293D01*
Y305001D01*
X267034Y305062D01*
X267185Y305425D01*
X267277Y305808D01*
X267300Y306200D01*
X267277Y306592D01*
X267185Y306975D01*
X267034Y307338D01*
X266997Y307399D01*
Y320694D01*
X267000Y320693D01*
X267283Y320716D01*
X267558Y320782D01*
X267820Y320890D01*
X268062Y321038D01*
X268277Y321223D01*
X268462Y321438D01*
X268610Y321680D01*
X268718Y321942D01*
X268784Y322217D01*
X268801Y322500D01*
X268784Y322783D01*
X268718Y323058D01*
X268610Y323320D01*
X268462Y323562D01*
X268277Y323777D01*
X268062Y323962D01*
X267820Y324110D01*
X267558Y324218D01*
X267283Y324284D01*
X267000Y324307D01*
X266997Y324306D01*
Y329435D01*
X268495Y330818D01*
X268596Y330904D01*
X268710Y331038D01*
X268771Y331101D01*
X268797Y331139D01*
X268826Y331173D01*
X268895Y331286D01*
X268968Y331396D01*
X268987Y331437D01*
X269011Y331475D01*
X269061Y331597D01*
X269117Y331717D01*
X269129Y331761D01*
X269146Y331803D01*
X269177Y331931D01*
X269213Y332058D01*
X269219Y332103D01*
X269229Y332147D01*
X269234Y332235D01*
X269255Y332410D01*
X269250Y332543D01*
Y337412D01*
X269257Y337500D01*
X269229Y337853D01*
X269229Y337853D01*
X269146Y338197D01*
X269011Y338525D01*
X268826Y338827D01*
X268596Y339096D01*
X268529Y339153D01*
X266997Y340685D01*
Y371000D01*
G37*
G36*
X263497Y326205D02*X266997Y329435D01*
Y324306D01*
X266717Y324284D01*
X266442Y324218D01*
X266180Y324110D01*
X265938Y323962D01*
X265723Y323777D01*
X265538Y323562D01*
X265390Y323320D01*
X265282Y323058D01*
X265216Y322783D01*
X265193Y322500D01*
X265216Y322217D01*
X265282Y321942D01*
X265390Y321680D01*
X265538Y321438D01*
X265723Y321223D01*
X265938Y321038D01*
X266180Y320890D01*
X266442Y320782D01*
X266717Y320716D01*
X266997Y320694D01*
Y307399D01*
X266829Y307674D01*
X266573Y307973D01*
X266274Y308229D01*
X265938Y308434D01*
X265575Y308585D01*
X265192Y308677D01*
X264800Y308708D01*
X264408Y308677D01*
X264025Y308585D01*
X263662Y308434D01*
X263497Y308334D01*
Y326205D01*
G37*
G36*
Y293989D02*X263529Y294026D01*
X263734Y294362D01*
X263885Y294725D01*
X263977Y295108D01*
X264000Y295500D01*
X263977Y295892D01*
X263885Y296275D01*
X263734Y296638D01*
X263529Y296974D01*
X263497Y297011D01*
Y304066D01*
X263662Y303966D01*
X264025Y303815D01*
X264408Y303723D01*
X264800Y303692D01*
X265192Y303723D01*
X265575Y303815D01*
X265938Y303966D01*
X266274Y304171D01*
X266573Y304427D01*
X266829Y304726D01*
X266997Y305001D01*
Y269293D01*
X266775Y269385D01*
X266392Y269477D01*
X266000Y269508D01*
X265608Y269477D01*
X265225Y269385D01*
X264862Y269234D01*
X264526Y269029D01*
X264227Y268773D01*
X263971Y268474D01*
X263766Y268138D01*
X263615Y267775D01*
X263523Y267392D01*
X263497Y267063D01*
Y278694D01*
X263500Y278693D01*
X263783Y278716D01*
X264058Y278782D01*
X264320Y278890D01*
X264562Y279038D01*
X264777Y279223D01*
X264962Y279438D01*
X265110Y279680D01*
X265218Y279942D01*
X265284Y280217D01*
X265301Y280500D01*
X265284Y280783D01*
X265218Y281058D01*
X265110Y281320D01*
X264962Y281562D01*
X264777Y281777D01*
X264562Y281962D01*
X264320Y282110D01*
X264058Y282218D01*
X263783Y282284D01*
X263500Y282307D01*
X263497Y282306D01*
Y293989D01*
G37*
G36*
X266997Y233507D02*X266608Y233477D01*
X266225Y233385D01*
X265862Y233234D01*
X265526Y233029D01*
X265227Y232773D01*
X264971Y232474D01*
X264766Y232138D01*
X264615Y231775D01*
X264523Y231392D01*
X264492Y231000D01*
X264523Y230608D01*
X264615Y230225D01*
X264766Y229862D01*
X264971Y229526D01*
X265227Y229227D01*
X265526Y228971D01*
X265862Y228766D01*
X266225Y228615D01*
X266608Y228523D01*
X266997Y228493D01*
Y221007D01*
X266608Y220977D01*
X266225Y220885D01*
X265862Y220734D01*
X265526Y220529D01*
X265227Y220273D01*
X264971Y219974D01*
X264766Y219638D01*
X264615Y219275D01*
X264523Y218892D01*
X264492Y218500D01*
X264523Y218108D01*
X264615Y217725D01*
X264766Y217362D01*
X264971Y217026D01*
X265227Y216727D01*
X265492Y216500D01*
X263497D01*
Y266937D01*
X263523Y266608D01*
X263615Y266225D01*
X263766Y265862D01*
X263971Y265526D01*
X264227Y265227D01*
X264526Y264971D01*
X264862Y264766D01*
X265225Y264615D01*
X265608Y264523D01*
X266000Y264492D01*
X266392Y264523D01*
X266775Y264615D01*
X266997Y264707D01*
Y251483D01*
X266809Y251599D01*
X266547Y251707D01*
X266272Y251773D01*
X265989Y251796D01*
X265706Y251773D01*
X265431Y251707D01*
X265169Y251599D01*
X264927Y251451D01*
X264712Y251266D01*
X264527Y251051D01*
X264379Y250809D01*
X264271Y250547D01*
X264205Y250272D01*
X264182Y249989D01*
X264205Y249706D01*
X264271Y249431D01*
X264379Y249169D01*
X264527Y248927D01*
X264712Y248712D01*
X264927Y248527D01*
X265169Y248379D01*
X265431Y248271D01*
X265706Y248205D01*
X265989Y248182D01*
X266272Y248205D01*
X266547Y248271D01*
X266809Y248379D01*
X266997Y248495D01*
Y233507D01*
G37*
G36*
X263497Y297011D02*X263273Y297273D01*
X262974Y297529D01*
X262638Y297734D01*
X262275Y297885D01*
X261892Y297977D01*
X261500Y298008D01*
X261496Y298007D01*
Y300988D01*
X261529Y301026D01*
X261734Y301362D01*
X261885Y301725D01*
X261977Y302108D01*
X262000Y302500D01*
X261977Y302892D01*
X261885Y303275D01*
X261734Y303638D01*
X261529Y303974D01*
X261496Y304012D01*
Y324477D01*
X261525Y324489D01*
X261637Y324558D01*
X261753Y324623D01*
X261783Y324647D01*
X261827Y324674D01*
X262096Y324904D01*
X262124Y324937D01*
X263497Y326205D01*
Y308334D01*
X263326Y308229D01*
X263027Y307973D01*
X262771Y307674D01*
X262566Y307338D01*
X262415Y306975D01*
X262323Y306592D01*
X262292Y306200D01*
X262323Y305808D01*
X262415Y305425D01*
X262566Y305062D01*
X262771Y304726D01*
X263027Y304427D01*
X263326Y304171D01*
X263497Y304066D01*
Y297011D01*
G37*
G36*
Y216500D02*X261496D01*
Y292993D01*
X261500Y292992D01*
X261892Y293023D01*
X262275Y293115D01*
X262638Y293266D01*
X262974Y293471D01*
X263273Y293727D01*
X263497Y293989D01*
Y282306D01*
X263217Y282284D01*
X262942Y282218D01*
X262680Y282110D01*
X262438Y281962D01*
X262223Y281777D01*
X262038Y281562D01*
X261890Y281320D01*
X261782Y281058D01*
X261716Y280783D01*
X261693Y280500D01*
X261716Y280217D01*
X261782Y279942D01*
X261890Y279680D01*
X262038Y279438D01*
X262223Y279223D01*
X262438Y279038D01*
X262680Y278890D01*
X262942Y278782D01*
X263217Y278716D01*
X263497Y278694D01*
Y267063D01*
X263492Y267000D01*
X263497Y266937D01*
Y216500D01*
G37*
G36*
X257997Y324250D02*X260367D01*
X260410Y324245D01*
X260764Y324259D01*
X260814Y324269D01*
X260853Y324271D01*
X260982Y324302D01*
X261111Y324327D01*
X261153Y324343D01*
X261197Y324354D01*
X261320Y324404D01*
X261443Y324450D01*
X261483Y324472D01*
X261496Y324477D01*
Y304012D01*
X261273Y304273D01*
X260974Y304529D01*
X260638Y304734D01*
X260275Y304885D01*
X259892Y304977D01*
X259500Y305008D01*
X259108Y304977D01*
X258725Y304885D01*
X258362Y304734D01*
X258026Y304529D01*
X257997Y304504D01*
Y324250D01*
G37*
G36*
X261496Y216500D02*X257997D01*
Y284694D01*
X258000Y284693D01*
X258283Y284716D01*
X258558Y284782D01*
X258820Y284890D01*
X259062Y285038D01*
X259277Y285223D01*
X259462Y285438D01*
X259610Y285680D01*
X259718Y285942D01*
X259784Y286217D01*
X259801Y286500D01*
X259784Y286783D01*
X259718Y287058D01*
X259610Y287320D01*
X259462Y287562D01*
X259277Y287777D01*
X259062Y287962D01*
X258820Y288110D01*
X258558Y288218D01*
X258283Y288284D01*
X258000Y288307D01*
X257997Y288306D01*
Y300496D01*
X258026Y300471D01*
X258362Y300266D01*
X258725Y300115D01*
X259108Y300023D01*
X259500Y299992D01*
X259892Y300023D01*
X260275Y300115D01*
X260638Y300266D01*
X260974Y300471D01*
X261273Y300727D01*
X261496Y300988D01*
Y298007D01*
X261108Y297977D01*
X260725Y297885D01*
X260362Y297734D01*
X260026Y297529D01*
X259727Y297273D01*
X259471Y296974D01*
X259266Y296638D01*
X259115Y296275D01*
X259023Y295892D01*
X258992Y295500D01*
X259023Y295108D01*
X259115Y294725D01*
X259266Y294362D01*
X259471Y294026D01*
X259727Y293727D01*
X260026Y293471D01*
X260362Y293266D01*
X260725Y293115D01*
X261108Y293023D01*
X261496Y292993D01*
Y216500D01*
G37*
G36*
X257997D02*X250997D01*
Y240194D01*
X251000Y240193D01*
X251283Y240216D01*
X251558Y240282D01*
X251820Y240390D01*
X252062Y240538D01*
X252277Y240723D01*
X252462Y240938D01*
X252610Y241180D01*
X252718Y241442D01*
X252784Y241717D01*
X252801Y242000D01*
X252784Y242283D01*
X252718Y242558D01*
X252610Y242820D01*
X252462Y243062D01*
X252277Y243277D01*
X252062Y243462D01*
X251820Y243610D01*
X251558Y243718D01*
X251283Y243784D01*
X251000Y243807D01*
X250997Y243806D01*
Y252453D01*
X251000Y252500D01*
X250997Y252547D01*
Y271991D01*
X251273Y272227D01*
X251529Y272526D01*
X251734Y272862D01*
X251885Y273225D01*
X251977Y273608D01*
X252000Y274000D01*
X251977Y274392D01*
X251885Y274775D01*
X251734Y275138D01*
X251529Y275474D01*
X251273Y275773D01*
X250997Y276009D01*
Y324250D01*
X257997D01*
Y304504D01*
X257727Y304273D01*
X257471Y303974D01*
X257266Y303638D01*
X257115Y303275D01*
X257023Y302892D01*
X256992Y302500D01*
X257023Y302108D01*
X257115Y301725D01*
X257266Y301362D01*
X257471Y301026D01*
X257727Y300727D01*
X257997Y300496D01*
Y288306D01*
X257717Y288284D01*
X257442Y288218D01*
X257180Y288110D01*
X256938Y287962D01*
X256723Y287777D01*
X256538Y287562D01*
X256390Y287320D01*
X256282Y287058D01*
X256216Y286783D01*
X256193Y286500D01*
X256216Y286217D01*
X256282Y285942D01*
X256390Y285680D01*
X256538Y285438D01*
X256723Y285223D01*
X256938Y285038D01*
X257180Y284890D01*
X257442Y284782D01*
X257717Y284716D01*
X257997Y284694D01*
Y216500D01*
G37*
G36*
X250997Y371000D02*X266997D01*
Y340685D01*
X259653Y348029D01*
X259596Y348096D01*
X259327Y348326D01*
X259327Y348326D01*
X259212Y348396D01*
X259025Y348511D01*
X258793Y348607D01*
X258697Y348646D01*
X258353Y348729D01*
X258000Y348757D01*
X257912Y348750D01*
X250997D01*
Y371000D01*
G37*
G36*
Y276009D02*X250974Y276029D01*
X250638Y276234D01*
X250275Y276385D01*
X249892Y276477D01*
X249500Y276508D01*
X249108Y276477D01*
X248725Y276385D01*
X248362Y276234D01*
X248026Y276029D01*
X247727Y275773D01*
X247471Y275474D01*
X247266Y275138D01*
X247115Y274775D01*
X247023Y274392D01*
X246996Y274049D01*
Y324250D01*
X250997D01*
Y276009D01*
G37*
G36*
Y252547D02*X250977Y252892D01*
X250885Y253275D01*
X250734Y253638D01*
X250529Y253974D01*
X250273Y254273D01*
X249974Y254529D01*
X249638Y254734D01*
X249275Y254885D01*
X248958Y254961D01*
X248974Y254971D01*
X249273Y255227D01*
X249529Y255526D01*
X249734Y255862D01*
X249885Y256225D01*
X249977Y256608D01*
X250000Y257000D01*
X249977Y257392D01*
X249885Y257775D01*
X249734Y258138D01*
X249529Y258474D01*
X249273Y258773D01*
X248974Y259029D01*
X248638Y259234D01*
X248601Y259250D01*
X248638Y259266D01*
X248974Y259471D01*
X249273Y259727D01*
X249529Y260026D01*
X249734Y260362D01*
X249885Y260725D01*
X249977Y261108D01*
X250000Y261500D01*
X249977Y261892D01*
X249885Y262275D01*
X249734Y262638D01*
X249529Y262974D01*
X249273Y263273D01*
X248974Y263529D01*
X248638Y263734D01*
X248275Y263885D01*
X247892Y263977D01*
X247500Y264008D01*
X247108Y263977D01*
X246996Y263950D01*
Y273951D01*
X247023Y273608D01*
X247115Y273225D01*
X247266Y272862D01*
X247471Y272526D01*
X247727Y272227D01*
X248026Y271971D01*
X248362Y271766D01*
X248725Y271615D01*
X249108Y271523D01*
X249500Y271492D01*
X249892Y271523D01*
X250275Y271615D01*
X250638Y271766D01*
X250974Y271971D01*
X250997Y271991D01*
Y252547D01*
G37*
G36*
Y216500D02*X246996D01*
Y233993D01*
X247000Y233992D01*
X247392Y234023D01*
X247775Y234115D01*
X248138Y234266D01*
X248474Y234471D01*
X248773Y234727D01*
X249029Y235026D01*
X249234Y235362D01*
X249385Y235725D01*
X249477Y236108D01*
X249500Y236500D01*
X249477Y236892D01*
X249385Y237275D01*
X249234Y237638D01*
X249029Y237974D01*
X248773Y238273D01*
X248474Y238529D01*
X248138Y238734D01*
X247775Y238885D01*
X247392Y238977D01*
X247000Y239008D01*
X246996Y239007D01*
Y240694D01*
X247000Y240693D01*
X247283Y240716D01*
X247558Y240782D01*
X247820Y240890D01*
X248062Y241038D01*
X248277Y241223D01*
X248462Y241438D01*
X248610Y241680D01*
X248718Y241942D01*
X248784Y242217D01*
X248801Y242500D01*
X248784Y242783D01*
X248718Y243058D01*
X248610Y243320D01*
X248462Y243562D01*
X248277Y243777D01*
X248062Y243962D01*
X247820Y244110D01*
X247558Y244218D01*
X247283Y244284D01*
X247000Y244307D01*
X246996Y244306D01*
Y250497D01*
X247026Y250471D01*
X247362Y250266D01*
X247725Y250115D01*
X248108Y250023D01*
X248500Y249992D01*
X248892Y250023D01*
X249275Y250115D01*
X249638Y250266D01*
X249974Y250471D01*
X250273Y250727D01*
X250529Y251026D01*
X250734Y251362D01*
X250885Y251725D01*
X250977Y252108D01*
X250997Y252453D01*
Y243806D01*
X250717Y243784D01*
X250442Y243718D01*
X250180Y243610D01*
X249938Y243462D01*
X249723Y243277D01*
X249538Y243062D01*
X249390Y242820D01*
X249282Y242558D01*
X249216Y242283D01*
X249193Y242000D01*
X249216Y241717D01*
X249282Y241442D01*
X249390Y241180D01*
X249538Y240938D01*
X249723Y240723D01*
X249938Y240538D01*
X250180Y240390D01*
X250442Y240282D01*
X250717Y240216D01*
X250997Y240194D01*
Y216500D01*
G37*
G36*
X246996Y371000D02*X250997D01*
Y348750D01*
X246996D01*
Y371000D01*
G37*
G36*
Y216500D02*X242996D01*
Y221493D01*
X243000Y221492D01*
X243392Y221523D01*
X243775Y221615D01*
X244138Y221766D01*
X244474Y221971D01*
X244773Y222227D01*
X245029Y222526D01*
X245234Y222862D01*
X245385Y223225D01*
X245477Y223608D01*
X245500Y224000D01*
X245477Y224392D01*
X245385Y224775D01*
X245234Y225138D01*
X245029Y225474D01*
X244773Y225773D01*
X244474Y226029D01*
X244138Y226234D01*
X243775Y226385D01*
X243392Y226477D01*
X243000Y226508D01*
X242996Y226507D01*
Y241993D01*
X243000Y241992D01*
X243392Y242023D01*
X243775Y242115D01*
X244138Y242266D01*
X244474Y242471D01*
X244773Y242727D01*
X245029Y243026D01*
X245234Y243362D01*
X245385Y243725D01*
X245477Y244108D01*
X245500Y244500D01*
X245477Y244892D01*
X245385Y245275D01*
X245234Y245638D01*
X245029Y245974D01*
X244773Y246273D01*
X244474Y246529D01*
X244138Y246734D01*
X243775Y246885D01*
X243392Y246977D01*
X243000Y247008D01*
X242996Y247007D01*
Y324250D01*
X246996D01*
Y274049D01*
X246992Y274000D01*
X246996Y273951D01*
Y263950D01*
X246725Y263885D01*
X246362Y263734D01*
X246026Y263529D01*
X245727Y263273D01*
X245471Y262974D01*
X245266Y262638D01*
X245115Y262275D01*
X245023Y261892D01*
X244992Y261500D01*
X245023Y261108D01*
X245115Y260725D01*
X245266Y260362D01*
X245471Y260026D01*
X245727Y259727D01*
X246026Y259471D01*
X246362Y259266D01*
X246399Y259250D01*
X246362Y259234D01*
X246026Y259029D01*
X245727Y258773D01*
X245471Y258474D01*
X245266Y258138D01*
X245115Y257775D01*
X245023Y257392D01*
X244992Y257000D01*
X245023Y256608D01*
X245115Y256225D01*
X245266Y255862D01*
X245471Y255526D01*
X245727Y255227D01*
X246026Y254971D01*
X246362Y254766D01*
X246725Y254615D01*
X246996Y254550D01*
Y254503D01*
X246727Y254273D01*
X246471Y253974D01*
X246266Y253638D01*
X246115Y253275D01*
X246023Y252892D01*
X245992Y252500D01*
X246023Y252108D01*
X246115Y251725D01*
X246266Y251362D01*
X246471Y251026D01*
X246727Y250727D01*
X246996Y250497D01*
Y244306D01*
X246717Y244284D01*
X246442Y244218D01*
X246180Y244110D01*
X245938Y243962D01*
X245723Y243777D01*
X245538Y243562D01*
X245390Y243320D01*
X245282Y243058D01*
X245216Y242783D01*
X245193Y242500D01*
X245216Y242217D01*
X245282Y241942D01*
X245390Y241680D01*
X245538Y241438D01*
X245723Y241223D01*
X245938Y241038D01*
X246180Y240890D01*
X246442Y240782D01*
X246717Y240716D01*
X246996Y240694D01*
Y239007D01*
X246608Y238977D01*
X246225Y238885D01*
X245862Y238734D01*
X245526Y238529D01*
X245227Y238273D01*
X244971Y237974D01*
X244766Y237638D01*
X244615Y237275D01*
X244523Y236892D01*
X244492Y236500D01*
X244523Y236108D01*
X244615Y235725D01*
X244766Y235362D01*
X244971Y235026D01*
X245227Y234727D01*
X245526Y234471D01*
X245862Y234266D01*
X246225Y234115D01*
X246608Y234023D01*
X246996Y233993D01*
Y216500D01*
G37*
G36*
X242996Y371000D02*X246996D01*
Y348750D01*
X242996D01*
Y371000D01*
G37*
G36*
X238496D02*X242996D01*
Y348750D01*
X242088D01*
X242000Y348757D01*
X241647Y348729D01*
X241303Y348646D01*
X240975Y348511D01*
X240673Y348326D01*
X240404Y348096D01*
X240174Y347827D01*
X239989Y347525D01*
X239854Y347197D01*
X239771Y346853D01*
X239771Y346853D01*
X239743Y346500D01*
X239750Y346412D01*
Y326588D01*
X239743Y326500D01*
X239771Y326147D01*
X239854Y325803D01*
X239989Y325475D01*
X240174Y325173D01*
X240404Y324904D01*
X240673Y324674D01*
X240975Y324489D01*
X241303Y324354D01*
X241647Y324271D01*
X242000Y324243D01*
X242088Y324250D01*
X242996D01*
Y247007D01*
X242608Y246977D01*
X242225Y246885D01*
X241862Y246734D01*
X241526Y246529D01*
X241227Y246273D01*
X240971Y245974D01*
X240766Y245638D01*
X240615Y245275D01*
X240523Y244892D01*
X240492Y244500D01*
X240523Y244108D01*
X240615Y243725D01*
X240766Y243362D01*
X240971Y243026D01*
X241227Y242727D01*
X241526Y242471D01*
X241862Y242266D01*
X242225Y242115D01*
X242608Y242023D01*
X242996Y241993D01*
Y226507D01*
X242608Y226477D01*
X242225Y226385D01*
X241862Y226234D01*
X241526Y226029D01*
X241227Y225773D01*
X240971Y225474D01*
X240766Y225138D01*
X240615Y224775D01*
X240523Y224392D01*
X240492Y224000D01*
X240523Y223608D01*
X240615Y223225D01*
X240766Y222862D01*
X240971Y222526D01*
X241227Y222227D01*
X241526Y221971D01*
X241862Y221766D01*
X242225Y221615D01*
X242608Y221523D01*
X242996Y221493D01*
Y216500D01*
X238496D01*
Y281048D01*
X238775Y281115D01*
X239138Y281266D01*
X239474Y281471D01*
X239773Y281727D01*
X240029Y282026D01*
X240234Y282362D01*
X240385Y282725D01*
X240477Y283108D01*
X240500Y283500D01*
X240477Y283892D01*
X240385Y284275D01*
X240234Y284638D01*
X240029Y284974D01*
X239773Y285273D01*
X239474Y285529D01*
X239138Y285734D01*
X238775Y285885D01*
X238496Y285952D01*
Y303493D01*
X238500Y303492D01*
X238892Y303523D01*
X239275Y303615D01*
X239638Y303766D01*
X239974Y303971D01*
X240273Y304227D01*
X240529Y304526D01*
X240734Y304862D01*
X240885Y305225D01*
X240977Y305608D01*
X241000Y306000D01*
X240977Y306392D01*
X240885Y306775D01*
X240734Y307138D01*
X240529Y307474D01*
X240273Y307773D01*
X239974Y308029D01*
X239638Y308234D01*
X239275Y308385D01*
X238892Y308477D01*
X238500Y308508D01*
X238496Y308507D01*
Y371000D01*
G37*
G36*
Y216500D02*X234276D01*
Y256713D01*
X234280Y256713D01*
X234672Y256744D01*
X235054Y256835D01*
X235418Y256986D01*
X235754Y257192D01*
X236053Y257447D01*
X236308Y257746D01*
X236514Y258082D01*
X236665Y258446D01*
X236756Y258828D01*
X236780Y259220D01*
X236756Y259613D01*
X236665Y259995D01*
X236514Y260359D01*
X236308Y260694D01*
X236053Y260994D01*
X235754Y261249D01*
X235418Y261455D01*
X235054Y261605D01*
X234672Y261697D01*
X234280Y261728D01*
X234276Y261728D01*
Y279514D01*
X234392Y279523D01*
X234775Y279615D01*
X235138Y279766D01*
X235474Y279971D01*
X235773Y280227D01*
X236029Y280526D01*
X236234Y280862D01*
X236385Y281225D01*
X236458Y281529D01*
X236526Y281471D01*
X236862Y281266D01*
X237225Y281115D01*
X237608Y281023D01*
X238000Y280992D01*
X238392Y281023D01*
X238496Y281048D01*
Y216500D01*
G37*
G36*
X234276D02*X231497D01*
Y251453D01*
X231500Y251500D01*
X231497Y251547D01*
Y254491D01*
X231773Y254727D01*
X232029Y255026D01*
X232234Y255362D01*
X232385Y255725D01*
X232477Y256108D01*
X232500Y256500D01*
X232477Y256892D01*
X232385Y257275D01*
X232234Y257638D01*
X232029Y257974D01*
X231773Y258273D01*
X231497Y258509D01*
Y278491D01*
X231773Y278727D01*
X232029Y279026D01*
X232234Y279362D01*
X232385Y279725D01*
X232458Y280029D01*
X232526Y279971D01*
X232862Y279766D01*
X233225Y279615D01*
X233608Y279523D01*
X234000Y279492D01*
X234276Y279514D01*
Y261728D01*
X233887Y261697D01*
X233505Y261605D01*
X233141Y261455D01*
X232806Y261249D01*
X232506Y260994D01*
X232251Y260694D01*
X232045Y260359D01*
X231895Y259995D01*
X231803Y259613D01*
X231772Y259220D01*
X231803Y258828D01*
X231895Y258446D01*
X232045Y258082D01*
X232251Y257746D01*
X232506Y257447D01*
X232806Y257192D01*
X233141Y256986D01*
X233505Y256835D01*
X233887Y256744D01*
X234276Y256713D01*
Y216500D01*
G37*
G36*
X231497Y371000D02*X238496D01*
Y308507D01*
X238108Y308477D01*
X237725Y308385D01*
X237362Y308234D01*
X237026Y308029D01*
X236727Y307773D01*
X236471Y307474D01*
X236266Y307138D01*
X236115Y306775D01*
X236023Y306392D01*
X235992Y306000D01*
X236023Y305608D01*
X236115Y305225D01*
X236266Y304862D01*
X236471Y304526D01*
X236727Y304227D01*
X237026Y303971D01*
X237362Y303766D01*
X237725Y303615D01*
X238108Y303523D01*
X238496Y303493D01*
Y285952D01*
X238392Y285977D01*
X238000Y286008D01*
X237608Y285977D01*
X237225Y285885D01*
X236862Y285734D01*
X236526Y285529D01*
X236227Y285273D01*
X235971Y284974D01*
X235766Y284638D01*
X235615Y284275D01*
X235542Y283971D01*
X235474Y284029D01*
X235138Y284234D01*
X234775Y284385D01*
X234392Y284477D01*
X234000Y284508D01*
X233608Y284477D01*
X233225Y284385D01*
X232862Y284234D01*
X232526Y284029D01*
X232227Y283773D01*
X231971Y283474D01*
X231766Y283138D01*
X231615Y282775D01*
X231542Y282471D01*
X231497Y282509D01*
Y287991D01*
X231773Y288227D01*
X232029Y288526D01*
X232234Y288862D01*
X232385Y289225D01*
X232477Y289608D01*
X232500Y290000D01*
X232477Y290392D01*
X232385Y290775D01*
X232234Y291138D01*
X232029Y291474D01*
X232012Y291493D01*
X232392Y291523D01*
X232775Y291615D01*
X233138Y291766D01*
X233474Y291971D01*
X233773Y292227D01*
X234029Y292526D01*
X234234Y292862D01*
X234385Y293225D01*
X234477Y293608D01*
X234500Y294000D01*
X234477Y294392D01*
X234385Y294775D01*
X234234Y295138D01*
X234029Y295474D01*
X233773Y295773D01*
X233474Y296029D01*
X233138Y296234D01*
X232775Y296385D01*
X232392Y296477D01*
X232000Y296508D01*
X231608Y296477D01*
X231497Y296450D01*
Y300769D01*
X231717Y300716D01*
X232000Y300693D01*
X232283Y300716D01*
X232558Y300782D01*
X232820Y300890D01*
X233062Y301038D01*
X233277Y301223D01*
X233462Y301438D01*
X233610Y301680D01*
X233718Y301942D01*
X233784Y302217D01*
X233801Y302500D01*
X233784Y302783D01*
X233718Y303058D01*
X233610Y303320D01*
X233462Y303562D01*
X233277Y303777D01*
X233062Y303962D01*
X232820Y304110D01*
X232558Y304218D01*
X232283Y304284D01*
X232000Y304307D01*
X231717Y304284D01*
X231497Y304231D01*
Y308694D01*
X231500Y308693D01*
X231783Y308716D01*
X232058Y308782D01*
X232320Y308890D01*
X232562Y309038D01*
X232777Y309223D01*
X232962Y309438D01*
X233110Y309680D01*
X233218Y309942D01*
X233284Y310217D01*
X233301Y310500D01*
X233284Y310783D01*
X233218Y311058D01*
X233110Y311320D01*
X232962Y311562D01*
X232777Y311777D01*
X232562Y311962D01*
X232320Y312110D01*
X232058Y312218D01*
X231783Y312284D01*
X231500Y312307D01*
X231497Y312306D01*
Y338991D01*
X231773Y339227D01*
X232029Y339526D01*
X232234Y339862D01*
X232385Y340225D01*
X232477Y340608D01*
X232500Y341000D01*
X232477Y341392D01*
X232385Y341775D01*
X232234Y342138D01*
X232029Y342474D01*
X231773Y342773D01*
X231497Y343009D01*
Y371000D01*
G37*
G36*
Y296450D02*X231225Y296385D01*
X230862Y296234D01*
X230526Y296029D01*
X230227Y295773D01*
X229971Y295474D01*
X229766Y295138D01*
X229615Y294775D01*
X229523Y294392D01*
X229492Y294000D01*
X229523Y293608D01*
X229615Y293225D01*
X229766Y292862D01*
X229971Y292526D01*
X229988Y292507D01*
X229608Y292477D01*
X229225Y292385D01*
X228996Y292290D01*
Y338710D01*
X229225Y338615D01*
X229608Y338523D01*
X230000Y338492D01*
X230392Y338523D01*
X230775Y338615D01*
X231138Y338766D01*
X231474Y338971D01*
X231497Y338991D01*
Y312306D01*
X231217Y312284D01*
X230942Y312218D01*
X230680Y312110D01*
X230438Y311962D01*
X230223Y311777D01*
X230038Y311562D01*
X229890Y311320D01*
X229782Y311058D01*
X229716Y310783D01*
X229693Y310500D01*
X229716Y310217D01*
X229782Y309942D01*
X229890Y309680D01*
X230038Y309438D01*
X230223Y309223D01*
X230438Y309038D01*
X230680Y308890D01*
X230942Y308782D01*
X231217Y308716D01*
X231497Y308694D01*
Y304231D01*
X231442Y304218D01*
X231180Y304110D01*
X230938Y303962D01*
X230723Y303777D01*
X230538Y303562D01*
X230390Y303320D01*
X230282Y303058D01*
X230216Y302783D01*
X230193Y302500D01*
X230216Y302217D01*
X230282Y301942D01*
X230390Y301680D01*
X230538Y301438D01*
X230723Y301223D01*
X230938Y301038D01*
X231180Y300890D01*
X231442Y300782D01*
X231497Y300769D01*
Y296450D01*
G37*
G36*
Y282509D02*X231474Y282529D01*
X231138Y282734D01*
X230775Y282885D01*
X230392Y282977D01*
X230000Y283008D01*
X229608Y282977D01*
X229225Y282885D01*
X228996Y282790D01*
Y287710D01*
X229225Y287615D01*
X229608Y287523D01*
X230000Y287492D01*
X230392Y287523D01*
X230775Y287615D01*
X231138Y287766D01*
X231474Y287971D01*
X231497Y287991D01*
Y282509D01*
G37*
G36*
Y258509D02*X231474Y258529D01*
X231138Y258734D01*
X230775Y258885D01*
X230392Y258977D01*
X230000Y259008D01*
X229608Y258977D01*
X229225Y258885D01*
X228996Y258790D01*
Y278210D01*
X229225Y278115D01*
X229608Y278023D01*
X230000Y277992D01*
X230392Y278023D01*
X230775Y278115D01*
X231138Y278266D01*
X231474Y278471D01*
X231497Y278491D01*
Y258509D01*
G37*
G36*
Y251547D02*X231477Y251892D01*
X231385Y252275D01*
X231234Y252638D01*
X231029Y252974D01*
X230773Y253273D01*
X230474Y253529D01*
X230138Y253734D01*
X229775Y253885D01*
X229392Y253977D01*
X229000Y254008D01*
X228996Y254007D01*
Y254210D01*
X229225Y254115D01*
X229608Y254023D01*
X230000Y253992D01*
X230392Y254023D01*
X230775Y254115D01*
X231138Y254266D01*
X231474Y254471D01*
X231497Y254491D01*
Y251547D01*
G37*
G36*
Y216500D02*X228996D01*
Y248993D01*
X229000Y248992D01*
X229392Y249023D01*
X229775Y249115D01*
X230138Y249266D01*
X230474Y249471D01*
X230773Y249727D01*
X231029Y250026D01*
X231234Y250362D01*
X231385Y250725D01*
X231477Y251108D01*
X231497Y251453D01*
Y216500D01*
G37*
G36*
X228996Y384004D02*X230500Y382500D01*
Y371000D01*
X231497D01*
Y343009D01*
X231474Y343029D01*
X231138Y343234D01*
X230775Y343385D01*
X230392Y343477D01*
X230000Y343508D01*
X229608Y343477D01*
X229225Y343385D01*
X228996Y343290D01*
Y347267D01*
X229058Y347282D01*
X229320Y347390D01*
X229562Y347538D01*
X229777Y347723D01*
X229962Y347938D01*
X230110Y348180D01*
X230218Y348442D01*
X230284Y348717D01*
X230301Y349000D01*
X230284Y349283D01*
X230218Y349558D01*
X230110Y349820D01*
X229962Y350062D01*
X229777Y350277D01*
X229562Y350462D01*
X229320Y350610D01*
X229058Y350718D01*
X228996Y350733D01*
Y354767D01*
X229058Y354782D01*
X229320Y354890D01*
X229562Y355038D01*
X229777Y355223D01*
X229962Y355438D01*
X230110Y355680D01*
X230218Y355942D01*
X230284Y356217D01*
X230301Y356500D01*
X230284Y356783D01*
X230218Y357058D01*
X230110Y357320D01*
X229962Y357562D01*
X229777Y357777D01*
X229562Y357962D01*
X229320Y358110D01*
X229058Y358218D01*
X228996Y358233D01*
Y384004D01*
G37*
G36*
X222996Y385500D02*X227500D01*
X228996Y384004D01*
Y358233D01*
X228783Y358284D01*
X228500Y358307D01*
X228217Y358284D01*
X227942Y358218D01*
X227680Y358110D01*
X227438Y357962D01*
X227223Y357777D01*
X227038Y357562D01*
X226890Y357320D01*
X226782Y357058D01*
X226716Y356783D01*
X226693Y356500D01*
X226716Y356217D01*
X226782Y355942D01*
X226890Y355680D01*
X227038Y355438D01*
X227223Y355223D01*
X227438Y355038D01*
X227680Y354890D01*
X227942Y354782D01*
X228217Y354716D01*
X228500Y354693D01*
X228783Y354716D01*
X228996Y354767D01*
Y350733D01*
X228783Y350784D01*
X228500Y350807D01*
X228217Y350784D01*
X227942Y350718D01*
X227680Y350610D01*
X227438Y350462D01*
X227223Y350277D01*
X227038Y350062D01*
X226890Y349820D01*
X226782Y349558D01*
X226716Y349283D01*
X226693Y349000D01*
X226716Y348717D01*
X226782Y348442D01*
X226890Y348180D01*
X227038Y347938D01*
X227223Y347723D01*
X227438Y347538D01*
X227680Y347390D01*
X227942Y347282D01*
X228217Y347216D01*
X228500Y347193D01*
X228783Y347216D01*
X228996Y347267D01*
Y343290D01*
X228862Y343234D01*
X228526Y343029D01*
X228227Y342773D01*
X227971Y342474D01*
X227766Y342138D01*
X227615Y341775D01*
X227523Y341392D01*
X227492Y341000D01*
X227523Y340608D01*
X227615Y340225D01*
X227766Y339862D01*
X227971Y339526D01*
X228227Y339227D01*
X228526Y338971D01*
X228862Y338766D01*
X228996Y338710D01*
Y292290D01*
X228862Y292234D01*
X228526Y292029D01*
X228227Y291773D01*
X227971Y291474D01*
X227766Y291138D01*
X227615Y290775D01*
X227523Y290392D01*
X227492Y290000D01*
X227523Y289608D01*
X227615Y289225D01*
X227766Y288862D01*
X227971Y288526D01*
X228227Y288227D01*
X228526Y287971D01*
X228862Y287766D01*
X228996Y287710D01*
Y282790D01*
X228862Y282734D01*
X228526Y282529D01*
X228227Y282273D01*
X227971Y281974D01*
X227766Y281638D01*
X227615Y281275D01*
X227523Y280892D01*
X227492Y280500D01*
X227523Y280108D01*
X227615Y279725D01*
X227766Y279362D01*
X227971Y279026D01*
X228227Y278727D01*
X228526Y278471D01*
X228862Y278266D01*
X228996Y278210D01*
Y258790D01*
X228862Y258734D01*
X228526Y258529D01*
X228227Y258273D01*
X227971Y257974D01*
X227766Y257638D01*
X227615Y257275D01*
X227523Y256892D01*
X227492Y256500D01*
X227523Y256108D01*
X227615Y255725D01*
X227766Y255362D01*
X227971Y255026D01*
X228227Y254727D01*
X228526Y254471D01*
X228862Y254266D01*
X228996Y254210D01*
Y254007D01*
X228608Y253977D01*
X228225Y253885D01*
X227862Y253734D01*
X227526Y253529D01*
X227227Y253273D01*
X226971Y252974D01*
X226766Y252638D01*
X226615Y252275D01*
X226523Y251892D01*
X226492Y251500D01*
X226523Y251108D01*
X226615Y250725D01*
X226766Y250362D01*
X226971Y250026D01*
X227227Y249727D01*
X227526Y249471D01*
X227862Y249266D01*
X228225Y249115D01*
X228608Y249023D01*
X228996Y248993D01*
Y216500D01*
X222996D01*
Y225269D01*
X223217Y225216D01*
X223500Y225193D01*
X223783Y225216D01*
X224058Y225282D01*
X224320Y225390D01*
X224562Y225538D01*
X224777Y225723D01*
X224962Y225938D01*
X225110Y226180D01*
X225218Y226442D01*
X225284Y226717D01*
X225301Y227000D01*
X225284Y227283D01*
X225218Y227558D01*
X225110Y227820D01*
X224962Y228062D01*
X224777Y228277D01*
X224562Y228462D01*
X224320Y228610D01*
X224058Y228718D01*
X223783Y228784D01*
X223500Y228807D01*
X223217Y228784D01*
X222996Y228731D01*
Y235993D01*
X223000Y235992D01*
X223392Y236023D01*
X223775Y236115D01*
X224138Y236266D01*
X224474Y236471D01*
X224773Y236727D01*
X225029Y237026D01*
X225234Y237362D01*
X225385Y237725D01*
X225477Y238108D01*
X225500Y238500D01*
X225477Y238892D01*
X225385Y239275D01*
X225234Y239638D01*
X225029Y239974D01*
X224773Y240273D01*
X224474Y240529D01*
X224138Y240734D01*
X223775Y240885D01*
X223392Y240977D01*
X223000Y241008D01*
X222996Y241007D01*
Y328769D01*
X223217Y328716D01*
X223500Y328693D01*
X223783Y328716D01*
X224058Y328782D01*
X224320Y328890D01*
X224562Y329038D01*
X224777Y329223D01*
X224962Y329438D01*
X225110Y329680D01*
X225218Y329942D01*
X225284Y330217D01*
X225301Y330500D01*
X225284Y330783D01*
X225218Y331058D01*
X225110Y331320D01*
X224962Y331562D01*
X224777Y331777D01*
X224562Y331962D01*
X224320Y332110D01*
X224058Y332218D01*
X223783Y332284D01*
X223500Y332307D01*
X223217Y332284D01*
X222996Y332231D01*
Y385500D01*
G37*
G36*
X216996D02*X222996D01*
Y332231D01*
X222942Y332218D01*
X222680Y332110D01*
X222438Y331962D01*
X222223Y331777D01*
X222038Y331562D01*
X221890Y331320D01*
X221782Y331058D01*
X221716Y330783D01*
X221693Y330500D01*
X221716Y330217D01*
X221782Y329942D01*
X221890Y329680D01*
X222038Y329438D01*
X222223Y329223D01*
X222438Y329038D01*
X222680Y328890D01*
X222942Y328782D01*
X222996Y328769D01*
Y241007D01*
X222608Y240977D01*
X222225Y240885D01*
X221862Y240734D01*
X221526Y240529D01*
X221227Y240273D01*
X220971Y239974D01*
X220766Y239638D01*
X220615Y239275D01*
X220523Y238892D01*
X220492Y238500D01*
X220523Y238108D01*
X220615Y237725D01*
X220766Y237362D01*
X220971Y237026D01*
X221227Y236727D01*
X221526Y236471D01*
X221862Y236266D01*
X222225Y236115D01*
X222608Y236023D01*
X222996Y235993D01*
Y228731D01*
X222942Y228718D01*
X222680Y228610D01*
X222438Y228462D01*
X222223Y228277D01*
X222038Y228062D01*
X221890Y227820D01*
X221782Y227558D01*
X221716Y227283D01*
X221693Y227000D01*
X221716Y226717D01*
X221782Y226442D01*
X221890Y226180D01*
X222038Y225938D01*
X222223Y225723D01*
X222438Y225538D01*
X222680Y225390D01*
X222942Y225282D01*
X222996Y225269D01*
Y216500D01*
X216996D01*
Y267993D01*
X217000Y267992D01*
X217392Y268023D01*
X217775Y268115D01*
X218138Y268266D01*
X218474Y268471D01*
X218773Y268727D01*
X219029Y269026D01*
X219234Y269362D01*
X219385Y269725D01*
X219477Y270108D01*
X219500Y270500D01*
X219477Y270892D01*
X219385Y271275D01*
X219234Y271638D01*
X219029Y271974D01*
X218773Y272273D01*
X218474Y272529D01*
X218138Y272734D01*
X217775Y272885D01*
X217392Y272977D01*
X217000Y273008D01*
X216996Y273007D01*
Y275493D01*
X217000Y275492D01*
X217392Y275523D01*
X217775Y275615D01*
X218138Y275766D01*
X218474Y275971D01*
X218773Y276227D01*
X219029Y276526D01*
X219234Y276862D01*
X219385Y277225D01*
X219477Y277608D01*
X219500Y278000D01*
X219477Y278392D01*
X219385Y278775D01*
X219234Y279138D01*
X219029Y279474D01*
X218773Y279773D01*
X218474Y280029D01*
X218138Y280234D01*
X217775Y280385D01*
X217392Y280477D01*
X217000Y280508D01*
X216996Y280507D01*
Y290435D01*
X217000Y290500D01*
X216996Y290565D01*
Y385500D01*
G37*
G36*
Y216500D02*X211996D01*
Y219493D01*
X212000Y219492D01*
X212392Y219523D01*
X212775Y219615D01*
X213138Y219766D01*
X213474Y219971D01*
X213773Y220227D01*
X214029Y220526D01*
X214234Y220862D01*
X214385Y221225D01*
X214477Y221608D01*
X214500Y222000D01*
X214477Y222392D01*
X214385Y222775D01*
X214234Y223138D01*
X214029Y223474D01*
X213773Y223773D01*
X213474Y224029D01*
X213138Y224234D01*
X212775Y224385D01*
X212392Y224477D01*
X212000Y224508D01*
X211996Y224507D01*
Y290451D01*
X212023Y290108D01*
X212115Y289725D01*
X212266Y289362D01*
X212471Y289026D01*
X212727Y288727D01*
X213026Y288471D01*
X213362Y288266D01*
X213725Y288115D01*
X214108Y288023D01*
X214500Y287992D01*
X214892Y288023D01*
X215275Y288115D01*
X215638Y288266D01*
X215974Y288471D01*
X216273Y288727D01*
X216529Y289026D01*
X216734Y289362D01*
X216885Y289725D01*
X216977Y290108D01*
X216996Y290435D01*
Y280507D01*
X216608Y280477D01*
X216225Y280385D01*
X215862Y280234D01*
X215526Y280029D01*
X215227Y279773D01*
X214971Y279474D01*
X214766Y279138D01*
X214615Y278775D01*
X214523Y278392D01*
X214492Y278000D01*
X214523Y277608D01*
X214615Y277225D01*
X214766Y276862D01*
X214971Y276526D01*
X215227Y276227D01*
X215526Y275971D01*
X215862Y275766D01*
X216225Y275615D01*
X216608Y275523D01*
X216996Y275493D01*
Y273007D01*
X216608Y272977D01*
X216225Y272885D01*
X215862Y272734D01*
X215526Y272529D01*
X215227Y272273D01*
X214971Y271974D01*
X214766Y271638D01*
X214615Y271275D01*
X214523Y270892D01*
X214492Y270500D01*
X214523Y270108D01*
X214615Y269725D01*
X214766Y269362D01*
X214971Y269026D01*
X215227Y268727D01*
X215526Y268471D01*
X215862Y268266D01*
X216225Y268115D01*
X216608Y268023D01*
X216996Y267993D01*
Y216500D01*
G37*
G36*
X211996Y385500D02*X216996D01*
Y290565D01*
X216977Y290892D01*
X216885Y291275D01*
X216734Y291638D01*
X216529Y291974D01*
X216273Y292273D01*
X215974Y292529D01*
X215638Y292734D01*
X215275Y292885D01*
X214892Y292977D01*
X214500Y293008D01*
X214108Y292977D01*
X213725Y292885D01*
X213362Y292734D01*
X213026Y292529D01*
X212727Y292273D01*
X212471Y291974D01*
X212266Y291638D01*
X212115Y291275D01*
X212023Y290892D01*
X211996Y290549D01*
Y385500D01*
G37*
G36*
X206496D02*X211996D01*
Y290549D01*
X211992Y290500D01*
X211996Y290451D01*
Y224507D01*
X211608Y224477D01*
X211225Y224385D01*
X210862Y224234D01*
X210526Y224029D01*
X210227Y223773D01*
X209971Y223474D01*
X209766Y223138D01*
X209615Y222775D01*
X209523Y222392D01*
X209492Y222000D01*
X209523Y221608D01*
X209615Y221225D01*
X209766Y220862D01*
X209971Y220526D01*
X210227Y220227D01*
X210526Y219971D01*
X210862Y219766D01*
X211225Y219615D01*
X211608Y219523D01*
X211996Y219493D01*
Y216500D01*
X206496D01*
Y219493D01*
X206500Y219492D01*
X206892Y219523D01*
X207275Y219615D01*
X207638Y219766D01*
X207974Y219971D01*
X208273Y220227D01*
X208529Y220526D01*
X208734Y220862D01*
X208885Y221225D01*
X208977Y221608D01*
X209000Y222000D01*
X208977Y222392D01*
X208885Y222775D01*
X208734Y223138D01*
X208529Y223474D01*
X208273Y223773D01*
X207974Y224029D01*
X207638Y224234D01*
X207275Y224385D01*
X206892Y224477D01*
X206500Y224508D01*
X206496Y224507D01*
Y385500D01*
G37*
G36*
X182500Y382500D02*X185500Y385500D01*
X206496D01*
Y224507D01*
X206108Y224477D01*
X205725Y224385D01*
X205362Y224234D01*
X205026Y224029D01*
X204727Y223773D01*
X204471Y223474D01*
X204266Y223138D01*
X204115Y222775D01*
X204023Y222392D01*
X203992Y222000D01*
X204023Y221608D01*
X204115Y221225D01*
X204266Y220862D01*
X204471Y220526D01*
X204727Y220227D01*
X205026Y219971D01*
X205362Y219766D01*
X205725Y219615D01*
X206108Y219523D01*
X206496Y219493D01*
Y216500D01*
X185500D01*
X182500Y219500D01*
Y382500D01*
G37*
G54D44*X240500Y348500D02*Y325500D01*
X261000D01*
X242000Y346500D02*Y326500D01*
X258000Y346500D02*X242000D01*
Y326500D02*X260500D01*
X262500Y334500D02*X267500D01*
X268500Y332500D02*Y338500D01*
X261000Y325500D02*X268500Y332500D01*
X267000D02*Y337500D01*
X258500Y348500D02*X240500D01*
X268500Y338500D02*X258500Y348500D01*
X267000Y337500D02*X258000Y346500D01*
X260500Y326500D02*X267000Y332500D01*
G54D45*X369500Y192000D03*
G54D46*X384291Y279220D03*
G54D45*X369500Y86500D03*
Y401500D03*
G54D47*X373661Y302843D03*
Y283157D03*
G54D46*X384291Y306780D03*
G54D48*X362500Y294000D03*
G54D49*X365500Y287500D03*
X359500Y290000D03*
X364500Y311500D03*
G54D48*X377500Y312500D03*
G54D49*X374500Y328000D03*
X381500D03*
G54D48*X358500Y320500D03*
X355000Y323500D03*
G54D49*X354000Y327000D03*
G54D48*X360500Y332500D03*
X372000Y307500D03*
X355500Y281000D03*
X355000Y261000D03*
X334000Y297000D03*
Y301500D03*
G54D49*X343000Y321500D03*
G54D48*X343500Y307000D03*
X333500Y292500D03*
X334500Y285500D03*
G54D49*X346000Y322500D03*
X329000Y326000D03*
G54D48*X330000Y320500D03*
X303500Y318500D03*
X303000Y309500D03*
X307000Y306000D03*
X320500Y305500D03*
X343500Y282000D03*
X343000Y261000D03*
X346500Y222000D03*
X342000Y237000D03*
Y248000D03*
X334000Y263000D03*
G54D49*X328500Y220500D03*
X331500Y229500D03*
G54D48*X320500Y252500D03*
X311500Y241000D03*
Y229000D03*
G54D49*X300000Y223500D03*
G54D48*X313000Y250000D03*
X287500D03*
X302500Y281500D03*
X304000Y250500D03*
X314000Y257500D03*
X287500Y228500D03*
X285500Y241000D03*
G54D49*X282000Y229500D03*
X275000D03*
G54D48*X262500Y334500D03*
G54D49*X282500Y349500D03*
Y367000D03*
Y358000D03*
G54D48*X281736Y313264D03*
G54D49*X274000Y334000D03*
G54D48*X269000Y343000D03*
G54D49*X274000Y325500D03*
X267000Y322500D03*
X276500Y323000D03*
X231500Y310500D03*
G54D48*X238500Y306000D03*
G54D49*X232000Y302500D03*
G54D48*X261500Y295500D03*
G54D49*X384000Y360000D03*
X379000D03*
X374000D03*
X369000D03*
X340000Y365500D03*
X343500D03*
X347000D03*
X350000D03*
X336500D03*
G54D48*X384000Y371500D03*
G54D49*X276500Y339000D03*
X297500Y333500D03*
X300000Y336000D03*
X294000Y338500D03*
X303000Y341500D03*
X306000Y342500D03*
X296500D03*
G54D48*X320500Y325000D03*
G54D49*X294000Y323500D03*
X288000Y325500D03*
X282000D03*
X299500Y326000D03*
X317000D03*
X291500Y325500D03*
X303500Y325000D03*
X318000Y353000D03*
X308500Y366500D03*
X298000Y369500D03*
Y361500D03*
X319500Y366500D03*
X331500Y337000D03*
G54D48*X320000Y334000D03*
G54D49*X328500Y336500D03*
X254000Y362500D03*
G54D48*X218000Y361000D03*
G54D49*X228500Y349000D03*
Y356500D03*
G54D48*X230000Y341000D03*
G54D49*X223500Y330500D03*
G54D48*X218000Y294500D03*
X214500Y290500D03*
X185000Y383000D03*
Y372500D03*
Y357000D03*
Y341500D03*
X202500Y382500D03*
X193500D03*
G54D49*X384000Y150500D03*
X379000D03*
X381500Y118500D03*
X374000Y150500D03*
X369000D03*
G54D48*X384000Y162000D03*
G54D49*Y45000D03*
G54D48*Y56500D03*
G54D49*X379000Y45000D03*
X374000D03*
X369000D03*
G54D48*X333500Y38500D03*
G54D49*X374500Y13000D03*
G54D48*X333500Y10000D03*
X355000D03*
G54D49*X381500Y13000D03*
X374500Y118500D03*
G54D48*X342000Y137500D03*
X355500Y131500D03*
X356000Y59500D03*
G54D49*X258500Y280000D03*
G54D48*X259500Y302500D03*
X264800Y306200D03*
G54D49*X263500Y280500D03*
G54D48*X266000Y267000D03*
G54D49*X258000Y286500D03*
G54D48*X267000Y218500D03*
G54D49*X261500Y232000D03*
G54D48*X271000Y229000D03*
X267000Y231000D03*
G54D49*X258500Y232000D03*
G54D48*X248500Y252500D03*
X247500Y257000D03*
Y261500D03*
G54D49*X258500Y253000D03*
G54D48*X249500Y274000D03*
G54D49*X270000Y250500D03*
X265989Y249989D03*
G54D48*X185000Y327500D03*
Y312000D03*
Y295500D03*
X276000Y257000D03*
X234280Y259220D03*
X230000Y256500D03*
X185000Y261000D03*
X217000Y278000D03*
X230000Y290000D03*
X217000Y270500D03*
X232000Y294000D03*
X230000Y280500D03*
X234000Y282000D03*
X238000Y283500D03*
X185000Y284000D03*
Y271500D03*
X243000Y244500D03*
X229000Y251500D03*
X223000Y238500D03*
G54D49*X223500Y227000D03*
X234500Y231500D03*
X231500D03*
X228000D03*
G54D48*X206500Y222000D03*
G54D49*X198500Y226000D03*
Y229000D03*
Y232500D03*
G54D48*X212000Y222000D03*
X243000Y224000D03*
G54D49*X255000Y232000D03*
G54D48*X247000Y236500D03*
G54D49*X251000Y242000D03*
X247000Y242500D03*
G54D50*G54D51*G54D50*G54D51*G54D50*G54D51*G54D50*G54D51*G54D50*G54D51*G54D50*G54D51*G54D50*G54D51*G54D50*G54D51*G54D50*G54D51*G54D50*G54D51*G54D50*G54D51*G54D50*G54D51*G54D50*G54D51*G54D50*G54D51*G54D50*G54D51*G54D50*G54D51*G54D50*G54D51*G54D50*G54D51*G54D50*G54D51*G54D50*G54D51*G54D50*G54D51*G54D50*G54D51*G54D50*G54D51*G54D50*G54D51*G54D50*G54D51*G54D50*G54D51*G54D50*G54D51*G54D50*G54D51*G54D50*G54D51*G54D50*G54D51*G54D50*G54D51*G54D50*G54D51*G54D50*G54D51*G54D50*G54D51*G54D52*G54D53*G54D52*G54D54*G54D53*M02*
