G04 start of page 10 for group -4079 idx -4079 *
G04 Title: fet12logic, topsilk *
G04 Creator: pcb 20140316 *
G04 CreationDate: Thu 12 Apr 2018 02:45:11 AM GMT UTC *
G04 For: brian *
G04 Format: Gerber/RS-274X *
G04 PCB-Dimensions (mil): 6000.00 5000.00 *
G04 PCB-Coordinate-Origin: lower left *
%MOIN*%
%FSLAX25Y25*%
%LNTOPSILK*%
%ADD113C,0.0200*%
%ADD112C,0.0120*%
%ADD111C,0.0080*%
%ADD110C,0.0100*%
G54D110*X185500Y241500D02*X187000Y243000D01*
X185500Y244500D01*
Y241500D01*
X187500Y244500D02*Y241500D01*
Y243000D02*X190000D01*
X185500D02*X183000D01*
X368000Y9500D02*X365500D01*
X247000Y219500D02*Y217000D01*
X241000Y219500D02*Y217000D01*
X239500Y219500D02*X242500D01*
X241000Y221000D02*X239500Y219500D01*
X242500D02*X241000Y221000D01*
X247000Y224000D02*Y221500D01*
X241000Y224000D02*Y221500D01*
X239500D02*X242500D01*
X245500D02*X248500D01*
X245500Y219500D02*X248500D01*
X247000Y221000D02*X245500Y219500D01*
X248500D02*X247000Y221000D01*
G54D111*X239500Y235520D02*Y231600D01*
X241950Y235520D02*Y231600D01*
X239500Y233560D02*X241950D01*
X240500Y229250D02*X240875Y228875D01*
X239375Y229250D02*X240500D01*
X239000Y228875D02*X239375Y229250D01*
X239000Y228875D02*Y226625D01*
X239375Y226250D01*
X240500D01*
X240875Y226625D01*
Y227375D02*Y226625D01*
X240500Y227750D02*X240875Y227375D01*
X239750Y227750D02*X240500D01*
X241775Y229250D02*X243275D01*
X243650Y228875D01*
Y228125D01*
X243275Y227750D02*X243650Y228125D01*
X242150Y227750D02*X243275D01*
X242150Y229250D02*Y226250D01*
X242750Y227750D02*X243650Y226250D01*
X244550Y227900D02*X245675D01*
X244550Y226250D02*X246050D01*
X244550Y229250D02*Y226250D01*
Y229250D02*X246050D01*
X246950Y227900D02*X248075D01*
X246950Y226250D02*X248450D01*
X246950Y229250D02*Y226250D01*
Y229250D02*X248450D01*
X249350D02*Y226250D01*
Y229250D02*X251225Y226250D01*
Y229250D02*Y226250D01*
X249000Y235520D02*Y231600D01*
X250960D01*
X193980Y239760D02*X194350Y239390D01*
X192870Y239760D02*X193980D01*
X192500Y239390D02*X192870Y239760D01*
X192500Y239390D02*Y237170D01*
X192870Y236800D01*
X193980D01*
X194350Y237170D01*
Y237910D02*Y237170D01*
X193980Y238280D02*X194350Y237910D01*
X193240Y238280D02*X193980D01*
X196570Y237170D02*X196940Y236800D01*
X196570Y239390D02*Y237170D01*
Y239390D02*X196940Y239760D01*
X197680D01*
X198050Y239390D01*
Y237170D01*
X197680Y236800D02*X198050Y237170D01*
X196940Y236800D02*X197680D01*
X196570Y237540D02*X198050Y239020D01*
X204000Y225750D02*X204750Y224250D01*
X205500Y225750D01*
X204750Y224250D02*Y222750D01*
X207750Y225375D02*X208125Y225750D01*
X209250D01*
X209625Y225375D01*
Y224625D01*
X207750Y222750D02*X209625Y224625D01*
X207750Y222750D02*X209625D01*
X204000Y229750D02*X205500D01*
X205875Y229375D01*
Y228625D01*
X205500Y228250D02*X205875Y228625D01*
X204375Y228250D02*X205500D01*
X204375Y229750D02*Y226750D01*
X204975Y228250D02*X205875Y226750D01*
X208125Y229150D02*X208725Y229750D01*
Y226750D01*
X208125D02*X209250D01*
X192500Y220270D02*X193960D01*
X194325Y219905D01*
Y219175D01*
X193960Y218810D02*X194325Y219175D01*
X192865Y218810D02*X193960D01*
X192865Y220270D02*Y217350D01*
X193449Y218810D02*X194325Y217350D01*
X196515Y220270D02*X197975D01*
X197245D02*Y217350D01*
X199216D02*X200311D01*
X198851Y217715D02*X199216Y217350D01*
X198851Y218445D02*Y217715D01*
Y218445D02*X199216Y218810D01*
X199946D01*
X200311Y218445D01*
X198851Y218080D02*X200311D01*
Y218445D02*Y218080D01*
X201552Y217350D02*X202647D01*
X201187Y217715D02*X201552Y217350D01*
X201187Y218445D02*Y217715D01*
Y218445D02*X201552Y218810D01*
X202282D01*
X202647Y218445D01*
X201187Y218080D02*X202647D01*
Y218445D02*Y218080D01*
X203888Y218445D02*Y217350D01*
Y218445D02*X204253Y218810D01*
X204618D01*
X204983Y218445D01*
Y217350D01*
X203523Y218810D02*X203888Y218445D01*
X206224Y217350D02*X207319D01*
X207684Y217715D01*
X207319Y218080D02*X207684Y217715D01*
X206224Y218080D02*X207319D01*
X205859Y218445D02*X206224Y218080D01*
X205859Y218445D02*X206224Y218810D01*
X207319D01*
X207684Y218445D01*
X205859Y217715D02*X206224Y217350D01*
X208560Y218810D02*Y217715D01*
X208925Y217350D01*
X210020Y218810D02*Y216620D01*
X209655Y216255D02*X210020Y216620D01*
X208925Y216255D02*X209655D01*
X208560Y216620D02*X208925Y216255D01*
Y217350D02*X209655D01*
X210020Y217715D01*
X315000Y221030D02*X315490Y221520D01*
X316470D01*
X316960Y221030D01*
X316470Y217600D02*X316960Y218090D01*
X315490Y217600D02*X316470D01*
X315000Y218090D02*X315490Y217600D01*
Y219756D02*X316470D01*
X316960Y221030D02*Y220246D01*
Y219266D02*Y218090D01*
Y219266D02*X316470Y219756D01*
X316960Y220246D02*X316470Y219756D01*
X332480Y70460D02*X332970Y70950D01*
X332480Y70460D02*Y68990D01*
X332970Y68500D02*X332480Y68990D01*
X332970Y68500D02*X333950D01*
X334440Y68990D01*
Y70460D02*Y68990D01*
Y70460D02*X334930Y70950D01*
X335910D01*
X336400Y70460D02*X335910Y70950D01*
X336400Y70460D02*Y68990D01*
X335910Y68500D02*X336400Y68990D01*
Y74086D02*Y72616D01*
X335910Y72126D02*X336400Y72616D01*
X334930Y72126D02*X335910D01*
X334930D02*X334440Y72616D01*
Y73596D02*Y72616D01*
Y73596D02*X334930Y74086D01*
X335420D02*Y72126D01*
X334930Y74086D02*X335420D01*
X336400Y77222D02*Y75752D01*
X335910Y75262D02*X336400Y75752D01*
X334930Y75262D02*X335910D01*
X334930D02*X334440Y75752D01*
Y76732D02*Y75752D01*
Y76732D02*X334930Y77222D01*
X335420D02*Y75262D01*
X334930Y77222D02*X335420D01*
X334930Y78888D02*X336400D01*
X334930D02*X334440Y79378D01*
Y79868D02*Y79378D01*
Y79868D02*X334930Y80358D01*
X336400D01*
X334930D02*X334440Y80848D01*
Y81338D02*Y80848D01*
Y81338D02*X334930Y81828D01*
X336400D01*
X334440Y78398D02*X334930Y78888D01*
X336400Y84964D02*Y83494D01*
Y84964D02*X335910Y85454D01*
X335420Y84964D02*X335910Y85454D01*
X335420Y84964D02*Y83494D01*
X334930Y83004D02*X335420Y83494D01*
X334930Y83004D02*X334440Y83494D01*
Y84964D02*Y83494D01*
Y84964D02*X334930Y85454D01*
X335910Y83004D02*X336400Y83494D01*
X332480Y90354D02*Y88394D01*
Y90354D02*X332970Y90844D01*
X333950D01*
X334440Y90354D02*X333950Y90844D01*
X334440Y90354D02*Y88884D01*
X332480D02*X336400D01*
X334440Y89668D02*X336400Y90844D01*
Y93980D02*Y92510D01*
X335910Y92020D02*X336400Y92510D01*
X334930Y92020D02*X335910D01*
X334930D02*X334440Y92510D01*
Y93490D02*Y92510D01*
Y93490D02*X334930Y93980D01*
X335420D02*Y92020D01*
X334930Y93980D02*X335420D01*
X334440Y96626D02*X334930Y97116D01*
X334440Y96626D02*Y95646D01*
X334930Y95156D02*X334440Y95646D01*
X334930Y95156D02*X335910D01*
X336400Y95646D01*
X334440Y97116D02*X335910D01*
X336400Y97606D01*
Y96626D02*Y95646D01*
Y96626D02*X335910Y97116D01*
X336400Y100742D02*Y99272D01*
Y100742D02*X335910Y101232D01*
X335420Y100742D02*X335910Y101232D01*
X335420Y100742D02*Y99272D01*
X334930Y98782D02*X335420Y99272D01*
X334930Y98782D02*X334440Y99272D01*
Y100742D02*Y99272D01*
Y100742D02*X334930Y101232D01*
X335910Y98782D02*X336400Y99272D01*
X334930Y102408D02*X335910D01*
X334930D02*X334440Y102898D01*
Y103878D02*Y102898D01*
Y103878D02*X334930Y104368D01*
X335910D01*
X336400Y103878D02*X335910Y104368D01*
X336400Y103878D02*Y102898D01*
X335910Y102408D02*X336400Y102898D01*
X334930Y106034D02*X336400D01*
X334930D02*X334440Y106524D01*
Y107014D02*Y106524D01*
Y107014D02*X334930Y107504D01*
X336400D01*
X334440Y105544D02*X334930Y106034D01*
X334440Y110150D02*X334930Y110640D01*
X334440Y110150D02*Y109170D01*
X334930Y108680D02*X334440Y109170D01*
X334930Y108680D02*X335910D01*
X336400Y109170D01*
X334440Y110640D02*X335910D01*
X336400Y111130D01*
Y110150D02*Y109170D01*
Y110150D02*X335910Y110640D01*
X332480Y112306D02*X336400D01*
X335910D02*X336400Y112796D01*
Y113776D02*Y112796D01*
Y113776D02*X335910Y114266D01*
X334930D02*X335910D01*
X334440Y113776D02*X334930Y114266D01*
X334440Y113776D02*Y112796D01*
X334930Y112306D02*X334440Y112796D01*
X332480Y115442D02*X335910D01*
X336400Y115932D01*
Y118872D02*Y117402D01*
X335910Y116912D02*X336400Y117402D01*
X334930Y116912D02*X335910D01*
X334930D02*X334440Y117402D01*
Y118382D02*Y117402D01*
Y118382D02*X334930Y118872D01*
X335420D02*Y116912D01*
X334930Y118872D02*X335420D01*
X340470Y68990D02*X343900D01*
X340470D02*X339980Y69480D01*
Y69970D02*Y69480D01*
X341940D02*Y68500D01*
X343900Y72910D02*Y71440D01*
X343410Y70950D02*X343900Y71440D01*
X342430Y70950D02*X343410D01*
X342430D02*X341940Y71440D01*
Y72420D02*Y71440D01*
Y72420D02*X342430Y72910D01*
X342920D02*Y70950D01*
X342430Y72910D02*X342920D01*
X339980Y74576D02*X343410D01*
X343900Y75066D01*
X341450D02*Y74086D01*
X340764Y76046D02*X339980Y76830D01*
X343900D01*
Y77516D02*Y76046D01*
X340470Y78692D02*X339980Y79182D01*
Y80652D02*Y79182D01*
Y80652D02*X340470Y81142D01*
X341450D01*
X343900Y78692D02*X341450Y81142D01*
X343900D02*Y78692D01*
X339980Y82318D02*X343410D01*
X343900Y82808D01*
X342430Y83788D02*X343410D01*
X342430D02*X341940Y84278D01*
Y85258D02*Y84278D01*
Y85258D02*X342430Y85748D01*
X343410D01*
X343900Y85258D02*X343410Y85748D01*
X343900Y85258D02*Y84278D01*
X343410Y83788D02*X343900Y84278D01*
X341940Y88394D02*X342430Y88884D01*
X341940Y88394D02*Y87414D01*
X342430Y86924D02*X341940Y87414D01*
X342430Y86924D02*X343410D01*
X343900Y87414D01*
Y88394D02*Y87414D01*
Y88394D02*X343410Y88884D01*
X344880Y86924D02*X345370Y87414D01*
Y88394D02*Y87414D01*
Y88394D02*X344880Y88884D01*
X341940D02*X344880D01*
X340960Y90060D02*X341058D01*
X342430D02*X343900D01*
X341940Y93000D02*Y91530D01*
X342430Y91040D02*X341940Y91530D01*
X342430Y91040D02*X343410D01*
X343900Y91530D01*
Y93000D02*Y91530D01*
X340470Y95940D02*X339980Y96430D01*
Y97900D02*Y96430D01*
Y97900D02*X340470Y98390D01*
X341450D01*
X343900Y95940D02*X341450Y98390D01*
X343900D02*Y95940D01*
X343410Y99566D02*X343900Y100056D01*
X340470Y99566D02*X343410D01*
X340470D02*X339980Y100056D01*
Y101036D02*Y100056D01*
Y101036D02*X340470Y101526D01*
X343410D01*
X343900Y101036D02*X343410Y101526D01*
X343900Y101036D02*Y100056D01*
X342920Y99566D02*X340960Y101526D01*
X340764Y102702D02*X339980Y103486D01*
X343900D01*
Y104172D02*Y102702D01*
X343410Y105348D02*X343900Y105838D01*
X342626Y105348D02*X343410D01*
X342626D02*X341940Y106034D01*
Y106622D02*Y106034D01*
Y106622D02*X342626Y107308D01*
X343410D01*
X343900Y106818D02*X343410Y107308D01*
X343900Y106818D02*Y105838D01*
X341254Y105348D02*X341940Y106034D01*
X340470Y105348D02*X341254D01*
X340470D02*X339980Y105838D01*
Y106818D02*Y105838D01*
Y106818D02*X340470Y107308D01*
X341254D01*
X341940Y106622D02*X341254Y107308D01*
X343410Y108484D02*X343900Y108974D01*
X340470Y108484D02*X343410D01*
X340470D02*X339980Y108974D01*
Y109954D02*Y108974D01*
Y109954D02*X340470Y110444D01*
X343410D01*
X343900Y109954D02*X343410Y110444D01*
X343900Y109954D02*Y108974D01*
X342920Y108484D02*X340960Y110444D01*
X342430Y111620D02*X339980Y113580D01*
X342430Y114070D02*Y111620D01*
X339980Y113580D02*X343900D01*
X340764Y115246D02*X339980Y116030D01*
X343900D01*
Y116716D02*Y115246D01*
X343410Y117892D02*X343900Y118382D01*
X340470Y117892D02*X343410D01*
X340470D02*X339980Y118382D01*
Y119362D02*Y118382D01*
Y119362D02*X340470Y119852D01*
X343410D01*
X343900Y119362D02*X343410Y119852D01*
X343900Y119362D02*Y118382D01*
X342920Y117892D02*X340960Y119852D01*
X283500Y218090D02*X283990Y217600D01*
X283500Y221030D02*Y218090D01*
Y221030D02*X283990Y221520D01*
X284970D01*
X285460Y221030D01*
Y218090D01*
X284970Y217600D02*X285460Y218090D01*
X283990Y217600D02*X284970D01*
X283500Y218580D02*X285460Y220540D01*
X295500Y240650D02*X296100Y241250D01*
Y238250D01*
X295500D02*X296625D01*
X303000Y240875D02*X303375Y241250D01*
X304500D01*
X304875Y240875D01*
Y240125D01*
X303000Y238250D02*X304875Y240125D01*
X303000Y238250D02*X304875D01*
G54D112*X388260Y246811D02*Y223189D01*
X349953Y249567D02*Y246811D01*
Y249567D02*X362551Y256260D01*
X349953Y223189D02*Y220433D01*
X362551Y213740D01*
G54D111*X350250Y192000D02*G75*G03X350250Y192000I19250J0D01*G01*
G54D113*X335701Y234957D03*
G54D111*X348004Y241945D02*Y235055D01*
X335996Y241945D02*Y235055D01*
X292607Y222255D02*X293393D01*
X292607Y216745D02*X293393D01*
X298755Y230893D02*Y230107D01*
X293245Y230893D02*Y230107D01*
X306755Y230893D02*Y230107D01*
X301245Y230893D02*Y230107D01*
X306607Y216745D02*X307393D01*
X306607Y222255D02*X307393D01*
X249016Y371358D02*X275984D01*
Y366831D01*
X249016Y371358D02*Y366831D01*
Y353642D02*X275984D01*
Y358169D02*Y353642D01*
X249016Y358169D02*Y353642D01*
X285500Y356300D02*X305500D01*
X299750Y358700D02*X305500D01*
X285500D02*X291250D01*
X306000Y358200D02*G75*G03X306000Y358200I-500J0D01*G01*
X218185Y332102D02*Y326000D01*
Y376000D02*Y369898D01*
X211098Y331512D02*X217398D01*
X211098Y370488D02*X217398D01*
X211098Y331512D02*Y326000D01*
Y376000D02*Y370488D01*
X175272Y370685D02*Y331315D01*
X194563D01*
X175272Y370685D02*X194563D01*
X257530Y248530D02*X332570D01*
X257530Y326470D02*Y248530D01*
Y326470D02*X335470D01*
Y251430D01*
X332570Y248530D01*
X333570Y251430D02*G75*G03X333570Y251430I-1000J0D01*G01*
X350250Y86500D02*G75*G03X350250Y86500I19250J0D01*G01*
G54D110*X367000Y119000D02*X386000D01*
Y150000D02*Y119000D01*
X367000Y150000D02*X386000D01*
X367000Y132000D02*Y119000D01*
Y150000D02*Y137000D01*
Y132000D02*G75*G03X367000Y137000I0J2500D01*G01*
Y13500D02*X386000D01*
Y44500D02*Y13500D01*
X367000Y44500D02*X386000D01*
X367000Y26500D02*Y13500D01*
Y44500D02*Y31500D01*
Y26500D02*G75*G03X367000Y31500I0J2500D01*G01*
G54D111*X218185Y246228D02*Y240126D01*
Y305874D02*Y299772D01*
X211098Y245638D02*X217398D01*
X211098Y300362D02*X217398D01*
X211098Y245638D02*Y240126D01*
Y305874D02*Y300362D01*
X175272Y300559D02*Y245441D01*
X194563D01*
X175272Y300559D02*X194563D01*
G54D110*X367000Y328500D02*X386000D01*
Y359500D02*Y328500D01*
X367000Y359500D02*X386000D01*
X367000Y341500D02*Y328500D01*
Y359500D02*Y346500D01*
Y341500D02*G75*G03X367000Y346500I0J2500D01*G01*
G54D111*X350250Y401500D02*G75*G03X350250Y401500I19250J0D01*G01*
X358379Y362979D02*Y339121D01*
X331621D02*X358379D01*
X331621Y365879D02*Y339121D01*
Y365879D02*X355479D01*
X358379Y362979D01*
X355479Y363979D02*G75*G03X355479Y363979I0J-1000D01*G01*
X362835Y287957D02*X367165D01*
X362835Y295043D02*X367165D01*
X362835Y289728D02*Y287957D01*
Y295043D02*Y293272D01*
X373268Y307370D02*X379764D01*
X373268Y278630D02*X379764D01*
X185200Y325500D02*X186500D01*
X184500Y326200D02*X185200Y325500D01*
X184500Y328800D02*Y326200D01*
Y328800D02*X185200Y329500D01*
X186500D01*
X187700Y329000D02*Y326000D01*
Y329000D02*X188200Y329500D01*
X189200D01*
X189700Y329000D01*
Y326000D01*
X189200Y325500D02*X189700Y326000D01*
X188200Y325500D02*X189200D01*
X187700Y326000D02*X188200Y325500D01*
X190900Y329500D02*Y325500D01*
Y329500D02*X193400Y325500D01*
Y329500D02*Y325500D01*
X194600Y329500D02*Y325500D01*
Y329500D02*X197100Y325500D01*
Y329500D02*Y325500D01*
X198300Y329000D02*X198800Y329500D01*
X199800D01*
X200300Y329000D01*
X199800Y325500D02*X200300Y326000D01*
X198800Y325500D02*X199800D01*
X198300Y326000D02*X198800Y325500D01*
Y327700D02*X199800D01*
X200300Y329000D02*Y328200D01*
Y327200D02*Y326000D01*
Y327200D02*X199800Y327700D01*
X200300Y328200D02*X199800Y327700D01*
X201500Y326000D02*X202000Y325500D01*
X201500Y329000D02*Y326000D01*
Y329000D02*X202000Y329500D01*
X203000D01*
X203500Y329000D01*
Y326000D01*
X203000Y325500D02*X203500Y326000D01*
X202000Y325500D02*X203000D01*
X201500Y326500D02*X203500Y328500D01*
X206200Y329500D02*X206700Y329000D01*
X205200Y329500D02*X206200D01*
X204700Y329000D02*X205200Y329500D01*
X204700Y329000D02*Y326000D01*
X205200Y325500D01*
X206200Y327700D02*X206700Y327200D01*
X204700Y327700D02*X206200D01*
X205200Y325500D02*X206200D01*
X206700Y326000D01*
Y327200D02*Y326000D01*
X182700Y302000D02*X184000D01*
X182000Y302700D02*X182700Y302000D01*
X182000Y305300D02*Y302700D01*
Y305300D02*X182700Y306000D01*
X184000D01*
X185200Y305500D02*Y302500D01*
Y305500D02*X185700Y306000D01*
X186700D01*
X187200Y305500D01*
Y302500D01*
X186700Y302000D02*X187200Y302500D01*
X185700Y302000D02*X186700D01*
X185200Y302500D02*X185700Y302000D01*
X188400Y306000D02*Y302000D01*
Y306000D02*X190900Y302000D01*
Y306000D02*Y302000D01*
X192100Y306000D02*Y302000D01*
Y306000D02*X194600Y302000D01*
Y306000D02*Y302000D01*
X195800Y305500D02*X196300Y306000D01*
X197300D01*
X197800Y305500D01*
X197300Y302000D02*X197800Y302500D01*
X196300Y302000D02*X197300D01*
X195800Y302500D02*X196300Y302000D01*
Y304200D02*X197300D01*
X197800Y305500D02*Y304700D01*
Y303700D02*Y302500D01*
Y303700D02*X197300Y304200D01*
X197800Y304700D02*X197300Y304200D01*
X199000Y302500D02*X199500Y302000D01*
X199000Y305500D02*Y302500D01*
Y305500D02*X199500Y306000D01*
X200500D01*
X201000Y305500D01*
Y302500D01*
X200500Y302000D02*X201000Y302500D01*
X199500Y302000D02*X200500D01*
X199000Y303000D02*X201000Y305000D01*
X202200Y305500D02*X202700Y306000D01*
X204200D01*
X204700Y305500D01*
Y304500D01*
X202200Y302000D02*X204700Y304500D01*
X202200Y302000D02*X204700D01*
X254000Y241230D02*X255540D01*
X255925Y240845D01*
Y240075D01*
X255540Y239690D02*X255925Y240075D01*
X254385Y239690D02*X255540D01*
X254385Y241230D02*Y238150D01*
X255001Y239690D02*X255925Y238150D01*
X256849Y239305D02*X258389Y241230D01*
X256849Y239305D02*X258774D01*
X258389Y241230D02*Y238150D01*
X259698Y238535D02*X260083Y238150D01*
X259698Y240845D02*Y238535D01*
Y240845D02*X260083Y241230D01*
X260853D01*
X261238Y240845D01*
Y238535D01*
X260853Y238150D02*X261238Y238535D01*
X260083Y238150D02*X260853D01*
X259698Y238920D02*X261238Y240460D01*
X262162Y240614D02*X262778Y241230D01*
Y238150D01*
X262162D02*X263317D01*
X353500Y141500D02*Y138000D01*
X354000Y137500D01*
X355000D01*
X355500Y138000D01*
Y141500D02*Y138000D01*
X356700Y141500D02*X358700D01*
X356700D02*Y139500D01*
X357200Y140000D01*
X358200D01*
X358700Y139500D01*
Y138000D01*
X358200Y137500D02*X358700Y138000D01*
X357200Y137500D02*X358200D01*
X356700Y138000D02*X357200Y137500D01*
X359900Y138000D02*X360400Y137500D01*
X359900Y141000D02*Y138000D01*
Y141000D02*X360400Y141500D01*
X361400D01*
X361900Y141000D01*
Y138000D01*
X361400Y137500D02*X361900Y138000D01*
X360400Y137500D02*X361400D01*
X359900Y138500D02*X361900Y140500D01*
X363100Y141000D02*X363600Y141500D01*
X365100D01*
X365600Y141000D01*
Y140000D01*
X363100Y137500D02*X365600Y140000D01*
X363100Y137500D02*X365600D01*
X376050Y164150D02*X377350D01*
X375350Y164850D02*X376050Y164150D01*
X375350Y167450D02*Y164850D01*
Y167450D02*X376050Y168150D01*
X377350D01*
X378550D02*X380550D01*
X378550D02*Y166150D01*
X379050Y166650D01*
X380050D01*
X380550Y166150D01*
Y164650D01*
X380050Y164150D02*X380550Y164650D01*
X379050Y164150D02*X380050D01*
X378550Y164650D02*X379050Y164150D01*
X381750Y164650D02*X382250Y164150D01*
X381750Y167650D02*Y164650D01*
Y167650D02*X382250Y168150D01*
X383250D01*
X383750Y167650D01*
Y164650D01*
X383250Y164150D02*X383750Y164650D01*
X382250Y164150D02*X383250D01*
X381750Y165150D02*X383750Y167150D01*
X386450Y168150D02*X386950Y167650D01*
X385450Y168150D02*X386450D01*
X384950Y167650D02*X385450Y168150D01*
X384950Y167650D02*Y164650D01*
X385450Y164150D01*
X386450Y166350D02*X386950Y165850D01*
X384950Y166350D02*X386450D01*
X385450Y164150D02*X386450D01*
X386950Y164650D01*
Y165850D02*Y164650D01*
X368850Y108350D02*Y107050D01*
X368150Y106350D02*X368850Y107050D01*
X365550Y106350D02*X368150D01*
X365550D02*X364850Y107050D01*
Y108350D02*Y107050D01*
Y111550D02*Y109550D01*
X366850D01*
X366350Y110050D01*
Y111050D02*Y110050D01*
Y111050D02*X366850Y111550D01*
X368350D01*
X368850Y111050D02*X368350Y111550D01*
X368850Y111050D02*Y110050D01*
X368350Y109550D02*X368850Y110050D01*
X368350Y112750D02*X368850Y113250D01*
X365350Y112750D02*X368350D01*
X365350D02*X364850Y113250D01*
Y114250D02*Y113250D01*
Y114250D02*X365350Y114750D01*
X368350D01*
X368850Y114250D02*X368350Y114750D01*
X368850Y114250D02*Y113250D01*
X367850Y112750D02*X365850Y114750D01*
X364850Y117950D02*Y115950D01*
X366850D01*
X366350Y116450D01*
Y117450D02*Y116450D01*
Y117450D02*X366850Y117950D01*
X368350D01*
X368850Y117450D02*X368350Y117950D01*
X368850Y117450D02*Y116450D01*
X368350Y115950D02*X368850Y116450D01*
X369850Y155850D02*Y154550D01*
X369150Y153850D02*X369850Y154550D01*
X366550Y153850D02*X369150D01*
X366550D02*X365850Y154550D01*
Y155850D02*Y154550D01*
Y159050D02*Y157050D01*
X367850D01*
X367350Y157550D01*
Y158550D02*Y157550D01*
Y158550D02*X367850Y159050D01*
X369350D01*
X369850Y158550D02*X369350Y159050D01*
X369850Y158550D02*Y157550D01*
X369350Y157050D02*X369850Y157550D01*
X369350Y160250D02*X369850Y160750D01*
X366350Y160250D02*X369350D01*
X366350D02*X365850Y160750D01*
Y161750D02*Y160750D01*
Y161750D02*X366350Y162250D01*
X369350D01*
X369850Y161750D02*X369350Y162250D01*
X369850Y161750D02*Y160750D01*
X368850Y160250D02*X366850Y162250D01*
X369850Y163950D02*X365850Y165950D01*
Y163450D01*
X354500Y31500D02*Y28000D01*
X355000Y27500D01*
X356000D01*
X356500Y28000D01*
Y31500D02*Y28000D01*
X357700Y31500D02*X359700D01*
X357700D02*Y29500D01*
X358200Y30000D01*
X359200D01*
X359700Y29500D01*
Y28000D01*
X359200Y27500D02*X359700Y28000D01*
X358200Y27500D02*X359200D01*
X357700Y28000D02*X358200Y27500D01*
X360900Y28000D02*X361400Y27500D01*
X360900Y31000D02*Y28000D01*
Y31000D02*X361400Y31500D01*
X362400D01*
X362900Y31000D01*
Y28000D01*
X362400Y27500D02*X362900Y28000D01*
X361400Y27500D02*X362400D01*
X360900Y28500D02*X362900Y30500D01*
X364100Y31000D02*X364600Y31500D01*
X365600D01*
X366100Y31000D01*
X365600Y27500D02*X366100Y28000D01*
X364600Y27500D02*X365600D01*
X364100Y28000D02*X364600Y27500D01*
Y29700D02*X365600D01*
X366100Y31000D02*Y30200D01*
Y29200D02*Y28000D01*
Y29200D02*X365600Y29700D01*
X366100Y30200D02*X365600Y29700D01*
X377050Y59150D02*X378350D01*
X376350Y59850D02*X377050Y59150D01*
X376350Y62450D02*Y59850D01*
Y62450D02*X377050Y63150D01*
X378350D01*
X379550D02*X381550D01*
X379550D02*Y61150D01*
X380050Y61650D01*
X381050D01*
X381550Y61150D01*
Y59650D01*
X381050Y59150D02*X381550Y59650D01*
X380050Y59150D02*X381050D01*
X379550Y59650D02*X380050Y59150D01*
X382750Y62350D02*X383550Y63150D01*
Y59150D01*
X382750D02*X384250D01*
X385450Y62350D02*X386250Y63150D01*
Y59150D01*
X385450D02*X386950D01*
X371350Y49850D02*Y48550D01*
X370650Y47850D02*X371350Y48550D01*
X368050Y47850D02*X370650D01*
X368050D02*X367350Y48550D01*
Y49850D02*Y48550D01*
Y53050D02*Y51050D01*
X369350D01*
X368850Y51550D01*
Y52550D02*Y51550D01*
Y52550D02*X369350Y53050D01*
X370850D01*
X371350Y52550D02*X370850Y53050D01*
X371350Y52550D02*Y51550D01*
X370850Y51050D02*X371350Y51550D01*
X370850Y54250D02*X371350Y54750D01*
X367850Y54250D02*X370850D01*
X367850D02*X367350Y54750D01*
Y55750D02*Y54750D01*
Y55750D02*X367850Y56250D01*
X370850D01*
X371350Y55750D02*X370850Y56250D01*
X371350Y55750D02*Y54750D01*
X370350Y54250D02*X368350Y56250D01*
X371350Y57950D02*X369350Y59450D01*
X367850D02*X369350D01*
X367350Y58950D02*X367850Y59450D01*
X367350Y58950D02*Y57950D01*
X367850Y57450D02*X367350Y57950D01*
X367850Y57450D02*X368850D01*
X369350Y57950D01*
Y59450D02*Y57950D01*
X364850Y9350D02*Y8050D01*
X364150Y7350D02*X364850Y8050D01*
X361550Y7350D02*X364150D01*
X361550D02*X360850Y8050D01*
Y9350D02*Y8050D01*
Y12550D02*Y10550D01*
X362850D01*
X362350Y11050D01*
Y12050D02*Y11050D01*
Y12050D02*X362850Y12550D01*
X364350D01*
X364850Y12050D02*X364350Y12550D01*
X364850Y12050D02*Y11050D01*
X364350Y10550D02*X364850Y11050D01*
X361650Y13750D02*X360850Y14550D01*
X364850D01*
Y15250D02*Y13750D01*
X364350Y16450D02*X364850Y16950D01*
X361350Y16450D02*X364350D01*
X361350D02*X360850Y16950D01*
Y17950D02*Y16950D01*
Y17950D02*X361350Y18450D01*
X364350D01*
X364850Y17950D02*X364350Y18450D01*
X364850Y17950D02*Y16950D01*
X363850Y16450D02*X361850Y18450D01*
X226000Y240730D02*X227540D01*
X227925Y240345D01*
Y239575D01*
X227540Y239190D02*X227925Y239575D01*
X226385Y239190D02*X227540D01*
X226385Y240730D02*Y237650D01*
X227001Y239190D02*X227925Y237650D01*
X228849Y238805D02*X230389Y240730D01*
X228849Y238805D02*X230774D01*
X230389Y240730D02*Y237650D01*
X231698Y238035D02*X232083Y237650D01*
X231698Y240345D02*Y238035D01*
Y240345D02*X232083Y240730D01*
X232853D01*
X233238Y240345D01*
Y238035D01*
X232853Y237650D02*X233238Y238035D01*
X232083Y237650D02*X232853D01*
X231698Y238420D02*X233238Y239960D01*
X234162Y240345D02*X234547Y240730D01*
X235702D01*
X236087Y240345D01*
Y239575D01*
X234162Y237650D02*X236087Y239575D01*
X234162Y237650D02*X236087D01*
X204270Y235040D02*Y233500D01*
Y235040D02*X204655Y235425D01*
X205425D01*
X205810Y235040D02*X205425Y235425D01*
X205810Y235040D02*Y233885D01*
X204270D02*X207350D01*
X205810Y234501D02*X207350Y235425D01*
X206195Y236349D02*X204270Y237889D01*
X206195Y238274D02*Y236349D01*
X204270Y237889D02*X207350D01*
X206965Y239198D02*X207350Y239583D01*
X204655Y239198D02*X206965D01*
X204655D02*X204270Y239583D01*
Y240353D02*Y239583D01*
Y240353D02*X204655Y240738D01*
X206965D01*
X207350Y240353D02*X206965Y240738D01*
X207350Y240353D02*Y239583D01*
X206580Y239198D02*X205040Y240738D01*
X206965Y241662D02*X207350Y242047D01*
X204655Y241662D02*X206965D01*
X204655D02*X204270Y242047D01*
Y242817D02*Y242047D01*
Y242817D02*X204655Y243202D01*
X206965D01*
X207350Y242817D02*X206965Y243202D01*
X207350Y242817D02*Y242047D01*
X206580Y241662D02*X205040Y243202D01*
X371500Y346240D02*Y343580D01*
X371880Y343200D01*
X372640D01*
X373020Y343580D01*
Y346240D02*Y343580D01*
X373932Y346240D02*X375452D01*
X373932D02*Y344720D01*
X374312Y345100D01*
X375072D01*
X375452Y344720D01*
Y343580D01*
X375072Y343200D02*X375452Y343580D01*
X374312Y343200D02*X375072D01*
X373932Y343580D02*X374312Y343200D01*
X376364Y343580D02*X376744Y343200D01*
X376364Y345860D02*Y343580D01*
Y345860D02*X376744Y346240D01*
X377504D01*
X377884Y345860D01*
Y343580D01*
X377504Y343200D02*X377884Y343580D01*
X376744Y343200D02*X377504D01*
X376364Y343960D02*X377884Y345480D01*
X378796Y345632D02*X379404Y346240D01*
Y343200D01*
X378796D02*X379936D01*
X331620Y208890D02*Y207350D01*
Y208890D02*X332005Y209275D01*
X332775D01*
X333160Y208890D02*X332775Y209275D01*
X333160Y208890D02*Y207735D01*
X331620D02*X334700D01*
X333160Y208351D02*X334700Y209275D01*
X332005Y210199D02*X331620Y210584D01*
Y211739D02*Y210584D01*
Y211739D02*X332005Y212124D01*
X332775D01*
X334700Y210199D02*X332775Y212124D01*
X334700D02*Y210199D01*
X334315Y213048D02*X334700Y213433D01*
X333699Y213048D02*X334315D01*
X333699D02*X333160Y213587D01*
Y214049D02*Y213587D01*
Y214049D02*X333699Y214588D01*
X334315D01*
X334700Y214203D02*X334315Y214588D01*
X334700Y214203D02*Y213433D01*
X332621Y213048D02*X333160Y213587D01*
X332005Y213048D02*X332621D01*
X332005D02*X331620Y213433D01*
Y214203D02*Y213433D01*
Y214203D02*X332005Y214588D01*
X332621D01*
X333160Y214049D02*X332621Y214588D01*
X331620Y217052D02*Y215512D01*
X333160D01*
X332775Y215897D01*
Y216667D02*Y215897D01*
Y216667D02*X333160Y217052D01*
X334315D01*
X334700Y216667D02*X334315Y217052D01*
X334700Y216667D02*Y215897D01*
X334315Y215512D02*X334700Y215897D01*
X325120Y225890D02*Y224350D01*
Y225890D02*X325505Y226275D01*
X326275D01*
X326660Y225890D02*X326275Y226275D01*
X326660Y225890D02*Y224735D01*
X325120D02*X328200D01*
X326660Y225351D02*X328200Y226275D01*
X325505Y227199D02*X325120Y227584D01*
Y228739D02*Y227584D01*
Y228739D02*X325505Y229124D01*
X326275D01*
X328200Y227199D02*X326275Y229124D01*
X328200D02*Y227199D01*
X327815Y230048D02*X328200Y230433D01*
X327199Y230048D02*X327815D01*
X327199D02*X326660Y230587D01*
Y231049D02*Y230587D01*
Y231049D02*X327199Y231588D01*
X327815D01*
X328200Y231203D02*X327815Y231588D01*
X328200Y231203D02*Y230433D01*
X326121Y230048D02*X326660Y230587D01*
X325505Y230048D02*X326121D01*
X325505D02*X325120Y230433D01*
Y231203D02*Y230433D01*
Y231203D02*X325505Y231588D01*
X326121D01*
X326660Y231049D02*X326121Y231588D01*
X327045Y232512D02*X325120Y234052D01*
X327045Y234437D02*Y232512D01*
X325120Y234052D02*X328200D01*
X344200Y214390D02*Y213389D01*
X343661Y212850D02*X344200Y213389D01*
X341659Y212850D02*X343661D01*
X341659D02*X341120Y213389D01*
Y214390D02*Y213389D01*
X341505Y215314D02*X341120Y215699D01*
Y216854D02*Y215699D01*
Y216854D02*X341505Y217239D01*
X342275D01*
X344200Y215314D02*X342275Y217239D01*
X344200D02*Y215314D01*
Y218548D02*X341120Y220088D01*
Y218163D01*
Y222552D02*Y221012D01*
X342660D01*
X342275Y221397D01*
Y222167D02*Y221397D01*
Y222167D02*X342660Y222552D01*
X343815D01*
X344200Y222167D02*X343815Y222552D01*
X344200Y222167D02*Y221397D01*
X343815Y221012D02*X344200Y221397D01*
X360200Y258390D02*Y257389D01*
X359661Y256850D02*X360200Y257389D01*
X357659Y256850D02*X359661D01*
X357659D02*X357120Y257389D01*
Y258390D02*Y257389D01*
X357505Y259314D02*X357120Y259699D01*
Y260469D02*Y259699D01*
Y260469D02*X357505Y260854D01*
X360200Y260469D02*X359815Y260854D01*
X360200Y260469D02*Y259699D01*
X359815Y259314D02*X360200Y259699D01*
X358506Y260469D02*Y259699D01*
X357505Y260854D02*X358121D01*
X358891D02*X359815D01*
X358891D02*X358506Y260469D01*
X358121Y260854D02*X358506Y260469D01*
X359815Y261778D02*X360200Y262163D01*
X357505Y261778D02*X359815D01*
X357505D02*X357120Y262163D01*
Y262933D02*Y262163D01*
Y262933D02*X357505Y263318D01*
X359815D01*
X360200Y262933D02*X359815Y263318D01*
X360200Y262933D02*Y262163D01*
X359430Y261778D02*X357890Y263318D01*
X360200Y264627D02*X358660Y265782D01*
X357505D02*X358660D01*
X357120Y265397D02*X357505Y265782D01*
X357120Y265397D02*Y264627D01*
X357505Y264242D02*X357120Y264627D01*
X357505Y264242D02*X358275D01*
X358660Y264627D01*
Y265782D02*Y264627D01*
X365700Y258000D02*X367000D01*
X365000Y258700D02*X365700Y258000D01*
X365000Y261300D02*Y258700D01*
Y261300D02*X365700Y262000D01*
X367000D01*
X368200Y261500D02*Y258500D01*
Y261500D02*X368700Y262000D01*
X369700D01*
X370200Y261500D01*
Y258500D01*
X369700Y258000D02*X370200Y258500D01*
X368700Y258000D02*X369700D01*
X368200Y258500D02*X368700Y258000D01*
X371400Y262000D02*Y258000D01*
Y262000D02*X373900Y258000D01*
Y262000D02*Y258000D01*
X375100Y262000D02*Y258000D01*
Y262000D02*X377600Y258000D01*
Y262000D02*Y258000D01*
X378800Y261500D02*X379300Y262000D01*
X380800D01*
X381300Y261500D01*
Y260500D01*
X378800Y258000D02*X381300Y260500D01*
X378800Y258000D02*X381300D01*
X384000Y262000D02*X384500Y261500D01*
X383000Y262000D02*X384000D01*
X382500Y261500D02*X383000Y262000D01*
X382500Y261500D02*Y258500D01*
X383000Y258000D01*
X384000Y260200D02*X384500Y259700D01*
X382500Y260200D02*X384000D01*
X383000Y258000D02*X384000D01*
X384500Y258500D01*
Y259700D02*Y258500D01*
X385700Y262000D02*X387700D01*
X385700D02*Y260000D01*
X386200Y260500D01*
X387200D01*
X387700Y260000D01*
Y258500D01*
X387200Y258000D02*X387700Y258500D01*
X386200Y258000D02*X387200D01*
X385700Y258500D02*X386200Y258000D01*
X326000Y239730D02*Y237035D01*
X326385Y236650D01*
X327155D01*
X327540Y237035D01*
Y239730D02*Y237035D01*
X328464Y239345D02*X328849Y239730D01*
X330004D01*
X330389Y239345D01*
Y238575D01*
X328464Y236650D02*X330389Y238575D01*
X328464Y236650D02*X330389D01*
X332468Y239730D02*X332853Y239345D01*
X331698Y239730D02*X332468D01*
X331313Y239345D02*X331698Y239730D01*
X331313Y239345D02*Y237035D01*
X331698Y236650D01*
X332468Y238344D02*X332853Y237959D01*
X331313Y238344D02*X332468D01*
X331698Y236650D02*X332468D01*
X332853Y237035D01*
Y237959D02*Y237035D01*
X333777Y239345D02*X334162Y239730D01*
X334932D01*
X335317Y239345D01*
X334932Y236650D02*X335317Y237035D01*
X334162Y236650D02*X334932D01*
X333777Y237035D02*X334162Y236650D01*
Y238344D02*X334932D01*
X335317Y239345D02*Y238729D01*
Y237959D02*Y237035D01*
Y237959D02*X334932Y238344D01*
X335317Y238729D02*X334932Y238344D01*
X342500Y270500D02*Y267000D01*
X343000Y266500D01*
X344000D01*
X344500Y267000D01*
Y270500D02*Y267000D01*
X345700Y270000D02*X346200Y270500D01*
X347200D01*
X347700Y270000D01*
X347200Y266500D02*X347700Y267000D01*
X346200Y266500D02*X347200D01*
X345700Y267000D02*X346200Y266500D01*
Y268700D02*X347200D01*
X347700Y270000D02*Y269200D01*
Y268200D02*Y267000D01*
Y268200D02*X347200Y268700D01*
X347700Y269200D02*X347200Y268700D01*
X348900Y267000D02*X349400Y266500D01*
X348900Y270000D02*Y267000D01*
Y270000D02*X349400Y270500D01*
X350400D01*
X350900Y270000D01*
Y267000D01*
X350400Y266500D02*X350900Y267000D01*
X349400Y266500D02*X350400D01*
X348900Y267500D02*X350900Y269500D01*
X352100Y269700D02*X352900Y270500D01*
Y266500D01*
X352100D02*X353600D01*
X243500Y349000D02*Y345500D01*
X244000Y345000D01*
X245000D01*
X245500Y345500D01*
Y349000D02*Y345500D01*
X246700Y348500D02*X247200Y349000D01*
X248200D01*
X248700Y348500D01*
X248200Y345000D02*X248700Y345500D01*
X247200Y345000D02*X248200D01*
X246700Y345500D02*X247200Y345000D01*
Y347200D02*X248200D01*
X248700Y348500D02*Y347700D01*
Y346700D02*Y345500D01*
Y346700D02*X248200Y347200D01*
X248700Y347700D02*X248200Y347200D01*
X249900Y345500D02*X250400Y345000D01*
X249900Y348500D02*Y345500D01*
Y348500D02*X250400Y349000D01*
X251400D01*
X251900Y348500D01*
Y345500D01*
X251400Y345000D02*X251900Y345500D01*
X250400Y345000D02*X251400D01*
X249900Y346000D02*X251900Y348000D01*
X253100Y348500D02*X253600Y349000D01*
X255100D01*
X255600Y348500D01*
Y347500D01*
X253100Y345000D02*X255600Y347500D01*
X253100Y345000D02*X255600D01*
X263389Y344800D02*X264390D01*
X262850Y345339D02*X263389Y344800D01*
X262850Y347341D02*Y345339D01*
Y347341D02*X263389Y347880D01*
X264390D01*
X265314Y347495D02*X265699Y347880D01*
X266469D01*
X266854Y347495D01*
X266469Y344800D02*X266854Y345185D01*
X265699Y344800D02*X266469D01*
X265314Y345185D02*X265699Y344800D01*
Y346494D02*X266469D01*
X266854Y347495D02*Y346879D01*
Y346109D02*Y345185D01*
Y346109D02*X266469Y346494D01*
X266854Y346879D02*X266469Y346494D01*
X267778Y345185D02*X268163Y344800D01*
X267778Y347495D02*Y345185D01*
Y347495D02*X268163Y347880D01*
X268933D01*
X269318Y347495D01*
Y345185D01*
X268933Y344800D02*X269318Y345185D01*
X268163Y344800D02*X268933D01*
X267778Y345570D02*X269318Y347110D01*
X270242Y347264D02*X270858Y347880D01*
Y344800D01*
X270242D02*X271397D01*
X241500Y359500D02*X242000Y360000D01*
X241500Y359500D02*Y358000D01*
X242000Y357500D02*X241500Y358000D01*
X242000Y357500D02*X243000D01*
X243500Y358000D01*
Y359500D02*Y358000D01*
Y359500D02*X244000Y360000D01*
X245000D01*
X245500Y359500D02*X245000Y360000D01*
X245500Y359500D02*Y358000D01*
X245000Y357500D02*X245500Y358000D01*
X242000Y361200D02*X241500Y361700D01*
Y362700D02*Y361700D01*
Y362700D02*X242000Y363200D01*
X245500Y362700D02*X245000Y363200D01*
X245500Y362700D02*Y361700D01*
X245000Y361200D02*X245500Y361700D01*
X243300Y362700D02*Y361700D01*
X242000Y363200D02*X242800D01*
X243800D02*X245000D01*
X243800D02*X243300Y362700D01*
X242800Y363200D02*X243300Y362700D01*
X245000Y364400D02*X245500Y364900D01*
X242000Y364400D02*X245000D01*
X242000D02*X241500Y364900D01*
Y365900D02*Y364900D01*
Y365900D02*X242000Y366400D01*
X245000D01*
X245500Y365900D02*X245000Y366400D01*
X245500Y365900D02*Y364900D01*
X244500Y364400D02*X242500Y366400D01*
X242300Y367600D02*X241500Y368400D01*
X245500D01*
Y369100D02*Y367600D01*
X378889Y373800D02*X379890D01*
X378350Y374339D02*X378889Y373800D01*
X378350Y376341D02*Y374339D01*
Y376341D02*X378889Y376880D01*
X379890D01*
X380814D02*X382354D01*
X380814D02*Y375340D01*
X381199Y375725D01*
X381969D01*
X382354Y375340D01*
Y374185D01*
X381969Y373800D02*X382354Y374185D01*
X381199Y373800D02*X381969D01*
X380814Y374185D02*X381199Y373800D01*
X383278Y374185D02*X383663Y373800D01*
X383278Y376495D02*Y374185D01*
Y376495D02*X383663Y376880D01*
X384433D01*
X384818Y376495D01*
Y374185D01*
X384433Y373800D02*X384818Y374185D01*
X383663Y373800D02*X384433D01*
X383278Y374570D02*X384818Y376110D01*
X385742Y374955D02*X387282Y376880D01*
X385742Y374955D02*X387667D01*
X387282Y376880D02*Y373800D01*
X376200Y368390D02*Y367389D01*
X375661Y366850D02*X376200Y367389D01*
X373659Y366850D02*X375661D01*
X373659D02*X373120Y367389D01*
Y368390D02*Y367389D01*
Y370854D02*Y369314D01*
X374660D01*
X374275Y369699D01*
Y370469D02*Y369699D01*
Y370469D02*X374660Y370854D01*
X375815D01*
X376200Y370469D02*X375815Y370854D01*
X376200Y370469D02*Y369699D01*
X375815Y369314D02*X376200Y369699D01*
X375815Y371778D02*X376200Y372163D01*
X373505Y371778D02*X375815D01*
X373505D02*X373120Y372163D01*
Y372933D02*Y372163D01*
Y372933D02*X373505Y373318D01*
X375815D01*
X376200Y372933D02*X375815Y373318D01*
X376200Y372933D02*Y372163D01*
X375430Y371778D02*X373890Y373318D01*
X373505Y374242D02*X373120Y374627D01*
Y375782D02*Y374627D01*
Y375782D02*X373505Y376167D01*
X374275D01*
X376200Y374242D02*X374275Y376167D01*
X376200D02*Y374242D01*
X358500Y370500D02*Y367000D01*
X359000Y366500D01*
X360000D01*
X360500Y367000D01*
Y370500D02*Y367000D01*
X361700Y370000D02*X362200Y370500D01*
X363200D01*
X363700Y370000D01*
X363200Y366500D02*X363700Y367000D01*
X362200Y366500D02*X363200D01*
X361700Y367000D02*X362200Y366500D01*
Y368700D02*X363200D01*
X363700Y370000D02*Y369200D01*
Y368200D02*Y367000D01*
Y368200D02*X363200Y368700D01*
X363700Y369200D02*X363200Y368700D01*
X364900Y369700D02*X365700Y370500D01*
Y366500D01*
X364900D02*X366400D01*
X367600Y367000D02*X368100Y366500D01*
X367600Y370000D02*Y367000D01*
Y370000D02*X368100Y370500D01*
X369100D01*
X369600Y370000D01*
Y367000D01*
X369100Y366500D02*X369600Y367000D01*
X368100Y366500D02*X369100D01*
X367600Y367500D02*X369600Y369500D01*
M02*
