G04 start of page 2 for group 0 idx 0 *
G04 Title: fet12logic, top *
G04 Creator: pcb 20140316 *
G04 CreationDate: Thu 12 Apr 2018 02:45:11 AM GMT UTC *
G04 For: brian *
G04 Format: Gerber/RS-274X *
G04 PCB-Dimensions (mil): 6000.00 5000.00 *
G04 PCB-Coordinate-Origin: lower left *
%MOIN*%
%FSLAX25Y25*%
%LNTOP*%
%ADD42C,0.0335*%
%ADD41C,0.0453*%
%ADD40C,0.2150*%
%ADD39C,0.0118*%
%ADD38C,0.0240*%
%ADD37C,0.0360*%
%ADD36R,0.0177X0.0177*%
%ADD35R,0.0512X0.0512*%
%ADD34R,0.0827X0.0827*%
%ADD33R,0.0236X0.0236*%
%ADD32R,0.0290X0.0290*%
%ADD31R,0.0551X0.0551*%
%ADD30R,0.0413X0.0413*%
%ADD29R,0.0157X0.0157*%
%ADD28R,0.0200X0.0200*%
%ADD27R,0.0110X0.0110*%
%ADD26R,0.0669X0.0669*%
%ADD25R,0.0591X0.0591*%
%ADD24R,0.0472X0.0472*%
%ADD23R,0.0157X0.0157*%
%ADD22R,0.0295X0.0295*%
%ADD21R,0.0140X0.0140*%
%ADD20C,0.0492*%
%ADD19C,0.0610*%
%ADD18C,0.2350*%
%ADD17C,0.0200*%
%ADD16C,0.0250*%
%ADD15C,0.0150*%
%ADD14C,0.0120*%
%ADD13C,0.0060*%
%ADD12C,0.0100*%
%ADD11C,0.0001*%
G54D11*G36*
X294000Y371000D02*X302000D01*
Y360000D01*
X294000D01*
Y371000D01*
G37*
G36*
X223000Y385500D02*Y371500D01*
X205500D01*
Y385500D01*
X223000D01*
G37*
G36*
X351000Y372700D02*Y417000D01*
X354000Y420000D01*
X385000D01*
X388000Y417000D01*
Y370500D01*
X386292D01*
X386385Y370725D01*
X386477Y371108D01*
X386500Y371500D01*
X386477Y371892D01*
X386385Y372275D01*
X386234Y372638D01*
X386029Y372974D01*
X385773Y373273D01*
X385474Y373529D01*
X385138Y373734D01*
X384775Y373885D01*
X384392Y373977D01*
X384000Y374008D01*
X383608Y373977D01*
X383225Y373885D01*
X382862Y373734D01*
X382526Y373529D01*
X382227Y373273D01*
X381971Y372974D01*
X381766Y372638D01*
X381615Y372275D01*
X381523Y371892D01*
X381492Y371500D01*
X381523Y371108D01*
X381615Y370725D01*
X381708Y370500D01*
X358299D01*
X358296Y371514D01*
X358241Y371744D01*
X358151Y371962D01*
X358027Y372163D01*
X357874Y372343D01*
X357694Y372496D01*
X357493Y372620D01*
X357275Y372710D01*
X357045Y372765D01*
X356810Y372779D01*
X355001Y372765D01*
X354771Y372710D01*
X354553Y372620D01*
X354449Y372556D01*
X354344Y372620D01*
X354126Y372710D01*
X353896Y372765D01*
X353661Y372779D01*
X351852Y372765D01*
X351622Y372710D01*
X351404Y372620D01*
X351299Y372555D01*
X351194Y372620D01*
X351000Y372700D01*
G37*
G36*
X332000Y303000D02*X341000D01*
X342000Y304000D01*
X353000D01*
Y300000D01*
X342500D01*
Y296500D01*
X341500Y295500D01*
X332000D01*
Y303000D01*
G37*
G36*
X371000Y286000D02*X377500D01*
Y300000D01*
X371000D01*
Y305000D01*
X375000D01*
X380000Y310000D01*
X388000D01*
Y276000D01*
X371000D01*
Y286000D01*
G37*
G36*
X220000Y245000D02*Y226500D01*
X206000D01*
Y243500D01*
X207500Y245000D01*
X220000D01*
G37*
G36*
X223500Y327500D02*Y302000D01*
X205500D01*
Y327500D01*
X223500D01*
G37*
G36*
X252500Y237000D02*X264500D01*
Y231000D01*
X252500D01*
Y237000D01*
G37*
G36*
X225500Y236500D02*X237500D01*
Y230500D01*
X225500D01*
Y236500D01*
G37*
G36*
X388000Y212500D02*Y164000D01*
X385508D01*
X385474Y164029D01*
X385138Y164234D01*
X384775Y164385D01*
X384392Y164477D01*
X384000Y164508D01*
X383608Y164477D01*
X383225Y164385D01*
X382862Y164234D01*
X382526Y164029D01*
X382492Y164000D01*
X350197D01*
X344000Y170197D01*
Y212500D01*
X388000D01*
G37*
G36*
X368968Y115776D02*X368974Y112875D01*
X369011Y112722D01*
X369071Y112577D01*
X369153Y112442D01*
X369256Y112323D01*
X369375Y112220D01*
X369510Y112138D01*
X369655Y112078D01*
X369808Y112041D01*
X369965Y112032D01*
X373074Y112041D01*
X373227Y112078D01*
X373372Y112138D01*
X373507Y112220D01*
X373626Y112323D01*
X373729Y112442D01*
X373811Y112577D01*
X373871Y112722D01*
X373908Y112875D01*
X373917Y113032D01*
X373908Y116796D01*
X373942Y116782D01*
X374084Y116748D01*
X374092Y112875D01*
X374129Y112722D01*
X374189Y112577D01*
X374271Y112442D01*
X374374Y112323D01*
X374493Y112220D01*
X374628Y112138D01*
X374773Y112078D01*
X374926Y112041D01*
X375083Y112032D01*
X378192Y112041D01*
X378345Y112078D01*
X378490Y112138D01*
X378625Y112220D01*
X378744Y112323D01*
X378847Y112442D01*
X378929Y112577D01*
X378989Y112722D01*
X379026Y112875D01*
X379035Y113032D01*
X379026Y117125D01*
X378989Y117278D01*
X378929Y117423D01*
X378847Y117558D01*
X378744Y117677D01*
X378625Y117780D01*
X378533Y117836D01*
X379801Y119104D01*
X379782Y119058D01*
X379716Y118783D01*
X379693Y118500D01*
X379716Y118217D01*
X379782Y117942D01*
X379890Y117680D01*
X380038Y117438D01*
X380223Y117223D01*
X380438Y117038D01*
X380680Y116890D01*
X380942Y116782D01*
X381217Y116716D01*
X381500Y116693D01*
X381783Y116716D01*
X382058Y116782D01*
X382320Y116890D01*
X382562Y117038D01*
X382777Y117223D01*
X382962Y117438D01*
X383110Y117680D01*
X383218Y117942D01*
X383284Y118217D01*
X383301Y118500D01*
X383295Y118598D01*
X384200Y119503D01*
X385078Y119505D01*
X385155Y119523D01*
X385228Y119553D01*
X385295Y119594D01*
X385355Y119645D01*
X385406Y119705D01*
X385447Y119772D01*
X385477Y119845D01*
X385495Y119922D01*
X385500Y120000D01*
X385497Y125500D01*
X388000D01*
Y59000D01*
X384098D01*
X384000Y59008D01*
X383902Y59000D01*
X374197D01*
X372882Y60315D01*
X372851Y60351D01*
X372708Y60474D01*
X372546Y60573D01*
X372372Y60645D01*
X372188Y60689D01*
X372000Y60704D01*
X371953Y60700D01*
X358197D01*
X358029Y60974D01*
X357773Y61273D01*
X357474Y61529D01*
X357138Y61734D01*
X356775Y61885D01*
X356392Y61977D01*
X356000Y62008D01*
X355608Y61977D01*
X355225Y61885D01*
X354862Y61734D01*
X354526Y61529D01*
X354227Y61273D01*
X353971Y60974D01*
X353766Y60638D01*
X353615Y60275D01*
X353523Y59892D01*
X353492Y59500D01*
X353523Y59108D01*
X353549Y59000D01*
X344500D01*
Y125500D01*
X367502D01*
X367505Y119922D01*
X367523Y119845D01*
X367553Y119772D01*
X367594Y119705D01*
X367645Y119645D01*
X367705Y119594D01*
X367772Y119553D01*
X367800Y119542D01*
Y117488D01*
X367796Y117441D01*
X367811Y117253D01*
X367855Y117069D01*
X367927Y116894D01*
X368026Y116733D01*
X368026Y116733D01*
X368149Y116590D01*
X368185Y116559D01*
X368968Y115776D01*
G37*
G36*
X203500Y235000D02*Y223000D01*
X197500D01*
Y235000D01*
X203500D01*
G37*
G54D12*X362451Y293951D02*X362500Y294000D01*
X362451Y291500D02*Y293951D01*
X357000Y292500D02*X359500Y290000D01*
X356559Y292500D02*X357000D01*
X365518Y287500D02*X367549Y289531D01*
X361000Y286500D02*X356500D01*
X367500Y293000D02*X361000Y286500D01*
X357000Y301941D02*X368000D01*
X356941D02*Y302059D01*
X367500Y293000D02*X374000D01*
X373661Y298118D02*Y302843D01*
X373500Y311441D02*X376441D01*
X377500Y312500D01*
X368000Y307059D02*X371559D01*
X372000Y307500D01*
X367500Y290000D02*X374000D01*
X335000Y307000D02*X335799Y306201D01*
X335138Y310138D02*X335000Y310000D01*
X338620Y312107D02*Y314075D01*
X335138Y310138D02*X357138D01*
X357500Y310500D02*Y313500D01*
X338620Y314120D02*X343321D01*
X344500Y312941D01*
X338620Y318012D02*X344453D01*
X344500Y318059D01*
Y312941D02*X348882D01*
X344488Y318012D02*X348453D01*
X348882Y312941D02*X349441Y313500D01*
X348453Y318012D02*X349441Y319000D01*
X357500Y316441D02*Y319500D01*
X360500Y322500D01*
X354559Y313500D02*X357500Y316441D01*
Y313500D02*X360500Y316500D01*
X373500D01*
X335799Y306201D02*X338620D01*
X357000Y307059D02*X362500D01*
X356941Y302059D02*X352000Y307000D01*
X343500D01*
X357138Y310138D02*X357500Y310500D01*
X361441Y307059D02*Y311441D01*
X361000D02*X366500D01*
X366559D02*X368000D01*
D03*
X338620Y286516D02*X335516D01*
X338620Y321949D02*X335949D01*
X338620Y316044D02*Y318012D01*
X335000Y321000D02*Y307000D01*
X333000Y306500D02*Y329620D01*
X338620Y304233D02*X335267D01*
X343500Y307000D02*X342330Y308170D01*
X338620D01*
X335267Y304233D02*X333000Y306500D01*
X330000Y320500D02*X320500Y311000D01*
Y305500D01*
X335949Y321949D02*X335000Y321000D01*
G54D13*X338620Y319981D02*X341481D01*
G54D12*X330948Y329620D02*X338561D01*
X339500Y330559D01*
X350500D01*
X339500Y325441D02*X345000D01*
G54D13*X341481Y319981D02*X343000Y321500D01*
G54D12*X345559Y325441D02*Y318059D01*
X345512Y318012D01*
G54D13*X346000Y322500D02*X345559D01*
G54D12*X354559Y319000D02*Y323059D01*
X355000Y323500D01*
X354000Y327000D02*X352059D01*
X350500Y325441D01*
G54D14*X351441Y292500D02*X349394Y290453D01*
X349456Y288485D02*X351441Y286500D01*
G54D12*X348500Y293000D02*Y295000D01*
X351000Y297500D01*
G54D14*X349394Y290453D02*X338620D01*
Y288485D02*X349456D01*
G54D12*X338620Y292422D02*X347922D01*
X348500Y293000D01*
X338620Y294390D02*X342449D01*
X345500Y297441D01*
X338610Y294390D02*X335390D01*
X352059Y281000D02*X355500D01*
X338620Y284548D02*X335452D01*
X335390Y294390D02*X333500Y292500D01*
X338620Y274705D02*X320295D01*
X338620Y278642D02*X326358D01*
X338620Y282579D02*X342921D01*
X344500Y281000D01*
X347000D01*
X335516Y286516D02*X334500Y285500D01*
X335452Y284548D02*X334500Y285500D01*
G54D13*X290500Y344000D02*X291500Y343000D01*
G54D12*X291578Y329620D02*Y325578D01*
X291500Y325500D01*
G54D13*Y343000D02*X293500D01*
G54D12*X291941Y340559D02*X294000Y338500D01*
X293547Y329620D02*Y326953D01*
X294000Y326500D01*
G54D13*X310500Y338941D02*X310059Y338500D01*
X302500D01*
X300500Y340500D02*X302500Y338500D01*
X305358Y329620D02*Y338358D01*
G54D12*X313232Y329620D02*Y325268D01*
X316500Y322000D01*
X309295Y329620D02*Y315795D01*
X320295Y274705D02*X281736Y313264D01*
Y329620D01*
X285673Y319327D02*Y329673D01*
X309295Y315795D02*X303000Y309500D01*
X311263Y329620D02*Y310263D01*
X307000Y306000D01*
X326358Y278642D02*X285673Y319327D01*
G54D13*X287641Y329620D02*Y325859D01*
X288000Y325500D01*
G54D12*X303500Y325000D02*Y318500D01*
X294000Y326500D02*Y323500D01*
X276500Y323000D02*Y307500D01*
G54D13*X268000Y320000D02*X271500Y323500D01*
G54D12*X276500Y307500D02*X302500Y281500D01*
G54D13*X271500Y323500D02*Y326000D01*
X271893Y326393D01*
Y332607D01*
X271500Y333000D01*
X272000Y338500D02*X271500Y338000D01*
Y333000D01*
G54D12*X342926Y260926D02*X343000Y261000D01*
X346441D01*
X351559D02*X355000D01*
G54D15*X356500Y243500D02*X346000D01*
G54D12*X343500Y251000D02*X346000Y248500D01*
Y243500D01*
X338620Y260926D02*X342926D01*
X338620Y262894D02*X334106D01*
X334000Y263000D01*
X341441Y226000D02*Y228441D01*
X342500Y229500D01*
X345000D01*
X345740Y230240D01*
Y233185D01*
G54D15*X356500Y233500D02*X346000D01*
X356252Y227126D02*X347685D01*
X346559Y226000D01*
Y222059D01*
X346500Y222000D01*
G54D12*X320500Y252500D02*X329000D01*
X314000Y257500D02*X328500D01*
X335000Y251000D01*
X343500D01*
X329000Y252500D02*X333000Y248500D01*
G54D15*X342000Y243815D02*Y248000D01*
G54D12*X311500Y232441D02*Y229000D01*
G54D13*X304000Y235000D02*Y234043D01*
X308000Y237500D02*Y222043D01*
X310543Y219500D01*
G54D12*X331441Y220500D02*X328500D01*
X326000Y228500D02*Y218500D01*
X335000Y209500D01*
X331441Y226000D02*Y229441D01*
X331500Y229500D01*
X336559Y220500D02*Y226000D01*
X341441D01*
G54D15*X342000Y233185D02*Y237000D01*
G54D13*X300000Y223500D02*Y222957D01*
X300543Y223500D02*X304000Y226957D01*
X300543Y223500D02*X299457D01*
X296000Y226957D01*
X292000Y239000D02*Y222043D01*
X300000Y222957D02*X296543Y219500D01*
X300000Y222957D02*X303457Y219500D01*
X292000Y222043D02*X289457Y219500D01*
G54D12*X311264Y245380D02*Y241236D01*
X311500Y241000D01*
X313233Y245380D02*Y249767D01*
X311500Y241000D02*Y237559D01*
X313233Y249767D02*X313000Y250000D01*
X305359Y245380D02*Y249141D01*
X304000Y250500D01*
X307327Y245380D02*Y251673D01*
G54D13*X306000Y239500D02*X308000Y237500D01*
G54D12*X271000Y239559D02*X270059D01*
X271000Y234441D02*Y229000D01*
G54D13*X295516Y245380D02*Y234527D01*
X296000Y234043D01*
X297485Y245380D02*Y241515D01*
X304000Y235000D01*
X299453Y245380D02*Y242547D01*
X302500Y239500D01*
X306000D01*
X293548Y245380D02*Y240548D01*
X292000Y239000D01*
G54D16*X258500Y346000D02*X263000Y341500D01*
X258500Y346000D02*X242000D01*
G54D12*X254142Y341028D02*X259000Y336169D01*
X246858Y341028D02*Y340642D01*
X254142Y333358D01*
Y331972D02*Y333358D01*
G54D13*X249705Y362500D02*X254000D01*
G54D17*X263000Y334500D02*Y341500D01*
G54D12*X250500Y336500D02*X242000D01*
G54D16*Y326500D02*X247000D01*
X242000Y346000D02*Y326500D01*
G54D12*X247000Y330500D02*Y332000D01*
X254380Y321948D02*Y323120D01*
G54D13*Y319980D02*X268000Y320000D01*
G54D12*X265988Y323512D02*X267000Y322500D01*
X254380Y323120D02*X247000Y330500D01*
X264019Y329620D02*Y332981D01*
X262500Y334500D01*
X259000Y336169D02*Y332000D01*
X261000Y330000D01*
X262000D01*
X265988Y329620D02*Y333429D01*
X267500Y334941D01*
Y340059D02*Y341500D01*
X269000Y343000D01*
X265988Y329512D02*Y323512D01*
X218000Y361000D02*X223343D01*
G54D13*X223500Y356906D02*X228094D01*
X228500Y356500D01*
G54D12*X223343Y361000D02*X223500Y360843D01*
G54D13*X234000Y362000D02*X231220Y364780D01*
X223500D01*
Y368717D02*X230283D01*
X237000Y362000D01*
X223500Y349031D02*X228469D01*
X228500Y349000D01*
G54D12*X223500Y345094D02*X227906D01*
X230000Y343000D01*
G54D13*X223500Y341157D02*X225843D01*
G54D12*X230000Y343000D02*Y341000D01*
G54D13*X225843Y341157D02*X231000Y336000D01*
G54D12*X223500Y352969D02*X219469D01*
X204000Y337500D01*
Y301000D02*Y337500D01*
X223500Y333283D02*Y330500D01*
G54D13*X228500Y306000D02*Y335500D01*
X231000Y336000D02*Y311000D01*
X223500Y337220D02*X226780D01*
X228500Y335500D01*
X234000Y362000D02*Y303559D01*
X237000Y362000D02*Y315059D01*
G54D12*X384000Y354250D02*Y362941D01*
Y333750D02*Y330500D01*
X381500Y328000D01*
X384000Y368059D02*Y371500D01*
X379000Y354250D02*Y363441D01*
X374000Y333750D02*Y328500D01*
X376500Y326000D01*
Y324500D01*
X379000Y333750D02*Y329500D01*
X376000Y326500D01*
X369000Y333750D02*Y326941D01*
X371441Y324500D01*
X369000Y354250D02*Y360000D01*
X374000Y354250D02*Y363441D01*
G54D13*X317941Y340000D02*X315500D01*
X314000Y341500D01*
X324000Y344000D02*X310000D01*
X328471Y341476D02*X326524D01*
X324000Y344000D01*
X323059Y340000D02*X323559Y339500D01*
X328471Y344626D02*X325874D01*
X321500Y349000D02*X315500D01*
X315059Y354500D02*X316500D01*
G54D12*X311441Y366500D02*X305500D01*
X319500D02*X316559D01*
G54D13*X316500Y354500D02*X318000Y353000D01*
X322500Y355441D02*X320559D01*
X318000Y358000D01*
X325874Y344626D02*X321500Y349000D01*
X328471Y360374D02*X322685D01*
X322500Y360559D01*
X337477Y341477D02*X361529D01*
G54D12*X360500Y329059D02*Y332500D01*
Y322500D02*Y323941D01*
G54D13*X333976Y369029D02*Y339524D01*
G54D12*X340275Y369029D02*Y365775D01*
X340000Y365500D01*
X343425Y369029D02*Y365575D01*
X343500Y365500D01*
X346575Y369029D02*Y365925D01*
X347000Y365500D01*
X349724Y369029D02*Y365776D01*
X350000Y365500D01*
X337126Y369029D02*Y366126D01*
X336500Y365500D01*
G54D13*X323559Y339500D02*X335500D01*
X337477Y341477D01*
X337126Y335971D02*Y333626D01*
X336000Y332500D01*
X333976Y339524D02*X334000Y339500D01*
X333977Y335971D02*X332529D01*
X331500Y337000D01*
G54D12*X328980Y329620D02*Y326020D01*
X329000Y326000D01*
G54D13*X336000Y332500D02*X332500D01*
X328500Y336500D01*
G54D12*Y323500D02*X333000D01*
X321106Y329620D02*Y332894D01*
X319137Y329620D02*Y333137D01*
Y329637D02*X320000Y328774D01*
X321106Y329620D02*X320500Y329014D01*
X321106Y332894D02*X320000Y334000D01*
X319137Y333137D02*X320000Y334000D01*
Y328774D02*Y325000D01*
X320500Y329014D02*Y325000D01*
X316500Y322000D02*X327000D01*
X328500Y323500D01*
X280000Y335441D02*X291000D01*
X285673Y329620D02*Y335327D01*
X285559Y335441D01*
X291000Y340559D02*X285500D01*
X280000D02*X278059D01*
X276500Y339000D01*
G54D13*X276000Y349500D02*X285500D01*
X276000D02*X272000Y345500D01*
X275830Y329620D02*Y332170D01*
X274000Y334000D01*
X272000Y345500D02*Y338500D01*
X277799Y329620D02*Y326799D01*
X276500Y325500D01*
X274000D01*
X293500Y343000D02*X294000Y342500D01*
X295500Y343500D02*Y354500D01*
Y343500D02*X296500Y342500D01*
X310000Y349500D02*X305500D01*
X309941Y354500D02*X309000D01*
X307000Y356500D01*
X297500D01*
X295500Y354500D01*
X318000Y358000D02*X292500D01*
X290500Y356000D01*
X282500Y358000D02*X279795D01*
X275295Y362500D01*
X290500Y344000D02*Y356000D01*
G54D12*X290941Y340559D02*X291941D01*
X282500Y367000D02*X285500D01*
G54D13*X314000Y341500D02*X308000D01*
X306500Y340000D01*
X304500D01*
X303000Y341500D01*
X305500Y349500D02*Y343000D01*
X306000Y342500D01*
X294000D02*Y341500D01*
X295500Y340000D01*
X299000D01*
X300500Y349500D02*Y340500D01*
X303389Y329620D02*Y335611D01*
X297484Y329620D02*Y333484D01*
X297500Y333500D01*
X299452Y329620D02*Y326048D01*
X299500Y326000D01*
X301421Y329620D02*Y334579D01*
G54D12*X317169Y329620D02*Y326169D01*
X317000Y326000D01*
G54D13*X303389Y335611D02*X299000Y340000D01*
X301421Y334579D02*X300000Y336000D01*
X254380Y300295D02*X251295D01*
X251000Y300000D01*
Y296000D01*
X250441Y295441D01*
X254380Y302263D02*X251237D01*
X251000Y302500D01*
Y309000D01*
X249941Y310059D01*
G54D12*X254380Y306200D02*X264800D01*
X254380Y304232D02*X257768D01*
X248574Y286515D02*X247059Y285000D01*
X254380Y284547D02*X251047D01*
X248574Y286515D02*X257985D01*
X258000Y286500D01*
X251047Y284547D02*X250000Y283500D01*
X250480Y292421D02*X248559Y290500D01*
X250000Y283500D02*Y280941D01*
X248559Y279500D01*
X243500D02*X241941Y281059D01*
Y285559D01*
X238000Y289500D01*
X236500D01*
X243441Y290500D02*X239000D01*
X238000Y289500D01*
Y281000D02*Y283500D01*
X254380Y292421D02*X250480D01*
X254380D02*X261579D01*
X265989Y288011D01*
X254380Y280610D02*X257890D01*
X258500Y280000D01*
X263500Y280500D02*X261422Y282578D01*
X254380D01*
X263500Y280500D02*X263000Y280000D01*
Y257000D01*
X307327Y251673D02*X263500Y295500D01*
X261500D01*
G54D13*X249941Y310059D02*X237000D01*
X231000Y311000D02*X231500Y310500D01*
X250441Y295441D02*X237000D01*
G54D12*X242500Y300559D02*X248000D01*
Y304941D02*X242500D01*
X242059Y300559D02*Y304882D01*
X242000Y304941D01*
G54D13*X237000Y300559D02*X234000Y303559D01*
G54D12*X238500Y306000D02*X241000D01*
X242059Y304941D01*
G54D13*X232000Y302500D02*X228500Y306000D01*
G54D12*X223500Y294654D02*X218154D01*
X223500Y298591D02*X216591D01*
X214500Y296500D01*
X211000Y294000D02*X204000Y301000D01*
X223500Y267094D02*X238906D01*
X223500Y274969D02*X227031D01*
X241000Y269000D02*X230000D01*
X228000Y271000D01*
X227031Y274969D02*X231000Y271000D01*
X241000D01*
X226594Y278906D02*X228500Y277000D01*
X231500D01*
X232000Y277500D01*
X234500D01*
X238000Y281000D01*
X217157Y282843D02*X211000Y289000D01*
Y294000D01*
X214500Y296500D02*Y290500D01*
X223500Y278906D02*X226594D01*
X234000Y283000D02*Y282000D01*
X227657Y282843D02*X230000Y280500D01*
X236500Y289500D02*X232000Y294000D01*
X223500Y286780D02*X230220D01*
X234000Y283000D01*
X223500Y290717D02*X229283D01*
X230000Y290000D01*
X227657Y282843D02*X217157D01*
X212500Y266000D02*X217000Y270500D01*
X228000Y271000D02*X223500D01*
Y263157D02*X235343D01*
X238500Y260000D01*
X215783Y255283D02*X228783D01*
X215783D02*X204500Y244000D01*
X211000Y266000D02*X212500D01*
X374000Y124250D02*Y119000D01*
X379000Y124250D02*Y120000D01*
X376000Y117000D01*
X384000Y124250D02*Y121000D01*
X381500Y118500D01*
X369000Y124250D02*Y117441D01*
X374000Y119000D02*X376500Y116500D01*
Y115000D01*
X369000Y117441D02*X371441Y115000D01*
X379000Y39250D02*Y48441D01*
X374000Y39250D02*Y48441D01*
X379059Y48500D02*Y52441D01*
X372000Y59500D01*
X382000Y32500D02*X364000D01*
X342000Y54500D01*
X384000Y18750D02*Y15500D01*
Y47941D02*Y34500D01*
X382000Y32500D01*
X384000Y15500D02*X381500Y13000D01*
X369000Y18750D02*Y11941D01*
X371441Y9500D01*
X369000Y39250D02*Y45000D01*
X374000Y18750D02*Y13500D01*
X376500Y11000D01*
Y9500D01*
X379000Y18750D02*Y14500D01*
X376000Y11500D01*
X384000Y53059D02*Y56500D01*
X372000Y59500D02*X356000D01*
X379000Y144750D02*Y153941D01*
X369000Y144750D02*Y150500D01*
X374000Y144750D02*Y153941D01*
X379059Y154000D02*Y157941D01*
X384000Y153441D02*Y140000D01*
X381500Y137500D01*
X342000D01*
X384000Y158559D02*Y162000D01*
X379059Y157941D02*X376500Y160500D01*
X352000D01*
X335000Y177500D01*
Y209500D01*
X342000Y137500D02*Y54500D01*
X254380Y256988D02*X251488D01*
X250500Y256000D01*
Y254500D01*
X248500Y252500D01*
X254380Y258956D02*X249456D01*
X254380Y260925D02*X248075D01*
X247500Y261500D01*
X249456Y258956D02*X247500Y257000D01*
X246000Y249500D02*X258500D01*
X244000Y251500D02*X246000Y249500D01*
X241500Y251000D02*Y264500D01*
X238906Y267094D01*
X241000Y269000D02*X244000Y266000D01*
Y251500D01*
X248530Y278530D02*X241000Y271000D01*
X262052Y245380D02*X243880D01*
X259000Y247500D02*X245000D01*
X223500Y247409D02*X232591D01*
X243880Y245380D02*X243000Y244500D01*
X238500Y250380D02*X243500Y245380D01*
X245000Y247500D02*X241500Y251000D01*
X223500Y251346D02*X228846D01*
X229000Y251500D01*
X231654Y251346D02*X229154D01*
X228783Y255283D02*X230000Y256500D01*
X223500Y259220D02*X227220D01*
X228000Y260000D01*
X233500D01*
X234280Y259220D01*
X338620Y270768D02*X300232D01*
X338620Y266831D02*X295169D01*
X300232Y270768D02*X264800Y306200D01*
X295169Y266831D02*X257768Y304232D01*
X265989Y288011D02*X266000Y267000D01*
X254380Y274704D02*X250204D01*
X249500Y274000D01*
X248530Y279470D02*Y278530D01*
X333000Y248500D02*Y235500D01*
X326000Y228500D01*
X287642Y245380D02*Y249858D01*
X287500Y232441D02*Y228500D01*
Y237559D02*Y239000D01*
X279500Y241500D02*X282000Y239000D01*
Y237559D01*
X273863Y242137D02*X276500Y239500D01*
Y237559D01*
Y232441D02*X282000D01*
Y229500D01*
X276500Y232441D02*Y231000D01*
X275000Y229500D01*
X267000Y236500D02*Y231000D01*
X287642Y249858D02*X287500Y250000D01*
X258449Y253051D02*X258500Y253000D01*
X254380Y253051D02*X258449D01*
X259000Y247500D02*X264500Y253000D01*
X258500Y249500D02*X264000Y255000D01*
X264500Y239500D02*X266000Y241000D01*
Y250000D02*Y241000D01*
G54D13*X264020Y245380D02*Y243020D01*
X263000Y242000D01*
X251000D01*
G54D12*X270059Y239559D02*X267000Y236500D01*
X265989Y249989D02*X266000Y250000D01*
X264000Y255000D02*X271500D01*
X267957Y245380D02*Y248457D01*
X270000Y250500D01*
X264500Y253000D02*X271000D01*
X254380Y255019D02*X257019D01*
X259000Y257000D01*
X276000D01*
X275831Y250669D02*X271500Y255000D01*
X271000Y253000D02*X273863Y250137D01*
X275831Y250669D02*Y242669D01*
X271894Y245380D02*Y240453D01*
X273863Y245380D02*Y242137D01*
Y250137D02*Y245363D01*
X285674Y245380D02*Y241174D01*
X285500Y241000D01*
X287500Y239000D02*X285500Y241000D01*
X275831Y242669D02*X277000Y241500D01*
X271894Y240453D02*X271000Y239559D01*
X277000Y241500D02*X279500D01*
X238500Y260000D02*Y250380D01*
X238000Y238500D02*X239500Y237000D01*
X231654Y251346D02*X241500Y241500D01*
X246000D01*
X232591Y247409D02*X240500Y239500D01*
X246000Y241500D02*X247000Y242500D01*
X249059Y217941D02*X243000Y224000D01*
G54D13*X249500Y220500D02*X248000Y222000D01*
X255500Y220500D02*X249500D01*
G54D12*X249059Y217941D02*X252000D01*
X253776Y224835D02*X252000Y223059D01*
X248000Y222000D02*X247000Y223000D01*
X266441Y217941D02*X267000Y218500D01*
X263000Y217941D02*X266441D01*
G54D13*X257500Y218500D02*X255500Y220500D01*
X257500Y217941D02*Y218500D01*
G54D12*X260075Y225984D02*X263000Y223059D01*
X260075Y228154D02*Y225984D01*
X240500Y239500D02*X264500D01*
X247000Y236500D02*Y223000D01*
X256925Y223634D02*X257500Y223059D01*
X256925Y228154D02*Y223634D01*
X253776Y228154D02*Y224835D01*
X237941Y217941D02*X239500Y219500D01*
X236000Y217941D02*X237941D01*
X239500Y237000D02*Y219500D01*
G54D13*X193000Y217000D02*X194000Y218000D01*
X191500Y218500D02*X193000Y220000D01*
X185500Y217000D02*X193000D01*
X187000Y218500D02*X191500D01*
X183941Y218559D02*X185500Y217000D01*
X183941Y221500D02*Y218559D01*
X186500Y219000D02*X187000Y218500D01*
X186500Y226000D02*Y219000D01*
X185500Y227000D02*X186500Y226000D01*
X183941Y227000D02*X185500D01*
G54D12*X193654Y233724D02*X193335D01*
G54D13*X183941Y232500D02*X185500D01*
G54D12*X191835Y224276D02*X189059Y221500D01*
X193654Y224276D02*X191835D01*
X189484Y227425D02*X189059Y227000D01*
X193654Y227425D02*X189484D01*
G54D13*X222000Y225500D02*X223500Y227000D01*
X222000Y221000D02*Y225500D01*
X222500Y220500D02*X222000Y221000D01*
G54D12*X226776Y224835D02*X225000Y223059D01*
X226776Y227654D02*Y224835D01*
G54D13*X228000Y220500D02*X222500D01*
X230500Y218000D02*X228000Y220500D01*
G54D12*X229925Y223634D02*X230500Y223059D01*
X229925Y227654D02*Y223634D01*
G54D13*X230500Y217941D02*Y218000D01*
G54D12*X221559Y217941D02*X225000D01*
X221559D02*X214500Y225000D01*
X233075Y225984D02*X236000Y223059D01*
X233075Y227654D02*Y225984D01*
X223000Y238500D02*X238000D01*
X193335Y233724D02*X189059Y238000D01*
X190984Y230575D02*X189059Y232500D01*
X193654Y230575D02*X190984D01*
X186500Y241500D02*X211000Y266000D01*
G54D13*X186500Y233500D02*Y240500D01*
X185500Y232500D02*X186500Y233500D01*
G54D12*Y240500D02*Y241500D01*
X183941Y238000D02*Y244941D01*
X217000Y278000D02*X183941Y244941D01*
X204500Y244000D02*Y225500D01*
X205000Y225000D01*
X194000Y218000D02*X208000D01*
X212000Y222000D01*
X193000Y220000D02*X204500D01*
X206500Y222000D01*
X205000Y225000D02*X214500D01*
G54D13*X361000Y271530D02*X361490Y272020D01*
X362960D01*
X363450Y271530D01*
Y270550D01*
X361000Y268100D02*X363450Y270550D01*
X361000Y268100D02*X363450D01*
X364626Y268590D02*X365116Y268100D01*
X364626Y271530D02*Y268590D01*
Y271530D02*X365116Y272020D01*
X366096D01*
X366586Y271530D01*
Y268590D01*
X366096Y268100D02*X366586Y268590D01*
X365116Y268100D02*X366096D01*
X364626Y269080D02*X366586Y271040D01*
X367762Y271236D02*X368546Y272020D01*
Y268100D01*
X367762D02*X369232D01*
X370408Y268590D02*X370898Y268100D01*
X370408Y269374D02*Y268590D01*
Y269374D02*X371094Y270060D01*
X371682D01*
X372368Y269374D01*
Y268590D01*
X371878Y268100D02*X372368Y268590D01*
X370898Y268100D02*X371878D01*
X370408Y270746D02*X371094Y270060D01*
X370408Y271530D02*Y270746D01*
Y271530D02*X370898Y272020D01*
X371878D01*
X372368Y271530D01*
Y270746D01*
X371682Y270060D02*X372368Y270746D01*
X373544Y268590D02*X374034Y268100D01*
X373544Y271530D02*Y268590D01*
Y271530D02*X374034Y272020D01*
X375014D01*
X375504Y271530D01*
Y268590D01*
X375014Y268100D02*X375504Y268590D01*
X374034Y268100D02*X375014D01*
X373544Y269080D02*X375504Y271040D01*
X376680Y269570D02*X378640Y272020D01*
X376680Y269570D02*X379130D01*
X378640Y272020D02*Y268100D01*
X380306Y271236D02*X381090Y272020D01*
Y268100D01*
X380306D02*X381776D01*
X382952Y268590D02*X383442Y268100D01*
X382952Y271530D02*Y268590D01*
Y271530D02*X383442Y272020D01*
X384422D01*
X384912Y271530D01*
Y268590D01*
X384422Y268100D02*X384912Y268590D01*
X383442Y268100D02*X384422D01*
X382952Y269080D02*X384912Y271040D01*
G54D18*X369500Y192000D03*
G54D19*X384291Y279220D03*
G54D18*X369500Y86500D03*
Y401500D03*
G54D20*X373661Y302843D03*
Y283157D03*
G54D19*X384291Y306780D03*
G54D21*X367250Y293469D02*X367848D01*
G54D22*X367508Y307059D02*X368492D01*
X367508Y301941D02*X368492D01*
X367508Y316559D02*X368492D01*
X367508Y311441D02*X368492D01*
G54D21*X367250Y289531D02*X367848D01*
G54D23*X371791Y287882D02*X375531D01*
X371791Y290441D02*X375531D01*
X371791Y293000D02*X375531D01*
X371791Y295559D02*X375531D01*
X371791Y298118D02*X375531D01*
G54D24*X383602Y304417D02*X384980D01*
G54D25*X384193Y296937D02*X384390D01*
G54D22*X373008Y311441D02*X373992D01*
X373008Y316559D02*X373992D01*
G54D24*X383602Y281583D02*X384980D01*
G54D25*X384193Y289063D02*X384390D01*
G54D26*X370740Y252913D02*X384913D01*
G54D22*X346441Y261492D02*Y260508D01*
X351559Y261492D02*Y260508D01*
G54D27*X336921Y255020D02*X340319D01*
X336921Y256989D02*X340319D01*
X336921Y258957D02*X340319D01*
X336921Y260926D02*X340319D01*
G54D26*X370740Y217087D02*X384913D01*
G54D28*X369000Y127500D02*Y121000D01*
X374000Y127500D02*Y121000D01*
G54D22*X371441Y115492D02*Y114508D01*
G54D28*X379000Y127500D02*Y121000D01*
G54D22*X376559Y115492D02*Y114508D01*
G54D28*X384000Y148000D02*Y141500D01*
G54D22*X383508Y153441D02*X384492D01*
X383508Y158559D02*X384492D01*
X379059Y154492D02*Y153508D01*
G54D28*X379000Y148000D02*Y141500D01*
X374000Y148000D02*Y141500D01*
X369000Y148000D02*Y141500D01*
G54D22*X373941Y154492D02*Y153508D01*
G54D28*X384000Y127500D02*Y121000D01*
Y22000D02*Y15500D01*
Y42500D02*Y36000D01*
X369000Y22000D02*Y15500D01*
X374000Y22000D02*Y15500D01*
X379000Y22000D02*Y15500D01*
Y42500D02*Y36000D01*
X374000Y42500D02*Y36000D01*
X369000Y42500D02*Y36000D01*
G54D22*X383508Y47941D02*X384492D01*
X379059Y48992D02*Y48008D01*
X373941Y48992D02*Y48008D01*
X383508Y53059D02*X384492D01*
X376559Y9992D02*Y9008D01*
X371441Y9992D02*Y9008D01*
X360008Y323941D02*X360992D01*
X360008Y329059D02*X360992D01*
G54D28*X369000Y337000D02*Y330500D01*
X374000Y337000D02*Y330500D01*
X379000Y337000D02*Y330500D01*
X384000Y337000D02*Y330500D01*
G54D22*X376559Y324992D02*Y324008D01*
X371441Y324992D02*Y324008D01*
G54D29*X356024Y337434D02*Y334508D01*
X360066Y341477D02*X362992D01*
X360066Y344626D02*X362992D01*
X360066Y347776D02*X362992D01*
X360066Y350925D02*X362992D01*
X360066Y354075D02*X362992D01*
X360066Y357225D02*X362992D01*
X360066Y360374D02*X362992D01*
X360066Y363524D02*X362992D01*
G54D28*X384000Y357500D02*Y351000D01*
X379000Y357500D02*Y351000D01*
X374000Y357500D02*Y351000D01*
X369000Y357500D02*Y351000D01*
G54D22*X383508Y362941D02*X384492D01*
X379059Y363992D02*Y363008D01*
X373941Y363992D02*Y363008D01*
X383508Y368059D02*X384492D01*
G54D30*X254142Y341520D02*Y340535D01*
G54D31*X275098Y362500D02*X275492D01*
X249508D02*X249902D01*
G54D22*X267008Y340059D02*X267992D01*
G54D30*X254142Y332465D02*Y331480D01*
G54D22*X267008Y334941D02*X267992D01*
G54D30*X246858Y332465D02*Y331480D01*
Y341520D02*Y340535D01*
G54D22*X279508Y335441D02*X280492D01*
X290508D02*X291492D01*
X285008D02*X285992D01*
X279508Y340559D02*X280492D01*
X290508D02*X291492D01*
X285008D02*X285992D01*
G54D32*X290500Y353550D02*Y345450D01*
X285500Y353550D02*Y345450D01*
G54D22*X317941Y340492D02*Y339508D01*
X323059Y340492D02*Y339508D01*
X310008Y344059D02*X310992D01*
X310008Y338941D02*X310992D01*
X322008Y355441D02*X322992D01*
X322008Y360559D02*X322992D01*
X315059Y354992D02*Y354008D01*
X309941Y354992D02*Y354008D01*
Y349492D02*Y348508D01*
X315059Y349492D02*Y348508D01*
G54D32*X305500Y353550D02*Y345450D01*
X300500Y353550D02*Y345450D01*
X295500Y353550D02*Y345450D01*
G54D22*X311441Y366992D02*Y366008D01*
X316559Y366992D02*Y366008D01*
G54D32*X305500Y369550D02*Y361450D01*
X300500Y369550D02*Y361450D01*
X295500Y369550D02*Y361450D01*
X290500Y369550D02*Y361450D01*
X285500Y369550D02*Y361450D01*
G54D33*X220941Y368717D02*X226059D01*
X220941Y364780D02*X226059D01*
X220941Y360843D02*X226059D01*
X220941Y356906D02*X226059D01*
X220941Y352969D02*X226059D01*
X220941Y349031D02*X226059D01*
X220941Y345094D02*X226059D01*
X220941Y341157D02*X226059D01*
X220941Y337220D02*X226059D01*
X220941Y333283D02*X226059D01*
G54D34*X212870Y381118D02*X215626D01*
G54D29*X356023Y370492D02*Y367566D01*
X352874Y370492D02*Y367566D01*
X349724Y370492D02*Y367566D01*
X346575Y370492D02*Y367566D01*
X343425Y370492D02*Y367566D01*
X340275Y370492D02*Y367566D01*
X337126Y370492D02*Y367566D01*
X333976Y370492D02*Y367566D01*
X327008Y363523D02*X329934D01*
X327008Y360374D02*X329934D01*
X327008Y357224D02*X329934D01*
X327008Y354075D02*X329934D01*
X327008Y350925D02*X329934D01*
X327008Y347775D02*X329934D01*
X327008Y344626D02*X329934D01*
X327008Y341476D02*X329934D01*
X333977Y337434D02*Y334508D01*
X352874Y337434D02*Y334508D01*
X343425Y337434D02*Y334508D01*
X346575Y337434D02*Y334508D01*
X349725Y337434D02*Y334508D01*
G54D22*X350008Y330559D02*X350992D01*
X344508D02*X345492D01*
G54D29*X337126Y337434D02*Y334508D01*
X340276Y337434D02*Y334508D01*
G54D22*X339008Y330559D02*X339992D01*
X339008Y325441D02*X339992D01*
X350008D02*X350992D01*
X344508D02*X345492D01*
G54D27*X330948Y331319D02*Y327921D01*
X328980Y331319D02*Y327921D01*
X327011Y331319D02*Y327921D01*
X325043Y331319D02*Y327921D01*
X323074Y331319D02*Y327921D01*
X321106Y331319D02*Y327921D01*
X319137Y331319D02*Y327921D01*
X317169Y331319D02*Y327921D01*
X315200Y331319D02*Y327921D01*
X313232Y331319D02*Y327921D01*
X311263Y331319D02*Y327921D01*
X309295Y331319D02*Y327921D01*
X307326Y331319D02*Y327921D01*
X305358Y331319D02*Y327921D01*
X303389Y331319D02*Y327921D01*
X301421Y331319D02*Y327921D01*
X299452Y331319D02*Y327921D01*
X297484Y331319D02*Y327921D01*
X295515Y331319D02*Y327921D01*
X293547Y331319D02*Y327921D01*
X291578Y331319D02*Y327921D01*
X289610Y331319D02*Y327921D01*
X287641Y331319D02*Y327921D01*
X285673Y331319D02*Y327921D01*
X283704Y331319D02*Y327921D01*
X281736Y331319D02*Y327921D01*
X279767Y331319D02*Y327921D01*
X277799Y331319D02*Y327921D01*
X275830Y331319D02*Y327921D01*
X273862Y331319D02*Y327921D01*
X271893Y331319D02*Y327921D01*
X269925Y331319D02*Y327921D01*
X267956Y331319D02*Y327921D01*
X265988Y331319D02*Y327921D01*
X264019Y331319D02*Y327921D01*
X262051Y331319D02*Y327921D01*
G54D34*X212870Y320882D02*X215626D01*
G54D24*X352315Y227126D02*X360189D01*
G54D22*X346559Y226492D02*Y225508D01*
G54D24*X352315Y235000D02*X360189D01*
G54D33*X345740Y234169D02*Y232201D01*
X342000Y234169D02*Y232201D01*
X338260Y234169D02*Y232201D01*
G54D24*X352315Y242874D02*X360189D01*
G54D22*X331441Y220992D02*Y220008D01*
X336559Y220992D02*Y220008D01*
X331441Y226492D02*Y225508D01*
X336559Y226492D02*Y225508D01*
X341441Y226492D02*Y225508D01*
G54D27*X293548Y247079D02*Y243681D01*
X295516Y247079D02*Y243681D01*
X297485Y247079D02*Y243681D01*
X299453Y247079D02*Y243681D01*
X301422Y247079D02*Y243681D01*
X303390Y247079D02*Y243681D01*
X305359Y247079D02*Y243681D01*
X307327Y247079D02*Y243681D01*
X309296Y247079D02*Y243681D01*
G54D35*X295607Y234043D02*X296393D01*
X303607D02*X304393D01*
X295607Y226957D02*X296393D01*
X303607D02*X304393D01*
G54D22*X311008Y237559D02*X311992D01*
G54D27*X311264Y247079D02*Y243681D01*
X313233Y247079D02*Y243681D01*
G54D33*X338260Y244799D02*Y242831D01*
X342000Y244799D02*Y242831D01*
X345740Y244799D02*Y242831D01*
G54D27*X336921Y253052D02*X340319D01*
X315201Y247079D02*Y243681D01*
X317170Y247079D02*Y243681D01*
X319138Y247079D02*Y243681D01*
X321107Y247079D02*Y243681D01*
X323075Y247079D02*Y243681D01*
X325044Y247079D02*Y243681D01*
X327012Y247079D02*Y243681D01*
X328981Y247079D02*Y243681D01*
X330949Y247079D02*Y243681D01*
G54D21*X362152Y291500D02*X362750D01*
G54D22*X362008Y301941D02*X362992D01*
X362008Y307059D02*X362992D01*
X346941Y281492D02*Y280508D01*
X352059Y281492D02*Y280508D01*
X356559Y292992D02*Y292008D01*
X351441Y292992D02*Y292008D01*
X356559Y286992D02*Y286008D01*
X351441Y286992D02*Y286008D01*
X345008Y297441D02*X345992D01*
X350508D02*X351492D01*
X345008Y302559D02*X345992D01*
X344008Y312941D02*X344992D01*
X344008Y318059D02*X344992D01*
X350508Y302559D02*X351492D01*
X356508Y301941D02*X357492D01*
X356508Y307059D02*X357492D01*
X354559Y319492D02*Y318508D01*
X349441Y319492D02*Y318508D01*
X354559Y313992D02*Y313008D01*
X349441Y313992D02*Y313008D01*
X360508Y316559D02*X361492D01*
X360508Y311441D02*X361492D01*
G54D27*X336921Y262894D02*X340319D01*
X336921Y264863D02*X340319D01*
X336921Y266831D02*X340319D01*
X336921Y268800D02*X340319D01*
X336921Y270768D02*X340319D01*
X336921Y272737D02*X340319D01*
X336921Y274705D02*X340319D01*
X336921Y276674D02*X340319D01*
X336921Y278642D02*X340319D01*
X336921Y280611D02*X340319D01*
X336921Y282579D02*X340319D01*
X336921Y284548D02*X340319D01*
X336921Y286516D02*X340319D01*
X336921Y288485D02*X340319D01*
X336921Y290453D02*X340319D01*
X336921Y292422D02*X340319D01*
X336921Y294390D02*X340319D01*
X336921Y296359D02*X340319D01*
X336921Y298327D02*X340319D01*
X336921Y300296D02*X340319D01*
X336921Y302264D02*X340319D01*
X336921Y304233D02*X340319D01*
X336921Y306201D02*X340319D01*
X336921Y308170D02*X340319D01*
X336921Y310138D02*X340319D01*
X336921Y312107D02*X340319D01*
X336921Y314075D02*X340319D01*
X336921Y316044D02*X340319D01*
X336921Y318012D02*X340319D01*
X336921Y319981D02*X340319D01*
X336921Y321949D02*X340319D01*
G54D22*X248559Y290992D02*Y290008D01*
Y279992D02*Y279008D01*
X247059Y285492D02*Y284508D01*
X247508Y295441D02*X248492D01*
X247508Y300559D02*X248492D01*
X247508Y304941D02*X248492D01*
X243441Y290992D02*Y290008D01*
Y279992D02*Y279008D01*
X241941Y285492D02*Y284508D01*
X236508Y295441D02*X237492D01*
X236508Y300559D02*X237492D01*
X242008Y295441D02*X242992D01*
X242008Y300559D02*X242992D01*
X242008Y304941D02*X242992D01*
X236508Y309941D02*X237492D01*
X236508Y315059D02*X237492D01*
X247508Y310059D02*X248492D01*
X242008D02*X242992D01*
G54D27*X252681Y321948D02*X256079D01*
X252681Y319980D02*X256079D01*
X252681Y318011D02*X256079D01*
X252681Y316043D02*X256079D01*
X252681Y314074D02*X256079D01*
X252681Y312106D02*X256079D01*
X252681Y310137D02*X256079D01*
X252681Y308169D02*X256079D01*
X252681Y306200D02*X256079D01*
X252681Y304232D02*X256079D01*
X252681Y302263D02*X256079D01*
X252681Y300295D02*X256079D01*
X252681Y298326D02*X256079D01*
X252681Y296358D02*X256079D01*
X252681Y294389D02*X256079D01*
X252681Y292421D02*X256079D01*
X252681Y290452D02*X256079D01*
X252681Y288484D02*X256079D01*
G54D33*X220941Y298591D02*X226059D01*
G54D34*X212870Y310992D02*X215626D01*
G54D33*X220941Y294654D02*X226059D01*
X220941Y290717D02*X226059D01*
X220941Y286780D02*X226059D01*
X220941Y282843D02*X226059D01*
G54D22*X311008Y232441D02*X311992D01*
G54D27*X279768Y247079D02*Y243681D01*
X281737Y247079D02*Y243681D01*
X283705Y247079D02*Y243681D01*
X285674Y247079D02*Y243681D01*
X287642Y247079D02*Y243681D01*
X289611Y247079D02*Y243681D01*
X291579Y247079D02*Y243681D01*
G54D22*X270508Y239559D02*X271492D01*
X270508Y234441D02*X271492D01*
X276008Y237559D02*X276992D01*
X276008Y232441D02*X276992D01*
X287008Y237559D02*X287992D01*
X287008Y232441D02*X287992D01*
X281508Y237559D02*X282492D01*
X281508Y232441D02*X282492D01*
G54D27*X262052Y247079D02*Y243681D01*
X264020Y247079D02*Y243681D01*
X265989Y247079D02*Y243681D01*
X267957Y247079D02*Y243681D01*
X269926Y247079D02*Y243681D01*
X271894Y247079D02*Y243681D01*
X273863Y247079D02*Y243681D01*
X275831Y247079D02*Y243681D01*
X277800Y247079D02*Y243681D01*
G54D22*X262508Y223059D02*X263492D01*
X262508Y217941D02*X263492D01*
X257008Y223059D02*X257992D01*
X257008Y217941D02*X257992D01*
X251508Y223059D02*X252492D01*
X251508Y217941D02*X252492D01*
G54D36*X253776Y229039D02*Y227268D01*
X256925Y235732D02*Y233961D01*
Y229039D02*Y227268D01*
X260075Y235732D02*Y233961D01*
X263224Y235732D02*Y233961D01*
X260075Y229039D02*Y227268D01*
X263224Y229039D02*Y227268D01*
G54D35*X289457Y219893D02*Y219107D01*
X296543Y219893D02*Y219107D01*
X310543Y219893D02*Y219107D01*
X303457Y219893D02*Y219107D01*
G54D27*X252681Y286515D02*X256079D01*
X252681Y284547D02*X256079D01*
X252681Y282578D02*X256079D01*
X252681Y280610D02*X256079D01*
X252681Y278641D02*X256079D01*
X252681Y276673D02*X256079D01*
X252681Y274704D02*X256079D01*
X252681Y272736D02*X256079D01*
X252681Y270767D02*X256079D01*
X252681Y268799D02*X256079D01*
X252681Y266830D02*X256079D01*
X252681Y264862D02*X256079D01*
X252681Y262893D02*X256079D01*
X252681Y260925D02*X256079D01*
X252681Y258956D02*X256079D01*
X252681Y256988D02*X256079D01*
X252681Y255019D02*X256079D01*
X252681Y253051D02*X256079D01*
G54D36*X253776Y235732D02*Y233961D01*
G54D33*X220941Y278906D02*X226059D01*
X220941Y274969D02*X226059D01*
X220941Y271031D02*X226059D01*
X220941Y267094D02*X226059D01*
X220941Y263157D02*X226059D01*
X220941Y259220D02*X226059D01*
X220941Y255283D02*X226059D01*
X220941Y251346D02*X226059D01*
X220941Y247409D02*X226059D01*
G54D34*X212870Y235008D02*X215626D01*
G54D36*X226776Y235232D02*Y233461D01*
X229925Y235232D02*Y233461D01*
G54D22*X189059Y221992D02*Y221008D01*
X183941Y221992D02*Y221008D01*
X189059Y227492D02*Y226508D01*
X224508Y223059D02*X225492D01*
X224508Y217941D02*X225492D01*
X230008Y223059D02*X230992D01*
X230008Y217941D02*X230992D01*
X235508Y223059D02*X236492D01*
X235508Y217941D02*X236492D01*
G54D36*X226776Y228539D02*Y226768D01*
X229925Y228539D02*Y226768D01*
X233075Y228539D02*Y226768D01*
X236224Y228539D02*Y226768D01*
X233075Y235232D02*Y233461D01*
X236224Y235232D02*Y233461D01*
G54D22*X183941Y227492D02*Y226508D01*
Y232992D02*Y232008D01*
Y238492D02*Y237508D01*
X189059Y232992D02*Y232008D01*
Y238492D02*Y237508D01*
G54D36*X199961Y233724D02*X201732D01*
X193268D02*X195039D01*
X199961Y230575D02*X201732D01*
X193268D02*X195039D01*
X199961Y227425D02*X201732D01*
X193268D02*X195039D01*
X199961Y224276D02*X201732D01*
X193268D02*X195039D01*
G54D37*X362500Y294000D03*
G54D38*X365500Y287500D03*
X359500Y290000D03*
X364500Y311500D03*
G54D37*X377500Y312500D03*
G54D38*X374500Y328000D03*
X381500D03*
G54D37*X358500Y320500D03*
X355000Y323500D03*
G54D38*X354000Y327000D03*
G54D37*X360500Y332500D03*
X372000Y307500D03*
X355500Y281000D03*
X355000Y261000D03*
X334000Y297000D03*
Y301500D03*
G54D38*X343000Y321500D03*
G54D37*X343500Y307000D03*
X333500Y292500D03*
X334500Y285500D03*
G54D38*X346000Y322500D03*
X329000Y326000D03*
G54D37*X330000Y320500D03*
X303500Y318500D03*
X303000Y309500D03*
X307000Y306000D03*
X320500Y305500D03*
X343500Y282000D03*
X343000Y261000D03*
X346500Y222000D03*
X342000Y237000D03*
Y248000D03*
X334000Y263000D03*
G54D38*X328500Y220500D03*
X331500Y229500D03*
G54D37*X320500Y252500D03*
X311500Y241000D03*
Y229000D03*
G54D38*X300000Y223500D03*
G54D37*X313000Y250000D03*
X287500D03*
X302500Y281500D03*
X304000Y250500D03*
X314000Y257500D03*
X287500Y228500D03*
X285500Y241000D03*
G54D38*X282000Y229500D03*
X275000D03*
G54D37*X262500Y334500D03*
G54D38*X282500Y349500D03*
Y367000D03*
Y358000D03*
G54D37*X281736Y313264D03*
G54D38*X274000Y334000D03*
G54D37*X269000Y343000D03*
G54D38*X274000Y325500D03*
X267000Y322500D03*
X276500Y323000D03*
X231500Y310500D03*
G54D37*X238500Y306000D03*
G54D38*X232000Y302500D03*
G54D37*X261500Y295500D03*
G54D38*X384000Y360000D03*
X379000D03*
X374000D03*
X369000D03*
X340000Y365500D03*
X343500D03*
X347000D03*
X350000D03*
X336500D03*
G54D37*X384000Y371500D03*
G54D38*X276500Y339000D03*
X297500Y333500D03*
X300000Y336000D03*
X294000Y338500D03*
X303000Y341500D03*
X306000Y342500D03*
X296500D03*
G54D37*X320500Y325000D03*
G54D38*X294000Y323500D03*
X288000Y325500D03*
X282000D03*
X299500Y326000D03*
X317000D03*
X291500Y325500D03*
X303500Y325000D03*
X318000Y353000D03*
X308500Y366500D03*
X298000Y369500D03*
Y361500D03*
X319500Y366500D03*
X331500Y337000D03*
G54D37*X320000Y334000D03*
G54D38*X328500Y336500D03*
X254000Y362500D03*
G54D37*X218000Y361000D03*
G54D38*X228500Y349000D03*
Y356500D03*
G54D37*X230000Y341000D03*
G54D38*X223500Y330500D03*
G54D37*X218000Y294500D03*
X214500Y290500D03*
X185000Y383000D03*
Y372500D03*
Y357000D03*
Y341500D03*
X202500Y382500D03*
X193500D03*
G54D38*X384000Y150500D03*
X379000D03*
X381500Y118500D03*
X374000Y150500D03*
X369000D03*
G54D37*X384000Y162000D03*
G54D38*Y45000D03*
G54D37*Y56500D03*
G54D38*X379000Y45000D03*
X374000D03*
X369000D03*
G54D37*X333500Y38500D03*
G54D38*X374500Y13000D03*
G54D37*X333500Y10000D03*
X355000D03*
G54D38*X381500Y13000D03*
X374500Y118500D03*
G54D37*X342000Y137500D03*
X355500Y131500D03*
X356000Y59500D03*
G54D38*X258500Y280000D03*
G54D37*X259500Y302500D03*
X264800Y306200D03*
G54D38*X263500Y280500D03*
G54D37*X266000Y267000D03*
G54D38*X258000Y286500D03*
G54D37*X267000Y218500D03*
G54D38*X261500Y232000D03*
G54D37*X271000Y229000D03*
X267000Y231000D03*
G54D38*X258500Y232000D03*
G54D37*X248500Y252500D03*
X247500Y257000D03*
Y261500D03*
G54D38*X258500Y253000D03*
G54D37*X249500Y274000D03*
G54D38*X270000Y250500D03*
X265989Y249989D03*
G54D37*X185000Y327500D03*
Y312000D03*
Y295500D03*
X276000Y257000D03*
X234280Y259220D03*
X230000Y256500D03*
X185000Y261000D03*
X217000Y278000D03*
X230000Y290000D03*
X217000Y270500D03*
X232000Y294000D03*
X230000Y280500D03*
X234000Y282000D03*
X238000Y283500D03*
X185000Y284000D03*
Y271500D03*
X243000Y244500D03*
X229000Y251500D03*
X223000Y238500D03*
G54D38*X223500Y227000D03*
X234500Y231500D03*
X231500D03*
X228000D03*
G54D37*X206500Y222000D03*
G54D38*X198500Y226000D03*
Y229000D03*
Y232500D03*
G54D37*X212000Y222000D03*
X243000Y224000D03*
G54D38*X255000Y232000D03*
G54D37*X247000Y236500D03*
G54D38*X251000Y242000D03*
X247000Y242500D03*
G54D17*G54D39*G54D17*G54D39*G54D17*G54D39*G54D17*G54D39*G54D17*G54D39*G54D17*G54D39*G54D17*G54D39*G54D17*G54D39*G54D17*G54D39*G54D17*G54D39*G54D17*G54D39*G54D17*G54D39*G54D17*G54D39*G54D17*G54D39*G54D17*G54D39*G54D17*G54D39*G54D17*G54D39*G54D17*G54D39*G54D17*G54D39*G54D17*G54D39*G54D17*G54D39*G54D17*G54D39*G54D17*G54D39*G54D17*G54D39*G54D17*G54D39*G54D17*G54D39*G54D17*G54D39*G54D17*G54D39*G54D17*G54D39*G54D17*G54D39*G54D17*G54D39*G54D17*G54D39*G54D17*G54D39*G54D17*G54D39*G54D40*G54D41*G54D40*G54D42*G54D41*M02*
