G75*
G70*
%OFA0B0*%
%FSLAX24Y24*%
%IPPOS*%
%LPD*%
%AMOC8*
5,1,8,0,0,1.08239X$1,22.5*
%
%ADD10C,0.0827*%
%ADD11C,0.0594*%
%ADD12C,0.0436*%
%ADD13C,0.0100*%
%ADD14C,0.0400*%
D10*
X005873Y010569D02*
X006700Y010569D01*
X006700Y012537D02*
X005873Y012537D01*
X024918Y012242D02*
X025745Y012242D01*
X025745Y014211D02*
X024918Y014211D01*
X024918Y009978D02*
X025745Y009978D01*
X025745Y008010D02*
X024918Y008010D01*
D11*
X021050Y007961D03*
X021050Y009929D03*
X022534Y012334D03*
X021142Y013726D03*
D12*
X020460Y014161D03*
X021838Y014654D03*
X023659Y014211D03*
X025381Y013473D03*
X026907Y013866D03*
X027546Y011799D03*
X024692Y011455D03*
X022723Y011750D03*
X021001Y011701D03*
X020509Y012341D03*
X020706Y012882D03*
X019279Y011750D03*
X019525Y011160D03*
X018934Y009782D03*
X019279Y008847D03*
X021641Y007518D03*
X021887Y008305D03*
X023708Y007518D03*
X025086Y006681D03*
X025430Y007223D03*
X023954Y006337D03*
X023757Y005549D03*
X021739Y005549D03*
X019721Y005549D03*
X017753Y005549D03*
X015538Y005549D03*
X014111Y005549D03*
X014210Y006435D03*
X014800Y006829D03*
X014456Y007518D03*
X015489Y007518D03*
X013471Y007075D03*
X012684Y006386D03*
X011651Y006435D03*
X010962Y006386D03*
X010371Y005648D03*
X007664Y005845D03*
X007664Y005303D03*
X006188Y005303D03*
X005893Y006484D03*
X006533Y007419D03*
X005893Y008108D03*
X007123Y008994D03*
X007812Y008305D03*
X008550Y008945D03*
X007960Y010077D03*
X005893Y009339D03*
X010223Y011061D03*
X010223Y011652D03*
X010223Y012242D03*
X010223Y012882D03*
X010223Y013522D03*
X010223Y014112D03*
X010223Y014752D03*
X007615Y014801D03*
X006483Y014801D03*
X006483Y014112D03*
X007615Y014063D03*
X007615Y012980D03*
X007566Y011849D03*
X004810Y012193D03*
X003678Y012242D03*
X003678Y013276D03*
X004958Y014112D03*
X004958Y014801D03*
X003727Y014703D03*
X011355Y010667D03*
X011897Y010667D03*
X012389Y009831D03*
X012930Y009831D03*
X017655Y007469D03*
X019672Y007469D03*
X022527Y009634D03*
X023708Y010126D03*
X026513Y009043D03*
X028088Y009978D03*
X027349Y007567D03*
X016473Y012685D03*
X016473Y013226D03*
X016473Y013817D03*
X016473Y014358D03*
X004367Y005352D03*
D13*
X003385Y005109D02*
X003385Y011307D01*
X007172Y011307D01*
X007910Y010569D01*
X010568Y010569D01*
X010716Y010421D01*
X010716Y009437D01*
X014210Y009437D01*
X015194Y010421D01*
X018786Y010421D01*
X020115Y009093D01*
X021936Y009093D01*
X021936Y012784D01*
X022527Y013325D01*
X024790Y013325D01*
X025135Y012980D01*
X027758Y012980D01*
X027758Y010308D01*
X026184Y010308D01*
X026053Y010439D01*
X025853Y010522D01*
X024810Y010522D01*
X024611Y010439D01*
X024458Y010286D01*
X024375Y010086D01*
X024375Y009870D01*
X024458Y009671D01*
X024611Y009518D01*
X024810Y009435D01*
X025853Y009435D01*
X026053Y009518D01*
X026184Y009648D01*
X027975Y009648D01*
X028018Y009630D01*
X028157Y009630D01*
X028282Y009682D01*
X028282Y005109D01*
X007961Y005109D01*
X007967Y005123D01*
X010101Y005123D01*
X010207Y005229D01*
X010285Y005307D01*
X010302Y005300D01*
X010440Y005300D01*
X010568Y005353D01*
X010666Y005451D01*
X010719Y005578D01*
X010719Y005717D01*
X010666Y005845D01*
X010568Y005943D01*
X010527Y005960D01*
X010641Y005960D01*
X010790Y005960D01*
X010875Y006045D01*
X010892Y006038D01*
X011031Y006038D01*
X011159Y006091D01*
X011257Y006189D01*
X011310Y006317D01*
X011310Y006455D01*
X011257Y006583D01*
X011159Y006681D01*
X011031Y006734D01*
X010892Y006734D01*
X010764Y006681D01*
X010667Y006583D01*
X010614Y006455D01*
X010614Y006320D01*
X010149Y006320D01*
X010043Y006214D01*
X009608Y005778D01*
X008012Y005778D01*
X008012Y005914D01*
X007959Y006042D01*
X007862Y006140D01*
X007734Y006193D01*
X007595Y006193D01*
X007467Y006140D01*
X007369Y006042D01*
X007316Y005914D01*
X007316Y005775D01*
X007369Y005647D01*
X007443Y005574D01*
X007369Y005500D01*
X007316Y005372D01*
X007316Y005234D01*
X007368Y005109D01*
X006484Y005109D01*
X006536Y005234D01*
X006536Y005372D01*
X006483Y005500D01*
X006385Y005598D01*
X006257Y005651D01*
X006119Y005651D01*
X005991Y005598D01*
X005893Y005500D01*
X005886Y005483D01*
X004690Y005483D01*
X004662Y005550D01*
X005943Y005550D01*
X006112Y005649D02*
X004562Y005649D01*
X004564Y005648D02*
X004436Y005701D01*
X004298Y005701D01*
X004170Y005648D01*
X004072Y005550D01*
X004019Y005422D01*
X004019Y005283D01*
X004072Y005155D01*
X004119Y005109D01*
X003385Y005109D01*
X003385Y005156D02*
X004072Y005156D01*
X004031Y005254D02*
X003385Y005254D01*
X003385Y005353D02*
X004019Y005353D01*
X004031Y005451D02*
X003385Y005451D01*
X003385Y005550D02*
X004072Y005550D01*
X004172Y005649D02*
X003385Y005649D01*
X003385Y005747D02*
X007328Y005747D01*
X007316Y005846D02*
X003385Y005846D01*
X003385Y005944D02*
X007329Y005944D01*
X007370Y006043D02*
X003385Y006043D01*
X003385Y006141D02*
X007471Y006141D01*
X007858Y006141D02*
X009970Y006141D01*
X009872Y006043D02*
X007959Y006043D01*
X008000Y005944D02*
X009773Y005944D01*
X009675Y005846D02*
X008012Y005846D01*
X007910Y005599D02*
X007664Y005845D01*
X007910Y005599D02*
X009682Y005599D01*
X010223Y006140D01*
X010716Y006140D01*
X010962Y006386D01*
X011206Y006634D02*
X028282Y006634D01*
X028282Y006733D02*
X011034Y006733D01*
X010889Y006733D02*
X003385Y006733D01*
X003385Y006831D02*
X028282Y006831D01*
X028282Y006930D02*
X003385Y006930D01*
X003385Y007028D02*
X028282Y007028D01*
X028282Y007127D02*
X003385Y007127D01*
X003385Y007225D02*
X028282Y007225D01*
X028282Y007324D02*
X003385Y007324D01*
X003385Y007422D02*
X028282Y007422D01*
X028282Y007521D02*
X003385Y007521D01*
X003385Y007619D02*
X028282Y007619D01*
X028282Y007718D02*
X003385Y007718D01*
X003385Y007816D02*
X028282Y007816D01*
X028282Y007915D02*
X003385Y007915D01*
X003385Y008014D02*
X028282Y008014D01*
X028282Y008112D02*
X003385Y008112D01*
X003385Y008211D02*
X028282Y008211D01*
X028282Y008309D02*
X003385Y008309D01*
X003385Y008408D02*
X028282Y008408D01*
X028282Y008506D02*
X003385Y008506D01*
X003385Y008605D02*
X028282Y008605D01*
X028282Y008703D02*
X003385Y008703D01*
X003385Y008802D02*
X028282Y008802D01*
X028282Y008900D02*
X003385Y008900D01*
X003385Y008999D02*
X028282Y008999D01*
X028282Y009098D02*
X021936Y009098D01*
X021936Y009196D02*
X028282Y009196D01*
X028282Y009295D02*
X021936Y009295D01*
X021936Y009393D02*
X028282Y009393D01*
X028282Y009492D02*
X025990Y009492D01*
X026125Y009590D02*
X028282Y009590D01*
X027758Y010379D02*
X026113Y010379D01*
X025961Y010477D02*
X027758Y010477D01*
X027758Y010576D02*
X021936Y010576D01*
X021936Y010674D02*
X027758Y010674D01*
X027758Y010773D02*
X021936Y010773D01*
X021936Y010871D02*
X027758Y010871D01*
X027758Y010970D02*
X021936Y010970D01*
X021936Y011068D02*
X027758Y011068D01*
X027758Y011167D02*
X021936Y011167D01*
X021936Y011266D02*
X027758Y011266D01*
X027758Y011364D02*
X021936Y011364D01*
X021936Y011463D02*
X027758Y011463D01*
X027758Y011561D02*
X021936Y011561D01*
X021936Y011660D02*
X027758Y011660D01*
X027758Y011758D02*
X021936Y011758D01*
X021936Y011857D02*
X027758Y011857D01*
X027758Y011955D02*
X021936Y011955D01*
X021936Y012054D02*
X027758Y012054D01*
X027758Y012152D02*
X021936Y012152D01*
X021936Y012251D02*
X027758Y012251D01*
X027758Y012349D02*
X021936Y012349D01*
X021936Y012448D02*
X027758Y012448D01*
X027758Y012547D02*
X021936Y012547D01*
X021936Y012645D02*
X027758Y012645D01*
X027758Y012744D02*
X021936Y012744D01*
X022000Y012842D02*
X027758Y012842D01*
X027758Y012941D02*
X022108Y012941D01*
X022215Y013039D02*
X025076Y013039D01*
X024977Y013138D02*
X022323Y013138D01*
X022430Y013236D02*
X024879Y013236D01*
X025076Y013335D02*
X028282Y013335D01*
X028282Y013433D02*
X024977Y013433D01*
X024889Y013522D02*
X022330Y013522D01*
X021739Y012931D01*
X021739Y009289D01*
X020214Y009289D01*
X018885Y010618D01*
X018885Y011750D01*
X018688Y011947D01*
X016720Y011947D01*
X016277Y012439D01*
X016277Y015045D01*
X028282Y015045D01*
X028282Y013177D01*
X025233Y013177D01*
X024889Y013522D01*
X025174Y013236D02*
X028282Y013236D01*
X028282Y013532D02*
X016277Y013532D01*
X016277Y013433D02*
X022241Y013433D01*
X022143Y013335D02*
X016277Y013335D01*
X016277Y013236D02*
X022044Y013236D01*
X021946Y013138D02*
X016277Y013138D01*
X016277Y013039D02*
X021847Y013039D01*
X021749Y012941D02*
X016277Y012941D01*
X016277Y012842D02*
X021739Y012842D01*
X021739Y012744D02*
X016277Y012744D01*
X016277Y012645D02*
X021739Y012645D01*
X021739Y012547D02*
X016277Y012547D01*
X016277Y012448D02*
X021739Y012448D01*
X021739Y012349D02*
X016357Y012349D01*
X016446Y012251D02*
X021739Y012251D01*
X021739Y012152D02*
X016535Y012152D01*
X016623Y012054D02*
X021739Y012054D01*
X021739Y011955D02*
X016712Y011955D01*
X015981Y011955D02*
X009879Y011955D01*
X009879Y011857D02*
X015981Y011857D01*
X015981Y011758D02*
X009879Y011758D01*
X009879Y011660D02*
X015981Y011660D01*
X015981Y011561D02*
X009879Y011561D01*
X009879Y011463D02*
X015981Y011463D01*
X015981Y011364D02*
X009879Y011364D01*
X009879Y011266D02*
X015981Y011266D01*
X015981Y011167D02*
X009879Y011167D01*
X009879Y011068D02*
X015981Y011068D01*
X015981Y010970D02*
X009879Y010970D01*
X009879Y010871D02*
X015981Y010871D01*
X015981Y010773D02*
X010709Y010773D01*
X010666Y010815D02*
X009879Y010815D01*
X009879Y015045D01*
X015981Y015045D01*
X015981Y010618D01*
X015096Y010618D01*
X014160Y009683D01*
X011011Y009683D01*
X011011Y010471D01*
X010666Y010815D01*
X010807Y010674D02*
X015981Y010674D01*
X015151Y010379D02*
X018829Y010379D01*
X018928Y010280D02*
X015053Y010280D01*
X014954Y010182D02*
X019026Y010182D01*
X019125Y010083D02*
X014856Y010083D01*
X014757Y009984D02*
X019223Y009984D01*
X019322Y009886D02*
X014659Y009886D01*
X014560Y009787D02*
X019420Y009787D01*
X019519Y009689D02*
X014461Y009689D01*
X014363Y009590D02*
X019618Y009590D01*
X019716Y009492D02*
X014264Y009492D01*
X014166Y009689D02*
X011011Y009689D01*
X011011Y009787D02*
X014265Y009787D01*
X014363Y009886D02*
X011011Y009886D01*
X011011Y009984D02*
X014462Y009984D01*
X014560Y010083D02*
X011011Y010083D01*
X011011Y010182D02*
X014659Y010182D01*
X014757Y010280D02*
X011011Y010280D01*
X011011Y010379D02*
X014856Y010379D01*
X014954Y010477D02*
X011004Y010477D01*
X010906Y010576D02*
X015053Y010576D01*
X015981Y012054D02*
X009879Y012054D01*
X009879Y012152D02*
X015981Y012152D01*
X015981Y012251D02*
X009879Y012251D01*
X009879Y012349D02*
X015981Y012349D01*
X015981Y012448D02*
X009879Y012448D01*
X009879Y012547D02*
X015981Y012547D01*
X015981Y012645D02*
X009879Y012645D01*
X009879Y012744D02*
X015981Y012744D01*
X015981Y012842D02*
X009879Y012842D01*
X009879Y012941D02*
X015981Y012941D01*
X015981Y013039D02*
X009879Y013039D01*
X009879Y013138D02*
X015981Y013138D01*
X015981Y013236D02*
X009879Y013236D01*
X009879Y013335D02*
X015981Y013335D01*
X015981Y013433D02*
X009879Y013433D01*
X009879Y013532D02*
X015981Y013532D01*
X015981Y013631D02*
X009879Y013631D01*
X009879Y013729D02*
X015981Y013729D01*
X015981Y013828D02*
X009879Y013828D01*
X009879Y013926D02*
X015981Y013926D01*
X015981Y014025D02*
X009879Y014025D01*
X009879Y014123D02*
X015981Y014123D01*
X015981Y014222D02*
X009879Y014222D01*
X009879Y014320D02*
X015981Y014320D01*
X015981Y014419D02*
X009879Y014419D01*
X009879Y014517D02*
X015981Y014517D01*
X015981Y014616D02*
X009879Y014616D01*
X009879Y014715D02*
X015981Y014715D01*
X015981Y014813D02*
X009879Y014813D01*
X009879Y014912D02*
X015981Y014912D01*
X015981Y015010D02*
X009879Y015010D01*
X009633Y015010D02*
X003385Y015010D01*
X003385Y015045D02*
X009633Y015045D01*
X009633Y010766D01*
X008009Y010766D01*
X007271Y011504D01*
X003385Y011504D01*
X003385Y015045D01*
X003385Y014912D02*
X009633Y014912D01*
X009633Y014813D02*
X003385Y014813D01*
X003385Y014715D02*
X009633Y014715D01*
X009633Y014616D02*
X003385Y014616D01*
X003385Y014517D02*
X009633Y014517D01*
X009633Y014419D02*
X003385Y014419D01*
X003385Y014320D02*
X009633Y014320D01*
X009633Y014222D02*
X003385Y014222D01*
X003385Y014123D02*
X009633Y014123D01*
X009633Y014025D02*
X003385Y014025D01*
X003385Y013926D02*
X009633Y013926D01*
X009633Y013828D02*
X003385Y013828D01*
X003385Y013729D02*
X009633Y013729D01*
X009633Y013631D02*
X003385Y013631D01*
X003385Y013532D02*
X009633Y013532D01*
X009633Y013433D02*
X003385Y013433D01*
X003385Y013335D02*
X009633Y013335D01*
X009633Y013236D02*
X003385Y013236D01*
X003385Y013138D02*
X009633Y013138D01*
X009633Y013039D02*
X003385Y013039D01*
X003385Y012941D02*
X009633Y012941D01*
X009633Y012842D02*
X003385Y012842D01*
X003385Y012744D02*
X009633Y012744D01*
X009633Y012645D02*
X003385Y012645D01*
X003385Y012547D02*
X009633Y012547D01*
X009633Y012448D02*
X003385Y012448D01*
X003385Y012349D02*
X009633Y012349D01*
X009633Y012251D02*
X003385Y012251D01*
X003385Y012152D02*
X009633Y012152D01*
X009633Y012054D02*
X003385Y012054D01*
X003385Y011955D02*
X009633Y011955D01*
X009633Y011857D02*
X003385Y011857D01*
X003385Y011758D02*
X009633Y011758D01*
X009633Y011660D02*
X003385Y011660D01*
X003385Y011561D02*
X009633Y011561D01*
X009633Y011463D02*
X007312Y011463D01*
X007411Y011364D02*
X009633Y011364D01*
X009633Y011266D02*
X007509Y011266D01*
X007608Y011167D02*
X009633Y011167D01*
X009633Y011068D02*
X007706Y011068D01*
X007805Y010970D02*
X009633Y010970D01*
X009633Y010871D02*
X007903Y010871D01*
X008002Y010773D02*
X009633Y010773D01*
X010660Y010477D02*
X003385Y010477D01*
X003385Y010379D02*
X010716Y010379D01*
X010716Y010280D02*
X003385Y010280D01*
X003385Y010182D02*
X010716Y010182D01*
X010716Y010083D02*
X003385Y010083D01*
X003385Y009984D02*
X010716Y009984D01*
X010716Y009886D02*
X003385Y009886D01*
X003385Y009787D02*
X010716Y009787D01*
X010716Y009689D02*
X003385Y009689D01*
X003385Y009590D02*
X010716Y009590D01*
X010716Y009492D02*
X003385Y009492D01*
X003385Y009393D02*
X019815Y009393D01*
X019913Y009295D02*
X003385Y009295D01*
X003385Y009196D02*
X020012Y009196D01*
X020110Y009098D02*
X003385Y009098D01*
X003385Y010576D02*
X007904Y010576D01*
X007805Y010674D02*
X003385Y010674D01*
X003385Y010773D02*
X007707Y010773D01*
X007608Y010871D02*
X003385Y010871D01*
X003385Y010970D02*
X007510Y010970D01*
X007411Y011068D02*
X003385Y011068D01*
X003385Y011167D02*
X007312Y011167D01*
X007214Y011266D02*
X003385Y011266D01*
X003385Y006634D02*
X010717Y006634D01*
X010647Y006535D02*
X003385Y006535D01*
X003385Y006437D02*
X010614Y006437D01*
X010614Y006338D02*
X003385Y006338D01*
X003385Y006240D02*
X010069Y006240D01*
X010565Y005944D02*
X028282Y005944D01*
X028282Y005846D02*
X010665Y005846D01*
X010707Y005747D02*
X028282Y005747D01*
X028282Y005649D02*
X010719Y005649D01*
X010707Y005550D02*
X028282Y005550D01*
X028282Y005451D02*
X010667Y005451D01*
X010569Y005353D02*
X028282Y005353D01*
X028282Y005254D02*
X010232Y005254D01*
X010134Y005156D02*
X028282Y005156D01*
X028282Y006043D02*
X011043Y006043D01*
X010880Y006043D02*
X010873Y006043D01*
X011209Y006141D02*
X028282Y006141D01*
X028282Y006240D02*
X011278Y006240D01*
X011310Y006338D02*
X028282Y006338D01*
X028282Y006437D02*
X011310Y006437D01*
X011276Y006535D02*
X028282Y006535D01*
X024673Y009492D02*
X021936Y009492D01*
X021936Y009590D02*
X024538Y009590D01*
X024450Y009689D02*
X021936Y009689D01*
X021936Y009787D02*
X024409Y009787D01*
X024375Y009886D02*
X021936Y009886D01*
X021936Y009984D02*
X024375Y009984D01*
X024375Y010083D02*
X021936Y010083D01*
X021936Y010182D02*
X024414Y010182D01*
X024455Y010280D02*
X021936Y010280D01*
X021936Y010379D02*
X024550Y010379D01*
X024703Y010477D02*
X021936Y010477D01*
X021739Y010477D02*
X019026Y010477D01*
X019124Y010379D02*
X021739Y010379D01*
X021739Y010280D02*
X019223Y010280D01*
X019322Y010182D02*
X021739Y010182D01*
X021739Y010083D02*
X019420Y010083D01*
X019519Y009984D02*
X021739Y009984D01*
X021739Y009886D02*
X019617Y009886D01*
X019716Y009787D02*
X021739Y009787D01*
X021739Y009689D02*
X019814Y009689D01*
X019913Y009590D02*
X021739Y009590D01*
X021739Y009492D02*
X020011Y009492D01*
X020110Y009393D02*
X021739Y009393D01*
X021739Y009295D02*
X020208Y009295D01*
X018927Y010576D02*
X021739Y010576D01*
X021739Y010674D02*
X018885Y010674D01*
X018885Y010773D02*
X021739Y010773D01*
X021739Y010871D02*
X018885Y010871D01*
X018885Y010970D02*
X021739Y010970D01*
X021739Y011068D02*
X018885Y011068D01*
X018885Y011167D02*
X021739Y011167D01*
X021739Y011266D02*
X018885Y011266D01*
X018885Y011364D02*
X021739Y011364D01*
X021739Y011463D02*
X018885Y011463D01*
X018885Y011561D02*
X021739Y011561D01*
X021739Y011660D02*
X018885Y011660D01*
X018877Y011758D02*
X021739Y011758D01*
X021739Y011857D02*
X018778Y011857D01*
X016277Y013631D02*
X028282Y013631D01*
X028282Y013729D02*
X016277Y013729D01*
X016277Y013828D02*
X028282Y013828D01*
X028282Y013926D02*
X016277Y013926D01*
X016277Y014025D02*
X028282Y014025D01*
X028282Y014123D02*
X016277Y014123D01*
X016277Y014222D02*
X028282Y014222D01*
X028282Y014320D02*
X016277Y014320D01*
X016277Y014419D02*
X028282Y014419D01*
X028282Y014517D02*
X016277Y014517D01*
X016277Y014616D02*
X028282Y014616D01*
X028282Y014715D02*
X016277Y014715D01*
X016277Y014813D02*
X028282Y014813D01*
X028282Y014912D02*
X016277Y014912D01*
X016277Y015010D02*
X028282Y015010D01*
X011651Y006435D02*
X011454Y006435D01*
X010371Y005648D02*
X010027Y005303D01*
X007664Y005303D01*
X007419Y005550D02*
X006434Y005550D01*
X006503Y005451D02*
X007349Y005451D01*
X007316Y005353D02*
X006536Y005353D01*
X006536Y005254D02*
X007316Y005254D01*
X007349Y005156D02*
X006504Y005156D01*
X006188Y005303D02*
X004416Y005303D01*
X004367Y005352D01*
X004662Y005550D02*
X004564Y005648D01*
X006264Y005649D02*
X007369Y005649D01*
D14*
X025332Y009978D02*
X028088Y009978D01*
X028088Y014211D01*
X025332Y014211D01*
M02*
