%
M48
M72
T01C0.0236
T02C0.0354
T03C0.0551
%
T01
X4367Y5352
X6188Y5303
X7664Y5303
X7664Y5845
X5893Y6484
X6533Y7419
X5893Y8108
X7123Y8994
X7812Y8305
X8550Y8945
X7960Y10077
X5893Y9339
X10223Y11061
X10223Y11652
X10223Y12242
X10223Y12882
X10223Y13522
X10223Y14112
X10223Y14752
X7615Y14801
X6483Y14801
X6483Y14112
X7615Y14063
X7615Y12980
X7566Y11849
X4810Y12193
X3678Y12242
X3678Y13276
X4958Y14112
X4958Y14801
X3727Y14703
X11355Y10667
X11897Y10667
X12389Y9831
X12930Y9831
X14456Y7518
X15489Y7518
X14800Y6829
X14210Y6435
X13471Y7075
X12684Y6386
X11651Y6435
X10962Y6386
X10371Y5648
X14111Y5549
X15538Y5549
X17753Y5549
X19721Y5549
X21739Y5549
X23757Y5549
X23954Y6337
X25086Y6681
X25430Y7223
X23708Y7518
X21887Y8305
X21641Y7518
X19672Y7469
X17655Y7469
X19279Y8847
X18934Y9782
X19525Y11160
X19279Y11750
X20509Y12341
X20706Y12882
X21001Y11701
X22723Y11750
X24692Y11455
X23708Y10126
X22527Y9634
X26513Y9043
X28088Y9978
X27546Y11799
X25381Y13473
X26907Y13866
X23659Y14211
X21838Y14654
X20460Y14161
X16473Y14358
X16473Y13817
X16473Y13226
X16473Y12685
X27349Y7567
T02
X21050Y7961
X21050Y9929
X22534Y12334
X21142Y13726
T03
X25332Y14211
X25332Y12242
X25332Y9978
X25332Y8010
X6286Y10569
X6286Y12537
M30
