G04 start of page 2 for group 0 idx 0 *
G04 Title: simple, top *
G04 Creator: pcb 20140316 *
G04 CreationDate: Wed 21 Feb 2018 06:48:06 PM GMT UTC *
G04 For: brian *
G04 Format: Gerber/RS-274X *
G04 PCB-Dimensions (mil): 6000.00 5000.00 *
G04 PCB-Coordinate-Origin: lower left *
%MOIN*%
%FSLAX25Y25*%
%LNTOP*%
%ADD30C,0.0350*%
%ADD29C,0.0280*%
%ADD28C,0.0437*%
%ADD27C,0.0279*%
%ADD26C,0.0268*%
%ADD25C,0.0420*%
%ADD24C,0.1270*%
%ADD23C,0.0380*%
%ADD22C,0.0200*%
%ADD21C,0.0360*%
%ADD20C,0.0540*%
%ADD19C,0.0597*%
%ADD18C,0.0480*%
%ADD17C,0.0433*%
%ADD16C,0.0720*%
%ADD15C,0.0001*%
%ADD14C,0.1830*%
%ADD13C,0.0600*%
%ADD12C,0.0080*%
%ADD11C,0.0100*%
G54D11*X327500Y325000D02*X322500Y330000D01*
Y343500D01*
X328000Y349000D01*
X317500Y325000D02*Y348500D01*
X318000Y349000D01*
X338000D02*Y345500D01*
X327500Y335000D01*
X337500Y325000D02*Y339000D01*
X343000Y344500D01*
Y353000D01*
X341500Y354500D01*
X308000Y349000D02*Y377500D01*
X347500Y335000D02*X353000Y340500D01*
Y355500D01*
X331000Y377500D01*
X312500D02*X331000D01*
X341500Y354500D02*X311500D01*
X347500Y395000D02*Y408500D01*
X348000Y409000D01*
X337500Y395000D02*Y408500D01*
X338000Y409000D01*
X328000D02*X321000Y402000D01*
X317500D01*
X313000Y397500D01*
X318000Y409000D02*X311000Y402000D01*
X299500D01*
X298000Y409000D02*Y403500D01*
X313000Y397500D02*Y385500D01*
X308000Y377500D02*X317500Y387000D01*
Y395000D01*
X313000Y385500D02*X298500Y371000D01*
X277000Y400000D02*X287000D01*
X288000Y409000D02*X287000D01*
X282500Y404500D01*
X274000D01*
X272500Y403000D01*
Y396500D01*
X270000Y394000D01*
X298000Y403500D02*X290000Y395500D01*
X299500Y402000D02*X291000Y393500D01*
X288000Y390000D02*Y389000D01*
X299000Y378000D01*
X300500D01*
X290000Y395500D02*X275000D01*
X291000Y393500D02*X285500D01*
X275000Y395500D02*X271000Y391500D01*
X285500Y393500D02*X268000Y376000D01*
X298500Y371000D02*X255500D01*
X304500Y354500D02*X283500D01*
X278000Y349000D01*
X268500Y358500D02*X278000Y349000D01*
X212500Y324500D02*Y325500D01*
X202500Y324500D02*X205000D01*
X204500Y336500D02*X192500Y324500D01*
X205000D02*X212500Y332000D01*
X216000D01*
X217500Y336500D02*X204500D01*
X206000Y340500D02*X196500Y331500D01*
X196000Y334000D02*X208000Y346000D01*
X189024Y341000D02*X193000Y344976D01*
X191476Y337500D02*X194976Y341000D01*
X197500D01*
X172500Y324500D02*X179500Y331500D01*
X196500D01*
X172000Y334000D02*X162500Y324500D01*
X172000Y334000D02*X196000D01*
X170476Y337500D02*X191476D01*
X170476D02*X163500Y344476D01*
X216000Y332000D02*X228500Y344500D01*
X217500Y336500D02*X223500Y342500D01*
X212500Y325500D02*X229500Y342500D01*
X228500Y344500D02*X230000D01*
X232500Y347000D01*
Y352000D01*
X229500Y342500D02*X234500D01*
X238000Y346000D01*
Y349000D01*
X218000D02*X215500D01*
X207000Y340500D01*
X208000Y346000D02*Y349000D01*
X223500Y342500D02*Y351000D01*
X178000Y349000D02*Y351000D01*
X186000Y359000D01*
X191000Y352000D02*X188000Y349000D01*
X193000Y344976D02*Y352500D01*
X205500Y354000D02*X203000Y351500D01*
X204500Y364000D02*X193000Y352500D01*
X191000Y352000D02*Y363000D01*
X173000Y364000D02*X187500D01*
X143000Y358500D02*X159421D01*
X162000Y361079D01*
X163500Y359579D02*X162000Y361079D01*
X163500Y359579D02*Y344476D01*
X161000Y385500D02*X163000Y383500D01*
Y378000D01*
X141000Y374437D02*Y360500D01*
X143000Y358500D01*
X145000Y362689D02*X154000Y371689D01*
X143000Y355500D02*X149500D01*
X153000Y352000D01*
X137000Y358000D02*X143000Y352000D01*
Y325000D01*
X142500Y324500D01*
X139000Y359500D02*X143000Y355500D01*
X153000Y352000D02*Y325000D01*
X152500Y324500D01*
X137000Y358000D02*Y387000D01*
X139000Y386000D02*Y359500D01*
X145000Y378437D02*X141000Y374437D01*
X154000Y371689D02*Y383500D01*
X145000Y370563D02*X152000Y377563D01*
Y385000D01*
X165000Y383524D02*X173000Y375524D01*
X163000Y378000D02*X173000Y368000D01*
Y353500D01*
X159000Y395000D02*X163500Y399500D01*
X156500Y395500D02*X162500Y401500D01*
X165000Y387563D02*Y383524D01*
Y395437D02*X161000Y391437D01*
Y385500D01*
X161500Y403500D02*X155000Y397000D01*
X158000Y409000D02*X154500D01*
X155000Y397000D02*X150000D01*
X139000Y386000D01*
X137000Y387000D02*X154500Y404500D01*
Y409000D02*X141000Y395500D01*
X144000Y403500D02*X142500D01*
X138500Y399500D01*
X159000Y388500D02*Y395000D01*
X156500Y389500D02*Y395500D01*
X154000Y383500D02*X159000Y388500D01*
X152000Y385000D02*X156500Y389500D01*
X162500Y401500D02*X180500D01*
X179000Y403500D02*X161500D01*
X163500Y399500D02*X179500D01*
X179000Y403500D02*X184500Y409000D01*
X188000D01*
X180500Y401500D02*X183500Y404500D01*
X179500Y399500D02*X183000Y396000D01*
X180500Y394000D02*X188000D01*
X183000Y396000D02*X192000D01*
X192500Y395500D01*
X170000Y396000D02*X178500D01*
X180500Y394000D02*X178500Y396000D01*
X190500Y391500D02*Y383500D01*
X188000Y394000D02*X190500Y391500D01*
X187500Y364000D02*X192000Y368500D01*
X190500Y383500D02*X186000Y379000D01*
Y389000D02*X181500Y384500D01*
X188500Y376500D02*X186000Y379000D01*
X178500Y384000D02*Y376000D01*
X177500Y385000D02*X178500Y384000D01*
X181500Y384500D02*Y377500D01*
X182000Y377000D01*
Y375500D01*
X183500Y374000D01*
X191500D02*X183500D01*
X207000Y340500D02*X206000D01*
X197500Y341000D02*X203000Y346500D01*
Y351500D01*
X221000Y387000D02*Y390000D01*
X224500Y393500D01*
X220000Y394000D02*X219500Y393500D01*
X217000Y395500D02*X219000Y397500D01*
X222500D01*
X224500Y395500D01*
X211000Y390500D02*Y386000D01*
Y390500D02*X214000Y393500D01*
X192500Y395500D02*X217000D01*
X219500Y393500D02*X214000D01*
X183500Y404500D02*X239000D01*
X238500Y395500D02*X242500Y391500D01*
X224500Y388000D02*X234000D01*
X224500Y395500D02*X229000D01*
X231000Y397500D01*
X233000D01*
X235000Y395500D01*
X238500D01*
X224500Y393500D02*X231500D01*
X232000Y394000D01*
X239000Y404500D02*X242000Y401500D01*
Y397500D01*
X245500Y394000D01*
X270000D02*X245500D01*
X271000Y391500D02*X242500D01*
X253063Y333000D02*Y365937D01*
X245000Y374000D01*
X233500D01*
X268000Y376000D02*X250500D01*
X234000Y388000D02*X263500Y358500D01*
X245500Y365000D02*X249500D01*
X242500Y370000D02*X244500D01*
X263500Y358500D02*X268500D01*
X232500Y352000D02*X245500Y365000D01*
X223500Y351000D02*X242500Y370000D01*
X211000Y386000D02*X213000Y384000D01*
X218000D01*
X192000Y380000D02*X193000Y379000D01*
X191000Y363000D02*X193000Y365000D01*
X191500Y374000D02*X193000Y372500D01*
X216000Y379000D02*X193000D01*
X222500Y374000D02*X199500D01*
X197000Y376500D01*
X188500D01*
X192000Y368500D02*X215500D01*
X218000Y384000D02*X226000Y376000D01*
X215421Y389579D02*X228000Y377000D01*
X221000Y387000D02*X230000Y378000D01*
X226000Y376000D02*Y371000D01*
X219000Y364000D02*X226000Y371000D01*
X228000Y377000D02*Y367500D01*
X220500Y360000D02*X228000Y367500D01*
X230000Y378000D02*Y362000D01*
X224000Y356000D02*X230000Y362000D01*
X220500Y360000D02*Y356500D01*
X218000Y354000D01*
X205500D01*
X219000Y364000D02*X204500D01*
X215500Y368500D02*X216000Y369000D01*
G54D12*X365970Y355500D02*X365480Y355990D01*
Y357460D02*Y355990D01*
Y357460D02*X365970Y357950D01*
X366950D01*
X369400Y355500D02*X366950Y357950D01*
X369400D02*Y355500D01*
X368910Y359126D02*X369400Y359616D01*
X365970Y359126D02*X368910D01*
X365970D02*X365480Y359616D01*
Y360596D02*Y359616D01*
Y360596D02*X365970Y361086D01*
X368910D01*
X369400Y360596D02*X368910Y361086D01*
X369400Y360596D02*Y359616D01*
X368420Y359126D02*X366460Y361086D01*
X366264Y362262D02*X365480Y363046D01*
X369400D01*
Y363732D02*Y362262D01*
X368910Y364908D02*X369400Y365398D01*
X368126Y364908D02*X368910D01*
X368126D02*X367440Y365594D01*
Y366182D02*Y365594D01*
Y366182D02*X368126Y366868D01*
X368910D01*
X369400Y366378D02*X368910Y366868D01*
X369400Y366378D02*Y365398D01*
X366754Y364908D02*X367440Y365594D01*
X365970Y364908D02*X366754D01*
X365970D02*X365480Y365398D01*
Y366378D02*Y365398D01*
Y366378D02*X365970Y366868D01*
X366754D01*
X367440Y366182D02*X366754Y366868D01*
X368910Y368044D02*X369400Y368534D01*
X365970Y368044D02*X368910D01*
X365970D02*X365480Y368534D01*
Y369514D02*Y368534D01*
Y369514D02*X365970Y370004D01*
X368910D01*
X369400Y369514D02*X368910Y370004D01*
X369400Y369514D02*Y368534D01*
X368420Y368044D02*X366460Y370004D01*
X365970Y371180D02*X365480Y371670D01*
Y373140D02*Y371670D01*
Y373140D02*X365970Y373630D01*
X366950D01*
X369400Y371180D02*X366950Y373630D01*
X369400D02*Y371180D01*
X365970Y374806D02*X365480Y375296D01*
Y376766D02*Y375296D01*
Y376766D02*X365970Y377256D01*
X366950D01*
X369400Y374806D02*X366950Y377256D01*
X369400D02*Y374806D01*
X366264Y378432D02*X365480Y379216D01*
X369400D01*
Y379902D02*Y378432D01*
G54D13*X268000Y349000D03*
X278000D03*
X288000D03*
X298000D03*
X308000D03*
X318000D03*
X328000D03*
X338000D03*
X348000D03*
X358000D03*
X368000D03*
Y409000D03*
X358000D03*
G54D14*X362500Y390000D03*
G54D13*X348000Y409000D03*
X347500Y395000D03*
X337500D03*
X327500D03*
X317500D03*
X338000Y409000D03*
X328000D03*
X318000D03*
G54D15*G36*
X343900Y338600D02*Y331400D01*
X351100D01*
Y338600D01*
X343900D01*
G37*
G54D13*X347500Y325000D03*
G54D14*X362500Y330000D03*
G54D16*X337500Y335000D03*
G54D13*Y325000D03*
G54D16*X327500Y335000D03*
G54D13*Y325000D03*
X317500D03*
G54D14*X302500Y330000D03*
G54D13*X308000Y409000D03*
X298000D03*
X288000D03*
X278000D03*
X268000D03*
X267000Y400000D03*
X277000D03*
X287000D03*
G54D14*X302500Y390000D03*
G54D13*X218000Y349000D03*
G54D17*X217024Y341000D03*
G54D13*X228000Y349000D03*
G54D14*X232000Y330000D03*
G54D13*X238000Y349000D03*
X248000D03*
X258000D03*
G54D18*X253063Y333000D03*
X260937D03*
G54D19*X266843Y339693D03*
G54D14*X282000Y330000D03*
G54D13*X208000Y349000D03*
X216000Y359000D03*
G54D15*G36*
X183000Y362000D02*Y356000D01*
X189000D01*
Y362000D01*
X183000D01*
G37*
G54D13*X186000Y369000D03*
X216000D03*
X186000Y379000D03*
Y389000D03*
X216000D03*
Y379000D03*
G54D17*X173000Y375524D03*
G54D15*G36*
X135000Y352000D02*Y346000D01*
X141000D01*
Y352000D01*
X135000D01*
G37*
G54D13*X148000Y349000D03*
X158000D03*
G54D15*G36*
X139500Y327500D02*Y321500D01*
X145500D01*
Y327500D01*
X139500D01*
G37*
G54D13*X152500Y324500D03*
G54D18*X145000Y362689D03*
Y370563D03*
Y378437D03*
Y386311D03*
G54D19*X151693Y392217D03*
G54D18*X165000Y395437D03*
Y387563D03*
G54D19*X158307Y381657D03*
G54D20*X162000Y361079D03*
Y370921D03*
G54D13*X258000Y409000D03*
X248000D03*
X238000D03*
X218000D03*
X208000D03*
X198000D03*
X188000D03*
G54D20*X185079Y400000D03*
X194921D03*
G54D13*X178000Y409000D03*
X168000D03*
X158000D03*
X148000D03*
X138000D03*
X228000D03*
X227000Y400000D03*
X237000D03*
X247000D03*
G54D20*X215421D03*
X205579D03*
G54D13*X257000D03*
X168000Y349000D03*
X178000D03*
G54D17*X173000Y353476D03*
X166976Y341000D03*
G54D13*X162500Y324500D03*
X172500D03*
X182500D03*
X192500D03*
X202500D03*
X212500D03*
X188000Y349000D03*
X198000D03*
G54D17*X194976Y341000D03*
X189024D03*
G54D21*X288000Y390000D03*
X300500Y378000D03*
X312500Y377500D03*
X311500Y354500D03*
X304500D03*
X224000Y356000D03*
X224500Y388000D03*
X222500Y374000D03*
X179000Y395500D03*
X141000D03*
X170000Y396000D03*
X144000Y403500D03*
X154500Y404500D03*
X138500Y399500D03*
X220000Y394000D03*
X232000D03*
X233500Y374000D03*
X244500Y370000D03*
X249500Y365000D03*
X255500Y371000D03*
X250500Y376000D03*
X192000Y380000D03*
X177500Y385000D03*
X178500Y376000D03*
X193000Y365000D03*
Y372500D03*
G54D22*G54D23*G54D24*G54D23*G54D25*G54D23*G54D24*G54D25*G54D23*G54D25*G54D23*G54D24*G54D23*G54D24*G54D23*G54D26*G54D23*G54D24*G54D23*G54D27*G54D28*G54D24*G54D23*G54D29*G54D26*G54D23*G54D27*G54D28*G54D27*G54D28*G54D30*G54D23*G54D30*G54D23*G54D30*G54D23*G54D26*G54D23*G54D26*M02*
