G04 start of page 14 for group -3984 idx -3984 *
G04 Title: RspPiPS, fab *
G04 Creator: pcb 4.0.2 *
G04 CreationDate: Thu Dec 16 04:25:21 2021 UTC *
G04 For: austin *
G04 Format: Gerber/RS-274X *
G04 PCB-Dimensions (mil): 10000.00 10000.00 *
G04 PCB-Coordinate-Origin: lower left *
%MOIN*%
%FSLAX25Y25*%
%LNFAB*%
%ADD118C,0.0100*%
%ADD117C,0.0075*%
%ADD116C,0.0060*%
%ADD115R,0.0080X0.0080*%
G54D115*X457669Y741720D02*G75*G03X459269Y741720I800J0D01*G01*
G75*G03X457669Y741720I-800J0D01*G01*
X456069D02*G75*G03X460869Y741720I2400J0D01*G01*
G75*G03X456069Y741720I-2400J0D01*G01*
X457669Y687783D02*G75*G03X459269Y687783I800J0D01*G01*
G75*G03X457669Y687783I-800J0D01*G01*
X456069D02*G75*G03X460869Y687783I2400J0D01*G01*
G75*G03X456069Y687783I-2400J0D01*G01*
X14200Y1011250D02*G75*G03X15800Y1011250I800J0D01*G01*
G75*G03X14200Y1011250I-800J0D01*G01*
X12600D02*G75*G03X17400Y1011250I2400J0D01*G01*
G75*G03X12600Y1011250I-2400J0D01*G01*
G54D116*X140000Y1013500D02*Y1007500D01*
Y1013500D02*X143750Y1007500D01*
Y1013500D02*Y1007500D01*
X145550Y1012750D02*Y1008250D01*
Y1012750D02*X146300Y1013500D01*
X147800D01*
X148550Y1012750D01*
Y1008250D01*
X147800Y1007500D02*X148550Y1008250D01*
X146300Y1007500D02*X147800D01*
X145550Y1008250D02*X146300Y1007500D01*
X98000Y1012750D02*X98750Y1013500D01*
X101000D01*
X101750Y1012750D01*
Y1011250D01*
X98000Y1007500D02*X101750Y1011250D01*
X98000Y1007500D02*X101750D01*
X45000Y1008250D02*X45750Y1007500D01*
X45000Y1012750D02*Y1008250D01*
Y1012750D02*X45750Y1013500D01*
X47250D01*
X48000Y1012750D01*
Y1008250D01*
X47250Y1007500D02*X48000Y1008250D01*
X45750Y1007500D02*X47250D01*
X45000Y1009000D02*X48000Y1012000D01*
X49800Y1007500D02*X50550D01*
X52350Y1012300D02*X53550Y1013500D01*
Y1007500D01*
X52350D02*X54600D01*
X56400Y1012300D02*X57600Y1013500D01*
Y1007500D01*
X56400D02*X58650D01*
X60450Y1008250D02*X61200Y1007500D01*
X60450Y1009450D02*Y1008250D01*
Y1009450D02*X61500Y1010500D01*
X62400D01*
X63450Y1009450D01*
Y1008250D01*
X62700Y1007500D02*X63450Y1008250D01*
X61200Y1007500D02*X62700D01*
X60450Y1011550D02*X61500Y1010500D01*
X60450Y1012750D02*Y1011550D01*
Y1012750D02*X61200Y1013500D01*
X62700D01*
X63450Y1012750D01*
Y1011550D01*
X62400Y1010500D02*X63450Y1011550D01*
X381458Y764211D02*X386258Y759411D01*
X381458D02*X386258Y764211D01*
X382258Y763411D02*X385458D01*
X382258D02*Y760211D01*
X385458D01*
Y763411D02*Y760211D01*
X381458Y571298D02*X386258Y566498D01*
X381458D02*X386258Y571298D01*
X382258Y570498D02*X385458D01*
X382258D02*Y567298D01*
X385458D01*
Y570498D02*Y567298D01*
X153112Y764211D02*X157912Y759411D01*
X153112D02*X157912Y764211D01*
X153912Y763411D02*X157112D01*
X153912D02*Y760211D01*
X157112D01*
Y763411D02*Y760211D01*
X153112Y571298D02*X157912Y566498D01*
X153112D02*X157912Y571298D01*
X153912Y570498D02*X157112D01*
X153912D02*Y567298D01*
X157112D01*
Y570498D02*Y567298D01*
X12600Y1028650D02*X17400Y1023850D01*
X12600D02*X17400Y1028650D01*
X13400Y1027850D02*X16600D01*
X13400D02*Y1024650D01*
X16600D01*
Y1027850D02*Y1024650D01*
X135000Y1028500D02*X136500Y1025500D01*
X138000Y1028500D01*
X136500Y1025500D02*Y1022500D01*
X139800Y1025800D02*X142050D01*
X139800Y1022500D02*X142800D01*
X139800Y1028500D02*Y1022500D01*
Y1028500D02*X142800D01*
X147600D02*X148350Y1027750D01*
X145350Y1028500D02*X147600D01*
X144600Y1027750D02*X145350Y1028500D01*
X144600Y1027750D02*Y1026250D01*
X145350Y1025500D01*
X147600D01*
X148350Y1024750D01*
Y1023250D01*
X147600Y1022500D02*X148350Y1023250D01*
X145350Y1022500D02*X147600D01*
X144600Y1023250D02*X145350Y1022500D01*
X98000Y1024750D02*X101000Y1028500D01*
X98000Y1024750D02*X101750D01*
X101000Y1028500D02*Y1022500D01*
X45000Y1023250D02*X45750Y1022500D01*
X45000Y1027750D02*Y1023250D01*
Y1027750D02*X45750Y1028500D01*
X47250D01*
X48000Y1027750D01*
Y1023250D01*
X47250Y1022500D02*X48000Y1023250D01*
X45750Y1022500D02*X47250D01*
X45000Y1024000D02*X48000Y1027000D01*
X49800Y1022500D02*X50550D01*
X52350Y1027300D02*X53550Y1028500D01*
Y1022500D01*
X52350D02*X54600D01*
X56400Y1023250D02*X57150Y1022500D01*
X56400Y1027750D02*Y1023250D01*
Y1027750D02*X57150Y1028500D01*
X58650D01*
X59400Y1027750D01*
Y1023250D01*
X58650Y1022500D02*X59400Y1023250D01*
X57150Y1022500D02*X58650D01*
X56400Y1024000D02*X59400Y1027000D01*
X63450Y1028500D02*X64200Y1027750D01*
X61950Y1028500D02*X63450D01*
X61200Y1027750D02*X61950Y1028500D01*
X61200Y1027750D02*Y1023250D01*
X61950Y1022500D01*
X63450Y1025800D02*X64200Y1025050D01*
X61200Y1025800D02*X63450D01*
X61950Y1022500D02*X63450D01*
X64200Y1023250D01*
Y1025050D02*Y1023250D01*
X436736Y624389D02*Y617989D01*
X433536Y621189D02*X439936D01*
X435136Y622789D02*X438336D01*
X435136D02*Y619589D01*
X438336D01*
Y622789D02*Y619589D01*
X464295Y624389D02*Y617989D01*
X461095Y621189D02*X467495D01*
X462695Y622789D02*X465895D01*
X462695D02*Y619589D01*
X465895D01*
Y622789D02*Y619589D01*
X436736Y638169D02*Y631769D01*
X433536Y634969D02*X439936D01*
X435136Y636569D02*X438336D01*
X435136D02*Y633369D01*
X438336D01*
Y636569D02*Y633369D01*
X464295Y638169D02*Y631769D01*
X461095Y634969D02*X467495D01*
X462695Y636569D02*X465895D01*
X462695D02*Y633369D01*
X465895D01*
Y636569D02*Y633369D01*
X15000Y1044450D02*Y1038050D01*
X11800Y1041250D02*X18200D01*
X13400Y1042850D02*X16600D01*
X13400D02*Y1039650D01*
X16600D01*
Y1042850D02*Y1039650D01*
X135000Y1043500D02*X136500Y1040500D01*
X138000Y1043500D01*
X136500Y1040500D02*Y1037500D01*
X139800Y1040800D02*X142050D01*
X139800Y1037500D02*X142800D01*
X139800Y1043500D02*Y1037500D01*
Y1043500D02*X142800D01*
X147600D02*X148350Y1042750D01*
X145350Y1043500D02*X147600D01*
X144600Y1042750D02*X145350Y1043500D01*
X144600Y1042750D02*Y1041250D01*
X145350Y1040500D01*
X147600D01*
X148350Y1039750D01*
Y1038250D01*
X147600Y1037500D02*X148350Y1038250D01*
X145350Y1037500D02*X147600D01*
X144600Y1038250D02*X145350Y1037500D01*
X98000Y1039750D02*X101000Y1043500D01*
X98000Y1039750D02*X101750D01*
X101000Y1043500D02*Y1037500D01*
X45000Y1038250D02*X45750Y1037500D01*
X45000Y1042750D02*Y1038250D01*
Y1042750D02*X45750Y1043500D01*
X47250D01*
X48000Y1042750D01*
Y1038250D01*
X47250Y1037500D02*X48000Y1038250D01*
X45750Y1037500D02*X47250D01*
X45000Y1039000D02*X48000Y1042000D01*
X49800Y1037500D02*X50550D01*
X52350Y1038250D02*X53100Y1037500D01*
X52350Y1042750D02*Y1038250D01*
Y1042750D02*X53100Y1043500D01*
X54600D01*
X55350Y1042750D01*
Y1038250D01*
X54600Y1037500D02*X55350Y1038250D01*
X53100Y1037500D02*X54600D01*
X52350Y1039000D02*X55350Y1042000D01*
X57150Y1039750D02*X60150Y1043500D01*
X57150Y1039750D02*X60900D01*
X60150Y1043500D02*Y1037500D01*
X62700Y1043500D02*X65700D01*
X62700D02*Y1040500D01*
X63450Y1041250D01*
X64950D01*
X65700Y1040500D01*
Y1038250D01*
X64950Y1037500D02*X65700Y1038250D01*
X63450Y1037500D02*X64950D01*
X62700Y1038250D02*X63450Y1037500D01*
X441461Y750146D02*Y746946D01*
Y750146D02*X444234Y751746D01*
X441461Y750146D02*X438687Y751746D01*
X439861Y750146D02*G75*G03X443061Y750146I1600J0D01*G01*
G75*G03X439861Y750146I-1600J0D01*G01*
X441461Y738335D02*Y735135D01*
Y738335D02*X444234Y739935D01*
X441461Y738335D02*X438687Y739935D01*
X439861Y738335D02*G75*G03X443061Y738335I1600J0D01*G01*
G75*G03X439861Y738335I-1600J0D01*G01*
X441461Y726524D02*Y723324D01*
Y726524D02*X444234Y728124D01*
X441461Y726524D02*X438687Y728124D01*
X439861Y726524D02*G75*G03X443061Y726524I1600J0D01*G01*
G75*G03X439861Y726524I-1600J0D01*G01*
X441461Y714713D02*Y711513D01*
Y714713D02*X444234Y716313D01*
X441461Y714713D02*X438687Y716313D01*
X439861Y714713D02*G75*G03X443061Y714713I1600J0D01*G01*
G75*G03X439861Y714713I-1600J0D01*G01*
X441461Y702902D02*Y699702D01*
Y702902D02*X444234Y704502D01*
X441461Y702902D02*X438687Y704502D01*
X439861Y702902D02*G75*G03X443061Y702902I1600J0D01*G01*
G75*G03X439861Y702902I-1600J0D01*G01*
X441461Y691091D02*Y687891D01*
Y691091D02*X444234Y692691D01*
X441461Y691091D02*X438687Y692691D01*
X439861Y691091D02*G75*G03X443061Y691091I1600J0D01*G01*
G75*G03X439861Y691091I-1600J0D01*G01*
X441461Y679280D02*Y676080D01*
Y679280D02*X444234Y680880D01*
X441461Y679280D02*X438687Y680880D01*
X439861Y679280D02*G75*G03X443061Y679280I1600J0D01*G01*
G75*G03X439861Y679280I-1600J0D01*G01*
X429650Y750146D02*Y746946D01*
Y750146D02*X432423Y751746D01*
X429650Y750146D02*X426876Y751746D01*
X428050Y750146D02*G75*G03X431250Y750146I1600J0D01*G01*
G75*G03X428050Y750146I-1600J0D01*G01*
X429650Y738335D02*Y735135D01*
Y738335D02*X432423Y739935D01*
X429650Y738335D02*X426876Y739935D01*
X428050Y738335D02*G75*G03X431250Y738335I1600J0D01*G01*
G75*G03X428050Y738335I-1600J0D01*G01*
X429650Y726524D02*Y723324D01*
Y726524D02*X432423Y728124D01*
X429650Y726524D02*X426876Y728124D01*
X428050Y726524D02*G75*G03X431250Y726524I1600J0D01*G01*
G75*G03X428050Y726524I-1600J0D01*G01*
X429650Y714713D02*Y711513D01*
Y714713D02*X432423Y716313D01*
X429650Y714713D02*X426876Y716313D01*
X428050Y714713D02*G75*G03X431250Y714713I1600J0D01*G01*
G75*G03X428050Y714713I-1600J0D01*G01*
X429650Y702902D02*Y699702D01*
Y702902D02*X432423Y704502D01*
X429650Y702902D02*X426876Y704502D01*
X428050Y702902D02*G75*G03X431250Y702902I1600J0D01*G01*
G75*G03X428050Y702902I-1600J0D01*G01*
X429650Y691091D02*Y687891D01*
Y691091D02*X432423Y692691D01*
X429650Y691091D02*X426876Y692691D01*
X428050Y691091D02*G75*G03X431250Y691091I1600J0D01*G01*
G75*G03X428050Y691091I-1600J0D01*G01*
X429650Y679280D02*Y676080D01*
Y679280D02*X432423Y680880D01*
X429650Y679280D02*X426876Y680880D01*
X428050Y679280D02*G75*G03X431250Y679280I1600J0D01*G01*
G75*G03X428050Y679280I-1600J0D01*G01*
X15000Y1056250D02*Y1053050D01*
Y1056250D02*X17773Y1057850D01*
X15000Y1056250D02*X12227Y1057850D01*
X13400Y1056250D02*G75*G03X16600Y1056250I1600J0D01*G01*
G75*G03X13400Y1056250I-1600J0D01*G01*
X135000Y1058500D02*X136500Y1055500D01*
X138000Y1058500D01*
X136500Y1055500D02*Y1052500D01*
X139800Y1055800D02*X142050D01*
X139800Y1052500D02*X142800D01*
X139800Y1058500D02*Y1052500D01*
Y1058500D02*X142800D01*
X147600D02*X148350Y1057750D01*
X145350Y1058500D02*X147600D01*
X144600Y1057750D02*X145350Y1058500D01*
X144600Y1057750D02*Y1056250D01*
X145350Y1055500D01*
X147600D01*
X148350Y1054750D01*
Y1053250D01*
X147600Y1052500D02*X148350Y1053250D01*
X145350Y1052500D02*X147600D01*
X144600Y1053250D02*X145350Y1052500D01*
X98000Y1057300D02*X99200Y1058500D01*
Y1052500D01*
X98000D02*X100250D01*
X102050Y1054750D02*X105050Y1058500D01*
X102050Y1054750D02*X105800D01*
X105050Y1058500D02*Y1052500D01*
X45000Y1053250D02*X45750Y1052500D01*
X45000Y1057750D02*Y1053250D01*
Y1057750D02*X45750Y1058500D01*
X47250D01*
X48000Y1057750D01*
Y1053250D01*
X47250Y1052500D02*X48000Y1053250D01*
X45750Y1052500D02*X47250D01*
X45000Y1054000D02*X48000Y1057000D01*
X49800Y1052500D02*X50550D01*
X52350Y1053250D02*X53100Y1052500D01*
X52350Y1057750D02*Y1053250D01*
Y1057750D02*X53100Y1058500D01*
X54600D01*
X55350Y1057750D01*
Y1053250D01*
X54600Y1052500D02*X55350Y1053250D01*
X53100Y1052500D02*X54600D01*
X52350Y1054000D02*X55350Y1057000D01*
X57150Y1054750D02*X60150Y1058500D01*
X57150Y1054750D02*X60900D01*
X60150Y1058500D02*Y1052500D01*
X62700Y1053250D02*X63450Y1052500D01*
X62700Y1057750D02*Y1053250D01*
Y1057750D02*X63450Y1058500D01*
X64950D01*
X65700Y1057750D01*
Y1053250D01*
X64950Y1052500D02*X65700Y1053250D01*
X63450Y1052500D02*X64950D01*
X62700Y1054000D02*X65700Y1057000D01*
X157900Y597600D02*X161100D01*
X157900D02*Y594400D01*
X161100D01*
Y597600D02*Y594400D01*
X177900Y597600D02*X181100D01*
X177900D02*Y594400D01*
X181100D01*
Y597600D02*Y594400D01*
X163361Y733883D02*X166561D01*
X163361D02*Y730683D01*
X166561D01*
Y733883D02*Y730683D01*
X186400Y733600D02*X189600D01*
X186400D02*Y730400D01*
X189600D01*
Y733600D02*Y730400D01*
X393136Y620466D02*X396336D01*
X393136D02*Y617266D01*
X396336D01*
Y620466D02*Y617266D01*
X13400Y1072850D02*X16600D01*
X13400D02*Y1069650D01*
X16600D01*
Y1072850D02*Y1069650D01*
X135000Y1073500D02*X136500Y1070500D01*
X138000Y1073500D01*
X136500Y1070500D02*Y1067500D01*
X139800Y1070800D02*X142050D01*
X139800Y1067500D02*X142800D01*
X139800Y1073500D02*Y1067500D01*
Y1073500D02*X142800D01*
X147600D02*X148350Y1072750D01*
X145350Y1073500D02*X147600D01*
X144600Y1072750D02*X145350Y1073500D01*
X144600Y1072750D02*Y1071250D01*
X145350Y1070500D01*
X147600D01*
X148350Y1069750D01*
Y1068250D01*
X147600Y1067500D02*X148350Y1068250D01*
X145350Y1067500D02*X147600D01*
X144600Y1068250D02*X145350Y1067500D01*
X98000Y1073500D02*X101000D01*
X98000D02*Y1070500D01*
X98750Y1071250D01*
X100250D01*
X101000Y1070500D01*
Y1068250D01*
X100250Y1067500D02*X101000Y1068250D01*
X98750Y1067500D02*X100250D01*
X98000Y1068250D02*X98750Y1067500D01*
X45000Y1068250D02*X45750Y1067500D01*
X45000Y1072750D02*Y1068250D01*
Y1072750D02*X45750Y1073500D01*
X47250D01*
X48000Y1072750D01*
Y1068250D01*
X47250Y1067500D02*X48000Y1068250D01*
X45750Y1067500D02*X47250D01*
X45000Y1069000D02*X48000Y1072000D01*
X49800Y1067500D02*X50550D01*
X52350Y1068250D02*X53100Y1067500D01*
X52350Y1072750D02*Y1068250D01*
Y1072750D02*X53100Y1073500D01*
X54600D01*
X55350Y1072750D01*
Y1068250D01*
X54600Y1067500D02*X55350Y1068250D01*
X53100Y1067500D02*X54600D01*
X52350Y1069000D02*X55350Y1072000D01*
X57150Y1069750D02*X60150Y1073500D01*
X57150Y1069750D02*X60900D01*
X60150Y1073500D02*Y1067500D01*
X62700Y1068250D02*X63450Y1067500D01*
X62700Y1072750D02*Y1068250D01*
Y1072750D02*X63450Y1073500D01*
X64950D01*
X65700Y1072750D01*
Y1068250D01*
X64950Y1067500D02*X65700Y1068250D01*
X63450Y1067500D02*X64950D01*
X62700Y1069000D02*X65700Y1072000D01*
X173900Y756800D02*G75*G03X175500Y756800I800J0D01*G01*
G75*G03X173900Y756800I-800J0D01*G01*
Y766800D02*G75*G03X175500Y766800I800J0D01*G01*
G75*G03X173900Y766800I-800J0D01*G01*
X183900Y756800D02*G75*G03X185500Y756800I800J0D01*G01*
G75*G03X183900Y756800I-800J0D01*G01*
Y766800D02*G75*G03X185500Y766800I800J0D01*G01*
G75*G03X183900Y766800I-800J0D01*G01*
X193900Y756800D02*G75*G03X195500Y756800I800J0D01*G01*
G75*G03X193900Y756800I-800J0D01*G01*
Y766800D02*G75*G03X195500Y766800I800J0D01*G01*
G75*G03X193900Y766800I-800J0D01*G01*
X203900Y756800D02*G75*G03X205500Y756800I800J0D01*G01*
G75*G03X203900Y756800I-800J0D01*G01*
Y766800D02*G75*G03X205500Y766800I800J0D01*G01*
G75*G03X203900Y766800I-800J0D01*G01*
X213900Y756800D02*G75*G03X215500Y756800I800J0D01*G01*
G75*G03X213900Y756800I-800J0D01*G01*
Y766800D02*G75*G03X215500Y766800I800J0D01*G01*
G75*G03X213900Y766800I-800J0D01*G01*
X223900Y756800D02*G75*G03X225500Y756800I800J0D01*G01*
G75*G03X223900Y756800I-800J0D01*G01*
Y766800D02*G75*G03X225500Y766800I800J0D01*G01*
G75*G03X223900Y766800I-800J0D01*G01*
X233900Y756800D02*G75*G03X235500Y756800I800J0D01*G01*
G75*G03X233900Y756800I-800J0D01*G01*
Y766800D02*G75*G03X235500Y766800I800J0D01*G01*
G75*G03X233900Y766800I-800J0D01*G01*
X243900Y756800D02*G75*G03X245500Y756800I800J0D01*G01*
G75*G03X243900Y756800I-800J0D01*G01*
Y766800D02*G75*G03X245500Y766800I800J0D01*G01*
G75*G03X243900Y766800I-800J0D01*G01*
X253900Y756800D02*G75*G03X255500Y756800I800J0D01*G01*
G75*G03X253900Y756800I-800J0D01*G01*
Y766800D02*G75*G03X255500Y766800I800J0D01*G01*
G75*G03X253900Y766800I-800J0D01*G01*
X263900Y756800D02*G75*G03X265500Y756800I800J0D01*G01*
G75*G03X263900Y756800I-800J0D01*G01*
Y766800D02*G75*G03X265500Y766800I800J0D01*G01*
G75*G03X263900Y766800I-800J0D01*G01*
X273900Y756800D02*G75*G03X275500Y756800I800J0D01*G01*
G75*G03X273900Y756800I-800J0D01*G01*
Y766800D02*G75*G03X275500Y766800I800J0D01*G01*
G75*G03X273900Y766800I-800J0D01*G01*
X283900Y756800D02*G75*G03X285500Y756800I800J0D01*G01*
G75*G03X283900Y756800I-800J0D01*G01*
Y766800D02*G75*G03X285500Y766800I800J0D01*G01*
G75*G03X283900Y766800I-800J0D01*G01*
X293900Y756800D02*G75*G03X295500Y756800I800J0D01*G01*
G75*G03X293900Y756800I-800J0D01*G01*
Y766800D02*G75*G03X295500Y766800I800J0D01*G01*
G75*G03X293900Y766800I-800J0D01*G01*
X303900Y756800D02*G75*G03X305500Y756800I800J0D01*G01*
G75*G03X303900Y756800I-800J0D01*G01*
Y766800D02*G75*G03X305500Y766800I800J0D01*G01*
G75*G03X303900Y766800I-800J0D01*G01*
X313900Y756800D02*G75*G03X315500Y756800I800J0D01*G01*
G75*G03X313900Y756800I-800J0D01*G01*
Y766800D02*G75*G03X315500Y766800I800J0D01*G01*
G75*G03X313900Y766800I-800J0D01*G01*
X323900Y756800D02*G75*G03X325500Y756800I800J0D01*G01*
G75*G03X323900Y756800I-800J0D01*G01*
Y766800D02*G75*G03X325500Y766800I800J0D01*G01*
G75*G03X323900Y766800I-800J0D01*G01*
X333900Y756800D02*G75*G03X335500Y756800I800J0D01*G01*
G75*G03X333900Y756800I-800J0D01*G01*
Y766800D02*G75*G03X335500Y766800I800J0D01*G01*
G75*G03X333900Y766800I-800J0D01*G01*
X343900Y756800D02*G75*G03X345500Y756800I800J0D01*G01*
G75*G03X343900Y756800I-800J0D01*G01*
Y766800D02*G75*G03X345500Y766800I800J0D01*G01*
G75*G03X343900Y766800I-800J0D01*G01*
X353900Y756800D02*G75*G03X355500Y756800I800J0D01*G01*
G75*G03X353900Y756800I-800J0D01*G01*
Y766800D02*G75*G03X355500Y766800I800J0D01*G01*
G75*G03X353900Y766800I-800J0D01*G01*
X363900Y756800D02*G75*G03X365500Y756800I800J0D01*G01*
G75*G03X363900Y756800I-800J0D01*G01*
Y766800D02*G75*G03X365500Y766800I800J0D01*G01*
G75*G03X363900Y766800I-800J0D01*G01*
X14200Y1086250D02*G75*G03X15800Y1086250I800J0D01*G01*
G75*G03X14200Y1086250I-800J0D01*G01*
X135000Y1088500D02*X136500Y1085500D01*
X138000Y1088500D01*
X136500Y1085500D02*Y1082500D01*
X139800Y1085800D02*X142050D01*
X139800Y1082500D02*X142800D01*
X139800Y1088500D02*Y1082500D01*
Y1088500D02*X142800D01*
X147600D02*X148350Y1087750D01*
X145350Y1088500D02*X147600D01*
X144600Y1087750D02*X145350Y1088500D01*
X144600Y1087750D02*Y1086250D01*
X145350Y1085500D01*
X147600D01*
X148350Y1084750D01*
Y1083250D01*
X147600Y1082500D02*X148350Y1083250D01*
X145350Y1082500D02*X147600D01*
X144600Y1083250D02*X145350Y1082500D01*
X98000Y1084750D02*X101000Y1088500D01*
X98000Y1084750D02*X101750D01*
X101000Y1088500D02*Y1082500D01*
X103550Y1083250D02*X104300Y1082500D01*
X103550Y1087750D02*Y1083250D01*
Y1087750D02*X104300Y1088500D01*
X105800D01*
X106550Y1087750D01*
Y1083250D01*
X105800Y1082500D02*X106550Y1083250D01*
X104300Y1082500D02*X105800D01*
X103550Y1084000D02*X106550Y1087000D01*
X45000Y1083250D02*X45750Y1082500D01*
X45000Y1087750D02*Y1083250D01*
Y1087750D02*X45750Y1088500D01*
X47250D01*
X48000Y1087750D01*
Y1083250D01*
X47250Y1082500D02*X48000Y1083250D01*
X45750Y1082500D02*X47250D01*
X45000Y1084000D02*X48000Y1087000D01*
X49800Y1082500D02*X50550D01*
X52350Y1083250D02*X53100Y1082500D01*
X52350Y1087750D02*Y1083250D01*
Y1087750D02*X53100Y1088500D01*
X54600D01*
X55350Y1087750D01*
Y1083250D01*
X54600Y1082500D02*X55350Y1083250D01*
X53100Y1082500D02*X54600D01*
X52350Y1084000D02*X55350Y1087000D01*
X57150Y1087750D02*X57900Y1088500D01*
X59400D01*
X60150Y1087750D01*
X59400Y1082500D02*X60150Y1083250D01*
X57900Y1082500D02*X59400D01*
X57150Y1083250D02*X57900Y1082500D01*
Y1085800D02*X59400D01*
X60150Y1087750D02*Y1086550D01*
Y1085050D02*Y1083250D01*
Y1085050D02*X59400Y1085800D01*
X60150Y1086550D02*X59400Y1085800D01*
X61950Y1083250D02*X62700Y1082500D01*
X61950Y1084450D02*Y1083250D01*
Y1084450D02*X63000Y1085500D01*
X63900D01*
X64950Y1084450D01*
Y1083250D01*
X64200Y1082500D02*X64950Y1083250D01*
X62700Y1082500D02*X64200D01*
X61950Y1086550D02*X63000Y1085500D01*
X61950Y1087750D02*Y1086550D01*
Y1087750D02*X62700Y1088500D01*
X64200D01*
X64950Y1087750D01*
Y1086550D01*
X63900Y1085500D02*X64950Y1086550D01*
X218225Y606999D02*X220625Y604599D01*
X218225D02*X220625Y606999D01*
X204446D02*X206846Y604599D01*
X204446D02*X206846Y606999D01*
X265800Y606590D02*X268200Y604190D01*
X265800D02*X268200Y606590D01*
X265800Y592810D02*X268200Y590410D01*
X265800D02*X268200Y592810D01*
X179335Y710476D02*X181735Y708076D01*
X179335D02*X181735Y710476D01*
X165556D02*X167956Y708076D01*
X165556D02*X167956Y710476D01*
X294749Y584968D02*X297149Y582568D01*
X294749D02*X297149Y584968D01*
X294749Y571188D02*X297149Y568788D01*
X294749D02*X297149Y571188D01*
X406036Y649956D02*X408436Y647556D01*
X406036D02*X408436Y649956D01*
X406036Y636176D02*X408436Y633776D01*
X406036D02*X408436Y636176D01*
X13800Y1102450D02*X16200Y1100050D01*
X13800D02*X16200Y1102450D01*
X135000Y1103500D02*X136500Y1100500D01*
X138000Y1103500D01*
X136500Y1100500D02*Y1097500D01*
X139800Y1100800D02*X142050D01*
X139800Y1097500D02*X142800D01*
X139800Y1103500D02*Y1097500D01*
Y1103500D02*X142800D01*
X147600D02*X148350Y1102750D01*
X145350Y1103500D02*X147600D01*
X144600Y1102750D02*X145350Y1103500D01*
X144600Y1102750D02*Y1101250D01*
X145350Y1100500D01*
X147600D01*
X148350Y1099750D01*
Y1098250D01*
X147600Y1097500D02*X148350Y1098250D01*
X145350Y1097500D02*X147600D01*
X144600Y1098250D02*X145350Y1097500D01*
X98000Y1102300D02*X99200Y1103500D01*
Y1097500D01*
X98000D02*X100250D01*
X102050Y1098250D02*X102800Y1097500D01*
X102050Y1102750D02*Y1098250D01*
Y1102750D02*X102800Y1103500D01*
X104300D01*
X105050Y1102750D01*
Y1098250D01*
X104300Y1097500D02*X105050Y1098250D01*
X102800Y1097500D02*X104300D01*
X102050Y1099000D02*X105050Y1102000D01*
X45000Y1098250D02*X45750Y1097500D01*
X45000Y1102750D02*Y1098250D01*
Y1102750D02*X45750Y1103500D01*
X47250D01*
X48000Y1102750D01*
Y1098250D01*
X47250Y1097500D02*X48000Y1098250D01*
X45750Y1097500D02*X47250D01*
X45000Y1099000D02*X48000Y1102000D01*
X49800Y1097500D02*X50550D01*
X52350Y1098250D02*X53100Y1097500D01*
X52350Y1102750D02*Y1098250D01*
Y1102750D02*X53100Y1103500D01*
X54600D01*
X55350Y1102750D01*
Y1098250D01*
X54600Y1097500D02*X55350Y1098250D01*
X53100Y1097500D02*X54600D01*
X52350Y1099000D02*X55350Y1102000D01*
X57150Y1102750D02*X57900Y1103500D01*
X59400D01*
X60150Y1102750D01*
X59400Y1097500D02*X60150Y1098250D01*
X57900Y1097500D02*X59400D01*
X57150Y1098250D02*X57900Y1097500D01*
Y1100800D02*X59400D01*
X60150Y1102750D02*Y1101550D01*
Y1100050D02*Y1098250D01*
Y1100050D02*X59400Y1100800D01*
X60150Y1101550D02*X59400Y1100800D01*
X61950Y1103500D02*X64950D01*
X61950D02*Y1100500D01*
X62700Y1101250D01*
X64200D01*
X64950Y1100500D01*
Y1098250D01*
X64200Y1097500D02*X64950Y1098250D01*
X62700Y1097500D02*X64200D01*
X61950Y1098250D02*X62700Y1097500D01*
X305500Y669600D02*Y666400D01*
X303900Y668000D02*X307100D01*
X292500Y669600D02*Y666400D01*
X290900Y668000D02*X294100D01*
X299000Y669600D02*Y666400D01*
X297400Y668000D02*X300600D01*
X285500Y669600D02*Y666400D01*
X283900Y668000D02*X287100D01*
X295500Y600100D02*Y596900D01*
X293900Y598500D02*X297100D01*
X302000Y600100D02*Y596900D01*
X300400Y598500D02*X303600D01*
X289000Y600100D02*Y596900D01*
X287400Y598500D02*X290600D01*
X219500Y624600D02*Y621400D01*
X217900Y623000D02*X221100D01*
X225072Y616028D02*Y612828D01*
X223472Y614428D02*X226672D01*
X208000Y695100D02*Y691900D01*
X206400Y693500D02*X209600D01*
X232500Y624100D02*Y620900D01*
X230900Y622500D02*X234100D01*
X240000Y624600D02*Y621400D01*
X238400Y623000D02*X241600D01*
X209000Y659600D02*Y656400D01*
X207400Y658000D02*X210600D01*
X209000Y649100D02*Y645900D01*
X207400Y647500D02*X210600D01*
X209000Y643100D02*Y639900D01*
X207400Y641500D02*X210600D01*
X192000Y749100D02*Y745900D01*
X190400Y747500D02*X193600D01*
X186000Y745100D02*Y741900D01*
X184400Y743500D02*X187600D01*
X180000Y749100D02*Y745900D01*
X178400Y747500D02*X181600D01*
X174500Y745100D02*Y741900D01*
X172900Y743500D02*X176100D01*
X169000Y749100D02*Y745900D01*
X167400Y747500D02*X170600D01*
X209000Y665600D02*Y662400D01*
X207400Y664000D02*X210600D01*
X209000Y671600D02*Y668400D01*
X207400Y670000D02*X210600D01*
X209000Y677600D02*Y674400D01*
X207400Y676000D02*X210600D01*
X262500Y677600D02*Y674400D01*
X260900Y676000D02*X264100D01*
X209000Y683600D02*Y680400D01*
X207400Y682000D02*X210600D01*
X262500Y683600D02*Y680400D01*
X260900Y682000D02*X264100D01*
X262500Y671600D02*Y668400D01*
X260900Y670000D02*X264100D01*
X262500Y665600D02*Y662400D01*
X260900Y664000D02*X264100D01*
X262500Y659600D02*Y656400D01*
X260900Y658000D02*X264100D01*
X273500Y620600D02*Y617400D01*
X271900Y619000D02*X275100D01*
X273500Y614600D02*Y611400D01*
X271900Y613000D02*X275100D01*
X225984Y692151D02*Y688951D01*
X224384Y690551D02*X227584D01*
X244488Y692151D02*Y688951D01*
X242888Y690551D02*X246088D01*
X244874Y726340D02*Y723140D01*
X243274Y724740D02*X246474D01*
X297602Y730809D02*Y727609D01*
X296002Y729209D02*X299202D01*
X309600Y736000D02*Y732800D01*
X308000Y734400D02*X311200D01*
X305000Y730000D02*Y726800D01*
X303400Y728400D02*X306600D01*
X270098Y699872D02*Y696672D01*
X268498Y698272D02*X271698D01*
X15000Y1117850D02*Y1114650D01*
X13400Y1116250D02*X16600D01*
X135000Y1118500D02*X136500Y1115500D01*
X138000Y1118500D01*
X136500Y1115500D02*Y1112500D01*
X139800Y1115800D02*X142050D01*
X139800Y1112500D02*X142800D01*
X139800Y1118500D02*Y1112500D01*
Y1118500D02*X142800D01*
X147600D02*X148350Y1117750D01*
X145350Y1118500D02*X147600D01*
X144600Y1117750D02*X145350Y1118500D01*
X144600Y1117750D02*Y1116250D01*
X145350Y1115500D01*
X147600D01*
X148350Y1114750D01*
Y1113250D01*
X147600Y1112500D02*X148350Y1113250D01*
X145350Y1112500D02*X147600D01*
X144600Y1113250D02*X145350Y1112500D01*
X98000Y1117750D02*X98750Y1118500D01*
X100250D01*
X101000Y1117750D01*
X100250Y1112500D02*X101000Y1113250D01*
X98750Y1112500D02*X100250D01*
X98000Y1113250D02*X98750Y1112500D01*
Y1115800D02*X100250D01*
X101000Y1117750D02*Y1116550D01*
Y1115050D02*Y1113250D01*
Y1115050D02*X100250Y1115800D01*
X101000Y1116550D02*X100250Y1115800D01*
X102800Y1113250D02*X103550Y1112500D01*
X102800Y1114450D02*Y1113250D01*
Y1114450D02*X103850Y1115500D01*
X104750D01*
X105800Y1114450D01*
Y1113250D01*
X105050Y1112500D02*X105800Y1113250D01*
X103550Y1112500D02*X105050D01*
X102800Y1116550D02*X103850Y1115500D01*
X102800Y1117750D02*Y1116550D01*
Y1117750D02*X103550Y1118500D01*
X105050D01*
X105800Y1117750D01*
Y1116550D01*
X104750Y1115500D02*X105800Y1116550D01*
X45000Y1113250D02*X45750Y1112500D01*
X45000Y1117750D02*Y1113250D01*
Y1117750D02*X45750Y1118500D01*
X47250D01*
X48000Y1117750D01*
Y1113250D01*
X47250Y1112500D02*X48000Y1113250D01*
X45750Y1112500D02*X47250D01*
X45000Y1114000D02*X48000Y1117000D01*
X49800Y1112500D02*X50550D01*
X52350Y1113250D02*X53100Y1112500D01*
X52350Y1117750D02*Y1113250D01*
Y1117750D02*X53100Y1118500D01*
X54600D01*
X55350Y1117750D01*
Y1113250D01*
X54600Y1112500D02*X55350Y1113250D01*
X53100Y1112500D02*X54600D01*
X52350Y1114000D02*X55350Y1117000D01*
X57150Y1117750D02*X57900Y1118500D01*
X59400D01*
X60150Y1117750D01*
X59400Y1112500D02*X60150Y1113250D01*
X57900Y1112500D02*X59400D01*
X57150Y1113250D02*X57900Y1112500D01*
Y1115800D02*X59400D01*
X60150Y1117750D02*Y1116550D01*
Y1115050D02*Y1113250D01*
Y1115050D02*X59400Y1115800D01*
X60150Y1116550D02*X59400Y1115800D01*
X61950Y1118500D02*X64950D01*
X61950D02*Y1115500D01*
X62700Y1116250D01*
X64200D01*
X64950Y1115500D01*
Y1113250D01*
X64200Y1112500D02*X64950Y1113250D01*
X62700Y1112500D02*X64200D01*
X61950Y1113250D02*X62700Y1112500D01*
X322500Y619500D02*Y617900D01*
Y619500D02*X323887Y620300D01*
X322500Y619500D02*X321113Y620300D01*
X304500Y604000D02*Y602400D01*
Y604000D02*X305887Y604800D01*
X304500Y604000D02*X303113Y604800D01*
X365000Y610000D02*Y608400D01*
Y610000D02*X366387Y610800D01*
X365000Y610000D02*X363613Y610800D01*
X246000Y624500D02*Y622900D01*
Y624500D02*X247387Y625300D01*
X246000Y624500D02*X244613Y625300D01*
X256000Y624500D02*Y622900D01*
Y624500D02*X257387Y625300D01*
X256000Y624500D02*X254613Y625300D01*
X343000Y604000D02*Y602400D01*
Y604000D02*X344387Y604800D01*
X343000Y604000D02*X341613Y604800D01*
X346000Y638500D02*Y636900D01*
Y638500D02*X347387Y639300D01*
X346000Y638500D02*X344613Y639300D01*
X373000Y640000D02*Y638400D01*
Y640000D02*X374387Y640800D01*
X373000Y640000D02*X371613Y640800D01*
X329500Y598000D02*Y596400D01*
Y598000D02*X330887Y598800D01*
X329500Y598000D02*X328113Y598800D01*
X322500Y599000D02*Y597400D01*
Y599000D02*X323887Y599800D01*
X322500Y599000D02*X321113Y599800D01*
X274000Y643000D02*Y641400D01*
Y643000D02*X275387Y643800D01*
X274000Y643000D02*X272613Y643800D01*
X412598Y738976D02*Y737376D01*
Y738976D02*X413985Y739776D01*
X412598Y738976D02*X411212Y739776D01*
X412598Y744094D02*Y742494D01*
Y744094D02*X413985Y744894D01*
X412598Y744094D02*X411212Y744894D01*
X414961Y718110D02*Y716510D01*
Y718110D02*X416347Y718910D01*
X414961Y718110D02*X413574Y718910D01*
X416654Y723110D02*Y721510D01*
Y723110D02*X418040Y723910D01*
X416654Y723110D02*X415267Y723910D01*
X396236Y606366D02*Y604766D01*
Y606366D02*X397623Y607166D01*
X396236Y606366D02*X394850Y607166D01*
X391800Y743700D02*Y742100D01*
Y743700D02*X393187Y744500D01*
X391800Y743700D02*X390413Y744500D01*
X391800Y723300D02*Y721700D01*
Y723300D02*X393187Y724100D01*
X391800Y723300D02*X390413Y724100D01*
X391800Y702300D02*Y700700D01*
Y702300D02*X393187Y703100D01*
X391800Y702300D02*X390413Y703100D01*
X392000Y729000D02*Y727400D01*
Y729000D02*X393387Y729800D01*
X392000Y729000D02*X390613Y729800D01*
X392000Y708200D02*Y706600D01*
Y708200D02*X393387Y709000D01*
X392000Y708200D02*X390613Y709000D01*
X391900Y687200D02*Y685600D01*
Y687200D02*X393287Y688000D01*
X391900Y687200D02*X390513Y688000D01*
X396700Y704600D02*Y703000D01*
Y704600D02*X398087Y705400D01*
X396700Y704600D02*X395313Y705400D01*
X309800Y748600D02*Y747000D01*
Y748600D02*X311187Y749400D01*
X309800Y748600D02*X308413Y749400D01*
X15000Y1131250D02*Y1129650D01*
Y1131250D02*X16387Y1132050D01*
X15000Y1131250D02*X13613Y1132050D01*
X135000Y1133500D02*X136500Y1130500D01*
X138000Y1133500D01*
X136500Y1130500D02*Y1127500D01*
X139800Y1130800D02*X142050D01*
X139800Y1127500D02*X142800D01*
X139800Y1133500D02*Y1127500D01*
Y1133500D02*X142800D01*
X147600D02*X148350Y1132750D01*
X145350Y1133500D02*X147600D01*
X144600Y1132750D02*X145350Y1133500D01*
X144600Y1132750D02*Y1131250D01*
X145350Y1130500D01*
X147600D01*
X148350Y1129750D01*
Y1128250D01*
X147600Y1127500D02*X148350Y1128250D01*
X145350Y1127500D02*X147600D01*
X144600Y1128250D02*X145350Y1127500D01*
X98000Y1132750D02*X98750Y1133500D01*
X101000D01*
X101750Y1132750D01*
Y1131250D01*
X98000Y1127500D02*X101750Y1131250D01*
X98000Y1127500D02*X101750D01*
X103550Y1129750D02*X106550Y1133500D01*
X103550Y1129750D02*X107300D01*
X106550Y1133500D02*Y1127500D01*
X45000Y1128250D02*X45750Y1127500D01*
X45000Y1132750D02*Y1128250D01*
Y1132750D02*X45750Y1133500D01*
X47250D01*
X48000Y1132750D01*
Y1128250D01*
X47250Y1127500D02*X48000Y1128250D01*
X45750Y1127500D02*X47250D01*
X45000Y1129000D02*X48000Y1132000D01*
X49800Y1127500D02*X50550D01*
X52350Y1128250D02*X53100Y1127500D01*
X52350Y1132750D02*Y1128250D01*
Y1132750D02*X53100Y1133500D01*
X54600D01*
X55350Y1132750D01*
Y1128250D01*
X54600Y1127500D02*X55350Y1128250D01*
X53100Y1127500D02*X54600D01*
X52350Y1129000D02*X55350Y1132000D01*
X57150Y1132750D02*X57900Y1133500D01*
X60150D01*
X60900Y1132750D01*
Y1131250D01*
X57150Y1127500D02*X60900Y1131250D01*
X57150Y1127500D02*X60900D01*
X62700Y1128250D02*X63450Y1127500D01*
X62700Y1132750D02*Y1128250D01*
Y1132750D02*X63450Y1133500D01*
X64950D01*
X65700Y1132750D01*
Y1128250D01*
X64950Y1127500D02*X65700Y1128250D01*
X63450Y1127500D02*X64950D01*
X62700Y1129000D02*X65700Y1132000D01*
X3000Y1148500D02*X3750Y1147750D01*
X750Y1148500D02*X3000D01*
X0Y1147750D02*X750Y1148500D01*
X0Y1147750D02*Y1146250D01*
X750Y1145500D01*
X3000D01*
X3750Y1144750D01*
Y1143250D01*
X3000Y1142500D02*X3750Y1143250D01*
X750Y1142500D02*X3000D01*
X0Y1143250D02*X750Y1142500D01*
X5550Y1145500D02*Y1143250D01*
X6300Y1142500D01*
X8550Y1145500D02*Y1141000D01*
X7800Y1140250D02*X8550Y1141000D01*
X6300Y1140250D02*X7800D01*
X5550Y1141000D02*X6300Y1140250D01*
Y1142500D02*X7800D01*
X8550Y1143250D01*
X11100Y1144750D02*Y1142500D01*
Y1144750D02*X11850Y1145500D01*
X12600D01*
X13350Y1144750D01*
Y1142500D01*
Y1144750D02*X14100Y1145500D01*
X14850D01*
X15600Y1144750D01*
Y1142500D01*
X10350Y1145500D02*X11100Y1144750D01*
X17400Y1148500D02*Y1142500D01*
Y1143250D02*X18150Y1142500D01*
X19650D01*
X20400Y1143250D01*
Y1144750D02*Y1143250D01*
X19650Y1145500D02*X20400Y1144750D01*
X18150Y1145500D02*X19650D01*
X17400Y1144750D02*X18150Y1145500D01*
X22200Y1144750D02*Y1143250D01*
Y1144750D02*X22950Y1145500D01*
X24450D01*
X25200Y1144750D01*
Y1143250D01*
X24450Y1142500D02*X25200Y1143250D01*
X22950Y1142500D02*X24450D01*
X22200Y1143250D02*X22950Y1142500D01*
X27000Y1148500D02*Y1143250D01*
X27750Y1142500D01*
X0Y1139250D02*X29250D01*
X41750Y1148500D02*Y1142500D01*
X43700Y1148500D02*X44750Y1147450D01*
Y1143550D01*
X43700Y1142500D02*X44750Y1143550D01*
X41000Y1142500D02*X43700D01*
X41000Y1148500D02*X43700D01*
G54D117*X46550Y1147000D02*Y1146850D01*
G54D116*Y1144750D02*Y1142500D01*
X50300Y1145500D02*X51050Y1144750D01*
X48800Y1145500D02*X50300D01*
X48050Y1144750D02*X48800Y1145500D01*
X48050Y1144750D02*Y1143250D01*
X48800Y1142500D01*
X51050Y1145500D02*Y1143250D01*
X51800Y1142500D01*
X48800D02*X50300D01*
X51050Y1143250D01*
X54350Y1144750D02*Y1142500D01*
Y1144750D02*X55100Y1145500D01*
X55850D01*
X56600Y1144750D01*
Y1142500D01*
Y1144750D02*X57350Y1145500D01*
X58100D01*
X58850Y1144750D01*
Y1142500D01*
X53600Y1145500D02*X54350Y1144750D01*
X60650Y1142500D02*X61400D01*
X65900Y1143250D02*X66650Y1142500D01*
X65900Y1147750D02*X66650Y1148500D01*
X65900Y1147750D02*Y1143250D01*
X68450Y1148500D02*X69950D01*
X69200D02*Y1142500D01*
X68450D02*X69950D01*
X72500Y1144750D02*Y1142500D01*
Y1144750D02*X73250Y1145500D01*
X74000D01*
X74750Y1144750D01*
Y1142500D01*
X71750Y1145500D02*X72500Y1144750D01*
X77300Y1145500D02*X79550D01*
X76550Y1144750D02*X77300Y1145500D01*
X76550Y1144750D02*Y1143250D01*
X77300Y1142500D01*
X79550D01*
X81350Y1148500D02*Y1142500D01*
Y1144750D02*X82100Y1145500D01*
X83600D01*
X84350Y1144750D01*
Y1142500D01*
X86150Y1148500D02*X86900Y1147750D01*
Y1143250D01*
X86150Y1142500D02*X86900Y1143250D01*
X41000Y1139250D02*X88700D01*
X96050Y1142500D02*X98000D01*
X95000Y1143550D02*X96050Y1142500D01*
X95000Y1147450D02*Y1143550D01*
Y1147450D02*X96050Y1148500D01*
X98000D01*
X99800Y1144750D02*Y1143250D01*
Y1144750D02*X100550Y1145500D01*
X102050D01*
X102800Y1144750D01*
Y1143250D01*
X102050Y1142500D02*X102800Y1143250D01*
X100550Y1142500D02*X102050D01*
X99800Y1143250D02*X100550Y1142500D01*
X104600Y1145500D02*Y1143250D01*
X105350Y1142500D01*
X106850D01*
X107600Y1143250D01*
Y1145500D02*Y1143250D01*
X110150Y1144750D02*Y1142500D01*
Y1144750D02*X110900Y1145500D01*
X111650D01*
X112400Y1144750D01*
Y1142500D01*
X109400Y1145500D02*X110150Y1144750D01*
X114950Y1148500D02*Y1143250D01*
X115700Y1142500D01*
X114200Y1146250D02*X115700D01*
X95000Y1139250D02*X117200D01*
X130750Y1148500D02*Y1142500D01*
X130000Y1148500D02*X133000D01*
X133750Y1147750D01*
Y1146250D01*
X133000Y1145500D02*X133750Y1146250D01*
X130750Y1145500D02*X133000D01*
X135550Y1148500D02*Y1143250D01*
X136300Y1142500D01*
X140050Y1145500D02*X140800Y1144750D01*
X138550Y1145500D02*X140050D01*
X137800Y1144750D02*X138550Y1145500D01*
X137800Y1144750D02*Y1143250D01*
X138550Y1142500D01*
X140800Y1145500D02*Y1143250D01*
X141550Y1142500D01*
X138550D02*X140050D01*
X140800Y1143250D01*
X144100Y1148500D02*Y1143250D01*
X144850Y1142500D01*
X143350Y1146250D02*X144850D01*
X147100Y1142500D02*X149350D01*
X146350Y1143250D02*X147100Y1142500D01*
X146350Y1144750D02*Y1143250D01*
Y1144750D02*X147100Y1145500D01*
X148600D01*
X149350Y1144750D01*
X146350Y1144000D02*X149350D01*
Y1144750D02*Y1144000D01*
X154150Y1148500D02*Y1142500D01*
X153400D02*X154150Y1143250D01*
X151900Y1142500D02*X153400D01*
X151150Y1143250D02*X151900Y1142500D01*
X151150Y1144750D02*Y1143250D01*
Y1144750D02*X151900Y1145500D01*
X153400D01*
X154150Y1144750D01*
X157450Y1145500D02*Y1144750D01*
Y1143250D02*Y1142500D01*
X155950Y1147750D02*Y1147000D01*
Y1147750D02*X156700Y1148500D01*
X158200D01*
X158950Y1147750D01*
Y1147000D01*
X157450Y1145500D02*X158950Y1147000D01*
X130000Y1139250D02*X160750D01*
X0Y1163500D02*X3000D01*
X1500D02*Y1157500D01*
X4800Y1163500D02*Y1157500D01*
Y1159750D02*X5550Y1160500D01*
X7050D01*
X7800Y1159750D01*
Y1157500D01*
X10350D02*X12600D01*
X9600Y1158250D02*X10350Y1157500D01*
X9600Y1159750D02*Y1158250D01*
Y1159750D02*X10350Y1160500D01*
X11850D01*
X12600Y1159750D01*
X9600Y1159000D02*X12600D01*
Y1159750D02*Y1159000D01*
X15150Y1159750D02*Y1157500D01*
Y1159750D02*X15900Y1160500D01*
X17400D01*
X14400D02*X15150Y1159750D01*
X19950Y1157500D02*X22200D01*
X19200Y1158250D02*X19950Y1157500D01*
X19200Y1159750D02*Y1158250D01*
Y1159750D02*X19950Y1160500D01*
X21450D01*
X22200Y1159750D01*
X19200Y1159000D02*X22200D01*
Y1159750D02*Y1159000D01*
X28950Y1160500D02*X29700Y1159750D01*
X27450Y1160500D02*X28950D01*
X26700Y1159750D02*X27450Y1160500D01*
X26700Y1159750D02*Y1158250D01*
X27450Y1157500D01*
X29700Y1160500D02*Y1158250D01*
X30450Y1157500D01*
X27450D02*X28950D01*
X29700Y1158250D01*
X33000Y1159750D02*Y1157500D01*
Y1159750D02*X33750Y1160500D01*
X35250D01*
X32250D02*X33000Y1159750D01*
X37800Y1157500D02*X40050D01*
X37050Y1158250D02*X37800Y1157500D01*
X37050Y1159750D02*Y1158250D01*
Y1159750D02*X37800Y1160500D01*
X39300D01*
X40050Y1159750D01*
X37050Y1159000D02*X40050D01*
Y1159750D02*Y1159000D01*
X45300Y1157500D02*X47550Y1160500D01*
Y1162750D02*Y1160500D01*
X46800Y1163500D02*X47550Y1162750D01*
X45300Y1163500D02*X46800D01*
X44550Y1162750D02*X45300Y1163500D01*
X44550Y1162750D02*Y1161250D01*
X45300Y1160500D01*
X47550D01*
X55050Y1163500D02*Y1157500D01*
X54300D02*X55050Y1158250D01*
X52800Y1157500D02*X54300D01*
X52050Y1158250D02*X52800Y1157500D01*
X52050Y1159750D02*Y1158250D01*
Y1159750D02*X52800Y1160500D01*
X54300D01*
X55050Y1159750D01*
G54D117*X56850Y1162000D02*Y1161850D01*
G54D116*Y1159750D02*Y1157500D01*
X59100Y1162750D02*Y1157500D01*
Y1162750D02*X59850Y1163500D01*
X60600D01*
X58350Y1160500D02*X59850D01*
X62850Y1162750D02*Y1157500D01*
Y1162750D02*X63600Y1163500D01*
X64350D01*
X62100Y1160500D02*X63600D01*
X66600Y1157500D02*X68850D01*
X65850Y1158250D02*X66600Y1157500D01*
X65850Y1159750D02*Y1158250D01*
Y1159750D02*X66600Y1160500D01*
X68100D01*
X68850Y1159750D01*
X65850Y1159000D02*X68850D01*
Y1159750D02*Y1159000D01*
X71400Y1159750D02*Y1157500D01*
Y1159750D02*X72150Y1160500D01*
X73650D01*
X70650D02*X71400Y1159750D01*
X76200Y1157500D02*X78450D01*
X75450Y1158250D02*X76200Y1157500D01*
X75450Y1159750D02*Y1158250D01*
Y1159750D02*X76200Y1160500D01*
X77700D01*
X78450Y1159750D01*
X75450Y1159000D02*X78450D01*
Y1159750D02*Y1159000D01*
X81000Y1159750D02*Y1157500D01*
Y1159750D02*X81750Y1160500D01*
X82500D01*
X83250Y1159750D01*
Y1157500D01*
X80250Y1160500D02*X81000Y1159750D01*
X85800Y1163500D02*Y1158250D01*
X86550Y1157500D01*
X85050Y1161250D02*X86550D01*
X93750Y1163500D02*Y1157500D01*
X93000D02*X93750Y1158250D01*
X91500Y1157500D02*X93000D01*
X90750Y1158250D02*X91500Y1157500D01*
X90750Y1159750D02*Y1158250D01*
Y1159750D02*X91500Y1160500D01*
X93000D01*
X93750Y1159750D01*
X96300D02*Y1157500D01*
Y1159750D02*X97050Y1160500D01*
X98550D01*
X95550D02*X96300Y1159750D01*
G54D117*X100350Y1162000D02*Y1161850D01*
G54D116*Y1159750D02*Y1157500D01*
X101850Y1163500D02*Y1158250D01*
X102600Y1157500D01*
X104100Y1163500D02*Y1158250D01*
X104850Y1157500D01*
X109800D02*X112050D01*
X112800Y1158250D01*
X112050Y1159000D02*X112800Y1158250D01*
X109800Y1159000D02*X112050D01*
X109050Y1159750D02*X109800Y1159000D01*
X109050Y1159750D02*X109800Y1160500D01*
X112050D01*
X112800Y1159750D01*
X109050Y1158250D02*X109800Y1157500D01*
G54D117*X114600Y1162000D02*Y1161850D01*
G54D116*Y1159750D02*Y1157500D01*
X116100Y1160500D02*X119100D01*
X116100Y1157500D02*X119100Y1160500D01*
X116100Y1157500D02*X119100D01*
X121650D02*X123900D01*
X120900Y1158250D02*X121650Y1157500D01*
X120900Y1159750D02*Y1158250D01*
Y1159750D02*X121650Y1160500D01*
X123150D01*
X123900Y1159750D01*
X120900Y1159000D02*X123900D01*
Y1159750D02*Y1159000D01*
X126450Y1157500D02*X128700D01*
X129450Y1158250D01*
X128700Y1159000D02*X129450Y1158250D01*
X126450Y1159000D02*X128700D01*
X125700Y1159750D02*X126450Y1159000D01*
X125700Y1159750D02*X126450Y1160500D01*
X128700D01*
X129450Y1159750D01*
X125700Y1158250D02*X126450Y1157500D01*
X133950Y1160500D02*Y1158250D01*
X134700Y1157500D01*
X136200D01*
X136950Y1158250D01*
Y1160500D02*Y1158250D01*
X139500Y1157500D02*X141750D01*
X142500Y1158250D01*
X141750Y1159000D02*X142500Y1158250D01*
X139500Y1159000D02*X141750D01*
X138750Y1159750D02*X139500Y1159000D01*
X138750Y1159750D02*X139500Y1160500D01*
X141750D01*
X142500Y1159750D01*
X138750Y1158250D02*X139500Y1157500D01*
X145050D02*X147300D01*
X144300Y1158250D02*X145050Y1157500D01*
X144300Y1159750D02*Y1158250D01*
Y1159750D02*X145050Y1160500D01*
X146550D01*
X147300Y1159750D01*
X144300Y1159000D02*X147300D01*
Y1159750D02*Y1159000D01*
X152100Y1163500D02*Y1157500D01*
X151350D02*X152100Y1158250D01*
X149850Y1157500D02*X151350D01*
X149100Y1158250D02*X149850Y1157500D01*
X149100Y1159750D02*Y1158250D01*
Y1159750D02*X149850Y1160500D01*
X151350D01*
X152100Y1159750D01*
G54D117*X156600Y1162000D02*Y1161850D01*
G54D116*Y1159750D02*Y1157500D01*
X158850Y1159750D02*Y1157500D01*
Y1159750D02*X159600Y1160500D01*
X160350D01*
X161100Y1159750D01*
Y1157500D01*
X158100Y1160500D02*X158850Y1159750D01*
X166350Y1163500D02*Y1158250D01*
X167100Y1157500D01*
X165600Y1161250D02*X167100D01*
X168600Y1163500D02*Y1157500D01*
Y1159750D02*X169350Y1160500D01*
X170850D01*
X171600Y1159750D01*
Y1157500D01*
G54D117*X173400Y1162000D02*Y1161850D01*
G54D116*Y1159750D02*Y1157500D01*
X175650D02*X177900D01*
X178650Y1158250D01*
X177900Y1159000D02*X178650Y1158250D01*
X175650Y1159000D02*X177900D01*
X174900Y1159750D02*X175650Y1159000D01*
X174900Y1159750D02*X175650Y1160500D01*
X177900D01*
X178650Y1159750D01*
X174900Y1158250D02*X175650Y1157500D01*
X183150Y1163500D02*Y1158250D01*
X183900Y1157500D01*
X187650Y1160500D02*X188400Y1159750D01*
X186150Y1160500D02*X187650D01*
X185400Y1159750D02*X186150Y1160500D01*
X185400Y1159750D02*Y1158250D01*
X186150Y1157500D01*
X188400Y1160500D02*Y1158250D01*
X189150Y1157500D01*
X186150D02*X187650D01*
X188400Y1158250D01*
X190950Y1160500D02*Y1158250D01*
X191700Y1157500D01*
X193950Y1160500D02*Y1156000D01*
X193200Y1155250D02*X193950Y1156000D01*
X191700Y1155250D02*X193200D01*
X190950Y1156000D02*X191700Y1155250D01*
Y1157500D02*X193200D01*
X193950Y1158250D01*
X195750Y1159750D02*Y1158250D01*
Y1159750D02*X196500Y1160500D01*
X198000D01*
X198750Y1159750D01*
Y1158250D01*
X198000Y1157500D02*X198750Y1158250D01*
X196500Y1157500D02*X198000D01*
X195750Y1158250D02*X196500Y1157500D01*
X200550Y1160500D02*Y1158250D01*
X201300Y1157500D01*
X202800D01*
X203550Y1158250D01*
Y1160500D02*Y1158250D01*
X206100Y1163500D02*Y1158250D01*
X206850Y1157500D01*
X205350Y1161250D02*X206850D01*
X208350Y1156000D02*X209850Y1157500D01*
X214350Y1162300D02*X215550Y1163500D01*
Y1157500D01*
X214350D02*X216600D01*
X218400Y1159750D02*X221400Y1163500D01*
X218400Y1159750D02*X222150D01*
X221400Y1163500D02*Y1157500D01*
X223950Y1162300D02*X225150Y1163500D01*
Y1157500D01*
X223950D02*X226200D01*
X230700Y1163500D02*Y1157500D01*
Y1159750D02*X231450Y1160500D01*
X232950D01*
X233700Y1159750D01*
Y1157500D01*
X235500Y1159750D02*Y1158250D01*
Y1159750D02*X236250Y1160500D01*
X237750D01*
X238500Y1159750D01*
Y1158250D01*
X237750Y1157500D02*X238500Y1158250D01*
X236250Y1157500D02*X237750D01*
X235500Y1158250D02*X236250Y1157500D01*
X240300Y1163500D02*Y1158250D01*
X241050Y1157500D01*
X243300D02*X245550D01*
X242550Y1158250D02*X243300Y1157500D01*
X242550Y1159750D02*Y1158250D01*
Y1159750D02*X243300Y1160500D01*
X244800D01*
X245550Y1159750D01*
X242550Y1159000D02*X245550D01*
Y1159750D02*Y1159000D01*
X248100Y1157500D02*X250350D01*
X251100Y1158250D01*
X250350Y1159000D02*X251100Y1158250D01*
X248100Y1159000D02*X250350D01*
X247350Y1159750D02*X248100Y1159000D01*
X247350Y1159750D02*X248100Y1160500D01*
X250350D01*
X251100Y1159750D01*
X247350Y1158250D02*X248100Y1157500D01*
X256350Y1163500D02*Y1158250D01*
X257100Y1157500D01*
X255600Y1161250D02*X257100D01*
X258600Y1159750D02*Y1158250D01*
Y1159750D02*X259350Y1160500D01*
X260850D01*
X261600Y1159750D01*
Y1158250D01*
X260850Y1157500D02*X261600Y1158250D01*
X259350Y1157500D02*X260850D01*
X258600Y1158250D02*X259350Y1157500D01*
X264150Y1163500D02*Y1158250D01*
X264900Y1157500D01*
X263400Y1161250D02*X264900D01*
X268650Y1160500D02*X269400Y1159750D01*
X267150Y1160500D02*X268650D01*
X266400Y1159750D02*X267150Y1160500D01*
X266400Y1159750D02*Y1158250D01*
X267150Y1157500D01*
X269400Y1160500D02*Y1158250D01*
X270150Y1157500D01*
X267150D02*X268650D01*
X269400Y1158250D01*
X271950Y1163500D02*Y1158250D01*
X272700Y1157500D01*
G54D118*X141732Y763780D02*Y566929D01*
X153543Y555118D02*X464567D01*
X476378Y566929D02*Y763780D01*
X464567Y775591D02*X153543D01*
X141732Y763780D02*G75*G02X153543Y775591I11811J0D01*G01*
X464567D02*G75*G02X476378Y763780I0J-11811D01*G01*
Y566929D02*G75*G02X464567Y555118I-11811J0D01*G01*
X141732Y566929D02*G75*G03X153543Y555118I11811J0D01*G01*
G54D116*X413675Y-9500D02*X416675D01*
X417425Y-8750D01*
Y-6950D02*Y-8750D01*
X416675Y-6200D02*X417425Y-6950D01*
X414425Y-6200D02*X416675D01*
X414425Y-3500D02*Y-9500D01*
X413675Y-3500D02*X416675D01*
X417425Y-4250D01*
Y-5450D01*
X416675Y-6200D02*X417425Y-5450D01*
X419225Y-7250D02*Y-8750D01*
Y-7250D02*X419975Y-6500D01*
X421475D01*
X422225Y-7250D01*
Y-8750D01*
X421475Y-9500D02*X422225Y-8750D01*
X419975Y-9500D02*X421475D01*
X419225Y-8750D02*X419975Y-9500D01*
X426275Y-6500D02*X427025Y-7250D01*
X424775Y-6500D02*X426275D01*
X424025Y-7250D02*X424775Y-6500D01*
X424025Y-7250D02*Y-8750D01*
X424775Y-9500D01*
X427025Y-6500D02*Y-8750D01*
X427775Y-9500D01*
X424775D02*X426275D01*
X427025Y-8750D01*
X430325Y-7250D02*Y-9500D01*
Y-7250D02*X431075Y-6500D01*
X432575D01*
X429575D02*X430325Y-7250D01*
X437375Y-3500D02*Y-9500D01*
X436625D02*X437375Y-8750D01*
X435125Y-9500D02*X436625D01*
X434375Y-8750D02*X435125Y-9500D01*
X434375Y-7250D02*Y-8750D01*
Y-7250D02*X435125Y-6500D01*
X436625D01*
X437375Y-7250D01*
X441875D02*Y-8750D01*
Y-7250D02*X442625Y-6500D01*
X444125D01*
X444875Y-7250D01*
Y-8750D01*
X444125Y-9500D02*X444875Y-8750D01*
X442625Y-9500D02*X444125D01*
X441875Y-8750D02*X442625Y-9500D01*
X446675Y-6500D02*Y-8750D01*
X447425Y-9500D01*
X448925D01*
X449675Y-8750D01*
Y-6500D02*Y-8750D01*
X452225Y-3500D02*Y-8750D01*
X452975Y-9500D01*
X451475Y-5750D02*X452975D01*
X454475Y-3500D02*Y-8750D01*
X455225Y-9500D01*
G54D117*X456725Y-5000D02*Y-5150D01*
G54D116*Y-7250D02*Y-9500D01*
X458975Y-7250D02*Y-9500D01*
Y-7250D02*X459725Y-6500D01*
X460475D01*
X461225Y-7250D01*
Y-9500D01*
X458225Y-6500D02*X458975Y-7250D01*
X463775Y-9500D02*X466025D01*
X463025Y-8750D02*X463775Y-9500D01*
X463025Y-7250D02*Y-8750D01*
Y-7250D02*X463775Y-6500D01*
X465275D01*
X466025Y-7250D01*
X463025Y-8000D02*X466025D01*
Y-7250D02*Y-8000D01*
G54D117*X470525Y-5000D02*Y-5150D01*
G54D116*Y-7250D02*Y-9500D01*
X472775D02*X475025D01*
X475775Y-8750D01*
X475025Y-8000D02*X475775Y-8750D01*
X472775Y-8000D02*X475025D01*
X472025Y-7250D02*X472775Y-8000D01*
X472025Y-7250D02*X472775Y-6500D01*
X475025D01*
X475775Y-7250D01*
X472025Y-8750D02*X472775Y-9500D01*
X481025Y-3500D02*Y-8750D01*
X481775Y-9500D01*
X480275Y-5750D02*X481775D01*
X483275Y-3500D02*Y-9500D01*
Y-7250D02*X484025Y-6500D01*
X485525D01*
X486275Y-7250D01*
Y-9500D01*
X488825D02*X491075D01*
X488075Y-8750D02*X488825Y-9500D01*
X488075Y-7250D02*Y-8750D01*
Y-7250D02*X488825Y-6500D01*
X490325D01*
X491075Y-7250D01*
X488075Y-8000D02*X491075D01*
Y-7250D02*Y-8000D01*
X496325Y-6500D02*X498575D01*
X495575Y-7250D02*X496325Y-6500D01*
X495575Y-7250D02*Y-8750D01*
X496325Y-9500D01*
X498575D01*
X501125D02*X503375D01*
X500375Y-8750D02*X501125Y-9500D01*
X500375Y-7250D02*Y-8750D01*
Y-7250D02*X501125Y-6500D01*
X502625D01*
X503375Y-7250D01*
X500375Y-8000D02*X503375D01*
Y-7250D02*Y-8000D01*
X505925Y-7250D02*Y-9500D01*
Y-7250D02*X506675Y-6500D01*
X507425D01*
X508175Y-7250D01*
Y-9500D01*
X505175Y-6500D02*X505925Y-7250D01*
X510725Y-3500D02*Y-8750D01*
X511475Y-9500D01*
X509975Y-5750D02*X511475D01*
X513725Y-9500D02*X515975D01*
X512975Y-8750D02*X513725Y-9500D01*
X512975Y-7250D02*Y-8750D01*
Y-7250D02*X513725Y-6500D01*
X515225D01*
X515975Y-7250D01*
X512975Y-8000D02*X515975D01*
Y-7250D02*Y-8000D01*
X518525Y-7250D02*Y-9500D01*
Y-7250D02*X519275Y-6500D01*
X520775D01*
X517775D02*X518525Y-7250D01*
X522575Y-3500D02*Y-8750D01*
X523325Y-9500D01*
G54D117*X524825Y-5000D02*Y-5150D01*
G54D116*Y-7250D02*Y-9500D01*
X527075Y-7250D02*Y-9500D01*
Y-7250D02*X527825Y-6500D01*
X528575D01*
X529325Y-7250D01*
Y-9500D01*
X526325Y-6500D02*X527075Y-7250D01*
X531875Y-9500D02*X534125D01*
X531125Y-8750D02*X531875Y-9500D01*
X531125Y-7250D02*Y-8750D01*
Y-7250D02*X531875Y-6500D01*
X533375D01*
X534125Y-7250D01*
X531125Y-8000D02*X534125D01*
Y-7250D02*Y-8000D01*
X538625Y-7250D02*Y-8750D01*
Y-7250D02*X539375Y-6500D01*
X540875D01*
X541625Y-7250D01*
Y-8750D01*
X540875Y-9500D02*X541625Y-8750D01*
X539375Y-9500D02*X540875D01*
X538625Y-8750D02*X539375Y-9500D01*
X544175Y-4250D02*Y-9500D01*
Y-4250D02*X544925Y-3500D01*
X545675D01*
X543425Y-6500D02*X544925D01*
X550625Y-3500D02*Y-8750D01*
X551375Y-9500D01*
X549875Y-5750D02*X551375D01*
X552875Y-3500D02*Y-9500D01*
Y-7250D02*X553625Y-6500D01*
X555125D01*
X555875Y-7250D01*
Y-9500D01*
G54D117*X557675Y-5000D02*Y-5150D01*
G54D116*Y-7250D02*Y-9500D01*
X559925D02*X562175D01*
X562925Y-8750D01*
X562175Y-8000D02*X562925Y-8750D01*
X559925Y-8000D02*X562175D01*
X559175Y-7250D02*X559925Y-8000D01*
X559175Y-7250D02*X559925Y-6500D01*
X562175D01*
X562925Y-7250D01*
X559175Y-8750D02*X559925Y-9500D01*
X568175Y-7250D02*Y-11750D01*
X567425Y-6500D02*X568175Y-7250D01*
X568925Y-6500D01*
X570425D01*
X571175Y-7250D01*
Y-8750D01*
X570425Y-9500D02*X571175Y-8750D01*
X568925Y-9500D02*X570425D01*
X568175Y-8750D02*X568925Y-9500D01*
X575225Y-6500D02*X575975Y-7250D01*
X573725Y-6500D02*X575225D01*
X572975Y-7250D02*X573725Y-6500D01*
X572975Y-7250D02*Y-8750D01*
X573725Y-9500D01*
X575975Y-6500D02*Y-8750D01*
X576725Y-9500D01*
X573725D02*X575225D01*
X575975Y-8750D01*
X579275Y-3500D02*Y-8750D01*
X580025Y-9500D01*
X578525Y-5750D02*X580025D01*
X581525Y-3500D02*Y-9500D01*
Y-7250D02*X582275Y-6500D01*
X583775D01*
X584525Y-7250D01*
Y-9500D01*
X200750Y1028500D02*Y1022500D01*
X202700Y1028500D02*X203750Y1027450D01*
Y1023550D01*
X202700Y1022500D02*X203750Y1023550D01*
X200000Y1022500D02*X202700D01*
X200000Y1028500D02*X202700D01*
X207800Y1025500D02*X208550Y1024750D01*
X206300Y1025500D02*X207800D01*
X205550Y1024750D02*X206300Y1025500D01*
X205550Y1024750D02*Y1023250D01*
X206300Y1022500D01*
X208550Y1025500D02*Y1023250D01*
X209300Y1022500D01*
X206300D02*X207800D01*
X208550Y1023250D01*
X211850Y1028500D02*Y1023250D01*
X212600Y1022500D01*
X211100Y1026250D02*X212600D01*
X214850Y1022500D02*X217100D01*
X214100Y1023250D02*X214850Y1022500D01*
X214100Y1024750D02*Y1023250D01*
Y1024750D02*X214850Y1025500D01*
X216350D01*
X217100Y1024750D01*
X214100Y1024000D02*X217100D01*
Y1024750D02*Y1024000D01*
X218900Y1026250D02*X219650D01*
X218900Y1024750D02*X219650D01*
X224150Y1028500D02*X227150D01*
X225650D02*Y1022500D01*
X228950Y1028500D02*Y1022500D01*
Y1024750D02*X229700Y1025500D01*
X231200D01*
X231950Y1024750D01*
Y1022500D01*
X233750Y1025500D02*Y1023250D01*
X234500Y1022500D01*
X236000D01*
X236750Y1023250D01*
Y1025500D02*Y1023250D01*
X242000Y1028500D02*Y1022500D01*
X243950Y1028500D02*X245000Y1027450D01*
Y1023550D01*
X243950Y1022500D02*X245000Y1023550D01*
X241250Y1022500D02*X243950D01*
X241250Y1028500D02*X243950D01*
X247550Y1022500D02*X249800D01*
X246800Y1023250D02*X247550Y1022500D01*
X246800Y1024750D02*Y1023250D01*
Y1024750D02*X247550Y1025500D01*
X249050D01*
X249800Y1024750D01*
X246800Y1024000D02*X249800D01*
Y1024750D02*Y1024000D01*
X252350Y1025500D02*X254600D01*
X251600Y1024750D02*X252350Y1025500D01*
X251600Y1024750D02*Y1023250D01*
X252350Y1022500D01*
X254600D01*
X259100Y1027300D02*X260300Y1028500D01*
Y1022500D01*
X259100D02*X261350D01*
X265400Y1028500D02*X266150Y1027750D01*
X263900Y1028500D02*X265400D01*
X263150Y1027750D02*X263900Y1028500D01*
X263150Y1027750D02*Y1023250D01*
X263900Y1022500D01*
X265400Y1025800D02*X266150Y1025050D01*
X263150Y1025800D02*X265400D01*
X263900Y1022500D02*X265400D01*
X266150Y1023250D01*
Y1025050D02*Y1023250D01*
X270650D02*X271400Y1022500D01*
X270650Y1027750D02*Y1023250D01*
Y1027750D02*X271400Y1028500D01*
X272900D01*
X273650Y1027750D01*
Y1023250D01*
X272900Y1022500D02*X273650Y1023250D01*
X271400Y1022500D02*X272900D01*
X270650Y1024000D02*X273650Y1027000D01*
X275450Y1024750D02*X278450Y1028500D01*
X275450Y1024750D02*X279200D01*
X278450Y1028500D02*Y1022500D01*
X281000Y1026250D02*X281750D01*
X281000Y1024750D02*X281750D01*
X283550Y1027750D02*X284300Y1028500D01*
X286550D01*
X287300Y1027750D01*
Y1026250D01*
X283550Y1022500D02*X287300Y1026250D01*
X283550Y1022500D02*X287300D01*
X289100Y1028500D02*X292100D01*
X289100D02*Y1025500D01*
X289850Y1026250D01*
X291350D01*
X292100Y1025500D01*
Y1023250D01*
X291350Y1022500D02*X292100Y1023250D01*
X289850Y1022500D02*X291350D01*
X289100Y1023250D02*X289850Y1022500D01*
X293900Y1026250D02*X294650D01*
X293900Y1024750D02*X294650D01*
X296450Y1027750D02*X297200Y1028500D01*
X299450D01*
X300200Y1027750D01*
Y1026250D01*
X296450Y1022500D02*X300200Y1026250D01*
X296450Y1022500D02*X300200D01*
X302000Y1027300D02*X303200Y1028500D01*
Y1022500D01*
X302000D02*X304250D01*
X308750Y1027750D02*X309500Y1028500D01*
X311750D01*
X312500Y1027750D01*
Y1026250D01*
X308750Y1022500D02*X312500Y1026250D01*
X308750Y1022500D02*X312500D01*
X314300Y1023250D02*X315050Y1022500D01*
X314300Y1027750D02*Y1023250D01*
Y1027750D02*X315050Y1028500D01*
X316550D01*
X317300Y1027750D01*
Y1023250D01*
X316550Y1022500D02*X317300Y1023250D01*
X315050Y1022500D02*X316550D01*
X314300Y1024000D02*X317300Y1027000D01*
X319100Y1027750D02*X319850Y1028500D01*
X322100D01*
X322850Y1027750D01*
Y1026250D01*
X319100Y1022500D02*X322850Y1026250D01*
X319100Y1022500D02*X322850D01*
X324650Y1027300D02*X325850Y1028500D01*
Y1022500D01*
X324650D02*X326900D01*
X331400Y1028500D02*Y1023250D01*
X332150Y1022500D01*
X333650D01*
X334400Y1023250D01*
Y1028500D02*Y1023250D01*
X336200Y1028500D02*X339200D01*
X337700D02*Y1022500D01*
X342050D02*X344000D01*
X341000Y1023550D02*X342050Y1022500D01*
X341000Y1027450D02*Y1023550D01*
Y1027450D02*X342050Y1028500D01*
X344000D01*
X200000Y1042000D02*Y1037500D01*
Y1042000D02*X201050Y1043500D01*
X202700D01*
X203750Y1042000D01*
Y1037500D01*
X200000Y1040500D02*X203750D01*
X205550D02*Y1038250D01*
X206300Y1037500D01*
X207800D01*
X208550Y1038250D01*
Y1040500D02*Y1038250D01*
X211100Y1043500D02*Y1038250D01*
X211850Y1037500D01*
X210350Y1041250D02*X211850D01*
X213350Y1043500D02*Y1037500D01*
Y1039750D02*X214100Y1040500D01*
X215600D01*
X216350Y1039750D01*
Y1037500D01*
X218150Y1039750D02*Y1038250D01*
Y1039750D02*X218900Y1040500D01*
X220400D01*
X221150Y1039750D01*
Y1038250D01*
X220400Y1037500D02*X221150Y1038250D01*
X218900Y1037500D02*X220400D01*
X218150Y1038250D02*X218900Y1037500D01*
X223700Y1039750D02*Y1037500D01*
Y1039750D02*X224450Y1040500D01*
X225950D01*
X222950D02*X223700Y1039750D01*
X227750Y1041250D02*X228500D01*
X227750Y1039750D02*X228500D01*
X233000Y1042000D02*Y1037500D01*
Y1042000D02*X234050Y1043500D01*
X235700D01*
X236750Y1042000D01*
Y1037500D01*
X233000Y1040500D02*X236750D01*
X238550D02*Y1038250D01*
X239300Y1037500D01*
X240800D01*
X241550Y1038250D01*
Y1040500D02*Y1038250D01*
X244100Y1037500D02*X246350D01*
X247100Y1038250D01*
X246350Y1039000D02*X247100Y1038250D01*
X244100Y1039000D02*X246350D01*
X243350Y1039750D02*X244100Y1039000D01*
X243350Y1039750D02*X244100Y1040500D01*
X246350D01*
X247100Y1039750D01*
X243350Y1038250D02*X244100Y1037500D01*
X249650Y1043500D02*Y1038250D01*
X250400Y1037500D01*
X248900Y1041250D02*X250400D01*
G54D117*X251900Y1042000D02*Y1041850D01*
G54D116*Y1039750D02*Y1037500D01*
X254150Y1039750D02*Y1037500D01*
Y1039750D02*X254900Y1040500D01*
X255650D01*
X256400Y1039750D01*
Y1037500D01*
X253400Y1040500D02*X254150Y1039750D01*
X200000Y1058500D02*X203000D01*
X201500D02*Y1052500D01*
G54D117*X204800Y1057000D02*Y1056850D01*
G54D116*Y1054750D02*Y1052500D01*
X207050Y1058500D02*Y1053250D01*
X207800Y1052500D01*
X206300Y1056250D02*X207800D01*
X209300Y1058500D02*Y1053250D01*
X210050Y1052500D01*
X212300D02*X214550D01*
X211550Y1053250D02*X212300Y1052500D01*
X211550Y1054750D02*Y1053250D01*
Y1054750D02*X212300Y1055500D01*
X213800D01*
X214550Y1054750D01*
X211550Y1054000D02*X214550D01*
Y1054750D02*Y1054000D01*
X216350Y1056250D02*X217100D01*
X216350Y1054750D02*X217100D01*
X221600Y1058500D02*X224600D01*
X225350Y1057750D01*
Y1056250D01*
X224600Y1055500D02*X225350Y1056250D01*
X222350Y1055500D02*X224600D01*
X222350Y1058500D02*Y1052500D01*
X223550Y1055500D02*X225350Y1052500D01*
X227900D02*X230150D01*
X230900Y1053250D01*
X230150Y1054000D02*X230900Y1053250D01*
X227900Y1054000D02*X230150D01*
X227150Y1054750D02*X227900Y1054000D01*
X227150Y1054750D02*X227900Y1055500D01*
X230150D01*
X230900Y1054750D01*
X227150Y1053250D02*X227900Y1052500D01*
X233450Y1054750D02*Y1050250D01*
X232700Y1055500D02*X233450Y1054750D01*
X234200Y1055500D01*
X235700D01*
X236450Y1054750D01*
Y1053250D01*
X235700Y1052500D02*X236450Y1053250D01*
X234200Y1052500D02*X235700D01*
X233450Y1053250D02*X234200Y1052500D01*
X239000Y1058500D02*Y1052500D01*
X238250Y1058500D02*X241250D01*
X242000Y1057750D01*
Y1056250D01*
X241250Y1055500D02*X242000Y1056250D01*
X239000Y1055500D02*X241250D01*
G54D117*X243800Y1057000D02*Y1056850D01*
G54D116*Y1054750D02*Y1052500D01*
X246050Y1058500D02*Y1052500D01*
X245300Y1058500D02*X248300D01*
X249050Y1057750D01*
Y1056250D01*
X248300Y1055500D02*X249050Y1056250D01*
X246050Y1055500D02*X248300D01*
X253850Y1058500D02*X254600Y1057750D01*
X251600Y1058500D02*X253850D01*
X250850Y1057750D02*X251600Y1058500D01*
X250850Y1057750D02*Y1056250D01*
X251600Y1055500D01*
X253850D01*
X254600Y1054750D01*
Y1053250D01*
X253850Y1052500D02*X254600Y1053250D01*
X251600Y1052500D02*X253850D01*
X250850Y1053250D02*X251600Y1052500D01*
X259100Y1055500D02*X262100D01*
X266600Y1058500D02*Y1052500D01*
Y1058500D02*X269600D01*
X266600Y1055800D02*X268850D01*
X273650Y1055500D02*X274400Y1054750D01*
X272150Y1055500D02*X273650D01*
X271400Y1054750D02*X272150Y1055500D01*
X271400Y1054750D02*Y1053250D01*
X272150Y1052500D01*
X274400Y1055500D02*Y1053250D01*
X275150Y1052500D01*
X272150D02*X273650D01*
X274400Y1053250D01*
X276950Y1058500D02*Y1052500D01*
Y1053250D02*X277700Y1052500D01*
X279200D01*
X279950Y1053250D01*
Y1054750D02*Y1053250D01*
X279200Y1055500D02*X279950Y1054750D01*
X277700Y1055500D02*X279200D01*
X276950Y1054750D02*X277700Y1055500D01*
X282500Y1054750D02*Y1052500D01*
Y1054750D02*X283250Y1055500D01*
X284750D01*
X281750D02*X282500Y1054750D01*
G54D117*X286550Y1057000D02*Y1056850D01*
G54D116*Y1054750D02*Y1052500D01*
X288800Y1055500D02*X291050D01*
X288050Y1054750D02*X288800Y1055500D01*
X288050Y1054750D02*Y1053250D01*
X288800Y1052500D01*
X291050D01*
X295100Y1055500D02*X295850Y1054750D01*
X293600Y1055500D02*X295100D01*
X292850Y1054750D02*X293600Y1055500D01*
X292850Y1054750D02*Y1053250D01*
X293600Y1052500D01*
X295850Y1055500D02*Y1053250D01*
X296600Y1052500D01*
X293600D02*X295100D01*
X295850Y1053250D01*
X299150Y1058500D02*Y1053250D01*
X299900Y1052500D01*
X298400Y1056250D02*X299900D01*
G54D117*X301400Y1057000D02*Y1056850D01*
G54D116*Y1054750D02*Y1052500D01*
X302900Y1054750D02*Y1053250D01*
Y1054750D02*X303650Y1055500D01*
X305150D01*
X305900Y1054750D01*
Y1053250D01*
X305150Y1052500D02*X305900Y1053250D01*
X303650Y1052500D02*X305150D01*
X302900Y1053250D02*X303650Y1052500D01*
X308450Y1054750D02*Y1052500D01*
Y1054750D02*X309200Y1055500D01*
X309950D01*
X310700Y1054750D01*
Y1052500D01*
X307700Y1055500D02*X308450Y1054750D01*
X315950Y1058500D02*Y1052500D01*
X317900Y1058500D02*X318950Y1057450D01*
Y1053550D01*
X317900Y1052500D02*X318950Y1053550D01*
X315200Y1052500D02*X317900D01*
X315200Y1058500D02*X317900D01*
X321500Y1054750D02*Y1052500D01*
Y1054750D02*X322250Y1055500D01*
X323750D01*
X320750D02*X321500Y1054750D01*
X327800Y1055500D02*X328550Y1054750D01*
X326300Y1055500D02*X327800D01*
X325550Y1054750D02*X326300Y1055500D01*
X325550Y1054750D02*Y1053250D01*
X326300Y1052500D01*
X328550Y1055500D02*Y1053250D01*
X329300Y1052500D01*
X326300D02*X327800D01*
X328550Y1053250D01*
X331100Y1055500D02*Y1053250D01*
X331850Y1052500D01*
X332600D01*
X333350Y1053250D01*
Y1055500D02*Y1053250D01*
X334100Y1052500D01*
X334850D01*
X335600Y1053250D01*
Y1055500D02*Y1053250D01*
G54D117*X337400Y1057000D02*Y1056850D01*
G54D116*Y1054750D02*Y1052500D01*
X339650Y1054750D02*Y1052500D01*
Y1054750D02*X340400Y1055500D01*
X341150D01*
X341900Y1054750D01*
Y1052500D01*
X338900Y1055500D02*X339650Y1054750D01*
X345950Y1055500D02*X346700Y1054750D01*
X344450Y1055500D02*X345950D01*
X343700Y1054750D02*X344450Y1055500D01*
X343700Y1054750D02*Y1053250D01*
X344450Y1052500D01*
X345950D01*
X346700Y1053250D01*
X343700Y1051000D02*X344450Y1050250D01*
X345950D01*
X346700Y1051000D01*
Y1055500D02*Y1051000D01*
M02*
