G04 start of page 8 for group -4079 idx -4079 *
G04 Title: joystick-board, topsilk *
G04 Creator: pcb 20140316 *
G04 CreationDate: Mon 11 Dec 2017 05:03:33 PM GMT UTC *
G04 For: brian *
G04 Format: Gerber/RS-274X *
G04 PCB-Dimensions (mil): 6000.00 5000.00 *
G04 PCB-Coordinate-Origin: lower left *
%MOIN*%
%FSLAX25Y25*%
%LNTOPSILK*%
%ADD69C,0.0200*%
%ADD68C,0.0161*%
%ADD67C,0.0189*%
%ADD66C,0.0083*%
%ADD65C,0.0152*%
%ADD64C,0.0143*%
%ADD63C,0.0180*%
%ADD62C,0.0125*%
%ADD61C,0.0100*%
%ADD60C,0.0080*%
G54D60*X324000Y358000D02*X329000D01*
X328000D02*X326000Y360000D01*
Y356000D01*
X328000Y358000D01*
G54D61*X337000Y269000D02*X339000D01*
X341000Y271000D01*
G54D60*X358000Y358000D02*X363000D01*
X362000D02*X360000Y360000D01*
Y356000D01*
X362000Y358000D01*
X315000Y329000D02*X321000D01*
X317000D02*X319000Y327000D01*
Y331000D02*Y327000D01*
Y331000D02*X317000Y329000D01*
X392000Y358000D02*X397000D01*
X396000D02*X394000Y360000D01*
Y356000D01*
X396000Y358000D01*
X398000Y331000D02*Y325000D01*
Y327000D02*X400000Y329000D01*
X396000D02*X400000D01*
X396000D02*X398000Y327000D01*
X411000Y307000D02*Y301000D01*
Y303000D02*X413000Y305000D01*
X409000D02*X413000D01*
X409000D02*X411000Y303000D01*
X406000Y269000D02*Y264000D01*
Y265000D02*X408000Y267000D01*
X404000D02*X408000D01*
X404000D02*X406000Y265000D01*
X188000Y358000D02*X193000D01*
X192000D02*X190000Y360000D01*
Y356000D01*
X192000Y358000D01*
X222000D02*X227000D01*
X226000D02*X224000Y360000D01*
Y356000D01*
X226000Y358000D01*
X154000Y357000D02*X159000D01*
X158000D02*X156000Y359000D01*
Y355000D01*
X158000Y357000D01*
X120000Y358000D02*X125000D01*
X124000D02*X122000Y360000D01*
Y356000D01*
X124000Y358000D01*
X86000D02*X91000D01*
X90000D02*X88000Y360000D01*
Y356000D01*
X90000Y358000D01*
X256000D02*X261000D01*
X260000D02*X258000Y360000D01*
Y356000D01*
X260000Y358000D01*
X290000D02*X295000D01*
X294000D02*X292000Y360000D01*
Y356000D01*
X294000Y358000D01*
X86000Y194000D02*X91000D01*
X90000D02*X88000Y196000D01*
Y192000D01*
X90000Y194000D01*
X120000D02*X125000D01*
X124000D02*X122000Y196000D01*
Y192000D01*
X124000Y194000D01*
X154000D02*X159000D01*
X158000D02*X156000Y196000D01*
Y192000D01*
X158000Y194000D01*
X188000D02*X193000D01*
X192000D02*X190000Y196000D01*
Y192000D01*
X192000Y194000D01*
X222000D02*X227000D01*
X256000D02*X261000D01*
X260000D02*X258000Y196000D01*
Y192000D01*
X260000Y194000D01*
X226000D02*X224000Y196000D01*
Y192000D01*
X226000Y194000D01*
X290000Y192000D02*X295000D01*
X294000D02*X292000Y194000D01*
Y190000D01*
X294000Y192000D01*
X324000Y194000D02*X329000D01*
X328000D02*X326000Y196000D01*
Y192000D01*
X328000Y194000D01*
X324000Y239000D02*X330000D01*
X324000Y246000D02*X330000D01*
X326000D02*X328000Y244000D01*
Y248000D02*Y244000D01*
Y248000D02*X326000Y246000D01*
Y239000D02*X328000Y237000D01*
Y241000D02*Y237000D01*
Y241000D02*X326000Y239000D01*
X358000Y194000D02*X363000D01*
X362000D02*X360000Y196000D01*
Y192000D01*
X362000Y194000D01*
X392000D02*X397000D01*
X396000D02*X394000Y196000D01*
Y192000D01*
X396000Y194000D01*
X407000Y243000D02*Y237000D01*
Y239000D02*X409000Y241000D01*
X405000D02*X409000D01*
X405000D02*X407000Y239000D01*
X68840Y235580D02*X69550Y234870D01*
X66710Y235580D02*X68840D01*
X66000Y234870D02*X66710Y235580D01*
X66000Y234870D02*Y233450D01*
X66710Y232740D01*
X68840D01*
X69550Y232030D01*
Y230610D01*
X68840Y229900D02*X69550Y230610D01*
X66710Y229900D02*X68840D01*
X66000Y230610D02*X66710Y229900D01*
X71964Y232030D02*Y227770D01*
X71254Y232740D02*X71964Y232030D01*
X72674Y232740D01*
X74094D01*
X74804Y232030D01*
Y230610D01*
X74094Y229900D02*X74804Y230610D01*
X72674Y229900D02*X74094D01*
X71964Y230610D02*X72674Y229900D01*
X78638Y232740D02*X79348Y232030D01*
X77218Y232740D02*X78638D01*
X76508Y232030D02*X77218Y232740D01*
X76508Y232030D02*Y230610D01*
X77218Y229900D01*
X79348Y232740D02*Y230610D01*
X80058Y229900D01*
X77218D02*X78638D01*
X79348Y230610D01*
X82472Y232030D02*Y229900D01*
Y232030D02*X83182Y232740D01*
X84602D01*
X81762D02*X82472Y232030D01*
X87016Y235580D02*Y230610D01*
X87726Y229900D01*
X86306Y233450D02*X87726D01*
X91276Y232740D02*X91986Y232030D01*
X89856Y232740D02*X91276D01*
X89146Y232030D02*X89856Y232740D01*
X89146Y232030D02*Y230610D01*
X89856Y229900D01*
X91986Y232740D02*Y230610D01*
X92696Y229900D01*
X89856D02*X91276D01*
X91986Y230610D01*
X95110Y232030D02*Y229900D01*
Y232030D02*X95820Y232740D01*
X96530D01*
X97240Y232030D01*
Y229900D01*
X94400Y232740D02*X95110Y232030D01*
X102494Y235580D02*X103630D01*
Y230610D01*
X102920Y229900D02*X103630Y230610D01*
X102210Y229900D02*X102920D01*
X101500Y230610D02*X102210Y229900D01*
X101500Y231320D02*Y230610D01*
X105334Y232030D02*Y230610D01*
Y232030D02*X106044Y232740D01*
X107464D01*
X108174Y232030D01*
Y230610D01*
X107464Y229900D02*X108174Y230610D01*
X106044Y229900D02*X107464D01*
X105334Y230610D02*X106044Y229900D01*
X109878Y232740D02*Y230610D01*
X110588Y229900D01*
X112718Y232740D02*Y228480D01*
X112008Y227770D02*X112718Y228480D01*
X110588Y227770D02*X112008D01*
X109878Y228480D02*X110588Y227770D01*
Y229900D02*X112008D01*
X112718Y230610D01*
X115132Y229900D02*X117262D01*
X117972Y230610D01*
X117262Y231320D02*X117972Y230610D01*
X115132Y231320D02*X117262D01*
X114422Y232030D02*X115132Y231320D01*
X114422Y232030D02*X115132Y232740D01*
X117262D01*
X117972Y232030D01*
X114422Y230610D02*X115132Y229900D01*
X120386Y235580D02*Y230610D01*
X121096Y229900D01*
X119676Y233450D02*X121096D01*
X122516Y234160D02*Y234018D01*
Y232030D02*Y229900D01*
X124646Y232740D02*X126776D01*
X123936Y232030D02*X124646Y232740D01*
X123936Y232030D02*Y230610D01*
X124646Y229900D01*
X126776D01*
X128480Y235580D02*Y229900D01*
Y232030D02*X130610Y229900D01*
X128480Y232030D02*X129900Y233450D01*
X134870Y229900D02*X137710D01*
X138420Y230610D01*
Y232314D02*Y230610D01*
X137710Y233024D02*X138420Y232314D01*
X135580Y233024D02*X137710D01*
X135580Y235580D02*Y229900D01*
X134870Y235580D02*X137710D01*
X138420Y234870D01*
Y233734D01*
X137710Y233024D02*X138420Y233734D01*
X140124Y232030D02*Y230610D01*
Y232030D02*X140834Y232740D01*
X142254D01*
X142964Y232030D01*
Y230610D01*
X142254Y229900D02*X142964Y230610D01*
X140834Y229900D02*X142254D01*
X140124Y230610D02*X140834Y229900D01*
X146798Y232740D02*X147508Y232030D01*
X145378Y232740D02*X146798D01*
X144668Y232030D02*X145378Y232740D01*
X144668Y232030D02*Y230610D01*
X145378Y229900D01*
X147508Y232740D02*Y230610D01*
X148218Y229900D01*
X145378D02*X146798D01*
X147508Y230610D01*
X150632Y232030D02*Y229900D01*
Y232030D02*X151342Y232740D01*
X152762D01*
X149922D02*X150632Y232030D01*
X157306Y235580D02*Y229900D01*
X156596D02*X157306Y230610D01*
X155176Y229900D02*X156596D01*
X154466Y230610D02*X155176Y229900D01*
X154466Y232030D02*Y230610D01*
Y232030D02*X155176Y232740D01*
X156596D01*
X157306Y232030D01*
X161566Y232740D02*X162986Y229900D01*
X164406Y232740D02*X162986Y229900D01*
X166110Y230610D02*X166820Y229900D01*
X166110Y234870D02*Y230610D01*
Y234870D02*X166820Y235580D01*
X168240D01*
X168950Y234870D01*
Y230610D01*
X168240Y229900D02*X168950Y230610D01*
X166820Y229900D02*X168240D01*
X166110Y231320D02*X168950Y234160D01*
X170654Y229900D02*X171364D01*
X173068Y234444D02*X174204Y235580D01*
Y229900D01*
X173068D02*X175198D01*
X63000Y219530D02*X63490Y220020D01*
X64960D01*
X65450Y219530D01*
Y218550D01*
X63000Y216100D02*X65450Y218550D01*
X63000Y216100D02*X65450D01*
X66626Y216590D02*X67116Y216100D01*
X66626Y219530D02*Y216590D01*
Y219530D02*X67116Y220020D01*
X68096D01*
X68586Y219530D01*
Y216590D01*
X68096Y216100D02*X68586Y216590D01*
X67116Y216100D02*X68096D01*
X66626Y217080D02*X68586Y219040D01*
X69762Y219236D02*X70546Y220020D01*
Y216100D01*
X69762D02*X71232D01*
X72898D02*X74858Y220020D01*
X72408D02*X74858D01*
X76034Y219236D02*X76818Y220020D01*
Y216100D01*
X76034D02*X77504D01*
X78680Y219530D02*X79170Y220020D01*
X80640D01*
X81130Y219530D01*
Y218550D01*
X78680Y216100D02*X81130Y218550D01*
X78680Y216100D02*X81130D01*
X82306Y219236D02*X83090Y220020D01*
Y216100D01*
X82306D02*X83776D01*
X84952Y219236D02*X85736Y220020D01*
Y216100D01*
X84952D02*X86422D01*
G54D62*X175000Y346320D02*X176560Y347880D01*
X181240D01*
X182800Y346320D01*
Y343200D01*
X175000Y335400D02*X182800Y343200D01*
X175000Y335400D02*X182800D01*
G54D63*X198000Y344250D02*X200250Y346500D01*
X204750D01*
X207000Y344250D01*
X204750Y328500D02*X207000Y330750D01*
X200250Y328500D02*X204750D01*
X198000Y330750D02*X200250Y328500D01*
Y338400D02*X204750D01*
X207000Y344250D02*Y340650D01*
Y336150D02*Y330750D01*
Y336150D02*X204750Y338400D01*
X207000Y340650D02*X204750Y338400D01*
X232000Y335250D02*X241000Y346500D01*
X232000Y335250D02*X243250D01*
X241000Y346500D02*Y328500D01*
G54D64*X125000Y221556D02*X127864Y224420D01*
Y210100D01*
X125000D02*X130370D01*
X134666Y211890D02*X136456Y210100D01*
X134666Y214754D02*Y211890D01*
Y214754D02*X137172Y217260D01*
X139320D01*
X141826Y214754D01*
Y211890D01*
X140036Y210100D02*X141826Y211890D01*
X136456Y210100D02*X140036D01*
X134666Y219766D02*X137172Y217260D01*
X134666Y222630D02*Y219766D01*
Y222630D02*X136456Y224420D01*
X140036D01*
X141826Y222630D01*
Y219766D01*
X139320Y217260D02*X141826Y219766D01*
G54D63*X163000Y222900D02*X166600Y226500D01*
Y208500D01*
X163000D02*X169750D01*
X177400D02*X186400Y226500D01*
X175150D02*X186400D01*
X197000Y222900D02*X200600Y226500D01*
Y208500D01*
X197000D02*X203750D01*
X215900Y226500D02*X218150Y224250D01*
X211400Y226500D02*X215900D01*
X209150Y224250D02*X211400Y226500D01*
X209150Y224250D02*Y210750D01*
X211400Y208500D01*
X215900Y218400D02*X218150Y216150D01*
X209150Y218400D02*X215900D01*
X211400Y208500D02*X215900D01*
X218150Y210750D01*
Y216150D02*Y210750D01*
X228000Y222900D02*X231600Y226500D01*
Y208500D01*
X228000D02*X234750D01*
X240150Y226500D02*X249150D01*
X240150D02*Y217500D01*
X242400Y219750D01*
X246900D01*
X249150Y217500D01*
Y210750D01*
X246900Y208500D02*X249150Y210750D01*
X242400Y208500D02*X246900D01*
X240150Y210750D02*X242400Y208500D01*
X96000Y330750D02*X98250Y328500D01*
X96000Y344250D02*Y330750D01*
Y344250D02*X98250Y346500D01*
X102750D01*
X105000Y344250D01*
Y330750D01*
X102750Y328500D02*X105000Y330750D01*
X98250Y328500D02*X102750D01*
X96000Y333000D02*X105000Y342000D01*
G54D64*X121000Y346556D02*X123864Y349420D01*
Y335100D01*
X121000D02*X126370D01*
G54D60*X77420Y362840D02*X78130Y363550D01*
X77420Y362840D02*Y360710D01*
X78130Y360000D02*X77420Y360710D01*
X78130Y360000D02*X82390D01*
X83100Y360710D01*
Y362840D02*Y360710D01*
Y362840D02*X82390Y363550D01*
X80970D02*X82390D01*
X80260Y362840D02*X80970Y363550D01*
X80260Y362840D02*Y361420D01*
X77420Y365254D02*X83100D01*
X77420D02*X83100Y368804D01*
X77420D02*X83100D01*
X77420Y371218D02*X83100D01*
X77420Y373064D02*X78414Y374058D01*
X82106D01*
X83100Y373064D02*X82106Y374058D01*
X83100Y373064D02*Y370508D01*
X77420Y373064D02*Y370508D01*
X72000Y378000D02*X74400D01*
X75000Y378600D01*
Y380040D02*Y378600D01*
X74400Y380640D02*X75000Y380040D01*
X72600Y380640D02*X74400D01*
X72600Y382800D02*Y378000D01*
X72000Y382800D02*X74400D01*
X75000Y382200D01*
Y381240D01*
X74400Y380640D02*X75000Y381240D01*
X76440Y382800D02*X78840D01*
X77640D02*Y378000D01*
X80280Y382800D02*Y378000D01*
Y382800D02*X83280Y378000D01*
Y382800D02*Y378000D01*
X71840Y174580D02*X72550Y173870D01*
X69710Y174580D02*X71840D01*
X69000Y173870D02*X69710Y174580D01*
X69000Y173870D02*Y169610D01*
X69710Y168900D01*
X71840D01*
X72550Y169610D01*
Y171030D02*Y169610D01*
X71840Y171740D02*X72550Y171030D01*
X70420Y171740D02*X71840D01*
X74254Y174580D02*Y168900D01*
Y174580D02*X77804Y168900D01*
Y174580D02*Y168900D01*
X80218Y174580D02*Y168900D01*
X82064Y174580D02*X83058Y173586D01*
Y169894D01*
X82064Y168900D02*X83058Y169894D01*
X79508Y168900D02*X82064D01*
X79508Y174580D02*X82064D01*
X83000Y180400D02*Y178000D01*
Y180400D02*X82400Y181000D01*
X80960D02*X82400D01*
X80360Y180400D02*X80960Y181000D01*
X80360Y180400D02*Y178600D01*
X78200D02*X83000D01*
X78200Y180400D02*Y178000D01*
Y180400D02*X78800Y181000D01*
X79760D01*
X80360Y180400D02*X79760Y181000D01*
X78200Y184840D02*Y182440D01*
Y183640D02*X83000D01*
X78200Y186280D02*X83000D01*
X78200D02*X83000Y189280D01*
X78200D02*X83000D01*
G54D63*X92000Y221900D02*X95600Y225500D01*
Y207500D01*
X92000D02*X98750D01*
X106400D02*X113150Y216500D01*
Y223250D02*Y216500D01*
X110900Y225500D02*X113150Y223250D01*
X106400Y225500D02*X110900D01*
X104150Y223250D02*X106400Y225500D01*
X104150Y223250D02*Y218750D01*
X106400Y216500D01*
X113150D01*
X266000Y346500D02*X275000D01*
X266000D02*Y337500D01*
X268250Y339750D01*
X272750D01*
X275000Y337500D01*
Y330750D01*
X272750Y328500D02*X275000Y330750D01*
X268250Y328500D02*X272750D01*
X266000Y330750D02*X268250Y328500D01*
X309750Y346500D02*X312000Y344250D01*
X305250Y346500D02*X309750D01*
X303000Y344250D02*X305250Y346500D01*
X303000Y344250D02*Y330750D01*
X305250Y328500D01*
X309750Y338400D02*X312000Y336150D01*
X303000Y338400D02*X309750D01*
X305250Y328500D02*X309750D01*
X312000Y330750D01*
Y336150D02*Y330750D01*
X336250Y328500D02*X345250Y346500D01*
X334000D02*X345250D01*
G54D60*X351840Y335580D02*X352550Y334870D01*
X349710Y335580D02*X351840D01*
X349000Y334870D02*X349710Y335580D01*
X349000Y334870D02*Y330610D01*
X349710Y329900D01*
X351840D01*
X352550Y330610D01*
Y332030D02*Y330610D01*
X351840Y332740D02*X352550Y332030D01*
X350420Y332740D02*X351840D01*
X354254Y335580D02*Y329900D01*
Y335580D02*X357804Y329900D01*
Y335580D02*Y329900D01*
X360218Y335580D02*Y329900D01*
X362064Y335580D02*X363058Y334586D01*
Y330894D01*
X362064Y329900D02*X363058Y330894D01*
X359508Y329900D02*X362064D01*
X359508Y335580D02*X362064D01*
G54D65*X358000Y340855D02*X359905Y338950D01*
X358000Y343903D02*Y340855D01*
Y343903D02*X360667Y346570D01*
X362953D01*
X365620Y343903D01*
Y340855D01*
X363715Y338950D02*X365620Y340855D01*
X359905Y338950D02*X363715D01*
X358000Y349237D02*X360667Y346570D01*
X358000Y352285D02*Y349237D01*
Y352285D02*X359905Y354190D01*
X363715D01*
X365620Y352285D01*
Y349237D01*
X362953Y346570D02*X365620Y349237D01*
G54D62*X405560Y335400D02*X410240Y341640D01*
Y346320D02*Y341640D01*
X408680Y347880D02*X410240Y346320D01*
X405560Y347880D02*X408680D01*
X404000Y346320D02*X405560Y347880D01*
X404000Y346320D02*Y343200D01*
X405560Y341640D01*
X410240D01*
G54D60*X423420Y362840D02*X424130Y363550D01*
X423420Y362840D02*Y360710D01*
X424130Y360000D02*X423420Y360710D01*
X424130Y360000D02*X428390D01*
X429100Y360710D01*
Y362840D02*Y360710D01*
Y362840D02*X428390Y363550D01*
X426970D02*X428390D01*
X426260Y362840D02*X426970Y363550D01*
X426260Y362840D02*Y361420D01*
X423420Y365254D02*X429100D01*
X423420D02*X429100Y368804D01*
X423420D02*X429100D01*
X423420Y371218D02*X429100D01*
X423420Y373064D02*X424414Y374058D01*
X428106D01*
X429100Y373064D02*X428106Y374058D01*
X429100Y373064D02*Y370508D01*
X423420Y373064D02*Y370508D01*
X423000Y378000D02*X425400D01*
X426000Y378600D01*
Y380040D02*Y378600D01*
X425400Y380640D02*X426000Y380040D01*
X423600Y380640D02*X425400D01*
X423600Y382800D02*Y378000D01*
X423000Y382800D02*X425400D01*
X426000Y382200D01*
Y381240D01*
X425400Y380640D02*X426000Y381240D01*
X427440Y382800D02*X429840D01*
X428640D02*Y378000D01*
X431280Y382800D02*Y378000D01*
Y382800D02*X434280Y378000D01*
Y382800D02*Y378000D01*
X370000Y335580D02*X372840D01*
X370000D02*Y332740D01*
X370710Y333450D01*
X372130D01*
X372840Y332740D01*
Y330610D01*
X372130Y329900D02*X372840Y330610D01*
X370710Y329900D02*X372130D01*
X370000Y330610D02*X370710Y329900D01*
X374544Y335580D02*X375964Y329900D01*
X377384Y335580D01*
X426840Y174580D02*X427550Y173870D01*
X424710Y174580D02*X426840D01*
X424000Y173870D02*X424710Y174580D01*
X424000Y173870D02*Y169610D01*
X424710Y168900D01*
X426840D01*
X427550Y169610D01*
Y171030D02*Y169610D01*
X426840Y171740D02*X427550Y171030D01*
X425420Y171740D02*X426840D01*
X429254Y174580D02*Y168900D01*
Y174580D02*X432804Y168900D01*
Y174580D02*Y168900D01*
X435218Y174580D02*Y168900D01*
X437064Y174580D02*X438058Y173586D01*
Y169894D01*
X437064Y168900D02*X438058Y169894D01*
X434508Y168900D02*X437064D01*
X434508Y174580D02*X437064D01*
X429000Y180400D02*Y178000D01*
Y180400D02*X428400Y181000D01*
X426960D02*X428400D01*
X426360Y180400D02*X426960Y181000D01*
X426360Y180400D02*Y178600D01*
X424200D02*X429000D01*
X424200Y180400D02*Y178000D01*
Y180400D02*X424800Y181000D01*
X425760D01*
X426360Y180400D02*X425760Y181000D01*
X424200Y184840D02*Y182440D01*
Y183640D02*X429000D01*
X424200Y186280D02*X429000D01*
X424200D02*X429000Y189280D01*
X424200D02*X429000D01*
G54D65*X260000Y220142D02*X263048Y223190D01*
Y207950D01*
X260000D02*X265715D01*
X270287Y213665D02*X277907Y223190D01*
X270287Y213665D02*X279812D01*
X277907Y223190D02*Y207950D01*
G54D63*X294000Y222900D02*X297600Y226500D01*
Y208500D01*
X294000D02*X300750D01*
X306150Y224250D02*X308400Y226500D01*
X312900D01*
X315150Y224250D01*
X312900Y208500D02*X315150Y210750D01*
X308400Y208500D02*X312900D01*
X306150Y210750D02*X308400Y208500D01*
Y218400D02*X312900D01*
X315150Y224250D02*Y220650D01*
Y216150D02*Y210750D01*
Y216150D02*X312900Y218400D01*
X315150Y220650D02*X312900Y218400D01*
G54D65*X324000Y220142D02*X327048Y223190D01*
Y207950D01*
X324000D02*X329715D01*
X334287Y221285D02*X336192Y223190D01*
X341907D01*
X343812Y221285D01*
Y217475D01*
X334287Y207950D02*X343812Y217475D01*
X334287Y207950D02*X343812D01*
G54D60*X349420Y208840D02*X350130Y209550D01*
X349420Y208840D02*Y206710D01*
X350130Y206000D02*X349420Y206710D01*
X350130Y206000D02*X354390D01*
X355100Y206710D01*
Y208840D02*Y206710D01*
Y208840D02*X354390Y209550D01*
X352970D02*X354390D01*
X352260Y208840D02*X352970Y209550D01*
X352260Y208840D02*Y207420D01*
X349420Y211254D02*X355100D01*
X349420D02*X355100Y214804D01*
X349420D02*X355100D01*
X349420Y217218D02*X355100D01*
X349420Y219064D02*X350414Y220058D01*
X354106D01*
X355100Y219064D02*X354106Y220058D01*
X355100Y219064D02*Y216508D01*
X349420Y219064D02*Y216508D01*
X371000Y219580D02*X373840D01*
X371000D02*Y216740D01*
X371710Y217450D01*
X373130D01*
X373840Y216740D01*
Y214610D01*
X373130Y213900D02*X373840Y214610D01*
X371710Y213900D02*X373130D01*
X371000Y214610D02*X371710Y213900D01*
X375544Y219580D02*X376964Y213900D01*
X378384Y219580D01*
G54D66*X370000Y210256D02*X371664Y211920D01*
Y203600D01*
X370000D02*X373120D01*
X375616Y210256D02*X377280Y211920D01*
Y203600D01*
X375616D02*X378736D01*
G54D60*X402000Y208652D02*X403488Y210140D01*
Y202700D01*
X402000D02*X404790D01*
X407022Y203630D02*X407952Y202700D01*
X407022Y209210D02*Y203630D01*
Y209210D02*X407952Y210140D01*
X409812D01*
X410742Y209210D01*
Y203630D01*
X409812Y202700D02*X410742Y203630D01*
X407952Y202700D02*X409812D01*
X407022Y204560D02*X410742Y208280D01*
G54D67*X384000Y316400D02*X395800Y335280D01*
X384000D02*X395800Y316400D01*
X384000Y301280D02*X388720Y291840D01*
X393440Y301280D01*
X388720Y291840D02*Y282400D01*
X384000Y267280D02*X395800D01*
X384000Y248400D02*X395800Y267280D01*
X384000Y248400D02*X395800D01*
G54D68*X381000Y240970D02*X389060D01*
X391075Y238955D01*
Y234925D01*
X389060Y232910D02*X391075Y234925D01*
X383015Y232910D02*X389060D01*
X383015Y240970D02*Y224850D01*
X386239Y232910D02*X391075Y224850D01*
X395911Y232910D02*X403971Y224850D01*
X395911D02*X403971Y232910D01*
G54D60*X353686Y256100D02*X354960D01*
X353000Y256786D02*X353686Y256100D01*
X353000Y259334D02*Y256786D01*
Y259334D02*X353686Y260020D01*
X354960D01*
X356136Y259040D02*Y256100D01*
Y259040D02*X356822Y260020D01*
X357900D01*
X358586Y259040D01*
Y256100D01*
X356136Y258060D02*X358586D01*
X359762Y260020D02*Y256100D01*
Y260020D02*X362212Y256100D01*
Y260020D02*Y256100D01*
X363388Y260020D02*Y256100D01*
X365348D01*
X368974D02*X370248D01*
X368288Y256786D02*X368974Y256100D01*
X368288Y259334D02*Y256786D01*
Y259334D02*X368974Y260020D01*
X370248D01*
X371424Y259040D02*Y256100D01*
Y259040D02*X372110Y260020D01*
X373188D01*
X373874Y259040D01*
Y256100D01*
X371424Y258060D02*X373874D01*
X375050Y260020D02*Y256100D01*
Y260020D02*X377500Y256100D01*
Y260020D02*Y256100D01*
X378676Y260020D02*Y256100D01*
X381126Y260020D02*Y256100D01*
X378676Y258060D02*X381126D01*
X353686Y291100D02*X354960D01*
X353000Y291786D02*X353686Y291100D01*
X353000Y294334D02*Y291786D01*
Y294334D02*X353686Y295020D01*
X354960D01*
X356136Y294040D02*Y291100D01*
Y294040D02*X356822Y295020D01*
X357900D01*
X358586Y294040D01*
Y291100D01*
X356136Y293060D02*X358586D01*
X359762Y295020D02*Y291100D01*
Y295020D02*X362212Y291100D01*
Y295020D02*Y291100D01*
X363388Y295020D02*Y291100D01*
X365348D01*
X368974D02*X370248D01*
X368288Y291786D02*X368974Y291100D01*
X368288Y294334D02*Y291786D01*
Y294334D02*X368974Y295020D01*
X370248D01*
X371424Y294040D02*Y291100D01*
Y294040D02*X372110Y295020D01*
X373188D01*
X373874Y294040D01*
Y291100D01*
X371424Y293060D02*X373874D01*
X375050Y295020D02*Y291100D01*
Y295020D02*X377500Y291100D01*
Y295020D02*Y291100D01*
X378676Y295020D02*Y291100D01*
X381126Y295020D02*Y291100D01*
X378676Y293060D02*X381126D01*
G54D61*X302500Y290500D02*Y271500D01*
X333500D01*
Y290500D01*
X302500D02*X315500D01*
X333500D02*X320500D01*
X315500D02*G75*G03X320500Y290500I2500J0D01*G01*
G54D60*X341673Y273638D02*Y269622D01*
X348327D01*
X341673Y282378D02*Y278362D01*
Y282378D02*X348327D01*
Y277969D02*Y274031D01*
X344607Y265755D02*X345393D01*
X344607Y260245D02*X345393D01*
G54D61*X353800Y328700D02*Y299700D01*
X376200Y328700D02*Y299700D01*
Y328700D02*X353800D01*
Y319700D02*X376200D01*
X365000Y299700D02*Y319700D01*
X353800Y299700D02*X376200D01*
G54D60*X344607Y285245D02*X345393D01*
X344607Y290755D02*X345393D01*
G54D61*X357300Y362800D02*X386300D01*
X357300Y385200D02*X386300D01*
X357300D02*Y362800D01*
X366300Y385200D02*Y362800D01*
Y374000D02*X386300D01*
Y385200D02*Y362800D01*
X391300D02*X420300D01*
X391300Y385200D02*X420300D01*
X391300D02*Y362800D01*
X400300Y385200D02*Y362800D01*
Y374000D02*X420300D01*
Y385200D02*Y362800D01*
G54D60*X433500Y366000D02*G75*G03X433500Y366000I12500J0D01*G01*
G54D61*X422800Y340700D02*Y311700D01*
X455200Y340700D02*Y311700D01*
Y340700D02*X422800D01*
Y331700D02*X455200D01*
X434000Y311700D02*Y331700D01*
X444000Y311700D02*Y331700D01*
X422800Y311700D02*X455200D01*
G54D69*X395299Y348543D03*
G54D60*X382996Y348445D02*Y341555D01*
X395004Y348445D02*Y341555D01*
G54D61*X422800Y306700D02*Y277700D01*
X455200Y306700D02*Y277700D01*
Y306700D02*X422800D01*
Y297700D02*X455200D01*
X434000Y277700D02*Y297700D01*
X444000Y277700D02*Y297700D01*
X422800Y277700D02*X455200D01*
X289300Y166800D02*X318300D01*
X289300Y189200D02*X318300D01*
X289300D02*Y166800D01*
X298300Y189200D02*Y166800D01*
Y178000D02*X318300D01*
Y189200D02*Y166800D01*
X323300D02*X352300D01*
X323300Y189200D02*X352300D01*
X323300D02*Y166800D01*
X332300Y189200D02*Y166800D01*
Y178000D02*X352300D01*
Y189200D02*Y166800D01*
X353800Y289700D02*Y260700D01*
X376200Y289700D02*Y260700D01*
X353800Y289700D02*X376200D01*
X353800Y280700D02*X376200D01*
X365000D02*Y260700D01*
X353800D02*X376200D01*
X353800Y250700D02*Y221700D01*
X376200Y250700D02*Y221700D01*
Y250700D02*X353800D01*
Y241700D02*X376200D01*
X365000Y221700D02*Y241700D01*
X353800Y221700D02*X376200D01*
G54D69*X416543Y270701D03*
G54D60*X409555Y283004D02*X416445D01*
X409555Y270996D02*X416445D01*
X402755Y240393D02*Y239607D01*
X397245Y240393D02*Y239607D01*
G54D61*X357300Y166800D02*X386300D01*
X357300Y189200D02*X386300D01*
X357300D02*Y166800D01*
X366300Y189200D02*Y166800D01*
Y178000D02*X386300D01*
Y189200D02*Y166800D01*
X422800Y238700D02*Y209700D01*
X455200Y238700D02*Y209700D01*
Y238700D02*X422800D01*
Y229700D02*X455200D01*
X434000Y209700D02*Y229700D01*
X444000Y209700D02*Y229700D01*
X422800Y209700D02*X455200D01*
X422800Y272700D02*Y243700D01*
X455200Y272700D02*Y243700D01*
Y272700D02*X422800D01*
Y263700D02*X455200D01*
X434000Y243700D02*Y263700D01*
X444000Y243700D02*Y263700D01*
X422800Y243700D02*X455200D01*
G54D69*X395299Y211543D03*
G54D60*X382996Y211445D02*Y204555D01*
X395004Y211445D02*Y204555D01*
G54D61*X391300Y166800D02*X420300D01*
X391300Y189200D02*X420300D01*
X391300D02*Y166800D01*
X400300Y189200D02*Y166800D01*
Y178000D02*X420300D01*
Y189200D02*Y166800D01*
G54D60*X433500Y186000D02*G75*G03X433500Y186000I12500J0D01*G01*
G54D61*X289300Y362800D02*X318300D01*
X289300Y385200D02*X318300D01*
X289300D02*Y362800D01*
X298300Y385200D02*Y362800D01*
Y374000D02*X318300D01*
Y385200D02*Y362800D01*
X323300D02*X352300D01*
X323300Y385200D02*X352300D01*
X323300D02*Y362800D01*
X332300Y385200D02*Y362800D01*
Y374000D02*X352300D01*
Y385200D02*Y362800D01*
X255300D02*X284300D01*
X255300Y385200D02*X284300D01*
X255300D02*Y362800D01*
X264300Y385200D02*Y362800D01*
Y374000D02*X284300D01*
Y385200D02*Y362800D01*
G54D69*X280701Y341457D03*
G54D60*X293004Y341555D02*Y348445D01*
X280996Y341555D02*Y348445D01*
G54D61*X46000Y301000D02*X286000D01*
Y311000D02*X46000D01*
Y301000D02*Y311000D01*
X56000Y301000D02*Y311000D01*
X66000Y301000D02*Y311000D01*
X76000Y301000D02*Y311000D01*
X86000Y301000D02*Y311000D01*
X96000Y301000D02*Y311000D01*
X106000Y301000D02*Y311000D01*
X116000Y301000D02*Y311000D01*
X126000Y301000D02*Y311000D01*
X136000Y301000D02*Y311000D01*
X146000Y301000D02*Y311000D01*
X156000Y301000D02*Y311000D01*
X166000Y301000D02*Y311000D01*
X176000Y301000D02*Y311000D01*
X186000Y301000D02*Y311000D01*
X196000Y301000D02*Y311000D01*
X206000Y301000D02*Y311000D01*
X216000Y301000D02*Y311000D01*
X226000Y301000D02*Y311000D01*
X236000Y301000D02*Y311000D01*
X246000Y301000D02*Y311000D01*
X256000Y301000D02*Y311000D01*
X266000Y301000D02*Y311000D01*
X276000Y301000D02*Y311000D01*
X286000Y301000D02*Y311000D01*
X46000Y241000D02*X286000D01*
Y251000D02*X46000D01*
Y241000D02*Y251000D01*
X56000Y241000D02*Y251000D01*
X66000Y241000D02*Y251000D01*
X76000Y241000D02*Y251000D01*
X86000Y241000D02*Y251000D01*
X96000Y241000D02*Y251000D01*
X106000Y241000D02*Y251000D01*
X116000Y241000D02*Y251000D01*
X126000Y241000D02*Y251000D01*
X136000Y241000D02*Y251000D01*
X146000Y241000D02*Y251000D01*
X156000Y241000D02*Y251000D01*
X166000Y241000D02*Y251000D01*
X176000Y241000D02*Y251000D01*
X186000Y241000D02*Y251000D01*
X196000Y241000D02*Y251000D01*
X206000Y241000D02*Y251000D01*
X216000Y241000D02*Y251000D01*
X226000Y241000D02*Y251000D01*
X236000Y241000D02*Y251000D01*
X246000Y241000D02*Y251000D01*
X256000Y241000D02*Y251000D01*
X266000Y241000D02*Y251000D01*
X276000Y241000D02*Y251000D01*
X286000Y241000D02*Y251000D01*
G54D60*X48500Y276000D02*G75*G03X48500Y276000I12500J0D01*G01*
G54D61*X187300Y166800D02*X216300D01*
X187300Y189200D02*X216300D01*
X187300D02*Y166800D01*
X196300Y189200D02*Y166800D01*
Y178000D02*X216300D01*
Y189200D02*Y166800D01*
X221300D02*X250300D01*
X221300Y189200D02*X250300D01*
X221300D02*Y166800D01*
X230300Y189200D02*Y166800D01*
Y178000D02*X250300D01*
Y189200D02*Y166800D01*
X255300D02*X284300D01*
X255300Y189200D02*X284300D01*
X255300D02*Y166800D01*
X264300Y189200D02*Y166800D01*
Y178000D02*X284300D01*
Y189200D02*Y166800D01*
G54D69*X293299Y211543D03*
G54D60*X280996Y211445D02*Y204555D01*
X293004Y211445D02*Y204555D01*
G54D61*X221300Y362800D02*X250300D01*
X221300Y385200D02*X250300D01*
X221300D02*Y362800D01*
X230300Y385200D02*Y362800D01*
Y374000D02*X250300D01*
Y385200D02*Y362800D01*
X187300D02*X216300D01*
X187300Y385200D02*X216300D01*
X187300D02*Y362800D01*
X196300Y385200D02*Y362800D01*
Y374000D02*X216300D01*
Y385200D02*Y362800D01*
X85300Y166800D02*X114300D01*
X85300Y189200D02*X114300D01*
X85300D02*Y166800D01*
X94300Y189200D02*Y166800D01*
Y178000D02*X114300D01*
Y189200D02*Y166800D01*
X119300D02*X148300D01*
X119300Y189200D02*X148300D01*
X119300D02*Y166800D01*
X128300Y189200D02*Y166800D01*
Y178000D02*X148300D01*
Y189200D02*Y166800D01*
X153300D02*X182300D01*
X153300Y189200D02*X182300D01*
X153300D02*Y166800D01*
X162300Y189200D02*Y166800D01*
Y178000D02*X182300D01*
Y189200D02*Y166800D01*
G54D60*X48500Y186000D02*G75*G03X48500Y186000I12500J0D01*G01*
G54D69*X157299Y211543D03*
G54D60*X144996Y211445D02*Y204555D01*
X157004Y211445D02*Y204555D01*
G54D69*X144701Y341457D03*
G54D60*X157004Y341555D02*Y348445D01*
X144996Y341555D02*Y348445D01*
G54D61*X153300Y362800D02*X182300D01*
X153300Y385200D02*X182300D01*
X153300D02*Y362800D01*
X162300Y385200D02*Y362800D01*
Y374000D02*X182300D01*
Y385200D02*Y362800D01*
X119300D02*X148300D01*
X119300Y385200D02*X148300D01*
X119300D02*Y362800D01*
X128300Y385200D02*Y362800D01*
Y374000D02*X148300D01*
Y385200D02*Y362800D01*
X85300D02*X114300D01*
X85300Y385200D02*X114300D01*
X85300D02*Y362800D01*
X94300Y385200D02*Y362800D01*
Y374000D02*X114300D01*
Y385200D02*Y362800D01*
G54D60*X48500Y366000D02*G75*G03X48500Y366000I12500J0D01*G01*
X93350Y202150D02*Y198150D01*
X94650Y202150D02*X95350Y201450D01*
Y198850D01*
X94650Y198150D02*X95350Y198850D01*
X92850Y198150D02*X94650D01*
X92850Y202150D02*X94650D01*
X96550Y201650D02*X97050Y202150D01*
X98550D01*
X99050Y201650D01*
Y200650D01*
X96550Y198150D02*X99050Y200650D01*
X96550Y198150D02*X99050D01*
X100250Y199650D02*X102250Y202150D01*
X100250Y199650D02*X102750D01*
X102250Y202150D02*Y198150D01*
X127350Y202150D02*Y198150D01*
X128650Y202150D02*X129350Y201450D01*
Y198850D01*
X128650Y198150D02*X129350Y198850D01*
X126850Y198150D02*X128650D01*
X126850Y202150D02*X128650D01*
X130550Y201650D02*X131050Y202150D01*
X132550D01*
X133050Y201650D01*
Y200650D01*
X130550Y198150D02*X133050Y200650D01*
X130550Y198150D02*X133050D01*
X134250Y201650D02*X134750Y202150D01*
X135750D01*
X136250Y201650D01*
X135750Y198150D02*X136250Y198650D01*
X134750Y198150D02*X135750D01*
X134250Y198650D02*X134750Y198150D01*
Y200350D02*X135750D01*
X136250Y201650D02*Y200850D01*
Y199850D02*Y198650D01*
Y199850D02*X135750Y200350D01*
X136250Y200850D02*X135750Y200350D01*
X111850Y202150D02*X113850D01*
X114350Y201650D01*
Y200650D01*
X113850Y200150D02*X114350Y200650D01*
X112350Y200150D02*X113850D01*
X112350Y202150D02*Y198150D01*
X113150Y200150D02*X114350Y198150D01*
X115550Y201650D02*X116050Y202150D01*
X117550D01*
X118050Y201650D01*
Y200650D01*
X115550Y198150D02*X118050Y200650D01*
X115550Y198150D02*X118050D01*
X119250Y198650D02*X119750Y198150D01*
X119250Y199450D02*Y198650D01*
Y199450D02*X119950Y200150D01*
X120550D01*
X121250Y199450D01*
Y198650D01*
X120750Y198150D02*X121250Y198650D01*
X119750Y198150D02*X120750D01*
X119250Y200850D02*X119950Y200150D01*
X119250Y201650D02*Y200850D01*
Y201650D02*X119750Y202150D01*
X120750D01*
X121250Y201650D01*
Y200850D01*
X120550Y200150D02*X121250Y200850D01*
X146000Y224000D02*Y220500D01*
X146500Y220000D01*
X147500D01*
X148000Y220500D01*
Y224000D02*Y220500D01*
X150700Y224000D02*X151200Y223500D01*
X149700Y224000D02*X150700D01*
X149200Y223500D02*X149700Y224000D01*
X149200Y223500D02*Y220500D01*
X149700Y220000D01*
X150700Y222200D02*X151200Y221700D01*
X149200Y222200D02*X150700D01*
X149700Y220000D02*X150700D01*
X151200Y220500D01*
Y221700D02*Y220500D01*
X146850Y197380D02*X148390D01*
X148775Y196995D01*
Y196225D01*
X148390Y195840D02*X148775Y196225D01*
X147235Y195840D02*X148390D01*
X147235Y197380D02*Y194300D01*
X147851Y195840D02*X148775Y194300D01*
X149699Y196995D02*X150084Y197380D01*
X151239D01*
X151624Y196995D01*
Y196225D01*
X149699Y194300D02*X151624Y196225D01*
X149699Y194300D02*X151624D01*
X152933D02*X154473Y197380D01*
X152548D02*X154473D01*
X159350Y202150D02*Y198150D01*
X160650Y202150D02*X161350Y201450D01*
Y198850D01*
X160650Y198150D02*X161350Y198850D01*
X158850Y198150D02*X160650D01*
X158850Y202150D02*X160650D01*
X162550Y201650D02*X163050Y202150D01*
X164550D01*
X165050Y201650D01*
Y200650D01*
X162550Y198150D02*X165050Y200650D01*
X162550Y198150D02*X165050D01*
X166250Y201650D02*X166750Y202150D01*
X168250D01*
X168750Y201650D01*
Y200650D01*
X166250Y198150D02*X168750Y200650D01*
X166250Y198150D02*X168750D01*
X77850Y317850D02*Y316550D01*
X77150Y315850D02*X77850Y316550D01*
X74550Y315850D02*X77150D01*
X74550D02*X73850Y316550D01*
Y317850D02*Y316550D01*
X74650Y319050D02*X73850Y319850D01*
X77850D01*
Y320550D02*Y319050D01*
X76350Y321750D02*X73850Y323750D01*
X76350Y324250D02*Y321750D01*
X73850Y323750D02*X77850D01*
X57850Y317850D02*Y316550D01*
X57150Y315850D02*X57850Y316550D01*
X54550Y315850D02*X57150D01*
X54550D02*X53850Y316550D01*
Y317850D02*Y316550D01*
X54650Y319050D02*X53850Y319850D01*
X57850D01*
Y320550D02*Y319050D01*
X54350Y321750D02*X53850Y322250D01*
Y323250D02*Y322250D01*
Y323250D02*X54350Y323750D01*
X57850Y323250D02*X57350Y323750D01*
X57850Y323250D02*Y322250D01*
X57350Y321750D02*X57850Y322250D01*
X55650Y323250D02*Y322250D01*
X54350Y323750D02*X55150D01*
X56150D02*X57350D01*
X56150D02*X55650Y323250D01*
X55150Y323750D02*X55650Y323250D01*
X152850Y317850D02*Y316550D01*
X152150Y315850D02*X152850Y316550D01*
X149550Y315850D02*X152150D01*
X149550D02*X148850Y316550D01*
Y317850D02*Y316550D01*
X149650Y319050D02*X148850Y319850D01*
X152850D01*
Y320550D02*Y319050D01*
X149650Y321750D02*X148850Y322550D01*
X152850D01*
Y323250D02*Y321750D01*
X160850Y326850D02*Y324850D01*
Y326850D02*X161350Y327350D01*
X162350D01*
X162850Y326850D02*X162350Y327350D01*
X162850Y326850D02*Y325350D01*
X160850D02*X164850D01*
X162850Y326150D02*X164850Y327350D01*
Y329050D02*X162850Y330550D01*
X161350D02*X162850D01*
X160850Y330050D02*X161350Y330550D01*
X160850Y330050D02*Y329050D01*
X161350Y328550D02*X160850Y329050D01*
X161350Y328550D02*X162350D01*
X162850Y329050D01*
Y330550D02*Y329050D01*
X151000Y344000D02*Y340500D01*
X151500Y340000D01*
X152500D01*
X153000Y340500D01*
Y344000D02*Y340500D01*
X154200Y343500D02*X154700Y344000D01*
X155700D01*
X156200Y343500D01*
X155700Y340000D02*X156200Y340500D01*
X154700Y340000D02*X155700D01*
X154200Y340500D02*X154700Y340000D01*
Y342200D02*X155700D01*
X156200Y343500D02*Y342700D01*
Y341700D02*Y340500D01*
Y341700D02*X155700Y342200D01*
X156200Y342700D02*X155700Y342200D01*
X162350Y354150D02*Y350150D01*
X163650Y354150D02*X164350Y353450D01*
Y350850D01*
X163650Y350150D02*X164350Y350850D01*
X161850Y350150D02*X163650D01*
X161850Y354150D02*X163650D01*
X166050Y350150D02*X167550Y352150D01*
Y353650D02*Y352150D01*
X167050Y354150D02*X167550Y353650D01*
X166050Y354150D02*X167050D01*
X165550Y353650D02*X166050Y354150D01*
X165550Y353650D02*Y352650D01*
X166050Y352150D01*
X167550D01*
X146850Y361380D02*X148390D01*
X148775Y360995D01*
Y360225D01*
X148390Y359840D02*X148775Y360225D01*
X147235Y359840D02*X148390D01*
X147235Y361380D02*Y358300D01*
X147851Y359840D02*X148775Y358300D01*
X149699Y360764D02*X150315Y361380D01*
Y358300D01*
X149699D02*X150854D01*
X151778Y360995D02*X152163Y361380D01*
X153318D01*
X153703Y360995D01*
Y360225D01*
X151778Y358300D02*X153703Y360225D01*
X151778Y358300D02*X153703D01*
X113850Y356150D02*X115850D01*
X116350Y355650D01*
Y354650D01*
X115850Y354150D02*X116350Y354650D01*
X114350Y354150D02*X115850D01*
X114350Y356150D02*Y352150D01*
X115150Y354150D02*X116350Y352150D01*
X117550Y355350D02*X118350Y356150D01*
Y352150D01*
X117550D02*X119050D01*
X120250Y355350D02*X121050Y356150D01*
Y352150D01*
X120250D02*X121750D01*
X94350Y354150D02*Y350150D01*
X95650Y354150D02*X96350Y353450D01*
Y350850D01*
X95650Y350150D02*X96350Y350850D01*
X93850Y350150D02*X95650D01*
X93850Y354150D02*X95650D01*
X98050Y350150D02*X100050Y354150D01*
X97550D02*X100050D01*
X128350D02*Y350150D01*
X129650Y354150D02*X130350Y353450D01*
Y350850D01*
X129650Y350150D02*X130350Y350850D01*
X127850Y350150D02*X129650D01*
X127850Y354150D02*X129650D01*
X131550Y350650D02*X132050Y350150D01*
X131550Y351450D02*Y350650D01*
Y351450D02*X132250Y352150D01*
X132850D01*
X133550Y351450D01*
Y350650D01*
X133050Y350150D02*X133550Y350650D01*
X132050Y350150D02*X133050D01*
X131550Y352850D02*X132250Y352150D01*
X131550Y353650D02*Y352850D01*
Y353650D02*X132050Y354150D01*
X133050D01*
X133550Y353650D01*
Y352850D01*
X132850Y352150D02*X133550Y352850D01*
X119850Y326850D02*Y324850D01*
Y326850D02*X120350Y327350D01*
X121350D01*
X121850Y326850D02*X121350Y327350D01*
X121850Y326850D02*Y325350D01*
X119850D02*X123850D01*
X121850Y326150D02*X123850Y327350D01*
Y329050D02*X119850Y331050D01*
Y328550D01*
X116850Y326850D02*Y325550D01*
X116150Y324850D02*X116850Y325550D01*
X113550Y324850D02*X116150D01*
X113550D02*X112850Y325550D01*
Y326850D02*Y325550D01*
X116850Y328550D02*X114850Y330050D01*
X113350D02*X114850D01*
X112850Y329550D02*X113350Y330050D01*
X112850Y329550D02*Y328550D01*
X113350Y328050D02*X112850Y328550D01*
X113350Y328050D02*X114350D01*
X114850Y328550D01*
Y330050D02*Y328550D01*
X131850Y328850D02*Y327550D01*
X131150Y326850D02*X131850Y327550D01*
X128550Y326850D02*X131150D01*
X128550D02*X127850Y327550D01*
Y328850D02*Y327550D01*
X128650Y330050D02*X127850Y330850D01*
X131850D01*
Y331550D02*Y330050D01*
X131350Y332750D02*X131850Y333250D01*
X128350Y332750D02*X131350D01*
X128350D02*X127850Y333250D01*
Y334250D02*Y333250D01*
Y334250D02*X128350Y334750D01*
X131350D01*
X131850Y334250D02*X131350Y334750D01*
X131850Y334250D02*Y333250D01*
X130850Y332750D02*X128850Y334750D01*
X134850Y327850D02*Y325850D01*
Y327850D02*X135350Y328350D01*
X136350D01*
X136850Y327850D02*X136350Y328350D01*
X136850Y327850D02*Y326350D01*
X134850D02*X138850D01*
X136850Y327150D02*X138850Y328350D01*
X138350Y329550D02*X138850Y330050D01*
X137550Y329550D02*X138350D01*
X137550D02*X136850Y330250D01*
Y330850D02*Y330250D01*
Y330850D02*X137550Y331550D01*
X138350D01*
X138850Y331050D02*X138350Y331550D01*
X138850Y331050D02*Y330050D01*
X136150Y329550D02*X136850Y330250D01*
X135350Y329550D02*X136150D01*
X135350D02*X134850Y330050D01*
Y331050D02*Y330050D01*
Y331050D02*X135350Y331550D01*
X136150D01*
X136850Y330850D02*X136150Y331550D01*
X172850Y328850D02*Y327550D01*
X172150Y326850D02*X172850Y327550D01*
X169550Y326850D02*X172150D01*
X169550D02*X168850Y327550D01*
Y328850D02*Y327550D01*
X169650Y330050D02*X168850Y330850D01*
X172850D01*
Y331550D02*Y330050D01*
X169350Y332750D02*X168850Y333250D01*
Y334750D02*Y333250D01*
Y334750D02*X169350Y335250D01*
X170350D01*
X172850Y332750D02*X170350Y335250D01*
X172850D02*Y332750D01*
X318550Y259150D02*X319850D01*
X317850Y259850D02*X318550Y259150D01*
X317850Y262450D02*Y259850D01*
Y262450D02*X318550Y263150D01*
X319850D01*
X321050Y262650D02*X321550Y263150D01*
X323050D01*
X323550Y262650D01*
Y261650D01*
X321050Y259150D02*X323550Y261650D01*
X321050Y259150D02*X323550D01*
X289550Y279150D02*X290850D01*
X288850Y279850D02*X289550Y279150D01*
X288850Y282450D02*Y279850D01*
Y282450D02*X289550Y283150D01*
X290850D01*
X292050Y282350D02*X292850Y283150D01*
Y279150D01*
X292050D02*X293550D01*
X315000Y297000D02*Y293500D01*
X315500Y293000D01*
X316500D01*
X317000Y293500D01*
Y297000D02*Y293500D01*
X318200Y296500D02*X318700Y297000D01*
X320200D01*
X320700Y296500D01*
Y295500D01*
X318200Y293000D02*X320700Y295500D01*
X318200Y293000D02*X320700D01*
X330000Y269230D02*Y266535D01*
X330385Y266150D01*
X331155D01*
X331540Y266535D01*
Y269230D02*Y266535D01*
X332464Y268614D02*X333080Y269230D01*
Y266150D01*
X332464D02*X333619D01*
X334543Y266535D02*X334928Y266150D01*
X334543Y268845D02*Y266535D01*
Y268845D02*X334928Y269230D01*
X335698D01*
X336083Y268845D01*
Y266535D01*
X335698Y266150D02*X336083Y266535D01*
X334928Y266150D02*X335698D01*
X334543Y266920D02*X336083Y268460D01*
X336850Y295380D02*X338390D01*
X338775Y294995D01*
Y294225D01*
X338390Y293840D02*X338775Y294225D01*
X337235Y293840D02*X338390D01*
X337235Y295380D02*Y292300D01*
X337851Y293840D02*X338775Y292300D01*
X339699Y294995D02*X340084Y295380D01*
X340854D01*
X341239Y294995D01*
X340854Y292300D02*X341239Y292685D01*
X340084Y292300D02*X340854D01*
X339699Y292685D02*X340084Y292300D01*
Y293994D02*X340854D01*
X341239Y294995D02*Y294379D01*
Y293609D02*Y292685D01*
Y293609D02*X340854Y293994D01*
X341239Y294379D02*X340854Y293994D01*
X342163Y293455D02*X343703Y295380D01*
X342163Y293455D02*X344088D01*
X343703Y295380D02*Y292300D01*
X282850Y361380D02*X284390D01*
X284775Y360995D01*
Y360225D01*
X284390Y359840D02*X284775Y360225D01*
X283235Y359840D02*X284390D01*
X283235Y361380D02*Y358300D01*
X283851Y359840D02*X284775Y358300D01*
X285699Y360764D02*X286315Y361380D01*
Y358300D01*
X285699D02*X286854D01*
X288933Y361380D02*X289318Y360995D01*
X288163Y361380D02*X288933D01*
X287778Y360995D02*X288163Y361380D01*
X287778Y360995D02*Y358685D01*
X288163Y358300D01*
X288933Y359994D02*X289318Y359609D01*
X287778Y359994D02*X288933D01*
X288163Y358300D02*X288933D01*
X289318Y358685D01*
Y359609D02*Y358685D01*
X262350Y354150D02*Y350150D01*
X263650Y354150D02*X264350Y353450D01*
Y350850D01*
X263650Y350150D02*X264350Y350850D01*
X261850Y350150D02*X263650D01*
X261850Y354150D02*X263650D01*
X265550Y353350D02*X266350Y354150D01*
Y350150D01*
X265550D02*X267050D01*
X268250Y353650D02*X268750Y354150D01*
X270250D01*
X270750Y353650D01*
Y352650D01*
X268250Y350150D02*X270750Y352650D01*
X268250Y350150D02*X270750D01*
X307850Y354150D02*X309850D01*
X310350Y353650D01*
Y352650D01*
X309850Y352150D02*X310350Y352650D01*
X308350Y352150D02*X309850D01*
X308350Y354150D02*Y350150D01*
X309150Y352150D02*X310350Y350150D01*
X311550Y353350D02*X312350Y354150D01*
Y350150D01*
X311550D02*X313050D01*
X314750D02*X316750Y354150D01*
X314250D02*X316750D01*
X297350D02*Y350150D01*
X298650Y354150D02*X299350Y353450D01*
Y350850D01*
X298650Y350150D02*X299350Y350850D01*
X296850Y350150D02*X298650D01*
X296850Y354150D02*X298650D01*
X300550Y353350D02*X301350Y354150D01*
Y350150D01*
X300550D02*X302050D01*
X303250Y353650D02*X303750Y354150D01*
X304750D01*
X305250Y353650D01*
X304750Y350150D02*X305250Y350650D01*
X303750Y350150D02*X304750D01*
X303250Y350650D02*X303750Y350150D01*
Y352350D02*X304750D01*
X305250Y353650D02*Y352850D01*
Y351850D02*Y350650D01*
Y351850D02*X304750Y352350D01*
X305250Y352850D02*X304750Y352350D01*
X323350Y354150D02*Y350150D01*
X324650Y354150D02*X325350Y353450D01*
Y350850D01*
X324650Y350150D02*X325350Y350850D01*
X322850Y350150D02*X324650D01*
X322850Y354150D02*X324650D01*
X326550Y353350D02*X327350Y354150D01*
Y350150D01*
X326550D02*X328050D01*
X329250Y351650D02*X331250Y354150D01*
X329250Y351650D02*X331750D01*
X331250Y354150D02*Y350150D01*
X247850Y354150D02*X249850D01*
X250350Y353650D01*
Y352650D01*
X249850Y352150D02*X250350Y352650D01*
X248350Y352150D02*X249850D01*
X248350Y354150D02*Y350150D01*
X249150Y352150D02*X250350Y350150D01*
X251550Y353350D02*X252350Y354150D01*
Y350150D01*
X251550D02*X253050D01*
X254250Y354150D02*X256250D01*
X254250D02*Y352150D01*
X254750Y352650D01*
X255750D01*
X256250Y352150D01*
Y350650D01*
X255750Y350150D02*X256250Y350650D01*
X254750Y350150D02*X255750D01*
X254250Y350650D02*X254750Y350150D01*
X291850Y325150D02*X293850D01*
X294350Y324650D01*
Y323650D01*
X293850Y323150D02*X294350Y323650D01*
X292350Y323150D02*X293850D01*
X292350Y325150D02*Y321150D01*
X293150Y323150D02*X294350Y321150D01*
X295550Y324650D02*X296050Y325150D01*
X297050D01*
X297550Y324650D01*
X297050Y321150D02*X297550Y321650D01*
X296050Y321150D02*X297050D01*
X295550Y321650D02*X296050Y321150D01*
Y323350D02*X297050D01*
X297550Y324650D02*Y323850D01*
Y322850D02*Y321650D01*
Y322850D02*X297050Y323350D01*
X297550Y323850D02*X297050Y323350D01*
X298750Y324650D02*X299250Y325150D01*
X300250D01*
X300750Y324650D01*
X300250Y321150D02*X300750Y321650D01*
X299250Y321150D02*X300250D01*
X298750Y321650D02*X299250Y321150D01*
Y323350D02*X300250D01*
X300750Y324650D02*Y323850D01*
Y322850D02*Y321650D01*
Y322850D02*X300250Y323350D01*
X300750Y323850D02*X300250Y323350D01*
X324350Y325150D02*Y321150D01*
X325650Y325150D02*X326350Y324450D01*
Y321850D01*
X325650Y321150D02*X326350Y321850D01*
X323850Y321150D02*X325650D01*
X323850Y325150D02*X325650D01*
X327550Y324650D02*X328050Y325150D01*
X329550D01*
X330050Y324650D01*
Y323650D01*
X327550Y321150D02*X330050Y323650D01*
X327550Y321150D02*X330050D01*
X331750D02*X333250Y323150D01*
Y324650D02*Y323150D01*
X332750Y325150D02*X333250Y324650D01*
X331750Y325150D02*X332750D01*
X331250Y324650D02*X331750Y325150D01*
X331250Y324650D02*Y323650D01*
X331750Y323150D01*
X333250D01*
X290850Y318150D02*X292850D01*
X293350Y317650D01*
Y316650D01*
X292850Y316150D02*X293350Y316650D01*
X291350Y316150D02*X292850D01*
X291350Y318150D02*Y314150D01*
X292150Y316150D02*X293350Y314150D01*
X294550Y317650D02*X295050Y318150D01*
X296050D01*
X296550Y317650D01*
X296050Y314150D02*X296550Y314650D01*
X295050Y314150D02*X296050D01*
X294550Y314650D02*X295050Y314150D01*
Y316350D02*X296050D01*
X296550Y317650D02*Y316850D01*
Y315850D02*Y314650D01*
Y315850D02*X296050Y316350D01*
X296550Y316850D02*X296050Y316350D01*
X297750Y317650D02*X298250Y318150D01*
X299750D01*
X300250Y317650D01*
Y316650D01*
X297750Y314150D02*X300250Y316650D01*
X297750Y314150D02*X300250D01*
X324350Y318150D02*Y314150D01*
X325650Y318150D02*X326350Y317450D01*
Y314850D01*
X325650Y314150D02*X326350Y314850D01*
X323850Y314150D02*X325650D01*
X323850Y318150D02*X325650D01*
X327550Y317650D02*X328050Y318150D01*
X329550D01*
X330050Y317650D01*
Y316650D01*
X327550Y314150D02*X330050Y316650D01*
X327550Y314150D02*X330050D01*
X331250Y314650D02*X331750Y314150D01*
X331250Y315450D02*Y314650D01*
Y315450D02*X331950Y316150D01*
X332550D01*
X333250Y315450D01*
Y314650D01*
X332750Y314150D02*X333250Y314650D01*
X331750Y314150D02*X332750D01*
X331250Y316850D02*X331950Y316150D01*
X331250Y317650D02*Y316850D01*
Y317650D02*X331750Y318150D01*
X332750D01*
X333250Y317650D01*
Y316850D01*
X332550Y316150D02*X333250Y316850D01*
X291850Y311150D02*X293850D01*
X294350Y310650D01*
Y309650D01*
X293850Y309150D02*X294350Y309650D01*
X292350Y309150D02*X293850D01*
X292350Y311150D02*Y307150D01*
X293150Y309150D02*X294350Y307150D01*
X295550Y310650D02*X296050Y311150D01*
X297050D01*
X297550Y310650D01*
X297050Y307150D02*X297550Y307650D01*
X296050Y307150D02*X297050D01*
X295550Y307650D02*X296050Y307150D01*
Y309350D02*X297050D01*
X297550Y310650D02*Y309850D01*
Y308850D02*Y307650D01*
Y308850D02*X297050Y309350D01*
X297550Y309850D02*X297050Y309350D01*
X298750Y310350D02*X299550Y311150D01*
Y307150D01*
X298750D02*X300250D01*
X324350Y311150D02*Y307150D01*
X325650Y311150D02*X326350Y310450D01*
Y307850D01*
X325650Y307150D02*X326350Y307850D01*
X323850Y307150D02*X325650D01*
X323850Y311150D02*X325650D01*
X327550Y310650D02*X328050Y311150D01*
X329550D01*
X330050Y310650D01*
Y309650D01*
X327550Y307150D02*X330050Y309650D01*
X327550Y307150D02*X330050D01*
X331750D02*X333750Y311150D01*
X331250D02*X333750D01*
X309850Y202150D02*X311850D01*
X312350Y201650D01*
Y200650D01*
X311850Y200150D02*X312350Y200650D01*
X310350Y200150D02*X311850D01*
X310350Y202150D02*Y198150D01*
X311150Y200150D02*X312350Y198150D01*
X313550Y201650D02*X314050Y202150D01*
X315550D01*
X316050Y201650D01*
Y200650D01*
X313550Y198150D02*X316050Y200650D01*
X313550Y198150D02*X316050D01*
X317250Y201650D02*X317750Y202150D01*
X319250D01*
X319750Y201650D01*
Y200650D01*
X317250Y198150D02*X319750Y200650D01*
X317250Y198150D02*X319750D01*
X331350Y202150D02*Y198150D01*
X332650Y202150D02*X333350Y201450D01*
Y198850D01*
X332650Y198150D02*X333350Y198850D01*
X330850Y198150D02*X332650D01*
X330850Y202150D02*X332650D01*
X334550Y201350D02*X335350Y202150D01*
Y198150D01*
X334550D02*X336050D01*
X337750D02*X339750Y202150D01*
X337250D02*X339750D01*
X296350D02*Y198150D01*
X297650Y202150D02*X298350Y201450D01*
Y198850D01*
X297650Y198150D02*X298350Y198850D01*
X295850Y198150D02*X297650D01*
X295850Y202150D02*X297650D01*
X299550Y201350D02*X300350Y202150D01*
Y198150D01*
X299550D02*X301050D01*
X302250Y198650D02*X302750Y198150D01*
X302250Y199450D02*Y198650D01*
Y199450D02*X302950Y200150D01*
X303550D01*
X304250Y199450D01*
Y198650D01*
X303750Y198150D02*X304250Y198650D01*
X302750Y198150D02*X303750D01*
X302250Y200850D02*X302950Y200150D01*
X302250Y201650D02*Y200850D01*
Y201650D02*X302750Y202150D01*
X303750D01*
X304250Y201650D01*
Y200850D01*
X303550Y200150D02*X304250Y200850D01*
X350850Y197380D02*X352390D01*
X352775Y196995D01*
Y196225D01*
X352390Y195840D02*X352775Y196225D01*
X351235Y195840D02*X352390D01*
X351235Y197380D02*Y194300D01*
X351851Y195840D02*X352775Y194300D01*
X353699Y196995D02*X354084Y197380D01*
X355239D01*
X355624Y196995D01*
Y196225D01*
X353699Y194300D02*X355624Y196225D01*
X353699Y194300D02*X355624D01*
X356548Y196764D02*X357164Y197380D01*
Y194300D01*
X356548D02*X357703D01*
X373850Y201380D02*X375390D01*
X375775Y200995D01*
Y200225D01*
X375390Y199840D02*X375775Y200225D01*
X374235Y199840D02*X375390D01*
X374235Y201380D02*Y198300D01*
X374851Y199840D02*X375775Y198300D01*
X376699Y200995D02*X377084Y201380D01*
X377854D01*
X378239Y200995D01*
X377854Y198300D02*X378239Y198685D01*
X377084Y198300D02*X377854D01*
X376699Y198685D02*X377084Y198300D01*
Y199994D02*X377854D01*
X378239Y200995D02*Y200379D01*
Y199609D02*Y198685D01*
Y199609D02*X377854Y199994D01*
X378239Y200379D02*X377854Y199994D01*
X379163Y198685D02*X379548Y198300D01*
X379163Y200995D02*Y198685D01*
Y200995D02*X379548Y201380D01*
X380318D01*
X380703Y200995D01*
Y198685D01*
X380318Y198300D02*X380703Y198685D01*
X379548Y198300D02*X380318D01*
X379163Y199070D02*X380703Y200610D01*
X411850Y201380D02*X413390D01*
X413775Y200995D01*
Y200225D01*
X413390Y199840D02*X413775Y200225D01*
X412235Y199840D02*X413390D01*
X412235Y201380D02*Y198300D01*
X412851Y199840D02*X413775Y198300D01*
X414699Y200995D02*X415084Y201380D01*
X416239D01*
X416624Y200995D01*
Y200225D01*
X414699Y198300D02*X416624Y200225D01*
X414699Y198300D02*X416624D01*
X417933D02*X419088Y199840D01*
Y200995D02*Y199840D01*
X418703Y201380D02*X419088Y200995D01*
X417933Y201380D02*X418703D01*
X417548Y200995D02*X417933Y201380D01*
X417548Y200995D02*Y200225D01*
X417933Y199840D01*
X419088D01*
X399235Y201380D02*Y198300D01*
X400236Y201380D02*X400775Y200841D01*
Y198839D01*
X400236Y198300D02*X400775Y198839D01*
X398850Y198300D02*X400236D01*
X398850Y201380D02*X400236D01*
X401699Y200995D02*X402084Y201380D01*
X403239D01*
X403624Y200995D01*
Y200225D01*
X401699Y198300D02*X403624Y200225D01*
X401699Y198300D02*X403624D01*
X404548Y201380D02*X406088D01*
X404548D02*Y199840D01*
X404933Y200225D01*
X405703D01*
X406088Y199840D01*
Y198685D01*
X405703Y198300D02*X406088Y198685D01*
X404933Y198300D02*X405703D01*
X404548Y198685D02*X404933Y198300D01*
X361235Y201380D02*Y198300D01*
X362236Y201380D02*X362775Y200841D01*
Y198839D01*
X362236Y198300D02*X362775Y198839D01*
X360850Y198300D02*X362236D01*
X360850Y201380D02*X362236D01*
X363699Y200995D02*X364084Y201380D01*
X365239D01*
X365624Y200995D01*
Y200225D01*
X363699Y198300D02*X365624Y200225D01*
X363699Y198300D02*X365624D01*
X367703Y201380D02*X368088Y200995D01*
X366933Y201380D02*X367703D01*
X366548Y200995D02*X366933Y201380D01*
X366548Y200995D02*Y198685D01*
X366933Y198300D01*
X367703Y199994D02*X368088Y199609D01*
X366548Y199994D02*X367703D01*
X366933Y198300D02*X367703D01*
X368088Y198685D01*
Y199609D02*Y198685D01*
X384850Y361380D02*X386390D01*
X386775Y360995D01*
Y360225D01*
X386390Y359840D02*X386775Y360225D01*
X385235Y359840D02*X386390D01*
X385235Y361380D02*Y358300D01*
X385851Y359840D02*X386775Y358300D01*
X387699Y360764D02*X388315Y361380D01*
Y358300D01*
X387699D02*X388854D01*
X390163D02*X391318Y359840D01*
Y360995D02*Y359840D01*
X390933Y361380D02*X391318Y360995D01*
X390163Y361380D02*X390933D01*
X389778Y360995D02*X390163Y361380D01*
X389778Y360995D02*Y360225D01*
X390163Y359840D01*
X391318D01*
X340550Y317150D02*X341850D01*
X339850Y317850D02*X340550Y317150D01*
X339850Y320450D02*Y317850D01*
Y320450D02*X340550Y321150D01*
X341850D01*
X343550Y317150D02*X345550Y321150D01*
X343050D02*X345550D01*
X295000Y344000D02*Y340500D01*
X295500Y340000D01*
X296500D01*
X297000Y340500D01*
Y344000D02*Y340500D01*
X298200Y341500D02*X300200Y344000D01*
X298200Y341500D02*X300700D01*
X300200Y344000D02*Y340000D01*
X346850Y354150D02*X348850D01*
X349350Y353650D01*
Y352650D01*
X348850Y352150D02*X349350Y352650D01*
X347350Y352150D02*X348850D01*
X347350Y354150D02*Y350150D01*
X348150Y352150D02*X349350Y350150D01*
X350550Y353350D02*X351350Y354150D01*
Y350150D01*
X350550D02*X352050D01*
X353250Y350650D02*X353750Y350150D01*
X353250Y351450D02*Y350650D01*
Y351450D02*X353950Y352150D01*
X354550D01*
X355250Y351450D01*
Y350650D01*
X354750Y350150D02*X355250Y350650D01*
X353750Y350150D02*X354750D01*
X353250Y352850D02*X353950Y352150D01*
X353250Y353650D02*Y352850D01*
Y353650D02*X353750Y354150D01*
X354750D01*
X355250Y353650D01*
Y352850D01*
X354550Y352150D02*X355250Y352850D01*
X376000Y345000D02*Y341500D01*
X376500Y341000D01*
X377500D01*
X378000Y341500D01*
Y345000D02*Y341500D01*
X379200D02*X379700Y341000D01*
X379200Y342300D02*Y341500D01*
Y342300D02*X379900Y343000D01*
X380500D01*
X381200Y342300D01*
Y341500D01*
X380700Y341000D02*X381200Y341500D01*
X379700Y341000D02*X380700D01*
X379200Y343700D02*X379900Y343000D01*
X379200Y344500D02*Y343700D01*
Y344500D02*X379700Y345000D01*
X380700D01*
X381200Y344500D01*
Y343700D01*
X380500Y343000D02*X381200Y343700D01*
X368350Y354150D02*Y350150D01*
X369650Y354150D02*X370350Y353450D01*
Y350850D01*
X369650Y350150D02*X370350Y350850D01*
X367850Y350150D02*X369650D01*
X367850Y354150D02*X369650D01*
X371550Y353350D02*X372350Y354150D01*
Y350150D01*
X371550D02*X373050D01*
X374250Y354150D02*X376250D01*
X374250D02*Y352150D01*
X374750Y352650D01*
X375750D01*
X376250Y352150D01*
Y350650D01*
X375750Y350150D02*X376250Y350650D01*
X374750Y350150D02*X375750D01*
X374250Y350650D02*X374750Y350150D01*
X419850Y302850D02*Y301550D01*
X419150Y300850D02*X419850Y301550D01*
X416550Y300850D02*X419150D01*
X416550D02*X415850Y301550D01*
Y302850D02*Y301550D01*
Y306050D02*Y304050D01*
X417850D01*
X417350Y304550D01*
Y305550D02*Y304550D01*
Y305550D02*X417850Y306050D01*
X419350D01*
X419850Y305550D02*X419350Y306050D01*
X419850Y305550D02*Y304550D01*
X419350Y304050D02*X419850Y304550D01*
X402350Y301150D02*Y297150D01*
X403650Y301150D02*X404350Y300450D01*
Y297850D01*
X403650Y297150D02*X404350Y297850D01*
X401850Y297150D02*X403650D01*
X401850Y301150D02*X403650D01*
X405550Y298650D02*X407550Y301150D01*
X405550Y298650D02*X408050D01*
X407550Y301150D02*Y297150D01*
X401350Y331150D02*Y327150D01*
X402650Y331150D02*X403350Y330450D01*
Y327850D01*
X402650Y327150D02*X403350Y327850D01*
X400850Y327150D02*X402650D01*
X400850Y331150D02*X402650D01*
X404550Y330650D02*X405050Y331150D01*
X406550D01*
X407050Y330650D01*
Y329650D01*
X404550Y327150D02*X407050Y329650D01*
X404550Y327150D02*X407050D01*
X400850Y320150D02*X402850D01*
X403350Y319650D01*
Y318650D01*
X402850Y318150D02*X403350Y318650D01*
X401350Y318150D02*X402850D01*
X401350Y320150D02*Y316150D01*
X402150Y318150D02*X403350Y316150D01*
X404550Y319650D02*X405050Y320150D01*
X406050D01*
X406550Y319650D01*
X406050Y316150D02*X406550Y316650D01*
X405050Y316150D02*X406050D01*
X404550Y316650D02*X405050Y316150D01*
Y318350D02*X406050D01*
X406550Y319650D02*Y318850D01*
Y317850D02*Y316650D01*
Y317850D02*X406050Y318350D01*
X406550Y318850D02*X406050Y318350D01*
X419850Y336850D02*Y335550D01*
X419150Y334850D02*X419850Y335550D01*
X416550Y334850D02*X419150D01*
X416550D02*X415850Y335550D01*
Y336850D02*Y335550D01*
Y339550D02*X416350Y340050D01*
X415850Y339550D02*Y338550D01*
X416350Y338050D02*X415850Y338550D01*
X416350Y338050D02*X419350D01*
X419850Y338550D01*
X417650Y339550D02*X418150Y340050D01*
X417650Y339550D02*Y338050D01*
X419850Y339550D02*Y338550D01*
Y339550D02*X419350Y340050D01*
X418150D02*X419350D01*
X414850Y354150D02*X416850D01*
X417350Y353650D01*
Y352650D01*
X416850Y352150D02*X417350Y352650D01*
X415350Y352150D02*X416850D01*
X415350Y354150D02*Y350150D01*
X416150Y352150D02*X417350Y350150D01*
X418550Y353650D02*X419050Y354150D01*
X420550D01*
X421050Y353650D01*
Y352650D01*
X418550Y350150D02*X421050Y352650D01*
X418550Y350150D02*X421050D01*
X422250Y350650D02*X422750Y350150D01*
X422250Y353650D02*Y350650D01*
Y353650D02*X422750Y354150D01*
X423750D01*
X424250Y353650D01*
Y350650D01*
X423750Y350150D02*X424250Y350650D01*
X422750Y350150D02*X423750D01*
X422250Y351150D02*X424250Y353150D01*
X402350Y354150D02*Y350150D01*
X403650Y354150D02*X404350Y353450D01*
Y350850D01*
X403650Y350150D02*X404350Y350850D01*
X401850Y350150D02*X403650D01*
X401850Y354150D02*X403650D01*
X405550Y353350D02*X406350Y354150D01*
Y350150D01*
X405550D02*X407050D01*
X409750Y354150D02*X410250Y353650D01*
X408750Y354150D02*X409750D01*
X408250Y353650D02*X408750Y354150D01*
X408250Y353650D02*Y350650D01*
X408750Y350150D01*
X409750Y352350D02*X410250Y351850D01*
X408250Y352350D02*X409750D01*
X408750Y350150D02*X409750D01*
X410250Y350650D01*
Y351850D02*Y350650D01*
X284000Y225000D02*Y221500D01*
X284500Y221000D01*
X285500D01*
X286000Y221500D01*
Y225000D02*Y221500D01*
X287200Y225000D02*X289200D01*
X287200D02*Y223000D01*
X287700Y223500D01*
X288700D01*
X289200Y223000D01*
Y221500D01*
X288700Y221000D02*X289200Y221500D01*
X287700Y221000D02*X288700D01*
X287200Y221500D02*X287700Y221000D01*
X247850Y202150D02*X249850D01*
X250350Y201650D01*
Y200650D01*
X249850Y200150D02*X250350Y200650D01*
X248350Y200150D02*X249850D01*
X248350Y202150D02*Y198150D01*
X249150Y200150D02*X250350Y198150D01*
X251550Y201650D02*X252050Y202150D01*
X253550D01*
X254050Y201650D01*
Y200650D01*
X251550Y198150D02*X254050Y200650D01*
X251550Y198150D02*X254050D01*
X255250Y199650D02*X257250Y202150D01*
X255250Y199650D02*X257750D01*
X257250Y202150D02*Y198150D01*
X229350Y202150D02*Y198150D01*
X230650Y202150D02*X231350Y201450D01*
Y198850D01*
X230650Y198150D02*X231350Y198850D01*
X228850Y198150D02*X230650D01*
X228850Y202150D02*X230650D01*
X232550Y201650D02*X233050Y202150D01*
X234550D01*
X235050Y201650D01*
Y200650D01*
X232550Y198150D02*X235050Y200650D01*
X232550Y198150D02*X235050D01*
X236250Y198650D02*X236750Y198150D01*
X236250Y201650D02*Y198650D01*
Y201650D02*X236750Y202150D01*
X237750D01*
X238250Y201650D01*
Y198650D01*
X237750Y198150D02*X238250Y198650D01*
X236750Y198150D02*X237750D01*
X236250Y199150D02*X238250Y201150D01*
X282850Y196380D02*X284390D01*
X284775Y195995D01*
Y195225D01*
X284390Y194840D02*X284775Y195225D01*
X283235Y194840D02*X284390D01*
X283235Y196380D02*Y193300D01*
X283851Y194840D02*X284775Y193300D01*
X285699Y195995D02*X286084Y196380D01*
X287239D01*
X287624Y195995D01*
Y195225D01*
X285699Y193300D02*X287624Y195225D01*
X285699Y193300D02*X287624D01*
X288548Y195995D02*X288933Y196380D01*
X289703D01*
X290088Y195995D01*
X289703Y193300D02*X290088Y193685D01*
X288933Y193300D02*X289703D01*
X288548Y193685D02*X288933Y193300D01*
Y194994D02*X289703D01*
X290088Y195995D02*Y195379D01*
Y194609D02*Y193685D01*
Y194609D02*X289703Y194994D01*
X290088Y195379D02*X289703Y194994D01*
X263350Y202150D02*Y198150D01*
X264650Y202150D02*X265350Y201450D01*
Y198850D01*
X264650Y198150D02*X265350Y198850D01*
X262850Y198150D02*X264650D01*
X262850Y202150D02*X264650D01*
X266550Y201350D02*X267350Y202150D01*
Y198150D01*
X266550D02*X268050D01*
X269750D02*X271250Y200150D01*
Y201650D02*Y200150D01*
X270750Y202150D02*X271250Y201650D01*
X269750Y202150D02*X270750D01*
X269250Y201650D02*X269750Y202150D01*
X269250Y201650D02*Y200650D01*
X269750Y200150D01*
X271250D01*
X303850Y254150D02*X305850D01*
X306350Y253650D01*
Y252650D01*
X305850Y252150D02*X306350Y252650D01*
X304350Y252150D02*X305850D01*
X304350Y254150D02*Y250150D01*
X305150Y252150D02*X306350Y250150D01*
X307550Y253650D02*X308050Y254150D01*
X309550D01*
X310050Y253650D01*
Y252650D01*
X307550Y250150D02*X310050Y252650D01*
X307550Y250150D02*X310050D01*
X303850Y235150D02*X305850D01*
X306350Y234650D01*
Y233650D01*
X305850Y233150D02*X306350Y233650D01*
X304350Y233150D02*X305850D01*
X304350Y235150D02*Y231150D01*
X305150Y233150D02*X306350Y231150D01*
X307550Y234350D02*X308350Y235150D01*
Y231150D01*
X307550D02*X309050D01*
X172850Y202150D02*X174850D01*
X175350Y201650D01*
Y200650D01*
X174850Y200150D02*X175350Y200650D01*
X173350Y200150D02*X174850D01*
X173350Y202150D02*Y198150D01*
X174150Y200150D02*X175350Y198150D01*
X176550Y201650D02*X177050Y202150D01*
X178550D01*
X179050Y201650D01*
Y200650D01*
X176550Y198150D02*X179050Y200650D01*
X176550Y198150D02*X179050D01*
X181750Y202150D02*X182250Y201650D01*
X180750Y202150D02*X181750D01*
X180250Y201650D02*X180750Y202150D01*
X180250Y201650D02*Y198650D01*
X180750Y198150D01*
X181750Y200350D02*X182250Y199850D01*
X180250Y200350D02*X181750D01*
X180750Y198150D02*X181750D01*
X182250Y198650D01*
Y199850D02*Y198650D01*
X214850Y198380D02*X216390D01*
X216775Y197995D01*
Y197225D01*
X216390Y196840D02*X216775Y197225D01*
X215235Y196840D02*X216390D01*
X215235Y198380D02*Y195300D01*
X215851Y196840D02*X216775Y195300D01*
X217699Y197995D02*X218084Y198380D01*
X219239D01*
X219624Y197995D01*
Y197225D01*
X217699Y195300D02*X219624Y197225D01*
X217699Y195300D02*X219624D01*
X220548Y198380D02*X222088D01*
X220548D02*Y196840D01*
X220933Y197225D01*
X221703D01*
X222088Y196840D01*
Y195685D01*
X221703Y195300D02*X222088Y195685D01*
X220933Y195300D02*X221703D01*
X220548Y195685D02*X220933Y195300D01*
X189350Y202150D02*Y198150D01*
X190650Y202150D02*X191350Y201450D01*
Y198850D01*
X190650Y198150D02*X191350Y198850D01*
X188850Y198150D02*X190650D01*
X188850Y202150D02*X190650D01*
X192550Y201650D02*X193050Y202150D01*
X194550D01*
X195050Y201650D01*
Y200650D01*
X192550Y198150D02*X195050Y200650D01*
X192550Y198150D02*X195050D01*
X196250Y201350D02*X197050Y202150D01*
Y198150D01*
X196250D02*X197750D01*
X195550Y233150D02*X196850D01*
X194850Y233850D02*X195550Y233150D01*
X194850Y236450D02*Y233850D01*
Y236450D02*X195550Y237150D01*
X196850D01*
X198050Y236350D02*X198850Y237150D01*
Y233150D01*
X198050D02*X199550D01*
X200750Y237150D02*X202750D01*
X200750D02*Y235150D01*
X201250Y235650D01*
X202250D01*
X202750Y235150D01*
Y233650D01*
X202250Y233150D02*X202750Y233650D01*
X201250Y233150D02*X202250D01*
X200750Y233650D02*X201250Y233150D01*
X363389Y210300D02*X364390D01*
X362850Y210839D02*X363389Y210300D01*
X362850Y212841D02*Y210839D01*
Y212841D02*X363389Y213380D01*
X364390D01*
X365314Y210685D02*X365699Y210300D01*
X365314Y211301D02*Y210685D01*
Y211301D02*X365853Y211840D01*
X366315D01*
X366854Y211301D01*
Y210685D01*
X366469Y210300D02*X366854Y210685D01*
X365699Y210300D02*X366469D01*
X365314Y212379D02*X365853Y211840D01*
X365314Y212995D02*Y212379D01*
Y212995D02*X365699Y213380D01*
X366469D01*
X366854Y212995D01*
Y212379D01*
X366315Y211840D02*X366854Y212379D01*
X319350Y254150D02*Y250150D01*
X320650Y254150D02*X321350Y253450D01*
Y250850D01*
X320650Y250150D02*X321350Y250850D01*
X318850Y250150D02*X320650D01*
X318850Y254150D02*X320650D01*
X322550Y253350D02*X323350Y254150D01*
Y250150D01*
X322550D02*X324050D01*
X315350Y235150D02*Y231150D01*
X316650Y235150D02*X317350Y234450D01*
Y231850D01*
X316650Y231150D02*X317350Y231850D01*
X314850Y231150D02*X316650D01*
X314850Y235150D02*X316650D01*
X318550Y234650D02*X319050Y235150D01*
X320050D01*
X320550Y234650D01*
X320050Y231150D02*X320550Y231650D01*
X319050Y231150D02*X320050D01*
X318550Y231650D02*X319050Y231150D01*
Y233350D02*X320050D01*
X320550Y234650D02*Y233850D01*
Y232850D02*Y231650D01*
Y232850D02*X320050Y233350D01*
X320550Y233850D02*X320050Y233350D01*
X337550Y254150D02*X338850D01*
X336850Y254850D02*X337550Y254150D01*
X336850Y257450D02*Y254850D01*
Y257450D02*X337550Y258150D01*
X338850D01*
X340050Y257350D02*X340850Y258150D01*
Y254150D01*
X340050D02*X341550D01*
X343250D02*X345250Y258150D01*
X342750D02*X345250D01*
X419850Y234850D02*Y233550D01*
X419150Y232850D02*X419850Y233550D01*
X416550Y232850D02*X419150D01*
X416550D02*X415850Y233550D01*
Y234850D02*Y233550D01*
X416350Y236050D02*X415850Y236550D01*
Y237550D02*Y236550D01*
Y237550D02*X416350Y238050D01*
X419850Y237550D02*X419350Y238050D01*
X419850Y237550D02*Y236550D01*
X419350Y236050D02*X419850Y236550D01*
X417650Y237550D02*Y236550D01*
X416350Y238050D02*X417150D01*
X418150D02*X419350D01*
X418150D02*X417650Y237550D01*
X417150Y238050D02*X417650Y237550D01*
X421850Y251850D02*Y250550D01*
X421150Y249850D02*X421850Y250550D01*
X418550Y249850D02*X421150D01*
X418550D02*X417850Y250550D01*
Y251850D02*Y250550D01*
X420350Y253050D02*X417850Y255050D01*
X420350Y255550D02*Y253050D01*
X417850Y255050D02*X421850D01*
X394850Y287150D02*X396850D01*
X397350Y286650D01*
Y285650D01*
X396850Y285150D02*X397350Y285650D01*
X395350Y285150D02*X396850D01*
X395350Y287150D02*Y283150D01*
X396150Y285150D02*X397350Y283150D01*
X398550Y284650D02*X400550Y287150D01*
X398550Y284650D02*X401050D01*
X400550Y287150D02*Y283150D01*
X401850Y254150D02*X403850D01*
X404350Y253650D01*
Y252650D01*
X403850Y252150D02*X404350Y252650D01*
X402350Y252150D02*X403850D01*
X402350Y254150D02*Y250150D01*
X403150Y252150D02*X404350Y250150D01*
X405550Y254150D02*X407550D01*
X405550D02*Y252150D01*
X406050Y252650D01*
X407050D01*
X407550Y252150D01*
Y250650D01*
X407050Y250150D02*X407550Y250650D01*
X406050Y250150D02*X407050D01*
X405550Y250650D02*X406050Y250150D01*
X403350Y263150D02*Y259150D01*
X404650Y263150D02*X405350Y262450D01*
Y259850D01*
X404650Y259150D02*X405350Y259850D01*
X402850Y259150D02*X404650D01*
X402850Y263150D02*X404650D01*
X406550D02*X408550D01*
X406550D02*Y261150D01*
X407050Y261650D01*
X408050D01*
X408550Y261150D01*
Y259650D01*
X408050Y259150D02*X408550Y259650D01*
X407050Y259150D02*X408050D01*
X406550Y259650D02*X407050Y259150D01*
X398000Y274000D02*Y270500D01*
X398500Y270000D01*
X399500D01*
X400000Y270500D01*
Y274000D02*Y270500D01*
X401700Y270000D02*X403700Y274000D01*
X401200D02*X403700D01*
X401850Y218150D02*X403850D01*
X404350Y217650D01*
Y216650D01*
X403850Y216150D02*X404350Y216650D01*
X402350Y216150D02*X403850D01*
X402350Y218150D02*Y214150D01*
X403150Y216150D02*X404350Y214150D01*
X407050Y218150D02*X407550Y217650D01*
X406050Y218150D02*X407050D01*
X405550Y217650D02*X406050Y218150D01*
X405550Y217650D02*Y214650D01*
X406050Y214150D01*
X407050Y216350D02*X407550Y215850D01*
X405550Y216350D02*X407050D01*
X406050Y214150D02*X407050D01*
X407550Y214650D01*
Y215850D02*Y214650D01*
X391000Y221010D02*Y217545D01*
X391495Y217050D01*
X392485D01*
X392980Y217545D01*
Y221010D02*Y217545D01*
X394663Y217050D02*X396148Y219030D01*
Y220515D02*Y219030D01*
X395653Y221010D02*X396148Y220515D01*
X394663Y221010D02*X395653D01*
X394168Y220515D02*X394663Y221010D01*
X394168Y220515D02*Y219525D01*
X394663Y219030D01*
X396148D01*
X408850Y233350D02*X412850D01*
X408850Y234650D02*X409550Y235350D01*
X412150D01*
X412850Y234650D02*X412150Y235350D01*
X412850Y234650D02*Y232850D01*
X408850Y234650D02*Y232850D01*
Y238050D02*X409350Y238550D01*
X408850Y238050D02*Y237050D01*
X409350Y236550D02*X408850Y237050D01*
X409350Y236550D02*X412350D01*
X412850Y237050D01*
X410650Y238050D02*X411150Y238550D01*
X410650Y238050D02*Y236550D01*
X412850Y238050D02*Y237050D01*
Y238050D02*X412350Y238550D01*
X411150D02*X412350D01*
X389389Y243300D02*X390390D01*
X388850Y243839D02*X389389Y243300D01*
X388850Y245841D02*Y243839D01*
Y245841D02*X389389Y246380D01*
X390390D01*
X391314Y245764D02*X391930Y246380D01*
Y243300D01*
X391314D02*X392469D01*
X394548Y246380D02*X394933Y245995D01*
X393778Y246380D02*X394548D01*
X393393Y245995D02*X393778Y246380D01*
X393393Y245995D02*Y243685D01*
X393778Y243300D01*
X394548Y244994D02*X394933Y244609D01*
X393393Y244994D02*X394548D01*
X393778Y243300D02*X394548D01*
X394933Y243685D01*
Y244609D02*Y243685D01*
X172850Y354150D02*X174850D01*
X175350Y353650D01*
Y352650D01*
X174850Y352150D02*X175350Y352650D01*
X173350Y352150D02*X174850D01*
X173350Y354150D02*Y350150D01*
X174150Y352150D02*X175350Y350150D01*
X176550Y353350D02*X177350Y354150D01*
Y350150D01*
X176550D02*X178050D01*
X179250Y353650D02*X179750Y354150D01*
X180750D01*
X181250Y353650D01*
X180750Y350150D02*X181250Y350650D01*
X179750Y350150D02*X180750D01*
X179250Y350650D02*X179750Y350150D01*
Y352350D02*X180750D01*
X181250Y353650D02*Y352850D01*
Y351850D02*Y350650D01*
Y351850D02*X180750Y352350D01*
X181250Y352850D02*X180750Y352350D01*
X189350Y354150D02*Y350150D01*
X190650Y354150D02*X191350Y353450D01*
Y350850D01*
X190650Y350150D02*X191350Y350850D01*
X188850Y350150D02*X190650D01*
X188850Y354150D02*X190650D01*
X192550Y353350D02*X193350Y354150D01*
Y350150D01*
X192550D02*X194050D01*
X195250Y350650D02*X195750Y350150D01*
X195250Y353650D02*Y350650D01*
Y353650D02*X195750Y354150D01*
X196750D01*
X197250Y353650D01*
Y350650D01*
X196750Y350150D02*X197250Y350650D01*
X195750Y350150D02*X196750D01*
X195250Y351150D02*X197250Y353150D01*
X175850Y326850D02*Y324850D01*
Y326850D02*X176350Y327350D01*
X177350D01*
X177850Y326850D02*X177350Y327350D01*
X177850Y326850D02*Y325350D01*
X175850D02*X179850D01*
X177850Y326150D02*X179850Y327350D01*
X176650Y328550D02*X175850Y329350D01*
X179850D01*
Y330050D02*Y328550D01*
X179350Y331250D02*X179850Y331750D01*
X176350Y331250D02*X179350D01*
X176350D02*X175850Y331750D01*
Y332750D02*Y331750D01*
Y332750D02*X176350Y333250D01*
X179350D01*
X179850Y332750D02*X179350Y333250D01*
X179850Y332750D02*Y331750D01*
X178850Y331250D02*X176850Y333250D01*
X210850Y354150D02*X212850D01*
X213350Y353650D01*
Y352650D01*
X212850Y352150D02*X213350Y352650D01*
X211350Y352150D02*X212850D01*
X211350Y354150D02*Y350150D01*
X212150Y352150D02*X213350Y350150D01*
X214550Y353350D02*X215350Y354150D01*
Y350150D01*
X214550D02*X216050D01*
X217250Y351650D02*X219250Y354150D01*
X217250Y351650D02*X219750D01*
X219250Y354150D02*Y350150D01*
X229350Y354150D02*Y350150D01*
X230650Y354150D02*X231350Y353450D01*
Y350850D01*
X230650Y350150D02*X231350Y350850D01*
X228850Y350150D02*X230650D01*
X228850Y354150D02*X230650D01*
X232550Y353350D02*X233350Y354150D01*
Y350150D01*
X232550D02*X234050D01*
X235250Y353350D02*X236050Y354150D01*
Y350150D01*
X235250D02*X236750D01*
M02*
