G04 start of page 10 for group -3984 idx -3984 *
G04 Title: joystick-board, fab *
G04 Creator: pcb 20140316 *
G04 CreationDate: Mon 11 Dec 2017 05:03:33 PM GMT UTC *
G04 For: brian *
G04 Format: Gerber/RS-274X *
G04 PCB-Dimensions (mil): 6000.00 5000.00 *
G04 PCB-Coordinate-Origin: lower left *
%MOIN*%
%FSLAX25Y25*%
%LNFAB*%
%ADD78C,0.0100*%
%ADD77C,0.0075*%
%ADD76C,0.0060*%
%ADD75R,0.0080X0.0080*%
G54D75*X444400Y367600D02*X447600D01*
X444400D02*Y364400D01*
X447600D01*
Y367600D02*Y364400D01*
X444400Y187600D02*X447600D01*
X444400D02*Y184400D01*
X447600D01*
Y187600D02*Y184400D01*
X59400Y187600D02*X62600D01*
X59400D02*Y184400D01*
X62600D01*
Y187600D02*Y184400D01*
X59400Y367600D02*X62600D01*
X59400D02*Y364400D01*
X62600D01*
Y367600D02*Y364400D01*
X59400Y277600D02*X62600D01*
X59400D02*Y274400D01*
X62600D01*
Y277600D02*Y274400D01*
X13400Y512850D02*X16600D01*
X13400D02*Y509650D01*
X16600D01*
Y512850D02*Y509650D01*
G54D76*X135000Y513500D02*X136500Y510500D01*
X138000Y513500D01*
X136500Y510500D02*Y507500D01*
X139800Y510800D02*X142050D01*
X139800Y507500D02*X142800D01*
X139800Y513500D02*Y507500D01*
Y513500D02*X142800D01*
X147600D02*X148350Y512750D01*
X145350Y513500D02*X147600D01*
X144600Y512750D02*X145350Y513500D01*
X144600Y512750D02*Y511250D01*
X145350Y510500D01*
X147600D01*
X148350Y509750D01*
Y508250D01*
X147600Y507500D02*X148350Y508250D01*
X145350Y507500D02*X147600D01*
X144600Y508250D02*X145350Y507500D01*
X98000Y513500D02*X101000D01*
X98000D02*Y510500D01*
X98750Y511250D01*
X100250D01*
X101000Y510500D01*
Y508250D01*
X100250Y507500D02*X101000Y508250D01*
X98750Y507500D02*X100250D01*
X98000Y508250D02*X98750Y507500D01*
X45000Y508250D02*X45750Y507500D01*
X45000Y512750D02*Y508250D01*
Y512750D02*X45750Y513500D01*
X47250D01*
X48000Y512750D01*
Y508250D01*
X47250Y507500D02*X48000Y508250D01*
X45750Y507500D02*X47250D01*
X45000Y509000D02*X48000Y512000D01*
X49800Y507500D02*X50550D01*
X52350Y512300D02*X53550Y513500D01*
Y507500D01*
X52350D02*X54600D01*
X56400Y512750D02*X57150Y513500D01*
X59400D01*
X60150Y512750D01*
Y511250D01*
X56400Y507500D02*X60150Y511250D01*
X56400Y507500D02*X60150D01*
X62700D02*X64950Y510500D01*
Y512750D02*Y510500D01*
X64200Y513500D02*X64950Y512750D01*
X62700Y513500D02*X64200D01*
X61950Y512750D02*X62700Y513500D01*
X61950Y512750D02*Y511250D01*
X62700Y510500D01*
X64950D01*
X359200Y275000D02*G75*G03X360800Y275000I800J0D01*G01*
G75*G03X359200Y275000I-800J0D01*G01*
X369200D02*G75*G03X370800Y275000I800J0D01*G01*
G75*G03X369200Y275000I-800J0D01*G01*
X359200Y236000D02*G75*G03X360800Y236000I800J0D01*G01*
G75*G03X359200Y236000I-800J0D01*G01*
X369200D02*G75*G03X370800Y236000I800J0D01*G01*
G75*G03X369200Y236000I-800J0D01*G01*
X359200Y314000D02*G75*G03X360800Y314000I800J0D01*G01*
G75*G03X359200Y314000I-800J0D01*G01*
X369200D02*G75*G03X370800Y314000I800J0D01*G01*
G75*G03X369200Y314000I-800J0D01*G01*
X99200Y173000D02*G75*G03X100800Y173000I800J0D01*G01*
G75*G03X99200Y173000I-800J0D01*G01*
Y183000D02*G75*G03X100800Y183000I800J0D01*G01*
G75*G03X99200Y183000I-800J0D01*G01*
X133200Y173000D02*G75*G03X134800Y173000I800J0D01*G01*
G75*G03X133200Y173000I-800J0D01*G01*
Y183000D02*G75*G03X134800Y183000I800J0D01*G01*
G75*G03X133200Y183000I-800J0D01*G01*
X167200Y173000D02*G75*G03X168800Y173000I800J0D01*G01*
G75*G03X167200Y173000I-800J0D01*G01*
Y183000D02*G75*G03X168800Y183000I800J0D01*G01*
G75*G03X167200Y183000I-800J0D01*G01*
X201200Y173000D02*G75*G03X202800Y173000I800J0D01*G01*
G75*G03X201200Y173000I-800J0D01*G01*
Y183000D02*G75*G03X202800Y183000I800J0D01*G01*
G75*G03X201200Y183000I-800J0D01*G01*
X235200Y173000D02*G75*G03X236800Y173000I800J0D01*G01*
G75*G03X235200Y173000I-800J0D01*G01*
Y183000D02*G75*G03X236800Y183000I800J0D01*G01*
G75*G03X235200Y183000I-800J0D01*G01*
X269200Y173000D02*G75*G03X270800Y173000I800J0D01*G01*
G75*G03X269200Y173000I-800J0D01*G01*
Y183000D02*G75*G03X270800Y183000I800J0D01*G01*
G75*G03X269200Y183000I-800J0D01*G01*
X303200Y173000D02*G75*G03X304800Y173000I800J0D01*G01*
G75*G03X303200Y173000I-800J0D01*G01*
Y183000D02*G75*G03X304800Y183000I800J0D01*G01*
G75*G03X303200Y183000I-800J0D01*G01*
X337200Y173000D02*G75*G03X338800Y173000I800J0D01*G01*
G75*G03X337200Y173000I-800J0D01*G01*
Y183000D02*G75*G03X338800Y183000I800J0D01*G01*
G75*G03X337200Y183000I-800J0D01*G01*
X371200Y173000D02*G75*G03X372800Y173000I800J0D01*G01*
G75*G03X371200Y173000I-800J0D01*G01*
Y183000D02*G75*G03X372800Y183000I800J0D01*G01*
G75*G03X371200Y183000I-800J0D01*G01*
X405200Y173000D02*G75*G03X406800Y173000I800J0D01*G01*
G75*G03X405200Y173000I-800J0D01*G01*
Y183000D02*G75*G03X406800Y183000I800J0D01*G01*
G75*G03X405200Y183000I-800J0D01*G01*
X303200Y369000D02*G75*G03X304800Y369000I800J0D01*G01*
G75*G03X303200Y369000I-800J0D01*G01*
Y379000D02*G75*G03X304800Y379000I800J0D01*G01*
G75*G03X303200Y379000I-800J0D01*G01*
X269200Y369000D02*G75*G03X270800Y369000I800J0D01*G01*
G75*G03X269200Y369000I-800J0D01*G01*
Y379000D02*G75*G03X270800Y379000I800J0D01*G01*
G75*G03X269200Y379000I-800J0D01*G01*
X235200Y369000D02*G75*G03X236800Y369000I800J0D01*G01*
G75*G03X235200Y369000I-800J0D01*G01*
Y379000D02*G75*G03X236800Y379000I800J0D01*G01*
G75*G03X235200Y379000I-800J0D01*G01*
X201200Y369000D02*G75*G03X202800Y369000I800J0D01*G01*
G75*G03X201200Y369000I-800J0D01*G01*
Y379000D02*G75*G03X202800Y379000I800J0D01*G01*
G75*G03X201200Y379000I-800J0D01*G01*
X167200Y369000D02*G75*G03X168800Y369000I800J0D01*G01*
G75*G03X167200Y369000I-800J0D01*G01*
Y379000D02*G75*G03X168800Y379000I800J0D01*G01*
G75*G03X167200Y379000I-800J0D01*G01*
X133200Y369000D02*G75*G03X134800Y369000I800J0D01*G01*
G75*G03X133200Y369000I-800J0D01*G01*
Y379000D02*G75*G03X134800Y379000I800J0D01*G01*
G75*G03X133200Y379000I-800J0D01*G01*
X99200Y369000D02*G75*G03X100800Y369000I800J0D01*G01*
G75*G03X99200Y369000I-800J0D01*G01*
Y379000D02*G75*G03X100800Y379000I800J0D01*G01*
G75*G03X99200Y379000I-800J0D01*G01*
X337200Y369000D02*G75*G03X338800Y369000I800J0D01*G01*
G75*G03X337200Y369000I-800J0D01*G01*
Y379000D02*G75*G03X338800Y379000I800J0D01*G01*
G75*G03X337200Y379000I-800J0D01*G01*
X371200Y369000D02*G75*G03X372800Y369000I800J0D01*G01*
G75*G03X371200Y369000I-800J0D01*G01*
Y379000D02*G75*G03X372800Y379000I800J0D01*G01*
G75*G03X371200Y379000I-800J0D01*G01*
X405200Y369000D02*G75*G03X406800Y369000I800J0D01*G01*
G75*G03X405200Y369000I-800J0D01*G01*
Y379000D02*G75*G03X406800Y379000I800J0D01*G01*
G75*G03X405200Y379000I-800J0D01*G01*
X428200Y224000D02*G75*G03X429800Y224000I800J0D01*G01*
G75*G03X428200Y224000I-800J0D01*G01*
X438200D02*G75*G03X439800Y224000I800J0D01*G01*
G75*G03X438200Y224000I-800J0D01*G01*
X448200D02*G75*G03X449800Y224000I800J0D01*G01*
G75*G03X448200Y224000I-800J0D01*G01*
X428200Y258000D02*G75*G03X429800Y258000I800J0D01*G01*
G75*G03X428200Y258000I-800J0D01*G01*
X438200D02*G75*G03X439800Y258000I800J0D01*G01*
G75*G03X438200Y258000I-800J0D01*G01*
X448200D02*G75*G03X449800Y258000I800J0D01*G01*
G75*G03X448200Y258000I-800J0D01*G01*
X428200Y326000D02*G75*G03X429800Y326000I800J0D01*G01*
G75*G03X428200Y326000I-800J0D01*G01*
X438200D02*G75*G03X439800Y326000I800J0D01*G01*
G75*G03X438200Y326000I-800J0D01*G01*
X448200D02*G75*G03X449800Y326000I800J0D01*G01*
G75*G03X448200Y326000I-800J0D01*G01*
X428200Y292000D02*G75*G03X429800Y292000I800J0D01*G01*
G75*G03X428200Y292000I-800J0D01*G01*
X438200D02*G75*G03X439800Y292000I800J0D01*G01*
G75*G03X438200Y292000I-800J0D01*G01*
X448200D02*G75*G03X449800Y292000I800J0D01*G01*
G75*G03X448200Y292000I-800J0D01*G01*
X14200Y526250D02*G75*G03X15800Y526250I800J0D01*G01*
G75*G03X14200Y526250I-800J0D01*G01*
X135000Y528500D02*X136500Y525500D01*
X138000Y528500D01*
X136500Y525500D02*Y522500D01*
X139800Y525800D02*X142050D01*
X139800Y522500D02*X142800D01*
X139800Y528500D02*Y522500D01*
Y528500D02*X142800D01*
X147600D02*X148350Y527750D01*
X145350Y528500D02*X147600D01*
X144600Y527750D02*X145350Y528500D01*
X144600Y527750D02*Y526250D01*
X145350Y525500D01*
X147600D01*
X148350Y524750D01*
Y523250D01*
X147600Y522500D02*X148350Y523250D01*
X145350Y522500D02*X147600D01*
X144600Y523250D02*X145350Y522500D01*
X98000Y528500D02*X101000D01*
X98000D02*Y525500D01*
X98750Y526250D01*
X100250D01*
X101000Y525500D01*
Y523250D01*
X100250Y522500D02*X101000Y523250D01*
X98750Y522500D02*X100250D01*
X98000Y523250D02*X98750Y522500D01*
X102800Y523250D02*X103550Y522500D01*
X102800Y524450D02*Y523250D01*
Y524450D02*X103850Y525500D01*
X104750D01*
X105800Y524450D01*
Y523250D01*
X105050Y522500D02*X105800Y523250D01*
X103550Y522500D02*X105050D01*
X102800Y526550D02*X103850Y525500D01*
X102800Y527750D02*Y526550D01*
Y527750D02*X103550Y528500D01*
X105050D01*
X105800Y527750D01*
Y526550D01*
X104750Y525500D02*X105800Y526550D01*
X45000Y523250D02*X45750Y522500D01*
X45000Y527750D02*Y523250D01*
Y527750D02*X45750Y528500D01*
X47250D01*
X48000Y527750D01*
Y523250D01*
X47250Y522500D02*X48000Y523250D01*
X45750Y522500D02*X47250D01*
X45000Y524000D02*X48000Y527000D01*
X49800Y522500D02*X50550D01*
X52350Y523250D02*X53100Y522500D01*
X52350Y527750D02*Y523250D01*
Y527750D02*X53100Y528500D01*
X54600D01*
X55350Y527750D01*
Y523250D01*
X54600Y522500D02*X55350Y523250D01*
X53100Y522500D02*X54600D01*
X52350Y524000D02*X55350Y527000D01*
X57150Y524750D02*X60150Y528500D01*
X57150Y524750D02*X60900D01*
X60150Y528500D02*Y522500D01*
X62700Y523250D02*X63450Y522500D01*
X62700Y527750D02*Y523250D01*
Y527750D02*X63450Y528500D01*
X64950D01*
X65700Y527750D01*
Y523250D01*
X64950Y522500D02*X65700Y523250D01*
X63450Y522500D02*X64950D01*
X62700Y524000D02*X65700Y527000D01*
X49800Y247200D02*X52200Y244800D01*
X49800D02*X52200Y247200D01*
X59800D02*X62200Y244800D01*
X59800D02*X62200Y247200D01*
X69800D02*X72200Y244800D01*
X69800D02*X72200Y247200D01*
X79800D02*X82200Y244800D01*
X79800D02*X82200Y247200D01*
X89800D02*X92200Y244800D01*
X89800D02*X92200Y247200D01*
X99800D02*X102200Y244800D01*
X99800D02*X102200Y247200D01*
X109800D02*X112200Y244800D01*
X109800D02*X112200Y247200D01*
X119800D02*X122200Y244800D01*
X119800D02*X122200Y247200D01*
X129800D02*X132200Y244800D01*
X129800D02*X132200Y247200D01*
X139800D02*X142200Y244800D01*
X139800D02*X142200Y247200D01*
X149800D02*X152200Y244800D01*
X149800D02*X152200Y247200D01*
X159800D02*X162200Y244800D01*
X159800D02*X162200Y247200D01*
X169800D02*X172200Y244800D01*
X169800D02*X172200Y247200D01*
X179800D02*X182200Y244800D01*
X179800D02*X182200Y247200D01*
X189800D02*X192200Y244800D01*
X189800D02*X192200Y247200D01*
X199800D02*X202200Y244800D01*
X199800D02*X202200Y247200D01*
X209800D02*X212200Y244800D01*
X209800D02*X212200Y247200D01*
X219800D02*X222200Y244800D01*
X219800D02*X222200Y247200D01*
X229800D02*X232200Y244800D01*
X229800D02*X232200Y247200D01*
X239800D02*X242200Y244800D01*
X239800D02*X242200Y247200D01*
X249800D02*X252200Y244800D01*
X249800D02*X252200Y247200D01*
X259800D02*X262200Y244800D01*
X259800D02*X262200Y247200D01*
X269800D02*X272200Y244800D01*
X269800D02*X272200Y247200D01*
X279800D02*X282200Y244800D01*
X279800D02*X282200Y247200D01*
X279800Y307200D02*X282200Y304800D01*
X279800D02*X282200Y307200D01*
X269800D02*X272200Y304800D01*
X269800D02*X272200Y307200D01*
X259800D02*X262200Y304800D01*
X259800D02*X262200Y307200D01*
X249800D02*X252200Y304800D01*
X249800D02*X252200Y307200D01*
X239800D02*X242200Y304800D01*
X239800D02*X242200Y307200D01*
X229800D02*X232200Y304800D01*
X229800D02*X232200Y307200D01*
X219800D02*X222200Y304800D01*
X219800D02*X222200Y307200D01*
X209800D02*X212200Y304800D01*
X209800D02*X212200Y307200D01*
X199800D02*X202200Y304800D01*
X199800D02*X202200Y307200D01*
X189800D02*X192200Y304800D01*
X189800D02*X192200Y307200D01*
X179800D02*X182200Y304800D01*
X179800D02*X182200Y307200D01*
X169800D02*X172200Y304800D01*
X169800D02*X172200Y307200D01*
X159800D02*X162200Y304800D01*
X159800D02*X162200Y307200D01*
X149800D02*X152200Y304800D01*
X149800D02*X152200Y307200D01*
X139800D02*X142200Y304800D01*
X139800D02*X142200Y307200D01*
X129800D02*X132200Y304800D01*
X129800D02*X132200Y307200D01*
X119800D02*X122200Y304800D01*
X119800D02*X122200Y307200D01*
X109800D02*X112200Y304800D01*
X109800D02*X112200Y307200D01*
X99800D02*X102200Y304800D01*
X99800D02*X102200Y307200D01*
X89800D02*X92200Y304800D01*
X89800D02*X92200Y307200D01*
X79800D02*X82200Y304800D01*
X79800D02*X82200Y307200D01*
X69800D02*X72200Y304800D01*
X69800D02*X72200Y307200D01*
X59800D02*X62200Y304800D01*
X59800D02*X62200Y307200D01*
X49800D02*X52200Y304800D01*
X49800D02*X52200Y307200D01*
X13800Y542450D02*X16200Y540050D01*
X13800D02*X16200Y542450D01*
X135000Y543500D02*X136500Y540500D01*
X138000Y543500D01*
X136500Y540500D02*Y537500D01*
X139800Y540800D02*X142050D01*
X139800Y537500D02*X142800D01*
X139800Y543500D02*Y537500D01*
Y543500D02*X142800D01*
X147600D02*X148350Y542750D01*
X145350Y543500D02*X147600D01*
X144600Y542750D02*X145350Y543500D01*
X144600Y542750D02*Y541250D01*
X145350Y540500D01*
X147600D01*
X148350Y539750D01*
Y538250D01*
X147600Y537500D02*X148350Y538250D01*
X145350Y537500D02*X147600D01*
X144600Y538250D02*X145350Y537500D01*
X98000Y539750D02*X101000Y543500D01*
X98000Y539750D02*X101750D01*
X101000Y543500D02*Y537500D01*
X103550Y538250D02*X104300Y537500D01*
X103550Y539450D02*Y538250D01*
Y539450D02*X104600Y540500D01*
X105500D01*
X106550Y539450D01*
Y538250D01*
X105800Y537500D02*X106550Y538250D01*
X104300Y537500D02*X105800D01*
X103550Y541550D02*X104600Y540500D01*
X103550Y542750D02*Y541550D01*
Y542750D02*X104300Y543500D01*
X105800D01*
X106550Y542750D01*
Y541550D01*
X105500Y540500D02*X106550Y541550D01*
X45000Y538250D02*X45750Y537500D01*
X45000Y542750D02*Y538250D01*
Y542750D02*X45750Y543500D01*
X47250D01*
X48000Y542750D01*
Y538250D01*
X47250Y537500D02*X48000Y538250D01*
X45750Y537500D02*X47250D01*
X45000Y539000D02*X48000Y542000D01*
X49800Y537500D02*X50550D01*
X52350Y538250D02*X53100Y537500D01*
X52350Y542750D02*Y538250D01*
Y542750D02*X53100Y543500D01*
X54600D01*
X55350Y542750D01*
Y538250D01*
X54600Y537500D02*X55350Y538250D01*
X53100Y537500D02*X54600D01*
X52350Y539000D02*X55350Y542000D01*
X57150Y542750D02*X57900Y543500D01*
X59400D01*
X60150Y542750D01*
X59400Y537500D02*X60150Y538250D01*
X57900Y537500D02*X59400D01*
X57150Y538250D02*X57900Y537500D01*
Y540800D02*X59400D01*
X60150Y542750D02*Y541550D01*
Y540050D02*Y538250D01*
Y540050D02*X59400Y540800D01*
X60150Y541550D02*X59400Y540800D01*
X61950Y538250D02*X62700Y537500D01*
X61950Y539450D02*Y538250D01*
Y539450D02*X63000Y540500D01*
X63900D01*
X64950Y539450D01*
Y538250D01*
X64200Y537500D02*X64950Y538250D01*
X62700Y537500D02*X64200D01*
X61950Y541550D02*X63000Y540500D01*
X61950Y542750D02*Y541550D01*
Y542750D02*X62700Y543500D01*
X64200D01*
X64950Y542750D01*
Y541550D01*
X63900Y540500D02*X64950Y541550D01*
X386000Y244600D02*Y241400D01*
X384400Y243000D02*X387600D01*
X364000Y247600D02*Y244400D01*
X362400Y246000D02*X365600D01*
X110000Y353600D02*Y350400D01*
X108400Y352000D02*X111600D01*
X117000Y360600D02*Y357400D01*
X115400Y359000D02*X118600D01*
X200000Y353600D02*Y350400D01*
X198400Y352000D02*X201600D01*
X210000Y350600D02*Y347400D01*
X208400Y349000D02*X211600D01*
X246000Y353600D02*Y350400D01*
X244400Y352000D02*X247600D01*
X253000Y359600D02*Y356400D01*
X251400Y358000D02*X254600D01*
X335000Y353600D02*Y350400D01*
X333400Y352000D02*X336600D01*
X346000Y350600D02*Y347400D01*
X344400Y349000D02*X347600D01*
X330000Y264600D02*Y261400D01*
X328400Y263000D02*X331600D01*
X312000Y264600D02*Y261400D01*
X310400Y263000D02*X313600D01*
X110000Y201600D02*Y198400D01*
X108400Y200000D02*X111600D01*
X116000Y194600D02*Y191400D01*
X114400Y193000D02*X117600D01*
X146000Y189600D02*Y186400D01*
X144400Y188000D02*X147600D01*
X180000Y189600D02*Y186400D01*
X178400Y188000D02*X181600D01*
X201000Y201600D02*Y198400D01*
X199400Y200000D02*X202600D01*
X213000Y202600D02*Y199400D01*
X211400Y201000D02*X214600D01*
X246000Y201600D02*Y198400D01*
X244400Y200000D02*X247600D01*
X252000Y194600D02*Y191400D01*
X250400Y193000D02*X253600D01*
X282000Y189600D02*Y186400D01*
X280400Y188000D02*X283600D01*
X316000Y189600D02*Y186400D01*
X314400Y188000D02*X317600D01*
X350000Y189600D02*Y186400D01*
X348400Y188000D02*X351600D01*
X350000Y201600D02*Y198400D01*
X348400Y200000D02*X351600D01*
X358000Y208600D02*Y205400D01*
X356400Y207000D02*X359600D01*
X355000Y264600D02*Y261400D01*
X353400Y263000D02*X356600D01*
X406000Y237600D02*Y234400D01*
X404400Y236000D02*X407600D01*
X15000Y557850D02*Y554650D01*
X13400Y556250D02*X16600D01*
X135000Y558500D02*X136500Y555500D01*
X138000Y558500D01*
X136500Y555500D02*Y552500D01*
X139800Y555800D02*X142050D01*
X139800Y552500D02*X142800D01*
X139800Y558500D02*Y552500D01*
Y558500D02*X142800D01*
X147600D02*X148350Y557750D01*
X145350Y558500D02*X147600D01*
X144600Y557750D02*X145350Y558500D01*
X144600Y557750D02*Y556250D01*
X145350Y555500D01*
X147600D01*
X148350Y554750D01*
Y553250D01*
X147600Y552500D02*X148350Y553250D01*
X145350Y552500D02*X147600D01*
X144600Y553250D02*X145350Y552500D01*
X98000Y557750D02*X98750Y558500D01*
X101000D01*
X101750Y557750D01*
Y556250D01*
X98000Y552500D02*X101750Y556250D01*
X98000Y552500D02*X101750D01*
X104300D02*X107300Y558500D01*
X103550D02*X107300D01*
X45000Y553250D02*X45750Y552500D01*
X45000Y557750D02*Y553250D01*
Y557750D02*X45750Y558500D01*
X47250D01*
X48000Y557750D01*
Y553250D01*
X47250Y552500D02*X48000Y553250D01*
X45750Y552500D02*X47250D01*
X45000Y554000D02*X48000Y557000D01*
X49800Y552500D02*X50550D01*
X52350Y553250D02*X53100Y552500D01*
X52350Y557750D02*Y553250D01*
Y557750D02*X53100Y558500D01*
X54600D01*
X55350Y557750D01*
Y553250D01*
X54600Y552500D02*X55350Y553250D01*
X53100Y552500D02*X54600D01*
X52350Y554000D02*X55350Y557000D01*
X57150Y557750D02*X57900Y558500D01*
X59400D01*
X60150Y557750D01*
X59400Y552500D02*X60150Y553250D01*
X57900Y552500D02*X59400D01*
X57150Y553250D02*X57900Y552500D01*
Y555800D02*X59400D01*
X60150Y557750D02*Y556550D01*
Y555050D02*Y553250D01*
Y555050D02*X59400Y555800D01*
X60150Y556550D02*X59400Y555800D01*
X61950Y558500D02*X64950D01*
X61950D02*Y555500D01*
X62700Y556250D01*
X64200D01*
X64950Y555500D01*
Y553250D01*
X64200Y552500D02*X64950Y553250D01*
X62700Y552500D02*X64200D01*
X61950Y553250D02*X62700Y552500D01*
X151000Y345000D02*Y343400D01*
Y345000D02*X152387Y345800D01*
X151000Y345000D02*X149613Y345800D01*
X146000Y345000D02*Y343400D01*
Y345000D02*X147387Y345800D01*
X146000Y345000D02*X144613Y345800D01*
X156000Y345000D02*Y343400D01*
Y345000D02*X157387Y345800D01*
X156000Y345000D02*X154613Y345800D01*
X287000Y345000D02*Y343400D01*
Y345000D02*X288387Y345800D01*
X287000Y345000D02*X285613Y345800D01*
X282000Y345000D02*Y343400D01*
Y345000D02*X283387Y345800D01*
X282000Y345000D02*X280613Y345800D01*
X292000Y345000D02*Y343400D01*
Y345000D02*X293387Y345800D01*
X292000Y345000D02*X290613Y345800D01*
X292000Y208000D02*Y206400D01*
Y208000D02*X293387Y208800D01*
X292000Y208000D02*X290613Y208800D01*
X282000Y208000D02*Y206400D01*
Y208000D02*X283387Y208800D01*
X282000Y208000D02*X280613Y208800D01*
X151000Y208000D02*Y206400D01*
Y208000D02*X152387Y208800D01*
X151000Y208000D02*X149613Y208800D01*
X156000Y208000D02*Y206400D01*
Y208000D02*X157387Y208800D01*
X156000Y208000D02*X154613Y208800D01*
X146000Y208000D02*Y206400D01*
Y208000D02*X147387Y208800D01*
X146000Y208000D02*X144613Y208800D01*
X151000Y218000D02*Y216400D01*
Y218000D02*X152387Y218800D01*
X151000Y218000D02*X149613Y218800D01*
X151000Y198000D02*Y196400D01*
Y198000D02*X152387Y198800D01*
X151000Y198000D02*X149613Y198800D01*
X287000Y208000D02*Y206400D01*
Y208000D02*X288387Y208800D01*
X287000Y208000D02*X285613Y208800D01*
X287000Y218000D02*Y216400D01*
Y218000D02*X288387Y218800D01*
X287000Y218000D02*X285613Y218800D01*
X287000Y198000D02*Y196400D01*
Y198000D02*X288387Y198800D01*
X287000Y198000D02*X285613Y198800D01*
X287000Y355000D02*Y353400D01*
Y355000D02*X288387Y355800D01*
X287000Y355000D02*X285613Y355800D01*
X287000Y335000D02*Y333400D01*
Y335000D02*X288387Y335800D01*
X287000Y335000D02*X285613Y335800D01*
X151000Y355000D02*Y353400D01*
Y355000D02*X152387Y355800D01*
X151000Y355000D02*X149613Y355800D01*
X151000Y335000D02*Y333400D01*
Y335000D02*X152387Y335800D01*
X151000Y335000D02*X149613Y335800D01*
X413000Y277000D02*Y275400D01*
Y277000D02*X414387Y277800D01*
X413000Y277000D02*X411613Y277800D01*
X403000Y277000D02*Y275400D01*
Y277000D02*X404387Y277800D01*
X403000Y277000D02*X401613Y277800D01*
X423000Y277000D02*Y275400D01*
Y277000D02*X424387Y277800D01*
X423000Y277000D02*X421613Y277800D01*
X389000Y345000D02*Y343400D01*
Y345000D02*X390387Y345800D01*
X389000Y345000D02*X387613Y345800D01*
X389000Y355000D02*Y353400D01*
Y355000D02*X390387Y355800D01*
X389000Y355000D02*X387613Y355800D01*
X389000Y335000D02*Y333400D01*
Y335000D02*X390387Y335800D01*
X389000Y335000D02*X387613Y335800D01*
X389000Y208000D02*Y206400D01*
Y208000D02*X390387Y208800D01*
X389000Y208000D02*X387613Y208800D01*
X389000Y218000D02*Y216400D01*
Y218000D02*X390387Y218800D01*
X389000Y218000D02*X387613Y218800D01*
X389000Y198000D02*Y196400D01*
Y198000D02*X390387Y198800D01*
X389000Y198000D02*X387613Y198800D01*
X344000Y273000D02*Y271400D01*
Y273000D02*X345387Y273800D01*
X344000Y273000D02*X342613Y273800D01*
X301000Y284000D02*Y282400D01*
Y284000D02*X302387Y284800D01*
X301000Y284000D02*X299613Y284800D01*
X340000Y273000D02*Y271400D01*
Y273000D02*X341387Y273800D01*
X340000Y273000D02*X338613Y273800D01*
X301000Y243000D02*Y241400D01*
Y243000D02*X302387Y243800D01*
X301000Y243000D02*X299613Y243800D01*
X111000Y321000D02*Y319400D01*
Y321000D02*X112387Y321800D01*
X111000Y321000D02*X109613Y321800D01*
X141000Y336000D02*Y334400D01*
Y336000D02*X142387Y336800D01*
X141000Y336000D02*X139613Y336800D01*
X157000Y325000D02*Y323400D01*
Y325000D02*X158387Y325800D01*
X157000Y325000D02*X155613Y325800D01*
X159000Y336000D02*Y334400D01*
Y336000D02*X160387Y336800D01*
X159000Y336000D02*X157613Y336800D01*
X143000Y217000D02*Y215400D01*
Y217000D02*X144387Y217800D01*
X143000Y217000D02*X141613Y217800D01*
X156000Y219000D02*Y217400D01*
Y219000D02*X157387Y219800D01*
X156000Y219000D02*X154613Y219800D01*
X279000Y217000D02*Y215400D01*
Y217000D02*X280387Y217800D01*
X279000Y217000D02*X277613Y217800D01*
X292000Y219000D02*Y217400D01*
Y219000D02*X293387Y219800D01*
X292000Y219000D02*X290613Y219800D01*
X51000Y325000D02*Y323400D01*
Y325000D02*X52387Y325800D01*
X51000Y325000D02*X49613Y325800D01*
X71000Y325000D02*Y323400D01*
Y325000D02*X72387Y325800D01*
X71000Y325000D02*X69613Y325800D01*
X195000Y231000D02*Y229400D01*
Y231000D02*X196387Y231800D01*
X195000Y231000D02*X193613Y231800D01*
X279000Y336000D02*Y334400D01*
Y336000D02*X280387Y336800D01*
X279000Y336000D02*X277613Y336800D01*
X295000Y336000D02*Y334400D01*
Y336000D02*X296387Y336800D01*
X295000Y336000D02*X293613Y336800D01*
X381000Y257000D02*Y255400D01*
Y257000D02*X382387Y257800D01*
X381000Y257000D02*X379613Y257800D01*
X381000Y250000D02*Y248400D01*
Y250000D02*X382387Y250800D01*
X381000Y250000D02*X379613Y250800D01*
X371000Y257000D02*Y255400D01*
Y257000D02*X372387Y257800D01*
X371000Y257000D02*X369613Y257800D01*
X371000Y250000D02*Y248400D01*
Y250000D02*X372387Y250800D01*
X371000Y250000D02*X369613Y250800D01*
X316000Y257000D02*Y255400D01*
Y257000D02*X317387Y257800D01*
X316000Y257000D02*X314613Y257800D01*
X316000Y251000D02*Y249400D01*
Y251000D02*X317387Y251800D01*
X316000Y251000D02*X314613Y251800D01*
X330000Y250000D02*Y248400D01*
Y250000D02*X331387Y250800D01*
X330000Y250000D02*X328613Y250800D01*
X330000Y256000D02*Y254400D01*
Y256000D02*X331387Y256800D01*
X330000Y256000D02*X328613Y256800D01*
X176000Y255000D02*Y253400D01*
Y255000D02*X177387Y255800D01*
X176000Y255000D02*X174613Y255800D01*
X171000Y260000D02*Y258400D01*
Y260000D02*X172387Y260800D01*
X171000Y260000D02*X169613Y260800D01*
X182000Y261000D02*Y259400D01*
Y261000D02*X183387Y261800D01*
X182000Y261000D02*X180613Y261800D01*
X177000Y266000D02*Y264400D01*
Y266000D02*X178387Y266800D01*
X177000Y266000D02*X175613Y266800D01*
X414000Y272000D02*Y270400D01*
Y272000D02*X415387Y272800D01*
X414000Y272000D02*X412613Y272800D01*
X414000Y282000D02*Y280400D01*
Y282000D02*X415387Y282800D01*
X414000Y282000D02*X412613Y282800D01*
X407000Y269000D02*Y267400D01*
Y269000D02*X408387Y269800D01*
X407000Y269000D02*X405613Y269800D01*
X407000Y285000D02*Y283400D01*
Y285000D02*X408387Y285800D01*
X407000Y285000D02*X405613Y285800D01*
X130000Y325000D02*Y323400D01*
Y325000D02*X131387Y325800D01*
X130000Y325000D02*X128613Y325800D01*
X144000Y362000D02*Y360400D01*
Y362000D02*X145387Y362800D01*
X144000Y362000D02*X142613Y362800D01*
X178000Y362000D02*Y360400D01*
Y362000D02*X179387Y362800D01*
X178000Y362000D02*X176613Y362800D01*
X280000Y362000D02*Y360400D01*
Y362000D02*X281387Y362800D01*
X280000Y362000D02*X278613Y362800D01*
X314000Y362000D02*Y360400D01*
Y362000D02*X315387Y362800D01*
X314000Y362000D02*X312613Y362800D01*
X400000Y354000D02*Y352400D01*
Y354000D02*X401387Y354800D01*
X400000Y354000D02*X398613Y354800D01*
X400000Y347000D02*Y345400D01*
Y347000D02*X401387Y347800D01*
X400000Y347000D02*X398613Y347800D01*
X217000Y291000D02*Y289400D01*
Y291000D02*X218387Y291800D01*
X217000Y291000D02*X215613Y291800D01*
X217000Y285000D02*Y283400D01*
Y285000D02*X218387Y285800D01*
X217000Y285000D02*X215613Y285800D01*
X217000Y279000D02*Y277400D01*
Y279000D02*X218387Y279800D01*
X217000Y279000D02*X215613Y279800D01*
X217000Y273000D02*Y271400D01*
Y273000D02*X218387Y273800D01*
X217000Y273000D02*X215613Y273800D01*
X217000Y267000D02*Y265400D01*
Y267000D02*X218387Y267800D01*
X217000Y267000D02*X215613Y267800D01*
X217000Y261000D02*Y259400D01*
Y261000D02*X218387Y261800D01*
X217000Y261000D02*X215613Y261800D01*
X171000Y325000D02*Y323400D01*
Y325000D02*X172387Y325800D01*
X171000Y325000D02*X169613Y325800D01*
X231000Y291000D02*Y289400D01*
Y291000D02*X232387Y291800D01*
X231000Y291000D02*X229613Y291800D01*
X231000Y285000D02*Y283400D01*
Y285000D02*X232387Y285800D01*
X231000Y285000D02*X229613Y285800D01*
X231000Y279000D02*Y277400D01*
Y279000D02*X232387Y279800D01*
X231000Y279000D02*X229613Y279800D01*
X231000Y273000D02*Y271400D01*
Y273000D02*X232387Y273800D01*
X231000Y273000D02*X229613Y273800D01*
X231000Y267000D02*Y265400D01*
Y267000D02*X232387Y267800D01*
X231000Y267000D02*X229613Y267800D01*
X231000Y261000D02*Y259400D01*
Y261000D02*X232387Y261800D01*
X231000Y261000D02*X229613Y261800D01*
X371000Y284000D02*Y282400D01*
Y284000D02*X372387Y284800D01*
X371000Y284000D02*X369613Y284800D01*
X371000Y290000D02*Y288400D01*
Y290000D02*X372387Y290800D01*
X371000Y290000D02*X369613Y290800D01*
X368000Y295000D02*Y293400D01*
Y295000D02*X369387Y295800D01*
X368000Y295000D02*X366613Y295800D01*
X366000Y301000D02*Y299400D01*
Y301000D02*X367387Y301800D01*
X366000Y301000D02*X364613Y301800D01*
X366000Y307000D02*Y305400D01*
Y307000D02*X367387Y307800D01*
X366000Y307000D02*X364613Y307800D01*
X336000Y289000D02*Y287400D01*
Y289000D02*X337387Y289800D01*
X336000Y289000D02*X334613Y289800D01*
X336000Y305000D02*Y303400D01*
Y305000D02*X337387Y305800D01*
X336000Y305000D02*X334613Y305800D01*
X374000Y307000D02*Y305400D01*
Y307000D02*X375387Y307800D01*
X374000Y307000D02*X372613Y307800D01*
X374000Y301000D02*Y299400D01*
Y301000D02*X375387Y301800D01*
X374000Y301000D02*X372613Y301800D01*
X378000Y297000D02*Y295400D01*
Y297000D02*X379387Y297800D01*
X378000Y297000D02*X376613Y297800D01*
X380000Y291000D02*Y289400D01*
Y291000D02*X381387Y291800D01*
X380000Y291000D02*X378613Y291800D01*
X393000Y288000D02*Y286400D01*
Y288000D02*X394387Y288800D01*
X393000Y288000D02*X391613Y288800D01*
X393000Y326000D02*Y324400D01*
Y326000D02*X394387Y326800D01*
X393000Y326000D02*X391613Y326800D01*
X379000Y318000D02*Y316400D01*
Y318000D02*X380387Y318800D01*
X379000Y318000D02*X377613Y318800D01*
X399000Y320000D02*Y318400D01*
Y320000D02*X400387Y320800D01*
X399000Y320000D02*X397613Y320800D01*
X366000Y326000D02*Y324400D01*
Y326000D02*X367387Y326800D01*
X366000Y326000D02*X364613Y326800D01*
X396000Y228000D02*Y226400D01*
Y228000D02*X397387Y228800D01*
X396000Y228000D02*X394613Y228800D01*
X390000Y224000D02*Y222400D01*
Y224000D02*X391387Y224800D01*
X390000Y224000D02*X388613Y224800D01*
X400000Y199000D02*Y197400D01*
Y199000D02*X401387Y199800D01*
X400000Y199000D02*X398613Y199800D01*
X400000Y206000D02*Y204400D01*
Y206000D02*X401387Y206800D01*
X400000Y206000D02*X398613Y206800D01*
X136000Y189000D02*Y187400D01*
Y189000D02*X137387Y189800D01*
X136000Y189000D02*X134613Y189800D01*
X170000Y189000D02*Y187400D01*
Y189000D02*X171387Y189800D01*
X170000Y189000D02*X168613Y189800D01*
X272000Y189000D02*Y187400D01*
Y189000D02*X273387Y189800D01*
X272000Y189000D02*X270613Y189800D01*
X306000Y189000D02*Y187400D01*
Y189000D02*X307387Y189800D01*
X306000Y189000D02*X304613Y189800D01*
X340000Y189000D02*Y187400D01*
Y189000D02*X341387Y189800D01*
X340000Y189000D02*X338613Y189800D01*
X361000Y198000D02*Y196400D01*
Y198000D02*X362387Y198800D01*
X361000Y198000D02*X359613Y198800D01*
X207000Y253000D02*Y251400D01*
Y253000D02*X208387Y253800D01*
X207000Y253000D02*X205613Y253800D01*
X359000Y283000D02*Y281400D01*
Y283000D02*X360387Y283800D01*
X359000Y283000D02*X357613Y283800D01*
X386000Y325000D02*Y323400D01*
Y325000D02*X387387Y325800D01*
X386000Y325000D02*X384613Y325800D01*
X381000Y330000D02*Y328400D01*
Y330000D02*X382387Y330800D01*
X381000Y330000D02*X379613Y330800D01*
X374000Y333000D02*Y331400D01*
Y333000D02*X375387Y333800D01*
X374000Y333000D02*X372613Y333800D01*
X374000Y340000D02*Y338400D01*
Y340000D02*X375387Y340800D01*
X374000Y340000D02*X372613Y340800D01*
X366000Y340000D02*Y338400D01*
Y340000D02*X367387Y340800D01*
X366000Y340000D02*X364613Y340800D01*
X366000Y333000D02*Y331400D01*
Y333000D02*X367387Y333800D01*
X366000Y333000D02*X364613Y333800D01*
X15000Y571250D02*Y569650D01*
Y571250D02*X16387Y572050D01*
X15000Y571250D02*X13613Y572050D01*
X135000Y573500D02*X136500Y570500D01*
X138000Y573500D01*
X136500Y570500D02*Y567500D01*
X139800Y570800D02*X142050D01*
X139800Y567500D02*X142800D01*
X139800Y573500D02*Y567500D01*
Y573500D02*X142800D01*
X147600D02*X148350Y572750D01*
X145350Y573500D02*X147600D01*
X144600Y572750D02*X145350Y573500D01*
X144600Y572750D02*Y571250D01*
X145350Y570500D01*
X147600D01*
X148350Y569750D01*
Y568250D01*
X147600Y567500D02*X148350Y568250D01*
X145350Y567500D02*X147600D01*
X144600Y568250D02*X145350Y567500D01*
X98000Y572300D02*X99200Y573500D01*
Y567500D01*
X98000D02*X100250D01*
X102050Y572300D02*X103250Y573500D01*
Y567500D01*
X102050D02*X104300D01*
X108350Y573500D02*X109100Y572750D01*
X106850Y573500D02*X108350D01*
X106100Y572750D02*X106850Y573500D01*
X106100Y572750D02*Y568250D01*
X106850Y567500D01*
X108350Y570800D02*X109100Y570050D01*
X106100Y570800D02*X108350D01*
X106850Y567500D02*X108350D01*
X109100Y568250D01*
Y570050D02*Y568250D01*
X45000D02*X45750Y567500D01*
X45000Y572750D02*Y568250D01*
Y572750D02*X45750Y573500D01*
X47250D01*
X48000Y572750D01*
Y568250D01*
X47250Y567500D02*X48000Y568250D01*
X45750Y567500D02*X47250D01*
X45000Y569000D02*X48000Y572000D01*
X49800Y567500D02*X50550D01*
X52350Y568250D02*X53100Y567500D01*
X52350Y572750D02*Y568250D01*
Y572750D02*X53100Y573500D01*
X54600D01*
X55350Y572750D01*
Y568250D01*
X54600Y567500D02*X55350Y568250D01*
X53100Y567500D02*X54600D01*
X52350Y569000D02*X55350Y572000D01*
X57150Y572750D02*X57900Y573500D01*
X60150D01*
X60900Y572750D01*
Y571250D01*
X57150Y567500D02*X60900Y571250D01*
X57150Y567500D02*X60900D01*
X62700Y568250D02*X63450Y567500D01*
X62700Y572750D02*Y568250D01*
Y572750D02*X63450Y573500D01*
X64950D01*
X65700Y572750D01*
Y568250D01*
X64950Y567500D02*X65700Y568250D01*
X63450Y567500D02*X64950D01*
X62700Y569000D02*X65700Y572000D01*
X3000Y588500D02*X3750Y587750D01*
X750Y588500D02*X3000D01*
X0Y587750D02*X750Y588500D01*
X0Y587750D02*Y586250D01*
X750Y585500D01*
X3000D01*
X3750Y584750D01*
Y583250D01*
X3000Y582500D02*X3750Y583250D01*
X750Y582500D02*X3000D01*
X0Y583250D02*X750Y582500D01*
X5550Y585500D02*Y583250D01*
X6300Y582500D01*
X8550Y585500D02*Y581000D01*
X7800Y580250D02*X8550Y581000D01*
X6300Y580250D02*X7800D01*
X5550Y581000D02*X6300Y580250D01*
Y582500D02*X7800D01*
X8550Y583250D01*
X11100Y584750D02*Y582500D01*
Y584750D02*X11850Y585500D01*
X12600D01*
X13350Y584750D01*
Y582500D01*
Y584750D02*X14100Y585500D01*
X14850D01*
X15600Y584750D01*
Y582500D01*
X10350Y585500D02*X11100Y584750D01*
X17400Y588500D02*Y582500D01*
Y583250D02*X18150Y582500D01*
X19650D01*
X20400Y583250D01*
Y584750D02*Y583250D01*
X19650Y585500D02*X20400Y584750D01*
X18150Y585500D02*X19650D01*
X17400Y584750D02*X18150Y585500D01*
X22200Y584750D02*Y583250D01*
Y584750D02*X22950Y585500D01*
X24450D01*
X25200Y584750D01*
Y583250D01*
X24450Y582500D02*X25200Y583250D01*
X22950Y582500D02*X24450D01*
X22200Y583250D02*X22950Y582500D01*
X27000Y588500D02*Y583250D01*
X27750Y582500D01*
X0Y579250D02*X29250D01*
X41750Y588500D02*Y582500D01*
X43700Y588500D02*X44750Y587450D01*
Y583550D01*
X43700Y582500D02*X44750Y583550D01*
X41000Y582500D02*X43700D01*
X41000Y588500D02*X43700D01*
G54D77*X46550Y587000D02*Y586850D01*
G54D76*Y584750D02*Y582500D01*
X50300Y585500D02*X51050Y584750D01*
X48800Y585500D02*X50300D01*
X48050Y584750D02*X48800Y585500D01*
X48050Y584750D02*Y583250D01*
X48800Y582500D01*
X51050Y585500D02*Y583250D01*
X51800Y582500D01*
X48800D02*X50300D01*
X51050Y583250D01*
X54350Y584750D02*Y582500D01*
Y584750D02*X55100Y585500D01*
X55850D01*
X56600Y584750D01*
Y582500D01*
Y584750D02*X57350Y585500D01*
X58100D01*
X58850Y584750D01*
Y582500D01*
X53600Y585500D02*X54350Y584750D01*
X60650Y582500D02*X61400D01*
X65900Y583250D02*X66650Y582500D01*
X65900Y587750D02*X66650Y588500D01*
X65900Y587750D02*Y583250D01*
X68450Y588500D02*X69950D01*
X69200D02*Y582500D01*
X68450D02*X69950D01*
X72500Y584750D02*Y582500D01*
Y584750D02*X73250Y585500D01*
X74000D01*
X74750Y584750D01*
Y582500D01*
X71750Y585500D02*X72500Y584750D01*
X77300Y585500D02*X79550D01*
X76550Y584750D02*X77300Y585500D01*
X76550Y584750D02*Y583250D01*
X77300Y582500D01*
X79550D01*
X81350Y588500D02*Y582500D01*
Y584750D02*X82100Y585500D01*
X83600D01*
X84350Y584750D01*
Y582500D01*
X86150Y588500D02*X86900Y587750D01*
Y583250D01*
X86150Y582500D02*X86900Y583250D01*
X41000Y579250D02*X88700D01*
X96050Y582500D02*X98000D01*
X95000Y583550D02*X96050Y582500D01*
X95000Y587450D02*Y583550D01*
Y587450D02*X96050Y588500D01*
X98000D01*
X99800Y584750D02*Y583250D01*
Y584750D02*X100550Y585500D01*
X102050D01*
X102800Y584750D01*
Y583250D01*
X102050Y582500D02*X102800Y583250D01*
X100550Y582500D02*X102050D01*
X99800Y583250D02*X100550Y582500D01*
X104600Y585500D02*Y583250D01*
X105350Y582500D01*
X106850D01*
X107600Y583250D01*
Y585500D02*Y583250D01*
X110150Y584750D02*Y582500D01*
Y584750D02*X110900Y585500D01*
X111650D01*
X112400Y584750D01*
Y582500D01*
X109400Y585500D02*X110150Y584750D01*
X114950Y588500D02*Y583250D01*
X115700Y582500D01*
X114200Y586250D02*X115700D01*
X95000Y579250D02*X117200D01*
X130750Y588500D02*Y582500D01*
X130000Y588500D02*X133000D01*
X133750Y587750D01*
Y586250D01*
X133000Y585500D02*X133750Y586250D01*
X130750Y585500D02*X133000D01*
X135550Y588500D02*Y583250D01*
X136300Y582500D01*
X140050Y585500D02*X140800Y584750D01*
X138550Y585500D02*X140050D01*
X137800Y584750D02*X138550Y585500D01*
X137800Y584750D02*Y583250D01*
X138550Y582500D01*
X140800Y585500D02*Y583250D01*
X141550Y582500D01*
X138550D02*X140050D01*
X140800Y583250D01*
X144100Y588500D02*Y583250D01*
X144850Y582500D01*
X143350Y586250D02*X144850D01*
X147100Y582500D02*X149350D01*
X146350Y583250D02*X147100Y582500D01*
X146350Y584750D02*Y583250D01*
Y584750D02*X147100Y585500D01*
X148600D01*
X149350Y584750D01*
X146350Y584000D02*X149350D01*
Y584750D02*Y584000D01*
X154150Y588500D02*Y582500D01*
X153400D02*X154150Y583250D01*
X151900Y582500D02*X153400D01*
X151150Y583250D02*X151900Y582500D01*
X151150Y584750D02*Y583250D01*
Y584750D02*X151900Y585500D01*
X153400D01*
X154150Y584750D01*
X157450Y585500D02*Y584750D01*
Y583250D02*Y582500D01*
X155950Y587750D02*Y587000D01*
Y587750D02*X156700Y588500D01*
X158200D01*
X158950Y587750D01*
Y587000D01*
X157450Y585500D02*X158950Y587000D01*
X130000Y579250D02*X160750D01*
X0Y603500D02*X3000D01*
X1500D02*Y597500D01*
X4800Y603500D02*Y597500D01*
Y599750D02*X5550Y600500D01*
X7050D01*
X7800Y599750D01*
Y597500D01*
X10350D02*X12600D01*
X9600Y598250D02*X10350Y597500D01*
X9600Y599750D02*Y598250D01*
Y599750D02*X10350Y600500D01*
X11850D01*
X12600Y599750D01*
X9600Y599000D02*X12600D01*
Y599750D02*Y599000D01*
X15150Y599750D02*Y597500D01*
Y599750D02*X15900Y600500D01*
X17400D01*
X14400D02*X15150Y599750D01*
X19950Y597500D02*X22200D01*
X19200Y598250D02*X19950Y597500D01*
X19200Y599750D02*Y598250D01*
Y599750D02*X19950Y600500D01*
X21450D01*
X22200Y599750D01*
X19200Y599000D02*X22200D01*
Y599750D02*Y599000D01*
X28950Y600500D02*X29700Y599750D01*
X27450Y600500D02*X28950D01*
X26700Y599750D02*X27450Y600500D01*
X26700Y599750D02*Y598250D01*
X27450Y597500D01*
X29700Y600500D02*Y598250D01*
X30450Y597500D01*
X27450D02*X28950D01*
X29700Y598250D01*
X33000Y599750D02*Y597500D01*
Y599750D02*X33750Y600500D01*
X35250D01*
X32250D02*X33000Y599750D01*
X37800Y597500D02*X40050D01*
X37050Y598250D02*X37800Y597500D01*
X37050Y599750D02*Y598250D01*
Y599750D02*X37800Y600500D01*
X39300D01*
X40050Y599750D01*
X37050Y599000D02*X40050D01*
Y599750D02*Y599000D01*
X44550Y603500D02*X47550D01*
X44550D02*Y600500D01*
X45300Y601250D01*
X46800D01*
X47550Y600500D01*
Y598250D01*
X46800Y597500D02*X47550Y598250D01*
X45300Y597500D02*X46800D01*
X44550Y598250D02*X45300Y597500D01*
X55050Y603500D02*Y597500D01*
X54300D02*X55050Y598250D01*
X52800Y597500D02*X54300D01*
X52050Y598250D02*X52800Y597500D01*
X52050Y599750D02*Y598250D01*
Y599750D02*X52800Y600500D01*
X54300D01*
X55050Y599750D01*
G54D77*X56850Y602000D02*Y601850D01*
G54D76*Y599750D02*Y597500D01*
X59100Y602750D02*Y597500D01*
Y602750D02*X59850Y603500D01*
X60600D01*
X58350Y600500D02*X59850D01*
X62850Y602750D02*Y597500D01*
Y602750D02*X63600Y603500D01*
X64350D01*
X62100Y600500D02*X63600D01*
X66600Y597500D02*X68850D01*
X65850Y598250D02*X66600Y597500D01*
X65850Y599750D02*Y598250D01*
Y599750D02*X66600Y600500D01*
X68100D01*
X68850Y599750D01*
X65850Y599000D02*X68850D01*
Y599750D02*Y599000D01*
X71400Y599750D02*Y597500D01*
Y599750D02*X72150Y600500D01*
X73650D01*
X70650D02*X71400Y599750D01*
X76200Y597500D02*X78450D01*
X75450Y598250D02*X76200Y597500D01*
X75450Y599750D02*Y598250D01*
Y599750D02*X76200Y600500D01*
X77700D01*
X78450Y599750D01*
X75450Y599000D02*X78450D01*
Y599750D02*Y599000D01*
X81000Y599750D02*Y597500D01*
Y599750D02*X81750Y600500D01*
X82500D01*
X83250Y599750D01*
Y597500D01*
X80250Y600500D02*X81000Y599750D01*
X85800Y603500D02*Y598250D01*
X86550Y597500D01*
X85050Y601250D02*X86550D01*
X93750Y603500D02*Y597500D01*
X93000D02*X93750Y598250D01*
X91500Y597500D02*X93000D01*
X90750Y598250D02*X91500Y597500D01*
X90750Y599750D02*Y598250D01*
Y599750D02*X91500Y600500D01*
X93000D01*
X93750Y599750D01*
X96300D02*Y597500D01*
Y599750D02*X97050Y600500D01*
X98550D01*
X95550D02*X96300Y599750D01*
G54D77*X100350Y602000D02*Y601850D01*
G54D76*Y599750D02*Y597500D01*
X101850Y603500D02*Y598250D01*
X102600Y597500D01*
X104100Y603500D02*Y598250D01*
X104850Y597500D01*
X109800D02*X112050D01*
X112800Y598250D01*
X112050Y599000D02*X112800Y598250D01*
X109800Y599000D02*X112050D01*
X109050Y599750D02*X109800Y599000D01*
X109050Y599750D02*X109800Y600500D01*
X112050D01*
X112800Y599750D01*
X109050Y598250D02*X109800Y597500D01*
G54D77*X114600Y602000D02*Y601850D01*
G54D76*Y599750D02*Y597500D01*
X116100Y600500D02*X119100D01*
X116100Y597500D02*X119100Y600500D01*
X116100Y597500D02*X119100D01*
X121650D02*X123900D01*
X120900Y598250D02*X121650Y597500D01*
X120900Y599750D02*Y598250D01*
Y599750D02*X121650Y600500D01*
X123150D01*
X123900Y599750D01*
X120900Y599000D02*X123900D01*
Y599750D02*Y599000D01*
X126450Y597500D02*X128700D01*
X129450Y598250D01*
X128700Y599000D02*X129450Y598250D01*
X126450Y599000D02*X128700D01*
X125700Y599750D02*X126450Y599000D01*
X125700Y599750D02*X126450Y600500D01*
X128700D01*
X129450Y599750D01*
X125700Y598250D02*X126450Y597500D01*
X133950Y600500D02*Y598250D01*
X134700Y597500D01*
X136200D01*
X136950Y598250D01*
Y600500D02*Y598250D01*
X139500Y597500D02*X141750D01*
X142500Y598250D01*
X141750Y599000D02*X142500Y598250D01*
X139500Y599000D02*X141750D01*
X138750Y599750D02*X139500Y599000D01*
X138750Y599750D02*X139500Y600500D01*
X141750D01*
X142500Y599750D01*
X138750Y598250D02*X139500Y597500D01*
X145050D02*X147300D01*
X144300Y598250D02*X145050Y597500D01*
X144300Y599750D02*Y598250D01*
Y599750D02*X145050Y600500D01*
X146550D01*
X147300Y599750D01*
X144300Y599000D02*X147300D01*
Y599750D02*Y599000D01*
X152100Y603500D02*Y597500D01*
X151350D02*X152100Y598250D01*
X149850Y597500D02*X151350D01*
X149100Y598250D02*X149850Y597500D01*
X149100Y599750D02*Y598250D01*
Y599750D02*X149850Y600500D01*
X151350D01*
X152100Y599750D01*
G54D77*X156600Y602000D02*Y601850D01*
G54D76*Y599750D02*Y597500D01*
X158850Y599750D02*Y597500D01*
Y599750D02*X159600Y600500D01*
X160350D01*
X161100Y599750D01*
Y597500D01*
X158100Y600500D02*X158850Y599750D01*
X166350Y603500D02*Y598250D01*
X167100Y597500D01*
X165600Y601250D02*X167100D01*
X168600Y603500D02*Y597500D01*
Y599750D02*X169350Y600500D01*
X170850D01*
X171600Y599750D01*
Y597500D01*
G54D77*X173400Y602000D02*Y601850D01*
G54D76*Y599750D02*Y597500D01*
X175650D02*X177900D01*
X178650Y598250D01*
X177900Y599000D02*X178650Y598250D01*
X175650Y599000D02*X177900D01*
X174900Y599750D02*X175650Y599000D01*
X174900Y599750D02*X175650Y600500D01*
X177900D01*
X178650Y599750D01*
X174900Y598250D02*X175650Y597500D01*
X183150Y603500D02*Y598250D01*
X183900Y597500D01*
X187650Y600500D02*X188400Y599750D01*
X186150Y600500D02*X187650D01*
X185400Y599750D02*X186150Y600500D01*
X185400Y599750D02*Y598250D01*
X186150Y597500D01*
X188400Y600500D02*Y598250D01*
X189150Y597500D01*
X186150D02*X187650D01*
X188400Y598250D01*
X190950Y600500D02*Y598250D01*
X191700Y597500D01*
X193950Y600500D02*Y596000D01*
X193200Y595250D02*X193950Y596000D01*
X191700Y595250D02*X193200D01*
X190950Y596000D02*X191700Y595250D01*
Y597500D02*X193200D01*
X193950Y598250D01*
X195750Y599750D02*Y598250D01*
Y599750D02*X196500Y600500D01*
X198000D01*
X198750Y599750D01*
Y598250D01*
X198000Y597500D02*X198750Y598250D01*
X196500Y597500D02*X198000D01*
X195750Y598250D02*X196500Y597500D01*
X200550Y600500D02*Y598250D01*
X201300Y597500D01*
X202800D01*
X203550Y598250D01*
Y600500D02*Y598250D01*
X206100Y603500D02*Y598250D01*
X206850Y597500D01*
X205350Y601250D02*X206850D01*
X208350Y596000D02*X209850Y597500D01*
X214350Y602750D02*X215100Y603500D01*
X217350D01*
X218100Y602750D01*
Y601250D01*
X214350Y597500D02*X218100Y601250D01*
X214350Y597500D02*X218100D01*
X219900Y603500D02*X222900D01*
X219900D02*Y600500D01*
X220650Y601250D01*
X222150D01*
X222900Y600500D01*
Y598250D01*
X222150Y597500D02*X222900Y598250D01*
X220650Y597500D02*X222150D01*
X219900Y598250D02*X220650Y597500D01*
X224700Y599750D02*X227700Y603500D01*
X224700Y599750D02*X228450D01*
X227700Y603500D02*Y597500D01*
X232950Y603500D02*Y597500D01*
Y599750D02*X233700Y600500D01*
X235200D01*
X235950Y599750D01*
Y597500D01*
X237750Y599750D02*Y598250D01*
Y599750D02*X238500Y600500D01*
X240000D01*
X240750Y599750D01*
Y598250D01*
X240000Y597500D02*X240750Y598250D01*
X238500Y597500D02*X240000D01*
X237750Y598250D02*X238500Y597500D01*
X242550Y603500D02*Y598250D01*
X243300Y597500D01*
X245550D02*X247800D01*
X244800Y598250D02*X245550Y597500D01*
X244800Y599750D02*Y598250D01*
Y599750D02*X245550Y600500D01*
X247050D01*
X247800Y599750D01*
X244800Y599000D02*X247800D01*
Y599750D02*Y599000D01*
X250350Y597500D02*X252600D01*
X253350Y598250D01*
X252600Y599000D02*X253350Y598250D01*
X250350Y599000D02*X252600D01*
X249600Y599750D02*X250350Y599000D01*
X249600Y599750D02*X250350Y600500D01*
X252600D01*
X253350Y599750D01*
X249600Y598250D02*X250350Y597500D01*
X258600Y603500D02*Y598250D01*
X259350Y597500D01*
X257850Y601250D02*X259350D01*
X260850Y599750D02*Y598250D01*
Y599750D02*X261600Y600500D01*
X263100D01*
X263850Y599750D01*
Y598250D01*
X263100Y597500D02*X263850Y598250D01*
X261600Y597500D02*X263100D01*
X260850Y598250D02*X261600Y597500D01*
X266400Y603500D02*Y598250D01*
X267150Y597500D01*
X265650Y601250D02*X267150D01*
X270900Y600500D02*X271650Y599750D01*
X269400Y600500D02*X270900D01*
X268650Y599750D02*X269400Y600500D01*
X268650Y599750D02*Y598250D01*
X269400Y597500D01*
X271650Y600500D02*Y598250D01*
X272400Y597500D01*
X269400D02*X270900D01*
X271650Y598250D01*
X274200Y603500D02*Y598250D01*
X274950Y597500D01*
G54D78*X41000Y386000D02*Y166000D01*
X466000D01*
Y386000D01*
X41000D01*
G54D76*X213675Y-9500D02*X216675D01*
X217425Y-8750D01*
Y-6950D02*Y-8750D01*
X216675Y-6200D02*X217425Y-6950D01*
X214425Y-6200D02*X216675D01*
X214425Y-3500D02*Y-9500D01*
X213675Y-3500D02*X216675D01*
X217425Y-4250D01*
Y-5450D01*
X216675Y-6200D02*X217425Y-5450D01*
X219225Y-7250D02*Y-8750D01*
Y-7250D02*X219975Y-6500D01*
X221475D01*
X222225Y-7250D01*
Y-8750D01*
X221475Y-9500D02*X222225Y-8750D01*
X219975Y-9500D02*X221475D01*
X219225Y-8750D02*X219975Y-9500D01*
X226275Y-6500D02*X227025Y-7250D01*
X224775Y-6500D02*X226275D01*
X224025Y-7250D02*X224775Y-6500D01*
X224025Y-7250D02*Y-8750D01*
X224775Y-9500D01*
X227025Y-6500D02*Y-8750D01*
X227775Y-9500D01*
X224775D02*X226275D01*
X227025Y-8750D01*
X230325Y-7250D02*Y-9500D01*
Y-7250D02*X231075Y-6500D01*
X232575D01*
X229575D02*X230325Y-7250D01*
X237375Y-3500D02*Y-9500D01*
X236625D02*X237375Y-8750D01*
X235125Y-9500D02*X236625D01*
X234375Y-8750D02*X235125Y-9500D01*
X234375Y-7250D02*Y-8750D01*
Y-7250D02*X235125Y-6500D01*
X236625D01*
X237375Y-7250D01*
X241875D02*Y-8750D01*
Y-7250D02*X242625Y-6500D01*
X244125D01*
X244875Y-7250D01*
Y-8750D01*
X244125Y-9500D02*X244875Y-8750D01*
X242625Y-9500D02*X244125D01*
X241875Y-8750D02*X242625Y-9500D01*
X246675Y-6500D02*Y-8750D01*
X247425Y-9500D01*
X248925D01*
X249675Y-8750D01*
Y-6500D02*Y-8750D01*
X252225Y-3500D02*Y-8750D01*
X252975Y-9500D01*
X251475Y-5750D02*X252975D01*
X254475Y-3500D02*Y-8750D01*
X255225Y-9500D01*
G54D77*X256725Y-5000D02*Y-5150D01*
G54D76*Y-7250D02*Y-9500D01*
X258975Y-7250D02*Y-9500D01*
Y-7250D02*X259725Y-6500D01*
X260475D01*
X261225Y-7250D01*
Y-9500D01*
X258225Y-6500D02*X258975Y-7250D01*
X263775Y-9500D02*X266025D01*
X263025Y-8750D02*X263775Y-9500D01*
X263025Y-7250D02*Y-8750D01*
Y-7250D02*X263775Y-6500D01*
X265275D01*
X266025Y-7250D01*
X263025Y-8000D02*X266025D01*
Y-7250D02*Y-8000D01*
G54D77*X270525Y-5000D02*Y-5150D01*
G54D76*Y-7250D02*Y-9500D01*
X272775D02*X275025D01*
X275775Y-8750D01*
X275025Y-8000D02*X275775Y-8750D01*
X272775Y-8000D02*X275025D01*
X272025Y-7250D02*X272775Y-8000D01*
X272025Y-7250D02*X272775Y-6500D01*
X275025D01*
X275775Y-7250D01*
X272025Y-8750D02*X272775Y-9500D01*
X281025Y-3500D02*Y-8750D01*
X281775Y-9500D01*
X280275Y-5750D02*X281775D01*
X283275Y-3500D02*Y-9500D01*
Y-7250D02*X284025Y-6500D01*
X285525D01*
X286275Y-7250D01*
Y-9500D01*
X288825D02*X291075D01*
X288075Y-8750D02*X288825Y-9500D01*
X288075Y-7250D02*Y-8750D01*
Y-7250D02*X288825Y-6500D01*
X290325D01*
X291075Y-7250D01*
X288075Y-8000D02*X291075D01*
Y-7250D02*Y-8000D01*
X296325Y-6500D02*X298575D01*
X295575Y-7250D02*X296325Y-6500D01*
X295575Y-7250D02*Y-8750D01*
X296325Y-9500D01*
X298575D01*
X301125D02*X303375D01*
X300375Y-8750D02*X301125Y-9500D01*
X300375Y-7250D02*Y-8750D01*
Y-7250D02*X301125Y-6500D01*
X302625D01*
X303375Y-7250D01*
X300375Y-8000D02*X303375D01*
Y-7250D02*Y-8000D01*
X305925Y-7250D02*Y-9500D01*
Y-7250D02*X306675Y-6500D01*
X307425D01*
X308175Y-7250D01*
Y-9500D01*
X305175Y-6500D02*X305925Y-7250D01*
X310725Y-3500D02*Y-8750D01*
X311475Y-9500D01*
X309975Y-5750D02*X311475D01*
X313725Y-9500D02*X315975D01*
X312975Y-8750D02*X313725Y-9500D01*
X312975Y-7250D02*Y-8750D01*
Y-7250D02*X313725Y-6500D01*
X315225D01*
X315975Y-7250D01*
X312975Y-8000D02*X315975D01*
Y-7250D02*Y-8000D01*
X318525Y-7250D02*Y-9500D01*
Y-7250D02*X319275Y-6500D01*
X320775D01*
X317775D02*X318525Y-7250D01*
X322575Y-3500D02*Y-8750D01*
X323325Y-9500D01*
G54D77*X324825Y-5000D02*Y-5150D01*
G54D76*Y-7250D02*Y-9500D01*
X327075Y-7250D02*Y-9500D01*
Y-7250D02*X327825Y-6500D01*
X328575D01*
X329325Y-7250D01*
Y-9500D01*
X326325Y-6500D02*X327075Y-7250D01*
X331875Y-9500D02*X334125D01*
X331125Y-8750D02*X331875Y-9500D01*
X331125Y-7250D02*Y-8750D01*
Y-7250D02*X331875Y-6500D01*
X333375D01*
X334125Y-7250D01*
X331125Y-8000D02*X334125D01*
Y-7250D02*Y-8000D01*
X338625Y-7250D02*Y-8750D01*
Y-7250D02*X339375Y-6500D01*
X340875D01*
X341625Y-7250D01*
Y-8750D01*
X340875Y-9500D02*X341625Y-8750D01*
X339375Y-9500D02*X340875D01*
X338625Y-8750D02*X339375Y-9500D01*
X344175Y-4250D02*Y-9500D01*
Y-4250D02*X344925Y-3500D01*
X345675D01*
X343425Y-6500D02*X344925D01*
X350625Y-3500D02*Y-8750D01*
X351375Y-9500D01*
X349875Y-5750D02*X351375D01*
X352875Y-3500D02*Y-9500D01*
Y-7250D02*X353625Y-6500D01*
X355125D01*
X355875Y-7250D01*
Y-9500D01*
G54D77*X357675Y-5000D02*Y-5150D01*
G54D76*Y-7250D02*Y-9500D01*
X359925D02*X362175D01*
X362925Y-8750D01*
X362175Y-8000D02*X362925Y-8750D01*
X359925Y-8000D02*X362175D01*
X359175Y-7250D02*X359925Y-8000D01*
X359175Y-7250D02*X359925Y-6500D01*
X362175D01*
X362925Y-7250D01*
X359175Y-8750D02*X359925Y-9500D01*
X368175Y-7250D02*Y-11750D01*
X367425Y-6500D02*X368175Y-7250D01*
X368925Y-6500D01*
X370425D01*
X371175Y-7250D01*
Y-8750D01*
X370425Y-9500D02*X371175Y-8750D01*
X368925Y-9500D02*X370425D01*
X368175Y-8750D02*X368925Y-9500D01*
X375225Y-6500D02*X375975Y-7250D01*
X373725Y-6500D02*X375225D01*
X372975Y-7250D02*X373725Y-6500D01*
X372975Y-7250D02*Y-8750D01*
X373725Y-9500D01*
X375975Y-6500D02*Y-8750D01*
X376725Y-9500D01*
X373725D02*X375225D01*
X375975Y-8750D01*
X379275Y-3500D02*Y-8750D01*
X380025Y-9500D01*
X378525Y-5750D02*X380025D01*
X381525Y-3500D02*Y-9500D01*
Y-7250D02*X382275Y-6500D01*
X383775D01*
X384525Y-7250D01*
Y-9500D01*
X200750Y528500D02*Y522500D01*
X202700Y528500D02*X203750Y527450D01*
Y523550D01*
X202700Y522500D02*X203750Y523550D01*
X200000Y522500D02*X202700D01*
X200000Y528500D02*X202700D01*
X207800Y525500D02*X208550Y524750D01*
X206300Y525500D02*X207800D01*
X205550Y524750D02*X206300Y525500D01*
X205550Y524750D02*Y523250D01*
X206300Y522500D01*
X208550Y525500D02*Y523250D01*
X209300Y522500D01*
X206300D02*X207800D01*
X208550Y523250D01*
X211850Y528500D02*Y523250D01*
X212600Y522500D01*
X211100Y526250D02*X212600D01*
X214850Y522500D02*X217100D01*
X214100Y523250D02*X214850Y522500D01*
X214100Y524750D02*Y523250D01*
Y524750D02*X214850Y525500D01*
X216350D01*
X217100Y524750D01*
X214100Y524000D02*X217100D01*
Y524750D02*Y524000D01*
X218900Y526250D02*X219650D01*
X218900Y524750D02*X219650D01*
X224150Y528500D02*Y522500D01*
Y528500D02*X226400Y525500D01*
X228650Y528500D01*
Y522500D01*
X230450Y524750D02*Y523250D01*
Y524750D02*X231200Y525500D01*
X232700D01*
X233450Y524750D01*
Y523250D01*
X232700Y522500D02*X233450Y523250D01*
X231200Y522500D02*X232700D01*
X230450Y523250D02*X231200Y522500D01*
X236000Y524750D02*Y522500D01*
Y524750D02*X236750Y525500D01*
X237500D01*
X238250Y524750D01*
Y522500D01*
X235250Y525500D02*X236000Y524750D01*
X242750Y527300D02*X243950Y528500D01*
Y522500D01*
X242750D02*X245000D01*
X246800Y527300D02*X248000Y528500D01*
Y522500D01*
X246800D02*X249050D01*
X254300Y528500D02*Y522500D01*
X256250Y528500D02*X257300Y527450D01*
Y523550D01*
X256250Y522500D02*X257300Y523550D01*
X253550Y522500D02*X256250D01*
X253550Y528500D02*X256250D01*
X259850Y522500D02*X262100D01*
X259100Y523250D02*X259850Y522500D01*
X259100Y524750D02*Y523250D01*
Y524750D02*X259850Y525500D01*
X261350D01*
X262100Y524750D01*
X259100Y524000D02*X262100D01*
Y524750D02*Y524000D01*
X264650Y525500D02*X266900D01*
X263900Y524750D02*X264650Y525500D01*
X263900Y524750D02*Y523250D01*
X264650Y522500D01*
X266900D01*
X271400Y527750D02*X272150Y528500D01*
X274400D01*
X275150Y527750D01*
Y526250D01*
X271400Y522500D02*X275150Y526250D01*
X271400Y522500D02*X275150D01*
X276950Y523250D02*X277700Y522500D01*
X276950Y527750D02*Y523250D01*
Y527750D02*X277700Y528500D01*
X279200D01*
X279950Y527750D01*
Y523250D01*
X279200Y522500D02*X279950Y523250D01*
X277700Y522500D02*X279200D01*
X276950Y524000D02*X279950Y527000D01*
X281750Y527300D02*X282950Y528500D01*
Y522500D01*
X281750D02*X284000D01*
X286550D02*X289550Y528500D01*
X285800D02*X289550D01*
X294050Y523250D02*X294800Y522500D01*
X294050Y527750D02*Y523250D01*
Y527750D02*X294800Y528500D01*
X296300D01*
X297050Y527750D01*
Y523250D01*
X296300Y522500D02*X297050Y523250D01*
X294800Y522500D02*X296300D01*
X294050Y524000D02*X297050Y527000D01*
X298850Y528500D02*X301850D01*
X298850D02*Y525500D01*
X299600Y526250D01*
X301100D01*
X301850Y525500D01*
Y523250D01*
X301100Y522500D02*X301850Y523250D01*
X299600Y522500D02*X301100D01*
X298850Y523250D02*X299600Y522500D01*
X303650Y526250D02*X304400D01*
X303650Y524750D02*X304400D01*
X306200Y523250D02*X306950Y522500D01*
X306200Y527750D02*Y523250D01*
Y527750D02*X306950Y528500D01*
X308450D01*
X309200Y527750D01*
Y523250D01*
X308450Y522500D02*X309200Y523250D01*
X306950Y522500D02*X308450D01*
X306200Y524000D02*X309200Y527000D01*
X311000Y527750D02*X311750Y528500D01*
X313250D01*
X314000Y527750D01*
X313250Y522500D02*X314000Y523250D01*
X311750Y522500D02*X313250D01*
X311000Y523250D02*X311750Y522500D01*
Y525800D02*X313250D01*
X314000Y527750D02*Y526550D01*
Y525050D02*Y523250D01*
Y525050D02*X313250Y525800D01*
X314000Y526550D02*X313250Y525800D01*
X315800Y526250D02*X316550D01*
X315800Y524750D02*X316550D01*
X318350Y527750D02*X319100Y528500D01*
X320600D01*
X321350Y527750D01*
X320600Y522500D02*X321350Y523250D01*
X319100Y522500D02*X320600D01*
X318350Y523250D02*X319100Y522500D01*
Y525800D02*X320600D01*
X321350Y527750D02*Y526550D01*
Y525050D02*Y523250D01*
Y525050D02*X320600Y525800D01*
X321350Y526550D02*X320600Y525800D01*
X323150Y527750D02*X323900Y528500D01*
X325400D01*
X326150Y527750D01*
X325400Y522500D02*X326150Y523250D01*
X323900Y522500D02*X325400D01*
X323150Y523250D02*X323900Y522500D01*
Y525800D02*X325400D01*
X326150Y527750D02*Y526550D01*
Y525050D02*Y523250D01*
Y525050D02*X325400Y525800D01*
X326150Y526550D02*X325400Y525800D01*
X331400Y528500D02*Y522500D01*
X330650Y528500D02*X333650D01*
X334400Y527750D01*
Y526250D01*
X333650Y525500D02*X334400Y526250D01*
X331400Y525500D02*X333650D01*
X336200Y528500D02*Y522500D01*
Y528500D02*X338450Y525500D01*
X340700Y528500D01*
Y522500D01*
X348200Y528500D02*X348950Y527750D01*
X345950Y528500D02*X348200D01*
X345200Y527750D02*X345950Y528500D01*
X345200Y527750D02*Y523250D01*
X345950Y522500D01*
X348200D01*
X348950Y523250D01*
Y524750D02*Y523250D01*
X348200Y525500D02*X348950Y524750D01*
X346700Y525500D02*X348200D01*
X350750Y528500D02*Y522500D01*
Y528500D02*X353000Y525500D01*
X355250Y528500D01*
Y522500D01*
X357050Y528500D02*X360050D01*
X358550D02*Y522500D01*
X364550Y528500D02*Y523250D01*
X365300Y522500D01*
X366800D01*
X367550Y523250D01*
Y528500D02*Y523250D01*
X369350Y528500D02*X372350D01*
X370850D02*Y522500D01*
X375200D02*X377150D01*
X374150Y523550D02*X375200Y522500D01*
X374150Y527450D02*Y523550D01*
Y527450D02*X375200Y528500D01*
X377150D01*
X200000Y542000D02*Y537500D01*
Y542000D02*X201050Y543500D01*
X202700D01*
X203750Y542000D01*
Y537500D01*
X200000Y540500D02*X203750D01*
X205550D02*Y538250D01*
X206300Y537500D01*
X207800D01*
X208550Y538250D01*
Y540500D02*Y538250D01*
X211100Y543500D02*Y538250D01*
X211850Y537500D01*
X210350Y541250D02*X211850D01*
X213350Y543500D02*Y537500D01*
Y539750D02*X214100Y540500D01*
X215600D01*
X216350Y539750D01*
Y537500D01*
X218150Y539750D02*Y538250D01*
Y539750D02*X218900Y540500D01*
X220400D01*
X221150Y539750D01*
Y538250D01*
X220400Y537500D02*X221150Y538250D01*
X218900Y537500D02*X220400D01*
X218150Y538250D02*X218900Y537500D01*
X223700Y539750D02*Y537500D01*
Y539750D02*X224450Y540500D01*
X225950D01*
X222950D02*X223700Y539750D01*
X227750Y541250D02*X228500D01*
X227750Y539750D02*X228500D01*
X233000Y537500D02*X236000D01*
X236750Y538250D01*
Y540050D02*Y538250D01*
X236000Y540800D02*X236750Y540050D01*
X233750Y540800D02*X236000D01*
X233750Y543500D02*Y537500D01*
X233000Y543500D02*X236000D01*
X236750Y542750D01*
Y541550D01*
X236000Y540800D02*X236750Y541550D01*
X239300Y539750D02*Y537500D01*
Y539750D02*X240050Y540500D01*
X241550D01*
X238550D02*X239300Y539750D01*
G54D77*X243350Y542000D02*Y541850D01*
G54D76*Y539750D02*Y537500D01*
X247100Y540500D02*X247850Y539750D01*
X245600Y540500D02*X247100D01*
X244850Y539750D02*X245600Y540500D01*
X244850Y539750D02*Y538250D01*
X245600Y537500D01*
X247850Y540500D02*Y538250D01*
X248600Y537500D01*
X245600D02*X247100D01*
X247850Y538250D01*
X251150Y539750D02*Y537500D01*
Y539750D02*X251900Y540500D01*
X252650D01*
X253400Y539750D01*
Y537500D01*
X250400Y540500D02*X251150Y539750D01*
X260900Y543500D02*X261650Y542750D01*
X258650Y543500D02*X260900D01*
X257900Y542750D02*X258650Y543500D01*
X257900Y542750D02*Y541250D01*
X258650Y540500D01*
X260900D01*
X261650Y539750D01*
Y538250D01*
X260900Y537500D02*X261650Y538250D01*
X258650Y537500D02*X260900D01*
X257900Y538250D02*X258650Y537500D01*
G54D77*X263450Y542000D02*Y541850D01*
G54D76*Y539750D02*Y537500D01*
X264950Y543500D02*Y538250D01*
X265700Y537500D01*
X267200Y540500D02*X268700Y537500D01*
X270200Y540500D02*X268700Y537500D01*
X272750D02*X275000D01*
X272000Y538250D02*X272750Y537500D01*
X272000Y539750D02*Y538250D01*
Y539750D02*X272750Y540500D01*
X274250D01*
X275000Y539750D01*
X272000Y539000D02*X275000D01*
Y539750D02*Y539000D01*
X277550Y539750D02*Y537500D01*
Y539750D02*X278300Y540500D01*
X279800D01*
X276800D02*X277550Y539750D01*
X282350D02*Y537500D01*
Y539750D02*X283100Y540500D01*
X283850D01*
X284600Y539750D01*
Y537500D01*
Y539750D02*X285350Y540500D01*
X286100D01*
X286850Y539750D01*
Y537500D01*
X281600Y540500D02*X282350Y539750D01*
X290900Y540500D02*X291650Y539750D01*
X289400Y540500D02*X290900D01*
X288650Y539750D02*X289400Y540500D01*
X288650Y539750D02*Y538250D01*
X289400Y537500D01*
X291650Y540500D02*Y538250D01*
X292400Y537500D01*
X289400D02*X290900D01*
X291650Y538250D01*
X294950Y539750D02*Y537500D01*
Y539750D02*X295700Y540500D01*
X296450D01*
X297200Y539750D01*
Y537500D01*
X294200Y540500D02*X294950Y539750D01*
X200000Y558500D02*X203000D01*
X201500D02*Y552500D01*
G54D77*X204800Y557000D02*Y556850D01*
G54D76*Y554750D02*Y552500D01*
X207050Y558500D02*Y553250D01*
X207800Y552500D01*
X206300Y556250D02*X207800D01*
X209300Y558500D02*Y553250D01*
X210050Y552500D01*
X212300D02*X214550D01*
X211550Y553250D02*X212300Y552500D01*
X211550Y554750D02*Y553250D01*
Y554750D02*X212300Y555500D01*
X213800D01*
X214550Y554750D01*
X211550Y554000D02*X214550D01*
Y554750D02*Y554000D01*
X216350Y556250D02*X217100D01*
X216350Y554750D02*X217100D01*
G54D77*X222350Y557000D02*Y556850D01*
G54D76*Y554750D02*Y551000D01*
X221600Y550250D02*X222350Y551000D01*
X223850Y554750D02*Y553250D01*
Y554750D02*X224600Y555500D01*
X226100D01*
X226850Y554750D01*
Y553250D01*
X226100Y552500D02*X226850Y553250D01*
X224600Y552500D02*X226100D01*
X223850Y553250D02*X224600Y552500D01*
X228650Y555500D02*Y553250D01*
X229400Y552500D01*
X231650Y555500D02*Y551000D01*
X230900Y550250D02*X231650Y551000D01*
X229400Y550250D02*X230900D01*
X228650Y551000D02*X229400Y550250D01*
Y552500D02*X230900D01*
X231650Y553250D01*
X234200Y552500D02*X236450D01*
X237200Y553250D01*
X236450Y554000D02*X237200Y553250D01*
X234200Y554000D02*X236450D01*
X233450Y554750D02*X234200Y554000D01*
X233450Y554750D02*X234200Y555500D01*
X236450D01*
X237200Y554750D01*
X233450Y553250D02*X234200Y552500D01*
X239750Y558500D02*Y553250D01*
X240500Y552500D01*
X239000Y556250D02*X240500D01*
G54D77*X242000Y557000D02*Y556850D01*
G54D76*Y554750D02*Y552500D01*
X244250Y555500D02*X246500D01*
X243500Y554750D02*X244250Y555500D01*
X243500Y554750D02*Y553250D01*
X244250Y552500D01*
X246500D01*
X248300Y558500D02*Y552500D01*
Y554750D02*X250550Y552500D01*
X248300Y554750D02*X249800Y556250D01*
X252350Y555500D02*X255350D01*
X257150Y558500D02*Y552500D01*
Y553250D02*X257900Y552500D01*
X259400D01*
X260150Y553250D01*
Y554750D02*Y553250D01*
X259400Y555500D02*X260150Y554750D01*
X257900Y555500D02*X259400D01*
X257150Y554750D02*X257900Y555500D01*
X261950Y554750D02*Y553250D01*
Y554750D02*X262700Y555500D01*
X264200D01*
X264950Y554750D01*
Y553250D01*
X264200Y552500D02*X264950Y553250D01*
X262700Y552500D02*X264200D01*
X261950Y553250D02*X262700Y552500D01*
X269000Y555500D02*X269750Y554750D01*
X267500Y555500D02*X269000D01*
X266750Y554750D02*X267500Y555500D01*
X266750Y554750D02*Y553250D01*
X267500Y552500D01*
X269750Y555500D02*Y553250D01*
X270500Y552500D01*
X267500D02*X269000D01*
X269750Y553250D01*
X273050Y554750D02*Y552500D01*
Y554750D02*X273800Y555500D01*
X275300D01*
X272300D02*X273050Y554750D01*
X280100Y558500D02*Y552500D01*
X279350D02*X280100Y553250D01*
X277850Y552500D02*X279350D01*
X277100Y553250D02*X277850Y552500D01*
X277100Y554750D02*Y553250D01*
Y554750D02*X277850Y555500D01*
X279350D01*
X280100Y554750D01*
X284600Y555500D02*X287600D01*
X292100Y558500D02*Y552500D01*
Y558500D02*X295100D01*
X292100Y555800D02*X294350D01*
X299150Y555500D02*X299900Y554750D01*
X297650Y555500D02*X299150D01*
X296900Y554750D02*X297650Y555500D01*
X296900Y554750D02*Y553250D01*
X297650Y552500D01*
X299900Y555500D02*Y553250D01*
X300650Y552500D01*
X297650D02*X299150D01*
X299900Y553250D01*
X302450Y558500D02*Y552500D01*
Y553250D02*X303200Y552500D01*
X304700D01*
X305450Y553250D01*
Y554750D02*Y553250D01*
X304700Y555500D02*X305450Y554750D01*
X303200Y555500D02*X304700D01*
X302450Y554750D02*X303200Y555500D01*
X308000Y554750D02*Y552500D01*
Y554750D02*X308750Y555500D01*
X310250D01*
X307250D02*X308000Y554750D01*
G54D77*X312050Y557000D02*Y556850D01*
G54D76*Y554750D02*Y552500D01*
X314300Y555500D02*X316550D01*
X313550Y554750D02*X314300Y555500D01*
X313550Y554750D02*Y553250D01*
X314300Y552500D01*
X316550D01*
X320600Y555500D02*X321350Y554750D01*
X319100Y555500D02*X320600D01*
X318350Y554750D02*X319100Y555500D01*
X318350Y554750D02*Y553250D01*
X319100Y552500D01*
X321350Y555500D02*Y553250D01*
X322100Y552500D01*
X319100D02*X320600D01*
X321350Y553250D01*
X324650Y558500D02*Y553250D01*
X325400Y552500D01*
X323900Y556250D02*X325400D01*
G54D77*X326900Y557000D02*Y556850D01*
G54D76*Y554750D02*Y552500D01*
X328400Y554750D02*Y553250D01*
Y554750D02*X329150Y555500D01*
X330650D01*
X331400Y554750D01*
Y553250D01*
X330650Y552500D02*X331400Y553250D01*
X329150Y552500D02*X330650D01*
X328400Y553250D02*X329150Y552500D01*
X333950Y554750D02*Y552500D01*
Y554750D02*X334700Y555500D01*
X335450D01*
X336200Y554750D01*
Y552500D01*
X333200Y555500D02*X333950Y554750D01*
X341450Y558500D02*Y552500D01*
X343400Y558500D02*X344450Y557450D01*
Y553550D01*
X343400Y552500D02*X344450Y553550D01*
X340700Y552500D02*X343400D01*
X340700Y558500D02*X343400D01*
X347000Y554750D02*Y552500D01*
Y554750D02*X347750Y555500D01*
X349250D01*
X346250D02*X347000Y554750D01*
X353300Y555500D02*X354050Y554750D01*
X351800Y555500D02*X353300D01*
X351050Y554750D02*X351800Y555500D01*
X351050Y554750D02*Y553250D01*
X351800Y552500D01*
X354050Y555500D02*Y553250D01*
X354800Y552500D01*
X351800D02*X353300D01*
X354050Y553250D01*
X356600Y555500D02*Y553250D01*
X357350Y552500D01*
X358100D01*
X358850Y553250D01*
Y555500D02*Y553250D01*
X359600Y552500D01*
X360350D01*
X361100Y553250D01*
Y555500D02*Y553250D01*
G54D77*X362900Y557000D02*Y556850D01*
G54D76*Y554750D02*Y552500D01*
X365150Y554750D02*Y552500D01*
Y554750D02*X365900Y555500D01*
X366650D01*
X367400Y554750D01*
Y552500D01*
X364400Y555500D02*X365150Y554750D01*
X371450Y555500D02*X372200Y554750D01*
X369950Y555500D02*X371450D01*
X369200Y554750D02*X369950Y555500D01*
X369200Y554750D02*Y553250D01*
X369950Y552500D01*
X371450D01*
X372200Y553250D01*
X369200Y551000D02*X369950Y550250D01*
X371450D01*
X372200Y551000D01*
Y555500D02*Y551000D01*
M02*
