G04 start of page 9 for group -4015 idx -4015 *
G04 Title: joystick-board, toppaste *
G04 Creator: pcb 20140316 *
G04 CreationDate: Mon 11 Dec 2017 05:03:33 PM GMT UTC *
G04 For: brian *
G04 Format: Gerber/RS-274X *
G04 PCB-Dimensions (mil): 6000.00 5000.00 *
G04 PCB-Coordinate-Origin: lower left *
%MOIN*%
%FSLAX25Y25*%
%LNTOPPASTE*%
%ADD74R,0.0512X0.0512*%
%ADD73R,0.0189X0.0189*%
%ADD72R,0.0236X0.0236*%
%ADD71R,0.0200X0.0200*%
%ADD70R,0.0295X0.0295*%
G54D70*X322559Y267492D02*Y266508D01*
X317441Y267492D02*Y266508D01*
X296508Y278441D02*X297492D01*
X296508Y283559D02*X297492D01*
G54D71*X304500Y288500D02*X311000D01*
X304500Y283500D02*X311000D01*
X304500Y278500D02*X311000D01*
X304500Y273500D02*X311000D01*
X325000D02*X331500D01*
X325000Y278500D02*X331500D01*
X325000Y283500D02*X331500D01*
X325000Y288500D02*X331500D01*
G54D70*X367559Y217492D02*Y216508D01*
X362441Y217492D02*Y216508D01*
X348508Y321559D02*X349492D01*
X348508Y316441D02*X349492D01*
X155508D02*X156492D01*
X155508Y321559D02*X156492D01*
X162508Y316441D02*X163492D01*
X162508Y321559D02*X163492D01*
X121508Y316441D02*X122492D01*
X121508Y321559D02*X122492D01*
X114508Y316441D02*X115492D01*
X114508Y321559D02*X115492D01*
G54D72*X147260Y351299D02*Y349331D01*
X151000Y351299D02*Y349331D01*
X154740Y351299D02*Y349331D01*
Y340669D02*Y338701D01*
X151000Y340669D02*Y338701D01*
X147260Y340669D02*Y338701D01*
G54D70*X105441Y358492D02*Y357508D01*
X110559Y358492D02*Y357508D01*
X99559Y358492D02*Y357508D01*
X94441Y358492D02*Y357508D01*
X173441Y358492D02*Y357508D01*
X178559Y358492D02*Y357508D01*
X167559Y358492D02*Y357508D01*
X162441Y358492D02*Y357508D01*
X207441Y358492D02*Y357508D01*
X212559Y358492D02*Y357508D01*
X201559Y358492D02*Y357508D01*
X196441Y358492D02*Y357508D01*
X139441Y358492D02*Y357508D01*
X144559Y358492D02*Y357508D01*
X133559Y358492D02*Y357508D01*
X128441Y358492D02*Y357508D01*
G54D72*X283260Y351299D02*Y349331D01*
X287000Y351299D02*Y349331D01*
X290740Y351299D02*Y349331D01*
Y340669D02*Y338701D01*
X287000Y340669D02*Y338701D01*
X283260Y340669D02*Y338701D01*
G54D70*X275441Y358492D02*Y357508D01*
X280559Y358492D02*Y357508D01*
X269559Y358492D02*Y357508D01*
X264441Y358492D02*Y357508D01*
X309441Y358492D02*Y357508D01*
X314559Y358492D02*Y357508D01*
X303559Y358492D02*Y357508D01*
X298441Y358492D02*Y357508D01*
X343441Y358492D02*Y357508D01*
X348559Y358492D02*Y357508D01*
X337559Y358492D02*Y357508D01*
X332441Y358492D02*Y357508D01*
X241441Y358492D02*Y357508D01*
X246559Y358492D02*Y357508D01*
X235559Y358492D02*Y357508D01*
X230441Y358492D02*Y357508D01*
G54D72*X154740Y203669D02*Y201701D01*
X151000Y203669D02*Y201701D01*
X147260Y203669D02*Y201701D01*
Y214299D02*Y212331D01*
X151000Y214299D02*Y212331D01*
X154740Y214299D02*Y212331D01*
X290740Y203669D02*Y201701D01*
X287000Y203669D02*Y201701D01*
X283260Y203669D02*Y201701D01*
Y214299D02*Y212331D01*
X287000Y214299D02*Y212331D01*
X290740Y214299D02*Y212331D01*
G54D70*X309559Y246492D02*Y245508D01*
X304441Y246492D02*Y245508D01*
X315441Y246492D02*Y245508D01*
X320559Y246492D02*Y245508D01*
X309559Y239492D02*Y238508D01*
X304441Y239492D02*Y238508D01*
X315441Y239492D02*Y238508D01*
X320559Y239492D02*Y238508D01*
X139441Y194492D02*Y193508D01*
X144559Y194492D02*Y193508D01*
X133559Y194492D02*Y193508D01*
X128441Y194492D02*Y193508D01*
X173441Y194492D02*Y193508D01*
X178559Y194492D02*Y193508D01*
X167559Y194492D02*Y193508D01*
X162441Y194492D02*Y193508D01*
X207441Y194492D02*Y193508D01*
X212559Y194492D02*Y193508D01*
X201559Y194492D02*Y193508D01*
X196441Y194492D02*Y193508D01*
X241441Y194492D02*Y193508D01*
X246559Y194492D02*Y193508D01*
X235559Y194492D02*Y193508D01*
X230441Y194492D02*Y193508D01*
X275441Y194492D02*Y193508D01*
X280559Y194492D02*Y193508D01*
X269559Y194492D02*Y193508D01*
X264441Y194492D02*Y193508D01*
X309441Y194492D02*Y193508D01*
X314559Y194492D02*Y193508D01*
X303559Y194492D02*Y193508D01*
X298441Y194492D02*Y193508D01*
X343441Y194492D02*Y193508D01*
X348559Y194492D02*Y193508D01*
X337559Y194492D02*Y193508D01*
X332441Y194492D02*Y193508D01*
X105441Y194492D02*Y193508D01*
X110559Y194492D02*Y193508D01*
X99559Y194492D02*Y193508D01*
X94441Y194492D02*Y193508D01*
X417508Y331559D02*X418492D01*
X417508Y326441D02*X418492D01*
X417508Y297559D02*X418492D01*
X417508Y292441D02*X418492D01*
X418508Y263559D02*X419492D01*
X418508Y258441D02*X419492D01*
X417508Y229559D02*X418492D01*
X417508Y224441D02*X418492D01*
X404559Y291492D02*Y290508D01*
X399441Y291492D02*Y290508D01*
X410508Y292441D02*X411492D01*
X410508Y297559D02*X411492D01*
X411508Y252559D02*X412492D01*
X411508Y247441D02*X412492D01*
X411508Y258441D02*X412492D01*
X411508Y263559D02*X412492D01*
X410508Y218559D02*X411492D01*
X410508Y213441D02*X411492D01*
X410508Y224441D02*X411492D01*
X410508Y229559D02*X411492D01*
G54D72*X392740Y340669D02*Y338701D01*
X389000Y340669D02*Y338701D01*
X385260Y340669D02*Y338701D01*
Y351299D02*Y349331D01*
X389000Y351299D02*Y349331D01*
X392740Y351299D02*Y349331D01*
G54D70*X377441Y358492D02*Y357508D01*
X382559Y358492D02*Y357508D01*
X371559Y358492D02*Y357508D01*
X366441Y358492D02*Y357508D01*
X411441Y358492D02*Y357508D01*
X416559Y358492D02*Y357508D01*
X405559Y358492D02*Y357508D01*
X400441Y358492D02*Y357508D01*
G54D72*X392740Y203669D02*Y201701D01*
X389000Y203669D02*Y201701D01*
X385260Y203669D02*Y201701D01*
Y214299D02*Y212331D01*
X389000Y214299D02*Y212331D01*
X392740Y214299D02*Y212331D01*
G54D70*X377441Y194492D02*Y193508D01*
X382559Y194492D02*Y193508D01*
X371559Y194492D02*Y193508D01*
X366441Y194492D02*Y193508D01*
X411441Y194492D02*Y193508D01*
X416559Y194492D02*Y193508D01*
X405559Y194492D02*Y193508D01*
X400441Y194492D02*Y193508D01*
G54D73*X347894Y279819D02*X349744D01*
X347894Y272181D02*X349744D01*
X340256Y276000D02*X342106D01*
G54D70*X190508Y235559D02*X191492D01*
X190508Y230441D02*X191492D01*
X70508Y316441D02*X71492D01*
X70508Y321559D02*X71492D01*
X50508Y316441D02*X51492D01*
X50508Y321559D02*X51492D01*
G54D72*X406701Y273260D02*X408669D01*
X406701Y277000D02*X408669D01*
X406701Y280740D02*X408669D01*
X417331D02*X419299D01*
X417331Y277000D02*X419299D01*
X417331Y273260D02*X419299D01*
G54D70*X129508Y316441D02*X130492D01*
X129508Y321559D02*X130492D01*
X136508Y316441D02*X137492D01*
X136508Y321559D02*X137492D01*
X170508Y316441D02*X171492D01*
X170508Y321559D02*X171492D01*
X177508Y316441D02*X178492D01*
X177508Y321559D02*X178492D01*
X410508Y326441D02*X411492D01*
X410508Y331559D02*X411492D01*
X410508Y320559D02*X411492D01*
X410508Y315441D02*X411492D01*
G54D74*X348543Y288393D02*Y287607D01*
X341457Y288393D02*Y287607D01*
G54D70*X309559Y323492D02*Y322508D01*
X304441Y323492D02*Y322508D01*
X315441Y323492D02*Y322508D01*
X320559Y323492D02*Y322508D01*
X309559Y316492D02*Y315508D01*
X304441Y316492D02*Y315508D01*
X315441Y316492D02*Y315508D01*
X320559Y316492D02*Y315508D01*
X309559Y309492D02*Y308508D01*
X304441Y309492D02*Y308508D01*
X315441Y309492D02*Y308508D01*
X320559Y309492D02*Y308508D01*
G54D74*X341457Y263393D02*Y262607D01*
X348543Y263393D02*Y262607D01*
X399607Y243543D02*X400393D01*
X399607Y236457D02*X400393D01*
M02*
