G04 start of page 4 for group 2 idx 2 *
G04 Title: power, signal3 *
G04 Creator: pcb 20140316 *
G04 CreationDate: Tue 06 Jun 2017 06:55:07 AM GMT UTC *
G04 For: brian *
G04 Format: Gerber/RS-274X *
G04 PCB-Dimensions (mil): 6000.00 5000.00 *
G04 PCB-Coordinate-Origin: lower left *
%MOIN*%
%FSLAX25Y25*%
%LNGROUP2*%
%ADD64C,0.0485*%
%ADD63C,0.1770*%
%ADD62C,0.0380*%
%ADD61C,0.0118*%
%ADD60C,0.0200*%
%ADD59C,0.0350*%
%ADD58C,0.0360*%
%ADD57C,0.0685*%
%ADD56C,0.2000*%
%ADD55C,0.0600*%
%ADD54C,0.0318*%
%ADD53C,0.0250*%
%ADD52C,0.0550*%
%ADD51C,0.0100*%
%ADD50C,0.0001*%
G54D50*G36*
X354000Y393000D02*X81000D01*
Y411000D01*
X102000D01*
Y436500D01*
X354000D01*
Y393000D01*
G37*
G36*
X341500Y347000D02*X348000D01*
X350000Y345000D01*
Y314500D01*
X341500Y306000D01*
X148000D01*
X146000Y304000D01*
X81000D01*
Y342000D01*
X305500D01*
X315500Y352000D01*
X336500D01*
X341500Y347000D01*
G37*
G36*
X171500Y378000D02*Y392000D01*
X229000D01*
Y343000D01*
X182000D01*
Y367500D01*
X171500Y378000D01*
G37*
G36*
X81000Y343000D02*Y392000D01*
X148500D01*
Y343000D01*
X81000D01*
G37*
G36*
X163996Y392000D02*X170500D01*
Y377000D01*
X181000Y366500D01*
Y358411D01*
X180986Y358427D01*
X180651Y358713D01*
X180275Y358943D01*
X179868Y359112D01*
X179439Y359215D01*
X179000Y359250D01*
X178561Y359215D01*
X178132Y359112D01*
X177725Y358943D01*
X177349Y358713D01*
X177014Y358427D01*
X176728Y358092D01*
X176497Y357716D01*
X176329Y357309D01*
X176226Y356880D01*
X176191Y356441D01*
X176226Y356002D01*
X176329Y355573D01*
X176497Y355166D01*
X176728Y354790D01*
X177014Y354455D01*
X177349Y354169D01*
X177725Y353938D01*
X178132Y353770D01*
X178561Y353667D01*
X179000Y353632D01*
X179439Y353667D01*
X179868Y353770D01*
X180275Y353938D01*
X180651Y354169D01*
X180986Y354455D01*
X181000Y354471D01*
Y342000D01*
X163996D01*
Y355692D01*
X164000Y355691D01*
X164439Y355726D01*
X164868Y355829D01*
X165275Y355997D01*
X165651Y356228D01*
X165986Y356514D01*
X166272Y356849D01*
X166503Y357225D01*
X166671Y357632D01*
X166774Y358061D01*
X166800Y358500D01*
X166774Y358939D01*
X166671Y359368D01*
X166503Y359775D01*
X166272Y360151D01*
X165986Y360486D01*
X165651Y360772D01*
X165275Y361003D01*
X164868Y361171D01*
X164439Y361274D01*
X164000Y361309D01*
X163996Y361308D01*
Y362692D01*
X164000Y362691D01*
X164439Y362726D01*
X164868Y362829D01*
X165275Y362997D01*
X165651Y363228D01*
X165986Y363514D01*
X166250Y363823D01*
X166514Y363514D01*
X166849Y363228D01*
X167225Y362997D01*
X167632Y362829D01*
X168061Y362726D01*
X168500Y362691D01*
X168939Y362726D01*
X169368Y362829D01*
X169775Y362997D01*
X170151Y363228D01*
X170486Y363514D01*
X170772Y363849D01*
X171003Y364225D01*
X171171Y364632D01*
X171274Y365061D01*
X171300Y365500D01*
X171274Y365939D01*
X171171Y366368D01*
X171003Y366775D01*
X170772Y367151D01*
X170486Y367486D01*
X170151Y367772D01*
X169775Y368003D01*
X169368Y368171D01*
X168939Y368274D01*
X168500Y368309D01*
X168061Y368274D01*
X167632Y368171D01*
X167225Y368003D01*
X166849Y367772D01*
X166514Y367486D01*
X166250Y367177D01*
X165986Y367486D01*
X165651Y367772D01*
X165275Y368003D01*
X164868Y368171D01*
X164439Y368274D01*
X164000Y368309D01*
X163996Y368308D01*
Y392000D01*
G37*
G36*
X149500Y342000D02*Y392000D01*
X163996D01*
Y368308D01*
X163561Y368274D01*
X163132Y368171D01*
X162725Y368003D01*
X162349Y367772D01*
X162014Y367486D01*
X161750Y367177D01*
X161486Y367486D01*
X161151Y367772D01*
X160775Y368003D01*
X160368Y368171D01*
X159939Y368274D01*
X159500Y368309D01*
X159061Y368274D01*
X158632Y368171D01*
X158225Y368003D01*
X157849Y367772D01*
X157514Y367486D01*
X157228Y367151D01*
X156997Y366775D01*
X156829Y366368D01*
X156726Y365939D01*
X156691Y365500D01*
X156726Y365061D01*
X156829Y364632D01*
X156997Y364225D01*
X157228Y363849D01*
X157281Y363786D01*
X157000Y363809D01*
X156561Y363774D01*
X156132Y363671D01*
X155725Y363503D01*
X155349Y363272D01*
X155014Y362986D01*
X154728Y362651D01*
X154497Y362275D01*
X154329Y361868D01*
X154226Y361439D01*
X154191Y361000D01*
X154226Y360561D01*
X154329Y360132D01*
X154497Y359725D01*
X154728Y359349D01*
X155014Y359014D01*
X155349Y358728D01*
X155721Y358500D01*
X155349Y358272D01*
X155014Y357986D01*
X154728Y357651D01*
X154497Y357275D01*
X154329Y356868D01*
X154226Y356439D01*
X154191Y356000D01*
X154226Y355561D01*
X154329Y355132D01*
X154497Y354725D01*
X154728Y354349D01*
X155014Y354014D01*
X155349Y353728D01*
X155725Y353497D01*
X156132Y353329D01*
X156561Y353226D01*
X157000Y353191D01*
X157439Y353226D01*
X157868Y353329D01*
X158275Y353497D01*
X158651Y353728D01*
X158986Y354014D01*
X159272Y354349D01*
X159503Y354725D01*
X159671Y355132D01*
X159774Y355561D01*
X159800Y356000D01*
X159774Y356439D01*
X159671Y356868D01*
X159503Y357275D01*
X159272Y357651D01*
X158986Y357986D01*
X158651Y358272D01*
X158279Y358500D01*
X158651Y358728D01*
X158986Y359014D01*
X159272Y359349D01*
X159503Y359725D01*
X159671Y360132D01*
X159774Y360561D01*
X159800Y361000D01*
X159774Y361439D01*
X159671Y361868D01*
X159503Y362275D01*
X159272Y362651D01*
X159219Y362714D01*
X159500Y362691D01*
X159939Y362726D01*
X160368Y362829D01*
X160775Y362997D01*
X161151Y363228D01*
X161486Y363514D01*
X161750Y363823D01*
X162014Y363514D01*
X162349Y363228D01*
X162725Y362997D01*
X163132Y362829D01*
X163561Y362726D01*
X163996Y362692D01*
Y361308D01*
X163561Y361274D01*
X163132Y361171D01*
X162725Y361003D01*
X162349Y360772D01*
X162014Y360486D01*
X161728Y360151D01*
X161497Y359775D01*
X161329Y359368D01*
X161226Y358939D01*
X161191Y358500D01*
X161226Y358061D01*
X161329Y357632D01*
X161497Y357225D01*
X161728Y356849D01*
X162014Y356514D01*
X162349Y356228D01*
X162725Y355997D01*
X163132Y355829D01*
X163561Y355726D01*
X163996Y355692D01*
Y342000D01*
X149500D01*
G37*
G36*
X354000Y392000D02*Y360000D01*
X331500D01*
Y392000D01*
X354000D01*
G37*
G36*
X252000Y378000D02*Y392000D01*
X309000D01*
Y349500D01*
X302500Y343000D01*
X262500D01*
Y367500D01*
X252000Y378000D01*
G37*
G36*
X244496Y392000D02*X251000D01*
Y377000D01*
X261500Y366500D01*
Y358470D01*
X261486Y358486D01*
X261151Y358772D01*
X260775Y359003D01*
X260368Y359171D01*
X259939Y359274D01*
X259500Y359309D01*
X259061Y359274D01*
X258632Y359171D01*
X258225Y359003D01*
X257849Y358772D01*
X257514Y358486D01*
X257228Y358151D01*
X256997Y357775D01*
X256829Y357368D01*
X256726Y356939D01*
X256691Y356500D01*
X256726Y356061D01*
X256829Y355632D01*
X256997Y355225D01*
X257228Y354849D01*
X257514Y354514D01*
X257849Y354228D01*
X258225Y353997D01*
X258632Y353829D01*
X259061Y353726D01*
X259500Y353691D01*
X259939Y353726D01*
X260368Y353829D01*
X260775Y353997D01*
X261151Y354228D01*
X261486Y354514D01*
X261500Y354530D01*
Y342000D01*
X244496D01*
Y355692D01*
X244500Y355691D01*
X244939Y355726D01*
X245368Y355829D01*
X245775Y355997D01*
X246151Y356228D01*
X246486Y356514D01*
X246772Y356849D01*
X247003Y357225D01*
X247171Y357632D01*
X247274Y358061D01*
X247300Y358500D01*
X247274Y358939D01*
X247171Y359368D01*
X247003Y359775D01*
X246772Y360151D01*
X246486Y360486D01*
X246151Y360772D01*
X245775Y361003D01*
X245368Y361171D01*
X244939Y361274D01*
X244500Y361309D01*
X244496Y361308D01*
Y362692D01*
X244500Y362691D01*
X244939Y362726D01*
X245368Y362829D01*
X245775Y362997D01*
X246151Y363228D01*
X246486Y363514D01*
X246750Y363823D01*
X247014Y363514D01*
X247349Y363228D01*
X247725Y362997D01*
X248132Y362829D01*
X248561Y362726D01*
X249000Y362691D01*
X249439Y362726D01*
X249868Y362829D01*
X250275Y362997D01*
X250651Y363228D01*
X250986Y363514D01*
X251272Y363849D01*
X251503Y364225D01*
X251671Y364632D01*
X251774Y365061D01*
X251800Y365500D01*
X251774Y365939D01*
X251671Y366368D01*
X251503Y366775D01*
X251272Y367151D01*
X250986Y367486D01*
X250651Y367772D01*
X250275Y368003D01*
X249868Y368171D01*
X249439Y368274D01*
X249000Y368309D01*
X248561Y368274D01*
X248132Y368171D01*
X247725Y368003D01*
X247349Y367772D01*
X247014Y367486D01*
X246750Y367177D01*
X246486Y367486D01*
X246151Y367772D01*
X245775Y368003D01*
X245368Y368171D01*
X244939Y368274D01*
X244500Y368309D01*
X244496Y368308D01*
Y392000D01*
G37*
G36*
X230000Y342000D02*Y392000D01*
X244496D01*
Y368308D01*
X244061Y368274D01*
X243632Y368171D01*
X243225Y368003D01*
X242849Y367772D01*
X242514Y367486D01*
X242250Y367177D01*
X241986Y367486D01*
X241651Y367772D01*
X241275Y368003D01*
X240868Y368171D01*
X240439Y368274D01*
X240000Y368309D01*
X239561Y368274D01*
X239132Y368171D01*
X238725Y368003D01*
X238349Y367772D01*
X238014Y367486D01*
X237728Y367151D01*
X237497Y366775D01*
X237329Y366368D01*
X237226Y365939D01*
X237191Y365500D01*
X237226Y365061D01*
X237329Y364632D01*
X237497Y364225D01*
X237728Y363849D01*
X237781Y363786D01*
X237500Y363809D01*
X237061Y363774D01*
X236632Y363671D01*
X236225Y363503D01*
X235849Y363272D01*
X235514Y362986D01*
X235228Y362651D01*
X234997Y362275D01*
X234829Y361868D01*
X234726Y361439D01*
X234691Y361000D01*
X234726Y360561D01*
X234829Y360132D01*
X234997Y359725D01*
X235228Y359349D01*
X235514Y359014D01*
X235849Y358728D01*
X236221Y358500D01*
X235849Y358272D01*
X235514Y357986D01*
X235228Y357651D01*
X234997Y357275D01*
X234829Y356868D01*
X234726Y356439D01*
X234691Y356000D01*
X234726Y355561D01*
X234829Y355132D01*
X234997Y354725D01*
X235228Y354349D01*
X235514Y354014D01*
X235849Y353728D01*
X236225Y353497D01*
X236632Y353329D01*
X237061Y353226D01*
X237500Y353191D01*
X237939Y353226D01*
X238368Y353329D01*
X238775Y353497D01*
X239151Y353728D01*
X239486Y354014D01*
X239772Y354349D01*
X240003Y354725D01*
X240171Y355132D01*
X240274Y355561D01*
X240300Y356000D01*
X240274Y356439D01*
X240171Y356868D01*
X240003Y357275D01*
X239772Y357651D01*
X239486Y357986D01*
X239151Y358272D01*
X238779Y358500D01*
X239151Y358728D01*
X239486Y359014D01*
X239772Y359349D01*
X240003Y359725D01*
X240171Y360132D01*
X240274Y360561D01*
X240300Y361000D01*
X240274Y361439D01*
X240171Y361868D01*
X240003Y362275D01*
X239772Y362651D01*
X239719Y362714D01*
X240000Y362691D01*
X240439Y362726D01*
X240868Y362829D01*
X241275Y362997D01*
X241651Y363228D01*
X241986Y363514D01*
X242250Y363823D01*
X242514Y363514D01*
X242849Y363228D01*
X243225Y362997D01*
X243632Y362829D01*
X244061Y362726D01*
X244496Y362692D01*
Y361308D01*
X244061Y361274D01*
X243632Y361171D01*
X243225Y361003D01*
X242849Y360772D01*
X242514Y360486D01*
X242228Y360151D01*
X241997Y359775D01*
X241829Y359368D01*
X241726Y358939D01*
X241691Y358500D01*
X241726Y358061D01*
X241829Y357632D01*
X241997Y357225D01*
X242228Y356849D01*
X242514Y356514D01*
X242849Y356228D01*
X243225Y355997D01*
X243632Y355829D01*
X244061Y355726D01*
X244496Y355692D01*
Y342000D01*
X230000D01*
G37*
G36*
X324996Y392000D02*X333500D01*
Y369303D01*
X332848Y368652D01*
X332457Y368211D01*
X332148Y367708D01*
X331923Y367162D01*
X331785Y366588D01*
X331738Y366000D01*
X331785Y365412D01*
X331923Y364838D01*
X332148Y364292D01*
X332457Y363789D01*
X332840Y363340D01*
X333289Y362957D01*
X333500Y362828D01*
Y349500D01*
X324996D01*
Y355692D01*
X325000Y355691D01*
X325439Y355726D01*
X325868Y355829D01*
X326275Y355997D01*
X326651Y356228D01*
X326986Y356514D01*
X327272Y356849D01*
X327503Y357225D01*
X327671Y357632D01*
X327774Y358061D01*
X327800Y358500D01*
X327774Y358939D01*
X327671Y359368D01*
X327503Y359775D01*
X327272Y360151D01*
X326986Y360486D01*
X326651Y360772D01*
X326275Y361003D01*
X325868Y361171D01*
X325439Y361274D01*
X325000Y361309D01*
X324996Y361308D01*
Y362882D01*
X325275Y362997D01*
X325651Y363228D01*
X325986Y363514D01*
X326250Y363823D01*
X326514Y363514D01*
X326849Y363228D01*
X327225Y362997D01*
X327632Y362829D01*
X328061Y362726D01*
X328500Y362691D01*
X328939Y362726D01*
X329368Y362829D01*
X329775Y362997D01*
X330151Y363228D01*
X330486Y363514D01*
X330772Y363849D01*
X331003Y364225D01*
X331171Y364632D01*
X331274Y365061D01*
X331300Y365500D01*
X331274Y365939D01*
X331171Y366368D01*
X331003Y366775D01*
X330772Y367151D01*
X330486Y367486D01*
X330151Y367772D01*
X329775Y368003D01*
X329368Y368171D01*
X328939Y368274D01*
X328500Y368309D01*
X328061Y368274D01*
X327632Y368171D01*
X327225Y368003D01*
X326849Y367772D01*
X326514Y367486D01*
X326250Y367177D01*
X325986Y367486D01*
X325651Y367772D01*
X325275Y368003D01*
X324996Y368118D01*
Y392000D01*
G37*
G36*
X310000Y349500D02*Y392000D01*
X324996D01*
Y368118D01*
X324868Y368171D01*
X324439Y368274D01*
X324000Y368309D01*
X323561Y368274D01*
X323132Y368171D01*
X322725Y368003D01*
X322349Y367772D01*
X322014Y367486D01*
X321750Y367177D01*
X321486Y367486D01*
X321151Y367772D01*
X320775Y368003D01*
X320368Y368171D01*
X319939Y368274D01*
X319500Y368309D01*
X319061Y368274D01*
X318632Y368171D01*
X318225Y368003D01*
X317849Y367772D01*
X317514Y367486D01*
X317228Y367151D01*
X316997Y366775D01*
X316829Y366368D01*
X316726Y365939D01*
X316691Y365500D01*
X316726Y365061D01*
X316829Y364632D01*
X316997Y364225D01*
X317228Y363849D01*
X317338Y363721D01*
X317132Y363671D01*
X316725Y363503D01*
X316349Y363272D01*
X316014Y362986D01*
X315728Y362651D01*
X315497Y362275D01*
X315329Y361868D01*
X315226Y361439D01*
X315191Y361000D01*
X315226Y360561D01*
X315329Y360132D01*
X315497Y359725D01*
X315728Y359349D01*
X316014Y359014D01*
X316349Y358728D01*
X316721Y358500D01*
X316349Y358272D01*
X316014Y357986D01*
X315728Y357651D01*
X315497Y357275D01*
X315329Y356868D01*
X315226Y356439D01*
X315191Y356000D01*
X315226Y355561D01*
X315329Y355132D01*
X315497Y354725D01*
X315728Y354349D01*
X316014Y354014D01*
X316349Y353728D01*
X316725Y353497D01*
X317132Y353329D01*
X317561Y353226D01*
X318000Y353191D01*
X318439Y353226D01*
X318868Y353329D01*
X319275Y353497D01*
X319651Y353728D01*
X319986Y354014D01*
X320272Y354349D01*
X320503Y354725D01*
X320671Y355132D01*
X320774Y355561D01*
X320800Y356000D01*
X320774Y356439D01*
X320671Y356868D01*
X320503Y357275D01*
X320272Y357651D01*
X319986Y357986D01*
X319651Y358272D01*
X319279Y358500D01*
X319651Y358728D01*
X319986Y359014D01*
X320272Y359349D01*
X320503Y359725D01*
X320671Y360132D01*
X320774Y360561D01*
X320800Y361000D01*
X320774Y361439D01*
X320671Y361868D01*
X320503Y362275D01*
X320272Y362651D01*
X320162Y362779D01*
X320368Y362829D01*
X320775Y362997D01*
X321151Y363228D01*
X321486Y363514D01*
X321750Y363823D01*
X322014Y363514D01*
X322349Y363228D01*
X322725Y362997D01*
X323132Y362829D01*
X323561Y362726D01*
X324000Y362691D01*
X324439Y362726D01*
X324868Y362829D01*
X324996Y362882D01*
Y361308D01*
X324561Y361274D01*
X324132Y361171D01*
X323725Y361003D01*
X323349Y360772D01*
X323014Y360486D01*
X322728Y360151D01*
X322497Y359775D01*
X322329Y359368D01*
X322226Y358939D01*
X322191Y358500D01*
X322226Y358061D01*
X322329Y357632D01*
X322497Y357225D01*
X322728Y356849D01*
X323014Y356514D01*
X323349Y356228D01*
X323725Y355997D01*
X324132Y355829D01*
X324561Y355726D01*
X324996Y355692D01*
Y349500D01*
X310000D01*
G37*
G54D51*X154000Y287500D02*X144000D01*
X133000Y276500D01*
X149000Y296000D02*X142500D01*
X123000Y276500D02*X142500Y296000D01*
X247500Y281500D02*X238500D01*
X252500Y282500D02*X248500Y286500D01*
X216000Y294000D02*X221500Y288500D01*
X221000Y297500D02*X213500D01*
X212000Y296000D01*
Y293000D01*
X221500Y288500D02*X227000D01*
X232000Y286500D02*X221000Y297500D01*
X265500Y282500D02*X252500D01*
X238500Y281500D02*X235500Y284500D01*
X231000D01*
X227000Y288500D01*
X248500Y286500D02*X232000D01*
X251000Y290000D02*X234000D01*
X212000Y293000D02*X205500Y286500D01*
X195500D01*
X189000Y293000D01*
X183000D01*
G54D52*X347000Y381264D02*Y374236D01*
X343736D01*
X335500Y366000D01*
G54D53*X331000Y291500D02*X352500Y313000D01*
G54D52*X334000Y366000D02*Y335500D01*
G54D53*X352500Y313000D02*Y346236D01*
X347000Y351736D01*
G54D51*X290000Y288500D02*X283500Y282000D01*
X277000D01*
X271500Y276500D01*
X326000Y282500D02*X320000Y288500D01*
X290000D02*X320000D01*
X271500Y276500D02*X265500Y282500D01*
G54D54*X192827Y429905D03*
X197551D03*
X202276D03*
X192827Y425181D03*
Y420456D03*
Y415732D03*
X197551Y425181D03*
Y420456D03*
Y415732D03*
Y411008D03*
X202276D03*
X207000D03*
X211724D03*
X207000Y429905D03*
X211724D03*
X216449D03*
X221173D03*
X202276Y425181D03*
Y420456D03*
X207000D03*
X211724D03*
X216449D03*
X221173D03*
X207000Y425181D03*
X211724D03*
X216449D03*
X221173D03*
X202276Y415732D03*
X207000D03*
X211724D03*
X216449D03*
X221173D03*
Y411008D03*
X216449D03*
X192827D03*
Y365905D03*
Y347008D03*
G54D50*G36*
X195500Y279500D02*Y273500D01*
X201500D01*
Y279500D01*
X195500D01*
G37*
G54D55*X208500Y276500D03*
X218500D03*
X228500D03*
G54D54*X197551Y365905D03*
X202276D03*
X207000D03*
X211724D03*
X216449D03*
X221173D03*
X202276Y361181D03*
Y356456D03*
X207000D03*
X211724D03*
X216449D03*
X221173D03*
X207000Y361181D03*
X211724D03*
X216449D03*
X221173D03*
X192827D03*
Y356456D03*
Y351732D03*
X197551Y361181D03*
Y356456D03*
Y351732D03*
X202276D03*
X207000D03*
X211724D03*
X216449D03*
X221173D03*
X197551Y347008D03*
X202276D03*
X207000D03*
X211724D03*
X216449D03*
X221173D03*
X273327Y429905D03*
X278051D03*
X282776D03*
X273327Y425181D03*
Y420456D03*
Y415732D03*
X278051Y425181D03*
Y420456D03*
Y415732D03*
Y411008D03*
X282776D03*
X287500D03*
X292224D03*
X287500Y429905D03*
X292224D03*
X296949D03*
X301673D03*
X282776Y425181D03*
Y420456D03*
X287500D03*
X292224D03*
X296949D03*
X301673D03*
X287500Y425181D03*
X292224D03*
X296949D03*
X301673D03*
X282776Y415732D03*
X287500D03*
X292224D03*
X296949D03*
X301673D03*
Y411008D03*
X296949D03*
X273327D03*
Y365905D03*
Y347008D03*
X278051Y365905D03*
X282776D03*
X287500D03*
X292224D03*
X296949D03*
X301673D03*
X282776Y361181D03*
Y356456D03*
X287500D03*
X292224D03*
X296949D03*
X301673D03*
X287500Y361181D03*
X292224D03*
X296949D03*
X301673D03*
G54D55*X293500Y276500D03*
X283500D03*
G54D50*G36*
X238500Y279500D02*Y273500D01*
X244500D01*
Y279500D01*
X238500D01*
G37*
G54D55*X251500Y276500D03*
X261500D03*
X271500D03*
G54D54*X273327Y361181D03*
Y356456D03*
Y351732D03*
X278051Y361181D03*
Y356456D03*
Y351732D03*
X282776D03*
X287500D03*
X292224D03*
X296949D03*
X301673D03*
X278051Y347008D03*
X282776D03*
X287500D03*
X292224D03*
X296949D03*
X301673D03*
G54D50*G36*
X310500Y279500D02*Y273500D01*
X316500D01*
Y279500D01*
X310500D01*
G37*
G54D56*X342000Y282500D03*
G54D55*X303500Y276500D03*
G54D57*X348000Y351736D03*
Y381264D03*
Y403764D03*
Y374236D03*
G54D54*X112327Y429905D03*
X117051D03*
X121776D03*
X112327Y425181D03*
Y420456D03*
Y415732D03*
X117051Y425181D03*
Y420456D03*
Y415732D03*
Y411008D03*
X121776D03*
X126500D03*
X131224D03*
X126500Y429905D03*
X131224D03*
X135949D03*
X140673D03*
X121776Y425181D03*
Y420456D03*
X126500D03*
X131224D03*
X135949D03*
X140673D03*
X126500Y425181D03*
X131224D03*
X135949D03*
X140673D03*
X121776Y415732D03*
X126500D03*
X131224D03*
X135949D03*
X140673D03*
Y411008D03*
X135949D03*
X112327D03*
Y365905D03*
Y347008D03*
G54D56*X91000Y282500D03*
Y423000D03*
G54D50*G36*
X120000Y279500D02*Y273500D01*
X126000D01*
Y279500D01*
X120000D01*
G37*
G54D55*X133000Y276500D03*
X143000D03*
X153000D03*
X163000D03*
G54D54*X117051Y365905D03*
X121776D03*
X126500D03*
X131224D03*
X135949D03*
X140673D03*
X121776Y361181D03*
Y356456D03*
X126500D03*
X131224D03*
X135949D03*
X140673D03*
X126500Y361181D03*
X131224D03*
X135949D03*
X140673D03*
X112327D03*
Y356456D03*
Y351732D03*
X117051Y361181D03*
Y356456D03*
Y351732D03*
X121776D03*
X126500D03*
X131224D03*
X135949D03*
X140673D03*
X117051Y347008D03*
X121776D03*
X126500D03*
X131224D03*
X135949D03*
X140673D03*
G54D55*X199000Y291000D03*
G54D58*X183000Y293000D03*
X170500Y279500D03*
X177500Y281500D03*
X193500D03*
G54D55*X199000Y298000D03*
G54D58*X221500Y312500D03*
G54D55*X231000Y302000D03*
X235000Y296000D03*
G54D58*X216000Y294000D03*
X233500Y281000D03*
X247500Y281500D03*
X251000Y290000D03*
X256000Y288500D03*
G54D55*X261500Y292500D03*
G54D58*X234000Y290000D03*
X199000Y332500D03*
X197000Y336000D03*
X201000D03*
X215000Y332500D03*
X223000D03*
X228500Y329000D03*
Y325000D03*
Y321000D03*
X227500Y317000D03*
X246500D03*
X251500D03*
X256500D03*
X254000Y314000D03*
X249000D03*
X207000Y332500D03*
X205000Y336000D03*
X209000D03*
X213000D03*
X217000D03*
X221000D03*
X249000Y320000D03*
X254000D03*
X251500Y323000D03*
X219500Y316500D03*
X211500D03*
X203500D03*
X195500D03*
X166000Y317000D03*
X171000D03*
Y323000D03*
X176000Y317000D03*
X173500Y314000D03*
Y320000D03*
X168500Y314000D03*
Y320000D03*
X196000Y379000D03*
X199500Y375500D03*
X192500D03*
X203000Y379000D03*
X210000D03*
X217000D03*
X224000D03*
X206500Y375500D03*
X213500D03*
X220500D03*
X179000Y356441D03*
X240000Y365500D03*
X244500D03*
X249000D03*
X259500Y356500D03*
X244500Y358500D03*
X237500Y356000D03*
Y361000D03*
G54D55*X279500Y298000D03*
G54D58*X292000Y316500D03*
X284000D03*
X276000D03*
X293500Y336000D03*
G54D55*X280000Y291000D03*
G54D58*X295500Y332500D03*
X303500D03*
X309000Y329000D03*
Y325000D03*
Y321000D03*
X300000Y316500D03*
X302000Y312500D03*
X297500Y336000D03*
X301500D03*
X279500Y332500D03*
X287500D03*
X277500Y336000D03*
X281500D03*
X285500D03*
X289500D03*
X308000Y317000D03*
G54D55*X311500Y302000D03*
X315000Y296000D03*
G54D58*X315500Y285000D03*
X320500Y283000D03*
X344500Y312000D03*
X342000Y315000D03*
X339500Y312000D03*
X347000Y315000D03*
X327000D03*
X337000D03*
X332000D03*
X334500Y312000D03*
X329500D03*
Y318000D03*
G54D55*X331000Y291500D03*
G54D58*X326000Y282500D03*
X334500Y318000D03*
X339500D03*
X344500D03*
X276500Y379000D03*
X280000Y375500D03*
X283500Y379000D03*
X273000Y375500D03*
X287000D03*
X290500Y379000D03*
X294000Y375500D03*
X297500Y379000D03*
X301000Y375500D03*
X304500Y379000D03*
X325000Y358500D03*
X319500Y365500D03*
X324000D03*
X328500D03*
X318000Y361000D03*
Y356000D03*
X339500Y356500D03*
X310500Y434500D03*
Y430500D03*
Y426500D03*
X314500Y434500D03*
Y430500D03*
Y426500D03*
X351500Y433500D03*
Y426000D03*
Y418500D03*
Y411500D03*
X147000Y317000D03*
G54D55*X117500Y292000D03*
Y299000D03*
G54D58*X139000Y316500D03*
X131000D03*
X123000D03*
X115000D03*
X141000Y312500D03*
G54D55*X150000Y301882D03*
X155500Y297000D03*
G54D58*X153000Y287500D03*
X159500Y281500D03*
X149500Y296000D03*
X118500Y332500D03*
X116500Y336000D03*
X120500D03*
X124500D03*
X148000Y329000D03*
Y325000D03*
Y321000D03*
X126500Y332500D03*
X134500D03*
X142500D03*
X128500Y336000D03*
X132500D03*
X136500D03*
X140500D03*
X115500Y379000D03*
X119000Y375500D03*
X122500Y379000D03*
X112000Y375500D03*
X126000D03*
X129500Y379000D03*
X133000Y375500D03*
X136500Y379000D03*
X143500D03*
X140000Y375500D03*
X159500Y365500D03*
X164000D03*
X168500D03*
X164000Y358500D03*
X157000Y361000D03*
Y356000D03*
G54D59*G54D60*G54D59*G54D60*G54D59*G54D60*G54D59*G54D60*G54D59*G54D60*G54D59*G54D60*G54D59*G54D60*G54D59*G54D60*G54D59*G54D60*G54D59*G54D60*G54D61*G54D62*G54D61*G54D62*G54D61*G54D62*G54D63*G54D62*G54D64*G54D61*G54D63*G54D62*G54D61*M02*
