G04 start of page 9 for group -4062 idx -4062 *
G04 Title: power, soldermask *
G04 Creator: pcb 20140316 *
G04 CreationDate: Tue 06 Jun 2017 06:55:07 AM GMT UTC *
G04 For: brian *
G04 Format: Gerber/RS-274X *
G04 PCB-Dimensions (mil): 6000.00 5000.00 *
G04 PCB-Coordinate-Origin: lower left *
%MOIN*%
%FSLAX25Y25*%
%LNBOTTOMMASK*%
%ADD118R,0.2500X0.2500*%
%ADD117R,0.0285X0.0285*%
%ADD116R,0.0380X0.0380*%
%ADD115R,0.0355X0.0355*%
%ADD114R,0.0572X0.0572*%
%ADD113C,0.0705*%
%ADD112C,0.2050*%
%ADD111C,0.0660*%
%ADD110C,0.0001*%
%ADD109C,0.0010*%
G54D109*X192827Y429905D03*
X197551D03*
X202276D03*
X192827Y425181D03*
Y420456D03*
Y415732D03*
X197551Y425181D03*
Y420456D03*
Y415732D03*
Y411008D03*
X202276D03*
X207000D03*
X211724D03*
X207000Y429905D03*
X211724D03*
X216449D03*
X221173D03*
X202276Y425181D03*
Y420456D03*
X207000D03*
X211724D03*
X216449D03*
X221173D03*
X207000Y425181D03*
X211724D03*
X216449D03*
X221173D03*
X202276Y415732D03*
X207000D03*
X211724D03*
X216449D03*
X221173D03*
Y411008D03*
X216449D03*
X192827D03*
Y365905D03*
Y347008D03*
G54D110*G36*
X195200Y279800D02*Y273200D01*
X201800D01*
Y279800D01*
X195200D01*
G37*
G54D111*X208500Y276500D03*
X218500D03*
X228500D03*
G54D109*X197551Y365905D03*
X202276D03*
X207000D03*
X211724D03*
X216449D03*
X221173D03*
X202276Y361181D03*
Y356456D03*
X207000D03*
X211724D03*
X216449D03*
X221173D03*
X207000Y361181D03*
X211724D03*
X216449D03*
X221173D03*
X192827D03*
Y356456D03*
Y351732D03*
X197551Y361181D03*
Y356456D03*
Y351732D03*
X202276D03*
X207000D03*
X211724D03*
X216449D03*
X221173D03*
X197551Y347008D03*
X202276D03*
X207000D03*
X211724D03*
X216449D03*
X221173D03*
X273327Y429905D03*
X278051D03*
X282776D03*
X273327Y425181D03*
Y420456D03*
Y415732D03*
X278051Y425181D03*
Y420456D03*
Y415732D03*
Y411008D03*
X282776D03*
X287500D03*
X292224D03*
X287500Y429905D03*
X292224D03*
X296949D03*
X301673D03*
X282776Y425181D03*
Y420456D03*
X287500D03*
X292224D03*
X296949D03*
X301673D03*
X287500Y425181D03*
X292224D03*
X296949D03*
X301673D03*
X282776Y415732D03*
X287500D03*
X292224D03*
X296949D03*
X301673D03*
Y411008D03*
X296949D03*
X273327D03*
Y365905D03*
Y347008D03*
X278051Y365905D03*
X282776D03*
X287500D03*
X292224D03*
X296949D03*
X301673D03*
X282776Y361181D03*
Y356456D03*
X287500D03*
X292224D03*
X296949D03*
X301673D03*
X287500Y361181D03*
X292224D03*
X296949D03*
X301673D03*
G54D111*X293500Y276500D03*
X283500D03*
G54D110*G36*
X238200Y279800D02*Y273200D01*
X244800D01*
Y279800D01*
X238200D01*
G37*
G54D111*X251500Y276500D03*
X261500D03*
X271500D03*
G54D109*X273327Y361181D03*
Y356456D03*
Y351732D03*
X278051Y361181D03*
Y356456D03*
Y351732D03*
X282776D03*
X287500D03*
X292224D03*
X296949D03*
X301673D03*
X278051Y347008D03*
X282776D03*
X287500D03*
X292224D03*
X296949D03*
X301673D03*
G54D110*G36*
X310200Y279800D02*Y273200D01*
X316800D01*
Y279800D01*
X310200D01*
G37*
G54D112*X342000Y282500D03*
G54D111*X303500Y276500D03*
G54D113*X348000Y351736D03*
Y381264D03*
Y403764D03*
Y374236D03*
G54D109*X112327Y429905D03*
X117051D03*
X121776D03*
X112327Y425181D03*
Y420456D03*
Y415732D03*
X117051Y425181D03*
Y420456D03*
Y415732D03*
Y411008D03*
X121776D03*
X126500D03*
X131224D03*
X126500Y429905D03*
X131224D03*
X135949D03*
X140673D03*
X121776Y425181D03*
Y420456D03*
X126500D03*
X131224D03*
X135949D03*
X140673D03*
X126500Y425181D03*
X131224D03*
X135949D03*
X140673D03*
X121776Y415732D03*
X126500D03*
X131224D03*
X135949D03*
X140673D03*
Y411008D03*
X135949D03*
X112327D03*
Y365905D03*
Y347008D03*
G54D112*X91000Y282500D03*
Y423000D03*
G54D110*G36*
X119700Y279800D02*Y273200D01*
X126300D01*
Y279800D01*
X119700D01*
G37*
G54D111*X133000Y276500D03*
X143000D03*
X153000D03*
X163000D03*
G54D109*X117051Y365905D03*
X121776D03*
X126500D03*
X131224D03*
X135949D03*
X140673D03*
X121776Y361181D03*
Y356456D03*
X126500D03*
X131224D03*
X135949D03*
X140673D03*
X126500Y361181D03*
X131224D03*
X135949D03*
X140673D03*
X112327D03*
Y356456D03*
Y351732D03*
X117051Y361181D03*
Y356456D03*
Y351732D03*
X121776D03*
X126500D03*
X131224D03*
X135949D03*
X140673D03*
X117051Y347008D03*
X121776D03*
X126500D03*
X131224D03*
X135949D03*
X140673D03*
G54D114*X291107Y291457D02*X291893D01*
X291107Y298543D02*X291893D01*
G54D115*X321508Y298441D02*X322492D01*
X321508Y303559D02*X322492D01*
X327508D02*X328492D01*
G54D114*X337457Y302393D02*Y301607D01*
X344543Y302393D02*Y301607D01*
G54D115*X327508Y298441D02*X328492D01*
G54D114*X208607Y291457D02*X209393D01*
X208607Y298543D02*X209393D01*
G54D115*X188008Y276441D02*X188992D01*
G54D116*X181200Y276700D02*Y275100D01*
X173800Y276700D02*Y275100D01*
G54D115*X188008Y281559D02*X188992D01*
X188008Y291559D02*X188992D01*
X188008Y286441D02*X188992D01*
X247008Y303559D02*X247992D01*
X247008Y298441D02*X247992D01*
X241008Y303559D02*X241992D01*
X241008Y298441D02*X241992D01*
G54D114*X254107Y302543D02*X254893D01*
X254107Y295457D02*X254893D01*
X130107Y293457D02*X130893D01*
X130107Y300543D02*X130893D01*
G54D115*X161941Y286492D02*Y285508D01*
X167059Y286492D02*Y285508D01*
X166508Y303559D02*X167492D01*
X166508Y298441D02*X167492D01*
X160508Y303559D02*X161492D01*
X160508Y298441D02*X161492D01*
G54D114*X173607Y302543D02*X174393D01*
X173607Y295457D02*X174393D01*
G54D116*X173800Y286900D02*Y285300D01*
X177500Y286900D02*Y285300D01*
X181200Y286900D02*Y285300D01*
G54D115*X312441Y378492D02*Y377508D01*
X317559Y378492D02*Y377508D01*
G54D117*X231775Y354161D02*X233875D01*
X231775Y356720D02*X233875D01*
X231775Y359280D02*X233875D01*
X231775Y361839D02*X233875D01*
X248125D02*X250225D01*
X248125Y359280D02*X250225D01*
X248125Y356720D02*X250225D01*
X248125Y354161D02*X250225D01*
G54D115*X256008Y359941D02*X256992D01*
X256008Y365059D02*X256992D01*
X158941Y371492D02*Y370508D01*
X164059Y371492D02*Y370508D01*
X151941Y378492D02*Y377508D01*
X157059Y378492D02*Y377508D01*
X232441Y386492D02*Y385508D01*
X237559Y386492D02*Y385508D01*
X232441Y378492D02*Y377508D01*
X237559Y378492D02*Y377508D01*
X239441Y371492D02*Y370508D01*
X244559Y371492D02*Y370508D01*
G54D117*X151275Y354161D02*X153375D01*
X151275Y356720D02*X153375D01*
X151275Y359280D02*X153375D01*
X151275Y361839D02*X153375D01*
X167625D02*X169725D01*
X167625Y359280D02*X169725D01*
X167625Y356720D02*X169725D01*
X167625Y354161D02*X169725D01*
G54D115*X175508Y359882D02*X176492D01*
X175508Y365000D02*X176492D01*
X151941Y386492D02*Y385508D01*
X157059Y386492D02*Y385508D01*
G54D118*X330500Y423000D02*X335500D01*
G54D115*X312441Y386492D02*Y385508D01*
X317559Y386492D02*Y385508D01*
G54D117*X312275Y354161D02*X314375D01*
X328625D02*X330725D01*
X312275Y356720D02*X314375D01*
X312275Y359280D02*X314375D01*
X312275Y361839D02*X314375D01*
X328625D02*X330725D01*
X328625Y359280D02*X330725D01*
X328625Y356720D02*X330725D01*
G54D115*X318941Y371492D02*Y370508D01*
X324059Y371492D02*Y370508D01*
X336508Y359941D02*X337492D01*
X336508Y365059D02*X337492D01*
G54D118*X330500Y333000D02*X335500D01*
M02*
