G04 start of page 3 for group 1 idx 1 *
G04 Title: power, signal2 *
G04 Creator: pcb 20140316 *
G04 CreationDate: Tue 06 Jun 2017 06:55:07 AM GMT UTC *
G04 For: brian *
G04 Format: Gerber/RS-274X *
G04 PCB-Dimensions (mil): 6000.00 5000.00 *
G04 PCB-Coordinate-Origin: lower left *
%MOIN*%
%FSLAX25Y25*%
%LNGROUP1*%
%ADD49C,0.0485*%
%ADD48C,0.1770*%
%ADD47C,0.0380*%
%ADD46C,0.0118*%
%ADD45C,0.0200*%
%ADD44C,0.0350*%
%ADD43C,0.0360*%
%ADD42C,0.0685*%
%ADD41C,0.2000*%
%ADD40C,0.0600*%
%ADD39C,0.0318*%
%ADD38C,0.0100*%
%ADD37C,0.0001*%
G54D37*G36*
X354000Y386000D02*X341000D01*
Y368000D01*
X337500D01*
X323500Y382000D01*
Y390500D01*
X321000Y393000D01*
X81000D01*
Y411000D01*
X102000D01*
Y436500D01*
X354000D01*
Y386000D01*
G37*
G36*
X81000Y343000D02*Y392000D01*
X148500D01*
Y343000D01*
X81000D01*
G37*
G36*
X252000Y378000D02*Y392000D01*
X309000D01*
Y349500D01*
X302500Y343000D01*
X262500D01*
Y367500D01*
X252000Y378000D01*
G37*
G36*
X171500D02*Y392000D01*
X229000D01*
Y343000D01*
X182000D01*
Y367500D01*
X171500Y378000D01*
G37*
G54D38*X249000Y365500D02*X250500Y364000D01*
X241000Y359500D02*Y350000D01*
X244500Y365500D02*Y363000D01*
X241000Y359500D01*
Y350000D02*X237000Y346000D01*
X250500Y364000D02*Y336500D01*
X259500Y356500D02*Y341500D01*
X244500Y338000D02*Y358500D01*
X240000Y365500D02*X236500D01*
X234000Y363000D01*
Y352000D01*
X235000Y351000D01*
X252500Y282500D02*X246500Y288500D01*
X239500Y299000D02*Y293500D01*
X241500Y300000D02*Y292000D01*
X243500Y301000D02*Y291000D01*
X246500Y306500D02*Y288500D01*
X239500Y293500D02*X236000Y290000D01*
X241500Y292000D02*X236000Y286500D01*
X243500Y291000D02*X237000Y284500D01*
X251000Y290000D02*X251500D01*
X252000Y289000D02*X251000Y290000D01*
X239000Y302500D02*X241500Y300000D01*
X241000Y303500D02*X243500Y301000D01*
X237000Y301500D02*X239500Y299000D01*
X236000Y290000D02*X234000D01*
X228500Y307000D02*X216000Y294500D01*
Y294000D01*
X237000Y284500D02*X216500D01*
X236000Y286500D02*X208500D01*
X233500Y290000D02*X208500D01*
X216500Y284500D02*X208500Y276500D01*
Y286500D02*X198500Y276500D01*
X208500Y290000D02*X204000Y285500D01*
X244500Y338000D02*X239000Y332500D01*
X237000Y346000D02*Y301500D01*
X235000Y310500D02*Y351000D01*
X250500Y336500D02*X241000Y327000D01*
X259500Y341500D02*X243000Y325000D01*
X235000Y310500D02*X231500Y307000D01*
X228500D01*
X239000Y302500D02*Y332500D01*
X241000Y303500D02*Y327000D01*
X243000Y325000D02*Y310000D01*
X246500Y306500D01*
X314500Y328000D02*X315500Y327000D01*
X325000Y339000D02*X319500Y333500D01*
X330000Y336500D02*X321500Y328000D01*
X315500Y313500D02*Y327000D01*
X317500Y312500D02*Y347000D01*
X319500Y300500D02*Y333500D01*
X321500Y302000D02*Y328000D01*
Y302000D02*X322000Y301500D01*
X323500Y325500D02*Y304000D01*
X317500Y312500D02*X311500Y306500D01*
X308500D01*
X315500Y313500D02*X310500Y308500D01*
X305000D01*
X326000Y301500D02*X323500Y304000D01*
X328500Y365500D02*X330000Y364000D01*
X321500Y360500D02*Y351000D01*
X324000Y365500D02*Y363000D01*
X321500Y360500D01*
X319500Y365500D02*X317000D01*
X321500Y351000D02*X317500Y347000D01*
X325000Y358500D02*Y339000D01*
X330000Y364000D02*Y336500D01*
X317000Y365500D02*X314500Y363000D01*
Y328000D01*
X339500Y356500D02*Y341500D01*
X323500Y325500D01*
X319500Y300500D02*X320000Y300000D01*
Y292000D01*
X318500Y290500D01*
X313500D01*
X319500Y288500D02*X314500D01*
X312000Y286000D01*
X322000Y301500D02*Y291000D01*
X326000Y282500D02*Y301500D01*
X322000Y291000D02*X319500Y288500D01*
X312000Y286000D02*Y278000D01*
X313500Y276500D01*
X305000Y308500D02*X283000Y286500D01*
X303500Y280500D02*Y276500D01*
X254000Y284500D02*X252000Y286500D01*
Y289000D01*
X308500Y306500D02*X286500Y284500D01*
X313500Y290500D02*X303500Y280500D01*
X271500Y276500D02*X265500Y282500D01*
X252500D01*
X286500Y284500D02*X254000D01*
X256000Y288000D02*X257500Y286500D01*
X283000D02*X257500D01*
X168500Y365500D02*X170000Y364000D01*
X164000Y365500D02*Y363000D01*
X160500Y359500D01*
X170000Y363941D02*Y336441D01*
X164000Y338000D02*X158500Y332500D01*
X170000Y336441D02*X160500Y326941D01*
X179000Y356441D02*Y341441D01*
X164000Y358500D02*Y338000D01*
X179000Y341441D02*X162500Y324941D01*
X160500Y359500D02*Y350000D01*
X156500Y345941D01*
Y311500D02*Y345941D01*
X158500Y332441D02*Y301000D01*
X160500Y326941D02*Y302500D01*
X154500Y313500D02*Y351000D01*
X152500Y353000D01*
Y361500D01*
X156500Y365500D01*
X159500D01*
X162500Y324941D02*Y303500D01*
X145500Y305000D02*Y286500D01*
X145000Y308500D02*X143500Y307000D01*
Y285500D01*
X151500Y306500D02*X147000D01*
X145500Y305000D01*
X156500Y311500D02*X151500Y306500D01*
X154500Y313500D02*X149500Y308500D01*
X145000D01*
X160000Y294500D02*X158000Y292500D01*
X153000D01*
X149500Y296000D01*
X172941Y293000D02*X162500Y303500D01*
X158500Y301000D02*X160000Y299500D01*
Y294500D01*
X160500Y302500D02*X162000Y301000D01*
Y293500D01*
X183000Y293000D02*X172941D01*
X162000Y293500D02*X156000Y287500D01*
X168500Y281500D02*X173059Y276941D01*
X188941D01*
X193500Y281500D02*X188941Y276941D01*
X156000Y287500D02*X154000D01*
X145500Y286500D02*X148500Y283500D01*
X143500Y285500D02*X147500Y281500D01*
X168500D01*
X148500Y283500D02*X156000D01*
X157500Y285000D01*
X174000D01*
X181500Y285500D02*X204000D01*
X174000Y285000D02*X177500Y281500D01*
X181500Y285500D01*
G54D39*X192827Y429905D03*
X197551D03*
X202276D03*
X192827Y425181D03*
Y420456D03*
Y415732D03*
X197551Y425181D03*
Y420456D03*
Y415732D03*
Y411008D03*
X202276D03*
X207000D03*
X211724D03*
X207000Y429905D03*
X211724D03*
X216449D03*
X221173D03*
X202276Y425181D03*
Y420456D03*
X207000D03*
X211724D03*
X216449D03*
X221173D03*
X207000Y425181D03*
X211724D03*
X216449D03*
X221173D03*
X202276Y415732D03*
X207000D03*
X211724D03*
X216449D03*
X221173D03*
Y411008D03*
X216449D03*
X192827D03*
Y365905D03*
Y347008D03*
G54D37*G36*
X195500Y279500D02*Y273500D01*
X201500D01*
Y279500D01*
X195500D01*
G37*
G54D40*X208500Y276500D03*
X218500D03*
X228500D03*
G54D39*X197551Y365905D03*
X202276D03*
X207000D03*
X211724D03*
X216449D03*
X221173D03*
X202276Y361181D03*
Y356456D03*
X207000D03*
X211724D03*
X216449D03*
X221173D03*
X207000Y361181D03*
X211724D03*
X216449D03*
X221173D03*
X192827D03*
Y356456D03*
Y351732D03*
X197551Y361181D03*
Y356456D03*
Y351732D03*
X202276D03*
X207000D03*
X211724D03*
X216449D03*
X221173D03*
X197551Y347008D03*
X202276D03*
X207000D03*
X211724D03*
X216449D03*
X221173D03*
X273327Y429905D03*
X278051D03*
X282776D03*
X273327Y425181D03*
Y420456D03*
Y415732D03*
X278051Y425181D03*
Y420456D03*
Y415732D03*
Y411008D03*
X282776D03*
X287500D03*
X292224D03*
X287500Y429905D03*
X292224D03*
X296949D03*
X301673D03*
X282776Y425181D03*
Y420456D03*
X287500D03*
X292224D03*
X296949D03*
X301673D03*
X287500Y425181D03*
X292224D03*
X296949D03*
X301673D03*
X282776Y415732D03*
X287500D03*
X292224D03*
X296949D03*
X301673D03*
Y411008D03*
X296949D03*
X273327D03*
Y365905D03*
Y347008D03*
X278051Y365905D03*
X282776D03*
X287500D03*
X292224D03*
X296949D03*
X301673D03*
X282776Y361181D03*
Y356456D03*
X287500D03*
X292224D03*
X296949D03*
X301673D03*
X287500Y361181D03*
X292224D03*
X296949D03*
X301673D03*
G54D40*X293500Y276500D03*
X283500D03*
G54D37*G36*
X238500Y279500D02*Y273500D01*
X244500D01*
Y279500D01*
X238500D01*
G37*
G54D40*X251500Y276500D03*
X261500D03*
X271500D03*
G54D39*X273327Y361181D03*
Y356456D03*
Y351732D03*
X278051Y361181D03*
Y356456D03*
Y351732D03*
X282776D03*
X287500D03*
X292224D03*
X296949D03*
X301673D03*
X278051Y347008D03*
X282776D03*
X287500D03*
X292224D03*
X296949D03*
X301673D03*
G54D37*G36*
X310500Y279500D02*Y273500D01*
X316500D01*
Y279500D01*
X310500D01*
G37*
G54D41*X342000Y282500D03*
G54D40*X303500Y276500D03*
G54D42*X348000Y351736D03*
Y381264D03*
Y403764D03*
Y374236D03*
G54D39*X112327Y429905D03*
X117051D03*
X121776D03*
X112327Y425181D03*
Y420456D03*
Y415732D03*
X117051Y425181D03*
Y420456D03*
Y415732D03*
Y411008D03*
X121776D03*
X126500D03*
X131224D03*
X126500Y429905D03*
X131224D03*
X135949D03*
X140673D03*
X121776Y425181D03*
Y420456D03*
X126500D03*
X131224D03*
X135949D03*
X140673D03*
X126500Y425181D03*
X131224D03*
X135949D03*
X140673D03*
X121776Y415732D03*
X126500D03*
X131224D03*
X135949D03*
X140673D03*
Y411008D03*
X135949D03*
X112327D03*
Y365905D03*
Y347008D03*
G54D41*X91000Y282500D03*
Y423000D03*
G54D37*G36*
X120000Y279500D02*Y273500D01*
X126000D01*
Y279500D01*
X120000D01*
G37*
G54D40*X133000Y276500D03*
X143000D03*
X153000D03*
X163000D03*
G54D39*X117051Y365905D03*
X121776D03*
X126500D03*
X131224D03*
X135949D03*
X140673D03*
X121776Y361181D03*
Y356456D03*
X126500D03*
X131224D03*
X135949D03*
X140673D03*
X126500Y361181D03*
X131224D03*
X135949D03*
X140673D03*
X112327D03*
Y356456D03*
Y351732D03*
X117051Y361181D03*
Y356456D03*
Y351732D03*
X121776D03*
X126500D03*
X131224D03*
X135949D03*
X140673D03*
X117051Y347008D03*
X121776D03*
X126500D03*
X131224D03*
X135949D03*
X140673D03*
G54D40*X199000Y291000D03*
G54D43*X183000Y293000D03*
X170500Y279500D03*
X177500Y281500D03*
X193500D03*
G54D40*X199000Y298000D03*
G54D43*X221500Y312500D03*
G54D40*X231000Y302000D03*
X235000Y296000D03*
G54D43*X216000Y294000D03*
X233500Y281000D03*
X247500Y281500D03*
X251000Y290000D03*
X256000Y288500D03*
G54D40*X261500Y292500D03*
G54D43*X234000Y290000D03*
X199000Y332500D03*
X197000Y336000D03*
X201000D03*
X215000Y332500D03*
X223000D03*
X228500Y329000D03*
Y325000D03*
Y321000D03*
X227500Y317000D03*
X246500D03*
X251500D03*
X256500D03*
X254000Y314000D03*
X249000D03*
X207000Y332500D03*
X205000Y336000D03*
X209000D03*
X213000D03*
X217000D03*
X221000D03*
X249000Y320000D03*
X254000D03*
X251500Y323000D03*
X219500Y316500D03*
X211500D03*
X203500D03*
X195500D03*
X166000Y317000D03*
X171000D03*
Y323000D03*
X176000Y317000D03*
X173500Y314000D03*
Y320000D03*
X168500Y314000D03*
Y320000D03*
X196000Y379000D03*
X199500Y375500D03*
X192500D03*
X203000Y379000D03*
X210000D03*
X217000D03*
X224000D03*
X206500Y375500D03*
X213500D03*
X220500D03*
X179000Y356441D03*
X240000Y365500D03*
X244500D03*
X249000D03*
X259500Y356500D03*
X244500Y358500D03*
X237500Y356000D03*
Y361000D03*
G54D40*X279500Y298000D03*
G54D43*X292000Y316500D03*
X284000D03*
X276000D03*
X293500Y336000D03*
G54D40*X280000Y291000D03*
G54D43*X295500Y332500D03*
X303500D03*
X309000Y329000D03*
Y325000D03*
Y321000D03*
X300000Y316500D03*
X302000Y312500D03*
X297500Y336000D03*
X301500D03*
X279500Y332500D03*
X287500D03*
X277500Y336000D03*
X281500D03*
X285500D03*
X289500D03*
X308000Y317000D03*
G54D40*X311500Y302000D03*
X315000Y296000D03*
G54D43*X315500Y285000D03*
X320500Y283000D03*
X344500Y312000D03*
X342000Y315000D03*
X339500Y312000D03*
X347000Y315000D03*
X327000D03*
X337000D03*
X332000D03*
X334500Y312000D03*
X329500D03*
Y318000D03*
G54D40*X331000Y291500D03*
G54D43*X326000Y282500D03*
X334500Y318000D03*
X339500D03*
X344500D03*
X276500Y379000D03*
X280000Y375500D03*
X283500Y379000D03*
X273000Y375500D03*
X287000D03*
X290500Y379000D03*
X294000Y375500D03*
X297500Y379000D03*
X301000Y375500D03*
X304500Y379000D03*
X325000Y358500D03*
X319500Y365500D03*
X324000D03*
X328500D03*
X318000Y361000D03*
Y356000D03*
X339500Y356500D03*
X310500Y434500D03*
Y430500D03*
Y426500D03*
X314500Y434500D03*
Y430500D03*
Y426500D03*
X351500Y433500D03*
Y426000D03*
Y418500D03*
Y411500D03*
X147000Y317000D03*
G54D40*X117500Y292000D03*
Y299000D03*
G54D43*X139000Y316500D03*
X131000D03*
X123000D03*
X115000D03*
X141000Y312500D03*
G54D40*X150000Y301882D03*
X155500Y297000D03*
G54D43*X153000Y287500D03*
X159500Y281500D03*
X149500Y296000D03*
X118500Y332500D03*
X116500Y336000D03*
X120500D03*
X124500D03*
X148000Y329000D03*
Y325000D03*
Y321000D03*
X126500Y332500D03*
X134500D03*
X142500D03*
X128500Y336000D03*
X132500D03*
X136500D03*
X140500D03*
X115500Y379000D03*
X119000Y375500D03*
X122500Y379000D03*
X112000Y375500D03*
X126000D03*
X129500Y379000D03*
X133000Y375500D03*
X136500Y379000D03*
X143500D03*
X140000Y375500D03*
X159500Y365500D03*
X164000D03*
X168500D03*
X164000Y358500D03*
X157000Y361000D03*
Y356000D03*
G54D44*G54D45*G54D44*G54D45*G54D44*G54D45*G54D44*G54D45*G54D44*G54D45*G54D44*G54D45*G54D44*G54D45*G54D44*G54D45*G54D44*G54D45*G54D44*G54D45*G54D46*G54D47*G54D46*G54D47*G54D46*G54D47*G54D48*G54D47*G54D49*G54D46*G54D48*G54D47*G54D46*M02*
