G04 start of page 3 for group 1 idx 1 *
G04 Title: led, bottom *
G04 Creator: pcb 20140316 *
G04 CreationDate: Fri 12 Jan 2018 06:22:56 AM GMT UTC *
G04 For: brian *
G04 Format: Gerber/RS-274X *
G04 PCB-Dimensions (mil): 6000.00 5000.00 *
G04 PCB-Coordinate-Origin: lower left *
%MOIN*%
%FSLAX25Y25*%
%LNBOTTOM*%
%ADD38C,0.0350*%
%ADD37C,0.0200*%
%ADD36C,0.0450*%
%ADD35C,0.0600*%
%ADD34C,0.0360*%
%ADD33R,0.0177X0.0177*%
%ADD32R,0.0512X0.0512*%
%ADD31R,0.0528X0.0528*%
%ADD30R,0.0280X0.0280*%
%ADD29R,0.0472X0.0472*%
%ADD28R,0.0295X0.0295*%
%ADD27R,0.0500X0.0500*%
%ADD26C,0.0070*%
%ADD25C,0.0150*%
%ADD24C,0.0100*%
%ADD23C,0.0250*%
G54D23*X91512Y398012D02*X98000Y404500D01*
X88000Y398012D02*X91512D01*
X83500Y387000D02*X88000D01*
X100500Y399500D02*Y393000D01*
X71500Y385500D02*X72000Y385000D01*
G54D24*X96500Y378000D02*X72500D01*
X63075Y387425D01*
G54D23*X83500Y387000D02*X78000Y392500D01*
X129500Y411500D02*X126000Y408000D01*
X137500Y404500D02*X98000D01*
X105800Y396600D02*X110200Y401000D01*
X113200Y396600D02*X121530D01*
X126000Y408000D02*X105559D01*
X121530Y396600D02*X122000Y396130D01*
X122870Y397000D01*
X110200Y401000D02*X133500D01*
X135000Y399500D01*
Y397500D01*
X122870Y397000D02*X129941D01*
X129500Y411500D02*X140000D01*
X145000Y416500D01*
X159000D01*
X71500Y395000D02*Y385500D01*
G54D24*X63075Y420154D02*Y387425D01*
X66224Y420154D02*X67154D01*
G54D23*X95543Y415500D02*X88000D01*
X96000Y415957D02*X95543Y415500D01*
X88100Y419800D02*Y411030D01*
X83000Y413500D02*X88100D01*
X83000Y408000D02*X85100D01*
X88100Y411000D01*
X93941Y410000D02*X88100D01*
X78000Y392500D02*Y419500D01*
X101000Y411941D02*X99059Y410000D01*
X105500Y408000D02*X102000Y411500D01*
X101000D01*
X135059Y397500D02*X139441D01*
Y398941D01*
X142000Y401500D01*
X149000D01*
X152000Y398500D01*
Y389500D01*
X159000Y406500D02*X139500D01*
X144559Y397000D02*Y394559D01*
X140512Y390512D01*
X139500Y406500D02*X137500Y404500D01*
X140512Y390512D02*X137000D01*
X140988D02*X136988D01*
X159000Y379000D02*X152500D01*
X140988Y390512D01*
X128000Y385000D02*X133500Y379500D01*
X137000D01*
X113200Y386400D02*X114600Y385000D01*
X113200Y396200D02*Y396600D01*
Y396200D02*X109000Y392000D01*
X114600Y385000D02*X128000D01*
X109043Y379000D02*X109500Y379457D01*
Y386500D01*
X109000Y392000D02*X101500D01*
X98500Y389000D01*
Y382457D01*
X101957Y379000D01*
G54D24*X105800Y386400D02*X102600D01*
X102500Y386500D01*
G54D23*X100500Y393000D02*X101500Y392000D01*
X115000Y379000D02*X109043D01*
X110957Y425500D02*X111500Y426043D01*
X106000Y416870D02*X111370Y411500D01*
X111500Y426043D02*Y435000D01*
X110500Y436000D01*
X101500D01*
X106000Y431400D02*X106900Y432300D01*
G54D24*Y439700D02*X106300D01*
X104500Y441500D01*
G54D23*X101000Y426500D02*Y411941D01*
X106000Y416870D02*Y431400D01*
X159000Y429000D02*X131012D01*
X159000Y439000D02*X157500Y440500D01*
X131012Y429000D02*X131000Y429012D01*
X135500Y435441D02*Y429000D01*
X157500Y440500D02*X135500D01*
X127000Y440559D02*X135441D01*
X135500Y440500D01*
X126141Y439700D02*X127000Y440559D01*
X111370Y411500D02*X123500D01*
X126500Y414500D01*
X118043Y425500D02*Y431357D01*
X117100Y432300D01*
X120241Y435441D02*X117100Y432300D01*
Y439700D02*X126141D01*
X127000Y435441D02*X120241D01*
X126500Y414500D02*Y418000D01*
X117630Y417000D02*Y425087D01*
X118043Y425500D01*
X123000Y423500D02*X117630D01*
X112500Y416500D02*X117130D01*
X117630Y417000D01*
G54D24*X104500Y441500D02*X60000D01*
X65500Y438500D02*X67500D01*
X63500Y436500D02*X65500Y438500D01*
G54D25*X68500Y433500D02*X72500Y437500D01*
X66500Y433500D02*X68500D01*
G54D23*X95543Y423500D02*X96000Y423043D01*
X77900Y423500D02*X95543D01*
X88100Y427200D02*X88900Y428000D01*
X83000Y422000D02*Y429500D01*
X88900Y428000D02*X99500D01*
X101000Y426500D01*
G54D24*X56776Y427224D02*X53500Y430500D01*
X50500Y432000D02*X60000Y441500D01*
X50500Y424000D02*Y432000D01*
X63500Y427272D02*Y436500D01*
X63075Y426846D02*X63500Y427272D01*
X56776Y426846D02*Y427224D01*
X54346Y420154D02*X56776D01*
X50500Y424000D02*X54346Y420154D01*
X66346Y426846D02*X69000Y429500D01*
X66224Y426846D02*X66346D01*
X67154Y420154D02*X74200Y427200D01*
X77900D01*
G54D26*X53940Y407000D02*X53460Y406520D01*
Y405080D02*Y406520D01*
Y405080D02*X53940Y404600D01*
X54900D01*
X57300Y407000D02*X54900Y404600D01*
X57300D02*Y407000D01*
X56820Y403448D02*X57300Y402968D01*
X53940Y403448D02*X56820D01*
X53940D02*X53460Y402968D01*
Y402008D02*Y402968D01*
Y402008D02*X53940Y401528D01*
X56820D01*
X57300Y402008D02*X56820Y401528D01*
X57300Y402008D02*Y402968D01*
X56340Y403448D02*X54420Y401528D01*
X54228Y400376D02*X53460Y399608D01*
X57300D01*
Y398936D02*Y400376D01*
X56820Y397784D02*X57300Y397304D01*
X56052Y397784D02*X56820D01*
X56052D02*X55380Y397112D01*
Y396536D02*Y397112D01*
Y396536D02*X56052Y395864D01*
X56820D01*
X57300Y396344D02*X56820Y395864D01*
X57300Y396344D02*Y397304D01*
X54708Y397784D02*X55380Y397112D01*
X53940Y397784D02*X54708D01*
X53940D02*X53460Y397304D01*
Y396344D02*Y397304D01*
Y396344D02*X53940Y395864D01*
X54708D01*
X55380Y396536D02*X54708Y395864D01*
X56820Y394712D02*X57300Y394232D01*
X53940Y394712D02*X56820D01*
X53940D02*X53460Y394232D01*
Y393272D02*Y394232D01*
Y393272D02*X53940Y392792D01*
X56820D01*
X57300Y393272D02*X56820Y392792D01*
X57300Y393272D02*Y394232D01*
X56340Y394712D02*X54420Y392792D01*
X54228Y391640D02*X53460Y390872D01*
X57300D01*
Y390200D02*Y391640D01*
X54228Y389048D02*X53460Y388280D01*
X57300D01*
Y387608D02*Y389048D01*
X54228Y386456D02*X53460Y385688D01*
X57300D01*
Y385016D02*Y386456D01*
G54D27*X151500Y439000D02*X166500D01*
X151500Y429000D02*X166500D01*
X151500Y416500D02*X166500D01*
X151500Y406500D02*X166500D01*
G54D28*X135008Y435441D02*X135992D01*
G54D29*X126079Y417988D02*X135921D01*
G54D27*X151500Y389000D02*X166500D01*
X151500Y379000D02*X166500D01*
G54D29*X132079Y390512D02*X141921D01*
G54D30*X113200Y387200D02*Y385600D01*
X109500Y387200D02*Y385600D01*
X105800Y387200D02*Y385600D01*
G54D31*X121094Y384870D02*X122906D01*
G54D28*X144559Y397492D02*Y396508D01*
X139441Y397492D02*Y396508D01*
X135008Y440559D02*X135992D01*
X126508Y435441D02*X127492D01*
G54D29*X126079Y429012D02*X135921D01*
G54D30*X106100Y432300D02*X107700D01*
X106100Y436000D02*X107700D01*
X116300Y432300D02*X117900D01*
G54D32*X118043Y425893D02*Y425107D01*
X110957Y425893D02*Y425107D01*
G54D28*X103508Y404441D02*X104492D01*
X103508Y409559D02*X104492D01*
G54D31*X106370Y417906D02*Y416094D01*
X117630Y417906D02*Y416094D01*
G54D28*X126508Y440559D02*X127492D01*
G54D30*X106100Y439700D02*X107700D01*
X116300D02*X117900D01*
G54D32*X95607Y415957D02*X96393D01*
X95607Y423043D02*X96393D01*
G54D30*X77100Y419800D02*X78700D01*
X77100Y423500D02*X78700D01*
X77100Y427200D02*X78700D01*
X87300D02*X88900D01*
X87300Y419800D02*X88900D01*
G54D29*X132079Y379488D02*X141921D01*
G54D32*X101957Y379393D02*Y378607D01*
X109043Y379393D02*Y378607D01*
G54D28*X135059Y397492D02*Y396508D01*
X129941Y397492D02*Y396508D01*
G54D30*X105800Y397400D02*Y395800D01*
X113200Y397400D02*Y395800D01*
G54D31*X121094Y396130D02*X122906D01*
G54D29*X83079Y398012D02*X92921D01*
X83079Y386988D02*X92921D01*
G54D31*X76870Y411906D02*Y410094D01*
X88130Y411906D02*Y410094D01*
G54D28*X99059Y410492D02*Y409508D01*
X93941Y410492D02*Y409508D01*
G54D33*X63075Y427732D02*Y425961D01*
X59925Y427732D02*Y425961D01*
X66224Y421039D02*Y419268D01*
X63075Y421039D02*Y419268D01*
X59925Y421039D02*Y419268D01*
X56776Y421039D02*Y419268D01*
X66224Y427732D02*Y425961D01*
X56776Y427732D02*Y425961D01*
G54D34*X53500Y430500D03*
X102500Y386500D03*
G54D35*X100500Y399500D03*
X115000Y379000D03*
G54D36*X112500Y416500D03*
X123000Y423500D03*
G54D34*X96500Y378000D03*
X67500Y438500D03*
G54D35*X101000Y436500D03*
G54D34*X72500Y437500D03*
G54D35*X72000Y385000D03*
X71500Y395000D03*
G54D34*X66500Y433500D03*
G54D36*X60000Y432500D03*
G54D34*X69000Y429500D03*
G54D36*X83000Y408000D03*
Y413500D03*
Y422000D03*
Y429500D03*
G54D37*G54D38*G54D23*G54D37*G54D38*G54D37*G54D38*G54D37*G54D23*G54D37*G54D23*M02*
