G04 start of page 9 for group -4078 idx -4078 *
G04 Title: led, bottomsilk *
G04 Creator: pcb 20140316 *
G04 CreationDate: Fri 12 Jan 2018 06:22:56 AM GMT UTC *
G04 For: brian *
G04 Format: Gerber/RS-274X *
G04 PCB-Dimensions (mil): 6000.00 5000.00 *
G04 PCB-Coordinate-Origin: lower left *
%MOIN*%
%FSLAX25Y25*%
%LNBOTTOMSILK*%
%ADD58C,0.0110*%
%ADD57C,0.0080*%
%ADD56C,0.0100*%
G54D56*X98000Y380500D02*X95000D01*
X94000Y379500D01*
X117000D02*X120000D01*
X118500Y379000D02*X119500Y378000D01*
X118500Y379000D02*X117500Y378000D01*
X118500Y381000D02*Y376000D01*
X117500Y378000D02*X119500D01*
X147500Y382000D02*Y386000D01*
X145500Y383000D02*X149500D01*
X147500Y383500D02*X148500Y384500D01*
X146500D02*X147500Y383500D01*
X148500Y384500D02*X146500D01*
X96500Y407500D02*Y406500D01*
X106500Y407000D02*X107500D01*
X88000Y402500D02*Y405500D01*
X87500Y404000D02*X86500Y403000D01*
Y405000D01*
X87500Y404000D02*X86500Y405000D01*
X84500Y404000D02*X89500D01*
X145500Y408000D02*Y415500D01*
X143000Y410500D02*X148000D01*
X145500Y411000D02*X147500Y413000D01*
X143500D01*
X145500Y411000D01*
X99000Y439500D02*X99500Y440000D01*
X103000D01*
X107000Y427000D02*X104500D01*
X104000Y426500D01*
X106500Y425000D02*Y422000D01*
X106000Y423500D02*X105000Y422500D01*
X106000Y423500D02*X105000Y424500D01*
Y422500D01*
X104000Y423500D02*X107500D01*
X145500Y430500D02*Y438000D01*
X143000Y433000D02*X148000D01*
X145500Y433500D02*X147500Y435500D01*
X143500D01*
X145500Y433500D01*
G54D57*X165910Y435000D02*X166400Y434510D01*
X162970Y435000D02*X165910D01*
X162970D02*X162480Y434510D01*
Y433530D02*Y434510D01*
Y433530D02*X162970Y433040D01*
X165910D01*
X166400Y433530D02*X165910Y433040D01*
X166400Y433530D02*Y434510D01*
X165420Y435000D02*X163460Y433040D01*
X145500Y417940D02*X147460D01*
X146480Y416960D02*Y418920D01*
X145500Y428440D02*X147460D01*
X145500Y440440D02*X147460D01*
X146480Y439460D02*Y441420D01*
X163228Y384500D02*X162460Y383732D01*
X166300D01*
Y383060D02*Y384500D01*
X163625Y412500D02*X163250Y412125D01*
Y411000D02*Y412125D01*
Y411000D02*X163625Y410625D01*
X164375D01*
X166250Y412500D02*X164375Y410625D01*
X166250D02*Y412500D01*
X145500Y405940D02*X147460D01*
X105107Y376245D02*X105893D01*
X105107Y381755D02*X105893D01*
X115600Y399800D02*Y383200D01*
X103400D02*X115600D01*
X103400Y399800D02*Y383200D01*
Y399800D02*X115600D01*
X117472Y396996D02*Y384004D01*
X126528Y396996D02*Y384004D01*
G54D58*Y395618D03*
X117472D03*
G54D57*X79142Y383642D02*X96858D01*
Y401358D02*Y383642D01*
X79142Y401358D02*Y383642D01*
Y401358D02*X96858D01*
X98755Y419893D02*Y419107D01*
X93245Y419893D02*Y419107D01*
X74700Y417400D02*X91300D01*
X74700Y429600D02*Y417400D01*
Y429600D02*X91300D01*
Y417400D01*
X76004Y415528D02*X88996D01*
X76004Y406472D02*X88996D01*
G54D58*X87618D03*
Y415528D03*
G54D57*X122142Y414642D02*X139858D01*
Y432358D02*Y414642D01*
X122142Y432358D02*Y414642D01*
Y432358D02*X139858D01*
X103700Y429900D02*X120300D01*
X103700Y442100D02*Y429900D01*
Y442100D02*X120300D01*
Y429900D01*
X114107Y428255D02*X114893D01*
X114107Y422745D02*X114893D01*
X105504Y421528D02*X118496D01*
X105504Y412472D02*X118496D01*
G54D58*X117118D03*
Y421528D03*
G54D57*X128142Y376142D02*X145858D01*
Y393858D02*Y376142D01*
X128142Y393858D02*Y376142D01*
Y393858D02*X145858D01*
X121000Y376040D02*Y378200D01*
X122080D01*
X122728Y376310D02*X122998Y376040D01*
X123808D01*
X124078Y376310D01*
Y376850D01*
X122728Y378200D02*X124078Y376850D01*
X122728Y378200D02*X124078D01*
X124726Y377930D02*X124996Y378200D01*
X124726Y376310D02*Y377930D01*
Y376310D02*X124996Y376040D01*
X125536D01*
X125806Y376310D01*
Y377930D01*
X125536Y378200D02*X125806Y377930D01*
X124996Y378200D02*X125536D01*
X124726Y377660D02*X125806Y376580D01*
X126454Y376472D02*X126886Y376040D01*
Y378200D01*
X126454D02*X127264D01*
X130620Y408110D02*Y409650D01*
Y408110D02*X131005Y407725D01*
X131775D01*
X132160Y408110D02*X131775Y407725D01*
X132160Y408110D02*Y409265D01*
X130620D02*X133700D01*
X132160Y408649D02*X133700Y407725D01*
X131005Y406801D02*X130620Y406416D01*
Y405261D02*Y406416D01*
Y405261D02*X131005Y404876D01*
X131775D01*
X133700Y406801D02*X131775Y404876D01*
X133700D02*Y406801D01*
X133315Y403952D02*X133700Y403567D01*
X131005Y403952D02*X133315D01*
X131005D02*X130620Y403567D01*
Y402797D02*Y403567D01*
Y402797D02*X131005Y402412D01*
X133315D01*
X133700Y402797D02*X133315Y402412D01*
X133700Y402797D02*Y403567D01*
X132930Y403952D02*X131390Y402412D01*
X131236Y401488D02*X130620Y400872D01*
X133700D01*
Y400333D02*Y401488D01*
X120270Y409115D02*X123350D01*
X120270Y408114D02*X120809Y407575D01*
X122811D01*
X123350Y408114D02*X122811Y407575D01*
X123350Y408114D02*Y409500D01*
X120270Y408114D02*Y409500D01*
X120655Y406651D02*X120270Y406266D01*
Y405111D02*Y406266D01*
Y405111D02*X120655Y404726D01*
X121425D01*
X123350Y406651D02*X121425Y404726D01*
X123350D02*Y406651D01*
X122965Y403802D02*X123350Y403417D01*
X120655Y403802D02*X122965D01*
X120655D02*X120270Y403417D01*
Y402647D02*Y403417D01*
Y402647D02*X120655Y402262D01*
X122965D01*
X123350Y402647D02*X122965Y402262D01*
X123350Y402647D02*Y403417D01*
X122580Y403802D02*X121040Y402262D01*
X120886Y401338D02*X120270Y400722D01*
X123350D01*
Y400183D02*Y401338D01*
X125270Y413500D02*X128350D01*
Y411960D02*Y413500D01*
X125655Y411036D02*X125270Y410651D01*
Y409496D02*Y410651D01*
Y409496D02*X125655Y409111D01*
X126425D01*
X128350Y411036D02*X126425Y409111D01*
X128350D02*Y411036D01*
X127965Y408187D02*X128350Y407802D01*
X125655Y408187D02*X127965D01*
X125655D02*X125270Y407802D01*
Y407032D02*Y407802D01*
Y407032D02*X125655Y406647D01*
X127965D01*
X128350Y407032D02*X127965Y406647D01*
X128350Y407032D02*Y407802D01*
X127580Y408187D02*X126040Y406647D01*
X127965Y405723D02*X128350Y405338D01*
X125655Y405723D02*X127965D01*
X125655D02*X125270Y405338D01*
Y404568D02*Y405338D01*
Y404568D02*X125655Y404183D01*
X127965D01*
X128350Y404568D02*X127965Y404183D01*
X128350Y404568D02*Y405338D01*
X127580Y405723D02*X126040Y404183D01*
X111200Y409110D02*Y410111D01*
X110661Y410650D02*X111200Y410111D01*
X108659Y410650D02*X110661D01*
X108659D02*X108120Y410111D01*
Y409110D02*Y410111D01*
X108505Y408186D02*X108120Y407801D01*
Y406646D02*Y407801D01*
Y406646D02*X108505Y406261D01*
X109275D01*
X111200Y408186D02*X109275Y406261D01*
X111200D02*Y408186D01*
X110815Y405337D02*X111200Y404952D01*
X108505Y405337D02*X110815D01*
X108505D02*X108120Y404952D01*
Y404182D02*Y404952D01*
Y404182D02*X108505Y403797D01*
X110815D01*
X111200Y404182D02*X110815Y403797D01*
X111200Y404182D02*Y404952D01*
X110430Y405337D02*X108890Y403797D01*
X108120Y401718D02*X108505Y401333D01*
X108120Y401718D02*Y402488D01*
X108505Y402873D02*X108120Y402488D01*
X108505Y402873D02*X110815D01*
X111200Y402488D01*
X109506Y401718D02*X109891Y401333D01*
X109506Y401718D02*Y402873D01*
X111200Y401718D02*Y402488D01*
Y401718D02*X110815Y401333D01*
X109891D02*X110815D01*
X114270Y411615D02*X117350D01*
X114270Y410614D02*X114809Y410075D01*
X116811D01*
X117350Y410614D02*X116811Y410075D01*
X117350Y410614D02*Y412000D01*
X114270Y410614D02*Y412000D01*
X114655Y409151D02*X114270Y408766D01*
Y407611D02*Y408766D01*
Y407611D02*X114655Y407226D01*
X115425D01*
X117350Y409151D02*X115425Y407226D01*
X117350D02*Y409151D01*
X116965Y406302D02*X117350Y405917D01*
X114655Y406302D02*X116965D01*
X114655D02*X114270Y405917D01*
Y405147D02*Y405917D01*
Y405147D02*X114655Y404762D01*
X116965D01*
X117350Y405147D02*X116965Y404762D01*
X117350Y405147D02*Y405917D01*
X116580Y406302D02*X115040Y404762D01*
X116965Y403838D02*X117350Y403453D01*
X114655Y403838D02*X116965D01*
X114655D02*X114270Y403453D01*
Y402683D02*Y403453D01*
Y402683D02*X114655Y402298D01*
X116965D01*
X117350Y402683D02*X116965Y402298D01*
X117350Y402683D02*Y403453D01*
X116580Y403838D02*X115040Y402298D01*
X121449Y440070D02*Y441150D01*
Y440070D02*X121719Y439800D01*
X122259D01*
X122529Y440070D02*X122259Y439800D01*
X122529Y440070D02*Y440880D01*
X121449D02*X123609D01*
X122529Y440448D02*X123609Y439800D01*
X121719Y439152D02*X121449Y438882D01*
Y438072D02*Y438882D01*
Y438072D02*X121719Y437802D01*
X122259D01*
X123609Y439152D02*X122259Y437802D01*
X123609D02*Y439152D01*
X123339Y437154D02*X123609Y436884D01*
X121719Y437154D02*X123339D01*
X121719D02*X121449Y436884D01*
Y436344D02*Y436884D01*
Y436344D02*X121719Y436074D01*
X123339D01*
X123609Y436344D02*X123339Y436074D01*
X123609Y436344D02*Y436884D01*
X123069Y437154D02*X121989Y436074D01*
X123339Y435426D02*X123609Y435156D01*
X121719Y435426D02*X123339D01*
X121719D02*X121449Y435156D01*
Y434616D02*Y435156D01*
Y434616D02*X121719Y434346D01*
X123339D01*
X123609Y434616D02*X123339Y434346D01*
X123609Y434616D02*Y435156D01*
X123069Y435426D02*X121989Y434346D01*
X141050Y440070D02*Y440772D01*
X140672Y441150D02*X141050Y440772D01*
X139268Y441150D02*X140672D01*
X139268D02*X138890Y440772D01*
Y440070D02*Y440772D01*
X139160Y439422D02*X138890Y439152D01*
Y438342D02*Y439152D01*
Y438342D02*X139160Y438072D01*
X139700D01*
X141050Y439422D02*X139700Y438072D01*
X141050D02*Y439422D01*
X140780Y437424D02*X141050Y437154D01*
X139160Y437424D02*X140780D01*
X139160D02*X138890Y437154D01*
Y436614D02*Y437154D01*
Y436614D02*X139160Y436344D01*
X140780D01*
X141050Y436614D02*X140780Y436344D01*
X141050Y436614D02*Y437154D01*
X140510Y437424D02*X139430Y436344D01*
X139322Y435696D02*X138890Y435264D01*
X141050D01*
Y434886D02*Y435696D01*
X147889Y398700D02*X148890D01*
X147350Y398161D02*X147889Y398700D01*
X147350Y396159D02*Y398161D01*
Y396159D02*X147889Y395620D01*
X148890D01*
X149814Y396005D02*X150199Y395620D01*
X151354D01*
X151739Y396005D01*
Y396775D01*
X149814Y398700D02*X151739Y396775D01*
X149814Y398700D02*X151739D01*
X152663Y398315D02*X153048Y398700D01*
X152663Y396005D02*Y398315D01*
Y396005D02*X153048Y395620D01*
X153818D01*
X154203Y396005D01*
Y398315D01*
X153818Y398700D02*X154203Y398315D01*
X153048Y398700D02*X153818D01*
X152663Y397930D02*X154203Y396390D01*
X155127Y396005D02*X155512Y395620D01*
X156282D01*
X156667Y396005D01*
X156282Y398700D02*X156667Y398315D01*
X155512Y398700D02*X156282D01*
X155127Y398315D02*X155512Y398700D01*
Y397006D02*X156282D01*
X156667Y396005D02*Y396621D01*
Y397391D02*Y398315D01*
Y397391D02*X156282Y397006D01*
X156667Y396621D02*X156282Y397006D01*
X83889Y380200D02*X84890D01*
X83350Y379661D02*X83889Y380200D01*
X83350Y377659D02*Y379661D01*
Y377659D02*X83889Y377120D01*
X84890D01*
X85814Y377505D02*X86199Y377120D01*
X87354D01*
X87739Y377505D01*
Y378275D01*
X85814Y380200D02*X87739Y378275D01*
X85814Y380200D02*X87739D01*
X88663Y379815D02*X89048Y380200D01*
X88663Y377505D02*Y379815D01*
Y377505D02*X89048Y377120D01*
X89818D01*
X90203Y377505D01*
Y379815D01*
X89818Y380200D02*X90203Y379815D01*
X89048Y380200D02*X89818D01*
X88663Y379430D02*X90203Y377890D01*
X91127Y377505D02*X91512Y377120D01*
X92667D01*
X93052Y377505D01*
Y378275D01*
X91127Y380200D02*X93052Y378275D01*
X91127Y380200D02*X93052D01*
X99470Y397000D02*X102165D01*
X102550Y396615D01*
Y395845D02*Y396615D01*
Y395845D02*X102165Y395460D01*
X99470D02*X102165D01*
X99855Y394536D02*X99470Y394151D01*
Y392996D02*Y394151D01*
Y392996D02*X99855Y392611D01*
X100625D01*
X102550Y394536D02*X100625Y392611D01*
X102550D02*Y394536D01*
X102165Y391687D02*X102550Y391302D01*
X99855Y391687D02*X102165D01*
X99855D02*X99470Y391302D01*
Y390532D02*Y391302D01*
Y390532D02*X99855Y390147D01*
X102165D01*
X102550Y390532D02*X102165Y390147D01*
X102550Y390532D02*Y391302D01*
X101780Y391687D02*X100240Y390147D01*
X100086Y389223D02*X99470Y388607D01*
X102550D01*
Y388068D02*Y389223D01*
X68500Y388270D02*Y391350D01*
X70040D01*
X70964Y388655D02*X71349Y388270D01*
X72504D01*
X72889Y388655D01*
Y389425D01*
X70964Y391350D02*X72889Y389425D01*
X70964Y391350D02*X72889D01*
X73813Y390965D02*X74198Y391350D01*
X73813Y388655D02*Y390965D01*
Y388655D02*X74198Y388270D01*
X74968D01*
X75353Y388655D01*
Y390965D01*
X74968Y391350D02*X75353Y390965D01*
X74198Y391350D02*X74968D01*
X73813Y390580D02*X75353Y389040D01*
X76277Y388655D02*X76662Y388270D01*
X77432D01*
X77817Y388655D01*
X77432Y391350D02*X77817Y390965D01*
X76662Y391350D02*X77432D01*
X76277Y390965D02*X76662Y391350D01*
Y389656D02*X77432D01*
X77817Y388655D02*Y389271D01*
Y390041D02*Y390965D01*
Y390041D02*X77432Y389656D01*
X77817Y389271D02*X77432Y389656D01*
X74500Y432200D02*Y435700D01*
X75000Y436200D01*
X76000D01*
X76500Y435700D01*
Y432200D02*Y435700D01*
X77700Y432700D02*X78200Y432200D01*
X79700D01*
X80200Y432700D01*
Y433700D01*
X77700Y436200D02*X80200Y433700D01*
X77700Y436200D02*X80200D01*
X81400Y435700D02*X81900Y436200D01*
X81400Y432700D02*Y435700D01*
Y432700D02*X81900Y432200D01*
X82900D01*
X83400Y432700D01*
Y435700D01*
X82900Y436200D02*X83400Y435700D01*
X81900Y436200D02*X82900D01*
X81400Y435200D02*X83400Y433200D01*
X84600Y432700D02*X85100Y432200D01*
X86100D01*
X86600Y432700D01*
X86100Y436200D02*X86600Y435700D01*
X85100Y436200D02*X86100D01*
X84600Y435700D02*X85100Y436200D01*
Y434000D02*X86100D01*
X86600Y432700D02*Y433500D01*
Y434500D02*Y435700D01*
Y434500D02*X86100Y434000D01*
X86600Y433500D02*X86100Y434000D01*
X54500Y413000D02*X56500D01*
X57000Y413500D01*
Y414500D01*
X56500Y415000D02*X57000Y414500D01*
X55000Y415000D02*X56500D01*
X55000Y413000D02*Y417000D01*
X55800Y415000D02*X57000Y417000D01*
X58200Y413500D02*X58700Y413000D01*
X60200D01*
X60700Y413500D01*
Y414500D01*
X58200Y417000D02*X60700Y414500D01*
X58200Y417000D02*X60700D01*
X61900Y416500D02*X62400Y417000D01*
X61900Y413500D02*Y416500D01*
Y413500D02*X62400Y413000D01*
X63400D01*
X63900Y413500D01*
Y416500D01*
X63400Y417000D02*X63900Y416500D01*
X62400Y417000D02*X63400D01*
X61900Y416000D02*X63900Y414000D01*
X65100Y415500D02*X67100Y413000D01*
X65100Y415500D02*X67600D01*
X67100Y413000D02*Y417000D01*
X60500Y405500D02*Y409500D01*
X61800Y405500D02*X62500Y406200D01*
Y408800D01*
X61800Y409500D02*X62500Y408800D01*
X60000Y409500D02*X61800D01*
X60000Y405500D02*X61800D01*
X63700Y406000D02*X64200Y405500D01*
X65700D01*
X66200Y406000D01*
Y407000D01*
X63700Y409500D02*X66200Y407000D01*
X63700Y409500D02*X66200D01*
X67400Y409000D02*X67900Y409500D01*
X67400Y406000D02*Y409000D01*
Y406000D02*X67900Y405500D01*
X68900D01*
X69400Y406000D01*
Y409000D01*
X68900Y409500D02*X69400Y409000D01*
X67900Y409500D02*X68900D01*
X67400Y408500D02*X69400Y406500D01*
X70600Y406000D02*X71100Y405500D01*
X72100D01*
X72600Y406000D01*
X72100Y409500D02*X72600Y409000D01*
X71100Y409500D02*X72100D01*
X70600Y409000D02*X71100Y409500D01*
Y407300D02*X72100D01*
X72600Y406000D02*Y406800D01*
Y407800D02*Y409000D01*
Y407800D02*X72100Y407300D01*
X72600Y406800D02*X72100Y407300D01*
X89000Y437470D02*Y440165D01*
X89385Y440550D01*
X90155D01*
X90540Y440165D01*
Y437470D02*Y440165D01*
X91464Y437855D02*X91849Y437470D01*
X93004D01*
X93389Y437855D01*
Y438625D01*
X91464Y440550D02*X93389Y438625D01*
X91464Y440550D02*X93389D01*
X94313Y440165D02*X94698Y440550D01*
X94313Y437855D02*Y440165D01*
Y437855D02*X94698Y437470D01*
X95468D01*
X95853Y437855D01*
Y440165D01*
X95468Y440550D02*X95853Y440165D01*
X94698Y440550D02*X95468D01*
X94313Y439780D02*X95853Y438240D01*
X96777Y440165D02*X97162Y440550D01*
X96777Y437855D02*Y440165D01*
Y437855D02*X97162Y437470D01*
X97932D01*
X98317Y437855D01*
Y440165D01*
X97932Y440550D02*X98317Y440165D01*
X97162Y440550D02*X97932D01*
X96777Y439780D02*X98317Y438240D01*
X103200Y431610D02*Y432611D01*
X102661Y433150D02*X103200Y432611D01*
X100659Y433150D02*X102661D01*
X100659D02*X100120Y432611D01*
Y431610D02*Y432611D01*
X100505Y430686D02*X100120Y430301D01*
Y429146D02*Y430301D01*
Y429146D02*X100505Y428761D01*
X101275D01*
X103200Y430686D02*X101275Y428761D01*
X103200D02*Y430686D01*
X102815Y427837D02*X103200Y427452D01*
X100505Y427837D02*X102815D01*
X100505D02*X100120Y427452D01*
Y426682D02*Y427452D01*
Y426682D02*X100505Y426297D01*
X102815D01*
X103200Y426682D02*X102815Y426297D01*
X103200Y426682D02*Y427452D01*
X102430Y427837D02*X100890Y426297D01*
X102045Y425373D02*X100120Y423833D01*
X102045Y423448D02*Y425373D01*
X100120Y423833D02*X103200D01*
X96200Y434610D02*Y435611D01*
X95661Y436150D02*X96200Y435611D01*
X93659Y436150D02*X95661D01*
X93659D02*X93120Y435611D01*
Y434610D02*Y435611D01*
X93505Y433686D02*X93120Y433301D01*
Y432146D02*Y433301D01*
Y432146D02*X93505Y431761D01*
X94275D01*
X96200Y433686D02*X94275Y431761D01*
X96200D02*Y433686D01*
X95815Y430837D02*X96200Y430452D01*
X93505Y430837D02*X95815D01*
X93505D02*X93120Y430452D01*
Y429682D02*Y430452D01*
Y429682D02*X93505Y429297D01*
X95815D01*
X96200Y429682D02*X95815Y429297D01*
X96200Y429682D02*Y430452D01*
X95430Y430837D02*X93890Y429297D01*
X93120Y426833D02*Y428373D01*
X94660D01*
X94275Y427988D01*
Y427218D02*Y427988D01*
Y427218D02*X94660Y426833D01*
X95815D01*
X96200Y427218D02*X95815Y426833D01*
X96200Y427218D02*Y427988D01*
X95815Y428373D02*X96200Y427988D01*
X90850Y402620D02*X92390D01*
X92775Y403005D01*
Y403775D01*
X92390Y404160D02*X92775Y403775D01*
X91235Y404160D02*X92390D01*
X91235Y402620D02*Y405700D01*
X91851Y404160D02*X92775Y405700D01*
X93699Y403005D02*X94084Y402620D01*
X95239D01*
X95624Y403005D01*
Y403775D01*
X93699Y405700D02*X95624Y403775D01*
X93699Y405700D02*X95624D01*
X96548Y405315D02*X96933Y405700D01*
X96548Y403005D02*Y405315D01*
Y403005D02*X96933Y402620D01*
X97703D01*
X98088Y403005D01*
Y405315D01*
X97703Y405700D02*X98088Y405315D01*
X96933Y405700D02*X97703D01*
X96548Y404930D02*X98088Y403390D01*
X99012Y403005D02*X99397Y402620D01*
X100167D01*
X100552Y403005D01*
X100167Y405700D02*X100552Y405315D01*
X99397Y405700D02*X100167D01*
X99012Y405315D02*X99397Y405700D01*
Y404006D02*X100167D01*
X100552Y403005D02*Y403621D01*
Y404391D02*Y405315D01*
Y404391D02*X100167Y404006D01*
X100552Y403621D02*X100167Y404006D01*
M02*
