G04 start of page 8 for group -4079 idx -4079 *
G04 Title: led, topsilk *
G04 Creator: pcb 20140316 *
G04 CreationDate: Fri 12 Jan 2018 06:22:56 AM GMT UTC *
G04 For: brian *
G04 Format: Gerber/RS-274X *
G04 PCB-Dimensions (mil): 6000.00 5000.00 *
G04 PCB-Coordinate-Origin: lower left *
%MOIN*%
%FSLAX25Y25*%
%LNTOPSILK*%
%ADD55C,0.0120*%
%ADD54C,0.0200*%
%ADD53C,0.0080*%
G54D53*X70500Y380060D02*X72460D01*
X70500Y390060D02*X72460D01*
X71480Y391040D02*Y389080D01*
X139000Y407530D02*X139490Y408020D01*
X140960D01*
X141450Y407530D01*
Y406550D01*
X139000Y404100D02*X141450Y406550D01*
X139000Y404100D02*X141450D01*
X142626Y404590D02*X143116Y404100D01*
X142626Y407530D02*Y404590D01*
Y407530D02*X143116Y408020D01*
X144096D01*
X144586Y407530D01*
Y404590D01*
X144096Y404100D02*X144586Y404590D01*
X143116Y404100D02*X144096D01*
X142626Y405080D02*X144586Y407040D01*
X145762Y407236D02*X146546Y408020D01*
Y404100D01*
X145762D02*X147232D01*
X148408Y404590D02*X148898Y404100D01*
X148408Y405374D02*Y404590D01*
Y405374D02*X149094Y406060D01*
X149682D01*
X150368Y405374D01*
Y404590D01*
X149878Y404100D02*X150368Y404590D01*
X148898Y404100D02*X149878D01*
X148408Y406746D02*X149094Y406060D01*
X148408Y407530D02*Y406746D01*
Y407530D02*X148898Y408020D01*
X149878D01*
X150368Y407530D01*
Y406746D01*
X149682Y406060D02*X150368Y406746D01*
X151544Y404590D02*X152034Y404100D01*
X151544Y407530D02*Y404590D01*
Y407530D02*X152034Y408020D01*
X153014D01*
X153504Y407530D01*
Y404590D01*
X153014Y404100D02*X153504Y404590D01*
X152034Y404100D02*X153014D01*
X151544Y405080D02*X153504Y407040D01*
X154680Y407236D02*X155464Y408020D01*
Y404100D01*
X154680D02*X156150D01*
X157326Y407236D02*X158110Y408020D01*
Y404100D01*
X157326D02*X158796D01*
X159972Y407236D02*X160756Y408020D01*
Y404100D01*
X159972D02*X161442D01*
X133875Y411750D02*X135000Y413250D01*
Y414375D02*Y413250D01*
X134625Y414750D02*X135000Y414375D01*
X133875Y414750D02*X134625D01*
X133500Y414375D02*X133875Y414750D01*
X133500Y414375D02*Y413625D01*
X133875Y413250D01*
X135000D01*
X136275Y411750D02*X137775Y414750D01*
X135900D02*X137775D01*
X138675Y414150D02*X139275Y414750D01*
Y411750D01*
X138675D02*X139800D01*
X140700Y413250D02*X142200D01*
X143100Y414150D02*X143700Y414750D01*
Y411750D01*
X143100D02*X144225D01*
X145125Y412125D02*X145500Y411750D01*
X145125Y412725D02*Y412125D01*
Y412725D02*X145650Y413250D01*
X146100D01*
X146625Y412725D01*
Y412125D01*
X146250Y411750D02*X146625Y412125D01*
X145500Y411750D02*X146250D01*
X145125Y413775D02*X145650Y413250D01*
X145125Y414375D02*Y413775D01*
Y414375D02*X145500Y414750D01*
X146250D01*
X146625Y414375D01*
Y413775D01*
X146100Y413250D02*X146625Y413775D01*
X147525Y413250D02*X149025D01*
X150300Y414750D02*Y411750D01*
X149925Y414750D02*X151425D01*
X151800Y414375D01*
Y413625D01*
X151425Y413250D02*X151800Y413625D01*
X150300Y413250D02*X151425D01*
X152700D02*X154200D01*
X155100Y412125D02*X155475Y411750D01*
X155100Y414375D02*Y412125D01*
Y414375D02*X155475Y414750D01*
X156225D01*
X156600Y414375D01*
Y412125D01*
X156225Y411750D02*X156600Y412125D01*
X155475Y411750D02*X156225D01*
X155100Y412500D02*X156600Y414000D01*
X157500Y412125D02*X157875Y411750D01*
X157500Y414375D02*Y412125D01*
Y414375D02*X157875Y414750D01*
X158625D01*
X159000Y414375D01*
Y412125D01*
X158625Y411750D02*X159000Y412125D01*
X157875Y411750D02*X158625D01*
X157500Y412500D02*X159000Y414000D01*
X159900Y414750D02*X161400D01*
X159900D02*Y413250D01*
X160275Y413625D01*
X161025D01*
X161400Y413250D01*
Y412125D01*
X161025Y411750D02*X161400Y412125D01*
X160275Y411750D02*X161025D01*
X159900Y412125D02*X160275Y411750D01*
X162300Y414375D02*X162675Y414750D01*
X163425D01*
X163800Y414375D01*
X163425Y411750D02*X163800Y412125D01*
X162675Y411750D02*X163425D01*
X162300Y412125D02*X162675Y411750D01*
Y413400D02*X163425D01*
X163800Y414375D02*Y413775D01*
Y413025D02*Y412125D01*
Y413025D02*X163425Y413400D01*
X163800Y413775D02*X163425Y413400D01*
X116500Y439520D02*Y435600D01*
Y439520D02*X118460D01*
X116500Y437756D02*X117970D01*
X119636Y439520D02*X121596D01*
X122086Y439030D01*
Y438050D01*
X121596Y437560D02*X122086Y438050D01*
X120126Y437560D02*X121596D01*
X120126Y439520D02*Y435600D01*
X120910Y437560D02*X122086Y435600D01*
X123948D02*X125222D01*
X123262Y436286D02*X123948Y435600D01*
X123262Y438834D02*Y436286D01*
Y438834D02*X123948Y439520D01*
X125222D01*
X128162D02*X130122D01*
X129142D02*Y435600D01*
X131788D02*X133258D01*
X131298Y436090D02*X131788Y435600D01*
X131298Y437070D02*Y436090D01*
Y437070D02*X131788Y437560D01*
X132768D01*
X133258Y437070D01*
X131298Y436580D02*X133258D01*
Y437070D02*Y436580D01*
X135904Y437560D02*X136394Y437070D01*
X134924Y437560D02*X135904D01*
X134434Y437070D02*X134924Y437560D01*
X134434Y437070D02*Y436090D01*
X134924Y435600D01*
X136394Y437560D02*Y436090D01*
X136884Y435600D01*
X134924D02*X135904D01*
X136394Y436090D01*
X138550Y437070D02*Y435600D01*
Y437070D02*X139040Y437560D01*
X139530D01*
X140020Y437070D01*
Y435600D01*
Y437070D02*X140510Y437560D01*
X141000D01*
X141490Y437070D01*
Y435600D01*
X138060Y437560D02*X138550Y437070D01*
X144920Y435600D02*X146390Y437560D01*
Y439030D02*Y437560D01*
X145900Y439520D02*X146390Y439030D01*
X144920Y439520D02*X145900D01*
X144430Y439030D02*X144920Y439520D01*
X144430Y439030D02*Y438050D01*
X144920Y437560D01*
X146390D01*
X148056Y435600D02*X150016Y439520D01*
X147566D02*X150016D01*
X151192Y438736D02*X151976Y439520D01*
Y435600D01*
X151192D02*X152662D01*
X118460Y433020D02*X118950Y432530D01*
X116990Y433020D02*X118460D01*
X116500Y432530D02*X116990Y433020D01*
X116500Y432530D02*Y431550D01*
X116990Y431060D01*
X118460D01*
X118950Y430570D01*
Y429590D01*
X118460Y429100D02*X118950Y429590D01*
X116990Y429100D02*X118460D01*
X116500Y429590D02*X116990Y429100D01*
X120616Y430570D02*Y427630D01*
X120126Y431060D02*X120616Y430570D01*
X121106Y431060D01*
X122086D01*
X122576Y430570D01*
Y429590D01*
X122086Y429100D02*X122576Y429590D01*
X121106Y429100D02*X122086D01*
X120616Y429590D02*X121106Y429100D01*
X125222Y431060D02*X125712Y430570D01*
X124242Y431060D02*X125222D01*
X123752Y430570D02*X124242Y431060D01*
X123752Y430570D02*Y429590D01*
X124242Y429100D01*
X125712Y431060D02*Y429590D01*
X126202Y429100D01*
X124242D02*X125222D01*
X125712Y429590D01*
X127868Y430570D02*Y429100D01*
Y430570D02*X128358Y431060D01*
X129338D01*
X127378D02*X127868Y430570D01*
X131004Y433020D02*Y429590D01*
X131494Y429100D01*
X130514Y431550D02*X131494D01*
X133944Y431060D02*X134434Y430570D01*
X132964Y431060D02*X133944D01*
X132474Y430570D02*X132964Y431060D01*
X132474Y430570D02*Y429590D01*
X132964Y429100D01*
X134434Y431060D02*Y429590D01*
X134924Y429100D01*
X132964D02*X133944D01*
X134434Y429590D01*
X136590Y430570D02*Y429100D01*
Y430570D02*X137080Y431060D01*
X137570D01*
X138060Y430570D01*
Y429100D01*
X136100Y431060D02*X136590Y430570D01*
X141000Y433020D02*X142960D01*
X143450Y432530D01*
Y431550D01*
X142960Y431060D02*X143450Y431550D01*
X141490Y431060D02*X142960D01*
X141490Y433020D02*Y429100D01*
X142274Y431060D02*X143450Y429100D01*
X144626Y430570D02*Y429590D01*
Y430570D02*X145116Y431060D01*
X146096D01*
X146586Y430570D01*
Y429590D01*
X146096Y429100D02*X146586Y429590D01*
X145116Y429100D02*X146096D01*
X144626Y429590D02*X145116Y429100D01*
X147762Y433020D02*Y429100D01*
Y429590D02*X148252Y429100D01*
X149232D01*
X149722Y429590D01*
Y430570D02*Y429590D01*
X149232Y431060D02*X149722Y430570D01*
X148252Y431060D02*X149232D01*
X147762Y430570D02*X148252Y431060D01*
X150898Y430570D02*Y429590D01*
Y430570D02*X151388Y431060D01*
X152368D01*
X152858Y430570D01*
Y429590D01*
X152368Y429100D02*X152858Y429590D01*
X151388Y429100D02*X152368D01*
X150898Y429590D02*X151388Y429100D01*
X154524Y433020D02*Y429590D01*
X155014Y429100D01*
X154034Y431550D02*X155014D01*
X155994Y432040D02*Y431942D01*
Y430570D02*Y429100D01*
X157464Y431060D02*X158934D01*
X156974Y430570D02*X157464Y431060D01*
X156974Y430570D02*Y429590D01*
X157464Y429100D01*
X158934D01*
X160600D02*X162070D01*
X162560Y429590D01*
X162070Y430080D02*X162560Y429590D01*
X160600Y430080D02*X162070D01*
X160110Y430570D02*X160600Y430080D01*
X160110Y430570D02*X160600Y431060D01*
X162070D01*
X162560Y430570D01*
X160110Y429590D02*X160600Y429100D01*
X113500Y389020D02*Y385100D01*
Y389020D02*X115950Y385100D01*
Y389020D02*Y385100D01*
X117126Y386570D02*Y385590D01*
Y386570D02*X117616Y387060D01*
X118596D01*
X119086Y386570D01*
Y385590D01*
X118596Y385100D02*X119086Y385590D01*
X117616Y385100D02*X118596D01*
X117126Y385590D02*X117616Y385100D01*
X120262Y387256D02*X121732D01*
X120262Y385100D02*X122222D01*
X120262Y389020D02*Y385100D01*
Y389020D02*X122222D01*
X123398Y387060D02*Y385590D01*
X123888Y385100D01*
X125358Y387060D02*Y384120D01*
X124868Y383630D02*X125358Y384120D01*
X123888Y383630D02*X124868D01*
X123398Y384120D02*X123888Y383630D01*
Y385100D02*X124868D01*
X125358Y385590D01*
X127024Y385100D02*X128494D01*
X126534Y385590D02*X127024Y385100D01*
X126534Y386570D02*Y385590D01*
Y386570D02*X127024Y387060D01*
X128004D01*
X128494Y386570D01*
X126534Y386080D02*X128494D01*
Y386570D02*Y386080D01*
X130160Y389020D02*Y385100D01*
X131434Y389020D02*X132120Y388334D01*
Y385786D01*
X131434Y385100D02*X132120Y385786D01*
X129670Y385100D02*X131434D01*
X129670Y389020D02*X131434D01*
X133786Y385100D02*X135256D01*
X133296Y385590D02*X133786Y385100D01*
X133296Y386570D02*Y385590D01*
Y386570D02*X133786Y387060D01*
X134766D01*
X135256Y386570D01*
X133296Y386080D02*X135256D01*
Y386570D02*Y386080D01*
X136922Y385100D02*X138392D01*
X136432Y385590D02*X136922Y385100D01*
X136432Y386570D02*Y385590D01*
Y386570D02*X136922Y387060D01*
X137902D01*
X138392Y386570D01*
X136432Y386080D02*X138392D01*
Y386570D02*Y386080D01*
X140058Y386570D02*Y385100D01*
Y386570D02*X140548Y387060D01*
X141528D01*
X139568D02*X140058Y386570D01*
X144468Y389020D02*Y385100D01*
X146428D01*
X149074Y387060D02*X149564Y386570D01*
X148094Y387060D02*X149074D01*
X147604Y386570D02*X148094Y387060D01*
X147604Y386570D02*Y385590D01*
X148094Y385100D01*
X149564Y387060D02*Y385590D01*
X150054Y385100D01*
X148094D02*X149074D01*
X149564Y385590D01*
X151230Y389020D02*Y385100D01*
Y385590D02*X151720Y385100D01*
X152700D01*
X153190Y385590D01*
Y386570D02*Y385590D01*
X152700Y387060D02*X153190Y386570D01*
X151720Y387060D02*X152700D01*
X151230Y386570D02*X151720Y387060D01*
X154856Y385100D02*X156326D01*
X156816Y385590D01*
X156326Y386080D02*X156816Y385590D01*
X154856Y386080D02*X156326D01*
X154366Y386570D02*X154856Y386080D01*
X154366Y386570D02*X154856Y387060D01*
X156326D01*
X156816Y386570D01*
X154366Y385590D02*X154856Y385100D01*
X71000Y401736D02*X71784Y402520D01*
Y398600D01*
X71000D02*X72470D01*
X70500Y411530D02*X70990Y412020D01*
X72460D01*
X72950Y411530D01*
Y410550D01*
X70500Y408100D02*X72950Y410550D01*
X70500Y408100D02*X72950D01*
X70500Y418590D02*X70990Y418100D01*
X70500Y421530D02*Y418590D01*
Y421530D02*X70990Y422020D01*
X71970D01*
X72460Y421530D01*
Y418590D01*
X71970Y418100D02*X72460Y418590D01*
X70990Y418100D02*X71970D01*
X70500Y419080D02*X72460Y421040D01*
G54D54*X53701Y428957D03*
G54D53*X66004Y429055D02*Y435945D01*
X53996Y429055D02*Y435945D01*
G54D55*X129492Y417811D02*Y410724D01*
Y401276D02*Y394189D01*
G54D53*X103311Y419189D02*X129689D01*
X103311Y392811D02*X129689D01*
X103311D02*X99374Y396748D01*
X103311Y419189D02*X99374Y415252D01*
X104200Y420500D02*X105500D01*
X103500Y421200D02*X104200Y420500D01*
X103500Y423800D02*Y421200D01*
Y423800D02*X104200Y424500D01*
X105500D01*
X106700Y424000D02*X107200Y424500D01*
X108700D01*
X109200Y424000D01*
Y423000D01*
X106700Y420500D02*X109200Y423000D01*
X106700Y420500D02*X109200D01*
X110400Y421000D02*X110900Y420500D01*
X110400Y424000D02*Y421000D01*
Y424000D02*X110900Y424500D01*
X111900D01*
X112400Y424000D01*
Y421000D01*
X111900Y420500D02*X112400Y421000D01*
X110900Y420500D02*X111900D01*
X110400Y421500D02*X112400Y423500D01*
X113600Y421000D02*X114100Y420500D01*
X113600Y424000D02*Y421000D01*
Y424000D02*X114100Y424500D01*
X115100D01*
X115600Y424000D01*
Y421000D01*
X115100Y420500D02*X115600Y421000D01*
X114100Y420500D02*X115100D01*
X113600Y421500D02*X115600Y423500D01*
X69000Y435500D02*Y432000D01*
X69500Y431500D01*
X70500D01*
X71000Y432000D01*
Y435500D02*Y432000D01*
X72200Y435000D02*X72700Y435500D01*
X74200D01*
X74700Y435000D01*
Y434000D01*
X72200Y431500D02*X74700Y434000D01*
X72200Y431500D02*X74700D01*
X75900Y432000D02*X76400Y431500D01*
X75900Y435000D02*Y432000D01*
Y435000D02*X76400Y435500D01*
X77400D01*
X77900Y435000D01*
Y432000D01*
X77400Y431500D02*X77900Y432000D01*
X76400Y431500D02*X77400D01*
X75900Y432500D02*X77900Y434500D01*
X79100Y433000D02*X81100Y435500D01*
X79100Y433000D02*X81600D01*
X81100Y435500D02*Y431500D01*
M02*
