G04 start of page 7 for group -4062 idx -4062 *
G04 Title: led, soldermask *
G04 Creator: pcb 20140316 *
G04 CreationDate: Fri 12 Jan 2018 06:22:56 AM GMT UTC *
G04 For: brian *
G04 Format: Gerber/RS-274X *
G04 PCB-Dimensions (mil): 6000.00 5000.00 *
G04 PCB-Coordinate-Origin: lower left *
%MOIN*%
%FSLAX25Y25*%
%LNBOTTOMMASK*%
%ADD52R,0.0260X0.0260*%
%ADD51R,0.0572X0.0572*%
%ADD50R,0.0614X0.0614*%
%ADD49R,0.0380X0.0380*%
%ADD48R,0.0551X0.0551*%
%ADD47R,0.0355X0.0355*%
%ADD46R,0.0700X0.0700*%
G54D46*X151500Y439000D02*X166500D01*
X151500Y429000D02*X166500D01*
X151500Y416500D02*X166500D01*
X151500Y406500D02*X166500D01*
G54D47*X135008Y435441D02*X135992D01*
G54D48*X126079Y417988D02*X135921D01*
G54D46*X151500Y389000D02*X166500D01*
X151500Y379000D02*X166500D01*
G54D48*X132079Y390512D02*X141921D01*
G54D49*X113200Y387200D02*Y385600D01*
X109500Y387200D02*Y385600D01*
X105800Y387200D02*Y385600D01*
G54D50*X121094Y384870D02*X122906D01*
G54D47*X144559Y397492D02*Y396508D01*
X139441Y397492D02*Y396508D01*
X135008Y440559D02*X135992D01*
X126508Y435441D02*X127492D01*
G54D48*X126079Y429012D02*X135921D01*
G54D49*X106100Y432300D02*X107700D01*
X106100Y436000D02*X107700D01*
X116300Y432300D02*X117900D01*
G54D51*X118043Y425893D02*Y425107D01*
X110957Y425893D02*Y425107D01*
G54D47*X103508Y404441D02*X104492D01*
X103508Y409559D02*X104492D01*
G54D50*X106370Y417906D02*Y416094D01*
X117630Y417906D02*Y416094D01*
G54D47*X126508Y440559D02*X127492D01*
G54D49*X106100Y439700D02*X107700D01*
X116300D02*X117900D01*
G54D51*X95607Y415957D02*X96393D01*
X95607Y423043D02*X96393D01*
G54D49*X77100Y419800D02*X78700D01*
X77100Y423500D02*X78700D01*
X77100Y427200D02*X78700D01*
X87300D02*X88900D01*
X87300Y419800D02*X88900D01*
G54D48*X132079Y379488D02*X141921D01*
G54D51*X101957Y379393D02*Y378607D01*
X109043Y379393D02*Y378607D01*
G54D47*X135059Y397492D02*Y396508D01*
X129941Y397492D02*Y396508D01*
G54D49*X105800Y397400D02*Y395800D01*
X113200Y397400D02*Y395800D01*
G54D50*X121094Y396130D02*X122906D01*
G54D48*X83079Y398012D02*X92921D01*
X83079Y386988D02*X92921D01*
G54D50*X76870Y411906D02*Y410094D01*
X88130Y411906D02*Y410094D01*
G54D47*X99059Y410492D02*Y409508D01*
X93941Y410492D02*Y409508D01*
G54D52*X63075Y427732D02*Y425961D01*
X59925Y427732D02*Y425961D01*
X66224Y421039D02*Y419268D01*
X63075Y421039D02*Y419268D01*
X59925Y421039D02*Y419268D01*
X56776Y421039D02*Y419268D01*
X66224Y427732D02*Y425961D01*
X56776Y427732D02*Y425961D01*
M02*
