G75*
%MOIN*%
%OFA0B0*%
%FSLAX24Y24*%
%IPPOS*%
%LPD*%
%AMOC8*
5,1,8,0,0,1.08239X$1,22.5*
%
%ADD10C,0.0000*%
%ADD11C,0.0020*%
%ADD12C,0.0600*%
%ADD13R,0.0433X0.0394*%
%ADD14C,0.0160*%
D10*
X000100Y000125D02*
X000100Y030121D01*
X006720Y030121D01*
X006720Y000125D01*
X000100Y000125D01*
D11*
X000260Y005260D02*
X000260Y005407D01*
X000260Y005481D02*
X000260Y005591D01*
X000297Y005628D01*
X000370Y005628D01*
X000407Y005591D01*
X000407Y005481D01*
X000480Y005481D02*
X000260Y005481D01*
X000260Y005260D02*
X000480Y005260D01*
X000370Y005260D02*
X000370Y005333D01*
X000407Y005554D02*
X000480Y005628D01*
X000443Y005702D02*
X000480Y005739D01*
X000480Y005812D01*
X000443Y005849D01*
X000443Y005702D02*
X000297Y005702D01*
X000260Y005739D01*
X000260Y005812D01*
X000297Y005849D01*
X000260Y006144D02*
X000260Y006291D01*
X000260Y006217D02*
X000480Y006217D01*
X000443Y006365D02*
X000370Y006365D01*
X000333Y006402D01*
X000333Y006475D01*
X000370Y006512D01*
X000407Y006512D01*
X000407Y006365D01*
X000443Y006365D02*
X000480Y006402D01*
X000480Y006475D01*
X000443Y006586D02*
X000407Y006623D01*
X000407Y006733D01*
X000370Y006733D02*
X000480Y006733D01*
X000480Y006623D01*
X000443Y006586D01*
X000333Y006696D02*
X000370Y006733D01*
X000333Y006696D02*
X000333Y006623D01*
X000333Y006807D02*
X000333Y006844D01*
X000370Y006880D01*
X000333Y006917D01*
X000370Y006954D01*
X000480Y006954D01*
X000480Y006880D02*
X000370Y006880D01*
X000333Y006807D02*
X000480Y006807D01*
X000443Y007249D02*
X000480Y007286D01*
X000480Y007359D01*
X000443Y007396D01*
X000297Y007396D01*
X000260Y007359D01*
X000260Y007286D01*
X000297Y007249D01*
X000333Y007249D01*
X000370Y007286D01*
X000370Y007396D01*
X000443Y007470D02*
X000297Y007617D01*
X000260Y007617D01*
X000260Y007470D01*
X000333Y007691D02*
X000260Y007764D01*
X000480Y007764D01*
X000480Y007691D02*
X000480Y007838D01*
X000480Y008133D02*
X000480Y008243D01*
X000443Y008280D01*
X000297Y008280D01*
X000260Y008243D01*
X000260Y008133D01*
X000480Y008133D01*
X000480Y008354D02*
X000480Y008427D01*
X000480Y008391D02*
X000260Y008391D01*
X000260Y008427D02*
X000260Y008354D01*
X000297Y008501D02*
X000260Y008538D01*
X000260Y008611D01*
X000297Y008648D01*
X000443Y008648D01*
X000480Y008611D01*
X000480Y008538D01*
X000443Y008501D01*
X000297Y008501D01*
X000297Y008943D02*
X000260Y008980D01*
X000260Y009053D01*
X000297Y009090D01*
X000370Y009164D02*
X000333Y009201D01*
X000333Y009274D01*
X000370Y009311D01*
X000443Y009311D01*
X000480Y009274D01*
X000480Y009201D01*
X000443Y009164D01*
X000370Y009164D01*
X000443Y009090D02*
X000480Y009053D01*
X000480Y008980D01*
X000443Y008943D01*
X000297Y008943D01*
X000333Y009385D02*
X000333Y009495D01*
X000370Y009532D01*
X000480Y009532D01*
X000480Y009606D02*
X000333Y009606D01*
X000333Y009716D01*
X000370Y009753D01*
X000480Y009753D01*
X000443Y009827D02*
X000370Y009827D01*
X000333Y009864D01*
X000333Y009937D01*
X000370Y009974D01*
X000407Y009974D01*
X000407Y009827D01*
X000443Y009827D02*
X000480Y009864D01*
X000480Y009937D01*
X000443Y010048D02*
X000370Y010048D01*
X000333Y010085D01*
X000333Y010195D01*
X000333Y010269D02*
X000333Y010342D01*
X000297Y010306D02*
X000443Y010306D01*
X000480Y010342D01*
X000443Y010416D02*
X000480Y010453D01*
X000480Y010526D01*
X000443Y010563D01*
X000370Y010563D01*
X000333Y010526D01*
X000333Y010453D01*
X000370Y010416D01*
X000443Y010416D01*
X000480Y010195D02*
X000480Y010085D01*
X000443Y010048D01*
X000407Y010637D02*
X000333Y010711D01*
X000333Y010747D01*
X000333Y010637D02*
X000480Y010637D01*
X000480Y011043D02*
X000333Y011043D01*
X000260Y011116D01*
X000333Y011189D01*
X000480Y011189D01*
X000443Y011264D02*
X000370Y011264D01*
X000333Y011300D01*
X000333Y011410D01*
X000260Y011410D02*
X000480Y011410D01*
X000480Y011300D01*
X000443Y011264D01*
X000370Y011189D02*
X000370Y011043D01*
X000443Y011484D02*
X000407Y011521D01*
X000407Y011631D01*
X000370Y011631D02*
X000480Y011631D01*
X000480Y011521D01*
X000443Y011484D01*
X000333Y011595D02*
X000370Y011631D01*
X000333Y011595D02*
X000333Y011521D01*
X000333Y011705D02*
X000333Y011816D01*
X000370Y011852D01*
X000443Y011852D01*
X000480Y011816D01*
X000480Y011705D01*
X000443Y011963D02*
X000480Y012000D01*
X000443Y011963D02*
X000297Y011963D01*
X000333Y011926D02*
X000333Y012000D01*
X000370Y012074D02*
X000333Y012110D01*
X000333Y012184D01*
X000370Y012221D01*
X000407Y012221D01*
X000407Y012074D01*
X000443Y012074D02*
X000370Y012074D01*
X000443Y012074D02*
X000480Y012110D01*
X000480Y012184D01*
X000480Y012295D02*
X000333Y012295D01*
X000333Y012368D02*
X000333Y012405D01*
X000333Y012368D02*
X000407Y012295D01*
X000333Y011705D02*
X000553Y011705D01*
X000480Y009385D02*
X000333Y009385D01*
X000443Y007470D02*
X000480Y007470D01*
X000657Y006954D02*
X000620Y006917D01*
X000620Y006844D01*
X000657Y006807D01*
X000693Y006807D01*
X000730Y006844D01*
X000730Y006917D01*
X000767Y006954D01*
X000803Y006954D01*
X000840Y006917D01*
X000840Y006844D01*
X000803Y006807D01*
X000767Y006807D01*
X000730Y006844D01*
X000730Y006917D02*
X000693Y006954D01*
X000657Y006954D01*
X000620Y006659D02*
X000840Y006659D01*
X000840Y006586D02*
X000840Y006733D01*
X000803Y006512D02*
X000840Y006475D01*
X000840Y006402D01*
X000803Y006365D01*
X000767Y006365D01*
X000730Y006402D01*
X000730Y006475D01*
X000767Y006512D01*
X000803Y006512D01*
X000730Y006475D02*
X000693Y006512D01*
X000657Y006512D01*
X000620Y006475D01*
X000620Y006402D01*
X000657Y006365D01*
X000693Y006365D01*
X000730Y006402D01*
X000657Y006291D02*
X000803Y006291D01*
X000840Y006254D01*
X000840Y006181D01*
X000803Y006144D01*
X000657Y006291D01*
X000620Y006254D01*
X000620Y006181D01*
X000657Y006144D01*
X000803Y006144D01*
X000730Y006070D02*
X000730Y005923D01*
X000620Y006033D01*
X000840Y006033D01*
X000840Y005849D02*
X000840Y005702D01*
X000840Y005775D02*
X000620Y005775D01*
X000693Y005702D01*
X000657Y005628D02*
X000803Y005481D01*
X000840Y005518D01*
X000840Y005591D01*
X000803Y005628D01*
X000657Y005628D01*
X000620Y005591D01*
X000620Y005518D01*
X000657Y005481D01*
X000803Y005481D01*
X000840Y005407D02*
X000840Y005260D01*
X000693Y005407D01*
X000657Y005407D01*
X000620Y005370D01*
X000620Y005297D01*
X000657Y005260D01*
X000693Y006586D02*
X000620Y006659D01*
X000657Y020385D02*
X000620Y020422D01*
X000620Y020495D01*
X000657Y020532D01*
X000693Y020532D01*
X000840Y020385D01*
X000840Y020532D01*
X000803Y020606D02*
X000657Y020753D01*
X000803Y020753D01*
X000840Y020716D01*
X000840Y020643D01*
X000803Y020606D01*
X000657Y020606D01*
X000620Y020643D01*
X000620Y020716D01*
X000657Y020753D01*
X000693Y020827D02*
X000620Y020900D01*
X000840Y020900D01*
X000840Y020827D02*
X000840Y020974D01*
X000840Y021158D02*
X000620Y021158D01*
X000730Y021048D01*
X000730Y021195D01*
X000803Y021269D02*
X000657Y021416D01*
X000803Y021416D01*
X000840Y021379D01*
X000840Y021306D01*
X000803Y021269D01*
X000657Y021269D01*
X000620Y021306D01*
X000620Y021379D01*
X000657Y021416D01*
X000657Y021490D02*
X000620Y021527D01*
X000620Y021600D01*
X000657Y021637D01*
X000693Y021637D01*
X000730Y021600D01*
X000730Y021527D01*
X000693Y021490D01*
X000657Y021490D01*
X000730Y021527D02*
X000767Y021490D01*
X000803Y021490D01*
X000840Y021527D01*
X000840Y021600D01*
X000803Y021637D01*
X000767Y021637D01*
X000730Y021600D01*
X000693Y021711D02*
X000620Y021784D01*
X000840Y021784D01*
X000840Y021711D02*
X000840Y021858D01*
X000803Y021932D02*
X000840Y021969D01*
X000840Y022042D01*
X000803Y022079D01*
X000767Y022079D01*
X000730Y022042D01*
X000730Y021969D01*
X000693Y021932D01*
X000657Y021932D01*
X000620Y021969D01*
X000620Y022042D01*
X000657Y022079D01*
X000693Y022079D01*
X000730Y022042D01*
X000730Y021969D02*
X000767Y021932D01*
X000803Y021932D01*
X000480Y021932D02*
X000333Y021932D01*
X000333Y021969D01*
X000370Y022005D01*
X000333Y022042D01*
X000370Y022079D01*
X000480Y022079D01*
X000480Y022005D02*
X000370Y022005D01*
X000370Y021858D02*
X000480Y021858D01*
X000480Y021748D01*
X000443Y021711D01*
X000407Y021748D01*
X000407Y021858D01*
X000370Y021858D02*
X000333Y021821D01*
X000333Y021748D01*
X000370Y021637D02*
X000333Y021600D01*
X000333Y021527D01*
X000370Y021490D01*
X000443Y021490D01*
X000480Y021527D01*
X000480Y021600D01*
X000407Y021637D02*
X000407Y021490D01*
X000407Y021637D02*
X000370Y021637D01*
X000480Y021342D02*
X000260Y021342D01*
X000260Y021269D02*
X000260Y021416D01*
X000297Y020974D02*
X000260Y020937D01*
X000260Y020864D01*
X000297Y020827D01*
X000443Y020827D01*
X000480Y020864D01*
X000480Y020937D01*
X000443Y020974D01*
X000480Y020753D02*
X000407Y020679D01*
X000407Y020716D02*
X000407Y020606D01*
X000480Y020606D02*
X000260Y020606D01*
X000260Y020716D01*
X000297Y020753D01*
X000370Y020753D01*
X000407Y020716D01*
X000370Y020458D02*
X000370Y020385D01*
X000480Y020385D02*
X000260Y020385D01*
X000260Y020532D01*
X000297Y022374D02*
X000260Y022411D01*
X000260Y022484D01*
X000297Y022521D01*
X000443Y022521D01*
X000480Y022484D01*
X000480Y022411D01*
X000443Y022374D01*
X000370Y022411D02*
X000370Y022521D01*
X000443Y022595D02*
X000297Y022742D01*
X000260Y022742D01*
X000260Y022595D01*
X000370Y022411D02*
X000333Y022374D01*
X000297Y022374D01*
X000333Y022816D02*
X000260Y022889D01*
X000480Y022889D01*
X000480Y022816D02*
X000480Y022963D01*
X000480Y023258D02*
X000480Y023368D01*
X000443Y023405D01*
X000297Y023405D01*
X000260Y023368D01*
X000260Y023258D01*
X000480Y023258D01*
X000480Y023479D02*
X000480Y023552D01*
X000480Y023516D02*
X000260Y023516D01*
X000260Y023552D02*
X000260Y023479D01*
X000297Y023626D02*
X000260Y023663D01*
X000260Y023736D01*
X000297Y023773D01*
X000443Y023773D01*
X000480Y023736D01*
X000480Y023663D01*
X000443Y023626D01*
X000297Y023626D01*
X000297Y024068D02*
X000260Y024105D01*
X000260Y024178D01*
X000297Y024215D01*
X000370Y024289D02*
X000333Y024326D01*
X000333Y024399D01*
X000370Y024436D01*
X000443Y024436D01*
X000480Y024399D01*
X000480Y024326D01*
X000443Y024289D01*
X000370Y024289D01*
X000443Y024215D02*
X000480Y024178D01*
X000480Y024105D01*
X000443Y024068D01*
X000297Y024068D01*
X000333Y024510D02*
X000333Y024620D01*
X000370Y024657D01*
X000480Y024657D01*
X000480Y024731D02*
X000333Y024731D01*
X000333Y024841D01*
X000370Y024878D01*
X000480Y024878D01*
X000443Y024952D02*
X000370Y024952D01*
X000333Y024989D01*
X000333Y025062D01*
X000370Y025099D01*
X000407Y025099D01*
X000407Y024952D01*
X000443Y024952D02*
X000480Y024989D01*
X000480Y025062D01*
X000443Y025173D02*
X000370Y025173D01*
X000333Y025210D01*
X000333Y025320D01*
X000333Y025394D02*
X000333Y025467D01*
X000297Y025431D02*
X000443Y025431D01*
X000480Y025467D01*
X000443Y025541D02*
X000480Y025578D01*
X000480Y025651D01*
X000443Y025688D01*
X000370Y025688D01*
X000333Y025651D01*
X000333Y025578D01*
X000370Y025541D01*
X000443Y025541D01*
X000480Y025320D02*
X000480Y025210D01*
X000443Y025173D01*
X000407Y025762D02*
X000333Y025836D01*
X000333Y025872D01*
X000333Y025762D02*
X000480Y025762D01*
X000480Y026168D02*
X000333Y026168D01*
X000260Y026241D01*
X000333Y026314D01*
X000480Y026314D01*
X000443Y026389D02*
X000370Y026389D01*
X000333Y026425D01*
X000333Y026535D01*
X000260Y026535D02*
X000480Y026535D01*
X000480Y026425D01*
X000443Y026389D01*
X000370Y026314D02*
X000370Y026168D01*
X000443Y026609D02*
X000407Y026646D01*
X000407Y026756D01*
X000370Y026756D02*
X000480Y026756D01*
X000480Y026646D01*
X000443Y026609D01*
X000333Y026720D02*
X000370Y026756D01*
X000333Y026720D02*
X000333Y026646D01*
X000333Y026830D02*
X000333Y026941D01*
X000370Y026977D01*
X000443Y026977D01*
X000480Y026941D01*
X000480Y026830D01*
X000443Y027088D02*
X000480Y027125D01*
X000443Y027088D02*
X000297Y027088D01*
X000333Y027051D02*
X000333Y027125D01*
X000370Y027199D02*
X000333Y027235D01*
X000333Y027309D01*
X000370Y027346D01*
X000407Y027346D01*
X000407Y027199D01*
X000443Y027199D02*
X000370Y027199D01*
X000443Y027199D02*
X000480Y027235D01*
X000480Y027309D01*
X000480Y027420D02*
X000333Y027420D01*
X000333Y027493D02*
X000333Y027530D01*
X000333Y027493D02*
X000407Y027420D01*
X000333Y026830D02*
X000553Y026830D01*
X000480Y024510D02*
X000333Y024510D01*
X000443Y022595D02*
X000480Y022595D01*
D12*
X001100Y022625D03*
X001100Y019625D03*
X001100Y016625D03*
X001100Y013625D03*
X001100Y010625D03*
X001100Y007625D03*
X001100Y004625D03*
X001100Y001625D03*
X002100Y001625D03*
X002100Y004625D03*
X002100Y007625D03*
X002100Y010625D03*
X002100Y013625D03*
X002100Y016625D03*
X002100Y019625D03*
X002100Y022625D03*
X002100Y025625D03*
X002100Y028625D03*
X003100Y028625D03*
X003100Y025625D03*
X003100Y022625D03*
X003100Y019625D03*
X003100Y016625D03*
X003100Y013625D03*
X003100Y010625D03*
X003100Y007625D03*
X003100Y004625D03*
X003100Y001625D03*
X005100Y001625D03*
X005100Y000625D03*
X005100Y002625D03*
X005100Y003625D03*
X005100Y004625D03*
X005100Y005625D03*
X005100Y006625D03*
X005100Y007625D03*
X005100Y008625D03*
X005100Y009625D03*
X005100Y010625D03*
X005100Y011625D03*
X005100Y012625D03*
X005100Y013625D03*
X005100Y014625D03*
X005100Y015625D03*
X005100Y016625D03*
X005100Y017625D03*
X005100Y018625D03*
X005100Y019625D03*
X005100Y020625D03*
X005100Y021625D03*
X005100Y022625D03*
X005100Y023625D03*
X005100Y024625D03*
X005100Y025625D03*
X005100Y026625D03*
X005100Y027625D03*
X005100Y028625D03*
X005100Y029625D03*
X001100Y028625D03*
X001100Y025625D03*
D13*
X001265Y024750D03*
X001935Y024750D03*
X001935Y021750D03*
X001935Y018750D03*
X001265Y018750D03*
X001265Y021750D03*
X001265Y015750D03*
X001935Y015750D03*
X001935Y012750D03*
X001265Y012750D03*
X001265Y009750D03*
X001935Y009750D03*
X001935Y006750D03*
X001265Y006750D03*
X001265Y003750D03*
X001935Y003750D03*
X001935Y000750D03*
X001265Y000750D03*
X001265Y027750D03*
X001935Y027750D03*
D14*
X002100Y027750D01*
X002100Y028625D01*
X002100Y029250D01*
X004100Y029250D01*
X004100Y028625D01*
X005100Y028625D01*
X005100Y027625D02*
X003100Y027625D01*
X003100Y028625D01*
X003100Y025625D02*
X003100Y024625D01*
X005100Y024625D01*
X005100Y023625D02*
X001100Y023625D01*
X001100Y022625D01*
X001100Y021750D01*
X001265Y021750D01*
X001100Y020625D02*
X005100Y020625D01*
X005100Y021625D02*
X003100Y021625D01*
X003100Y022625D01*
X003100Y019625D02*
X003100Y018625D01*
X005100Y018625D01*
X005100Y017625D02*
X001100Y017625D01*
X001100Y016625D01*
X001100Y015750D01*
X001265Y015750D01*
X001100Y014625D02*
X005100Y014625D01*
X005100Y013625D02*
X004100Y013625D01*
X004100Y014250D01*
X002100Y014250D01*
X002100Y013625D01*
X002100Y012750D01*
X001935Y012750D01*
X002100Y011250D02*
X004100Y011250D01*
X004100Y010625D01*
X005100Y010625D01*
X005100Y011625D02*
X001100Y011625D01*
X001100Y010625D01*
X001100Y009750D01*
X001265Y009750D01*
X001100Y008625D02*
X005100Y008625D01*
X005100Y007625D02*
X004100Y007625D01*
X004100Y008250D01*
X002100Y008250D01*
X002100Y007625D01*
X002100Y006750D01*
X001935Y006750D01*
X002100Y005250D02*
X004100Y005250D01*
X004100Y004625D01*
X005100Y004625D01*
X005100Y005625D02*
X001100Y005625D01*
X001100Y004625D01*
X001100Y003750D01*
X001265Y003750D01*
X001100Y002625D02*
X001100Y002500D01*
X001100Y001625D01*
X001100Y000750D01*
X001265Y000750D01*
X001100Y002625D02*
X005100Y002625D01*
X005100Y001625D02*
X004100Y001625D01*
X004100Y002250D01*
X002100Y002250D01*
X002100Y001625D01*
X002100Y000750D01*
X001935Y000750D01*
X001935Y003750D02*
X002100Y003750D01*
X002100Y004625D01*
X002100Y005250D01*
X001265Y006750D02*
X001100Y006750D01*
X001100Y007625D01*
X001100Y008625D01*
X001935Y009750D02*
X002100Y009750D01*
X002100Y010625D01*
X002100Y011250D01*
X001265Y012750D02*
X001100Y012750D01*
X001100Y013625D01*
X001100Y014625D01*
X001935Y015750D02*
X002100Y015750D01*
X002100Y016625D01*
X002100Y017250D01*
X004100Y017250D01*
X004100Y016625D01*
X005100Y016625D01*
X005100Y015625D02*
X003100Y015625D01*
X003100Y016625D01*
X003100Y013625D02*
X003100Y012625D01*
X005100Y012625D01*
X005100Y009625D02*
X003100Y009625D01*
X003100Y010625D01*
X003100Y007625D02*
X003100Y006625D01*
X005100Y006625D01*
X005100Y003625D02*
X003100Y003625D01*
X003100Y004625D01*
X003100Y001625D02*
X003100Y000625D01*
X005100Y000625D01*
X002100Y018750D02*
X001935Y018750D01*
X002100Y018750D02*
X002100Y019625D01*
X002100Y020250D01*
X004100Y020250D01*
X004100Y019625D01*
X005100Y019625D01*
X005100Y022625D02*
X004100Y022625D01*
X004100Y023250D01*
X002100Y023250D01*
X002100Y022625D01*
X002100Y021750D01*
X001935Y021750D01*
X001935Y024750D02*
X002100Y024750D01*
X002100Y025625D01*
X002100Y026250D01*
X004100Y026250D01*
X004100Y025625D01*
X005100Y025625D01*
X005100Y026625D02*
X001100Y026625D01*
X001100Y025625D01*
X001100Y024750D01*
X001265Y024750D01*
X001265Y027750D02*
X001100Y027750D01*
X001100Y028625D01*
X001100Y029625D01*
X005100Y029625D01*
X001265Y018750D02*
X001100Y018750D01*
X001100Y019625D01*
X001100Y020625D01*
M02*
