G04 start of page 3 for group 1 idx 1 *
G04 Title: simple, bottom *
G04 Creator: pcb 20140316 *
G04 CreationDate: Fri 07 Dec 2018 12:57:29 AM GMT UTC *
G04 For: brian *
G04 Format: Gerber/RS-274X *
G04 PCB-Dimensions (mil): 6000.00 5000.00 *
G04 PCB-Coordinate-Origin: lower left *
%MOIN*%
%FSLAX25Y25*%
%LNBOTTOM*%
%ADD39C,0.0380*%
%ADD38C,0.0268*%
%ADD37C,0.0280*%
%ADD36C,0.0350*%
%ADD35C,0.0453*%
%ADD34C,0.0200*%
%ADD33C,0.0360*%
%ADD32R,0.1250X0.1250*%
%ADD31C,0.0433*%
%ADD30C,0.0600*%
%ADD29C,0.0540*%
%ADD28C,0.0768*%
%ADD27C,0.0100*%
%ADD26C,0.0001*%
G54D26*G36*
X444021Y464000D02*X445000D01*
X446500Y462500D01*
Y345500D01*
X445000Y344000D01*
X444021D01*
Y430570D01*
X444026Y430572D01*
X444134Y430618D01*
X444234Y430681D01*
X444323Y430759D01*
X444398Y430850D01*
X444456Y430952D01*
X444658Y431398D01*
X444813Y431863D01*
X444924Y432340D01*
X444991Y432826D01*
X445013Y433315D01*
X444991Y433804D01*
X444924Y434290D01*
X444813Y434767D01*
X444658Y435232D01*
X444462Y435680D01*
X444401Y435783D01*
X444326Y435874D01*
X444236Y435952D01*
X444136Y436015D01*
X444027Y436062D01*
X444021Y436064D01*
Y450255D01*
X444026Y450257D01*
X444134Y450303D01*
X444234Y450366D01*
X444323Y450444D01*
X444398Y450535D01*
X444456Y450637D01*
X444658Y451083D01*
X444813Y451548D01*
X444924Y452025D01*
X444991Y452511D01*
X445013Y453000D01*
X444991Y453489D01*
X444924Y453975D01*
X444813Y454452D01*
X444658Y454917D01*
X444462Y455365D01*
X444401Y455468D01*
X444326Y455559D01*
X444236Y455637D01*
X444136Y455700D01*
X444027Y455747D01*
X444021Y455749D01*
Y464000D01*
G37*
G36*
X441266D02*X444021D01*
Y455749D01*
X443912Y455776D01*
X443794Y455787D01*
X443675Y455779D01*
X443559Y455753D01*
X443449Y455709D01*
X443347Y455648D01*
X443256Y455573D01*
X443178Y455483D01*
X443114Y455383D01*
X443068Y455274D01*
X443038Y455159D01*
X443028Y455041D01*
X443035Y454922D01*
X443062Y454806D01*
X443108Y454697D01*
X443253Y454377D01*
X443364Y454043D01*
X443443Y453700D01*
X443492Y453352D01*
X443508Y453000D01*
X443492Y452648D01*
X443443Y452300D01*
X443364Y451957D01*
X443253Y451623D01*
X443111Y451301D01*
X443066Y451192D01*
X443039Y451077D01*
X443032Y450959D01*
X443042Y450842D01*
X443071Y450728D01*
X443118Y450619D01*
X443181Y450519D01*
X443259Y450430D01*
X443350Y450355D01*
X443451Y450294D01*
X443561Y450251D01*
X443676Y450225D01*
X443794Y450217D01*
X443911Y450228D01*
X444021Y450255D01*
Y436064D01*
X443912Y436091D01*
X443794Y436102D01*
X443675Y436094D01*
X443559Y436068D01*
X443449Y436024D01*
X443347Y435963D01*
X443256Y435887D01*
X443178Y435798D01*
X443114Y435698D01*
X443068Y435589D01*
X443038Y435474D01*
X443028Y435356D01*
X443035Y435237D01*
X443062Y435121D01*
X443108Y435012D01*
X443253Y434692D01*
X443364Y434358D01*
X443443Y434015D01*
X443492Y433666D01*
X443508Y433315D01*
X443492Y432963D01*
X443443Y432615D01*
X443364Y432272D01*
X443253Y431938D01*
X443111Y431616D01*
X443066Y431507D01*
X443039Y431392D01*
X443032Y431274D01*
X443042Y431157D01*
X443071Y431042D01*
X443118Y430934D01*
X443181Y430834D01*
X443259Y430745D01*
X443350Y430670D01*
X443451Y430609D01*
X443561Y430566D01*
X443676Y430540D01*
X443794Y430532D01*
X443911Y430543D01*
X444021Y430570D01*
Y344000D01*
X441266D01*
Y420571D01*
X441368Y420592D01*
X441478Y420633D01*
X441581Y420691D01*
X441674Y420764D01*
X441753Y420851D01*
X441819Y420949D01*
X441866Y421057D01*
X441981Y421407D01*
X442061Y421767D01*
X442109Y422132D01*
X442125Y422500D01*
X442109Y422868D01*
X442061Y423233D01*
X441981Y423593D01*
X441870Y423944D01*
X441821Y424052D01*
X441756Y424151D01*
X441675Y424238D01*
X441583Y424311D01*
X441479Y424370D01*
X441368Y424411D01*
X441266Y424432D01*
Y428220D01*
X441586Y428326D01*
X442035Y428523D01*
X442137Y428583D01*
X442228Y428659D01*
X442306Y428748D01*
X442370Y428848D01*
X442417Y428957D01*
X442446Y429072D01*
X442457Y429191D01*
X442449Y429309D01*
X442422Y429425D01*
X442378Y429535D01*
X442318Y429637D01*
X442242Y429728D01*
X442153Y429806D01*
X442052Y429870D01*
X441943Y429917D01*
X441828Y429946D01*
X441710Y429957D01*
X441591Y429949D01*
X441476Y429923D01*
X441366Y429876D01*
X441266Y429831D01*
Y436802D01*
X441368Y436757D01*
X441477Y436711D01*
X441592Y436685D01*
X441710Y436677D01*
X441827Y436688D01*
X441942Y436717D01*
X442050Y436764D01*
X442150Y436827D01*
X442239Y436904D01*
X442314Y436995D01*
X442375Y437097D01*
X442419Y437206D01*
X442445Y437321D01*
X442452Y437439D01*
X442442Y437557D01*
X442413Y437671D01*
X442366Y437780D01*
X442303Y437880D01*
X442225Y437968D01*
X442135Y438044D01*
X442032Y438102D01*
X441586Y438304D01*
X441266Y438410D01*
Y447905D01*
X441586Y448011D01*
X442035Y448208D01*
X442137Y448268D01*
X442228Y448344D01*
X442306Y448433D01*
X442370Y448533D01*
X442417Y448642D01*
X442446Y448758D01*
X442457Y448876D01*
X442449Y448994D01*
X442422Y449110D01*
X442378Y449220D01*
X442318Y449322D01*
X442242Y449413D01*
X442153Y449492D01*
X442052Y449555D01*
X441943Y449602D01*
X441828Y449631D01*
X441710Y449642D01*
X441591Y449634D01*
X441476Y449608D01*
X441366Y449561D01*
X441266Y449516D01*
Y456487D01*
X441368Y456442D01*
X441477Y456396D01*
X441592Y456370D01*
X441710Y456362D01*
X441827Y456373D01*
X441942Y456402D01*
X442050Y456449D01*
X442150Y456512D01*
X442239Y456590D01*
X442314Y456680D01*
X442375Y456782D01*
X442419Y456891D01*
X442445Y457006D01*
X442452Y457124D01*
X442442Y457242D01*
X442413Y457356D01*
X442366Y457465D01*
X442303Y457565D01*
X442225Y457653D01*
X442135Y457729D01*
X442032Y457787D01*
X441586Y457989D01*
X441266Y458095D01*
Y464000D01*
G37*
G36*
Y449516D02*X441046Y449417D01*
X440712Y449306D01*
X440369Y449226D01*
X440021Y449178D01*
X439671Y449162D01*
Y456838D01*
X440021Y456822D01*
X440369Y456774D01*
X440712Y456694D01*
X441046Y456583D01*
X441266Y456487D01*
Y449516D01*
G37*
G36*
Y438410D02*X441121Y438458D01*
X440644Y438570D01*
X440159Y438637D01*
X439671Y438659D01*
Y447656D01*
X440159Y447678D01*
X440644Y447745D01*
X441121Y447857D01*
X441266Y447905D01*
Y438410D01*
G37*
G36*
Y429831D02*X441046Y429732D01*
X440712Y429621D01*
X440369Y429541D01*
X440021Y429493D01*
X439671Y429476D01*
Y437153D01*
X440021Y437137D01*
X440369Y437089D01*
X440712Y437009D01*
X441046Y436898D01*
X441266Y436802D01*
Y429831D01*
G37*
G36*
Y344000D02*X439671D01*
Y418761D01*
X439733Y418839D01*
X439791Y418942D01*
X439832Y419053D01*
X439856Y419169D01*
X439861Y419287D01*
X439847Y419405D01*
X439815Y419519D01*
X439766Y419627D01*
X439700Y419726D01*
X439671Y419757D01*
Y425247D01*
X439698Y425276D01*
X439764Y425374D01*
X439813Y425482D01*
X439845Y425595D01*
X439858Y425713D01*
X439853Y425831D01*
X439830Y425946D01*
X439789Y426057D01*
X439731Y426160D01*
X439671Y426235D01*
Y427971D01*
X440159Y427993D01*
X440644Y428060D01*
X441121Y428172D01*
X441266Y428220D01*
Y424432D01*
X441252Y424434D01*
X441134Y424439D01*
X441016Y424426D01*
X440902Y424394D01*
X440794Y424345D01*
X440696Y424279D01*
X440608Y424199D01*
X440535Y424106D01*
X440477Y424003D01*
X440435Y423892D01*
X440412Y423776D01*
X440407Y423657D01*
X440421Y423540D01*
X440455Y423426D01*
X440528Y423202D01*
X440580Y422971D01*
X440611Y422736D01*
X440621Y422500D01*
X440611Y422264D01*
X440580Y422029D01*
X440528Y421798D01*
X440457Y421573D01*
X440423Y421460D01*
X440410Y421342D01*
X440415Y421224D01*
X440438Y421109D01*
X440479Y420998D01*
X440537Y420895D01*
X440610Y420803D01*
X440697Y420723D01*
X440796Y420658D01*
X440903Y420608D01*
X441017Y420577D01*
X441134Y420563D01*
X441252Y420568D01*
X441266Y420571D01*
Y344000D01*
G37*
G36*
X439671Y464000D02*X441266D01*
Y458095D01*
X441121Y458143D01*
X440644Y458255D01*
X440159Y458322D01*
X439671Y458344D01*
Y464000D01*
G37*
G36*
X435318D02*X439671D01*
Y458344D01*
X439669Y458344D01*
X439180Y458322D01*
X438695Y458255D01*
X438218Y458143D01*
X437753Y457989D01*
X437304Y457792D01*
X437202Y457732D01*
X437110Y457656D01*
X437032Y457567D01*
X436969Y457467D01*
X436922Y457358D01*
X436893Y457242D01*
X436882Y457124D01*
X436890Y457006D01*
X436916Y456890D01*
X436960Y456780D01*
X437021Y456678D01*
X437097Y456587D01*
X437186Y456508D01*
X437286Y456445D01*
X437395Y456398D01*
X437511Y456369D01*
X437629Y456358D01*
X437747Y456366D01*
X437863Y456392D01*
X437972Y456439D01*
X438293Y456583D01*
X438627Y456694D01*
X438969Y456774D01*
X439318Y456822D01*
X439669Y456839D01*
X439671Y456838D01*
Y449162D01*
X439669Y449161D01*
X439318Y449178D01*
X438969Y449226D01*
X438627Y449306D01*
X438293Y449417D01*
X437970Y449558D01*
X437862Y449604D01*
X437747Y449630D01*
X437629Y449638D01*
X437511Y449627D01*
X437397Y449598D01*
X437288Y449551D01*
X437188Y449488D01*
X437100Y449410D01*
X437024Y449320D01*
X436964Y449218D01*
X436920Y449109D01*
X436894Y448994D01*
X436886Y448876D01*
X436897Y448758D01*
X436926Y448644D01*
X436972Y448535D01*
X437035Y448435D01*
X437113Y448347D01*
X437204Y448271D01*
X437306Y448213D01*
X437753Y448011D01*
X438218Y447857D01*
X438695Y447745D01*
X439180Y447678D01*
X439669Y447656D01*
X439671Y447656D01*
Y438659D01*
X439669Y438659D01*
X439180Y438637D01*
X438695Y438570D01*
X438218Y438458D01*
X437753Y438304D01*
X437304Y438107D01*
X437202Y438047D01*
X437110Y437971D01*
X437032Y437882D01*
X436969Y437782D01*
X436922Y437673D01*
X436893Y437557D01*
X436882Y437439D01*
X436890Y437321D01*
X436916Y437205D01*
X436960Y437095D01*
X437021Y436993D01*
X437097Y436902D01*
X437186Y436823D01*
X437286Y436760D01*
X437395Y436713D01*
X437511Y436684D01*
X437629Y436673D01*
X437747Y436681D01*
X437863Y436707D01*
X437972Y436753D01*
X438293Y436898D01*
X438627Y437009D01*
X438969Y437089D01*
X439318Y437137D01*
X439669Y437154D01*
X439671Y437153D01*
Y429476D01*
X439669Y429476D01*
X439318Y429493D01*
X438969Y429541D01*
X438627Y429621D01*
X438293Y429732D01*
X437970Y429873D01*
X437862Y429919D01*
X437747Y429945D01*
X437629Y429953D01*
X437511Y429942D01*
X437397Y429913D01*
X437288Y429866D01*
X437188Y429803D01*
X437100Y429725D01*
X437024Y429635D01*
X436964Y429533D01*
X436920Y429424D01*
X436894Y429309D01*
X436886Y429191D01*
X436897Y429073D01*
X436926Y428959D01*
X436972Y428850D01*
X437035Y428750D01*
X437113Y428662D01*
X437204Y428586D01*
X437306Y428528D01*
X437753Y428326D01*
X438218Y428172D01*
X438695Y428060D01*
X439180Y427993D01*
X439669Y427971D01*
X439671Y427971D01*
Y426235D01*
X439657Y426252D01*
X439570Y426332D01*
X439472Y426398D01*
X439364Y426444D01*
X439014Y426560D01*
X438654Y426640D01*
X438289Y426688D01*
X437921Y426704D01*
X437553Y426688D01*
X437188Y426640D01*
X436828Y426560D01*
X436477Y426448D01*
X436369Y426400D01*
X436271Y426334D01*
X436183Y426254D01*
X436110Y426161D01*
X436052Y426058D01*
X436010Y425947D01*
X435987Y425831D01*
X435982Y425713D01*
X435995Y425595D01*
X436027Y425481D01*
X436077Y425373D01*
X436142Y425274D01*
X436222Y425187D01*
X436315Y425114D01*
X436418Y425055D01*
X436529Y425014D01*
X436645Y424991D01*
X436764Y424986D01*
X436881Y424999D01*
X436995Y425033D01*
X437219Y425107D01*
X437450Y425159D01*
X437685Y425190D01*
X437921Y425200D01*
X438158Y425190D01*
X438392Y425159D01*
X438623Y425107D01*
X438849Y425036D01*
X438962Y425002D01*
X439079Y424988D01*
X439197Y424993D01*
X439312Y425017D01*
X439423Y425058D01*
X439526Y425116D01*
X439618Y425189D01*
X439671Y425247D01*
Y419757D01*
X439620Y419813D01*
X439527Y419886D01*
X439424Y419945D01*
X439313Y419986D01*
X439197Y420009D01*
X439079Y420014D01*
X438961Y420001D01*
X438848Y419967D01*
X438623Y419893D01*
X438392Y419841D01*
X438158Y419810D01*
X437921Y419800D01*
X437685Y419810D01*
X437450Y419841D01*
X437219Y419893D01*
X436994Y419964D01*
X436881Y419998D01*
X436764Y420012D01*
X436646Y420007D01*
X436530Y419983D01*
X436419Y419942D01*
X436317Y419884D01*
X436224Y419811D01*
X436144Y419724D01*
X436079Y419626D01*
X436030Y419518D01*
X435998Y419405D01*
X435984Y419287D01*
X435989Y419169D01*
X436013Y419054D01*
X436054Y418943D01*
X436112Y418840D01*
X436185Y418748D01*
X436272Y418668D01*
X436371Y418602D01*
X436479Y418556D01*
X436828Y418440D01*
X437188Y418360D01*
X437553Y418312D01*
X437921Y418296D01*
X438289Y418312D01*
X438654Y418360D01*
X439014Y418440D01*
X439365Y418552D01*
X439473Y418600D01*
X439572Y418666D01*
X439659Y418746D01*
X439671Y418761D01*
Y344000D01*
X435318D01*
Y420912D01*
X435366Y420997D01*
X435407Y421108D01*
X435431Y421224D01*
X435436Y421343D01*
X435422Y421460D01*
X435388Y421574D01*
X435318Y421786D01*
Y423214D01*
X435386Y423427D01*
X435419Y423540D01*
X435433Y423658D01*
X435428Y423776D01*
X435405Y423891D01*
X435363Y424002D01*
X435318Y424082D01*
Y430566D01*
X435427Y430539D01*
X435545Y430528D01*
X435663Y430536D01*
X435779Y430562D01*
X435889Y430606D01*
X435991Y430667D01*
X436083Y430742D01*
X436161Y430832D01*
X436224Y430932D01*
X436271Y431041D01*
X436300Y431156D01*
X436311Y431274D01*
X436303Y431393D01*
X436277Y431509D01*
X436231Y431618D01*
X436086Y431938D01*
X435975Y432272D01*
X435895Y432615D01*
X435847Y432963D01*
X435831Y433315D01*
X435847Y433666D01*
X435895Y434015D01*
X435975Y434358D01*
X436086Y434692D01*
X436227Y435014D01*
X436273Y435123D01*
X436299Y435238D01*
X436307Y435355D01*
X436296Y435473D01*
X436267Y435587D01*
X436221Y435696D01*
X436158Y435796D01*
X436080Y435885D01*
X435989Y435960D01*
X435888Y436020D01*
X435778Y436064D01*
X435663Y436090D01*
X435545Y436098D01*
X435427Y436087D01*
X435318Y436060D01*
Y450251D01*
X435427Y450224D01*
X435545Y450213D01*
X435663Y450221D01*
X435779Y450247D01*
X435889Y450291D01*
X435991Y450352D01*
X436083Y450427D01*
X436161Y450517D01*
X436224Y450617D01*
X436271Y450726D01*
X436300Y450841D01*
X436311Y450959D01*
X436303Y451078D01*
X436277Y451194D01*
X436231Y451303D01*
X436086Y451623D01*
X435975Y451957D01*
X435895Y452300D01*
X435847Y452648D01*
X435831Y453000D01*
X435847Y453352D01*
X435895Y453700D01*
X435975Y454043D01*
X436086Y454377D01*
X436227Y454699D01*
X436273Y454808D01*
X436299Y454923D01*
X436307Y455041D01*
X436296Y455158D01*
X436267Y455272D01*
X436221Y455381D01*
X436158Y455481D01*
X436080Y455570D01*
X435989Y455645D01*
X435888Y455706D01*
X435778Y455749D01*
X435663Y455775D01*
X435545Y455783D01*
X435427Y455772D01*
X435318Y455745D01*
Y464000D01*
G37*
G36*
Y421786D02*X435314Y421798D01*
X435263Y422029D01*
X435232Y422264D01*
X435221Y422500D01*
X435232Y422736D01*
X435263Y422971D01*
X435314Y423202D01*
X435318Y423214D01*
Y421786D01*
G37*
G36*
Y344000D02*X433851D01*
Y349586D01*
X433856Y349587D01*
X433965Y349634D01*
X434065Y349697D01*
X434153Y349775D01*
X434229Y349865D01*
X434287Y349968D01*
X434489Y350414D01*
X434643Y350879D01*
X434755Y351356D01*
X434822Y351841D01*
X434844Y352331D01*
X434822Y352820D01*
X434755Y353305D01*
X434643Y353782D01*
X434489Y354247D01*
X434292Y354696D01*
X434232Y354798D01*
X434156Y354890D01*
X434067Y354968D01*
X433967Y355031D01*
X433858Y355078D01*
X433851Y355080D01*
Y362994D01*
X434271Y363679D01*
X434593Y364455D01*
X434789Y365273D01*
X434839Y366110D01*
X434789Y366948D01*
X434593Y367765D01*
X434271Y368541D01*
X433851Y369227D01*
Y376773D01*
X434271Y377459D01*
X434593Y378235D01*
X434789Y379052D01*
X434839Y379890D01*
X434789Y380727D01*
X434593Y381545D01*
X434271Y382321D01*
X433851Y383006D01*
Y390553D01*
X434271Y391238D01*
X434593Y392014D01*
X434789Y392832D01*
X434839Y393669D01*
X434789Y394507D01*
X434593Y395324D01*
X434271Y396100D01*
X433851Y396786D01*
Y421454D01*
X433862Y421407D01*
X433973Y421056D01*
X434021Y420948D01*
X434087Y420849D01*
X434167Y420762D01*
X434260Y420689D01*
X434363Y420630D01*
X434474Y420589D01*
X434590Y420566D01*
X434709Y420561D01*
X434826Y420574D01*
X434940Y420606D01*
X435048Y420655D01*
X435147Y420721D01*
X435234Y420801D01*
X435308Y420894D01*
X435318Y420912D01*
Y344000D01*
G37*
G36*
X433851Y464000D02*X435318D01*
Y455745D01*
X435313Y455743D01*
X435205Y455697D01*
X435105Y455634D01*
X435016Y455556D01*
X434940Y455465D01*
X434882Y455363D01*
X434681Y454917D01*
X434526Y454452D01*
X434415Y453975D01*
X434348Y453489D01*
X434325Y453000D01*
X434348Y452511D01*
X434415Y452025D01*
X434526Y451548D01*
X434681Y451083D01*
X434877Y450635D01*
X434937Y450532D01*
X435013Y450441D01*
X435102Y450363D01*
X435203Y450300D01*
X435312Y450253D01*
X435318Y450251D01*
Y436060D01*
X435313Y436058D01*
X435205Y436012D01*
X435105Y435949D01*
X435016Y435871D01*
X434940Y435780D01*
X434882Y435678D01*
X434681Y435232D01*
X434526Y434767D01*
X434415Y434290D01*
X434348Y433804D01*
X434325Y433315D01*
X434348Y432826D01*
X434415Y432340D01*
X434526Y431863D01*
X434681Y431398D01*
X434877Y430950D01*
X434937Y430847D01*
X435013Y430756D01*
X435102Y430678D01*
X435203Y430615D01*
X435312Y430568D01*
X435318Y430566D01*
Y424082D01*
X435305Y424105D01*
X435232Y424197D01*
X435145Y424277D01*
X435047Y424342D01*
X434940Y424392D01*
X434826Y424423D01*
X434709Y424437D01*
X434591Y424432D01*
X434475Y424408D01*
X434364Y424367D01*
X434261Y424309D01*
X434169Y424236D01*
X434089Y424149D01*
X434024Y424051D01*
X433977Y423943D01*
X433862Y423593D01*
X433851Y423546D01*
Y464000D01*
G37*
G36*
Y383006D02*X433832Y383037D01*
X433287Y383676D01*
X432648Y384222D01*
X431931Y384661D01*
X431155Y384983D01*
X430338Y385179D01*
X429500Y385245D01*
X429492Y385244D01*
Y388315D01*
X429500Y388314D01*
X430338Y388380D01*
X431155Y388576D01*
X431931Y388898D01*
X432648Y389337D01*
X433287Y389883D01*
X433832Y390522D01*
X433851Y390553D01*
Y383006D01*
G37*
G36*
Y369227D02*X433832Y369258D01*
X433287Y369897D01*
X432648Y370443D01*
X431931Y370882D01*
X431155Y371203D01*
X430338Y371399D01*
X429500Y371465D01*
X429492Y371465D01*
Y374535D01*
X429500Y374535D01*
X430338Y374601D01*
X431155Y374797D01*
X431931Y375118D01*
X432648Y375557D01*
X433287Y376103D01*
X433832Y376742D01*
X433851Y376773D01*
Y369227D01*
G37*
G36*
Y344000D02*X429492D01*
Y346987D01*
X429500Y346987D01*
X429989Y347009D01*
X430475Y347076D01*
X430952Y347187D01*
X431417Y347342D01*
X431865Y347538D01*
X431968Y347599D01*
X432059Y347674D01*
X432137Y347764D01*
X432200Y347864D01*
X432247Y347973D01*
X432276Y348088D01*
X432287Y348206D01*
X432279Y348325D01*
X432253Y348441D01*
X432209Y348551D01*
X432148Y348653D01*
X432073Y348744D01*
X431983Y348822D01*
X431883Y348886D01*
X431774Y348932D01*
X431659Y348962D01*
X431541Y348972D01*
X431422Y348965D01*
X431306Y348938D01*
X431197Y348892D01*
X430877Y348747D01*
X430543Y348636D01*
X430200Y348557D01*
X429852Y348508D01*
X429500Y348492D01*
X429492Y348493D01*
Y356169D01*
X429500Y356169D01*
X429852Y356153D01*
X430200Y356105D01*
X430543Y356025D01*
X430877Y355914D01*
X431199Y355773D01*
X431308Y355727D01*
X431423Y355701D01*
X431541Y355693D01*
X431658Y355704D01*
X431772Y355733D01*
X431881Y355779D01*
X431981Y355842D01*
X432070Y355920D01*
X432145Y356011D01*
X432206Y356112D01*
X432249Y356222D01*
X432275Y356337D01*
X432283Y356455D01*
X432272Y356573D01*
X432243Y356687D01*
X432197Y356795D01*
X432134Y356895D01*
X432056Y356984D01*
X431965Y357060D01*
X431863Y357118D01*
X431417Y357319D01*
X430952Y357474D01*
X430475Y357585D01*
X429989Y357652D01*
X429500Y357675D01*
X429492Y357675D01*
Y360756D01*
X429500Y360755D01*
X430338Y360821D01*
X431155Y361017D01*
X431931Y361339D01*
X432648Y361778D01*
X433287Y362324D01*
X433832Y362963D01*
X433851Y362994D01*
Y355080D01*
X433742Y355107D01*
X433624Y355118D01*
X433506Y355110D01*
X433390Y355084D01*
X433280Y355040D01*
X433178Y354979D01*
X433087Y354903D01*
X433008Y354814D01*
X432945Y354714D01*
X432898Y354605D01*
X432869Y354489D01*
X432858Y354371D01*
X432866Y354253D01*
X432892Y354137D01*
X432939Y354028D01*
X433083Y353707D01*
X433194Y353373D01*
X433274Y353031D01*
X433322Y352682D01*
X433339Y352331D01*
X433322Y351979D01*
X433274Y351631D01*
X433194Y351288D01*
X433083Y350954D01*
X432942Y350632D01*
X432896Y350523D01*
X432870Y350408D01*
X432862Y350290D01*
X432873Y350173D01*
X432902Y350058D01*
X432949Y349950D01*
X433012Y349850D01*
X433090Y349761D01*
X433180Y349686D01*
X433282Y349625D01*
X433391Y349581D01*
X433506Y349555D01*
X433624Y349548D01*
X433742Y349558D01*
X433851Y349586D01*
Y344000D01*
G37*
G36*
X429492Y464000D02*X433851D01*
Y423546D01*
X433782Y423233D01*
X433733Y422868D01*
X433717Y422500D01*
X433733Y422132D01*
X433782Y421767D01*
X433851Y421454D01*
Y396786D01*
X433832Y396817D01*
X433287Y397456D01*
X432648Y398002D01*
X431931Y398441D01*
X431155Y398762D01*
X430338Y398958D01*
X429500Y399024D01*
X429492Y399024D01*
Y418539D01*
X429991Y418746D01*
X430555Y419092D01*
X431058Y419521D01*
X431487Y420024D01*
X431833Y420587D01*
X432085Y421198D01*
X432240Y421841D01*
X432279Y422500D01*
X432240Y423159D01*
X432085Y423802D01*
X431833Y424413D01*
X431487Y424976D01*
X431058Y425479D01*
X430555Y425908D01*
X429991Y426254D01*
X429492Y426461D01*
Y429371D01*
X429676Y429528D01*
X430222Y430167D01*
X430661Y430884D01*
X430983Y431660D01*
X431179Y432477D01*
X431228Y433315D01*
X431179Y434153D01*
X430983Y434970D01*
X430661Y435746D01*
X430222Y436463D01*
X429676Y437102D01*
X429492Y437259D01*
Y449056D01*
X429676Y449213D01*
X430222Y449852D01*
X430661Y450569D01*
X430983Y451345D01*
X431179Y452162D01*
X431228Y453000D01*
X431179Y453838D01*
X430983Y454655D01*
X430661Y455431D01*
X430222Y456148D01*
X429676Y456787D01*
X429492Y456944D01*
Y464000D01*
G37*
G36*
X425149Y362994D02*X425168Y362963D01*
X425713Y362324D01*
X426352Y361778D01*
X427069Y361339D01*
X427845Y361017D01*
X428662Y360821D01*
X429492Y360756D01*
Y357675D01*
X429011Y357652D01*
X428525Y357585D01*
X428048Y357474D01*
X427583Y357319D01*
X427135Y357123D01*
X427032Y357063D01*
X426941Y356987D01*
X426863Y356898D01*
X426800Y356797D01*
X426753Y356688D01*
X426724Y356573D01*
X426713Y356455D01*
X426721Y356337D01*
X426747Y356221D01*
X426791Y356111D01*
X426852Y356009D01*
X426927Y355917D01*
X427017Y355839D01*
X427117Y355776D01*
X427226Y355729D01*
X427341Y355700D01*
X427459Y355689D01*
X427578Y355697D01*
X427694Y355723D01*
X427803Y355769D01*
X428123Y355914D01*
X428457Y356025D01*
X428800Y356105D01*
X429148Y356153D01*
X429492Y356169D01*
Y348493D01*
X429148Y348508D01*
X428800Y348557D01*
X428457Y348636D01*
X428123Y348747D01*
X427801Y348889D01*
X427692Y348934D01*
X427577Y348961D01*
X427459Y348968D01*
X427342Y348958D01*
X427228Y348929D01*
X427119Y348882D01*
X427019Y348819D01*
X426930Y348741D01*
X426855Y348650D01*
X426794Y348549D01*
X426751Y348439D01*
X426725Y348324D01*
X426717Y348206D01*
X426728Y348089D01*
X426757Y347974D01*
X426803Y347866D01*
X426866Y347766D01*
X426944Y347677D01*
X427035Y347602D01*
X427137Y347544D01*
X427583Y347342D01*
X428048Y347187D01*
X428525Y347076D01*
X429011Y347009D01*
X429492Y346987D01*
Y344000D01*
X425149D01*
Y349582D01*
X425258Y349554D01*
X425376Y349543D01*
X425494Y349551D01*
X425610Y349578D01*
X425720Y349622D01*
X425822Y349682D01*
X425913Y349758D01*
X425992Y349847D01*
X426055Y349948D01*
X426102Y350057D01*
X426131Y350172D01*
X426142Y350290D01*
X426134Y350409D01*
X426108Y350524D01*
X426061Y350634D01*
X425917Y350954D01*
X425806Y351288D01*
X425726Y351631D01*
X425678Y351979D01*
X425661Y352331D01*
X425678Y352682D01*
X425726Y353031D01*
X425806Y353373D01*
X425917Y353707D01*
X426058Y354030D01*
X426104Y354138D01*
X426130Y354253D01*
X426138Y354371D01*
X426127Y354489D01*
X426098Y354603D01*
X426051Y354712D01*
X425988Y354812D01*
X425910Y354900D01*
X425820Y354976D01*
X425718Y355036D01*
X425609Y355080D01*
X425494Y355106D01*
X425376Y355114D01*
X425258Y355103D01*
X425149Y355075D01*
Y362994D01*
G37*
G36*
Y376773D02*X425168Y376742D01*
X425713Y376103D01*
X426352Y375557D01*
X427069Y375118D01*
X427845Y374797D01*
X428662Y374601D01*
X429492Y374535D01*
Y371465D01*
X428662Y371399D01*
X427845Y371203D01*
X427069Y370882D01*
X426352Y370443D01*
X425713Y369897D01*
X425168Y369258D01*
X425149Y369227D01*
Y376773D01*
G37*
G36*
Y390553D02*X425168Y390522D01*
X425713Y389883D01*
X426352Y389337D01*
X427069Y388898D01*
X427845Y388576D01*
X428662Y388380D01*
X429492Y388315D01*
Y385244D01*
X428662Y385179D01*
X427845Y384983D01*
X427069Y384661D01*
X426352Y384222D01*
X425713Y383676D01*
X425168Y383037D01*
X425149Y383006D01*
Y390553D01*
G37*
G36*
Y419479D02*X425602Y419092D01*
X426166Y418746D01*
X426777Y418493D01*
X427420Y418339D01*
X428079Y418287D01*
X428738Y418339D01*
X429381Y418493D01*
X429492Y418539D01*
Y399024D01*
X428662Y398958D01*
X427845Y398762D01*
X427069Y398441D01*
X426352Y398002D01*
X425713Y397456D01*
X425168Y396817D01*
X425149Y396786D01*
Y419479D01*
G37*
G36*
Y428018D02*X425890Y427960D01*
X426727Y428026D01*
X427545Y428222D01*
X428321Y428544D01*
X429037Y428983D01*
X429492Y429371D01*
Y426461D01*
X429381Y426507D01*
X428738Y426661D01*
X428079Y426713D01*
X427420Y426661D01*
X426777Y426507D01*
X426166Y426254D01*
X425602Y425908D01*
X425149Y425521D01*
Y428018D01*
G37*
G36*
Y447703D02*X425890Y447645D01*
X426727Y447711D01*
X427545Y447907D01*
X428321Y448229D01*
X429037Y448668D01*
X429492Y449056D01*
Y437259D01*
X429037Y437647D01*
X428321Y438086D01*
X427545Y438408D01*
X426727Y438604D01*
X425890Y438670D01*
X425149Y438612D01*
Y447703D01*
G37*
G36*
Y464000D02*X429492D01*
Y456944D01*
X429037Y457332D01*
X428321Y457771D01*
X427545Y458093D01*
X426727Y458289D01*
X425890Y458355D01*
X425149Y458297D01*
Y464000D01*
G37*
G36*
X414166D02*X425149D01*
Y458297D01*
X425052Y458289D01*
X424235Y458093D01*
X423459Y457771D01*
X422742Y457332D01*
X422103Y456787D01*
X421557Y456148D01*
X421118Y455431D01*
X420797Y454655D01*
X420601Y453838D01*
X420535Y453000D01*
X420601Y452162D01*
X420797Y451345D01*
X421118Y450569D01*
X421557Y449852D01*
X422103Y449213D01*
X422742Y448668D01*
X423459Y448229D01*
X424235Y447907D01*
X425052Y447711D01*
X425149Y447703D01*
Y438612D01*
X425052Y438604D01*
X424235Y438408D01*
X423459Y438086D01*
X422742Y437647D01*
X422103Y437102D01*
X421557Y436463D01*
X421118Y435746D01*
X420797Y434970D01*
X420601Y434153D01*
X420535Y433315D01*
X420601Y432477D01*
X420797Y431660D01*
X421118Y430884D01*
X421557Y430167D01*
X422103Y429528D01*
X422742Y428983D01*
X423459Y428544D01*
X424235Y428222D01*
X425052Y428026D01*
X425149Y428018D01*
Y425521D01*
X425100Y425479D01*
X424670Y424976D01*
X424325Y424413D01*
X424072Y423802D01*
X423918Y423159D01*
X423866Y422500D01*
X423918Y421841D01*
X424072Y421198D01*
X424325Y420587D01*
X424670Y420024D01*
X425100Y419521D01*
X425149Y419479D01*
Y396786D01*
X424729Y396100D01*
X424407Y395324D01*
X424211Y394507D01*
X424145Y393669D01*
X424211Y392832D01*
X424407Y392014D01*
X424729Y391238D01*
X425149Y390553D01*
Y383006D01*
X424729Y382321D01*
X424407Y381545D01*
X424211Y380727D01*
X424145Y379890D01*
X424211Y379052D01*
X424407Y378235D01*
X424729Y377459D01*
X425149Y376773D01*
Y369227D01*
X424729Y368541D01*
X424407Y367765D01*
X424211Y366948D01*
X424145Y366110D01*
X424211Y365273D01*
X424407Y364455D01*
X424729Y363679D01*
X425149Y362994D01*
Y355075D01*
X425144Y355074D01*
X425035Y355028D01*
X424935Y354965D01*
X424847Y354887D01*
X424771Y354796D01*
X424713Y354694D01*
X424511Y354247D01*
X424357Y353782D01*
X424245Y353305D01*
X424178Y352820D01*
X424156Y352331D01*
X424178Y351841D01*
X424245Y351356D01*
X424357Y350879D01*
X424511Y350414D01*
X424708Y349965D01*
X424768Y349863D01*
X424844Y349772D01*
X424933Y349694D01*
X425033Y349630D01*
X425142Y349583D01*
X425149Y349582D01*
Y344000D01*
X414166D01*
Y349586D01*
X414171Y349587D01*
X414280Y349634D01*
X414380Y349697D01*
X414468Y349775D01*
X414544Y349865D01*
X414602Y349968D01*
X414804Y350414D01*
X414958Y350879D01*
X415070Y351356D01*
X415137Y351841D01*
X415159Y352331D01*
X415137Y352820D01*
X415070Y353305D01*
X414958Y353782D01*
X414804Y354247D01*
X414607Y354696D01*
X414547Y354798D01*
X414471Y354890D01*
X414382Y354968D01*
X414282Y355031D01*
X414172Y355078D01*
X414166Y355080D01*
Y362994D01*
X414586Y363679D01*
X414908Y364455D01*
X415104Y365273D01*
X415154Y366110D01*
X415104Y366948D01*
X414908Y367765D01*
X414586Y368541D01*
X414166Y369227D01*
Y376773D01*
X414586Y377459D01*
X414908Y378235D01*
X415104Y379052D01*
X415154Y379890D01*
X415104Y380727D01*
X414908Y381545D01*
X414586Y382321D01*
X414166Y383006D01*
Y390553D01*
X414586Y391238D01*
X414908Y392014D01*
X415104Y392832D01*
X415154Y393669D01*
X415104Y394507D01*
X414908Y395324D01*
X414586Y396100D01*
X414166Y396786D01*
Y428388D01*
X414541Y428544D01*
X415258Y428983D01*
X415897Y429528D01*
X416443Y430167D01*
X416882Y430884D01*
X417203Y431660D01*
X417399Y432477D01*
X417449Y433315D01*
X417399Y434153D01*
X417203Y434970D01*
X416882Y435746D01*
X416443Y436463D01*
X415897Y437102D01*
X415258Y437647D01*
X414541Y438086D01*
X414166Y438242D01*
Y448073D01*
X414541Y448229D01*
X415258Y448668D01*
X415897Y449213D01*
X416443Y449852D01*
X416882Y450569D01*
X417203Y451345D01*
X417399Y452162D01*
X417449Y453000D01*
X417399Y453838D01*
X417203Y454655D01*
X416882Y455431D01*
X416443Y456148D01*
X415897Y456787D01*
X415258Y457332D01*
X414541Y457771D01*
X414166Y457927D01*
Y464000D01*
G37*
G36*
Y438242D02*X413765Y438408D01*
X412948Y438604D01*
X412110Y438670D01*
X411273Y438604D01*
X410455Y438408D01*
X409807Y438139D01*
Y448176D01*
X410455Y447907D01*
X411273Y447711D01*
X412110Y447645D01*
X412948Y447711D01*
X413765Y447907D01*
X414166Y448073D01*
Y438242D01*
G37*
G36*
Y396786D02*X414147Y396817D01*
X413602Y397456D01*
X412963Y398002D01*
X412246Y398441D01*
X411470Y398762D01*
X410653Y398958D01*
X409815Y399024D01*
X409807Y399024D01*
Y428491D01*
X410455Y428222D01*
X411273Y428026D01*
X412110Y427960D01*
X412948Y428026D01*
X413765Y428222D01*
X414166Y428388D01*
Y396786D01*
G37*
G36*
Y383006D02*X414147Y383037D01*
X413602Y383676D01*
X412963Y384222D01*
X412246Y384661D01*
X411470Y384983D01*
X410653Y385179D01*
X409815Y385245D01*
X409807Y385244D01*
Y388315D01*
X409815Y388314D01*
X410653Y388380D01*
X411470Y388576D01*
X412246Y388898D01*
X412963Y389337D01*
X413602Y389883D01*
X414147Y390522D01*
X414166Y390553D01*
Y383006D01*
G37*
G36*
Y369227D02*X414147Y369258D01*
X413602Y369897D01*
X412963Y370443D01*
X412246Y370882D01*
X411470Y371203D01*
X410653Y371399D01*
X409815Y371465D01*
X409807Y371465D01*
Y374535D01*
X409815Y374535D01*
X410653Y374601D01*
X411470Y374797D01*
X412246Y375118D01*
X412963Y375557D01*
X413602Y376103D01*
X414147Y376742D01*
X414166Y376773D01*
Y369227D01*
G37*
G36*
Y344000D02*X409807D01*
Y346987D01*
X409815Y346987D01*
X410304Y347009D01*
X410790Y347076D01*
X411267Y347187D01*
X411732Y347342D01*
X412180Y347538D01*
X412283Y347599D01*
X412374Y347674D01*
X412452Y347764D01*
X412515Y347864D01*
X412562Y347973D01*
X412591Y348088D01*
X412602Y348206D01*
X412594Y348325D01*
X412568Y348441D01*
X412524Y348551D01*
X412463Y348653D01*
X412387Y348744D01*
X412298Y348822D01*
X412198Y348886D01*
X412089Y348932D01*
X411974Y348962D01*
X411856Y348972D01*
X411737Y348965D01*
X411621Y348938D01*
X411512Y348892D01*
X411192Y348747D01*
X410858Y348636D01*
X410515Y348557D01*
X410166Y348508D01*
X409815Y348492D01*
X409807Y348493D01*
Y356169D01*
X409815Y356169D01*
X410166Y356153D01*
X410515Y356105D01*
X410858Y356025D01*
X411192Y355914D01*
X411514Y355773D01*
X411623Y355727D01*
X411738Y355701D01*
X411855Y355693D01*
X411973Y355704D01*
X412087Y355733D01*
X412196Y355779D01*
X412296Y355842D01*
X412385Y355920D01*
X412460Y356011D01*
X412520Y356112D01*
X412564Y356222D01*
X412590Y356337D01*
X412598Y356455D01*
X412587Y356573D01*
X412558Y356687D01*
X412512Y356795D01*
X412449Y356895D01*
X412371Y356984D01*
X412280Y357060D01*
X412178Y357118D01*
X411732Y357319D01*
X411267Y357474D01*
X410790Y357585D01*
X410304Y357652D01*
X409815Y357675D01*
X409807Y357675D01*
Y360756D01*
X409815Y360755D01*
X410653Y360821D01*
X411470Y361017D01*
X412246Y361339D01*
X412963Y361778D01*
X413602Y362324D01*
X414147Y362963D01*
X414166Y362994D01*
Y355080D01*
X414057Y355107D01*
X413939Y355118D01*
X413821Y355110D01*
X413705Y355084D01*
X413595Y355040D01*
X413493Y354979D01*
X413402Y354903D01*
X413323Y354814D01*
X413260Y354714D01*
X413213Y354605D01*
X413184Y354489D01*
X413173Y354371D01*
X413181Y354253D01*
X413207Y354137D01*
X413253Y354028D01*
X413398Y353707D01*
X413509Y353373D01*
X413589Y353031D01*
X413637Y352682D01*
X413654Y352331D01*
X413637Y351979D01*
X413589Y351631D01*
X413509Y351288D01*
X413398Y350954D01*
X413257Y350632D01*
X413211Y350523D01*
X413185Y350408D01*
X413177Y350290D01*
X413188Y350173D01*
X413217Y350058D01*
X413264Y349950D01*
X413327Y349850D01*
X413404Y349761D01*
X413495Y349686D01*
X413597Y349625D01*
X413706Y349581D01*
X413821Y349555D01*
X413939Y349548D01*
X414057Y349558D01*
X414166Y349586D01*
Y344000D01*
G37*
G36*
X409807Y464000D02*X414166D01*
Y457927D01*
X413765Y458093D01*
X412948Y458289D01*
X412110Y458355D01*
X411273Y458289D01*
X410455Y458093D01*
X409807Y457824D01*
Y464000D01*
G37*
G36*
X405464Y362994D02*X405483Y362963D01*
X406028Y362324D01*
X406667Y361778D01*
X407384Y361339D01*
X408160Y361017D01*
X408977Y360821D01*
X409807Y360756D01*
Y357675D01*
X409326Y357652D01*
X408840Y357585D01*
X408363Y357474D01*
X407898Y357319D01*
X407450Y357123D01*
X407347Y357063D01*
X407256Y356987D01*
X407178Y356898D01*
X407115Y356797D01*
X407068Y356688D01*
X407039Y356573D01*
X407028Y356455D01*
X407036Y356337D01*
X407062Y356221D01*
X407106Y356111D01*
X407167Y356009D01*
X407242Y355917D01*
X407332Y355839D01*
X407432Y355776D01*
X407541Y355729D01*
X407656Y355700D01*
X407774Y355689D01*
X407893Y355697D01*
X408009Y355723D01*
X408118Y355769D01*
X408438Y355914D01*
X408772Y356025D01*
X409115Y356105D01*
X409463Y356153D01*
X409807Y356169D01*
Y348493D01*
X409463Y348508D01*
X409115Y348557D01*
X408772Y348636D01*
X408438Y348747D01*
X408116Y348889D01*
X408007Y348934D01*
X407892Y348961D01*
X407774Y348968D01*
X407657Y348958D01*
X407542Y348929D01*
X407434Y348882D01*
X407334Y348819D01*
X407245Y348741D01*
X407170Y348650D01*
X407109Y348549D01*
X407066Y348439D01*
X407040Y348324D01*
X407032Y348206D01*
X407043Y348089D01*
X407072Y347974D01*
X407118Y347866D01*
X407181Y347766D01*
X407259Y347677D01*
X407350Y347602D01*
X407452Y347544D01*
X407898Y347342D01*
X408363Y347187D01*
X408840Y347076D01*
X409326Y347009D01*
X409807Y346987D01*
Y344000D01*
X405464D01*
Y349582D01*
X405572Y349554D01*
X405691Y349543D01*
X405809Y349551D01*
X405925Y349578D01*
X406035Y349622D01*
X406137Y349682D01*
X406228Y349758D01*
X406306Y349847D01*
X406370Y349948D01*
X406417Y350057D01*
X406446Y350172D01*
X406457Y350290D01*
X406449Y350409D01*
X406423Y350524D01*
X406376Y350634D01*
X406232Y350954D01*
X406121Y351288D01*
X406041Y351631D01*
X405993Y351979D01*
X405976Y352331D01*
X405993Y352682D01*
X406041Y353031D01*
X406121Y353373D01*
X406232Y353707D01*
X406373Y354030D01*
X406419Y354138D01*
X406445Y354253D01*
X406453Y354371D01*
X406442Y354489D01*
X406413Y354603D01*
X406366Y354712D01*
X406303Y354812D01*
X406225Y354900D01*
X406135Y354976D01*
X406033Y355036D01*
X405924Y355080D01*
X405809Y355106D01*
X405691Y355114D01*
X405573Y355103D01*
X405464Y355075D01*
Y362994D01*
G37*
G36*
Y376773D02*X405483Y376742D01*
X406028Y376103D01*
X406667Y375557D01*
X407384Y375118D01*
X408160Y374797D01*
X408977Y374601D01*
X409807Y374535D01*
Y371465D01*
X408977Y371399D01*
X408160Y371203D01*
X407384Y370882D01*
X406667Y370443D01*
X406028Y369897D01*
X405483Y369258D01*
X405464Y369227D01*
Y376773D01*
G37*
G36*
Y390553D02*X405483Y390522D01*
X406028Y389883D01*
X406667Y389337D01*
X407384Y388898D01*
X408160Y388576D01*
X408977Y388380D01*
X409807Y388315D01*
Y385244D01*
X408977Y385179D01*
X408160Y384983D01*
X407384Y384661D01*
X406667Y384222D01*
X406028Y383676D01*
X405483Y383037D01*
X405464Y383006D01*
Y390553D01*
G37*
G36*
Y464000D02*X409807D01*
Y457824D01*
X409679Y457771D01*
X408963Y457332D01*
X408324Y456787D01*
X407778Y456148D01*
X407339Y455431D01*
X407017Y454655D01*
X406821Y453838D01*
X406755Y453000D01*
X406821Y452162D01*
X407017Y451345D01*
X407339Y450569D01*
X407778Y449852D01*
X408324Y449213D01*
X408963Y448668D01*
X409679Y448229D01*
X409807Y448176D01*
Y438139D01*
X409679Y438086D01*
X408963Y437647D01*
X408324Y437102D01*
X407778Y436463D01*
X407339Y435746D01*
X407017Y434970D01*
X406821Y434153D01*
X406755Y433315D01*
X406821Y432477D01*
X407017Y431660D01*
X407339Y430884D01*
X407778Y430167D01*
X408324Y429528D01*
X408963Y428983D01*
X409679Y428544D01*
X409807Y428491D01*
Y399024D01*
X408977Y398958D01*
X408160Y398762D01*
X407384Y398441D01*
X406667Y398002D01*
X406028Y397456D01*
X405483Y396817D01*
X405464Y396786D01*
Y464000D01*
G37*
G36*
X398322D02*X405464D01*
Y396786D01*
X405044Y396100D01*
X404722Y395324D01*
X404526Y394507D01*
X404460Y393669D01*
X404526Y392832D01*
X404722Y392014D01*
X405044Y391238D01*
X405464Y390553D01*
Y383006D01*
X405044Y382321D01*
X404722Y381545D01*
X404526Y380727D01*
X404460Y379890D01*
X404526Y379052D01*
X404722Y378235D01*
X405044Y377459D01*
X405464Y376773D01*
Y369227D01*
X405044Y368541D01*
X404722Y367765D01*
X404526Y366948D01*
X404460Y366110D01*
X404526Y365273D01*
X404722Y364455D01*
X405044Y363679D01*
X405464Y362994D01*
Y355075D01*
X405459Y355074D01*
X405350Y355028D01*
X405250Y354965D01*
X405162Y354887D01*
X405086Y354796D01*
X405028Y354694D01*
X404826Y354247D01*
X404672Y353782D01*
X404560Y353305D01*
X404493Y352820D01*
X404471Y352331D01*
X404493Y351841D01*
X404560Y351356D01*
X404672Y350879D01*
X404826Y350414D01*
X405023Y349965D01*
X405083Y349863D01*
X405159Y349772D01*
X405248Y349694D01*
X405348Y349630D01*
X405457Y349583D01*
X405464Y349582D01*
Y344000D01*
X398322D01*
Y427961D01*
X398331Y427960D01*
X399168Y428026D01*
X399986Y428222D01*
X400762Y428544D01*
X401478Y428983D01*
X402117Y429528D01*
X402663Y430167D01*
X403102Y430884D01*
X403424Y431660D01*
X403620Y432477D01*
X403669Y433315D01*
X403620Y434153D01*
X403424Y434970D01*
X403102Y435746D01*
X402663Y436463D01*
X402117Y437102D01*
X401478Y437647D01*
X400762Y438086D01*
X399986Y438408D01*
X399168Y438604D01*
X398331Y438670D01*
X398322Y438669D01*
Y447646D01*
X398331Y447645D01*
X399168Y447711D01*
X399986Y447907D01*
X400762Y448229D01*
X401478Y448668D01*
X402117Y449213D01*
X402663Y449852D01*
X403102Y450569D01*
X403424Y451345D01*
X403620Y452162D01*
X403669Y453000D01*
X403620Y453838D01*
X403424Y454655D01*
X403102Y455431D01*
X402663Y456148D01*
X402117Y456787D01*
X401478Y457332D01*
X400762Y457771D01*
X399986Y458093D01*
X399168Y458289D01*
X398331Y458355D01*
X398322Y458354D01*
Y464000D01*
G37*
G36*
X370580D02*X398322D01*
Y458354D01*
X397493Y458289D01*
X396676Y458093D01*
X395900Y457771D01*
X395183Y457332D01*
X394544Y456787D01*
X393998Y456148D01*
X393559Y455431D01*
X393238Y454655D01*
X393042Y453838D01*
X392976Y453000D01*
X393042Y452162D01*
X393238Y451345D01*
X393559Y450569D01*
X393998Y449852D01*
X394544Y449213D01*
X395183Y448668D01*
X395900Y448229D01*
X396676Y447907D01*
X397493Y447711D01*
X398322Y447646D01*
Y438669D01*
X397493Y438604D01*
X396676Y438408D01*
X395900Y438086D01*
X395183Y437647D01*
X394544Y437102D01*
X393998Y436463D01*
X393559Y435746D01*
X393238Y434970D01*
X393042Y434153D01*
X392976Y433315D01*
X393042Y432477D01*
X393238Y431660D01*
X393559Y430884D01*
X393998Y430167D01*
X394544Y429528D01*
X395183Y428983D01*
X395900Y428544D01*
X396676Y428222D01*
X397493Y428026D01*
X398322Y427961D01*
Y344000D01*
X389718D01*
X389741Y344093D01*
X389750Y344250D01*
X389741Y370907D01*
X389704Y371060D01*
X389644Y371205D01*
X389562Y371340D01*
X389459Y371459D01*
X389340Y371562D01*
X389205Y371644D01*
X389060Y371704D01*
X388907Y371741D01*
X388750Y371750D01*
X376093Y371741D01*
X375940Y371704D01*
X375795Y371644D01*
X375660Y371562D01*
X375541Y371459D01*
X375438Y371340D01*
X375356Y371205D01*
X375296Y371060D01*
X375259Y370907D01*
X375250Y370750D01*
X375259Y344093D01*
X375282Y344000D01*
X370580D01*
Y345303D01*
X370653Y345348D01*
X371192Y345808D01*
X371652Y346347D01*
X372022Y346951D01*
X372293Y347605D01*
X372458Y348294D01*
X372500Y349000D01*
X372458Y349706D01*
X372293Y350395D01*
X372022Y351049D01*
X371652Y351653D01*
X371192Y352192D01*
X370653Y352652D01*
X370580Y352697D01*
Y405303D01*
X370653Y405348D01*
X371192Y405808D01*
X371652Y406347D01*
X372022Y406951D01*
X372293Y407605D01*
X372458Y408294D01*
X372500Y409000D01*
X372458Y409706D01*
X372293Y410395D01*
X372022Y411049D01*
X371652Y411653D01*
X371192Y412192D01*
X370653Y412652D01*
X370580Y412697D01*
Y430570D01*
X370585Y430572D01*
X370693Y430618D01*
X370793Y430681D01*
X370882Y430759D01*
X370957Y430850D01*
X371016Y430952D01*
X371217Y431398D01*
X371372Y431863D01*
X371483Y432340D01*
X371550Y432826D01*
X371573Y433315D01*
X371550Y433804D01*
X371483Y434290D01*
X371372Y434767D01*
X371217Y435232D01*
X371021Y435680D01*
X370961Y435783D01*
X370885Y435874D01*
X370795Y435952D01*
X370695Y436015D01*
X370586Y436062D01*
X370580Y436064D01*
Y450255D01*
X370585Y450257D01*
X370693Y450303D01*
X370793Y450366D01*
X370882Y450444D01*
X370957Y450535D01*
X371016Y450637D01*
X371217Y451083D01*
X371372Y451548D01*
X371483Y452025D01*
X371550Y452511D01*
X371573Y453000D01*
X371550Y453489D01*
X371483Y453975D01*
X371372Y454452D01*
X371217Y454917D01*
X371021Y455365D01*
X370961Y455468D01*
X370885Y455559D01*
X370795Y455637D01*
X370695Y455700D01*
X370586Y455747D01*
X370580Y455749D01*
Y464000D01*
G37*
G36*
Y352697D02*X370049Y353022D01*
X369395Y353293D01*
X368706Y353458D01*
X368000Y353514D01*
X367993Y353513D01*
Y404487D01*
X368000Y404486D01*
X368706Y404542D01*
X369395Y404707D01*
X370049Y404978D01*
X370580Y405303D01*
Y352697D01*
G37*
G36*
Y344000D02*X367993D01*
Y344487D01*
X368000Y344486D01*
X368706Y344542D01*
X369395Y344707D01*
X370049Y344978D01*
X370580Y345303D01*
Y344000D01*
G37*
G36*
X367993Y464000D02*X370580D01*
Y455749D01*
X370471Y455776D01*
X370353Y455787D01*
X370234Y455779D01*
X370118Y455753D01*
X370008Y455709D01*
X369906Y455648D01*
X369815Y455573D01*
X369737Y455483D01*
X369674Y455383D01*
X369627Y455274D01*
X369598Y455159D01*
X369587Y455041D01*
X369595Y454922D01*
X369621Y454806D01*
X369667Y454697D01*
X369812Y454377D01*
X369923Y454043D01*
X370003Y453700D01*
X370051Y453352D01*
X370067Y453000D01*
X370051Y452648D01*
X370003Y452300D01*
X369923Y451957D01*
X369812Y451623D01*
X369670Y451301D01*
X369625Y451192D01*
X369599Y451077D01*
X369591Y450959D01*
X369602Y450842D01*
X369631Y450728D01*
X369677Y450619D01*
X369740Y450519D01*
X369818Y450430D01*
X369909Y450355D01*
X370010Y450294D01*
X370120Y450251D01*
X370235Y450225D01*
X370353Y450217D01*
X370470Y450228D01*
X370580Y450255D01*
Y436064D01*
X370471Y436091D01*
X370353Y436102D01*
X370234Y436094D01*
X370118Y436068D01*
X370008Y436024D01*
X369906Y435963D01*
X369815Y435887D01*
X369737Y435798D01*
X369674Y435698D01*
X369627Y435589D01*
X369598Y435474D01*
X369587Y435356D01*
X369595Y435237D01*
X369621Y435121D01*
X369667Y435012D01*
X369812Y434692D01*
X369923Y434358D01*
X370003Y434015D01*
X370051Y433666D01*
X370067Y433315D01*
X370051Y432963D01*
X370003Y432615D01*
X369923Y432272D01*
X369812Y431938D01*
X369670Y431616D01*
X369625Y431507D01*
X369599Y431392D01*
X369591Y431274D01*
X369602Y431157D01*
X369631Y431042D01*
X369677Y430934D01*
X369740Y430834D01*
X369818Y430745D01*
X369909Y430670D01*
X370010Y430609D01*
X370120Y430566D01*
X370235Y430540D01*
X370353Y430532D01*
X370470Y430543D01*
X370580Y430570D01*
Y412697D01*
X370049Y413022D01*
X369395Y413293D01*
X368706Y413458D01*
X368000Y413514D01*
X367993Y413513D01*
Y428276D01*
X368145Y428326D01*
X368594Y428523D01*
X368696Y428583D01*
X368787Y428659D01*
X368865Y428748D01*
X368929Y428848D01*
X368976Y428957D01*
X369005Y429072D01*
X369016Y429191D01*
X369008Y429309D01*
X368982Y429425D01*
X368938Y429535D01*
X368877Y429637D01*
X368801Y429728D01*
X368712Y429806D01*
X368611Y429870D01*
X368502Y429917D01*
X368387Y429946D01*
X368269Y429957D01*
X368150Y429949D01*
X368035Y429923D01*
X367993Y429905D01*
Y436729D01*
X368036Y436711D01*
X368151Y436685D01*
X368269Y436677D01*
X368386Y436688D01*
X368501Y436717D01*
X368609Y436764D01*
X368709Y436827D01*
X368798Y436904D01*
X368873Y436995D01*
X368934Y437097D01*
X368978Y437206D01*
X369004Y437321D01*
X369012Y437439D01*
X369001Y437557D01*
X368972Y437671D01*
X368925Y437780D01*
X368862Y437880D01*
X368784Y437968D01*
X368694Y438044D01*
X368591Y438102D01*
X368145Y438304D01*
X367993Y438354D01*
Y447961D01*
X368145Y448011D01*
X368594Y448208D01*
X368696Y448268D01*
X368787Y448344D01*
X368865Y448433D01*
X368929Y448533D01*
X368976Y448642D01*
X369005Y448758D01*
X369016Y448876D01*
X369008Y448994D01*
X368982Y449110D01*
X368938Y449220D01*
X368877Y449322D01*
X368801Y449413D01*
X368712Y449492D01*
X368611Y449555D01*
X368502Y449602D01*
X368387Y449631D01*
X368269Y449642D01*
X368150Y449634D01*
X368035Y449608D01*
X367993Y449590D01*
Y456414D01*
X368036Y456396D01*
X368151Y456370D01*
X368269Y456362D01*
X368386Y456373D01*
X368501Y456402D01*
X368609Y456449D01*
X368709Y456512D01*
X368798Y456590D01*
X368873Y456680D01*
X368934Y456782D01*
X368978Y456891D01*
X369004Y457006D01*
X369012Y457124D01*
X369001Y457242D01*
X368972Y457356D01*
X368925Y457465D01*
X368862Y457565D01*
X368784Y457653D01*
X368694Y457729D01*
X368591Y457787D01*
X368145Y457989D01*
X367993Y458039D01*
Y464000D01*
G37*
G36*
X361877D02*X367993D01*
Y458039D01*
X367680Y458143D01*
X367203Y458255D01*
X366718Y458322D01*
X366228Y458344D01*
X365739Y458322D01*
X365254Y458255D01*
X364777Y458143D01*
X364312Y457989D01*
X363863Y457792D01*
X363761Y457732D01*
X363669Y457656D01*
X363591Y457567D01*
X363528Y457467D01*
X363481Y457358D01*
X363452Y457242D01*
X363441Y457124D01*
X363449Y457006D01*
X363475Y456890D01*
X363519Y456780D01*
X363580Y456678D01*
X363656Y456587D01*
X363745Y456508D01*
X363845Y456445D01*
X363955Y456398D01*
X364070Y456369D01*
X364188Y456358D01*
X364306Y456366D01*
X364422Y456392D01*
X364531Y456439D01*
X364852Y456583D01*
X365186Y456694D01*
X365528Y456774D01*
X365877Y456822D01*
X366228Y456839D01*
X366580Y456822D01*
X366928Y456774D01*
X367271Y456694D01*
X367605Y456583D01*
X367927Y456442D01*
X367993Y456414D01*
Y449590D01*
X367926Y449561D01*
X367605Y449417D01*
X367271Y449306D01*
X366928Y449226D01*
X366580Y449178D01*
X366228Y449161D01*
X365877Y449178D01*
X365528Y449226D01*
X365186Y449306D01*
X364852Y449417D01*
X364529Y449558D01*
X364421Y449604D01*
X364306Y449630D01*
X364188Y449638D01*
X364070Y449627D01*
X363956Y449598D01*
X363847Y449551D01*
X363748Y449488D01*
X363659Y449410D01*
X363583Y449320D01*
X363523Y449218D01*
X363479Y449109D01*
X363453Y448994D01*
X363445Y448876D01*
X363456Y448758D01*
X363485Y448644D01*
X363532Y448535D01*
X363594Y448435D01*
X363672Y448347D01*
X363763Y448271D01*
X363865Y448213D01*
X364312Y448011D01*
X364777Y447857D01*
X365254Y447745D01*
X365739Y447678D01*
X366228Y447656D01*
X366718Y447678D01*
X367203Y447745D01*
X367680Y447857D01*
X367993Y447961D01*
Y438354D01*
X367680Y438458D01*
X367203Y438570D01*
X366718Y438637D01*
X366228Y438659D01*
X365739Y438637D01*
X365254Y438570D01*
X364777Y438458D01*
X364312Y438304D01*
X363863Y438107D01*
X363761Y438047D01*
X363669Y437971D01*
X363591Y437882D01*
X363528Y437782D01*
X363481Y437673D01*
X363452Y437557D01*
X363441Y437439D01*
X363449Y437321D01*
X363475Y437205D01*
X363519Y437095D01*
X363580Y436993D01*
X363656Y436902D01*
X363745Y436823D01*
X363845Y436760D01*
X363955Y436713D01*
X364070Y436684D01*
X364188Y436673D01*
X364306Y436681D01*
X364422Y436707D01*
X364531Y436753D01*
X364852Y436898D01*
X365186Y437009D01*
X365528Y437089D01*
X365877Y437137D01*
X366228Y437154D01*
X366580Y437137D01*
X366928Y437089D01*
X367271Y437009D01*
X367605Y436898D01*
X367927Y436757D01*
X367993Y436729D01*
Y429905D01*
X367926Y429876D01*
X367605Y429732D01*
X367271Y429621D01*
X366928Y429541D01*
X366580Y429493D01*
X366228Y429476D01*
X365877Y429493D01*
X365528Y429541D01*
X365186Y429621D01*
X364852Y429732D01*
X364529Y429873D01*
X364421Y429919D01*
X364306Y429945D01*
X364188Y429953D01*
X364070Y429942D01*
X363956Y429913D01*
X363847Y429866D01*
X363748Y429803D01*
X363659Y429725D01*
X363583Y429635D01*
X363523Y429533D01*
X363479Y429424D01*
X363453Y429309D01*
X363445Y429191D01*
X363456Y429073D01*
X363485Y428959D01*
X363532Y428850D01*
X363594Y428750D01*
X363672Y428662D01*
X363763Y428586D01*
X363865Y428528D01*
X364312Y428326D01*
X364777Y428172D01*
X365254Y428060D01*
X365739Y427993D01*
X366228Y427971D01*
X366718Y427993D01*
X367203Y428060D01*
X367680Y428172D01*
X367993Y428276D01*
Y413513D01*
X367294Y413458D01*
X366605Y413293D01*
X365951Y413022D01*
X365347Y412652D01*
X364808Y412192D01*
X364348Y411653D01*
X363978Y411049D01*
X363707Y410395D01*
X363542Y409706D01*
X363486Y409000D01*
X363542Y408294D01*
X363707Y407605D01*
X363978Y406951D01*
X364348Y406347D01*
X364808Y405808D01*
X365347Y405348D01*
X365951Y404978D01*
X366605Y404707D01*
X367294Y404542D01*
X367993Y404487D01*
Y353513D01*
X367294Y353458D01*
X366605Y353293D01*
X365951Y353022D01*
X365347Y352652D01*
X364808Y352192D01*
X364348Y351653D01*
X363978Y351049D01*
X363707Y350395D01*
X363542Y349706D01*
X363486Y349000D01*
X363542Y348294D01*
X363707Y347605D01*
X363978Y346951D01*
X364348Y346347D01*
X364808Y345808D01*
X365347Y345348D01*
X365951Y344978D01*
X366605Y344707D01*
X367294Y344542D01*
X367993Y344487D01*
Y344000D01*
X361877D01*
Y346714D01*
X362022Y346951D01*
X362293Y347605D01*
X362458Y348294D01*
X362500Y349000D01*
X362458Y349706D01*
X362293Y350395D01*
X362022Y351049D01*
X361877Y351286D01*
Y370025D01*
X362012Y370058D01*
X362194Y370133D01*
X362362Y370236D01*
X362512Y370363D01*
X362639Y370513D01*
X362742Y370681D01*
X362817Y370863D01*
X362863Y371054D01*
X362875Y371250D01*
X362863Y383946D01*
X362817Y384137D01*
X362742Y384319D01*
X362639Y384487D01*
X362512Y384637D01*
X362362Y384764D01*
X362194Y384867D01*
X362012Y384942D01*
X361877Y384975D01*
Y387025D01*
X362012Y387058D01*
X362194Y387133D01*
X362362Y387236D01*
X362512Y387363D01*
X362639Y387513D01*
X362742Y387681D01*
X362817Y387863D01*
X362863Y388054D01*
X362875Y388250D01*
X362864Y400026D01*
X363883Y401045D01*
X363899Y401058D01*
X364184Y401176D01*
X364533Y401390D01*
X364844Y401656D01*
X365110Y401967D01*
X365324Y402316D01*
X365480Y402694D01*
X365576Y403092D01*
X365600Y403500D01*
X365576Y403908D01*
X365480Y404306D01*
X365324Y404684D01*
X365110Y405033D01*
X364844Y405344D01*
X364533Y405610D01*
X364184Y405824D01*
X363806Y405980D01*
X363408Y406076D01*
X363000Y406108D01*
X362592Y406076D01*
X362194Y405980D01*
X361877Y405849D01*
Y406714D01*
X362022Y406951D01*
X362293Y407605D01*
X362458Y408294D01*
X362500Y409000D01*
X362458Y409706D01*
X362293Y410395D01*
X362022Y411049D01*
X361877Y411286D01*
Y430566D01*
X361986Y430539D01*
X362104Y430528D01*
X362222Y430536D01*
X362338Y430562D01*
X362448Y430606D01*
X362550Y430667D01*
X362642Y430742D01*
X362720Y430832D01*
X362783Y430932D01*
X362830Y431041D01*
X362859Y431156D01*
X362870Y431274D01*
X362862Y431393D01*
X362836Y431509D01*
X362790Y431618D01*
X362645Y431938D01*
X362534Y432272D01*
X362454Y432615D01*
X362406Y432963D01*
X362390Y433315D01*
X362406Y433666D01*
X362454Y434015D01*
X362534Y434358D01*
X362645Y434692D01*
X362786Y435014D01*
X362832Y435123D01*
X362858Y435238D01*
X362866Y435355D01*
X362855Y435473D01*
X362826Y435587D01*
X362780Y435696D01*
X362717Y435796D01*
X362639Y435885D01*
X362548Y435960D01*
X362447Y436020D01*
X362337Y436064D01*
X362222Y436090D01*
X362104Y436098D01*
X361987Y436087D01*
X361877Y436060D01*
Y450251D01*
X361986Y450224D01*
X362104Y450213D01*
X362222Y450221D01*
X362338Y450247D01*
X362448Y450291D01*
X362550Y450352D01*
X362642Y450427D01*
X362720Y450517D01*
X362783Y450617D01*
X362830Y450726D01*
X362859Y450841D01*
X362870Y450959D01*
X362862Y451078D01*
X362836Y451194D01*
X362790Y451303D01*
X362645Y451623D01*
X362534Y451957D01*
X362454Y452300D01*
X362406Y452648D01*
X362390Y453000D01*
X362406Y453352D01*
X362454Y453700D01*
X362534Y454043D01*
X362645Y454377D01*
X362786Y454699D01*
X362832Y454808D01*
X362858Y454923D01*
X362866Y455041D01*
X362855Y455158D01*
X362826Y455272D01*
X362780Y455381D01*
X362717Y455481D01*
X362639Y455570D01*
X362548Y455645D01*
X362447Y455706D01*
X362337Y455749D01*
X362222Y455775D01*
X362104Y455783D01*
X361987Y455772D01*
X361877Y455745D01*
Y464000D01*
G37*
G36*
Y405849D02*X361816Y405824D01*
X361467Y405610D01*
X361156Y405344D01*
X360890Y405033D01*
X360676Y404684D01*
X360520Y404306D01*
X360424Y403908D01*
X360392Y403500D01*
X360424Y403092D01*
X360520Y402694D01*
X360676Y402316D01*
X360870Y401999D01*
X357993Y401997D01*
Y404487D01*
X358000Y404486D01*
X358706Y404542D01*
X359395Y404707D01*
X360049Y404978D01*
X360653Y405348D01*
X361192Y405808D01*
X361652Y406347D01*
X361877Y406714D01*
Y405849D01*
G37*
G36*
Y384975D02*X361821Y384988D01*
X361625Y385000D01*
X357993Y384997D01*
Y387008D01*
X361821Y387012D01*
X361877Y387025D01*
Y384975D01*
G37*
G36*
Y351286D02*X361652Y351653D01*
X361192Y352192D01*
X360653Y352652D01*
X360049Y353022D01*
X359395Y353293D01*
X358706Y353458D01*
X358000Y353514D01*
X357993Y353513D01*
Y370008D01*
X361821Y370012D01*
X361877Y370025D01*
Y351286D01*
G37*
G36*
Y344000D02*X357993D01*
Y344487D01*
X358000Y344486D01*
X358706Y344542D01*
X359395Y344707D01*
X360049Y344978D01*
X360653Y345348D01*
X361192Y345808D01*
X361652Y346347D01*
X361877Y346714D01*
Y344000D01*
G37*
G36*
X357993Y464000D02*X361877D01*
Y455745D01*
X361872Y455743D01*
X361764Y455697D01*
X361664Y455634D01*
X361575Y455556D01*
X361499Y455465D01*
X361441Y455363D01*
X361240Y454917D01*
X361085Y454452D01*
X360974Y453975D01*
X360907Y453489D01*
X360884Y453000D01*
X360907Y452511D01*
X360974Y452025D01*
X361085Y451548D01*
X361240Y451083D01*
X361436Y450635D01*
X361496Y450532D01*
X361572Y450441D01*
X361661Y450363D01*
X361762Y450300D01*
X361871Y450253D01*
X361877Y450251D01*
Y436060D01*
X361872Y436058D01*
X361764Y436012D01*
X361664Y435949D01*
X361575Y435871D01*
X361499Y435780D01*
X361441Y435678D01*
X361240Y435232D01*
X361085Y434767D01*
X360974Y434290D01*
X360907Y433804D01*
X360884Y433315D01*
X360907Y432826D01*
X360974Y432340D01*
X361085Y431863D01*
X361240Y431398D01*
X361436Y430950D01*
X361496Y430847D01*
X361572Y430756D01*
X361661Y430678D01*
X361762Y430615D01*
X361871Y430568D01*
X361877Y430566D01*
Y411286D01*
X361652Y411653D01*
X361192Y412192D01*
X360653Y412652D01*
X360049Y413022D01*
X359395Y413293D01*
X358706Y413458D01*
X358000Y413514D01*
X357993Y413513D01*
Y464000D01*
G37*
G36*
Y384997D02*X356675Y384995D01*
Y387007D01*
X357993Y387008D01*
Y384997D01*
G37*
G36*
X347993Y370716D02*X348008Y370681D01*
X348111Y370513D01*
X348238Y370363D01*
X348388Y370236D01*
X348556Y370133D01*
X348738Y370058D01*
X348929Y370012D01*
X349125Y370000D01*
X357993Y370008D01*
Y353513D01*
X357294Y353458D01*
X356605Y353293D01*
X355951Y353022D01*
X355347Y352652D01*
X354808Y352192D01*
X354348Y351653D01*
X353978Y351049D01*
X353707Y350395D01*
X353542Y349706D01*
X353486Y349000D01*
X353542Y348294D01*
X353707Y347605D01*
X353978Y346951D01*
X354348Y346347D01*
X354808Y345808D01*
X355347Y345348D01*
X355951Y344978D01*
X356605Y344707D01*
X357294Y344542D01*
X357993Y344487D01*
Y344000D01*
X347993D01*
Y344487D01*
X348000Y344486D01*
X348706Y344542D01*
X349395Y344707D01*
X350049Y344978D01*
X350653Y345348D01*
X351192Y345808D01*
X351652Y346347D01*
X352022Y346951D01*
X352293Y347605D01*
X352458Y348294D01*
X352500Y349000D01*
X352458Y349706D01*
X352293Y350395D01*
X352022Y351049D01*
X351652Y351653D01*
X351192Y352192D01*
X350653Y352652D01*
X350049Y353022D01*
X349395Y353293D01*
X348706Y353458D01*
X348000Y353514D01*
X347993Y353513D01*
Y370716D01*
G37*
G36*
Y387716D02*X348008Y387681D01*
X348111Y387513D01*
X348238Y387363D01*
X348388Y387236D01*
X348556Y387133D01*
X348738Y387058D01*
X348929Y387012D01*
X349125Y387000D01*
X354075Y387005D01*
Y384993D01*
X348929Y384988D01*
X348738Y384942D01*
X348556Y384867D01*
X348388Y384764D01*
X348238Y384637D01*
X348111Y384487D01*
X348008Y384319D01*
X347993Y384284D01*
Y387716D01*
G37*
G36*
Y464000D02*X357993D01*
Y413513D01*
X357294Y413458D01*
X356605Y413293D01*
X355951Y413022D01*
X355347Y412652D01*
X354808Y412192D01*
X354348Y411653D01*
X353978Y411049D01*
X353707Y410395D01*
X353542Y409706D01*
X353486Y409000D01*
X353542Y408294D01*
X353707Y407605D01*
X353978Y406951D01*
X354348Y406347D01*
X354808Y405808D01*
X355347Y405348D01*
X355951Y404978D01*
X356605Y404707D01*
X357294Y404542D01*
X357993Y404487D01*
Y401997D01*
X348929Y401988D01*
X348738Y401942D01*
X348556Y401867D01*
X348388Y401764D01*
X348238Y401637D01*
X348111Y401487D01*
X348008Y401319D01*
X347993Y401284D01*
Y404487D01*
X348000Y404486D01*
X348706Y404542D01*
X349395Y404707D01*
X350049Y404978D01*
X350653Y405348D01*
X351192Y405808D01*
X351652Y406347D01*
X352022Y406951D01*
X352293Y407605D01*
X352458Y408294D01*
X352500Y409000D01*
X352458Y409706D01*
X352293Y410395D01*
X352022Y411049D01*
X351652Y411653D01*
X351192Y412192D01*
X350653Y412652D01*
X350049Y413022D01*
X349395Y413293D01*
X348706Y413458D01*
X348000Y413514D01*
X347993Y413513D01*
Y430369D01*
X348116Y430167D01*
X348662Y429528D01*
X349301Y428983D01*
X350018Y428544D01*
X350794Y428222D01*
X351611Y428026D01*
X352449Y427960D01*
X353287Y428026D01*
X354104Y428222D01*
X354880Y428544D01*
X355596Y428983D01*
X356235Y429528D01*
X356781Y430167D01*
X357220Y430884D01*
X357542Y431660D01*
X357738Y432477D01*
X357787Y433315D01*
X357738Y434153D01*
X357542Y434970D01*
X357220Y435746D01*
X356781Y436463D01*
X356235Y437102D01*
X355596Y437647D01*
X354880Y438086D01*
X354104Y438408D01*
X353287Y438604D01*
X352449Y438670D01*
X351611Y438604D01*
X350794Y438408D01*
X350018Y438086D01*
X349301Y437647D01*
X348662Y437102D01*
X348116Y436463D01*
X347993Y436261D01*
Y450054D01*
X348116Y449852D01*
X348662Y449213D01*
X349301Y448668D01*
X350018Y448229D01*
X350794Y447907D01*
X351611Y447711D01*
X352449Y447645D01*
X353287Y447711D01*
X354104Y447907D01*
X354880Y448229D01*
X355596Y448668D01*
X356235Y449213D01*
X356781Y449852D01*
X357220Y450569D01*
X357542Y451345D01*
X357738Y452162D01*
X357787Y453000D01*
X357738Y453838D01*
X357542Y454655D01*
X357220Y455431D01*
X356781Y456148D01*
X356235Y456787D01*
X355596Y457332D01*
X354880Y457771D01*
X354104Y458093D01*
X353287Y458289D01*
X352449Y458355D01*
X351611Y458289D01*
X350794Y458093D01*
X350018Y457771D01*
X349301Y457332D01*
X348662Y456787D01*
X348116Y456148D01*
X347993Y455946D01*
Y464000D01*
G37*
G36*
X337993Y387007D02*X343071Y387012D01*
X343262Y387058D01*
X343444Y387133D01*
X343612Y387236D01*
X343762Y387363D01*
X343889Y387513D01*
X343992Y387681D01*
X344067Y387863D01*
X344113Y388054D01*
X344125Y388250D01*
X344120Y393200D01*
X347882D01*
X347887Y388054D01*
X347933Y387863D01*
X347993Y387716D01*
Y384284D01*
X347933Y384137D01*
X347887Y383946D01*
X347875Y383750D01*
X347887Y371054D01*
X347933Y370863D01*
X347993Y370716D01*
Y353513D01*
X347294Y353458D01*
X346605Y353293D01*
X345951Y353022D01*
X345347Y352652D01*
X344808Y352192D01*
X344348Y351653D01*
X343978Y351049D01*
X343707Y350395D01*
X343542Y349706D01*
X343486Y349000D01*
X343542Y348294D01*
X343707Y347605D01*
X343978Y346951D01*
X344348Y346347D01*
X344808Y345808D01*
X345347Y345348D01*
X345951Y344978D01*
X346605Y344707D01*
X347294Y344542D01*
X347993Y344487D01*
Y344000D01*
X337993D01*
Y344487D01*
X338000Y344486D01*
X338706Y344542D01*
X339395Y344707D01*
X340049Y344978D01*
X340653Y345348D01*
X341192Y345808D01*
X341652Y346347D01*
X342022Y346951D01*
X342293Y347605D01*
X342458Y348294D01*
X342500Y349000D01*
X342458Y349706D01*
X342293Y350395D01*
X342022Y351049D01*
X341652Y351653D01*
X341192Y352192D01*
X340653Y352652D01*
X340049Y353022D01*
X339395Y353293D01*
X338706Y353458D01*
X338000Y353514D01*
X337993Y353513D01*
Y370007D01*
X343071Y370012D01*
X343262Y370058D01*
X343444Y370133D01*
X343612Y370236D01*
X343762Y370363D01*
X343889Y370513D01*
X343992Y370681D01*
X344067Y370863D01*
X344113Y371054D01*
X344125Y371250D01*
X344113Y383946D01*
X344067Y384137D01*
X343992Y384319D01*
X343889Y384487D01*
X343762Y384637D01*
X343612Y384764D01*
X343444Y384867D01*
X343262Y384942D01*
X343071Y384988D01*
X342875Y385000D01*
X337993Y384996D01*
Y387007D01*
G37*
G36*
Y464000D02*X347993D01*
Y455946D01*
X347677Y455431D01*
X347356Y454655D01*
X347160Y453838D01*
X347094Y453000D01*
X347160Y452162D01*
X347356Y451345D01*
X347677Y450569D01*
X347993Y450054D01*
Y436261D01*
X347677Y435746D01*
X347356Y434970D01*
X347160Y434153D01*
X347094Y433315D01*
X347160Y432477D01*
X347356Y431660D01*
X347677Y430884D01*
X347993Y430369D01*
Y413513D01*
X347294Y413458D01*
X346605Y413293D01*
X345951Y413022D01*
X345347Y412652D01*
X344808Y412192D01*
X344348Y411653D01*
X343978Y411049D01*
X343707Y410395D01*
X343542Y409706D01*
X343486Y409000D01*
X343542Y408294D01*
X343707Y407605D01*
X343978Y406951D01*
X344348Y406347D01*
X344808Y405808D01*
X345347Y405348D01*
X345951Y404978D01*
X346605Y404707D01*
X347294Y404542D01*
X347993Y404487D01*
Y401284D01*
X347933Y401137D01*
X347887Y400946D01*
X347875Y400750D01*
X347880Y395800D01*
X344118D01*
X344113Y400946D01*
X344067Y401137D01*
X343992Y401319D01*
X343889Y401487D01*
X343762Y401637D01*
X343612Y401764D01*
X343444Y401867D01*
X343262Y401942D01*
X343071Y401988D01*
X342875Y402000D01*
X337993Y401996D01*
Y404487D01*
X338000Y404486D01*
X338706Y404542D01*
X339395Y404707D01*
X340049Y404978D01*
X340653Y405348D01*
X341192Y405808D01*
X341652Y406347D01*
X342022Y406951D01*
X342293Y407605D01*
X342458Y408294D01*
X342500Y409000D01*
X342458Y409706D01*
X342293Y410395D01*
X342022Y411049D01*
X341652Y411653D01*
X341192Y412192D01*
X340653Y412652D01*
X340049Y413022D01*
X339395Y413293D01*
X338706Y413458D01*
X338000Y413514D01*
X337993Y413513D01*
Y428013D01*
X338669Y427960D01*
X339507Y428026D01*
X340324Y428222D01*
X341100Y428544D01*
X341817Y428983D01*
X342456Y429528D01*
X343002Y430167D01*
X343441Y430884D01*
X343762Y431660D01*
X343958Y432477D01*
X344008Y433315D01*
X343958Y434153D01*
X343762Y434970D01*
X343441Y435746D01*
X343002Y436463D01*
X342456Y437102D01*
X341817Y437647D01*
X341100Y438086D01*
X340324Y438408D01*
X339507Y438604D01*
X338669Y438670D01*
X337993Y438617D01*
Y447698D01*
X338669Y447645D01*
X339507Y447711D01*
X340324Y447907D01*
X341100Y448229D01*
X341817Y448668D01*
X342456Y449213D01*
X343002Y449852D01*
X343441Y450569D01*
X343762Y451345D01*
X343958Y452162D01*
X344008Y453000D01*
X343958Y453838D01*
X343762Y454655D01*
X343441Y455431D01*
X343002Y456148D01*
X342456Y456787D01*
X341817Y457332D01*
X341100Y457771D01*
X340324Y458093D01*
X339507Y458289D01*
X338669Y458355D01*
X337993Y458302D01*
Y464000D01*
G37*
G36*
X327993Y376200D02*X329132D01*
X329137Y371054D01*
X329183Y370863D01*
X329258Y370681D01*
X329361Y370513D01*
X329488Y370363D01*
X329638Y370236D01*
X329806Y370133D01*
X329988Y370058D01*
X330179Y370012D01*
X330375Y370000D01*
X337993Y370007D01*
Y353513D01*
X337294Y353458D01*
X336605Y353293D01*
X335951Y353022D01*
X335347Y352652D01*
X334808Y352192D01*
X334348Y351653D01*
X333978Y351049D01*
X333707Y350395D01*
X333542Y349706D01*
X333486Y349000D01*
X333542Y348294D01*
X333707Y347605D01*
X333978Y346951D01*
X334348Y346347D01*
X334808Y345808D01*
X335347Y345348D01*
X335951Y344978D01*
X336605Y344707D01*
X337294Y344542D01*
X337993Y344487D01*
Y344000D01*
X327993D01*
Y344487D01*
X328000Y344486D01*
X328706Y344542D01*
X329395Y344707D01*
X330049Y344978D01*
X330653Y345348D01*
X331192Y345808D01*
X331652Y346347D01*
X332022Y346951D01*
X332293Y347605D01*
X332458Y348294D01*
X332500Y349000D01*
X332458Y349706D01*
X332293Y350395D01*
X332022Y351049D01*
X331652Y351653D01*
X331192Y352192D01*
X330653Y352652D01*
X330049Y353022D01*
X329395Y353293D01*
X328706Y353458D01*
X328000Y353514D01*
X327993Y353513D01*
Y376200D01*
G37*
G36*
Y393097D02*X328184Y393176D01*
X328533Y393390D01*
X328844Y393656D01*
X329110Y393967D01*
X329131Y394002D01*
X329137Y388054D01*
X329183Y387863D01*
X329258Y387681D01*
X329361Y387513D01*
X329488Y387363D01*
X329638Y387236D01*
X329806Y387133D01*
X329988Y387058D01*
X330179Y387012D01*
X330375Y387000D01*
X337993Y387007D01*
Y384996D01*
X330179Y384988D01*
X329988Y384942D01*
X329806Y384867D01*
X329638Y384764D01*
X329488Y384637D01*
X329361Y384487D01*
X329258Y384319D01*
X329183Y384137D01*
X329137Y383946D01*
X329125Y383750D01*
X329130Y378800D01*
X327993D01*
Y393097D01*
G37*
G36*
Y464000D02*X337993D01*
Y458302D01*
X337832Y458289D01*
X337014Y458093D01*
X336238Y457771D01*
X335522Y457332D01*
X334883Y456787D01*
X334337Y456148D01*
X333898Y455431D01*
X333576Y454655D01*
X333380Y453838D01*
X333314Y453000D01*
X333380Y452162D01*
X333576Y451345D01*
X333898Y450569D01*
X334337Y449852D01*
X334883Y449213D01*
X335522Y448668D01*
X336238Y448229D01*
X337014Y447907D01*
X337832Y447711D01*
X337993Y447698D01*
Y438617D01*
X337832Y438604D01*
X337014Y438408D01*
X336238Y438086D01*
X335522Y437647D01*
X334883Y437102D01*
X334337Y436463D01*
X333898Y435746D01*
X333576Y434970D01*
X333380Y434153D01*
X333314Y433315D01*
X333380Y432477D01*
X333576Y431660D01*
X333898Y430884D01*
X334337Y430167D01*
X334883Y429528D01*
X335522Y428983D01*
X336238Y428544D01*
X337014Y428222D01*
X337832Y428026D01*
X337993Y428013D01*
Y413513D01*
X337294Y413458D01*
X336605Y413293D01*
X335951Y413022D01*
X335347Y412652D01*
X334808Y412192D01*
X334348Y411653D01*
X333978Y411049D01*
X333707Y410395D01*
X333542Y409706D01*
X333486Y409000D01*
X333542Y408294D01*
X333707Y407605D01*
X333978Y406951D01*
X334348Y406347D01*
X334808Y405808D01*
X335347Y405348D01*
X335951Y404978D01*
X336605Y404707D01*
X337294Y404542D01*
X337993Y404487D01*
Y401996D01*
X330179Y401988D01*
X329988Y401942D01*
X329806Y401867D01*
X329638Y401764D01*
X329488Y401637D01*
X329361Y401487D01*
X329258Y401319D01*
X329183Y401137D01*
X329137Y400946D01*
X329125Y400750D01*
X329128Y397003D01*
X329110Y397033D01*
X328844Y397344D01*
X328533Y397610D01*
X328184Y397824D01*
X327993Y397903D01*
Y404487D01*
X328000Y404486D01*
X328706Y404542D01*
X329395Y404707D01*
X330049Y404978D01*
X330653Y405348D01*
X331192Y405808D01*
X331652Y406347D01*
X332022Y406951D01*
X332293Y407605D01*
X332458Y408294D01*
X332500Y409000D01*
X332458Y409706D01*
X332293Y410395D01*
X332022Y411049D01*
X331652Y411653D01*
X331192Y412192D01*
X330653Y412652D01*
X330049Y413022D01*
X329395Y413293D01*
X328706Y413458D01*
X328000Y413514D01*
X327993Y413513D01*
Y428955D01*
X328037Y428983D01*
X328676Y429528D01*
X329222Y430167D01*
X329661Y430884D01*
X329983Y431660D01*
X330179Y432477D01*
X330228Y433315D01*
X330179Y434153D01*
X329983Y434970D01*
X329661Y435746D01*
X329222Y436463D01*
X328676Y437102D01*
X328037Y437647D01*
X327993Y437674D01*
Y448641D01*
X328037Y448668D01*
X328676Y449213D01*
X329222Y449852D01*
X329661Y450569D01*
X329983Y451345D01*
X330179Y452162D01*
X330228Y453000D01*
X330179Y453838D01*
X329983Y454655D01*
X329661Y455431D01*
X329222Y456148D01*
X328676Y456787D01*
X328037Y457332D01*
X327993Y457359D01*
Y464000D01*
G37*
G36*
X317993D02*X327993D01*
Y457359D01*
X327321Y457771D01*
X326545Y458093D01*
X325727Y458289D01*
X324890Y458355D01*
X324052Y458289D01*
X323235Y458093D01*
X322459Y457771D01*
X321742Y457332D01*
X321103Y456787D01*
X320557Y456148D01*
X320118Y455431D01*
X319797Y454655D01*
X319601Y453838D01*
X319535Y453000D01*
X319601Y452162D01*
X319797Y451345D01*
X320118Y450569D01*
X320557Y449852D01*
X321103Y449213D01*
X321742Y448668D01*
X322459Y448229D01*
X323235Y447907D01*
X324052Y447711D01*
X324890Y447645D01*
X325727Y447711D01*
X326545Y447907D01*
X327321Y448229D01*
X327993Y448641D01*
Y437674D01*
X327321Y438086D01*
X326545Y438408D01*
X325727Y438604D01*
X324890Y438670D01*
X324052Y438604D01*
X323235Y438408D01*
X322459Y438086D01*
X321742Y437647D01*
X321103Y437102D01*
X320557Y436463D01*
X320118Y435746D01*
X319797Y434970D01*
X319601Y434153D01*
X319535Y433315D01*
X319601Y432477D01*
X319797Y431660D01*
X320118Y430884D01*
X320557Y430167D01*
X321103Y429528D01*
X321742Y428983D01*
X322459Y428544D01*
X323235Y428222D01*
X324052Y428026D01*
X324890Y427960D01*
X325727Y428026D01*
X326545Y428222D01*
X327321Y428544D01*
X327993Y428955D01*
Y413513D01*
X327294Y413458D01*
X326605Y413293D01*
X325951Y413022D01*
X325347Y412652D01*
X324808Y412192D01*
X324348Y411653D01*
X323978Y411049D01*
X323707Y410395D01*
X323542Y409706D01*
X323486Y409000D01*
X323542Y408294D01*
X323707Y407605D01*
X323978Y406951D01*
X324348Y406347D01*
X324808Y405808D01*
X325347Y405348D01*
X325951Y404978D01*
X326605Y404707D01*
X327294Y404542D01*
X327993Y404487D01*
Y397903D01*
X327806Y397980D01*
X327408Y398076D01*
X327000Y398108D01*
X326592Y398076D01*
X326194Y397980D01*
X325816Y397824D01*
X325467Y397610D01*
X325156Y397344D01*
X324890Y397033D01*
X324676Y396684D01*
X324520Y396306D01*
X324424Y395908D01*
X324392Y395500D01*
X324424Y395092D01*
X324520Y394694D01*
X324676Y394316D01*
X324890Y393967D01*
X325156Y393656D01*
X325467Y393390D01*
X325816Y393176D01*
X326194Y393020D01*
X326592Y392924D01*
X327000Y392892D01*
X327408Y392924D01*
X327806Y393020D01*
X327993Y393097D01*
Y378800D01*
X326753D01*
X326610Y379033D01*
X326344Y379344D01*
X326033Y379610D01*
X325684Y379824D01*
X325306Y379980D01*
X324908Y380076D01*
X324500Y380108D01*
X324092Y380076D01*
X323694Y379980D01*
X323316Y379824D01*
X322967Y379610D01*
X322656Y379344D01*
X322390Y379033D01*
X322176Y378684D01*
X322020Y378306D01*
X321924Y377908D01*
X321892Y377500D01*
X321924Y377092D01*
X322020Y376694D01*
X322176Y376316D01*
X322390Y375967D01*
X322656Y375656D01*
X322967Y375390D01*
X323316Y375176D01*
X323694Y375020D01*
X324092Y374924D01*
X324500Y374892D01*
X324908Y374924D01*
X325306Y375020D01*
X325684Y375176D01*
X326033Y375390D01*
X326344Y375656D01*
X326610Y375967D01*
X326753Y376200D01*
X327993D01*
Y353513D01*
X327294Y353458D01*
X326605Y353293D01*
X325951Y353022D01*
X325347Y352652D01*
X324808Y352192D01*
X324348Y351653D01*
X323978Y351049D01*
X323707Y350395D01*
X323542Y349706D01*
X323486Y349000D01*
X323542Y348294D01*
X323707Y347605D01*
X323978Y346951D01*
X324348Y346347D01*
X324808Y345808D01*
X325347Y345348D01*
X325951Y344978D01*
X326605Y344707D01*
X327294Y344542D01*
X327993Y344487D01*
Y344000D01*
X317993D01*
Y344487D01*
X318000Y344486D01*
X318706Y344542D01*
X319395Y344707D01*
X320049Y344978D01*
X320653Y345348D01*
X321192Y345808D01*
X321652Y346347D01*
X322022Y346951D01*
X322293Y347605D01*
X322458Y348294D01*
X322500Y349000D01*
X322458Y349706D01*
X322293Y350395D01*
X322022Y351049D01*
X321652Y351653D01*
X321192Y352192D01*
X320653Y352652D01*
X320049Y353022D01*
X319395Y353293D01*
X318706Y353458D01*
X318000Y353514D01*
X317993Y353513D01*
Y404487D01*
X318000Y404486D01*
X318706Y404542D01*
X319395Y404707D01*
X320049Y404978D01*
X320653Y405348D01*
X321192Y405808D01*
X321652Y406347D01*
X322022Y406951D01*
X322293Y407605D01*
X322458Y408294D01*
X322500Y409000D01*
X322458Y409706D01*
X322293Y410395D01*
X322022Y411049D01*
X321652Y411653D01*
X321192Y412192D01*
X320653Y412652D01*
X320049Y413022D01*
X319395Y413293D01*
X318706Y413458D01*
X318000Y413514D01*
X317993Y413513D01*
Y464000D01*
G37*
G36*
X307993D02*X317993D01*
Y413513D01*
X317294Y413458D01*
X316605Y413293D01*
X315951Y413022D01*
X315347Y412652D01*
X314808Y412192D01*
X314348Y411653D01*
X313978Y411049D01*
X313707Y410395D01*
X313542Y409706D01*
X313486Y409000D01*
X313542Y408294D01*
X313707Y407605D01*
X313978Y406951D01*
X314348Y406347D01*
X314808Y405808D01*
X315347Y405348D01*
X315951Y404978D01*
X316605Y404707D01*
X317294Y404542D01*
X317993Y404487D01*
Y353513D01*
X317294Y353458D01*
X316605Y353293D01*
X315951Y353022D01*
X315347Y352652D01*
X314808Y352192D01*
X314348Y351653D01*
X313978Y351049D01*
X313707Y350395D01*
X313542Y349706D01*
X313486Y349000D01*
X313542Y348294D01*
X313707Y347605D01*
X313978Y346951D01*
X314348Y346347D01*
X314808Y345808D01*
X315347Y345348D01*
X315951Y344978D01*
X316605Y344707D01*
X317294Y344542D01*
X317993Y344487D01*
Y344000D01*
X307993D01*
Y344487D01*
X308000Y344486D01*
X308706Y344542D01*
X309395Y344707D01*
X310049Y344978D01*
X310653Y345348D01*
X311192Y345808D01*
X311652Y346347D01*
X312022Y346951D01*
X312293Y347605D01*
X312458Y348294D01*
X312500Y349000D01*
X312458Y349706D01*
X312293Y350395D01*
X312022Y351049D01*
X311652Y351653D01*
X311192Y352192D01*
X310653Y352652D01*
X310049Y353022D01*
X309395Y353293D01*
X308706Y353458D01*
X308000Y353514D01*
X307993Y353513D01*
Y404487D01*
X308000Y404486D01*
X308706Y404542D01*
X309395Y404707D01*
X310049Y404978D01*
X310653Y405348D01*
X311192Y405808D01*
X311652Y406347D01*
X312022Y406951D01*
X312293Y407605D01*
X312458Y408294D01*
X312500Y409000D01*
X312458Y409706D01*
X312293Y410395D01*
X312022Y411049D01*
X311652Y411653D01*
X311192Y412192D01*
X310653Y412652D01*
X310049Y413022D01*
X309395Y413293D01*
X308706Y413458D01*
X308000Y413514D01*
X307993Y413513D01*
Y428964D01*
X308679Y428544D01*
X309455Y428222D01*
X310273Y428026D01*
X311110Y427960D01*
X311948Y428026D01*
X312765Y428222D01*
X313541Y428544D01*
X314258Y428983D01*
X314897Y429528D01*
X315443Y430167D01*
X315882Y430884D01*
X316203Y431660D01*
X316399Y432477D01*
X316449Y433315D01*
X316399Y434153D01*
X316203Y434970D01*
X315882Y435746D01*
X315443Y436463D01*
X314897Y437102D01*
X314258Y437647D01*
X313541Y438086D01*
X312765Y438408D01*
X311948Y438604D01*
X311110Y438670D01*
X310273Y438604D01*
X309455Y438408D01*
X308679Y438086D01*
X307993Y437666D01*
Y448649D01*
X308679Y448229D01*
X309455Y447907D01*
X310273Y447711D01*
X311110Y447645D01*
X311948Y447711D01*
X312765Y447907D01*
X313541Y448229D01*
X314258Y448668D01*
X314897Y449213D01*
X315443Y449852D01*
X315882Y450569D01*
X316203Y451345D01*
X316399Y452162D01*
X316449Y453000D01*
X316399Y453838D01*
X316203Y454655D01*
X315882Y455431D01*
X315443Y456148D01*
X314897Y456787D01*
X314258Y457332D01*
X313541Y457771D01*
X312765Y458093D01*
X311948Y458289D01*
X311110Y458355D01*
X310273Y458289D01*
X309455Y458093D01*
X308679Y457771D01*
X307993Y457351D01*
Y464000D01*
G37*
G36*
X297446D02*X307993D01*
Y457351D01*
X307963Y457332D01*
X307324Y456787D01*
X306778Y456148D01*
X306339Y455431D01*
X306017Y454655D01*
X305821Y453838D01*
X305755Y453000D01*
X305821Y452162D01*
X306017Y451345D01*
X306339Y450569D01*
X306778Y449852D01*
X307324Y449213D01*
X307963Y448668D01*
X307993Y448649D01*
Y437666D01*
X307963Y437647D01*
X307324Y437102D01*
X306778Y436463D01*
X306339Y435746D01*
X306017Y434970D01*
X305821Y434153D01*
X305755Y433315D01*
X305821Y432477D01*
X306017Y431660D01*
X306339Y430884D01*
X306778Y430167D01*
X307324Y429528D01*
X307963Y428983D01*
X307993Y428964D01*
Y413513D01*
X307294Y413458D01*
X306605Y413293D01*
X305951Y413022D01*
X305347Y412652D01*
X304808Y412192D01*
X304348Y411653D01*
X303978Y411049D01*
X303707Y410395D01*
X303542Y409706D01*
X303486Y409000D01*
X303542Y408294D01*
X303707Y407605D01*
X303978Y406951D01*
X304348Y406347D01*
X304808Y405808D01*
X305347Y405348D01*
X305951Y404978D01*
X306605Y404707D01*
X307294Y404542D01*
X307993Y404487D01*
Y353513D01*
X307294Y353458D01*
X306605Y353293D01*
X305951Y353022D01*
X305347Y352652D01*
X304808Y352192D01*
X304348Y351653D01*
X303978Y351049D01*
X303707Y350395D01*
X303542Y349706D01*
X303486Y349000D01*
X303542Y348294D01*
X303707Y347605D01*
X303978Y346951D01*
X304348Y346347D01*
X304808Y345808D01*
X305347Y345348D01*
X305951Y344978D01*
X306605Y344707D01*
X307294Y344542D01*
X307993Y344487D01*
Y344000D01*
X297446D01*
Y344530D01*
X298000Y344486D01*
X298706Y344542D01*
X299395Y344707D01*
X300049Y344978D01*
X300653Y345348D01*
X301192Y345808D01*
X301652Y346347D01*
X302022Y346951D01*
X302293Y347605D01*
X302458Y348294D01*
X302500Y349000D01*
X302458Y349706D01*
X302293Y350395D01*
X302022Y351049D01*
X301652Y351653D01*
X301192Y352192D01*
X300653Y352652D01*
X300049Y353022D01*
X299395Y353293D01*
X298706Y353458D01*
X298000Y353514D01*
X297446Y353470D01*
Y383122D01*
X297694Y383020D01*
X298092Y382924D01*
X298500Y382892D01*
X298908Y382924D01*
X299174Y382988D01*
X300488Y381674D01*
X300424Y381408D01*
X300392Y381000D01*
X300424Y380592D01*
X300520Y380194D01*
X300676Y379816D01*
X300890Y379467D01*
X301156Y379156D01*
X301467Y378890D01*
X301816Y378676D01*
X302194Y378520D01*
X302592Y378424D01*
X303000Y378392D01*
X303408Y378424D01*
X303806Y378520D01*
X304184Y378676D01*
X304533Y378890D01*
X304844Y379156D01*
X305110Y379467D01*
X305324Y379816D01*
X305480Y380194D01*
X305576Y380592D01*
X305600Y381000D01*
X305576Y381408D01*
X305480Y381806D01*
X305324Y382184D01*
X305110Y382533D01*
X304844Y382844D01*
X304533Y383110D01*
X304184Y383324D01*
X303806Y383480D01*
X303408Y383576D01*
X303000Y383608D01*
X302592Y383576D01*
X302326Y383512D01*
X301012Y384826D01*
X301076Y385092D01*
X301100Y385500D01*
X301076Y385908D01*
X300980Y386306D01*
X300824Y386684D01*
X300610Y387033D01*
X300344Y387344D01*
X300033Y387610D01*
X299684Y387824D01*
X299306Y387980D01*
X298908Y388076D01*
X298500Y388108D01*
X298092Y388076D01*
X297694Y387980D01*
X297446Y387878D01*
Y404530D01*
X298000Y404486D01*
X298706Y404542D01*
X299395Y404707D01*
X300049Y404978D01*
X300653Y405348D01*
X301192Y405808D01*
X301652Y406347D01*
X302022Y406951D01*
X302293Y407605D01*
X302458Y408294D01*
X302500Y409000D01*
X302458Y409706D01*
X302293Y410395D01*
X302022Y411049D01*
X301652Y411653D01*
X301192Y412192D01*
X300653Y412652D01*
X300049Y413022D01*
X299395Y413293D01*
X298706Y413458D01*
X298000Y413514D01*
X297446Y413470D01*
Y414111D01*
X297480Y414194D01*
X297576Y414592D01*
X297600Y415000D01*
X297576Y415408D01*
X297480Y415806D01*
X297446Y415889D01*
Y423611D01*
X297480Y423694D01*
X297576Y424092D01*
X297600Y424500D01*
X297576Y424908D01*
X297480Y425306D01*
X297446Y425389D01*
Y427969D01*
X298168Y428026D01*
X298986Y428222D01*
X299762Y428544D01*
X300478Y428983D01*
X301117Y429528D01*
X301663Y430167D01*
X302102Y430884D01*
X302424Y431660D01*
X302620Y432477D01*
X302669Y433315D01*
X302620Y434153D01*
X302424Y434970D01*
X302102Y435746D01*
X301663Y436463D01*
X301117Y437102D01*
X300478Y437647D01*
X299762Y438086D01*
X298986Y438408D01*
X298168Y438604D01*
X297446Y438661D01*
Y447654D01*
X298168Y447711D01*
X298986Y447907D01*
X299762Y448229D01*
X300478Y448668D01*
X301117Y449213D01*
X301663Y449852D01*
X302102Y450569D01*
X302424Y451345D01*
X302620Y452162D01*
X302669Y453000D01*
X302620Y453838D01*
X302424Y454655D01*
X302102Y455431D01*
X301663Y456148D01*
X301117Y456787D01*
X300478Y457332D01*
X299762Y457771D01*
X298986Y458093D01*
X298168Y458289D01*
X297446Y458346D01*
Y464000D01*
G37*
G36*
Y413470D02*X297294Y413458D01*
X297053Y413400D01*
X297110Y413467D01*
X297324Y413816D01*
X297446Y414111D01*
Y413470D01*
G37*
G36*
X296300Y417253D02*Y422247D01*
X296533Y422390D01*
X296844Y422656D01*
X297110Y422967D01*
X297324Y423316D01*
X297446Y423611D01*
Y415889D01*
X297324Y416184D01*
X297110Y416533D01*
X296844Y416844D01*
X296533Y417110D01*
X296300Y417253D01*
G37*
G36*
X292996Y413343D02*X293156Y413156D01*
X293467Y412890D01*
X293816Y412676D01*
X294194Y412520D01*
X294592Y412424D01*
X295000Y412392D01*
X295047Y412396D01*
X294808Y412192D01*
X294348Y411653D01*
X293978Y411049D01*
X293707Y410395D01*
X293542Y409706D01*
X293486Y409000D01*
X293542Y408294D01*
X293707Y407605D01*
X293978Y406951D01*
X294348Y406347D01*
X294808Y405808D01*
X295347Y405348D01*
X295951Y404978D01*
X296605Y404707D01*
X297294Y404542D01*
X297446Y404530D01*
Y387878D01*
X297316Y387824D01*
X296967Y387610D01*
X296656Y387344D01*
X296390Y387033D01*
X296176Y386684D01*
X296020Y386306D01*
X295924Y385908D01*
X295892Y385500D01*
X295924Y385092D01*
X296020Y384694D01*
X296176Y384316D01*
X296390Y383967D01*
X296656Y383656D01*
X296967Y383390D01*
X297316Y383176D01*
X297446Y383122D01*
Y353470D01*
X297294Y353458D01*
X296605Y353293D01*
X295951Y353022D01*
X295347Y352652D01*
X294808Y352192D01*
X294348Y351653D01*
X293978Y351049D01*
X293707Y350395D01*
X293542Y349706D01*
X293486Y349000D01*
X293542Y348294D01*
X293707Y347605D01*
X293978Y346951D01*
X294348Y346347D01*
X294808Y345808D01*
X295347Y345348D01*
X295951Y344978D01*
X296605Y344707D01*
X297294Y344542D01*
X297446Y344530D01*
Y344000D01*
X292996D01*
Y388259D01*
X293076Y388592D01*
X293100Y389000D01*
X293076Y389408D01*
X292996Y389741D01*
Y393392D01*
X293000Y393392D01*
X293408Y393424D01*
X293806Y393520D01*
X294184Y393676D01*
X294533Y393890D01*
X294844Y394156D01*
X295110Y394467D01*
X295324Y394816D01*
X295480Y395194D01*
X295576Y395592D01*
X295600Y396000D01*
X295576Y396408D01*
X295480Y396806D01*
X295324Y397184D01*
X295110Y397533D01*
X294844Y397844D01*
X294533Y398110D01*
X294300Y398253D01*
Y400747D01*
X294533Y400890D01*
X294844Y401156D01*
X295110Y401467D01*
X295324Y401816D01*
X295480Y402194D01*
X295576Y402592D01*
X295600Y403000D01*
X295576Y403408D01*
X295480Y403806D01*
X295324Y404184D01*
X295110Y404533D01*
X294844Y404844D01*
X294533Y405110D01*
X294184Y405324D01*
X293806Y405480D01*
X293408Y405576D01*
X293000Y405608D01*
X292996Y405608D01*
Y413343D01*
G37*
G36*
Y422843D02*X293156Y422656D01*
X293467Y422390D01*
X293700Y422247D01*
Y417253D01*
X293467Y417110D01*
X293156Y416844D01*
X292996Y416657D01*
Y422843D01*
G37*
G36*
Y428658D02*X293718Y429380D01*
X294183Y428983D01*
X294900Y428544D01*
X295676Y428222D01*
X296493Y428026D01*
X297331Y427960D01*
X297446Y427969D01*
Y425389D01*
X297324Y425684D01*
X297110Y426033D01*
X296844Y426344D01*
X296533Y426610D01*
X296184Y426824D01*
X295806Y426980D01*
X295408Y427076D01*
X295000Y427108D01*
X294592Y427076D01*
X294194Y426980D01*
X293816Y426824D01*
X293467Y426610D01*
X293156Y426344D01*
X292996Y426157D01*
Y428658D01*
G37*
G36*
Y344000D02*X287993D01*
Y344487D01*
X288000Y344486D01*
X288706Y344542D01*
X289395Y344707D01*
X290049Y344978D01*
X290653Y345348D01*
X291192Y345808D01*
X291652Y346347D01*
X292022Y346951D01*
X292293Y347605D01*
X292458Y348294D01*
X292500Y349000D01*
X292458Y349706D01*
X292293Y350395D01*
X292022Y351049D01*
X291652Y351653D01*
X291192Y352192D01*
X290653Y352652D01*
X290049Y353022D01*
X289395Y353293D01*
X288706Y353458D01*
X288000Y353514D01*
X287993Y353513D01*
Y388305D01*
X288020Y388194D01*
X288176Y387816D01*
X288390Y387467D01*
X288656Y387156D01*
X288967Y386890D01*
X289316Y386676D01*
X289694Y386520D01*
X290092Y386424D01*
X290500Y386392D01*
X290908Y386424D01*
X291306Y386520D01*
X291684Y386676D01*
X292033Y386890D01*
X292344Y387156D01*
X292610Y387467D01*
X292824Y387816D01*
X292980Y388194D01*
X292996Y388259D01*
Y344000D01*
G37*
G36*
X287993Y422893D02*X288000Y422892D01*
X288408Y422924D01*
X288806Y423020D01*
X289184Y423176D01*
X289533Y423390D01*
X289844Y423656D01*
X290110Y423967D01*
X290324Y424316D01*
X290480Y424694D01*
X290576Y425092D01*
X290600Y425500D01*
X290576Y425908D01*
X290512Y426174D01*
X292996Y428658D01*
Y426157D01*
X292890Y426033D01*
X292676Y425684D01*
X292520Y425306D01*
X292424Y424908D01*
X292392Y424500D01*
X292424Y424092D01*
X292520Y423694D01*
X292676Y423316D01*
X292890Y422967D01*
X292996Y422843D01*
Y416657D01*
X292890Y416533D01*
X292676Y416184D01*
X292520Y415806D01*
X292424Y415408D01*
X292392Y415000D01*
X292424Y414592D01*
X292520Y414194D01*
X292676Y413816D01*
X292890Y413467D01*
X292996Y413343D01*
Y405608D01*
X292592Y405576D01*
X292194Y405480D01*
X291816Y405324D01*
X291467Y405110D01*
X291156Y404844D01*
X290890Y404533D01*
X290676Y404184D01*
X290520Y403806D01*
X290424Y403408D01*
X290392Y403000D01*
X290424Y402592D01*
X290520Y402194D01*
X290676Y401816D01*
X290890Y401467D01*
X291156Y401156D01*
X291467Y400890D01*
X291700Y400747D01*
Y398253D01*
X291467Y398110D01*
X291156Y397844D01*
X290890Y397533D01*
X290676Y397184D01*
X290520Y396806D01*
X290424Y396408D01*
X290392Y396000D01*
X290424Y395592D01*
X290520Y395194D01*
X290676Y394816D01*
X290890Y394467D01*
X291156Y394156D01*
X291467Y393890D01*
X291816Y393676D01*
X292194Y393520D01*
X292592Y393424D01*
X292996Y393392D01*
Y389741D01*
X292980Y389806D01*
X292824Y390184D01*
X292610Y390533D01*
X292344Y390844D01*
X292033Y391110D01*
X291684Y391324D01*
X291306Y391480D01*
X290908Y391576D01*
X290500Y391608D01*
X290092Y391576D01*
X289826Y391512D01*
X288512Y392826D01*
X288576Y393092D01*
X288600Y393500D01*
X288576Y393908D01*
X288480Y394306D01*
X288324Y394684D01*
X288110Y395033D01*
X287993Y395170D01*
Y404487D01*
X288000Y404486D01*
X288706Y404542D01*
X289395Y404707D01*
X290049Y404978D01*
X290653Y405348D01*
X291192Y405808D01*
X291652Y406347D01*
X292022Y406951D01*
X292293Y407605D01*
X292458Y408294D01*
X292500Y409000D01*
X292458Y409706D01*
X292293Y410395D01*
X292022Y411049D01*
X291652Y411653D01*
X291192Y412192D01*
X290653Y412652D01*
X290049Y413022D01*
X289395Y413293D01*
X288706Y413458D01*
X288000Y413514D01*
X287993Y413513D01*
Y422893D01*
G37*
G36*
Y464000D02*X297446D01*
Y458346D01*
X297331Y458355D01*
X296493Y458289D01*
X295676Y458093D01*
X294900Y457771D01*
X294183Y457332D01*
X293544Y456787D01*
X292998Y456148D01*
X292559Y455431D01*
X292238Y454655D01*
X292042Y453838D01*
X291976Y453000D01*
X292042Y452162D01*
X292238Y451345D01*
X292559Y450569D01*
X292998Y449852D01*
X293544Y449213D01*
X294183Y448668D01*
X294900Y448229D01*
X295676Y447907D01*
X296493Y447711D01*
X297331Y447645D01*
X297446Y447654D01*
Y438661D01*
X297331Y438670D01*
X296493Y438604D01*
X295676Y438408D01*
X294900Y438086D01*
X294183Y437647D01*
X293544Y437102D01*
X292998Y436463D01*
X292559Y435746D01*
X292238Y434970D01*
X292042Y434153D01*
X291976Y433315D01*
X292042Y432477D01*
X292238Y431660D01*
X292262Y431601D01*
X288674Y428012D01*
X288408Y428076D01*
X288000Y428108D01*
X287993Y428107D01*
Y430346D01*
X288323Y430884D01*
X288644Y431660D01*
X288840Y432477D01*
X288890Y433315D01*
X288840Y434153D01*
X288644Y434970D01*
X288323Y435746D01*
X287993Y436284D01*
Y450031D01*
X288323Y450569D01*
X288644Y451345D01*
X288840Y452162D01*
X288890Y453000D01*
X288840Y453838D01*
X288644Y454655D01*
X288323Y455431D01*
X287993Y455969D01*
Y464000D01*
G37*
G36*
X281613Y428339D02*X281896Y428222D01*
X282713Y428026D01*
X283551Y427960D01*
X284389Y428026D01*
X285206Y428222D01*
X285982Y428544D01*
X286699Y428983D01*
X287338Y429528D01*
X287884Y430167D01*
X287993Y430346D01*
Y428107D01*
X287592Y428076D01*
X287194Y427980D01*
X286816Y427824D01*
X286467Y427610D01*
X286156Y427344D01*
X285890Y427033D01*
X285676Y426684D01*
X285520Y426306D01*
X285424Y425908D01*
X285392Y425500D01*
X285424Y425092D01*
X285520Y424694D01*
X285676Y424316D01*
X285890Y423967D01*
X286156Y423656D01*
X286467Y423390D01*
X286816Y423176D01*
X287194Y423020D01*
X287592Y422924D01*
X287993Y422893D01*
Y413513D01*
X287294Y413458D01*
X286605Y413293D01*
X285951Y413022D01*
X285347Y412652D01*
X284808Y412192D01*
X284348Y411653D01*
X283978Y411049D01*
X283707Y410395D01*
X283542Y409706D01*
X283486Y409000D01*
X283542Y408294D01*
X283707Y407605D01*
X283978Y406951D01*
X284348Y406347D01*
X284808Y405808D01*
X285347Y405348D01*
X285951Y404978D01*
X286605Y404707D01*
X287294Y404542D01*
X287993Y404487D01*
Y395170D01*
X287844Y395344D01*
X287533Y395610D01*
X287184Y395824D01*
X286806Y395980D01*
X286408Y396076D01*
X286000Y396108D01*
X285592Y396076D01*
X285194Y395980D01*
X284816Y395824D01*
X284467Y395610D01*
X284156Y395344D01*
X283890Y395033D01*
X283676Y394684D01*
X283520Y394306D01*
X283424Y393908D01*
X283392Y393500D01*
X283424Y393092D01*
X283520Y392694D01*
X283676Y392316D01*
X283890Y391967D01*
X284156Y391656D01*
X284467Y391390D01*
X284816Y391176D01*
X285194Y391020D01*
X285592Y390924D01*
X286000Y390892D01*
X286408Y390924D01*
X286674Y390988D01*
X287988Y389674D01*
X287924Y389408D01*
X287892Y389000D01*
X287924Y388592D01*
X287993Y388305D01*
Y353513D01*
X287294Y353458D01*
X286605Y353293D01*
X285951Y353022D01*
X285347Y352652D01*
X284808Y352192D01*
X284348Y351653D01*
X283978Y351049D01*
X283707Y350395D01*
X283542Y349706D01*
X283486Y349000D01*
X283542Y348294D01*
X283707Y347605D01*
X283978Y346951D01*
X284348Y346347D01*
X284808Y345808D01*
X285347Y345348D01*
X285951Y344978D01*
X286605Y344707D01*
X287294Y344542D01*
X287993Y344487D01*
Y344000D01*
X281613D01*
Y346302D01*
X281652Y346347D01*
X282022Y346951D01*
X282293Y347605D01*
X282458Y348294D01*
X282500Y349000D01*
X282458Y349706D01*
X282293Y350395D01*
X282022Y351049D01*
X281652Y351653D01*
X281613Y351698D01*
Y406853D01*
X281656Y406860D01*
X281768Y406897D01*
X281873Y406952D01*
X281968Y407022D01*
X282051Y407106D01*
X282119Y407202D01*
X282170Y407308D01*
X282318Y407716D01*
X282422Y408137D01*
X282484Y408567D01*
X282505Y409000D01*
X282484Y409433D01*
X282422Y409863D01*
X282318Y410284D01*
X282175Y410694D01*
X282122Y410800D01*
X282053Y410896D01*
X281970Y410981D01*
X281875Y411051D01*
X281769Y411106D01*
X281657Y411143D01*
X281613Y411151D01*
Y428339D01*
G37*
G36*
Y448024D02*X281896Y447907D01*
X282713Y447711D01*
X283551Y447645D01*
X284389Y447711D01*
X285206Y447907D01*
X285982Y448229D01*
X286699Y448668D01*
X287338Y449213D01*
X287884Y449852D01*
X287993Y450031D01*
Y436284D01*
X287884Y436463D01*
X287338Y437102D01*
X286699Y437647D01*
X285982Y438086D01*
X285206Y438408D01*
X284389Y438604D01*
X283551Y438670D01*
X282713Y438604D01*
X281896Y438408D01*
X281613Y438291D01*
Y448024D01*
G37*
G36*
Y464000D02*X287993D01*
Y455969D01*
X287884Y456148D01*
X287338Y456787D01*
X286699Y457332D01*
X285982Y457771D01*
X285206Y458093D01*
X284389Y458289D01*
X283551Y458355D01*
X282713Y458289D01*
X281896Y458093D01*
X281613Y457976D01*
Y464000D01*
G37*
G36*
Y344000D02*X278002D01*
Y344486D01*
X278706Y344542D01*
X279395Y344707D01*
X280049Y344978D01*
X280653Y345348D01*
X281192Y345808D01*
X281613Y346302D01*
Y344000D01*
G37*
G36*
X278002Y464000D02*X281613D01*
Y457976D01*
X281120Y457771D01*
X280404Y457332D01*
X279765Y456787D01*
X279219Y456148D01*
X278780Y455431D01*
X278458Y454655D01*
X278262Y453838D01*
X278196Y453000D01*
X278262Y452162D01*
X278458Y451345D01*
X278780Y450569D01*
X279219Y449852D01*
X279765Y449213D01*
X280404Y448668D01*
X281120Y448229D01*
X281613Y448024D01*
Y438291D01*
X281120Y438086D01*
X280404Y437647D01*
X279765Y437102D01*
X279219Y436463D01*
X278780Y435746D01*
X278458Y434970D01*
X278262Y434153D01*
X278196Y433315D01*
X278262Y432477D01*
X278458Y431660D01*
X278780Y430884D01*
X279219Y430167D01*
X279765Y429528D01*
X280404Y428983D01*
X281120Y428544D01*
X281613Y428339D01*
Y411151D01*
X281540Y411163D01*
X281421Y411164D01*
X281304Y411146D01*
X281191Y411110D01*
X281085Y411057D01*
X280988Y410988D01*
X280904Y410905D01*
X280833Y410809D01*
X280779Y410704D01*
X280741Y410592D01*
X280722Y410475D01*
X280721Y410356D01*
X280739Y410239D01*
X280777Y410126D01*
X280876Y409855D01*
X280944Y409575D01*
X280986Y409289D01*
X281000Y409000D01*
X280986Y408711D01*
X280944Y408425D01*
X280876Y408145D01*
X280780Y407872D01*
X280742Y407761D01*
X280725Y407644D01*
X280725Y407526D01*
X280745Y407409D01*
X280782Y407297D01*
X280836Y407193D01*
X280906Y407098D01*
X280991Y407015D01*
X281087Y406946D01*
X281192Y406893D01*
X281305Y406857D01*
X281421Y406840D01*
X281539Y406841D01*
X281613Y406853D01*
Y351698D01*
X281192Y352192D01*
X280653Y352652D01*
X280049Y353022D01*
X279395Y353293D01*
X278706Y353458D01*
X278002Y353514D01*
Y404495D01*
X278433Y404516D01*
X278863Y404578D01*
X279284Y404682D01*
X279694Y404825D01*
X279800Y404878D01*
X279896Y404947D01*
X279981Y405030D01*
X280051Y405125D01*
X280106Y405231D01*
X280143Y405343D01*
X280163Y405460D01*
X280164Y405579D01*
X280146Y405696D01*
X280110Y405809D01*
X280057Y405915D01*
X279988Y406012D01*
X279905Y406096D01*
X279809Y406167D01*
X279704Y406221D01*
X279592Y406259D01*
X279475Y406278D01*
X279356Y406279D01*
X279239Y406261D01*
X279126Y406223D01*
X278855Y406124D01*
X278575Y406056D01*
X278289Y406014D01*
X278002Y406000D01*
Y412000D01*
X278289Y411986D01*
X278575Y411944D01*
X278855Y411876D01*
X279128Y411780D01*
X279239Y411742D01*
X279356Y411725D01*
X279474Y411725D01*
X279591Y411745D01*
X279703Y411782D01*
X279807Y411836D01*
X279902Y411906D01*
X279985Y411991D01*
X280054Y412087D01*
X280107Y412192D01*
X280143Y412305D01*
X280160Y412421D01*
X280159Y412539D01*
X280140Y412656D01*
X280103Y412768D01*
X280048Y412873D01*
X279978Y412968D01*
X279894Y413051D01*
X279798Y413119D01*
X279692Y413170D01*
X279284Y413318D01*
X278863Y413422D01*
X278433Y413484D01*
X278002Y413505D01*
Y464000D01*
G37*
G36*
X274387Y346302D02*X274808Y345808D01*
X275347Y345348D01*
X275951Y344978D01*
X276605Y344707D01*
X277294Y344542D01*
X278000Y344486D01*
X278002Y344486D01*
Y344000D01*
X274387D01*
Y346302D01*
G37*
G36*
Y464000D02*X278002D01*
Y413505D01*
X278000Y413505D01*
X277567Y413484D01*
X277137Y413422D01*
X276716Y413318D01*
X276306Y413175D01*
X276200Y413122D01*
X276104Y413053D01*
X276019Y412970D01*
X275949Y412875D01*
X275894Y412769D01*
X275857Y412657D01*
X275837Y412540D01*
X275836Y412421D01*
X275854Y412304D01*
X275890Y412191D01*
X275943Y412085D01*
X276012Y411988D01*
X276095Y411904D01*
X276191Y411833D01*
X276296Y411779D01*
X276408Y411741D01*
X276525Y411722D01*
X276644Y411721D01*
X276761Y411739D01*
X276874Y411777D01*
X277145Y411876D01*
X277425Y411944D01*
X277711Y411986D01*
X278000Y412000D01*
X278002Y412000D01*
Y406000D01*
X278000Y406000D01*
X277711Y406014D01*
X277425Y406056D01*
X277145Y406124D01*
X276872Y406220D01*
X276761Y406258D01*
X276644Y406275D01*
X276526Y406275D01*
X276409Y406255D01*
X276297Y406218D01*
X276193Y406164D01*
X276098Y406094D01*
X276015Y406009D01*
X275946Y405913D01*
X275893Y405808D01*
X275857Y405695D01*
X275840Y405579D01*
X275841Y405461D01*
X275860Y405344D01*
X275897Y405232D01*
X275952Y405127D01*
X276022Y405032D01*
X276106Y404949D01*
X276202Y404881D01*
X276308Y404830D01*
X276716Y404682D01*
X277137Y404578D01*
X277567Y404516D01*
X278000Y404495D01*
X278002Y404495D01*
Y353514D01*
X278000Y353514D01*
X277294Y353458D01*
X276605Y353293D01*
X275951Y353022D01*
X275347Y352652D01*
X274808Y352192D01*
X274387Y351698D01*
Y406849D01*
X274460Y406837D01*
X274579Y406836D01*
X274696Y406854D01*
X274809Y406890D01*
X274915Y406943D01*
X275012Y407012D01*
X275096Y407095D01*
X275167Y407191D01*
X275221Y407296D01*
X275259Y407408D01*
X275278Y407525D01*
X275279Y407644D01*
X275261Y407761D01*
X275223Y407874D01*
X275124Y408145D01*
X275056Y408425D01*
X275014Y408711D01*
X275000Y409000D01*
X275014Y409289D01*
X275056Y409575D01*
X275124Y409855D01*
X275220Y410128D01*
X275258Y410239D01*
X275275Y410356D01*
X275275Y410474D01*
X275255Y410591D01*
X275218Y410703D01*
X275164Y410807D01*
X275094Y410902D01*
X275009Y410985D01*
X274913Y411054D01*
X274808Y411107D01*
X274695Y411143D01*
X274579Y411160D01*
X274461Y411159D01*
X274387Y411147D01*
Y430629D01*
X274543Y430884D01*
X274865Y431660D01*
X275061Y432477D01*
X275110Y433315D01*
X275061Y434153D01*
X274865Y434970D01*
X274543Y435746D01*
X274387Y436001D01*
Y450314D01*
X274543Y450569D01*
X274865Y451345D01*
X275061Y452162D01*
X275110Y453000D01*
X275061Y453838D01*
X274865Y454655D01*
X274543Y455431D01*
X274387Y455686D01*
Y464000D01*
G37*
G36*
X267993Y428273D02*X268117Y428222D01*
X268934Y428026D01*
X269772Y427960D01*
X270609Y428026D01*
X271426Y428222D01*
X272203Y428544D01*
X272919Y428983D01*
X273558Y429528D01*
X274104Y430167D01*
X274387Y430629D01*
Y411147D01*
X274344Y411140D01*
X274232Y411103D01*
X274127Y411048D01*
X274032Y410978D01*
X273949Y410894D01*
X273881Y410798D01*
X273830Y410692D01*
X273682Y410284D01*
X273578Y409863D01*
X273516Y409433D01*
X273495Y409000D01*
X273516Y408567D01*
X273578Y408137D01*
X273682Y407716D01*
X273825Y407306D01*
X273878Y407200D01*
X273947Y407104D01*
X274030Y407019D01*
X274125Y406949D01*
X274231Y406894D01*
X274343Y406857D01*
X274387Y406849D01*
Y351698D01*
X274348Y351653D01*
X273978Y351049D01*
X273707Y350395D01*
X273542Y349706D01*
X273486Y349000D01*
X273542Y348294D01*
X273707Y347605D01*
X273978Y346951D01*
X274348Y346347D01*
X274387Y346302D01*
Y344000D01*
X267993D01*
Y344487D01*
X268000Y344486D01*
X268706Y344542D01*
X269395Y344707D01*
X270049Y344978D01*
X270653Y345348D01*
X271192Y345808D01*
X271652Y346347D01*
X272022Y346951D01*
X272293Y347605D01*
X272458Y348294D01*
X272500Y349000D01*
X272458Y349706D01*
X272293Y350395D01*
X272022Y351049D01*
X271652Y351653D01*
X271192Y352192D01*
X270653Y352652D01*
X270049Y353022D01*
X269395Y353293D01*
X268706Y353458D01*
X268000Y353514D01*
X267993Y353513D01*
Y360830D01*
X268110Y360967D01*
X268324Y361316D01*
X268480Y361694D01*
X268576Y362092D01*
X268600Y362500D01*
X268576Y362908D01*
X268480Y363306D01*
X268324Y363684D01*
X268110Y364033D01*
X267993Y364170D01*
Y371097D01*
X268184Y371176D01*
X268533Y371390D01*
X268844Y371656D01*
X269110Y371967D01*
X269324Y372316D01*
X269480Y372694D01*
X269576Y373092D01*
X269600Y373500D01*
X269576Y373908D01*
X269480Y374306D01*
X269324Y374684D01*
X269110Y375033D01*
X268844Y375344D01*
X268533Y375610D01*
X268184Y375824D01*
X267993Y375903D01*
Y382366D01*
X268033Y382390D01*
X268344Y382656D01*
X268610Y382967D01*
X268824Y383316D01*
X268980Y383694D01*
X269076Y384092D01*
X269100Y384500D01*
X269076Y384908D01*
X268980Y385306D01*
X268824Y385684D01*
X268610Y386033D01*
X268344Y386344D01*
X268033Y386610D01*
X267993Y386634D01*
Y404487D01*
X268000Y404486D01*
X268706Y404542D01*
X269395Y404707D01*
X270049Y404978D01*
X270653Y405348D01*
X271192Y405808D01*
X271652Y406347D01*
X272022Y406951D01*
X272293Y407605D01*
X272458Y408294D01*
X272500Y409000D01*
X272458Y409706D01*
X272293Y410395D01*
X272022Y411049D01*
X271652Y411653D01*
X271192Y412192D01*
X270653Y412652D01*
X270049Y413022D01*
X269395Y413293D01*
X268706Y413458D01*
X268000Y413514D01*
X267993Y413513D01*
Y428273D01*
G37*
G36*
Y447958D02*X268117Y447907D01*
X268934Y447711D01*
X269772Y447645D01*
X270609Y447711D01*
X271426Y447907D01*
X272203Y448229D01*
X272919Y448668D01*
X273558Y449213D01*
X274104Y449852D01*
X274387Y450314D01*
Y436001D01*
X274104Y436463D01*
X273558Y437102D01*
X272919Y437647D01*
X272203Y438086D01*
X271426Y438408D01*
X270609Y438604D01*
X269772Y438670D01*
X268934Y438604D01*
X268117Y438408D01*
X267993Y438357D01*
Y447958D01*
G37*
G36*
Y464000D02*X274387D01*
Y455686D01*
X274104Y456148D01*
X273558Y456787D01*
X272919Y457332D01*
X272203Y457771D01*
X271426Y458093D01*
X270609Y458289D01*
X269772Y458355D01*
X268934Y458289D01*
X268117Y458093D01*
X267993Y458042D01*
Y464000D01*
G37*
G36*
X257993D02*X267993D01*
Y458042D01*
X267341Y457771D01*
X266624Y457332D01*
X265985Y456787D01*
X265439Y456148D01*
X265000Y455431D01*
X264679Y454655D01*
X264483Y453838D01*
X264417Y453000D01*
X264483Y452162D01*
X264679Y451345D01*
X265000Y450569D01*
X265439Y449852D01*
X265985Y449213D01*
X266624Y448668D01*
X267341Y448229D01*
X267993Y447958D01*
Y438357D01*
X267341Y438086D01*
X266624Y437647D01*
X265985Y437102D01*
X265439Y436463D01*
X265000Y435746D01*
X264679Y434970D01*
X264483Y434153D01*
X264417Y433315D01*
X264483Y432477D01*
X264679Y431660D01*
X265000Y430884D01*
X265439Y430167D01*
X265985Y429528D01*
X266624Y428983D01*
X267341Y428544D01*
X267993Y428273D01*
Y413513D01*
X267294Y413458D01*
X266605Y413293D01*
X265951Y413022D01*
X265347Y412652D01*
X264808Y412192D01*
X264348Y411653D01*
X263978Y411049D01*
X263707Y410395D01*
X263542Y409706D01*
X263486Y409000D01*
X263542Y408294D01*
X263707Y407605D01*
X263978Y406951D01*
X264348Y406347D01*
X264808Y405808D01*
X265347Y405348D01*
X265951Y404978D01*
X266605Y404707D01*
X267294Y404542D01*
X267993Y404487D01*
Y386634D01*
X267684Y386824D01*
X267306Y386980D01*
X266908Y387076D01*
X266500Y387108D01*
X266092Y387076D01*
X265826Y387012D01*
X264512Y388326D01*
X264576Y388592D01*
X264600Y389000D01*
X264576Y389408D01*
X264480Y389806D01*
X264324Y390184D01*
X264110Y390533D01*
X263844Y390844D01*
X263533Y391110D01*
X263184Y391324D01*
X262806Y391480D01*
X262408Y391576D01*
X262000Y391608D01*
X261592Y391576D01*
X261194Y391480D01*
X260816Y391324D01*
X260467Y391110D01*
X260156Y390844D01*
X259890Y390533D01*
X259676Y390184D01*
X259520Y389806D01*
X259424Y389408D01*
X259392Y389000D01*
X259424Y388592D01*
X259520Y388194D01*
X259676Y387816D01*
X259890Y387467D01*
X260156Y387156D01*
X260467Y386890D01*
X260816Y386676D01*
X261194Y386520D01*
X261592Y386424D01*
X262000Y386392D01*
X262408Y386424D01*
X262674Y386488D01*
X263988Y385174D01*
X263924Y384908D01*
X263892Y384500D01*
X263924Y384092D01*
X264020Y383694D01*
X264176Y383316D01*
X264390Y382967D01*
X264656Y382656D01*
X264967Y382390D01*
X265316Y382176D01*
X265694Y382020D01*
X266092Y381924D01*
X266500Y381892D01*
X266908Y381924D01*
X267306Y382020D01*
X267684Y382176D01*
X267993Y382366D01*
Y375903D01*
X267806Y375980D01*
X267408Y376076D01*
X267000Y376108D01*
X266592Y376076D01*
X266326Y376012D01*
X265012Y377326D01*
X265076Y377592D01*
X265100Y378000D01*
X265076Y378408D01*
X264980Y378806D01*
X264824Y379184D01*
X264610Y379533D01*
X264344Y379844D01*
X264033Y380110D01*
X263684Y380324D01*
X263306Y380480D01*
X262908Y380576D01*
X262500Y380608D01*
X262092Y380576D01*
X261694Y380480D01*
X261316Y380324D01*
X260967Y380110D01*
X260656Y379844D01*
X260390Y379533D01*
X260176Y379184D01*
X260020Y378806D01*
X259924Y378408D01*
X259892Y378000D01*
X259924Y377592D01*
X260020Y377194D01*
X260176Y376816D01*
X260390Y376467D01*
X260656Y376156D01*
X260967Y375890D01*
X261316Y375676D01*
X261694Y375520D01*
X262092Y375424D01*
X262500Y375392D01*
X262908Y375424D01*
X263174Y375488D01*
X264488Y374174D01*
X264424Y373908D01*
X264392Y373500D01*
X264424Y373092D01*
X264520Y372694D01*
X264676Y372316D01*
X264890Y371967D01*
X265156Y371656D01*
X265467Y371390D01*
X265816Y371176D01*
X266194Y371020D01*
X266592Y370924D01*
X267000Y370892D01*
X267408Y370924D01*
X267806Y371020D01*
X267993Y371097D01*
Y364170D01*
X267844Y364344D01*
X267533Y364610D01*
X267184Y364824D01*
X266806Y364980D01*
X266408Y365076D01*
X266000Y365108D01*
X265592Y365076D01*
X265326Y365012D01*
X264012Y366326D01*
X264076Y366592D01*
X264100Y367000D01*
X264076Y367408D01*
X263980Y367806D01*
X263824Y368184D01*
X263610Y368533D01*
X263344Y368844D01*
X263033Y369110D01*
X262684Y369324D01*
X262306Y369480D01*
X261908Y369576D01*
X261500Y369608D01*
X261092Y369576D01*
X260694Y369480D01*
X260316Y369324D01*
X259967Y369110D01*
X259656Y368844D01*
X259390Y368533D01*
X259176Y368184D01*
X259020Y367806D01*
X258924Y367408D01*
X258892Y367000D01*
X258924Y366592D01*
X259020Y366194D01*
X259176Y365816D01*
X259390Y365467D01*
X259656Y365156D01*
X259967Y364890D01*
X260316Y364676D01*
X260694Y364520D01*
X261092Y364424D01*
X261500Y364392D01*
X261908Y364424D01*
X262174Y364488D01*
X263488Y363174D01*
X263424Y362908D01*
X263392Y362500D01*
X263424Y362092D01*
X263520Y361694D01*
X263676Y361316D01*
X263890Y360967D01*
X264156Y360656D01*
X264467Y360390D01*
X264816Y360176D01*
X265194Y360020D01*
X265592Y359924D01*
X266000Y359892D01*
X266408Y359924D01*
X266806Y360020D01*
X267184Y360176D01*
X267533Y360390D01*
X267844Y360656D01*
X267993Y360830D01*
Y353513D01*
X267294Y353458D01*
X266605Y353293D01*
X265951Y353022D01*
X265347Y352652D01*
X264808Y352192D01*
X264348Y351653D01*
X263978Y351049D01*
X263707Y350395D01*
X263542Y349706D01*
X263486Y349000D01*
X263542Y348294D01*
X263707Y347605D01*
X263978Y346951D01*
X264348Y346347D01*
X264808Y345808D01*
X265347Y345348D01*
X265951Y344978D01*
X266605Y344707D01*
X267294Y344542D01*
X267993Y344487D01*
Y344000D01*
X257993D01*
Y344487D01*
X258000Y344486D01*
X258706Y344542D01*
X259395Y344707D01*
X260049Y344978D01*
X260653Y345348D01*
X261192Y345808D01*
X261652Y346347D01*
X262022Y346951D01*
X262293Y347605D01*
X262458Y348294D01*
X262500Y349000D01*
X262458Y349706D01*
X262293Y350395D01*
X262022Y351049D01*
X261652Y351653D01*
X261192Y352192D01*
X260653Y352652D01*
X260049Y353022D01*
X259395Y353293D01*
X258706Y353458D01*
X258000Y353514D01*
X257993Y353513D01*
Y404487D01*
X258000Y404486D01*
X258706Y404542D01*
X259395Y404707D01*
X260049Y404978D01*
X260653Y405348D01*
X261192Y405808D01*
X261652Y406347D01*
X262022Y406951D01*
X262293Y407605D01*
X262458Y408294D01*
X262500Y409000D01*
X262458Y409706D01*
X262293Y410395D01*
X262022Y411049D01*
X261652Y411653D01*
X261192Y412192D01*
X260653Y412652D01*
X260049Y413022D01*
X259395Y413293D01*
X258706Y413458D01*
X258000Y413514D01*
X257993Y413513D01*
Y464000D01*
G37*
G36*
X247993D02*X257993D01*
Y413513D01*
X257294Y413458D01*
X256605Y413293D01*
X255951Y413022D01*
X255347Y412652D01*
X254808Y412192D01*
X254348Y411653D01*
X253978Y411049D01*
X253707Y410395D01*
X253542Y409706D01*
X253486Y409000D01*
X253542Y408294D01*
X253707Y407605D01*
X253978Y406951D01*
X254348Y406347D01*
X254808Y405808D01*
X255347Y405348D01*
X255951Y404978D01*
X256605Y404707D01*
X257294Y404542D01*
X257993Y404487D01*
Y353513D01*
X257294Y353458D01*
X256605Y353293D01*
X255951Y353022D01*
X255347Y352652D01*
X254808Y352192D01*
X254348Y351653D01*
X253978Y351049D01*
X253707Y350395D01*
X253542Y349706D01*
X253486Y349000D01*
X253542Y348294D01*
X253707Y347605D01*
X253978Y346951D01*
X254348Y346347D01*
X254808Y345808D01*
X255347Y345348D01*
X255951Y344978D01*
X256605Y344707D01*
X257294Y344542D01*
X257993Y344487D01*
Y344000D01*
X247993D01*
Y344487D01*
X248000Y344486D01*
X248706Y344542D01*
X249395Y344707D01*
X250049Y344978D01*
X250653Y345348D01*
X251192Y345808D01*
X251652Y346347D01*
X252022Y346951D01*
X252293Y347605D01*
X252458Y348294D01*
X252500Y349000D01*
X252458Y349706D01*
X252293Y350395D01*
X252022Y351049D01*
X251652Y351653D01*
X251192Y352192D01*
X250653Y352652D01*
X250049Y353022D01*
X249395Y353293D01*
X248706Y353458D01*
X248000Y353514D01*
X247993Y353513D01*
Y404487D01*
X248000Y404486D01*
X248706Y404542D01*
X249395Y404707D01*
X250049Y404978D01*
X250653Y405348D01*
X251192Y405808D01*
X251652Y406347D01*
X252022Y406951D01*
X252293Y407605D01*
X252458Y408294D01*
X252500Y409000D01*
X252458Y409706D01*
X252293Y410395D01*
X252022Y411049D01*
X251652Y411653D01*
X251192Y412192D01*
X250653Y412652D01*
X250049Y413022D01*
X249395Y413293D01*
X248706Y413458D01*
X248000Y413514D01*
X247993Y413513D01*
Y464000D01*
G37*
G36*
X242080D02*X247993D01*
Y413513D01*
X247294Y413458D01*
X246605Y413293D01*
X245951Y413022D01*
X245347Y412652D01*
X244808Y412192D01*
X244348Y411653D01*
X243978Y411049D01*
X243707Y410395D01*
X243542Y409706D01*
X243486Y409000D01*
X243542Y408294D01*
X243707Y407605D01*
X243978Y406951D01*
X244348Y406347D01*
X244808Y405808D01*
X245347Y405348D01*
X245951Y404978D01*
X246605Y404707D01*
X247294Y404542D01*
X247993Y404487D01*
Y353513D01*
X247294Y353458D01*
X246605Y353293D01*
X245951Y353022D01*
X245347Y352652D01*
X244808Y352192D01*
X244348Y351653D01*
X243978Y351049D01*
X243707Y350395D01*
X243542Y349706D01*
X243486Y349000D01*
X243542Y348294D01*
X243707Y347605D01*
X243978Y346951D01*
X244348Y346347D01*
X244808Y345808D01*
X245347Y345348D01*
X245951Y344978D01*
X246605Y344707D01*
X247294Y344542D01*
X247993Y344487D01*
Y344000D01*
X242080D01*
Y347090D01*
X242293Y347605D01*
X242458Y348294D01*
X242500Y349000D01*
X242458Y349706D01*
X242293Y350395D01*
X242080Y350910D01*
Y407090D01*
X242293Y407605D01*
X242458Y408294D01*
X242500Y409000D01*
X242458Y409706D01*
X242293Y410395D01*
X242080Y410910D01*
Y430570D01*
X242085Y430572D01*
X242193Y430618D01*
X242293Y430681D01*
X242382Y430759D01*
X242457Y430850D01*
X242516Y430952D01*
X242717Y431398D01*
X242872Y431863D01*
X242983Y432340D01*
X243050Y432826D01*
X243073Y433315D01*
X243050Y433804D01*
X242983Y434290D01*
X242872Y434767D01*
X242717Y435232D01*
X242521Y435680D01*
X242461Y435783D01*
X242385Y435874D01*
X242295Y435952D01*
X242195Y436015D01*
X242086Y436062D01*
X242080Y436064D01*
Y450255D01*
X242085Y450257D01*
X242193Y450303D01*
X242293Y450366D01*
X242382Y450444D01*
X242457Y450535D01*
X242516Y450637D01*
X242717Y451083D01*
X242872Y451548D01*
X242983Y452025D01*
X243050Y452511D01*
X243073Y453000D01*
X243050Y453489D01*
X242983Y453975D01*
X242872Y454452D01*
X242717Y454917D01*
X242521Y455365D01*
X242461Y455468D01*
X242385Y455559D01*
X242295Y455637D01*
X242195Y455700D01*
X242086Y455747D01*
X242080Y455749D01*
Y464000D01*
G37*
G36*
Y350910D02*X242022Y351049D01*
X241652Y351653D01*
X241192Y352192D01*
X240653Y352652D01*
X240049Y353022D01*
X239395Y353293D01*
X238706Y353458D01*
X238000Y353514D01*
X237993Y353513D01*
Y404487D01*
X238000Y404486D01*
X238706Y404542D01*
X239395Y404707D01*
X240049Y404978D01*
X240653Y405348D01*
X241192Y405808D01*
X241652Y406347D01*
X242022Y406951D01*
X242080Y407090D01*
Y350910D01*
G37*
G36*
Y344000D02*X237993D01*
Y344487D01*
X238000Y344486D01*
X238706Y344542D01*
X239395Y344707D01*
X240049Y344978D01*
X240653Y345348D01*
X241192Y345808D01*
X241652Y346347D01*
X242022Y346951D01*
X242080Y347090D01*
Y344000D01*
G37*
G36*
X237993Y464000D02*X242080D01*
Y455749D01*
X241971Y455776D01*
X241853Y455787D01*
X241734Y455779D01*
X241618Y455753D01*
X241508Y455709D01*
X241406Y455648D01*
X241315Y455573D01*
X241237Y455483D01*
X241174Y455383D01*
X241127Y455274D01*
X241098Y455159D01*
X241087Y455041D01*
X241095Y454922D01*
X241121Y454806D01*
X241167Y454697D01*
X241312Y454377D01*
X241423Y454043D01*
X241503Y453700D01*
X241551Y453352D01*
X241567Y453000D01*
X241551Y452648D01*
X241503Y452300D01*
X241423Y451957D01*
X241312Y451623D01*
X241170Y451301D01*
X241125Y451192D01*
X241099Y451077D01*
X241091Y450959D01*
X241102Y450842D01*
X241131Y450728D01*
X241177Y450619D01*
X241240Y450519D01*
X241318Y450430D01*
X241409Y450355D01*
X241510Y450294D01*
X241620Y450251D01*
X241735Y450225D01*
X241853Y450217D01*
X241970Y450228D01*
X242080Y450255D01*
Y436064D01*
X241971Y436091D01*
X241853Y436102D01*
X241734Y436094D01*
X241618Y436068D01*
X241508Y436024D01*
X241406Y435963D01*
X241315Y435887D01*
X241237Y435798D01*
X241174Y435698D01*
X241127Y435589D01*
X241098Y435474D01*
X241087Y435356D01*
X241095Y435237D01*
X241121Y435121D01*
X241167Y435012D01*
X241312Y434692D01*
X241423Y434358D01*
X241503Y434015D01*
X241551Y433666D01*
X241567Y433315D01*
X241551Y432963D01*
X241503Y432615D01*
X241423Y432272D01*
X241312Y431938D01*
X241170Y431616D01*
X241125Y431507D01*
X241099Y431392D01*
X241091Y431274D01*
X241102Y431157D01*
X241131Y431042D01*
X241177Y430934D01*
X241240Y430834D01*
X241318Y430745D01*
X241409Y430670D01*
X241510Y430609D01*
X241620Y430566D01*
X241735Y430540D01*
X241853Y430532D01*
X241970Y430543D01*
X242080Y430570D01*
Y410910D01*
X242022Y411049D01*
X241652Y411653D01*
X241192Y412192D01*
X240653Y412652D01*
X240049Y413022D01*
X239395Y413293D01*
X238706Y413458D01*
X238000Y413514D01*
X237993Y413513D01*
Y427983D01*
X238218Y427993D01*
X238703Y428060D01*
X239180Y428172D01*
X239645Y428326D01*
X240094Y428523D01*
X240196Y428583D01*
X240287Y428659D01*
X240365Y428748D01*
X240429Y428848D01*
X240476Y428957D01*
X240505Y429072D01*
X240516Y429191D01*
X240508Y429309D01*
X240482Y429425D01*
X240438Y429535D01*
X240377Y429637D01*
X240301Y429728D01*
X240212Y429806D01*
X240111Y429870D01*
X240002Y429917D01*
X239887Y429946D01*
X239769Y429957D01*
X239650Y429949D01*
X239535Y429923D01*
X239426Y429876D01*
X239105Y429732D01*
X238771Y429621D01*
X238428Y429541D01*
X238080Y429493D01*
X237993Y429489D01*
Y437141D01*
X238080Y437137D01*
X238428Y437089D01*
X238771Y437009D01*
X239105Y436898D01*
X239427Y436757D01*
X239536Y436711D01*
X239651Y436685D01*
X239769Y436677D01*
X239886Y436688D01*
X240001Y436717D01*
X240109Y436764D01*
X240209Y436827D01*
X240298Y436904D01*
X240373Y436995D01*
X240434Y437097D01*
X240478Y437206D01*
X240504Y437321D01*
X240512Y437439D01*
X240501Y437557D01*
X240472Y437671D01*
X240425Y437780D01*
X240362Y437880D01*
X240284Y437968D01*
X240194Y438044D01*
X240091Y438102D01*
X239645Y438304D01*
X239180Y438458D01*
X238703Y438570D01*
X238218Y438637D01*
X237993Y438647D01*
Y447668D01*
X238218Y447678D01*
X238703Y447745D01*
X239180Y447857D01*
X239645Y448011D01*
X240094Y448208D01*
X240196Y448268D01*
X240287Y448344D01*
X240365Y448433D01*
X240429Y448533D01*
X240476Y448642D01*
X240505Y448758D01*
X240516Y448876D01*
X240508Y448994D01*
X240482Y449110D01*
X240438Y449220D01*
X240377Y449322D01*
X240301Y449413D01*
X240212Y449492D01*
X240111Y449555D01*
X240002Y449602D01*
X239887Y449631D01*
X239769Y449642D01*
X239650Y449634D01*
X239535Y449608D01*
X239426Y449561D01*
X239105Y449417D01*
X238771Y449306D01*
X238428Y449226D01*
X238080Y449178D01*
X237993Y449174D01*
Y456826D01*
X238080Y456822D01*
X238428Y456774D01*
X238771Y456694D01*
X239105Y456583D01*
X239427Y456442D01*
X239536Y456396D01*
X239651Y456370D01*
X239769Y456362D01*
X239886Y456373D01*
X240001Y456402D01*
X240109Y456449D01*
X240209Y456512D01*
X240298Y456590D01*
X240373Y456680D01*
X240434Y456782D01*
X240478Y456891D01*
X240504Y457006D01*
X240512Y457124D01*
X240501Y457242D01*
X240472Y457356D01*
X240425Y457465D01*
X240362Y457565D01*
X240284Y457653D01*
X240194Y457729D01*
X240091Y457787D01*
X239645Y457989D01*
X239180Y458143D01*
X238703Y458255D01*
X238218Y458322D01*
X237993Y458332D01*
Y464000D01*
G37*
G36*
X233377D02*X237993D01*
Y458332D01*
X237728Y458344D01*
X237239Y458322D01*
X236754Y458255D01*
X236277Y458143D01*
X235812Y457989D01*
X235363Y457792D01*
X235261Y457732D01*
X235169Y457656D01*
X235091Y457567D01*
X235028Y457467D01*
X234981Y457358D01*
X234952Y457242D01*
X234941Y457124D01*
X234949Y457006D01*
X234975Y456890D01*
X235019Y456780D01*
X235080Y456678D01*
X235156Y456587D01*
X235245Y456508D01*
X235345Y456445D01*
X235455Y456398D01*
X235570Y456369D01*
X235688Y456358D01*
X235806Y456366D01*
X235922Y456392D01*
X236031Y456439D01*
X236352Y456583D01*
X236686Y456694D01*
X237028Y456774D01*
X237377Y456822D01*
X237728Y456839D01*
X237993Y456826D01*
Y449174D01*
X237728Y449161D01*
X237377Y449178D01*
X237028Y449226D01*
X236686Y449306D01*
X236352Y449417D01*
X236029Y449558D01*
X235921Y449604D01*
X235806Y449630D01*
X235688Y449638D01*
X235570Y449627D01*
X235456Y449598D01*
X235347Y449551D01*
X235248Y449488D01*
X235159Y449410D01*
X235083Y449320D01*
X235023Y449218D01*
X234979Y449109D01*
X234953Y448994D01*
X234945Y448876D01*
X234956Y448758D01*
X234985Y448644D01*
X235032Y448535D01*
X235094Y448435D01*
X235172Y448347D01*
X235263Y448271D01*
X235365Y448213D01*
X235812Y448011D01*
X236277Y447857D01*
X236754Y447745D01*
X237239Y447678D01*
X237728Y447656D01*
X237993Y447668D01*
Y438647D01*
X237728Y438659D01*
X237239Y438637D01*
X236754Y438570D01*
X236277Y438458D01*
X235812Y438304D01*
X235363Y438107D01*
X235261Y438047D01*
X235169Y437971D01*
X235091Y437882D01*
X235028Y437782D01*
X234981Y437673D01*
X234952Y437557D01*
X234941Y437439D01*
X234949Y437321D01*
X234975Y437205D01*
X235019Y437095D01*
X235080Y436993D01*
X235156Y436902D01*
X235245Y436823D01*
X235345Y436760D01*
X235455Y436713D01*
X235570Y436684D01*
X235688Y436673D01*
X235806Y436681D01*
X235922Y436707D01*
X236031Y436753D01*
X236352Y436898D01*
X236686Y437009D01*
X237028Y437089D01*
X237377Y437137D01*
X237728Y437154D01*
X237993Y437141D01*
Y429489D01*
X237728Y429476D01*
X237377Y429493D01*
X237028Y429541D01*
X236686Y429621D01*
X236352Y429732D01*
X236029Y429873D01*
X235921Y429919D01*
X235806Y429945D01*
X235688Y429953D01*
X235570Y429942D01*
X235456Y429913D01*
X235347Y429866D01*
X235248Y429803D01*
X235159Y429725D01*
X235083Y429635D01*
X235023Y429533D01*
X234979Y429424D01*
X234953Y429309D01*
X234945Y429191D01*
X234956Y429073D01*
X234985Y428959D01*
X235032Y428850D01*
X235094Y428750D01*
X235172Y428662D01*
X235263Y428586D01*
X235365Y428528D01*
X235812Y428326D01*
X236277Y428172D01*
X236754Y428060D01*
X237239Y427993D01*
X237728Y427971D01*
X237993Y427983D01*
Y413513D01*
X237294Y413458D01*
X236605Y413293D01*
X235951Y413022D01*
X235347Y412652D01*
X234808Y412192D01*
X234348Y411653D01*
X233978Y411049D01*
X233707Y410395D01*
X233542Y409706D01*
X233486Y409000D01*
X233542Y408294D01*
X233707Y407605D01*
X233978Y406951D01*
X234348Y406347D01*
X234808Y405808D01*
X235347Y405348D01*
X235951Y404978D01*
X236605Y404707D01*
X237294Y404542D01*
X237993Y404487D01*
Y353513D01*
X237294Y353458D01*
X236605Y353293D01*
X235951Y353022D01*
X235347Y352652D01*
X234808Y352192D01*
X234348Y351653D01*
X233978Y351049D01*
X233707Y350395D01*
X233542Y349706D01*
X233486Y349000D01*
X233542Y348294D01*
X233707Y347605D01*
X233978Y346951D01*
X234348Y346347D01*
X234808Y345808D01*
X235347Y345348D01*
X235951Y344978D01*
X236605Y344707D01*
X237294Y344542D01*
X237993Y344487D01*
Y344000D01*
X233377D01*
Y430566D01*
X233486Y430539D01*
X233604Y430528D01*
X233722Y430536D01*
X233838Y430562D01*
X233948Y430606D01*
X234050Y430667D01*
X234142Y430742D01*
X234220Y430832D01*
X234283Y430932D01*
X234330Y431041D01*
X234359Y431156D01*
X234370Y431274D01*
X234362Y431393D01*
X234336Y431509D01*
X234290Y431618D01*
X234145Y431938D01*
X234034Y432272D01*
X233954Y432615D01*
X233906Y432963D01*
X233890Y433315D01*
X233906Y433666D01*
X233954Y434015D01*
X234034Y434358D01*
X234145Y434692D01*
X234286Y435014D01*
X234332Y435123D01*
X234358Y435238D01*
X234366Y435355D01*
X234355Y435473D01*
X234326Y435587D01*
X234280Y435696D01*
X234217Y435796D01*
X234139Y435885D01*
X234048Y435960D01*
X233947Y436020D01*
X233837Y436064D01*
X233722Y436090D01*
X233604Y436098D01*
X233487Y436087D01*
X233377Y436060D01*
Y450251D01*
X233486Y450224D01*
X233604Y450213D01*
X233722Y450221D01*
X233838Y450247D01*
X233948Y450291D01*
X234050Y450352D01*
X234142Y450427D01*
X234220Y450517D01*
X234283Y450617D01*
X234330Y450726D01*
X234359Y450841D01*
X234370Y450959D01*
X234362Y451078D01*
X234336Y451194D01*
X234290Y451303D01*
X234145Y451623D01*
X234034Y451957D01*
X233954Y452300D01*
X233906Y452648D01*
X233890Y453000D01*
X233906Y453352D01*
X233954Y453700D01*
X234034Y454043D01*
X234145Y454377D01*
X234286Y454699D01*
X234332Y454808D01*
X234358Y454923D01*
X234366Y455041D01*
X234355Y455158D01*
X234326Y455272D01*
X234280Y455381D01*
X234217Y455481D01*
X234139Y455570D01*
X234048Y455645D01*
X233947Y455706D01*
X233837Y455749D01*
X233722Y455775D01*
X233604Y455783D01*
X233487Y455772D01*
X233377Y455745D01*
Y464000D01*
G37*
G36*
X227993D02*X233377D01*
Y455745D01*
X233372Y455743D01*
X233264Y455697D01*
X233164Y455634D01*
X233075Y455556D01*
X232999Y455465D01*
X232941Y455363D01*
X232740Y454917D01*
X232585Y454452D01*
X232474Y453975D01*
X232407Y453489D01*
X232384Y453000D01*
X232407Y452511D01*
X232474Y452025D01*
X232585Y451548D01*
X232740Y451083D01*
X232936Y450635D01*
X232996Y450532D01*
X233072Y450441D01*
X233161Y450363D01*
X233262Y450300D01*
X233371Y450253D01*
X233377Y450251D01*
Y436060D01*
X233372Y436058D01*
X233264Y436012D01*
X233164Y435949D01*
X233075Y435871D01*
X232999Y435780D01*
X232941Y435678D01*
X232740Y435232D01*
X232585Y434767D01*
X232474Y434290D01*
X232407Y433804D01*
X232384Y433315D01*
X232407Y432826D01*
X232474Y432340D01*
X232585Y431863D01*
X232740Y431398D01*
X232936Y430950D01*
X232996Y430847D01*
X233072Y430756D01*
X233161Y430678D01*
X233262Y430615D01*
X233371Y430568D01*
X233377Y430566D01*
Y344000D01*
X227993D01*
Y344487D01*
X228000Y344486D01*
X228706Y344542D01*
X229395Y344707D01*
X230049Y344978D01*
X230653Y345348D01*
X231192Y345808D01*
X231652Y346347D01*
X232022Y346951D01*
X232293Y347605D01*
X232458Y348294D01*
X232500Y349000D01*
X232458Y349706D01*
X232293Y350395D01*
X232022Y351049D01*
X231652Y351653D01*
X231192Y352192D01*
X230653Y352652D01*
X230049Y353022D01*
X229395Y353293D01*
X228706Y353458D01*
X228000Y353514D01*
X227993Y353513D01*
Y386866D01*
X228033Y386890D01*
X228344Y387156D01*
X228610Y387467D01*
X228824Y387816D01*
X228980Y388194D01*
X229076Y388592D01*
X229100Y389000D01*
X229076Y389408D01*
X228980Y389806D01*
X228824Y390184D01*
X228610Y390533D01*
X228344Y390844D01*
X228033Y391110D01*
X227993Y391134D01*
Y404487D01*
X228000Y404486D01*
X228706Y404542D01*
X229395Y404707D01*
X230049Y404978D01*
X230653Y405348D01*
X231192Y405808D01*
X231652Y406347D01*
X232022Y406951D01*
X232293Y407605D01*
X232458Y408294D01*
X232500Y409000D01*
X232458Y409706D01*
X232293Y410395D01*
X232022Y411049D01*
X231652Y411653D01*
X231192Y412192D01*
X230653Y412652D01*
X230049Y413022D01*
X229395Y413293D01*
X228706Y413458D01*
X228000Y413514D01*
X227993Y413513D01*
Y429830D01*
X228281Y430167D01*
X228720Y430884D01*
X229042Y431660D01*
X229238Y432477D01*
X229287Y433315D01*
X229238Y434153D01*
X229042Y434970D01*
X228720Y435746D01*
X228281Y436463D01*
X227993Y436800D01*
Y449515D01*
X228281Y449852D01*
X228720Y450569D01*
X229042Y451345D01*
X229238Y452162D01*
X229287Y453000D01*
X229238Y453838D01*
X229042Y454655D01*
X228720Y455431D01*
X228281Y456148D01*
X227993Y456485D01*
Y464000D01*
G37*
G36*
X219613Y386302D02*X219652Y386347D01*
X220022Y386951D01*
X220293Y387605D01*
X220316Y387700D01*
X224247D01*
X224390Y387467D01*
X224656Y387156D01*
X224967Y386890D01*
X225316Y386676D01*
X225694Y386520D01*
X226092Y386424D01*
X226500Y386392D01*
X226908Y386424D01*
X227306Y386520D01*
X227684Y386676D01*
X227993Y386866D01*
Y353513D01*
X227294Y353458D01*
X226605Y353293D01*
X225951Y353022D01*
X225347Y352652D01*
X224808Y352192D01*
X224348Y351653D01*
X223978Y351049D01*
X223707Y350395D01*
X223542Y349706D01*
X223486Y349000D01*
X223542Y348294D01*
X223707Y347605D01*
X223978Y346951D01*
X224348Y346347D01*
X224808Y345808D01*
X225347Y345348D01*
X225951Y344978D01*
X226605Y344707D01*
X227294Y344542D01*
X227993Y344487D01*
Y344000D01*
X219613D01*
Y344797D01*
X220049Y344978D01*
X220653Y345348D01*
X221192Y345808D01*
X221652Y346347D01*
X222022Y346951D01*
X222293Y347605D01*
X222458Y348294D01*
X222500Y349000D01*
X222458Y349706D01*
X222293Y350395D01*
X222022Y351049D01*
X221652Y351653D01*
X221192Y352192D01*
X220653Y352652D01*
X220049Y353022D01*
X219613Y353203D01*
Y356853D01*
X219656Y356860D01*
X219768Y356897D01*
X219873Y356952D01*
X219968Y357022D01*
X220051Y357106D01*
X220119Y357202D01*
X220170Y357308D01*
X220318Y357716D01*
X220422Y358137D01*
X220484Y358567D01*
X220505Y359000D01*
X220484Y359433D01*
X220422Y359863D01*
X220318Y360284D01*
X220175Y360694D01*
X220122Y360800D01*
X220053Y360896D01*
X219970Y360981D01*
X219875Y361051D01*
X219769Y361106D01*
X219657Y361143D01*
X219613Y361151D01*
Y366302D01*
X219652Y366347D01*
X220022Y366951D01*
X220293Y367605D01*
X220458Y368294D01*
X220500Y369000D01*
X220458Y369706D01*
X220293Y370395D01*
X220022Y371049D01*
X219652Y371653D01*
X219613Y371698D01*
Y376302D01*
X219652Y376347D01*
X220022Y376951D01*
X220293Y377605D01*
X220458Y378294D01*
X220500Y379000D01*
X220458Y379706D01*
X220293Y380395D01*
X220022Y381049D01*
X219652Y381653D01*
X219613Y381698D01*
Y386302D01*
G37*
G36*
Y371698D02*X219192Y372192D01*
X218653Y372652D01*
X218049Y373022D01*
X217993Y373045D01*
Y374955D01*
X218049Y374978D01*
X218653Y375348D01*
X219192Y375808D01*
X219613Y376302D01*
Y371698D01*
G37*
G36*
Y353203D02*X219395Y353293D01*
X218706Y353458D01*
X218000Y353514D01*
X217993Y353513D01*
Y355047D01*
X218051Y355125D01*
X218106Y355231D01*
X218143Y355343D01*
X218163Y355460D01*
X218164Y355579D01*
X218146Y355696D01*
X218110Y355809D01*
X218057Y355915D01*
X217993Y356005D01*
Y362001D01*
X218054Y362087D01*
X218107Y362192D01*
X218143Y362305D01*
X218160Y362421D01*
X218159Y362539D01*
X218140Y362656D01*
X218103Y362768D01*
X218048Y362873D01*
X217993Y362948D01*
Y364955D01*
X218049Y364978D01*
X218653Y365348D01*
X219192Y365808D01*
X219613Y366302D01*
Y361151D01*
X219540Y361163D01*
X219421Y361164D01*
X219304Y361146D01*
X219191Y361110D01*
X219085Y361057D01*
X218988Y360988D01*
X218904Y360905D01*
X218833Y360809D01*
X218779Y360704D01*
X218741Y360592D01*
X218722Y360475D01*
X218721Y360356D01*
X218739Y360239D01*
X218777Y360126D01*
X218876Y359855D01*
X218944Y359575D01*
X218986Y359289D01*
X219000Y359000D01*
X218986Y358711D01*
X218944Y358425D01*
X218876Y358145D01*
X218780Y357872D01*
X218742Y357761D01*
X218725Y357644D01*
X218725Y357526D01*
X218745Y357409D01*
X218782Y357297D01*
X218836Y357193D01*
X218906Y357098D01*
X218991Y357015D01*
X219087Y356946D01*
X219192Y356893D01*
X219305Y356857D01*
X219421Y356840D01*
X219539Y356841D01*
X219613Y356853D01*
Y353203D01*
G37*
G36*
Y344000D02*X217993D01*
Y344487D01*
X218000Y344486D01*
X218706Y344542D01*
X219395Y344707D01*
X219613Y344797D01*
Y344000D01*
G37*
G36*
X217993Y384955D02*X218049Y384978D01*
X218653Y385348D01*
X219192Y385808D01*
X219613Y386302D01*
Y381698D01*
X219192Y382192D01*
X218653Y382652D01*
X218049Y383022D01*
X217993Y383045D01*
Y384955D01*
G37*
G36*
Y464000D02*X227993D01*
Y456485D01*
X227735Y456787D01*
X227096Y457332D01*
X226380Y457771D01*
X225604Y458093D01*
X224787Y458289D01*
X223949Y458355D01*
X223111Y458289D01*
X222294Y458093D01*
X221518Y457771D01*
X220801Y457332D01*
X220162Y456787D01*
X219616Y456148D01*
X219177Y455431D01*
X218856Y454655D01*
X218660Y453838D01*
X218594Y453000D01*
X218660Y452162D01*
X218856Y451345D01*
X219177Y450569D01*
X219616Y449852D01*
X220162Y449213D01*
X220801Y448668D01*
X221518Y448229D01*
X222294Y447907D01*
X223111Y447711D01*
X223949Y447645D01*
X224787Y447711D01*
X225604Y447907D01*
X226380Y448229D01*
X227096Y448668D01*
X227735Y449213D01*
X227993Y449515D01*
Y436800D01*
X227735Y437102D01*
X227096Y437647D01*
X226380Y438086D01*
X225604Y438408D01*
X224787Y438604D01*
X223949Y438670D01*
X223111Y438604D01*
X222294Y438408D01*
X221518Y438086D01*
X220801Y437647D01*
X220162Y437102D01*
X219616Y436463D01*
X219177Y435746D01*
X218856Y434970D01*
X218660Y434153D01*
X218594Y433315D01*
X218660Y432477D01*
X218856Y431660D01*
X219177Y430884D01*
X219616Y430167D01*
X220162Y429528D01*
X220801Y428983D01*
X221518Y428544D01*
X222294Y428222D01*
X223111Y428026D01*
X223949Y427960D01*
X224787Y428026D01*
X225604Y428222D01*
X226380Y428544D01*
X227096Y428983D01*
X227735Y429528D01*
X227993Y429830D01*
Y413513D01*
X227294Y413458D01*
X226605Y413293D01*
X225951Y413022D01*
X225347Y412652D01*
X224808Y412192D01*
X224348Y411653D01*
X223978Y411049D01*
X223707Y410395D01*
X223542Y409706D01*
X223486Y409000D01*
X223542Y408294D01*
X223707Y407605D01*
X223978Y406951D01*
X224348Y406347D01*
X224808Y405808D01*
X225347Y405348D01*
X225951Y404978D01*
X226605Y404707D01*
X227294Y404542D01*
X227993Y404487D01*
Y391134D01*
X227684Y391324D01*
X227306Y391480D01*
X226908Y391576D01*
X226500Y391608D01*
X226092Y391576D01*
X225694Y391480D01*
X225316Y391324D01*
X224967Y391110D01*
X224656Y390844D01*
X224390Y390533D01*
X224247Y390300D01*
X220316D01*
X220293Y390395D01*
X220022Y391049D01*
X219652Y391653D01*
X219192Y392192D01*
X218653Y392652D01*
X218049Y393022D01*
X217993Y393045D01*
Y396673D01*
X218400Y397021D01*
X218830Y397524D01*
X219175Y398087D01*
X219428Y398698D01*
X219582Y399341D01*
X219621Y400000D01*
X219582Y400659D01*
X219428Y401302D01*
X219175Y401913D01*
X218830Y402476D01*
X218400Y402979D01*
X217993Y403327D01*
Y404487D01*
X218000Y404486D01*
X218706Y404542D01*
X219395Y404707D01*
X220049Y404978D01*
X220653Y405348D01*
X221192Y405808D01*
X221652Y406347D01*
X222022Y406951D01*
X222293Y407605D01*
X222458Y408294D01*
X222500Y409000D01*
X222458Y409706D01*
X222293Y410395D01*
X222022Y411049D01*
X221652Y411653D01*
X221192Y412192D01*
X220653Y412652D01*
X220049Y413022D01*
X219395Y413293D01*
X218706Y413458D01*
X218000Y413514D01*
X217993Y413513D01*
Y464000D01*
G37*
G36*
X212387Y366302D02*X212808Y365808D01*
X213347Y365348D01*
X213951Y364978D01*
X214605Y364707D01*
X215294Y364542D01*
X216000Y364486D01*
X216706Y364542D01*
X217395Y364707D01*
X217993Y364955D01*
Y362948D01*
X217978Y362968D01*
X217894Y363051D01*
X217798Y363119D01*
X217692Y363170D01*
X217284Y363318D01*
X216863Y363422D01*
X216433Y363484D01*
X216000Y363505D01*
X215567Y363484D01*
X215137Y363422D01*
X214716Y363318D01*
X214306Y363175D01*
X214200Y363122D01*
X214104Y363053D01*
X214019Y362970D01*
X213949Y362875D01*
X213894Y362769D01*
X213857Y362657D01*
X213837Y362540D01*
X213836Y362421D01*
X213854Y362304D01*
X213890Y362191D01*
X213943Y362085D01*
X214012Y361988D01*
X214095Y361904D01*
X214191Y361833D01*
X214296Y361779D01*
X214408Y361741D01*
X214525Y361722D01*
X214644Y361721D01*
X214761Y361739D01*
X214874Y361777D01*
X215145Y361876D01*
X215425Y361944D01*
X215711Y361986D01*
X216000Y362000D01*
X216289Y361986D01*
X216575Y361944D01*
X216855Y361876D01*
X217128Y361780D01*
X217239Y361742D01*
X217356Y361725D01*
X217474Y361725D01*
X217591Y361745D01*
X217703Y361782D01*
X217807Y361836D01*
X217902Y361906D01*
X217985Y361991D01*
X217993Y362001D01*
Y356005D01*
X217988Y356012D01*
X217905Y356096D01*
X217809Y356167D01*
X217704Y356221D01*
X217592Y356259D01*
X217475Y356278D01*
X217356Y356279D01*
X217239Y356261D01*
X217126Y356223D01*
X216855Y356124D01*
X216575Y356056D01*
X216289Y356014D01*
X216000Y356000D01*
X215711Y356014D01*
X215425Y356056D01*
X215145Y356124D01*
X214872Y356220D01*
X214761Y356258D01*
X214644Y356275D01*
X214526Y356275D01*
X214409Y356255D01*
X214297Y356218D01*
X214193Y356164D01*
X214098Y356094D01*
X214015Y356009D01*
X213946Y355913D01*
X213893Y355808D01*
X213857Y355695D01*
X213840Y355579D01*
X213841Y355461D01*
X213860Y355344D01*
X213897Y355232D01*
X213952Y355127D01*
X214022Y355032D01*
X214106Y354949D01*
X214202Y354881D01*
X214308Y354830D01*
X214716Y354682D01*
X215137Y354578D01*
X215567Y354516D01*
X216000Y354495D01*
X216433Y354516D01*
X216863Y354578D01*
X217284Y354682D01*
X217694Y354825D01*
X217800Y354878D01*
X217896Y354947D01*
X217981Y355030D01*
X217993Y355047D01*
Y353513D01*
X217294Y353458D01*
X216605Y353293D01*
X215951Y353022D01*
X215347Y352652D01*
X214808Y352192D01*
X214348Y351653D01*
X213978Y351049D01*
X213707Y350395D01*
X213542Y349706D01*
X213486Y349000D01*
X213542Y348294D01*
X213707Y347605D01*
X213978Y346951D01*
X214348Y346347D01*
X214808Y345808D01*
X215347Y345348D01*
X215951Y344978D01*
X216605Y344707D01*
X217294Y344542D01*
X217993Y344487D01*
Y344000D01*
X212387D01*
Y347996D01*
X212458Y348294D01*
X212500Y349000D01*
X212458Y349706D01*
X212387Y350004D01*
Y356849D01*
X212460Y356837D01*
X212579Y356836D01*
X212696Y356854D01*
X212809Y356890D01*
X212915Y356943D01*
X213012Y357012D01*
X213096Y357095D01*
X213167Y357191D01*
X213221Y357296D01*
X213259Y357408D01*
X213278Y357525D01*
X213279Y357644D01*
X213261Y357761D01*
X213223Y357874D01*
X213124Y358145D01*
X213056Y358425D01*
X213014Y358711D01*
X213000Y359000D01*
X213014Y359289D01*
X213056Y359575D01*
X213124Y359855D01*
X213220Y360128D01*
X213258Y360239D01*
X213275Y360356D01*
X213275Y360474D01*
X213255Y360591D01*
X213218Y360703D01*
X213164Y360807D01*
X213094Y360902D01*
X213009Y360985D01*
X212913Y361054D01*
X212808Y361107D01*
X212695Y361143D01*
X212579Y361160D01*
X212461Y361159D01*
X212387Y361147D01*
Y366302D01*
G37*
G36*
Y376302D02*X212808Y375808D01*
X213347Y375348D01*
X213951Y374978D01*
X214605Y374707D01*
X215294Y374542D01*
X216000Y374486D01*
X216706Y374542D01*
X217395Y374707D01*
X217993Y374955D01*
Y373045D01*
X217395Y373293D01*
X216706Y373458D01*
X216000Y373514D01*
X215294Y373458D01*
X214605Y373293D01*
X213951Y373022D01*
X213347Y372652D01*
X212808Y372192D01*
X212387Y371698D01*
Y376302D01*
G37*
G36*
Y386302D02*X212808Y385808D01*
X213347Y385348D01*
X213951Y384978D01*
X214605Y384707D01*
X215294Y384542D01*
X216000Y384486D01*
X216706Y384542D01*
X217395Y384707D01*
X217993Y384955D01*
Y383045D01*
X217395Y383293D01*
X216706Y383458D01*
X216000Y383514D01*
X215294Y383458D01*
X214605Y383293D01*
X213951Y383022D01*
X213347Y382652D01*
X212808Y382192D01*
X212387Y381698D01*
Y386302D01*
G37*
G36*
Y397086D02*X212442Y397021D01*
X212945Y396592D01*
X213509Y396246D01*
X214119Y395993D01*
X214762Y395839D01*
X215421Y395787D01*
X216080Y395839D01*
X216723Y395993D01*
X217334Y396246D01*
X217898Y396592D01*
X217993Y396673D01*
Y393045D01*
X217395Y393293D01*
X216706Y393458D01*
X216000Y393514D01*
X215294Y393458D01*
X214605Y393293D01*
X213951Y393022D01*
X213347Y392652D01*
X212808Y392192D01*
X212387Y391698D01*
Y397086D01*
G37*
G36*
Y464000D02*X217993D01*
Y413513D01*
X217294Y413458D01*
X216605Y413293D01*
X215951Y413022D01*
X215347Y412652D01*
X214808Y412192D01*
X214348Y411653D01*
X213978Y411049D01*
X213707Y410395D01*
X213542Y409706D01*
X213486Y409000D01*
X213542Y408294D01*
X213707Y407605D01*
X213978Y406951D01*
X214348Y406347D01*
X214808Y405808D01*
X215347Y405348D01*
X215951Y404978D01*
X216605Y404707D01*
X217294Y404542D01*
X217993Y404487D01*
Y403327D01*
X217898Y403408D01*
X217334Y403754D01*
X216723Y404007D01*
X216080Y404161D01*
X215421Y404213D01*
X214762Y404161D01*
X214119Y404007D01*
X213509Y403754D01*
X212945Y403408D01*
X212442Y402979D01*
X212387Y402914D01*
Y407996D01*
X212458Y408294D01*
X212500Y409000D01*
X212458Y409706D01*
X212387Y410004D01*
Y428455D01*
X212600Y428544D01*
X213317Y428983D01*
X213956Y429528D01*
X214502Y430167D01*
X214941Y430884D01*
X215262Y431660D01*
X215458Y432477D01*
X215508Y433315D01*
X215458Y434153D01*
X215262Y434970D01*
X214941Y435746D01*
X214502Y436463D01*
X213956Y437102D01*
X213317Y437647D01*
X212600Y438086D01*
X212387Y438175D01*
Y448140D01*
X212600Y448229D01*
X213317Y448668D01*
X213956Y449213D01*
X214502Y449852D01*
X214941Y450569D01*
X215262Y451345D01*
X215458Y452162D01*
X215508Y453000D01*
X215458Y453838D01*
X215262Y454655D01*
X214941Y455431D01*
X214502Y456148D01*
X213956Y456787D01*
X213317Y457332D01*
X212600Y457771D01*
X212387Y457860D01*
Y464000D01*
G37*
G36*
Y438175D02*X211824Y438408D01*
X211007Y438604D01*
X210169Y438670D01*
X209332Y438604D01*
X208924Y438506D01*
Y447809D01*
X209332Y447711D01*
X210169Y447645D01*
X211007Y447711D01*
X211824Y447907D01*
X212387Y448140D01*
Y438175D01*
G37*
G36*
Y410004D02*X212293Y410395D01*
X212022Y411049D01*
X211652Y411653D01*
X211192Y412192D01*
X210653Y412652D01*
X210049Y413022D01*
X209395Y413293D01*
X208924Y413406D01*
Y428124D01*
X209332Y428026D01*
X210169Y427960D01*
X211007Y428026D01*
X211824Y428222D01*
X212387Y428455D01*
Y410004D01*
G37*
G36*
Y344000D02*X208924D01*
Y344594D01*
X209395Y344707D01*
X210049Y344978D01*
X210653Y345348D01*
X211192Y345808D01*
X211652Y346347D01*
X212022Y346951D01*
X212293Y347605D01*
X212387Y347996D01*
Y344000D01*
G37*
G36*
Y402914D02*X212013Y402476D01*
X211667Y401913D01*
X211415Y401302D01*
X211260Y400659D01*
X211208Y400000D01*
X211260Y399341D01*
X211415Y398698D01*
X211667Y398087D01*
X212013Y397524D01*
X212387Y397086D01*
Y391698D01*
X212348Y391653D01*
X211978Y391049D01*
X211707Y390395D01*
X211542Y389706D01*
X211486Y389000D01*
X211542Y388294D01*
X211707Y387605D01*
X211978Y386951D01*
X212348Y386347D01*
X212387Y386302D01*
Y381698D01*
X212348Y381653D01*
X211978Y381049D01*
X211707Y380395D01*
X211542Y379706D01*
X211486Y379000D01*
X211542Y378294D01*
X211707Y377605D01*
X211978Y376951D01*
X212348Y376347D01*
X212387Y376302D01*
Y371698D01*
X212348Y371653D01*
X211978Y371049D01*
X211707Y370395D01*
X211542Y369706D01*
X211486Y369000D01*
X211542Y368294D01*
X211707Y367605D01*
X211978Y366951D01*
X212348Y366347D01*
X212387Y366302D01*
Y361147D01*
X212344Y361140D01*
X212232Y361103D01*
X212127Y361048D01*
X212032Y360978D01*
X211949Y360894D01*
X211881Y360798D01*
X211830Y360692D01*
X211682Y360284D01*
X211578Y359863D01*
X211516Y359433D01*
X211495Y359000D01*
X211516Y358567D01*
X211578Y358137D01*
X211682Y357716D01*
X211825Y357306D01*
X211878Y357200D01*
X211947Y357104D01*
X212030Y357019D01*
X212125Y356949D01*
X212231Y356894D01*
X212343Y356857D01*
X212387Y356849D01*
Y350004D01*
X212293Y350395D01*
X212022Y351049D01*
X211652Y351653D01*
X211192Y352192D01*
X210653Y352652D01*
X210049Y353022D01*
X209395Y353293D01*
X208924Y353406D01*
Y398071D01*
X209025Y398092D01*
X209136Y398133D01*
X209239Y398191D01*
X209331Y398264D01*
X209411Y398351D01*
X209476Y398449D01*
X209523Y398557D01*
X209638Y398907D01*
X209718Y399267D01*
X209767Y399632D01*
X209783Y400000D01*
X209767Y400368D01*
X209718Y400733D01*
X209638Y401093D01*
X209527Y401444D01*
X209479Y401552D01*
X209413Y401651D01*
X209333Y401738D01*
X209240Y401811D01*
X209137Y401870D01*
X209026Y401911D01*
X208924Y401932D01*
Y404594D01*
X209395Y404707D01*
X210049Y404978D01*
X210653Y405348D01*
X211192Y405808D01*
X211652Y406347D01*
X212022Y406951D01*
X212293Y407605D01*
X212387Y407996D01*
Y402914D01*
G37*
G36*
X208924Y464000D02*X212387D01*
Y457860D01*
X211824Y458093D01*
X211007Y458289D01*
X210169Y458355D01*
X209332Y458289D01*
X208924Y458191D01*
Y464000D01*
G37*
G36*
Y438506D02*X208514Y438408D01*
X207993Y438192D01*
Y448123D01*
X208514Y447907D01*
X208924Y447809D01*
Y438506D01*
G37*
G36*
Y413406D02*X208706Y413458D01*
X208000Y413514D01*
X207993Y413513D01*
Y428438D01*
X208514Y428222D01*
X208924Y428124D01*
Y413406D01*
G37*
G36*
Y353406D02*X208706Y353458D01*
X208000Y353514D01*
X207993Y353513D01*
Y404487D01*
X208000Y404486D01*
X208706Y404542D01*
X208924Y404594D01*
Y401932D01*
X208910Y401934D01*
X208791Y401939D01*
X208674Y401926D01*
X208560Y401894D01*
X208452Y401845D01*
X208353Y401779D01*
X208266Y401699D01*
X208192Y401606D01*
X208134Y401503D01*
X208093Y401392D01*
X208069Y401276D01*
X208064Y401157D01*
X208078Y401040D01*
X208112Y400926D01*
X208186Y400702D01*
X208237Y400471D01*
X208268Y400236D01*
X208279Y400000D01*
X208268Y399764D01*
X208237Y399529D01*
X208186Y399298D01*
X208114Y399073D01*
X208081Y398960D01*
X208067Y398842D01*
X208072Y398724D01*
X208095Y398609D01*
X208137Y398498D01*
X208195Y398395D01*
X208268Y398303D01*
X208355Y398223D01*
X208453Y398158D01*
X208560Y398108D01*
X208674Y398077D01*
X208791Y398063D01*
X208909Y398068D01*
X208924Y398071D01*
Y353406D01*
G37*
G36*
Y344000D02*X207993D01*
Y344487D01*
X208000Y344486D01*
X208706Y344542D01*
X208924Y344594D01*
Y344000D01*
G37*
G36*
X207993Y464000D02*X208924D01*
Y458191D01*
X208514Y458093D01*
X207993Y457877D01*
Y464000D01*
G37*
G36*
X205580Y345205D02*X205951Y344978D01*
X206605Y344707D01*
X207294Y344542D01*
X207993Y344487D01*
Y344000D01*
X205580D01*
Y345205D01*
G37*
G36*
Y405205D02*X205951Y404978D01*
X206605Y404707D01*
X207294Y404542D01*
X207993Y404487D01*
Y353513D01*
X207294Y353458D01*
X206605Y353293D01*
X205951Y353022D01*
X205580Y352795D01*
Y395796D01*
X205947Y395812D01*
X206312Y395860D01*
X206672Y395940D01*
X207023Y396052D01*
X207131Y396100D01*
X207229Y396166D01*
X207317Y396246D01*
X207390Y396339D01*
X207448Y396442D01*
X207490Y396553D01*
X207513Y396669D01*
X207518Y396787D01*
X207505Y396905D01*
X207473Y397019D01*
X207423Y397127D01*
X207358Y397226D01*
X207278Y397313D01*
X207185Y397386D01*
X207082Y397445D01*
X206971Y397486D01*
X206855Y397509D01*
X206736Y397514D01*
X206619Y397501D01*
X206505Y397467D01*
X206281Y397393D01*
X206050Y397341D01*
X205815Y397310D01*
X205580Y397300D01*
Y402700D01*
X205815Y402690D01*
X206050Y402659D01*
X206281Y402607D01*
X206506Y402536D01*
X206619Y402502D01*
X206736Y402488D01*
X206854Y402493D01*
X206970Y402517D01*
X207081Y402558D01*
X207183Y402616D01*
X207276Y402689D01*
X207356Y402776D01*
X207421Y402874D01*
X207470Y402982D01*
X207502Y403095D01*
X207516Y403213D01*
X207511Y403331D01*
X207487Y403446D01*
X207446Y403557D01*
X207388Y403660D01*
X207315Y403752D01*
X207228Y403832D01*
X207129Y403898D01*
X207021Y403944D01*
X206672Y404060D01*
X206312Y404140D01*
X205947Y404188D01*
X205580Y404204D01*
Y405205D01*
G37*
G36*
Y430587D02*X205837Y430167D01*
X206383Y429528D01*
X207022Y428983D01*
X207738Y428544D01*
X207993Y428438D01*
Y413513D01*
X207294Y413458D01*
X206605Y413293D01*
X205951Y413022D01*
X205580Y412795D01*
Y430587D01*
G37*
G36*
Y450272D02*X205837Y449852D01*
X206383Y449213D01*
X207022Y448668D01*
X207738Y448229D01*
X207993Y448123D01*
Y438192D01*
X207738Y438086D01*
X207022Y437647D01*
X206383Y437102D01*
X205837Y436463D01*
X205580Y436043D01*
Y450272D01*
G37*
G36*
Y464000D02*X207993D01*
Y457877D01*
X207738Y457771D01*
X207022Y457332D01*
X206383Y456787D01*
X205837Y456148D01*
X205580Y455728D01*
Y464000D01*
G37*
G36*
X202234D02*X205580D01*
Y455728D01*
X205398Y455431D01*
X205076Y454655D01*
X204880Y453838D01*
X204814Y453000D01*
X204880Y452162D01*
X205076Y451345D01*
X205398Y450569D01*
X205580Y450272D01*
Y436043D01*
X205398Y435746D01*
X205076Y434970D01*
X204880Y434153D01*
X204814Y433315D01*
X204880Y432477D01*
X205076Y431660D01*
X205398Y430884D01*
X205580Y430587D01*
Y412795D01*
X205347Y412652D01*
X204808Y412192D01*
X204348Y411653D01*
X203978Y411049D01*
X203707Y410395D01*
X203542Y409706D01*
X203486Y409000D01*
X203542Y408294D01*
X203707Y407605D01*
X203978Y406951D01*
X204348Y406347D01*
X204808Y405808D01*
X205347Y405348D01*
X205580Y405205D01*
Y404204D01*
X205579Y404204D01*
X205211Y404188D01*
X204846Y404140D01*
X204486Y404060D01*
X204135Y403948D01*
X204027Y403900D01*
X203928Y403834D01*
X203841Y403754D01*
X203767Y403661D01*
X203709Y403558D01*
X203668Y403447D01*
X203644Y403331D01*
X203639Y403213D01*
X203653Y403095D01*
X203685Y402981D01*
X203734Y402873D01*
X203800Y402774D01*
X203880Y402687D01*
X203973Y402614D01*
X204076Y402555D01*
X204187Y402514D01*
X204303Y402491D01*
X204421Y402486D01*
X204539Y402499D01*
X204652Y402533D01*
X204877Y402607D01*
X205108Y402659D01*
X205342Y402690D01*
X205579Y402700D01*
X205580Y402700D01*
Y397300D01*
X205579Y397300D01*
X205342Y397310D01*
X205108Y397341D01*
X204877Y397393D01*
X204651Y397464D01*
X204538Y397498D01*
X204421Y397512D01*
X204303Y397507D01*
X204188Y397483D01*
X204077Y397442D01*
X203974Y397384D01*
X203882Y397311D01*
X203802Y397224D01*
X203736Y397126D01*
X203687Y397018D01*
X203655Y396905D01*
X203642Y396787D01*
X203647Y396669D01*
X203670Y396554D01*
X203711Y396443D01*
X203769Y396340D01*
X203843Y396248D01*
X203930Y396168D01*
X204028Y396102D01*
X204136Y396056D01*
X204486Y395940D01*
X204846Y395860D01*
X205211Y395812D01*
X205579Y395796D01*
X205580Y395796D01*
Y352795D01*
X205347Y352652D01*
X204808Y352192D01*
X204348Y351653D01*
X203978Y351049D01*
X203707Y350395D01*
X203542Y349706D01*
X203486Y349000D01*
X203542Y348294D01*
X203707Y347605D01*
X203978Y346951D01*
X204348Y346347D01*
X204808Y345808D01*
X205347Y345348D01*
X205580Y345205D01*
Y344000D01*
X202234D01*
Y347463D01*
X202293Y347605D01*
X202458Y348294D01*
X202500Y349000D01*
X202458Y349706D01*
X202293Y350395D01*
X202234Y350537D01*
Y398068D01*
X202248Y398066D01*
X202366Y398061D01*
X202484Y398074D01*
X202598Y398106D01*
X202706Y398155D01*
X202804Y398221D01*
X202892Y398301D01*
X202965Y398394D01*
X203023Y398497D01*
X203065Y398608D01*
X203088Y398724D01*
X203093Y398843D01*
X203079Y398960D01*
X203045Y399074D01*
X202972Y399298D01*
X202920Y399529D01*
X202889Y399764D01*
X202879Y400000D01*
X202889Y400236D01*
X202920Y400471D01*
X202972Y400702D01*
X203043Y400927D01*
X203077Y401040D01*
X203090Y401158D01*
X203085Y401276D01*
X203062Y401391D01*
X203021Y401502D01*
X202963Y401605D01*
X202890Y401697D01*
X202803Y401777D01*
X202704Y401842D01*
X202597Y401892D01*
X202483Y401923D01*
X202366Y401937D01*
X202248Y401932D01*
X202234Y401929D01*
Y407463D01*
X202293Y407605D01*
X202458Y408294D01*
X202500Y409000D01*
X202458Y409706D01*
X202293Y410395D01*
X202234Y410537D01*
Y417669D01*
X202324Y417816D01*
X202480Y418194D01*
X202576Y418592D01*
X202600Y419000D01*
X202576Y419408D01*
X202480Y419806D01*
X202324Y420184D01*
X202234Y420331D01*
Y464000D01*
G37*
G36*
Y410537D02*X202022Y411049D01*
X201652Y411653D01*
X201192Y412192D01*
X200653Y412652D01*
X200049Y413022D01*
X199395Y413293D01*
X199300Y413316D01*
Y416462D01*
X199326Y416488D01*
X199592Y416424D01*
X200000Y416392D01*
X200408Y416424D01*
X200806Y416520D01*
X201184Y416676D01*
X201533Y416890D01*
X201844Y417156D01*
X202110Y417467D01*
X202234Y417669D01*
Y410537D01*
G37*
G36*
Y350537D02*X202022Y351049D01*
X201652Y351653D01*
X201192Y352192D01*
X200653Y352652D01*
X200049Y353022D01*
X199395Y353293D01*
X198706Y353458D01*
X198043Y353510D01*
Y398074D01*
X198134Y398063D01*
X198252Y398068D01*
X198368Y398092D01*
X198478Y398133D01*
X198581Y398191D01*
X198674Y398264D01*
X198753Y398351D01*
X198819Y398449D01*
X198866Y398557D01*
X198981Y398907D01*
X199061Y399267D01*
X199109Y399632D01*
X199125Y400000D01*
X199109Y400368D01*
X199061Y400733D01*
X198981Y401093D01*
X198870Y401444D01*
X198821Y401552D01*
X198756Y401651D01*
X198675Y401738D01*
X198583Y401811D01*
X198479Y401870D01*
X198368Y401911D01*
X198252Y401934D01*
X198134Y401939D01*
X198043Y401929D01*
Y404490D01*
X198706Y404542D01*
X199395Y404707D01*
X200049Y404978D01*
X200653Y405348D01*
X201192Y405808D01*
X201652Y406347D01*
X202022Y406951D01*
X202234Y407463D01*
Y401929D01*
X202132Y401908D01*
X202022Y401867D01*
X201919Y401809D01*
X201826Y401736D01*
X201747Y401649D01*
X201681Y401551D01*
X201634Y401443D01*
X201519Y401093D01*
X201439Y400733D01*
X201391Y400368D01*
X201375Y400000D01*
X201391Y399632D01*
X201439Y399267D01*
X201519Y398907D01*
X201630Y398556D01*
X201679Y398448D01*
X201744Y398349D01*
X201825Y398262D01*
X201917Y398189D01*
X202021Y398130D01*
X202132Y398089D01*
X202234Y398068D01*
Y350537D01*
G37*
G36*
Y344000D02*X198043D01*
Y344490D01*
X198706Y344542D01*
X199395Y344707D01*
X200049Y344978D01*
X200653Y345348D01*
X201192Y345808D01*
X201652Y346347D01*
X202022Y346951D01*
X202234Y347463D01*
Y344000D01*
G37*
G36*
X198043Y464000D02*X202234D01*
Y420331D01*
X202110Y420533D01*
X201844Y420844D01*
X201533Y421110D01*
X201184Y421324D01*
X200806Y421480D01*
X200408Y421576D01*
X200000Y421608D01*
X199592Y421576D01*
X199194Y421480D01*
X198816Y421324D01*
X198467Y421110D01*
X198156Y420844D01*
X198043Y420712D01*
Y428222D01*
X198045Y428222D01*
X198821Y428544D01*
X199537Y428983D01*
X200176Y429528D01*
X200722Y430167D01*
X201161Y430884D01*
X201483Y431660D01*
X201679Y432477D01*
X201728Y433315D01*
X201679Y434153D01*
X201483Y434970D01*
X201161Y435746D01*
X200722Y436463D01*
X200176Y437102D01*
X199537Y437647D01*
X198821Y438086D01*
X198045Y438408D01*
X198043Y438408D01*
Y447907D01*
X198045Y447907D01*
X198821Y448229D01*
X199537Y448668D01*
X200176Y449213D01*
X200722Y449852D01*
X201161Y450569D01*
X201483Y451345D01*
X201679Y452162D01*
X201728Y453000D01*
X201679Y453838D01*
X201483Y454655D01*
X201161Y455431D01*
X200722Y456148D01*
X200176Y456787D01*
X199537Y457332D01*
X198821Y457771D01*
X198045Y458093D01*
X198043Y458093D01*
Y464000D01*
G37*
G36*
X194923Y345711D02*X195347Y345348D01*
X195951Y344978D01*
X196605Y344707D01*
X197294Y344542D01*
X198000Y344486D01*
X198043Y344490D01*
Y344000D01*
X194923D01*
Y345711D01*
G37*
G36*
Y405711D02*X195347Y405348D01*
X195951Y404978D01*
X196605Y404707D01*
X197294Y404542D01*
X198000Y404486D01*
X198043Y404490D01*
Y401929D01*
X198016Y401926D01*
X197902Y401894D01*
X197794Y401845D01*
X197696Y401779D01*
X197608Y401699D01*
X197535Y401606D01*
X197477Y401503D01*
X197435Y401392D01*
X197412Y401276D01*
X197407Y401157D01*
X197421Y401040D01*
X197455Y400926D01*
X197528Y400702D01*
X197580Y400471D01*
X197611Y400236D01*
X197621Y400000D01*
X197611Y399764D01*
X197580Y399529D01*
X197528Y399298D01*
X197457Y399073D01*
X197423Y398960D01*
X197410Y398842D01*
X197415Y398724D01*
X197438Y398609D01*
X197479Y398498D01*
X197537Y398395D01*
X197610Y398303D01*
X197697Y398223D01*
X197796Y398158D01*
X197903Y398108D01*
X198017Y398077D01*
X198043Y398074D01*
Y353510D01*
X198000Y353514D01*
X197294Y353458D01*
X196605Y353293D01*
X195951Y353022D01*
X195347Y352652D01*
X194923Y352289D01*
Y395796D01*
X195289Y395812D01*
X195654Y395860D01*
X196014Y395940D01*
X196365Y396052D01*
X196473Y396100D01*
X196572Y396166D01*
X196659Y396246D01*
X196733Y396339D01*
X196791Y396442D01*
X196832Y396553D01*
X196856Y396669D01*
X196861Y396787D01*
X196847Y396905D01*
X196815Y397019D01*
X196766Y397127D01*
X196700Y397226D01*
X196620Y397313D01*
X196527Y397386D01*
X196424Y397445D01*
X196313Y397486D01*
X196197Y397509D01*
X196079Y397514D01*
X195961Y397501D01*
X195848Y397467D01*
X195623Y397393D01*
X195392Y397341D01*
X195158Y397310D01*
X194923Y397300D01*
Y402700D01*
X195158Y402690D01*
X195392Y402659D01*
X195623Y402607D01*
X195849Y402536D01*
X195962Y402502D01*
X196079Y402488D01*
X196197Y402493D01*
X196312Y402517D01*
X196423Y402558D01*
X196526Y402616D01*
X196618Y402689D01*
X196698Y402776D01*
X196764Y402874D01*
X196813Y402982D01*
X196845Y403095D01*
X196858Y403213D01*
X196853Y403331D01*
X196830Y403446D01*
X196789Y403557D01*
X196731Y403660D01*
X196657Y403752D01*
X196570Y403832D01*
X196472Y403898D01*
X196364Y403944D01*
X196014Y404060D01*
X195654Y404140D01*
X195289Y404188D01*
X194923Y404204D01*
Y405711D01*
G37*
G36*
Y420248D02*X195110Y420467D01*
X195324Y420816D01*
X195480Y421194D01*
X195576Y421592D01*
X195600Y422000D01*
X195576Y422408D01*
X195512Y422674D01*
X197273Y424434D01*
X197312Y424468D01*
X197445Y424623D01*
X197445Y424623D01*
X197552Y424798D01*
X197630Y424987D01*
X197678Y425186D01*
X197694Y425390D01*
X197690Y425441D01*
Y428137D01*
X198043Y428222D01*
Y420712D01*
X197890Y420533D01*
X197676Y420184D01*
X197520Y419806D01*
X197424Y419408D01*
X197392Y419000D01*
X197424Y418592D01*
X197488Y418326D01*
X197117Y417955D01*
X197078Y417922D01*
X196945Y417766D01*
X196838Y417592D01*
X196760Y417403D01*
X196712Y417204D01*
X196712Y417204D01*
X196696Y417000D01*
X196700Y416949D01*
Y413316D01*
X196605Y413293D01*
X195951Y413022D01*
X195347Y412652D01*
X194923Y412289D01*
Y420248D01*
G37*
G36*
Y428177D02*X195090Y428137D01*
Y425928D01*
X194923Y425761D01*
Y428177D01*
G37*
G36*
Y447862D02*X195552Y447711D01*
X196390Y447645D01*
X197227Y447711D01*
X198043Y447907D01*
Y438408D01*
X197227Y438604D01*
X196390Y438670D01*
X195552Y438604D01*
X194923Y438453D01*
Y447862D01*
G37*
G36*
Y464000D02*X198043D01*
Y458093D01*
X197227Y458289D01*
X196390Y458355D01*
X195552Y458289D01*
X194923Y458138D01*
Y464000D01*
G37*
G36*
X191576Y419823D02*X191816Y419676D01*
X192194Y419520D01*
X192592Y419424D01*
X193000Y419392D01*
X193408Y419424D01*
X193806Y419520D01*
X194184Y419676D01*
X194533Y419890D01*
X194844Y420156D01*
X194923Y420248D01*
Y412289D01*
X194808Y412192D01*
X194348Y411653D01*
X193978Y411049D01*
X193707Y410395D01*
X193542Y409706D01*
X193486Y409000D01*
X193542Y408294D01*
X193707Y407605D01*
X193978Y406951D01*
X194348Y406347D01*
X194808Y405808D01*
X194923Y405711D01*
Y404204D01*
X194921Y404204D01*
X194553Y404188D01*
X194188Y404140D01*
X193828Y404060D01*
X193477Y403948D01*
X193369Y403900D01*
X193271Y403834D01*
X193183Y403754D01*
X193110Y403661D01*
X193052Y403558D01*
X193010Y403447D01*
X192987Y403331D01*
X192982Y403213D01*
X192995Y403095D01*
X193027Y402981D01*
X193077Y402873D01*
X193142Y402774D01*
X193222Y402687D01*
X193315Y402614D01*
X193418Y402555D01*
X193529Y402514D01*
X193645Y402491D01*
X193764Y402486D01*
X193881Y402499D01*
X193995Y402533D01*
X194219Y402607D01*
X194450Y402659D01*
X194685Y402690D01*
X194921Y402700D01*
X194923Y402700D01*
Y397300D01*
X194921Y397300D01*
X194685Y397310D01*
X194450Y397341D01*
X194219Y397393D01*
X193994Y397464D01*
X193881Y397498D01*
X193764Y397512D01*
X193646Y397507D01*
X193530Y397483D01*
X193419Y397442D01*
X193317Y397384D01*
X193224Y397311D01*
X193144Y397224D01*
X193079Y397126D01*
X193030Y397018D01*
X192998Y396905D01*
X192984Y396787D01*
X192989Y396669D01*
X193013Y396554D01*
X193054Y396443D01*
X193112Y396340D01*
X193185Y396248D01*
X193272Y396168D01*
X193371Y396102D01*
X193479Y396056D01*
X193828Y395940D01*
X194188Y395860D01*
X194553Y395812D01*
X194921Y395796D01*
X194923Y395796D01*
Y352289D01*
X194808Y352192D01*
X194348Y351653D01*
X193978Y351049D01*
X193707Y350395D01*
X193542Y349706D01*
X193486Y349000D01*
X193542Y348294D01*
X193707Y347605D01*
X193978Y346951D01*
X194348Y346347D01*
X194808Y345808D01*
X194923Y345711D01*
Y344000D01*
X191576D01*
Y346259D01*
X191652Y346347D01*
X192022Y346951D01*
X192293Y347605D01*
X192458Y348294D01*
X192500Y349000D01*
X192458Y349706D01*
X192293Y350395D01*
X192022Y351049D01*
X191652Y351653D01*
X191576Y351741D01*
Y398068D01*
X191590Y398066D01*
X191709Y398061D01*
X191826Y398074D01*
X191940Y398106D01*
X192048Y398155D01*
X192147Y398221D01*
X192234Y398301D01*
X192308Y398394D01*
X192366Y398497D01*
X192407Y398608D01*
X192431Y398724D01*
X192436Y398843D01*
X192422Y398960D01*
X192388Y399074D01*
X192314Y399298D01*
X192263Y399529D01*
X192232Y399764D01*
X192221Y400000D01*
X192232Y400236D01*
X192263Y400471D01*
X192314Y400702D01*
X192386Y400927D01*
X192419Y401040D01*
X192433Y401158D01*
X192428Y401276D01*
X192405Y401391D01*
X192363Y401502D01*
X192305Y401605D01*
X192232Y401697D01*
X192145Y401777D01*
X192047Y401842D01*
X191940Y401892D01*
X191826Y401923D01*
X191709Y401937D01*
X191591Y401932D01*
X191576Y401929D01*
Y406259D01*
X191652Y406347D01*
X192022Y406951D01*
X192293Y407605D01*
X192458Y408294D01*
X192500Y409000D01*
X192458Y409706D01*
X192293Y410395D01*
X192022Y411049D01*
X191652Y411653D01*
X191576Y411741D01*
Y419823D01*
G37*
G36*
Y430985D02*X191618Y430884D01*
X192057Y430167D01*
X192603Y429528D01*
X193242Y428983D01*
X193959Y428544D01*
X194735Y428222D01*
X194923Y428177D01*
Y425761D01*
X193674Y424512D01*
X193408Y424576D01*
X193000Y424608D01*
X192592Y424576D01*
X192194Y424480D01*
X191816Y424324D01*
X191576Y424177D01*
Y430985D01*
G37*
G36*
Y450670D02*X191618Y450569D01*
X192057Y449852D01*
X192603Y449213D01*
X193242Y448668D01*
X193959Y448229D01*
X194735Y447907D01*
X194923Y447862D01*
Y438453D01*
X194735Y438408D01*
X193959Y438086D01*
X193242Y437647D01*
X192603Y437102D01*
X192057Y436463D01*
X191618Y435746D01*
X191576Y435645D01*
Y450670D01*
G37*
G36*
Y464000D02*X194923D01*
Y458138D01*
X194735Y458093D01*
X193959Y457771D01*
X193242Y457332D01*
X192603Y456787D01*
X192057Y456148D01*
X191618Y455431D01*
X191576Y455330D01*
Y464000D01*
G37*
G36*
Y351741D02*X191192Y352192D01*
X190653Y352652D01*
X190049Y353022D01*
X189613Y353203D01*
Y354630D01*
X189683Y354659D01*
X189884Y354783D01*
X190064Y354936D01*
X190217Y355116D01*
X190341Y355317D01*
X190431Y355535D01*
X190486Y355765D01*
X190500Y356000D01*
X190486Y362235D01*
X190431Y362465D01*
X190341Y362683D01*
X190217Y362884D01*
X190064Y363064D01*
X189884Y363217D01*
X189683Y363341D01*
X189613Y363370D01*
Y366853D01*
X189656Y366860D01*
X189768Y366897D01*
X189873Y366952D01*
X189968Y367022D01*
X190051Y367106D01*
X190119Y367202D01*
X190170Y367308D01*
X190318Y367716D01*
X190422Y368137D01*
X190484Y368567D01*
X190505Y369000D01*
X190484Y369433D01*
X190422Y369863D01*
X190318Y370284D01*
X190175Y370694D01*
X190122Y370800D01*
X190053Y370896D01*
X189970Y370981D01*
X189875Y371051D01*
X189769Y371106D01*
X189657Y371143D01*
X189613Y371151D01*
Y376302D01*
X189652Y376347D01*
X190022Y376951D01*
X190293Y377605D01*
X190458Y378294D01*
X190500Y379000D01*
X190458Y379706D01*
X190293Y380395D01*
X190022Y381049D01*
X189652Y381653D01*
X189613Y381698D01*
Y386302D01*
X189652Y386347D01*
X190022Y386951D01*
X190293Y387605D01*
X190458Y388294D01*
X190500Y389000D01*
X190458Y389706D01*
X190293Y390395D01*
X190022Y391049D01*
X189652Y391653D01*
X189613Y391698D01*
Y404797D01*
X190049Y404978D01*
X190653Y405348D01*
X191192Y405808D01*
X191576Y406259D01*
Y401929D01*
X191475Y401908D01*
X191364Y401867D01*
X191261Y401809D01*
X191169Y401736D01*
X191089Y401649D01*
X191024Y401551D01*
X190977Y401443D01*
X190862Y401093D01*
X190782Y400733D01*
X190733Y400368D01*
X190717Y400000D01*
X190733Y399632D01*
X190782Y399267D01*
X190862Y398907D01*
X190973Y398556D01*
X191021Y398448D01*
X191087Y398349D01*
X191167Y398262D01*
X191260Y398189D01*
X191363Y398130D01*
X191474Y398089D01*
X191576Y398068D01*
Y351741D01*
G37*
G36*
X189613Y391698D02*X189192Y392192D01*
X188653Y392652D01*
X188049Y393022D01*
X187993Y393045D01*
Y396966D01*
X188058Y397021D01*
X188487Y397524D01*
X188833Y398087D01*
X189085Y398698D01*
X189240Y399341D01*
X189279Y400000D01*
X189240Y400659D01*
X189085Y401302D01*
X188833Y401913D01*
X188487Y402476D01*
X188058Y402979D01*
X187993Y403034D01*
Y404487D01*
X188000Y404486D01*
X188706Y404542D01*
X189395Y404707D01*
X189613Y404797D01*
Y391698D01*
G37*
G36*
Y381698D02*X189192Y382192D01*
X188653Y382652D01*
X188049Y383022D01*
X187993Y383045D01*
Y384955D01*
X188049Y384978D01*
X188653Y385348D01*
X189192Y385808D01*
X189613Y386302D01*
Y381698D01*
G37*
G36*
Y363370D02*X189465Y363431D01*
X189235Y363486D01*
X189000Y363500D01*
X187993Y363498D01*
Y365047D01*
X188051Y365125D01*
X188106Y365231D01*
X188143Y365343D01*
X188163Y365460D01*
X188164Y365579D01*
X188146Y365696D01*
X188110Y365809D01*
X188057Y365915D01*
X187993Y366005D01*
Y372001D01*
X188054Y372087D01*
X188107Y372192D01*
X188143Y372305D01*
X188160Y372421D01*
X188159Y372539D01*
X188140Y372656D01*
X188103Y372768D01*
X188048Y372873D01*
X187993Y372948D01*
Y374955D01*
X188049Y374978D01*
X188653Y375348D01*
X189192Y375808D01*
X189613Y376302D01*
Y371151D01*
X189540Y371163D01*
X189421Y371164D01*
X189304Y371146D01*
X189191Y371110D01*
X189085Y371057D01*
X188988Y370988D01*
X188904Y370905D01*
X188833Y370809D01*
X188779Y370704D01*
X188741Y370592D01*
X188722Y370475D01*
X188721Y370356D01*
X188739Y370239D01*
X188777Y370126D01*
X188876Y369855D01*
X188944Y369575D01*
X188986Y369289D01*
X189000Y369000D01*
X188986Y368711D01*
X188944Y368425D01*
X188876Y368145D01*
X188780Y367872D01*
X188742Y367761D01*
X188725Y367644D01*
X188725Y367526D01*
X188745Y367409D01*
X188782Y367297D01*
X188836Y367193D01*
X188906Y367098D01*
X188991Y367015D01*
X189087Y366946D01*
X189192Y366893D01*
X189305Y366857D01*
X189421Y366840D01*
X189539Y366841D01*
X189613Y366853D01*
Y363370D01*
G37*
G36*
Y353203D02*X189395Y353293D01*
X188706Y353458D01*
X188000Y353514D01*
X187993Y353513D01*
Y354511D01*
X189235Y354514D01*
X189465Y354569D01*
X189613Y354630D01*
Y353203D01*
G37*
G36*
X191576Y344000D02*X187993D01*
Y344487D01*
X188000Y344486D01*
X188706Y344542D01*
X189395Y344707D01*
X190049Y344978D01*
X190653Y345348D01*
X191192Y345808D01*
X191576Y346259D01*
Y344000D01*
G37*
G36*
X187993Y464000D02*X191576D01*
Y455330D01*
X191297Y454655D01*
X191101Y453838D01*
X191035Y453000D01*
X191101Y452162D01*
X191297Y451345D01*
X191576Y450670D01*
Y435645D01*
X191297Y434970D01*
X191101Y434153D01*
X191035Y433315D01*
X191101Y432477D01*
X191297Y431660D01*
X191576Y430985D01*
Y424177D01*
X191467Y424110D01*
X191156Y423844D01*
X190890Y423533D01*
X190676Y423184D01*
X190520Y422806D01*
X190424Y422408D01*
X190392Y422000D01*
X190424Y421592D01*
X190520Y421194D01*
X190676Y420816D01*
X190890Y420467D01*
X191156Y420156D01*
X191467Y419890D01*
X191576Y419823D01*
Y411741D01*
X191192Y412192D01*
X190653Y412652D01*
X190049Y413022D01*
X189395Y413293D01*
X188706Y413458D01*
X188000Y413514D01*
X187993Y413513D01*
Y464000D01*
G37*
G36*
X182387Y354630D02*X182535Y354569D01*
X182765Y354514D01*
X183000Y354500D01*
X187993Y354511D01*
Y353513D01*
X187294Y353458D01*
X186605Y353293D01*
X185951Y353022D01*
X185347Y352652D01*
X184808Y352192D01*
X184348Y351653D01*
X183978Y351049D01*
X183707Y350395D01*
X183542Y349706D01*
X183486Y349000D01*
X183542Y348294D01*
X183707Y347605D01*
X183978Y346951D01*
X184348Y346347D01*
X184808Y345808D01*
X185347Y345348D01*
X185951Y344978D01*
X186605Y344707D01*
X187294Y344542D01*
X187993Y344487D01*
Y344000D01*
X182387D01*
Y347996D01*
X182458Y348294D01*
X182500Y349000D01*
X182458Y349706D01*
X182387Y350004D01*
Y354630D01*
G37*
G36*
Y376302D02*X182808Y375808D01*
X183347Y375348D01*
X183951Y374978D01*
X184605Y374707D01*
X185294Y374542D01*
X186000Y374486D01*
X186706Y374542D01*
X187395Y374707D01*
X187993Y374955D01*
Y372948D01*
X187978Y372968D01*
X187894Y373051D01*
X187798Y373119D01*
X187692Y373170D01*
X187284Y373318D01*
X186863Y373422D01*
X186433Y373484D01*
X186000Y373505D01*
X185567Y373484D01*
X185137Y373422D01*
X184716Y373318D01*
X184306Y373175D01*
X184200Y373122D01*
X184104Y373053D01*
X184019Y372970D01*
X183949Y372875D01*
X183894Y372769D01*
X183857Y372657D01*
X183837Y372540D01*
X183836Y372421D01*
X183854Y372304D01*
X183890Y372191D01*
X183943Y372085D01*
X184012Y371988D01*
X184095Y371904D01*
X184191Y371833D01*
X184296Y371779D01*
X184408Y371741D01*
X184525Y371722D01*
X184644Y371721D01*
X184761Y371739D01*
X184874Y371777D01*
X185145Y371876D01*
X185425Y371944D01*
X185711Y371986D01*
X186000Y372000D01*
X186289Y371986D01*
X186575Y371944D01*
X186855Y371876D01*
X187128Y371780D01*
X187239Y371742D01*
X187356Y371725D01*
X187474Y371725D01*
X187591Y371745D01*
X187703Y371782D01*
X187807Y371836D01*
X187902Y371906D01*
X187985Y371991D01*
X187993Y372001D01*
Y366005D01*
X187988Y366012D01*
X187905Y366096D01*
X187809Y366167D01*
X187704Y366221D01*
X187592Y366259D01*
X187475Y366278D01*
X187356Y366279D01*
X187239Y366261D01*
X187126Y366223D01*
X186855Y366124D01*
X186575Y366056D01*
X186289Y366014D01*
X186000Y366000D01*
X185711Y366014D01*
X185425Y366056D01*
X185145Y366124D01*
X184872Y366220D01*
X184761Y366258D01*
X184644Y366275D01*
X184526Y366275D01*
X184409Y366255D01*
X184297Y366218D01*
X184193Y366164D01*
X184098Y366094D01*
X184015Y366009D01*
X183946Y365913D01*
X183893Y365808D01*
X183857Y365695D01*
X183840Y365579D01*
X183841Y365461D01*
X183860Y365344D01*
X183897Y365232D01*
X183952Y365127D01*
X184022Y365032D01*
X184106Y364949D01*
X184202Y364881D01*
X184308Y364830D01*
X184716Y364682D01*
X185137Y364578D01*
X185567Y364516D01*
X186000Y364495D01*
X186433Y364516D01*
X186863Y364578D01*
X187284Y364682D01*
X187694Y364825D01*
X187800Y364878D01*
X187896Y364947D01*
X187981Y365030D01*
X187993Y365047D01*
Y363498D01*
X182765Y363486D01*
X182535Y363431D01*
X182387Y363370D01*
Y366849D01*
X182460Y366837D01*
X182579Y366836D01*
X182696Y366854D01*
X182809Y366890D01*
X182915Y366943D01*
X183012Y367012D01*
X183096Y367095D01*
X183167Y367191D01*
X183221Y367296D01*
X183259Y367408D01*
X183278Y367525D01*
X183279Y367644D01*
X183261Y367761D01*
X183223Y367874D01*
X183124Y368145D01*
X183056Y368425D01*
X183014Y368711D01*
X183000Y369000D01*
X183014Y369289D01*
X183056Y369575D01*
X183124Y369855D01*
X183220Y370128D01*
X183258Y370239D01*
X183275Y370356D01*
X183275Y370474D01*
X183255Y370591D01*
X183218Y370703D01*
X183164Y370807D01*
X183094Y370902D01*
X183009Y370985D01*
X182913Y371054D01*
X182808Y371107D01*
X182695Y371143D01*
X182579Y371160D01*
X182461Y371159D01*
X182387Y371147D01*
Y376302D01*
G37*
G36*
Y386302D02*X182808Y385808D01*
X183347Y385348D01*
X183951Y384978D01*
X184605Y384707D01*
X185294Y384542D01*
X186000Y384486D01*
X186706Y384542D01*
X187395Y384707D01*
X187993Y384955D01*
Y383045D01*
X187395Y383293D01*
X186706Y383458D01*
X186000Y383514D01*
X185294Y383458D01*
X184605Y383293D01*
X183951Y383022D01*
X183347Y382652D01*
X182808Y382192D01*
X182387Y381698D01*
Y386302D01*
G37*
G36*
Y396776D02*X182602Y396592D01*
X183166Y396246D01*
X183777Y395993D01*
X184420Y395839D01*
X185079Y395787D01*
X185738Y395839D01*
X186381Y395993D01*
X186991Y396246D01*
X187555Y396592D01*
X187993Y396966D01*
Y393045D01*
X187395Y393293D01*
X186706Y393458D01*
X186000Y393514D01*
X185294Y393458D01*
X184605Y393293D01*
X183951Y393022D01*
X183347Y392652D01*
X182808Y392192D01*
X182387Y391698D01*
Y396776D01*
G37*
G36*
Y464000D02*X187993D01*
Y413513D01*
X187294Y413458D01*
X186605Y413293D01*
X185951Y413022D01*
X185347Y412652D01*
X184808Y412192D01*
X184348Y411653D01*
X183978Y411049D01*
X183707Y410395D01*
X183542Y409706D01*
X183486Y409000D01*
X183542Y408294D01*
X183707Y407605D01*
X183978Y406951D01*
X184348Y406347D01*
X184808Y405808D01*
X185347Y405348D01*
X185951Y404978D01*
X186605Y404707D01*
X187294Y404542D01*
X187993Y404487D01*
Y403034D01*
X187555Y403408D01*
X186991Y403754D01*
X186381Y404007D01*
X185738Y404161D01*
X185079Y404213D01*
X184420Y404161D01*
X183777Y404007D01*
X183166Y403754D01*
X182602Y403408D01*
X182387Y403224D01*
Y407996D01*
X182458Y408294D01*
X182500Y409000D01*
X182458Y409706D01*
X182387Y410004D01*
Y422775D01*
X182488Y422674D01*
X182424Y422408D01*
X182392Y422000D01*
X182424Y421592D01*
X182520Y421194D01*
X182676Y420816D01*
X182890Y420467D01*
X183156Y420156D01*
X183467Y419890D01*
X183816Y419676D01*
X184194Y419520D01*
X184592Y419424D01*
X185000Y419392D01*
X185408Y419424D01*
X185806Y419520D01*
X186184Y419676D01*
X186533Y419890D01*
X186844Y420156D01*
X187110Y420467D01*
X187324Y420816D01*
X187480Y421194D01*
X187576Y421592D01*
X187600Y422000D01*
X187576Y422408D01*
X187480Y422806D01*
X187324Y423184D01*
X187110Y423533D01*
X186844Y423844D01*
X186533Y424110D01*
X186184Y424324D01*
X185806Y424480D01*
X185408Y424576D01*
X185000Y424608D01*
X184592Y424576D01*
X184326Y424512D01*
X183910Y424928D01*
Y428137D01*
X184265Y428222D01*
X185041Y428544D01*
X185758Y428983D01*
X186397Y429528D01*
X186943Y430167D01*
X187382Y430884D01*
X187703Y431660D01*
X187899Y432477D01*
X187949Y433315D01*
X187899Y434153D01*
X187703Y434970D01*
X187382Y435746D01*
X186943Y436463D01*
X186397Y437102D01*
X185758Y437647D01*
X185041Y438086D01*
X184265Y438408D01*
X183448Y438604D01*
X182610Y438670D01*
X182387Y438652D01*
Y447663D01*
X182610Y447645D01*
X183448Y447711D01*
X184265Y447907D01*
X185041Y448229D01*
X185758Y448668D01*
X186397Y449213D01*
X186943Y449852D01*
X187382Y450569D01*
X187703Y451345D01*
X187899Y452162D01*
X187949Y453000D01*
X187899Y453838D01*
X187703Y454655D01*
X187382Y455431D01*
X186943Y456148D01*
X186397Y456787D01*
X185758Y457332D01*
X185041Y457771D01*
X184265Y458093D01*
X183448Y458289D01*
X182610Y458355D01*
X182387Y458337D01*
Y464000D01*
G37*
G36*
Y438652D02*X181773Y438604D01*
X180955Y438408D01*
X180179Y438086D01*
X179463Y437647D01*
X178824Y437102D01*
X178278Y436463D01*
X177993Y435998D01*
Y450317D01*
X178278Y449852D01*
X178824Y449213D01*
X179463Y448668D01*
X180179Y448229D01*
X180955Y447907D01*
X181773Y447711D01*
X182387Y447663D01*
Y438652D01*
G37*
G36*
Y410004D02*X182293Y410395D01*
X182022Y411049D01*
X181652Y411653D01*
X181192Y412192D01*
X180653Y412652D01*
X180049Y413022D01*
X179395Y413293D01*
X178706Y413458D01*
X178000Y413514D01*
X177993Y413513D01*
Y430632D01*
X178278Y430167D01*
X178824Y429528D01*
X179463Y428983D01*
X180179Y428544D01*
X180955Y428222D01*
X181310Y428137D01*
Y424441D01*
X181306Y424390D01*
X181322Y424186D01*
Y424186D01*
X181334Y424138D01*
X181370Y423987D01*
X181448Y423798D01*
X181555Y423623D01*
X181555Y423623D01*
X181688Y423468D01*
X181727Y423435D01*
X182387Y422775D01*
Y410004D01*
G37*
G36*
Y344000D02*X177993D01*
Y344487D01*
X178000Y344486D01*
X178706Y344542D01*
X179395Y344707D01*
X180049Y344978D01*
X180653Y345348D01*
X181192Y345808D01*
X181652Y346347D01*
X182022Y346951D01*
X182293Y347605D01*
X182387Y347996D01*
Y344000D01*
G37*
G36*
Y403224D02*X182100Y402979D01*
X181670Y402476D01*
X181325Y401913D01*
X181072Y401302D01*
X180918Y400659D01*
X180866Y400000D01*
X180918Y399341D01*
X181072Y398698D01*
X181325Y398087D01*
X181670Y397524D01*
X182100Y397021D01*
X182387Y396776D01*
Y391698D01*
X182348Y391653D01*
X181978Y391049D01*
X181707Y390395D01*
X181542Y389706D01*
X181486Y389000D01*
X181542Y388294D01*
X181707Y387605D01*
X181978Y386951D01*
X182348Y386347D01*
X182387Y386302D01*
Y381698D01*
X182348Y381653D01*
X181978Y381049D01*
X181707Y380395D01*
X181542Y379706D01*
X181486Y379000D01*
X181542Y378294D01*
X181707Y377605D01*
X181978Y376951D01*
X182348Y376347D01*
X182387Y376302D01*
Y371147D01*
X182344Y371140D01*
X182232Y371103D01*
X182127Y371048D01*
X182032Y370978D01*
X181949Y370894D01*
X181881Y370798D01*
X181830Y370692D01*
X181682Y370284D01*
X181578Y369863D01*
X181516Y369433D01*
X181495Y369000D01*
X181516Y368567D01*
X181578Y368137D01*
X181682Y367716D01*
X181825Y367306D01*
X181878Y367200D01*
X181947Y367104D01*
X182030Y367019D01*
X182125Y366949D01*
X182231Y366894D01*
X182343Y366857D01*
X182387Y366849D01*
Y363370D01*
X182317Y363341D01*
X182116Y363217D01*
X181936Y363064D01*
X181783Y362884D01*
X181659Y362683D01*
X181569Y362465D01*
X181514Y362235D01*
X181500Y362000D01*
X181514Y355765D01*
X181569Y355535D01*
X181659Y355317D01*
X181783Y355116D01*
X181936Y354936D01*
X182116Y354783D01*
X182317Y354659D01*
X182387Y354630D01*
Y350004D01*
X182293Y350395D01*
X182022Y351049D01*
X181652Y351653D01*
X181192Y352192D01*
X180653Y352652D01*
X180049Y353022D01*
X179395Y353293D01*
X178706Y353458D01*
X178000Y353514D01*
X177993Y353513D01*
Y404487D01*
X178000Y404486D01*
X178706Y404542D01*
X179395Y404707D01*
X180049Y404978D01*
X180653Y405348D01*
X181192Y405808D01*
X181652Y406347D01*
X182022Y406951D01*
X182293Y407605D01*
X182387Y407996D01*
Y403224D01*
G37*
G36*
X177993Y464000D02*X182387D01*
Y458337D01*
X181773Y458289D01*
X180955Y458093D01*
X180179Y457771D01*
X179463Y457332D01*
X178824Y456787D01*
X178278Y456148D01*
X177993Y455683D01*
Y464000D01*
G37*
G36*
X168822D02*X177993D01*
Y455683D01*
X177839Y455431D01*
X177517Y454655D01*
X177321Y453838D01*
X177255Y453000D01*
X177321Y452162D01*
X177517Y451345D01*
X177839Y450569D01*
X177993Y450317D01*
Y435998D01*
X177839Y435746D01*
X177517Y434970D01*
X177321Y434153D01*
X177255Y433315D01*
X177321Y432477D01*
X177517Y431660D01*
X177839Y430884D01*
X177993Y430632D01*
Y413513D01*
X177294Y413458D01*
X176605Y413293D01*
X175951Y413022D01*
X175347Y412652D01*
X174808Y412192D01*
X174348Y411653D01*
X173978Y411049D01*
X173707Y410395D01*
X173542Y409706D01*
X173486Y409000D01*
X173542Y408294D01*
X173707Y407605D01*
X173978Y406951D01*
X174348Y406347D01*
X174808Y405808D01*
X175347Y405348D01*
X175951Y404978D01*
X176605Y404707D01*
X177294Y404542D01*
X177993Y404487D01*
Y353513D01*
X177294Y353458D01*
X176605Y353293D01*
X175951Y353022D01*
X175347Y352652D01*
X174808Y352192D01*
X174348Y351653D01*
X173978Y351049D01*
X173707Y350395D01*
X173542Y349706D01*
X173486Y349000D01*
X173542Y348294D01*
X173707Y347605D01*
X173978Y346951D01*
X174348Y346347D01*
X174808Y345808D01*
X175347Y345348D01*
X175951Y344978D01*
X176605Y344707D01*
X177294Y344542D01*
X177993Y344487D01*
Y344000D01*
X168822D01*
Y344570D01*
X169395Y344707D01*
X170049Y344978D01*
X170653Y345348D01*
X171192Y345808D01*
X171652Y346347D01*
X172022Y346951D01*
X172293Y347605D01*
X172458Y348294D01*
X172500Y349000D01*
X172458Y349706D01*
X172293Y350395D01*
X172022Y351049D01*
X171652Y351653D01*
X171192Y352192D01*
X170653Y352652D01*
X170049Y353022D01*
X169395Y353293D01*
X168822Y353430D01*
Y360339D01*
X169663Y359498D01*
X169503Y359113D01*
X169369Y358552D01*
X169323Y357976D01*
X169369Y357401D01*
X169503Y356840D01*
X169724Y356307D01*
X170026Y355815D01*
X170400Y355377D01*
X170839Y355002D01*
X171331Y354700D01*
X171864Y354480D01*
X172425Y354345D01*
X173000Y354300D01*
X173575Y354345D01*
X174136Y354480D01*
X174669Y354700D01*
X175161Y355002D01*
X175600Y355377D01*
X175974Y355815D01*
X176276Y356307D01*
X176497Y356840D01*
X176631Y357401D01*
X176665Y357976D01*
X176631Y358552D01*
X176497Y359113D01*
X176276Y359646D01*
X175974Y360137D01*
X175600Y360576D01*
X175161Y360951D01*
X174669Y361252D01*
X174136Y361473D01*
X173575Y361608D01*
X173000Y361653D01*
X172425Y361608D01*
X171864Y361473D01*
X171511Y361327D01*
X168822Y364016D01*
Y382339D01*
X169649Y381512D01*
X169503Y381160D01*
X169369Y380599D01*
X169323Y380024D01*
X169369Y379448D01*
X169503Y378887D01*
X169724Y378354D01*
X170026Y377863D01*
X170400Y377424D01*
X170839Y377049D01*
X171331Y376748D01*
X171864Y376527D01*
X172425Y376392D01*
X173000Y376347D01*
X173575Y376392D01*
X174136Y376527D01*
X174669Y376748D01*
X175161Y377049D01*
X175600Y377424D01*
X175974Y377863D01*
X176276Y378354D01*
X176497Y378887D01*
X176631Y379448D01*
X176665Y380024D01*
X176631Y380599D01*
X176497Y381160D01*
X176276Y381693D01*
X175974Y382185D01*
X175600Y382623D01*
X175161Y382998D01*
X174669Y383300D01*
X174136Y383520D01*
X173575Y383655D01*
X173000Y383700D01*
X172425Y383655D01*
X171864Y383520D01*
X171478Y383360D01*
X168822Y386016D01*
Y404570D01*
X169395Y404707D01*
X170049Y404978D01*
X170653Y405348D01*
X171192Y405808D01*
X171652Y406347D01*
X172022Y406951D01*
X172293Y407605D01*
X172458Y408294D01*
X172500Y409000D01*
X172458Y409706D01*
X172293Y410395D01*
X172022Y411049D01*
X171652Y411653D01*
X171192Y412192D01*
X170653Y412652D01*
X170049Y413022D01*
X169395Y413293D01*
X168822Y413430D01*
Y427961D01*
X168831Y427960D01*
X169668Y428026D01*
X170486Y428222D01*
X171262Y428544D01*
X171978Y428983D01*
X172617Y429528D01*
X173163Y430167D01*
X173602Y430884D01*
X173924Y431660D01*
X174120Y432477D01*
X174169Y433315D01*
X174120Y434153D01*
X173924Y434970D01*
X173602Y435746D01*
X173163Y436463D01*
X172617Y437102D01*
X171978Y437647D01*
X171262Y438086D01*
X170486Y438408D01*
X169668Y438604D01*
X168831Y438670D01*
X168822Y438669D01*
Y447646D01*
X168831Y447645D01*
X169668Y447711D01*
X170486Y447907D01*
X171262Y448229D01*
X171978Y448668D01*
X172617Y449213D01*
X173163Y449852D01*
X173602Y450569D01*
X173924Y451345D01*
X174120Y452162D01*
X174169Y453000D01*
X174120Y453838D01*
X173924Y454655D01*
X173602Y455431D01*
X173163Y456148D01*
X172617Y456787D01*
X171978Y457332D01*
X171262Y457771D01*
X170486Y458093D01*
X169668Y458289D01*
X168831Y458355D01*
X168822Y458354D01*
Y464000D01*
G37*
G36*
Y386016D02*X165012Y389826D01*
X165076Y390092D01*
X165100Y390500D01*
X165076Y390908D01*
X164980Y391306D01*
X164824Y391684D01*
X164610Y392033D01*
X164344Y392344D01*
X164033Y392610D01*
X163684Y392824D01*
X163306Y392980D01*
X162993Y393055D01*
Y398603D01*
X163194Y398520D01*
X163592Y398424D01*
X164000Y398392D01*
X164408Y398424D01*
X164806Y398520D01*
X165184Y398676D01*
X165533Y398890D01*
X165844Y399156D01*
X166110Y399467D01*
X166324Y399816D01*
X166480Y400194D01*
X166576Y400592D01*
X166600Y401000D01*
X166576Y401408D01*
X166480Y401806D01*
X166324Y402184D01*
X166110Y402533D01*
X165844Y402844D01*
X165533Y403110D01*
X165184Y403324D01*
X164806Y403480D01*
X164408Y403576D01*
X164300Y403584D01*
Y406425D01*
X164348Y406347D01*
X164808Y405808D01*
X165347Y405348D01*
X165951Y404978D01*
X166605Y404707D01*
X167294Y404542D01*
X168000Y404486D01*
X168706Y404542D01*
X168822Y404570D01*
Y386016D01*
G37*
G36*
Y364016D02*X165012Y367826D01*
X165076Y368092D01*
X165100Y368500D01*
X165076Y368908D01*
X164980Y369306D01*
X164824Y369684D01*
X164610Y370033D01*
X164344Y370344D01*
X164033Y370610D01*
X163684Y370824D01*
X163306Y370980D01*
X162993Y371055D01*
Y387945D01*
X163174Y387988D01*
X168822Y382339D01*
Y364016D01*
G37*
G36*
Y344000D02*X162993D01*
Y365945D01*
X163174Y365988D01*
X168822Y360339D01*
Y353430D01*
X168706Y353458D01*
X168000Y353514D01*
X167294Y353458D01*
X166605Y353293D01*
X165951Y353022D01*
X165347Y352652D01*
X164808Y352192D01*
X164348Y351653D01*
X163978Y351049D01*
X163707Y350395D01*
X163542Y349706D01*
X163486Y349000D01*
X163542Y348294D01*
X163707Y347605D01*
X163978Y346951D01*
X164348Y346347D01*
X164808Y345808D01*
X165347Y345348D01*
X165951Y344978D01*
X166605Y344707D01*
X167294Y344542D01*
X168000Y344486D01*
X168706Y344542D01*
X168822Y344570D01*
Y344000D01*
G37*
G36*
X162993Y464000D02*X168822D01*
Y458354D01*
X167993Y458289D01*
X167176Y458093D01*
X166400Y457771D01*
X165683Y457332D01*
X165044Y456787D01*
X164498Y456148D01*
X164059Y455431D01*
X163738Y454655D01*
X163542Y453838D01*
X163476Y453000D01*
X163542Y452162D01*
X163738Y451345D01*
X164059Y450569D01*
X164498Y449852D01*
X165044Y449213D01*
X165683Y448668D01*
X166400Y448229D01*
X167176Y447907D01*
X167993Y447711D01*
X168822Y447646D01*
Y438669D01*
X167993Y438604D01*
X167176Y438408D01*
X166400Y438086D01*
X165683Y437647D01*
X165044Y437102D01*
X164498Y436463D01*
X164059Y435746D01*
X163738Y434970D01*
X163542Y434153D01*
X163476Y433315D01*
X163542Y432477D01*
X163738Y431660D01*
X164059Y430884D01*
X164498Y430167D01*
X165044Y429528D01*
X165683Y428983D01*
X166400Y428544D01*
X167176Y428222D01*
X167993Y428026D01*
X168822Y427961D01*
Y413430D01*
X168706Y413458D01*
X168000Y413514D01*
X167294Y413458D01*
X166605Y413293D01*
X165951Y413022D01*
X165347Y412652D01*
X164808Y412192D01*
X164348Y411653D01*
X164300Y411575D01*
Y413247D01*
X164533Y413390D01*
X164844Y413656D01*
X165110Y413967D01*
X165324Y414316D01*
X165480Y414694D01*
X165576Y415092D01*
X165600Y415500D01*
X165576Y415908D01*
X165480Y416306D01*
X165324Y416684D01*
X165110Y417033D01*
X164844Y417344D01*
X164533Y417610D01*
X164184Y417824D01*
X163806Y417980D01*
X163408Y418076D01*
X163000Y418108D01*
X162993Y418107D01*
Y464000D01*
G37*
G36*
X155043Y405608D02*X155347Y405348D01*
X155951Y404978D01*
X156605Y404707D01*
X157294Y404542D01*
X158000Y404486D01*
X158706Y404542D01*
X159395Y404707D01*
X160049Y404978D01*
X160653Y405348D01*
X161192Y405808D01*
X161652Y406347D01*
X161700Y406425D01*
Y402223D01*
X161676Y402184D01*
X161520Y401806D01*
X161424Y401408D01*
X161392Y401000D01*
X161424Y400592D01*
X161520Y400194D01*
X161676Y399816D01*
X161890Y399467D01*
X162156Y399156D01*
X162467Y398890D01*
X162816Y398676D01*
X162993Y398603D01*
Y393055D01*
X162908Y393076D01*
X162500Y393108D01*
X162092Y393076D01*
X161694Y392980D01*
X161316Y392824D01*
X160967Y392610D01*
X160656Y392344D01*
X160390Y392033D01*
X160176Y391684D01*
X160020Y391306D01*
X159924Y390908D01*
X159892Y390500D01*
X159924Y390092D01*
X160020Y389694D01*
X160176Y389316D01*
X160390Y388967D01*
X160656Y388656D01*
X160967Y388390D01*
X161316Y388176D01*
X161694Y388020D01*
X162092Y387924D01*
X162500Y387892D01*
X162908Y387924D01*
X162993Y387945D01*
Y371055D01*
X162908Y371076D01*
X162500Y371108D01*
X162092Y371076D01*
X161694Y370980D01*
X161316Y370824D01*
X160967Y370610D01*
X160656Y370344D01*
X160390Y370033D01*
X160176Y369684D01*
X160020Y369306D01*
X159924Y368908D01*
X159892Y368500D01*
X159924Y368092D01*
X160020Y367694D01*
X160176Y367316D01*
X160390Y366967D01*
X160656Y366656D01*
X160967Y366390D01*
X161316Y366176D01*
X161694Y366020D01*
X162092Y365924D01*
X162500Y365892D01*
X162908Y365924D01*
X162993Y365945D01*
Y344000D01*
X155043D01*
Y345608D01*
X155347Y345348D01*
X155951Y344978D01*
X156605Y344707D01*
X157294Y344542D01*
X158000Y344486D01*
X158706Y344542D01*
X159395Y344707D01*
X160049Y344978D01*
X160653Y345348D01*
X161192Y345808D01*
X161652Y346347D01*
X162022Y346951D01*
X162293Y347605D01*
X162458Y348294D01*
X162500Y349000D01*
X162458Y349706D01*
X162293Y350395D01*
X162022Y351049D01*
X161652Y351653D01*
X161192Y352192D01*
X160653Y352652D01*
X160049Y353022D01*
X159395Y353293D01*
X158706Y353458D01*
X158000Y353514D01*
X157294Y353458D01*
X156605Y353293D01*
X155951Y353022D01*
X155347Y352652D01*
X155043Y352392D01*
Y405608D01*
G37*
G36*
Y464000D02*X162993D01*
Y418107D01*
X162592Y418076D01*
X162194Y417980D01*
X161816Y417824D01*
X161467Y417610D01*
X161156Y417344D01*
X160890Y417033D01*
X160676Y416684D01*
X160520Y416306D01*
X160424Y415908D01*
X160392Y415500D01*
X160424Y415092D01*
X160520Y414694D01*
X160676Y414316D01*
X160890Y413967D01*
X161156Y413656D01*
X161467Y413390D01*
X161700Y413247D01*
Y411575D01*
X161652Y411653D01*
X161192Y412192D01*
X160653Y412652D01*
X160049Y413022D01*
X159395Y413293D01*
X158706Y413458D01*
X158000Y413514D01*
X157294Y413458D01*
X156605Y413293D01*
X155951Y413022D01*
X155347Y412652D01*
X155043Y412392D01*
Y427961D01*
X155051Y427960D01*
X155889Y428026D01*
X156706Y428222D01*
X157482Y428544D01*
X158199Y428983D01*
X158838Y429528D01*
X159384Y430167D01*
X159823Y430884D01*
X160144Y431660D01*
X160340Y432477D01*
X160390Y433315D01*
X160340Y434153D01*
X160144Y434970D01*
X159823Y435746D01*
X159384Y436463D01*
X158838Y437102D01*
X158199Y437647D01*
X157482Y438086D01*
X156706Y438408D01*
X155889Y438604D01*
X155051Y438670D01*
X155043Y438669D01*
Y447646D01*
X155051Y447645D01*
X155889Y447711D01*
X156706Y447907D01*
X157482Y448229D01*
X158199Y448668D01*
X158838Y449213D01*
X159384Y449852D01*
X159823Y450569D01*
X160144Y451345D01*
X160340Y452162D01*
X160390Y453000D01*
X160340Y453838D01*
X160144Y454655D01*
X159823Y455431D01*
X159384Y456148D01*
X158838Y456787D01*
X158199Y457332D01*
X157482Y457771D01*
X156706Y458093D01*
X155889Y458289D01*
X155051Y458355D01*
X155043Y458354D01*
Y464000D01*
G37*
G36*
X147993D02*X155043D01*
Y458354D01*
X154213Y458289D01*
X153396Y458093D01*
X152620Y457771D01*
X151904Y457332D01*
X151265Y456787D01*
X150719Y456148D01*
X150280Y455431D01*
X149958Y454655D01*
X149762Y453838D01*
X149696Y453000D01*
X149762Y452162D01*
X149958Y451345D01*
X150280Y450569D01*
X150719Y449852D01*
X151265Y449213D01*
X151904Y448668D01*
X152620Y448229D01*
X153396Y447907D01*
X154213Y447711D01*
X155043Y447646D01*
Y438669D01*
X154213Y438604D01*
X153396Y438408D01*
X152620Y438086D01*
X151904Y437647D01*
X151265Y437102D01*
X150719Y436463D01*
X150280Y435746D01*
X149958Y434970D01*
X149762Y434153D01*
X149696Y433315D01*
X149762Y432477D01*
X149958Y431660D01*
X150280Y430884D01*
X150719Y430167D01*
X151265Y429528D01*
X151904Y428983D01*
X152620Y428544D01*
X153396Y428222D01*
X154213Y428026D01*
X155043Y427961D01*
Y412392D01*
X154808Y412192D01*
X154348Y411653D01*
X153978Y411049D01*
X153707Y410395D01*
X153542Y409706D01*
X153486Y409000D01*
X153542Y408294D01*
X153707Y407605D01*
X153978Y406951D01*
X154348Y406347D01*
X154808Y405808D01*
X155043Y405608D01*
Y352392D01*
X154808Y352192D01*
X154348Y351653D01*
X153978Y351049D01*
X153707Y350395D01*
X153542Y349706D01*
X153486Y349000D01*
X153542Y348294D01*
X153707Y347605D01*
X153978Y346951D01*
X154348Y346347D01*
X154808Y345808D01*
X155043Y345608D01*
Y344000D01*
X147993D01*
Y344487D01*
X148000Y344486D01*
X148706Y344542D01*
X149395Y344707D01*
X150049Y344978D01*
X150653Y345348D01*
X151192Y345808D01*
X151652Y346347D01*
X152022Y346951D01*
X152293Y347605D01*
X152458Y348294D01*
X152500Y349000D01*
X152458Y349706D01*
X152293Y350395D01*
X152022Y351049D01*
X151652Y351653D01*
X151192Y352192D01*
X150653Y352652D01*
X150049Y353022D01*
X149395Y353293D01*
X148706Y353458D01*
X148000Y353514D01*
X147993Y353513D01*
Y404487D01*
X148000Y404486D01*
X148706Y404542D01*
X149395Y404707D01*
X150049Y404978D01*
X150653Y405348D01*
X151192Y405808D01*
X151652Y406347D01*
X152022Y406951D01*
X152293Y407605D01*
X152458Y408294D01*
X152500Y409000D01*
X152458Y409706D01*
X152293Y410395D01*
X152022Y411049D01*
X151652Y411653D01*
X151192Y412192D01*
X150653Y412652D01*
X150049Y413022D01*
X149395Y413293D01*
X148706Y413458D01*
X148000Y413514D01*
X147993Y413513D01*
Y464000D01*
G37*
G36*
X141750D02*X147993D01*
Y413513D01*
X147294Y413458D01*
X146605Y413293D01*
X145951Y413022D01*
X145347Y412652D01*
X144808Y412192D01*
X144348Y411653D01*
X143978Y411049D01*
X143707Y410395D01*
X143542Y409706D01*
X143486Y409000D01*
X143542Y408294D01*
X143707Y407605D01*
X143978Y406951D01*
X144348Y406347D01*
X144808Y405808D01*
X145347Y405348D01*
X145951Y404978D01*
X146605Y404707D01*
X147294Y404542D01*
X147993Y404487D01*
Y353513D01*
X147294Y353458D01*
X146605Y353293D01*
X145951Y353022D01*
X145347Y352652D01*
X144808Y352192D01*
X144348Y351653D01*
X143978Y351049D01*
X143707Y350395D01*
X143542Y349706D01*
X143486Y349000D01*
X143542Y348294D01*
X143707Y347605D01*
X143978Y346951D01*
X144348Y346347D01*
X144808Y345808D01*
X145347Y345348D01*
X145951Y344978D01*
X146605Y344707D01*
X147294Y344542D01*
X147993Y344487D01*
Y344000D01*
X141750D01*
Y346748D01*
X141868Y346757D01*
X141982Y346785D01*
X142092Y346830D01*
X142192Y346891D01*
X142282Y346968D01*
X142359Y347058D01*
X142420Y347158D01*
X142465Y347268D01*
X142493Y347382D01*
X142500Y347500D01*
Y350500D01*
X142493Y350618D01*
X142465Y350732D01*
X142420Y350842D01*
X142359Y350942D01*
X142282Y351032D01*
X142192Y351109D01*
X142092Y351170D01*
X141982Y351215D01*
X141868Y351243D01*
X141750Y351252D01*
Y406507D01*
X142022Y406951D01*
X142293Y407605D01*
X142458Y408294D01*
X142500Y409000D01*
X142458Y409706D01*
X142293Y410395D01*
X142022Y411049D01*
X141750Y411493D01*
Y427998D01*
X142109Y428026D01*
X142926Y428222D01*
X143703Y428544D01*
X144419Y428983D01*
X145058Y429528D01*
X145604Y430167D01*
X146043Y430884D01*
X146365Y431660D01*
X146561Y432477D01*
X146610Y433315D01*
X146561Y434153D01*
X146365Y434970D01*
X146043Y435746D01*
X145604Y436463D01*
X145058Y437102D01*
X144419Y437647D01*
X143703Y438086D01*
X142926Y438408D01*
X142109Y438604D01*
X141750Y438632D01*
Y447683D01*
X142109Y447711D01*
X142926Y447907D01*
X143703Y448229D01*
X144419Y448668D01*
X145058Y449213D01*
X145604Y449852D01*
X146043Y450569D01*
X146365Y451345D01*
X146561Y452162D01*
X146610Y453000D01*
X146561Y453838D01*
X146365Y454655D01*
X146043Y455431D01*
X145604Y456148D01*
X145058Y456787D01*
X144419Y457332D01*
X143703Y457771D01*
X142926Y458093D01*
X142109Y458289D01*
X141750Y458317D01*
Y464000D01*
G37*
G36*
Y438632D02*X141272Y438670D01*
X140434Y438604D01*
X139617Y438408D01*
X138841Y438086D01*
X138124Y437647D01*
X137993Y437535D01*
Y448780D01*
X138124Y448668D01*
X138841Y448229D01*
X139617Y447907D01*
X140434Y447711D01*
X141272Y447645D01*
X141750Y447683D01*
Y438632D01*
G37*
G36*
Y411493D02*X141652Y411653D01*
X141192Y412192D01*
X140653Y412652D01*
X140049Y413022D01*
X139395Y413293D01*
X138706Y413458D01*
X138000Y413514D01*
X137993Y413513D01*
Y429094D01*
X138124Y428983D01*
X138841Y428544D01*
X139617Y428222D01*
X140434Y428026D01*
X141272Y427960D01*
X141750Y427998D01*
Y411493D01*
G37*
G36*
Y344000D02*X137993D01*
Y344500D01*
X139500D01*
X139618Y344507D01*
X139732Y344535D01*
X139842Y344580D01*
X139942Y344641D01*
X140032Y344718D01*
X140109Y344808D01*
X140170Y344908D01*
X140215Y345018D01*
X140243Y345132D01*
X140252Y345250D01*
X140243Y345368D01*
X140215Y345482D01*
X140170Y345592D01*
X140109Y345692D01*
X140032Y345782D01*
X139942Y345859D01*
X139842Y345920D01*
X139732Y345965D01*
X139618Y345993D01*
X139500Y346000D01*
X137993D01*
Y352000D01*
X139500D01*
X139618Y352007D01*
X139732Y352035D01*
X139842Y352080D01*
X139942Y352141D01*
X140032Y352218D01*
X140109Y352308D01*
X140170Y352408D01*
X140215Y352518D01*
X140243Y352632D01*
X140252Y352750D01*
X140243Y352868D01*
X140215Y352982D01*
X140170Y353092D01*
X140109Y353192D01*
X140032Y353282D01*
X139942Y353359D01*
X139842Y353420D01*
X139732Y353465D01*
X139618Y353493D01*
X139500Y353500D01*
X137993D01*
Y404487D01*
X138000Y404486D01*
X138706Y404542D01*
X139395Y404707D01*
X140049Y404978D01*
X140653Y405348D01*
X141192Y405808D01*
X141652Y406347D01*
X141750Y406507D01*
Y351252D01*
X141632Y351243D01*
X141518Y351215D01*
X141408Y351170D01*
X141308Y351109D01*
X141218Y351032D01*
X141141Y350942D01*
X141080Y350842D01*
X141035Y350732D01*
X141007Y350618D01*
X141000Y350500D01*
Y347500D01*
X141007Y347382D01*
X141035Y347268D01*
X141080Y347158D01*
X141141Y347058D01*
X141218Y346968D01*
X141308Y346891D01*
X141408Y346830D01*
X141518Y346785D01*
X141632Y346757D01*
X141750Y346748D01*
Y344000D01*
G37*
G36*
X137993Y464000D02*X141750D01*
Y458317D01*
X141272Y458355D01*
X140434Y458289D01*
X139617Y458093D01*
X138841Y457771D01*
X138124Y457332D01*
X137993Y457220D01*
Y464000D01*
G37*
G36*
X134250Y406507D02*X134348Y406347D01*
X134808Y405808D01*
X135347Y405348D01*
X135951Y404978D01*
X136605Y404707D01*
X137294Y404542D01*
X137993Y404487D01*
Y353500D01*
X136500D01*
X136382Y353493D01*
X136268Y353465D01*
X136158Y353420D01*
X136058Y353359D01*
X135968Y353282D01*
X135891Y353192D01*
X135830Y353092D01*
X135785Y352982D01*
X135757Y352868D01*
X135748Y352750D01*
X135757Y352632D01*
X135785Y352518D01*
X135830Y352408D01*
X135891Y352308D01*
X135968Y352218D01*
X136058Y352141D01*
X136158Y352080D01*
X136268Y352035D01*
X136382Y352007D01*
X136500Y352000D01*
X137993D01*
Y346000D01*
X136500D01*
X136382Y345993D01*
X136268Y345965D01*
X136158Y345920D01*
X136058Y345859D01*
X135968Y345782D01*
X135891Y345692D01*
X135830Y345592D01*
X135785Y345482D01*
X135757Y345368D01*
X135748Y345250D01*
X135757Y345132D01*
X135785Y345018D01*
X135830Y344908D01*
X135891Y344808D01*
X135968Y344718D01*
X136058Y344641D01*
X136158Y344580D01*
X136268Y344535D01*
X136382Y344507D01*
X136500Y344500D01*
X137993D01*
Y344000D01*
X134500D01*
X134250Y344250D01*
Y346748D01*
X134368Y346757D01*
X134482Y346785D01*
X134592Y346830D01*
X134692Y346891D01*
X134782Y346968D01*
X134859Y347058D01*
X134920Y347158D01*
X134965Y347268D01*
X134993Y347382D01*
X135000Y347500D01*
Y350500D01*
X134993Y350618D01*
X134965Y350732D01*
X134920Y350842D01*
X134859Y350942D01*
X134782Y351032D01*
X134692Y351109D01*
X134592Y351170D01*
X134482Y351215D01*
X134368Y351243D01*
X134250Y351252D01*
Y406507D01*
G37*
G36*
Y463750D02*X134500Y464000D01*
X137993D01*
Y457220D01*
X137485Y456787D01*
X136939Y456148D01*
X136500Y455431D01*
X136179Y454655D01*
X135983Y453838D01*
X135917Y453000D01*
X135983Y452162D01*
X136179Y451345D01*
X136500Y450569D01*
X136939Y449852D01*
X137485Y449213D01*
X137993Y448780D01*
Y437535D01*
X137485Y437102D01*
X136939Y436463D01*
X136500Y435746D01*
X136179Y434970D01*
X135983Y434153D01*
X135917Y433315D01*
X135983Y432477D01*
X136179Y431660D01*
X136500Y430884D01*
X136939Y430167D01*
X137485Y429528D01*
X137993Y429094D01*
Y413513D01*
X137294Y413458D01*
X136605Y413293D01*
X135951Y413022D01*
X135347Y412652D01*
X134808Y412192D01*
X134348Y411653D01*
X134250Y411493D01*
Y463750D01*
G37*
G36*
X132500Y346000D02*Y462000D01*
X134250Y463750D01*
Y411493D01*
X133978Y411049D01*
X133707Y410395D01*
X133542Y409706D01*
X133486Y409000D01*
X133542Y408294D01*
X133707Y407605D01*
X133978Y406951D01*
X134250Y406507D01*
Y351252D01*
X134132Y351243D01*
X134018Y351215D01*
X133908Y351170D01*
X133808Y351109D01*
X133718Y351032D01*
X133641Y350942D01*
X133580Y350842D01*
X133535Y350732D01*
X133507Y350618D01*
X133500Y350500D01*
Y347500D01*
X133507Y347382D01*
X133535Y347268D01*
X133580Y347158D01*
X133641Y347058D01*
X133718Y346968D01*
X133808Y346891D01*
X133908Y346830D01*
X134018Y346785D01*
X134132Y346757D01*
X134250Y346748D01*
Y344250D01*
X132500Y346000D01*
G37*
G36*
X375000Y344000D02*Y372000D01*
X390000D01*
Y344000D01*
X375000D01*
G37*
G54D27*X355375Y377500D02*Y394500D01*
Y394375D02*X363000Y402000D01*
Y403500D01*
X355375Y394500D02*X336625D01*
Y377500D02*X324500D01*
X327000Y395500D02*X335625D01*
X336625Y394500D01*
X266000Y362500D02*X261500Y367000D01*
X267000Y373500D02*X262500Y378000D01*
X266500Y384500D02*X262000Y389000D01*
X295815Y433315D02*X288000Y425500D01*
X297331Y433315D02*X295815D01*
X295000Y415000D02*Y424500D01*
X293000Y396000D02*Y403000D01*
X298500Y385500D02*X303000Y381000D01*
X286000Y393500D02*X290500Y389000D01*
X216000D02*X226500D01*
X173000Y357976D02*Y358000D01*
X162500Y368500D01*
X173000Y380024D02*X172976D01*
X162500Y390500D01*
X164000Y401000D02*X163000Y402000D01*
Y415500D01*
X182610Y433315D02*Y424390D01*
X185000Y422000D01*
X196390Y433315D02*Y425390D01*
X193000Y422000D01*
X198000Y409000D02*Y417000D01*
X200000Y419000D01*
G54D28*X269772Y453000D03*
Y433315D03*
X283551D03*
X297331D03*
X283551Y453000D03*
X297331D03*
X311110D03*
X324890D03*
X338669D03*
X352449D03*
X311110Y433315D03*
X324890D03*
X338669D03*
X352449D03*
X366228Y453000D03*
X398331D03*
X412110D03*
X425890D03*
X439669D03*
X366228Y433315D03*
X398331D03*
G54D29*X428079Y422500D03*
X437921D03*
G54D28*X412110Y433315D03*
X425890D03*
X439669D03*
X196390D03*
X210169Y453000D03*
X223949D03*
X237728D03*
X210169Y433315D03*
X223949D03*
X237728D03*
X155051D03*
X168831Y453000D03*
Y433315D03*
X182610Y453000D03*
Y433315D03*
X141272Y453000D03*
Y433315D03*
X155051Y453000D03*
X196390D03*
G54D29*X215421Y400000D03*
X205579D03*
X194921D03*
X185079D03*
G54D30*X186000Y379000D03*
Y389000D03*
X216000D03*
Y379000D03*
Y369000D03*
Y359000D03*
G54D26*G36*
X183000Y362000D02*Y356000D01*
X189000D01*
Y362000D01*
X183000D01*
G37*
G54D30*X186000Y369000D03*
G54D31*X173000Y380024D03*
Y357976D03*
G54D26*G36*
X135000Y352000D02*Y346000D01*
X141000D01*
Y352000D01*
X135000D01*
G37*
G54D30*X148000Y349000D03*
X158000D03*
X168000D03*
X178000D03*
X188000D03*
X198000D03*
X208000D03*
X218000D03*
X228000D03*
X238000D03*
X248000D03*
X258000D03*
X268000D03*
X278000D03*
X288000D03*
X298000D03*
X368000Y409000D03*
X358000D03*
X348000D03*
X338000D03*
X328000D03*
X318000D03*
G54D28*X429500Y393669D03*
Y379890D03*
Y366110D03*
X409815Y393669D03*
Y379890D03*
Y366110D03*
G54D30*X308000Y409000D03*
X298000D03*
X288000D03*
X278000D03*
X268000D03*
X258000D03*
X248000D03*
X238000D03*
X228000D03*
X218000D03*
X208000D03*
X198000D03*
X188000D03*
X178000D03*
X168000D03*
X158000D03*
X148000D03*
X138000D03*
X308000Y349000D03*
X318000D03*
X328000D03*
X338000D03*
X348000D03*
X358000D03*
X368000D03*
G54D28*X429500Y352331D03*
X409815D03*
G54D26*G36*
X349125Y383750D02*Y371250D01*
X361625D01*
Y383750D01*
X349125D01*
G37*
G36*
X330375D02*Y371250D01*
X342875D01*
Y383750D01*
X330375D01*
G37*
G36*
X349125Y400750D02*Y388250D01*
X361625D01*
Y400750D01*
X349125D01*
G37*
G36*
X330375D02*Y388250D01*
X342875D01*
Y400750D01*
X330375D01*
G37*
G54D32*X382500Y364500D02*Y350500D01*
G54D33*X363000Y403500D03*
X324500Y377500D03*
X303000Y381000D03*
X298500Y385500D03*
X290500Y389000D03*
X327000Y395500D03*
X261500Y367000D03*
X266000Y362500D03*
X267000Y373500D03*
X262500Y378000D03*
X266500Y384500D03*
X262000Y389000D03*
X288000Y425500D03*
X295000Y424500D03*
Y415000D03*
X293000Y403000D03*
Y396000D03*
X286000Y393500D03*
X382500Y373500D03*
X373500Y357500D03*
X392000D03*
X226500Y389000D03*
X193000Y422000D03*
X185000D03*
X200000Y419000D03*
X162500Y390500D03*
Y368500D03*
X164000Y401000D03*
X163000Y415500D03*
G54D34*G54D35*G54D36*G54D35*G54D36*G54D37*G54D38*G54D39*G54D35*G54D39*G54D35*M02*
