G04 start of page 2 for group 0 idx 0 *
G04 Title: simple, top *
G04 Creator: pcb 20140316 *
G04 CreationDate: Fri 07 Dec 2018 12:57:29 AM GMT UTC *
G04 For: brian *
G04 Format: Gerber/RS-274X *
G04 PCB-Dimensions (mil): 6000.00 5000.00 *
G04 PCB-Coordinate-Origin: lower left *
%MOIN*%
%FSLAX25Y25*%
%LNTOP*%
%ADD25C,0.0380*%
%ADD24C,0.0268*%
%ADD23C,0.0280*%
%ADD22C,0.0350*%
%ADD21C,0.0453*%
%ADD20C,0.0200*%
%ADD19C,0.0360*%
%ADD18R,0.1250X0.1250*%
%ADD17C,0.0433*%
%ADD16C,0.0001*%
%ADD15C,0.0600*%
%ADD14C,0.0540*%
%ADD13C,0.0768*%
%ADD12C,0.0080*%
%ADD11C,0.0100*%
G54D11*X186000Y379000D02*X190500Y383500D01*
Y394579D01*
X185079Y400000D01*
X216000Y379000D02*X201500D01*
X196500Y374000D01*
X162500Y404500D02*X210921D01*
X196500Y374000D02*X179024D01*
X173000Y380024D01*
X186000Y389000D02*X176000D01*
X168000Y381000D01*
X185079Y400000D02*X165000D01*
X164000Y401000D01*
X196000Y369000D02*X191000Y364000D01*
X178000Y349000D02*X182500Y344500D01*
X191000D01*
X193000Y346500D01*
Y352000D01*
X186000Y359000D01*
X188000Y349000D02*X183000Y354000D01*
X191000Y364000D02*X179024D01*
X173000Y357976D01*
X168000Y357000D02*Y381000D01*
X166000Y351000D02*Y394000D01*
X183000Y354000D02*X171000D01*
X168000Y357000D01*
Y349000D02*X166000Y351000D01*
X162500Y368500D02*X133000Y398000D01*
X159500Y390500D02*X162500D01*
X143000Y407000D02*X159500Y390500D01*
X166000Y394000D02*X153000Y407000D01*
X133000Y425043D02*Y398000D01*
X155051Y423551D02*X143000Y411500D01*
Y407000D01*
X138000Y418000D02*Y409000D01*
X153000Y407000D02*Y417500D01*
X168000Y415000D02*Y409000D01*
X163000Y415500D02*Y416000D01*
X216000Y369000D02*X196000D01*
X208000Y349000D02*X212500Y344500D01*
X232000D01*
X233000Y345500D01*
Y355500D01*
X218000Y349000D02*X221000Y352000D01*
X228000Y349000D02*Y381500D01*
X223000Y386500D01*
X221000Y352000D02*Y401500D01*
X223000Y411000D02*X218500Y415500D01*
X215984Y427500D02*X243000D01*
X247000Y431500D01*
X258000Y411000D02*Y409000D01*
X218500Y415500D02*X196000D01*
X210500Y413500D02*X193500D01*
X196000Y415500D02*X193000Y418500D01*
Y422000D01*
X193500Y413500D02*X185000Y422000D01*
X178000Y409000D02*Y420500D01*
X196500Y423500D02*X194500Y425500D01*
X183000D01*
X262272D02*X201500D01*
X264000Y421000D02*X202000D01*
X196500Y423500D02*X263500D01*
X201500Y425500D02*X199500Y427500D01*
X202000Y421000D02*X200000Y419000D01*
X199500Y427500D02*X180500D01*
X358000Y349000D02*X353500Y344500D01*
X342500D01*
X328000Y359000D01*
Y379000D01*
X326000Y381000D01*
X324500Y377500D02*X306500D01*
X429500Y379890D02*X378890D01*
X326000Y381000D02*X303000D01*
X368000Y349000D02*X358000Y359000D01*
X348000Y349000D02*X378890Y379890D01*
X373500Y357500D02*X392000D01*
X382500Y373500D02*Y357500D01*
X409815Y366110D02*X429500D01*
X445500Y382110D01*
X363000Y417000D02*Y403500D01*
X344500Y428500D02*X348000Y425000D01*
X346500Y431000D02*X350000Y427500D01*
X352500Y463000D02*Y453102D01*
X352449Y433315D02*Y453000D01*
X368039Y422039D02*X363000Y417000D01*
X344500Y456000D02*Y428500D01*
X346500Y457500D02*Y431000D01*
X343000Y461000D02*X346500Y457500D01*
X341500Y459000D02*X344500Y456000D01*
X338669Y453000D02*Y429669D01*
X306000Y461000D02*X343000D01*
X308500Y459000D02*X341500D01*
X308500D02*X305500Y456000D01*
X311110Y453000D02*Y423610D01*
X313000Y417500D02*Y404500D01*
X311110Y423610D02*X303000Y415500D01*
X324890Y429390D02*X313000Y417500D01*
X338669Y429669D02*X323000Y414000D01*
X303000Y415500D02*Y405500D01*
X294000Y376500D02*X323000Y405500D01*
X324890Y453000D02*Y429390D01*
X323000Y414000D02*Y405500D01*
X445500Y396110D02*Y458000D01*
X441000Y463000D01*
X445500Y396000D02*Y382110D01*
X403795Y425000D02*X412110Y433315D01*
X392516Y427500D02*X398331Y433315D01*
Y453000D02*Y433315D01*
X412110Y453000D02*Y433315D01*
X426000Y463000D02*Y433425D01*
X428079Y422500D02*Y431421D01*
X426000Y433500D01*
X428039Y422039D02*X368039D01*
X429500Y393669D02*X383331D01*
X368000Y409000D02*X383331Y393669D01*
X350000Y427500D02*X392516D01*
X348000Y425000D02*X403795D01*
X168831Y453000D02*Y433315D01*
X182610Y453000D02*Y433315D01*
X196390Y453000D02*Y433315D01*
X148000Y457500D02*X153500Y463000D01*
X175500Y428500D02*Y463000D01*
X158000Y409000D02*X162500Y404500D01*
X155051Y453000D02*Y423551D01*
X141272Y453000D02*Y433315D01*
X148000Y457500D02*Y428000D01*
X141272Y433315D02*X133000Y425043D01*
X148000Y428000D02*X138000Y418000D01*
X153000Y417500D02*X168831Y433331D01*
X180500Y427500D02*X168000Y415000D01*
X163000Y416000D02*X175500Y428500D01*
X183000Y425500D02*X178000Y420500D01*
X216000Y389000D02*Y399421D01*
X215421Y400000D01*
X213000Y407500D02*Y411000D01*
X210921Y404500D02*X215000Y400421D01*
X213000Y411000D02*X210500Y413500D01*
X223949Y453000D02*Y433315D01*
X210169Y453000D02*Y433315D01*
X223949Y453000D02*X231949Y461000D01*
X221000Y401500D02*X218500Y404000D01*
X216500D01*
X213000Y407500D01*
X223000Y386500D02*Y411000D01*
X210169Y433315D02*X215984Y427500D01*
X153500Y463000D02*X441000D01*
X300000Y418500D02*X293000D01*
X291000Y416500D01*
X278500D01*
X269000Y418500D02*X289000D01*
X288000Y420500D02*X267500D01*
X264000Y421000D02*X268500Y425500D01*
X288000D02*X268500D01*
X263500Y423500D02*X267500Y427500D01*
X277736D01*
X283551Y433315D01*
X247000Y431500D02*Y451500D01*
X254500Y459000D01*
X281000Y394000D02*X286500Y399500D01*
X293000Y403000D02*Y413000D01*
X295000Y415000D01*
X286000Y393500D02*X288500Y396000D01*
X293000D01*
X303000Y405500D02*X297000Y399500D01*
X286500D02*X297000D01*
X313000Y404500D02*X301000Y392500D01*
X289500D02*X301000D01*
X306500Y377500D02*X278000Y349000D01*
Y350500D02*Y349000D01*
X275500Y376500D02*X248000Y349000D01*
X262500Y380500D02*X266500Y384500D01*
X261500Y367000D02*Y368000D01*
X267000Y373500D01*
X238000Y349000D02*X272500Y383500D01*
X281000Y394000D02*X271500D01*
X233000Y355500D01*
X262500Y378000D02*Y380500D01*
X266000Y362500D02*X278000Y350500D01*
X272500Y383500D02*X280500D01*
X289500Y392500D01*
X275500Y376500D02*X294000D01*
X298500Y385500D02*X294000D01*
X290500Y389000D01*
X226500D02*X262000D01*
X263000Y412500D02*Y406500D01*
X260500Y404000D01*
X243000D01*
X238000Y409000D01*
X269500Y402000D02*X235000D01*
X228000Y409000D01*
X289500Y456000D02*Y430500D01*
X291500Y431500D02*Y458000D01*
X303000D02*Y424500D01*
X297331Y453000D02*Y433315D01*
X295000Y428000D02*X291500Y431500D01*
X295000Y424500D02*Y428000D01*
X299500Y421000D02*X291500D01*
X303000Y424500D02*X299500Y421000D01*
X305500Y424000D02*X300000Y418500D01*
X303000Y458000D02*X306000Y461000D01*
X305500Y456000D02*Y424000D01*
X269000Y418500D02*X263000Y412500D01*
X278500Y416500D02*X273000Y411000D01*
Y405500D01*
X269500Y402000D01*
X267500Y420500D02*X258000Y411000D01*
X291500Y424000D02*X288000Y420500D01*
X291500Y428500D02*Y424000D01*
Y421000D02*X289000Y418500D01*
X289500Y430500D02*X291500Y428500D01*
Y458000D02*X288500Y461000D01*
X286500Y459000D02*X289500Y456000D01*
X288500Y461000D02*X231949D01*
X254500Y459000D02*X286500D01*
X269772Y433000D02*X262272Y425500D01*
X269772Y453000D02*Y433315D01*
X283551Y453000D02*Y433315D01*
G54D12*X375490Y404600D02*X376960D01*
X377450Y405090D01*
X376960Y405580D02*X377450Y405090D01*
X375490Y405580D02*X376960D01*
X375000Y406070D02*X375490Y405580D01*
X375000Y406070D02*X375490Y406560D01*
X376960D01*
X377450Y406070D01*
X375000Y405090D02*X375490Y404600D01*
X378626Y407540D02*Y407442D01*
Y406070D02*Y404600D01*
X380096Y406070D02*Y404600D01*
Y406070D02*X380586Y406560D01*
X381076D01*
X381566Y406070D01*
Y404600D01*
Y406070D02*X382056Y406560D01*
X382546D01*
X383036Y406070D01*
Y404600D01*
X379606Y406560D02*X380096Y406070D01*
X384702D02*Y403130D01*
X384212Y406560D02*X384702Y406070D01*
X385192Y406560D01*
X386172D01*
X386662Y406070D01*
Y405090D01*
X386172Y404600D02*X386662Y405090D01*
X385192Y404600D02*X386172D01*
X384702Y405090D02*X385192Y404600D01*
X387838Y408520D02*Y405090D01*
X388328Y404600D01*
X389798D02*X391268D01*
X389308Y405090D02*X389798Y404600D01*
X389308Y406070D02*Y405090D01*
Y406070D02*X389798Y406560D01*
X390778D01*
X391268Y406070D01*
X389308Y405580D02*X391268D01*
Y406070D02*Y405580D01*
X394698Y406070D02*Y404600D01*
Y406070D02*X395188Y406560D01*
X396168D01*
X394208D02*X394698Y406070D01*
X397834Y404600D02*X399304D01*
X397344Y405090D02*X397834Y404600D01*
X397344Y406070D02*Y405090D01*
Y406070D02*X397834Y406560D01*
X398814D01*
X399304Y406070D01*
X397344Y405580D02*X399304D01*
Y406070D02*Y405580D01*
X400970Y406560D02*X402440D01*
X400480Y406070D02*X400970Y406560D01*
X400480Y406070D02*Y405090D01*
X400970Y404600D01*
X402440D01*
X404106D02*X405576D01*
X403616Y405090D02*X404106Y404600D01*
X403616Y406070D02*Y405090D01*
Y406070D02*X404106Y406560D01*
X405086D01*
X405576Y406070D01*
X403616Y405580D02*X405576D01*
Y406070D02*Y405580D01*
X406752Y407540D02*Y407442D01*
Y406070D02*Y404600D01*
X407732Y406560D02*X408712Y404600D01*
X409692Y406560D02*X408712Y404600D01*
X411358D02*X412828D01*
X410868Y405090D02*X411358Y404600D01*
X410868Y406070D02*Y405090D01*
Y406070D02*X411358Y406560D01*
X412338D01*
X412828Y406070D01*
X410868Y405580D02*X412828D01*
Y406070D02*Y405580D01*
X414494Y406070D02*Y404600D01*
Y406070D02*X414984Y406560D01*
X415964D01*
X414004D02*X414494Y406070D01*
X418904Y408030D02*X419394Y408520D01*
X420864D01*
X421354Y408030D01*
Y407050D01*
X418904Y404600D02*X421354Y407050D01*
X418904Y404600D02*X421354D01*
X422530Y405090D02*X423020Y404600D01*
X422530Y408030D02*Y405090D01*
Y408030D02*X423020Y408520D01*
X424000D01*
X424490Y408030D01*
Y405090D01*
X424000Y404600D02*X424490Y405090D01*
X423020Y404600D02*X424000D01*
X422530Y405580D02*X424490Y407540D01*
X425666Y407736D02*X426450Y408520D01*
Y404600D01*
X425666D02*X427136D01*
X428312Y405090D02*X428802Y404600D01*
X428312Y405874D02*Y405090D01*
Y405874D02*X428998Y406560D01*
X429586D01*
X430272Y405874D01*
Y405090D01*
X429782Y404600D02*X430272Y405090D01*
X428802Y404600D02*X429782D01*
X428312Y407246D02*X428998Y406560D01*
X428312Y408030D02*Y407246D01*
Y408030D02*X428802Y408520D01*
X429782D01*
X430272Y408030D01*
Y407246D01*
X429586Y406560D02*X430272Y407246D01*
X431448Y407736D02*X432232Y408520D01*
Y404600D01*
X431448D02*X432918D01*
X434094Y407736D02*X434878Y408520D01*
Y404600D01*
X434094D02*X435564D01*
X436740Y408030D02*X437230Y408520D01*
X438700D01*
X439190Y408030D01*
Y407050D01*
X436740Y404600D02*X439190Y407050D01*
X436740Y404600D02*X439190D01*
X440366Y405090D02*X440856Y404600D01*
X440366Y405874D02*Y405090D01*
Y405874D02*X441052Y406560D01*
X441640D01*
X442326Y405874D01*
Y405090D01*
X441836Y404600D02*X442326Y405090D01*
X440856Y404600D02*X441836D01*
X440366Y407246D02*X441052Y406560D01*
X440366Y408030D02*Y407246D01*
Y408030D02*X440856Y408520D01*
X441836D01*
X442326Y408030D01*
Y407246D01*
X441640Y406560D02*X442326Y407246D01*
X392460Y414020D02*X392950Y413530D01*
X390990Y414020D02*X392460D01*
X390500Y413530D02*X390990Y414020D01*
X390500Y413530D02*Y412550D01*
X390990Y412060D01*
X392460D01*
X392950Y411570D01*
Y410590D01*
X392460Y410100D02*X392950Y410590D01*
X390990Y410100D02*X392460D01*
X390500Y410590D02*X390990Y410100D01*
X394616D02*X396086D01*
X394126Y410590D02*X394616Y410100D01*
X394126Y411570D02*Y410590D01*
Y411570D02*X394616Y412060D01*
X395596D01*
X396086Y411570D01*
X394126Y411080D02*X396086D01*
Y411570D02*Y411080D01*
X397752Y410100D02*X399222D01*
X397262Y410590D02*X397752Y410100D01*
X397262Y411570D02*Y410590D01*
Y411570D02*X397752Y412060D01*
X398732D01*
X399222Y411570D01*
X397262Y411080D02*X399222D01*
Y411570D02*Y411080D01*
X400888Y411570D02*Y410100D01*
Y411570D02*X401378Y412060D01*
X401868D01*
X402358Y411570D01*
Y410100D01*
Y411570D02*X402848Y412060D01*
X403338D01*
X403828Y411570D01*
Y410100D01*
X400398Y412060D02*X400888Y411570D01*
X405494Y410100D02*X406964D01*
X407454Y410590D01*
X406964Y411080D02*X407454Y410590D01*
X405494Y411080D02*X406964D01*
X405004Y411570D02*X405494Y411080D01*
X405004Y411570D02*X405494Y412060D01*
X406964D01*
X407454Y411570D01*
X405004Y410590D02*X405494Y410100D01*
X410394Y414020D02*X412354D01*
X412844Y413530D01*
Y412550D01*
X412354Y412060D02*X412844Y412550D01*
X410884Y412060D02*X412354D01*
X410884Y414020D02*Y410100D01*
X411668Y412060D02*X412844Y410100D01*
X414510D02*X415980D01*
X414020Y410590D02*X414510Y410100D01*
X414020Y411570D02*Y410590D01*
Y411570D02*X414510Y412060D01*
X415490D01*
X415980Y411570D01*
X414020Y411080D02*X415980D01*
Y411570D02*Y411080D01*
X418626Y412060D02*X419116Y411570D01*
X417646Y412060D02*X418626D01*
X417156Y411570D02*X417646Y412060D01*
X417156Y411570D02*Y410590D01*
X417646Y410100D01*
X419116Y412060D02*Y410590D01*
X419606Y410100D01*
X417646D02*X418626D01*
X419116Y410590D01*
X421272Y410100D02*X422742D01*
X423232Y410590D01*
X422742Y411080D02*X423232Y410590D01*
X421272Y411080D02*X422742D01*
X420782Y411570D02*X421272Y411080D01*
X420782Y411570D02*X421272Y412060D01*
X422742D01*
X423232Y411570D01*
X420782Y410590D02*X421272Y410100D01*
X424408Y411570D02*Y410590D01*
Y411570D02*X424898Y412060D01*
X425878D01*
X426368Y411570D01*
Y410590D01*
X425878Y410100D02*X426368Y410590D01*
X424898Y410100D02*X425878D01*
X424408Y410590D02*X424898Y410100D01*
X428034Y411570D02*Y410100D01*
Y411570D02*X428524Y412060D01*
X429014D01*
X429504Y411570D01*
Y410100D01*
X427544Y412060D02*X428034Y411570D01*
X432150Y412060D02*X432640Y411570D01*
X431170Y412060D02*X432150D01*
X430680Y411570D02*X431170Y412060D01*
X430680Y411570D02*Y410590D01*
X431170Y410100D01*
X432640Y412060D02*Y410590D01*
X433130Y410100D01*
X431170D02*X432150D01*
X432640Y410590D01*
X434306Y414020D02*Y410100D01*
Y410590D02*X434796Y410100D01*
X435776D01*
X436266Y410590D01*
Y411570D02*Y410590D01*
X435776Y412060D02*X436266Y411570D01*
X434796Y412060D02*X435776D01*
X434306Y411570D02*X434796Y412060D01*
X437442Y414020D02*Y410590D01*
X437932Y410100D01*
X439402D02*X440872D01*
X438912Y410590D02*X439402Y410100D01*
X438912Y411570D02*Y410590D01*
Y411570D02*X439402Y412060D01*
X440382D01*
X440872Y411570D01*
X438912Y411080D02*X440872D01*
Y411570D02*Y411080D01*
G54D13*X269772Y453000D03*
Y433315D03*
X283551D03*
X297331D03*
X283551Y453000D03*
X297331D03*
X311110D03*
X324890D03*
X338669D03*
X352449D03*
X311110Y433315D03*
X324890D03*
X338669D03*
X352449D03*
X366228Y453000D03*
X398331D03*
X412110D03*
X425890D03*
X439669D03*
X366228Y433315D03*
X398331D03*
G54D14*X428079Y422500D03*
X437921D03*
G54D13*X412110Y433315D03*
X425890D03*
X439669D03*
X196390D03*
X210169Y453000D03*
X223949D03*
X237728D03*
X210169Y433315D03*
X223949D03*
X237728D03*
X155051D03*
X168831Y453000D03*
Y433315D03*
X182610Y453000D03*
Y433315D03*
X141272Y453000D03*
Y433315D03*
X155051Y453000D03*
X196390D03*
G54D14*X215421Y400000D03*
X205579D03*
X194921D03*
X185079D03*
G54D15*X186000Y379000D03*
Y389000D03*
X216000D03*
Y379000D03*
Y369000D03*
Y359000D03*
G54D16*G36*
X183000Y362000D02*Y356000D01*
X189000D01*
Y362000D01*
X183000D01*
G37*
G54D15*X186000Y369000D03*
G54D17*X173000Y380024D03*
Y357976D03*
G54D16*G36*
X135000Y352000D02*Y346000D01*
X141000D01*
Y352000D01*
X135000D01*
G37*
G54D15*X148000Y349000D03*
X158000D03*
X168000D03*
X178000D03*
X188000D03*
X198000D03*
X208000D03*
X218000D03*
X228000D03*
X238000D03*
X248000D03*
X258000D03*
X268000D03*
X278000D03*
X288000D03*
X298000D03*
X368000Y409000D03*
X358000D03*
X348000D03*
X338000D03*
X328000D03*
X318000D03*
G54D13*X429500Y393669D03*
Y379890D03*
Y366110D03*
X409815Y393669D03*
Y379890D03*
Y366110D03*
G54D15*X308000Y409000D03*
X298000D03*
X288000D03*
X278000D03*
X268000D03*
X258000D03*
X248000D03*
X238000D03*
X228000D03*
X218000D03*
X208000D03*
X198000D03*
X188000D03*
X178000D03*
X168000D03*
X158000D03*
X148000D03*
X138000D03*
X308000Y349000D03*
X318000D03*
X328000D03*
X338000D03*
X348000D03*
X358000D03*
X368000D03*
G54D13*X429500Y352331D03*
X409815D03*
G54D18*X382500Y364500D02*Y350500D01*
G54D19*X363000Y403500D03*
X324500Y377500D03*
X303000Y381000D03*
X298500Y385500D03*
X290500Y389000D03*
X327000Y395500D03*
X261500Y367000D03*
X266000Y362500D03*
X267000Y373500D03*
X262500Y378000D03*
X266500Y384500D03*
X262000Y389000D03*
X288000Y425500D03*
X295000Y424500D03*
Y415000D03*
X293000Y403000D03*
Y396000D03*
X286000Y393500D03*
X382500Y373500D03*
X373500Y357500D03*
X392000D03*
X226500Y389000D03*
X193000Y422000D03*
X185000D03*
X200000Y419000D03*
X162500Y390500D03*
Y368500D03*
X164000Y401000D03*
X163000Y415500D03*
G54D20*G54D21*G54D22*G54D21*G54D22*G54D23*G54D24*G54D25*G54D21*G54D25*G54D21*M02*
