M48
INCH
T46C0.020
T45C0.038
T44C0.027
T43C0.028
T42C0.035
T41C0.045
%
T46
X016250Y039050
X016250Y036850
X016300Y041550
X016400Y040100
X018500Y042200
X019300Y042200
X020000Y041900
X022650Y038900
X026150Y036700
X026200Y038900
X026250Y037800
X026600Y036250
X026650Y038450
X026700Y037350
X028600Y039350
X028800Y042550
X029050Y038900
X029300Y040300
X029300Y039600
X029500Y042450
X029500Y041500
X029850Y038550
X030300Y038100
X032450Y037750
X032700Y039550
X036300Y040350
X037350Y035750
X038250Y037350
X039200Y035750
T44
X017300Y038002
X017300Y035798
T43
X018600Y038900
X018600Y037900
X018600Y036900
X018600Y035900
X021600Y038900
X021600Y037900
X021600Y036900
X021600Y035900
T42
X018508Y040000
X019492Y040000
X020558Y040000
X021542Y040000
X042808Y042250
X043792Y042250
T45
X013800Y040900
X013800Y034900
X014800Y040900
X014800Y034900
X015800Y040900
X015800Y034900
X016800Y040900
X016800Y034900
X017800Y040900
X017800Y034900
X018800Y040900
X018800Y034900
X019800Y040900
X019800Y034900
X020800Y040900
X020800Y034900
X021800Y040900
X021800Y034900
X022800Y040900
X022800Y034900
X023800Y040900
X023800Y034900
X024800Y040900
X024800Y034900
X025800Y040900
X025800Y034900
X026800Y040900
X026800Y034900
X027800Y040900
X027800Y034900
X028800Y040900
X028800Y034900
X029800Y040900
X029800Y034900
X030800Y040900
X030800Y034900
X031800Y040900
X031800Y034900
X032800Y040900
X032800Y034900
X033800Y040900
X033800Y034900
X034800Y040900
X034800Y034900
X035800Y040900
X035800Y034900
X036800Y040900
X036800Y034900
T41
X014127Y045300
X014127Y043331
X015505Y045300
X015505Y043331
X016883Y045300
X016883Y043331
X018261Y045300
X018261Y043331
X019639Y045300
X019639Y043331
X021017Y045300
X021017Y043331
X022395Y045300
X022395Y043331
X023773Y045300
X023773Y043331
X026977Y045300
X026977Y043331
X028355Y045300
X028355Y043331
X029733Y045300
X029733Y043331
X031111Y045300
X031111Y043331
X032489Y045300
X032489Y043331
X033867Y045300
X033867Y043331
X035245Y045300
X035245Y043331
X036623Y045300
X036623Y043331
X039833Y045300
X039833Y043331
X040981Y039367
X040981Y037989
X040981Y036611
X040981Y035233
X041211Y045300
X041211Y043331
X042589Y045300
X042589Y043331
X042950Y039367
X042950Y037989
X042950Y036611
X042950Y035233
X043967Y045300
X043967Y043331
M30
