M48
INCH
T113C0.035
T112C0.020
T111C0.028
T110C0.012
T109C0.038
T108C0.044
T107C0.129
T106C0.028
%
T110
X015239Y024448
X015239Y024074
X015239Y023700
X015239Y023326
X015239Y022952
X015613Y024448
X015613Y024074
X015613Y023700
X015613Y023326
X015613Y022952
X015987Y024448
X015987Y024074
X015987Y023700
X015987Y023326
X015987Y022952
X016361Y024448
X016361Y024074
X016361Y023700
X016361Y023326
X016361Y022952
T112
X014900Y029300
X014900Y028700
X015300Y018800
X017200Y018400
X017500Y019500
X018200Y024400
X018500Y018200
X019400Y028900
X019900Y028200
X020000Y027500
X020400Y028200
X020500Y027200
X020500Y026500
X021400Y027200
X021500Y024200
X021800Y028400
X022300Y028500
X022400Y027600
X022600Y025200
X023100Y025200
X024500Y026900
X024500Y026400
X024500Y024000
X025000Y023700
X025400Y024800
X025500Y026400
X025500Y024000
X025800Y017600
X026000Y023700
X026400Y017600
X026500Y026400
X026800Y023200
X027300Y030100
X027700Y024600
X027800Y031800
X027900Y030100
X027900Y018100
X028000Y022500
X028500Y029300
X028500Y024300
X028900Y024900
X029600Y032000
X029900Y029200
X030100Y032000
X030700Y025200
X031000Y021200
X031100Y025400
X031600Y021200
X032500Y023800
X033100Y029600
X033800Y030700
X034100Y025300
X035500Y025600
X036600Y015400
X037100Y015400
X037900Y016500
X038800Y029000
X038800Y026800
X038800Y026300
X039400Y016500
X039900Y027600
X039900Y027200
X039900Y026800
X040000Y017800
X040400Y026300
X040400Y019000
X040400Y018600
X040700Y018900
X040800Y018600
X040900Y026300
X041100Y024100
X041300Y018200
X041300Y017800
X041400Y018500
X041500Y016200
X041700Y028300
X041700Y018200
X041700Y017800
X041700Y016500
X041800Y026300
X041800Y018500
X041900Y027500
X041900Y016200
X042300Y016500
X042500Y024100
X042800Y028500
X042900Y016500
X043000Y027500
X043000Y027100
X043000Y026700
X043000Y026300
X043400Y024500
X043700Y014300
X044200Y029500
X044200Y028900
X044200Y028100
X044200Y027500
X044200Y017800
X044300Y018500
X044500Y028600
X044500Y027800
X044700Y017600
X044800Y029600
X044800Y029000
X044800Y028100
X044800Y027500
X045100Y027800
X045500Y020700
X045500Y018500
X045700Y028300
X045900Y020700
X045900Y018500
X046100Y028500
X046100Y027444
X046200Y015500
X046200Y015100
X046200Y014700
X046200Y014300
X046300Y020700
X046700Y020700
X046800Y014400
X047100Y029900
X047200Y019700
X047400Y031500
X047500Y030400
X047600Y031900
X047800Y031500
X048000Y021400
X048100Y023400
X048300Y018500
X048400Y017800
X048400Y014400
X048700Y026300
X048900Y017600
X049100Y026300
X049100Y014400
X049200Y026800
X049400Y014900
X049500Y028300
X049500Y027900
X049800Y026900
X049800Y017300
X049900Y028300
X049900Y027900
X049900Y021800
X050100Y029100
X050100Y027200
X050100Y019700
X050200Y026800
X050200Y017700
X050200Y016900
X050300Y014000
X050400Y023400
X050500Y021100
X051300Y019700
X051300Y019300
X051300Y018900
X051300Y018500
X051700Y027000
X052200Y022600
X052300Y022100
X052500Y016700
T106
X016306Y031000
X016306Y015000
X017094Y031000
X017094Y015000
X019606Y031000
X019606Y015000
X020394Y031000
X020394Y015000
X022906Y031000
X022906Y015000
X023694Y031000
X023694Y015000
X026219Y031000
X026413Y015000
X027006Y031000
X027200Y015000
X027794Y031000
X027987Y015000
X028581Y031000
X038825Y031000
X038825Y015000
X039613Y031000
X039613Y015000
X040400Y031000
X040400Y015000
X041187Y031000
X041187Y015000
X041975Y031000
X041975Y015000
X046813Y031000
X046813Y015000
X047600Y031000
X047600Y015000
X048387Y031000
X048387Y015000
T111
X012800Y023800
X013000Y027600
X015000Y027600
X028600Y031800
X028600Y030200
X029100Y031500
X029100Y030500
X030700Y031900
X030700Y030700
X030700Y029700
X030700Y028700
X030700Y027700
X030700Y026800
X030800Y019300
X030800Y018200
X030800Y017100
X030800Y016400
X030800Y015400
X030800Y014200
X031500Y031900
X031500Y019300
X031500Y017100
X031500Y016400
X031500Y014200
X032200Y031900
X032200Y030700
X032200Y019300
X032200Y018200
X032200Y017100
X032200Y016400
X032200Y015400
X032200Y014200
X032300Y029700
X032300Y028700
X032300Y027700
X032300Y026700
X032400Y021400
X032600Y022600
X032900Y020900
X033500Y022900
X033600Y022100
X034500Y031900
X034500Y029700
X034600Y030700
X034600Y028700
X034600Y027700
X034600Y022900
X034600Y022400
X034600Y019000
X034600Y018200
X034600Y017200
X034600Y016400
X034600Y015400
X034600Y014200
X035000Y022300
X035200Y022900
X035300Y031900
X035300Y017200
X035300Y016400
X035300Y014200
X036000Y028700
X036000Y027700
X036000Y022900
X036000Y018200
X036000Y017200
X036000Y016400
X036000Y015400
X036000Y014200
X036100Y031900
X036100Y030700
X036100Y029700
X036100Y024700
X036100Y022300
X036600Y020600
X037100Y020600
X037600Y020600
X038100Y020600
X039500Y021100
X039600Y024900
X040100Y021100
X040200Y022400
X040700Y021400
X040900Y022400
X041300Y021400
X041500Y024900
X041600Y022400
X042000Y021800
X042100Y024900
X042300Y022400
X042300Y021100
X042700Y021800
X042900Y022400
X043000Y029100
X043000Y024800
X043300Y021100
X043900Y024900
X043900Y021100
X044500Y025100
X046500Y021700
X047100Y024900
X047500Y021100
X047700Y024900
X048400Y021100
X048600Y024900
X049000Y021100
X049600Y021100
X049800Y024600
X050400Y024600
X051100Y024900
X051200Y022300
X051600Y021100
X051700Y024900
X051800Y019700
X051900Y026300
T113
X013200Y024500
X016500Y020900
X020500Y023700
X023900Y022500
X026000Y027900
X028600Y022100
X037100Y019000
X037800Y019000
X044900Y023300
X045600Y025400
X046300Y023300
T109
X013000Y026000
X013000Y020000
X014000Y026000
X014000Y020000
X015000Y026000
X015000Y020000
X016000Y026000
X016000Y020000
X017000Y026000
X017000Y020000
X018000Y026000
X018000Y020000
X019000Y026000
X019000Y020000
X020000Y026000
X020000Y020000
X021000Y026000
X021000Y020000
X022000Y026000
X022000Y020000
X023000Y026000
X023000Y020000
X024000Y026000
X024000Y020000
X025000Y026000
X025000Y020000
X026000Y026000
X026000Y020000
X027000Y026000
X027000Y020000
X028000Y026000
X028000Y020000
X029000Y026000
X029000Y020000
X030000Y026000
X030000Y020000
X031000Y026000
X031000Y020000
X032000Y026000
X032000Y020000
X033000Y026000
X033000Y020000
X034000Y026000
X034000Y020000
X035000Y026000
X035000Y020000
X036000Y026000
X036000Y020000
T108
X015716Y030331
X017684Y015669
X019016Y030331
X020984Y015669
X022316Y030331
X024284Y015669
X025628Y030331
X028578Y015669
X038235Y030331
X042565Y015669
X046222Y030331
X048978Y015669
T107
X013700Y031000
X013700Y015000
X051500Y031000
X051500Y015000
M30
