<?xml version="1.0" encoding="UTF-8"?>
<svg xmlns="http://www.w3.org/2000/svg" xmlns:xlink="http://www.w3.org/1999/xlink" width="844pt" height="844pt" viewBox="0 0 844 844" version="1.1">
<g id="surface2">
<path style="fill:none;stroke-width:2;stroke-linecap:butt;stroke-linejoin:miter;stroke:rgb(0%,0%,0%);stroke-opacity:1;stroke-miterlimit:10;" d="M 0 350.769531 L 61.320312 350.769531 M 28.71875 350.769531 L 33.71875 350.769531 C 33.71875 357.4375 23.71875 357.4375 23.71875 350.769531 C 23.71875 344.101562 33.71875 344.101562 33.71875 350.769531 M 0 -350.769531 L 61.320312 -350.769531 M 28.71875 -350.769531 L 33.71875 -350.769531 C 33.71875 -344.101562 23.71875 -344.101562 23.71875 -350.769531 C 23.71875 -357.4375 33.71875 -357.4375 33.71875 -350.769531 M 0 62.300781 L 124.601562 62.300781 L 124.601562 166.136719 L 0 166.136719 Z M 0 -62.300781 L 124.601562 -62.300781 L 124.601562 62.300781 L 0 62.300781 Z M 0 -166.136719 L 124.601562 -166.136719 L 124.601562 -62.300781 L 0 -62.300781 Z M 124.601562 0 L 217.40625 0 L 217.40625 166.136719 L 124.601562 166.136719 Z M 124.601562 -166.136719 L 217.40625 -166.136719 L 217.40625 0 L 124.601562 0 Z M 124.601562 166.136719 L 247.257812 166.136719 L 247.257812 195.066406 L 124.601562 195.066406 Z M 217.40625 -166.136719 L 247.257812 -166.136719 L 247.257812 166.136719 L 217.40625 166.136719 Z M 124.601562 -195.066406 L 247.257812 -195.066406 L 247.257812 -166.136719 L 124.601562 -166.136719 Z M 0 166.136719 L 124.601562 166.136719 L 124.601562 224.867188 L 0 224.867188 Z M 0 -224.867188 L 124.601562 -224.867188 L 124.601562 -166.136719 L 0 -166.136719 Z M 0 -224.867188 " transform="matrix(1,0,0,1,0,422)"/>
<path style="fill:none;stroke-width:2;stroke-linecap:butt;stroke-linejoin:round;stroke:rgb(0%,0%,0%);stroke-opacity:1;stroke-miterlimit:10;" d="M 0 0 L 0 420.535156 M 0 0 L 0 -420.535156 M 0 0 L 841.066406 0 " transform="matrix(1,0,0,1,0,422)"/>
<path style="fill:none;stroke-width:2;stroke-linecap:butt;stroke-linejoin:round;stroke:rgb(0%,0%,0%);stroke-opacity:1;stroke-miterlimit:10;" d="M 556.351562 370.910156 L 485.546875 330.03125 M 522.632812 351.441406 L 527.632812 351.441406 C 527.632812 358.109375 517.632812 358.109375 517.632812 351.441406 C 517.632812 344.777344 527.632812 344.777344 527.632812 351.441406 M 593.910156 346.859375 L 593.910156 265.101562 M 593.910156 307.921875 L 598.910156 307.921875 C 598.910156 314.589844 588.910156 314.589844 588.910156 307.921875 C 588.910156 301.253906 598.910156 301.253906 598.910156 307.921875 M 631.898438 370.753906 L 702.703125 329.875 M 665.621094 351.285156 L 670.621094 351.285156 C 670.621094 357.949219 660.621094 357.949219 660.621094 351.285156 C 660.621094 344.617188 670.621094 344.617188 670.621094 351.285156 M 556.351562 -370.910156 L 485.546875 -330.03125 M 593.910156 -346.859375 L 593.910156 -265.101562 M 631.898438 -370.753906 L 702.703125 -329.875 M 543.234375 394.804688 L 569.46875 347.019531 M 569.46875 347.019531 L 618.351562 346.703125 M 618.351562 346.703125 L 645.449219 394.804688 M 543.234375 394.804688 L 645.449219 394.804688 M 543.234375 -394.804688 L 569.46875 -347.019531 M 569.46875 -347.019531 L 618.351562 -346.703125 M 618.351562 -346.703125 L 645.449219 -394.804688 M 543.234375 -394.804688 L 645.449219 -394.804688 " transform="matrix(1,0,0,1,0,422)"/>
<path style="fill:none;stroke-width:2;stroke-linecap:butt;stroke-linejoin:round;stroke:rgb(0%,0%,0%);stroke-opacity:1;stroke-miterlimit:10;" d="M 571.742188 28.242188 L 489.984375 28.242188 M 571.742188 28.242188 L 548.023438 28.242188 C 548.023438 34.910156 538.023438 34.910156 538.023438 28.242188 C 538.023438 21.578125 548.023438 21.578125 548.023438 28.242188 M 571.742188 -28.242188 L 489.984375 -28.242188 M 571.742188 -28.242188 L 548.023438 -28.242188 C 548.023438 -21.578125 538.023438 -21.578125 538.023438 -28.242188 C 538.023438 -34.910156 548.023438 -34.910156 548.023438 -28.242188 M 689.15625 72.359375 L 689.15625 154.121094 M 689.15625 101.078125 L 694.15625 101.078125 C 694.15625 107.746094 684.15625 107.746094 684.15625 101.078125 C 684.15625 94.410156 694.15625 94.410156 694.15625 101.078125 M 745.617188 72.359375 L 745.617188 154.121094 M 745.617188 101.078125 L 750.617188 101.078125 C 750.617188 107.746094 740.617188 107.746094 740.617188 101.078125 C 740.617188 94.410156 750.617188 94.410156 750.617188 101.078125 M 802.078125 72.359375 L 802.078125 154.121094 M 802.078125 101.078125 L 807.078125 101.078125 C 807.078125 107.746094 797.078125 107.746094 797.078125 101.078125 C 797.078125 94.410156 807.078125 94.410156 807.078125 101.078125 M 689.15625 -72.359375 L 689.15625 -154.121094 M 689.15625 -101.078125 L 694.15625 -101.078125 C 694.15625 -94.410156 684.15625 -94.410156 684.15625 -101.078125 C 684.15625 -107.746094 694.15625 -107.746094 694.15625 -101.078125 M 745.617188 -72.359375 L 745.617188 -154.121094 M 745.617188 -101.078125 L 750.617188 -101.078125 C 750.617188 -94.410156 740.617188 -94.410156 740.617188 -101.078125 C 740.617188 -107.746094 750.617188 -107.746094 750.617188 -101.078125 M 802.078125 -72.359375 L 802.078125 -154.121094 M 802.078125 -101.078125 L 807.078125 -101.078125 C 807.078125 -94.410156 797.078125 -94.410156 797.078125 -101.078125 C 797.078125 -107.746094 807.078125 -107.746094 807.078125 -101.078125 M 571.742188 -72.359375 L 820.296875 -72.359375 L 820.296875 72.359375 L 571.742188 72.359375 Z M 571.742188 -72.359375 " transform="matrix(1,0,0,1,0,422)"/>
</g>
</svg>
