<?xml version="1.0" encoding="UTF-8"?>
<svg xmlns="http://www.w3.org/2000/svg" xmlns:xlink="http://www.w3.org/1999/xlink" width="844pt" height="422pt" viewBox="0 0 844 422" version="1.1">
<g id="surface2">
<path style="fill:none;stroke-width:2;stroke-linecap:butt;stroke-linejoin:miter;stroke:rgb(0%,0%,0%);stroke-opacity:1;stroke-miterlimit:10;" d="M -355.8125 -74.476562 L -347.523438 -66.1875 " transform="matrix(1,0,0,1,422,211)"/>
<path style="fill:none;stroke-width:2;stroke-linecap:butt;stroke-linejoin:miter;stroke:rgb(0%,0%,0%);stroke-opacity:1;stroke-miterlimit:10;" d="M -355.8125 -66.1875 L -347.523438 -74.476562 " transform="matrix(1,0,0,1,422,211)"/>
<path style="fill:none;stroke-width:2;stroke-linecap:butt;stroke-linejoin:miter;stroke:rgb(0%,0%,0%);stroke-opacity:1;stroke-miterlimit:10;" d="M -285.476562 -74.476562 L -277.1875 -66.1875 " transform="matrix(1,0,0,1,422,211)"/>
<path style="fill:none;stroke-width:2;stroke-linecap:butt;stroke-linejoin:miter;stroke:rgb(0%,0%,0%);stroke-opacity:1;stroke-miterlimit:10;" d="M -285.476562 -66.1875 L -277.1875 -74.476562 " transform="matrix(1,0,0,1,422,211)"/>
<path style="fill:none;stroke-width:2;stroke-linecap:butt;stroke-linejoin:miter;stroke:rgb(0%,0%,0%);stroke-opacity:1;stroke-miterlimit:10;" d="M -144.8125 -74.476562 L -136.523438 -66.1875 " transform="matrix(1,0,0,1,422,211)"/>
<path style="fill:none;stroke-width:2;stroke-linecap:butt;stroke-linejoin:miter;stroke:rgb(0%,0%,0%);stroke-opacity:1;stroke-miterlimit:10;" d="M -144.8125 -66.1875 L -136.523438 -74.476562 " transform="matrix(1,0,0,1,422,211)"/>
<path style="fill:none;stroke-width:2;stroke-linecap:butt;stroke-linejoin:miter;stroke:rgb(0%,0%,0%);stroke-opacity:1;stroke-miterlimit:10;" d="M -74.476562 -74.476562 L -66.1875 -66.1875 " transform="matrix(1,0,0,1,422,211)"/>
<path style="fill:none;stroke-width:2;stroke-linecap:butt;stroke-linejoin:miter;stroke:rgb(0%,0%,0%);stroke-opacity:1;stroke-miterlimit:10;" d="M -74.476562 -66.1875 L -66.1875 -74.476562 " transform="matrix(1,0,0,1,422,211)"/>
<path style="fill:none;stroke-width:2;stroke-linecap:butt;stroke-linejoin:miter;stroke:rgb(0%,0%,0%);stroke-opacity:1;stroke-miterlimit:10;" d="M -4.144531 -74.476562 L 4.144531 -66.1875 " transform="matrix(1,0,0,1,422,211)"/>
<path style="fill:none;stroke-width:2;stroke-linecap:butt;stroke-linejoin:miter;stroke:rgb(0%,0%,0%);stroke-opacity:1;stroke-miterlimit:10;" d="M -4.144531 -66.1875 L 4.144531 -74.476562 " transform="matrix(1,0,0,1,422,211)"/>
<path style="fill:none;stroke-width:2;stroke-linecap:butt;stroke-linejoin:miter;stroke:rgb(0%,0%,0%);stroke-opacity:1;stroke-miterlimit:10;" d="M 66.1875 -74.476562 L 74.476562 -66.1875 " transform="matrix(1,0,0,1,422,211)"/>
<path style="fill:none;stroke-width:2;stroke-linecap:butt;stroke-linejoin:miter;stroke:rgb(0%,0%,0%);stroke-opacity:1;stroke-miterlimit:10;" d="M 66.1875 -66.1875 L 74.476562 -74.476562 " transform="matrix(1,0,0,1,422,211)"/>
<path style="fill:none;stroke-width:2;stroke-linecap:butt;stroke-linejoin:miter;stroke:rgb(0%,0%,0%);stroke-opacity:1;stroke-miterlimit:10;" d="M 136.523438 -74.476562 L 144.8125 -66.1875 " transform="matrix(1,0,0,1,422,211)"/>
<path style="fill:none;stroke-width:2;stroke-linecap:butt;stroke-linejoin:miter;stroke:rgb(0%,0%,0%);stroke-opacity:1;stroke-miterlimit:10;" d="M 136.523438 -66.1875 L 144.8125 -74.476562 " transform="matrix(1,0,0,1,422,211)"/>
<path style="fill:none;stroke-width:2;stroke-linecap:butt;stroke-linejoin:miter;stroke:rgb(0%,0%,0%);stroke-opacity:1;stroke-miterlimit:10;" d="M 277.1875 -74.476562 L 285.476562 -66.1875 " transform="matrix(1,0,0,1,422,211)"/>
<path style="fill:none;stroke-width:2;stroke-linecap:butt;stroke-linejoin:miter;stroke:rgb(0%,0%,0%);stroke-opacity:1;stroke-miterlimit:10;" d="M 277.1875 -66.1875 L 285.476562 -74.476562 " transform="matrix(1,0,0,1,422,211)"/>
<path style="fill:none;stroke-width:2;stroke-linecap:butt;stroke-linejoin:miter;stroke:rgb(0%,0%,0%);stroke-opacity:1;stroke-miterlimit:10;" d="M -355.8125 66.1875 L -347.523438 74.476562 " transform="matrix(1,0,0,1,422,211)"/>
<path style="fill:none;stroke-width:2;stroke-linecap:butt;stroke-linejoin:miter;stroke:rgb(0%,0%,0%);stroke-opacity:1;stroke-miterlimit:10;" d="M -355.8125 74.476562 L -347.523438 66.1875 " transform="matrix(1,0,0,1,422,211)"/>
<path style="fill:none;stroke-width:2;stroke-linecap:butt;stroke-linejoin:miter;stroke:rgb(0%,0%,0%);stroke-opacity:1;stroke-miterlimit:10;" d="M -285.476562 66.1875 L -277.1875 74.476562 " transform="matrix(1,0,0,1,422,211)"/>
<path style="fill:none;stroke-width:2;stroke-linecap:butt;stroke-linejoin:miter;stroke:rgb(0%,0%,0%);stroke-opacity:1;stroke-miterlimit:10;" d="M -285.476562 74.476562 L -277.1875 66.1875 " transform="matrix(1,0,0,1,422,211)"/>
</g>
</svg>
