G04 start of page 10 for group -4062 idx -4062 *
G04 Title: fet12v2, soldermask *
G04 Creator: pcb 20140316 *
G04 CreationDate: Wed 13 Jun 2018 07:35:06 AM GMT UTC *
G04 For: brian *
G04 Format: Gerber/RS-274X *
G04 PCB-Dimensions (mil): 6000.00 5000.00 *
G04 PCB-Coordinate-Origin: lower left *
%MOIN*%
%FSLAX25Y25*%
%LNBOTTOMMASK*%
%ADD141R,0.0550X0.0550*%
%ADD140R,0.2350X0.2350*%
%ADD139R,0.0906X0.0906*%
%ADD138R,0.1000X0.1000*%
%ADD137R,0.1400X0.1400*%
%ADD136R,0.1100X0.1100*%
%ADD135R,0.2550X0.2550*%
%ADD134R,0.0650X0.0650*%
%ADD133R,0.0300X0.0300*%
%ADD132R,0.1350X0.1350*%
%ADD131R,0.3450X0.3450*%
%ADD130R,0.1250X0.1250*%
%ADD129R,0.0850X0.0850*%
%ADD128R,0.2150X0.2150*%
%ADD127C,0.2190*%
%ADD126C,0.0010*%
%ADD125C,0.0950*%
G54D125*X390000Y161000D03*
G54D126*X372949Y164232D03*
X377673D03*
X372949Y159508D03*
X377673D03*
X363500Y164232D03*
X368224D03*
Y159508D03*
X349327Y178405D03*
Y173681D03*
Y168956D03*
X354051Y178405D03*
Y173681D03*
Y168956D03*
X358776Y178405D03*
Y173681D03*
Y168956D03*
X363500Y178405D03*
Y173681D03*
X368224D03*
X372949D03*
X377673D03*
X368224Y178405D03*
X372949D03*
X377673D03*
X363500Y168956D03*
X368224D03*
X372949D03*
X377673D03*
X349327Y164232D03*
Y104405D03*
X354051D03*
X349327Y99681D03*
X354051D03*
Y164232D03*
X358776D03*
G54D125*X337000Y144000D03*
G54D126*X349327Y159508D03*
X354051D03*
X358776D03*
X363500D03*
G54D125*X390000Y141000D03*
G54D126*X315224Y178405D03*
Y173681D03*
Y168956D03*
X319949Y178405D03*
Y173681D03*
Y168956D03*
X324673Y178405D03*
Y173681D03*
Y168956D03*
X315224Y164232D03*
Y159508D03*
X319949Y164232D03*
Y159508D03*
X324673Y164232D03*
Y159508D03*
X296327Y178405D03*
X301051D03*
X305776D03*
X310500D03*
X296327Y173681D03*
Y168956D03*
Y164232D03*
X301051Y173681D03*
X305776D03*
X310500D03*
X301051Y168956D03*
X305776D03*
X310500D03*
X301051Y164232D03*
X305776D03*
X310500D03*
X296327Y159508D03*
X301051D03*
X305776D03*
X310500D03*
G54D125*X443000Y144000D03*
Y85500D03*
Y63500D03*
G54D126*X455327Y104405D03*
Y99681D03*
X460051D03*
X455327Y94956D03*
Y90232D03*
X460051D03*
X455327Y85508D03*
X460051D03*
Y104405D03*
X464776D03*
X469500D03*
X474224D03*
X478949D03*
X483673D03*
X464776Y99681D03*
X469500D03*
X474224D03*
X478949D03*
X483673D03*
X460051Y94956D03*
X464776D03*
X469500D03*
X474224D03*
X478949D03*
X483673D03*
X464776Y90232D03*
X469500D03*
X474224D03*
X478949D03*
X483673D03*
X464776Y85508D03*
X469500D03*
X474224D03*
X478949D03*
X483673D03*
G54D125*X496000Y161000D03*
Y141000D03*
G54D126*X478949Y178405D03*
X483673D03*
X478949Y173681D03*
X483673D03*
X478949Y168956D03*
X483673D03*
X478949Y164232D03*
X483673D03*
X478949Y159508D03*
X483673D03*
X474224Y178405D03*
X464776D03*
X469500D03*
X464776Y173681D03*
X469500D03*
X474224D03*
X455327Y178405D03*
X460051D03*
X455327Y173681D03*
X460051D03*
X455327Y168956D03*
X460051D03*
X464776D03*
X469500D03*
X474224D03*
X455327Y164232D03*
X460051D03*
X455327Y159508D03*
X460051D03*
X464776Y164232D03*
X469500D03*
X474224D03*
X464776Y159508D03*
X469500D03*
X474224D03*
X508327Y178405D03*
Y173681D03*
X513051Y178405D03*
Y173681D03*
X517776D03*
X508327Y168956D03*
Y164232D03*
X513051D03*
X517776Y178405D03*
X522500D03*
X527224D03*
X531949D03*
X536673D03*
X522500Y173681D03*
X527224D03*
X531949D03*
X536673D03*
X513051Y168956D03*
X517776D03*
X522500D03*
X527224D03*
X531949D03*
X536673D03*
X517776Y164232D03*
X522500D03*
X527224D03*
X531949D03*
X536673D03*
X508327Y159508D03*
X513051D03*
X517776D03*
X522500D03*
X527224D03*
X531949D03*
X536673D03*
G54D125*X496000Y63500D03*
Y98500D03*
G54D127*X495000Y121000D03*
G54D126*X522500Y104405D03*
X527224D03*
Y99681D03*
X531949Y104405D03*
Y99681D03*
X536673Y104405D03*
Y99681D03*
X522500D03*
Y94956D03*
X527224D03*
X508327Y104405D03*
X513051D03*
X517776D03*
X508327Y99681D03*
X513051D03*
X517776D03*
X508327Y94956D03*
X513051D03*
X517776D03*
X508327Y90232D03*
X513051D03*
X517776D03*
X508327Y85508D03*
X513051D03*
X517776D03*
X531949Y94956D03*
X536673D03*
X522500Y90232D03*
Y85508D03*
X527224D03*
X531949D03*
X527224Y90232D03*
X531949D03*
X536673D03*
Y85508D03*
X421224Y178405D03*
Y173681D03*
Y168956D03*
X425949Y178405D03*
Y173681D03*
Y168956D03*
X430673Y178405D03*
Y173681D03*
Y168956D03*
X421224Y164232D03*
Y159508D03*
X425949Y164232D03*
Y159508D03*
X430673Y164232D03*
Y159508D03*
X402327Y178405D03*
X407051D03*
X411776D03*
X416500D03*
X402327Y173681D03*
Y168956D03*
Y164232D03*
X407051Y173681D03*
X411776D03*
X416500D03*
X407051Y168956D03*
X411776D03*
X416500D03*
X407051Y164232D03*
X411776D03*
X416500D03*
X402327Y159508D03*
X407051D03*
X411776D03*
X416500D03*
G54D125*X390000Y98500D03*
Y63500D03*
G54D127*X389000Y121000D03*
G54D126*X402327Y104405D03*
X407051D03*
X411776D03*
X416500D03*
X421224D03*
X425949D03*
Y99681D03*
Y94956D03*
Y90232D03*
X430673Y104405D03*
Y99681D03*
Y94956D03*
Y90232D03*
X407051Y99681D03*
X411776D03*
X416500D03*
X421224D03*
X411776Y94956D03*
X416500D03*
X421224D03*
X411776Y90232D03*
X416500D03*
X421224D03*
X402327Y99681D03*
Y94956D03*
X407051D03*
X402327Y90232D03*
X407051D03*
X402327Y85508D03*
X407051D03*
X411776D03*
X416500D03*
X421224D03*
X425949D03*
X430673D03*
G54D125*X284000Y161000D03*
G54D126*X266949Y164232D03*
X271673D03*
X266949Y159508D03*
X271673D03*
X257500Y164232D03*
X262224D03*
X257500Y159508D03*
X262224D03*
X243327Y178405D03*
Y173681D03*
Y168956D03*
X248051Y178405D03*
Y173681D03*
Y168956D03*
X252776Y178405D03*
Y173681D03*
Y168956D03*
X257500Y178405D03*
Y173681D03*
X262224D03*
X266949D03*
X271673D03*
X262224Y178405D03*
X266949D03*
X271673D03*
X257500Y168956D03*
X262224D03*
X266949D03*
X271673D03*
X243327Y164232D03*
Y104405D03*
X248051D03*
X243327Y99681D03*
X248051D03*
Y164232D03*
X252776D03*
G54D125*X231000Y144000D03*
G54D126*X243327Y159508D03*
X248051D03*
X252776D03*
G54D127*X283000Y121000D03*
G54D125*X284000Y141000D03*
X337000Y85500D03*
Y63500D03*
G54D126*X358776Y104405D03*
X363500D03*
Y99681D03*
X368224Y104405D03*
X372949D03*
X377673D03*
X368224Y99681D03*
Y94956D03*
X372949Y99681D03*
Y94956D03*
X377673Y99681D03*
Y94956D03*
X358776Y99681D03*
Y94956D03*
X363500D03*
X349327D03*
X354051D03*
X349327Y90232D03*
X354051D03*
X349327Y85508D03*
X354051D03*
X358776Y90232D03*
Y85508D03*
X363500Y90232D03*
Y85508D03*
X368224Y90232D03*
Y85508D03*
X372949Y90232D03*
X377673D03*
X372949Y85508D03*
X377673D03*
G54D125*X231000Y85500D03*
Y63500D03*
G54D126*X252776Y104405D03*
X257500D03*
Y99681D03*
X262224Y104405D03*
X266949D03*
X271673D03*
X262224Y99681D03*
Y94956D03*
X266949Y99681D03*
Y94956D03*
X271673Y99681D03*
Y94956D03*
X252776Y99681D03*
Y94956D03*
X257500D03*
X243327D03*
X248051D03*
X243327Y90232D03*
X248051D03*
X243327Y85508D03*
X248051D03*
X252776Y90232D03*
Y85508D03*
X257500Y90232D03*
Y85508D03*
X262224Y90232D03*
Y85508D03*
X266949Y90232D03*
X271673D03*
X266949Y85508D03*
X271673D03*
G54D125*X284000Y98500D03*
Y63500D03*
G54D126*X296327Y104405D03*
X301051D03*
X305776D03*
X310500D03*
X315224D03*
X319949D03*
Y99681D03*
Y94956D03*
Y90232D03*
X324673Y104405D03*
Y99681D03*
Y94956D03*
Y90232D03*
X301051Y99681D03*
X305776D03*
X310500D03*
X315224D03*
X305776Y94956D03*
X310500D03*
X315224D03*
X305776Y90232D03*
X310500D03*
X315224D03*
X296327Y99681D03*
Y94956D03*
X301051D03*
X296327Y90232D03*
X301051D03*
X296327Y85508D03*
X301051D03*
X305776D03*
X310500D03*
X315224D03*
X319949D03*
X324673D03*
G54D128*X466000Y138500D02*X480000D01*
X519000D02*X533500D01*
G54D129*X441000Y52000D02*X452500D01*
G54D130*X443000Y74500D02*X450500D01*
G54D131*X472500Y65000D02*X474000D01*
G54D132*X454500Y98500D02*X484000D01*
G54D133*X449250Y80750D02*X455250D01*
G54D134*X541000Y108500D02*Y107000D01*
G54D135*X460500Y116500D02*X526500D01*
G54D132*X508000Y98500D02*X537500D01*
G54D136*X495250Y53250D02*X504250D01*
G54D137*X496750Y75250D02*X502750D01*
G54D138*X452750Y88250D02*X539250D01*
G54D131*X525500Y65000D02*X527000D01*
G54D139*X178240Y70000D02*X186508D01*
X212492D02*X220760D01*
X160492D02*X168760D01*
X126240D02*X134508D01*
X74240D02*X82508D01*
X108492D02*X116760D01*
X56492D02*X64760D01*
X22240D02*X30508D01*
G54D132*X242500Y98500D02*X272000D01*
G54D139*X212492Y118500D02*X220760D01*
G54D128*X254000Y138500D02*X268000D01*
G54D139*X178240Y118500D02*X186508D01*
X160492D02*X168760D01*
X126240D02*X134508D01*
X108492D02*X116760D01*
X74240D02*X82508D01*
X56492D02*X64760D01*
X22240D02*X30508D01*
G54D132*X231500Y161000D02*X272000D01*
G54D139*X160492Y167500D02*X168760D01*
X126240D02*X134508D01*
X108492D02*X116760D01*
X178240D02*X186508D01*
X212492D02*X220760D01*
X56492D02*X64760D01*
X22240D02*X30508D01*
X74240D02*X82508D01*
G54D132*X443500Y161000D02*X484000D01*
G54D140*X448500Y178000D02*X532500D01*
G54D141*X439500Y153000D02*X541500D01*
G54D132*X508000Y161000D02*X537500D01*
X337500D02*X378000D01*
G54D141*X333500Y153000D02*X435500D01*
G54D132*X402000Y161000D02*X431500D01*
G54D140*X342500Y178000D02*X426500D01*
G54D128*X360000Y138500D02*X374000D01*
G54D138*X346750Y88250D02*X433250D01*
G54D135*X354500Y116500D02*X420500D01*
G54D132*X402000Y98500D02*X431500D01*
X348500D02*X378000D01*
G54D134*X435000Y108500D02*Y107000D01*
G54D128*X413000Y138500D02*X427500D01*
G54D131*X419500Y65000D02*X421000D01*
G54D136*X389250Y53250D02*X398250D01*
G54D137*X390750Y75250D02*X396750D01*
G54D129*X335000Y52000D02*X346500D01*
G54D130*X337000Y74500D02*X344500D01*
G54D131*X366500Y65000D02*X368000D01*
G54D133*X343250Y80750D02*X349250D01*
G54D140*X236500Y178000D02*X320500D01*
G54D141*X227500Y153000D02*X329500D01*
G54D132*X296000Y161000D02*X325500D01*
G54D136*X283250Y53250D02*X292250D01*
G54D137*X284750Y75250D02*X290750D01*
G54D131*X313500Y65000D02*X315000D01*
G54D132*X296000Y98500D02*X325500D01*
G54D131*X260500Y65000D02*X262000D01*
G54D129*X229000Y52000D02*X240500D01*
G54D130*X231000Y74500D02*X238500D01*
G54D128*X307000Y138500D02*X321500D01*
G54D133*X237250Y80750D02*X243250D01*
G54D138*X240750Y88250D02*X327250D01*
G54D135*X248500Y116500D02*X314500D01*
G54D134*X329000Y108500D02*Y107000D01*
M02*
