G04 start of page 5 for group 3 idx 3 *
G04 Title: fet12v2, bottom *
G04 Creator: pcb 20140316 *
G04 CreationDate: Wed 13 Jun 2018 07:35:06 AM GMT UTC *
G04 For: brian *
G04 Format: Gerber/RS-274X *
G04 PCB-Dimensions (mil): 6000.00 5000.00 *
G04 PCB-Coordinate-Origin: lower left *
%MOIN*%
%FSLAX25Y25*%
%LNBOTTOM*%
%ADD92C,0.1878*%
%ADD91C,0.0118*%
%ADD90C,0.0650*%
%ADD89C,0.0125*%
%ADD88C,0.0200*%
%ADD87C,0.0285*%
%ADD86C,0.0360*%
%ADD85R,0.0400X0.0400*%
%ADD84R,0.2200X0.2200*%
%ADD83R,0.0787X0.0787*%
%ADD82R,0.0850X0.0850*%
%ADD81R,0.1250X0.1250*%
%ADD80R,0.0950X0.0950*%
%ADD79R,0.2400X0.2400*%
%ADD78R,0.0500X0.0500*%
%ADD77R,0.0150X0.0150*%
%ADD76R,0.1200X0.1200*%
%ADD75R,0.3300X0.3300*%
%ADD74R,0.1100X0.1100*%
%ADD73R,0.0700X0.0700*%
%ADD72R,0.0200X0.0200*%
%ADD71R,0.2000X0.2000*%
%ADD70C,0.2190*%
%ADD69C,0.0318*%
%ADD68C,0.0950*%
%ADD67C,0.0250*%
%ADD66C,0.0001*%
G54D66*G36*
X226500Y172500D02*X199000D01*
Y66000D01*
X148000D01*
Y172500D01*
X95000D01*
Y66000D01*
X44000D01*
Y189000D01*
X226500D01*
Y172500D01*
G37*
G36*
Y80000D02*Y69000D01*
X225500D01*
Y55500D01*
X226500D01*
Y48500D01*
X18500D01*
Y189000D01*
X43000D01*
Y65000D01*
X96000D01*
Y171500D01*
X147000D01*
Y65000D01*
X200000D01*
Y171500D01*
X224500D01*
Y80000D01*
X226500D01*
G37*
G36*
X225500Y58000D02*X236500D01*
Y70000D01*
X245000D01*
Y54500D01*
X225500D01*
Y58000D01*
G37*
G36*
X331500D02*X342500D01*
Y70000D01*
X351000D01*
Y54500D01*
X331500D01*
Y58000D01*
G37*
G36*
X437500D02*X448500D01*
Y70000D01*
X457000D01*
Y54500D01*
X437500D01*
Y58000D01*
G37*
G54D67*X225000Y63500D02*X237000D01*
X231000Y57500D02*Y69500D01*
X331000Y63500D02*X343000D01*
X337000Y57500D02*Y69500D01*
X437000Y63500D02*X449000D01*
X443000Y57500D02*Y69500D01*
G54D68*X390000Y161000D03*
G54D69*X372949Y164232D03*
X377673D03*
X372949Y159508D03*
X377673D03*
X363500Y164232D03*
X368224D03*
Y159508D03*
X349327Y178405D03*
Y173681D03*
Y168956D03*
X354051Y178405D03*
Y173681D03*
Y168956D03*
X358776Y178405D03*
Y173681D03*
Y168956D03*
X363500Y178405D03*
Y173681D03*
X368224D03*
X372949D03*
X377673D03*
X368224Y178405D03*
X372949D03*
X377673D03*
X363500Y168956D03*
X368224D03*
X372949D03*
X377673D03*
X349327Y164232D03*
Y104405D03*
X354051D03*
X349327Y99681D03*
X354051D03*
X352000Y146500D03*
X354051Y164232D03*
X358776D03*
G54D68*X337000Y144000D03*
G54D69*X349327Y159508D03*
X354051D03*
X358776D03*
X357000Y146500D03*
X363500Y159508D03*
X362000Y146500D03*
X367000D03*
X372000D03*
G54D68*X390000Y141000D03*
G54D69*X377000Y146500D03*
X382000D03*
X315224Y178405D03*
Y173681D03*
Y168956D03*
X319949Y178405D03*
Y173681D03*
Y168956D03*
X324673Y178405D03*
Y173681D03*
Y168956D03*
X315224Y164232D03*
Y159508D03*
X319949Y164232D03*
Y159508D03*
X324673Y164232D03*
Y159508D03*
X296327Y178405D03*
X301051D03*
X305776D03*
X310500D03*
X296327Y173681D03*
Y168956D03*
Y164232D03*
X301051Y173681D03*
X305776D03*
X310500D03*
X301051Y168956D03*
X305776D03*
X310500D03*
X301051Y164232D03*
X305776D03*
X310500D03*
X296327Y159508D03*
X299000Y146500D03*
X304000D03*
X301051Y159508D03*
X305776D03*
X310500D03*
X309000Y146500D03*
X314000D03*
X319000D03*
X324000D03*
X329000D03*
G54D68*X443000Y144000D03*
Y85500D03*
Y63500D03*
G54D69*X435500Y73500D03*
Y53000D03*
X435000Y146500D03*
X455327Y104405D03*
Y99681D03*
X460051D03*
X455327Y94956D03*
Y90232D03*
X460051D03*
X455327Y85508D03*
X460051D03*
X458000Y146500D03*
X463000D03*
X468000D03*
X473000D03*
X478000D03*
X483000D03*
X460051Y104405D03*
X464776D03*
X469500D03*
X474224D03*
X478949D03*
X483673D03*
X464776Y99681D03*
X469500D03*
X474224D03*
X478949D03*
X483673D03*
X460051Y94956D03*
X464776D03*
X469500D03*
X474224D03*
X478949D03*
X483673D03*
X464776Y90232D03*
X469500D03*
X474224D03*
X478949D03*
X483673D03*
X464776Y85508D03*
X469500D03*
X474224D03*
X478949D03*
X483673D03*
X483500Y73500D03*
X481000Y71000D03*
X478500Y73500D03*
X476000Y71000D03*
X473500Y73500D03*
X468500D03*
X463500D03*
X458500D03*
X471000Y71000D03*
X466000D03*
X461000D03*
G54D68*X496000Y161000D03*
Y141000D03*
G54D69*X488000Y146500D03*
X478949Y178405D03*
X483673D03*
X478949Y173681D03*
X483673D03*
X478949Y168956D03*
X483673D03*
X478949Y164232D03*
X483673D03*
X478949Y159508D03*
X483673D03*
X474224Y178405D03*
X464776D03*
X469500D03*
X464776Y173681D03*
X469500D03*
X474224D03*
X455327Y178405D03*
X460051D03*
X455327Y173681D03*
X460051D03*
X455327Y168956D03*
X460051D03*
X464776D03*
X469500D03*
X474224D03*
X455327Y164232D03*
X460051D03*
X455327Y159508D03*
X460051D03*
X464776Y164232D03*
X469500D03*
X474224D03*
X464776Y159508D03*
X469500D03*
X474224D03*
X508327Y178405D03*
Y173681D03*
X513051Y178405D03*
Y173681D03*
X517776D03*
X508327Y168956D03*
Y164232D03*
X513051D03*
X517776Y178405D03*
X522500D03*
X527224D03*
X531949D03*
X536673D03*
X522500Y173681D03*
X527224D03*
X531949D03*
X536673D03*
X513051Y168956D03*
X517776D03*
X522500D03*
X527224D03*
X531949D03*
X536673D03*
X517776Y164232D03*
X522500D03*
X527224D03*
X531949D03*
X536673D03*
X508327Y159508D03*
X513051D03*
X511000Y146500D03*
X516000D03*
X517776Y159508D03*
X522500D03*
X527224D03*
X531949D03*
X536673D03*
X521000Y146500D03*
X526000D03*
X531000D03*
X536000D03*
X541000D03*
G54D68*X496000Y63500D03*
G54D69*X488500Y73500D03*
X486000Y71000D03*
Y50500D03*
Y55500D03*
X483500Y53000D03*
X488500D03*
X481000Y50500D03*
Y55500D03*
X478500Y53000D03*
X476000Y50500D03*
Y55500D03*
X471000Y50500D03*
X473500Y53000D03*
X471000Y55500D03*
X466000Y50500D03*
Y55500D03*
X461000Y50500D03*
X463500Y53000D03*
X461000Y55500D03*
X458500Y53000D03*
X468500D03*
G54D68*X496000Y98500D03*
G54D70*X495000Y121000D03*
G54D69*X522500Y104405D03*
X527224D03*
Y99681D03*
X531949Y104405D03*
Y99681D03*
X536673Y104405D03*
Y99681D03*
X522500D03*
Y94956D03*
X527224D03*
X508327Y104405D03*
X513051D03*
X517776D03*
X508327Y99681D03*
X513051D03*
X517776D03*
X508327Y94956D03*
X513051D03*
X517776D03*
X508327Y90232D03*
X513051D03*
X517776D03*
X508327Y85508D03*
X513051D03*
X517776D03*
X531949Y94956D03*
X536673D03*
X522500Y90232D03*
Y85508D03*
X527224D03*
X531949D03*
X527224Y90232D03*
X531949D03*
X536673D03*
Y85508D03*
X541500Y73500D03*
X539000Y71000D03*
X536500Y73500D03*
X531500D03*
X526500D03*
X521500D03*
X516500D03*
X511500D03*
X534000Y71000D03*
X529000D03*
X524000D03*
X519000D03*
X514000D03*
X539000Y50500D03*
X541500Y53000D03*
X539000Y55500D03*
X534000Y50500D03*
X536500Y53000D03*
X534000Y55500D03*
X531500Y53000D03*
X529000Y55500D03*
Y50500D03*
X524000D03*
X526500Y53000D03*
X524000Y55500D03*
X521500Y53000D03*
X519000Y55500D03*
X514000Y50500D03*
X519000D03*
X516500Y53000D03*
X514000Y55500D03*
X511500Y53000D03*
X421224Y178405D03*
Y173681D03*
Y168956D03*
X425949Y178405D03*
Y173681D03*
Y168956D03*
X430673Y178405D03*
Y173681D03*
Y168956D03*
X421224Y164232D03*
Y159508D03*
X425949Y164232D03*
Y159508D03*
X430673Y164232D03*
Y159508D03*
X402327Y178405D03*
X407051D03*
X411776D03*
X416500D03*
X402327Y173681D03*
Y168956D03*
Y164232D03*
X407051Y173681D03*
X411776D03*
X416500D03*
X407051Y168956D03*
X411776D03*
X416500D03*
X407051Y164232D03*
X411776D03*
X416500D03*
X402327Y159508D03*
X405000Y146500D03*
X410000D03*
X407051Y159508D03*
X411776D03*
X416500D03*
X415000Y146500D03*
X420000D03*
X425000D03*
X430000D03*
G54D68*X390000Y98500D03*
Y63500D03*
G54D70*X389000Y121000D03*
G54D69*X380000Y50500D03*
X382500Y53000D03*
X380000Y55500D03*
X375000D03*
X377500Y53000D03*
X375000Y50500D03*
X370000D03*
X372500Y53000D03*
X370000Y55500D03*
X367500Y53000D03*
X365000Y50500D03*
Y55500D03*
X360000Y50500D03*
X362500Y53000D03*
X360000Y55500D03*
X355000Y50500D03*
X357500Y53000D03*
X352500D03*
X355000Y55500D03*
X402327Y104405D03*
X407051D03*
X411776D03*
X416500D03*
X421224D03*
X425949D03*
Y99681D03*
Y94956D03*
Y90232D03*
X430673Y104405D03*
Y99681D03*
Y94956D03*
Y90232D03*
X407051Y99681D03*
X411776D03*
X416500D03*
X421224D03*
X411776Y94956D03*
X416500D03*
X421224D03*
X411776Y90232D03*
X416500D03*
X421224D03*
X402327Y99681D03*
Y94956D03*
X407051D03*
X402327Y90232D03*
X407051D03*
X402327Y85508D03*
X407051D03*
X411776D03*
X416500D03*
X421224D03*
X425949D03*
X430673D03*
X433000Y71000D03*
X430500Y73500D03*
X428000Y71000D03*
X425500Y73500D03*
X423000Y71000D03*
X420500Y73500D03*
X418000Y71000D03*
X413000D03*
X408000D03*
X415500Y73500D03*
X410500D03*
X405500D03*
X433000Y50500D03*
X428000D03*
X430500Y53000D03*
X433000Y55500D03*
X428000D03*
X423000Y50500D03*
X425500Y53000D03*
X423000Y55500D03*
X418000Y50500D03*
X413000D03*
X415500Y53000D03*
X420500D03*
X418000Y55500D03*
X413000D03*
X408000Y50500D03*
X410500Y53000D03*
X408000Y55500D03*
X405500Y53000D03*
G54D68*X284000Y161000D03*
G54D69*X266949Y164232D03*
X271673D03*
X266949Y159508D03*
X271673D03*
X257500Y164232D03*
X262224D03*
X257500Y159508D03*
X256000Y146500D03*
X261000D03*
X262224Y159508D03*
X271000Y146500D03*
X276000D03*
X243327Y178405D03*
Y173681D03*
Y168956D03*
X248051Y178405D03*
Y173681D03*
Y168956D03*
X252776Y178405D03*
Y173681D03*
Y168956D03*
X257500Y178405D03*
Y173681D03*
X262224D03*
X266949D03*
X271673D03*
X262224Y178405D03*
X266949D03*
X271673D03*
X257500Y168956D03*
X262224D03*
X266949D03*
X271673D03*
X243327Y164232D03*
Y104405D03*
X248051D03*
X243327Y99681D03*
X248051D03*
X246000Y146500D03*
X248051Y164232D03*
X252776D03*
G54D68*X231000Y144000D03*
G54D69*X243327Y159508D03*
X248051D03*
X252776D03*
X251000Y146500D03*
G54D70*X283000Y121000D03*
G54D68*X284000Y141000D03*
G54D69*X266000Y146500D03*
G54D68*X337000Y85500D03*
Y63500D03*
G54D69*X329500Y73500D03*
X327000Y71000D03*
X358776Y104405D03*
X363500D03*
Y99681D03*
X368224Y104405D03*
X372949D03*
X377673D03*
X368224Y99681D03*
Y94956D03*
X372949Y99681D03*
Y94956D03*
X377673Y99681D03*
Y94956D03*
X358776Y99681D03*
Y94956D03*
X363500D03*
X349327D03*
X354051D03*
X349327Y90232D03*
X354051D03*
X349327Y85508D03*
X354051D03*
X358776Y90232D03*
Y85508D03*
X363500Y90232D03*
Y85508D03*
X368224Y90232D03*
Y85508D03*
X372949Y90232D03*
X377673D03*
X372949Y85508D03*
X377673D03*
X382500Y73500D03*
X380000Y71000D03*
X377500Y73500D03*
X375000Y71000D03*
X372500Y73500D03*
X367500D03*
X362500D03*
X357500D03*
X352500D03*
X370000Y71000D03*
X365000D03*
X360000D03*
X355000D03*
X327000Y50500D03*
X322000D03*
X324500Y53000D03*
X329500D03*
X327000Y55500D03*
X322000D03*
X317000Y50500D03*
X319500Y53000D03*
X317000Y55500D03*
X312000Y50500D03*
Y55500D03*
X309500Y53000D03*
X314500D03*
X307000Y50500D03*
Y55500D03*
X302000Y50500D03*
X304500Y53000D03*
X302000Y55500D03*
X299500Y53000D03*
G54D68*X231000Y85500D03*
Y63500D03*
G54D69*X252776Y104405D03*
X257500D03*
Y99681D03*
X262224Y104405D03*
X266949D03*
X271673D03*
X262224Y99681D03*
Y94956D03*
X266949Y99681D03*
Y94956D03*
X271673Y99681D03*
Y94956D03*
X252776Y99681D03*
Y94956D03*
X257500D03*
X243327D03*
X248051D03*
X243327Y90232D03*
X248051D03*
X243327Y85508D03*
X248051D03*
X252776Y90232D03*
Y85508D03*
X257500Y90232D03*
Y85508D03*
X262224Y90232D03*
Y85508D03*
X266949Y90232D03*
X271673D03*
X266949Y85508D03*
X271673D03*
X266500Y73500D03*
X261500D03*
X256500D03*
X251500D03*
X246500D03*
X264000Y71000D03*
X259000D03*
X254000D03*
X249000D03*
X276500Y73500D03*
X274000Y71000D03*
X271500Y73500D03*
X269000Y71000D03*
X274000Y50500D03*
X276500Y53000D03*
X274000Y55500D03*
X269000Y50500D03*
X271500Y53000D03*
X269000Y55500D03*
X266500Y53000D03*
X264000Y55500D03*
Y50500D03*
X259000D03*
X261500Y53000D03*
X259000Y55500D03*
X256500Y53000D03*
X254000Y55500D03*
X249000Y50500D03*
X254000D03*
X251500Y53000D03*
X249000Y55500D03*
X246500Y53000D03*
G54D68*X284000Y98500D03*
Y63500D03*
G54D69*X296327Y104405D03*
X301051D03*
X305776D03*
X310500D03*
X315224D03*
X319949D03*
Y99681D03*
Y94956D03*
Y90232D03*
X324673Y104405D03*
Y99681D03*
Y94956D03*
Y90232D03*
X301051Y99681D03*
X305776D03*
X310500D03*
X315224D03*
X305776Y94956D03*
X310500D03*
X315224D03*
X305776Y90232D03*
X310500D03*
X315224D03*
X296327Y99681D03*
Y94956D03*
X301051D03*
X296327Y90232D03*
X301051D03*
X296327Y85508D03*
X301051D03*
X305776D03*
X310500D03*
X315224D03*
X319949D03*
X324673D03*
X324500Y73500D03*
X322000Y71000D03*
X319500Y73500D03*
X317000Y71000D03*
X314500Y73500D03*
X312000Y71000D03*
X307000D03*
X302000D03*
X309500Y73500D03*
X304500D03*
X299500D03*
G54D71*X466000Y138500D02*X480000D01*
G54D72*X491000Y98500D02*X501000D01*
X496000Y103500D02*Y93500D01*
G54D71*X519000Y138500D02*X533500D01*
G54D73*X441000Y52000D02*X452500D01*
G54D74*X443000Y74500D02*X450500D01*
G54D75*X472500Y65000D02*X474000D01*
G54D76*X454500Y98500D02*X484000D01*
G54D77*X449250Y80750D02*X455250D01*
G54D78*X541000Y108500D02*Y107000D01*
G54D79*X460500Y116500D02*X526500D01*
G54D76*X508000Y98500D02*X537500D01*
G54D80*X495250Y53250D02*X504250D01*
G54D81*X496750Y75250D02*X502750D01*
G54D82*X452750Y88250D02*X539250D01*
G54D75*X525500Y65000D02*X527000D01*
G54D83*X178240Y70000D02*X186508D01*
X212492D02*X220760D01*
X160492D02*X168760D01*
X126240D02*X134508D01*
X74240D02*X82508D01*
X108492D02*X116760D01*
X56492D02*X64760D01*
X22240D02*X30508D01*
G54D76*X242500Y98500D02*X272000D01*
G54D72*X279000D02*X289000D01*
X284000Y103500D02*Y93500D01*
G54D83*X212492Y118500D02*X220760D01*
G54D71*X254000Y138500D02*X268000D01*
G54D83*X178240Y118500D02*X186508D01*
X160492D02*X168760D01*
X126240D02*X134508D01*
X108492D02*X116760D01*
X74240D02*X82508D01*
X56492D02*X64760D01*
X22240D02*X30508D01*
G54D72*X279000Y161000D02*X289000D01*
X284000Y166000D02*Y156000D01*
G54D76*X231500Y161000D02*X272000D01*
G54D83*X160492Y167500D02*X168760D01*
X126240D02*X134508D01*
X108492D02*X116760D01*
X178240D02*X186508D01*
X212492D02*X220760D01*
X56492D02*X64760D01*
X22240D02*X30508D01*
X74240D02*X82508D01*
G54D72*X491000Y161000D02*X501000D01*
X496000Y166000D02*Y156000D01*
G54D76*X443500Y161000D02*X484000D01*
G54D84*X448500Y178000D02*X532500D01*
G54D85*X439500Y153000D02*X541500D01*
G54D76*X508000Y161000D02*X537500D01*
X337500D02*X378000D01*
G54D72*X385000D02*X395000D01*
G54D85*X333500Y153000D02*X435500D01*
G54D76*X402000Y161000D02*X431500D01*
G54D72*X390000Y166000D02*Y156000D01*
G54D84*X342500Y178000D02*X426500D01*
G54D71*X360000Y138500D02*X374000D01*
G54D72*X385000Y98500D02*X395000D01*
X390000Y103500D02*Y93500D01*
G54D82*X346750Y88250D02*X433250D01*
G54D79*X354500Y116500D02*X420500D01*
G54D76*X402000Y98500D02*X431500D01*
X348500D02*X378000D01*
G54D78*X435000Y108500D02*Y107000D01*
G54D71*X413000Y138500D02*X427500D01*
G54D75*X419500Y65000D02*X421000D01*
G54D80*X389250Y53250D02*X398250D01*
G54D81*X390750Y75250D02*X396750D01*
G54D73*X335000Y52000D02*X346500D01*
G54D74*X337000Y74500D02*X344500D01*
G54D75*X366500Y65000D02*X368000D01*
G54D77*X343250Y80750D02*X349250D01*
G54D84*X236500Y178000D02*X320500D01*
G54D85*X227500Y153000D02*X329500D01*
G54D76*X296000Y161000D02*X325500D01*
G54D80*X283250Y53250D02*X292250D01*
G54D81*X284750Y75250D02*X290750D01*
G54D75*X313500Y65000D02*X315000D01*
G54D76*X296000Y98500D02*X325500D01*
G54D75*X260500Y65000D02*X262000D01*
G54D73*X229000Y52000D02*X240500D01*
G54D74*X231000Y74500D02*X238500D01*
G54D71*X307000Y138500D02*X321500D01*
G54D77*X237250Y80750D02*X243250D01*
G54D82*X240750Y88250D02*X327250D01*
G54D79*X248500Y116500D02*X314500D01*
G54D78*X329000Y108500D02*Y107000D01*
G54D86*X336000Y112000D03*
X340000D03*
X337500Y124000D03*
X336000Y96000D03*
X340000D03*
X230000Y112000D03*
Y96000D03*
X231500Y124000D03*
X234000Y112000D03*
Y96000D03*
G54D87*X223000Y112500D03*
X216500Y124500D03*
X210000D03*
X223000D03*
X210000Y112500D03*
X216500D03*
X206500Y118500D03*
X192500D03*
X154500D03*
X224000Y187500D03*
Y184000D03*
Y180500D03*
X206500Y170000D03*
X223000Y161500D03*
X218500D03*
X209500D03*
X214000D03*
X206500Y165500D03*
X182500Y161500D03*
X176000D03*
X171000D03*
X158000D03*
X164500D03*
X189000D03*
X154500Y167500D03*
X164500Y173500D03*
X158000D03*
X192500Y167500D03*
X176000Y173500D03*
X189000D03*
X182500D03*
X171000D03*
G54D86*X442000Y112000D03*
X446000D03*
X443500Y124000D03*
X442000Y96000D03*
X446000D03*
X541500Y114000D03*
Y126000D03*
G54D87*X87500Y167500D03*
X119000Y161500D03*
X105500D03*
X110000D03*
X114500D03*
X102500Y164500D03*
Y170000D03*
X78500Y161500D03*
X72000D03*
X67000D03*
X85000D03*
Y173500D03*
X60500Y161500D03*
X72000Y173500D03*
X78500D03*
X60500D03*
X67000D03*
X88500Y118500D03*
X50500D03*
X20000Y124500D03*
X33000D03*
X26500D03*
Y112500D03*
X33000D03*
X20000D03*
X102500Y118500D03*
X36500D03*
X54000Y112500D03*
X60500D03*
X72000Y124500D03*
X78500D03*
X60500D03*
X54000D03*
X67000D03*
X85000D03*
X78500Y112500D03*
X85000D03*
X72000D03*
X67000D03*
X20000Y76000D03*
X33000D03*
X36500Y70000D03*
X26500Y76000D03*
Y64000D03*
X33000D03*
X20000D03*
X72000Y76000D03*
X81000D03*
X76500D03*
X67000D03*
X53500D03*
X58000D03*
X62500D03*
X50500Y67500D03*
Y72500D03*
X85500Y76000D03*
X102500Y70000D03*
X88500Y67500D03*
Y72500D03*
X50500Y167500D03*
X54000Y161500D03*
X20000D03*
Y173500D03*
X26500Y161500D03*
X33000D03*
Y173500D03*
X26500D03*
X36500Y167500D03*
X54000Y173500D03*
X124000Y161500D03*
X128500D03*
X112500Y124500D03*
X106000D03*
X119000D03*
X124000D03*
X130500D03*
X119000Y112500D03*
X112500D03*
X130500D03*
X137000D03*
X124000D03*
X106000D03*
X140500Y118500D03*
X137500Y161500D03*
X133000D03*
X137000Y124500D03*
X140500Y170000D03*
Y164500D03*
X176000Y124500D03*
X164500D03*
X158000D03*
X171000D03*
X189000D03*
X182500D03*
Y112500D03*
X189000D03*
X176000D03*
X171000D03*
X158000D03*
X164500D03*
X124000Y76000D03*
X130500D03*
X112500D03*
X106000D03*
X119000D03*
X137000D03*
X130500Y64000D03*
X137000D03*
X124000D03*
X119000D03*
X106000D03*
X112500D03*
X140500Y70000D03*
X176000Y76000D03*
X185000D03*
X180500D03*
X171000D03*
X157500D03*
X162000D03*
X166500D03*
X216500D03*
X210000D03*
X223000D03*
X189500D03*
X192500Y67500D03*
Y72500D03*
X223000Y64000D03*
X210000D03*
X216500D03*
X206500Y70000D03*
X154500Y67500D03*
Y72500D03*
G54D88*G54D89*G54D88*G54D89*G54D90*G54D91*G54D90*G54D91*G54D90*G54D91*G54D90*G54D91*G54D90*G54D91*G54D90*G54D91*G54D90*G54D92*G54D91*G54D90*G54D92*G54D91*G54D90*G54D91*G54D90*G54D91*G54D92*G54D90*G54D91*G54D90*G54D91*G54D90*G54D91*G54D90*G54D91*M02*
