G04 start of page 12 for group -4078 idx -4078 *
G04 Title: fet12v2, bottomsilk *
G04 Creator: pcb 20140316 *
G04 CreationDate: Wed 13 Jun 2018 07:35:06 AM GMT UTC *
G04 For: brian *
G04 Format: Gerber/RS-274X *
G04 PCB-Dimensions (mil): 6000.00 5000.00 *
G04 PCB-Coordinate-Origin: lower left *
%MOIN*%
%FSLAX25Y25*%
%LNBOTTOMSILK*%
%ADD150C,0.0098*%
%ADD149C,0.0197*%
%ADD148C,0.0060*%
G54D148*X347520Y59460D02*X347030Y59950D01*
X347520Y57990D02*Y59460D01*
X347030Y57500D02*X347520Y57990D01*
X344090Y57500D02*X347030D01*
X344090D02*X343600Y57990D01*
Y59460D01*
X344090Y59950D01*
X345070D01*
X345560Y59460D02*X345070Y59950D01*
X345560Y58480D02*Y59460D01*
X343600Y61126D02*X347520D01*
X343600Y63576D01*
X347520D01*
X343600Y65242D02*X347520D01*
Y66516D02*X346834Y67202D01*
X344286D02*X346834D01*
X343600Y66516D02*X344286Y67202D01*
X343600Y64752D02*Y66516D01*
X347520Y64752D02*Y66516D01*
X453520Y59460D02*X453030Y59950D01*
X453520Y57990D02*Y59460D01*
X453030Y57500D02*X453520Y57990D01*
X450090Y57500D02*X453030D01*
X450090D02*X449600Y57990D01*
Y59460D01*
X450090Y59950D01*
X451070D01*
X451560Y59460D02*X451070Y59950D01*
X451560Y58480D02*Y59460D01*
X449600Y61126D02*X453520D01*
X449600Y63576D01*
X453520D01*
X449600Y65242D02*X453520D01*
Y66516D02*X452834Y67202D01*
X450286D02*X452834D01*
X449600Y66516D02*X450286Y67202D01*
X449600Y64752D02*Y66516D01*
X453520Y64752D02*Y66516D01*
X339549Y93908D02*X339059Y94398D01*
X339549Y92438D02*Y93908D01*
X339059Y91948D02*X339549Y92438D01*
X336119Y91948D02*X339059D01*
X336119D02*X335629Y92438D01*
Y93908D01*
X336119Y94398D01*
X337099D01*
X337589Y93908D02*X337099Y94398D01*
X337589Y92928D02*Y93908D01*
X335629Y95574D02*X338569D01*
X339549Y96260D01*
Y97338D01*
X338569Y98024D01*
X335629D02*X338569D01*
X337589Y95574D02*Y98024D01*
X339549Y99200D02*Y101160D01*
X335629Y100180D02*X339549D01*
X337785Y102336D02*Y103806D01*
X335629Y102336D02*Y104296D01*
Y102336D02*X339549D01*
Y104296D01*
X338765Y105472D02*X339549Y106256D01*
X335629D02*X339549D01*
X335629Y105472D02*Y106942D01*
X445549Y93908D02*X445059Y94398D01*
X445549Y92438D02*Y93908D01*
X445059Y91948D02*X445549Y92438D01*
X442119Y91948D02*X445059D01*
X442119D02*X441629Y92438D01*
Y93908D01*
X442119Y94398D01*
X443099D01*
X443589Y93908D02*X443099Y94398D01*
X443589Y92928D02*Y93908D01*
X441629Y95574D02*X444569D01*
X445549Y96260D01*
Y97338D01*
X444569Y98024D01*
X441629D02*X444569D01*
X443589Y95574D02*Y98024D01*
X445549Y99200D02*Y101160D01*
X441629Y100180D02*X445549D01*
X443785Y102336D02*Y103806D01*
X441629Y102336D02*Y104296D01*
Y102336D02*X445549D01*
Y104296D01*
X442119Y105472D02*X441629Y105962D01*
X442119Y105472D02*X445059D01*
X445549Y105962D01*
Y106942D01*
X445059Y107432D01*
X442119D02*X445059D01*
X441629Y106942D02*X442119Y107432D01*
X441629Y105962D02*Y106942D01*
X442609Y105472D02*X444569Y107432D01*
X400020Y62460D02*X399530Y62950D01*
X400020Y60990D02*Y62460D01*
X399530Y60500D02*X400020Y60990D01*
X396590Y60500D02*X399530D01*
X396590D02*X396100Y60990D01*
Y62460D01*
X396590Y62950D01*
X397570D01*
X398060Y62460D02*X397570Y62950D01*
X398060Y61480D02*Y62460D01*
X399236Y64126D02*X400020Y64910D01*
X396100D02*X400020D01*
X396100Y64126D02*Y65596D01*
X241520Y59460D02*X241030Y59950D01*
X241520Y57990D02*Y59460D01*
X241030Y57500D02*X241520Y57990D01*
X238090Y57500D02*X241030D01*
X238090D02*X237600Y57990D01*
Y59460D01*
X238090Y59950D01*
X239070D01*
X239560Y59460D02*X239070Y59950D01*
X239560Y58480D02*Y59460D01*
X237600Y61126D02*X241520D01*
X237600Y63576D01*
X241520D01*
X237600Y65242D02*X241520D01*
Y66516D02*X240834Y67202D01*
X238286D02*X240834D01*
X237600Y66516D02*X238286Y67202D01*
X237600Y64752D02*Y66516D01*
X241520Y64752D02*Y66516D01*
X233549Y93908D02*X233059Y94398D01*
X233549Y92438D02*Y93908D01*
X233059Y91948D02*X233549Y92438D01*
X230119Y91948D02*X233059D01*
X230119D02*X229629Y92438D01*
Y93908D01*
X230119Y94398D01*
X231099D01*
X231589Y93908D02*X231099Y94398D01*
X231589Y92928D02*Y93908D01*
X229629Y95574D02*X232569D01*
X233549Y96260D01*
Y97338D01*
X232569Y98024D01*
X229629D02*X232569D01*
X231589Y95574D02*Y98024D01*
X233549Y99200D02*Y101160D01*
X229629Y100180D02*X233549D01*
X231785Y102336D02*Y103806D01*
X229629Y102336D02*Y104296D01*
Y102336D02*X233549D01*
Y104296D01*
X233059Y105472D02*X233549Y105962D01*
Y107432D01*
X233059Y107922D01*
X232079D02*X233059D01*
X229629Y105472D02*X232079Y107922D01*
X229629Y105472D02*Y107922D01*
X294540Y133420D02*X294060Y133900D01*
X294540Y131980D02*Y133420D01*
X294060Y131500D02*X294540Y131980D01*
X291180Y131500D02*X294060D01*
X291180D02*X290700Y131980D01*
Y133420D01*
X291180Y133900D01*
X292140D01*
X292620Y133420D02*X292140Y133900D01*
X292620Y132460D02*Y133420D01*
X290700Y135052D02*X293580D01*
X294540Y135724D01*
Y136780D01*
X293580Y137452D01*
X290700D02*X293580D01*
X292620Y135052D02*Y137452D01*
X294540Y138604D02*Y140524D01*
X290700Y139564D02*X294540D01*
X292812Y141676D02*Y143116D01*
X290700Y141676D02*Y143596D01*
Y141676D02*X294540D01*
Y143596D01*
X294060Y144748D02*X294540Y145228D01*
Y146668D01*
X294060Y147148D01*
X293100D02*X294060D01*
X290700Y144748D02*X293100Y147148D01*
X290700Y144748D02*Y147148D01*
X294020Y62460D02*X293530Y62950D01*
X294020Y60990D02*Y62460D01*
X293530Y60500D02*X294020Y60990D01*
X290590Y60500D02*X293530D01*
X290590D02*X290100Y60990D01*
Y62460D01*
X290590Y62950D01*
X291570D01*
X292060Y62460D02*X291570Y62950D01*
X292060Y61480D02*Y62460D01*
X293530Y64126D02*X294020Y64616D01*
Y66086D01*
X293530Y66576D01*
X292550D02*X293530D01*
X290100Y64126D02*X292550Y66576D01*
X290100Y64126D02*Y66576D01*
X233549Y122908D02*X233059Y123398D01*
X233549Y121438D02*Y122908D01*
X233059Y120948D02*X233549Y121438D01*
X230119Y120948D02*X233059D01*
X230119D02*X229629Y121438D01*
Y122908D01*
X230119Y123398D01*
X231099D01*
X231589Y122908D02*X231099Y123398D01*
X231589Y121928D02*Y122908D01*
X229629Y124574D02*X232569D01*
X233549Y125260D01*
Y126338D01*
X232569Y127024D01*
X229629D02*X232569D01*
X231589Y124574D02*Y127024D01*
X233549Y128200D02*Y130160D01*
X229629Y129180D02*X233549D01*
X231785Y131336D02*Y132806D01*
X229629Y131336D02*Y133296D01*
Y131336D02*X233549D01*
Y133296D01*
X233059Y134472D02*X233549Y134962D01*
Y136432D01*
X233059Y136922D01*
X232079D02*X233059D01*
X229629Y134472D02*X232079Y136922D01*
X229629Y134472D02*Y136922D01*
X400540Y133420D02*X400060Y133900D01*
X400540Y131980D02*Y133420D01*
X400060Y131500D02*X400540Y131980D01*
X397180Y131500D02*X400060D01*
X397180D02*X396700Y131980D01*
Y133420D01*
X397180Y133900D01*
X398140D01*
X398620Y133420D02*X398140Y133900D01*
X398620Y132460D02*Y133420D01*
X396700Y135052D02*X399580D01*
X400540Y135724D01*
Y136780D01*
X399580Y137452D01*
X396700D02*X399580D01*
X398620Y135052D02*Y137452D01*
X400540Y138604D02*Y140524D01*
X396700Y139564D02*X400540D01*
X398812Y141676D02*Y143116D01*
X396700Y141676D02*Y143596D01*
Y141676D02*X400540D01*
Y143596D01*
X399772Y144748D02*X400540Y145516D01*
X396700D02*X400540D01*
X396700Y144748D02*Y146188D01*
X445549Y122908D02*X445059Y123398D01*
X445549Y121438D02*Y122908D01*
X445059Y120948D02*X445549Y121438D01*
X442119Y120948D02*X445059D01*
X442119D02*X441629Y121438D01*
Y122908D01*
X442119Y123398D01*
X443099D01*
X443589Y122908D02*X443099Y123398D01*
X443589Y121928D02*Y122908D01*
X441629Y124574D02*X444569D01*
X445549Y125260D01*
Y126338D01*
X444569Y127024D01*
X441629D02*X444569D01*
X443589Y124574D02*Y127024D01*
X445549Y128200D02*Y130160D01*
X441629Y129180D02*X445549D01*
X443785Y131336D02*Y132806D01*
X441629Y131336D02*Y133296D01*
Y131336D02*X445549D01*
Y133296D01*
X442119Y134472D02*X441629Y134962D01*
X442119Y134472D02*X445059D01*
X445549Y134962D01*
Y135942D01*
X445059Y136432D01*
X442119D02*X445059D01*
X441629Y135942D02*X442119Y136432D01*
X441629Y134962D02*Y135942D01*
X442609Y134472D02*X444569Y136432D01*
X506540Y133420D02*X506060Y133900D01*
X506540Y131980D02*Y133420D01*
X506060Y131500D02*X506540Y131980D01*
X503180Y131500D02*X506060D01*
X503180D02*X502700Y131980D01*
Y133420D01*
X503180Y133900D01*
X504140D01*
X504620Y133420D02*X504140Y133900D01*
X504620Y132460D02*Y133420D01*
X502700Y135052D02*X505580D01*
X506540Y135724D01*
Y136780D01*
X505580Y137452D01*
X502700D02*X505580D01*
X504620Y135052D02*Y137452D01*
X506540Y138604D02*Y140524D01*
X502700Y139564D02*X506540D01*
X504812Y141676D02*Y143116D01*
X502700Y141676D02*Y143596D01*
Y141676D02*X506540D01*
Y143596D01*
X503180Y144748D02*X502700Y145228D01*
X503180Y144748D02*X506060D01*
X506540Y145228D01*
Y146188D01*
X506060Y146668D01*
X503180D02*X506060D01*
X502700Y146188D02*X503180Y146668D01*
X502700Y145228D02*Y146188D01*
X503660Y144748D02*X505580Y146668D01*
X506020Y62460D02*X505530Y62950D01*
X506020Y60990D02*Y62460D01*
X505530Y60500D02*X506020Y60990D01*
X502590Y60500D02*X505530D01*
X502590D02*X502100Y60990D01*
Y62460D01*
X502590Y62950D01*
X503570D01*
X504060Y62460D02*X503570Y62950D01*
X504060Y61480D02*Y62460D01*
X502590Y64126D02*X502100Y64616D01*
X502590Y64126D02*X505530D01*
X506020Y64616D01*
Y65596D01*
X505530Y66086D01*
X502590D02*X505530D01*
X502100Y65596D02*X502590Y66086D01*
X502100Y64616D02*Y65596D01*
X503080Y64126D02*X505040Y66086D01*
X129000Y50630D02*X129710Y49920D01*
X131840D01*
X132550Y50630D01*
Y52050D01*
X129000Y55600D02*X132550Y52050D01*
X129000Y55600D02*X132550D01*
X134254Y54890D02*X134964Y55600D01*
X134254Y50630D02*Y54890D01*
Y50630D02*X134964Y49920D01*
X136384D01*
X137094Y50630D01*
Y54890D01*
X136384Y55600D02*X137094Y54890D01*
X134964Y55600D02*X136384D01*
X134254Y54180D02*X137094Y51340D01*
X138798Y51056D02*X139934Y49920D01*
Y55600D01*
X138798D02*X140928D01*
X142632Y54890D02*X143342Y55600D01*
X142632Y53754D02*Y54890D01*
Y53754D02*X143626Y52760D01*
X144478D01*
X145472Y53754D01*
Y54890D01*
X144762Y55600D02*X145472Y54890D01*
X143342Y55600D02*X144762D01*
X142632Y51766D02*X143626Y52760D01*
X142632Y50630D02*Y51766D01*
Y50630D02*X143342Y49920D01*
X144762D01*
X145472Y50630D01*
Y51766D01*
X144478Y52760D02*X145472Y51766D01*
X147176Y54890D02*X147886Y55600D01*
X147176Y50630D02*Y54890D01*
Y50630D02*X147886Y49920D01*
X149306D01*
X150016Y50630D01*
Y54890D01*
X149306Y55600D02*X150016Y54890D01*
X147886Y55600D02*X149306D01*
X147176Y54180D02*X150016Y51340D01*
X153850Y49920D02*X154560Y50630D01*
X152430Y49920D02*X153850D01*
X151720Y50630D02*X152430Y49920D01*
X151720Y50630D02*Y54890D01*
X152430Y55600D01*
X153850Y52476D02*X154560Y53186D01*
X151720Y52476D02*X153850D01*
X152430Y55600D02*X153850D01*
X154560Y54890D01*
Y53186D02*Y54890D01*
X156264Y51056D02*X157400Y49920D01*
Y55600D01*
X156264D02*X158394D01*
X160098Y51056D02*X161234Y49920D01*
Y55600D01*
X160098D02*X162228D01*
X189960Y48980D02*X190450Y49470D01*
X188490Y48980D02*X189960D01*
X188000Y49470D02*X188490Y48980D01*
X188000Y49470D02*Y50450D01*
X188490Y50940D01*
X189960D01*
X190450Y51430D01*
Y52410D01*
X189960Y52900D02*X190450Y52410D01*
X188490Y52900D02*X189960D01*
X188000Y52410D02*X188490Y52900D01*
X192116D02*X193586D01*
X191626Y52410D02*X192116Y52900D01*
X191626Y51430D02*Y52410D01*
Y51430D02*X192116Y50940D01*
X193096D01*
X193586Y51430D01*
X191626Y51920D02*X193586D01*
Y51430D02*Y51920D01*
X195252Y52900D02*X196722D01*
X194762Y52410D02*X195252Y52900D01*
X194762Y51430D02*Y52410D01*
Y51430D02*X195252Y50940D01*
X196232D01*
X196722Y51430D01*
X194762Y51920D02*X196722D01*
Y51430D02*Y51920D01*
X198388Y51430D02*Y52900D01*
Y51430D02*X198878Y50940D01*
X199368D01*
X199858Y51430D01*
Y52900D01*
Y51430D02*X200348Y50940D01*
X200838D01*
X201328Y51430D01*
Y52900D01*
X197898Y50940D02*X198388Y51430D01*
X202994Y52900D02*X204464D01*
X204954Y52410D01*
X204464Y51920D02*X204954Y52410D01*
X202994Y51920D02*X204464D01*
X202504Y51430D02*X202994Y51920D01*
X202504Y51430D02*X202994Y50940D01*
X204464D01*
X204954Y51430D01*
X202504Y52410D02*X202994Y52900D01*
X183000Y51980D02*X184960D01*
X185450Y52470D01*
Y53450D01*
X184960Y53940D02*X185450Y53450D01*
X183490Y53940D02*X184960D01*
X183490Y51980D02*Y55900D01*
X184274Y53940D02*X185450Y55900D01*
X187116D02*X188586D01*
X186626Y55410D02*X187116Y55900D01*
X186626Y54430D02*Y55410D01*
Y54430D02*X187116Y53940D01*
X188096D01*
X188586Y54430D01*
X186626Y54920D02*X188586D01*
Y54430D02*Y54920D01*
X191232Y53940D02*X191722Y54430D01*
X190252Y53940D02*X191232D01*
X189762Y54430D02*X190252Y53940D01*
X189762Y54430D02*Y55410D01*
X190252Y55900D01*
X191722Y53940D02*Y55410D01*
X192212Y55900D01*
X190252D02*X191232D01*
X191722Y55410D01*
X193878Y55900D02*X195348D01*
X195838Y55410D01*
X195348Y54920D02*X195838Y55410D01*
X193878Y54920D02*X195348D01*
X193388Y54430D02*X193878Y54920D01*
X193388Y54430D02*X193878Y53940D01*
X195348D01*
X195838Y54430D01*
X193388Y55410D02*X193878Y55900D01*
X197014Y54430D02*Y55410D01*
Y54430D02*X197504Y53940D01*
X198484D01*
X198974Y54430D01*
Y55410D01*
X198484Y55900D02*X198974Y55410D01*
X197504Y55900D02*X198484D01*
X197014Y55410D02*X197504Y55900D01*
X200640Y54430D02*Y55900D01*
Y54430D02*X201130Y53940D01*
X201620D01*
X202110Y54430D01*
Y55900D01*
X200150Y53940D02*X200640Y54430D01*
X204756Y53940D02*X205246Y54430D01*
X203776Y53940D02*X204756D01*
X203286Y54430D02*X203776Y53940D01*
X203286Y54430D02*Y55410D01*
X203776Y55900D01*
X205246Y53940D02*Y55410D01*
X205736Y55900D01*
X203776D02*X204756D01*
X205246Y55410D01*
X206912Y51980D02*Y55900D01*
Y55410D02*X207402Y55900D01*
X208382D01*
X208872Y55410D01*
Y54430D02*Y55410D01*
X208382Y53940D02*X208872Y54430D01*
X207402Y53940D02*X208382D01*
X206912Y54430D02*X207402Y53940D01*
X210048Y51980D02*Y55410D01*
X210538Y55900D01*
X212008D02*X213478D01*
X211518Y55410D02*X212008Y55900D01*
X211518Y54430D02*Y55410D01*
Y54430D02*X212008Y53940D01*
X212988D01*
X213478Y54430D01*
X211518Y54920D02*X213478D01*
Y54430D02*Y54920D01*
X188990Y57970D02*Y61400D01*
Y57970D02*X189480Y57480D01*
X189970D01*
X188500Y59440D02*X189480D01*
X191440Y61400D02*X192910D01*
X190950Y60910D02*X191440Y61400D01*
X190950Y59930D02*Y60910D01*
Y59930D02*X191440Y59440D01*
X192420D01*
X192910Y59930D01*
X190950Y60420D02*X192910D01*
Y59930D02*Y60420D01*
X194576Y57480D02*Y60910D01*
X195066Y61400D01*
X194086Y58950D02*X195066D01*
X196046Y58264D02*X196830Y57480D01*
Y61400D01*
X196046D02*X197516D01*
X198692Y57970D02*X199182Y57480D01*
X200652D01*
X201142Y57970D01*
Y58950D01*
X198692Y61400D02*X201142Y58950D01*
X198692Y61400D02*X201142D01*
X202318Y59440D02*X203298Y61400D01*
X204278Y59440D02*X203298Y61400D01*
X205454Y57970D02*X205944Y57480D01*
X207414D01*
X207904Y57970D01*
Y58950D01*
X205454Y61400D02*X207904Y58950D01*
X205454Y61400D02*X207904D01*
X339549Y122908D02*X339059Y123398D01*
X339549Y121438D02*Y122908D01*
X339059Y120948D02*X339549Y121438D01*
X336119Y120948D02*X339059D01*
X336119D02*X335629Y121438D01*
Y122908D01*
X336119Y123398D01*
X337099D01*
X337589Y122908D02*X337099Y123398D01*
X337589Y121928D02*Y122908D01*
X335629Y124574D02*X338569D01*
X339549Y125260D01*
Y126338D01*
X338569Y127024D01*
X335629D02*X338569D01*
X337589Y124574D02*Y127024D01*
X339549Y128200D02*Y130160D01*
X335629Y129180D02*X339549D01*
X337785Y131336D02*Y132806D01*
X335629Y131336D02*Y133296D01*
Y131336D02*X339549D01*
Y133296D01*
X338765Y134472D02*X339549Y135256D01*
X335629D02*X339549D01*
X335629Y134472D02*Y135942D01*
G54D149*X222531Y62126D02*Y50315D01*
Y89685D02*Y77874D01*
G54D150*X182669Y47362D02*X219185D01*
X182669Y92638D02*X219185D01*
X182669D02*X175976Y85945D01*
X182669Y47362D02*X175976Y54055D01*
Y85945D02*Y77874D01*
Y62126D02*Y54055D01*
G54D149*X118531Y62126D02*Y50315D01*
Y89685D02*Y77874D01*
G54D150*X78669Y47362D02*X115185D01*
X78669Y92638D02*X115185D01*
X78669D02*X71976Y85945D01*
X78669Y47362D02*X71976Y54055D01*
Y85945D02*Y77874D01*
Y62126D02*Y54055D01*
G54D149*X124469Y89685D02*Y77874D01*
Y62126D02*Y50315D01*
G54D150*X127815Y92638D02*X164331D01*
X127815Y47362D02*X164331D01*
X171024Y54055D01*
X164331Y92638D02*X171024Y85945D01*
Y62126D02*Y54055D01*
Y85945D02*Y77874D01*
G54D149*X20469Y89685D02*Y77874D01*
Y62126D02*Y50315D01*
G54D150*X23815Y92638D02*X60331D01*
X23815Y47362D02*X60331D01*
X67024Y54055D01*
X60331Y92638D02*X67024Y85945D01*
Y62126D02*Y54055D01*
Y85945D02*Y77874D01*
G54D149*X222531Y110626D02*Y98815D01*
Y138185D02*Y126374D01*
G54D150*X182669Y95862D02*X219185D01*
X182669Y141138D02*X219185D01*
X182669D02*X175976Y134445D01*
X182669Y95862D02*X175976Y102555D01*
Y134445D02*Y126374D01*
Y110626D02*Y102555D01*
G54D149*X222531Y159626D02*Y147815D01*
Y187185D02*Y175374D01*
G54D150*X182669Y144862D02*X219185D01*
X182669Y190138D02*X219185D01*
X182669D02*X175976Y183445D01*
X182669Y144862D02*X175976Y151555D01*
Y183445D02*Y175374D01*
Y159626D02*Y151555D01*
G54D149*X118531Y110626D02*Y98815D01*
Y138185D02*Y126374D01*
G54D150*X78669Y95862D02*X115185D01*
X78669Y141138D02*X115185D01*
X78669D02*X71976Y134445D01*
X78669Y95862D02*X71976Y102555D01*
Y134445D02*Y126374D01*
Y110626D02*Y102555D01*
G54D149*X118531Y159626D02*Y147815D01*
Y187185D02*Y175374D01*
G54D150*X78669Y144862D02*X115185D01*
X78669Y190138D02*X115185D01*
X78669D02*X71976Y183445D01*
X78669Y144862D02*X71976Y151555D01*
Y183445D02*Y175374D01*
Y159626D02*Y151555D01*
G54D149*X20469Y138185D02*Y126374D01*
Y110626D02*Y98815D01*
G54D150*X23815Y141138D02*X60331D01*
X23815Y95862D02*X60331D01*
X67024Y102555D01*
X60331Y141138D02*X67024Y134445D01*
Y110626D02*Y102555D01*
Y134445D02*Y126374D01*
G54D149*X20469Y187185D02*Y175374D01*
Y159626D02*Y147815D01*
G54D150*X23815Y190138D02*X60331D01*
X23815Y144862D02*X60331D01*
X67024Y151555D01*
X60331Y190138D02*X67024Y183445D01*
Y159626D02*Y151555D01*
Y183445D02*Y175374D01*
G54D149*X124469Y138185D02*Y126374D01*
Y110626D02*Y98815D01*
G54D150*X127815Y141138D02*X164331D01*
X127815Y95862D02*X164331D01*
X171024Y102555D01*
X164331Y141138D02*X171024Y134445D01*
Y110626D02*Y102555D01*
Y134445D02*Y126374D01*
G54D149*X124469Y187185D02*Y175374D01*
Y159626D02*Y147815D01*
G54D150*X127815Y190138D02*X164331D01*
X127815Y144862D02*X164331D01*
X171024Y151555D01*
X164331Y190138D02*X171024Y183445D01*
Y159626D02*Y151555D01*
Y183445D02*Y175374D01*
G54D148*X174378Y92700D02*X175080D01*
X174000Y92322D02*X174378Y92700D01*
X174000Y90918D02*Y92322D01*
Y90918D02*X174378Y90540D01*
X175080D01*
X176538D02*X176808Y90810D01*
X175998Y90540D02*X176538D01*
X175728Y90810D02*X175998Y90540D01*
X175728Y90810D02*Y92430D01*
X175998Y92700D01*
X176538Y91512D02*X176808Y91782D01*
X175728Y91512D02*X176538D01*
X175998Y92700D02*X176538D01*
X176808Y92430D01*
Y91782D02*Y92430D01*
X177456Y90540D02*X178536D01*
X177456D02*Y91620D01*
X177726Y91350D01*
X178266D01*
X178536Y91620D01*
Y92430D01*
X178266Y92700D02*X178536Y92430D01*
X177726Y92700D02*X178266D01*
X177456Y92430D02*X177726Y92700D01*
X168878Y98700D02*X169580D01*
X168500Y98322D02*X168878Y98700D01*
X168500Y96918D02*Y98322D01*
Y96918D02*X168878Y96540D01*
X169580D01*
X170228Y96972D02*X170660Y96540D01*
Y98700D01*
X170228D02*X171038D01*
X171686Y96972D02*X172118Y96540D01*
Y98700D01*
X171686D02*X172496D01*
X175378D02*X176080D01*
X175000Y98322D02*X175378Y98700D01*
X175000Y96918D02*Y98322D01*
Y96918D02*X175378Y96540D01*
X176080D01*
X177538D02*X177808Y96810D01*
X176998Y96540D02*X177538D01*
X176728Y96810D02*X176998Y96540D01*
X176728Y96810D02*Y98430D01*
X176998Y98700D01*
X177538Y97512D02*X177808Y97782D01*
X176728Y97512D02*X177538D01*
X176998Y98700D02*X177538D01*
X177808Y98430D01*
Y97782D02*Y98430D01*
X169378Y92700D02*X170080D01*
X169000Y92322D02*X169378Y92700D01*
X169000Y90918D02*Y92322D01*
Y90918D02*X169378Y90540D01*
X170080D01*
X170728Y90810D02*X170998Y90540D01*
X171538D01*
X171808Y90810D01*
X171538Y92700D02*X171808Y92430D01*
X170998Y92700D02*X171538D01*
X170728Y92430D02*X170998Y92700D01*
Y91512D02*X171538D01*
X171808Y90810D02*Y91242D01*
Y91782D02*Y92430D01*
Y91782D02*X171538Y91512D01*
X171808Y91242D02*X171538Y91512D01*
X71378Y92700D02*X72080D01*
X71000Y92322D02*X71378Y92700D01*
X71000Y90918D02*Y92322D01*
Y90918D02*X71378Y90540D01*
X72080D01*
X72728Y90972D02*X73160Y90540D01*
Y92700D01*
X72728D02*X73538D01*
X74186Y90810D02*X74456Y90540D01*
X74996D01*
X75266Y90810D01*
X74996Y92700D02*X75266Y92430D01*
X74456Y92700D02*X74996D01*
X74186Y92430D02*X74456Y92700D01*
Y91512D02*X74996D01*
X75266Y90810D02*Y91242D01*
Y91782D02*Y92430D01*
Y91782D02*X74996Y91512D01*
X75266Y91242D02*X74996Y91512D01*
X69878Y99200D02*X70580D01*
X69500Y98822D02*X69878Y99200D01*
X69500Y97418D02*Y98822D01*
Y97418D02*X69878Y97040D01*
X70580D01*
X71228Y97472D02*X71660Y97040D01*
Y99200D01*
X71228D02*X72038D01*
X72686Y98930D02*X72956Y99200D01*
X72686Y97310D02*Y98930D01*
Y97310D02*X72956Y97040D01*
X73496D01*
X73766Y97310D01*
Y98930D01*
X73496Y99200D02*X73766Y98930D01*
X72956Y99200D02*X73496D01*
X72686Y98660D02*X73766Y97580D01*
X64378Y92700D02*X65080D01*
X64000Y92322D02*X64378Y92700D01*
X64000Y90918D02*Y92322D01*
Y90918D02*X64378Y90540D01*
X65080D01*
X65728Y90972D02*X66160Y90540D01*
Y92700D01*
X65728D02*X66538D01*
X67186Y91890D02*X68266Y90540D01*
X67186Y91890D02*X68536D01*
X68266Y90540D02*Y92700D01*
X65378Y99200D02*X66080D01*
X65000Y98822D02*X65378Y99200D01*
X65000Y97418D02*Y98822D01*
Y97418D02*X65378Y97040D01*
X66080D01*
X66728Y97472D02*X67160Y97040D01*
Y99200D01*
X66728D02*X67538D01*
X71378Y146700D02*X72080D01*
X71000Y146322D02*X71378Y146700D01*
X71000Y144918D02*Y146322D01*
Y144918D02*X71378Y144540D01*
X72080D01*
X73538D02*X73808Y144810D01*
X72998Y144540D02*X73538D01*
X72728Y144810D02*X72998Y144540D01*
X72728Y144810D02*Y146430D01*
X72998Y146700D01*
X73538Y145512D02*X73808Y145782D01*
X72728Y145512D02*X73538D01*
X72998Y146700D02*X73538D01*
X73808Y146430D01*
Y145782D02*Y146430D01*
X74456Y144972D02*X74888Y144540D01*
Y146700D01*
X74456D02*X75266D01*
X63878D02*X64580D01*
X63500Y146322D02*X63878Y146700D01*
X63500Y144918D02*Y146322D01*
Y144918D02*X63878Y144540D01*
X64580D01*
X65228Y144972D02*X65660Y144540D01*
Y146700D01*
X65228D02*X66038D01*
X66686Y144810D02*X66956Y144540D01*
X67766D01*
X68036Y144810D01*
Y145350D01*
X66686Y146700D02*X68036Y145350D01*
X66686Y146700D02*X68036D01*
X174878D02*X175580D01*
X174500Y146322D02*X174878Y146700D01*
X174500Y144918D02*Y146322D01*
Y144918D02*X174878Y144540D01*
X175580D01*
X177038D02*X177308Y144810D01*
X176498Y144540D02*X177038D01*
X176228Y144810D02*X176498Y144540D01*
X176228Y144810D02*Y146430D01*
X176498Y146700D01*
X177038Y145512D02*X177308Y145782D01*
X176228Y145512D02*X177038D01*
X176498Y146700D02*X177038D01*
X177308Y146430D01*
Y145782D02*Y146430D01*
X177956Y144810D02*X178226Y144540D01*
X178766D01*
X179036Y144810D01*
X178766Y146700D02*X179036Y146430D01*
X178226Y146700D02*X178766D01*
X177956Y146430D02*X178226Y146700D01*
Y145512D02*X178766D01*
X179036Y144810D02*Y145242D01*
Y145782D02*Y146430D01*
Y145782D02*X178766Y145512D01*
X179036Y145242D02*X178766Y145512D01*
X167878Y146700D02*X168580D01*
X167500Y146322D02*X167878Y146700D01*
X167500Y144918D02*Y146322D01*
Y144918D02*X167878Y144540D01*
X168580D01*
X170038D02*X170308Y144810D01*
X169498Y144540D02*X170038D01*
X169228Y144810D02*X169498Y144540D01*
X169228Y144810D02*Y146430D01*
X169498Y146700D01*
X170038Y145512D02*X170308Y145782D01*
X169228Y145512D02*X170038D01*
X169498Y146700D02*X170038D01*
X170308Y146430D01*
Y145782D02*Y146430D01*
X170956Y144810D02*X171226Y144540D01*
X172036D01*
X172306Y144810D01*
Y145350D01*
X170956Y146700D02*X172306Y145350D01*
X170956Y146700D02*X172306D01*
M02*
