G04 start of page 11 for group -4079 idx -4079 *
G04 Title: fet12v2, topsilk *
G04 Creator: pcb 20140316 *
G04 CreationDate: Wed 13 Jun 2018 07:35:06 AM GMT UTC *
G04 For: brian *
G04 Format: Gerber/RS-274X *
G04 PCB-Dimensions (mil): 6000.00 5000.00 *
G04 PCB-Coordinate-Origin: lower left *
%MOIN*%
%FSLAX25Y25*%
%LNTOPSILK*%
%ADD147C,0.0100*%
%ADD146C,0.0120*%
%ADD145C,0.0080*%
%ADD144C,0.0098*%
%ADD143C,0.0197*%
%ADD142C,0.0060*%
G54D142*X246990Y120070D02*Y117130D01*
X246500Y120560D02*X246990Y120070D01*
X247480Y120560D01*
X248460D01*
X248950Y120070D01*
Y119090D01*
X248460Y118600D02*X248950Y119090D01*
X247480Y118600D02*X248460D01*
X246990Y119090D02*X247480Y118600D01*
X250126Y122520D02*Y118600D01*
Y120070D02*X250616Y120560D01*
X251596D01*
X252086Y120070D01*
Y118600D01*
X254732Y120560D02*X255222Y120070D01*
X253752Y120560D02*X254732D01*
X253262Y120070D02*X253752Y120560D01*
X253262Y120070D02*Y119090D01*
X253752Y118600D01*
X255222Y120560D02*Y119090D01*
X255712Y118600D01*
X253752D02*X254732D01*
X255222Y119090D01*
X257378Y118600D02*X258848D01*
X259338Y119090D01*
X258848Y119580D02*X259338Y119090D01*
X257378Y119580D02*X258848D01*
X256888Y120070D02*X257378Y119580D01*
X256888Y120070D02*X257378Y120560D01*
X258848D01*
X259338Y120070D01*
X256888Y119090D02*X257378Y118600D01*
X261004D02*X262474D01*
X260514Y119090D02*X261004Y118600D01*
X260514Y120070D02*Y119090D01*
Y120070D02*X261004Y120560D01*
X261984D01*
X262474Y120070D01*
X260514Y119580D02*X262474D01*
Y120070D02*Y119580D01*
X265414Y122030D02*X265904Y122520D01*
X267374D01*
X267864Y122030D01*
Y121050D01*
X265414Y118600D02*X267864Y121050D01*
X265414Y118600D02*X267864D01*
X133000Y186200D02*X133600Y186800D01*
X135400D01*
X136000Y186200D01*
Y185000D01*
X133000Y182000D02*X136000Y185000D01*
X133000Y182000D02*X136000D01*
X137440Y182600D02*X138040Y182000D01*
X137440Y186200D02*Y182600D01*
Y186200D02*X138040Y186800D01*
X139240D01*
X139840Y186200D01*
Y182600D01*
X139240Y182000D02*X139840Y182600D01*
X138040Y182000D02*X139240D01*
X137440Y183200D02*X139840Y185600D01*
X141280Y185840D02*X142240Y186800D01*
Y182000D01*
X141280D02*X143080D01*
X144520Y182600D02*X145120Y182000D01*
X144520Y183560D02*Y182600D01*
Y183560D02*X145360Y184400D01*
X146080D01*
X146920Y183560D01*
Y182600D01*
X146320Y182000D02*X146920Y182600D01*
X145120Y182000D02*X146320D01*
X144520Y185240D02*X145360Y184400D01*
X144520Y186200D02*Y185240D01*
Y186200D02*X145120Y186800D01*
X146320D01*
X146920Y186200D01*
Y185240D01*
X146080Y184400D02*X146920Y185240D01*
X148360Y182600D02*X148960Y182000D01*
X148360Y186200D02*Y182600D01*
Y186200D02*X148960Y186800D01*
X150160D01*
X150760Y186200D01*
Y182600D01*
X150160Y182000D02*X150760Y182600D01*
X148960Y182000D02*X150160D01*
X148360Y183200D02*X150760Y185600D01*
X154000Y186800D02*X154600Y186200D01*
X152800Y186800D02*X154000D01*
X152200Y186200D02*X152800Y186800D01*
X152200Y186200D02*Y182600D01*
X152800Y182000D01*
X154000Y184640D02*X154600Y184040D01*
X152200Y184640D02*X154000D01*
X152800Y182000D02*X154000D01*
X154600Y182600D01*
Y184040D02*Y182600D01*
X156040Y185840D02*X157000Y186800D01*
Y182000D01*
X156040D02*X157840D01*
X159280Y185840D02*X160240Y186800D01*
Y182000D01*
X159280D02*X161080D01*
X192960Y188020D02*X193450Y187530D01*
X191490Y188020D02*X192960D01*
X191000Y187530D02*X191490Y188020D01*
X191000Y187530D02*Y186550D01*
X191490Y186060D01*
X192960D01*
X193450Y185570D01*
Y184590D01*
X192960Y184100D02*X193450Y184590D01*
X191490Y184100D02*X192960D01*
X191000Y184590D02*X191490Y184100D01*
X195116D02*X196586D01*
X194626Y184590D02*X195116Y184100D01*
X194626Y185570D02*Y184590D01*
Y185570D02*X195116Y186060D01*
X196096D01*
X196586Y185570D01*
X194626Y185080D02*X196586D01*
Y185570D02*Y185080D01*
X198252Y184100D02*X199722D01*
X197762Y184590D02*X198252Y184100D01*
X197762Y185570D02*Y184590D01*
Y185570D02*X198252Y186060D01*
X199232D01*
X199722Y185570D01*
X197762Y185080D02*X199722D01*
Y185570D02*Y185080D01*
X201388Y185570D02*Y184100D01*
Y185570D02*X201878Y186060D01*
X202368D01*
X202858Y185570D01*
Y184100D01*
Y185570D02*X203348Y186060D01*
X203838D01*
X204328Y185570D01*
Y184100D01*
X200898Y186060D02*X201388Y185570D01*
X205994Y184100D02*X207464D01*
X207954Y184590D01*
X207464Y185080D02*X207954Y184590D01*
X205994Y185080D02*X207464D01*
X205504Y185570D02*X205994Y185080D01*
X205504Y185570D02*X205994Y186060D01*
X207464D01*
X207954Y185570D01*
X205504Y184590D02*X205994Y184100D01*
X186000Y185020D02*X187960D01*
X188450Y184530D01*
Y183550D01*
X187960Y183060D02*X188450Y183550D01*
X186490Y183060D02*X187960D01*
X186490Y185020D02*Y181100D01*
X187274Y183060D02*X188450Y181100D01*
X190116D02*X191586D01*
X189626Y181590D02*X190116Y181100D01*
X189626Y182570D02*Y181590D01*
Y182570D02*X190116Y183060D01*
X191096D01*
X191586Y182570D01*
X189626Y182080D02*X191586D01*
Y182570D02*Y182080D01*
X194232Y183060D02*X194722Y182570D01*
X193252Y183060D02*X194232D01*
X192762Y182570D02*X193252Y183060D01*
X192762Y182570D02*Y181590D01*
X193252Y181100D01*
X194722Y183060D02*Y181590D01*
X195212Y181100D01*
X193252D02*X194232D01*
X194722Y181590D01*
X196878Y181100D02*X198348D01*
X198838Y181590D01*
X198348Y182080D02*X198838Y181590D01*
X196878Y182080D02*X198348D01*
X196388Y182570D02*X196878Y182080D01*
X196388Y182570D02*X196878Y183060D01*
X198348D01*
X198838Y182570D01*
X196388Y181590D02*X196878Y181100D01*
X200014Y182570D02*Y181590D01*
Y182570D02*X200504Y183060D01*
X201484D01*
X201974Y182570D01*
Y181590D01*
X201484Y181100D02*X201974Y181590D01*
X200504Y181100D02*X201484D01*
X200014Y181590D02*X200504Y181100D01*
X203640Y182570D02*Y181100D01*
Y182570D02*X204130Y183060D01*
X204620D01*
X205110Y182570D01*
Y181100D01*
X203150Y183060D02*X203640Y182570D01*
X207756Y183060D02*X208246Y182570D01*
X206776Y183060D02*X207756D01*
X206286Y182570D02*X206776Y183060D01*
X206286Y182570D02*Y181590D01*
X206776Y181100D01*
X208246Y183060D02*Y181590D01*
X208736Y181100D01*
X206776D02*X207756D01*
X208246Y181590D01*
X209912Y185020D02*Y181100D01*
Y181590D02*X210402Y181100D01*
X211382D01*
X211872Y181590D01*
Y182570D02*Y181590D01*
X211382Y183060D02*X211872Y182570D01*
X210402Y183060D02*X211382D01*
X209912Y182570D02*X210402Y183060D01*
X213048Y185020D02*Y181590D01*
X213538Y181100D01*
X215008D02*X216478D01*
X214518Y181590D02*X215008Y181100D01*
X214518Y182570D02*Y181590D01*
Y182570D02*X215008Y183060D01*
X215988D01*
X216478Y182570D01*
X214518Y182080D02*X216478D01*
Y182570D02*Y182080D01*
X191490Y179530D02*Y176100D01*
Y179530D02*X191980Y180020D01*
X192470D01*
X191000Y178060D02*X191980D01*
X193940Y176100D02*X195410D01*
X193450Y176590D02*X193940Y176100D01*
X193450Y177570D02*Y176590D01*
Y177570D02*X193940Y178060D01*
X194920D01*
X195410Y177570D01*
X193450Y177080D02*X195410D01*
Y177570D02*Y177080D01*
X197076Y180020D02*Y176590D01*
X197566Y176100D01*
X196586Y178550D02*X197566D01*
X198546Y179236D02*X199330Y180020D01*
Y176100D01*
X198546D02*X200016D01*
X201192Y179530D02*X201682Y180020D01*
X203152D01*
X203642Y179530D01*
Y178550D01*
X201192Y176100D02*X203642Y178550D01*
X201192Y176100D02*X203642D01*
X204818Y178060D02*X205798Y176100D01*
X206778Y178060D02*X205798Y176100D01*
X207954Y179530D02*X208444Y180020D01*
X209914D01*
X210404Y179530D01*
Y178550D01*
X207954Y176100D02*X210404Y178550D01*
X207954Y176100D02*X210404D01*
X352990Y120070D02*Y117130D01*
X352500Y120560D02*X352990Y120070D01*
X353480Y120560D01*
X354460D01*
X354950Y120070D01*
Y119090D01*
X354460Y118600D02*X354950Y119090D01*
X353480Y118600D02*X354460D01*
X352990Y119090D02*X353480Y118600D01*
X356126Y122520D02*Y118600D01*
Y120070D02*X356616Y120560D01*
X357596D01*
X358086Y120070D01*
Y118600D01*
X360732Y120560D02*X361222Y120070D01*
X359752Y120560D02*X360732D01*
X359262Y120070D02*X359752Y120560D01*
X359262Y120070D02*Y119090D01*
X359752Y118600D01*
X361222Y120560D02*Y119090D01*
X361712Y118600D01*
X359752D02*X360732D01*
X361222Y119090D01*
X363378Y118600D02*X364848D01*
X365338Y119090D01*
X364848Y119580D02*X365338Y119090D01*
X363378Y119580D02*X364848D01*
X362888Y120070D02*X363378Y119580D01*
X362888Y120070D02*X363378Y120560D01*
X364848D01*
X365338Y120070D01*
X362888Y119090D02*X363378Y118600D01*
X367004D02*X368474D01*
X366514Y119090D02*X367004Y118600D01*
X366514Y120070D02*Y119090D01*
Y120070D02*X367004Y120560D01*
X367984D01*
X368474Y120070D01*
X366514Y119580D02*X368474D01*
Y120070D02*Y119580D01*
X371414Y121736D02*X372198Y122520D01*
Y118600D01*
X371414D02*X372884D01*
X458990Y120070D02*Y117130D01*
X458500Y120560D02*X458990Y120070D01*
X459480Y120560D01*
X460460D01*
X460950Y120070D01*
Y119090D01*
X460460Y118600D02*X460950Y119090D01*
X459480Y118600D02*X460460D01*
X458990Y119090D02*X459480Y118600D01*
X462126Y122520D02*Y118600D01*
Y120070D02*X462616Y120560D01*
X463596D01*
X464086Y120070D01*
Y118600D01*
X466732Y120560D02*X467222Y120070D01*
X465752Y120560D02*X466732D01*
X465262Y120070D02*X465752Y120560D01*
X465262Y120070D02*Y119090D01*
X465752Y118600D01*
X467222Y120560D02*Y119090D01*
X467712Y118600D01*
X465752D02*X466732D01*
X467222Y119090D01*
X469378Y118600D02*X470848D01*
X471338Y119090D01*
X470848Y119580D02*X471338Y119090D01*
X469378Y119580D02*X470848D01*
X468888Y120070D02*X469378Y119580D01*
X468888Y120070D02*X469378Y120560D01*
X470848D01*
X471338Y120070D01*
X468888Y119090D02*X469378Y118600D01*
X473004D02*X474474D01*
X472514Y119090D02*X473004Y118600D01*
X472514Y120070D02*Y119090D01*
Y120070D02*X473004Y120560D01*
X473984D01*
X474474Y120070D01*
X472514Y119580D02*X474474D01*
Y120070D02*Y119580D01*
X477414Y119090D02*X477904Y118600D01*
X477414Y122030D02*Y119090D01*
Y122030D02*X477904Y122520D01*
X478884D01*
X479374Y122030D01*
Y119090D01*
X478884Y118600D02*X479374Y119090D01*
X477904Y118600D02*X478884D01*
X477414Y119580D02*X479374Y121540D01*
X338530Y183500D02*X339020Y183010D01*
Y181540D01*
X338530Y181050D01*
X337550D02*X338530D01*
X335100Y183500D02*X337550Y181050D01*
X335100Y183500D02*Y181050D01*
X335590Y179874D02*X335100Y179384D01*
X335590Y179874D02*X338530D01*
X339020Y179384D01*
Y178404D01*
X338530Y177914D01*
X335590D02*X338530D01*
X335100Y178404D02*X335590Y177914D01*
X335100Y179384D02*Y178404D01*
X336080Y179874D02*X338040Y177914D01*
X338236Y176738D02*X339020Y175954D01*
X335100D02*X339020D01*
X335100Y176738D02*Y175268D01*
X335590Y174092D02*X335100Y173602D01*
X335590Y174092D02*X336374D01*
X337060Y173406D01*
Y172818D01*
X336374Y172132D01*
X335590D02*X336374D01*
X335100Y172622D02*X335590Y172132D01*
X335100Y173602D02*Y172622D01*
X337746Y174092D02*X337060Y173406D01*
X337746Y174092D02*X338530D01*
X339020Y173602D01*
Y172622D01*
X338530Y172132D01*
X337746D02*X338530D01*
X337060Y172818D02*X337746Y172132D01*
X335590Y170956D02*X335100Y170466D01*
X335590Y170956D02*X338530D01*
X339020Y170466D01*
Y169486D01*
X338530Y168996D01*
X335590D02*X338530D01*
X335100Y169486D02*X335590Y168996D01*
X335100Y170466D02*Y169486D01*
X336080Y170956D02*X338040Y168996D01*
X339020Y166350D02*X338530Y165860D01*
X339020Y167330D02*Y166350D01*
X338530Y167820D02*X339020Y167330D01*
X335590Y167820D02*X338530D01*
X335590D02*X335100Y167330D01*
X337256Y166350D02*X336766Y165860D01*
X337256Y167820D02*Y166350D01*
X335100Y167330D02*Y166350D01*
X335590Y165860D01*
X336766D01*
X338236Y164684D02*X339020Y163900D01*
X335100D02*X339020D01*
X335100Y164684D02*Y163214D01*
X338236Y162038D02*X339020Y161254D01*
X335100D02*X339020D01*
X335100Y162038D02*Y160568D01*
G54D143*X124469Y62126D02*Y50315D01*
Y89685D02*Y77874D01*
G54D144*X127815Y47362D02*X164331D01*
X127815Y92638D02*X164331D01*
X171024Y85945D01*
X164331Y47362D02*X171024Y54055D01*
Y85945D02*Y77874D01*
Y62126D02*Y54055D01*
G54D143*X222531Y89685D02*Y77874D01*
Y62126D02*Y50315D01*
G54D144*X182669Y92638D02*X219185D01*
X182669Y47362D02*X219185D01*
X182669D02*X175976Y54055D01*
X182669Y92638D02*X175976Y85945D01*
Y62126D02*Y54055D01*
Y85945D02*Y77874D01*
G54D143*X118531Y89685D02*Y77874D01*
Y62126D02*Y50315D01*
G54D144*X78669Y92638D02*X115185D01*
X78669Y47362D02*X115185D01*
X78669D02*X71976Y54055D01*
X78669Y92638D02*X71976Y85945D01*
Y62126D02*Y54055D01*
Y85945D02*Y77874D01*
G54D145*X235255Y104393D02*Y103607D01*
X229745Y104393D02*Y103607D01*
G54D146*X227866Y77059D02*Y76350D01*
Y72650D02*Y71941D01*
G54D145*X227669Y77256D02*X236331D01*
X227669Y71744D02*X236331D01*
G54D143*X20469Y62126D02*Y50315D01*
Y89685D02*Y77874D01*
G54D144*X23815Y47362D02*X60331D01*
X23815Y92638D02*X60331D01*
X67024Y85945D01*
X60331Y47362D02*X67024Y54055D01*
Y85945D02*Y77874D01*
Y62126D02*Y54055D01*
G54D143*X222531Y187185D02*Y175374D01*
Y159626D02*Y147815D01*
G54D144*X182669Y190138D02*X219185D01*
X182669Y144862D02*X219185D01*
X182669D02*X175976Y151555D01*
X182669Y190138D02*X175976Y183445D01*
Y159626D02*Y151555D01*
Y183445D02*Y175374D01*
G54D143*X222531Y138185D02*Y126374D01*
Y110626D02*Y98815D01*
G54D144*X182669Y141138D02*X219185D01*
X182669Y95862D02*X219185D01*
X182669D02*X175976Y102555D01*
X182669Y141138D02*X175976Y134445D01*
Y110626D02*Y102555D01*
Y134445D02*Y126374D01*
G54D146*X234350Y136634D02*X235059D01*
X229941D02*X230650D01*
G54D145*X235256Y136831D02*Y128169D01*
X229744Y136831D02*Y128169D01*
G54D143*X118531Y187185D02*Y175374D01*
Y159626D02*Y147815D01*
G54D144*X78669Y190138D02*X115185D01*
X78669Y144862D02*X115185D01*
X78669D02*X71976Y151555D01*
X78669Y190138D02*X71976Y183445D01*
Y159626D02*Y151555D01*
Y183445D02*Y175374D01*
G54D143*X118531Y138185D02*Y126374D01*
Y110626D02*Y98815D01*
G54D144*X78669Y141138D02*X115185D01*
X78669Y95862D02*X115185D01*
X78669D02*X71976Y102555D01*
X78669Y141138D02*X71976Y134445D01*
Y110626D02*Y102555D01*
Y134445D02*Y126374D01*
G54D143*X20469Y110626D02*Y98815D01*
Y138185D02*Y126374D01*
G54D144*X23815Y95862D02*X60331D01*
X23815Y141138D02*X60331D01*
X67024Y134445D01*
X60331Y95862D02*X67024Y102555D01*
Y134445D02*Y126374D01*
Y110626D02*Y102555D01*
G54D143*X20469Y159626D02*Y147815D01*
Y187185D02*Y175374D01*
G54D144*X23815Y144862D02*X60331D01*
X23815Y190138D02*X60331D01*
X67024Y183445D01*
X60331Y144862D02*X67024Y151555D01*
Y183445D02*Y175374D01*
Y159626D02*Y151555D01*
G54D143*X124469Y159626D02*Y147815D01*
Y187185D02*Y175374D01*
G54D144*X127815Y144862D02*X164331D01*
X127815Y190138D02*X164331D01*
X171024Y183445D01*
X164331Y144862D02*X171024Y151555D01*
Y183445D02*Y175374D01*
Y159626D02*Y151555D01*
G54D143*X124469Y110626D02*Y98815D01*
Y138185D02*Y126374D01*
G54D144*X127815Y95862D02*X164331D01*
X127815Y141138D02*X164331D01*
X171024Y134445D01*
X164331Y95862D02*X171024Y102555D01*
Y134445D02*Y126374D01*
Y110626D02*Y102555D01*
G54D146*X492866Y152059D02*Y151350D01*
Y147650D02*Y146941D01*
G54D145*X492669Y152256D02*X501331D01*
X492669Y146744D02*X501331D01*
G54D146*X492866Y77059D02*Y76350D01*
Y72650D02*Y71941D01*
G54D145*X492669Y77256D02*X501331D01*
X492669Y71744D02*X501331D01*
G54D146*X439866Y77059D02*Y76350D01*
Y72650D02*Y71941D01*
G54D145*X439669Y77256D02*X448331D01*
X439669Y71744D02*X448331D01*
X447255Y104393D02*Y103607D01*
X441745Y104393D02*Y103607D01*
G54D146*X446350Y136634D02*X447059D01*
X441941D02*X442650D01*
G54D145*X447256Y136831D02*Y128169D01*
X441744Y136831D02*Y128169D01*
G54D146*X386866Y152059D02*Y151350D01*
Y147650D02*Y146941D01*
G54D145*X386669Y152256D02*X395331D01*
X386669Y146744D02*X395331D01*
G54D146*X386866Y77059D02*Y76350D01*
Y72650D02*Y71941D01*
G54D145*X386669Y77256D02*X395331D01*
X386669Y71744D02*X395331D01*
X341255Y104393D02*Y103607D01*
X335745Y104393D02*Y103607D01*
G54D146*X340350Y136634D02*X341059D01*
X335941D02*X336650D01*
G54D145*X341256Y136831D02*Y128169D01*
X335744Y136831D02*Y128169D01*
G54D146*X333866Y77059D02*Y76350D01*
Y72650D02*Y71941D01*
G54D145*X333669Y77256D02*X342331D01*
X333669Y71744D02*X342331D01*
G54D147*X225500Y178400D02*X235500D01*
G54D146*X280866Y152059D02*Y151350D01*
Y147650D02*Y146941D01*
G54D145*X280669Y152256D02*X289331D01*
X280669Y146744D02*X289331D01*
G54D146*X280866Y77059D02*Y76350D01*
Y72650D02*Y71941D01*
G54D145*X280669Y77256D02*X289331D01*
X280669Y71744D02*X289331D01*
G54D142*X447532Y116700D02*X448520D01*
X447000Y117232D02*X447532Y116700D01*
X447000Y119208D02*Y117232D01*
Y119208D02*X447532Y119740D01*
X448520D01*
X449432Y119360D02*X449812Y119740D01*
X450572D01*
X450952Y119360D01*
X450572Y116700D02*X450952Y117080D01*
X449812Y116700D02*X450572D01*
X449432Y117080D02*X449812Y116700D01*
Y118372D02*X450572D01*
X450952Y119360D02*Y118752D01*
Y117992D02*Y117080D01*
Y117992D02*X450572Y118372D01*
X450952Y118752D02*X450572Y118372D01*
X451864Y117840D02*X453384Y119740D01*
X451864Y117840D02*X453764D01*
X453384Y119740D02*Y116700D01*
X438878Y149800D02*X439580D01*
X438500Y150178D02*X438878Y149800D01*
X438500Y151582D02*Y150178D01*
Y151582D02*X438878Y151960D01*
X439580D01*
X440228Y151690D02*Y150070D01*
Y151690D02*X440498Y151960D01*
X441038D01*
X441308Y151690D01*
Y150070D01*
X441038Y149800D02*X441308Y150070D01*
X440498Y149800D02*X441038D01*
X440228Y150070D02*X440498Y149800D01*
X441956Y151960D02*Y149800D01*
Y151960D02*X443306Y149800D01*
Y151960D02*Y149800D01*
X443954Y151960D02*Y149800D01*
Y151960D02*X445304Y149800D01*
Y151960D02*Y149800D01*
X445952Y151960D02*X447032D01*
X445952D02*Y150880D01*
X446222Y151150D01*
X446762D01*
X447032Y150880D01*
Y150070D01*
X446762Y149800D02*X447032Y150070D01*
X446222Y149800D02*X446762D01*
X445952Y150070D02*X446222Y149800D01*
X448500Y128730D02*X450425D01*
X448500Y125650D02*X450425Y128730D01*
X448500Y125650D02*X450425D01*
X452504Y128730D02*X452889Y128345D01*
X451734Y128730D02*X452504D01*
X451349Y128345D02*X451734Y128730D01*
X451349Y128345D02*Y126035D01*
X451734Y125650D01*
X452504Y127344D02*X452889Y126959D01*
X451349Y127344D02*X452504D01*
X451734Y125650D02*X452504D01*
X452889Y126035D01*
Y126959D02*Y126035D01*
X491878Y166800D02*X492580D01*
X491500Y167178D02*X491878Y166800D01*
X491500Y168582D02*Y167178D01*
Y168582D02*X491878Y168960D01*
X492580D01*
X493228Y168690D02*Y167070D01*
Y168690D02*X493498Y168960D01*
X494038D01*
X494308Y168690D01*
Y167070D01*
X494038Y166800D02*X494308Y167070D01*
X493498Y166800D02*X494038D01*
X493228Y167070D02*X493498Y166800D01*
X494956Y168960D02*Y166800D01*
Y168960D02*X496306Y166800D01*
Y168960D02*Y166800D01*
X496954Y168960D02*Y166800D01*
Y168960D02*X498304Y166800D01*
Y168960D02*Y166800D01*
X498952Y168690D02*X499222Y168960D01*
X499762D01*
X500032Y168690D01*
X499762Y166800D02*X500032Y167070D01*
X499222Y166800D02*X499762D01*
X498952Y167070D02*X499222Y166800D01*
Y167988D02*X499762D01*
X500032Y168690D02*Y168258D01*
Y167718D02*Y167070D01*
Y167718D02*X499762Y167988D01*
X500032Y168258D02*X499762Y167988D01*
X492378Y132800D02*X493080D01*
X492000Y133178D02*X492378Y132800D01*
X492000Y134582D02*Y133178D01*
Y134582D02*X492378Y134960D01*
X493080D01*
X493728Y134690D02*Y133070D01*
Y134690D02*X493998Y134960D01*
X494538D01*
X494808Y134690D01*
Y133070D01*
X494538Y132800D02*X494808Y133070D01*
X493998Y132800D02*X494538D01*
X493728Y133070D02*X493998Y132800D01*
X495456Y134960D02*Y132800D01*
Y134960D02*X496806Y132800D01*
Y134960D02*Y132800D01*
X497454Y134960D02*Y132800D01*
Y134960D02*X498804Y132800D01*
Y134960D02*Y132800D01*
X499722D02*X500532Y133880D01*
Y134690D02*Y133880D01*
X500262Y134960D02*X500532Y134690D01*
X499722Y134960D02*X500262D01*
X499452Y134690D02*X499722Y134960D01*
X499452Y134690D02*Y134150D01*
X499722Y133880D01*
X500532D01*
X496500Y155460D02*X497850D01*
X496500Y153300D02*X497850Y155460D01*
X496500Y153300D02*X497850D01*
X498498Y155460D02*X499578D01*
X498498D02*Y154380D01*
X498768Y154650D01*
X499308D01*
X499578Y154380D01*
Y153570D01*
X499308Y153300D02*X499578Y153570D01*
X498768Y153300D02*X499308D01*
X498498Y153570D02*X498768Y153300D01*
X468000Y128500D02*Y125500D01*
Y128500D02*X468500Y129000D01*
X469500D01*
X470000Y128500D01*
Y126000D01*
X469000Y125000D02*X470000Y126000D01*
X468500Y125000D02*X469000D01*
X468000Y125500D02*X468500Y125000D01*
X469000Y126500D02*X470000Y125000D01*
X472700Y129000D02*X473200Y128500D01*
X471700Y129000D02*X472700D01*
X471200Y128500D02*X471700Y129000D01*
X471200Y128500D02*Y125500D01*
X471700Y125000D01*
X472700Y127200D02*X473200Y126700D01*
X471200Y127200D02*X472700D01*
X471700Y125000D02*X472700D01*
X473200Y125500D01*
Y126700D02*Y125500D01*
X386378Y132800D02*X387080D01*
X386000Y133178D02*X386378Y132800D01*
X386000Y134582D02*Y133178D01*
Y134582D02*X386378Y134960D01*
X387080D01*
X387728Y134690D02*Y133070D01*
Y134690D02*X387998Y134960D01*
X388538D01*
X388808Y134690D01*
Y133070D01*
X388538Y132800D02*X388808Y133070D01*
X387998Y132800D02*X388538D01*
X387728Y133070D02*X387998Y132800D01*
X389456Y134960D02*Y132800D01*
Y134960D02*X390806Y132800D01*
Y134960D02*Y132800D01*
X391454Y134960D02*Y132800D01*
Y134960D02*X392804Y132800D01*
Y134960D02*Y132800D01*
X393452Y134528D02*X393884Y134960D01*
Y132800D01*
X393452D02*X394262D01*
X394910Y133070D02*X395180Y132800D01*
X394910Y133502D02*Y133070D01*
Y133502D02*X395288Y133880D01*
X395612D01*
X395990Y133502D01*
Y133070D01*
X395720Y132800D02*X395990Y133070D01*
X395180Y132800D02*X395720D01*
X394910Y134258D02*X395288Y133880D01*
X394910Y134690D02*Y134258D01*
Y134690D02*X395180Y134960D01*
X395720D01*
X395990Y134690D01*
Y134258D01*
X395612Y133880D02*X395990Y134258D01*
X362000Y128500D02*Y125500D01*
Y128500D02*X362500Y129000D01*
X363500D01*
X364000Y128500D01*
Y126000D01*
X363000Y125000D02*X364000Y126000D01*
X362500Y125000D02*X363000D01*
X362000Y125500D02*X362500Y125000D01*
X363000Y126500D02*X364000Y125000D01*
X365200Y128200D02*X366000Y129000D01*
Y125000D01*
X365200D02*X366700D01*
X367900Y125500D02*X368400Y125000D01*
X367900Y128500D02*Y125500D01*
Y128500D02*X368400Y129000D01*
X369400D01*
X369900Y128500D01*
Y125500D01*
X369400Y125000D02*X369900Y125500D01*
X368400Y125000D02*X369400D01*
X367900Y126000D02*X369900Y128000D01*
X523000D02*Y125000D01*
Y128000D02*X523500Y128500D01*
X524500D01*
X525000Y128000D01*
Y125500D01*
X524000Y124500D02*X525000Y125500D01*
X523500Y124500D02*X524000D01*
X523000Y125000D02*X523500Y124500D01*
X524000Y126000D02*X525000Y124500D01*
X526200Y125000D02*X526700Y124500D01*
X526200Y125800D02*Y125000D01*
Y125800D02*X526900Y126500D01*
X527500D01*
X528200Y125800D01*
Y125000D01*
X527700Y124500D02*X528200Y125000D01*
X526700Y124500D02*X527700D01*
X526200Y127200D02*X526900Y126500D01*
X526200Y128000D02*Y127200D01*
Y128000D02*X526700Y128500D01*
X527700D01*
X528200Y128000D01*
Y127200D01*
X527500Y126500D02*X528200Y127200D01*
X520500Y116500D02*Y113500D01*
Y116500D02*X521000Y117000D01*
X522000D01*
X522500Y116500D01*
Y114000D01*
X521500Y113000D02*X522500Y114000D01*
X521000Y113000D02*X521500D01*
X520500Y113500D02*X521000Y113000D01*
X521500Y114500D02*X522500Y113000D01*
X524200D02*X526200Y117000D01*
X523700D02*X526200D01*
X533878Y118800D02*X534580D01*
X533500Y119178D02*X533878Y118800D01*
X533500Y120582D02*Y119178D01*
Y120582D02*X533878Y120960D01*
X534580D01*
X535498Y118800D02*X536308Y119880D01*
Y120690D02*Y119880D01*
X536038Y120960D02*X536308Y120690D01*
X535498Y120960D02*X536038D01*
X535228Y120690D02*X535498Y120960D01*
X535228Y120690D02*Y120150D01*
X535498Y119880D01*
X536308D01*
X536956Y119070D02*X537226Y118800D01*
X536956Y120690D02*Y119070D01*
Y120690D02*X537226Y120960D01*
X537766D01*
X538036Y120690D01*
Y119070D01*
X537766Y118800D02*X538036Y119070D01*
X537226Y118800D02*X537766D01*
X536956Y119340D02*X538036Y120420D01*
X491878Y90300D02*X492580D01*
X491500Y90678D02*X491878Y90300D01*
X491500Y92082D02*Y90678D01*
Y92082D02*X491878Y92460D01*
X492580D01*
X493228Y92190D02*Y90570D01*
Y92190D02*X493498Y92460D01*
X494038D01*
X494308Y92190D01*
Y90570D01*
X494038Y90300D02*X494308Y90570D01*
X493498Y90300D02*X494038D01*
X493228Y90570D02*X493498Y90300D01*
X494956Y92460D02*Y90300D01*
Y92460D02*X496306Y90300D01*
Y92460D02*Y90300D01*
X496954Y92460D02*Y90300D01*
Y92460D02*X498304Y90300D01*
Y92460D02*Y90300D01*
X498952Y92190D02*X499222Y92460D01*
X500032D01*
X500302Y92190D01*
Y91650D01*
X498952Y90300D02*X500302Y91650D01*
X498952Y90300D02*X500302D01*
X494000Y83000D02*X496500D01*
X494000Y79000D02*X496500Y83000D01*
X494000Y79000D02*X496500D01*
X498200D02*X500200Y83000D01*
X497700D02*X500200D01*
X492378Y55300D02*X493080D01*
X492000Y55678D02*X492378Y55300D01*
X492000Y57082D02*Y55678D01*
Y57082D02*X492378Y57460D01*
X493080D01*
X493728Y57190D02*Y55570D01*
Y57190D02*X493998Y57460D01*
X494538D01*
X494808Y57190D01*
Y55570D01*
X494538Y55300D02*X494808Y55570D01*
X493998Y55300D02*X494538D01*
X493728Y55570D02*X493998Y55300D01*
X495456Y57460D02*Y55300D01*
Y57460D02*X496806Y55300D01*
Y57460D02*Y55300D01*
X497454Y57460D02*Y55300D01*
Y57460D02*X498804Y55300D01*
Y57460D02*Y55300D01*
X499452Y55570D02*X499722Y55300D01*
X499452Y56002D02*Y55570D01*
Y56002D02*X499830Y56380D01*
X500154D01*
X500532Y56002D01*
Y55570D01*
X500262Y55300D02*X500532Y55570D01*
X499722Y55300D02*X500262D01*
X499452Y56758D02*X499830Y56380D01*
X499452Y57190D02*Y56758D01*
Y57190D02*X499722Y57460D01*
X500262D01*
X500532Y57190D01*
Y56758D01*
X500154Y56380D02*X500532Y56758D01*
X451200Y97580D02*Y96878D01*
X450822Y96500D02*X451200Y96878D01*
X449418Y96500D02*X450822D01*
X449418D02*X449040Y96878D01*
Y97580D02*Y96878D01*
X450390Y98228D02*X449040Y99308D01*
X450390Y99578D02*Y98228D01*
X449040Y99308D02*X451200D01*
X450390Y100226D02*X449040Y101306D01*
X450390Y101576D02*Y100226D01*
X449040Y101306D02*X451200D01*
X438378Y90800D02*X439080D01*
X438000Y91178D02*X438378Y90800D01*
X438000Y92582D02*Y91178D01*
Y92582D02*X438378Y92960D01*
X439080D01*
X439728Y92690D02*Y91070D01*
Y92690D02*X439998Y92960D01*
X440538D01*
X440808Y92690D01*
Y91070D01*
X440538Y90800D02*X440808Y91070D01*
X439998Y90800D02*X440538D01*
X439728Y91070D02*X439998Y90800D01*
X441456Y92960D02*Y90800D01*
Y92960D02*X442806Y90800D01*
Y92960D02*Y90800D01*
X443454Y92960D02*Y90800D01*
Y92960D02*X444804Y90800D01*
Y92960D02*Y90800D01*
X445722D02*X446802Y92960D01*
X445452D02*X446802D01*
X438878Y55300D02*X439580D01*
X438500Y55678D02*X438878Y55300D01*
X438500Y57082D02*Y55678D01*
Y57082D02*X438878Y57460D01*
X439580D01*
X440228Y57190D02*Y55570D01*
Y57190D02*X440498Y57460D01*
X441038D01*
X441308Y57190D01*
Y55570D01*
X441038Y55300D02*X441308Y55570D01*
X440498Y55300D02*X441038D01*
X440228Y55570D02*X440498Y55300D01*
X441956Y57460D02*Y55300D01*
Y57460D02*X443306Y55300D01*
Y57460D02*Y55300D01*
X443954Y57460D02*Y55300D01*
Y57460D02*X445304Y55300D01*
Y57460D02*Y55300D01*
X445952Y56110D02*X447032Y57460D01*
X445952Y56110D02*X447302D01*
X447032Y57460D02*Y55300D01*
X445000Y80460D02*X446350D01*
X445000Y78300D02*X446350Y80460D01*
X445000Y78300D02*X446350D01*
X446998Y78570D02*X447268Y78300D01*
X446998Y79002D02*Y78570D01*
Y79002D02*X447376Y79380D01*
X447700D01*
X448078Y79002D01*
Y78570D01*
X447808Y78300D02*X448078Y78570D01*
X447268Y78300D02*X447808D01*
X446998Y79758D02*X447376Y79380D01*
X446998Y80190D02*Y79758D01*
Y80190D02*X447268Y80460D01*
X447808D01*
X448078Y80190D01*
Y79758D01*
X447700Y79380D02*X448078Y79758D01*
X467500Y115500D02*Y112500D01*
Y115500D02*X468000Y116000D01*
X469000D01*
X469500Y115500D01*
Y113000D01*
X468500Y112000D02*X469500Y113000D01*
X468000Y112000D02*X468500D01*
X467500Y112500D02*X468000Y112000D01*
X468500Y113500D02*X469500Y112000D01*
X470700Y116000D02*X472700D01*
X470700D02*Y114000D01*
X471200Y114500D01*
X472200D01*
X472700Y114000D01*
Y112500D01*
X472200Y112000D02*X472700Y112500D01*
X471200Y112000D02*X472200D01*
X470700Y112500D02*X471200Y112000D01*
X417000Y128000D02*Y125000D01*
Y128000D02*X417500Y128500D01*
X418500D01*
X419000Y128000D01*
Y125500D01*
X418000Y124500D02*X419000Y125500D01*
X417500Y124500D02*X418000D01*
X417000Y125000D02*X417500Y124500D01*
X418000Y126000D02*X419000Y124500D01*
X420200Y127700D02*X421000Y128500D01*
Y124500D01*
X420200D02*X421700D01*
X422900Y128000D02*X423400Y128500D01*
X424900D01*
X425400Y128000D01*
Y127000D01*
X422900Y124500D02*X425400Y127000D01*
X422900Y124500D02*X425400D01*
X414500Y116500D02*Y113500D01*
Y116500D02*X415000Y117000D01*
X416000D01*
X416500Y116500D01*
Y114000D01*
X415500Y113000D02*X416500Y114000D01*
X415000Y113000D02*X415500D01*
X414500Y113500D02*X415000Y113000D01*
X415500Y114500D02*X416500Y113000D01*
X417700Y116200D02*X418500Y117000D01*
Y113000D01*
X417700D02*X419200D01*
X420400Y116200D02*X421200Y117000D01*
Y113000D01*
X420400D02*X421900D01*
X341532Y116700D02*X342520D01*
X341000Y117232D02*X341532Y116700D01*
X341000Y119208D02*Y117232D01*
Y119208D02*X341532Y119740D01*
X342520D01*
X343432Y117840D02*X344952Y119740D01*
X343432Y117840D02*X345332D01*
X344952Y119740D02*Y116700D01*
X346244Y117080D02*X346624Y116700D01*
X346244Y117688D02*Y117080D01*
Y117688D02*X346776Y118220D01*
X347232D01*
X347764Y117688D01*
Y117080D01*
X347384Y116700D02*X347764Y117080D01*
X346624Y116700D02*X347384D01*
X346244Y118752D02*X346776Y118220D01*
X346244Y119360D02*Y118752D01*
Y119360D02*X346624Y119740D01*
X347384D01*
X347764Y119360D01*
Y118752D01*
X347232Y118220D02*X347764Y118752D01*
X345200Y97580D02*Y96878D01*
X344822Y96500D02*X345200Y96878D01*
X343418Y96500D02*X344822D01*
X343418D02*X343040Y96878D01*
Y97580D02*Y96878D01*
Y99308D02*Y98228D01*
X344120D01*
X343850Y98498D01*
Y99038D02*Y98498D01*
Y99038D02*X344120Y99308D01*
X344930D01*
X345200Y99038D02*X344930Y99308D01*
X345200Y99038D02*Y98498D01*
X344930Y98228D02*X345200Y98498D01*
X344930Y99956D02*X345200Y100226D01*
X344498Y99956D02*X344930D01*
X344498D02*X344120Y100334D01*
Y100658D02*Y100334D01*
Y100658D02*X344498Y101036D01*
X344930D01*
X345200Y100766D02*X344930Y101036D01*
X345200Y100766D02*Y100226D01*
X343742Y99956D02*X344120Y100334D01*
X343310Y99956D02*X343742D01*
X343310D02*X343040Y100226D01*
Y100766D02*Y100226D01*
Y100766D02*X343310Y101036D01*
X343742D01*
X344120Y100658D02*X343742Y101036D01*
X338500Y80460D02*X339850D01*
X338500Y78300D02*X339850Y80460D01*
X338500Y78300D02*X339850D01*
X340498Y80028D02*X340930Y80460D01*
Y78300D01*
X340498D02*X341308D01*
X341956Y80190D02*X342226Y80460D01*
X343036D01*
X343306Y80190D01*
Y79650D01*
X341956Y78300D02*X343306Y79650D01*
X341956Y78300D02*X343306D01*
X361500Y115500D02*Y112500D01*
Y115500D02*X362000Y116000D01*
X363000D01*
X363500Y115500D01*
Y113000D01*
X362500Y112000D02*X363500Y113000D01*
X362000Y112000D02*X362500D01*
X361500Y112500D02*X362000Y112000D01*
X362500Y113500D02*X363500Y112000D01*
X365200D02*X366700Y114000D01*
Y115500D02*Y114000D01*
X366200Y116000D02*X366700Y115500D01*
X365200Y116000D02*X366200D01*
X364700Y115500D02*X365200Y116000D01*
X364700Y115500D02*Y114500D01*
X365200Y114000D01*
X366700D01*
X388000Y83000D02*X390500D01*
X388000Y79000D02*X390500Y83000D01*
X388000Y79000D02*X390500D01*
X391700Y82200D02*X392500Y83000D01*
Y79000D01*
X391700D02*X393200D01*
X394400Y82200D02*X395200Y83000D01*
Y79000D01*
X394400D02*X395900D01*
X332878Y55300D02*X333580D01*
X332500Y55678D02*X332878Y55300D01*
X332500Y57082D02*Y55678D01*
Y57082D02*X332878Y57460D01*
X333580D01*
X334228Y57190D02*Y55570D01*
Y57190D02*X334498Y57460D01*
X335038D01*
X335308Y57190D01*
Y55570D01*
X335038Y55300D02*X335308Y55570D01*
X334498Y55300D02*X335038D01*
X334228Y55570D02*X334498Y55300D01*
X335956Y57460D02*Y55300D01*
Y57460D02*X337306Y55300D01*
Y57460D02*Y55300D01*
X337954Y57460D02*Y55300D01*
Y57460D02*X339304Y55300D01*
Y57460D02*Y55300D01*
X339952Y57190D02*X340222Y57460D01*
X340762D01*
X341032Y57190D01*
X340762Y55300D02*X341032Y55570D01*
X340222Y55300D02*X340762D01*
X339952Y55570D02*X340222Y55300D01*
Y56488D02*X340762D01*
X341032Y57190D02*Y56758D01*
Y56218D02*Y55570D01*
Y56218D02*X340762Y56488D01*
X341032Y56758D02*X340762Y56488D01*
X341680Y57028D02*X342112Y57460D01*
Y55300D01*
X341680D02*X342490D01*
X386378D02*X387080D01*
X386000Y55678D02*X386378Y55300D01*
X386000Y57082D02*Y55678D01*
Y57082D02*X386378Y57460D01*
X387080D01*
X387728Y57190D02*Y55570D01*
Y57190D02*X387998Y57460D01*
X388538D01*
X388808Y57190D01*
Y55570D01*
X388538Y55300D02*X388808Y55570D01*
X387998Y55300D02*X388538D01*
X387728Y55570D02*X387998Y55300D01*
X389456Y57460D02*Y55300D01*
Y57460D02*X390806Y55300D01*
Y57460D02*Y55300D01*
X391454Y57460D02*Y55300D01*
Y57460D02*X392804Y55300D01*
Y57460D02*Y55300D01*
X393452Y57028D02*X393884Y57460D01*
Y55300D01*
X393452D02*X394262D01*
X395180D02*X396260Y57460D01*
X394910D02*X396260D01*
X385878Y166800D02*X386580D01*
X385500Y167178D02*X385878Y166800D01*
X385500Y168582D02*Y167178D01*
Y168582D02*X385878Y168960D01*
X386580D01*
X387228Y168690D02*Y167070D01*
Y168690D02*X387498Y168960D01*
X388038D01*
X388308Y168690D01*
Y167070D01*
X388038Y166800D02*X388308Y167070D01*
X387498Y166800D02*X388038D01*
X387228Y167070D02*X387498Y166800D01*
X388956Y168960D02*Y166800D01*
Y168960D02*X390306Y166800D01*
Y168960D02*Y166800D01*
X390954Y168960D02*Y166800D01*
Y168960D02*X392304Y166800D01*
Y168960D02*Y166800D01*
X392952Y168528D02*X393384Y168960D01*
Y166800D01*
X392952D02*X393762D01*
X394410Y168690D02*X394680Y168960D01*
X395220D01*
X395490Y168690D01*
X395220Y166800D02*X395490Y167070D01*
X394680Y166800D02*X395220D01*
X394410Y167070D02*X394680Y166800D01*
Y167988D02*X395220D01*
X395490Y168690D02*Y168258D01*
Y167718D02*Y167070D01*
Y167718D02*X395220Y167988D01*
X395490Y168258D02*X395220Y167988D01*
X390500Y155460D02*X391850D01*
X390500Y153300D02*X391850Y155460D01*
X390500Y153300D02*X391850D01*
X392768D02*X393578Y154380D01*
Y155190D02*Y154380D01*
X393308Y155460D02*X393578Y155190D01*
X392768Y155460D02*X393308D01*
X392498Y155190D02*X392768Y155460D01*
X392498Y155190D02*Y154650D01*
X392768Y154380D01*
X393578D01*
X279878Y166800D02*X280580D01*
X279500Y167178D02*X279878Y166800D01*
X279500Y168582D02*Y167178D01*
Y168582D02*X279878Y168960D01*
X280580D01*
X281228Y168690D02*Y167070D01*
Y168690D02*X281498Y168960D01*
X282038D01*
X282308Y168690D01*
Y167070D01*
X282038Y166800D02*X282308Y167070D01*
X281498Y166800D02*X282038D01*
X281228Y167070D02*X281498Y166800D01*
X282956Y168960D02*Y166800D01*
Y168960D02*X284306Y166800D01*
Y168960D02*Y166800D01*
X284954Y168960D02*Y166800D01*
Y168960D02*X286304Y166800D01*
Y168960D02*Y166800D01*
X286952Y168690D02*X287222Y168960D01*
X288032D01*
X288302Y168690D01*
Y168150D01*
X286952Y166800D02*X288302Y168150D01*
X286952Y166800D02*X288302D01*
X288950Y168690D02*X289220Y168960D01*
X289760D01*
X290030Y168690D01*
X289760Y166800D02*X290030Y167070D01*
X289220Y166800D02*X289760D01*
X288950Y167070D02*X289220Y166800D01*
Y167988D02*X289760D01*
X290030Y168690D02*Y168258D01*
Y167718D02*Y167070D01*
Y167718D02*X289760Y167988D01*
X290030Y168258D02*X289760Y167988D01*
X226878Y149800D02*X227580D01*
X226500Y150178D02*X226878Y149800D01*
X226500Y151582D02*Y150178D01*
Y151582D02*X226878Y151960D01*
X227580D01*
X228228Y151690D02*Y150070D01*
Y151690D02*X228498Y151960D01*
X229038D01*
X229308Y151690D01*
Y150070D01*
X229038Y149800D02*X229308Y150070D01*
X228498Y149800D02*X229038D01*
X228228Y150070D02*X228498Y149800D01*
X229956Y151960D02*Y149800D01*
Y151960D02*X231306Y149800D01*
Y151960D02*Y149800D01*
X231954Y151960D02*Y149800D01*
Y151960D02*X233304Y149800D01*
Y151960D02*Y149800D01*
X233952Y151690D02*X234222Y151960D01*
X235032D01*
X235302Y151690D01*
Y151150D01*
X233952Y149800D02*X235302Y151150D01*
X233952Y149800D02*X235302D01*
X235950Y151960D02*X237030D01*
X235950D02*Y150880D01*
X236220Y151150D01*
X236760D01*
X237030Y150880D01*
Y150070D01*
X236760Y149800D02*X237030Y150070D01*
X236220Y149800D02*X236760D01*
X235950Y150070D02*X236220Y149800D01*
X284500Y155460D02*X285850D01*
X284500Y153300D02*X285850Y155460D01*
X284500Y153300D02*X285850D01*
X286498Y155028D02*X286930Y155460D01*
Y153300D01*
X286498D02*X287308D01*
X228500Y163000D02*Y159000D01*
X229800Y163000D02*X230500Y162300D01*
Y159700D01*
X229800Y159000D02*X230500Y159700D01*
X228000Y159000D02*X229800D01*
X228000Y163000D02*X229800D01*
X231700D02*X233700D01*
X231700D02*Y161000D01*
X232200Y161500D01*
X233200D01*
X233700Y161000D01*
Y159500D01*
X233200Y159000D02*X233700Y159500D01*
X232200Y159000D02*X233200D01*
X231700Y159500D02*X232200Y159000D01*
X332878Y149800D02*X333580D01*
X332500Y150178D02*X332878Y149800D01*
X332500Y151582D02*Y150178D01*
Y151582D02*X332878Y151960D01*
X333580D01*
X334228Y151690D02*Y150070D01*
Y151690D02*X334498Y151960D01*
X335038D01*
X335308Y151690D01*
Y150070D01*
X335038Y149800D02*X335308Y150070D01*
X334498Y149800D02*X335038D01*
X334228Y150070D02*X334498Y149800D01*
X335956Y151960D02*Y149800D01*
Y151960D02*X337306Y149800D01*
Y151960D02*Y149800D01*
X337954Y151960D02*Y149800D01*
Y151960D02*X339304Y149800D01*
Y151960D02*Y149800D01*
X339952Y151528D02*X340384Y151960D01*
Y149800D01*
X339952D02*X340762D01*
X341410Y151960D02*X342490D01*
X341410D02*Y150880D01*
X341680Y151150D01*
X342220D01*
X342490Y150880D01*
Y150070D01*
X342220Y149800D02*X342490Y150070D01*
X341680Y149800D02*X342220D01*
X341410Y150070D02*X341680Y149800D01*
X342500Y128730D02*X344425D01*
X342500Y125650D02*X344425Y128730D01*
X342500Y125650D02*X344425D01*
X345349Y128114D02*X345965Y128730D01*
Y125650D01*
X345349D02*X346504D01*
X347428Y126035D02*X347813Y125650D01*
X347428Y128345D02*Y126035D01*
Y128345D02*X347813Y128730D01*
X348583D01*
X348968Y128345D01*
Y126035D01*
X348583Y125650D02*X348968Y126035D01*
X347813Y125650D02*X348583D01*
X347428Y126420D02*X348968Y127960D01*
X235532Y116700D02*X236520D01*
X235000Y117232D02*X235532Y116700D01*
X235000Y119208D02*Y117232D01*
Y119208D02*X235532Y119740D01*
X236520D01*
X237432Y119360D02*X237812Y119740D01*
X238952D01*
X239332Y119360D01*
Y118600D01*
X237432Y116700D02*X239332Y118600D01*
X237432Y116700D02*X239332D01*
X280378Y132800D02*X281080D01*
X280000Y133178D02*X280378Y132800D01*
X280000Y134582D02*Y133178D01*
Y134582D02*X280378Y134960D01*
X281080D01*
X281728Y134690D02*Y133070D01*
Y134690D02*X281998Y134960D01*
X282538D01*
X282808Y134690D01*
Y133070D01*
X282538Y132800D02*X282808Y133070D01*
X281998Y132800D02*X282538D01*
X281728Y133070D02*X281998Y132800D01*
X283456Y134960D02*Y132800D01*
Y134960D02*X284806Y132800D01*
Y134960D02*Y132800D01*
X285454Y134960D02*Y132800D01*
Y134960D02*X286804Y132800D01*
Y134960D02*Y132800D01*
X287452Y134690D02*X287722Y134960D01*
X288532D01*
X288802Y134690D01*
Y134150D01*
X287452Y132800D02*X288802Y134150D01*
X287452Y132800D02*X288802D01*
X289450Y133070D02*X289720Y132800D01*
X289450Y133502D02*Y133070D01*
Y133502D02*X289828Y133880D01*
X290152D01*
X290530Y133502D01*
Y133070D01*
X290260Y132800D02*X290530Y133070D01*
X289720Y132800D02*X290260D01*
X289450Y134258D02*X289828Y133880D01*
X289450Y134690D02*Y134258D01*
Y134690D02*X289720Y134960D01*
X290260D01*
X290530Y134690D01*
Y134258D01*
X290152Y133880D02*X290530Y134258D01*
X236500Y128730D02*X238425D01*
X236500Y125650D02*X238425Y128730D01*
X236500Y125650D02*X238425D01*
X239349Y128345D02*X239734Y128730D01*
X240889D01*
X241274Y128345D01*
Y127575D01*
X239349Y125650D02*X241274Y127575D01*
X239349Y125650D02*X241274D01*
X256000Y128500D02*Y125500D01*
Y128500D02*X256500Y129000D01*
X257500D01*
X258000Y128500D01*
Y126000D01*
X257000Y125000D02*X258000Y126000D01*
X256500Y125000D02*X257000D01*
X256000Y125500D02*X256500Y125000D01*
X257000Y126500D02*X258000Y125000D01*
X259200Y126500D02*X261200Y129000D01*
X259200Y126500D02*X261700D01*
X261200Y129000D02*Y125000D01*
X311000Y128000D02*Y125000D01*
Y128000D02*X311500Y128500D01*
X312500D01*
X313000Y128000D01*
Y125500D01*
X312000Y124500D02*X313000Y125500D01*
X311500Y124500D02*X312000D01*
X311000Y125000D02*X311500Y124500D01*
X312000Y126000D02*X313000Y124500D01*
X314200Y127700D02*X315000Y128500D01*
Y124500D01*
X314200D02*X315700D01*
X308500Y116500D02*Y113500D01*
Y116500D02*X309000Y117000D01*
X310000D01*
X310500Y116500D01*
Y114000D01*
X309500Y113000D02*X310500Y114000D01*
X309000Y113000D02*X309500D01*
X308500Y113500D02*X309000Y113000D01*
X309500Y114500D02*X310500Y113000D01*
X311700Y116500D02*X312200Y117000D01*
X313200D01*
X313700Y116500D01*
X313200Y113000D02*X313700Y113500D01*
X312200Y113000D02*X313200D01*
X311700Y113500D02*X312200Y113000D01*
Y115200D02*X313200D01*
X313700Y116500D02*Y115700D01*
Y114700D02*Y113500D01*
Y114700D02*X313200Y115200D01*
X313700Y115700D02*X313200Y115200D01*
X255500Y115500D02*Y112500D01*
Y115500D02*X256000Y116000D01*
X257000D01*
X257500Y115500D01*
Y113000D01*
X256500Y112000D02*X257500Y113000D01*
X256000Y112000D02*X256500D01*
X255500Y112500D02*X256000Y112000D01*
X256500Y113500D02*X257500Y112000D01*
X258700Y115500D02*X259200Y116000D01*
X260700D01*
X261200Y115500D01*
Y114500D01*
X258700Y112000D02*X261200Y114500D01*
X258700Y112000D02*X261200D01*
X282000Y83000D02*X284500D01*
X282000Y79000D02*X284500Y83000D01*
X282000Y79000D02*X284500D01*
X285700Y82500D02*X286200Y83000D01*
X287200D01*
X287700Y82500D01*
X287200Y79000D02*X287700Y79500D01*
X286200Y79000D02*X287200D01*
X285700Y79500D02*X286200Y79000D01*
Y81200D02*X287200D01*
X287700Y82500D02*Y81700D01*
Y80700D02*Y79500D01*
Y80700D02*X287200Y81200D01*
X287700Y81700D02*X287200Y81200D01*
X280378Y55300D02*X281080D01*
X280000Y55678D02*X280378Y55300D01*
X280000Y57082D02*Y55678D01*
Y57082D02*X280378Y57460D01*
X281080D01*
X281728Y57190D02*Y55570D01*
Y57190D02*X281998Y57460D01*
X282538D01*
X282808Y57190D01*
Y55570D01*
X282538Y55300D02*X282808Y55570D01*
X281998Y55300D02*X282538D01*
X281728Y55570D02*X281998Y55300D01*
X283456Y57460D02*Y55300D01*
Y57460D02*X284806Y55300D01*
Y57460D02*Y55300D01*
X285454Y57460D02*Y55300D01*
Y57460D02*X286804Y55300D01*
Y57460D02*Y55300D01*
X287452Y57190D02*X287722Y57460D01*
X288532D01*
X288802Y57190D01*
Y56650D01*
X287452Y55300D02*X288802Y56650D01*
X287452Y55300D02*X288802D01*
X289720D02*X290800Y57460D01*
X289450D02*X290800D01*
X385878Y90300D02*X386580D01*
X385500Y90678D02*X385878Y90300D01*
X385500Y92082D02*Y90678D01*
Y92082D02*X385878Y92460D01*
X386580D01*
X387228Y92190D02*Y90570D01*
Y92190D02*X387498Y92460D01*
X388038D01*
X388308Y92190D01*
Y90570D01*
X388038Y90300D02*X388308Y90570D01*
X387498Y90300D02*X388038D01*
X387228Y90570D02*X387498Y90300D01*
X388956Y92460D02*Y90300D01*
Y92460D02*X390306Y90300D01*
Y92460D02*Y90300D01*
X390954Y92460D02*Y90300D01*
Y92460D02*X392304Y90300D01*
Y92460D02*Y90300D01*
X392952Y92028D02*X393384Y92460D01*
Y90300D01*
X392952D02*X393762D01*
X394410Y92190D02*X394680Y92460D01*
X395490D01*
X395760Y92190D01*
Y91650D01*
X394410Y90300D02*X395760Y91650D01*
X394410Y90300D02*X395760D01*
X332378Y90800D02*X333080D01*
X332000Y91178D02*X332378Y90800D01*
X332000Y92582D02*Y91178D01*
Y92582D02*X332378Y92960D01*
X333080D01*
X333728Y92690D02*Y91070D01*
Y92690D02*X333998Y92960D01*
X334538D01*
X334808Y92690D01*
Y91070D01*
X334538Y90800D02*X334808Y91070D01*
X333998Y90800D02*X334538D01*
X333728Y91070D02*X333998Y90800D01*
X335456Y92960D02*Y90800D01*
Y92960D02*X336806Y90800D01*
Y92960D02*Y90800D01*
X337454Y92960D02*Y90800D01*
Y92960D02*X338804Y90800D01*
Y92960D02*Y90800D01*
X339452Y92528D02*X339884Y92960D01*
Y90800D01*
X339452D02*X340262D01*
X341720Y92960D02*X341990Y92690D01*
X341180Y92960D02*X341720D01*
X340910Y92690D02*X341180Y92960D01*
X340910Y92690D02*Y91070D01*
X341180Y90800D01*
X341720Y91988D02*X341990Y91718D01*
X340910Y91988D02*X341720D01*
X341180Y90800D02*X341720D01*
X341990Y91070D01*
Y91718D02*Y91070D01*
X279878Y90300D02*X280580D01*
X279500Y90678D02*X279878Y90300D01*
X279500Y92082D02*Y90678D01*
Y92082D02*X279878Y92460D01*
X280580D01*
X281228Y92190D02*Y90570D01*
Y92190D02*X281498Y92460D01*
X282038D01*
X282308Y92190D01*
Y90570D01*
X282038Y90300D02*X282308Y90570D01*
X281498Y90300D02*X282038D01*
X281228Y90570D02*X281498Y90300D01*
X282956Y92460D02*Y90300D01*
Y92460D02*X284306Y90300D01*
Y92460D02*Y90300D01*
X284954Y92460D02*Y90300D01*
Y92460D02*X286304Y90300D01*
Y92460D02*Y90300D01*
X286952Y92190D02*X287222Y92460D01*
X288032D01*
X288302Y92190D01*
Y91650D01*
X286952Y90300D02*X288302Y91650D01*
X286952Y90300D02*X288302D01*
X288950Y92190D02*X289220Y92460D01*
X290030D01*
X290300Y92190D01*
Y91650D01*
X288950Y90300D02*X290300Y91650D01*
X288950Y90300D02*X290300D01*
X168378D02*X169080D01*
X168000Y90678D02*X168378Y90300D01*
X168000Y92082D02*Y90678D01*
Y92082D02*X168378Y92460D01*
X169080D01*
X169728Y92190D02*X169998Y92460D01*
X170538D01*
X170808Y92190D01*
X170538Y90300D02*X170808Y90570D01*
X169998Y90300D02*X170538D01*
X169728Y90570D02*X169998Y90300D01*
Y91488D02*X170538D01*
X170808Y92190D02*Y91758D01*
Y91218D02*Y90570D01*
Y91218D02*X170538Y91488D01*
X170808Y91758D02*X170538Y91488D01*
X171456Y92190D02*X171726Y92460D01*
X172266D01*
X172536Y92190D01*
X172266Y90300D02*X172536Y90570D01*
X171726Y90300D02*X172266D01*
X171456Y90570D02*X171726Y90300D01*
Y91488D02*X172266D01*
X172536Y92190D02*Y91758D01*
Y91218D02*Y90570D01*
Y91218D02*X172266Y91488D01*
X172536Y91758D02*X172266Y91488D01*
X174878Y90300D02*X175580D01*
X174500Y90678D02*X174878Y90300D01*
X174500Y92082D02*Y90678D01*
Y92082D02*X174878Y92460D01*
X175580D01*
X176228Y92190D02*X176498Y92460D01*
X177038D01*
X177308Y92190D01*
X177038Y90300D02*X177308Y90570D01*
X176498Y90300D02*X177038D01*
X176228Y90570D02*X176498Y90300D01*
Y91488D02*X177038D01*
X177308Y92190D02*Y91758D01*
Y91218D02*Y90570D01*
Y91218D02*X177038Y91488D01*
X177308Y91758D02*X177038Y91488D01*
X177956Y90570D02*X178226Y90300D01*
X177956Y92190D02*Y90570D01*
Y92190D02*X178226Y92460D01*
X178766D01*
X179036Y92190D01*
Y90570D01*
X178766Y90300D02*X179036Y90570D01*
X178226Y90300D02*X178766D01*
X177956Y90840D02*X179036Y91920D01*
X70878Y89800D02*X71580D01*
X70500Y90178D02*X70878Y89800D01*
X70500Y91582D02*Y90178D01*
Y91582D02*X70878Y91960D01*
X71580D01*
X72228Y91528D02*X72660Y91960D01*
Y89800D01*
X72228D02*X73038D01*
X73956D02*X75036Y91960D01*
X73686D02*X75036D01*
X65378Y89800D02*X66080D01*
X65000Y90178D02*X65378Y89800D01*
X65000Y91582D02*Y90178D01*
Y91582D02*X65378Y91960D01*
X66080D01*
X66728Y90070D02*X66998Y89800D01*
X66728Y90502D02*Y90070D01*
Y90502D02*X67106Y90880D01*
X67430D01*
X67808Y90502D01*
Y90070D01*
X67538Y89800D02*X67808Y90070D01*
X66998Y89800D02*X67538D01*
X66728Y91258D02*X67106Y90880D01*
X66728Y91690D02*Y91258D01*
Y91690D02*X66998Y91960D01*
X67538D01*
X67808Y91690D01*
Y91258D01*
X67430Y90880D02*X67808Y91258D01*
X168378Y144800D02*X169080D01*
X168000Y145178D02*X168378Y144800D01*
X168000Y146582D02*Y145178D01*
Y146582D02*X168378Y146960D01*
X169080D01*
X169728Y146528D02*X170160Y146960D01*
Y144800D01*
X169728D02*X170538D01*
X171456D02*X172266Y145880D01*
Y146690D02*Y145880D01*
X171996Y146960D02*X172266Y146690D01*
X171456Y146960D02*X171996D01*
X171186Y146690D02*X171456Y146960D01*
X171186Y146690D02*Y146150D01*
X171456Y145880D01*
X172266D01*
X168378Y138300D02*X169080D01*
X168000Y138678D02*X168378Y138300D01*
X168000Y140082D02*Y138678D01*
Y140082D02*X168378Y140460D01*
X169080D01*
X169728Y140028D02*X170160Y140460D01*
Y138300D01*
X169728D02*X170538D01*
X171186Y138570D02*X171456Y138300D01*
X171186Y139002D02*Y138570D01*
Y139002D02*X171564Y139380D01*
X171888D01*
X172266Y139002D01*
Y138570D01*
X171996Y138300D02*X172266Y138570D01*
X171456Y138300D02*X171996D01*
X171186Y139758D02*X171564Y139380D01*
X171186Y140190D02*Y139758D01*
Y140190D02*X171456Y140460D01*
X171996D01*
X172266Y140190D01*
Y139758D01*
X171888Y139380D02*X172266Y139758D01*
X174378Y144800D02*X175080D01*
X174000Y145178D02*X174378Y144800D01*
X174000Y146582D02*Y145178D01*
Y146582D02*X174378Y146960D01*
X175080D01*
X175728Y146690D02*X175998Y146960D01*
X176538D01*
X176808Y146690D01*
X176538Y144800D02*X176808Y145070D01*
X175998Y144800D02*X176538D01*
X175728Y145070D02*X175998Y144800D01*
Y145988D02*X176538D01*
X176808Y146690D02*Y146258D01*
Y145718D02*Y145070D01*
Y145718D02*X176538Y145988D01*
X176808Y146258D02*X176538Y145988D01*
X177456Y146690D02*X177726Y146960D01*
X178536D01*
X178806Y146690D01*
Y146150D01*
X177456Y144800D02*X178806Y146150D01*
X177456Y144800D02*X178806D01*
X174878Y138300D02*X175580D01*
X174500Y138678D02*X174878Y138300D01*
X174500Y140082D02*Y138678D01*
Y140082D02*X174878Y140460D01*
X175580D01*
X176228Y140190D02*X176498Y140460D01*
X177038D01*
X177308Y140190D01*
X177038Y138300D02*X177308Y138570D01*
X176498Y138300D02*X177038D01*
X176228Y138570D02*X176498Y138300D01*
Y139488D02*X177038D01*
X177308Y140190D02*Y139758D01*
Y139218D02*Y138570D01*
Y139218D02*X177038Y139488D01*
X177308Y139758D02*X177038Y139488D01*
X177956Y140028D02*X178388Y140460D01*
Y138300D01*
X177956D02*X178766D01*
X70378Y145300D02*X71080D01*
X70000Y145678D02*X70378Y145300D01*
X70000Y147082D02*Y145678D01*
Y147082D02*X70378Y147460D01*
X71080D01*
X71728Y147190D02*X71998Y147460D01*
X72808D01*
X73078Y147190D01*
Y146650D01*
X71728Y145300D02*X73078Y146650D01*
X71728Y145300D02*X73078D01*
X74536Y147460D02*X74806Y147190D01*
X73996Y147460D02*X74536D01*
X73726Y147190D02*X73996Y147460D01*
X73726Y147190D02*Y145570D01*
X73996Y145300D01*
X74536Y146488D02*X74806Y146218D01*
X73726Y146488D02*X74536D01*
X73996Y145300D02*X74536D01*
X74806Y145570D01*
Y146218D02*Y145570D01*
X71378Y138800D02*X72080D01*
X71000Y139178D02*X71378Y138800D01*
X71000Y140582D02*Y139178D01*
Y140582D02*X71378Y140960D01*
X72080D01*
X72728Y140528D02*X73160Y140960D01*
Y138800D01*
X72728D02*X73538D01*
X74996Y140960D02*X75266Y140690D01*
X74456Y140960D02*X74996D01*
X74186Y140690D02*X74456Y140960D01*
X74186Y140690D02*Y139070D01*
X74456Y138800D01*
X74996Y139988D02*X75266Y139718D01*
X74186Y139988D02*X74996D01*
X74456Y138800D02*X74996D01*
X75266Y139070D01*
Y139718D02*Y139070D01*
X64378Y138800D02*X65080D01*
X64000Y139178D02*X64378Y138800D01*
X64000Y140582D02*Y139178D01*
Y140582D02*X64378Y140960D01*
X65080D01*
X65728Y140690D02*X65998Y140960D01*
X66808D01*
X67078Y140690D01*
Y140150D01*
X65728Y138800D02*X67078Y140150D01*
X65728Y138800D02*X67078D01*
X67726Y139070D02*X67996Y138800D01*
X67726Y140690D02*Y139070D01*
Y140690D02*X67996Y140960D01*
X68536D01*
X68806Y140690D01*
Y139070D01*
X68536Y138800D02*X68806Y139070D01*
X67996Y138800D02*X68536D01*
X67726Y139340D02*X68806Y140420D01*
X65378Y145300D02*X66080D01*
X65000Y145678D02*X65378Y145300D01*
X65000Y147082D02*Y145678D01*
Y147082D02*X65378Y147460D01*
X66080D01*
X66728Y146110D02*X67808Y147460D01*
X66728Y146110D02*X68078D01*
X67808Y147460D02*Y145300D01*
X239200Y97580D02*Y96878D01*
X238822Y96500D02*X239200Y96878D01*
X237418Y96500D02*X238822D01*
X237418D02*X237040Y96878D01*
Y97580D02*Y96878D01*
X237310Y98228D02*X237040Y98498D01*
Y99308D02*Y98498D01*
Y99308D02*X237310Y99578D01*
X237850D01*
X239200Y98228D02*X237850Y99578D01*
X239200D02*Y98228D01*
Y100496D02*X238120Y101306D01*
X237310D02*X238120D01*
X237040Y101036D02*X237310Y101306D01*
X237040Y101036D02*Y100496D01*
X237310Y100226D02*X237040Y100496D01*
X237310Y100226D02*X237850D01*
X238120Y100496D01*
Y101306D02*Y100496D01*
X226878Y55300D02*X227580D01*
X226500Y55678D02*X226878Y55300D01*
X226500Y57082D02*Y55678D01*
Y57082D02*X226878Y57460D01*
X227580D01*
X228228Y57190D02*Y55570D01*
Y57190D02*X228498Y57460D01*
X229038D01*
X229308Y57190D01*
Y55570D01*
X229038Y55300D02*X229308Y55570D01*
X228498Y55300D02*X229038D01*
X228228Y55570D02*X228498Y55300D01*
X229956Y57460D02*Y55300D01*
Y57460D02*X231306Y55300D01*
Y57460D02*Y55300D01*
X231954Y57460D02*Y55300D01*
Y57460D02*X233304Y55300D01*
Y57460D02*Y55300D01*
X233952Y57190D02*X234222Y57460D01*
X235032D01*
X235302Y57190D01*
Y56650D01*
X233952Y55300D02*X235302Y56650D01*
X233952Y55300D02*X235302D01*
X235950Y56110D02*X237030Y57460D01*
X235950Y56110D02*X237300D01*
X237030Y57460D02*Y55300D01*
X232500Y80460D02*X233850D01*
X232500Y78300D02*X233850Y80460D01*
X232500Y78300D02*X233850D01*
X234498Y79110D02*X235578Y80460D01*
X234498Y79110D02*X235848D01*
X235578Y80460D02*Y78300D01*
X226378Y90800D02*X227080D01*
X226000Y91178D02*X226378Y90800D01*
X226000Y92582D02*Y91178D01*
Y92582D02*X226378Y92960D01*
X227080D01*
X227728Y92690D02*Y91070D01*
Y92690D02*X227998Y92960D01*
X228538D01*
X228808Y92690D01*
Y91070D01*
X228538Y90800D02*X228808Y91070D01*
X227998Y90800D02*X228538D01*
X227728Y91070D02*X227998Y90800D01*
X229456Y92960D02*Y90800D01*
Y92960D02*X230806Y90800D01*
Y92960D02*Y90800D01*
X231454Y92960D02*Y90800D01*
Y92960D02*X232804Y90800D01*
Y92960D02*Y90800D01*
X233452Y92690D02*X233722Y92960D01*
X234532D01*
X234802Y92690D01*
Y92150D01*
X233452Y90800D02*X234802Y92150D01*
X233452Y90800D02*X234802D01*
X236260Y92960D02*X236530Y92690D01*
X235720Y92960D02*X236260D01*
X235450Y92690D02*X235720Y92960D01*
X235450Y92690D02*Y91070D01*
X235720Y90800D01*
X236260Y91988D02*X236530Y91718D01*
X235450Y91988D02*X236260D01*
X235720Y90800D02*X236260D01*
X236530Y91070D01*
Y91718D02*Y91070D01*
M02*
