G04 start of page 9 for group -4063 idx -4063 *
G04 Title: fet12v2, componentmask *
G04 Creator: pcb 20140316 *
G04 CreationDate: Wed 13 Jun 2018 07:35:06 AM GMT UTC *
G04 For: brian *
G04 Format: Gerber/RS-274X *
G04 PCB-Dimensions (mil): 6000.00 5000.00 *
G04 PCB-Coordinate-Origin: lower left *
%MOIN*%
%FSLAX25Y25*%
%LNTOPMASK*%
%ADD124C,0.0001*%
%ADD123R,0.0906X0.0906*%
%ADD122R,0.1457X0.1457*%
%ADD121R,0.1142X0.1142*%
%ADD120R,0.0551X0.0551*%
%ADD119R,0.0276X0.0276*%
%ADD118R,0.0315X0.0315*%
%ADD117R,0.0100X0.0100*%
%ADD116C,0.0394*%
%ADD115R,0.0240X0.0240*%
%ADD114R,0.0572X0.0572*%
%ADD113R,0.0355X0.0355*%
%ADD112C,0.2190*%
%ADD111C,0.0010*%
%ADD110C,0.0950*%
G54D110*X390000Y161000D03*
G54D111*X372949Y164232D03*
X377673D03*
X372949Y159508D03*
X377673D03*
X363500Y164232D03*
X368224D03*
Y159508D03*
X349327Y178405D03*
Y173681D03*
Y168956D03*
X354051Y178405D03*
Y173681D03*
Y168956D03*
X358776Y178405D03*
Y173681D03*
Y168956D03*
X363500Y178405D03*
Y173681D03*
X368224D03*
X372949D03*
X377673D03*
X368224Y178405D03*
X372949D03*
X377673D03*
X363500Y168956D03*
X368224D03*
X372949D03*
X377673D03*
X349327Y164232D03*
Y104405D03*
X354051D03*
X349327Y99681D03*
X354051D03*
Y164232D03*
X358776D03*
G54D110*X337000Y144000D03*
G54D111*X349327Y159508D03*
X354051D03*
X358776D03*
X363500D03*
G54D110*X390000Y141000D03*
G54D111*X315224Y178405D03*
Y173681D03*
Y168956D03*
X319949Y178405D03*
Y173681D03*
Y168956D03*
X324673Y178405D03*
Y173681D03*
Y168956D03*
X315224Y164232D03*
Y159508D03*
X319949Y164232D03*
Y159508D03*
X324673Y164232D03*
Y159508D03*
X296327Y178405D03*
X301051D03*
X305776D03*
X310500D03*
X296327Y173681D03*
Y168956D03*
Y164232D03*
X301051Y173681D03*
X305776D03*
X310500D03*
X301051Y168956D03*
X305776D03*
X310500D03*
X301051Y164232D03*
X305776D03*
X310500D03*
X296327Y159508D03*
X301051D03*
X305776D03*
X310500D03*
G54D110*X443000Y144000D03*
Y85500D03*
Y63500D03*
G54D111*X455327Y104405D03*
Y99681D03*
X460051D03*
X455327Y94956D03*
Y90232D03*
X460051D03*
X455327Y85508D03*
X460051D03*
Y104405D03*
X464776D03*
X469500D03*
X474224D03*
X478949D03*
X483673D03*
X464776Y99681D03*
X469500D03*
X474224D03*
X478949D03*
X483673D03*
X460051Y94956D03*
X464776D03*
X469500D03*
X474224D03*
X478949D03*
X483673D03*
X464776Y90232D03*
X469500D03*
X474224D03*
X478949D03*
X483673D03*
X464776Y85508D03*
X469500D03*
X474224D03*
X478949D03*
X483673D03*
G54D110*X496000Y161000D03*
Y141000D03*
G54D111*X478949Y178405D03*
X483673D03*
X478949Y173681D03*
X483673D03*
X478949Y168956D03*
X483673D03*
X478949Y164232D03*
X483673D03*
X478949Y159508D03*
X483673D03*
X474224Y178405D03*
X464776D03*
X469500D03*
X464776Y173681D03*
X469500D03*
X474224D03*
X455327Y178405D03*
X460051D03*
X455327Y173681D03*
X460051D03*
X455327Y168956D03*
X460051D03*
X464776D03*
X469500D03*
X474224D03*
X455327Y164232D03*
X460051D03*
X455327Y159508D03*
X460051D03*
X464776Y164232D03*
X469500D03*
X474224D03*
X464776Y159508D03*
X469500D03*
X474224D03*
X508327Y178405D03*
Y173681D03*
X513051Y178405D03*
Y173681D03*
X517776D03*
X508327Y168956D03*
Y164232D03*
X513051D03*
X517776Y178405D03*
X522500D03*
X527224D03*
X531949D03*
X536673D03*
X522500Y173681D03*
X527224D03*
X531949D03*
X536673D03*
X513051Y168956D03*
X517776D03*
X522500D03*
X527224D03*
X531949D03*
X536673D03*
X517776Y164232D03*
X522500D03*
X527224D03*
X531949D03*
X536673D03*
X508327Y159508D03*
X513051D03*
X517776D03*
X522500D03*
X527224D03*
X531949D03*
X536673D03*
G54D110*X496000Y63500D03*
Y98500D03*
G54D112*X495000Y121000D03*
G54D111*X522500Y104405D03*
X527224D03*
Y99681D03*
X531949Y104405D03*
Y99681D03*
X536673Y104405D03*
Y99681D03*
X522500D03*
Y94956D03*
X527224D03*
X508327Y104405D03*
X513051D03*
X517776D03*
X508327Y99681D03*
X513051D03*
X517776D03*
X508327Y94956D03*
X513051D03*
X517776D03*
X508327Y90232D03*
X513051D03*
X517776D03*
X508327Y85508D03*
X513051D03*
X517776D03*
X531949Y94956D03*
X536673D03*
X522500Y90232D03*
Y85508D03*
X527224D03*
X531949D03*
X527224Y90232D03*
X531949D03*
X536673D03*
Y85508D03*
X421224Y178405D03*
Y173681D03*
Y168956D03*
X425949Y178405D03*
Y173681D03*
Y168956D03*
X430673Y178405D03*
Y173681D03*
Y168956D03*
X421224Y164232D03*
Y159508D03*
X425949Y164232D03*
Y159508D03*
X430673Y164232D03*
Y159508D03*
X402327Y178405D03*
X407051D03*
X411776D03*
X416500D03*
X402327Y173681D03*
Y168956D03*
Y164232D03*
X407051Y173681D03*
X411776D03*
X416500D03*
X407051Y168956D03*
X411776D03*
X416500D03*
X407051Y164232D03*
X411776D03*
X416500D03*
X402327Y159508D03*
X407051D03*
X411776D03*
X416500D03*
G54D110*X390000Y98500D03*
Y63500D03*
G54D112*X389000Y121000D03*
G54D111*X402327Y104405D03*
X407051D03*
X411776D03*
X416500D03*
X421224D03*
X425949D03*
Y99681D03*
Y94956D03*
Y90232D03*
X430673Y104405D03*
Y99681D03*
Y94956D03*
Y90232D03*
X407051Y99681D03*
X411776D03*
X416500D03*
X421224D03*
X411776Y94956D03*
X416500D03*
X421224D03*
X411776Y90232D03*
X416500D03*
X421224D03*
X402327Y99681D03*
Y94956D03*
X407051D03*
X402327Y90232D03*
X407051D03*
X402327Y85508D03*
X407051D03*
X411776D03*
X416500D03*
X421224D03*
X425949D03*
X430673D03*
G54D110*X284000Y161000D03*
G54D111*X266949Y164232D03*
X271673D03*
X266949Y159508D03*
X271673D03*
X257500Y164232D03*
X262224D03*
X257500Y159508D03*
X262224D03*
X243327Y178405D03*
Y173681D03*
Y168956D03*
X248051Y178405D03*
Y173681D03*
Y168956D03*
X252776Y178405D03*
Y173681D03*
Y168956D03*
X257500Y178405D03*
Y173681D03*
X262224D03*
X266949D03*
X271673D03*
X262224Y178405D03*
X266949D03*
X271673D03*
X257500Y168956D03*
X262224D03*
X266949D03*
X271673D03*
X243327Y164232D03*
Y104405D03*
X248051D03*
X243327Y99681D03*
X248051D03*
Y164232D03*
X252776D03*
G54D110*X231000Y144000D03*
G54D111*X243327Y159508D03*
X248051D03*
X252776D03*
G54D112*X283000Y121000D03*
G54D110*X284000Y141000D03*
X337000Y85500D03*
Y63500D03*
G54D111*X358776Y104405D03*
X363500D03*
Y99681D03*
X368224Y104405D03*
X372949D03*
X377673D03*
X368224Y99681D03*
Y94956D03*
X372949Y99681D03*
Y94956D03*
X377673Y99681D03*
Y94956D03*
X358776Y99681D03*
Y94956D03*
X363500D03*
X349327D03*
X354051D03*
X349327Y90232D03*
X354051D03*
X349327Y85508D03*
X354051D03*
X358776Y90232D03*
Y85508D03*
X363500Y90232D03*
Y85508D03*
X368224Y90232D03*
Y85508D03*
X372949Y90232D03*
X377673D03*
X372949Y85508D03*
X377673D03*
G54D110*X231000Y85500D03*
Y63500D03*
G54D111*X252776Y104405D03*
X257500D03*
Y99681D03*
X262224Y104405D03*
X266949D03*
X271673D03*
X262224Y99681D03*
Y94956D03*
X266949Y99681D03*
Y94956D03*
X271673Y99681D03*
Y94956D03*
X252776Y99681D03*
Y94956D03*
X257500D03*
X243327D03*
X248051D03*
X243327Y90232D03*
X248051D03*
X243327Y85508D03*
X248051D03*
X252776Y90232D03*
Y85508D03*
X257500Y90232D03*
Y85508D03*
X262224Y90232D03*
Y85508D03*
X266949Y90232D03*
X271673D03*
X266949Y85508D03*
X271673D03*
G54D110*X284000Y98500D03*
Y63500D03*
G54D111*X296327Y104405D03*
X301051D03*
X305776D03*
X310500D03*
X315224D03*
X319949D03*
Y99681D03*
Y94956D03*
Y90232D03*
X324673Y104405D03*
Y99681D03*
Y94956D03*
Y90232D03*
X301051Y99681D03*
X305776D03*
X310500D03*
X315224D03*
X305776Y94956D03*
X310500D03*
X315224D03*
X305776Y90232D03*
X310500D03*
X315224D03*
X296327Y99681D03*
Y94956D03*
X301051D03*
X296327Y90232D03*
X301051D03*
X296327Y85508D03*
X301051D03*
X305776D03*
X310500D03*
X315224D03*
X319949D03*
X324673D03*
G54D113*X443008Y115441D02*X443992D01*
X443008Y120559D02*X443992D01*
G54D114*X444107Y107543D02*X444893D01*
X444107Y100457D02*X444893D01*
G54D115*X444500Y129187D02*Y127978D01*
Y137022D02*Y135813D01*
G54D116*X457689Y102043D03*
X452965Y106768D03*
X457689D03*
X462413Y102043D03*
Y106768D03*
X467138Y102043D03*
Y106768D03*
X471862D03*
X476587D03*
X481311D03*
X486035D03*
X471862Y102043D03*
X476587D03*
X481311D03*
G54D117*X452252Y141083D02*Y133209D01*
G54D118*X452965Y141083D02*Y133209D01*
G54D119*Y140886D02*Y133406D01*
G54D117*X458402Y141083D02*Y133209D01*
G54D118*X457689Y141083D02*Y133209D01*
G54D119*Y140886D02*Y133406D01*
G54D118*X462413Y141083D02*Y133209D01*
G54D119*Y140886D02*Y133406D01*
G54D118*X467138Y141083D02*Y133209D01*
G54D119*Y140886D02*Y133406D01*
G54D118*X458402Y141083D02*X486035D01*
X471862D02*Y133209D01*
G54D119*Y140886D02*Y133406D01*
G54D118*X476587Y141083D02*Y133209D01*
G54D119*Y140886D02*Y133406D01*
G54D118*X481311Y141083D02*Y133209D01*
G54D119*Y140886D02*Y133406D01*
G54D118*X486035Y141083D02*Y133209D01*
G54D119*Y140886D02*Y133406D01*
G54D115*X500313Y74500D02*X501522D01*
X492478D02*X493687D01*
G54D116*X471862Y92594D03*
Y97319D03*
X476587Y92594D03*
X481311D03*
X476587Y97319D03*
X481311D03*
G54D117*X505252Y141083D02*Y133209D01*
G54D118*X505965Y141083D02*Y133209D01*
G54D119*Y140886D02*Y133406D01*
G54D117*X511402Y141083D02*Y133209D01*
G54D118*X510689Y141083D02*Y133209D01*
G54D119*Y140886D02*Y133406D01*
G54D118*X515413Y141083D02*Y133209D01*
G54D119*Y140886D02*Y133406D01*
G54D116*X529587Y97319D03*
X534311D03*
X529587Y102043D03*
X534311D03*
Y106768D03*
X539035D03*
G54D118*X520138Y141083D02*Y133209D01*
G54D119*Y140886D02*Y133406D01*
G54D118*X529587Y141083D02*Y133209D01*
G54D119*Y140886D02*Y133406D01*
G54D118*X534311Y141083D02*Y133209D01*
G54D119*Y140886D02*Y133406D01*
G54D118*X539035Y141083D02*Y133209D01*
G54D119*Y140886D02*Y133406D01*
G54D118*X524862Y141083D02*Y133209D01*
G54D119*Y140886D02*Y133406D01*
G54D118*X511402Y141083D02*X539035D01*
G54D113*X541008Y122559D02*X541992D01*
X541008Y117441D02*X541992D01*
G54D115*X447313Y74500D02*X448522D01*
X439478D02*X440687D01*
G54D117*X452252Y67083D02*Y59209D01*
G54D118*X452965Y67083D02*Y59209D01*
G54D119*Y66886D02*Y59406D01*
G54D117*X458402Y67083D02*Y59209D01*
G54D118*X457689Y67083D02*Y59209D01*
G54D119*Y66886D02*Y59406D01*
G54D118*X462413Y67083D02*Y59209D01*
G54D119*Y66886D02*Y59406D01*
G54D118*X467138Y67083D02*Y59209D01*
G54D119*Y66886D02*Y59406D01*
G54D118*X471862Y67083D02*Y59209D01*
G54D119*Y66886D02*Y59406D01*
G54D118*X476587Y67083D02*Y59209D01*
G54D119*Y66886D02*Y59406D01*
G54D118*X481311Y67083D02*Y59209D01*
G54D119*Y66886D02*Y59406D01*
G54D118*X486035Y67083D02*Y59209D01*
G54D119*Y66886D02*Y59406D01*
G54D118*X458402Y67083D02*X486035D01*
G54D120*X452374Y107240D02*X486626D01*
G54D121*X458083Y98776D02*X480917D01*
G54D116*X457689Y97319D03*
X462413D03*
X467138D03*
G54D122*X457689Y85783D02*X481311D01*
G54D116*X467138Y83146D03*
Y87870D03*
X452965Y83146D03*
X457689D03*
X462413D03*
X452965Y87870D03*
X457689D03*
X462413D03*
X457689Y92594D03*
X471862Y83146D03*
X476587D03*
X481311D03*
X486035D03*
X476587Y87870D03*
X481311D03*
X471862D03*
X486035D03*
X462413Y92594D03*
X467138D03*
G54D120*X505374Y107240D02*X539626D01*
G54D116*X505965Y106768D03*
X510689D03*
X515413D03*
X520138D03*
G54D121*X511083Y98776D02*X533917D01*
G54D116*X520138Y97319D03*
X524862D03*
X520138Y102043D03*
X524862D03*
X510689Y97319D03*
X515413D03*
X510689Y102043D03*
X515413D03*
X524862Y106768D03*
X529587D03*
G54D117*X505252Y67083D02*Y59209D01*
G54D118*X505965Y67083D02*Y59209D01*
G54D119*Y66886D02*Y59406D01*
G54D117*X511402Y67083D02*Y59209D01*
G54D118*X510689Y67083D02*Y59209D01*
G54D119*Y66886D02*Y59406D01*
G54D122*Y85783D02*X534311D01*
G54D116*X520138Y83146D03*
Y87870D03*
X524862Y92594D03*
X529587D03*
X534311D03*
X505965Y83146D03*
X510689D03*
X515413D03*
X505965Y87870D03*
X510689D03*
X515413D03*
X510689Y92594D03*
X524862Y83146D03*
X529587D03*
X534311D03*
X539035D03*
X529587Y87870D03*
X534311D03*
X524862D03*
X539035D03*
X515413Y92594D03*
X520138D03*
G54D118*X515413Y67083D02*Y59209D01*
G54D119*Y66886D02*Y59406D01*
G54D118*X520138Y67083D02*Y59209D01*
G54D119*Y66886D02*Y59406D01*
G54D118*X529587Y67083D02*Y59209D01*
G54D119*Y66886D02*Y59406D01*
G54D118*X534311Y67083D02*Y59209D01*
G54D119*Y66886D02*Y59406D01*
G54D118*X539035Y67083D02*Y59209D01*
G54D119*Y66886D02*Y59406D01*
G54D118*X524862Y67083D02*Y59209D01*
G54D119*Y66886D02*Y59406D01*
G54D118*X511402Y67083D02*X539035D01*
G54D123*X178240Y70000D02*X186508D01*
X212492D02*X220760D01*
X160492D02*X168760D01*
X126240D02*X134508D01*
X74240D02*X82508D01*
X108492D02*X116760D01*
X56492D02*X64760D01*
X22240D02*X30508D01*
G54D115*X235313Y74500D02*X236522D01*
X227478D02*X228687D01*
G54D117*X240252Y67083D02*Y59209D01*
G54D118*X240965Y67083D02*Y59209D01*
G54D119*Y66886D02*Y59406D01*
G54D113*X231008Y120559D02*X231992D01*
G54D123*X212492Y118500D02*X220760D01*
G54D115*X232500Y129187D02*Y127978D01*
Y137022D02*Y135813D01*
G54D117*X240252Y141083D02*Y133209D01*
G54D118*X240965Y141083D02*Y133209D01*
G54D119*Y140886D02*Y133406D01*
G54D123*X178240Y118500D02*X186508D01*
X160492D02*X168760D01*
X126240D02*X134508D01*
X108492D02*X116760D01*
X74240D02*X82508D01*
X56492D02*X64760D01*
X22240D02*X30508D01*
G54D115*X288313Y149500D02*X289522D01*
X280478D02*X281687D01*
G54D116*X269311Y157146D03*
X274035D03*
G54D122*X245689Y159783D02*X269311D01*
G54D116*X255138Y157146D03*
Y161870D03*
X259862Y157146D03*
X264587D03*
X240965D03*
X245689D03*
X250413D03*
X240965Y161870D03*
X245689D03*
X264587D03*
X269311D03*
X259862D03*
X274035D03*
X250413Y166594D03*
X255138D03*
G54D124*G36*
X226550Y172100D02*Y164200D01*
X234450D01*
Y172100D01*
X226550D01*
G37*
G54D116*X250413Y161870D03*
X245689Y166594D03*
G54D123*X160492Y167500D02*X168760D01*
X126240D02*X134508D01*
X108492D02*X116760D01*
X178240D02*X186508D01*
X212492D02*X220760D01*
X74240D02*X82508D01*
X56492D02*X64760D01*
X22240D02*X30508D01*
G54D116*X264587Y171319D03*
X269311D03*
X264587Y176043D03*
X269311D03*
G54D115*X500313Y149500D02*X501522D01*
X492478D02*X493687D01*
G54D116*X481311Y157146D03*
X486035D03*
G54D122*X457689Y159783D02*X481311D01*
G54D116*X467138Y157146D03*
Y161870D03*
X471862Y157146D03*
X476587D03*
X452965D03*
X457689D03*
X462413D03*
X452965Y161870D03*
X457689D03*
X476587D03*
X481311D03*
X471862D03*
X486035D03*
X462413Y166594D03*
X467138D03*
X462413Y161870D03*
X457689Y166594D03*
X476587Y171319D03*
X481311D03*
X476587Y176043D03*
X481311D03*
G54D120*X452374Y181240D02*X486626D01*
G54D116*X452965Y180768D03*
X457689D03*
X462413D03*
X467138D03*
Y176043D03*
X471862D03*
Y180768D03*
X476587D03*
X481311D03*
X486035D03*
X471862Y166594D03*
X476587D03*
X481311D03*
G54D121*X458083Y172776D02*X480917D01*
G54D116*X467138Y171319D03*
X471862D03*
X457689D03*
X462413D03*
X457689Y176043D03*
X462413D03*
G54D122*X510689Y159783D02*X534311D01*
G54D116*X520138Y157146D03*
X515413Y161870D03*
X520138D03*
X524862D03*
X539035D03*
X524862Y157146D03*
X529587D03*
X534311D03*
X539035D03*
X505965D03*
X510689D03*
X515413D03*
X505965Y161870D03*
X510689D03*
X529587D03*
X534311D03*
G54D121*X511083Y172776D02*X533917D01*
G54D116*X520138Y166594D03*
Y171319D03*
X524862D03*
X529587D03*
X534311D03*
X524862Y166594D03*
X529587D03*
X534311D03*
X510689D03*
X515413D03*
X510689Y171319D03*
X515413D03*
G54D120*X505374Y181240D02*X539626D01*
G54D116*X520138Y176043D03*
Y180768D03*
X524862D03*
Y176043D03*
X529587D03*
X534311D03*
X510689D03*
X515413D03*
X505965Y180768D03*
X510689D03*
X515413D03*
X529587D03*
X534311D03*
X539035D03*
G54D122*X351689Y159783D02*X375311D01*
G54D116*X361138Y157146D03*
Y161870D03*
X365862Y166594D03*
X370587D03*
X375311D03*
X346965Y157146D03*
X351689D03*
X356413D03*
X346965Y161870D03*
X351689D03*
X356413D03*
X351689Y166594D03*
X365862Y157146D03*
X370587D03*
X375311D03*
X380035D03*
X370587Y161870D03*
X375311D03*
X365862D03*
X380035D03*
X356413Y166594D03*
X361138D03*
G54D120*X346374Y181240D02*X380626D01*
G54D116*X346965Y180768D03*
X351689D03*
X356413D03*
X361138D03*
G54D121*X352083Y172776D02*X374917D01*
G54D116*X361138Y171319D03*
X365862D03*
X361138Y176043D03*
X365862D03*
X351689Y171319D03*
X356413D03*
X351689Y176043D03*
X356413D03*
X365862Y180768D03*
X370587D03*
Y171319D03*
X375311D03*
X370587Y176043D03*
X375311D03*
Y180768D03*
X380035D03*
G54D115*X394313Y149500D02*X395522D01*
X386478D02*X387687D01*
G54D116*X399965Y157146D03*
X404689D03*
X409413D03*
X414138D03*
X418862D03*
X423587D03*
X428311D03*
G54D122*X404689Y159783D02*X428311D01*
G54D116*X414138Y161870D03*
Y166594D03*
X418862D03*
X423587D03*
X428311D03*
X433035Y157146D03*
X418862Y161870D03*
X423587D03*
X428311D03*
X433035D03*
X399965D03*
X404689D03*
X409413D03*
X404689Y166594D03*
X409413D03*
G54D120*X399374Y181240D02*X433626D01*
G54D116*X399965Y180768D03*
X404689D03*
X409413D03*
X414138D03*
G54D121*X405083Y172776D02*X427917D01*
G54D116*X414138Y171319D03*
X418862D03*
X414138Y176043D03*
X418862D03*
X404689Y171319D03*
X409413D03*
X404689Y176043D03*
X409413D03*
X418862Y180768D03*
X423587D03*
Y171319D03*
X428311D03*
X423587Y176043D03*
X428311D03*
Y180768D03*
X433035D03*
G54D113*X337008Y115441D02*X337992D01*
X337008Y120559D02*X337992D01*
G54D114*X338107Y107543D02*X338893D01*
G54D116*X346965Y106768D03*
G54D114*X338107Y100457D02*X338893D01*
G54D115*X338500Y129187D02*Y127978D01*
Y137022D02*Y135813D01*
G54D117*X346252Y141083D02*Y133209D01*
G54D118*X346965Y141083D02*Y133209D01*
G54D119*Y140886D02*Y133406D01*
G54D117*X352402Y141083D02*Y133209D01*
G54D118*X351689Y141083D02*Y133209D01*
G54D119*Y140886D02*Y133406D01*
G54D118*X356413Y141083D02*Y133209D01*
G54D119*Y140886D02*Y133406D01*
G54D118*X361138Y141083D02*Y133209D01*
G54D119*Y140886D02*Y133406D01*
G54D118*X365862Y141083D02*Y133209D01*
G54D119*Y140886D02*Y133406D01*
G54D118*X370587Y141083D02*Y133209D01*
G54D119*Y140886D02*Y133406D01*
G54D118*X352402Y141083D02*X380035D01*
G54D116*X351689Y102043D03*
Y106768D03*
X356413D03*
Y102043D03*
X361138D03*
X365862D03*
X370587D03*
X375311D03*
X361138Y106768D03*
X365862D03*
X370587D03*
X375311D03*
X380035D03*
G54D118*X375311Y141083D02*Y133209D01*
G54D119*Y140886D02*Y133406D01*
G54D118*X380035Y141083D02*Y133209D01*
G54D119*Y140886D02*Y133406D01*
G54D115*X394313Y74500D02*X395522D01*
X386478D02*X387687D01*
G54D116*X380035Y87870D03*
X375311Y92594D03*
Y97319D03*
G54D117*X399252Y141083D02*Y133209D01*
G54D118*X399965Y141083D02*Y133209D01*
G54D119*Y140886D02*Y133406D01*
G54D117*X405402Y141083D02*Y133209D01*
G54D118*X404689Y141083D02*Y133209D01*
G54D119*Y140886D02*Y133406D01*
G54D118*X409413Y141083D02*Y133209D01*
G54D119*Y140886D02*Y133406D01*
G54D118*X414138Y141083D02*Y133209D01*
G54D119*Y140886D02*Y133406D01*
G54D118*X418862Y141083D02*Y133209D01*
G54D119*Y140886D02*Y133406D01*
G54D118*X428311Y141083D02*Y133209D01*
G54D119*Y140886D02*Y133406D01*
G54D118*X433035Y141083D02*Y133209D01*
G54D119*Y140886D02*Y133406D01*
G54D116*X418862Y92594D03*
X423587D03*
X428311D03*
X418862Y97319D03*
X423587D03*
X428311D03*
X404689D03*
X409413D03*
X414138D03*
X409413Y102043D03*
Y106768D03*
X414138D03*
Y102043D03*
X418862D03*
X423587D03*
X428311D03*
X418862Y106768D03*
X423587D03*
X428311D03*
X433035D03*
X404689Y102043D03*
X399965Y106768D03*
X404689D03*
G54D118*X423587Y141083D02*Y133209D01*
G54D119*Y140886D02*Y133406D01*
G54D118*X405402Y141083D02*X433035D01*
X414138Y67083D02*Y59209D01*
G54D119*Y66886D02*Y59406D01*
G54D118*X418862Y67083D02*Y59209D01*
G54D119*Y66886D02*Y59406D01*
G54D118*X428311Y67083D02*Y59209D01*
G54D119*Y66886D02*Y59406D01*
G54D118*X433035Y67083D02*Y59209D01*
G54D119*Y66886D02*Y59406D01*
G54D118*X423587Y67083D02*Y59209D01*
G54D119*Y66886D02*Y59406D01*
G54D118*X405402Y67083D02*X433035D01*
G54D120*X399374Y107240D02*X433626D01*
G54D121*X405083Y98776D02*X427917D01*
G54D122*X404689Y85783D02*X428311D01*
G54D116*X414138Y83146D03*
Y87870D03*
X399965Y83146D03*
X404689D03*
X409413D03*
X399965Y87870D03*
X404689D03*
X409413D03*
X404689Y92594D03*
X418862Y83146D03*
X423587D03*
X428311D03*
X433035D03*
X423587Y87870D03*
X428311D03*
X418862D03*
X433035D03*
X409413Y92594D03*
X414138D03*
G54D117*X399252Y67083D02*Y59209D01*
G54D118*X399965Y67083D02*Y59209D01*
G54D119*Y66886D02*Y59406D01*
G54D117*X405402Y67083D02*Y59209D01*
G54D118*X404689Y67083D02*Y59209D01*
G54D119*Y66886D02*Y59406D01*
G54D118*X409413Y67083D02*Y59209D01*
G54D119*Y66886D02*Y59406D01*
G54D115*X341313Y74500D02*X342522D01*
X333478D02*X334687D01*
G54D117*X346252Y67083D02*Y59209D01*
G54D118*X346965Y67083D02*Y59209D01*
G54D119*Y66886D02*Y59406D01*
G54D117*X352402Y67083D02*Y59209D01*
G54D118*X351689Y67083D02*Y59209D01*
G54D119*Y66886D02*Y59406D01*
G54D118*X356413Y67083D02*Y59209D01*
G54D119*Y66886D02*Y59406D01*
G54D118*X361138Y67083D02*Y59209D01*
G54D119*Y66886D02*Y59406D01*
G54D118*X365862Y67083D02*Y59209D01*
G54D119*Y66886D02*Y59406D01*
G54D118*X370587Y67083D02*Y59209D01*
G54D119*Y66886D02*Y59406D01*
G54D118*X375311Y67083D02*Y59209D01*
G54D119*Y66886D02*Y59406D01*
G54D118*X380035Y67083D02*Y59209D01*
G54D119*Y66886D02*Y59406D01*
G54D118*X352402Y67083D02*X380035D01*
G54D120*X346374Y107240D02*X380626D01*
G54D121*X352083Y98776D02*X374917D01*
G54D116*X351689Y97319D03*
X356413D03*
X361138D03*
X365862D03*
X370587D03*
G54D122*X351689Y85783D02*X375311D01*
G54D116*X361138Y83146D03*
Y87870D03*
X365862D03*
X346965Y83146D03*
X351689D03*
X356413D03*
X346965Y87870D03*
X351689D03*
X356413D03*
X351689Y92594D03*
X356413D03*
X365862Y83146D03*
X370587D03*
X375311D03*
X380035D03*
X370587Y87870D03*
X375311D03*
X361138Y92594D03*
X365862D03*
X370587D03*
G54D120*X240374Y181240D02*X274626D01*
G54D116*X240965Y180768D03*
X245689D03*
X250413D03*
X255138D03*
Y176043D03*
X259862D03*
Y180768D03*
X264587D03*
X269311D03*
X274035D03*
G54D124*G36*
X226550Y187800D02*Y179900D01*
X234450D01*
Y187800D01*
X226550D01*
G37*
G54D116*X259862Y166594D03*
X264587D03*
X269311D03*
G54D121*X246083Y172776D02*X268917D01*
G54D116*X255138Y171319D03*
X259862D03*
X245689D03*
X250413D03*
X245689Y176043D03*
X250413D03*
G54D122*X298689Y159783D02*X322311D01*
G54D116*X308138Y157146D03*
X303413Y161870D03*
X308138D03*
X312862D03*
X327035D03*
X312862Y157146D03*
X317587D03*
X322311D03*
X327035D03*
X293965D03*
X298689D03*
X303413D03*
X293965Y161870D03*
X298689D03*
X317587D03*
X322311D03*
G54D121*X299083Y172776D02*X321917D01*
G54D116*X308138Y166594D03*
Y171319D03*
X312862D03*
X317587D03*
X322311D03*
X312862Y166594D03*
X317587D03*
X322311D03*
X298689D03*
X303413D03*
X298689Y171319D03*
X303413D03*
G54D120*X293374Y181240D02*X327626D01*
G54D116*X308138Y176043D03*
Y180768D03*
X312862D03*
Y176043D03*
X317587D03*
X322311D03*
X298689D03*
X303413D03*
X293965Y180768D03*
X298689D03*
X303413D03*
X317587D03*
X322311D03*
X327035D03*
G54D115*X288313Y74500D02*X289522D01*
X280478D02*X281687D01*
G54D117*X293252Y67083D02*Y59209D01*
G54D118*X293965Y67083D02*Y59209D01*
G54D119*Y66886D02*Y59406D01*
G54D117*X299402Y67083D02*Y59209D01*
G54D118*X298689Y67083D02*Y59209D01*
G54D119*Y66886D02*Y59406D01*
G54D118*X303413Y67083D02*Y59209D01*
G54D119*Y66886D02*Y59406D01*
G54D118*X308138Y67083D02*Y59209D01*
G54D119*Y66886D02*Y59406D01*
G54D118*X312862Y67083D02*Y59209D01*
G54D119*Y66886D02*Y59406D01*
G54D118*X317587Y67083D02*Y59209D01*
G54D119*Y66886D02*Y59406D01*
G54D118*X322311Y67083D02*Y59209D01*
G54D119*Y66886D02*Y59406D01*
G54D118*X327035Y67083D02*Y59209D01*
G54D119*Y66886D02*Y59406D01*
G54D118*X299402Y67083D02*X327035D01*
G54D116*X293965Y83146D03*
Y87870D03*
X298689Y83146D03*
Y87870D03*
X303413D03*
Y83146D03*
X308138D03*
X312862D03*
X317587D03*
X322311D03*
X327035D03*
X308138Y87870D03*
X312862D03*
X317587D03*
X322311D03*
X327035D03*
X298689Y92594D03*
X303413D03*
X308138D03*
X312862D03*
X317587D03*
X322311D03*
X317587Y97319D03*
X322311D03*
X308138D03*
X312862D03*
X308138Y102043D03*
X312862D03*
X317587D03*
X322311D03*
X298689Y97319D03*
X303413D03*
Y102043D03*
X298689D03*
X293965Y106768D03*
X298689D03*
X303413D03*
G54D113*X231008Y115441D02*X231992D01*
G54D114*X232107Y107543D02*X232893D01*
X232107Y100457D02*X232893D01*
G54D117*X246402Y67083D02*Y59209D01*
G54D118*X245689Y67083D02*Y59209D01*
G54D119*Y66886D02*Y59406D01*
G54D118*X250413Y67083D02*Y59209D01*
G54D119*Y66886D02*Y59406D01*
G54D118*X255138Y67083D02*Y59209D01*
G54D119*Y66886D02*Y59406D01*
G54D118*X259862Y67083D02*Y59209D01*
G54D119*Y66886D02*Y59406D01*
G54D118*X264587Y67083D02*Y59209D01*
G54D119*Y66886D02*Y59406D01*
G54D118*X269311Y67083D02*Y59209D01*
G54D119*Y66886D02*Y59406D01*
G54D118*X274035Y67083D02*Y59209D01*
G54D119*Y66886D02*Y59406D01*
G54D118*X246402Y67083D02*X274035D01*
G54D116*X240965Y83146D03*
Y87870D03*
X245689Y83146D03*
Y87870D03*
X250413D03*
Y83146D03*
X255138D03*
X259862D03*
X264587D03*
X269311D03*
X274035D03*
X255138Y87870D03*
X259862D03*
X264587D03*
X269311D03*
X274035D03*
X245689Y92594D03*
X250413D03*
X255138D03*
X259862D03*
X264587D03*
X269311D03*
X245689Y97319D03*
X250413D03*
X245689Y102043D03*
X250413D03*
X264587Y97319D03*
X269311D03*
X255138D03*
X259862D03*
X255138Y102043D03*
G54D117*X246402Y141083D02*Y133209D01*
G54D118*X245689Y141083D02*Y133209D01*
G54D119*Y140886D02*Y133406D01*
G54D118*X250413Y141083D02*Y133209D01*
G54D119*Y140886D02*Y133406D01*
G54D118*X255138Y141083D02*Y133209D01*
G54D119*Y140886D02*Y133406D01*
G54D118*X259862Y141083D02*Y133209D01*
G54D119*Y140886D02*Y133406D01*
G54D118*X264587Y141083D02*Y133209D01*
G54D119*Y140886D02*Y133406D01*
G54D118*X246402Y141083D02*X274035D01*
X269311D02*Y133209D01*
G54D119*Y140886D02*Y133406D01*
G54D118*X274035Y141083D02*Y133209D01*
G54D119*Y140886D02*Y133406D01*
G54D117*X293252Y141083D02*Y133209D01*
G54D118*X293965Y141083D02*Y133209D01*
G54D119*Y140886D02*Y133406D01*
G54D117*X299402Y141083D02*Y133209D01*
G54D118*X298689Y141083D02*Y133209D01*
G54D119*Y140886D02*Y133406D01*
G54D118*X303413Y141083D02*Y133209D01*
G54D119*Y140886D02*Y133406D01*
G54D118*X308138Y141083D02*Y133209D01*
G54D119*Y140886D02*Y133406D01*
G54D118*X312862Y141083D02*Y133209D01*
G54D119*Y140886D02*Y133406D01*
G54D118*X322311Y141083D02*Y133209D01*
G54D119*Y140886D02*Y133406D01*
G54D118*X327035Y141083D02*Y133209D01*
G54D119*Y140886D02*Y133406D01*
G54D118*X317587Y141083D02*Y133209D01*
G54D119*Y140886D02*Y133406D01*
G54D118*X299402Y141083D02*X327035D01*
G54D120*X293374Y107240D02*X327626D01*
G54D121*X299083Y98776D02*X321917D01*
G54D116*X308138Y106768D03*
X312862D03*
G54D122*X298689Y85783D02*X322311D01*
G54D116*X317587Y106768D03*
X322311D03*
X327035D03*
G54D120*X240374Y107240D02*X274626D01*
G54D116*X240965Y106768D03*
X245689D03*
X250413D03*
X255138D03*
G54D121*X246083Y98776D02*X268917D01*
G54D122*X245689Y85783D02*X269311D01*
G54D116*X259862Y102043D03*
X264587D03*
X269311D03*
X259862Y106768D03*
X264587D03*
X269311D03*
X274035D03*
M02*
