%TF.GenerationSoftware,KiCad,Pcbnew,6.0.1-79c1e3a40b~116~ubuntu20.04.1*%
%TF.CreationDate,2022-01-23T15:23:11-08:00*%
%TF.ProjectId,led-ring-driver,6c65642d-7269-46e6-972d-647269766572,rev?*%
%TF.SameCoordinates,Original*%
%TF.FileFunction,Copper,L1,Top*%
%TF.FilePolarity,Positive*%
%FSLAX46Y46*%
G04 Gerber Fmt 4.6, Leading zero omitted, Abs format (unit mm)*
G04 Created by KiCad (PCBNEW 6.0.1-79c1e3a40b~116~ubuntu20.04.1) date 2022-01-23 15:23:11*
%MOMM*%
%LPD*%
G01*
G04 APERTURE LIST*
G04 Aperture macros list*
%AMRoundRect*
0 Rectangle with rounded corners*
0 $1 Rounding radius*
0 $2 $3 $4 $5 $6 $7 $8 $9 X,Y pos of 4 corners*
0 Add a 4 corners polygon primitive as box body*
4,1,4,$2,$3,$4,$5,$6,$7,$8,$9,$2,$3,0*
0 Add four circle primitives for the rounded corners*
1,1,$1+$1,$2,$3*
1,1,$1+$1,$4,$5*
1,1,$1+$1,$6,$7*
1,1,$1+$1,$8,$9*
0 Add four rect primitives between the rounded corners*
20,1,$1+$1,$2,$3,$4,$5,0*
20,1,$1+$1,$4,$5,$6,$7,0*
20,1,$1+$1,$6,$7,$8,$9,0*
20,1,$1+$1,$8,$9,$2,$3,0*%
%AMRotRect*
0 Rectangle, with rotation*
0 The origin of the aperture is its center*
0 $1 length*
0 $2 width*
0 $3 Rotation angle, in degrees counterclockwise*
0 Add horizontal line*
21,1,$1,$2,0,0,$3*%
G04 Aperture macros list end*
%ADD10C,0.300000*%
%TA.AperFunction,NonConductor*%
%ADD11C,0.300000*%
%TD*%
%TA.AperFunction,SMDPad,CuDef*%
%ADD12RoundRect,0.250000X-0.262500X-0.450000X0.262500X-0.450000X0.262500X0.450000X-0.262500X0.450000X0*%
%TD*%
%TA.AperFunction,SMDPad,CuDef*%
%ADD13RotRect,2.200000X2.200000X292.500000*%
%TD*%
%TA.AperFunction,SMDPad,CuDef*%
%ADD14RotRect,1.250000X2.200000X292.500000*%
%TD*%
%TA.AperFunction,SMDPad,CuDef*%
%ADD15RotRect,2.200000X2.200000X45.000000*%
%TD*%
%TA.AperFunction,SMDPad,CuDef*%
%ADD16RotRect,1.250000X2.200000X45.000000*%
%TD*%
%TA.AperFunction,SMDPad,CuDef*%
%ADD17RotRect,2.200000X2.200000X247.500000*%
%TD*%
%TA.AperFunction,SMDPad,CuDef*%
%ADD18RotRect,1.250000X2.200000X247.500000*%
%TD*%
%TA.AperFunction,SMDPad,CuDef*%
%ADD19R,2.200000X2.200000*%
%TD*%
%TA.AperFunction,SMDPad,CuDef*%
%ADD20R,2.200000X1.250000*%
%TD*%
%TA.AperFunction,SMDPad,CuDef*%
%ADD21RoundRect,0.250000X0.325000X0.650000X-0.325000X0.650000X-0.325000X-0.650000X0.325000X-0.650000X0*%
%TD*%
%TA.AperFunction,SMDPad,CuDef*%
%ADD22RoundRect,0.250000X-0.375000X-0.625000X0.375000X-0.625000X0.375000X0.625000X-0.375000X0.625000X0*%
%TD*%
%TA.AperFunction,SMDPad,CuDef*%
%ADD23RoundRect,0.150000X-0.725000X-0.150000X0.725000X-0.150000X0.725000X0.150000X-0.725000X0.150000X0*%
%TD*%
%TA.AperFunction,SMDPad,CuDef*%
%ADD24RoundRect,0.250000X0.650000X-0.325000X0.650000X0.325000X-0.650000X0.325000X-0.650000X-0.325000X0*%
%TD*%
%TA.AperFunction,SMDPad,CuDef*%
%ADD25RotRect,2.200000X2.200000X225.000000*%
%TD*%
%TA.AperFunction,SMDPad,CuDef*%
%ADD26RotRect,1.250000X2.200000X225.000000*%
%TD*%
%TA.AperFunction,ComponentPad*%
%ADD27R,1.520000X1.520000*%
%TD*%
%TA.AperFunction,ComponentPad*%
%ADD28C,1.520000*%
%TD*%
%TA.AperFunction,SMDPad,CuDef*%
%ADD29RoundRect,0.250000X0.450000X-0.262500X0.450000X0.262500X-0.450000X0.262500X-0.450000X-0.262500X0*%
%TD*%
%TA.AperFunction,SMDPad,CuDef*%
%ADD30RotRect,2.200000X2.200000X135.000000*%
%TD*%
%TA.AperFunction,SMDPad,CuDef*%
%ADD31RotRect,1.250000X2.200000X135.000000*%
%TD*%
%TA.AperFunction,SMDPad,CuDef*%
%ADD32RoundRect,0.250000X-0.450000X0.262500X-0.450000X-0.262500X0.450000X-0.262500X0.450000X0.262500X0*%
%TD*%
%TA.AperFunction,SMDPad,CuDef*%
%ADD33RotRect,2.200000X2.200000X337.500000*%
%TD*%
%TA.AperFunction,SMDPad,CuDef*%
%ADD34RotRect,1.250000X2.200000X337.500000*%
%TD*%
%TA.AperFunction,SMDPad,CuDef*%
%ADD35RotRect,2.200000X2.200000X202.500000*%
%TD*%
%TA.AperFunction,SMDPad,CuDef*%
%ADD36RotRect,1.250000X2.200000X202.500000*%
%TD*%
%TA.AperFunction,SMDPad,CuDef*%
%ADD37RotRect,2.200000X2.200000X157.500000*%
%TD*%
%TA.AperFunction,SMDPad,CuDef*%
%ADD38RotRect,1.250000X2.200000X157.500000*%
%TD*%
%TA.AperFunction,SMDPad,CuDef*%
%ADD39RotRect,2.200000X2.200000X112.500000*%
%TD*%
%TA.AperFunction,SMDPad,CuDef*%
%ADD40RotRect,1.250000X2.200000X112.500000*%
%TD*%
%TA.AperFunction,SMDPad,CuDef*%
%ADD41RoundRect,0.150000X-0.825000X-0.150000X0.825000X-0.150000X0.825000X0.150000X-0.825000X0.150000X0*%
%TD*%
%TA.AperFunction,SMDPad,CuDef*%
%ADD42R,1.397000X1.473200*%
%TD*%
%TA.AperFunction,SMDPad,CuDef*%
%ADD43R,1.250000X2.200000*%
%TD*%
%TA.AperFunction,SMDPad,CuDef*%
%ADD44RoundRect,0.250000X0.475000X-0.250000X0.475000X0.250000X-0.475000X0.250000X-0.475000X-0.250000X0*%
%TD*%
%TA.AperFunction,SMDPad,CuDef*%
%ADD45RoundRect,0.150000X-0.150000X0.587500X-0.150000X-0.587500X0.150000X-0.587500X0.150000X0.587500X0*%
%TD*%
%TA.AperFunction,SMDPad,CuDef*%
%ADD46R,2.500000X2.300000*%
%TD*%
%TA.AperFunction,ComponentPad*%
%ADD47C,1.200000*%
%TD*%
%TA.AperFunction,ComponentPad*%
%ADD48R,1.200000X1.200000*%
%TD*%
%TA.AperFunction,SMDPad,CuDef*%
%ADD49RotRect,2.200000X2.200000X67.500000*%
%TD*%
%TA.AperFunction,SMDPad,CuDef*%
%ADD50RotRect,1.250000X2.200000X67.500000*%
%TD*%
%TA.AperFunction,SMDPad,CuDef*%
%ADD51RoundRect,0.150000X-0.587500X-0.150000X0.587500X-0.150000X0.587500X0.150000X-0.587500X0.150000X0*%
%TD*%
%TA.AperFunction,SMDPad,CuDef*%
%ADD52RoundRect,0.250000X0.250000X0.475000X-0.250000X0.475000X-0.250000X-0.475000X0.250000X-0.475000X0*%
%TD*%
%TA.AperFunction,SMDPad,CuDef*%
%ADD53RoundRect,0.250000X0.625000X-0.312500X0.625000X0.312500X-0.625000X0.312500X-0.625000X-0.312500X0*%
%TD*%
%TA.AperFunction,SMDPad,CuDef*%
%ADD54RoundRect,0.150000X-0.150000X0.725000X-0.150000X-0.725000X0.150000X-0.725000X0.150000X0.725000X0*%
%TD*%
%TA.AperFunction,SMDPad,CuDef*%
%ADD55RoundRect,0.150000X0.725000X0.150000X-0.725000X0.150000X-0.725000X-0.150000X0.725000X-0.150000X0*%
%TD*%
%TA.AperFunction,SMDPad,CuDef*%
%ADD56RotRect,2.200000X2.200000X22.500000*%
%TD*%
%TA.AperFunction,SMDPad,CuDef*%
%ADD57RotRect,1.250000X2.200000X22.500000*%
%TD*%
%TA.AperFunction,SMDPad,CuDef*%
%ADD58RotRect,2.200000X2.200000X315.000000*%
%TD*%
%TA.AperFunction,SMDPad,CuDef*%
%ADD59RotRect,1.250000X2.200000X315.000000*%
%TD*%
%TA.AperFunction,SMDPad,CuDef*%
%ADD60RoundRect,0.150000X0.150000X-0.587500X0.150000X0.587500X-0.150000X0.587500X-0.150000X-0.587500X0*%
%TD*%
%TA.AperFunction,SMDPad,CuDef*%
%ADD61R,2.500000X3.300000*%
%TD*%
%TA.AperFunction,ViaPad*%
%ADD62C,1.143000*%
%TD*%
%TA.AperFunction,Conductor*%
%ADD63C,1.270000*%
%TD*%
%TA.AperFunction,Conductor*%
%ADD64C,0.381000*%
%TD*%
%TA.AperFunction,Conductor*%
%ADD65C,0.762000*%
%TD*%
%TA.AperFunction,Conductor*%
%ADD66C,0.508000*%
%TD*%
G04 APERTURE END LIST*
D10*
D11*
X149653571Y-120820571D02*
X148796428Y-120820571D01*
X149225000Y-120820571D02*
X149225000Y-119320571D01*
X149082142Y-119534857D01*
X148939285Y-119677714D01*
X148796428Y-119749142D01*
D12*
%TO.P,R13,1*%
%TO.N,/DISABLE_H*%
X162917500Y-108585000D03*
%TO.P,R13,2*%
%TO.N,Net-(R13-Pad2)*%
X164742500Y-108585000D03*
%TD*%
D13*
%TO.P,D16,1,K*%
%TO.N,/LED2C*%
X162342585Y-83496508D03*
D14*
%TO.P,D16,2,A*%
%TO.N,/Boost Converter/+15V*%
X163213190Y-85598334D03*
%TD*%
D15*
%TO.P,D14,1,K*%
%TO.N,/LED2B*%
X158748604Y-81916396D03*
D16*
%TO.P,D14,2,A*%
%TO.N,/LED2C*%
X160357272Y-80307728D03*
%TD*%
D17*
%TO.P,D18,1,K*%
%TO.N,/LED3A*%
X163031415Y-92513508D03*
D18*
%TO.P,D18,2,A*%
%TO.N,/LED3B*%
X162160810Y-94615334D03*
%TD*%
D19*
%TO.P,D11,1,K*%
%TO.N,/LED Current Regulator/LED4_NEG*%
X151765000Y-98795000D03*
D20*
%TO.P,D11,2,A*%
%TO.N,/LED4A*%
X151765000Y-101070000D03*
%TD*%
D12*
%TO.P,R10,1*%
%TO.N,/PWM_L*%
X162917500Y-100965000D03*
%TO.P,R10,2*%
%TO.N,Net-(R10-Pad2)*%
X164742500Y-100965000D03*
%TD*%
D21*
%TO.P,C3,1*%
%TO.N,+5V*%
X142191000Y-108204000D03*
%TO.P,C3,2*%
%TO.N,GND*%
X139241000Y-108204000D03*
%TD*%
D22*
%TO.P,D20,1,K*%
%TO.N,GND*%
X161517500Y-114935000D03*
%TO.P,D20,2,A*%
%TO.N,Net-(D20-Pad2)*%
X164317500Y-114935000D03*
%TD*%
D23*
%TO.P,U3,1*%
%TO.N,Net-(R29-Pad1)*%
X160210500Y-69850000D03*
%TO.P,U3,2,-*%
%TO.N,Net-(Q5-Pad2)*%
X160210500Y-71120000D03*
%TO.P,U3,3,+*%
%TO.N,Net-(Q7-Pad3)*%
X160210500Y-72390000D03*
%TO.P,U3,4,V-*%
%TO.N,GND*%
X160210500Y-73660000D03*
%TO.P,U3,5,+*%
%TO.N,Net-(Q7-Pad3)*%
X165360500Y-73660000D03*
%TO.P,U3,6,-*%
%TO.N,Net-(Q6-Pad2)*%
X165360500Y-72390000D03*
%TO.P,U3,7*%
%TO.N,Net-(R14-Pad1)*%
X165360500Y-71120000D03*
%TO.P,U3,8,V+*%
%TO.N,+5V*%
X165360500Y-69850000D03*
%TD*%
D24*
%TO.P,C2,1*%
%TO.N,/Boost Converter/V_P*%
X133350000Y-111330000D03*
%TO.P,C2,2*%
%TO.N,GND*%
X133350000Y-108380000D03*
%TD*%
D25*
%TO.P,D7,1,K*%
%TO.N,/LED4B*%
X144781396Y-95883604D03*
D26*
%TO.P,D7,2,A*%
%TO.N,/LED4C*%
X143172728Y-97492272D03*
%TD*%
D27*
%TO.P,J1,1,1*%
%TO.N,/PWM_H*%
X154493501Y-112643001D03*
D28*
%TO.P,J1,2,2*%
%TO.N,/PWM_L*%
X151493502Y-112643001D03*
%TO.P,J1,3,3*%
%TO.N,/VIN*%
X148493503Y-112643001D03*
%TO.P,J1,4,4*%
%TO.N,/DISABLE_H*%
X154493501Y-109643002D03*
%TO.P,J1,5,5*%
%TO.N,/DISABLE_L*%
X151493502Y-109643002D03*
%TO.P,J1,6,6*%
%TO.N,GND*%
X148493503Y-109643002D03*
%TD*%
D29*
%TO.P,R9,1*%
%TO.N,/DISABLE_H*%
X160655000Y-108227500D03*
%TO.P,R9,2*%
%TO.N,/DISABLE_L*%
X160655000Y-106402500D03*
%TD*%
D30*
%TO.P,D6,1,K*%
%TO.N,/LED1B*%
X144781396Y-81916396D03*
D31*
%TO.P,D6,2,A*%
%TO.N,/LED1C*%
X143172728Y-80307728D03*
%TD*%
D32*
%TO.P,R5,1*%
%TO.N,Net-(C5-Pad1)*%
X147320000Y-105132500D03*
%TO.P,R5,2*%
%TO.N,Net-(C4-Pad1)*%
X147320000Y-106957500D03*
%TD*%
D33*
%TO.P,D12,1,K*%
%TO.N,/LED2A*%
X155505508Y-77633585D03*
D34*
%TO.P,D12,2,A*%
%TO.N,/LED2B*%
X157607334Y-78504190D03*
%TD*%
D32*
%TO.P,R6,1*%
%TO.N,Net-(R30-Pad1)*%
X148971000Y-68302500D03*
%TO.P,R6,2*%
%TO.N,Net-(Q4-Pad1)*%
X148971000Y-70127500D03*
%TD*%
%TO.P,R1,1*%
%TO.N,Net-(R1-Pad1)*%
X134620000Y-75922500D03*
%TO.P,R1,2*%
%TO.N,Net-(Q2-Pad1)*%
X134620000Y-77747500D03*
%TD*%
D35*
%TO.P,D13,1,K*%
%TO.N,/LED3C*%
X157168492Y-99477585D03*
D36*
%TO.P,D13,2,A*%
%TO.N,/Boost Converter/+15V*%
X155066666Y-100348190D03*
%TD*%
D37*
%TO.P,D9,1,K*%
%TO.N,/LED4A*%
X148024492Y-100166415D03*
D38*
%TO.P,D9,2,A*%
%TO.N,/LED4B*%
X145922666Y-99295810D03*
%TD*%
D23*
%TO.P,U5,1*%
%TO.N,Net-(Q7-Pad1)*%
X166970000Y-105410000D03*
%TO.P,U5,2,-*%
%TO.N,Net-(R12-Pad2)*%
X166970000Y-106680000D03*
%TO.P,U5,3,+*%
%TO.N,Net-(R13-Pad2)*%
X166970000Y-107950000D03*
%TO.P,U5,4,V-*%
%TO.N,GND*%
X166970000Y-109220000D03*
%TO.P,U5,5,+*%
%TO.N,Net-(R17-Pad1)*%
X172120000Y-109220000D03*
%TO.P,U5,6,-*%
%TO.N,Net-(R15-Pad2)*%
X172120000Y-107950000D03*
%TO.P,U5,7*%
X172120000Y-106680000D03*
%TO.P,U5,8,V+*%
%TO.N,+5V*%
X172120000Y-105410000D03*
%TD*%
D39*
%TO.P,D5,1,K*%
%TO.N,/LED4C*%
X141187415Y-94303492D03*
D40*
%TO.P,D5,2,A*%
%TO.N,/Boost Converter/+15V*%
X140316810Y-92201666D03*
%TD*%
D22*
%TO.P,D21,1,K*%
%TO.N,GND*%
X161517500Y-117475000D03*
%TO.P,D21,2,A*%
%TO.N,Net-(D21-Pad2)*%
X164317500Y-117475000D03*
%TD*%
D29*
%TO.P,R8,1*%
%TO.N,/PWM_H*%
X160782000Y-103782500D03*
%TO.P,R8,2*%
%TO.N,/PWM_L*%
X160782000Y-101957500D03*
%TD*%
D22*
%TO.P,D19,1,K*%
%TO.N,GND*%
X161517500Y-112395000D03*
%TO.P,D19,2,A*%
%TO.N,Net-(D19-Pad2)*%
X164317500Y-112395000D03*
%TD*%
D41*
%TO.P,Q3,1,S*%
%TO.N,/Boost Converter/V_P*%
X135955000Y-111125000D03*
%TO.P,Q3,2,S*%
X135955000Y-112395000D03*
%TO.P,Q3,3,S*%
X135955000Y-113665000D03*
%TO.P,Q3,4,G*%
%TO.N,Net-(D2-Pad2)*%
X135955000Y-114935000D03*
%TO.P,Q3,5,D*%
%TO.N,/VIN*%
X140905000Y-114935000D03*
%TO.P,Q3,6,D*%
X140905000Y-113665000D03*
%TO.P,Q3,7,D*%
X140905000Y-112395000D03*
%TO.P,Q3,8,D*%
X140905000Y-111125000D03*
%TD*%
D32*
%TO.P,R7,1*%
%TO.N,Net-(R29-Pad1)*%
X157988000Y-68302500D03*
%TO.P,R7,2*%
%TO.N,Net-(Q5-Pad1)*%
X157988000Y-70127500D03*
%TD*%
D19*
%TO.P,D10,1,K*%
%TO.N,/LED Current Regulator/LED2_NEG*%
X151765000Y-79005000D03*
D20*
%TO.P,D10,2,A*%
%TO.N,/LED2A*%
X151765000Y-76730000D03*
%TD*%
D42*
%TO.P,L1,1,1*%
%TO.N,/Boost Converter/V_P*%
X129540000Y-111120800D03*
%TO.P,L1,2,2*%
%TO.N,/Boost Converter/SW*%
X129540000Y-108589200D03*
%TD*%
D12*
%TO.P,R11,1*%
%TO.N,/PWM_H*%
X162917500Y-103505000D03*
%TO.P,R11,2*%
%TO.N,Net-(R11-Pad2)*%
X164742500Y-103505000D03*
%TD*%
D19*
%TO.P,D4,1,K*%
%TO.N,/LED Current Regulator/LED1_NEG*%
X141870000Y-88900000D03*
D43*
%TO.P,D4,2,A*%
%TO.N,/LED1A*%
X139595000Y-88900000D03*
%TD*%
D44*
%TO.P,C4,1*%
%TO.N,Net-(C4-Pad1)*%
X144907000Y-106995000D03*
%TO.P,C4,2*%
%TO.N,GND*%
X144907000Y-105095000D03*
%TD*%
D32*
%TO.P,R3,1*%
%TO.N,Net-(C15-Pad1)*%
X138684000Y-96369500D03*
%TO.P,R3,2*%
%TO.N,Net-(R3-Pad2)*%
X138684000Y-98194500D03*
%TD*%
D12*
%TO.P,R4,1*%
%TO.N,GND*%
X143232500Y-67310000D03*
%TO.P,R4,2*%
%TO.N,Net-(Q7-Pad3)*%
X145057500Y-67310000D03*
%TD*%
D45*
%TO.P,Q6,1,B*%
%TO.N,Net-(Q6-Pad1)*%
X167891500Y-76532500D03*
%TO.P,Q6,2,E*%
%TO.N,Net-(Q6-Pad2)*%
X165991500Y-76532500D03*
%TO.P,Q6,3,C*%
%TO.N,/LED Current Regulator/LED4_NEG*%
X166941500Y-78407500D03*
%TD*%
D46*
%TO.P,D2,1,K*%
%TO.N,/Boost Converter/V_P*%
X140580000Y-118237000D03*
%TO.P,D2,2,A*%
%TO.N,Net-(D2-Pad2)*%
X136280000Y-118237000D03*
%TD*%
D47*
%TO.P,C1,N*%
%TO.N,GND*%
X131572000Y-85765000D03*
D48*
%TO.P,C1,P*%
%TO.N,/Boost Converter/+15V*%
X131572000Y-90765000D03*
%TD*%
D49*
%TO.P,D3,1,K*%
%TO.N,/LED1A*%
X140498585Y-85159492D03*
D50*
%TO.P,D3,2,A*%
%TO.N,/LED1B*%
X141369190Y-83057666D03*
%TD*%
D23*
%TO.P,U2,1*%
%TO.N,Net-(R1-Pad1)*%
X141535000Y-69850000D03*
%TO.P,U2,2,-*%
%TO.N,Net-(Q11-Pad2)*%
X141535000Y-71120000D03*
%TO.P,U2,3,+*%
%TO.N,Net-(Q7-Pad3)*%
X141535000Y-72390000D03*
%TO.P,U2,4,V-*%
%TO.N,GND*%
X141535000Y-73660000D03*
%TO.P,U2,5,+*%
%TO.N,Net-(Q7-Pad3)*%
X146685000Y-73660000D03*
%TO.P,U2,6,-*%
%TO.N,Net-(Q10-Pad2)*%
X146685000Y-72390000D03*
%TO.P,U2,7*%
%TO.N,Net-(R30-Pad1)*%
X146685000Y-71120000D03*
%TO.P,U2,8,V+*%
%TO.N,+5V*%
X146685000Y-69850000D03*
%TD*%
%TO.P,U4,1*%
%TO.N,Net-(R17-Pad1)*%
X166970000Y-99695000D03*
%TO.P,U4,2,-*%
%TO.N,Net-(R10-Pad2)*%
X166970000Y-100965000D03*
%TO.P,U4,3,+*%
%TO.N,Net-(R11-Pad2)*%
X166970000Y-102235000D03*
%TO.P,U4,4,V-*%
%TO.N,GND*%
X166970000Y-103505000D03*
%TO.P,U4,5,+*%
%TO.N,Net-(C6-Pad1)*%
X172120000Y-103505000D03*
%TO.P,U4,6,-*%
%TO.N,Net-(R16-Pad1)*%
X172120000Y-102235000D03*
%TO.P,U4,7*%
X172120000Y-100965000D03*
%TO.P,U4,8,V+*%
%TO.N,+5V*%
X172120000Y-99695000D03*
%TD*%
D51*
%TO.P,Q4,1,B*%
%TO.N,Net-(Q4-Pad1)*%
X148887500Y-72075000D03*
%TO.P,Q4,2,E*%
%TO.N,Net-(Q10-Pad2)*%
X148887500Y-73975000D03*
%TO.P,Q4,3,C*%
%TO.N,/LED Current Regulator/LED2_NEG*%
X150762500Y-73025000D03*
%TD*%
%TO.P,Q5,1,B*%
%TO.N,Net-(Q5-Pad1)*%
X156168000Y-72075000D03*
%TO.P,Q5,2,E*%
%TO.N,Net-(Q5-Pad2)*%
X156168000Y-73975000D03*
%TO.P,Q5,3,C*%
%TO.N,/LED Current Regulator/LED3_NEG*%
X158043000Y-73025000D03*
%TD*%
D52*
%TO.P,C5,1*%
%TO.N,Net-(C5-Pad1)*%
X146619000Y-102870000D03*
%TO.P,C5,2*%
%TO.N,GND*%
X144719000Y-102870000D03*
%TD*%
D53*
%TO.P,R2,1*%
%TO.N,Net-(Q1-Pad1)*%
X136652000Y-106237500D03*
%TO.P,R2,2*%
%TO.N,GND*%
X136652000Y-103312500D03*
%TD*%
D54*
%TO.P,U1,1,COMP*%
%TO.N,Net-(C5-Pad1)*%
X142748000Y-100295000D03*
%TO.P,U1,2,FB*%
%TO.N,Net-(R33-Pad2)*%
X141478000Y-100295000D03*
%TO.P,U1,3,EN/UVLO*%
%TO.N,Net-(R3-Pad2)*%
X140208000Y-100295000D03*
%TO.P,U1,4,CS*%
%TO.N,Net-(C11-Pad1)*%
X138938000Y-100295000D03*
%TO.P,U1,5,VDD*%
%TO.N,Net-(C12-Pad1)*%
X138938000Y-105445000D03*
%TO.P,U1,6,GND*%
%TO.N,GND*%
X140208000Y-105445000D03*
%TO.P,U1,7,OUTN*%
%TO.N,Net-(Q1-Pad4)*%
X141478000Y-105445000D03*
%TO.P,U1,8,VIN*%
%TO.N,+5V*%
X142748000Y-105445000D03*
%TD*%
D55*
%TO.P,Q1,1,S*%
%TO.N,Net-(Q1-Pad1)*%
X133893000Y-106045000D03*
%TO.P,Q1,2,S*%
X133893000Y-104775000D03*
%TO.P,Q1,3,S*%
X133893000Y-103505000D03*
%TO.P,Q1,4,G*%
%TO.N,Net-(Q1-Pad4)*%
X133893000Y-102235000D03*
%TO.P,Q1,5,D*%
%TO.N,/Boost Converter/SW*%
X128743000Y-102235000D03*
%TO.P,Q1,6,D*%
X128743000Y-103505000D03*
%TO.P,Q1,7,D*%
X128743000Y-104775000D03*
%TO.P,Q1,8,D*%
X128743000Y-106045000D03*
%TD*%
D56*
%TO.P,D8,1,K*%
%TO.N,/LED1C*%
X146361508Y-78322415D03*
D57*
%TO.P,D8,2,A*%
%TO.N,/Boost Converter/+15V*%
X148463334Y-77451810D03*
%TD*%
D12*
%TO.P,R12,1*%
%TO.N,/DISABLE_L*%
X162917500Y-106045000D03*
%TO.P,R12,2*%
%TO.N,Net-(R12-Pad2)*%
X164742500Y-106045000D03*
%TD*%
D58*
%TO.P,D15,1,K*%
%TO.N,/LED3B*%
X158748604Y-95883604D03*
D59*
%TO.P,D15,2,A*%
%TO.N,/LED3C*%
X160357272Y-97492272D03*
%TD*%
D29*
%TO.P,R16,1*%
%TO.N,Net-(R16-Pad1)*%
X173990000Y-98067500D03*
%TO.P,R16,2*%
%TO.N,Net-(Q7-Pad3)*%
X173990000Y-96242500D03*
%TD*%
D60*
%TO.P,Q2,1,B*%
%TO.N,Net-(Q2-Pad1)*%
X136692500Y-77772500D03*
%TO.P,Q2,2,E*%
%TO.N,Net-(Q11-Pad2)*%
X138592500Y-77772500D03*
%TO.P,Q2,3,C*%
%TO.N,/LED Current Regulator/LED1_NEG*%
X137642500Y-75897500D03*
%TD*%
D19*
%TO.P,D17,1,K*%
%TO.N,/LED Current Regulator/LED3_NEG*%
X161660000Y-88900000D03*
D43*
%TO.P,D17,2,A*%
%TO.N,/LED3A*%
X163935000Y-88900000D03*
%TD*%
D12*
%TO.P,R15,1*%
%TO.N,Net-(D19-Pad2)*%
X170410500Y-111633000D03*
%TO.P,R15,2*%
%TO.N,Net-(R15-Pad2)*%
X172235500Y-111633000D03*
%TD*%
D61*
%TO.P,D1,1,K*%
%TO.N,/Boost Converter/+15V*%
X136115000Y-97790000D03*
%TO.P,D1,2,A*%
%TO.N,/Boost Converter/SW*%
X129315000Y-97790000D03*
%TD*%
D32*
%TO.P,R14,1*%
%TO.N,Net-(R14-Pad1)*%
X167830500Y-71858500D03*
%TO.P,R14,2*%
%TO.N,Net-(Q6-Pad1)*%
X167830500Y-73683500D03*
%TD*%
D62*
%TO.N,/VIN*%
X142875000Y-111252000D03*
%TO.N,GND*%
X169291000Y-103505000D03*
X137160000Y-84709000D03*
X172212000Y-95377000D03*
X131953000Y-99060000D03*
X136505433Y-89808567D03*
X132016000Y-102362000D03*
X138303000Y-112776000D03*
X133350000Y-109855000D03*
X141443000Y-74803000D03*
X161417000Y-75438000D03*
X161925000Y-66929000D03*
X136652000Y-101981000D03*
X141824000Y-68580000D03*
X142748000Y-77851000D03*
X167005000Y-97790000D03*
X159766000Y-114935000D03*
X137795000Y-88011000D03*
X163830000Y-80010000D03*
X133731000Y-99060000D03*
X159766000Y-117475000D03*
X142748000Y-102235000D03*
X168902855Y-109257533D03*
X140589000Y-108204000D03*
X159766000Y-112395000D03*
%TO.N,+5V*%
X135255000Y-88011000D03*
X172085000Y-97790000D03*
X165325500Y-68580000D03*
X173990000Y-105410000D03*
X146650000Y-68707000D03*
X134239000Y-84709000D03*
X138811000Y-93726000D03*
X142748000Y-103632000D03*
%TO.N,/Boost Converter/+15V*%
X149839998Y-76835000D03*
X133985000Y-96012000D03*
X136525000Y-95123000D03*
X165608000Y-85344000D03*
X131445000Y-96139000D03*
X153797000Y-101600000D03*
X142113000Y-91567000D03*
X157607000Y-113411000D03*
%TO.N,Net-(D2-Pad2)*%
X136525000Y-116205000D03*
%TO.N,/LED Current Regulator/LED1_NEG*%
X135509000Y-74422000D03*
X143129000Y-85979000D03*
X134366000Y-74422000D03*
X135001000Y-73533000D03*
X137607500Y-79375000D03*
X137668000Y-80518000D03*
X136474200Y-79375000D03*
%TO.N,/LED Current Regulator/LED2_NEG*%
X152492000Y-73025000D03*
X149352000Y-79756000D03*
X152492000Y-74133000D03*
X152527000Y-71882000D03*
%TO.N,/LED Current Regulator/LED3_NEG*%
X154432000Y-73025000D03*
X161036000Y-90932000D03*
X154432000Y-71882000D03*
X154432000Y-74168000D03*
%TO.N,/LED Current Regulator/LED4_NEG*%
X166941500Y-80264000D03*
X168097200Y-80238600D03*
X165785800Y-80264000D03*
X170789600Y-93726000D03*
X149606000Y-98196400D03*
%TO.N,Net-(D20-Pad2)*%
X168656000Y-113665000D03*
%TO.N,Net-(D21-Pad2)*%
X164084000Y-119380000D03*
%TO.N,/PWM_H*%
X158750000Y-103759000D03*
%TO.N,/PWM_L*%
X156845000Y-103632000D03*
%TO.N,/DISABLE_H*%
X158707998Y-109643002D03*
%TO.N,/DISABLE_L*%
X160909000Y-99568000D03*
%TO.N,Net-(Q7-Pad1)*%
X169164000Y-107885665D03*
%TO.N,/Boost Converter/V_P*%
X131445000Y-112776000D03*
X129286000Y-92456000D03*
%TO.N,Net-(C6-Pad1)*%
X173990000Y-103505000D03*
%TO.N,Net-(C11-Pad1)*%
X140013470Y-102119990D03*
%TO.N,Net-(Q10-Pad2)*%
X144999000Y-72390000D03*
X148809000Y-75057000D03*
%TO.N,Net-(C12-Pad1)*%
X137541000Y-107696000D03*
%TO.N,Net-(Q11-Pad2)*%
X139954000Y-75819000D03*
X143094489Y-71306466D03*
%TO.N,Net-(Q5-Pad2)*%
X159321500Y-75184000D03*
X161836010Y-70373776D03*
%TO.N,Net-(Q6-Pad2)*%
X164973000Y-75311000D03*
X163512500Y-71755000D03*
%TO.N,Net-(Q7-Pad3)*%
X163703000Y-65659000D03*
X174117000Y-94361000D03*
X143834066Y-70080572D03*
X162869000Y-74930000D03*
%TO.N,Net-(R29-Pad1)*%
X160274000Y-68326000D03*
%TO.N,Net-(C15-Pad1)*%
X134366000Y-93599000D03*
%TO.N,Net-(R1-Pad1)*%
X139446000Y-69850000D03*
X133096000Y-75819000D03*
%TO.N,Net-(R11-Pad2)*%
X169037000Y-101727000D03*
%TO.N,Net-(R3-Pad2)*%
X140208000Y-98552000D03*
%TO.N,Net-(R30-Pad1)*%
X145125500Y-70612000D03*
X147066000Y-67310000D03*
%TO.N,Net-(R13-Pad2)*%
X164846000Y-110490000D03*
%TO.N,Net-(R14-Pad1)*%
X167865500Y-70485000D03*
%TO.N,Net-(R17-Pad1)*%
X168910000Y-99695000D03*
%TO.N,Net-(Q1-Pad1)*%
X136652000Y-104902000D03*
%TO.N,Net-(R33-Pad2)*%
X140590000Y-97028000D03*
%TD*%
D63*
%TO.N,/VIN*%
X148493503Y-112643001D02*
X143261999Y-112643001D01*
D64*
X142748000Y-111125000D02*
X142875000Y-111252000D01*
D65*
X142875000Y-111125000D02*
X142875000Y-113284000D01*
X142875000Y-112522000D02*
X142875000Y-111125000D01*
X142875000Y-113284000D02*
X142875000Y-113665000D01*
D64*
X140905000Y-111125000D02*
X142748000Y-111125000D01*
X142748000Y-112395000D02*
X142875000Y-112522000D01*
X140905000Y-113665000D02*
X142875000Y-113665000D01*
D63*
X143261999Y-112643001D02*
X143256000Y-112649000D01*
D64*
X140905000Y-114935000D02*
X142875000Y-114935000D01*
D65*
X142880999Y-112770001D02*
X142875000Y-112776000D01*
X142875000Y-112776000D02*
X142875000Y-112522000D01*
X142875000Y-113665000D02*
X142875000Y-114935000D01*
D64*
X140905000Y-112395000D02*
X142748000Y-112395000D01*
%TO.N,GND*%
X141824000Y-67726000D02*
X141824000Y-68580000D01*
X161353500Y-73660000D02*
X161607500Y-73914000D01*
X138303000Y-103251000D02*
X136713500Y-103251000D01*
X166970000Y-109220000D02*
X168865322Y-109220000D01*
X161517500Y-117475000D02*
X159766000Y-117475000D01*
X139241000Y-108204000D02*
X140589000Y-108204000D01*
D66*
X136652000Y-103312500D02*
X136652000Y-101981000D01*
X133350000Y-109855000D02*
X133350000Y-108380000D01*
D64*
X141535000Y-74711000D02*
X141443000Y-74803000D01*
X161607500Y-75247500D02*
X161417000Y-75438000D01*
X140208000Y-104267000D02*
X139954000Y-104013000D01*
X144907000Y-104140000D02*
X144907000Y-105095000D01*
X141535000Y-73660000D02*
X141535000Y-74711000D01*
X143637000Y-102870000D02*
X144719000Y-102870000D01*
X139065000Y-104013000D02*
X138303000Y-103251000D01*
X160210500Y-73660000D02*
X161353500Y-73660000D01*
X161517500Y-112395000D02*
X159766000Y-112395000D01*
X169291000Y-103505000D02*
X166970000Y-103505000D01*
X142240000Y-67310000D02*
X141824000Y-67726000D01*
X143002000Y-102235000D02*
X143637000Y-102870000D01*
X136713500Y-103251000D02*
X136652000Y-103312500D01*
X168865322Y-109220000D02*
X168902855Y-109257533D01*
X140208000Y-106426000D02*
X140208000Y-105445000D01*
X140589000Y-108204000D02*
X140589000Y-106807000D01*
X161517500Y-114935000D02*
X159766000Y-114935000D01*
X144719000Y-103952000D02*
X144907000Y-104140000D01*
X139954000Y-104013000D02*
X139065000Y-104013000D01*
X144719000Y-102870000D02*
X144719000Y-103952000D01*
X161607500Y-73914000D02*
X161607500Y-75247500D01*
X140208000Y-105445000D02*
X140208000Y-104267000D01*
X140589000Y-106807000D02*
X140208000Y-106426000D01*
X143232500Y-67310000D02*
X142240000Y-67310000D01*
X142748000Y-102235000D02*
X143002000Y-102235000D01*
%TO.N,+5V*%
X172085000Y-97790000D02*
X172085000Y-99660000D01*
X136525000Y-92837000D02*
X135255000Y-91567000D01*
X165325500Y-69815000D02*
X165360500Y-69850000D01*
X165325500Y-68580000D02*
X165325500Y-69815000D01*
X142748000Y-103632000D02*
X142748000Y-105445000D01*
X137922000Y-92837000D02*
X136525000Y-92837000D01*
X146685000Y-69850000D02*
X146685000Y-68742000D01*
X142748000Y-105445000D02*
X142748000Y-106426000D01*
X142191000Y-106983000D02*
X142191000Y-108204000D01*
X146685000Y-68742000D02*
X146650000Y-68707000D01*
X172120000Y-105410000D02*
X173990000Y-105410000D01*
X142748000Y-106426000D02*
X142191000Y-106983000D01*
X172085000Y-99660000D02*
X172120000Y-99695000D01*
X135255000Y-91567000D02*
X135255000Y-88011000D01*
X137922000Y-92837000D02*
X138811000Y-93726000D01*
D66*
%TO.N,/Boost Converter/+15V*%
X163213190Y-85598334D02*
X163702666Y-85598334D01*
D65*
X133985000Y-96012000D02*
X133985000Y-97409000D01*
D66*
X141224000Y-91821000D02*
X141478000Y-91567000D01*
D65*
X133985000Y-97409000D02*
X134366000Y-97790000D01*
D66*
X155048810Y-100348190D02*
X153797000Y-101600000D01*
D65*
X134366000Y-97790000D02*
X136115000Y-97790000D01*
D66*
X141478000Y-91567000D02*
X142113000Y-91567000D01*
D65*
X136525000Y-97380000D02*
X136115000Y-97790000D01*
D66*
X149839998Y-76835000D02*
X149080144Y-76835000D01*
X163702666Y-85598334D02*
X163957000Y-85344000D01*
X149080144Y-76835000D02*
X148463334Y-77451810D01*
X140316810Y-92201666D02*
X140843334Y-92201666D01*
X140843334Y-92201666D02*
X141224000Y-91821000D01*
X155066666Y-100348190D02*
X155048810Y-100348190D01*
D65*
X136525000Y-95123000D02*
X136525000Y-97380000D01*
D66*
X163957000Y-85344000D02*
X165608000Y-85344000D01*
D64*
%TO.N,Net-(D2-Pad2)*%
X135955000Y-115635000D02*
X136525000Y-116205000D01*
X136525000Y-117992000D02*
X136280000Y-118237000D01*
X136525000Y-116205000D02*
X136525000Y-117992000D01*
X135955000Y-114935000D02*
X135955000Y-115635000D01*
D66*
%TO.N,/LED Current Regulator/LED1_NEG*%
X137607500Y-79375000D02*
X137642500Y-79340000D01*
X137668000Y-80518000D02*
X137607500Y-80457500D01*
X143129000Y-85979000D02*
X143129000Y-86233000D01*
X137642500Y-79340000D02*
X137642500Y-76987500D01*
X143129000Y-86233000D02*
X141870000Y-87492000D01*
X137607500Y-79375000D02*
X136474200Y-79375000D01*
D64*
X137642500Y-75897500D02*
X137642500Y-76987500D01*
D66*
X137607500Y-80457500D02*
X137607500Y-79375000D01*
X141870000Y-87492000D02*
X141870000Y-88900000D01*
%TO.N,/LED1A*%
X139595000Y-86063077D02*
X139595000Y-88900000D01*
X140498585Y-85159492D02*
X139595000Y-86063077D01*
%TO.N,/LED Current Regulator/LED2_NEG*%
X149352000Y-79756000D02*
X151014000Y-79756000D01*
X152492000Y-73025000D02*
X152492000Y-71917000D01*
X152492000Y-73025000D02*
X152492000Y-74133000D01*
D64*
X152492000Y-73025000D02*
X150762500Y-73025000D01*
D66*
X152492000Y-71917000D02*
X152527000Y-71882000D01*
%TO.N,/LED Current Regulator/LED3_NEG*%
X154432000Y-73025000D02*
X156718000Y-73025000D01*
X161660000Y-90308000D02*
X161036000Y-90932000D01*
D64*
X156718000Y-73025000D02*
X158043000Y-73025000D01*
D66*
X154432000Y-73025000D02*
X154432000Y-74168000D01*
X161660000Y-88900000D02*
X161660000Y-90308000D01*
X154432000Y-73025000D02*
X154432000Y-71882000D01*
%TO.N,/LED Current Regulator/LED4_NEG*%
X168071800Y-80264000D02*
X168097200Y-80238600D01*
X151765000Y-98795000D02*
X150204600Y-98795000D01*
D64*
X166941500Y-84264500D02*
X166941500Y-80264000D01*
D66*
X150204600Y-98795000D02*
X149606000Y-98196400D01*
X165785800Y-80264000D02*
X166941500Y-80264000D01*
D64*
X170789600Y-88112600D02*
X166941500Y-84264500D01*
D66*
X166941500Y-80264000D02*
X168071800Y-80264000D01*
D64*
X166941500Y-78407500D02*
X166941500Y-79565500D01*
D66*
X166941500Y-80264000D02*
X166941500Y-79565500D01*
D64*
X170789600Y-93726000D02*
X170789600Y-88112600D01*
D63*
%TO.N,/LED1B*%
X143640126Y-83057666D02*
X144781396Y-81916396D01*
X141369190Y-83057666D02*
X143640126Y-83057666D01*
D64*
%TO.N,Net-(D19-Pad2)*%
X167259000Y-112395000D02*
X164317500Y-112395000D01*
X168021000Y-111633000D02*
X167259000Y-112395000D01*
X170410500Y-111633000D02*
X168021000Y-111633000D01*
%TO.N,Net-(D20-Pad2)*%
X164317500Y-114935000D02*
X167386000Y-114935000D01*
X167386000Y-114935000D02*
X168656000Y-113665000D01*
%TO.N,Net-(D21-Pad2)*%
X164317500Y-117475000D02*
X164317500Y-119146500D01*
X164317500Y-119146500D02*
X164084000Y-119380000D01*
%TO.N,/PWM_H*%
X162917500Y-103505000D02*
X162179000Y-103505000D01*
X162179000Y-103505000D02*
X161901500Y-103782500D01*
X161901500Y-103782500D02*
X160782000Y-103782500D01*
X158773500Y-103782500D02*
X158750000Y-103759000D01*
X160782000Y-103782500D02*
X158773500Y-103782500D01*
%TO.N,/PWM_L*%
X159766000Y-100965000D02*
X157099000Y-103632000D01*
X162917500Y-100965000D02*
X161036000Y-100965000D01*
X160782000Y-101219000D02*
X160782000Y-101957500D01*
X161036000Y-100965000D02*
X159766000Y-100965000D01*
X161036000Y-100965000D02*
X160782000Y-101219000D01*
X157099000Y-103632000D02*
X156845000Y-103632000D01*
%TO.N,/DISABLE_H*%
X160485998Y-109643002D02*
X158707998Y-109643002D01*
X162052000Y-108585000D02*
X161798000Y-108839000D01*
X158707998Y-109643002D02*
X154493501Y-109643002D01*
X161798000Y-109347000D02*
X161501998Y-109643002D01*
X162917500Y-108585000D02*
X162052000Y-108585000D01*
X160655000Y-109474000D02*
X160485998Y-109643002D01*
X160655000Y-108227500D02*
X160655000Y-109474000D01*
X161501998Y-109643002D02*
X160485998Y-109643002D01*
X161798000Y-108839000D02*
X161798000Y-109347000D01*
%TO.N,/DISABLE_L*%
X162917500Y-106045000D02*
X162306000Y-106045000D01*
X151493502Y-107713498D02*
X151493502Y-109643002D01*
X155575000Y-102997000D02*
X155575000Y-105283000D01*
X160909000Y-99568000D02*
X160011654Y-99568000D01*
X161544000Y-105283000D02*
X160528000Y-105283000D01*
X157471654Y-102108000D02*
X156464000Y-102108000D01*
X153924000Y-105283000D02*
X151493502Y-107713498D01*
X160655000Y-106402500D02*
X160655000Y-105410000D01*
X160655000Y-105410000D02*
X160528000Y-105283000D01*
X162306000Y-106045000D02*
X161544000Y-105283000D01*
X156464000Y-102108000D02*
X155575000Y-102997000D01*
X160011654Y-99568000D02*
X157471654Y-102108000D01*
X153924000Y-105283000D02*
X155829000Y-105283000D01*
X155829000Y-105283000D02*
X160528000Y-105283000D01*
%TO.N,Net-(Q4-Pad1)*%
X148971000Y-71991500D02*
X148887500Y-72075000D01*
X148971000Y-70127500D02*
X148971000Y-71991500D01*
%TO.N,Net-(Q2-Pad1)*%
X134620000Y-77747500D02*
X136667500Y-77747500D01*
%TO.N,Net-(Q7-Pad1)*%
X169164000Y-107885665D02*
X169164000Y-105918000D01*
X169164000Y-105918000D02*
X168656000Y-105410000D01*
X168656000Y-105410000D02*
X166970000Y-105410000D01*
D66*
%TO.N,/LED4C*%
X141187415Y-94303492D02*
X141187415Y-95506959D01*
X141187415Y-95506959D02*
X143172728Y-97492272D01*
%TO.N,/LED1C*%
X145158041Y-78322415D02*
X143172728Y-80307728D01*
X146361508Y-78322415D02*
X145158041Y-78322415D01*
D64*
%TO.N,Net-(R12-Pad2)*%
X165735000Y-106172000D02*
X165608000Y-106045000D01*
X165735000Y-106426000D02*
X165735000Y-106172000D01*
X165608000Y-106045000D02*
X164742500Y-106045000D01*
X166970000Y-106680000D02*
X165989000Y-106680000D01*
X165989000Y-106680000D02*
X165735000Y-106426000D01*
%TO.N,/Boost Converter/V_P*%
X135955000Y-113665000D02*
X133477000Y-113665000D01*
D66*
X129540000Y-112268000D02*
X130048000Y-112776000D01*
D64*
X135955000Y-113665000D02*
X137541000Y-113665000D01*
X140580000Y-116704000D02*
X140580000Y-118237000D01*
X137541000Y-113665000D02*
X140580000Y-116704000D01*
D66*
X130048000Y-112776000D02*
X131445000Y-112776000D01*
D64*
X133350000Y-113538000D02*
X133350000Y-112522000D01*
X135955000Y-112395000D02*
X133477000Y-112395000D01*
D66*
X129540000Y-111120800D02*
X129540000Y-112268000D01*
X133096000Y-112776000D02*
X131445000Y-112776000D01*
D64*
X135955000Y-111125000D02*
X135955000Y-113665000D01*
D66*
X133350000Y-112522000D02*
X133096000Y-112776000D01*
X133350000Y-111330000D02*
X133350000Y-112522000D01*
D64*
X133477000Y-113665000D02*
X133350000Y-113538000D01*
X133477000Y-112395000D02*
X133350000Y-112522000D01*
%TO.N,/Boost Converter/SW*%
X128970000Y-104775000D02*
X130683000Y-104775000D01*
D65*
X130810000Y-106426000D02*
X130810000Y-106934000D01*
D64*
X128970000Y-106045000D02*
X130429000Y-106045000D01*
D66*
X129540000Y-107569000D02*
X130048000Y-107061000D01*
D64*
X130429000Y-106045000D02*
X130810000Y-106426000D01*
D65*
X130810000Y-104902000D02*
X130810000Y-106426000D01*
D66*
X130683000Y-107061000D02*
X130810000Y-106934000D01*
D65*
X130810000Y-101600000D02*
X130810000Y-102489000D01*
D66*
X130048000Y-107061000D02*
X130683000Y-107061000D01*
X129540000Y-108589200D02*
X129540000Y-107569000D01*
D64*
X130556000Y-102235000D02*
X130810000Y-102489000D01*
X130683000Y-104775000D02*
X130810000Y-104902000D01*
D65*
X129315000Y-97790000D02*
X129315000Y-100105000D01*
X129315000Y-100105000D02*
X130810000Y-101600000D01*
X130810000Y-103251000D02*
X130810000Y-104902000D01*
D64*
X130556000Y-103505000D02*
X130810000Y-103251000D01*
X128970000Y-102235000D02*
X130556000Y-102235000D01*
X128970000Y-103505000D02*
X130556000Y-103505000D01*
D65*
X130810000Y-102489000D02*
X130810000Y-103251000D01*
D64*
%TO.N,Net-(R16-Pad1)*%
X173355000Y-100965000D02*
X173990000Y-100330000D01*
X172120000Y-100965000D02*
X173355000Y-100965000D01*
X172120000Y-102235000D02*
X172120000Y-100965000D01*
X173990000Y-100330000D02*
X173990000Y-98067500D01*
%TO.N,Net-(C4-Pad1)*%
X147320000Y-106957500D02*
X147320000Y-107950000D01*
X144907000Y-108077000D02*
X144907000Y-106995000D01*
X147066000Y-108204000D02*
X145034000Y-108204000D01*
X145034000Y-108204000D02*
X144907000Y-108077000D01*
X147320000Y-107950000D02*
X147066000Y-108204000D01*
%TO.N,Net-(C5-Pad1)*%
X143475000Y-100295000D02*
X144653000Y-101473000D01*
X146685000Y-102804000D02*
X146619000Y-102870000D01*
X146685000Y-101727000D02*
X146685000Y-102804000D01*
X147320000Y-105132500D02*
X147320000Y-104394000D01*
X144653000Y-101473000D02*
X146431000Y-101473000D01*
X146431000Y-101473000D02*
X146685000Y-101727000D01*
X147066000Y-104140000D02*
X146812000Y-104140000D01*
X147320000Y-104394000D02*
X147066000Y-104140000D01*
X142748000Y-100295000D02*
X143475000Y-100295000D01*
X146619000Y-103947000D02*
X146619000Y-102870000D01*
X146812000Y-104140000D02*
X146619000Y-103947000D01*
%TO.N,Net-(C6-Pad1)*%
X173990000Y-103505000D02*
X172120000Y-103505000D01*
%TO.N,Net-(C11-Pad1)*%
X138938000Y-100295000D02*
X138938000Y-101473000D01*
X138938000Y-101473000D02*
X139584990Y-102119990D01*
X139584990Y-102119990D02*
X140013470Y-102119990D01*
D66*
%TO.N,/LED4B*%
X145922666Y-97024874D02*
X144781396Y-95883604D01*
X145922666Y-99295810D02*
X145922666Y-97024874D01*
%TO.N,/LED4A*%
X148024492Y-100166415D02*
X148928077Y-101070000D01*
X148928077Y-101070000D02*
X151765000Y-101070000D01*
%TO.N,/LED2A*%
X154601923Y-76730000D02*
X155505508Y-77633585D01*
X151765000Y-76730000D02*
X154601923Y-76730000D01*
%TO.N,/LED2B*%
X157607334Y-80775126D02*
X158748604Y-81916396D01*
X157607334Y-78504190D02*
X157607334Y-80775126D01*
%TO.N,/LED3C*%
X157168492Y-99477585D02*
X158371959Y-99477585D01*
X158371959Y-99477585D02*
X160357272Y-97492272D01*
%TO.N,/LED2C*%
X162342585Y-83496508D02*
X162342585Y-82293041D01*
X162342585Y-82293041D02*
X160357272Y-80307728D01*
%TO.N,/LED3B*%
X160016874Y-94615334D02*
X158748604Y-95883604D01*
X162160810Y-94615334D02*
X160016874Y-94615334D01*
D64*
%TO.N,Net-(Q10-Pad2)*%
X148887500Y-74978500D02*
X148809000Y-75057000D01*
X146685000Y-72390000D02*
X144999000Y-72390000D01*
X148887500Y-73975000D02*
X148887500Y-74978500D01*
D66*
%TO.N,/LED3A*%
X163935000Y-88900000D02*
X163935000Y-91609923D01*
X163935000Y-91609923D02*
X163031415Y-92513508D01*
D64*
%TO.N,Net-(C12-Pad1)*%
X138430000Y-106807000D02*
X138811000Y-106807000D01*
X137541000Y-107696000D02*
X138430000Y-106807000D01*
X138938000Y-106680000D02*
X138938000Y-105445000D01*
X138811000Y-106807000D02*
X138938000Y-106680000D01*
%TO.N,Net-(Q1-Pad4)*%
X133920000Y-101538000D02*
X134620000Y-100838000D01*
X133920000Y-102235000D02*
X133920000Y-101538000D01*
X137033000Y-100838000D02*
X139446000Y-103251000D01*
X141478000Y-104013000D02*
X141478000Y-105445000D01*
X139446000Y-103251000D02*
X140716000Y-103251000D01*
X140716000Y-103251000D02*
X141478000Y-104013000D01*
X134620000Y-100838000D02*
X137033000Y-100838000D01*
%TO.N,Net-(Q11-Pad2)*%
X139397500Y-77772500D02*
X138592500Y-77772500D01*
X142908023Y-71120000D02*
X141535000Y-71120000D01*
X143094489Y-71306466D02*
X142908023Y-71120000D01*
X139954000Y-75819000D02*
X139954000Y-77216000D01*
X139954000Y-77216000D02*
X139397500Y-77772500D01*
%TO.N,Net-(Q5-Pad1)*%
X156464000Y-71247000D02*
X157861000Y-71247000D01*
X156210000Y-71501000D02*
X156464000Y-71247000D01*
X157861000Y-71247000D02*
X157988000Y-71120000D01*
X156168000Y-72075000D02*
X156210000Y-72033000D01*
X157988000Y-71120000D02*
X157988000Y-70127500D01*
X156210000Y-72033000D02*
X156210000Y-71501000D01*
%TO.N,Net-(Q5-Pad2)*%
X156168000Y-73975000D02*
X158112500Y-73975000D01*
X161089786Y-71120000D02*
X160210500Y-71120000D01*
X161836010Y-70373776D02*
X161089786Y-71120000D01*
X158112500Y-73975000D02*
X159321500Y-75184000D01*
%TO.N,Net-(Q6-Pad1)*%
X167830500Y-73683500D02*
X167900500Y-73753500D01*
X167900500Y-73753500D02*
X167900500Y-76523500D01*
%TO.N,Net-(Q6-Pad2)*%
X164973000Y-75311000D02*
X165862000Y-75311000D01*
X164147500Y-72390000D02*
X163512500Y-71755000D01*
X165991500Y-75440500D02*
X165991500Y-76532500D01*
X165862000Y-75311000D02*
X165991500Y-75440500D01*
X165360500Y-72390000D02*
X164147500Y-72390000D01*
%TO.N,Net-(Q7-Pad3)*%
X173990000Y-94488000D02*
X174117000Y-94361000D01*
X162531500Y-72390000D02*
X162369500Y-72390000D01*
X144051550Y-70080572D02*
X143834066Y-70080572D01*
X162369500Y-72390000D02*
X162179000Y-72390000D01*
X163004500Y-74295000D02*
X163720500Y-73579000D01*
X163801500Y-73660000D02*
X163720500Y-73579000D01*
X163720500Y-73579000D02*
X162531500Y-72390000D01*
X144109989Y-70139011D02*
X145057500Y-69191500D01*
X165360500Y-73660000D02*
X163801500Y-73660000D01*
X162179000Y-72390000D02*
X162179000Y-71628000D01*
X145057500Y-69191500D02*
X145057500Y-67310000D01*
X144109989Y-70139011D02*
X144051550Y-70080572D01*
X144109989Y-71882011D02*
X144109989Y-70139011D01*
X141535000Y-72390000D02*
X142586000Y-72390000D01*
X143094000Y-72898000D02*
X144109989Y-71882011D01*
X142586000Y-72390000D02*
X143094000Y-72898000D01*
X173990000Y-96242500D02*
X173990000Y-94488000D01*
X162179000Y-72390000D02*
X160210500Y-72390000D01*
X163703000Y-70104000D02*
X163703000Y-65659000D01*
X162179000Y-71628000D02*
X163703000Y-70104000D01*
X143094000Y-72898000D02*
X143856000Y-73660000D01*
X143856000Y-73660000D02*
X146685000Y-73660000D01*
%TO.N,Net-(R29-Pad1)*%
X160250500Y-68302500D02*
X160274000Y-68326000D01*
X160210500Y-69850000D02*
X160210500Y-68389500D01*
X160210500Y-68389500D02*
X160274000Y-68326000D01*
X157988000Y-68302500D02*
X160250500Y-68302500D01*
%TO.N,Net-(R10-Pad2)*%
X166970000Y-100965000D02*
X164742500Y-100965000D01*
%TO.N,Net-(C15-Pad1)*%
X136906000Y-93599000D02*
X138684000Y-95377000D01*
X138684000Y-95377000D02*
X138684000Y-96369500D01*
X134366000Y-93599000D02*
X136906000Y-93599000D01*
%TO.N,Net-(R1-Pad1)*%
X134620000Y-75922500D02*
X133199500Y-75922500D01*
X141535000Y-69850000D02*
X139446000Y-69850000D01*
X133199500Y-75922500D02*
X133096000Y-75819000D01*
%TO.N,Net-(R11-Pad2)*%
X165608000Y-102489000D02*
X165862000Y-102235000D01*
X164742500Y-103505000D02*
X165608000Y-103505000D01*
X168529000Y-102235000D02*
X166970000Y-102235000D01*
X165608000Y-103505000D02*
X165608000Y-102489000D01*
X169037000Y-101727000D02*
X168529000Y-102235000D01*
X165862000Y-102235000D02*
X166970000Y-102235000D01*
%TO.N,Net-(R3-Pad2)*%
X139850500Y-98194500D02*
X140208000Y-98552000D01*
X140208000Y-98552000D02*
X140208000Y-100295000D01*
X138684000Y-98194500D02*
X139850500Y-98194500D01*
%TO.N,Net-(R30-Pad1)*%
X147066000Y-67310000D02*
X148717000Y-67310000D01*
X146685000Y-71120000D02*
X145633500Y-71120000D01*
X145633500Y-71120000D02*
X145125500Y-70612000D01*
X148717000Y-67310000D02*
X148971000Y-67564000D01*
X148971000Y-67564000D02*
X148971000Y-68302500D01*
%TO.N,Net-(R13-Pad2)*%
X165735000Y-108585000D02*
X164742500Y-108585000D01*
X165862000Y-107950000D02*
X165735000Y-108077000D01*
X164846000Y-110490000D02*
X164742500Y-110386500D01*
X165735000Y-108077000D02*
X165735000Y-108585000D01*
X166970000Y-107950000D02*
X165862000Y-107950000D01*
X164742500Y-110386500D02*
X164742500Y-108585000D01*
%TO.N,Net-(R14-Pad1)*%
X167195500Y-70485000D02*
X166560500Y-71120000D01*
X167865500Y-70485000D02*
X167865500Y-71823500D01*
X167865500Y-70485000D02*
X167195500Y-70485000D01*
X166560500Y-71120000D02*
X165360500Y-71120000D01*
X167865500Y-71823500D02*
X167830500Y-71858500D01*
%TO.N,Net-(R15-Pad2)*%
X173609000Y-111252000D02*
X173609000Y-108331000D01*
X173228000Y-111633000D02*
X173609000Y-111252000D01*
X172120000Y-106680000D02*
X172120000Y-107950000D01*
X173228000Y-107950000D02*
X172120000Y-107950000D01*
X172235500Y-111633000D02*
X173228000Y-111633000D01*
X173609000Y-108331000D02*
X173228000Y-107950000D01*
%TO.N,Net-(R17-Pad1)*%
X170561000Y-109220000D02*
X170306511Y-108965511D01*
X172120000Y-109220000D02*
X170561000Y-109220000D01*
X168910000Y-99695000D02*
X166970000Y-99695000D01*
X170306511Y-108965511D02*
X170306511Y-101091511D01*
X170306511Y-101091511D02*
X168910000Y-99695000D01*
D66*
%TO.N,Net-(Q1-Pad1)*%
X136459500Y-106045000D02*
X136652000Y-106237500D01*
D64*
X132207000Y-103505000D02*
X132080000Y-103632000D01*
D66*
X133920000Y-104775000D02*
X133920000Y-106045000D01*
D64*
X133920000Y-104775000D02*
X132334000Y-104775000D01*
D65*
X132080000Y-105029000D02*
X132080000Y-106045000D01*
D64*
X133920000Y-103505000D02*
X132207000Y-103505000D01*
D66*
X133920000Y-106045000D02*
X136459500Y-106045000D01*
D65*
X132080000Y-103632000D02*
X132080000Y-105029000D01*
D64*
X136652000Y-104902000D02*
X136652000Y-106237500D01*
X132334000Y-104775000D02*
X132080000Y-105029000D01*
D66*
X133920000Y-103505000D02*
X133920000Y-104775000D01*
D64*
X133920000Y-106045000D02*
X132080000Y-106045000D01*
%TO.N,Net-(R33-Pad2)*%
X140590000Y-97028000D02*
X141478000Y-97916000D01*
X141478000Y-97916000D02*
X141478000Y-100295000D01*
%TD*%
%TA.AperFunction,Conductor*%
%TO.N,/LED Current Regulator/LED3_NEG*%
G36*
X161213934Y-64409002D02*
G01*
X161260427Y-64462658D01*
X161271732Y-64519494D01*
X161209665Y-66257379D01*
X161187245Y-66324740D01*
X161180275Y-66333860D01*
X161134862Y-66387981D01*
X161131899Y-66393370D01*
X161131896Y-66393375D01*
X161058509Y-66526868D01*
X161044826Y-66551757D01*
X160988315Y-66729901D01*
X160967482Y-66915630D01*
X160983121Y-67101867D01*
X161034636Y-67281520D01*
X161064835Y-67340281D01*
X161085456Y-67380406D01*
X161098803Y-67450137D01*
X161072332Y-67516014D01*
X161014448Y-67557122D01*
X160973389Y-67564000D01*
X160893406Y-67564000D01*
X160825285Y-67543998D01*
X160816207Y-67537362D01*
X160814239Y-67536035D01*
X160809489Y-67532105D01*
X160645089Y-67443214D01*
X160555822Y-67415581D01*
X160472441Y-67389770D01*
X160472438Y-67389769D01*
X160466554Y-67387948D01*
X160460429Y-67387304D01*
X160460428Y-67387304D01*
X160286813Y-67369056D01*
X160286812Y-67369056D01*
X160280685Y-67368412D01*
X160162087Y-67379206D01*
X160100703Y-67384792D01*
X160100702Y-67384792D01*
X160094562Y-67385351D01*
X160088648Y-67387092D01*
X160088646Y-67387092D01*
X160015909Y-67408500D01*
X159915273Y-67438119D01*
X159909808Y-67440976D01*
X159766272Y-67516014D01*
X159749647Y-67524705D01*
X159735353Y-67536198D01*
X159669732Y-67563293D01*
X159656403Y-67564000D01*
X158904388Y-67564000D01*
X158836267Y-67543998D01*
X158832194Y-67541118D01*
X158828127Y-67537051D01*
X158690792Y-67455832D01*
X158683181Y-67453621D01*
X158683179Y-67453620D01*
X158543751Y-67413112D01*
X158543746Y-67413111D01*
X158537574Y-67411318D01*
X158531169Y-67410814D01*
X158531164Y-67410813D01*
X158504226Y-67408693D01*
X158504218Y-67408693D01*
X158501770Y-67408500D01*
X157474230Y-67408500D01*
X157471782Y-67408693D01*
X157471774Y-67408693D01*
X157444836Y-67410813D01*
X157444831Y-67410814D01*
X157438426Y-67411318D01*
X157432254Y-67413111D01*
X157432249Y-67413112D01*
X157292821Y-67453620D01*
X157292819Y-67453621D01*
X157285208Y-67455832D01*
X157147873Y-67537051D01*
X157146412Y-67538512D01*
X157082754Y-67563506D01*
X157071612Y-67564000D01*
X156972000Y-67564000D01*
X156972000Y-67722018D01*
X156958342Y-67771954D01*
X156961015Y-67773111D01*
X156957867Y-67780384D01*
X156953832Y-67787208D01*
X156951621Y-67794819D01*
X156951620Y-67794821D01*
X156911112Y-67934249D01*
X156911111Y-67934254D01*
X156909318Y-67940426D01*
X156906500Y-67976230D01*
X156906500Y-68628770D01*
X156909318Y-68664574D01*
X156911111Y-68670746D01*
X156911112Y-68670751D01*
X156951620Y-68810179D01*
X156953832Y-68817792D01*
X156957867Y-68824616D01*
X156961015Y-68831889D01*
X156958342Y-68833046D01*
X156972000Y-68882982D01*
X156972000Y-69547018D01*
X156958342Y-69596954D01*
X156961015Y-69598111D01*
X156957867Y-69605384D01*
X156953832Y-69612208D01*
X156951621Y-69619819D01*
X156951620Y-69619821D01*
X156911112Y-69759249D01*
X156911111Y-69759254D01*
X156909318Y-69765426D01*
X156906500Y-69801230D01*
X156906500Y-70453770D01*
X156909318Y-70489574D01*
X156911111Y-70495746D01*
X156911112Y-70495751D01*
X156916370Y-70513847D01*
X156916167Y-70584843D01*
X156877613Y-70644460D01*
X156812949Y-70673768D01*
X156795373Y-70675000D01*
X156509744Y-70675000D01*
X156493298Y-70673922D01*
X156472189Y-70671143D01*
X156472188Y-70671143D01*
X156464000Y-70670065D01*
X156455812Y-70671143D01*
X156455811Y-70671143D01*
X156426521Y-70674999D01*
X156426509Y-70675000D01*
X156426506Y-70675000D01*
X156426497Y-70675001D01*
X156345375Y-70685682D01*
X156314678Y-70689723D01*
X156175532Y-70747359D01*
X156088717Y-70813975D01*
X156056045Y-70839045D01*
X156051019Y-70845595D01*
X156038051Y-70862495D01*
X156027184Y-70874886D01*
X155945975Y-70956095D01*
X155883663Y-70990121D01*
X155856880Y-70993000D01*
X153670000Y-70993000D01*
X153670000Y-64515000D01*
X153690002Y-64446879D01*
X153743658Y-64400386D01*
X153796000Y-64389000D01*
X161145813Y-64389000D01*
X161213934Y-64409002D01*
G37*
%TD.AperFunction*%
%TD*%
%TA.AperFunction,Conductor*%
%TO.N,/LED Current Regulator/LED2_NEG*%
G36*
X152694858Y-77921802D02*
G01*
X152741351Y-77975458D01*
X152752705Y-78030631D01*
X152728921Y-79089041D01*
X152706778Y-80074389D01*
X152685251Y-80142043D01*
X152630564Y-80187319D01*
X152621479Y-80190814D01*
X152046144Y-80387011D01*
X152000537Y-80393657D01*
X151809579Y-80386154D01*
X151807460Y-80386215D01*
X151807450Y-80386215D01*
X151232549Y-80402775D01*
X151232543Y-80402775D01*
X151230404Y-80402837D01*
X151228272Y-80403044D01*
X151228259Y-80403045D01*
X150815915Y-80443113D01*
X150653705Y-80458875D01*
X150651604Y-80459225D01*
X150651594Y-80459226D01*
X150366899Y-80506612D01*
X150082153Y-80554007D01*
X150080063Y-80554503D01*
X150080058Y-80554504D01*
X149928452Y-80590482D01*
X149518395Y-80687794D01*
X149516338Y-80688433D01*
X149516337Y-80688433D01*
X148967099Y-80858976D01*
X148967091Y-80858979D01*
X148965042Y-80859615D01*
X148762447Y-80937993D01*
X148426661Y-81067898D01*
X148426653Y-81067901D01*
X148424656Y-81068674D01*
X148348894Y-81104083D01*
X147901701Y-81313087D01*
X147901691Y-81313092D01*
X147899742Y-81314003D01*
X147392729Y-81594467D01*
X147390922Y-81595634D01*
X147094675Y-81786918D01*
X147026597Y-81807066D01*
X146958433Y-81787210D01*
X146934574Y-81767422D01*
X145600437Y-80349901D01*
X145568315Y-80286587D01*
X145575522Y-80215957D01*
X145619771Y-80160436D01*
X145687012Y-80137651D01*
X145699982Y-80137787D01*
X145754845Y-80141190D01*
X145796191Y-80143755D01*
X145796193Y-80143755D01*
X145805950Y-80144360D01*
X145815426Y-80141962D01*
X145815428Y-80141962D01*
X145852675Y-80132537D01*
X145878780Y-80125931D01*
X147978127Y-79256354D01*
X148043181Y-79217460D01*
X148049649Y-79210110D01*
X148049652Y-79210108D01*
X148122823Y-79126965D01*
X148182843Y-79089041D01*
X148225210Y-79084449D01*
X148268973Y-79087164D01*
X148336860Y-79091376D01*
X148336863Y-79091376D01*
X148346619Y-79091981D01*
X148356095Y-79089583D01*
X148356097Y-79089583D01*
X148393344Y-79080158D01*
X148419449Y-79073552D01*
X149641110Y-78567523D01*
X149645059Y-78565162D01*
X149645065Y-78565159D01*
X149697757Y-78533656D01*
X149706164Y-78528630D01*
X149790072Y-78433287D01*
X149838573Y-78315905D01*
X149846436Y-78189143D01*
X149828008Y-78116312D01*
X149826259Y-78112089D01*
X149811318Y-78076017D01*
X149803729Y-78005427D01*
X149835509Y-77941941D01*
X149896567Y-77905714D01*
X149927727Y-77901800D01*
X152626737Y-77901800D01*
X152694858Y-77921802D01*
G37*
%TD.AperFunction*%
%TD*%
%TA.AperFunction,Conductor*%
%TO.N,/LED1A*%
G36*
X136861836Y-83586002D02*
G01*
X136908329Y-83639658D01*
X136918433Y-83709932D01*
X136888939Y-83774512D01*
X136829292Y-83812873D01*
X136801273Y-83821119D01*
X136635647Y-83907705D01*
X136489995Y-84024813D01*
X136369862Y-84167981D01*
X136366899Y-84173370D01*
X136366896Y-84173375D01*
X136332775Y-84235442D01*
X136279826Y-84331757D01*
X136223315Y-84509901D01*
X136202482Y-84695630D01*
X136218121Y-84881867D01*
X136269636Y-85061520D01*
X136355064Y-85227746D01*
X136358887Y-85232570D01*
X136358890Y-85232574D01*
X136464170Y-85365402D01*
X136471152Y-85374212D01*
X136475846Y-85378207D01*
X136508819Y-85406269D01*
X136613478Y-85495342D01*
X136776621Y-85586519D01*
X136954367Y-85644272D01*
X137139945Y-85666401D01*
X137146080Y-85665929D01*
X137146082Y-85665929D01*
X137202119Y-85661617D01*
X137326287Y-85652063D01*
X137506296Y-85601804D01*
X137511785Y-85599031D01*
X137511791Y-85599029D01*
X137589159Y-85559947D01*
X137673114Y-85517538D01*
X137701524Y-85495342D01*
X137725486Y-85476621D01*
X137820387Y-85402475D01*
X137824413Y-85397811D01*
X137824416Y-85397808D01*
X137938480Y-85265663D01*
X137942507Y-85260998D01*
X138034821Y-85098495D01*
X138049091Y-85055600D01*
X138091867Y-84927009D01*
X138093814Y-84921157D01*
X138099553Y-84875727D01*
X138116796Y-84739241D01*
X138116797Y-84739232D01*
X138117238Y-84735738D01*
X138117611Y-84709000D01*
X138099373Y-84522999D01*
X138095419Y-84509901D01*
X138068982Y-84422340D01*
X138045355Y-84344083D01*
X137957615Y-84179066D01*
X137944727Y-84163264D01*
X137843388Y-84039010D01*
X137843385Y-84039007D01*
X137839493Y-84034235D01*
X137834744Y-84030306D01*
X137700239Y-83919034D01*
X137700236Y-83919032D01*
X137695489Y-83915105D01*
X137531089Y-83826214D01*
X137486350Y-83812365D01*
X137427190Y-83773114D01*
X137398643Y-83708109D01*
X137409772Y-83637990D01*
X137457043Y-83585019D01*
X137523609Y-83566000D01*
X139941242Y-83566000D01*
X139989460Y-83575591D01*
X140384218Y-83739106D01*
X140439499Y-83783655D01*
X140462000Y-83855515D01*
X140462000Y-87532177D01*
X140449200Y-87587510D01*
X140399345Y-87689503D01*
X140388500Y-87763842D01*
X140388500Y-90036158D01*
X140399538Y-90111144D01*
X140403853Y-90119932D01*
X140403853Y-90119933D01*
X140449103Y-90212095D01*
X140462000Y-90267626D01*
X140462000Y-90578206D01*
X140441998Y-90646327D01*
X140388342Y-90692820D01*
X140364862Y-90700856D01*
X137912510Y-91277880D01*
X136250313Y-91668985D01*
X136179422Y-91665117D01*
X136132359Y-91635429D01*
X135863905Y-91366975D01*
X135829879Y-91304663D01*
X135827000Y-91277880D01*
X135827000Y-90735948D01*
X135847002Y-90667827D01*
X135900658Y-90621334D01*
X135970932Y-90611230D01*
X136014470Y-90625960D01*
X136050913Y-90646327D01*
X136122054Y-90686086D01*
X136299800Y-90743839D01*
X136485378Y-90765968D01*
X136491513Y-90765496D01*
X136491515Y-90765496D01*
X136547552Y-90761184D01*
X136671720Y-90751630D01*
X136851729Y-90701371D01*
X136857218Y-90698598D01*
X136857224Y-90698596D01*
X136960697Y-90646327D01*
X137018547Y-90617105D01*
X137046957Y-90594909D01*
X137070919Y-90576188D01*
X137165820Y-90502042D01*
X137169846Y-90497378D01*
X137169849Y-90497375D01*
X137269869Y-90381500D01*
X137287940Y-90360565D01*
X137340736Y-90267626D01*
X137377211Y-90203419D01*
X137377212Y-90203418D01*
X137380254Y-90198062D01*
X137439247Y-90020724D01*
X137444636Y-89978068D01*
X137462229Y-89838808D01*
X137462230Y-89838799D01*
X137462671Y-89835305D01*
X137463044Y-89808567D01*
X137444806Y-89622566D01*
X137390788Y-89443650D01*
X137303048Y-89278633D01*
X137299153Y-89273857D01*
X137188821Y-89138577D01*
X137188818Y-89138574D01*
X137184926Y-89133802D01*
X137173537Y-89124380D01*
X137045672Y-89018601D01*
X137045669Y-89018599D01*
X137040922Y-89014672D01*
X136876522Y-88925781D01*
X136762299Y-88890423D01*
X136703874Y-88872337D01*
X136703871Y-88872336D01*
X136697987Y-88870515D01*
X136691862Y-88869871D01*
X136691861Y-88869871D01*
X136518246Y-88851623D01*
X136518245Y-88851623D01*
X136512118Y-88850979D01*
X136393520Y-88861773D01*
X136332136Y-88867359D01*
X136332135Y-88867359D01*
X136325995Y-88867918D01*
X136320081Y-88869659D01*
X136320079Y-88869659D01*
X136266216Y-88885512D01*
X136146706Y-88920686D01*
X136141241Y-88923543D01*
X136141236Y-88923545D01*
X136011374Y-88991434D01*
X135941739Y-89005268D01*
X135875678Y-88979257D01*
X135834167Y-88921661D01*
X135827000Y-88879772D01*
X135827000Y-88834985D01*
X135847002Y-88766864D01*
X135875427Y-88735696D01*
X135910526Y-88708274D01*
X135910533Y-88708268D01*
X135915387Y-88704475D01*
X135919413Y-88699811D01*
X135919416Y-88699808D01*
X136033480Y-88567663D01*
X136037507Y-88562998D01*
X136129821Y-88400495D01*
X136144091Y-88357600D01*
X136186867Y-88229009D01*
X136188814Y-88223157D01*
X136194553Y-88177727D01*
X136211796Y-88041241D01*
X136211797Y-88041232D01*
X136212238Y-88037738D01*
X136212611Y-88011000D01*
X136211300Y-87997630D01*
X136837482Y-87997630D01*
X136853121Y-88183867D01*
X136904636Y-88363520D01*
X136990064Y-88529746D01*
X136993887Y-88534570D01*
X136993890Y-88534574D01*
X137099170Y-88667402D01*
X137106152Y-88676212D01*
X137110846Y-88680207D01*
X137223000Y-88775658D01*
X137248478Y-88797342D01*
X137411621Y-88888519D01*
X137589367Y-88946272D01*
X137774945Y-88968401D01*
X137781080Y-88967929D01*
X137781082Y-88967929D01*
X137837119Y-88963617D01*
X137961287Y-88954063D01*
X138141296Y-88903804D01*
X138146785Y-88901031D01*
X138146791Y-88901029D01*
X138224159Y-88861947D01*
X138308114Y-88819538D01*
X138336524Y-88797342D01*
X138415426Y-88735696D01*
X138455387Y-88704475D01*
X138459413Y-88699811D01*
X138459416Y-88699808D01*
X138573480Y-88567663D01*
X138577507Y-88562998D01*
X138669821Y-88400495D01*
X138684091Y-88357600D01*
X138726867Y-88229009D01*
X138728814Y-88223157D01*
X138734553Y-88177727D01*
X138751796Y-88041241D01*
X138751797Y-88041232D01*
X138752238Y-88037738D01*
X138752611Y-88011000D01*
X138734373Y-87824999D01*
X138730419Y-87811901D01*
X138682136Y-87651983D01*
X138680355Y-87646083D01*
X138592615Y-87481066D01*
X138541587Y-87418500D01*
X138478388Y-87341010D01*
X138478385Y-87341007D01*
X138474493Y-87336235D01*
X138469744Y-87332306D01*
X138335239Y-87221034D01*
X138335236Y-87221032D01*
X138330489Y-87217105D01*
X138166089Y-87128214D01*
X138076821Y-87100581D01*
X137993441Y-87074770D01*
X137993438Y-87074769D01*
X137987554Y-87072948D01*
X137981429Y-87072304D01*
X137981428Y-87072304D01*
X137807813Y-87054056D01*
X137807812Y-87054056D01*
X137801685Y-87053412D01*
X137683087Y-87064206D01*
X137621703Y-87069792D01*
X137621702Y-87069792D01*
X137615562Y-87070351D01*
X137609648Y-87072092D01*
X137609646Y-87072092D01*
X137487466Y-87108052D01*
X137436273Y-87123119D01*
X137270647Y-87209705D01*
X137124995Y-87326813D01*
X137004862Y-87469981D01*
X137001899Y-87475370D01*
X137001896Y-87475375D01*
X136947211Y-87574849D01*
X136914826Y-87633757D01*
X136912965Y-87639624D01*
X136912964Y-87639626D01*
X136886570Y-87722829D01*
X136858315Y-87811901D01*
X136837482Y-87997630D01*
X136211300Y-87997630D01*
X136194373Y-87824999D01*
X136190419Y-87811901D01*
X136142136Y-87651983D01*
X136140355Y-87646083D01*
X136052615Y-87481066D01*
X136001587Y-87418500D01*
X135938388Y-87341010D01*
X135938385Y-87341007D01*
X135934493Y-87336235D01*
X135929744Y-87332306D01*
X135795239Y-87221034D01*
X135795236Y-87221032D01*
X135790489Y-87217105D01*
X135626089Y-87128214D01*
X135470740Y-87080125D01*
X135411581Y-87040875D01*
X135383034Y-86975870D01*
X135382000Y-86959761D01*
X135382000Y-83692000D01*
X135402002Y-83623879D01*
X135455658Y-83577386D01*
X135508000Y-83566000D01*
X136793715Y-83566000D01*
X136861836Y-83586002D01*
G37*
%TD.AperFunction*%
%TD*%
%TA.AperFunction,Conductor*%
%TO.N,/LED2B*%
G36*
X160398610Y-75421379D02*
G01*
X160450580Y-75469749D01*
X160467786Y-75523517D01*
X160472433Y-75578852D01*
X160475121Y-75610867D01*
X160526636Y-75790520D01*
X160558853Y-75853207D01*
X160599575Y-75932445D01*
X160612922Y-76002176D01*
X160607846Y-76027385D01*
X159779219Y-78697405D01*
X159772951Y-78713576D01*
X159769247Y-78721471D01*
X159750387Y-78750483D01*
X159744671Y-78757077D01*
X159732443Y-78769362D01*
X158750000Y-79629000D01*
X158750000Y-80772000D01*
X158958024Y-80980024D01*
X158973692Y-80999114D01*
X158980407Y-81009163D01*
X158999223Y-81054587D01*
X159001580Y-81066436D01*
X159004000Y-81091014D01*
X159004000Y-83119986D01*
X159001580Y-83144559D01*
X158999223Y-83156413D01*
X158980407Y-83201837D01*
X158973692Y-83211886D01*
X158958024Y-83230976D01*
X158598170Y-83590830D01*
X158535858Y-83624856D01*
X158465043Y-83619791D01*
X158408515Y-83577652D01*
X158381592Y-83541989D01*
X158111709Y-83230976D01*
X158003244Y-83105982D01*
X158003237Y-83105975D01*
X158001843Y-83104368D01*
X157593209Y-82693588D01*
X157157581Y-82311553D01*
X157076983Y-82250042D01*
X156698685Y-81961335D01*
X156696978Y-81960032D01*
X156213533Y-81640653D01*
X155709485Y-81354896D01*
X155624326Y-81314003D01*
X155189099Y-81105010D01*
X155189093Y-81105007D01*
X155187168Y-81104083D01*
X155185188Y-81103293D01*
X155185181Y-81103290D01*
X154650980Y-80890165D01*
X154650976Y-80890164D01*
X154649002Y-80889376D01*
X154351617Y-80793610D01*
X154099508Y-80712423D01*
X154099497Y-80712420D01*
X154097479Y-80711770D01*
X154095416Y-80711257D01*
X154095407Y-80711255D01*
X153537237Y-80572606D01*
X153535152Y-80572088D01*
X153393011Y-80546897D01*
X153329427Y-80515314D01*
X153293011Y-80454368D01*
X153289000Y-80422830D01*
X153289000Y-78694254D01*
X153295604Y-78653998D01*
X153300589Y-78639213D01*
X153341307Y-78581053D01*
X153407004Y-78554139D01*
X153426946Y-78553662D01*
X153440820Y-78554430D01*
X153442533Y-78554525D01*
X153482358Y-78563344D01*
X155276244Y-79280898D01*
X156464000Y-79756000D01*
X156515487Y-79629000D01*
X157929569Y-76140929D01*
X158187641Y-75504353D01*
X158231770Y-75448739D01*
X158298962Y-75425811D01*
X158367884Y-75442849D01*
X158416653Y-75494445D01*
X158425528Y-75516964D01*
X158431136Y-75536520D01*
X158516564Y-75702746D01*
X158520387Y-75707570D01*
X158520390Y-75707574D01*
X158586133Y-75790520D01*
X158632652Y-75849212D01*
X158637346Y-75853207D01*
X158753939Y-75952436D01*
X158774978Y-75970342D01*
X158938121Y-76061519D01*
X159115867Y-76119272D01*
X159301445Y-76141401D01*
X159307580Y-76140929D01*
X159307582Y-76140929D01*
X159363619Y-76136617D01*
X159487787Y-76127063D01*
X159667796Y-76076804D01*
X159673285Y-76074031D01*
X159673291Y-76074029D01*
X159765629Y-76027385D01*
X159834614Y-75992538D01*
X159863024Y-75970342D01*
X159911529Y-75932445D01*
X159981887Y-75877475D01*
X159985913Y-75872811D01*
X159985916Y-75872808D01*
X160099980Y-75740663D01*
X160104007Y-75735998D01*
X160196321Y-75573495D01*
X160222670Y-75494288D01*
X160263152Y-75435963D01*
X160328740Y-75408784D01*
X160398610Y-75421379D01*
G37*
%TD.AperFunction*%
%TD*%
%TA.AperFunction,Conductor*%
%TO.N,/LED Current Regulator/LED3_NEG*%
G36*
X154940000Y-74423000D02*
G01*
X154919998Y-74491121D01*
X154866342Y-74537614D01*
X154814000Y-74549000D01*
X153796000Y-74549000D01*
X153727879Y-74528998D01*
X153681386Y-74475342D01*
X153670000Y-74423000D01*
X153670000Y-70358000D01*
X154940000Y-70358000D01*
X154940000Y-74423000D01*
G37*
%TD.AperFunction*%
%TD*%
%TA.AperFunction,Conductor*%
%TO.N,/LED1C*%
G36*
X145763421Y-74303848D02*
G01*
X145791594Y-74315002D01*
X145823148Y-74327495D01*
X145832028Y-74331011D01*
X145918706Y-74341500D01*
X147451294Y-74341500D01*
X147537972Y-74331011D01*
X147546853Y-74327495D01*
X147578406Y-74315002D01*
X147606579Y-74303848D01*
X147652961Y-74295000D01*
X147709999Y-74295000D01*
X147778120Y-74315002D01*
X147827150Y-74374615D01*
X147829433Y-74380380D01*
X147832596Y-74388368D01*
X147919729Y-74503162D01*
X147919730Y-74503164D01*
X147920639Y-74504361D01*
X147920459Y-74504498D01*
X147952121Y-74562481D01*
X147955000Y-74589264D01*
X147955000Y-74599795D01*
X147939416Y-74660493D01*
X147928826Y-74679757D01*
X147872315Y-74857901D01*
X147851482Y-75043630D01*
X147851998Y-75049774D01*
X147864433Y-75197852D01*
X147867121Y-75229867D01*
X147918636Y-75409520D01*
X147921451Y-75414997D01*
X147921454Y-75415005D01*
X147941066Y-75453166D01*
X147955000Y-75510760D01*
X147955000Y-75974614D01*
X147934998Y-76042735D01*
X147877218Y-76091023D01*
X147285558Y-76336097D01*
X147281609Y-76338458D01*
X147281603Y-76338461D01*
X147248353Y-76358340D01*
X147220504Y-76374990D01*
X147136596Y-76470333D01*
X147088095Y-76587715D01*
X147087450Y-76598112D01*
X147085227Y-76633957D01*
X147080232Y-76714477D01*
X147098660Y-76787308D01*
X147208948Y-77053567D01*
X147575878Y-77939415D01*
X147583467Y-78010005D01*
X147551688Y-78073492D01*
X147521714Y-78097185D01*
X146388549Y-78741029D01*
X142450460Y-80978579D01*
X142381353Y-80994840D01*
X142314423Y-80971157D01*
X142299122Y-80958122D01*
X139746355Y-78405355D01*
X139712329Y-78343043D01*
X139717394Y-78272228D01*
X139758744Y-78216299D01*
X139775435Y-78203491D01*
X139775441Y-78203486D01*
X139775454Y-78203476D01*
X139775455Y-78203475D01*
X139805455Y-78180455D01*
X139823449Y-78157005D01*
X139834316Y-78144614D01*
X140141300Y-77837630D01*
X141790482Y-77837630D01*
X141806121Y-78023867D01*
X141857636Y-78203520D01*
X141879392Y-78245852D01*
X141932626Y-78349435D01*
X141943064Y-78369746D01*
X141946887Y-78374570D01*
X141946890Y-78374574D01*
X141993426Y-78433287D01*
X142059152Y-78516212D01*
X142063846Y-78520207D01*
X142185059Y-78623368D01*
X142201478Y-78637342D01*
X142364621Y-78728519D01*
X142542367Y-78786272D01*
X142727945Y-78808401D01*
X142734080Y-78807929D01*
X142734082Y-78807929D01*
X142790119Y-78803617D01*
X142914287Y-78794063D01*
X143094296Y-78743804D01*
X143099785Y-78741031D01*
X143099791Y-78741029D01*
X143177159Y-78701947D01*
X143261114Y-78659538D01*
X143289524Y-78637342D01*
X143366615Y-78577111D01*
X143408387Y-78544475D01*
X143412413Y-78539811D01*
X143412416Y-78539808D01*
X143526480Y-78407663D01*
X143530507Y-78402998D01*
X143622821Y-78240495D01*
X143637091Y-78197600D01*
X143654717Y-78144614D01*
X143681814Y-78063157D01*
X143688529Y-78010005D01*
X143704796Y-77881241D01*
X143704797Y-77881232D01*
X143705238Y-77877738D01*
X143705611Y-77851000D01*
X143687373Y-77664999D01*
X143683419Y-77651901D01*
X143664760Y-77590103D01*
X143633355Y-77486083D01*
X143545615Y-77321066D01*
X143436025Y-77186696D01*
X143431388Y-77181010D01*
X143431385Y-77181007D01*
X143427493Y-77176235D01*
X143422744Y-77172306D01*
X143288239Y-77061034D01*
X143288236Y-77061032D01*
X143283489Y-77057105D01*
X143119089Y-76968214D01*
X143029822Y-76940581D01*
X142946441Y-76914770D01*
X142946438Y-76914769D01*
X142940554Y-76912948D01*
X142934429Y-76912304D01*
X142934428Y-76912304D01*
X142760813Y-76894056D01*
X142760812Y-76894056D01*
X142754685Y-76893412D01*
X142636087Y-76904206D01*
X142574703Y-76909792D01*
X142574702Y-76909792D01*
X142568562Y-76910351D01*
X142562648Y-76912092D01*
X142562646Y-76912092D01*
X142440466Y-76948052D01*
X142389273Y-76963119D01*
X142223647Y-77049705D01*
X142077995Y-77166813D01*
X141957862Y-77309981D01*
X141954899Y-77315370D01*
X141954896Y-77315375D01*
X141881509Y-77448868D01*
X141867826Y-77473757D01*
X141811315Y-77651901D01*
X141790482Y-77837630D01*
X140141300Y-77837630D01*
X140326114Y-77652816D01*
X140338505Y-77641949D01*
X140355402Y-77628984D01*
X140355405Y-77628981D01*
X140361955Y-77623955D01*
X140386827Y-77591542D01*
X140453641Y-77504468D01*
X140511277Y-77365322D01*
X140530936Y-77216000D01*
X140527078Y-77186696D01*
X140526000Y-77170249D01*
X140526000Y-76702078D01*
X140546002Y-76633957D01*
X140567544Y-76608573D01*
X141140546Y-76091023D01*
X141482468Y-75782190D01*
X141546428Y-75751373D01*
X141557250Y-75750067D01*
X141609287Y-75746063D01*
X141789296Y-75695804D01*
X141794785Y-75693031D01*
X141794791Y-75693029D01*
X141872159Y-75653947D01*
X141956114Y-75611538D01*
X141984524Y-75589342D01*
X142008486Y-75570621D01*
X142103387Y-75496475D01*
X142107413Y-75491811D01*
X142107416Y-75491808D01*
X142221480Y-75359663D01*
X142225507Y-75354998D01*
X142317821Y-75192495D01*
X142337010Y-75134813D01*
X142374866Y-75021013D01*
X142376814Y-75015157D01*
X142377588Y-75009031D01*
X142378857Y-75003444D01*
X142417270Y-74937853D01*
X143093024Y-74327495D01*
X143156983Y-74296678D01*
X143177479Y-74295000D01*
X145717039Y-74295000D01*
X145763421Y-74303848D01*
G37*
%TD.AperFunction*%
%TD*%
%TA.AperFunction,Conductor*%
%TO.N,/LED2C*%
G36*
X162083721Y-76220001D02*
G01*
X162134948Y-76269157D01*
X162151622Y-76333165D01*
X162102800Y-80873600D01*
X162112719Y-80889098D01*
X162112719Y-80889099D01*
X162909844Y-82134607D01*
X162919761Y-82153437D01*
X163634971Y-83844071D01*
X163643091Y-83914602D01*
X163611789Y-83978325D01*
X163564533Y-84010619D01*
X159703752Y-85509510D01*
X159633013Y-85515517D01*
X159570253Y-85482326D01*
X159544286Y-85445997D01*
X159331586Y-84997041D01*
X159331579Y-84997027D01*
X159330654Y-84995075D01*
X159047540Y-84489537D01*
X158905195Y-84271596D01*
X158815936Y-84134935D01*
X158795431Y-84066964D01*
X158814930Y-83998697D01*
X158830569Y-83978738D01*
X160033860Y-82726333D01*
X160035624Y-82724534D01*
X160599568Y-82160590D01*
X160604886Y-82153437D01*
X160638942Y-82107623D01*
X160644786Y-82099762D01*
X160646465Y-82094845D01*
X160664162Y-82070304D01*
X160949736Y-81773074D01*
X160962288Y-81760010D01*
X160953565Y-81751060D01*
X160953564Y-81751058D01*
X159296791Y-80051125D01*
X159263570Y-79988380D01*
X159269545Y-79917635D01*
X159300773Y-79871331D01*
X160073732Y-79145489D01*
X160073733Y-79145488D01*
X160085042Y-79134868D01*
X161000104Y-76435435D01*
X161040916Y-76377342D01*
X161106658Y-76350535D01*
X161158369Y-76356052D01*
X161211367Y-76373272D01*
X161396945Y-76395401D01*
X161403080Y-76394929D01*
X161403082Y-76394929D01*
X161459119Y-76390617D01*
X161583287Y-76381063D01*
X161763296Y-76330804D01*
X161768785Y-76328031D01*
X161768791Y-76328029D01*
X161846159Y-76288947D01*
X161930114Y-76246538D01*
X161934973Y-76242742D01*
X161948056Y-76232521D01*
X162014050Y-76206343D01*
X162083721Y-76220001D01*
G37*
%TD.AperFunction*%
%TD*%
%TA.AperFunction,Conductor*%
%TO.N,/LED4A*%
G36*
X152990200Y-100858002D02*
G01*
X153036693Y-100911658D01*
X153046797Y-100981932D01*
X153018601Y-101044991D01*
X153006862Y-101058981D01*
X153003899Y-101064370D01*
X153003896Y-101064375D01*
X152937840Y-101184532D01*
X152916826Y-101222757D01*
X152860315Y-101400901D01*
X152839482Y-101586630D01*
X152839998Y-101592774D01*
X152854164Y-101761468D01*
X152855121Y-101772867D01*
X152906636Y-101952520D01*
X152931847Y-102001575D01*
X152975922Y-102087336D01*
X152992064Y-102118746D01*
X152995887Y-102123570D01*
X152995890Y-102123574D01*
X153101170Y-102256402D01*
X153108152Y-102265212D01*
X153112846Y-102269207D01*
X153145819Y-102297269D01*
X153250478Y-102386342D01*
X153413621Y-102477519D01*
X153591367Y-102535272D01*
X153776945Y-102557401D01*
X153783080Y-102556929D01*
X153783082Y-102556929D01*
X153839119Y-102552617D01*
X153963287Y-102543063D01*
X154143296Y-102492804D01*
X154148785Y-102490031D01*
X154148791Y-102490029D01*
X154226159Y-102450947D01*
X154310114Y-102408538D01*
X154338524Y-102386342D01*
X154362486Y-102367621D01*
X154457387Y-102293475D01*
X154461413Y-102288811D01*
X154461416Y-102288808D01*
X154575480Y-102156663D01*
X154579507Y-102151998D01*
X154585069Y-102142208D01*
X154640290Y-102045000D01*
X154649819Y-102028226D01*
X154700858Y-101978876D01*
X154770476Y-101964953D01*
X154807489Y-101974011D01*
X154813560Y-101976519D01*
X154813561Y-101976519D01*
X154823188Y-101980497D01*
X154833584Y-101981142D01*
X154940192Y-101987756D01*
X154940195Y-101987756D01*
X154949951Y-101988361D01*
X154959427Y-101985963D01*
X154959429Y-101985963D01*
X155018359Y-101971051D01*
X155018360Y-101971051D01*
X155022781Y-101969932D01*
X155026992Y-101968188D01*
X155028336Y-101967742D01*
X155099290Y-101965283D01*
X155160310Y-102001575D01*
X155192022Y-102065096D01*
X155194000Y-102087336D01*
X155194000Y-102511424D01*
X155173998Y-102579545D01*
X155166611Y-102588712D01*
X155167045Y-102589045D01*
X155075359Y-102708532D01*
X155017723Y-102847678D01*
X155003000Y-102959508D01*
X155003000Y-102959514D01*
X154998065Y-102997000D01*
X154999143Y-103005188D01*
X154999143Y-103005189D01*
X155001922Y-103026298D01*
X155003000Y-103042744D01*
X155003000Y-104585000D01*
X154982998Y-104653121D01*
X154929342Y-104699614D01*
X154877000Y-104711000D01*
X153969744Y-104711000D01*
X153953298Y-104709922D01*
X153932189Y-104707143D01*
X153932188Y-104707143D01*
X153924000Y-104706065D01*
X153915812Y-104707143D01*
X153915811Y-104707143D01*
X153886521Y-104710999D01*
X153886509Y-104711000D01*
X153886506Y-104711000D01*
X153886497Y-104711001D01*
X153805375Y-104721682D01*
X153774678Y-104725723D01*
X153635532Y-104783359D01*
X153516045Y-104875045D01*
X153511019Y-104881595D01*
X153498051Y-104898495D01*
X153487184Y-104910886D01*
X151121388Y-107276682D01*
X151108997Y-107287549D01*
X151085547Y-107305543D01*
X150993861Y-107425030D01*
X150936225Y-107564176D01*
X150921502Y-107676006D01*
X150921502Y-107676012D01*
X150916567Y-107713498D01*
X150917645Y-107721686D01*
X150917645Y-107721687D01*
X150920424Y-107742796D01*
X150921502Y-107759242D01*
X150921502Y-108332000D01*
X150901500Y-108400121D01*
X150847844Y-108446614D01*
X150795502Y-108458000D01*
X148444510Y-108458000D01*
X148376389Y-108437998D01*
X148329896Y-108384342D01*
X148319904Y-108350691D01*
X148226611Y-107728740D01*
X148236287Y-107658406D01*
X148262122Y-107620954D01*
X148272949Y-107610127D01*
X148354168Y-107472792D01*
X148356380Y-107465179D01*
X148396888Y-107325751D01*
X148396889Y-107325746D01*
X148398682Y-107319574D01*
X148399787Y-107305543D01*
X148401307Y-107286226D01*
X148401307Y-107286218D01*
X148401500Y-107283770D01*
X148401500Y-106631230D01*
X148398682Y-106595426D01*
X148396889Y-106589254D01*
X148396888Y-106589249D01*
X148356380Y-106449821D01*
X148356379Y-106449819D01*
X148354168Y-106442208D01*
X148272949Y-106304873D01*
X148160127Y-106192051D01*
X148153305Y-106188016D01*
X148153303Y-106188015D01*
X148094863Y-106153454D01*
X148046410Y-106101561D01*
X148033704Y-106031711D01*
X148060779Y-105966080D01*
X148094863Y-105936546D01*
X148153303Y-105901985D01*
X148153305Y-105901984D01*
X148160127Y-105897949D01*
X148272949Y-105785127D01*
X148354168Y-105647792D01*
X148356380Y-105640179D01*
X148396888Y-105500751D01*
X148396889Y-105500746D01*
X148398682Y-105494574D01*
X148401500Y-105458770D01*
X148401500Y-104806230D01*
X148399700Y-104783359D01*
X148399187Y-104776836D01*
X148399186Y-104776831D01*
X148398682Y-104770426D01*
X148396889Y-104764254D01*
X148396888Y-104764249D01*
X148356380Y-104624821D01*
X148356379Y-104624819D01*
X148354168Y-104617208D01*
X148272949Y-104479873D01*
X148160127Y-104367051D01*
X148022792Y-104285832D01*
X147934850Y-104260282D01*
X147875015Y-104222068D01*
X147853595Y-104187504D01*
X147819641Y-104105532D01*
X147727955Y-103986045D01*
X147704505Y-103968051D01*
X147692114Y-103957184D01*
X147684718Y-103949788D01*
X147650692Y-103887476D01*
X147649210Y-103879402D01*
X147501894Y-102897293D01*
X147500500Y-102878602D01*
X147500500Y-102331230D01*
X147497682Y-102295426D01*
X147495889Y-102289254D01*
X147495888Y-102289249D01*
X147455380Y-102149821D01*
X147455379Y-102149819D01*
X147453168Y-102142208D01*
X147379207Y-102017145D01*
X147363055Y-101971698D01*
X147214704Y-100982691D01*
X147224380Y-100912357D01*
X147270545Y-100858419D01*
X147339310Y-100838000D01*
X152922079Y-100838000D01*
X152990200Y-100858002D01*
G37*
%TD.AperFunction*%
%TD*%
%TA.AperFunction,Conductor*%
%TO.N,/LED Current Regulator/LED4_NEG*%
G36*
X165349029Y-77363002D02*
G01*
X165381271Y-77392821D01*
X165392988Y-77408257D01*
X165462139Y-77499361D01*
X165578132Y-77587404D01*
X165586113Y-77590564D01*
X165586115Y-77590565D01*
X165587247Y-77591013D01*
X165713528Y-77641011D01*
X165721566Y-77641984D01*
X165721567Y-77641984D01*
X165752514Y-77645729D01*
X165800206Y-77651500D01*
X166182794Y-77651500D01*
X166230486Y-77645729D01*
X166261433Y-77641984D01*
X166261434Y-77641984D01*
X166269472Y-77641011D01*
X166395753Y-77591013D01*
X166396885Y-77590565D01*
X166396887Y-77590564D01*
X166404868Y-77587404D01*
X166520861Y-77499361D01*
X166590012Y-77408257D01*
X166601729Y-77392821D01*
X166658847Y-77350654D01*
X166702092Y-77343000D01*
X167180908Y-77343000D01*
X167249029Y-77363002D01*
X167281271Y-77392821D01*
X167292988Y-77408257D01*
X167362139Y-77499361D01*
X167478132Y-77587404D01*
X167486113Y-77590564D01*
X167486115Y-77590565D01*
X167487247Y-77591013D01*
X167613528Y-77641011D01*
X167621566Y-77641984D01*
X167621567Y-77641984D01*
X167652514Y-77645729D01*
X167700206Y-77651500D01*
X168082794Y-77651500D01*
X168130486Y-77645729D01*
X168161433Y-77641984D01*
X168161434Y-77641984D01*
X168169472Y-77641011D01*
X168295753Y-77591013D01*
X168296885Y-77590565D01*
X168296887Y-77590564D01*
X168304868Y-77587404D01*
X168420861Y-77499361D01*
X168490012Y-77408257D01*
X168501729Y-77392821D01*
X168558847Y-77350654D01*
X168602092Y-77343000D01*
X169419000Y-77343000D01*
X169487121Y-77363002D01*
X169533614Y-77416658D01*
X169545000Y-77469000D01*
X169545000Y-80772000D01*
X172339000Y-83058000D01*
X175768872Y-83058000D01*
X175836993Y-83078002D01*
X175883486Y-83131658D01*
X175894872Y-83184128D01*
X175885987Y-91952251D01*
X175865916Y-92020351D01*
X175812213Y-92066790D01*
X175741929Y-92076822D01*
X175681405Y-92050616D01*
X166524637Y-84744947D01*
X166495477Y-84711781D01*
X166492773Y-84707321D01*
X166497000Y-84709000D01*
X166484064Y-84695229D01*
X162594165Y-80554369D01*
X162562103Y-80491025D01*
X162560000Y-80468100D01*
X162560000Y-79996630D01*
X162872482Y-79996630D01*
X162872998Y-80002774D01*
X162885289Y-80149138D01*
X162888121Y-80182867D01*
X162939636Y-80362520D01*
X162961392Y-80404852D01*
X162992647Y-80465668D01*
X163025064Y-80528746D01*
X163028887Y-80533570D01*
X163028890Y-80533574D01*
X163114259Y-80641282D01*
X163141152Y-80675212D01*
X163145846Y-80679207D01*
X163254877Y-80772000D01*
X163283478Y-80796342D01*
X163446621Y-80887519D01*
X163624367Y-80945272D01*
X163809945Y-80967401D01*
X163816080Y-80966929D01*
X163816082Y-80966929D01*
X163872119Y-80962617D01*
X163996287Y-80953063D01*
X164176296Y-80902804D01*
X164181785Y-80900031D01*
X164181791Y-80900029D01*
X164292068Y-80844323D01*
X164343114Y-80818538D01*
X164371524Y-80796342D01*
X164395486Y-80777621D01*
X164490387Y-80703475D01*
X164494413Y-80698811D01*
X164494416Y-80698808D01*
X164608480Y-80566663D01*
X164612507Y-80561998D01*
X164704821Y-80399495D01*
X164719091Y-80356600D01*
X164734218Y-80311126D01*
X164763814Y-80222157D01*
X164771166Y-80163959D01*
X164786796Y-80040241D01*
X164786797Y-80040232D01*
X164787238Y-80036738D01*
X164787611Y-80010000D01*
X164769373Y-79823999D01*
X164765419Y-79810901D01*
X164743104Y-79736993D01*
X164715355Y-79645083D01*
X164627615Y-79480066D01*
X164614727Y-79464264D01*
X164513388Y-79340010D01*
X164513385Y-79340007D01*
X164509493Y-79335235D01*
X164504744Y-79331306D01*
X164370239Y-79220034D01*
X164370236Y-79220032D01*
X164365489Y-79216105D01*
X164201089Y-79127214D01*
X164111822Y-79099581D01*
X164028441Y-79073770D01*
X164028438Y-79073769D01*
X164022554Y-79071948D01*
X164016429Y-79071304D01*
X164016428Y-79071304D01*
X163842813Y-79053056D01*
X163842812Y-79053056D01*
X163836685Y-79052412D01*
X163718087Y-79063206D01*
X163656703Y-79068792D01*
X163656702Y-79068792D01*
X163650562Y-79069351D01*
X163644648Y-79071092D01*
X163644646Y-79071092D01*
X163522466Y-79107052D01*
X163471273Y-79122119D01*
X163305647Y-79208705D01*
X163159995Y-79325813D01*
X163039862Y-79468981D01*
X163036899Y-79474370D01*
X163036896Y-79474375D01*
X162989356Y-79560852D01*
X162949826Y-79632757D01*
X162893315Y-79810901D01*
X162872482Y-79996630D01*
X162560000Y-79996630D01*
X162560000Y-77469000D01*
X162580002Y-77400879D01*
X162633658Y-77354386D01*
X162686000Y-77343000D01*
X165280908Y-77343000D01*
X165349029Y-77363002D01*
G37*
%TD.AperFunction*%
%TD*%
%TA.AperFunction,Conductor*%
%TO.N,/LED3B*%
G36*
X159447956Y-92819018D02*
G01*
X166977288Y-95821220D01*
X167033156Y-95865030D01*
X167056470Y-95932089D01*
X167046317Y-95988162D01*
X166671503Y-96857137D01*
X166626157Y-96911765D01*
X166614181Y-96918896D01*
X166480647Y-96988705D01*
X166334995Y-97105813D01*
X166214862Y-97248981D01*
X166211896Y-97254375D01*
X166211896Y-97254376D01*
X166189002Y-97296020D01*
X166138656Y-97346079D01*
X166069239Y-97360972D01*
X166040537Y-97355436D01*
X166010999Y-97346079D01*
X164467484Y-96857137D01*
X161213465Y-95826355D01*
X161213462Y-95826355D01*
X161206440Y-95824130D01*
X157418554Y-95546099D01*
X157352081Y-95521164D01*
X157309640Y-95464249D01*
X157304708Y-95393424D01*
X157338849Y-95331175D01*
X157346693Y-95323994D01*
X157461953Y-95227108D01*
X157463481Y-95225635D01*
X157463491Y-95225626D01*
X157763908Y-94936023D01*
X157879101Y-94824976D01*
X158267931Y-94395403D01*
X158315138Y-94335522D01*
X158625319Y-93942059D01*
X158625322Y-93942055D01*
X158626644Y-93940378D01*
X158899026Y-93541829D01*
X158952361Y-93463790D01*
X158952368Y-93463780D01*
X158953577Y-93462010D01*
X159247216Y-92962512D01*
X159288576Y-92879738D01*
X159336918Y-92827741D01*
X159405697Y-92810134D01*
X159447956Y-92819018D01*
G37*
%TD.AperFunction*%
%TD*%
%TA.AperFunction,Conductor*%
%TO.N,/LED Current Regulator/LED1_NEG*%
G36*
X144589997Y-83996136D02*
G01*
X144654791Y-84025159D01*
X144693608Y-84084604D01*
X144694124Y-84155599D01*
X144677738Y-84190983D01*
X144548738Y-84384046D01*
X144529045Y-84413518D01*
X144240652Y-84916063D01*
X143987108Y-85437059D01*
X143769586Y-85974094D01*
X143730465Y-86093431D01*
X143597580Y-86498797D01*
X143589095Y-86524680D01*
X143446470Y-87086267D01*
X143342372Y-87656254D01*
X143342129Y-87658401D01*
X143342129Y-87658403D01*
X143315554Y-87893478D01*
X143277283Y-88232002D01*
X143251504Y-88810844D01*
X143255266Y-88970486D01*
X143265155Y-89390098D01*
X143265353Y-89392251D01*
X143312511Y-89905471D01*
X143298826Y-89975136D01*
X143249650Y-90026343D01*
X143187040Y-90043000D01*
X141224074Y-90043000D01*
X141155953Y-90022998D01*
X141109460Y-89969342D01*
X141098079Y-89915931D01*
X141122139Y-87081141D01*
X141142718Y-87013192D01*
X141199814Y-86965843D01*
X141289246Y-86928708D01*
X141289248Y-86928707D01*
X141298861Y-86924715D01*
X141394056Y-86840641D01*
X141432524Y-86776111D01*
X141484369Y-86650946D01*
X142300338Y-84681021D01*
X142300339Y-84681017D01*
X142302101Y-84676764D01*
X142320599Y-84603262D01*
X142319976Y-84593490D01*
X142319976Y-84593487D01*
X142312925Y-84482957D01*
X142328550Y-84413701D01*
X142355261Y-84380495D01*
X142377028Y-84361271D01*
X142446436Y-84299972D01*
X142451442Y-84291575D01*
X142451444Y-84291572D01*
X142482569Y-84239358D01*
X142482571Y-84239354D01*
X142484903Y-84235442D01*
X142519488Y-84151947D01*
X142564035Y-84096667D01*
X142635896Y-84074166D01*
X143577850Y-84074166D01*
X143591458Y-84074903D01*
X143623305Y-84078363D01*
X143623309Y-84078363D01*
X143629430Y-84079028D01*
X143666298Y-84075803D01*
X143679816Y-84074620D01*
X143684644Y-84074291D01*
X143687199Y-84074166D01*
X143690283Y-84074166D01*
X143705657Y-84072658D01*
X143733345Y-84069944D01*
X143734658Y-84069822D01*
X143774755Y-84066314D01*
X143828018Y-84061654D01*
X143833178Y-84060155D01*
X143838520Y-84059631D01*
X143928222Y-84032549D01*
X143929362Y-84032211D01*
X144019448Y-84006038D01*
X144024216Y-84003566D01*
X144029358Y-84002014D01*
X144034803Y-83999119D01*
X144034810Y-83999116D01*
X144112076Y-83958033D01*
X144113178Y-83957454D01*
X144116140Y-83955918D01*
X144117978Y-83954966D01*
X144192968Y-83941996D01*
X144589997Y-83996136D01*
G37*
%TD.AperFunction*%
%TD*%
%TA.AperFunction,Conductor*%
%TO.N,/LED1B*%
G36*
X139363586Y-78657586D02*
G01*
X143002000Y-82296000D01*
X143928905Y-81369095D01*
X143991217Y-81335069D01*
X144062032Y-81340134D01*
X144107095Y-81369095D01*
X144682438Y-81944438D01*
X144716464Y-82006750D01*
X144711399Y-82077565D01*
X144674007Y-82130327D01*
X144018000Y-82677000D01*
X143546905Y-83148095D01*
X143484593Y-83182121D01*
X143457810Y-83185000D01*
X135508000Y-83185000D01*
X135439879Y-83164998D01*
X135393386Y-83111342D01*
X135382000Y-83059000D01*
X135382000Y-79855612D01*
X135402002Y-79787491D01*
X135455658Y-79740998D01*
X135525932Y-79730894D01*
X135590512Y-79760388D01*
X135620066Y-79798017D01*
X135669264Y-79893746D01*
X135673087Y-79898570D01*
X135673090Y-79898574D01*
X135681966Y-79909772D01*
X135785352Y-80040212D01*
X135790046Y-80044207D01*
X135886071Y-80125931D01*
X135927678Y-80161342D01*
X136090821Y-80252519D01*
X136268567Y-80310272D01*
X136454145Y-80332401D01*
X136460280Y-80331929D01*
X136460282Y-80331929D01*
X136580342Y-80322691D01*
X136649796Y-80337408D01*
X136700268Y-80387339D01*
X136715223Y-80462365D01*
X136710482Y-80504630D01*
X136710998Y-80510774D01*
X136716848Y-80580434D01*
X136726121Y-80690867D01*
X136727819Y-80696788D01*
X136727819Y-80696789D01*
X136732115Y-80711770D01*
X136777636Y-80870520D01*
X136863064Y-81036746D01*
X136866887Y-81041570D01*
X136866890Y-81041574D01*
X136916435Y-81104083D01*
X136979152Y-81183212D01*
X136983846Y-81187207D01*
X137016819Y-81215269D01*
X137121478Y-81304342D01*
X137284621Y-81395519D01*
X137462367Y-81453272D01*
X137647945Y-81475401D01*
X137654080Y-81474929D01*
X137654082Y-81474929D01*
X137710119Y-81470617D01*
X137834287Y-81461063D01*
X138014296Y-81410804D01*
X138019785Y-81408031D01*
X138019791Y-81408029D01*
X138097159Y-81368947D01*
X138181114Y-81326538D01*
X138209524Y-81304342D01*
X138233486Y-81285621D01*
X138328387Y-81211475D01*
X138332413Y-81206811D01*
X138332416Y-81206808D01*
X138408669Y-81118468D01*
X138450507Y-81069998D01*
X138542821Y-80907495D01*
X138548849Y-80889376D01*
X138599867Y-80736009D01*
X138601814Y-80730157D01*
X138621783Y-80572088D01*
X138624796Y-80548241D01*
X138624797Y-80548232D01*
X138625238Y-80544738D01*
X138625611Y-80518000D01*
X138607373Y-80331999D01*
X138603419Y-80318901D01*
X138556756Y-80164348D01*
X138553355Y-80153083D01*
X138465615Y-79988066D01*
X138461723Y-79983294D01*
X138461717Y-79983285D01*
X138455126Y-79975204D01*
X138427574Y-79909772D01*
X138439771Y-79839831D01*
X138443215Y-79833334D01*
X138479274Y-79769858D01*
X138482321Y-79764495D01*
X138541314Y-79587157D01*
X138546703Y-79544501D01*
X138564296Y-79405241D01*
X138564297Y-79405232D01*
X138564738Y-79401738D01*
X138565111Y-79375000D01*
X138546873Y-79188999D01*
X138545092Y-79183100D01*
X138545091Y-79183095D01*
X138506090Y-79053918D01*
X138505549Y-78982923D01*
X138543477Y-78922907D01*
X138607831Y-78892923D01*
X138626712Y-78891500D01*
X138783794Y-78891500D01*
X138831486Y-78885729D01*
X138862433Y-78881984D01*
X138862434Y-78881984D01*
X138870472Y-78881011D01*
X138975633Y-78839375D01*
X138997885Y-78830565D01*
X138997887Y-78830564D01*
X139005868Y-78827404D01*
X139121861Y-78739361D01*
X139174129Y-78670500D01*
X139231246Y-78628334D01*
X139302094Y-78623742D01*
X139363586Y-78657586D01*
G37*
%TD.AperFunction*%
%TD*%
%TA.AperFunction,Conductor*%
%TO.N,/LED Current Regulator/LED1_NEG*%
G36*
X139368352Y-64690095D02*
G01*
X139423582Y-64734707D01*
X139446000Y-64806448D01*
X139446000Y-68777967D01*
X139425998Y-68846088D01*
X139372342Y-68892581D01*
X139331421Y-68903448D01*
X139272703Y-68908792D01*
X139272702Y-68908792D01*
X139266562Y-68909351D01*
X139260648Y-68911092D01*
X139260646Y-68911092D01*
X139257738Y-68911948D01*
X139087273Y-68962119D01*
X138921647Y-69048705D01*
X138775995Y-69165813D01*
X138655862Y-69308981D01*
X138652899Y-69314370D01*
X138652896Y-69314375D01*
X138633114Y-69350359D01*
X138565826Y-69472757D01*
X138509315Y-69650901D01*
X138488482Y-69836630D01*
X138488998Y-69842774D01*
X138502144Y-69999322D01*
X138504121Y-70022867D01*
X138555636Y-70202520D01*
X138641064Y-70368746D01*
X138644887Y-70373570D01*
X138644890Y-70373574D01*
X138750170Y-70506402D01*
X138757152Y-70515212D01*
X138899478Y-70636342D01*
X139062621Y-70727519D01*
X139240367Y-70785272D01*
X139280993Y-70790116D01*
X139334919Y-70796547D01*
X139400192Y-70824475D01*
X139440005Y-70883258D01*
X139446000Y-70921661D01*
X139446000Y-74944189D01*
X139425998Y-75012310D01*
X139398957Y-75042381D01*
X139283995Y-75134813D01*
X139163862Y-75277981D01*
X139160899Y-75283370D01*
X139160896Y-75283375D01*
X139096570Y-75400385D01*
X139073826Y-75441757D01*
X139017315Y-75619901D01*
X138996482Y-75805630D01*
X139012121Y-75991867D01*
X139063636Y-76171520D01*
X139149064Y-76337746D01*
X139152887Y-76342570D01*
X139152890Y-76342574D01*
X139175419Y-76370998D01*
X139265152Y-76484212D01*
X139269846Y-76488207D01*
X139337663Y-76545924D01*
X139376576Y-76605307D01*
X139382000Y-76641878D01*
X139382000Y-76709000D01*
X139361998Y-76777121D01*
X139308342Y-76823614D01*
X139256000Y-76835000D01*
X139201764Y-76835000D01*
X139133643Y-76814998D01*
X139121925Y-76805555D01*
X139121861Y-76805639D01*
X139064451Y-76762063D01*
X139005868Y-76717596D01*
X138997887Y-76714436D01*
X138997885Y-76714435D01*
X138930988Y-76687949D01*
X138870472Y-76663989D01*
X138862434Y-76663016D01*
X138862433Y-76663016D01*
X138831486Y-76659271D01*
X138783794Y-76653500D01*
X138401206Y-76653500D01*
X138353514Y-76659271D01*
X138322567Y-76663016D01*
X138322566Y-76663016D01*
X138314528Y-76663989D01*
X138254012Y-76687949D01*
X138187115Y-76714435D01*
X138187113Y-76714436D01*
X138179132Y-76717596D01*
X138063139Y-76805639D01*
X138061784Y-76803854D01*
X138010019Y-76832121D01*
X137983236Y-76835000D01*
X137301764Y-76835000D01*
X137233643Y-76814998D01*
X137221925Y-76805555D01*
X137221861Y-76805639D01*
X137164451Y-76762063D01*
X137105868Y-76717596D01*
X137097887Y-76714436D01*
X137097885Y-76714435D01*
X137030988Y-76687949D01*
X136970472Y-76663989D01*
X136962434Y-76663016D01*
X136962433Y-76663016D01*
X136931486Y-76659271D01*
X136883794Y-76653500D01*
X136501206Y-76653500D01*
X136453514Y-76659271D01*
X136422567Y-76663016D01*
X136422566Y-76663016D01*
X136414528Y-76663989D01*
X136354012Y-76687949D01*
X136287115Y-76714435D01*
X136287113Y-76714436D01*
X136279132Y-76717596D01*
X136163139Y-76805639D01*
X136161784Y-76803854D01*
X136110019Y-76832121D01*
X136083236Y-76835000D01*
X135762000Y-76835000D01*
X135693879Y-76814998D01*
X135647386Y-76761342D01*
X135636000Y-76709000D01*
X135636000Y-76502982D01*
X135649658Y-76453046D01*
X135646985Y-76451889D01*
X135650133Y-76444616D01*
X135654168Y-76437792D01*
X135656380Y-76430179D01*
X135696888Y-76290751D01*
X135696889Y-76290746D01*
X135698682Y-76284574D01*
X135701500Y-76248770D01*
X135701500Y-75596230D01*
X135698682Y-75560426D01*
X135696889Y-75554254D01*
X135696888Y-75554249D01*
X135656380Y-75414821D01*
X135656379Y-75414819D01*
X135654168Y-75407208D01*
X135572949Y-75269873D01*
X135460127Y-75157051D01*
X135322792Y-75075832D01*
X135315181Y-75073621D01*
X135315179Y-75073620D01*
X135175751Y-75033112D01*
X135175746Y-75033111D01*
X135169574Y-75031318D01*
X135163169Y-75030814D01*
X135163164Y-75030813D01*
X135136226Y-75028693D01*
X135136218Y-75028693D01*
X135133770Y-75028500D01*
X134106230Y-75028500D01*
X134103782Y-75028693D01*
X134103774Y-75028693D01*
X134076836Y-75030813D01*
X134076831Y-75030814D01*
X134070426Y-75031318D01*
X134064254Y-75033111D01*
X134064249Y-75033112D01*
X133924821Y-75073620D01*
X133924819Y-75073621D01*
X133917208Y-75075832D01*
X133910383Y-75079868D01*
X133910379Y-75079870D01*
X133862575Y-75108141D01*
X133793759Y-75125601D01*
X133726428Y-75103084D01*
X133718121Y-75096773D01*
X133636239Y-75029034D01*
X133636236Y-75029032D01*
X133631489Y-75025105D01*
X133467089Y-74936214D01*
X133377822Y-74908581D01*
X133294441Y-74882770D01*
X133294438Y-74882769D01*
X133288554Y-74880948D01*
X133282429Y-74880304D01*
X133282428Y-74880304D01*
X133108813Y-74862056D01*
X133108812Y-74862056D01*
X133102685Y-74861412D01*
X132984087Y-74872206D01*
X132922703Y-74877792D01*
X132922702Y-74877792D01*
X132916562Y-74878351D01*
X132910648Y-74880092D01*
X132910646Y-74880092D01*
X132788466Y-74916052D01*
X132737273Y-74931119D01*
X132571647Y-75017705D01*
X132425995Y-75134813D01*
X132305862Y-75277981D01*
X132302899Y-75283370D01*
X132302896Y-75283375D01*
X132238570Y-75400385D01*
X132215826Y-75441757D01*
X132166041Y-75598700D01*
X132164328Y-75604099D01*
X132124665Y-75662983D01*
X132059462Y-75691075D01*
X132044226Y-75692000D01*
X127878538Y-75692000D01*
X127810417Y-75671998D01*
X127763924Y-75618342D01*
X127753820Y-75548068D01*
X127757400Y-75531338D01*
X127940396Y-74891797D01*
X127942307Y-74885706D01*
X127943934Y-74880948D01*
X128185812Y-74173312D01*
X128188029Y-74167325D01*
X128467312Y-73468153D01*
X128469829Y-73462287D01*
X128784170Y-72778150D01*
X128786982Y-72772418D01*
X129135566Y-72105090D01*
X129138664Y-72099509D01*
X129520597Y-71450699D01*
X129523973Y-71445281D01*
X129938291Y-70816627D01*
X129941918Y-70811416D01*
X130266977Y-70368746D01*
X130387550Y-70204547D01*
X130391458Y-70199499D01*
X130867229Y-69616012D01*
X130871387Y-69611168D01*
X131376131Y-69052494D01*
X131380530Y-69047868D01*
X131912868Y-68515530D01*
X131917494Y-68511131D01*
X132476168Y-68006387D01*
X132481012Y-68002229D01*
X133064499Y-67526458D01*
X133069547Y-67522550D01*
X133676416Y-67076918D01*
X133681627Y-67073291D01*
X134310292Y-66658966D01*
X134315699Y-66655597D01*
X134719339Y-66417987D01*
X134964520Y-66273658D01*
X134970080Y-66270572D01*
X135637418Y-65921982D01*
X135643150Y-65919170D01*
X136327287Y-65604829D01*
X136333153Y-65602312D01*
X137032325Y-65323029D01*
X137038312Y-65320812D01*
X137192142Y-65268231D01*
X137750721Y-65077302D01*
X137756782Y-65075400D01*
X138480653Y-64868274D01*
X138486833Y-64866674D01*
X139220230Y-64696486D01*
X139226483Y-64695201D01*
X139297771Y-64682424D01*
X139368352Y-64690095D01*
G37*
%TD.AperFunction*%
%TD*%
%TA.AperFunction,Conductor*%
%TO.N,/LED3A*%
G36*
X166667445Y-85634485D02*
G01*
X166689798Y-85648797D01*
X170170340Y-88434834D01*
X170211021Y-88493017D01*
X170217600Y-88533199D01*
X170217600Y-92902645D01*
X170197598Y-92970766D01*
X170170553Y-93000841D01*
X170119595Y-93041813D01*
X169999462Y-93184981D01*
X169996499Y-93190370D01*
X169996496Y-93190375D01*
X169973524Y-93232162D01*
X169909426Y-93348757D01*
X169852915Y-93526901D01*
X169832082Y-93712630D01*
X169847721Y-93898867D01*
X169899236Y-94078520D01*
X169984664Y-94244746D01*
X169988487Y-94249570D01*
X169988490Y-94249574D01*
X170011019Y-94277998D01*
X170100752Y-94391212D01*
X170243078Y-94512342D01*
X170406221Y-94603519D01*
X170412081Y-94605423D01*
X170525601Y-94642308D01*
X170584207Y-94682381D01*
X170611844Y-94747778D01*
X170612655Y-94763746D01*
X170588773Y-96638503D01*
X170567905Y-96706363D01*
X170513661Y-96752169D01*
X170443264Y-96761377D01*
X170414386Y-96753232D01*
X163627793Y-93929613D01*
X163625846Y-93928784D01*
X161760238Y-93115570D01*
X161705785Y-93070014D01*
X161684605Y-93002250D01*
X161694706Y-92950589D01*
X162578127Y-90881523D01*
X162623272Y-90826728D01*
X162694007Y-90805000D01*
X163322000Y-90805000D01*
X163322000Y-87528400D01*
X163045460Y-86896308D01*
X163036481Y-86825882D01*
X163067003Y-86761781D01*
X163112678Y-86729396D01*
X164179423Y-86287535D01*
X164648034Y-86093430D01*
X164713088Y-86054536D01*
X164719554Y-86047189D01*
X164719560Y-86047184D01*
X164741497Y-86022257D01*
X164801517Y-85984334D01*
X164836083Y-85979500D01*
X164837882Y-85979500D01*
X164906003Y-85999502D01*
X164919543Y-86009545D01*
X165061478Y-86130342D01*
X165224621Y-86221519D01*
X165402367Y-86279272D01*
X165587945Y-86301401D01*
X165594080Y-86300929D01*
X165594082Y-86300929D01*
X165650119Y-86296617D01*
X165774287Y-86287063D01*
X165954296Y-86236804D01*
X165959785Y-86234031D01*
X165959791Y-86234029D01*
X166037159Y-86194947D01*
X166121114Y-86152538D01*
X166149524Y-86130342D01*
X166196768Y-86093430D01*
X166268387Y-86037475D01*
X166272413Y-86032811D01*
X166272416Y-86032808D01*
X166386480Y-85900663D01*
X166390507Y-85895998D01*
X166482821Y-85733495D01*
X166491504Y-85707393D01*
X166531987Y-85649069D01*
X166597575Y-85621890D01*
X166667445Y-85634485D01*
G37*
%TD.AperFunction*%
%TD*%
%TA.AperFunction,Conductor*%
%TO.N,/LED2A*%
G36*
X157726607Y-75020589D02*
G01*
X157734229Y-75022493D01*
X157739074Y-75023704D01*
X157800313Y-75059625D01*
X157832410Y-75122952D01*
X157832559Y-75168121D01*
X157830298Y-75180767D01*
X157820931Y-75210819D01*
X156265167Y-78626494D01*
X156248667Y-78653256D01*
X156239901Y-78664150D01*
X156181612Y-78704683D01*
X156128218Y-78710433D01*
X156114316Y-78708933D01*
X156083724Y-78701687D01*
X153031089Y-77560859D01*
X153019867Y-77556033D01*
X152984282Y-77538639D01*
X152984281Y-77538639D01*
X152975497Y-77534345D01*
X152965820Y-77532933D01*
X152965816Y-77532932D01*
X152963617Y-77532611D01*
X152937703Y-77525959D01*
X150859592Y-76749330D01*
X150802784Y-76706747D01*
X150780102Y-76655783D01*
X150779972Y-76655125D01*
X150779371Y-76648999D01*
X150725353Y-76470083D01*
X150637613Y-76305066D01*
X150633718Y-76300290D01*
X150523386Y-76165010D01*
X150523383Y-76165007D01*
X150519491Y-76160235D01*
X150418640Y-76076804D01*
X150380237Y-76045034D01*
X150380234Y-76045032D01*
X150375487Y-76041105D01*
X150211087Y-75952214D01*
X150121819Y-75924581D01*
X150038439Y-75898770D01*
X150038436Y-75898769D01*
X150032552Y-75896948D01*
X150026427Y-75896304D01*
X150026426Y-75896304D01*
X149852811Y-75878056D01*
X149852810Y-75878056D01*
X149846683Y-75877412D01*
X149728085Y-75888206D01*
X149666701Y-75893792D01*
X149666700Y-75893792D01*
X149660560Y-75894351D01*
X149649377Y-75897642D01*
X149648481Y-75897906D01*
X149577484Y-75897948D01*
X149517735Y-75859600D01*
X149488204Y-75795036D01*
X149498266Y-75724756D01*
X149517525Y-75694707D01*
X149591507Y-75608998D01*
X149683821Y-75446495D01*
X149742814Y-75269157D01*
X149755209Y-75171042D01*
X149783589Y-75105969D01*
X149842649Y-75066567D01*
X149879499Y-75060840D01*
X152202569Y-75047760D01*
X152242208Y-75053924D01*
X152286367Y-75068272D01*
X152471945Y-75090401D01*
X152478080Y-75089929D01*
X152478082Y-75089929D01*
X152652145Y-75076536D01*
X152652149Y-75076535D01*
X152658287Y-75076063D01*
X152693011Y-75066368D01*
X152754853Y-75049102D01*
X152788024Y-75044463D01*
X154004989Y-75037611D01*
X154048292Y-75046532D01*
X154048621Y-75045519D01*
X154226367Y-75103272D01*
X154411945Y-75125401D01*
X154418080Y-75124929D01*
X154418082Y-75124929D01*
X154474119Y-75120617D01*
X154598287Y-75111063D01*
X154778296Y-75060804D01*
X154806987Y-75046311D01*
X154863087Y-75032780D01*
X157695355Y-75016832D01*
X157726607Y-75020589D01*
G37*
%TD.AperFunction*%
%TD*%
%TA.AperFunction,Conductor*%
%TO.N,/LED4C*%
G36*
X143438547Y-90754690D02*
G01*
X143474951Y-90818005D01*
X143489973Y-90882813D01*
X143541143Y-91103576D01*
X143541774Y-91105646D01*
X143691601Y-91597241D01*
X143710064Y-91657821D01*
X143916291Y-92199293D01*
X144158869Y-92725485D01*
X144436674Y-93233960D01*
X144437824Y-93235761D01*
X144672077Y-93602759D01*
X144691868Y-93670941D01*
X144671656Y-93738999D01*
X144655809Y-93758794D01*
X142775914Y-95674841D01*
X142544800Y-95910400D01*
X142922928Y-96372556D01*
X142950584Y-96437945D01*
X142938497Y-96507905D01*
X142906072Y-96549140D01*
X142188469Y-97147143D01*
X142177461Y-97156316D01*
X142112324Y-97184560D01*
X142042258Y-97173104D01*
X142006256Y-97147144D01*
X141411560Y-96532625D01*
X141394050Y-96508551D01*
X141393917Y-96508639D01*
X141391837Y-96505508D01*
X141390852Y-96504154D01*
X141390511Y-96503512D01*
X141390509Y-96503509D01*
X141387615Y-96498066D01*
X141285251Y-96372556D01*
X141273388Y-96358010D01*
X141273385Y-96358007D01*
X141269493Y-96353235D01*
X141125489Y-96234105D01*
X141125521Y-96234067D01*
X141110229Y-96221250D01*
X140815739Y-95916944D01*
X140581446Y-95674841D01*
X140554388Y-95632449D01*
X139845840Y-93790225D01*
X139840055Y-93719465D01*
X139873445Y-93656810D01*
X139915617Y-93628424D01*
X141782800Y-92862400D01*
X141982991Y-92577280D01*
X142038505Y-92533023D01*
X142088132Y-92523827D01*
X142092945Y-92524401D01*
X142099080Y-92523929D01*
X142099084Y-92523929D01*
X142177766Y-92517874D01*
X142279287Y-92510063D01*
X142459296Y-92459804D01*
X142464785Y-92457031D01*
X142464791Y-92457029D01*
X142565762Y-92406024D01*
X142626114Y-92375538D01*
X142773387Y-92260475D01*
X142777413Y-92255811D01*
X142777416Y-92255808D01*
X142891480Y-92123663D01*
X142895507Y-92118998D01*
X142987821Y-91956495D01*
X143046814Y-91779157D01*
X143061890Y-91659819D01*
X143069796Y-91597241D01*
X143069797Y-91597232D01*
X143070238Y-91593738D01*
X143070611Y-91567000D01*
X143052373Y-91380999D01*
X143046277Y-91360806D01*
X143035152Y-91323960D01*
X143001092Y-91211148D01*
X143000551Y-91140156D01*
X143018593Y-91102331D01*
X143249088Y-90774051D01*
X143304599Y-90729796D01*
X143375228Y-90722577D01*
X143438547Y-90754690D01*
G37*
%TD.AperFunction*%
%TD*%
%TA.AperFunction,Conductor*%
%TO.N,/LED4B*%
G36*
X145053138Y-94166628D02*
G01*
X145105131Y-94203105D01*
X145467808Y-94630004D01*
X145469305Y-94631541D01*
X145469308Y-94631544D01*
X145870625Y-95043507D01*
X145870634Y-95043516D01*
X145872119Y-95045040D01*
X146303722Y-95431616D01*
X146370778Y-95483912D01*
X146758931Y-95786626D01*
X146758943Y-95786635D01*
X146760618Y-95787941D01*
X147240692Y-96112365D01*
X147242538Y-96113437D01*
X147739872Y-96402312D01*
X147739881Y-96402317D01*
X147741720Y-96403385D01*
X148261382Y-96659654D01*
X148263374Y-96660473D01*
X148795299Y-96879174D01*
X148795309Y-96879178D01*
X148797270Y-96879984D01*
X149309814Y-97050982D01*
X149368102Y-97091514D01*
X149395225Y-97157126D01*
X149382569Y-97226985D01*
X149334154Y-97278913D01*
X149305514Y-97291378D01*
X149247273Y-97308519D01*
X149081647Y-97395105D01*
X148935995Y-97512213D01*
X148815862Y-97655381D01*
X148812899Y-97660770D01*
X148812896Y-97660775D01*
X148747365Y-97779978D01*
X148725826Y-97819157D01*
X148669315Y-97997301D01*
X148648482Y-98183030D01*
X148648998Y-98189174D01*
X148663492Y-98361774D01*
X148664121Y-98369267D01*
X148665819Y-98375188D01*
X148665819Y-98375189D01*
X148673275Y-98401192D01*
X148715636Y-98548920D01*
X148718451Y-98554397D01*
X148754692Y-98624915D01*
X148768039Y-98694645D01*
X148741569Y-98760523D01*
X148683684Y-98801631D01*
X148612764Y-98804919D01*
X148594411Y-98798919D01*
X147976567Y-98543000D01*
X147546021Y-98364662D01*
X147546017Y-98364661D01*
X147541764Y-98362899D01*
X147537299Y-98361775D01*
X147537295Y-98361774D01*
X147477759Y-98346791D01*
X147468262Y-98344401D01*
X147458490Y-98345024D01*
X147458487Y-98345024D01*
X147387521Y-98349551D01*
X147341513Y-98352486D01*
X147331892Y-98356481D01*
X147331888Y-98356482D01*
X147299793Y-98369809D01*
X147229210Y-98377461D01*
X147206474Y-98371134D01*
X147032120Y-98304469D01*
X147032119Y-98304469D01*
X147015200Y-98298000D01*
X145970300Y-100823176D01*
X145925772Y-100878473D01*
X145853874Y-100901000D01*
X144942120Y-100901000D01*
X144873999Y-100880998D01*
X144853025Y-100864095D01*
X143911816Y-99922886D01*
X143900949Y-99910495D01*
X143887981Y-99893595D01*
X143882955Y-99887045D01*
X143763468Y-99795359D01*
X143624322Y-99737723D01*
X143539054Y-99726497D01*
X143474126Y-99697774D01*
X143435035Y-99638509D01*
X143429500Y-99601575D01*
X143429500Y-99528706D01*
X143419011Y-99442028D01*
X143389040Y-99366330D01*
X143368565Y-99314615D01*
X143368564Y-99314613D01*
X143365404Y-99306632D01*
X143357169Y-99295783D01*
X143331915Y-99229432D01*
X143346542Y-99159959D01*
X143396407Y-99109422D01*
X143457420Y-99093603D01*
X143543491Y-99093527D01*
X143572441Y-99093502D01*
X143582291Y-99090120D01*
X143683314Y-99055433D01*
X143683315Y-99055432D01*
X143692563Y-99052257D01*
X143700400Y-99046416D01*
X143700403Y-99046414D01*
X143749141Y-99010085D01*
X143752797Y-99007360D01*
X144687816Y-98072341D01*
X144733034Y-98011513D01*
X144752843Y-97953492D01*
X144770704Y-97901175D01*
X144770704Y-97901174D01*
X144774069Y-97891318D01*
X144773958Y-97764311D01*
X144770576Y-97754461D01*
X144735889Y-97653437D01*
X144735888Y-97653435D01*
X144732713Y-97644188D01*
X144726872Y-97636351D01*
X144726870Y-97636348D01*
X144690541Y-97587610D01*
X144687816Y-97583954D01*
X144454158Y-97350296D01*
X144420132Y-97287984D01*
X144425197Y-97217169D01*
X144449193Y-97177364D01*
X144625207Y-96979886D01*
X144630172Y-96974628D01*
X144932400Y-96672400D01*
X143774857Y-96111167D01*
X143415341Y-95936856D01*
X143362771Y-95889138D01*
X143344344Y-95820574D01*
X143365912Y-95752933D01*
X143381216Y-95734384D01*
X144920011Y-94195589D01*
X144982323Y-94161563D01*
X145053138Y-94166628D01*
G37*
%TD.AperFunction*%
%TD*%
%TA.AperFunction,Conductor*%
%TO.N,/LED Current Regulator/LED2_NEG*%
G36*
X153104121Y-64409002D02*
G01*
X153150614Y-64462658D01*
X153162000Y-64515000D01*
X153162000Y-74169000D01*
X153141998Y-74237121D01*
X153088342Y-74283614D01*
X153036000Y-74295000D01*
X150240000Y-74295000D01*
X150171879Y-74274998D01*
X150125386Y-74221342D01*
X150114000Y-74169000D01*
X150114000Y-67437000D01*
X150102779Y-67434030D01*
X150102778Y-67434029D01*
X149850530Y-67367258D01*
X149503688Y-67275447D01*
X149442955Y-67238680D01*
X149435969Y-67230346D01*
X149401994Y-67186069D01*
X149401989Y-67186063D01*
X149401976Y-67186046D01*
X149401975Y-67186045D01*
X149378955Y-67156045D01*
X149355505Y-67138051D01*
X149343114Y-67127184D01*
X149153816Y-66937886D01*
X149142949Y-66925495D01*
X149129984Y-66908598D01*
X149129981Y-66908595D01*
X149124955Y-66902045D01*
X149087530Y-66873327D01*
X149005468Y-66810359D01*
X148866322Y-66752723D01*
X148835625Y-66748682D01*
X148754503Y-66738001D01*
X148754494Y-66738000D01*
X148754491Y-66738000D01*
X148754479Y-66737999D01*
X148725189Y-66734143D01*
X148725188Y-66734143D01*
X148717000Y-66733065D01*
X148708812Y-66734143D01*
X148708811Y-66734143D01*
X148687702Y-66736922D01*
X148671256Y-66738000D01*
X147889136Y-66738000D01*
X147821015Y-66717998D01*
X147791493Y-66691636D01*
X147749388Y-66640011D01*
X147745493Y-66635235D01*
X147711614Y-66607208D01*
X147606239Y-66520034D01*
X147606236Y-66520032D01*
X147601489Y-66516105D01*
X147437089Y-66427214D01*
X147347822Y-66399581D01*
X147264441Y-66373770D01*
X147264438Y-66373769D01*
X147258554Y-66371948D01*
X147252429Y-66371304D01*
X147252428Y-66371304D01*
X147078813Y-66353056D01*
X147078812Y-66353056D01*
X147072685Y-66352412D01*
X146954087Y-66363206D01*
X146892703Y-66368792D01*
X146892702Y-66368792D01*
X146886562Y-66369351D01*
X146880648Y-66371092D01*
X146880646Y-66371092D01*
X146758466Y-66407052D01*
X146707273Y-66422119D01*
X146701808Y-66424976D01*
X146606992Y-66474544D01*
X146537356Y-66488378D01*
X146516375Y-66484687D01*
X145803216Y-66295910D01*
X145803215Y-66295910D01*
X145796000Y-66294000D01*
X145788541Y-66293834D01*
X145788539Y-66293834D01*
X145626957Y-66290243D01*
X145579716Y-66279911D01*
X145579616Y-66279868D01*
X145572792Y-66275832D01*
X145565181Y-66273621D01*
X145565179Y-66273620D01*
X145425751Y-66233112D01*
X145425746Y-66233111D01*
X145419574Y-66231318D01*
X145413169Y-66230814D01*
X145413164Y-66230813D01*
X145386226Y-66228693D01*
X145386218Y-66228693D01*
X145383770Y-66228500D01*
X144731230Y-66228500D01*
X144728782Y-66228693D01*
X144728774Y-66228693D01*
X144701836Y-66230813D01*
X144701831Y-66230814D01*
X144695426Y-66231318D01*
X144689254Y-66233111D01*
X144689249Y-66233112D01*
X144642873Y-66246586D01*
X144591796Y-66261425D01*
X144553849Y-66266397D01*
X143662365Y-66246586D01*
X143630015Y-66241615D01*
X143594574Y-66231318D01*
X143588169Y-66230814D01*
X143588164Y-66230813D01*
X143561226Y-66228693D01*
X143561218Y-66228693D01*
X143558770Y-66228500D01*
X142906230Y-66228500D01*
X142899852Y-66229002D01*
X142887169Y-66229359D01*
X141254058Y-66193068D01*
X140204200Y-66169738D01*
X140136541Y-66148227D01*
X140091252Y-66093552D01*
X140081000Y-66043769D01*
X140081000Y-64658737D01*
X140101002Y-64590616D01*
X140154658Y-64544123D01*
X140191081Y-64533747D01*
X140720722Y-64466292D01*
X140727073Y-64465646D01*
X140986047Y-64445924D01*
X141477793Y-64408476D01*
X141484134Y-64408154D01*
X142032755Y-64394251D01*
X142194256Y-64390159D01*
X142210619Y-64390809D01*
X142233434Y-64393207D01*
X142233436Y-64393207D01*
X142240000Y-64393897D01*
X142280026Y-64389690D01*
X142293197Y-64389000D01*
X153036000Y-64389000D01*
X153104121Y-64409002D01*
G37*
%TD.AperFunction*%
%TD*%
%TA.AperFunction,Conductor*%
%TO.N,/LED Current Regulator/LED4_NEG*%
G36*
X154586485Y-97014482D02*
G01*
X154611208Y-97057624D01*
X155123462Y-98594386D01*
X155126028Y-98665337D01*
X155089828Y-98726411D01*
X155052145Y-98750640D01*
X153888890Y-99232477D01*
X153884941Y-99234838D01*
X153884935Y-99234841D01*
X153845981Y-99258130D01*
X153823836Y-99271370D01*
X153739928Y-99366713D01*
X153735952Y-99376335D01*
X153735951Y-99376337D01*
X153717292Y-99421496D01*
X153691427Y-99484095D01*
X153683564Y-99610857D01*
X153701992Y-99683688D01*
X153703739Y-99687905D01*
X153739724Y-99774782D01*
X153747313Y-99845372D01*
X153715533Y-99908859D01*
X153654475Y-99945086D01*
X153623315Y-99949000D01*
X149986000Y-99949000D01*
X149917879Y-99928998D01*
X149871386Y-99875342D01*
X149860000Y-99823000D01*
X149860000Y-99441000D01*
X149845951Y-99433409D01*
X149834242Y-99422556D01*
X149835224Y-99421496D01*
X149798368Y-99384967D01*
X149794682Y-99377315D01*
X149793709Y-99375758D01*
X149789715Y-99366139D01*
X149705641Y-99270944D01*
X149697245Y-99265939D01*
X149697244Y-99265938D01*
X149645033Y-99234814D01*
X149641111Y-99232476D01*
X149448906Y-99152862D01*
X149393626Y-99108315D01*
X149371205Y-99040952D01*
X149380137Y-98989659D01*
X150041041Y-97337400D01*
X150084912Y-97281580D01*
X150151997Y-97258339D01*
X150181315Y-97260365D01*
X150197923Y-97263488D01*
X150477171Y-97316000D01*
X150479278Y-97316249D01*
X150479282Y-97316250D01*
X150688864Y-97341056D01*
X151052570Y-97384103D01*
X151054716Y-97384210D01*
X151054718Y-97384210D01*
X151629135Y-97412807D01*
X151629141Y-97412807D01*
X151631268Y-97412913D01*
X151633397Y-97412874D01*
X151633399Y-97412874D01*
X151780902Y-97410170D01*
X152210586Y-97402295D01*
X152590260Y-97369411D01*
X152785695Y-97352485D01*
X152785699Y-97352485D01*
X152787841Y-97352299D01*
X153360358Y-97263157D01*
X153600056Y-97208919D01*
X153923401Y-97135754D01*
X153923407Y-97135752D01*
X153925486Y-97135282D01*
X154455573Y-96976752D01*
X154526567Y-96976397D01*
X154586485Y-97014482D01*
G37*
%TD.AperFunction*%
%TD*%
%TA.AperFunction,Conductor*%
%TO.N,/LED3C*%
G36*
X156567791Y-96017953D02*
G01*
X156587885Y-96034285D01*
X158699200Y-98145600D01*
X160576518Y-96268282D01*
X160638830Y-96234256D01*
X160701549Y-96236611D01*
X165969439Y-97804258D01*
X166029024Y-97842858D01*
X166059058Y-97914479D01*
X166063121Y-97962867D01*
X166100892Y-98094588D01*
X166101154Y-98163119D01*
X165829937Y-99137034D01*
X165803126Y-99233311D01*
X165786426Y-99266982D01*
X165787005Y-99267308D01*
X165782788Y-99274792D01*
X165777596Y-99281632D01*
X165723989Y-99417028D01*
X165713500Y-99503706D01*
X165713500Y-99537934D01*
X165708881Y-99571736D01*
X165650148Y-99782642D01*
X165612605Y-99842900D01*
X165548443Y-99873294D01*
X165529192Y-99874839D01*
X162959705Y-99883499D01*
X162959280Y-99883500D01*
X162591230Y-99883500D01*
X162582586Y-99884180D01*
X162579475Y-99884425D01*
X162570016Y-99884812D01*
X161972682Y-99886825D01*
X161904494Y-99867053D01*
X161857820Y-99813554D01*
X161847251Y-99745034D01*
X161865796Y-99598241D01*
X161865797Y-99598232D01*
X161866238Y-99594738D01*
X161866611Y-99568000D01*
X161848373Y-99381999D01*
X161794355Y-99203083D01*
X161706615Y-99038066D01*
X161702720Y-99033290D01*
X161592388Y-98898010D01*
X161592385Y-98898007D01*
X161588493Y-98893235D01*
X161583744Y-98889306D01*
X161449239Y-98778034D01*
X161449236Y-98778032D01*
X161444489Y-98774105D01*
X161280089Y-98685214D01*
X161190821Y-98657581D01*
X161107441Y-98631770D01*
X161107438Y-98631769D01*
X161101554Y-98629948D01*
X161095429Y-98629304D01*
X161095428Y-98629304D01*
X160921813Y-98611056D01*
X160921812Y-98611056D01*
X160915685Y-98610412D01*
X160797087Y-98621206D01*
X160735703Y-98626792D01*
X160735702Y-98626792D01*
X160729562Y-98627351D01*
X160723648Y-98629092D01*
X160723646Y-98629092D01*
X160601466Y-98665052D01*
X160550273Y-98680119D01*
X160544808Y-98682976D01*
X160421573Y-98747401D01*
X160384647Y-98766705D01*
X160238995Y-98883813D01*
X160182625Y-98950992D01*
X160123516Y-98990318D01*
X160086104Y-98996000D01*
X160057398Y-98996000D01*
X160040952Y-98994922D01*
X160019843Y-98992143D01*
X160019842Y-98992143D01*
X160011654Y-98991065D01*
X160003466Y-98992143D01*
X160003465Y-98992143D01*
X159974175Y-98995999D01*
X159974163Y-98996000D01*
X159974160Y-98996000D01*
X159974151Y-98996001D01*
X159893029Y-99006682D01*
X159862332Y-99010723D01*
X159723186Y-99068359D01*
X159716632Y-99073388D01*
X159633728Y-99137001D01*
X159633715Y-99137012D01*
X159633699Y-99137024D01*
X159633694Y-99137029D01*
X159603699Y-99160045D01*
X159598673Y-99166595D01*
X159585709Y-99183490D01*
X159574842Y-99195881D01*
X158910182Y-99860541D01*
X158847870Y-99894567D01*
X158821512Y-99897445D01*
X158730204Y-99897753D01*
X158615542Y-99898140D01*
X158580360Y-99893251D01*
X155932830Y-99133312D01*
X155872873Y-99095293D01*
X155842860Y-99030022D01*
X155831562Y-98950934D01*
X155829000Y-98933000D01*
X155829000Y-98945310D01*
X155824977Y-98936480D01*
X155809990Y-98926829D01*
X155763546Y-98873131D01*
X155759394Y-98862839D01*
X155058072Y-96876337D01*
X155054255Y-96805443D01*
X155089373Y-96743740D01*
X155124734Y-96719690D01*
X155548664Y-96526941D01*
X155548678Y-96526934D01*
X155550607Y-96526057D01*
X155552478Y-96525048D01*
X155552487Y-96525043D01*
X156058662Y-96251926D01*
X156058664Y-96251925D01*
X156060530Y-96250918D01*
X156431556Y-96016818D01*
X156499839Y-95997384D01*
X156567791Y-96017953D01*
G37*
%TD.AperFunction*%
%TD*%
%TA.AperFunction,Conductor*%
%TO.N,/LED Current Regulator/LED3_NEG*%
G36*
X161536706Y-85369689D02*
G01*
X161571114Y-85431790D01*
X161573918Y-85467131D01*
X161573019Y-85481619D01*
X161575417Y-85491095D01*
X161575417Y-85491097D01*
X161583827Y-85524331D01*
X161591448Y-85554449D01*
X162097477Y-86776110D01*
X162099838Y-86780059D01*
X162099841Y-86780065D01*
X162123130Y-86819019D01*
X162136370Y-86841164D01*
X162231713Y-86925072D01*
X162241335Y-86929048D01*
X162241337Y-86929049D01*
X162307424Y-86956355D01*
X162349095Y-86973573D01*
X162359492Y-86974218D01*
X162374745Y-86975164D01*
X162475857Y-86981436D01*
X162485336Y-86979037D01*
X162490129Y-86978591D01*
X162559812Y-86992187D01*
X162611082Y-87041298D01*
X162617149Y-87053303D01*
X162904930Y-87707350D01*
X162915600Y-87758095D01*
X162915600Y-90292389D01*
X162895598Y-90360510D01*
X162841942Y-90407003D01*
X162784115Y-90418270D01*
X162572554Y-90409051D01*
X162330979Y-90398524D01*
X162322876Y-90416322D01*
X162271304Y-90529600D01*
X162146918Y-90802817D01*
X162128346Y-90843610D01*
X162121906Y-90855908D01*
X162097476Y-90896889D01*
X162031568Y-91056004D01*
X162029868Y-91059918D01*
X161447182Y-92339792D01*
X161212370Y-92855559D01*
X161165940Y-92909269D01*
X161097843Y-92929351D01*
X161051973Y-92920762D01*
X160157270Y-92572335D01*
X159671477Y-92383151D01*
X159615259Y-92339792D01*
X159591406Y-92272922D01*
X159600919Y-92217217D01*
X159728513Y-91911445D01*
X159728516Y-91911437D01*
X159729336Y-91909472D01*
X159915583Y-91360806D01*
X159948881Y-91235224D01*
X160063531Y-90802817D01*
X160064081Y-90800743D01*
X160138457Y-90416322D01*
X160173732Y-90233998D01*
X160173734Y-90233988D01*
X160174142Y-90231877D01*
X160221907Y-89845653D01*
X160226760Y-89823309D01*
X160357172Y-89408770D01*
X160357172Y-89408768D01*
X160362608Y-89391489D01*
X160282038Y-89155550D01*
X160275467Y-89107908D01*
X160277019Y-89079698D01*
X160277096Y-89078303D01*
X160278963Y-88900000D01*
X160275928Y-88810844D01*
X160259320Y-88323078D01*
X160259247Y-88320920D01*
X160200190Y-87744523D01*
X160171130Y-87575399D01*
X160102431Y-87175594D01*
X160102431Y-87175592D01*
X160102067Y-87173476D01*
X160101563Y-87171402D01*
X160101560Y-87171386D01*
X159965836Y-86612510D01*
X159965835Y-86612506D01*
X159965330Y-86610427D01*
X159930027Y-86498797D01*
X159797266Y-86079012D01*
X159795796Y-86008030D01*
X159832935Y-85947522D01*
X159872643Y-85923236D01*
X161009850Y-85491097D01*
X161403403Y-85341547D01*
X161474186Y-85336047D01*
X161536706Y-85369689D01*
G37*
%TD.AperFunction*%
%TD*%
M02*
