G75*
%MOIN*%
%OFA0B0*%
%FSLAX24Y24*%
%IPPOS*%
%LPD*%
%AMOC8*
5,1,8,0,0,1.08239X$1,22.5*
%
%ADD10C,0.0000*%
%ADD11C,0.0040*%
%ADD12C,0.0060*%
%ADD13C,0.0030*%
%ADD14C,0.0050*%
%ADD15C,0.0080*%
%ADD16R,0.0180X0.0300*%
D10*
X000100Y000100D02*
X000100Y032350D01*
X022100Y032350D01*
X022100Y000100D01*
X000100Y000100D01*
D11*
X002699Y001947D02*
X002776Y001870D01*
X002929Y001870D01*
X003006Y001947D01*
X003006Y002023D01*
X002929Y002100D01*
X002853Y002100D01*
X002929Y002100D02*
X003006Y002177D01*
X003006Y002254D01*
X002929Y002330D01*
X002776Y002330D01*
X002699Y002254D01*
X003160Y002100D02*
X003467Y002100D01*
X003390Y001870D02*
X003390Y002330D01*
X003160Y002100D01*
X017620Y012108D02*
X017620Y012338D01*
X017696Y012415D01*
X018003Y012415D01*
X018080Y012338D01*
X018080Y012108D01*
X017620Y012108D01*
X017850Y013489D02*
X017850Y013796D01*
X017696Y013642D02*
X018003Y013642D01*
X017850Y014410D02*
X017850Y014717D01*
X017850Y016108D02*
X017850Y016415D01*
X017773Y016415D02*
X018080Y016415D01*
X017773Y016415D02*
X017620Y016261D01*
X017773Y016108D01*
X018080Y016108D01*
X017850Y017489D02*
X017850Y017796D01*
X017696Y017642D02*
X018003Y017642D01*
X017850Y018410D02*
X017850Y018717D01*
X020350Y010717D02*
X020350Y010410D01*
X020350Y009796D02*
X020350Y009489D01*
X020503Y009642D02*
X020196Y009642D01*
X020196Y008415D02*
X020273Y008415D01*
X020350Y008338D01*
X020350Y008108D01*
X020350Y008338D02*
X020427Y008415D01*
X020503Y008415D01*
X020580Y008338D01*
X020580Y008108D01*
X020120Y008108D01*
X020120Y008338D01*
X020196Y008415D01*
X020273Y007494D02*
X020580Y007494D01*
X020350Y007494D02*
X020350Y007187D01*
X020273Y007187D02*
X020120Y007340D01*
X020273Y007494D01*
X020273Y007187D02*
X020580Y007187D01*
X018967Y004870D02*
X018660Y004870D01*
X018813Y004870D02*
X018813Y005330D01*
X018660Y005177D01*
D12*
X018631Y006130D02*
X018525Y006237D01*
X018952Y006664D01*
X018952Y006237D01*
X018845Y006130D01*
X018631Y006130D01*
X018525Y006237D02*
X018525Y006664D01*
X018631Y006771D01*
X018845Y006771D01*
X018952Y006664D01*
X018307Y006771D02*
X017880Y006771D01*
X017880Y006130D01*
X018307Y006130D01*
X018094Y006450D02*
X017880Y006450D01*
X016202Y006130D02*
X015775Y006130D01*
X015988Y006130D02*
X015988Y006771D01*
X015775Y006557D01*
X015557Y006771D02*
X015130Y006771D01*
X015130Y006130D01*
X015557Y006130D01*
X015344Y006450D02*
X015130Y006450D01*
X012952Y006557D02*
X012952Y006664D01*
X012845Y006771D01*
X012631Y006771D01*
X012525Y006664D01*
X012307Y006771D02*
X011880Y006771D01*
X011880Y006130D01*
X012307Y006130D01*
X012525Y006130D02*
X012952Y006557D01*
X012952Y006130D02*
X012525Y006130D01*
X012094Y006450D02*
X011880Y006450D01*
X009952Y006344D02*
X009952Y006237D01*
X009845Y006130D01*
X009631Y006130D01*
X009525Y006237D01*
X009307Y006130D02*
X008880Y006130D01*
X008880Y006771D01*
X009307Y006771D01*
X009525Y006664D02*
X009631Y006771D01*
X009845Y006771D01*
X009952Y006664D01*
X009952Y006557D01*
X009845Y006450D01*
X009952Y006344D01*
X009845Y006450D02*
X009738Y006450D01*
X009094Y006450D02*
X008880Y006450D01*
X006952Y006450D02*
X006525Y006450D01*
X006845Y006771D01*
X006845Y006130D01*
X006307Y006130D02*
X005880Y006130D01*
X005880Y006771D01*
X006307Y006771D01*
X006094Y006450D02*
X005880Y006450D01*
X003952Y006450D02*
X003952Y006237D01*
X003845Y006130D01*
X003631Y006130D01*
X003525Y006237D01*
X003525Y006450D02*
X003738Y006557D01*
X003845Y006557D01*
X003952Y006450D01*
X003952Y006771D02*
X003525Y006771D01*
X003525Y006450D01*
X003307Y006130D02*
X002880Y006130D01*
X002880Y006771D01*
X003307Y006771D01*
X003094Y006450D02*
X002880Y006450D01*
X005630Y011330D02*
X005950Y011330D01*
X006057Y011437D01*
X006057Y011864D01*
X005950Y011971D01*
X005630Y011971D01*
X005630Y011330D01*
X006275Y011330D02*
X006702Y011330D01*
X006488Y011330D02*
X006488Y011971D01*
X006275Y011757D01*
X006919Y011971D02*
X007346Y011971D01*
X007346Y011864D01*
X006919Y011437D01*
X006919Y011330D01*
X008630Y011330D02*
X008950Y011330D01*
X009057Y011437D01*
X009057Y011864D01*
X008950Y011971D01*
X008630Y011971D01*
X008630Y011330D01*
X009275Y011330D02*
X009702Y011330D01*
X009488Y011330D02*
X009488Y011971D01*
X009275Y011757D01*
X009919Y011650D02*
X010239Y011650D01*
X010346Y011544D01*
X010346Y011437D01*
X010239Y011330D01*
X010026Y011330D01*
X009919Y011437D01*
X009919Y011650D01*
X010133Y011864D01*
X010346Y011971D01*
X011380Y011971D02*
X011380Y011330D01*
X011700Y011330D01*
X011807Y011437D01*
X011807Y011864D01*
X011700Y011971D01*
X011380Y011971D01*
X012025Y011757D02*
X012238Y011971D01*
X012238Y011330D01*
X012025Y011330D02*
X012452Y011330D01*
X012669Y011437D02*
X012776Y011330D01*
X012989Y011330D01*
X013096Y011437D01*
X013096Y011650D01*
X012989Y011757D01*
X012883Y011757D01*
X012669Y011650D01*
X012669Y011971D01*
X013096Y011971D01*
X014380Y011971D02*
X014380Y011330D01*
X014700Y011330D01*
X014807Y011437D01*
X014807Y011864D01*
X014700Y011971D01*
X014380Y011971D01*
X015025Y011757D02*
X015238Y011971D01*
X015238Y011330D01*
X015025Y011330D02*
X015452Y011330D01*
X015669Y011650D02*
X016096Y011650D01*
X015989Y011330D02*
X015989Y011971D01*
X015669Y011650D01*
X015557Y015330D02*
X015557Y015757D01*
X015344Y015971D01*
X015130Y015757D01*
X015130Y015330D01*
X015130Y015650D02*
X015557Y015650D01*
X015775Y015650D02*
X016202Y015650D01*
X016095Y015330D02*
X016095Y015971D01*
X015775Y015650D01*
X013202Y015650D02*
X013202Y015437D01*
X013095Y015330D01*
X012881Y015330D01*
X012775Y015437D01*
X012775Y015650D02*
X012988Y015757D01*
X013095Y015757D01*
X013202Y015650D01*
X013202Y015971D02*
X012775Y015971D01*
X012775Y015650D01*
X012557Y015650D02*
X012130Y015650D01*
X012130Y015757D02*
X012344Y015971D01*
X012557Y015757D01*
X012557Y015330D01*
X012130Y015330D02*
X012130Y015757D01*
X010202Y015544D02*
X010095Y015650D01*
X009775Y015650D01*
X009775Y015437D01*
X009881Y015330D01*
X010095Y015330D01*
X010202Y015437D01*
X010202Y015544D01*
X009988Y015864D02*
X009775Y015650D01*
X009557Y015650D02*
X009130Y015650D01*
X009130Y015757D02*
X009344Y015971D01*
X009557Y015757D01*
X009557Y015330D01*
X009988Y015864D02*
X010202Y015971D01*
X009130Y015757D02*
X009130Y015330D01*
X007202Y015864D02*
X006775Y015437D01*
X006775Y015330D01*
X006557Y015330D02*
X006557Y015757D01*
X006344Y015971D01*
X006130Y015757D01*
X006130Y015330D01*
X006130Y015650D02*
X006557Y015650D01*
X006775Y015971D02*
X007202Y015971D01*
X007202Y015864D01*
D13*
X005335Y010795D02*
X005190Y010650D01*
X005238Y010602D02*
X005045Y010795D01*
X005045Y010602D02*
X005335Y010602D01*
X005335Y010500D02*
X005335Y010307D01*
X005142Y010500D01*
X005093Y010500D01*
X005045Y010452D01*
X005045Y010355D01*
X005093Y010307D01*
X005287Y010208D02*
X005335Y010208D01*
X005335Y010160D01*
X005287Y010160D01*
X005287Y010208D01*
X005335Y010058D02*
X005335Y009865D01*
X005142Y010058D01*
X005093Y010058D01*
X005045Y010010D01*
X005045Y009913D01*
X005093Y009865D01*
X005142Y009148D02*
X005335Y009148D01*
X005190Y009148D02*
X005190Y008954D01*
X005142Y008954D02*
X005045Y009051D01*
X005142Y009148D01*
X005142Y008954D02*
X005335Y008954D01*
X005287Y008853D02*
X005335Y008805D01*
X005335Y008660D01*
X005045Y008660D01*
X005045Y008805D01*
X005093Y008853D01*
X005287Y008853D01*
X005287Y008558D02*
X005335Y008510D01*
X005335Y008413D01*
X005287Y008365D01*
X005190Y008413D02*
X005190Y008510D01*
X005238Y008558D01*
X005287Y008558D01*
X005190Y008413D02*
X005142Y008365D01*
X005093Y008365D01*
X005045Y008413D01*
X005045Y008510D01*
X005093Y008558D01*
X005335Y008148D02*
X005335Y007954D01*
X005045Y007954D01*
X005093Y007853D02*
X005045Y007805D01*
X005045Y007708D01*
X005093Y007660D01*
X005287Y007660D01*
X005335Y007708D01*
X005335Y007805D01*
X005287Y007853D01*
X005287Y007558D02*
X005335Y007510D01*
X005335Y007413D01*
X005287Y007365D01*
X005190Y007413D02*
X005190Y007510D01*
X005238Y007558D01*
X005287Y007558D01*
X005190Y007413D02*
X005142Y007365D01*
X005093Y007365D01*
X005045Y007413D01*
X005045Y007510D01*
X005093Y007558D01*
X003287Y011815D02*
X003163Y011815D01*
X003102Y011877D01*
X002980Y011938D02*
X002980Y012185D01*
X003102Y012124D02*
X003163Y012185D01*
X003287Y012185D01*
X003349Y012124D01*
X003349Y012062D01*
X003287Y012000D01*
X003349Y011938D01*
X003349Y011877D01*
X003287Y011815D01*
X003287Y012000D02*
X003225Y012000D01*
X002980Y011938D02*
X002857Y011815D01*
X002733Y011938D01*
X002733Y012185D01*
X002612Y012124D02*
X002612Y012062D01*
X002550Y012000D01*
X002612Y011938D01*
X002612Y011877D01*
X002550Y011815D01*
X002427Y011815D01*
X002365Y011877D01*
X002488Y012000D02*
X002550Y012000D01*
X002612Y012124D02*
X002550Y012185D01*
X002427Y012185D01*
X002365Y012124D01*
X002677Y014115D02*
X002615Y014177D01*
X002677Y014115D02*
X002800Y014115D01*
X002862Y014177D01*
X002862Y014300D01*
X002800Y014362D01*
X002738Y014362D01*
X002615Y014300D01*
X002615Y014485D01*
X002862Y014485D01*
X002983Y014485D02*
X002983Y014238D01*
X003107Y014115D01*
X003230Y014238D01*
X003230Y014485D01*
D14*
X005370Y015070D02*
X005370Y012130D01*
X007020Y012130D01*
X007820Y012130D01*
X007820Y015070D01*
X007020Y015070D01*
X007020Y012130D01*
X007020Y011070D02*
X007820Y011070D01*
X007820Y007130D01*
X007020Y007130D01*
X005370Y007130D01*
X005370Y011070D01*
X007020Y011070D01*
X007020Y007130D01*
X008370Y007130D02*
X008370Y011070D01*
X010020Y011070D01*
X010820Y011070D01*
X010820Y007130D01*
X010020Y007130D01*
X008370Y007130D01*
X010020Y007130D02*
X010020Y011070D01*
X010020Y012130D02*
X010820Y012130D01*
X010820Y015070D01*
X010020Y015070D01*
X010020Y012130D01*
X008370Y012130D01*
X008370Y015070D01*
X010020Y015070D01*
X010020Y016130D02*
X010820Y016130D01*
X010820Y019070D01*
X010020Y019070D01*
X010020Y016130D01*
X008370Y016130D01*
X008370Y019070D01*
X010020Y019070D01*
X011370Y019070D02*
X011370Y016130D01*
X013020Y016130D01*
X013820Y016130D01*
X013820Y019070D01*
X013020Y019070D01*
X013020Y016130D01*
X013020Y015070D02*
X013820Y015070D01*
X013820Y012130D01*
X013020Y012130D01*
X011370Y012130D01*
X011370Y015070D01*
X013020Y015070D01*
X013020Y012130D01*
X013020Y011070D02*
X013820Y011070D01*
X013820Y007130D01*
X013020Y007130D01*
X011370Y007130D01*
X011370Y011070D01*
X013020Y011070D01*
X013020Y007130D01*
X014370Y007130D02*
X014370Y011070D01*
X016020Y011070D01*
X016820Y011070D01*
X016820Y007130D01*
X016020Y007130D01*
X014370Y007130D01*
X016020Y007130D02*
X016020Y011070D01*
X016020Y012130D02*
X016820Y012130D01*
X016820Y015070D01*
X016020Y015070D01*
X016020Y012130D01*
X014370Y012130D01*
X014370Y015070D01*
X016020Y015070D01*
X016020Y016130D02*
X016820Y016130D01*
X016820Y019070D01*
X016020Y019070D01*
X016020Y016130D01*
X014370Y016130D01*
X014370Y019070D01*
X016020Y019070D01*
X013020Y019070D02*
X011370Y019070D01*
X007820Y019070D02*
X007820Y016130D01*
X007020Y016130D01*
X005370Y016130D01*
X005370Y019070D01*
X007020Y019070D01*
X007820Y019070D01*
X007020Y019070D02*
X007020Y016130D01*
X007020Y015070D02*
X005370Y015070D01*
X004820Y011070D02*
X004020Y011070D01*
X004020Y007130D01*
X004820Y007130D01*
X004820Y011070D01*
X004020Y011070D02*
X002370Y011070D01*
X002370Y007130D01*
X004020Y007130D01*
X001100Y005390D02*
X021100Y005390D01*
X021100Y001810D01*
X001100Y001810D01*
X001100Y005390D01*
X017370Y007130D02*
X017370Y011070D01*
X019020Y011070D01*
X019820Y011070D01*
X019820Y007130D01*
X019020Y007130D01*
X017370Y007130D01*
X019020Y007130D02*
X019020Y011070D01*
D15*
X002905Y012514D02*
X002789Y012590D01*
X002783Y012600D02*
X002905Y012692D01*
X002783Y012781D02*
X002783Y012600D01*
X002783Y012419D01*
X002783Y013419D02*
X002783Y013600D01*
X002905Y013692D01*
X002783Y013781D02*
X002783Y013600D01*
X002789Y013590D02*
X002905Y013514D01*
D16*
X004350Y013600D03*
X004350Y012600D03*
M02*
