%FSLAX45Y45*%
G04 Gerber Fmt 4.5, Leading zero omitted, Abs format (unit mm)*
G04 Created by KiCad (PCBNEW 5.1.12-84ad8e8a86~92~ubuntu20.04.1) date 2021-12-18 18:34:45*
%MOMM*%
%LPD*%
G01*
G04 APERTURE LIST*
%TA.AperFunction,Profile*%
%ADD10C,0.050000*%
%TD*%
%ADD11C,0.200000*%
%ADD12C,0.300000*%
G04 APERTURE END LIST*
D10*
X9334500Y-13462000D02*
X16954500Y-13462000D01*
X16954500Y-13462000D02*
X16954500Y-6604000D01*
X9334500Y-6604000D02*
X9334500Y-13462000D01*
X16954500Y-6604000D02*
X9334500Y-6604000D01*
D11*
X10730500Y-7452500D02*
X10837500Y-7559500D01*
X10837500Y-7452500D02*
X10730500Y-7559500D01*
X13130500Y-7452500D02*
X13237500Y-7559500D01*
X13237500Y-7452500D02*
X13130500Y-7559500D01*
X10992000Y-7262000D02*
G75*
G03*
X10992000Y-7262000I-123000J0D01*
G01*
X13222000Y-7262000D02*
G75*
G03*
X13222000Y-7262000I-123000J0D01*
G01*
X9715500Y-6825000D02*
X9715500Y-7145000D01*
X9555500Y-6985000D02*
X9875500Y-6985000D01*
X9715500Y-12921000D02*
X9715500Y-13241000D01*
X9555500Y-13081000D02*
X9875500Y-13081000D01*
X13779500Y-9365000D02*
X13779500Y-9685000D01*
X13619500Y-9525000D02*
X13939500Y-9525000D01*
X16573500Y-6825000D02*
X16573500Y-7145000D01*
X16413500Y-6985000D02*
X16733500Y-6985000D01*
X16573500Y-12921000D02*
X16573500Y-13241000D01*
X16413500Y-13081000D02*
X16733500Y-13081000D01*
D12*
X9618428Y-13930214D02*
X9618428Y-13630214D01*
X9689857Y-13630214D01*
X9732714Y-13644500D01*
X9761286Y-13673071D01*
X9775571Y-13701643D01*
X9789857Y-13758786D01*
X9789857Y-13801643D01*
X9775571Y-13858786D01*
X9761286Y-13887357D01*
X9732714Y-13915929D01*
X9689857Y-13930214D01*
X9618428Y-13930214D01*
X9918428Y-13930214D02*
X9918428Y-13730214D01*
X9918428Y-13787357D02*
X9932714Y-13758786D01*
X9947000Y-13744500D01*
X9975571Y-13730214D01*
X10004143Y-13730214D01*
X10104143Y-13930214D02*
X10104143Y-13730214D01*
X10104143Y-13630214D02*
X10089857Y-13644500D01*
X10104143Y-13658786D01*
X10118428Y-13644500D01*
X10104143Y-13630214D01*
X10104143Y-13658786D01*
X10289857Y-13930214D02*
X10261286Y-13915929D01*
X10247000Y-13887357D01*
X10247000Y-13630214D01*
X10447000Y-13930214D02*
X10418428Y-13915929D01*
X10404143Y-13887357D01*
X10404143Y-13630214D01*
X10789857Y-13930214D02*
X10789857Y-13630214D01*
X10889857Y-13844500D01*
X10989857Y-13630214D01*
X10989857Y-13930214D01*
X11261286Y-13930214D02*
X11261286Y-13773071D01*
X11247000Y-13744500D01*
X11218428Y-13730214D01*
X11161286Y-13730214D01*
X11132714Y-13744500D01*
X11261286Y-13915929D02*
X11232714Y-13930214D01*
X11161286Y-13930214D01*
X11132714Y-13915929D01*
X11118428Y-13887357D01*
X11118428Y-13858786D01*
X11132714Y-13830214D01*
X11161286Y-13815929D01*
X11232714Y-13815929D01*
X11261286Y-13801643D01*
X11404143Y-13730214D02*
X11404143Y-14030214D01*
X11404143Y-13744500D02*
X11432714Y-13730214D01*
X11489857Y-13730214D01*
X11518428Y-13744500D01*
X11532714Y-13758786D01*
X11547000Y-13787357D01*
X11547000Y-13873071D01*
X11532714Y-13901643D01*
X11518428Y-13915929D01*
X11489857Y-13930214D01*
X11432714Y-13930214D01*
X11404143Y-13915929D01*
X11675571Y-13901643D02*
X11689857Y-13915929D01*
X11675571Y-13930214D01*
X11661286Y-13915929D01*
X11675571Y-13901643D01*
X11675571Y-13930214D01*
X11675571Y-13744500D02*
X11689857Y-13758786D01*
X11675571Y-13773071D01*
X11661286Y-13758786D01*
X11675571Y-13744500D01*
X11675571Y-13773071D01*
X9225000Y-14371000D02*
X9332000Y-14478000D01*
X9332000Y-14371000D02*
X9225000Y-14478000D01*
X9775571Y-14560214D02*
X9604143Y-14560214D01*
X9689857Y-14560214D02*
X9689857Y-14260214D01*
X9661286Y-14303071D01*
X9632714Y-14331643D01*
X9604143Y-14345929D01*
X9904143Y-14531643D02*
X9918428Y-14545929D01*
X9904143Y-14560214D01*
X9889857Y-14545929D01*
X9904143Y-14531643D01*
X9904143Y-14560214D01*
X10104143Y-14260214D02*
X10132714Y-14260214D01*
X10161286Y-14274500D01*
X10175571Y-14288786D01*
X10189857Y-14317357D01*
X10204143Y-14374500D01*
X10204143Y-14445929D01*
X10189857Y-14503071D01*
X10175571Y-14531643D01*
X10161286Y-14545929D01*
X10132714Y-14560214D01*
X10104143Y-14560214D01*
X10075571Y-14545929D01*
X10061286Y-14531643D01*
X10047000Y-14503071D01*
X10032714Y-14445929D01*
X10032714Y-14374500D01*
X10047000Y-14317357D01*
X10061286Y-14288786D01*
X10075571Y-14274500D01*
X10104143Y-14260214D01*
X10304143Y-14260214D02*
X10504143Y-14260214D01*
X10375571Y-14560214D01*
X10675571Y-14260214D02*
X10704143Y-14260214D01*
X10732714Y-14274500D01*
X10747000Y-14288786D01*
X10761286Y-14317357D01*
X10775571Y-14374500D01*
X10775571Y-14445929D01*
X10761286Y-14503071D01*
X10747000Y-14531643D01*
X10732714Y-14545929D01*
X10704143Y-14560214D01*
X10675571Y-14560214D01*
X10647000Y-14545929D01*
X10632714Y-14531643D01*
X10618428Y-14503071D01*
X10604143Y-14445929D01*
X10604143Y-14374500D01*
X10618428Y-14317357D01*
X10632714Y-14288786D01*
X10647000Y-14274500D01*
X10675571Y-14260214D01*
X10904143Y-14560214D02*
X10904143Y-14360214D01*
X10904143Y-14388786D02*
X10918428Y-14374500D01*
X10947000Y-14360214D01*
X10989857Y-14360214D01*
X11018428Y-14374500D01*
X11032714Y-14403071D01*
X11032714Y-14560214D01*
X11032714Y-14403071D02*
X11047000Y-14374500D01*
X11075571Y-14360214D01*
X11118428Y-14360214D01*
X11147000Y-14374500D01*
X11161286Y-14403071D01*
X11161286Y-14560214D01*
X11304143Y-14560214D02*
X11304143Y-14360214D01*
X11304143Y-14388786D02*
X11318428Y-14374500D01*
X11347000Y-14360214D01*
X11389857Y-14360214D01*
X11418428Y-14374500D01*
X11432714Y-14403071D01*
X11432714Y-14560214D01*
X11432714Y-14403071D02*
X11447000Y-14374500D01*
X11475571Y-14360214D01*
X11518428Y-14360214D01*
X11547000Y-14374500D01*
X11561286Y-14403071D01*
X11561286Y-14560214D01*
X12147000Y-14245929D02*
X11889857Y-14631643D01*
X12532714Y-14260214D02*
X12561286Y-14260214D01*
X12589857Y-14274500D01*
X12604143Y-14288786D01*
X12618428Y-14317357D01*
X12632714Y-14374500D01*
X12632714Y-14445929D01*
X12618428Y-14503071D01*
X12604143Y-14531643D01*
X12589857Y-14545929D01*
X12561286Y-14560214D01*
X12532714Y-14560214D01*
X12504143Y-14545929D01*
X12489857Y-14531643D01*
X12475571Y-14503071D01*
X12461286Y-14445929D01*
X12461286Y-14374500D01*
X12475571Y-14317357D01*
X12489857Y-14288786D01*
X12504143Y-14274500D01*
X12532714Y-14260214D01*
X12761286Y-14531643D02*
X12775571Y-14545929D01*
X12761286Y-14560214D01*
X12747000Y-14545929D01*
X12761286Y-14531643D01*
X12761286Y-14560214D01*
X12961286Y-14260214D02*
X12989857Y-14260214D01*
X13018428Y-14274500D01*
X13032714Y-14288786D01*
X13047000Y-14317357D01*
X13061286Y-14374500D01*
X13061286Y-14445929D01*
X13047000Y-14503071D01*
X13032714Y-14531643D01*
X13018428Y-14545929D01*
X12989857Y-14560214D01*
X12961286Y-14560214D01*
X12932714Y-14545929D01*
X12918428Y-14531643D01*
X12904143Y-14503071D01*
X12889857Y-14445929D01*
X12889857Y-14374500D01*
X12904143Y-14317357D01*
X12918428Y-14288786D01*
X12932714Y-14274500D01*
X12961286Y-14260214D01*
X13318428Y-14360214D02*
X13318428Y-14560214D01*
X13247000Y-14245929D02*
X13175571Y-14460214D01*
X13361286Y-14460214D01*
X13461286Y-14288786D02*
X13475571Y-14274500D01*
X13504143Y-14260214D01*
X13575571Y-14260214D01*
X13604143Y-14274500D01*
X13618428Y-14288786D01*
X13632714Y-14317357D01*
X13632714Y-14345929D01*
X13618428Y-14388786D01*
X13447000Y-14560214D01*
X13632714Y-14560214D01*
X13918428Y-14560214D02*
X13747000Y-14560214D01*
X13832714Y-14560214D02*
X13832714Y-14260214D01*
X13804143Y-14303071D01*
X13775571Y-14331643D01*
X13747000Y-14345929D01*
X14032714Y-14260214D02*
X14032714Y-14317357D01*
X14147000Y-14260214D02*
X14147000Y-14317357D01*
X14589857Y-14674500D02*
X14575571Y-14660214D01*
X14547000Y-14617357D01*
X14532714Y-14588786D01*
X14518428Y-14545929D01*
X14504143Y-14474500D01*
X14504143Y-14417357D01*
X14518428Y-14345929D01*
X14532714Y-14303071D01*
X14547000Y-14274500D01*
X14575571Y-14231643D01*
X14589857Y-14217357D01*
X14689857Y-14288786D02*
X14704143Y-14274500D01*
X14732714Y-14260214D01*
X14804143Y-14260214D01*
X14832714Y-14274500D01*
X14847000Y-14288786D01*
X14861286Y-14317357D01*
X14861286Y-14345929D01*
X14847000Y-14388786D01*
X14675571Y-14560214D01*
X14861286Y-14560214D01*
X15218428Y-14560214D02*
X15218428Y-14260214D01*
X15347000Y-14560214D02*
X15347000Y-14403071D01*
X15332714Y-14374500D01*
X15304143Y-14360214D01*
X15261286Y-14360214D01*
X15232714Y-14374500D01*
X15218428Y-14388786D01*
X15532714Y-14560214D02*
X15504143Y-14545929D01*
X15489857Y-14531643D01*
X15475571Y-14503071D01*
X15475571Y-14417357D01*
X15489857Y-14388786D01*
X15504143Y-14374500D01*
X15532714Y-14360214D01*
X15575571Y-14360214D01*
X15604143Y-14374500D01*
X15618428Y-14388786D01*
X15632714Y-14417357D01*
X15632714Y-14503071D01*
X15618428Y-14531643D01*
X15604143Y-14545929D01*
X15575571Y-14560214D01*
X15532714Y-14560214D01*
X15804143Y-14560214D02*
X15775571Y-14545929D01*
X15761286Y-14517357D01*
X15761286Y-14260214D01*
X16032714Y-14545929D02*
X16004143Y-14560214D01*
X15947000Y-14560214D01*
X15918428Y-14545929D01*
X15904143Y-14517357D01*
X15904143Y-14403071D01*
X15918428Y-14374500D01*
X15947000Y-14360214D01*
X16004143Y-14360214D01*
X16032714Y-14374500D01*
X16047000Y-14403071D01*
X16047000Y-14431643D01*
X15904143Y-14460214D01*
X16161286Y-14545929D02*
X16189857Y-14560214D01*
X16247000Y-14560214D01*
X16275571Y-14545929D01*
X16289857Y-14517357D01*
X16289857Y-14503071D01*
X16275571Y-14474500D01*
X16247000Y-14460214D01*
X16204143Y-14460214D01*
X16175571Y-14445929D01*
X16161286Y-14417357D01*
X16161286Y-14403071D01*
X16175571Y-14374500D01*
X16204143Y-14360214D01*
X16247000Y-14360214D01*
X16275571Y-14374500D01*
X16389857Y-14674500D02*
X16404143Y-14660214D01*
X16432714Y-14617357D01*
X16447000Y-14588786D01*
X16461286Y-14545929D01*
X16475571Y-14474500D01*
X16475571Y-14417357D01*
X16461286Y-14345929D01*
X16447000Y-14303071D01*
X16432714Y-14274500D01*
X16404143Y-14231643D01*
X16389857Y-14217357D01*
X16932714Y-14674500D02*
X16918428Y-14660214D01*
X16889857Y-14617357D01*
X16875571Y-14588786D01*
X16861286Y-14545929D01*
X16847000Y-14474500D01*
X16847000Y-14417357D01*
X16861286Y-14345929D01*
X16875571Y-14303071D01*
X16889857Y-14274500D01*
X16918428Y-14231643D01*
X16932714Y-14217357D01*
X17047000Y-14360214D02*
X17047000Y-14560214D01*
X17047000Y-14388786D02*
X17061286Y-14374500D01*
X17089857Y-14360214D01*
X17132714Y-14360214D01*
X17161286Y-14374500D01*
X17175571Y-14403071D01*
X17175571Y-14560214D01*
X17361286Y-14560214D02*
X17332714Y-14545929D01*
X17318428Y-14531643D01*
X17304143Y-14503071D01*
X17304143Y-14417357D01*
X17318428Y-14388786D01*
X17332714Y-14374500D01*
X17361286Y-14360214D01*
X17404143Y-14360214D01*
X17432714Y-14374500D01*
X17447000Y-14388786D01*
X17461286Y-14417357D01*
X17461286Y-14503071D01*
X17447000Y-14531643D01*
X17432714Y-14545929D01*
X17404143Y-14560214D01*
X17361286Y-14560214D01*
X17547000Y-14360214D02*
X17661286Y-14360214D01*
X17589857Y-14260214D02*
X17589857Y-14517357D01*
X17604143Y-14545929D01*
X17632714Y-14560214D01*
X17661286Y-14560214D01*
X17989857Y-14360214D02*
X17989857Y-14660214D01*
X17989857Y-14374500D02*
X18018428Y-14360214D01*
X18075571Y-14360214D01*
X18104143Y-14374500D01*
X18118428Y-14388786D01*
X18132714Y-14417357D01*
X18132714Y-14503071D01*
X18118428Y-14531643D01*
X18104143Y-14545929D01*
X18075571Y-14560214D01*
X18018428Y-14560214D01*
X17989857Y-14545929D01*
X18304143Y-14560214D02*
X18275571Y-14545929D01*
X18261286Y-14517357D01*
X18261286Y-14260214D01*
X18547000Y-14560214D02*
X18547000Y-14403071D01*
X18532714Y-14374500D01*
X18504143Y-14360214D01*
X18447000Y-14360214D01*
X18418428Y-14374500D01*
X18547000Y-14545929D02*
X18518428Y-14560214D01*
X18447000Y-14560214D01*
X18418428Y-14545929D01*
X18404143Y-14517357D01*
X18404143Y-14488786D01*
X18418428Y-14460214D01*
X18447000Y-14445929D01*
X18518428Y-14445929D01*
X18547000Y-14431643D01*
X18647000Y-14360214D02*
X18761286Y-14360214D01*
X18689857Y-14260214D02*
X18689857Y-14517357D01*
X18704143Y-14545929D01*
X18732714Y-14560214D01*
X18761286Y-14560214D01*
X18975571Y-14545929D02*
X18947000Y-14560214D01*
X18889857Y-14560214D01*
X18861286Y-14545929D01*
X18847000Y-14517357D01*
X18847000Y-14403071D01*
X18861286Y-14374500D01*
X18889857Y-14360214D01*
X18947000Y-14360214D01*
X18975571Y-14374500D01*
X18989857Y-14403071D01*
X18989857Y-14431643D01*
X18847000Y-14460214D01*
X19247000Y-14560214D02*
X19247000Y-14260214D01*
X19247000Y-14545929D02*
X19218428Y-14560214D01*
X19161286Y-14560214D01*
X19132714Y-14545929D01*
X19118428Y-14531643D01*
X19104143Y-14503071D01*
X19104143Y-14417357D01*
X19118428Y-14388786D01*
X19132714Y-14374500D01*
X19161286Y-14360214D01*
X19218428Y-14360214D01*
X19247000Y-14374500D01*
X19361286Y-14674500D02*
X19375571Y-14660214D01*
X19404143Y-14617357D01*
X19418428Y-14588786D01*
X19432714Y-14545929D01*
X19447000Y-14474500D01*
X19447000Y-14417357D01*
X19432714Y-14345929D01*
X19418428Y-14303071D01*
X19404143Y-14274500D01*
X19375571Y-14231643D01*
X19361286Y-14217357D01*
X9332000Y-14820500D02*
G75*
G03*
X9332000Y-14820500I-123000J0D01*
G01*
X9604143Y-14684786D02*
X9618428Y-14670500D01*
X9647000Y-14656214D01*
X9718428Y-14656214D01*
X9747000Y-14670500D01*
X9761286Y-14684786D01*
X9775571Y-14713357D01*
X9775571Y-14741929D01*
X9761286Y-14784786D01*
X9589857Y-14956214D01*
X9775571Y-14956214D01*
X9904143Y-14927643D02*
X9918428Y-14941929D01*
X9904143Y-14956214D01*
X9889857Y-14941929D01*
X9904143Y-14927643D01*
X9904143Y-14956214D01*
X10175571Y-14756214D02*
X10175571Y-14956214D01*
X10104143Y-14641929D02*
X10032714Y-14856214D01*
X10218428Y-14856214D01*
X10461286Y-14656214D02*
X10404143Y-14656214D01*
X10375571Y-14670500D01*
X10361286Y-14684786D01*
X10332714Y-14727643D01*
X10318428Y-14784786D01*
X10318428Y-14899071D01*
X10332714Y-14927643D01*
X10347000Y-14941929D01*
X10375571Y-14956214D01*
X10432714Y-14956214D01*
X10461286Y-14941929D01*
X10475571Y-14927643D01*
X10489857Y-14899071D01*
X10489857Y-14827643D01*
X10475571Y-14799071D01*
X10461286Y-14784786D01*
X10432714Y-14770500D01*
X10375571Y-14770500D01*
X10347000Y-14784786D01*
X10332714Y-14799071D01*
X10318428Y-14827643D01*
X10675571Y-14656214D02*
X10704143Y-14656214D01*
X10732714Y-14670500D01*
X10747000Y-14684786D01*
X10761286Y-14713357D01*
X10775571Y-14770500D01*
X10775571Y-14841929D01*
X10761286Y-14899071D01*
X10747000Y-14927643D01*
X10732714Y-14941929D01*
X10704143Y-14956214D01*
X10675571Y-14956214D01*
X10647000Y-14941929D01*
X10632714Y-14927643D01*
X10618428Y-14899071D01*
X10604143Y-14841929D01*
X10604143Y-14770500D01*
X10618428Y-14713357D01*
X10632714Y-14684786D01*
X10647000Y-14670500D01*
X10675571Y-14656214D01*
X10904143Y-14956214D02*
X10904143Y-14756214D01*
X10904143Y-14784786D02*
X10918428Y-14770500D01*
X10947000Y-14756214D01*
X10989857Y-14756214D01*
X11018428Y-14770500D01*
X11032714Y-14799071D01*
X11032714Y-14956214D01*
X11032714Y-14799071D02*
X11047000Y-14770500D01*
X11075571Y-14756214D01*
X11118428Y-14756214D01*
X11147000Y-14770500D01*
X11161286Y-14799071D01*
X11161286Y-14956214D01*
X11304143Y-14956214D02*
X11304143Y-14756214D01*
X11304143Y-14784786D02*
X11318428Y-14770500D01*
X11347000Y-14756214D01*
X11389857Y-14756214D01*
X11418428Y-14770500D01*
X11432714Y-14799071D01*
X11432714Y-14956214D01*
X11432714Y-14799071D02*
X11447000Y-14770500D01*
X11475571Y-14756214D01*
X11518428Y-14756214D01*
X11547000Y-14770500D01*
X11561286Y-14799071D01*
X11561286Y-14956214D01*
X12147000Y-14641929D02*
X11889857Y-15027643D01*
X12532714Y-14656214D02*
X12561286Y-14656214D01*
X12589857Y-14670500D01*
X12604143Y-14684786D01*
X12618428Y-14713357D01*
X12632714Y-14770500D01*
X12632714Y-14841929D01*
X12618428Y-14899071D01*
X12604143Y-14927643D01*
X12589857Y-14941929D01*
X12561286Y-14956214D01*
X12532714Y-14956214D01*
X12504143Y-14941929D01*
X12489857Y-14927643D01*
X12475571Y-14899071D01*
X12461286Y-14841929D01*
X12461286Y-14770500D01*
X12475571Y-14713357D01*
X12489857Y-14684786D01*
X12504143Y-14670500D01*
X12532714Y-14656214D01*
X12761286Y-14927643D02*
X12775571Y-14941929D01*
X12761286Y-14956214D01*
X12747000Y-14941929D01*
X12761286Y-14927643D01*
X12761286Y-14956214D01*
X12961286Y-14656214D02*
X12989857Y-14656214D01*
X13018428Y-14670500D01*
X13032714Y-14684786D01*
X13047000Y-14713357D01*
X13061286Y-14770500D01*
X13061286Y-14841929D01*
X13047000Y-14899071D01*
X13032714Y-14927643D01*
X13018428Y-14941929D01*
X12989857Y-14956214D01*
X12961286Y-14956214D01*
X12932714Y-14941929D01*
X12918428Y-14927643D01*
X12904143Y-14899071D01*
X12889857Y-14841929D01*
X12889857Y-14770500D01*
X12904143Y-14713357D01*
X12918428Y-14684786D01*
X12932714Y-14670500D01*
X12961286Y-14656214D01*
X13204143Y-14956214D02*
X13261286Y-14956214D01*
X13289857Y-14941929D01*
X13304143Y-14927643D01*
X13332714Y-14884786D01*
X13347000Y-14827643D01*
X13347000Y-14713357D01*
X13332714Y-14684786D01*
X13318428Y-14670500D01*
X13289857Y-14656214D01*
X13232714Y-14656214D01*
X13204143Y-14670500D01*
X13189857Y-14684786D01*
X13175571Y-14713357D01*
X13175571Y-14784786D01*
X13189857Y-14813357D01*
X13204143Y-14827643D01*
X13232714Y-14841929D01*
X13289857Y-14841929D01*
X13318428Y-14827643D01*
X13332714Y-14813357D01*
X13347000Y-14784786D01*
X13604143Y-14656214D02*
X13547000Y-14656214D01*
X13518428Y-14670500D01*
X13504143Y-14684786D01*
X13475571Y-14727643D01*
X13461286Y-14784786D01*
X13461286Y-14899071D01*
X13475571Y-14927643D01*
X13489857Y-14941929D01*
X13518428Y-14956214D01*
X13575571Y-14956214D01*
X13604143Y-14941929D01*
X13618428Y-14927643D01*
X13632714Y-14899071D01*
X13632714Y-14827643D01*
X13618428Y-14799071D01*
X13604143Y-14784786D01*
X13575571Y-14770500D01*
X13518428Y-14770500D01*
X13489857Y-14784786D01*
X13475571Y-14799071D01*
X13461286Y-14827643D01*
X13775571Y-14956214D02*
X13832714Y-14956214D01*
X13861286Y-14941929D01*
X13875571Y-14927643D01*
X13904143Y-14884786D01*
X13918428Y-14827643D01*
X13918428Y-14713357D01*
X13904143Y-14684786D01*
X13889857Y-14670500D01*
X13861286Y-14656214D01*
X13804143Y-14656214D01*
X13775571Y-14670500D01*
X13761286Y-14684786D01*
X13747000Y-14713357D01*
X13747000Y-14784786D01*
X13761286Y-14813357D01*
X13775571Y-14827643D01*
X13804143Y-14841929D01*
X13861286Y-14841929D01*
X13889857Y-14827643D01*
X13904143Y-14813357D01*
X13918428Y-14784786D01*
X14032714Y-14656214D02*
X14032714Y-14713357D01*
X14147000Y-14656214D02*
X14147000Y-14713357D01*
X14589857Y-15070500D02*
X14575571Y-15056214D01*
X14547000Y-15013357D01*
X14532714Y-14984786D01*
X14518428Y-14941929D01*
X14504143Y-14870500D01*
X14504143Y-14813357D01*
X14518428Y-14741929D01*
X14532714Y-14699071D01*
X14547000Y-14670500D01*
X14575571Y-14627643D01*
X14589857Y-14613357D01*
X14689857Y-14684786D02*
X14704143Y-14670500D01*
X14732714Y-14656214D01*
X14804143Y-14656214D01*
X14832714Y-14670500D01*
X14847000Y-14684786D01*
X14861286Y-14713357D01*
X14861286Y-14741929D01*
X14847000Y-14784786D01*
X14675571Y-14956214D01*
X14861286Y-14956214D01*
X15218428Y-14956214D02*
X15218428Y-14656214D01*
X15347000Y-14956214D02*
X15347000Y-14799071D01*
X15332714Y-14770500D01*
X15304143Y-14756214D01*
X15261286Y-14756214D01*
X15232714Y-14770500D01*
X15218428Y-14784786D01*
X15532714Y-14956214D02*
X15504143Y-14941929D01*
X15489857Y-14927643D01*
X15475571Y-14899071D01*
X15475571Y-14813357D01*
X15489857Y-14784786D01*
X15504143Y-14770500D01*
X15532714Y-14756214D01*
X15575571Y-14756214D01*
X15604143Y-14770500D01*
X15618428Y-14784786D01*
X15632714Y-14813357D01*
X15632714Y-14899071D01*
X15618428Y-14927643D01*
X15604143Y-14941929D01*
X15575571Y-14956214D01*
X15532714Y-14956214D01*
X15804143Y-14956214D02*
X15775571Y-14941929D01*
X15761286Y-14913357D01*
X15761286Y-14656214D01*
X16032714Y-14941929D02*
X16004143Y-14956214D01*
X15947000Y-14956214D01*
X15918428Y-14941929D01*
X15904143Y-14913357D01*
X15904143Y-14799071D01*
X15918428Y-14770500D01*
X15947000Y-14756214D01*
X16004143Y-14756214D01*
X16032714Y-14770500D01*
X16047000Y-14799071D01*
X16047000Y-14827643D01*
X15904143Y-14856214D01*
X16161286Y-14941929D02*
X16189857Y-14956214D01*
X16247000Y-14956214D01*
X16275571Y-14941929D01*
X16289857Y-14913357D01*
X16289857Y-14899071D01*
X16275571Y-14870500D01*
X16247000Y-14856214D01*
X16204143Y-14856214D01*
X16175571Y-14841929D01*
X16161286Y-14813357D01*
X16161286Y-14799071D01*
X16175571Y-14770500D01*
X16204143Y-14756214D01*
X16247000Y-14756214D01*
X16275571Y-14770500D01*
X16389857Y-15070500D02*
X16404143Y-15056214D01*
X16432714Y-15013357D01*
X16447000Y-14984786D01*
X16461286Y-14941929D01*
X16475571Y-14870500D01*
X16475571Y-14813357D01*
X16461286Y-14741929D01*
X16447000Y-14699071D01*
X16432714Y-14670500D01*
X16404143Y-14627643D01*
X16389857Y-14613357D01*
X16932714Y-15070500D02*
X16918428Y-15056214D01*
X16889857Y-15013357D01*
X16875571Y-14984786D01*
X16861286Y-14941929D01*
X16847000Y-14870500D01*
X16847000Y-14813357D01*
X16861286Y-14741929D01*
X16875571Y-14699071D01*
X16889857Y-14670500D01*
X16918428Y-14627643D01*
X16932714Y-14613357D01*
X17047000Y-14756214D02*
X17047000Y-14956214D01*
X17047000Y-14784786D02*
X17061286Y-14770500D01*
X17089857Y-14756214D01*
X17132714Y-14756214D01*
X17161286Y-14770500D01*
X17175571Y-14799071D01*
X17175571Y-14956214D01*
X17361286Y-14956214D02*
X17332714Y-14941929D01*
X17318428Y-14927643D01*
X17304143Y-14899071D01*
X17304143Y-14813357D01*
X17318428Y-14784786D01*
X17332714Y-14770500D01*
X17361286Y-14756214D01*
X17404143Y-14756214D01*
X17432714Y-14770500D01*
X17447000Y-14784786D01*
X17461286Y-14813357D01*
X17461286Y-14899071D01*
X17447000Y-14927643D01*
X17432714Y-14941929D01*
X17404143Y-14956214D01*
X17361286Y-14956214D01*
X17547000Y-14756214D02*
X17661286Y-14756214D01*
X17589857Y-14656214D02*
X17589857Y-14913357D01*
X17604143Y-14941929D01*
X17632714Y-14956214D01*
X17661286Y-14956214D01*
X17989857Y-14756214D02*
X17989857Y-15056214D01*
X17989857Y-14770500D02*
X18018428Y-14756214D01*
X18075571Y-14756214D01*
X18104143Y-14770500D01*
X18118428Y-14784786D01*
X18132714Y-14813357D01*
X18132714Y-14899071D01*
X18118428Y-14927643D01*
X18104143Y-14941929D01*
X18075571Y-14956214D01*
X18018428Y-14956214D01*
X17989857Y-14941929D01*
X18304143Y-14956214D02*
X18275571Y-14941929D01*
X18261286Y-14913357D01*
X18261286Y-14656214D01*
X18547000Y-14956214D02*
X18547000Y-14799071D01*
X18532714Y-14770500D01*
X18504143Y-14756214D01*
X18447000Y-14756214D01*
X18418428Y-14770500D01*
X18547000Y-14941929D02*
X18518428Y-14956214D01*
X18447000Y-14956214D01*
X18418428Y-14941929D01*
X18404143Y-14913357D01*
X18404143Y-14884786D01*
X18418428Y-14856214D01*
X18447000Y-14841929D01*
X18518428Y-14841929D01*
X18547000Y-14827643D01*
X18647000Y-14756214D02*
X18761286Y-14756214D01*
X18689857Y-14656214D02*
X18689857Y-14913357D01*
X18704143Y-14941929D01*
X18732714Y-14956214D01*
X18761286Y-14956214D01*
X18975571Y-14941929D02*
X18947000Y-14956214D01*
X18889857Y-14956214D01*
X18861286Y-14941929D01*
X18847000Y-14913357D01*
X18847000Y-14799071D01*
X18861286Y-14770500D01*
X18889857Y-14756214D01*
X18947000Y-14756214D01*
X18975571Y-14770500D01*
X18989857Y-14799071D01*
X18989857Y-14827643D01*
X18847000Y-14856214D01*
X19247000Y-14956214D02*
X19247000Y-14656214D01*
X19247000Y-14941929D02*
X19218428Y-14956214D01*
X19161286Y-14956214D01*
X19132714Y-14941929D01*
X19118428Y-14927643D01*
X19104143Y-14899071D01*
X19104143Y-14813357D01*
X19118428Y-14784786D01*
X19132714Y-14770500D01*
X19161286Y-14756214D01*
X19218428Y-14756214D01*
X19247000Y-14770500D01*
X19361286Y-15070500D02*
X19375571Y-15056214D01*
X19404143Y-15013357D01*
X19418428Y-14984786D01*
X19432714Y-14941929D01*
X19447000Y-14870500D01*
X19447000Y-14813357D01*
X19432714Y-14741929D01*
X19418428Y-14699071D01*
X19404143Y-14670500D01*
X19375571Y-14627643D01*
X19361286Y-14613357D01*
X9172000Y-15056500D02*
X9172000Y-15376500D01*
X9012000Y-15216500D02*
X9332000Y-15216500D01*
X9589857Y-15052214D02*
X9775571Y-15052214D01*
X9675571Y-15166500D01*
X9718428Y-15166500D01*
X9747000Y-15180786D01*
X9761286Y-15195071D01*
X9775571Y-15223643D01*
X9775571Y-15295071D01*
X9761286Y-15323643D01*
X9747000Y-15337929D01*
X9718428Y-15352214D01*
X9632714Y-15352214D01*
X9604143Y-15337929D01*
X9589857Y-15323643D01*
X9904143Y-15323643D02*
X9918428Y-15337929D01*
X9904143Y-15352214D01*
X9889857Y-15337929D01*
X9904143Y-15323643D01*
X9904143Y-15352214D01*
X10032714Y-15080786D02*
X10047000Y-15066500D01*
X10075571Y-15052214D01*
X10147000Y-15052214D01*
X10175571Y-15066500D01*
X10189857Y-15080786D01*
X10204143Y-15109357D01*
X10204143Y-15137929D01*
X10189857Y-15180786D01*
X10018428Y-15352214D01*
X10204143Y-15352214D01*
X10389857Y-15052214D02*
X10418428Y-15052214D01*
X10447000Y-15066500D01*
X10461286Y-15080786D01*
X10475571Y-15109357D01*
X10489857Y-15166500D01*
X10489857Y-15237929D01*
X10475571Y-15295071D01*
X10461286Y-15323643D01*
X10447000Y-15337929D01*
X10418428Y-15352214D01*
X10389857Y-15352214D01*
X10361286Y-15337929D01*
X10347000Y-15323643D01*
X10332714Y-15295071D01*
X10318428Y-15237929D01*
X10318428Y-15166500D01*
X10332714Y-15109357D01*
X10347000Y-15080786D01*
X10361286Y-15066500D01*
X10389857Y-15052214D01*
X10675571Y-15052214D02*
X10704143Y-15052214D01*
X10732714Y-15066500D01*
X10747000Y-15080786D01*
X10761286Y-15109357D01*
X10775571Y-15166500D01*
X10775571Y-15237929D01*
X10761286Y-15295071D01*
X10747000Y-15323643D01*
X10732714Y-15337929D01*
X10704143Y-15352214D01*
X10675571Y-15352214D01*
X10647000Y-15337929D01*
X10632714Y-15323643D01*
X10618428Y-15295071D01*
X10604143Y-15237929D01*
X10604143Y-15166500D01*
X10618428Y-15109357D01*
X10632714Y-15080786D01*
X10647000Y-15066500D01*
X10675571Y-15052214D01*
X10904143Y-15352214D02*
X10904143Y-15152214D01*
X10904143Y-15180786D02*
X10918428Y-15166500D01*
X10947000Y-15152214D01*
X10989857Y-15152214D01*
X11018428Y-15166500D01*
X11032714Y-15195071D01*
X11032714Y-15352214D01*
X11032714Y-15195071D02*
X11047000Y-15166500D01*
X11075571Y-15152214D01*
X11118428Y-15152214D01*
X11147000Y-15166500D01*
X11161286Y-15195071D01*
X11161286Y-15352214D01*
X11304143Y-15352214D02*
X11304143Y-15152214D01*
X11304143Y-15180786D02*
X11318428Y-15166500D01*
X11347000Y-15152214D01*
X11389857Y-15152214D01*
X11418428Y-15166500D01*
X11432714Y-15195071D01*
X11432714Y-15352214D01*
X11432714Y-15195071D02*
X11447000Y-15166500D01*
X11475571Y-15152214D01*
X11518428Y-15152214D01*
X11547000Y-15166500D01*
X11561286Y-15195071D01*
X11561286Y-15352214D01*
X12147000Y-15037929D02*
X11889857Y-15423643D01*
X12532714Y-15052214D02*
X12561286Y-15052214D01*
X12589857Y-15066500D01*
X12604143Y-15080786D01*
X12618428Y-15109357D01*
X12632714Y-15166500D01*
X12632714Y-15237929D01*
X12618428Y-15295071D01*
X12604143Y-15323643D01*
X12589857Y-15337929D01*
X12561286Y-15352214D01*
X12532714Y-15352214D01*
X12504143Y-15337929D01*
X12489857Y-15323643D01*
X12475571Y-15295071D01*
X12461286Y-15237929D01*
X12461286Y-15166500D01*
X12475571Y-15109357D01*
X12489857Y-15080786D01*
X12504143Y-15066500D01*
X12532714Y-15052214D01*
X12761286Y-15323643D02*
X12775571Y-15337929D01*
X12761286Y-15352214D01*
X12747000Y-15337929D01*
X12761286Y-15323643D01*
X12761286Y-15352214D01*
X13061286Y-15352214D02*
X12889857Y-15352214D01*
X12975571Y-15352214D02*
X12975571Y-15052214D01*
X12947000Y-15095071D01*
X12918428Y-15123643D01*
X12889857Y-15137929D01*
X13175571Y-15080786D02*
X13189857Y-15066500D01*
X13218428Y-15052214D01*
X13289857Y-15052214D01*
X13318428Y-15066500D01*
X13332714Y-15080786D01*
X13347000Y-15109357D01*
X13347000Y-15137929D01*
X13332714Y-15180786D01*
X13161286Y-15352214D01*
X13347000Y-15352214D01*
X13604143Y-15052214D02*
X13547000Y-15052214D01*
X13518428Y-15066500D01*
X13504143Y-15080786D01*
X13475571Y-15123643D01*
X13461286Y-15180786D01*
X13461286Y-15295071D01*
X13475571Y-15323643D01*
X13489857Y-15337929D01*
X13518428Y-15352214D01*
X13575571Y-15352214D01*
X13604143Y-15337929D01*
X13618428Y-15323643D01*
X13632714Y-15295071D01*
X13632714Y-15223643D01*
X13618428Y-15195071D01*
X13604143Y-15180786D01*
X13575571Y-15166500D01*
X13518428Y-15166500D01*
X13489857Y-15180786D01*
X13475571Y-15195071D01*
X13461286Y-15223643D01*
X13818428Y-15052214D02*
X13847000Y-15052214D01*
X13875571Y-15066500D01*
X13889857Y-15080786D01*
X13904143Y-15109357D01*
X13918428Y-15166500D01*
X13918428Y-15237929D01*
X13904143Y-15295071D01*
X13889857Y-15323643D01*
X13875571Y-15337929D01*
X13847000Y-15352214D01*
X13818428Y-15352214D01*
X13789857Y-15337929D01*
X13775571Y-15323643D01*
X13761286Y-15295071D01*
X13747000Y-15237929D01*
X13747000Y-15166500D01*
X13761286Y-15109357D01*
X13775571Y-15080786D01*
X13789857Y-15066500D01*
X13818428Y-15052214D01*
X14032714Y-15052214D02*
X14032714Y-15109357D01*
X14147000Y-15052214D02*
X14147000Y-15109357D01*
X14589857Y-15466500D02*
X14575571Y-15452214D01*
X14547000Y-15409357D01*
X14532714Y-15380786D01*
X14518428Y-15337929D01*
X14504143Y-15266500D01*
X14504143Y-15209357D01*
X14518428Y-15137929D01*
X14532714Y-15095071D01*
X14547000Y-15066500D01*
X14575571Y-15023643D01*
X14589857Y-15009357D01*
X14847000Y-15052214D02*
X14704143Y-15052214D01*
X14689857Y-15195071D01*
X14704143Y-15180786D01*
X14732714Y-15166500D01*
X14804143Y-15166500D01*
X14832714Y-15180786D01*
X14847000Y-15195071D01*
X14861286Y-15223643D01*
X14861286Y-15295071D01*
X14847000Y-15323643D01*
X14832714Y-15337929D01*
X14804143Y-15352214D01*
X14732714Y-15352214D01*
X14704143Y-15337929D01*
X14689857Y-15323643D01*
X15218428Y-15352214D02*
X15218428Y-15052214D01*
X15347000Y-15352214D02*
X15347000Y-15195071D01*
X15332714Y-15166500D01*
X15304143Y-15152214D01*
X15261286Y-15152214D01*
X15232714Y-15166500D01*
X15218428Y-15180786D01*
X15532714Y-15352214D02*
X15504143Y-15337929D01*
X15489857Y-15323643D01*
X15475571Y-15295071D01*
X15475571Y-15209357D01*
X15489857Y-15180786D01*
X15504143Y-15166500D01*
X15532714Y-15152214D01*
X15575571Y-15152214D01*
X15604143Y-15166500D01*
X15618428Y-15180786D01*
X15632714Y-15209357D01*
X15632714Y-15295071D01*
X15618428Y-15323643D01*
X15604143Y-15337929D01*
X15575571Y-15352214D01*
X15532714Y-15352214D01*
X15804143Y-15352214D02*
X15775571Y-15337929D01*
X15761286Y-15309357D01*
X15761286Y-15052214D01*
X16032714Y-15337929D02*
X16004143Y-15352214D01*
X15947000Y-15352214D01*
X15918428Y-15337929D01*
X15904143Y-15309357D01*
X15904143Y-15195071D01*
X15918428Y-15166500D01*
X15947000Y-15152214D01*
X16004143Y-15152214D01*
X16032714Y-15166500D01*
X16047000Y-15195071D01*
X16047000Y-15223643D01*
X15904143Y-15252214D01*
X16161286Y-15337929D02*
X16189857Y-15352214D01*
X16247000Y-15352214D01*
X16275571Y-15337929D01*
X16289857Y-15309357D01*
X16289857Y-15295071D01*
X16275571Y-15266500D01*
X16247000Y-15252214D01*
X16204143Y-15252214D01*
X16175571Y-15237929D01*
X16161286Y-15209357D01*
X16161286Y-15195071D01*
X16175571Y-15166500D01*
X16204143Y-15152214D01*
X16247000Y-15152214D01*
X16275571Y-15166500D01*
X16389857Y-15466500D02*
X16404143Y-15452214D01*
X16432714Y-15409357D01*
X16447000Y-15380786D01*
X16461286Y-15337929D01*
X16475571Y-15266500D01*
X16475571Y-15209357D01*
X16461286Y-15137929D01*
X16447000Y-15095071D01*
X16432714Y-15066500D01*
X16404143Y-15023643D01*
X16389857Y-15009357D01*
X16932714Y-15466500D02*
X16918428Y-15452214D01*
X16889857Y-15409357D01*
X16875571Y-15380786D01*
X16861286Y-15337929D01*
X16847000Y-15266500D01*
X16847000Y-15209357D01*
X16861286Y-15137929D01*
X16875571Y-15095071D01*
X16889857Y-15066500D01*
X16918428Y-15023643D01*
X16932714Y-15009357D01*
X17047000Y-15152214D02*
X17047000Y-15352214D01*
X17047000Y-15180786D02*
X17061286Y-15166500D01*
X17089857Y-15152214D01*
X17132714Y-15152214D01*
X17161286Y-15166500D01*
X17175571Y-15195071D01*
X17175571Y-15352214D01*
X17361286Y-15352214D02*
X17332714Y-15337929D01*
X17318428Y-15323643D01*
X17304143Y-15295071D01*
X17304143Y-15209357D01*
X17318428Y-15180786D01*
X17332714Y-15166500D01*
X17361286Y-15152214D01*
X17404143Y-15152214D01*
X17432714Y-15166500D01*
X17447000Y-15180786D01*
X17461286Y-15209357D01*
X17461286Y-15295071D01*
X17447000Y-15323643D01*
X17432714Y-15337929D01*
X17404143Y-15352214D01*
X17361286Y-15352214D01*
X17547000Y-15152214D02*
X17661286Y-15152214D01*
X17589857Y-15052214D02*
X17589857Y-15309357D01*
X17604143Y-15337929D01*
X17632714Y-15352214D01*
X17661286Y-15352214D01*
X17989857Y-15152214D02*
X17989857Y-15452214D01*
X17989857Y-15166500D02*
X18018428Y-15152214D01*
X18075571Y-15152214D01*
X18104143Y-15166500D01*
X18118428Y-15180786D01*
X18132714Y-15209357D01*
X18132714Y-15295071D01*
X18118428Y-15323643D01*
X18104143Y-15337929D01*
X18075571Y-15352214D01*
X18018428Y-15352214D01*
X17989857Y-15337929D01*
X18304143Y-15352214D02*
X18275571Y-15337929D01*
X18261286Y-15309357D01*
X18261286Y-15052214D01*
X18547000Y-15352214D02*
X18547000Y-15195071D01*
X18532714Y-15166500D01*
X18504143Y-15152214D01*
X18447000Y-15152214D01*
X18418428Y-15166500D01*
X18547000Y-15337929D02*
X18518428Y-15352214D01*
X18447000Y-15352214D01*
X18418428Y-15337929D01*
X18404143Y-15309357D01*
X18404143Y-15280786D01*
X18418428Y-15252214D01*
X18447000Y-15237929D01*
X18518428Y-15237929D01*
X18547000Y-15223643D01*
X18647000Y-15152214D02*
X18761286Y-15152214D01*
X18689857Y-15052214D02*
X18689857Y-15309357D01*
X18704143Y-15337929D01*
X18732714Y-15352214D01*
X18761286Y-15352214D01*
X18975571Y-15337929D02*
X18947000Y-15352214D01*
X18889857Y-15352214D01*
X18861286Y-15337929D01*
X18847000Y-15309357D01*
X18847000Y-15195071D01*
X18861286Y-15166500D01*
X18889857Y-15152214D01*
X18947000Y-15152214D01*
X18975571Y-15166500D01*
X18989857Y-15195071D01*
X18989857Y-15223643D01*
X18847000Y-15252214D01*
X19247000Y-15352214D02*
X19247000Y-15052214D01*
X19247000Y-15337929D02*
X19218428Y-15352214D01*
X19161286Y-15352214D01*
X19132714Y-15337929D01*
X19118428Y-15323643D01*
X19104143Y-15295071D01*
X19104143Y-15209357D01*
X19118428Y-15180786D01*
X19132714Y-15166500D01*
X19161286Y-15152214D01*
X19218428Y-15152214D01*
X19247000Y-15166500D01*
X19361286Y-15466500D02*
X19375571Y-15452214D01*
X19404143Y-15409357D01*
X19418428Y-15380786D01*
X19432714Y-15337929D01*
X19447000Y-15266500D01*
X19447000Y-15209357D01*
X19432714Y-15137929D01*
X19418428Y-15095071D01*
X19404143Y-15066500D01*
X19375571Y-15023643D01*
X19361286Y-15009357D01*
M02*
