G04 #@! TF.GenerationSoftware,KiCad,Pcbnew,5.1.12-84ad8e8a86~92~ubuntu20.04.1*
G04 #@! TF.CreationDate,2021-12-18T18:34:38-08:00*
G04 #@! TF.ProjectId,RspPiPicoIMU,52737050-6950-4696-936f-494d552e6b69,1.0*
G04 #@! TF.SameCoordinates,Original*
G04 #@! TF.FileFunction,Copper,L1,Top*
G04 #@! TF.FilePolarity,Positive*
%FSLAX46Y46*%
G04 Gerber Fmt 4.6, Leading zero omitted, Abs format (unit mm)*
G04 Created by KiCad (PCBNEW 5.1.12-84ad8e8a86~92~ubuntu20.04.1) date 2021-12-18 18:34:38*
%MOMM*%
%LPD*%
G01*
G04 APERTURE LIST*
G04 #@! TA.AperFunction,NonConductor*
%ADD10C,0.300000*%
G04 #@! TD*
G04 #@! TA.AperFunction,SMDPad,CuDef*
%ADD11C,0.560000*%
G04 #@! TD*
G04 #@! TA.AperFunction,SMDPad,CuDef*
%ADD12R,2.500000X2.300000*%
G04 #@! TD*
G04 #@! TA.AperFunction,SMDPad,CuDef*
%ADD13R,2.500000X1.800000*%
G04 #@! TD*
G04 #@! TA.AperFunction,SMDPad,CuDef*
%ADD14R,3.300000X2.500000*%
G04 #@! TD*
G04 #@! TA.AperFunction,SMDPad,CuDef*
%ADD15R,2.500000X3.300000*%
G04 #@! TD*
G04 #@! TA.AperFunction,ComponentPad*
%ADD16O,1.740000X2.190000*%
G04 #@! TD*
G04 #@! TA.AperFunction,ComponentPad*
%ADD17R,1.700000X1.700000*%
G04 #@! TD*
G04 #@! TA.AperFunction,ComponentPad*
%ADD18O,1.700000X1.700000*%
G04 #@! TD*
G04 #@! TA.AperFunction,SMDPad,CuDef*
%ADD19R,2.000000X3.800000*%
G04 #@! TD*
G04 #@! TA.AperFunction,SMDPad,CuDef*
%ADD20R,2.000000X1.500000*%
G04 #@! TD*
G04 #@! TA.AperFunction,WasherPad*
%ADD21C,2.460244*%
G04 #@! TD*
G04 #@! TA.AperFunction,ComponentPad*
%ADD22C,1.605000*%
G04 #@! TD*
G04 #@! TA.AperFunction,ViaPad*
%ADD23C,0.711200*%
G04 #@! TD*
G04 #@! TA.AperFunction,ViaPad*
%ADD24C,1.066800*%
G04 #@! TD*
G04 #@! TA.AperFunction,ViaPad*
%ADD25C,1.016000*%
G04 #@! TD*
G04 #@! TA.AperFunction,Conductor*
%ADD26C,0.254000*%
G04 #@! TD*
G04 #@! TA.AperFunction,Conductor*
%ADD27C,0.508000*%
G04 #@! TD*
G04 #@! TA.AperFunction,Conductor*
%ADD28C,0.381000*%
G04 #@! TD*
G04 #@! TA.AperFunction,Conductor*
%ADD29C,1.016000*%
G04 #@! TD*
G04 #@! TA.AperFunction,Conductor*
%ADD30C,0.100000*%
G04 #@! TD*
G04 APERTURE END LIST*
D10*
X151812571Y-68750571D02*
X150955428Y-68750571D01*
X151384000Y-68750571D02*
X151384000Y-67250571D01*
X151241142Y-67464857D01*
X151098285Y-67607714D01*
X150955428Y-67679142D01*
D11*
X122555000Y-96520000D03*
X121285000Y-96520000D03*
X120015000Y-96520000D03*
X118745000Y-96520000D03*
X117475000Y-96520000D03*
X116205000Y-96520000D03*
X114935000Y-96520000D03*
X113665000Y-96520000D03*
X112395000Y-96520000D03*
X111125000Y-96520000D03*
X122555000Y-97790000D03*
X121285000Y-97790000D03*
X120015000Y-97790000D03*
X118745000Y-97790000D03*
X117475000Y-97790000D03*
X116205000Y-97790000D03*
X114935000Y-97790000D03*
X113665000Y-97790000D03*
X112395000Y-97790000D03*
X111125000Y-97790000D03*
X122555000Y-99060000D03*
X121285000Y-99060000D03*
X120015000Y-99060000D03*
X118745000Y-99060000D03*
X117475000Y-99060000D03*
X116205000Y-99060000D03*
X114935000Y-99060000D03*
X113665000Y-99060000D03*
X112395000Y-99060000D03*
X111125000Y-99060000D03*
X122555000Y-100330000D03*
X121285000Y-100330000D03*
X120015000Y-100330000D03*
X118745000Y-100330000D03*
X117475000Y-100330000D03*
X116205000Y-100330000D03*
X114935000Y-100330000D03*
X113665000Y-100330000D03*
X112395000Y-100330000D03*
X111125000Y-100330000D03*
X122555000Y-101600000D03*
X121285000Y-101600000D03*
X120015000Y-101600000D03*
X118745000Y-101600000D03*
X117475000Y-101600000D03*
X116205000Y-101600000D03*
X114935000Y-101600000D03*
X113665000Y-101600000D03*
X112395000Y-101600000D03*
X111125000Y-101600000D03*
X122555000Y-102870000D03*
X121285000Y-102870000D03*
X120015000Y-102870000D03*
X118745000Y-102870000D03*
X117475000Y-102870000D03*
X116205000Y-102870000D03*
X114935000Y-102870000D03*
X113665000Y-102870000D03*
X112395000Y-102870000D03*
X111125000Y-102870000D03*
X122555000Y-104140000D03*
X121285000Y-104140000D03*
X120015000Y-104140000D03*
X118745000Y-104140000D03*
X117475000Y-104140000D03*
X116205000Y-104140000D03*
X114935000Y-104140000D03*
X113665000Y-104140000D03*
X112395000Y-104140000D03*
X111125000Y-104140000D03*
X122555000Y-105410000D03*
X121285000Y-105410000D03*
X120015000Y-105410000D03*
X118745000Y-105410000D03*
X117475000Y-105410000D03*
X116205000Y-105410000D03*
X114935000Y-105410000D03*
X113665000Y-105410000D03*
X112395000Y-105410000D03*
X111125000Y-105410000D03*
X122555000Y-106680000D03*
X121285000Y-106680000D03*
X120015000Y-106680000D03*
X118745000Y-106680000D03*
X117475000Y-106680000D03*
X116205000Y-106680000D03*
X114935000Y-106680000D03*
X113665000Y-106680000D03*
X112395000Y-106680000D03*
X111125000Y-106680000D03*
X122555000Y-107950000D03*
X121285000Y-107950000D03*
X120015000Y-107950000D03*
X118745000Y-107950000D03*
X117475000Y-107950000D03*
X116205000Y-107950000D03*
X114935000Y-107950000D03*
X113665000Y-107950000D03*
X112395000Y-107950000D03*
X111125000Y-107950000D03*
G04 #@! TA.AperFunction,SMDPad,CuDef*
G36*
G01*
X98150000Y-99210000D02*
X98150000Y-98910000D01*
G75*
G02*
X98300000Y-98760000I150000J0D01*
G01*
X99950000Y-98760000D01*
G75*
G02*
X100100000Y-98910000I0J-150000D01*
G01*
X100100000Y-99210000D01*
G75*
G02*
X99950000Y-99360000I-150000J0D01*
G01*
X98300000Y-99360000D01*
G75*
G02*
X98150000Y-99210000I0J150000D01*
G01*
G37*
G04 #@! TD.AperFunction*
G04 #@! TA.AperFunction,SMDPad,CuDef*
G36*
G01*
X98150000Y-100480000D02*
X98150000Y-100180000D01*
G75*
G02*
X98300000Y-100030000I150000J0D01*
G01*
X99950000Y-100030000D01*
G75*
G02*
X100100000Y-100180000I0J-150000D01*
G01*
X100100000Y-100480000D01*
G75*
G02*
X99950000Y-100630000I-150000J0D01*
G01*
X98300000Y-100630000D01*
G75*
G02*
X98150000Y-100480000I0J150000D01*
G01*
G37*
G04 #@! TD.AperFunction*
G04 #@! TA.AperFunction,SMDPad,CuDef*
G36*
G01*
X98150000Y-101750000D02*
X98150000Y-101450000D01*
G75*
G02*
X98300000Y-101300000I150000J0D01*
G01*
X99950000Y-101300000D01*
G75*
G02*
X100100000Y-101450000I0J-150000D01*
G01*
X100100000Y-101750000D01*
G75*
G02*
X99950000Y-101900000I-150000J0D01*
G01*
X98300000Y-101900000D01*
G75*
G02*
X98150000Y-101750000I0J150000D01*
G01*
G37*
G04 #@! TD.AperFunction*
G04 #@! TA.AperFunction,SMDPad,CuDef*
G36*
G01*
X98150000Y-103020000D02*
X98150000Y-102720000D01*
G75*
G02*
X98300000Y-102570000I150000J0D01*
G01*
X99950000Y-102570000D01*
G75*
G02*
X100100000Y-102720000I0J-150000D01*
G01*
X100100000Y-103020000D01*
G75*
G02*
X99950000Y-103170000I-150000J0D01*
G01*
X98300000Y-103170000D01*
G75*
G02*
X98150000Y-103020000I0J150000D01*
G01*
G37*
G04 #@! TD.AperFunction*
G04 #@! TA.AperFunction,SMDPad,CuDef*
G36*
G01*
X98150000Y-104290000D02*
X98150000Y-103990000D01*
G75*
G02*
X98300000Y-103840000I150000J0D01*
G01*
X99950000Y-103840000D01*
G75*
G02*
X100100000Y-103990000I0J-150000D01*
G01*
X100100000Y-104290000D01*
G75*
G02*
X99950000Y-104440000I-150000J0D01*
G01*
X98300000Y-104440000D01*
G75*
G02*
X98150000Y-104290000I0J150000D01*
G01*
G37*
G04 #@! TD.AperFunction*
G04 #@! TA.AperFunction,SMDPad,CuDef*
G36*
G01*
X98150000Y-105560000D02*
X98150000Y-105260000D01*
G75*
G02*
X98300000Y-105110000I150000J0D01*
G01*
X99950000Y-105110000D01*
G75*
G02*
X100100000Y-105260000I0J-150000D01*
G01*
X100100000Y-105560000D01*
G75*
G02*
X99950000Y-105710000I-150000J0D01*
G01*
X98300000Y-105710000D01*
G75*
G02*
X98150000Y-105560000I0J150000D01*
G01*
G37*
G04 #@! TD.AperFunction*
G04 #@! TA.AperFunction,SMDPad,CuDef*
G36*
G01*
X98150000Y-106830000D02*
X98150000Y-106530000D01*
G75*
G02*
X98300000Y-106380000I150000J0D01*
G01*
X99950000Y-106380000D01*
G75*
G02*
X100100000Y-106530000I0J-150000D01*
G01*
X100100000Y-106830000D01*
G75*
G02*
X99950000Y-106980000I-150000J0D01*
G01*
X98300000Y-106980000D01*
G75*
G02*
X98150000Y-106830000I0J150000D01*
G01*
G37*
G04 #@! TD.AperFunction*
G04 #@! TA.AperFunction,SMDPad,CuDef*
G36*
G01*
X103100000Y-106830000D02*
X103100000Y-106530000D01*
G75*
G02*
X103250000Y-106380000I150000J0D01*
G01*
X104900000Y-106380000D01*
G75*
G02*
X105050000Y-106530000I0J-150000D01*
G01*
X105050000Y-106830000D01*
G75*
G02*
X104900000Y-106980000I-150000J0D01*
G01*
X103250000Y-106980000D01*
G75*
G02*
X103100000Y-106830000I0J150000D01*
G01*
G37*
G04 #@! TD.AperFunction*
G04 #@! TA.AperFunction,SMDPad,CuDef*
G36*
G01*
X103100000Y-105560000D02*
X103100000Y-105260000D01*
G75*
G02*
X103250000Y-105110000I150000J0D01*
G01*
X104900000Y-105110000D01*
G75*
G02*
X105050000Y-105260000I0J-150000D01*
G01*
X105050000Y-105560000D01*
G75*
G02*
X104900000Y-105710000I-150000J0D01*
G01*
X103250000Y-105710000D01*
G75*
G02*
X103100000Y-105560000I0J150000D01*
G01*
G37*
G04 #@! TD.AperFunction*
G04 #@! TA.AperFunction,SMDPad,CuDef*
G36*
G01*
X103100000Y-104290000D02*
X103100000Y-103990000D01*
G75*
G02*
X103250000Y-103840000I150000J0D01*
G01*
X104900000Y-103840000D01*
G75*
G02*
X105050000Y-103990000I0J-150000D01*
G01*
X105050000Y-104290000D01*
G75*
G02*
X104900000Y-104440000I-150000J0D01*
G01*
X103250000Y-104440000D01*
G75*
G02*
X103100000Y-104290000I0J150000D01*
G01*
G37*
G04 #@! TD.AperFunction*
G04 #@! TA.AperFunction,SMDPad,CuDef*
G36*
G01*
X103100000Y-103020000D02*
X103100000Y-102720000D01*
G75*
G02*
X103250000Y-102570000I150000J0D01*
G01*
X104900000Y-102570000D01*
G75*
G02*
X105050000Y-102720000I0J-150000D01*
G01*
X105050000Y-103020000D01*
G75*
G02*
X104900000Y-103170000I-150000J0D01*
G01*
X103250000Y-103170000D01*
G75*
G02*
X103100000Y-103020000I0J150000D01*
G01*
G37*
G04 #@! TD.AperFunction*
G04 #@! TA.AperFunction,SMDPad,CuDef*
G36*
G01*
X103100000Y-101750000D02*
X103100000Y-101450000D01*
G75*
G02*
X103250000Y-101300000I150000J0D01*
G01*
X104900000Y-101300000D01*
G75*
G02*
X105050000Y-101450000I0J-150000D01*
G01*
X105050000Y-101750000D01*
G75*
G02*
X104900000Y-101900000I-150000J0D01*
G01*
X103250000Y-101900000D01*
G75*
G02*
X103100000Y-101750000I0J150000D01*
G01*
G37*
G04 #@! TD.AperFunction*
G04 #@! TA.AperFunction,SMDPad,CuDef*
G36*
G01*
X103100000Y-100480000D02*
X103100000Y-100180000D01*
G75*
G02*
X103250000Y-100030000I150000J0D01*
G01*
X104900000Y-100030000D01*
G75*
G02*
X105050000Y-100180000I0J-150000D01*
G01*
X105050000Y-100480000D01*
G75*
G02*
X104900000Y-100630000I-150000J0D01*
G01*
X103250000Y-100630000D01*
G75*
G02*
X103100000Y-100480000I0J150000D01*
G01*
G37*
G04 #@! TD.AperFunction*
G04 #@! TA.AperFunction,SMDPad,CuDef*
G36*
G01*
X103100000Y-99210000D02*
X103100000Y-98910000D01*
G75*
G02*
X103250000Y-98760000I150000J0D01*
G01*
X104900000Y-98760000D01*
G75*
G02*
X105050000Y-98910000I0J-150000D01*
G01*
X105050000Y-99210000D01*
G75*
G02*
X104900000Y-99360000I-150000J0D01*
G01*
X103250000Y-99360000D01*
G75*
G02*
X103100000Y-99210000I0J150000D01*
G01*
G37*
G04 #@! TD.AperFunction*
G04 #@! TA.AperFunction,SMDPad,CuDef*
G36*
G01*
X144630000Y-120880000D02*
X144930000Y-120880000D01*
G75*
G02*
X145080000Y-121030000I0J-150000D01*
G01*
X145080000Y-122680000D01*
G75*
G02*
X144930000Y-122830000I-150000J0D01*
G01*
X144630000Y-122830000D01*
G75*
G02*
X144480000Y-122680000I0J150000D01*
G01*
X144480000Y-121030000D01*
G75*
G02*
X144630000Y-120880000I150000J0D01*
G01*
G37*
G04 #@! TD.AperFunction*
G04 #@! TA.AperFunction,SMDPad,CuDef*
G36*
G01*
X143360000Y-120880000D02*
X143660000Y-120880000D01*
G75*
G02*
X143810000Y-121030000I0J-150000D01*
G01*
X143810000Y-122680000D01*
G75*
G02*
X143660000Y-122830000I-150000J0D01*
G01*
X143360000Y-122830000D01*
G75*
G02*
X143210000Y-122680000I0J150000D01*
G01*
X143210000Y-121030000D01*
G75*
G02*
X143360000Y-120880000I150000J0D01*
G01*
G37*
G04 #@! TD.AperFunction*
G04 #@! TA.AperFunction,SMDPad,CuDef*
G36*
G01*
X142090000Y-120880000D02*
X142390000Y-120880000D01*
G75*
G02*
X142540000Y-121030000I0J-150000D01*
G01*
X142540000Y-122680000D01*
G75*
G02*
X142390000Y-122830000I-150000J0D01*
G01*
X142090000Y-122830000D01*
G75*
G02*
X141940000Y-122680000I0J150000D01*
G01*
X141940000Y-121030000D01*
G75*
G02*
X142090000Y-120880000I150000J0D01*
G01*
G37*
G04 #@! TD.AperFunction*
G04 #@! TA.AperFunction,SMDPad,CuDef*
G36*
G01*
X140820000Y-120880000D02*
X141120000Y-120880000D01*
G75*
G02*
X141270000Y-121030000I0J-150000D01*
G01*
X141270000Y-122680000D01*
G75*
G02*
X141120000Y-122830000I-150000J0D01*
G01*
X140820000Y-122830000D01*
G75*
G02*
X140670000Y-122680000I0J150000D01*
G01*
X140670000Y-121030000D01*
G75*
G02*
X140820000Y-120880000I150000J0D01*
G01*
G37*
G04 #@! TD.AperFunction*
G04 #@! TA.AperFunction,SMDPad,CuDef*
G36*
G01*
X139550000Y-120880000D02*
X139850000Y-120880000D01*
G75*
G02*
X140000000Y-121030000I0J-150000D01*
G01*
X140000000Y-122680000D01*
G75*
G02*
X139850000Y-122830000I-150000J0D01*
G01*
X139550000Y-122830000D01*
G75*
G02*
X139400000Y-122680000I0J150000D01*
G01*
X139400000Y-121030000D01*
G75*
G02*
X139550000Y-120880000I150000J0D01*
G01*
G37*
G04 #@! TD.AperFunction*
G04 #@! TA.AperFunction,SMDPad,CuDef*
G36*
G01*
X138280000Y-120880000D02*
X138580000Y-120880000D01*
G75*
G02*
X138730000Y-121030000I0J-150000D01*
G01*
X138730000Y-122680000D01*
G75*
G02*
X138580000Y-122830000I-150000J0D01*
G01*
X138280000Y-122830000D01*
G75*
G02*
X138130000Y-122680000I0J150000D01*
G01*
X138130000Y-121030000D01*
G75*
G02*
X138280000Y-120880000I150000J0D01*
G01*
G37*
G04 #@! TD.AperFunction*
G04 #@! TA.AperFunction,SMDPad,CuDef*
G36*
G01*
X137010000Y-120880000D02*
X137310000Y-120880000D01*
G75*
G02*
X137460000Y-121030000I0J-150000D01*
G01*
X137460000Y-122680000D01*
G75*
G02*
X137310000Y-122830000I-150000J0D01*
G01*
X137010000Y-122830000D01*
G75*
G02*
X136860000Y-122680000I0J150000D01*
G01*
X136860000Y-121030000D01*
G75*
G02*
X137010000Y-120880000I150000J0D01*
G01*
G37*
G04 #@! TD.AperFunction*
G04 #@! TA.AperFunction,SMDPad,CuDef*
G36*
G01*
X137010000Y-115930000D02*
X137310000Y-115930000D01*
G75*
G02*
X137460000Y-116080000I0J-150000D01*
G01*
X137460000Y-117730000D01*
G75*
G02*
X137310000Y-117880000I-150000J0D01*
G01*
X137010000Y-117880000D01*
G75*
G02*
X136860000Y-117730000I0J150000D01*
G01*
X136860000Y-116080000D01*
G75*
G02*
X137010000Y-115930000I150000J0D01*
G01*
G37*
G04 #@! TD.AperFunction*
G04 #@! TA.AperFunction,SMDPad,CuDef*
G36*
G01*
X138280000Y-115930000D02*
X138580000Y-115930000D01*
G75*
G02*
X138730000Y-116080000I0J-150000D01*
G01*
X138730000Y-117730000D01*
G75*
G02*
X138580000Y-117880000I-150000J0D01*
G01*
X138280000Y-117880000D01*
G75*
G02*
X138130000Y-117730000I0J150000D01*
G01*
X138130000Y-116080000D01*
G75*
G02*
X138280000Y-115930000I150000J0D01*
G01*
G37*
G04 #@! TD.AperFunction*
G04 #@! TA.AperFunction,SMDPad,CuDef*
G36*
G01*
X139550000Y-115930000D02*
X139850000Y-115930000D01*
G75*
G02*
X140000000Y-116080000I0J-150000D01*
G01*
X140000000Y-117730000D01*
G75*
G02*
X139850000Y-117880000I-150000J0D01*
G01*
X139550000Y-117880000D01*
G75*
G02*
X139400000Y-117730000I0J150000D01*
G01*
X139400000Y-116080000D01*
G75*
G02*
X139550000Y-115930000I150000J0D01*
G01*
G37*
G04 #@! TD.AperFunction*
G04 #@! TA.AperFunction,SMDPad,CuDef*
G36*
G01*
X140820000Y-115930000D02*
X141120000Y-115930000D01*
G75*
G02*
X141270000Y-116080000I0J-150000D01*
G01*
X141270000Y-117730000D01*
G75*
G02*
X141120000Y-117880000I-150000J0D01*
G01*
X140820000Y-117880000D01*
G75*
G02*
X140670000Y-117730000I0J150000D01*
G01*
X140670000Y-116080000D01*
G75*
G02*
X140820000Y-115930000I150000J0D01*
G01*
G37*
G04 #@! TD.AperFunction*
G04 #@! TA.AperFunction,SMDPad,CuDef*
G36*
G01*
X142090000Y-115930000D02*
X142390000Y-115930000D01*
G75*
G02*
X142540000Y-116080000I0J-150000D01*
G01*
X142540000Y-117730000D01*
G75*
G02*
X142390000Y-117880000I-150000J0D01*
G01*
X142090000Y-117880000D01*
G75*
G02*
X141940000Y-117730000I0J150000D01*
G01*
X141940000Y-116080000D01*
G75*
G02*
X142090000Y-115930000I150000J0D01*
G01*
G37*
G04 #@! TD.AperFunction*
G04 #@! TA.AperFunction,SMDPad,CuDef*
G36*
G01*
X143360000Y-115930000D02*
X143660000Y-115930000D01*
G75*
G02*
X143810000Y-116080000I0J-150000D01*
G01*
X143810000Y-117730000D01*
G75*
G02*
X143660000Y-117880000I-150000J0D01*
G01*
X143360000Y-117880000D01*
G75*
G02*
X143210000Y-117730000I0J150000D01*
G01*
X143210000Y-116080000D01*
G75*
G02*
X143360000Y-115930000I150000J0D01*
G01*
G37*
G04 #@! TD.AperFunction*
G04 #@! TA.AperFunction,SMDPad,CuDef*
G36*
G01*
X144630000Y-115930000D02*
X144930000Y-115930000D01*
G75*
G02*
X145080000Y-116080000I0J-150000D01*
G01*
X145080000Y-117730000D01*
G75*
G02*
X144930000Y-117880000I-150000J0D01*
G01*
X144630000Y-117880000D01*
G75*
G02*
X144480000Y-117730000I0J150000D01*
G01*
X144480000Y-116080000D01*
G75*
G02*
X144630000Y-115930000I150000J0D01*
G01*
G37*
G04 #@! TD.AperFunction*
G04 #@! TA.AperFunction,SMDPad,CuDef*
G36*
G01*
X144630000Y-106910000D02*
X144930000Y-106910000D01*
G75*
G02*
X145080000Y-107060000I0J-150000D01*
G01*
X145080000Y-108710000D01*
G75*
G02*
X144930000Y-108860000I-150000J0D01*
G01*
X144630000Y-108860000D01*
G75*
G02*
X144480000Y-108710000I0J150000D01*
G01*
X144480000Y-107060000D01*
G75*
G02*
X144630000Y-106910000I150000J0D01*
G01*
G37*
G04 #@! TD.AperFunction*
G04 #@! TA.AperFunction,SMDPad,CuDef*
G36*
G01*
X143360000Y-106910000D02*
X143660000Y-106910000D01*
G75*
G02*
X143810000Y-107060000I0J-150000D01*
G01*
X143810000Y-108710000D01*
G75*
G02*
X143660000Y-108860000I-150000J0D01*
G01*
X143360000Y-108860000D01*
G75*
G02*
X143210000Y-108710000I0J150000D01*
G01*
X143210000Y-107060000D01*
G75*
G02*
X143360000Y-106910000I150000J0D01*
G01*
G37*
G04 #@! TD.AperFunction*
G04 #@! TA.AperFunction,SMDPad,CuDef*
G36*
G01*
X142090000Y-106910000D02*
X142390000Y-106910000D01*
G75*
G02*
X142540000Y-107060000I0J-150000D01*
G01*
X142540000Y-108710000D01*
G75*
G02*
X142390000Y-108860000I-150000J0D01*
G01*
X142090000Y-108860000D01*
G75*
G02*
X141940000Y-108710000I0J150000D01*
G01*
X141940000Y-107060000D01*
G75*
G02*
X142090000Y-106910000I150000J0D01*
G01*
G37*
G04 #@! TD.AperFunction*
G04 #@! TA.AperFunction,SMDPad,CuDef*
G36*
G01*
X140820000Y-106910000D02*
X141120000Y-106910000D01*
G75*
G02*
X141270000Y-107060000I0J-150000D01*
G01*
X141270000Y-108710000D01*
G75*
G02*
X141120000Y-108860000I-150000J0D01*
G01*
X140820000Y-108860000D01*
G75*
G02*
X140670000Y-108710000I0J150000D01*
G01*
X140670000Y-107060000D01*
G75*
G02*
X140820000Y-106910000I150000J0D01*
G01*
G37*
G04 #@! TD.AperFunction*
G04 #@! TA.AperFunction,SMDPad,CuDef*
G36*
G01*
X139550000Y-106910000D02*
X139850000Y-106910000D01*
G75*
G02*
X140000000Y-107060000I0J-150000D01*
G01*
X140000000Y-108710000D01*
G75*
G02*
X139850000Y-108860000I-150000J0D01*
G01*
X139550000Y-108860000D01*
G75*
G02*
X139400000Y-108710000I0J150000D01*
G01*
X139400000Y-107060000D01*
G75*
G02*
X139550000Y-106910000I150000J0D01*
G01*
G37*
G04 #@! TD.AperFunction*
G04 #@! TA.AperFunction,SMDPad,CuDef*
G36*
G01*
X138280000Y-106910000D02*
X138580000Y-106910000D01*
G75*
G02*
X138730000Y-107060000I0J-150000D01*
G01*
X138730000Y-108710000D01*
G75*
G02*
X138580000Y-108860000I-150000J0D01*
G01*
X138280000Y-108860000D01*
G75*
G02*
X138130000Y-108710000I0J150000D01*
G01*
X138130000Y-107060000D01*
G75*
G02*
X138280000Y-106910000I150000J0D01*
G01*
G37*
G04 #@! TD.AperFunction*
G04 #@! TA.AperFunction,SMDPad,CuDef*
G36*
G01*
X137010000Y-106910000D02*
X137310000Y-106910000D01*
G75*
G02*
X137460000Y-107060000I0J-150000D01*
G01*
X137460000Y-108710000D01*
G75*
G02*
X137310000Y-108860000I-150000J0D01*
G01*
X137010000Y-108860000D01*
G75*
G02*
X136860000Y-108710000I0J150000D01*
G01*
X136860000Y-107060000D01*
G75*
G02*
X137010000Y-106910000I150000J0D01*
G01*
G37*
G04 #@! TD.AperFunction*
G04 #@! TA.AperFunction,SMDPad,CuDef*
G36*
G01*
X137010000Y-101960000D02*
X137310000Y-101960000D01*
G75*
G02*
X137460000Y-102110000I0J-150000D01*
G01*
X137460000Y-103760000D01*
G75*
G02*
X137310000Y-103910000I-150000J0D01*
G01*
X137010000Y-103910000D01*
G75*
G02*
X136860000Y-103760000I0J150000D01*
G01*
X136860000Y-102110000D01*
G75*
G02*
X137010000Y-101960000I150000J0D01*
G01*
G37*
G04 #@! TD.AperFunction*
G04 #@! TA.AperFunction,SMDPad,CuDef*
G36*
G01*
X138280000Y-101960000D02*
X138580000Y-101960000D01*
G75*
G02*
X138730000Y-102110000I0J-150000D01*
G01*
X138730000Y-103760000D01*
G75*
G02*
X138580000Y-103910000I-150000J0D01*
G01*
X138280000Y-103910000D01*
G75*
G02*
X138130000Y-103760000I0J150000D01*
G01*
X138130000Y-102110000D01*
G75*
G02*
X138280000Y-101960000I150000J0D01*
G01*
G37*
G04 #@! TD.AperFunction*
G04 #@! TA.AperFunction,SMDPad,CuDef*
G36*
G01*
X139550000Y-101960000D02*
X139850000Y-101960000D01*
G75*
G02*
X140000000Y-102110000I0J-150000D01*
G01*
X140000000Y-103760000D01*
G75*
G02*
X139850000Y-103910000I-150000J0D01*
G01*
X139550000Y-103910000D01*
G75*
G02*
X139400000Y-103760000I0J150000D01*
G01*
X139400000Y-102110000D01*
G75*
G02*
X139550000Y-101960000I150000J0D01*
G01*
G37*
G04 #@! TD.AperFunction*
G04 #@! TA.AperFunction,SMDPad,CuDef*
G36*
G01*
X140820000Y-101960000D02*
X141120000Y-101960000D01*
G75*
G02*
X141270000Y-102110000I0J-150000D01*
G01*
X141270000Y-103760000D01*
G75*
G02*
X141120000Y-103910000I-150000J0D01*
G01*
X140820000Y-103910000D01*
G75*
G02*
X140670000Y-103760000I0J150000D01*
G01*
X140670000Y-102110000D01*
G75*
G02*
X140820000Y-101960000I150000J0D01*
G01*
G37*
G04 #@! TD.AperFunction*
G04 #@! TA.AperFunction,SMDPad,CuDef*
G36*
G01*
X142090000Y-101960000D02*
X142390000Y-101960000D01*
G75*
G02*
X142540000Y-102110000I0J-150000D01*
G01*
X142540000Y-103760000D01*
G75*
G02*
X142390000Y-103910000I-150000J0D01*
G01*
X142090000Y-103910000D01*
G75*
G02*
X141940000Y-103760000I0J150000D01*
G01*
X141940000Y-102110000D01*
G75*
G02*
X142090000Y-101960000I150000J0D01*
G01*
G37*
G04 #@! TD.AperFunction*
G04 #@! TA.AperFunction,SMDPad,CuDef*
G36*
G01*
X143360000Y-101960000D02*
X143660000Y-101960000D01*
G75*
G02*
X143810000Y-102110000I0J-150000D01*
G01*
X143810000Y-103760000D01*
G75*
G02*
X143660000Y-103910000I-150000J0D01*
G01*
X143360000Y-103910000D01*
G75*
G02*
X143210000Y-103760000I0J150000D01*
G01*
X143210000Y-102110000D01*
G75*
G02*
X143360000Y-101960000I150000J0D01*
G01*
G37*
G04 #@! TD.AperFunction*
G04 #@! TA.AperFunction,SMDPad,CuDef*
G36*
G01*
X144630000Y-101960000D02*
X144930000Y-101960000D01*
G75*
G02*
X145080000Y-102110000I0J-150000D01*
G01*
X145080000Y-103760000D01*
G75*
G02*
X144930000Y-103910000I-150000J0D01*
G01*
X144630000Y-103910000D01*
G75*
G02*
X144480000Y-103760000I0J150000D01*
G01*
X144480000Y-102110000D01*
G75*
G02*
X144630000Y-101960000I150000J0D01*
G01*
G37*
G04 #@! TD.AperFunction*
G04 #@! TA.AperFunction,SMDPad,CuDef*
G36*
G01*
X132990000Y-119865000D02*
X132990000Y-120165000D01*
G75*
G02*
X132840000Y-120315000I-150000J0D01*
G01*
X131390000Y-120315000D01*
G75*
G02*
X131240000Y-120165000I0J150000D01*
G01*
X131240000Y-119865000D01*
G75*
G02*
X131390000Y-119715000I150000J0D01*
G01*
X132840000Y-119715000D01*
G75*
G02*
X132990000Y-119865000I0J-150000D01*
G01*
G37*
G04 #@! TD.AperFunction*
G04 #@! TA.AperFunction,SMDPad,CuDef*
G36*
G01*
X132990000Y-118595000D02*
X132990000Y-118895000D01*
G75*
G02*
X132840000Y-119045000I-150000J0D01*
G01*
X131390000Y-119045000D01*
G75*
G02*
X131240000Y-118895000I0J150000D01*
G01*
X131240000Y-118595000D01*
G75*
G02*
X131390000Y-118445000I150000J0D01*
G01*
X132840000Y-118445000D01*
G75*
G02*
X132990000Y-118595000I0J-150000D01*
G01*
G37*
G04 #@! TD.AperFunction*
G04 #@! TA.AperFunction,SMDPad,CuDef*
G36*
G01*
X132990000Y-117325000D02*
X132990000Y-117625000D01*
G75*
G02*
X132840000Y-117775000I-150000J0D01*
G01*
X131390000Y-117775000D01*
G75*
G02*
X131240000Y-117625000I0J150000D01*
G01*
X131240000Y-117325000D01*
G75*
G02*
X131390000Y-117175000I150000J0D01*
G01*
X132840000Y-117175000D01*
G75*
G02*
X132990000Y-117325000I0J-150000D01*
G01*
G37*
G04 #@! TD.AperFunction*
G04 #@! TA.AperFunction,SMDPad,CuDef*
G36*
G01*
X132990000Y-116055000D02*
X132990000Y-116355000D01*
G75*
G02*
X132840000Y-116505000I-150000J0D01*
G01*
X131390000Y-116505000D01*
G75*
G02*
X131240000Y-116355000I0J150000D01*
G01*
X131240000Y-116055000D01*
G75*
G02*
X131390000Y-115905000I150000J0D01*
G01*
X132840000Y-115905000D01*
G75*
G02*
X132990000Y-116055000I0J-150000D01*
G01*
G37*
G04 #@! TD.AperFunction*
G04 #@! TA.AperFunction,SMDPad,CuDef*
G36*
G01*
X127840000Y-116055000D02*
X127840000Y-116355000D01*
G75*
G02*
X127690000Y-116505000I-150000J0D01*
G01*
X126240000Y-116505000D01*
G75*
G02*
X126090000Y-116355000I0J150000D01*
G01*
X126090000Y-116055000D01*
G75*
G02*
X126240000Y-115905000I150000J0D01*
G01*
X127690000Y-115905000D01*
G75*
G02*
X127840000Y-116055000I0J-150000D01*
G01*
G37*
G04 #@! TD.AperFunction*
G04 #@! TA.AperFunction,SMDPad,CuDef*
G36*
G01*
X127840000Y-117325000D02*
X127840000Y-117625000D01*
G75*
G02*
X127690000Y-117775000I-150000J0D01*
G01*
X126240000Y-117775000D01*
G75*
G02*
X126090000Y-117625000I0J150000D01*
G01*
X126090000Y-117325000D01*
G75*
G02*
X126240000Y-117175000I150000J0D01*
G01*
X127690000Y-117175000D01*
G75*
G02*
X127840000Y-117325000I0J-150000D01*
G01*
G37*
G04 #@! TD.AperFunction*
G04 #@! TA.AperFunction,SMDPad,CuDef*
G36*
G01*
X127840000Y-118595000D02*
X127840000Y-118895000D01*
G75*
G02*
X127690000Y-119045000I-150000J0D01*
G01*
X126240000Y-119045000D01*
G75*
G02*
X126090000Y-118895000I0J150000D01*
G01*
X126090000Y-118595000D01*
G75*
G02*
X126240000Y-118445000I150000J0D01*
G01*
X127690000Y-118445000D01*
G75*
G02*
X127840000Y-118595000I0J-150000D01*
G01*
G37*
G04 #@! TD.AperFunction*
G04 #@! TA.AperFunction,SMDPad,CuDef*
G36*
G01*
X127840000Y-119865000D02*
X127840000Y-120165000D01*
G75*
G02*
X127690000Y-120315000I-150000J0D01*
G01*
X126240000Y-120315000D01*
G75*
G02*
X126090000Y-120165000I0J150000D01*
G01*
X126090000Y-119865000D01*
G75*
G02*
X126240000Y-119715000I150000J0D01*
G01*
X127690000Y-119715000D01*
G75*
G02*
X127840000Y-119865000I0J-150000D01*
G01*
G37*
G04 #@! TD.AperFunction*
G04 #@! TA.AperFunction,SMDPad,CuDef*
G36*
G01*
X111285000Y-88080000D02*
X112235000Y-88080000D01*
G75*
G02*
X112485000Y-88330000I0J-250000D01*
G01*
X112485000Y-88830000D01*
G75*
G02*
X112235000Y-89080000I-250000J0D01*
G01*
X111285000Y-89080000D01*
G75*
G02*
X111035000Y-88830000I0J250000D01*
G01*
X111035000Y-88330000D01*
G75*
G02*
X111285000Y-88080000I250000J0D01*
G01*
G37*
G04 #@! TD.AperFunction*
G04 #@! TA.AperFunction,SMDPad,CuDef*
G36*
G01*
X111285000Y-86180000D02*
X112235000Y-86180000D01*
G75*
G02*
X112485000Y-86430000I0J-250000D01*
G01*
X112485000Y-86930000D01*
G75*
G02*
X112235000Y-87180000I-250000J0D01*
G01*
X111285000Y-87180000D01*
G75*
G02*
X111035000Y-86930000I0J250000D01*
G01*
X111035000Y-86430000D01*
G75*
G02*
X111285000Y-86180000I250000J0D01*
G01*
G37*
G04 #@! TD.AperFunction*
G04 #@! TA.AperFunction,SMDPad,CuDef*
G36*
G01*
X119540000Y-86180000D02*
X120490000Y-86180000D01*
G75*
G02*
X120740000Y-86430000I0J-250000D01*
G01*
X120740000Y-86930000D01*
G75*
G02*
X120490000Y-87180000I-250000J0D01*
G01*
X119540000Y-87180000D01*
G75*
G02*
X119290000Y-86930000I0J250000D01*
G01*
X119290000Y-86430000D01*
G75*
G02*
X119540000Y-86180000I250000J0D01*
G01*
G37*
G04 #@! TD.AperFunction*
G04 #@! TA.AperFunction,SMDPad,CuDef*
G36*
G01*
X119540000Y-88080000D02*
X120490000Y-88080000D01*
G75*
G02*
X120740000Y-88330000I0J-250000D01*
G01*
X120740000Y-88830000D01*
G75*
G02*
X120490000Y-89080000I-250000J0D01*
G01*
X119540000Y-89080000D01*
G75*
G02*
X119290000Y-88830000I0J250000D01*
G01*
X119290000Y-88330000D01*
G75*
G02*
X119540000Y-88080000I250000J0D01*
G01*
G37*
G04 #@! TD.AperFunction*
G04 #@! TA.AperFunction,SMDPad,CuDef*
G36*
G01*
X132605800Y-84635000D02*
X131655800Y-84635000D01*
G75*
G02*
X131405800Y-84385000I0J250000D01*
G01*
X131405800Y-83885000D01*
G75*
G02*
X131655800Y-83635000I250000J0D01*
G01*
X132605800Y-83635000D01*
G75*
G02*
X132855800Y-83885000I0J-250000D01*
G01*
X132855800Y-84385000D01*
G75*
G02*
X132605800Y-84635000I-250000J0D01*
G01*
G37*
G04 #@! TD.AperFunction*
G04 #@! TA.AperFunction,SMDPad,CuDef*
G36*
G01*
X132605800Y-82735000D02*
X131655800Y-82735000D01*
G75*
G02*
X131405800Y-82485000I0J250000D01*
G01*
X131405800Y-81985000D01*
G75*
G02*
X131655800Y-81735000I250000J0D01*
G01*
X132605800Y-81735000D01*
G75*
G02*
X132855800Y-81985000I0J-250000D01*
G01*
X132855800Y-82485000D01*
G75*
G02*
X132605800Y-82735000I-250000J0D01*
G01*
G37*
G04 #@! TD.AperFunction*
G04 #@! TA.AperFunction,SMDPad,CuDef*
G36*
G01*
X121613000Y-116553000D02*
X121613000Y-115603000D01*
G75*
G02*
X121863000Y-115353000I250000J0D01*
G01*
X122363000Y-115353000D01*
G75*
G02*
X122613000Y-115603000I0J-250000D01*
G01*
X122613000Y-116553000D01*
G75*
G02*
X122363000Y-116803000I-250000J0D01*
G01*
X121863000Y-116803000D01*
G75*
G02*
X121613000Y-116553000I0J250000D01*
G01*
G37*
G04 #@! TD.AperFunction*
G04 #@! TA.AperFunction,SMDPad,CuDef*
G36*
G01*
X123513000Y-116553000D02*
X123513000Y-115603000D01*
G75*
G02*
X123763000Y-115353000I250000J0D01*
G01*
X124263000Y-115353000D01*
G75*
G02*
X124513000Y-115603000I0J-250000D01*
G01*
X124513000Y-116553000D01*
G75*
G02*
X124263000Y-116803000I-250000J0D01*
G01*
X123763000Y-116803000D01*
G75*
G02*
X123513000Y-116553000I0J250000D01*
G01*
G37*
G04 #@! TD.AperFunction*
G04 #@! TA.AperFunction,SMDPad,CuDef*
G36*
G01*
X121740000Y-127475000D02*
X121740000Y-126525000D01*
G75*
G02*
X121990000Y-126275000I250000J0D01*
G01*
X122490000Y-126275000D01*
G75*
G02*
X122740000Y-126525000I0J-250000D01*
G01*
X122740000Y-127475000D01*
G75*
G02*
X122490000Y-127725000I-250000J0D01*
G01*
X121990000Y-127725000D01*
G75*
G02*
X121740000Y-127475000I0J250000D01*
G01*
G37*
G04 #@! TD.AperFunction*
G04 #@! TA.AperFunction,SMDPad,CuDef*
G36*
G01*
X123640000Y-127475000D02*
X123640000Y-126525000D01*
G75*
G02*
X123890000Y-126275000I250000J0D01*
G01*
X124390000Y-126275000D01*
G75*
G02*
X124640000Y-126525000I0J-250000D01*
G01*
X124640000Y-127475000D01*
G75*
G02*
X124390000Y-127725000I-250000J0D01*
G01*
X123890000Y-127725000D01*
G75*
G02*
X123640000Y-127475000I0J250000D01*
G01*
G37*
G04 #@! TD.AperFunction*
G04 #@! TA.AperFunction,SMDPad,CuDef*
G36*
G01*
X122740000Y-119540000D02*
X122740000Y-120490000D01*
G75*
G02*
X122490000Y-120740000I-250000J0D01*
G01*
X121990000Y-120740000D01*
G75*
G02*
X121740000Y-120490000I0J250000D01*
G01*
X121740000Y-119540000D01*
G75*
G02*
X121990000Y-119290000I250000J0D01*
G01*
X122490000Y-119290000D01*
G75*
G02*
X122740000Y-119540000I0J-250000D01*
G01*
G37*
G04 #@! TD.AperFunction*
G04 #@! TA.AperFunction,SMDPad,CuDef*
G36*
G01*
X124640000Y-119540000D02*
X124640000Y-120490000D01*
G75*
G02*
X124390000Y-120740000I-250000J0D01*
G01*
X123890000Y-120740000D01*
G75*
G02*
X123640000Y-120490000I0J250000D01*
G01*
X123640000Y-119540000D01*
G75*
G02*
X123890000Y-119290000I250000J0D01*
G01*
X124390000Y-119290000D01*
G75*
G02*
X124640000Y-119540000I0J-250000D01*
G01*
G37*
G04 #@! TD.AperFunction*
G04 #@! TA.AperFunction,SMDPad,CuDef*
G36*
G01*
X101085000Y-114945000D02*
X101085000Y-116195000D01*
G75*
G02*
X100835000Y-116445000I-250000J0D01*
G01*
X100085000Y-116445000D01*
G75*
G02*
X99835000Y-116195000I0J250000D01*
G01*
X99835000Y-114945000D01*
G75*
G02*
X100085000Y-114695000I250000J0D01*
G01*
X100835000Y-114695000D01*
G75*
G02*
X101085000Y-114945000I0J-250000D01*
G01*
G37*
G04 #@! TD.AperFunction*
G04 #@! TA.AperFunction,SMDPad,CuDef*
G36*
G01*
X98285000Y-114945000D02*
X98285000Y-116195000D01*
G75*
G02*
X98035000Y-116445000I-250000J0D01*
G01*
X97285000Y-116445000D01*
G75*
G02*
X97035000Y-116195000I0J250000D01*
G01*
X97035000Y-114945000D01*
G75*
G02*
X97285000Y-114695000I250000J0D01*
G01*
X98035000Y-114695000D01*
G75*
G02*
X98285000Y-114945000I0J-250000D01*
G01*
G37*
G04 #@! TD.AperFunction*
G04 #@! TA.AperFunction,SMDPad,CuDef*
G36*
G01*
X101085000Y-112405000D02*
X101085000Y-113655000D01*
G75*
G02*
X100835000Y-113905000I-250000J0D01*
G01*
X100085000Y-113905000D01*
G75*
G02*
X99835000Y-113655000I0J250000D01*
G01*
X99835000Y-112405000D01*
G75*
G02*
X100085000Y-112155000I250000J0D01*
G01*
X100835000Y-112155000D01*
G75*
G02*
X101085000Y-112405000I0J-250000D01*
G01*
G37*
G04 #@! TD.AperFunction*
G04 #@! TA.AperFunction,SMDPad,CuDef*
G36*
G01*
X98285000Y-112405000D02*
X98285000Y-113655000D01*
G75*
G02*
X98035000Y-113905000I-250000J0D01*
G01*
X97285000Y-113905000D01*
G75*
G02*
X97035000Y-113655000I0J250000D01*
G01*
X97035000Y-112405000D01*
G75*
G02*
X97285000Y-112155000I250000J0D01*
G01*
X98035000Y-112155000D01*
G75*
G02*
X98285000Y-112405000I0J-250000D01*
G01*
G37*
G04 #@! TD.AperFunction*
G04 #@! TA.AperFunction,SMDPad,CuDef*
G36*
G01*
X98285000Y-109865000D02*
X98285000Y-111115000D01*
G75*
G02*
X98035000Y-111365000I-250000J0D01*
G01*
X97285000Y-111365000D01*
G75*
G02*
X97035000Y-111115000I0J250000D01*
G01*
X97035000Y-109865000D01*
G75*
G02*
X97285000Y-109615000I250000J0D01*
G01*
X98035000Y-109615000D01*
G75*
G02*
X98285000Y-109865000I0J-250000D01*
G01*
G37*
G04 #@! TD.AperFunction*
G04 #@! TA.AperFunction,SMDPad,CuDef*
G36*
G01*
X101085000Y-109865000D02*
X101085000Y-111115000D01*
G75*
G02*
X100835000Y-111365000I-250000J0D01*
G01*
X100085000Y-111365000D01*
G75*
G02*
X99835000Y-111115000I0J250000D01*
G01*
X99835000Y-109865000D01*
G75*
G02*
X100085000Y-109615000I250000J0D01*
G01*
X100835000Y-109615000D01*
G75*
G02*
X101085000Y-109865000I0J-250000D01*
G01*
G37*
G04 #@! TD.AperFunction*
G04 #@! TA.AperFunction,SMDPad,CuDef*
G36*
G01*
X101085000Y-117485000D02*
X101085000Y-118735000D01*
G75*
G02*
X100835000Y-118985000I-250000J0D01*
G01*
X100085000Y-118985000D01*
G75*
G02*
X99835000Y-118735000I0J250000D01*
G01*
X99835000Y-117485000D01*
G75*
G02*
X100085000Y-117235000I250000J0D01*
G01*
X100835000Y-117235000D01*
G75*
G02*
X101085000Y-117485000I0J-250000D01*
G01*
G37*
G04 #@! TD.AperFunction*
G04 #@! TA.AperFunction,SMDPad,CuDef*
G36*
G01*
X98285000Y-117485000D02*
X98285000Y-118735000D01*
G75*
G02*
X98035000Y-118985000I-250000J0D01*
G01*
X97285000Y-118985000D01*
G75*
G02*
X97035000Y-118735000I0J250000D01*
G01*
X97035000Y-117485000D01*
G75*
G02*
X97285000Y-117235000I250000J0D01*
G01*
X98035000Y-117235000D01*
G75*
G02*
X98285000Y-117485000I0J-250000D01*
G01*
G37*
G04 #@! TD.AperFunction*
G04 #@! TA.AperFunction,SMDPad,CuDef*
G36*
G01*
X98285000Y-120025000D02*
X98285000Y-121275000D01*
G75*
G02*
X98035000Y-121525000I-250000J0D01*
G01*
X97285000Y-121525000D01*
G75*
G02*
X97035000Y-121275000I0J250000D01*
G01*
X97035000Y-120025000D01*
G75*
G02*
X97285000Y-119775000I250000J0D01*
G01*
X98035000Y-119775000D01*
G75*
G02*
X98285000Y-120025000I0J-250000D01*
G01*
G37*
G04 #@! TD.AperFunction*
G04 #@! TA.AperFunction,SMDPad,CuDef*
G36*
G01*
X101085000Y-120025000D02*
X101085000Y-121275000D01*
G75*
G02*
X100835000Y-121525000I-250000J0D01*
G01*
X100085000Y-121525000D01*
G75*
G02*
X99835000Y-121275000I0J250000D01*
G01*
X99835000Y-120025000D01*
G75*
G02*
X100085000Y-119775000I250000J0D01*
G01*
X100835000Y-119775000D01*
G75*
G02*
X101085000Y-120025000I0J-250000D01*
G01*
G37*
G04 #@! TD.AperFunction*
D12*
X131690000Y-130810000D03*
X127390000Y-130810000D03*
G04 #@! TA.AperFunction,SMDPad,CuDef*
G36*
G01*
X146695000Y-126880000D02*
X147945000Y-126880000D01*
G75*
G02*
X148195000Y-127130000I0J-250000D01*
G01*
X148195000Y-127880000D01*
G75*
G02*
X147945000Y-128130000I-250000J0D01*
G01*
X146695000Y-128130000D01*
G75*
G02*
X146445000Y-127880000I0J250000D01*
G01*
X146445000Y-127130000D01*
G75*
G02*
X146695000Y-126880000I250000J0D01*
G01*
G37*
G04 #@! TD.AperFunction*
G04 #@! TA.AperFunction,SMDPad,CuDef*
G36*
G01*
X146695000Y-129680000D02*
X147945000Y-129680000D01*
G75*
G02*
X148195000Y-129930000I0J-250000D01*
G01*
X148195000Y-130680000D01*
G75*
G02*
X147945000Y-130930000I-250000J0D01*
G01*
X146695000Y-130930000D01*
G75*
G02*
X146445000Y-130680000I0J250000D01*
G01*
X146445000Y-129930000D01*
G75*
G02*
X146695000Y-129680000I250000J0D01*
G01*
G37*
G04 #@! TD.AperFunction*
G04 #@! TA.AperFunction,SMDPad,CuDef*
G36*
G01*
X141615000Y-126880000D02*
X142865000Y-126880000D01*
G75*
G02*
X143115000Y-127130000I0J-250000D01*
G01*
X143115000Y-127880000D01*
G75*
G02*
X142865000Y-128130000I-250000J0D01*
G01*
X141615000Y-128130000D01*
G75*
G02*
X141365000Y-127880000I0J250000D01*
G01*
X141365000Y-127130000D01*
G75*
G02*
X141615000Y-126880000I250000J0D01*
G01*
G37*
G04 #@! TD.AperFunction*
G04 #@! TA.AperFunction,SMDPad,CuDef*
G36*
G01*
X141615000Y-129680000D02*
X142865000Y-129680000D01*
G75*
G02*
X143115000Y-129930000I0J-250000D01*
G01*
X143115000Y-130680000D01*
G75*
G02*
X142865000Y-130930000I-250000J0D01*
G01*
X141615000Y-130930000D01*
G75*
G02*
X141365000Y-130680000I0J250000D01*
G01*
X141365000Y-129930000D01*
G75*
G02*
X141615000Y-129680000I250000J0D01*
G01*
G37*
G04 #@! TD.AperFunction*
G04 #@! TA.AperFunction,SMDPad,CuDef*
G36*
G01*
X136535000Y-129680000D02*
X137785000Y-129680000D01*
G75*
G02*
X138035000Y-129930000I0J-250000D01*
G01*
X138035000Y-130680000D01*
G75*
G02*
X137785000Y-130930000I-250000J0D01*
G01*
X136535000Y-130930000D01*
G75*
G02*
X136285000Y-130680000I0J250000D01*
G01*
X136285000Y-129930000D01*
G75*
G02*
X136535000Y-129680000I250000J0D01*
G01*
G37*
G04 #@! TD.AperFunction*
G04 #@! TA.AperFunction,SMDPad,CuDef*
G36*
G01*
X136535000Y-126880000D02*
X137785000Y-126880000D01*
G75*
G02*
X138035000Y-127130000I0J-250000D01*
G01*
X138035000Y-127880000D01*
G75*
G02*
X137785000Y-128130000I-250000J0D01*
G01*
X136535000Y-128130000D01*
G75*
G02*
X136285000Y-127880000I0J250000D01*
G01*
X136285000Y-127130000D01*
G75*
G02*
X136535000Y-126880000I250000J0D01*
G01*
G37*
G04 #@! TD.AperFunction*
G04 #@! TA.AperFunction,SMDPad,CuDef*
G36*
G01*
X139075000Y-129680000D02*
X140325000Y-129680000D01*
G75*
G02*
X140575000Y-129930000I0J-250000D01*
G01*
X140575000Y-130680000D01*
G75*
G02*
X140325000Y-130930000I-250000J0D01*
G01*
X139075000Y-130930000D01*
G75*
G02*
X138825000Y-130680000I0J250000D01*
G01*
X138825000Y-129930000D01*
G75*
G02*
X139075000Y-129680000I250000J0D01*
G01*
G37*
G04 #@! TD.AperFunction*
G04 #@! TA.AperFunction,SMDPad,CuDef*
G36*
G01*
X139075000Y-126880000D02*
X140325000Y-126880000D01*
G75*
G02*
X140575000Y-127130000I0J-250000D01*
G01*
X140575000Y-127880000D01*
G75*
G02*
X140325000Y-128130000I-250000J0D01*
G01*
X139075000Y-128130000D01*
G75*
G02*
X138825000Y-127880000I0J250000D01*
G01*
X138825000Y-127130000D01*
G75*
G02*
X139075000Y-126880000I250000J0D01*
G01*
G37*
G04 #@! TD.AperFunction*
G04 #@! TA.AperFunction,SMDPad,CuDef*
G36*
G01*
X144155000Y-126880000D02*
X145405000Y-126880000D01*
G75*
G02*
X145655000Y-127130000I0J-250000D01*
G01*
X145655000Y-127880000D01*
G75*
G02*
X145405000Y-128130000I-250000J0D01*
G01*
X144155000Y-128130000D01*
G75*
G02*
X143905000Y-127880000I0J250000D01*
G01*
X143905000Y-127130000D01*
G75*
G02*
X144155000Y-126880000I250000J0D01*
G01*
G37*
G04 #@! TD.AperFunction*
G04 #@! TA.AperFunction,SMDPad,CuDef*
G36*
G01*
X144155000Y-129680000D02*
X145405000Y-129680000D01*
G75*
G02*
X145655000Y-129930000I0J-250000D01*
G01*
X145655000Y-130680000D01*
G75*
G02*
X145405000Y-130930000I-250000J0D01*
G01*
X144155000Y-130930000D01*
G75*
G02*
X143905000Y-130680000I0J250000D01*
G01*
X143905000Y-129930000D01*
G75*
G02*
X144155000Y-129680000I250000J0D01*
G01*
G37*
G04 #@! TD.AperFunction*
G04 #@! TA.AperFunction,SMDPad,CuDef*
G36*
G01*
X149235000Y-129680000D02*
X150485000Y-129680000D01*
G75*
G02*
X150735000Y-129930000I0J-250000D01*
G01*
X150735000Y-130680000D01*
G75*
G02*
X150485000Y-130930000I-250000J0D01*
G01*
X149235000Y-130930000D01*
G75*
G02*
X148985000Y-130680000I0J250000D01*
G01*
X148985000Y-129930000D01*
G75*
G02*
X149235000Y-129680000I250000J0D01*
G01*
G37*
G04 #@! TD.AperFunction*
G04 #@! TA.AperFunction,SMDPad,CuDef*
G36*
G01*
X149235000Y-126880000D02*
X150485000Y-126880000D01*
G75*
G02*
X150735000Y-127130000I0J-250000D01*
G01*
X150735000Y-127880000D01*
G75*
G02*
X150485000Y-128130000I-250000J0D01*
G01*
X149235000Y-128130000D01*
G75*
G02*
X148985000Y-127880000I0J250000D01*
G01*
X148985000Y-127130000D01*
G75*
G02*
X149235000Y-126880000I250000J0D01*
G01*
G37*
G04 #@! TD.AperFunction*
D13*
X154400000Y-120650000D03*
X150400000Y-120650000D03*
D14*
X142240000Y-77880000D03*
X142240000Y-84680000D03*
G04 #@! TA.AperFunction,SMDPad,CuDef*
G36*
G01*
X151775000Y-129680000D02*
X153025000Y-129680000D01*
G75*
G02*
X153275000Y-129930000I0J-250000D01*
G01*
X153275000Y-130680000D01*
G75*
G02*
X153025000Y-130930000I-250000J0D01*
G01*
X151775000Y-130930000D01*
G75*
G02*
X151525000Y-130680000I0J250000D01*
G01*
X151525000Y-129930000D01*
G75*
G02*
X151775000Y-129680000I250000J0D01*
G01*
G37*
G04 #@! TD.AperFunction*
G04 #@! TA.AperFunction,SMDPad,CuDef*
G36*
G01*
X151775000Y-126880000D02*
X153025000Y-126880000D01*
G75*
G02*
X153275000Y-127130000I0J-250000D01*
G01*
X153275000Y-127880000D01*
G75*
G02*
X153025000Y-128130000I-250000J0D01*
G01*
X151775000Y-128130000D01*
G75*
G02*
X151525000Y-127880000I0J250000D01*
G01*
X151525000Y-127130000D01*
G75*
G02*
X151775000Y-126880000I250000J0D01*
G01*
G37*
G04 #@! TD.AperFunction*
D15*
X96930000Y-78740000D03*
X103730000Y-78740000D03*
G04 #@! TA.AperFunction,SMDPad,CuDef*
G36*
G01*
X101085000Y-122565000D02*
X101085000Y-123815000D01*
G75*
G02*
X100835000Y-124065000I-250000J0D01*
G01*
X100085000Y-124065000D01*
G75*
G02*
X99835000Y-123815000I0J250000D01*
G01*
X99835000Y-122565000D01*
G75*
G02*
X100085000Y-122315000I250000J0D01*
G01*
X100835000Y-122315000D01*
G75*
G02*
X101085000Y-122565000I0J-250000D01*
G01*
G37*
G04 #@! TD.AperFunction*
G04 #@! TA.AperFunction,SMDPad,CuDef*
G36*
G01*
X98285000Y-122565000D02*
X98285000Y-123815000D01*
G75*
G02*
X98035000Y-124065000I-250000J0D01*
G01*
X97285000Y-124065000D01*
G75*
G02*
X97035000Y-123815000I0J250000D01*
G01*
X97035000Y-122565000D01*
G75*
G02*
X97285000Y-122315000I250000J0D01*
G01*
X98035000Y-122315000D01*
G75*
G02*
X98285000Y-122565000I0J-250000D01*
G01*
G37*
G04 #@! TD.AperFunction*
G04 #@! TA.AperFunction,ComponentPad*
G36*
G01*
X168510000Y-89324999D02*
X168510000Y-91015001D01*
G75*
G02*
X168260001Y-91265000I-249999J0D01*
G01*
X167019999Y-91265000D01*
G75*
G02*
X166770000Y-91015001I0J249999D01*
G01*
X166770000Y-89324999D01*
G75*
G02*
X167019999Y-89075000I249999J0D01*
G01*
X168260001Y-89075000D01*
G75*
G02*
X168510000Y-89324999I0J-249999D01*
G01*
G37*
G04 #@! TD.AperFunction*
D16*
X165100000Y-90170000D03*
X162560000Y-90170000D03*
X160020000Y-90170000D03*
X160020000Y-80010000D03*
X162560000Y-80010000D03*
X165100000Y-80010000D03*
G04 #@! TA.AperFunction,ComponentPad*
G36*
G01*
X168510000Y-79164999D02*
X168510000Y-80855001D01*
G75*
G02*
X168260001Y-81105000I-249999J0D01*
G01*
X167019999Y-81105000D01*
G75*
G02*
X166770000Y-80855001I0J249999D01*
G01*
X166770000Y-79164999D01*
G75*
G02*
X167019999Y-78915000I249999J0D01*
G01*
X168260001Y-78915000D01*
G75*
G02*
X168510000Y-79164999I0J-249999D01*
G01*
G37*
G04 #@! TD.AperFunction*
X160020000Y-100330000D03*
X162560000Y-100330000D03*
X165100000Y-100330000D03*
G04 #@! TA.AperFunction,ComponentPad*
G36*
G01*
X168510000Y-99484999D02*
X168510000Y-101175001D01*
G75*
G02*
X168260001Y-101425000I-249999J0D01*
G01*
X167019999Y-101425000D01*
G75*
G02*
X166770000Y-101175001I0J249999D01*
G01*
X166770000Y-99484999D01*
G75*
G02*
X167019999Y-99235000I249999J0D01*
G01*
X168260001Y-99235000D01*
G75*
G02*
X168510000Y-99484999I0J-249999D01*
G01*
G37*
G04 #@! TD.AperFunction*
G04 #@! TA.AperFunction,ComponentPad*
G36*
G01*
X168510000Y-109644999D02*
X168510000Y-111335001D01*
G75*
G02*
X168260001Y-111585000I-249999J0D01*
G01*
X167019999Y-111585000D01*
G75*
G02*
X166770000Y-111335001I0J249999D01*
G01*
X166770000Y-109644999D01*
G75*
G02*
X167019999Y-109395000I249999J0D01*
G01*
X168260001Y-109395000D01*
G75*
G02*
X168510000Y-109644999I0J-249999D01*
G01*
G37*
G04 #@! TD.AperFunction*
X165100000Y-110490000D03*
X162560000Y-110490000D03*
X160020000Y-110490000D03*
G04 #@! TA.AperFunction,ComponentPad*
G36*
G01*
X168510000Y-119804999D02*
X168510000Y-121495001D01*
G75*
G02*
X168260001Y-121745000I-249999J0D01*
G01*
X167019999Y-121745000D01*
G75*
G02*
X166770000Y-121495001I0J249999D01*
G01*
X166770000Y-119804999D01*
G75*
G02*
X167019999Y-119555000I249999J0D01*
G01*
X168260001Y-119555000D01*
G75*
G02*
X168510000Y-119804999I0J-249999D01*
G01*
G37*
G04 #@! TD.AperFunction*
X165100000Y-120650000D03*
X162560000Y-120650000D03*
X160020000Y-120650000D03*
D17*
X142240000Y-69850000D03*
D18*
X139700000Y-69850000D03*
X139700000Y-73660000D03*
D17*
X142240000Y-73660000D03*
G04 #@! TA.AperFunction,SMDPad,CuDef*
G36*
G01*
X113849998Y-88030000D02*
X114750002Y-88030000D01*
G75*
G02*
X115000000Y-88279998I0J-249998D01*
G01*
X115000000Y-88805002D01*
G75*
G02*
X114750002Y-89055000I-249998J0D01*
G01*
X113849998Y-89055000D01*
G75*
G02*
X113600000Y-88805002I0J249998D01*
G01*
X113600000Y-88279998D01*
G75*
G02*
X113849998Y-88030000I249998J0D01*
G01*
G37*
G04 #@! TD.AperFunction*
G04 #@! TA.AperFunction,SMDPad,CuDef*
G36*
G01*
X113849998Y-86205000D02*
X114750002Y-86205000D01*
G75*
G02*
X115000000Y-86454998I0J-249998D01*
G01*
X115000000Y-86980002D01*
G75*
G02*
X114750002Y-87230000I-249998J0D01*
G01*
X113849998Y-87230000D01*
G75*
G02*
X113600000Y-86980002I0J249998D01*
G01*
X113600000Y-86454998D01*
G75*
G02*
X113849998Y-86205000I249998J0D01*
G01*
G37*
G04 #@! TD.AperFunction*
G04 #@! TA.AperFunction,SMDPad,CuDef*
G36*
G01*
X122104998Y-86205000D02*
X123005002Y-86205000D01*
G75*
G02*
X123255000Y-86454998I0J-249998D01*
G01*
X123255000Y-86980002D01*
G75*
G02*
X123005002Y-87230000I-249998J0D01*
G01*
X122104998Y-87230000D01*
G75*
G02*
X121855000Y-86980002I0J249998D01*
G01*
X121855000Y-86454998D01*
G75*
G02*
X122104998Y-86205000I249998J0D01*
G01*
G37*
G04 #@! TD.AperFunction*
G04 #@! TA.AperFunction,SMDPad,CuDef*
G36*
G01*
X122104998Y-88030000D02*
X123005002Y-88030000D01*
G75*
G02*
X123255000Y-88279998I0J-249998D01*
G01*
X123255000Y-88805002D01*
G75*
G02*
X123005002Y-89055000I-249998J0D01*
G01*
X122104998Y-89055000D01*
G75*
G02*
X121855000Y-88805002I0J249998D01*
G01*
X121855000Y-88279998D01*
G75*
G02*
X122104998Y-88030000I249998J0D01*
G01*
G37*
G04 #@! TD.AperFunction*
G04 #@! TA.AperFunction,SMDPad,CuDef*
G36*
G01*
X127400000Y-102050002D02*
X127400000Y-101149998D01*
G75*
G02*
X127649998Y-100900000I249998J0D01*
G01*
X128175002Y-100900000D01*
G75*
G02*
X128425000Y-101149998I0J-249998D01*
G01*
X128425000Y-102050002D01*
G75*
G02*
X128175002Y-102300000I-249998J0D01*
G01*
X127649998Y-102300000D01*
G75*
G02*
X127400000Y-102050002I0J249998D01*
G01*
G37*
G04 #@! TD.AperFunction*
G04 #@! TA.AperFunction,SMDPad,CuDef*
G36*
G01*
X125575000Y-102050002D02*
X125575000Y-101149998D01*
G75*
G02*
X125824998Y-100900000I249998J0D01*
G01*
X126350002Y-100900000D01*
G75*
G02*
X126600000Y-101149998I0J-249998D01*
G01*
X126600000Y-102050002D01*
G75*
G02*
X126350002Y-102300000I-249998J0D01*
G01*
X125824998Y-102300000D01*
G75*
G02*
X125575000Y-102050002I0J249998D01*
G01*
G37*
G04 #@! TD.AperFunction*
G04 #@! TA.AperFunction,SMDPad,CuDef*
G36*
G01*
X126600000Y-103689998D02*
X126600000Y-104590002D01*
G75*
G02*
X126350002Y-104840000I-249998J0D01*
G01*
X125824998Y-104840000D01*
G75*
G02*
X125575000Y-104590002I0J249998D01*
G01*
X125575000Y-103689998D01*
G75*
G02*
X125824998Y-103440000I249998J0D01*
G01*
X126350002Y-103440000D01*
G75*
G02*
X126600000Y-103689998I0J-249998D01*
G01*
G37*
G04 #@! TD.AperFunction*
G04 #@! TA.AperFunction,SMDPad,CuDef*
G36*
G01*
X128425000Y-103689998D02*
X128425000Y-104590002D01*
G75*
G02*
X128175002Y-104840000I-249998J0D01*
G01*
X127649998Y-104840000D01*
G75*
G02*
X127400000Y-104590002I0J249998D01*
G01*
X127400000Y-103689998D01*
G75*
G02*
X127649998Y-103440000I249998J0D01*
G01*
X128175002Y-103440000D01*
G75*
G02*
X128425000Y-103689998I0J-249998D01*
G01*
G37*
G04 #@! TD.AperFunction*
G04 #@! TA.AperFunction,SMDPad,CuDef*
G36*
G01*
X111309998Y-80490000D02*
X112210002Y-80490000D01*
G75*
G02*
X112460000Y-80739998I0J-249998D01*
G01*
X112460000Y-81265002D01*
G75*
G02*
X112210002Y-81515000I-249998J0D01*
G01*
X111309998Y-81515000D01*
G75*
G02*
X111060000Y-81265002I0J249998D01*
G01*
X111060000Y-80739998D01*
G75*
G02*
X111309998Y-80490000I249998J0D01*
G01*
G37*
G04 #@! TD.AperFunction*
G04 #@! TA.AperFunction,SMDPad,CuDef*
G36*
G01*
X111309998Y-82315000D02*
X112210002Y-82315000D01*
G75*
G02*
X112460000Y-82564998I0J-249998D01*
G01*
X112460000Y-83090002D01*
G75*
G02*
X112210002Y-83340000I-249998J0D01*
G01*
X111309998Y-83340000D01*
G75*
G02*
X111060000Y-83090002I0J249998D01*
G01*
X111060000Y-82564998D01*
G75*
G02*
X111309998Y-82315000I249998J0D01*
G01*
G37*
G04 #@! TD.AperFunction*
G04 #@! TA.AperFunction,SMDPad,CuDef*
G36*
G01*
X128425000Y-96069998D02*
X128425000Y-96970002D01*
G75*
G02*
X128175002Y-97220000I-249998J0D01*
G01*
X127649998Y-97220000D01*
G75*
G02*
X127400000Y-96970002I0J249998D01*
G01*
X127400000Y-96069998D01*
G75*
G02*
X127649998Y-95820000I249998J0D01*
G01*
X128175002Y-95820000D01*
G75*
G02*
X128425000Y-96069998I0J-249998D01*
G01*
G37*
G04 #@! TD.AperFunction*
G04 #@! TA.AperFunction,SMDPad,CuDef*
G36*
G01*
X126600000Y-96069998D02*
X126600000Y-96970002D01*
G75*
G02*
X126350002Y-97220000I-249998J0D01*
G01*
X125824998Y-97220000D01*
G75*
G02*
X125575000Y-96970002I0J249998D01*
G01*
X125575000Y-96069998D01*
G75*
G02*
X125824998Y-95820000I249998J0D01*
G01*
X126350002Y-95820000D01*
G75*
G02*
X126600000Y-96069998I0J-249998D01*
G01*
G37*
G04 #@! TD.AperFunction*
G04 #@! TA.AperFunction,SMDPad,CuDef*
G36*
G01*
X128425000Y-98609998D02*
X128425000Y-99510002D01*
G75*
G02*
X128175002Y-99760000I-249998J0D01*
G01*
X127649998Y-99760000D01*
G75*
G02*
X127400000Y-99510002I0J249998D01*
G01*
X127400000Y-98609998D01*
G75*
G02*
X127649998Y-98360000I249998J0D01*
G01*
X128175002Y-98360000D01*
G75*
G02*
X128425000Y-98609998I0J-249998D01*
G01*
G37*
G04 #@! TD.AperFunction*
G04 #@! TA.AperFunction,SMDPad,CuDef*
G36*
G01*
X126600000Y-98609998D02*
X126600000Y-99510002D01*
G75*
G02*
X126350002Y-99760000I-249998J0D01*
G01*
X125824998Y-99760000D01*
G75*
G02*
X125575000Y-99510002I0J249998D01*
G01*
X125575000Y-98609998D01*
G75*
G02*
X125824998Y-98360000I249998J0D01*
G01*
X126350002Y-98360000D01*
G75*
G02*
X126600000Y-98609998I0J-249998D01*
G01*
G37*
G04 #@! TD.AperFunction*
G04 #@! TA.AperFunction,SMDPad,CuDef*
G36*
G01*
X106864998Y-96285000D02*
X107765002Y-96285000D01*
G75*
G02*
X108015000Y-96534998I0J-249998D01*
G01*
X108015000Y-97060002D01*
G75*
G02*
X107765002Y-97310000I-249998J0D01*
G01*
X106864998Y-97310000D01*
G75*
G02*
X106615000Y-97060002I0J249998D01*
G01*
X106615000Y-96534998D01*
G75*
G02*
X106864998Y-96285000I249998J0D01*
G01*
G37*
G04 #@! TD.AperFunction*
G04 #@! TA.AperFunction,SMDPad,CuDef*
G36*
G01*
X106864998Y-94460000D02*
X107765002Y-94460000D01*
G75*
G02*
X108015000Y-94709998I0J-249998D01*
G01*
X108015000Y-95235002D01*
G75*
G02*
X107765002Y-95485000I-249998J0D01*
G01*
X106864998Y-95485000D01*
G75*
G02*
X106615000Y-95235002I0J249998D01*
G01*
X106615000Y-94709998D01*
G75*
G02*
X106864998Y-94460000I249998J0D01*
G01*
G37*
G04 #@! TD.AperFunction*
G04 #@! TA.AperFunction,SMDPad,CuDef*
G36*
G01*
X126600000Y-93529998D02*
X126600000Y-94430002D01*
G75*
G02*
X126350002Y-94680000I-249998J0D01*
G01*
X125824998Y-94680000D01*
G75*
G02*
X125575000Y-94430002I0J249998D01*
G01*
X125575000Y-93529998D01*
G75*
G02*
X125824998Y-93280000I249998J0D01*
G01*
X126350002Y-93280000D01*
G75*
G02*
X126600000Y-93529998I0J-249998D01*
G01*
G37*
G04 #@! TD.AperFunction*
G04 #@! TA.AperFunction,SMDPad,CuDef*
G36*
G01*
X128425000Y-93529998D02*
X128425000Y-94430002D01*
G75*
G02*
X128175002Y-94680000I-249998J0D01*
G01*
X127649998Y-94680000D01*
G75*
G02*
X127400000Y-94430002I0J249998D01*
G01*
X127400000Y-93529998D01*
G75*
G02*
X127649998Y-93280000I249998J0D01*
G01*
X128175002Y-93280000D01*
G75*
G02*
X128425000Y-93529998I0J-249998D01*
G01*
G37*
G04 #@! TD.AperFunction*
G04 #@! TA.AperFunction,SMDPad,CuDef*
G36*
G01*
X128425000Y-88449998D02*
X128425000Y-89350002D01*
G75*
G02*
X128175002Y-89600000I-249998J0D01*
G01*
X127649998Y-89600000D01*
G75*
G02*
X127400000Y-89350002I0J249998D01*
G01*
X127400000Y-88449998D01*
G75*
G02*
X127649998Y-88200000I249998J0D01*
G01*
X128175002Y-88200000D01*
G75*
G02*
X128425000Y-88449998I0J-249998D01*
G01*
G37*
G04 #@! TD.AperFunction*
G04 #@! TA.AperFunction,SMDPad,CuDef*
G36*
G01*
X126600000Y-88449998D02*
X126600000Y-89350002D01*
G75*
G02*
X126350002Y-89600000I-249998J0D01*
G01*
X125824998Y-89600000D01*
G75*
G02*
X125575000Y-89350002I0J249998D01*
G01*
X125575000Y-88449998D01*
G75*
G02*
X125824998Y-88200000I249998J0D01*
G01*
X126350002Y-88200000D01*
G75*
G02*
X126600000Y-88449998I0J-249998D01*
G01*
G37*
G04 #@! TD.AperFunction*
G04 #@! TA.AperFunction,SMDPad,CuDef*
G36*
G01*
X117024998Y-88030000D02*
X117925002Y-88030000D01*
G75*
G02*
X118175000Y-88279998I0J-249998D01*
G01*
X118175000Y-88805002D01*
G75*
G02*
X117925002Y-89055000I-249998J0D01*
G01*
X117024998Y-89055000D01*
G75*
G02*
X116775000Y-88805002I0J249998D01*
G01*
X116775000Y-88279998D01*
G75*
G02*
X117024998Y-88030000I249998J0D01*
G01*
G37*
G04 #@! TD.AperFunction*
G04 #@! TA.AperFunction,SMDPad,CuDef*
G36*
G01*
X117024998Y-86205000D02*
X117925002Y-86205000D01*
G75*
G02*
X118175000Y-86454998I0J-249998D01*
G01*
X118175000Y-86980002D01*
G75*
G02*
X117925002Y-87230000I-249998J0D01*
G01*
X117024998Y-87230000D01*
G75*
G02*
X116775000Y-86980002I0J249998D01*
G01*
X116775000Y-86454998D01*
G75*
G02*
X117024998Y-86205000I249998J0D01*
G01*
G37*
G04 #@! TD.AperFunction*
G04 #@! TA.AperFunction,SMDPad,CuDef*
G36*
G01*
X126600000Y-90989998D02*
X126600000Y-91890002D01*
G75*
G02*
X126350002Y-92140000I-249998J0D01*
G01*
X125824998Y-92140000D01*
G75*
G02*
X125575000Y-91890002I0J249998D01*
G01*
X125575000Y-90989998D01*
G75*
G02*
X125824998Y-90740000I249998J0D01*
G01*
X126350002Y-90740000D01*
G75*
G02*
X126600000Y-90989998I0J-249998D01*
G01*
G37*
G04 #@! TD.AperFunction*
G04 #@! TA.AperFunction,SMDPad,CuDef*
G36*
G01*
X128425000Y-90989998D02*
X128425000Y-91890002D01*
G75*
G02*
X128175002Y-92140000I-249998J0D01*
G01*
X127649998Y-92140000D01*
G75*
G02*
X127400000Y-91890002I0J249998D01*
G01*
X127400000Y-90989998D01*
G75*
G02*
X127649998Y-90740000I249998J0D01*
G01*
X128175002Y-90740000D01*
G75*
G02*
X128425000Y-90989998I0J-249998D01*
G01*
G37*
G04 #@! TD.AperFunction*
G04 #@! TA.AperFunction,SMDPad,CuDef*
G36*
G01*
X128425000Y-85909998D02*
X128425000Y-86810002D01*
G75*
G02*
X128175002Y-87060000I-249998J0D01*
G01*
X127649998Y-87060000D01*
G75*
G02*
X127400000Y-86810002I0J249998D01*
G01*
X127400000Y-85909998D01*
G75*
G02*
X127649998Y-85660000I249998J0D01*
G01*
X128175002Y-85660000D01*
G75*
G02*
X128425000Y-85909998I0J-249998D01*
G01*
G37*
G04 #@! TD.AperFunction*
G04 #@! TA.AperFunction,SMDPad,CuDef*
G36*
G01*
X126600000Y-85909998D02*
X126600000Y-86810002D01*
G75*
G02*
X126350002Y-87060000I-249998J0D01*
G01*
X125824998Y-87060000D01*
G75*
G02*
X125575000Y-86810002I0J249998D01*
G01*
X125575000Y-85909998D01*
G75*
G02*
X125824998Y-85660000I249998J0D01*
G01*
X126350002Y-85660000D01*
G75*
G02*
X126600000Y-85909998I0J-249998D01*
G01*
G37*
G04 #@! TD.AperFunction*
G04 #@! TA.AperFunction,SMDPad,CuDef*
G36*
G01*
X126600000Y-106229998D02*
X126600000Y-107130002D01*
G75*
G02*
X126350002Y-107380000I-249998J0D01*
G01*
X125824998Y-107380000D01*
G75*
G02*
X125575000Y-107130002I0J249998D01*
G01*
X125575000Y-106229998D01*
G75*
G02*
X125824998Y-105980000I249998J0D01*
G01*
X126350002Y-105980000D01*
G75*
G02*
X126600000Y-106229998I0J-249998D01*
G01*
G37*
G04 #@! TD.AperFunction*
G04 #@! TA.AperFunction,SMDPad,CuDef*
G36*
G01*
X128425000Y-106229998D02*
X128425000Y-107130002D01*
G75*
G02*
X128175002Y-107380000I-249998J0D01*
G01*
X127649998Y-107380000D01*
G75*
G02*
X127400000Y-107130002I0J249998D01*
G01*
X127400000Y-106229998D01*
G75*
G02*
X127649998Y-105980000I249998J0D01*
G01*
X128175002Y-105980000D01*
G75*
G02*
X128425000Y-106229998I0J-249998D01*
G01*
G37*
G04 #@! TD.AperFunction*
G04 #@! TA.AperFunction,SMDPad,CuDef*
G36*
G01*
X113950000Y-79835000D02*
X113650000Y-79835000D01*
G75*
G02*
X113500000Y-79685000I0J150000D01*
G01*
X113500000Y-78235000D01*
G75*
G02*
X113650000Y-78085000I150000J0D01*
G01*
X113950000Y-78085000D01*
G75*
G02*
X114100000Y-78235000I0J-150000D01*
G01*
X114100000Y-79685000D01*
G75*
G02*
X113950000Y-79835000I-150000J0D01*
G01*
G37*
G04 #@! TD.AperFunction*
G04 #@! TA.AperFunction,SMDPad,CuDef*
G36*
G01*
X115220000Y-79835000D02*
X114920000Y-79835000D01*
G75*
G02*
X114770000Y-79685000I0J150000D01*
G01*
X114770000Y-78235000D01*
G75*
G02*
X114920000Y-78085000I150000J0D01*
G01*
X115220000Y-78085000D01*
G75*
G02*
X115370000Y-78235000I0J-150000D01*
G01*
X115370000Y-79685000D01*
G75*
G02*
X115220000Y-79835000I-150000J0D01*
G01*
G37*
G04 #@! TD.AperFunction*
G04 #@! TA.AperFunction,SMDPad,CuDef*
G36*
G01*
X116490000Y-79835000D02*
X116190000Y-79835000D01*
G75*
G02*
X116040000Y-79685000I0J150000D01*
G01*
X116040000Y-78235000D01*
G75*
G02*
X116190000Y-78085000I150000J0D01*
G01*
X116490000Y-78085000D01*
G75*
G02*
X116640000Y-78235000I0J-150000D01*
G01*
X116640000Y-79685000D01*
G75*
G02*
X116490000Y-79835000I-150000J0D01*
G01*
G37*
G04 #@! TD.AperFunction*
G04 #@! TA.AperFunction,SMDPad,CuDef*
G36*
G01*
X117760000Y-79835000D02*
X117460000Y-79835000D01*
G75*
G02*
X117310000Y-79685000I0J150000D01*
G01*
X117310000Y-78235000D01*
G75*
G02*
X117460000Y-78085000I150000J0D01*
G01*
X117760000Y-78085000D01*
G75*
G02*
X117910000Y-78235000I0J-150000D01*
G01*
X117910000Y-79685000D01*
G75*
G02*
X117760000Y-79835000I-150000J0D01*
G01*
G37*
G04 #@! TD.AperFunction*
G04 #@! TA.AperFunction,SMDPad,CuDef*
G36*
G01*
X117760000Y-84985000D02*
X117460000Y-84985000D01*
G75*
G02*
X117310000Y-84835000I0J150000D01*
G01*
X117310000Y-83385000D01*
G75*
G02*
X117460000Y-83235000I150000J0D01*
G01*
X117760000Y-83235000D01*
G75*
G02*
X117910000Y-83385000I0J-150000D01*
G01*
X117910000Y-84835000D01*
G75*
G02*
X117760000Y-84985000I-150000J0D01*
G01*
G37*
G04 #@! TD.AperFunction*
G04 #@! TA.AperFunction,SMDPad,CuDef*
G36*
G01*
X116490000Y-84985000D02*
X116190000Y-84985000D01*
G75*
G02*
X116040000Y-84835000I0J150000D01*
G01*
X116040000Y-83385000D01*
G75*
G02*
X116190000Y-83235000I150000J0D01*
G01*
X116490000Y-83235000D01*
G75*
G02*
X116640000Y-83385000I0J-150000D01*
G01*
X116640000Y-84835000D01*
G75*
G02*
X116490000Y-84985000I-150000J0D01*
G01*
G37*
G04 #@! TD.AperFunction*
G04 #@! TA.AperFunction,SMDPad,CuDef*
G36*
G01*
X115220000Y-84985000D02*
X114920000Y-84985000D01*
G75*
G02*
X114770000Y-84835000I0J150000D01*
G01*
X114770000Y-83385000D01*
G75*
G02*
X114920000Y-83235000I150000J0D01*
G01*
X115220000Y-83235000D01*
G75*
G02*
X115370000Y-83385000I0J-150000D01*
G01*
X115370000Y-84835000D01*
G75*
G02*
X115220000Y-84985000I-150000J0D01*
G01*
G37*
G04 #@! TD.AperFunction*
G04 #@! TA.AperFunction,SMDPad,CuDef*
G36*
G01*
X113950000Y-84985000D02*
X113650000Y-84985000D01*
G75*
G02*
X113500000Y-84835000I0J150000D01*
G01*
X113500000Y-83385000D01*
G75*
G02*
X113650000Y-83235000I150000J0D01*
G01*
X113950000Y-83235000D01*
G75*
G02*
X114100000Y-83385000I0J-150000D01*
G01*
X114100000Y-84835000D01*
G75*
G02*
X113950000Y-84985000I-150000J0D01*
G01*
G37*
G04 #@! TD.AperFunction*
G04 #@! TA.AperFunction,SMDPad,CuDef*
G36*
G01*
X120165000Y-84960000D02*
X119865000Y-84960000D01*
G75*
G02*
X119715000Y-84810000I0J150000D01*
G01*
X119715000Y-83360000D01*
G75*
G02*
X119865000Y-83210000I150000J0D01*
G01*
X120165000Y-83210000D01*
G75*
G02*
X120315000Y-83360000I0J-150000D01*
G01*
X120315000Y-84810000D01*
G75*
G02*
X120165000Y-84960000I-150000J0D01*
G01*
G37*
G04 #@! TD.AperFunction*
G04 #@! TA.AperFunction,SMDPad,CuDef*
G36*
G01*
X121435000Y-84960000D02*
X121135000Y-84960000D01*
G75*
G02*
X120985000Y-84810000I0J150000D01*
G01*
X120985000Y-83360000D01*
G75*
G02*
X121135000Y-83210000I150000J0D01*
G01*
X121435000Y-83210000D01*
G75*
G02*
X121585000Y-83360000I0J-150000D01*
G01*
X121585000Y-84810000D01*
G75*
G02*
X121435000Y-84960000I-150000J0D01*
G01*
G37*
G04 #@! TD.AperFunction*
G04 #@! TA.AperFunction,SMDPad,CuDef*
G36*
G01*
X122705000Y-84960000D02*
X122405000Y-84960000D01*
G75*
G02*
X122255000Y-84810000I0J150000D01*
G01*
X122255000Y-83360000D01*
G75*
G02*
X122405000Y-83210000I150000J0D01*
G01*
X122705000Y-83210000D01*
G75*
G02*
X122855000Y-83360000I0J-150000D01*
G01*
X122855000Y-84810000D01*
G75*
G02*
X122705000Y-84960000I-150000J0D01*
G01*
G37*
G04 #@! TD.AperFunction*
G04 #@! TA.AperFunction,SMDPad,CuDef*
G36*
G01*
X123975000Y-84960000D02*
X123675000Y-84960000D01*
G75*
G02*
X123525000Y-84810000I0J150000D01*
G01*
X123525000Y-83360000D01*
G75*
G02*
X123675000Y-83210000I150000J0D01*
G01*
X123975000Y-83210000D01*
G75*
G02*
X124125000Y-83360000I0J-150000D01*
G01*
X124125000Y-84810000D01*
G75*
G02*
X123975000Y-84960000I-150000J0D01*
G01*
G37*
G04 #@! TD.AperFunction*
G04 #@! TA.AperFunction,SMDPad,CuDef*
G36*
G01*
X123975000Y-79810000D02*
X123675000Y-79810000D01*
G75*
G02*
X123525000Y-79660000I0J150000D01*
G01*
X123525000Y-78210000D01*
G75*
G02*
X123675000Y-78060000I150000J0D01*
G01*
X123975000Y-78060000D01*
G75*
G02*
X124125000Y-78210000I0J-150000D01*
G01*
X124125000Y-79660000D01*
G75*
G02*
X123975000Y-79810000I-150000J0D01*
G01*
G37*
G04 #@! TD.AperFunction*
G04 #@! TA.AperFunction,SMDPad,CuDef*
G36*
G01*
X122705000Y-79810000D02*
X122405000Y-79810000D01*
G75*
G02*
X122255000Y-79660000I0J150000D01*
G01*
X122255000Y-78210000D01*
G75*
G02*
X122405000Y-78060000I150000J0D01*
G01*
X122705000Y-78060000D01*
G75*
G02*
X122855000Y-78210000I0J-150000D01*
G01*
X122855000Y-79660000D01*
G75*
G02*
X122705000Y-79810000I-150000J0D01*
G01*
G37*
G04 #@! TD.AperFunction*
G04 #@! TA.AperFunction,SMDPad,CuDef*
G36*
G01*
X121435000Y-79810000D02*
X121135000Y-79810000D01*
G75*
G02*
X120985000Y-79660000I0J150000D01*
G01*
X120985000Y-78210000D01*
G75*
G02*
X121135000Y-78060000I150000J0D01*
G01*
X121435000Y-78060000D01*
G75*
G02*
X121585000Y-78210000I0J-150000D01*
G01*
X121585000Y-79660000D01*
G75*
G02*
X121435000Y-79810000I-150000J0D01*
G01*
G37*
G04 #@! TD.AperFunction*
G04 #@! TA.AperFunction,SMDPad,CuDef*
G36*
G01*
X120165000Y-79810000D02*
X119865000Y-79810000D01*
G75*
G02*
X119715000Y-79660000I0J150000D01*
G01*
X119715000Y-78210000D01*
G75*
G02*
X119865000Y-78060000I150000J0D01*
G01*
X120165000Y-78060000D01*
G75*
G02*
X120315000Y-78210000I0J-150000D01*
G01*
X120315000Y-79660000D01*
G75*
G02*
X120165000Y-79810000I-150000J0D01*
G01*
G37*
G04 #@! TD.AperFunction*
G04 #@! TA.AperFunction,SMDPad,CuDef*
G36*
G01*
X126515000Y-79735000D02*
X126215000Y-79735000D01*
G75*
G02*
X126065000Y-79585000I0J150000D01*
G01*
X126065000Y-78135000D01*
G75*
G02*
X126215000Y-77985000I150000J0D01*
G01*
X126515000Y-77985000D01*
G75*
G02*
X126665000Y-78135000I0J-150000D01*
G01*
X126665000Y-79585000D01*
G75*
G02*
X126515000Y-79735000I-150000J0D01*
G01*
G37*
G04 #@! TD.AperFunction*
G04 #@! TA.AperFunction,SMDPad,CuDef*
G36*
G01*
X127785000Y-79735000D02*
X127485000Y-79735000D01*
G75*
G02*
X127335000Y-79585000I0J150000D01*
G01*
X127335000Y-78135000D01*
G75*
G02*
X127485000Y-77985000I150000J0D01*
G01*
X127785000Y-77985000D01*
G75*
G02*
X127935000Y-78135000I0J-150000D01*
G01*
X127935000Y-79585000D01*
G75*
G02*
X127785000Y-79735000I-150000J0D01*
G01*
G37*
G04 #@! TD.AperFunction*
G04 #@! TA.AperFunction,SMDPad,CuDef*
G36*
G01*
X129055000Y-79735000D02*
X128755000Y-79735000D01*
G75*
G02*
X128605000Y-79585000I0J150000D01*
G01*
X128605000Y-78135000D01*
G75*
G02*
X128755000Y-77985000I150000J0D01*
G01*
X129055000Y-77985000D01*
G75*
G02*
X129205000Y-78135000I0J-150000D01*
G01*
X129205000Y-79585000D01*
G75*
G02*
X129055000Y-79735000I-150000J0D01*
G01*
G37*
G04 #@! TD.AperFunction*
G04 #@! TA.AperFunction,SMDPad,CuDef*
G36*
G01*
X130325000Y-79735000D02*
X130025000Y-79735000D01*
G75*
G02*
X129875000Y-79585000I0J150000D01*
G01*
X129875000Y-78135000D01*
G75*
G02*
X130025000Y-77985000I150000J0D01*
G01*
X130325000Y-77985000D01*
G75*
G02*
X130475000Y-78135000I0J-150000D01*
G01*
X130475000Y-79585000D01*
G75*
G02*
X130325000Y-79735000I-150000J0D01*
G01*
G37*
G04 #@! TD.AperFunction*
G04 #@! TA.AperFunction,SMDPad,CuDef*
G36*
G01*
X130325000Y-84885000D02*
X130025000Y-84885000D01*
G75*
G02*
X129875000Y-84735000I0J150000D01*
G01*
X129875000Y-83285000D01*
G75*
G02*
X130025000Y-83135000I150000J0D01*
G01*
X130325000Y-83135000D01*
G75*
G02*
X130475000Y-83285000I0J-150000D01*
G01*
X130475000Y-84735000D01*
G75*
G02*
X130325000Y-84885000I-150000J0D01*
G01*
G37*
G04 #@! TD.AperFunction*
G04 #@! TA.AperFunction,SMDPad,CuDef*
G36*
G01*
X129055000Y-84885000D02*
X128755000Y-84885000D01*
G75*
G02*
X128605000Y-84735000I0J150000D01*
G01*
X128605000Y-83285000D01*
G75*
G02*
X128755000Y-83135000I150000J0D01*
G01*
X129055000Y-83135000D01*
G75*
G02*
X129205000Y-83285000I0J-150000D01*
G01*
X129205000Y-84735000D01*
G75*
G02*
X129055000Y-84885000I-150000J0D01*
G01*
G37*
G04 #@! TD.AperFunction*
G04 #@! TA.AperFunction,SMDPad,CuDef*
G36*
G01*
X127785000Y-84885000D02*
X127485000Y-84885000D01*
G75*
G02*
X127335000Y-84735000I0J150000D01*
G01*
X127335000Y-83285000D01*
G75*
G02*
X127485000Y-83135000I150000J0D01*
G01*
X127785000Y-83135000D01*
G75*
G02*
X127935000Y-83285000I0J-150000D01*
G01*
X127935000Y-84735000D01*
G75*
G02*
X127785000Y-84885000I-150000J0D01*
G01*
G37*
G04 #@! TD.AperFunction*
G04 #@! TA.AperFunction,SMDPad,CuDef*
G36*
G01*
X126515000Y-84885000D02*
X126215000Y-84885000D01*
G75*
G02*
X126065000Y-84735000I0J150000D01*
G01*
X126065000Y-83285000D01*
G75*
G02*
X126215000Y-83135000I150000J0D01*
G01*
X126515000Y-83135000D01*
G75*
G02*
X126665000Y-83285000I0J-150000D01*
G01*
X126665000Y-84735000D01*
G75*
G02*
X126515000Y-84885000I-150000J0D01*
G01*
G37*
G04 #@! TD.AperFunction*
G04 #@! TA.AperFunction,SMDPad,CuDef*
G36*
G01*
X132990000Y-113515000D02*
X132990000Y-113815000D01*
G75*
G02*
X132840000Y-113965000I-150000J0D01*
G01*
X131390000Y-113965000D01*
G75*
G02*
X131240000Y-113815000I0J150000D01*
G01*
X131240000Y-113515000D01*
G75*
G02*
X131390000Y-113365000I150000J0D01*
G01*
X132840000Y-113365000D01*
G75*
G02*
X132990000Y-113515000I0J-150000D01*
G01*
G37*
G04 #@! TD.AperFunction*
G04 #@! TA.AperFunction,SMDPad,CuDef*
G36*
G01*
X132990000Y-112245000D02*
X132990000Y-112545000D01*
G75*
G02*
X132840000Y-112695000I-150000J0D01*
G01*
X131390000Y-112695000D01*
G75*
G02*
X131240000Y-112545000I0J150000D01*
G01*
X131240000Y-112245000D01*
G75*
G02*
X131390000Y-112095000I150000J0D01*
G01*
X132840000Y-112095000D01*
G75*
G02*
X132990000Y-112245000I0J-150000D01*
G01*
G37*
G04 #@! TD.AperFunction*
G04 #@! TA.AperFunction,SMDPad,CuDef*
G36*
G01*
X132990000Y-110975000D02*
X132990000Y-111275000D01*
G75*
G02*
X132840000Y-111425000I-150000J0D01*
G01*
X131390000Y-111425000D01*
G75*
G02*
X131240000Y-111275000I0J150000D01*
G01*
X131240000Y-110975000D01*
G75*
G02*
X131390000Y-110825000I150000J0D01*
G01*
X132840000Y-110825000D01*
G75*
G02*
X132990000Y-110975000I0J-150000D01*
G01*
G37*
G04 #@! TD.AperFunction*
G04 #@! TA.AperFunction,SMDPad,CuDef*
G36*
G01*
X132990000Y-109705000D02*
X132990000Y-110005000D01*
G75*
G02*
X132840000Y-110155000I-150000J0D01*
G01*
X131390000Y-110155000D01*
G75*
G02*
X131240000Y-110005000I0J150000D01*
G01*
X131240000Y-109705000D01*
G75*
G02*
X131390000Y-109555000I150000J0D01*
G01*
X132840000Y-109555000D01*
G75*
G02*
X132990000Y-109705000I0J-150000D01*
G01*
G37*
G04 #@! TD.AperFunction*
G04 #@! TA.AperFunction,SMDPad,CuDef*
G36*
G01*
X127840000Y-109705000D02*
X127840000Y-110005000D01*
G75*
G02*
X127690000Y-110155000I-150000J0D01*
G01*
X126240000Y-110155000D01*
G75*
G02*
X126090000Y-110005000I0J150000D01*
G01*
X126090000Y-109705000D01*
G75*
G02*
X126240000Y-109555000I150000J0D01*
G01*
X127690000Y-109555000D01*
G75*
G02*
X127840000Y-109705000I0J-150000D01*
G01*
G37*
G04 #@! TD.AperFunction*
G04 #@! TA.AperFunction,SMDPad,CuDef*
G36*
G01*
X127840000Y-110975000D02*
X127840000Y-111275000D01*
G75*
G02*
X127690000Y-111425000I-150000J0D01*
G01*
X126240000Y-111425000D01*
G75*
G02*
X126090000Y-111275000I0J150000D01*
G01*
X126090000Y-110975000D01*
G75*
G02*
X126240000Y-110825000I150000J0D01*
G01*
X127690000Y-110825000D01*
G75*
G02*
X127840000Y-110975000I0J-150000D01*
G01*
G37*
G04 #@! TD.AperFunction*
G04 #@! TA.AperFunction,SMDPad,CuDef*
G36*
G01*
X127840000Y-112245000D02*
X127840000Y-112545000D01*
G75*
G02*
X127690000Y-112695000I-150000J0D01*
G01*
X126240000Y-112695000D01*
G75*
G02*
X126090000Y-112545000I0J150000D01*
G01*
X126090000Y-112245000D01*
G75*
G02*
X126240000Y-112095000I150000J0D01*
G01*
X127690000Y-112095000D01*
G75*
G02*
X127840000Y-112245000I0J-150000D01*
G01*
G37*
G04 #@! TD.AperFunction*
G04 #@! TA.AperFunction,SMDPad,CuDef*
G36*
G01*
X127840000Y-113515000D02*
X127840000Y-113815000D01*
G75*
G02*
X127690000Y-113965000I-150000J0D01*
G01*
X126240000Y-113965000D01*
G75*
G02*
X126090000Y-113815000I0J150000D01*
G01*
X126090000Y-113515000D01*
G75*
G02*
X126240000Y-113365000I150000J0D01*
G01*
X127690000Y-113365000D01*
G75*
G02*
X127840000Y-113515000I0J-150000D01*
G01*
G37*
G04 #@! TD.AperFunction*
G04 #@! TA.AperFunction,SMDPad,CuDef*
G36*
G01*
X131240000Y-122705000D02*
X131240000Y-122405000D01*
G75*
G02*
X131390000Y-122255000I150000J0D01*
G01*
X132840000Y-122255000D01*
G75*
G02*
X132990000Y-122405000I0J-150000D01*
G01*
X132990000Y-122705000D01*
G75*
G02*
X132840000Y-122855000I-150000J0D01*
G01*
X131390000Y-122855000D01*
G75*
G02*
X131240000Y-122705000I0J150000D01*
G01*
G37*
G04 #@! TD.AperFunction*
G04 #@! TA.AperFunction,SMDPad,CuDef*
G36*
G01*
X131240000Y-123975000D02*
X131240000Y-123675000D01*
G75*
G02*
X131390000Y-123525000I150000J0D01*
G01*
X132840000Y-123525000D01*
G75*
G02*
X132990000Y-123675000I0J-150000D01*
G01*
X132990000Y-123975000D01*
G75*
G02*
X132840000Y-124125000I-150000J0D01*
G01*
X131390000Y-124125000D01*
G75*
G02*
X131240000Y-123975000I0J150000D01*
G01*
G37*
G04 #@! TD.AperFunction*
G04 #@! TA.AperFunction,SMDPad,CuDef*
G36*
G01*
X131240000Y-125245000D02*
X131240000Y-124945000D01*
G75*
G02*
X131390000Y-124795000I150000J0D01*
G01*
X132840000Y-124795000D01*
G75*
G02*
X132990000Y-124945000I0J-150000D01*
G01*
X132990000Y-125245000D01*
G75*
G02*
X132840000Y-125395000I-150000J0D01*
G01*
X131390000Y-125395000D01*
G75*
G02*
X131240000Y-125245000I0J150000D01*
G01*
G37*
G04 #@! TD.AperFunction*
G04 #@! TA.AperFunction,SMDPad,CuDef*
G36*
G01*
X131240000Y-126515000D02*
X131240000Y-126215000D01*
G75*
G02*
X131390000Y-126065000I150000J0D01*
G01*
X132840000Y-126065000D01*
G75*
G02*
X132990000Y-126215000I0J-150000D01*
G01*
X132990000Y-126515000D01*
G75*
G02*
X132840000Y-126665000I-150000J0D01*
G01*
X131390000Y-126665000D01*
G75*
G02*
X131240000Y-126515000I0J150000D01*
G01*
G37*
G04 #@! TD.AperFunction*
G04 #@! TA.AperFunction,SMDPad,CuDef*
G36*
G01*
X126090000Y-126515000D02*
X126090000Y-126215000D01*
G75*
G02*
X126240000Y-126065000I150000J0D01*
G01*
X127690000Y-126065000D01*
G75*
G02*
X127840000Y-126215000I0J-150000D01*
G01*
X127840000Y-126515000D01*
G75*
G02*
X127690000Y-126665000I-150000J0D01*
G01*
X126240000Y-126665000D01*
G75*
G02*
X126090000Y-126515000I0J150000D01*
G01*
G37*
G04 #@! TD.AperFunction*
G04 #@! TA.AperFunction,SMDPad,CuDef*
G36*
G01*
X126090000Y-125245000D02*
X126090000Y-124945000D01*
G75*
G02*
X126240000Y-124795000I150000J0D01*
G01*
X127690000Y-124795000D01*
G75*
G02*
X127840000Y-124945000I0J-150000D01*
G01*
X127840000Y-125245000D01*
G75*
G02*
X127690000Y-125395000I-150000J0D01*
G01*
X126240000Y-125395000D01*
G75*
G02*
X126090000Y-125245000I0J150000D01*
G01*
G37*
G04 #@! TD.AperFunction*
G04 #@! TA.AperFunction,SMDPad,CuDef*
G36*
G01*
X126090000Y-123975000D02*
X126090000Y-123675000D01*
G75*
G02*
X126240000Y-123525000I150000J0D01*
G01*
X127690000Y-123525000D01*
G75*
G02*
X127840000Y-123675000I0J-150000D01*
G01*
X127840000Y-123975000D01*
G75*
G02*
X127690000Y-124125000I-150000J0D01*
G01*
X126240000Y-124125000D01*
G75*
G02*
X126090000Y-123975000I0J150000D01*
G01*
G37*
G04 #@! TD.AperFunction*
G04 #@! TA.AperFunction,SMDPad,CuDef*
G36*
G01*
X126090000Y-122705000D02*
X126090000Y-122405000D01*
G75*
G02*
X126240000Y-122255000I150000J0D01*
G01*
X127690000Y-122255000D01*
G75*
G02*
X127840000Y-122405000I0J-150000D01*
G01*
X127840000Y-122705000D01*
G75*
G02*
X127690000Y-122855000I-150000J0D01*
G01*
X126240000Y-122855000D01*
G75*
G02*
X126090000Y-122705000I0J150000D01*
G01*
G37*
G04 #@! TD.AperFunction*
D19*
X103480000Y-88900000D03*
D20*
X97180000Y-88900000D03*
X97180000Y-91200000D03*
X97180000Y-86600000D03*
D13*
X150400000Y-90170000D03*
X154400000Y-90170000D03*
X154400000Y-85090000D03*
X150400000Y-85090000D03*
X150400000Y-80010000D03*
X154400000Y-80010000D03*
X154400000Y-74930000D03*
X150400000Y-74930000D03*
X150400000Y-100330000D03*
X154400000Y-100330000D03*
X154400000Y-95250000D03*
X150400000Y-95250000D03*
X150400000Y-110490000D03*
X154400000Y-110490000D03*
X154400000Y-105410000D03*
X150400000Y-105410000D03*
X154400000Y-115570000D03*
X150400000Y-115570000D03*
D21*
X108690000Y-72620000D03*
X130990000Y-72620000D03*
D22*
X128840000Y-74120000D03*
X125840000Y-74120000D03*
X122840000Y-74120000D03*
X119840000Y-74120000D03*
X116840000Y-74120000D03*
X113840000Y-74120000D03*
X110840000Y-74120000D03*
X128840000Y-71120000D03*
X125840000Y-71120000D03*
X122840000Y-71120000D03*
X119840000Y-71120000D03*
X116840000Y-71120000D03*
X113840000Y-71120000D03*
X110840000Y-71120000D03*
D23*
X111760000Y-99695000D03*
X111760000Y-100965000D03*
X111760000Y-103505000D03*
X111760000Y-106045000D03*
X111760000Y-107315000D03*
X114300000Y-106045000D03*
X118110000Y-107315000D03*
X121920000Y-107315000D03*
X121920000Y-99695000D03*
X116840000Y-99695000D03*
X116840000Y-102235000D03*
X113030000Y-102235000D03*
D24*
X96520000Y-84836000D03*
X109855000Y-88900000D03*
X110236000Y-127127000D03*
X124460000Y-82296000D03*
X130175000Y-81915000D03*
X109982000Y-102235000D03*
X101092000Y-107188000D03*
X102489000Y-115570000D03*
X102489000Y-119380000D03*
D23*
X115570000Y-106045000D03*
D24*
X124079000Y-125476000D03*
X122301000Y-121539000D03*
D23*
X119398921Y-99688241D03*
D24*
X102361992Y-125095000D03*
D25*
X102121786Y-103949747D03*
X115570000Y-85852000D03*
D24*
X124079000Y-114427000D03*
X124482416Y-109855000D03*
X129921000Y-89916000D03*
X124333000Y-100838000D03*
D23*
X121920000Y-104775000D03*
D24*
X110744000Y-113284000D03*
D25*
X96266000Y-95631000D03*
X120015010Y-89916000D03*
D24*
X111760000Y-90170004D03*
D25*
X101473000Y-78740000D03*
X100711000Y-79502000D03*
D23*
X115570000Y-104775000D03*
X121920000Y-103505000D03*
X114300000Y-100965000D03*
D24*
X103505000Y-85979000D03*
X103505000Y-84836000D03*
X126365000Y-82332598D03*
X112441097Y-85136097D03*
X121449649Y-82169000D03*
X124482598Y-106680000D03*
X124079000Y-121539000D03*
X122174000Y-125476000D03*
D23*
X119380000Y-107315006D03*
D25*
X132397500Y-85471000D03*
D24*
X122113000Y-114488000D03*
D25*
X129232002Y-101600000D03*
D23*
X121919977Y-100965000D03*
D25*
X103505000Y-91821000D03*
X103505000Y-92964000D03*
X101092000Y-88900000D03*
X101092000Y-90170000D03*
X101092000Y-91440000D03*
D24*
X96520000Y-93345000D03*
X97790000Y-93345000D03*
D25*
X96901000Y-75692000D03*
X98425038Y-75692000D03*
D24*
X103759000Y-124206000D03*
D25*
X124079000Y-130810000D03*
D24*
X102362000Y-99314000D03*
X132207000Y-121285000D03*
X151376980Y-88257980D03*
X151257000Y-83312000D03*
X151003000Y-72898000D03*
X151384000Y-78232000D03*
X144780000Y-109982000D03*
X144780000Y-119302424D03*
D25*
X142494000Y-82169000D03*
X143637000Y-82169000D03*
D24*
X131191000Y-114808000D03*
X153543000Y-125603000D03*
X132080000Y-108712000D03*
X132886247Y-114939424D03*
X132080000Y-127508000D03*
X147574000Y-76200000D03*
X147574000Y-81280000D03*
X147574000Y-91440000D03*
X136017000Y-116459000D03*
X148082000Y-95250000D03*
X148336000Y-100203000D03*
X148297900Y-105410000D03*
X148336000Y-110490000D03*
X148209000Y-115570000D03*
X148209000Y-120650000D03*
X144780004Y-123825000D03*
D25*
X135382000Y-127000000D03*
D24*
X144805164Y-105288032D03*
D25*
X139319000Y-105156000D03*
X135890000Y-102997000D03*
D24*
X147597960Y-86357530D03*
D25*
X145034000Y-77851000D03*
X145034000Y-76708000D03*
X151765000Y-125095000D03*
D24*
X151765000Y-93091000D03*
X148209001Y-88011001D03*
X148082000Y-83312000D03*
D25*
X137541000Y-105537000D03*
X145288000Y-85217000D03*
D24*
X142113000Y-105918000D03*
X96139000Y-115570000D03*
X96266000Y-113030000D03*
X96266000Y-110490000D03*
X96139000Y-118110000D03*
X96139000Y-120650000D03*
D25*
X134239000Y-130810000D03*
D24*
X148590000Y-132461000D03*
X143510000Y-132461000D03*
X138303000Y-132588000D03*
X140970006Y-132461000D03*
X146000243Y-132462990D03*
X151130000Y-132588000D03*
X153670000Y-132587992D03*
X96139000Y-123190000D03*
X113792000Y-77089000D03*
X120015000Y-76835000D03*
X126365000Y-76454000D03*
X115212500Y-77065500D03*
X121412000Y-76454000D03*
X156845000Y-90170000D03*
X156845000Y-85090000D03*
X156718000Y-74930000D03*
X156718000Y-80137000D03*
X156845000Y-100330000D03*
X156845000Y-95250000D03*
X156845000Y-110490000D03*
X156845000Y-105410000D03*
X156845000Y-120650000D03*
X156845000Y-115570000D03*
X109982000Y-93980000D03*
X97155000Y-101600000D03*
X96012000Y-103759000D03*
X100203000Y-108458000D03*
X102870000Y-109220000D03*
X103505000Y-116840000D03*
X103124000Y-121793000D03*
X102235000Y-105410000D03*
X121412000Y-90551000D03*
D25*
X129159000Y-104140000D03*
D24*
X109855000Y-86360000D03*
D25*
X109093000Y-81407000D03*
X129159000Y-96520000D03*
X129159000Y-99060000D03*
D24*
X104330500Y-97345500D03*
X122936000Y-82169000D03*
X111125000Y-78994000D03*
D25*
X129159000Y-93980000D03*
X131445000Y-87503000D03*
D24*
X110113424Y-95294247D03*
X116332000Y-91313000D03*
D25*
X129158996Y-91440000D03*
X129882464Y-87464464D03*
X129159000Y-106680000D03*
D24*
X111252000Y-111887000D03*
X112395000Y-123063000D03*
X111252000Y-109347000D03*
X110490000Y-119507000D03*
X111252000Y-122047000D03*
X111252000Y-116967000D03*
D25*
X110236000Y-129667000D03*
D24*
X146685000Y-123863090D03*
X146304000Y-107569000D03*
X141662784Y-118951373D03*
X147828000Y-112776000D03*
X147637502Y-97210925D03*
X137287000Y-114935000D03*
X135890000Y-121920000D03*
X149225000Y-124079006D03*
X135003956Y-123647189D03*
X135001000Y-125603000D03*
X142532090Y-123721053D03*
X140702827Y-119858566D03*
X147955000Y-122428000D03*
X141351000Y-111124996D03*
X142113000Y-113538000D03*
X140970000Y-105155996D03*
X135001000Y-113538000D03*
X135001000Y-109982000D03*
X143002000Y-112395000D03*
X143427257Y-105151566D03*
D23*
X118110000Y-106045000D03*
D25*
X124460000Y-104140000D03*
D23*
X121920001Y-102246970D03*
D25*
X124206000Y-96520008D03*
D23*
X121920000Y-106045000D03*
D25*
X124432242Y-99334252D03*
D23*
X119391959Y-102235000D03*
D25*
X122809000Y-93980000D03*
D23*
X119380000Y-104775000D03*
D24*
X124079000Y-90728813D03*
D23*
X120650000Y-100965000D03*
D25*
X124207898Y-92093983D03*
D23*
X118115949Y-104769049D03*
D24*
X124206000Y-86360000D03*
X139700000Y-118999000D03*
X136144000Y-119380000D03*
X139700000Y-113537978D03*
D25*
X136017000Y-107950000D03*
D26*
X111125000Y-99060000D02*
X111760000Y-99695000D01*
X111125000Y-100330000D02*
X111760000Y-99695000D01*
X111125000Y-100330000D02*
X111760000Y-100965000D01*
X112395000Y-101600000D02*
X111760000Y-100965000D01*
X111125000Y-101600000D02*
X111760000Y-100965000D01*
X111125000Y-102870000D02*
X111760000Y-103505000D01*
X111125000Y-104140000D02*
X111760000Y-103505000D01*
X112395000Y-104140000D02*
X111760000Y-103505000D01*
X112395000Y-102870000D02*
X111760000Y-103505000D01*
X111125000Y-105410000D02*
X111760000Y-106045000D01*
X112395000Y-105410000D02*
X111760000Y-106045000D01*
X111125000Y-106680000D02*
X111760000Y-106045000D01*
X111125000Y-106680000D02*
X111760000Y-107315000D01*
X111125000Y-107950000D02*
X111760000Y-107315000D01*
X114935000Y-105410000D02*
X114300000Y-106045000D01*
X113665000Y-106680000D02*
X114300000Y-106045000D01*
X118745000Y-106680000D02*
X118110000Y-107315000D01*
X117475000Y-107950000D02*
X118110000Y-107315000D01*
X122555000Y-107950000D02*
X121920000Y-107315000D01*
X121285000Y-106680000D02*
X121920000Y-107315000D01*
X121285000Y-100330000D02*
X121920000Y-99695000D01*
X122555000Y-99060000D02*
X121920000Y-99695000D01*
X116205000Y-100330000D02*
X116840000Y-99695000D01*
X117475000Y-99060000D02*
X116840000Y-99695000D01*
X116205000Y-101600000D02*
X116840000Y-102235000D01*
X117475000Y-101600000D02*
X116840000Y-102235000D01*
X117475000Y-102870000D02*
X116840000Y-102235000D01*
X113665000Y-101600000D02*
X113030000Y-102235000D01*
X112395000Y-101600000D02*
X113030000Y-102235000D01*
X112395000Y-102870000D02*
X113030000Y-102235000D01*
D27*
X123825000Y-84085000D02*
X123825000Y-83185000D01*
X123825000Y-83185000D02*
X123825000Y-82804000D01*
X123952000Y-82804000D02*
X124460000Y-82296000D01*
X123825000Y-82804000D02*
X123952000Y-82804000D01*
X130175000Y-84010000D02*
X130175000Y-81915000D01*
X130175000Y-81915000D02*
X129540000Y-81915000D01*
X129540000Y-81915000D02*
X128905000Y-82550000D01*
X128905000Y-82550000D02*
X128905000Y-84010000D01*
D28*
X100584000Y-106680000D02*
X101092000Y-107188000D01*
X99125000Y-106680000D02*
X100584000Y-106680000D01*
X100460000Y-115570000D02*
X102489000Y-115570000D01*
X102362000Y-113030000D02*
X102489000Y-113157000D01*
X100460000Y-113030000D02*
X102362000Y-113030000D01*
X102489000Y-113157000D02*
X102489000Y-115570000D01*
X101981000Y-118110000D02*
X100460000Y-118110000D01*
X102489000Y-118618000D02*
X101981000Y-118110000D01*
X102489000Y-119380000D02*
X102489000Y-118618000D01*
X100460000Y-120650000D02*
X101854000Y-120650000D01*
X102489000Y-120015000D02*
X102489000Y-119380000D01*
X101854000Y-120650000D02*
X102489000Y-120015000D01*
D26*
X116205000Y-106680000D02*
X115570000Y-106045000D01*
X114935000Y-105410000D02*
X115570000Y-106045000D01*
D28*
X124140000Y-125537000D02*
X124079000Y-125476000D01*
X124140000Y-127000000D02*
X124140000Y-125537000D01*
X125095000Y-127000000D02*
X124140000Y-127000000D01*
X125730000Y-126365000D02*
X125095000Y-127000000D01*
X126965000Y-126365000D02*
X125730000Y-126365000D01*
X122240000Y-121478000D02*
X122301000Y-121539000D01*
X122240000Y-120015000D02*
X122240000Y-121478000D01*
D26*
X120015000Y-99060000D02*
X119398921Y-99676079D01*
X118745000Y-100330000D02*
X119380000Y-99695000D01*
D28*
X102489000Y-111556294D02*
X102489000Y-113157000D01*
X100460000Y-110490000D02*
X101422706Y-110490000D01*
X101422706Y-110490000D02*
X102489000Y-111556294D01*
X102361992Y-123951992D02*
X102361992Y-125095000D01*
X101600000Y-123190000D02*
X102361992Y-123951992D01*
X100460000Y-123190000D02*
X101600000Y-123190000D01*
X130175000Y-81407000D02*
X130175000Y-81915000D01*
X130810000Y-80772000D02*
X130175000Y-81407000D01*
X131572000Y-80772000D02*
X130810000Y-80772000D01*
X132130800Y-81330800D02*
X131572000Y-80772000D01*
X132130800Y-82235000D02*
X132130800Y-81330800D01*
X115697000Y-85725000D02*
X115570000Y-85852000D01*
X116840000Y-85725000D02*
X115697000Y-85725000D01*
X117610000Y-84955000D02*
X116840000Y-85725000D01*
X117610000Y-84110000D02*
X117610000Y-84955000D01*
X125349000Y-116205000D02*
X125222000Y-116078000D01*
X125222000Y-116078000D02*
X124013000Y-116078000D01*
X126965000Y-116205000D02*
X125349000Y-116205000D01*
X124013000Y-114493000D02*
X124079000Y-114427000D01*
X124013000Y-116078000D02*
X124013000Y-114493000D01*
X126965000Y-109855000D02*
X124482416Y-109855000D01*
D26*
X122555000Y-105410000D02*
X121920000Y-104775000D01*
D28*
X120015000Y-88580000D02*
X120015000Y-89915990D01*
X120015000Y-89915990D02*
X120015010Y-89916000D01*
X111760000Y-88580000D02*
X111760000Y-90170004D01*
D29*
X97180000Y-85496000D02*
X96520000Y-84836000D01*
X97180000Y-86600000D02*
X97180000Y-85496000D01*
X103730000Y-78740000D02*
X101473000Y-78740000D01*
X101473000Y-78740000D02*
X100711000Y-79502000D01*
D26*
X116205000Y-105410000D02*
X115570000Y-104775000D01*
X121285000Y-102870000D02*
X121920000Y-103505000D01*
X121285000Y-104140000D02*
X121920000Y-103505000D01*
X113665000Y-100330000D02*
X114300000Y-100965000D01*
X114935000Y-101600000D02*
X114300000Y-100965000D01*
D29*
X103505000Y-88925000D02*
X103480000Y-88900000D01*
X103505000Y-88875000D02*
X103480000Y-88900000D01*
X103505000Y-86233000D02*
X103505000Y-88875000D01*
D28*
X126365000Y-84010000D02*
X126365000Y-82332598D01*
X111760000Y-85817194D02*
X112441097Y-85136097D01*
X111760000Y-86680000D02*
X111760000Y-85817194D01*
D27*
X120015000Y-84085000D02*
X120015000Y-83210000D01*
X121056000Y-82169000D02*
X121449649Y-82169000D01*
X120015000Y-83210000D02*
X121056000Y-82169000D01*
D29*
X103505000Y-85090000D02*
X103505000Y-86233000D01*
D26*
X118745000Y-107950000D02*
X119367290Y-107327710D01*
X120015000Y-107950000D02*
X119380000Y-107315000D01*
D27*
X126087500Y-106680000D02*
X124482598Y-106680000D01*
D28*
X126965000Y-120015000D02*
X124140000Y-120015000D01*
X124140000Y-121478000D02*
X124079000Y-121539000D01*
X124140000Y-120015000D02*
X124140000Y-121478000D01*
X122240000Y-125542000D02*
X122174000Y-125476000D01*
X122240000Y-127000000D02*
X122240000Y-125542000D01*
X132130800Y-85204300D02*
X132397500Y-85471000D01*
X132130800Y-84135000D02*
X132130800Y-85204300D01*
X120015000Y-84085000D02*
X120015000Y-86680000D01*
X125095000Y-122555000D02*
X124079000Y-121539000D01*
X126965000Y-122555000D02*
X125095000Y-122555000D01*
X122113000Y-116078000D02*
X122113000Y-114488000D01*
X126965000Y-113665000D02*
X124968000Y-113665000D01*
X124968000Y-113665000D02*
X124587000Y-113284000D01*
X124587000Y-113284000D02*
X123317000Y-113284000D01*
X123317000Y-113284000D02*
X122113000Y-114488000D01*
X127912500Y-101600000D02*
X129232002Y-101600000D01*
D26*
X121920000Y-100965000D02*
X121919977Y-100965000D01*
X122555000Y-101600000D02*
X121920000Y-100965000D01*
D29*
X103505000Y-91567000D02*
X103505000Y-92710000D01*
X103480000Y-88900000D02*
X101092000Y-88900000D01*
X97180000Y-88900000D02*
X101092000Y-88900000D01*
X101092000Y-88900000D02*
X101092000Y-90170000D01*
X101092000Y-90170000D02*
X101092000Y-91440000D01*
D28*
X112994000Y-84110000D02*
X113800000Y-84110000D01*
X112441097Y-84662903D02*
X112994000Y-84110000D01*
X112441097Y-85136097D02*
X112441097Y-84662903D01*
D29*
X103480000Y-88900000D02*
X103480000Y-91542000D01*
X103480000Y-91542000D02*
X103505000Y-91567000D01*
X97790000Y-93345000D02*
X97155000Y-93345000D01*
X96520000Y-93345000D02*
X97155000Y-93345000D01*
X97155000Y-91225000D02*
X97180000Y-91200000D01*
X97155000Y-93345000D02*
X97155000Y-91225000D01*
X96930000Y-75721000D02*
X96901000Y-75692000D01*
X96930000Y-78740000D02*
X96930000Y-75721000D01*
X96901000Y-75692000D02*
X97917000Y-75692000D01*
X97917000Y-75692000D02*
X98425038Y-75692000D01*
D27*
X127390000Y-130810000D02*
X124079000Y-130810000D01*
D28*
X104075000Y-99060000D02*
X102616000Y-99060000D01*
X102616000Y-99060000D02*
X102362000Y-99314000D01*
X102362000Y-99949000D02*
X102362000Y-99314000D01*
X102743000Y-100330000D02*
X102362000Y-99949000D01*
X104075000Y-100330000D02*
X102743000Y-100330000D01*
X132115000Y-121193000D02*
X132207000Y-121285000D01*
X132115000Y-120015000D02*
X132115000Y-121193000D01*
X132115000Y-121377000D02*
X132207000Y-121285000D01*
X132115000Y-122555000D02*
X132115000Y-121377000D01*
X144780000Y-107885000D02*
X144780000Y-109982000D01*
X144780000Y-121855000D02*
X144780000Y-119302424D01*
D29*
X142240000Y-84680000D02*
X142240000Y-84582000D01*
X142240000Y-82423000D02*
X142494000Y-82169000D01*
X142240000Y-84582000D02*
X142240000Y-82423000D01*
X142494000Y-82169000D02*
X143637000Y-82169000D01*
D28*
X131445000Y-114808000D02*
X131191000Y-114808000D01*
X132115000Y-114138000D02*
X131445000Y-114808000D01*
X132115000Y-113665000D02*
X132115000Y-114138000D01*
X132115000Y-108747000D02*
X132080000Y-108712000D01*
X132115000Y-109855000D02*
X132115000Y-108747000D01*
X132115000Y-127473000D02*
X132080000Y-127508000D01*
X132115000Y-126365000D02*
X132115000Y-127473000D01*
X136463000Y-116905000D02*
X136017000Y-116459000D01*
X137160000Y-116905000D02*
X136463000Y-116905000D01*
D27*
X148844000Y-74930000D02*
X147574000Y-76200000D01*
X150400000Y-74930000D02*
X148844000Y-74930000D01*
X148844000Y-80010000D02*
X147574000Y-81280000D01*
X150400000Y-80010000D02*
X148844000Y-80010000D01*
X150400000Y-95250000D02*
X148082000Y-95250000D01*
X148463000Y-100330000D02*
X148336000Y-100203000D01*
X150400000Y-100330000D02*
X148463000Y-100330000D01*
X150400000Y-105410000D02*
X148297900Y-105410000D01*
X150400000Y-110490000D02*
X148336000Y-110490000D01*
X150400000Y-115570000D02*
X148463000Y-115570000D01*
X148463000Y-115570000D02*
X148209000Y-115570000D01*
X150400000Y-120650000D02*
X148209000Y-120650000D01*
X148463000Y-90170000D02*
X147574000Y-91059000D01*
X147574000Y-91059000D02*
X147574000Y-91440000D01*
X150400000Y-90170000D02*
X148463000Y-90170000D01*
D28*
X132886247Y-114939424D02*
X132168647Y-115657024D01*
X132168647Y-115657024D02*
X132168647Y-116151353D01*
X132168647Y-116151353D02*
X132115000Y-116205000D01*
D27*
X137160000Y-127505000D02*
X137160000Y-126365000D01*
D28*
X143510000Y-106583196D02*
X144805164Y-105288032D01*
X143510000Y-107885000D02*
X143510000Y-106583196D01*
X139700000Y-102935000D02*
X139700000Y-103124000D01*
X139700000Y-104775000D02*
X139319000Y-105156000D01*
X139700000Y-103124000D02*
X139700000Y-104775000D01*
X135952000Y-102935000D02*
X135890000Y-102997000D01*
X137160000Y-102935000D02*
X135952000Y-102935000D01*
D27*
X147597960Y-85588862D02*
X147597960Y-86357530D01*
X148096822Y-85090000D02*
X147597960Y-85588862D01*
X150400000Y-85090000D02*
X148096822Y-85090000D01*
D29*
X145005000Y-77880000D02*
X145034000Y-77851000D01*
X142240000Y-77880000D02*
X145005000Y-77880000D01*
X145034000Y-77851000D02*
X145034000Y-76708000D01*
D27*
X144780000Y-126238000D02*
X147320000Y-126238000D01*
X139573000Y-126238000D02*
X142240000Y-126238000D01*
X137160000Y-126365000D02*
X137287000Y-126238000D01*
X136144000Y-126238000D02*
X135382000Y-127000000D01*
X137287000Y-126238000D02*
X136144000Y-126238000D01*
X137287000Y-126238000D02*
X139573000Y-126238000D01*
X139700000Y-126365000D02*
X139573000Y-126238000D01*
X139700000Y-127505000D02*
X139700000Y-126365000D01*
X142240000Y-127505000D02*
X142240000Y-126238000D01*
D28*
X144780000Y-127505000D02*
X144780000Y-126492000D01*
D27*
X142240000Y-126238000D02*
X144780000Y-126238000D01*
X147320000Y-127505000D02*
X147320000Y-126238000D01*
X147320000Y-126238000D02*
X149860000Y-126238000D01*
X149860000Y-127505000D02*
X149860000Y-126238000D01*
X149860000Y-126238000D02*
X151638000Y-126238000D01*
X151765000Y-126111000D02*
X151765000Y-125095000D01*
X151638000Y-126238000D02*
X151765000Y-126111000D01*
X152400000Y-127000000D02*
X152400000Y-127010000D01*
X152400000Y-127010000D02*
X152400000Y-127635000D01*
X151638000Y-126238000D02*
X152400000Y-127000000D01*
D28*
X151257000Y-93091000D02*
X151765000Y-93091000D01*
X148793706Y-93091000D02*
X151765000Y-93091000D01*
X146431000Y-99187000D02*
X146431000Y-95453706D01*
X144780000Y-100838000D02*
X146431000Y-99187000D01*
X146431000Y-95453706D02*
X148793706Y-93091000D01*
X144780000Y-102935000D02*
X144780000Y-100838000D01*
X146596099Y-89623903D02*
X147675602Y-88544400D01*
X146596099Y-93941901D02*
X146596099Y-89623903D01*
X145669000Y-94869000D02*
X146596099Y-93941901D01*
X145669000Y-98298000D02*
X145669000Y-94869000D01*
X147675602Y-88544400D02*
X148209001Y-88011001D01*
X142240000Y-101727000D02*
X145669000Y-98298000D01*
X142240000Y-102935000D02*
X142240000Y-101727000D01*
X137922000Y-105537000D02*
X138430000Y-106045000D01*
X138430000Y-106045000D02*
X138430000Y-107885000D01*
X137541000Y-105537000D02*
X137922000Y-105537000D01*
X148082000Y-83312000D02*
X146177000Y-85217000D01*
X146177000Y-85217000D02*
X145288000Y-85217000D01*
X140970000Y-107885000D02*
X140970000Y-107061000D01*
X140970000Y-107061000D02*
X142113000Y-105918000D01*
X96139000Y-115570000D02*
X97660000Y-115570000D01*
X96266000Y-113030000D02*
X97660000Y-113030000D01*
X97660000Y-110490000D02*
X96266000Y-110490000D01*
X97660000Y-118110000D02*
X96139000Y-118110000D01*
X96139000Y-120650000D02*
X97660000Y-120650000D01*
D27*
X134239000Y-130810000D02*
X131690000Y-130810000D01*
D28*
X147320000Y-130305000D02*
X147320000Y-132080000D01*
X147320000Y-132080000D02*
X147701000Y-132461000D01*
X147701000Y-132461000D02*
X148590000Y-132461000D01*
X142748000Y-132461000D02*
X143510000Y-132461000D01*
X142240000Y-131953000D02*
X142748000Y-132461000D01*
X142240000Y-131953000D02*
X142240000Y-130305000D01*
X137668000Y-132588000D02*
X138303000Y-132588000D01*
X137160000Y-132080000D02*
X137668000Y-132588000D01*
X137160000Y-132080000D02*
X137160000Y-130305000D01*
X140081000Y-132461000D02*
X140970006Y-132461000D01*
X139700000Y-132080000D02*
X140081000Y-132461000D01*
X139700000Y-132080000D02*
X139700000Y-130305000D01*
X145035990Y-132462990D02*
X146000243Y-132462990D01*
X144780000Y-132207000D02*
X145035990Y-132462990D01*
X144780000Y-132207000D02*
X144780000Y-130305000D01*
X150368000Y-132588000D02*
X151130000Y-132588000D01*
X149860000Y-132080000D02*
X150368000Y-132588000D01*
X149860000Y-130305000D02*
X149860000Y-132080000D01*
X152780992Y-132587992D02*
X153670000Y-132587992D01*
X152400000Y-132207000D02*
X152780992Y-132587992D01*
X152400000Y-130435000D02*
X152400000Y-132207000D01*
X97660000Y-123190000D02*
X96139000Y-123190000D01*
X118087001Y-72367001D02*
X116840000Y-71120000D01*
X118087001Y-76857999D02*
X118087001Y-72367001D01*
X117602000Y-77343000D02*
X118087001Y-76857999D01*
X117610000Y-77351000D02*
X117602000Y-77343000D01*
X117610000Y-78960000D02*
X117610000Y-77351000D01*
X113800000Y-78960000D02*
X113800000Y-77097000D01*
X113800000Y-77097000D02*
X113792000Y-77089000D01*
X124333000Y-72613000D02*
X122840000Y-71120000D01*
X124333000Y-75057000D02*
X124333000Y-72613000D01*
X123825000Y-75565000D02*
X124333000Y-75057000D01*
X123825000Y-78935000D02*
X123825000Y-75565000D01*
X120015000Y-78935000D02*
X120015000Y-76835000D01*
X127381000Y-72579000D02*
X128840000Y-71120000D01*
X127381000Y-75438000D02*
X127381000Y-72579000D01*
X126365000Y-76454000D02*
X127381000Y-75438000D01*
X126365000Y-78860000D02*
X126365000Y-76454000D01*
X116340000Y-74620000D02*
X116840000Y-74120000D01*
X116340000Y-78960000D02*
X116340000Y-74620000D01*
X115070000Y-77208000D02*
X115212500Y-77065500D01*
X115070000Y-78960000D02*
X115070000Y-77208000D01*
X122555000Y-74405000D02*
X122840000Y-74120000D01*
X122555000Y-78935000D02*
X122555000Y-74405000D01*
X121285000Y-76581000D02*
X121412000Y-76454000D01*
X121285000Y-78935000D02*
X121285000Y-76581000D01*
X127635000Y-76581000D02*
X128840000Y-75376000D01*
X128840000Y-75376000D02*
X128840000Y-74120000D01*
X127635000Y-78860000D02*
X127635000Y-76581000D01*
X154400000Y-90170000D02*
X156845000Y-90170000D01*
X154400000Y-85090000D02*
X156845000Y-85090000D01*
D27*
X154400000Y-74930000D02*
X156718000Y-74930000D01*
D28*
X156591000Y-80010000D02*
X156718000Y-80137000D01*
X154400000Y-80010000D02*
X156591000Y-80010000D01*
X154400000Y-100330000D02*
X156845000Y-100330000D01*
X156845000Y-95250000D02*
X154400000Y-95250000D01*
X154400000Y-110490000D02*
X156845000Y-110490000D01*
X156845000Y-105410000D02*
X154400000Y-105410000D01*
X154400000Y-120650000D02*
X156845000Y-120650000D01*
X156845000Y-115570000D02*
X154400000Y-115570000D01*
X97155000Y-101600000D02*
X99125000Y-101600000D01*
X114300000Y-89662000D02*
X109982000Y-93980000D01*
X114300000Y-88542500D02*
X114300000Y-89662000D01*
X115070000Y-84110000D02*
X115070000Y-84955000D01*
X114300000Y-85725000D02*
X114300000Y-86717500D01*
X115070000Y-84955000D02*
X114300000Y-85725000D01*
X96977706Y-100330000D02*
X99125000Y-100330000D01*
X96012000Y-101295706D02*
X96977706Y-100330000D01*
X96012000Y-103759000D02*
X96012000Y-101295706D01*
X99125000Y-102870000D02*
X97536000Y-102870000D01*
X97536000Y-102870000D02*
X97409000Y-102870000D01*
X97409000Y-102870000D02*
X97155000Y-103124000D01*
X97155000Y-103124000D02*
X97155000Y-107188000D01*
X98425000Y-108458000D02*
X100203000Y-108458000D01*
X97155000Y-107188000D02*
X98425000Y-108458000D01*
X102870000Y-107442000D02*
X102870000Y-109220000D01*
X99125000Y-105410000D02*
X100838000Y-105410000D01*
X100838000Y-105410000D02*
X102870000Y-107442000D01*
X104075000Y-116270000D02*
X103505000Y-116840000D01*
X104075000Y-106680000D02*
X104075000Y-116270000D01*
X106045000Y-104648000D02*
X106045000Y-118872000D01*
X104075000Y-104140000D02*
X105537000Y-104140000D01*
X105537000Y-104140000D02*
X106045000Y-104648000D01*
X106045000Y-118872000D02*
X103124000Y-121793000D01*
X122555000Y-85800766D02*
X122555000Y-86717500D01*
X122225234Y-85471000D02*
X122555000Y-85800766D01*
X121412000Y-85471000D02*
X122225234Y-85471000D01*
X121285000Y-85344000D02*
X121412000Y-85471000D01*
X121285000Y-84085000D02*
X121285000Y-85344000D01*
X104075000Y-105410000D02*
X102235000Y-105410000D01*
X122555000Y-89408000D02*
X121412000Y-90551000D01*
X122555000Y-88542500D02*
X122555000Y-89408000D01*
X127912500Y-104140000D02*
X129159000Y-104140000D01*
X116340000Y-82685000D02*
X116340000Y-84110000D01*
X114554000Y-81915000D02*
X115570000Y-81915000D01*
X112395000Y-79756000D02*
X114554000Y-81915000D01*
X112014000Y-79756000D02*
X112395000Y-79756000D01*
X111760000Y-80010000D02*
X112014000Y-79756000D01*
X115570000Y-81915000D02*
X116340000Y-82685000D01*
X111760000Y-81002500D02*
X111760000Y-80010000D01*
X111760000Y-82827500D02*
X111760000Y-84074000D01*
X109855000Y-85979000D02*
X109855000Y-86360000D01*
X111760000Y-84074000D02*
X109855000Y-85979000D01*
X108077001Y-82422999D02*
X109093000Y-81407000D01*
X102438704Y-97663000D02*
X108077001Y-92024703D01*
X108077001Y-92024703D02*
X108077001Y-82422999D01*
X97409000Y-98425000D02*
X98171000Y-97663000D01*
X97409000Y-98806000D02*
X97409000Y-98425000D01*
X98171000Y-97663000D02*
X102438704Y-97663000D01*
X97663000Y-99060000D02*
X97409000Y-98806000D01*
X99125000Y-99060000D02*
X97663000Y-99060000D01*
X127912500Y-96520000D02*
X129159000Y-96520000D01*
X127912500Y-99060000D02*
X129159000Y-99060000D01*
X101384099Y-98844607D02*
X101930706Y-98298000D01*
X99125000Y-104140000D02*
X100100000Y-104140000D01*
X100100000Y-104140000D02*
X101384099Y-102855901D01*
X101384099Y-102855901D02*
X101384099Y-98844607D01*
X101930706Y-98298000D02*
X103378000Y-98298000D01*
X103378000Y-98298000D02*
X104330500Y-97345500D01*
X107315000Y-96797500D02*
X107315000Y-97790000D01*
X107315000Y-97790000D02*
X106934000Y-98171000D01*
X105156000Y-98171000D02*
X104330500Y-97345500D01*
X106934000Y-98171000D02*
X105156000Y-98171000D01*
X122555000Y-82550000D02*
X122936000Y-82169000D01*
X122555000Y-84085000D02*
X122555000Y-82550000D01*
X110591601Y-79527399D02*
X111125000Y-78994000D01*
X110591601Y-81826103D02*
X110591601Y-79527399D01*
X108813601Y-92481399D02*
X108813601Y-83604103D01*
X108813601Y-83604103D02*
X110591601Y-81826103D01*
X107315000Y-93980000D02*
X108813601Y-92481399D01*
X107315000Y-94972500D02*
X107315000Y-93980000D01*
X127912500Y-93980000D02*
X129159000Y-93980000D01*
X130048000Y-88900000D02*
X131445000Y-87503000D01*
X127912500Y-88900000D02*
X130048000Y-88900000D01*
X117475000Y-90170000D02*
X116332000Y-91313000D01*
X117475000Y-88542500D02*
X117475000Y-90170000D01*
X109347000Y-96060671D02*
X110113424Y-95294247D01*
X109347000Y-99314000D02*
X109347000Y-96060671D01*
X105791000Y-102870000D02*
X109347000Y-99314000D01*
X104075000Y-102870000D02*
X105791000Y-102870000D01*
X117475000Y-86717500D02*
X117475000Y-85988038D01*
X117475000Y-85988038D02*
X117738038Y-85725000D01*
X118600726Y-85725000D02*
X119126000Y-85199726D01*
X117738038Y-85725000D02*
X118600726Y-85725000D01*
X119126000Y-83045355D02*
X119126000Y-85199726D01*
X120980256Y-81191099D02*
X119126000Y-83045355D01*
X126670795Y-81191099D02*
X120980256Y-81191099D01*
X127635000Y-82155304D02*
X126670795Y-81191099D01*
X127635000Y-84010000D02*
X127635000Y-82155304D01*
X127912500Y-91440000D02*
X129158996Y-91440000D01*
X129159000Y-86360000D02*
X129882464Y-87083464D01*
X129882464Y-87083464D02*
X129882464Y-87464464D01*
X127912500Y-86360000D02*
X129159000Y-86360000D01*
X127912500Y-106680000D02*
X129159000Y-106680000D01*
X111760000Y-112395000D02*
X111252000Y-111887000D01*
X126965000Y-112395000D02*
X111760000Y-112395000D01*
X126965000Y-123825000D02*
X125222000Y-123825000D01*
X125222000Y-123825000D02*
X124714000Y-123317000D01*
X124460000Y-123063000D02*
X112395000Y-123063000D01*
X124714000Y-123317000D02*
X124460000Y-123063000D01*
X111785399Y-109880399D02*
X111252000Y-109347000D01*
X113030000Y-111125000D02*
X111785399Y-109880399D01*
X126965000Y-111125000D02*
X113030000Y-111125000D01*
X125145294Y-125095000D02*
X124129294Y-124079000D01*
X126965000Y-125095000D02*
X125145294Y-125095000D01*
X124129294Y-124079000D02*
X111252000Y-124079000D01*
X111252000Y-124079000D02*
X110109000Y-122936000D01*
X110109000Y-122936000D02*
X109982000Y-122809000D01*
X109982000Y-120015000D02*
X110490000Y-119507000D01*
X109982000Y-122809000D02*
X109982000Y-120015000D01*
X114554000Y-118745000D02*
X111252000Y-122047000D01*
X126965000Y-118745000D02*
X114554000Y-118745000D01*
X111760000Y-117475000D02*
X111252000Y-116967000D01*
X126965000Y-117475000D02*
X111760000Y-117475000D01*
X110236000Y-129667000D02*
X108458000Y-127889000D01*
X108458000Y-127889000D02*
X108458000Y-118491000D01*
X109982000Y-116967000D02*
X111252000Y-116967000D01*
X108458000Y-118491000D02*
X109982000Y-116967000D01*
X146304000Y-118999000D02*
X146304000Y-107569000D01*
X146304000Y-118364000D02*
X146304000Y-118999000D01*
X146264510Y-118324510D02*
X146304000Y-118364000D01*
X143954510Y-118324510D02*
X146264510Y-118324510D01*
X143510000Y-117880000D02*
X143954510Y-118324510D01*
X143510000Y-116905000D02*
X143510000Y-117880000D01*
X146685000Y-119380000D02*
X146685000Y-123863090D01*
X146304000Y-118999000D02*
X146685000Y-119380000D01*
X140970000Y-118258589D02*
X140970000Y-116905000D01*
X141662784Y-118951373D02*
X140970000Y-118258589D01*
X147320000Y-112903000D02*
X147320000Y-97528427D01*
X147320000Y-97528427D02*
X147637502Y-97210925D01*
X138430000Y-115316000D02*
X138049000Y-114935000D01*
X138430000Y-116905000D02*
X138430000Y-115316000D01*
X138049000Y-114935000D02*
X137287000Y-114935000D01*
X135955000Y-121855000D02*
X135890000Y-121920000D01*
X137160000Y-121855000D02*
X135955000Y-121855000D01*
X132115000Y-123825000D02*
X134826145Y-123825000D01*
X134826145Y-123825000D02*
X135003956Y-123647189D01*
X140766811Y-123647189D02*
X135003956Y-123647189D01*
X140970000Y-123444000D02*
X140766811Y-123647189D01*
X140970000Y-121855000D02*
X140970000Y-123444000D01*
X135755341Y-125603000D02*
X135001000Y-125603000D01*
X147789908Y-125514098D02*
X135844243Y-125514098D01*
X135844243Y-125514098D02*
X135755341Y-125603000D01*
X149225000Y-124079006D02*
X147789908Y-125514098D01*
X142240000Y-121855000D02*
X142240000Y-123428963D01*
X142240000Y-123428963D02*
X142532090Y-123721053D01*
X140237434Y-119858566D02*
X140702827Y-119858566D01*
X139700000Y-120396000D02*
X140237434Y-119858566D01*
X139700000Y-121855000D02*
X139700000Y-120396000D01*
X143510000Y-121855000D02*
X143510000Y-124714000D01*
X147497294Y-124841000D02*
X147955000Y-124383294D01*
X143967174Y-124841000D02*
X147497294Y-124841000D01*
X147955000Y-124383294D02*
X147955000Y-122428000D01*
X143637000Y-124841000D02*
X143967174Y-124841000D01*
X143510000Y-124714000D02*
X143637000Y-124841000D01*
X143967174Y-124841000D02*
X144399000Y-124841000D01*
X135890000Y-124714000D02*
X143510000Y-124714000D01*
X135801099Y-124625099D02*
X135890000Y-124714000D01*
X134073901Y-124625099D02*
X135801099Y-124625099D01*
X133604000Y-125095000D02*
X134073901Y-124625099D01*
X132115000Y-125095000D02*
X133604000Y-125095000D01*
X142240000Y-116905000D02*
X142240000Y-114300000D01*
X142240000Y-114300000D02*
X142240000Y-113665000D01*
X142240000Y-113665000D02*
X142113000Y-113538000D01*
X141350996Y-111125000D02*
X141351000Y-111124996D01*
X132115000Y-111125000D02*
X141350996Y-111125000D01*
X140970000Y-102935000D02*
X140970000Y-105155996D01*
X132115000Y-117475000D02*
X134874000Y-117475000D01*
X135001000Y-117348000D02*
X134874000Y-117475000D01*
X135001000Y-113538000D02*
X135001000Y-117348000D01*
X135001000Y-109778294D02*
X135001000Y-109982000D01*
X139700000Y-107885000D02*
X139700000Y-109220000D01*
X139700000Y-109220000D02*
X138938000Y-109982000D01*
X138938000Y-109982000D02*
X135001000Y-109982000D01*
X138430000Y-119964704D02*
X138430000Y-121855000D01*
X136956296Y-118491000D02*
X138430000Y-119964704D01*
X136652000Y-118491000D02*
X136956296Y-118491000D01*
X135636000Y-117475000D02*
X136652000Y-118491000D01*
X134874000Y-117475000D02*
X135636000Y-117475000D01*
X144780000Y-114046000D02*
X144780000Y-116905000D01*
X143129000Y-112395000D02*
X144780000Y-114046000D01*
X143002000Y-112395000D02*
X143129000Y-112395000D01*
X141020296Y-112395000D02*
X143002000Y-112395000D01*
X132115000Y-112395000D02*
X141020296Y-112395000D01*
X143510000Y-102935000D02*
X143510000Y-105068823D01*
X143510000Y-105068823D02*
X143427257Y-105151566D01*
D26*
X117475000Y-105410000D02*
X118110000Y-106045000D01*
D28*
X124460000Y-104140000D02*
X126087500Y-104140000D01*
X126087500Y-101600000D02*
X125095000Y-101600000D01*
X124460000Y-102235000D02*
X124460000Y-104140000D01*
X125095000Y-101600000D02*
X124460000Y-102235000D01*
D26*
X121285000Y-101611969D02*
X121920001Y-102246970D01*
X121285000Y-101600000D02*
X121285000Y-101611969D01*
D28*
X126087492Y-96520008D02*
X126087500Y-96520000D01*
X124206000Y-96520008D02*
X126087492Y-96520008D01*
D26*
X121285000Y-105410000D02*
X121920000Y-106045000D01*
D28*
X126087500Y-99060000D02*
X126087500Y-99210500D01*
X126087500Y-99060000D02*
X124706494Y-99060000D01*
X124706494Y-99060000D02*
X124432242Y-99334252D01*
D26*
X118745000Y-101727000D02*
X119380000Y-102362000D01*
X118745000Y-101600000D02*
X118745000Y-101727000D01*
D28*
X126087500Y-93980000D02*
X125336297Y-93980000D01*
X122809000Y-93980000D02*
X125336297Y-93980000D01*
D26*
X120015000Y-105410000D02*
X119380000Y-104775000D01*
D28*
X126087500Y-88900000D02*
X124460000Y-88900000D01*
X124079000Y-89281000D02*
X124079000Y-90728813D01*
X124460000Y-88900000D02*
X124079000Y-89281000D01*
D26*
X120015000Y-101600000D02*
X120650000Y-100965000D01*
D28*
X124861881Y-91440000D02*
X124207898Y-92093983D01*
X126087500Y-91440000D02*
X124861881Y-91440000D01*
D26*
X118115949Y-104780949D02*
X118745000Y-105410000D01*
X118115949Y-104769049D02*
X118115949Y-104780949D01*
D28*
X126087500Y-86360000D02*
X124206000Y-86360000D01*
X139700000Y-116905000D02*
X139700000Y-118999000D01*
X132115000Y-118745000D02*
X135509000Y-118745000D01*
X135509000Y-118745000D02*
X136144000Y-119380000D01*
X139700000Y-116905000D02*
X139700000Y-113537978D01*
X136082000Y-107885000D02*
X136017000Y-107950000D01*
X137160000Y-107885000D02*
X136082000Y-107885000D01*
D26*
X107194242Y-82167588D02*
X107251502Y-83289881D01*
X107251501Y-91682770D01*
X102190087Y-96744185D01*
X102065667Y-96837500D01*
X98211550Y-96837500D01*
X98171000Y-96833506D01*
X98130449Y-96837500D01*
X98130447Y-96837500D01*
X98009174Y-96849444D01*
X97893089Y-96884658D01*
X97853566Y-96896647D01*
X97710157Y-96973301D01*
X97643506Y-97028000D01*
X96647000Y-97028000D01*
X96647000Y-96710359D01*
X96807413Y-96643913D01*
X96994620Y-96518826D01*
X97153826Y-96359620D01*
X97278913Y-96172413D01*
X97365075Y-95964401D01*
X97409000Y-95743576D01*
X97409000Y-95518424D01*
X97365075Y-95297599D01*
X97278913Y-95089587D01*
X97153826Y-94902380D01*
X96994620Y-94743174D01*
X96807413Y-94618087D01*
X96647000Y-94551641D01*
X96647000Y-94511028D01*
X96762772Y-94488000D01*
X97098854Y-94488000D01*
X97155000Y-94493530D01*
X97211146Y-94488000D01*
X97547228Y-94488000D01*
X97674923Y-94513400D01*
X97905077Y-94513400D01*
X98130810Y-94468499D01*
X98343445Y-94380422D01*
X98534811Y-94252555D01*
X98697555Y-94089811D01*
X98825422Y-93898445D01*
X98913499Y-93685810D01*
X98958400Y-93460077D01*
X98958400Y-93229923D01*
X98913499Y-93004190D01*
X98825422Y-92791555D01*
X98697555Y-92600189D01*
X98558336Y-92460970D01*
X98631185Y-92401185D01*
X98710537Y-92304494D01*
X98769502Y-92194180D01*
X98805812Y-92074482D01*
X98818072Y-91950000D01*
X98818072Y-90450000D01*
X98805812Y-90325518D01*
X98769502Y-90205820D01*
X98710537Y-90095506D01*
X98631185Y-89998815D01*
X98534494Y-89919463D01*
X98424180Y-89860498D01*
X98304482Y-89824188D01*
X98180000Y-89811928D01*
X96647000Y-89811928D01*
X96647000Y-87988072D01*
X98180000Y-87988072D01*
X98304482Y-87975812D01*
X98424180Y-87939502D01*
X98534494Y-87880537D01*
X98631185Y-87801185D01*
X98710537Y-87704494D01*
X98769502Y-87594180D01*
X98805812Y-87474482D01*
X98818072Y-87350000D01*
X98818072Y-85850000D01*
X98805812Y-85725518D01*
X98769502Y-85605820D01*
X98710537Y-85495506D01*
X98631185Y-85398815D01*
X98534494Y-85319463D01*
X98424180Y-85260498D01*
X98304482Y-85224188D01*
X98291593Y-85222919D01*
X98241103Y-85056477D01*
X98134968Y-84857911D01*
X97992133Y-84683867D01*
X97948517Y-84648072D01*
X97499889Y-84199444D01*
X97427555Y-84091189D01*
X97264811Y-83928445D01*
X97073445Y-83800578D01*
X96860810Y-83712501D01*
X96647000Y-83669972D01*
X96647000Y-82043503D01*
X107194242Y-82167588D01*
G04 #@! TA.AperFunction,Conductor*
D30*
G36*
X107194242Y-82167588D02*
G01*
X107251502Y-83289881D01*
X107251501Y-91682770D01*
X102190087Y-96744185D01*
X102065667Y-96837500D01*
X98211550Y-96837500D01*
X98171000Y-96833506D01*
X98130449Y-96837500D01*
X98130447Y-96837500D01*
X98009174Y-96849444D01*
X97893089Y-96884658D01*
X97853566Y-96896647D01*
X97710157Y-96973301D01*
X97643506Y-97028000D01*
X96647000Y-97028000D01*
X96647000Y-96710359D01*
X96807413Y-96643913D01*
X96994620Y-96518826D01*
X97153826Y-96359620D01*
X97278913Y-96172413D01*
X97365075Y-95964401D01*
X97409000Y-95743576D01*
X97409000Y-95518424D01*
X97365075Y-95297599D01*
X97278913Y-95089587D01*
X97153826Y-94902380D01*
X96994620Y-94743174D01*
X96807413Y-94618087D01*
X96647000Y-94551641D01*
X96647000Y-94511028D01*
X96762772Y-94488000D01*
X97098854Y-94488000D01*
X97155000Y-94493530D01*
X97211146Y-94488000D01*
X97547228Y-94488000D01*
X97674923Y-94513400D01*
X97905077Y-94513400D01*
X98130810Y-94468499D01*
X98343445Y-94380422D01*
X98534811Y-94252555D01*
X98697555Y-94089811D01*
X98825422Y-93898445D01*
X98913499Y-93685810D01*
X98958400Y-93460077D01*
X98958400Y-93229923D01*
X98913499Y-93004190D01*
X98825422Y-92791555D01*
X98697555Y-92600189D01*
X98558336Y-92460970D01*
X98631185Y-92401185D01*
X98710537Y-92304494D01*
X98769502Y-92194180D01*
X98805812Y-92074482D01*
X98818072Y-91950000D01*
X98818072Y-90450000D01*
X98805812Y-90325518D01*
X98769502Y-90205820D01*
X98710537Y-90095506D01*
X98631185Y-89998815D01*
X98534494Y-89919463D01*
X98424180Y-89860498D01*
X98304482Y-89824188D01*
X98180000Y-89811928D01*
X96647000Y-89811928D01*
X96647000Y-87988072D01*
X98180000Y-87988072D01*
X98304482Y-87975812D01*
X98424180Y-87939502D01*
X98534494Y-87880537D01*
X98631185Y-87801185D01*
X98710537Y-87704494D01*
X98769502Y-87594180D01*
X98805812Y-87474482D01*
X98818072Y-87350000D01*
X98818072Y-85850000D01*
X98805812Y-85725518D01*
X98769502Y-85605820D01*
X98710537Y-85495506D01*
X98631185Y-85398815D01*
X98534494Y-85319463D01*
X98424180Y-85260498D01*
X98304482Y-85224188D01*
X98291593Y-85222919D01*
X98241103Y-85056477D01*
X98134968Y-84857911D01*
X97992133Y-84683867D01*
X97948517Y-84648072D01*
X97499889Y-84199444D01*
X97427555Y-84091189D01*
X97264811Y-83928445D01*
X97073445Y-83800578D01*
X96860810Y-83712501D01*
X96647000Y-83669972D01*
X96647000Y-82043503D01*
X107194242Y-82167588D01*
G37*
G04 #@! TD.AperFunction*
M02*
