G04 start of page 3 for group 3 idx 1 *
G04 Title: RspPiPS, bottom *
G04 Creator: pcb 4.2.0 *
G04 CreationDate: Sun Jan 23 00:25:27 2022 UTC *
G04 For: debian *
G04 Format: Gerber/RS-274X *
G04 PCB-Dimensions (mil): 10000.00 10000.00 *
G04 PCB-Coordinate-Origin: lower left *
%MOIN*%
%FSLAX25Y25*%
%LNBOTTOM*%
%ADD57C,0.0380*%
%ADD56C,0.0453*%
%ADD55C,0.0354*%
%ADD54C,0.1181*%
%ADD53C,0.0402*%
%ADD52C,0.1063*%
%ADD51C,0.0200*%
%ADD50C,0.0350*%
%ADD49C,0.0600*%
%ADD48C,0.0768*%
%ADD47C,0.0800*%
%ADD46C,0.0630*%
%ADD45C,0.0620*%
%ADD44C,0.2362*%
%ADD43C,0.0787*%
%ADD42C,0.0500*%
%ADD41C,0.0360*%
%ADD40C,0.0250*%
%ADD39C,0.0450*%
%ADD38C,0.0400*%
%ADD37C,0.1000*%
%ADD36C,0.0150*%
%ADD35C,0.0001*%
G54D35*G36*
X191500Y772000D02*Y769982D01*
X191048Y769453D01*
X190678Y768849D01*
X190407Y768195D01*
X190242Y767506D01*
X190186Y766800D01*
X190242Y766094D01*
X190407Y765405D01*
X190678Y764751D01*
X191048Y764147D01*
X191500Y763618D01*
Y759982D01*
X191048Y759453D01*
X190678Y758849D01*
X190407Y758195D01*
X190242Y757506D01*
X190186Y756800D01*
X190242Y756094D01*
X190407Y755405D01*
X190678Y754751D01*
X191048Y754147D01*
X191508Y753608D01*
X192047Y753148D01*
X192651Y752778D01*
X193305Y752507D01*
X193994Y752342D01*
X194700Y752286D01*
X195000Y752310D01*
Y740500D01*
X184693D01*
Y752287D01*
X184700Y752286D01*
X185406Y752342D01*
X186095Y752507D01*
X186749Y752778D01*
X187353Y753148D01*
X187892Y753608D01*
X188352Y754147D01*
X188722Y754751D01*
X188993Y755405D01*
X189158Y756094D01*
X189200Y756800D01*
X189158Y757506D01*
X188993Y758195D01*
X188722Y758849D01*
X188352Y759453D01*
X187892Y759992D01*
X187353Y760452D01*
X186749Y760822D01*
X186095Y761093D01*
X185406Y761258D01*
X184700Y761314D01*
X184693Y761313D01*
Y772000D01*
X191500D01*
G37*
G36*
X184693Y740500D02*X174700D01*
Y752307D01*
X177935Y752314D01*
X178165Y752369D01*
X178383Y752459D01*
X178584Y752583D01*
X178764Y752736D01*
X178917Y752916D01*
X179041Y753117D01*
X179131Y753335D01*
X179186Y753565D01*
X179200Y753800D01*
X179186Y760035D01*
X179131Y760265D01*
X179041Y760483D01*
X178917Y760684D01*
X178764Y760864D01*
X178584Y761017D01*
X178383Y761141D01*
X178165Y761231D01*
X177935Y761286D01*
X177700Y761300D01*
X174700Y761293D01*
Y772000D01*
X184693D01*
Y761313D01*
X183994Y761258D01*
X183305Y761093D01*
X182651Y760822D01*
X182047Y760452D01*
X181508Y759992D01*
X181048Y759453D01*
X180678Y758849D01*
X180407Y758195D01*
X180242Y757506D01*
X180186Y756800D01*
X180242Y756094D01*
X180407Y755405D01*
X180678Y754751D01*
X181048Y754147D01*
X181508Y753608D01*
X182047Y753148D01*
X182651Y752778D01*
X183305Y752507D01*
X183994Y752342D01*
X184693Y752287D01*
Y740500D01*
G37*
G36*
X174700D02*X166000D01*
Y754408D01*
X166962Y755977D01*
X167733Y757840D01*
X168204Y759801D01*
X168323Y761811D01*
X168204Y763821D01*
X167733Y765782D01*
X166962Y767645D01*
X166000Y769214D01*
Y772000D01*
X174700D01*
Y761293D01*
X171465Y761286D01*
X171235Y761231D01*
X171017Y761141D01*
X170816Y761017D01*
X170636Y760864D01*
X170483Y760684D01*
X170359Y760483D01*
X170269Y760265D01*
X170214Y760035D01*
X170200Y759800D01*
X170214Y753565D01*
X170269Y753335D01*
X170359Y753117D01*
X170483Y752916D01*
X170636Y752736D01*
X170816Y752583D01*
X171017Y752459D01*
X171235Y752369D01*
X171465Y752314D01*
X171700Y752300D01*
X174700Y752307D01*
Y740500D01*
G37*
G36*
X467406Y772106D02*X467000Y741000D01*
Y661000D01*
X458458D01*
Y680857D01*
X458469Y680857D01*
X459552Y680942D01*
X460609Y681196D01*
X461613Y681612D01*
X462540Y682180D01*
X463366Y682885D01*
X464072Y683712D01*
X464640Y684639D01*
X465056Y685643D01*
X465310Y686700D01*
X465374Y687783D01*
X465310Y688867D01*
X465056Y689924D01*
X464640Y690928D01*
X464072Y691855D01*
X463366Y692681D01*
X462540Y693387D01*
X461613Y693955D01*
X460609Y694371D01*
X459552Y694625D01*
X458469Y694710D01*
X458458Y694709D01*
Y734794D01*
X458469Y734794D01*
X459552Y734879D01*
X460609Y735133D01*
X461613Y735549D01*
X462540Y736117D01*
X463366Y736822D01*
X464072Y737649D01*
X464640Y738576D01*
X465056Y739580D01*
X465310Y740637D01*
X465374Y741720D01*
X465310Y742804D01*
X465056Y743861D01*
X464640Y744865D01*
X464072Y745792D01*
X463366Y746618D01*
X462540Y747324D01*
X461613Y747892D01*
X460609Y748308D01*
X459552Y748562D01*
X458469Y748647D01*
X458458Y748646D01*
Y772097D01*
X467406Y772106D01*
G37*
G36*
X458458Y661000D02*X441461D01*
Y675167D01*
X442104Y675218D01*
X442732Y675368D01*
X443328Y675615D01*
X443878Y675952D01*
X444369Y676371D01*
X444788Y676862D01*
X445125Y677412D01*
X445372Y678009D01*
X445523Y678636D01*
X445561Y679280D01*
X445523Y679923D01*
X445372Y680550D01*
X445125Y681147D01*
X444788Y681697D01*
X444369Y682188D01*
X443878Y682607D01*
X443328Y682944D01*
X442732Y683191D01*
X442104Y683342D01*
X441461Y683392D01*
Y686978D01*
X442104Y687029D01*
X442732Y687179D01*
X443328Y687426D01*
X443878Y687763D01*
X444369Y688182D01*
X444788Y688673D01*
X445125Y689223D01*
X445372Y689820D01*
X445523Y690447D01*
X445561Y691091D01*
X445523Y691734D01*
X445372Y692361D01*
X445125Y692958D01*
X444788Y693508D01*
X444369Y693999D01*
X443878Y694418D01*
X443328Y694755D01*
X442732Y695002D01*
X442104Y695153D01*
X441461Y695203D01*
Y698789D01*
X442104Y698840D01*
X442732Y698990D01*
X443328Y699237D01*
X443878Y699574D01*
X444369Y699993D01*
X444788Y700484D01*
X445125Y701034D01*
X445372Y701631D01*
X445523Y702258D01*
X445561Y702902D01*
X445523Y703545D01*
X445372Y704172D01*
X445125Y704769D01*
X444788Y705319D01*
X444369Y705810D01*
X443878Y706229D01*
X443328Y706566D01*
X442732Y706813D01*
X442104Y706964D01*
X441461Y707014D01*
Y710600D01*
X442104Y710651D01*
X442732Y710801D01*
X443328Y711048D01*
X443878Y711385D01*
X444369Y711805D01*
X444788Y712295D01*
X445125Y712845D01*
X445372Y713442D01*
X445523Y714069D01*
X445561Y714713D01*
X445523Y715356D01*
X445372Y715983D01*
X445125Y716580D01*
X444788Y717130D01*
X444369Y717621D01*
X443878Y718040D01*
X443328Y718377D01*
X442732Y718624D01*
X442104Y718775D01*
X441461Y718825D01*
Y722411D01*
X442104Y722462D01*
X442732Y722612D01*
X443328Y722859D01*
X443878Y723196D01*
X444369Y723616D01*
X444788Y724106D01*
X445125Y724657D01*
X445372Y725253D01*
X445523Y725880D01*
X445561Y726524D01*
X445523Y727167D01*
X445372Y727794D01*
X445125Y728391D01*
X444788Y728941D01*
X444369Y729432D01*
X443878Y729851D01*
X443328Y730188D01*
X442732Y730435D01*
X442104Y730586D01*
X441461Y730636D01*
Y734222D01*
X442104Y734273D01*
X442732Y734423D01*
X443328Y734670D01*
X443878Y735007D01*
X444369Y735427D01*
X444788Y735917D01*
X445125Y736468D01*
X445372Y737064D01*
X445523Y737691D01*
X445561Y738335D01*
X445523Y738978D01*
X445372Y739606D01*
X445125Y740202D01*
X444788Y740752D01*
X444369Y741243D01*
X443878Y741662D01*
X443328Y741999D01*
X442732Y742246D01*
X442104Y742397D01*
X441461Y742447D01*
Y746050D01*
X444718Y746055D01*
X444871Y746092D01*
X445016Y746152D01*
X445150Y746234D01*
X445270Y746336D01*
X445372Y746456D01*
X445454Y746590D01*
X445515Y746736D01*
X445551Y746889D01*
X445561Y747046D01*
X445551Y753403D01*
X445515Y753556D01*
X445454Y753701D01*
X445372Y753835D01*
X445270Y753955D01*
X445150Y754057D01*
X445016Y754139D01*
X444871Y754200D01*
X444718Y754236D01*
X444561Y754246D01*
X441461Y754241D01*
Y772078D01*
X458458Y772097D01*
Y748646D01*
X457385Y748562D01*
X456328Y748308D01*
X455324Y747892D01*
X454397Y747324D01*
X453571Y746618D01*
X452865Y745792D01*
X452297Y744865D01*
X451881Y743861D01*
X451627Y742804D01*
X451542Y741720D01*
X451627Y740637D01*
X451881Y739580D01*
X452297Y738576D01*
X452865Y737649D01*
X453571Y736822D01*
X454397Y736117D01*
X455324Y735549D01*
X456328Y735133D01*
X457385Y734879D01*
X458458Y734794D01*
Y694709D01*
X457385Y694625D01*
X456328Y694371D01*
X455324Y693955D01*
X454397Y693387D01*
X453571Y692681D01*
X452865Y691855D01*
X452297Y690928D01*
X451881Y689924D01*
X451627Y688867D01*
X451542Y687783D01*
X451627Y686700D01*
X451881Y685643D01*
X452297Y684639D01*
X452865Y683712D01*
X453571Y682885D01*
X454397Y682180D01*
X455324Y681612D01*
X456328Y681196D01*
X457385Y680942D01*
X458458Y680857D01*
Y661000D01*
G37*
G36*
X441461Y707014D02*X440817Y706964D01*
X440190Y706813D01*
X440073Y706764D01*
X436995Y709842D01*
X436950Y709895D01*
X436740Y710074D01*
X436506Y710218D01*
X436251Y710323D01*
X435983Y710387D01*
X435983Y710387D01*
X435709Y710409D01*
X435640Y710404D01*
X433020D01*
Y712366D01*
X433314Y712845D01*
X433561Y713442D01*
X433712Y714069D01*
X433750Y714713D01*
X433712Y715356D01*
X433561Y715983D01*
X433314Y716580D01*
X433020Y717059D01*
Y724177D01*
X433314Y724657D01*
X433561Y725253D01*
X433712Y725880D01*
X433750Y726524D01*
X433712Y727167D01*
X433561Y727794D01*
X433314Y728391D01*
X433020Y728870D01*
Y736137D01*
X433076Y736168D01*
X433137Y736217D01*
X433190Y736275D01*
X433233Y736342D01*
X433405Y736679D01*
X433542Y737032D01*
X433645Y737396D01*
X433715Y737768D01*
X433750Y738145D01*
Y738524D01*
X433715Y738901D01*
X433645Y739273D01*
X433542Y739638D01*
X433405Y739991D01*
X433236Y740330D01*
X433193Y740396D01*
X433139Y740454D01*
X433077Y740504D01*
X433020Y740536D01*
Y747948D01*
X433076Y747980D01*
X433137Y748028D01*
X433190Y748086D01*
X433233Y748153D01*
X433405Y748490D01*
X433542Y748843D01*
X433645Y749207D01*
X433715Y749579D01*
X433750Y749956D01*
Y750335D01*
X433715Y750712D01*
X433645Y751084D01*
X433542Y751449D01*
X433405Y751802D01*
X433236Y752141D01*
X433193Y752207D01*
X433139Y752265D01*
X433077Y752315D01*
X433020Y752347D01*
Y772069D01*
X441461Y772078D01*
Y754241D01*
X438204Y754236D01*
X438051Y754200D01*
X437905Y754139D01*
X437771Y754057D01*
X437651Y753955D01*
X437549Y753835D01*
X437467Y753701D01*
X437407Y753556D01*
X437370Y753403D01*
X437361Y753246D01*
X437370Y746889D01*
X437407Y746736D01*
X437467Y746590D01*
X437549Y746456D01*
X437651Y746336D01*
X437771Y746234D01*
X437905Y746152D01*
X438051Y746092D01*
X438204Y746055D01*
X438361Y746046D01*
X441461Y746050D01*
Y742447D01*
X440817Y742397D01*
X440190Y742246D01*
X439594Y741999D01*
X439043Y741662D01*
X438553Y741243D01*
X438133Y740752D01*
X437796Y740202D01*
X437549Y739606D01*
X437399Y738978D01*
X437348Y738335D01*
X437399Y737691D01*
X437549Y737064D01*
X437796Y736468D01*
X438133Y735917D01*
X438553Y735427D01*
X439043Y735007D01*
X439594Y734670D01*
X440190Y734423D01*
X440817Y734273D01*
X441461Y734222D01*
Y730636D01*
X440817Y730586D01*
X440190Y730435D01*
X439594Y730188D01*
X439043Y729851D01*
X438553Y729432D01*
X438133Y728941D01*
X437796Y728391D01*
X437549Y727794D01*
X437399Y727167D01*
X437348Y726524D01*
X437399Y725880D01*
X437549Y725253D01*
X437796Y724657D01*
X438133Y724106D01*
X438553Y723616D01*
X439043Y723196D01*
X439594Y722859D01*
X440190Y722612D01*
X440817Y722462D01*
X441461Y722411D01*
Y718825D01*
X440817Y718775D01*
X440190Y718624D01*
X439594Y718377D01*
X439043Y718040D01*
X438553Y717621D01*
X438133Y717130D01*
X437796Y716580D01*
X437549Y715983D01*
X437399Y715356D01*
X437348Y714713D01*
X437399Y714069D01*
X437549Y713442D01*
X437796Y712845D01*
X438133Y712295D01*
X438553Y711805D01*
X439043Y711385D01*
X439594Y711048D01*
X440190Y710801D01*
X440817Y710651D01*
X441461Y710600D01*
Y707014D01*
G37*
G36*
X433020Y728870D02*X432977Y728941D01*
X432558Y729432D01*
X432067Y729851D01*
X431517Y730188D01*
X430920Y730435D01*
X430293Y730586D01*
X429651Y730636D01*
Y734235D01*
X429839D01*
X430216Y734270D01*
X430588Y734339D01*
X430953Y734443D01*
X431306Y734579D01*
X431645Y734748D01*
X431711Y734791D01*
X431769Y734845D01*
X431819Y734907D01*
X431857Y734976D01*
X431885Y735050D01*
X431901Y735128D01*
X431904Y735207D01*
X431895Y735286D01*
X431874Y735362D01*
X431841Y735434D01*
X431797Y735500D01*
X431743Y735558D01*
X431681Y735608D01*
X431612Y735646D01*
X431538Y735674D01*
X431460Y735690D01*
X431381Y735693D01*
X431302Y735684D01*
X431226Y735663D01*
X431155Y735628D01*
X430900Y735498D01*
X430634Y735395D01*
X430359Y735317D01*
X430077Y735264D01*
X429793Y735238D01*
X429651D01*
Y741431D01*
X429793D01*
X430077Y741405D01*
X430359Y741352D01*
X430634Y741274D01*
X430900Y741171D01*
X431157Y741044D01*
X431227Y741010D01*
X431303Y740989D01*
X431381Y740979D01*
X431460Y740983D01*
X431537Y740998D01*
X431611Y741026D01*
X431679Y741064D01*
X431741Y741113D01*
X431794Y741171D01*
X431838Y741237D01*
X431871Y741308D01*
X431892Y741384D01*
X431901Y741462D01*
X431897Y741541D01*
X431882Y741618D01*
X431854Y741692D01*
X431816Y741761D01*
X431767Y741822D01*
X431709Y741875D01*
X431643Y741918D01*
X431306Y742090D01*
X430953Y742227D01*
X430588Y742330D01*
X430216Y742400D01*
X429839Y742435D01*
X429651D01*
Y746046D01*
X429839D01*
X430216Y746081D01*
X430588Y746150D01*
X430953Y746254D01*
X431306Y746390D01*
X431645Y746559D01*
X431711Y746602D01*
X431769Y746656D01*
X431819Y746718D01*
X431857Y746787D01*
X431885Y746861D01*
X431901Y746939D01*
X431904Y747018D01*
X431895Y747097D01*
X431874Y747173D01*
X431841Y747245D01*
X431797Y747311D01*
X431743Y747369D01*
X431681Y747419D01*
X431612Y747457D01*
X431538Y747485D01*
X431460Y747501D01*
X431381Y747504D01*
X431302Y747495D01*
X431226Y747474D01*
X431155Y747439D01*
X430900Y747309D01*
X430634Y747206D01*
X430359Y747128D01*
X430077Y747075D01*
X429793Y747049D01*
X429651D01*
Y753242D01*
X429793D01*
X430077Y753216D01*
X430359Y753164D01*
X430634Y753085D01*
X430900Y752982D01*
X431157Y752855D01*
X431227Y752821D01*
X431303Y752800D01*
X431381Y752791D01*
X431460Y752794D01*
X431537Y752809D01*
X431611Y752837D01*
X431679Y752876D01*
X431741Y752924D01*
X431794Y752982D01*
X431838Y753048D01*
X431871Y753119D01*
X431892Y753195D01*
X431901Y753273D01*
X431897Y753352D01*
X431882Y753429D01*
X431854Y753503D01*
X431816Y753572D01*
X431767Y753633D01*
X431709Y753686D01*
X431643Y753729D01*
X431306Y753901D01*
X430953Y754038D01*
X430588Y754141D01*
X430216Y754211D01*
X429839Y754246D01*
X429651D01*
Y772065D01*
X433020Y772069D01*
Y752347D01*
X433008Y752353D01*
X432934Y752381D01*
X432856Y752397D01*
X432777Y752400D01*
X432699Y752391D01*
X432622Y752370D01*
X432550Y752337D01*
X432484Y752293D01*
X432426Y752239D01*
X432377Y752177D01*
X432338Y752108D01*
X432310Y752034D01*
X432294Y751956D01*
X432291Y751877D01*
X432300Y751799D01*
X432322Y751722D01*
X432356Y751651D01*
X432486Y751396D01*
X432589Y751130D01*
X432667Y750855D01*
X432720Y750573D01*
X432746Y750289D01*
Y750003D01*
X432720Y749718D01*
X432667Y749437D01*
X432589Y749162D01*
X432486Y748895D01*
X432359Y748639D01*
X432325Y748568D01*
X432303Y748492D01*
X432294Y748414D01*
X432298Y748335D01*
X432313Y748258D01*
X432341Y748184D01*
X432379Y748116D01*
X432428Y748054D01*
X432486Y748001D01*
X432552Y747957D01*
X432623Y747925D01*
X432699Y747904D01*
X432777Y747895D01*
X432856Y747898D01*
X432933Y747913D01*
X433007Y747941D01*
X433020Y747948D01*
Y740536D01*
X433008Y740542D01*
X432934Y740570D01*
X432856Y740586D01*
X432777Y740589D01*
X432699Y740580D01*
X432622Y740559D01*
X432550Y740526D01*
X432484Y740482D01*
X432426Y740428D01*
X432377Y740366D01*
X432338Y740297D01*
X432310Y740223D01*
X432294Y740145D01*
X432291Y740066D01*
X432300Y739988D01*
X432322Y739911D01*
X432356Y739840D01*
X432486Y739585D01*
X432589Y739319D01*
X432667Y739044D01*
X432720Y738762D01*
X432746Y738478D01*
Y738192D01*
X432720Y737907D01*
X432667Y737626D01*
X432589Y737351D01*
X432486Y737084D01*
X432359Y736828D01*
X432325Y736757D01*
X432303Y736681D01*
X432294Y736603D01*
X432298Y736524D01*
X432313Y736447D01*
X432341Y736373D01*
X432379Y736305D01*
X432428Y736243D01*
X432486Y736190D01*
X432552Y736146D01*
X432623Y736114D01*
X432699Y736093D01*
X432777Y736083D01*
X432856Y736087D01*
X432933Y736102D01*
X433007Y736130D01*
X433020Y736137D01*
Y728870D01*
G37*
G36*
Y717059D02*X432977Y717130D01*
X432558Y717621D01*
X432067Y718040D01*
X431517Y718377D01*
X430920Y718624D01*
X430293Y718775D01*
X429651Y718825D01*
Y722411D01*
X430293Y722462D01*
X430920Y722612D01*
X431517Y722859D01*
X432067Y723196D01*
X432558Y723616D01*
X432977Y724106D01*
X433020Y724177D01*
Y717059D01*
G37*
G36*
Y710404D02*X429651D01*
Y710600D01*
X430293Y710651D01*
X430920Y710801D01*
X431517Y711048D01*
X432067Y711385D01*
X432558Y711805D01*
X432977Y712295D01*
X433020Y712366D01*
Y710404D01*
G37*
G36*
X426279Y724177D02*X426322Y724106D01*
X426742Y723616D01*
X427232Y723196D01*
X427783Y722859D01*
X428379Y722612D01*
X429006Y722462D01*
X429650Y722411D01*
X429651Y722411D01*
Y718825D01*
X429650Y718825D01*
X429006Y718775D01*
X428379Y718624D01*
X427783Y718377D01*
X427232Y718040D01*
X426742Y717621D01*
X426322Y717130D01*
X426279Y717059D01*
Y724177D01*
G37*
G36*
Y772061D02*X429651Y772065D01*
Y754246D01*
X429460D01*
X429083Y754211D01*
X428711Y754141D01*
X428347Y754038D01*
X427994Y753901D01*
X427654Y753732D01*
X427588Y753689D01*
X427530Y753635D01*
X427481Y753573D01*
X427442Y753504D01*
X427414Y753430D01*
X427398Y753353D01*
X427395Y753273D01*
X427404Y753195D01*
X427426Y753118D01*
X427458Y753046D01*
X427502Y752980D01*
X427556Y752922D01*
X427618Y752873D01*
X427687Y752834D01*
X427761Y752806D01*
X427839Y752791D01*
X427918Y752787D01*
X427997Y752796D01*
X428073Y752818D01*
X428144Y752852D01*
X428399Y752982D01*
X428666Y753085D01*
X428941Y753164D01*
X429222Y753216D01*
X429507Y753242D01*
X429651D01*
Y747049D01*
X429507D01*
X429222Y747075D01*
X428941Y747128D01*
X428666Y747206D01*
X428399Y747309D01*
X428143Y747437D01*
X428072Y747471D01*
X427996Y747492D01*
X427918Y747501D01*
X427839Y747498D01*
X427762Y747482D01*
X427688Y747454D01*
X427620Y747416D01*
X427558Y747367D01*
X427505Y747309D01*
X427461Y747243D01*
X427429Y747172D01*
X427407Y747096D01*
X427398Y747018D01*
X427402Y746939D01*
X427417Y746862D01*
X427445Y746788D01*
X427483Y746720D01*
X427532Y746658D01*
X427590Y746605D01*
X427657Y746563D01*
X427994Y746390D01*
X428347Y746254D01*
X428711Y746150D01*
X429083Y746081D01*
X429460Y746046D01*
X429651D01*
Y742435D01*
X429460D01*
X429083Y742400D01*
X428711Y742330D01*
X428347Y742227D01*
X427994Y742090D01*
X427654Y741921D01*
X427588Y741878D01*
X427530Y741824D01*
X427481Y741762D01*
X427442Y741693D01*
X427414Y741619D01*
X427398Y741541D01*
X427395Y741462D01*
X427404Y741384D01*
X427426Y741307D01*
X427458Y741235D01*
X427502Y741169D01*
X427556Y741111D01*
X427618Y741062D01*
X427687Y741023D01*
X427761Y740995D01*
X427839Y740980D01*
X427918Y740976D01*
X427997Y740985D01*
X428073Y741007D01*
X428144Y741041D01*
X428399Y741171D01*
X428666Y741274D01*
X428941Y741352D01*
X429222Y741405D01*
X429507Y741431D01*
X429651D01*
Y735238D01*
X429507D01*
X429222Y735264D01*
X428941Y735317D01*
X428666Y735395D01*
X428399Y735498D01*
X428143Y735626D01*
X428072Y735660D01*
X427996Y735681D01*
X427918Y735690D01*
X427839Y735686D01*
X427762Y735671D01*
X427688Y735643D01*
X427620Y735605D01*
X427558Y735556D01*
X427505Y735498D01*
X427461Y735432D01*
X427429Y735361D01*
X427407Y735285D01*
X427398Y735207D01*
X427402Y735128D01*
X427417Y735051D01*
X427445Y734977D01*
X427483Y734909D01*
X427532Y734847D01*
X427590Y734794D01*
X427657Y734752D01*
X427994Y734579D01*
X428347Y734443D01*
X428711Y734339D01*
X429083Y734270D01*
X429460Y734235D01*
X429651D01*
Y730636D01*
X429650Y730636D01*
X429006Y730586D01*
X428379Y730435D01*
X427783Y730188D01*
X427232Y729851D01*
X426742Y729432D01*
X426322Y728941D01*
X426279Y728870D01*
Y736134D01*
X426291Y736127D01*
X426365Y736099D01*
X426443Y736084D01*
X426522Y736080D01*
X426601Y736089D01*
X426677Y736111D01*
X426749Y736144D01*
X426815Y736187D01*
X426873Y736241D01*
X426923Y736303D01*
X426961Y736372D01*
X426989Y736446D01*
X427005Y736524D01*
X427008Y736603D01*
X426999Y736682D01*
X426978Y736758D01*
X426943Y736829D01*
X426813Y737084D01*
X426710Y737351D01*
X426632Y737626D01*
X426579Y737907D01*
X426553Y738192D01*
Y738478D01*
X426579Y738762D01*
X426632Y739044D01*
X426710Y739319D01*
X426813Y739585D01*
X426941Y739842D01*
X426975Y739912D01*
X426996Y739988D01*
X427005Y740066D01*
X427001Y740145D01*
X426986Y740222D01*
X426958Y740296D01*
X426920Y740364D01*
X426871Y740426D01*
X426813Y740479D01*
X426747Y740523D01*
X426676Y740556D01*
X426600Y740577D01*
X426522Y740586D01*
X426443Y740582D01*
X426366Y740567D01*
X426292Y740539D01*
X426279Y740532D01*
Y747945D01*
X426291Y747938D01*
X426365Y747910D01*
X426443Y747895D01*
X426522Y747891D01*
X426601Y747900D01*
X426677Y747922D01*
X426749Y747955D01*
X426815Y747998D01*
X426873Y748052D01*
X426923Y748114D01*
X426961Y748183D01*
X426989Y748257D01*
X427005Y748335D01*
X427008Y748414D01*
X426999Y748493D01*
X426978Y748569D01*
X426943Y748640D01*
X426813Y748895D01*
X426710Y749162D01*
X426632Y749437D01*
X426579Y749718D01*
X426553Y750003D01*
Y750289D01*
X426579Y750573D01*
X426632Y750855D01*
X426710Y751130D01*
X426813Y751396D01*
X426941Y751653D01*
X426975Y751723D01*
X426996Y751799D01*
X427005Y751877D01*
X427001Y751956D01*
X426986Y752033D01*
X426958Y752107D01*
X426920Y752175D01*
X426871Y752237D01*
X426813Y752290D01*
X426747Y752334D01*
X426676Y752367D01*
X426600Y752388D01*
X426522Y752397D01*
X426443Y752394D01*
X426366Y752378D01*
X426292Y752350D01*
X426279Y752343D01*
Y772061D01*
G37*
G36*
X429651Y710404D02*X427020D01*
X426279Y711145D01*
Y712366D01*
X426322Y712295D01*
X426742Y711805D01*
X427232Y711385D01*
X427783Y711048D01*
X428379Y710801D01*
X429006Y710651D01*
X429650Y710600D01*
X429651Y710600D01*
Y710404D01*
G37*
G36*
X426279Y711145D02*X423954Y713470D01*
Y772059D01*
X426279Y772061D01*
Y752343D01*
X426224Y752312D01*
X426162Y752263D01*
X426109Y752205D01*
X426067Y752139D01*
X425894Y751802D01*
X425758Y751449D01*
X425654Y751084D01*
X425585Y750712D01*
X425550Y750335D01*
Y749956D01*
X425585Y749579D01*
X425654Y749207D01*
X425758Y748843D01*
X425894Y748490D01*
X426063Y748151D01*
X426106Y748084D01*
X426160Y748026D01*
X426222Y747977D01*
X426279Y747945D01*
Y740532D01*
X426224Y740501D01*
X426162Y740452D01*
X426109Y740394D01*
X426067Y740328D01*
X425894Y739991D01*
X425758Y739638D01*
X425654Y739273D01*
X425585Y738901D01*
X425550Y738524D01*
Y738145D01*
X425585Y737768D01*
X425654Y737396D01*
X425758Y737032D01*
X425894Y736679D01*
X426063Y736340D01*
X426106Y736273D01*
X426160Y736215D01*
X426222Y736166D01*
X426279Y736134D01*
Y728870D01*
X425985Y728391D01*
X425738Y727794D01*
X425588Y727167D01*
X425537Y726524D01*
X425588Y725880D01*
X425738Y725253D01*
X425985Y724657D01*
X426279Y724177D01*
Y717059D01*
X425985Y716580D01*
X425738Y715983D01*
X425588Y715356D01*
X425537Y714713D01*
X425588Y714069D01*
X425738Y713442D01*
X425985Y712845D01*
X426279Y712366D01*
Y711145D01*
G37*
G36*
X441461Y661000D02*X429643D01*
Y675167D01*
X429650Y675167D01*
X430293Y675218D01*
X430920Y675368D01*
X431517Y675615D01*
X432067Y675952D01*
X432558Y676371D01*
X432977Y676862D01*
X433314Y677412D01*
X433561Y678009D01*
X433712Y678636D01*
X433750Y679280D01*
X433712Y679923D01*
X433561Y680550D01*
X433314Y681147D01*
X432977Y681697D01*
X432558Y682188D01*
X432067Y682607D01*
X431517Y682944D01*
X430920Y683191D01*
X430293Y683342D01*
X429650Y683392D01*
X429643Y683392D01*
Y686978D01*
X429650Y686978D01*
X430293Y687029D01*
X430920Y687179D01*
X431517Y687426D01*
X432067Y687763D01*
X432558Y688182D01*
X432977Y688673D01*
X433314Y689223D01*
X433561Y689820D01*
X433712Y690447D01*
X433750Y691091D01*
X433712Y691734D01*
X433561Y692361D01*
X433314Y692958D01*
X432977Y693508D01*
X432558Y693999D01*
X432067Y694418D01*
X431517Y694755D01*
X430920Y695002D01*
X430293Y695153D01*
X429650Y695203D01*
X429643Y695203D01*
Y698789D01*
X429650Y698789D01*
X430293Y698840D01*
X430920Y698990D01*
X431517Y699237D01*
X432067Y699574D01*
X432558Y699993D01*
X432977Y700484D01*
X433314Y701034D01*
X433561Y701631D01*
X433712Y702258D01*
X433750Y702902D01*
X433712Y703545D01*
X433561Y704172D01*
X433314Y704769D01*
X432977Y705319D01*
X432558Y705810D01*
X432067Y706229D01*
X431517Y706566D01*
X430920Y706813D01*
X430543Y706904D01*
X434984D01*
X437598Y704290D01*
X437549Y704172D01*
X437399Y703545D01*
X437348Y702902D01*
X437399Y702258D01*
X437549Y701631D01*
X437796Y701034D01*
X438133Y700484D01*
X438553Y699993D01*
X439043Y699574D01*
X439594Y699237D01*
X440190Y698990D01*
X440817Y698840D01*
X441461Y698789D01*
Y695203D01*
X440817Y695153D01*
X440190Y695002D01*
X439594Y694755D01*
X439043Y694418D01*
X438553Y693999D01*
X438133Y693508D01*
X437796Y692958D01*
X437549Y692361D01*
X437399Y691734D01*
X437348Y691091D01*
X437399Y690447D01*
X437549Y689820D01*
X437796Y689223D01*
X438133Y688673D01*
X438553Y688182D01*
X439043Y687763D01*
X439594Y687426D01*
X440190Y687179D01*
X440817Y687029D01*
X441461Y686978D01*
Y683392D01*
X440817Y683342D01*
X440190Y683191D01*
X439594Y682944D01*
X439043Y682607D01*
X438553Y682188D01*
X438133Y681697D01*
X437796Y681147D01*
X437549Y680550D01*
X437399Y679923D01*
X437348Y679280D01*
X437399Y678636D01*
X437549Y678009D01*
X437796Y677412D01*
X438133Y676862D01*
X438553Y676371D01*
X439043Y675952D01*
X439594Y675615D01*
X440190Y675368D01*
X440817Y675218D01*
X441461Y675167D01*
Y661000D01*
G37*
G36*
X429643D02*X423954D01*
Y708520D01*
X425009Y707465D01*
X425054Y707412D01*
X425263Y707233D01*
X425498Y707089D01*
X425753Y706984D01*
X426021Y706920D01*
X426021Y706920D01*
X426295Y706898D01*
X426364Y706904D01*
X428756D01*
X428379Y706813D01*
X427783Y706566D01*
X427232Y706229D01*
X426742Y705810D01*
X426322Y705319D01*
X425985Y704769D01*
X425738Y704172D01*
X425588Y703545D01*
X425537Y702902D01*
X425588Y702258D01*
X425738Y701631D01*
X425985Y701034D01*
X426322Y700484D01*
X426742Y699993D01*
X427232Y699574D01*
X427783Y699237D01*
X428379Y698990D01*
X429006Y698840D01*
X429643Y698789D01*
Y695203D01*
X429006Y695153D01*
X428379Y695002D01*
X427783Y694755D01*
X427232Y694418D01*
X426742Y693999D01*
X426322Y693508D01*
X425985Y692958D01*
X425738Y692361D01*
X425588Y691734D01*
X425537Y691091D01*
X425588Y690447D01*
X425738Y689820D01*
X425985Y689223D01*
X426322Y688673D01*
X426742Y688182D01*
X427232Y687763D01*
X427783Y687426D01*
X428379Y687179D01*
X429006Y687029D01*
X429643Y686978D01*
Y683392D01*
X429006Y683342D01*
X428379Y683191D01*
X427783Y682944D01*
X427232Y682607D01*
X426742Y682188D01*
X426322Y681697D01*
X425985Y681147D01*
X425738Y680550D01*
X425588Y679923D01*
X425537Y679280D01*
X425588Y678636D01*
X425738Y678009D01*
X425985Y677412D01*
X426322Y676862D01*
X426742Y676371D01*
X427232Y675952D01*
X427783Y675615D01*
X428379Y675368D01*
X429006Y675218D01*
X429643Y675167D01*
Y661000D01*
G37*
G36*
X408873Y772042D02*X423954Y772059D01*
Y713470D01*
X423577Y713847D01*
Y717868D01*
X423582Y717937D01*
X423561Y718211D01*
X423561Y718212D01*
X423496Y718479D01*
X423391Y718734D01*
X423247Y718969D01*
X423068Y719178D01*
X423016Y719223D01*
X419435Y722803D01*
X419454Y723110D01*
X419428Y723550D01*
X419325Y723978D01*
X419156Y724385D01*
X418926Y724761D01*
X418640Y725096D01*
X418304Y725382D01*
X417929Y725613D01*
X417521Y725781D01*
X417093Y725884D01*
X416654Y725919D01*
X416214Y725884D01*
X415786Y725781D01*
X415378Y725613D01*
X415003Y725382D01*
X414668Y725096D01*
X414466Y724860D01*
X410246D01*
X410242Y727125D01*
X410205Y727278D01*
X410145Y727423D01*
X410063Y727557D01*
X409960Y727677D01*
X409841Y727779D01*
X409707Y727862D01*
X409561Y727922D01*
X409408Y727958D01*
X409251Y727968D01*
X408873Y727967D01*
Y734639D01*
X409408Y734640D01*
X409561Y734676D01*
X409707Y734737D01*
X409841Y734819D01*
X409960Y734921D01*
X410063Y735041D01*
X410145Y735175D01*
X410205Y735320D01*
X410242Y735473D01*
X410251Y735630D01*
X410248Y737226D01*
X410411D01*
X410612Y736990D01*
X410948Y736704D01*
X411323Y736474D01*
X411731Y736305D01*
X412159Y736202D01*
X412598Y736168D01*
X413038Y736202D01*
X413466Y736305D01*
X413874Y736474D01*
X414249Y736704D01*
X414584Y736990D01*
X414871Y737326D01*
X415101Y737701D01*
X415270Y738108D01*
X415372Y738537D01*
X415398Y738976D01*
X415372Y739416D01*
X415270Y739844D01*
X415101Y740251D01*
X414871Y740627D01*
X414584Y740962D01*
X414249Y741249D01*
X413874Y741479D01*
X413737Y741535D01*
X413874Y741592D01*
X414249Y741822D01*
X414584Y742108D01*
X414871Y742444D01*
X415101Y742819D01*
X415270Y743227D01*
X415372Y743655D01*
X415398Y744094D01*
X415372Y744534D01*
X415270Y744962D01*
X415101Y745370D01*
X414871Y745745D01*
X414584Y746080D01*
X414249Y746367D01*
X413874Y746597D01*
X413466Y746766D01*
X413038Y746869D01*
X412598Y746903D01*
X412159Y746869D01*
X411731Y746766D01*
X411323Y746597D01*
X410948Y746367D01*
X410612Y746080D01*
X410411Y745844D01*
X410246D01*
X410242Y747991D01*
X410205Y748144D01*
X410145Y748290D01*
X410063Y748424D01*
X409960Y748544D01*
X409841Y748646D01*
X409707Y748728D01*
X409561Y748788D01*
X409408Y748825D01*
X409251Y748834D01*
X408873Y748834D01*
Y772042D01*
G37*
G36*
X423954Y661000D02*X422000D01*
Y608612D01*
X414029Y608607D01*
X413876Y608570D01*
X413731Y608510D01*
X413597Y608428D01*
X413477Y608325D01*
X413375Y608206D01*
X413292Y608072D01*
X413232Y607926D01*
X413195Y607773D01*
X413186Y607616D01*
X413195Y588959D01*
X413232Y588806D01*
X413292Y588661D01*
X413375Y588527D01*
X413477Y588407D01*
X413597Y588305D01*
X413731Y588222D01*
X413876Y588162D01*
X414029Y588125D01*
X414186Y588116D01*
X422000Y588121D01*
Y584000D01*
X408873D01*
Y644942D01*
X409126Y645047D01*
X409683Y645388D01*
X410179Y645813D01*
X410604Y646309D01*
X410945Y646866D01*
X411195Y647470D01*
X411347Y648105D01*
X411386Y648756D01*
X411347Y649407D01*
X411195Y650042D01*
X410945Y650646D01*
X410604Y651203D01*
X410179Y651699D01*
X409683Y652123D01*
X409126Y652465D01*
X408873Y652569D01*
Y713772D01*
X409408Y713773D01*
X409561Y713810D01*
X409707Y713870D01*
X409841Y713952D01*
X409960Y714054D01*
X410063Y714174D01*
X410145Y714308D01*
X410205Y714454D01*
X410242Y714607D01*
X410251Y714764D01*
X410248Y716360D01*
X412773D01*
X412975Y716124D01*
X413310Y715838D01*
X413686Y715608D01*
X414093Y715439D01*
X414521Y715336D01*
X414961Y715302D01*
X415400Y715336D01*
X415829Y715439D01*
X416236Y715608D01*
X416612Y715838D01*
X416947Y716124D01*
X417233Y716459D01*
X417463Y716835D01*
X417632Y717242D01*
X417735Y717671D01*
X417761Y718110D01*
X417735Y718550D01*
X417632Y718978D01*
X417463Y719385D01*
X417233Y719761D01*
X416947Y720096D01*
X416702Y720305D01*
X416963Y720326D01*
X420077Y717212D01*
Y713191D01*
X420071Y713122D01*
X420093Y712848D01*
X420093Y712847D01*
X420157Y712580D01*
X420263Y712325D01*
X420407Y712090D01*
X420586Y711881D01*
X420638Y711836D01*
X423954Y708520D01*
Y661000D01*
G37*
G36*
X408873Y584000D02*X394230D01*
Y613891D01*
X394736Y613851D01*
X395521Y613912D01*
X396286Y614096D01*
X397013Y614397D01*
X397684Y614809D01*
X398283Y615320D01*
X398794Y615918D01*
X399205Y616589D01*
X399506Y617316D01*
X399690Y618082D01*
X399736Y618866D01*
X399690Y619651D01*
X399506Y620416D01*
X399205Y621143D01*
X398794Y621814D01*
X398283Y622413D01*
X397684Y622924D01*
X397013Y623335D01*
X396286Y623636D01*
X395521Y623820D01*
X394736Y623882D01*
X394230Y623842D01*
Y685940D01*
X394271Y685955D01*
X394340Y685994D01*
X394402Y686043D01*
X394455Y686101D01*
X394498Y686166D01*
X394530Y686238D01*
X394606Y686471D01*
X394660Y686711D01*
X394692Y686955D01*
X394703Y687200D01*
X394692Y687445D01*
X394660Y687689D01*
X394606Y687929D01*
X394532Y688163D01*
X394500Y688235D01*
X394456Y688300D01*
X394403Y688359D01*
X394341Y688408D01*
X394272Y688446D01*
X394230Y688462D01*
Y699050D01*
X394873D01*
X395000Y699040D01*
X395510Y699080D01*
X396007Y699200D01*
X396480Y699395D01*
X396916Y699663D01*
X397305Y699995D01*
X397388Y700092D01*
X399498Y702202D01*
X399837Y702584D01*
X400105Y703020D01*
X400300Y703493D01*
X400420Y703990D01*
X400460Y704500D01*
X400420Y705010D01*
X400300Y705507D01*
X400105Y705980D01*
X399837Y706416D01*
X399505Y706805D01*
X399116Y707137D01*
X398680Y707405D01*
X398207Y707600D01*
X397710Y707720D01*
X397200Y707760D01*
X396690Y707720D01*
X396193Y707600D01*
X395720Y707405D01*
X395284Y707137D01*
X394902Y706798D01*
X394230Y706126D01*
Y706914D01*
X394298Y706928D01*
X394371Y706955D01*
X394440Y706994D01*
X394502Y707043D01*
X394555Y707101D01*
X394598Y707166D01*
X394630Y707238D01*
X394706Y707471D01*
X394760Y707711D01*
X394792Y707955D01*
X394803Y708200D01*
X394792Y708445D01*
X394760Y708689D01*
X394706Y708929D01*
X394632Y709163D01*
X394600Y709235D01*
X394556Y709300D01*
X394503Y709359D01*
X394441Y709408D01*
X394372Y709446D01*
X394298Y709474D01*
X394230Y709488D01*
Y721906D01*
X394303Y722025D01*
X394471Y722432D01*
X394574Y722861D01*
X394600Y723300D01*
X394574Y723739D01*
X394471Y724168D01*
X394303Y724575D01*
X394230Y724694D01*
Y727714D01*
X394298Y727728D01*
X394371Y727755D01*
X394440Y727794D01*
X394502Y727843D01*
X394555Y727901D01*
X394598Y727966D01*
X394630Y728038D01*
X394706Y728271D01*
X394760Y728511D01*
X394792Y728755D01*
X394803Y729000D01*
X394792Y729245D01*
X394760Y729489D01*
X394706Y729729D01*
X394632Y729963D01*
X394600Y730035D01*
X394556Y730100D01*
X394503Y730159D01*
X394441Y730208D01*
X394372Y730246D01*
X394298Y730274D01*
X394230Y730288D01*
Y742306D01*
X394303Y742425D01*
X394471Y742832D01*
X394574Y743261D01*
X394600Y743700D01*
X394574Y744139D01*
X394471Y744568D01*
X394303Y744975D01*
X394230Y745094D01*
Y754229D01*
X394255Y754258D01*
X395308Y755977D01*
X396080Y757840D01*
X396551Y759801D01*
X396669Y761811D01*
X396551Y763821D01*
X396080Y765782D01*
X395308Y767645D01*
X394255Y769364D01*
X394230Y769393D01*
Y772026D01*
X408873Y772042D01*
Y748834D01*
X403190Y748825D01*
X403037Y748788D01*
X402892Y748728D01*
X402758Y748646D01*
X402638Y748544D01*
X402536Y748424D01*
X402453Y748290D01*
X402393Y748144D01*
X402356Y747991D01*
X402347Y747834D01*
X402356Y742559D01*
X402393Y742406D01*
X402453Y742261D01*
X402536Y742127D01*
X402638Y742007D01*
X402758Y741905D01*
X402892Y741823D01*
X403037Y741762D01*
X403162Y741732D01*
X403037Y741702D01*
X402892Y741642D01*
X402758Y741560D01*
X402638Y741458D01*
X402536Y741338D01*
X402453Y741204D01*
X402393Y741058D01*
X402356Y740905D01*
X402347Y740748D01*
X402356Y735473D01*
X402393Y735320D01*
X402453Y735175D01*
X402536Y735041D01*
X402638Y734921D01*
X402758Y734819D01*
X402892Y734737D01*
X403037Y734676D01*
X403190Y734640D01*
X403347Y734630D01*
X408873Y734639D01*
Y727967D01*
X403190Y727958D01*
X403037Y727922D01*
X402892Y727862D01*
X402758Y727779D01*
X402638Y727677D01*
X402536Y727557D01*
X402453Y727423D01*
X402393Y727278D01*
X402356Y727125D01*
X402347Y726968D01*
X402356Y721693D01*
X402393Y721540D01*
X402453Y721394D01*
X402536Y721260D01*
X402638Y721140D01*
X402758Y721038D01*
X402892Y720956D01*
X403037Y720896D01*
X403162Y720866D01*
X403037Y720836D01*
X402892Y720776D01*
X402758Y720693D01*
X402638Y720591D01*
X402536Y720471D01*
X402453Y720337D01*
X402393Y720192D01*
X402356Y720039D01*
X402347Y719882D01*
X402356Y714607D01*
X402393Y714454D01*
X402453Y714308D01*
X402536Y714174D01*
X402638Y714054D01*
X402758Y713952D01*
X402892Y713870D01*
X403037Y713810D01*
X403190Y713773D01*
X403347Y713764D01*
X408873Y713772D01*
Y652569D01*
X408522Y652715D01*
X407887Y652867D01*
X407236Y652918D01*
X406585Y652867D01*
X405950Y652715D01*
X405347Y652465D01*
X404790Y652123D01*
X404293Y651699D01*
X403869Y651203D01*
X403527Y650646D01*
X403278Y650042D01*
X403125Y649407D01*
X403074Y648756D01*
X403125Y648105D01*
X403278Y647470D01*
X403527Y646866D01*
X403869Y646309D01*
X404293Y645813D01*
X404790Y645388D01*
X405347Y645047D01*
X405950Y644797D01*
X406585Y644645D01*
X407236Y644594D01*
X407887Y644645D01*
X408522Y644797D01*
X408873Y644942D01*
Y584000D01*
G37*
G36*
X394230Y769393D02*X392945Y770898D01*
X392001Y771704D01*
Y772024D01*
X394230Y772026D01*
Y769393D01*
G37*
G36*
Y745094D02*X394072Y745351D01*
X393786Y745686D01*
X393451Y745972D01*
X393075Y746203D01*
X392668Y746371D01*
X392239Y746474D01*
X392001Y746493D01*
Y751918D01*
X392945Y752724D01*
X394230Y754229D01*
Y745094D01*
G37*
G36*
Y724694D02*X394072Y724951D01*
X393786Y725286D01*
X393451Y725572D01*
X393075Y725803D01*
X392668Y725971D01*
X392239Y726074D01*
X392001Y726093D01*
Y726197D01*
X392245Y726208D01*
X392489Y726240D01*
X392729Y726294D01*
X392963Y726368D01*
X393035Y726400D01*
X393100Y726444D01*
X393159Y726497D01*
X393208Y726559D01*
X393246Y726628D01*
X393274Y726702D01*
X393290Y726779D01*
X393293Y726858D01*
X393284Y726937D01*
X393263Y727013D01*
X393230Y727085D01*
X393186Y727150D01*
X393133Y727209D01*
X393071Y727258D01*
X393002Y727296D01*
X392928Y727324D01*
X392851Y727340D01*
X392772Y727343D01*
X392693Y727334D01*
X392618Y727311D01*
X392468Y727262D01*
X392314Y727228D01*
X392158Y727207D01*
X392001Y727200D01*
Y730800D01*
X392158Y730793D01*
X392314Y730772D01*
X392468Y730738D01*
X392618Y730690D01*
X392694Y730668D01*
X392772Y730659D01*
X392850Y730662D01*
X392927Y730678D01*
X393001Y730705D01*
X393070Y730744D01*
X393131Y730793D01*
X393185Y730851D01*
X393228Y730916D01*
X393261Y730988D01*
X393282Y731064D01*
X393291Y731142D01*
X393288Y731220D01*
X393272Y731298D01*
X393245Y731371D01*
X393206Y731440D01*
X393157Y731502D01*
X393099Y731555D01*
X393034Y731598D01*
X392962Y731630D01*
X392729Y731706D01*
X392489Y731760D01*
X392245Y731792D01*
X392001Y731803D01*
Y740907D01*
X392239Y740926D01*
X392668Y741029D01*
X393075Y741197D01*
X393451Y741428D01*
X393786Y741714D01*
X394072Y742049D01*
X394230Y742306D01*
Y730288D01*
X394221Y730290D01*
X394142Y730293D01*
X394063Y730284D01*
X393987Y730263D01*
X393915Y730230D01*
X393850Y730186D01*
X393791Y730133D01*
X393742Y730071D01*
X393704Y730002D01*
X393676Y729928D01*
X393660Y729851D01*
X393657Y729772D01*
X393666Y729693D01*
X393689Y729618D01*
X393738Y729468D01*
X393772Y729314D01*
X393793Y729158D01*
X393800Y729000D01*
X393793Y728842D01*
X393772Y728686D01*
X393738Y728532D01*
X393690Y728382D01*
X393668Y728306D01*
X393659Y728228D01*
X393662Y728150D01*
X393678Y728073D01*
X393705Y727999D01*
X393744Y727930D01*
X393793Y727869D01*
X393851Y727815D01*
X393916Y727772D01*
X393988Y727739D01*
X394064Y727718D01*
X394142Y727709D01*
X394220Y727712D01*
X394230Y727714D01*
Y724694D01*
G37*
G36*
Y706126D02*X393654Y705550D01*
X392906D01*
X392963Y705568D01*
X393035Y705600D01*
X393100Y705644D01*
X393159Y705697D01*
X393208Y705759D01*
X393246Y705828D01*
X393274Y705902D01*
X393290Y705979D01*
X393293Y706058D01*
X393284Y706137D01*
X393263Y706213D01*
X393230Y706285D01*
X393186Y706350D01*
X393133Y706409D01*
X393071Y706458D01*
X393002Y706496D01*
X392928Y706524D01*
X392851Y706540D01*
X392772Y706543D01*
X392693Y706534D01*
X392618Y706511D01*
X392468Y706462D01*
X392314Y706428D01*
X392158Y706407D01*
X392001Y706400D01*
Y710000D01*
X392158Y709993D01*
X392314Y709972D01*
X392468Y709938D01*
X392618Y709890D01*
X392694Y709868D01*
X392772Y709859D01*
X392850Y709862D01*
X392927Y709878D01*
X393001Y709905D01*
X393070Y709944D01*
X393131Y709993D01*
X393185Y710051D01*
X393228Y710116D01*
X393261Y710188D01*
X393282Y710264D01*
X393291Y710342D01*
X393288Y710420D01*
X393272Y710498D01*
X393245Y710571D01*
X393206Y710640D01*
X393157Y710702D01*
X393099Y710755D01*
X393034Y710798D01*
X392962Y710830D01*
X392729Y710906D01*
X392489Y710960D01*
X392245Y710992D01*
X392001Y711003D01*
Y720507D01*
X392239Y720526D01*
X392668Y720629D01*
X393075Y720797D01*
X393451Y721028D01*
X393786Y721314D01*
X394072Y721649D01*
X394230Y721906D01*
Y709488D01*
X394221Y709490D01*
X394142Y709493D01*
X394063Y709484D01*
X393987Y709463D01*
X393915Y709430D01*
X393850Y709386D01*
X393791Y709333D01*
X393742Y709271D01*
X393704Y709202D01*
X393676Y709128D01*
X393660Y709051D01*
X393657Y708972D01*
X393666Y708893D01*
X393689Y708818D01*
X393738Y708668D01*
X393772Y708514D01*
X393793Y708358D01*
X393800Y708200D01*
X393793Y708042D01*
X393772Y707886D01*
X393738Y707732D01*
X393690Y707582D01*
X393668Y707506D01*
X393659Y707428D01*
X393662Y707350D01*
X393678Y707273D01*
X393705Y707199D01*
X393744Y707130D01*
X393793Y707069D01*
X393851Y707015D01*
X393916Y706972D01*
X393988Y706939D01*
X394064Y706918D01*
X394142Y706909D01*
X394220Y706912D01*
X394230Y706914D01*
Y706126D01*
G37*
G36*
Y623842D02*X393952Y623820D01*
X393186Y623636D01*
X392459Y623335D01*
X392001Y623054D01*
Y684402D01*
X392145Y684408D01*
X392389Y684440D01*
X392629Y684494D01*
X392863Y684568D01*
X392935Y684600D01*
X393000Y684644D01*
X393059Y684697D01*
X393108Y684759D01*
X393146Y684828D01*
X393174Y684902D01*
X393190Y684979D01*
X393193Y685058D01*
X393184Y685137D01*
X393163Y685213D01*
X393130Y685285D01*
X393086Y685350D01*
X393033Y685409D01*
X392971Y685458D01*
X392902Y685496D01*
X392828Y685524D01*
X392751Y685540D01*
X392672Y685543D01*
X392593Y685534D01*
X392518Y685511D01*
X392368Y685462D01*
X392214Y685428D01*
X392058Y685407D01*
X392001Y685404D01*
Y688996D01*
X392058Y688993D01*
X392214Y688972D01*
X392368Y688938D01*
X392518Y688890D01*
X392594Y688868D01*
X392672Y688859D01*
X392750Y688862D01*
X392827Y688878D01*
X392901Y688905D01*
X392970Y688944D01*
X393031Y688993D01*
X393085Y689051D01*
X393128Y689116D01*
X393161Y689188D01*
X393182Y689264D01*
X393191Y689342D01*
X393188Y689420D01*
X393172Y689498D01*
X393145Y689571D01*
X393106Y689640D01*
X393057Y689702D01*
X392999Y689755D01*
X392934Y689798D01*
X392862Y689830D01*
X392629Y689906D01*
X392389Y689960D01*
X392145Y689992D01*
X392001Y689998D01*
Y697905D01*
X393146Y699050D01*
X394230D01*
Y688462D01*
X394198Y688474D01*
X394121Y688490D01*
X394042Y688493D01*
X393963Y688484D01*
X393887Y688463D01*
X393815Y688430D01*
X393750Y688386D01*
X393691Y688333D01*
X393642Y688271D01*
X393604Y688202D01*
X393576Y688128D01*
X393560Y688051D01*
X393557Y687972D01*
X393566Y687893D01*
X393589Y687818D01*
X393638Y687668D01*
X393672Y687514D01*
X393693Y687358D01*
X393700Y687200D01*
X393693Y687042D01*
X393672Y686886D01*
X393638Y686732D01*
X393590Y686582D01*
X393568Y686506D01*
X393559Y686428D01*
X393562Y686350D01*
X393578Y686273D01*
X393605Y686199D01*
X393644Y686130D01*
X393693Y686069D01*
X393751Y686015D01*
X393816Y685972D01*
X393888Y685939D01*
X393964Y685918D01*
X394042Y685909D01*
X394120Y685912D01*
X394198Y685928D01*
X394230Y685940D01*
Y623842D01*
G37*
G36*
Y584000D02*X392001D01*
Y614678D01*
X392459Y614397D01*
X393186Y614096D01*
X393952Y613912D01*
X394230Y613891D01*
Y584000D01*
G37*
G36*
X392001Y771704D02*X391627Y772024D01*
X392001Y772024D01*
Y771704D01*
G37*
G36*
Y746493D02*X391800Y746509D01*
X391361Y746474D01*
X390932Y746371D01*
X390525Y746203D01*
X390149Y745972D01*
X389814Y745686D01*
X389528Y745351D01*
X389297Y744975D01*
X389129Y744568D01*
X389026Y744139D01*
X388991Y743700D01*
X389016Y743391D01*
X388182Y742557D01*
X388181Y743129D01*
X388144Y743282D01*
X388084Y743427D01*
X388034Y743510D01*
Y749674D01*
X389692Y750361D01*
X391412Y751415D01*
X392001Y751918D01*
Y746493D01*
G37*
G36*
Y726093D02*X391800Y726109D01*
X391361Y726074D01*
X390932Y725971D01*
X390525Y725803D01*
X390149Y725572D01*
X389814Y725286D01*
X389770Y725235D01*
Y727712D01*
X389779Y727710D01*
X389858Y727707D01*
X389937Y727716D01*
X390013Y727737D01*
X390085Y727770D01*
X390150Y727814D01*
X390209Y727867D01*
X390258Y727929D01*
X390296Y727998D01*
X390324Y728072D01*
X390340Y728149D01*
X390343Y728228D01*
X390334Y728307D01*
X390311Y728382D01*
X390262Y728532D01*
X390228Y728686D01*
X390207Y728842D01*
X390200Y729000D01*
X390207Y729158D01*
X390228Y729314D01*
X390262Y729468D01*
X390310Y729618D01*
X390332Y729694D01*
X390341Y729772D01*
X390338Y729850D01*
X390322Y729927D01*
X390295Y730001D01*
X390256Y730070D01*
X390207Y730131D01*
X390149Y730185D01*
X390084Y730228D01*
X390012Y730261D01*
X389936Y730282D01*
X389858Y730291D01*
X389780Y730288D01*
X389770Y730286D01*
Y739213D01*
X389941Y739359D01*
X389986Y739411D01*
X391491Y740916D01*
X391800Y740891D01*
X392001Y740907D01*
Y731803D01*
X392000Y731803D01*
X391755Y731792D01*
X391511Y731760D01*
X391271Y731706D01*
X391037Y731632D01*
X390965Y731600D01*
X390900Y731556D01*
X390841Y731503D01*
X390792Y731441D01*
X390754Y731372D01*
X390726Y731298D01*
X390710Y731221D01*
X390707Y731142D01*
X390716Y731063D01*
X390737Y730987D01*
X390770Y730915D01*
X390814Y730850D01*
X390867Y730791D01*
X390929Y730742D01*
X390998Y730704D01*
X391072Y730676D01*
X391149Y730660D01*
X391228Y730657D01*
X391307Y730666D01*
X391382Y730689D01*
X391532Y730738D01*
X391686Y730772D01*
X391842Y730793D01*
X392000Y730800D01*
X392001Y730800D01*
Y727200D01*
X392000Y727200D01*
X391842Y727207D01*
X391686Y727228D01*
X391532Y727262D01*
X391382Y727310D01*
X391306Y727332D01*
X391228Y727341D01*
X391150Y727338D01*
X391073Y727322D01*
X390999Y727295D01*
X390930Y727256D01*
X390869Y727207D01*
X390815Y727149D01*
X390772Y727084D01*
X390739Y727012D01*
X390718Y726936D01*
X390709Y726858D01*
X390712Y726780D01*
X390728Y726702D01*
X390755Y726629D01*
X390794Y726560D01*
X390843Y726498D01*
X390901Y726445D01*
X390966Y726402D01*
X391038Y726370D01*
X391271Y726294D01*
X391511Y726240D01*
X391755Y726208D01*
X392000Y726197D01*
X392001Y726197D01*
Y726093D01*
G37*
G36*
X389770Y725235D02*X389528Y724951D01*
X389297Y724575D01*
X389129Y724168D01*
X389026Y723739D01*
X388991Y723300D01*
X389016Y722991D01*
X388688Y722663D01*
X388681Y722666D01*
X388528Y722703D01*
X388371Y722712D01*
X388034Y722712D01*
Y730231D01*
X388084Y730313D01*
X388144Y730458D01*
X388181Y730611D01*
X388190Y730768D01*
X388189Y731651D01*
X388215Y731658D01*
X388470Y731763D01*
X388705Y731907D01*
X388914Y732086D01*
X389093Y732295D01*
X389237Y732530D01*
X389342Y732785D01*
X389407Y733053D01*
X389428Y733327D01*
X389407Y733602D01*
X389342Y733870D01*
X389237Y734124D01*
X389093Y734359D01*
X388914Y734568D01*
X388705Y734747D01*
X388470Y734891D01*
X388215Y734997D01*
X388183Y735004D01*
X388181Y736043D01*
X388144Y736196D01*
X388084Y736341D01*
X388034Y736424D01*
Y737317D01*
X388084Y737399D01*
X388144Y737544D01*
X388181Y737697D01*
X388190Y737854D01*
X388188Y738850D01*
X388631D01*
X388700Y738845D01*
X388974Y738866D01*
X388975Y738866D01*
X389242Y738931D01*
X389497Y739036D01*
X389732Y739180D01*
X389770Y739213D01*
Y730286D01*
X389702Y730272D01*
X389629Y730245D01*
X389560Y730206D01*
X389498Y730157D01*
X389445Y730099D01*
X389402Y730034D01*
X389370Y729962D01*
X389294Y729729D01*
X389240Y729489D01*
X389208Y729245D01*
X389197Y729000D01*
X389208Y728755D01*
X389240Y728511D01*
X389294Y728271D01*
X389368Y728037D01*
X389400Y727965D01*
X389444Y727900D01*
X389497Y727841D01*
X389559Y727792D01*
X389628Y727754D01*
X389702Y727726D01*
X389770Y727712D01*
Y725235D01*
G37*
G36*
X392001Y706400D02*X392000Y706400D01*
X391842Y706407D01*
X391686Y706428D01*
X391532Y706462D01*
X391382Y706510D01*
X391306Y706532D01*
X391228Y706541D01*
X391150Y706538D01*
X391073Y706522D01*
X390999Y706495D01*
X390930Y706456D01*
X390869Y706407D01*
X390815Y706349D01*
X390772Y706284D01*
X390739Y706212D01*
X390718Y706136D01*
X390709Y706058D01*
X390712Y705980D01*
X390728Y705902D01*
X390755Y705829D01*
X390794Y705760D01*
X390843Y705698D01*
X390901Y705645D01*
X390966Y705602D01*
X391038Y705570D01*
X391166Y705528D01*
X390843Y705450D01*
X390370Y705255D01*
X389934Y704987D01*
X389770Y704842D01*
Y706912D01*
X389779Y706910D01*
X389858Y706907D01*
X389937Y706916D01*
X390013Y706937D01*
X390085Y706970D01*
X390150Y707014D01*
X390209Y707067D01*
X390258Y707129D01*
X390296Y707198D01*
X390324Y707272D01*
X390340Y707349D01*
X390343Y707428D01*
X390334Y707507D01*
X390311Y707582D01*
X390262Y707732D01*
X390228Y707886D01*
X390207Y708042D01*
X390200Y708200D01*
X390207Y708358D01*
X390228Y708514D01*
X390262Y708668D01*
X390310Y708818D01*
X390332Y708894D01*
X390341Y708972D01*
X390338Y709050D01*
X390322Y709127D01*
X390295Y709201D01*
X390256Y709270D01*
X390207Y709331D01*
X390149Y709385D01*
X390084Y709428D01*
X390012Y709461D01*
X389936Y709482D01*
X389858Y709491D01*
X389780Y709488D01*
X389770Y709486D01*
Y711447D01*
X389802Y711525D01*
X389866Y711793D01*
X389888Y712067D01*
X389866Y712342D01*
X389802Y712610D01*
X389770Y712687D01*
Y718795D01*
X391491Y720516D01*
X391800Y720491D01*
X392001Y720507D01*
Y711003D01*
X392000Y711003D01*
X391755Y710992D01*
X391511Y710960D01*
X391271Y710906D01*
X391037Y710832D01*
X390965Y710800D01*
X390900Y710756D01*
X390841Y710703D01*
X390792Y710641D01*
X390754Y710572D01*
X390726Y710498D01*
X390710Y710421D01*
X390707Y710342D01*
X390716Y710263D01*
X390737Y710187D01*
X390770Y710115D01*
X390814Y710050D01*
X390867Y709991D01*
X390929Y709942D01*
X390998Y709904D01*
X391072Y709876D01*
X391149Y709860D01*
X391228Y709857D01*
X391307Y709866D01*
X391382Y709889D01*
X391532Y709938D01*
X391686Y709972D01*
X391842Y709993D01*
X392000Y710000D01*
X392001Y710000D01*
Y706400D01*
G37*
G36*
X389770Y712687D02*X389697Y712864D01*
X389553Y713099D01*
X389374Y713309D01*
X389365Y713317D01*
X389362Y714783D01*
X389325Y714936D01*
X389265Y715082D01*
X389183Y715216D01*
X389081Y715336D01*
X388961Y715438D01*
X388827Y715520D01*
X388681Y715580D01*
X388556Y715610D01*
X388681Y715640D01*
X388827Y715700D01*
X388961Y715783D01*
X389081Y715885D01*
X389183Y716005D01*
X389265Y716139D01*
X389325Y716284D01*
X389362Y716437D01*
X389371Y716594D01*
X389368Y718393D01*
X389770Y718795D01*
Y712687D01*
G37*
G36*
Y704842D02*X389722Y704799D01*
X389495Y704605D01*
X389412Y704508D01*
X388034Y703130D01*
Y708517D01*
X388528Y708518D01*
X388681Y708554D01*
X388827Y708614D01*
X388961Y708697D01*
X389081Y708799D01*
X389183Y708919D01*
X389265Y709053D01*
X389325Y709198D01*
X389362Y709351D01*
X389371Y709508D01*
X389369Y710822D01*
X389374Y710826D01*
X389553Y711036D01*
X389697Y711270D01*
X389770Y711447D01*
Y709486D01*
X389702Y709472D01*
X389629Y709445D01*
X389560Y709406D01*
X389498Y709357D01*
X389445Y709299D01*
X389402Y709234D01*
X389370Y709162D01*
X389294Y708929D01*
X389240Y708689D01*
X389208Y708445D01*
X389197Y708200D01*
X389208Y707955D01*
X389240Y707711D01*
X389294Y707471D01*
X389368Y707237D01*
X389400Y707165D01*
X389444Y707100D01*
X389497Y707041D01*
X389559Y706992D01*
X389628Y706954D01*
X389702Y706926D01*
X389770Y706912D01*
Y704842D01*
G37*
G36*
X392001Y584000D02*X389670D01*
Y685912D01*
X389679Y685910D01*
X389758Y685907D01*
X389837Y685916D01*
X389913Y685937D01*
X389985Y685970D01*
X390050Y686014D01*
X390109Y686067D01*
X390158Y686129D01*
X390196Y686198D01*
X390224Y686272D01*
X390240Y686349D01*
X390243Y686428D01*
X390234Y686507D01*
X390211Y686582D01*
X390162Y686732D01*
X390128Y686886D01*
X390107Y687042D01*
X390100Y687200D01*
X390107Y687358D01*
X390128Y687514D01*
X390162Y687668D01*
X390210Y687818D01*
X390232Y687894D01*
X390241Y687972D01*
X390238Y688050D01*
X390222Y688127D01*
X390195Y688201D01*
X390156Y688270D01*
X390107Y688331D01*
X390049Y688385D01*
X389984Y688428D01*
X389912Y688461D01*
X389836Y688482D01*
X389758Y688491D01*
X389680Y688488D01*
X389670Y688486D01*
Y695609D01*
X390005Y695895D01*
X390088Y695992D01*
X392001Y697905D01*
Y689998D01*
X391900Y690003D01*
X391655Y689992D01*
X391411Y689960D01*
X391171Y689906D01*
X390937Y689832D01*
X390865Y689800D01*
X390800Y689756D01*
X390741Y689703D01*
X390692Y689641D01*
X390654Y689572D01*
X390626Y689498D01*
X390610Y689421D01*
X390607Y689342D01*
X390616Y689263D01*
X390637Y689187D01*
X390670Y689115D01*
X390714Y689050D01*
X390767Y688991D01*
X390829Y688942D01*
X390898Y688904D01*
X390972Y688876D01*
X391049Y688860D01*
X391128Y688857D01*
X391207Y688866D01*
X391282Y688889D01*
X391432Y688938D01*
X391586Y688972D01*
X391742Y688993D01*
X391900Y689000D01*
X392001Y688996D01*
Y685404D01*
X391900Y685400D01*
X391742Y685407D01*
X391586Y685428D01*
X391432Y685462D01*
X391282Y685510D01*
X391206Y685532D01*
X391128Y685541D01*
X391050Y685538D01*
X390973Y685522D01*
X390899Y685495D01*
X390830Y685456D01*
X390769Y685407D01*
X390715Y685349D01*
X390672Y685284D01*
X390639Y685212D01*
X390618Y685136D01*
X390609Y685058D01*
X390612Y684980D01*
X390628Y684902D01*
X390655Y684829D01*
X390694Y684760D01*
X390743Y684698D01*
X390801Y684645D01*
X390866Y684602D01*
X390938Y684570D01*
X391171Y684494D01*
X391411Y684440D01*
X391655Y684408D01*
X391900Y684397D01*
X392001Y684402D01*
Y623054D01*
X391788Y622924D01*
X391190Y622413D01*
X390679Y621814D01*
X390267Y621143D01*
X389966Y620416D01*
X389783Y619651D01*
X389721Y618866D01*
X389783Y618082D01*
X389966Y617316D01*
X390267Y616589D01*
X390679Y615918D01*
X391190Y615320D01*
X391788Y614809D01*
X392001Y614678D01*
Y584000D01*
G37*
G36*
X389670D02*X388034D01*
Y688105D01*
X388084Y688187D01*
X388144Y688332D01*
X388181Y688485D01*
X388190Y688642D01*
X388189Y689471D01*
X388441Y689532D01*
X388696Y689637D01*
X388931Y689781D01*
X389140Y689960D01*
X389319Y690169D01*
X389463Y690404D01*
X389568Y690659D01*
X389633Y690927D01*
X389654Y691201D01*
X389633Y691476D01*
X389568Y691744D01*
X389463Y691998D01*
X389319Y692233D01*
X389140Y692442D01*
X388931Y692621D01*
X388696Y692765D01*
X388441Y692871D01*
X388183Y692933D01*
X388181Y693917D01*
X388144Y694070D01*
X388084Y694215D01*
X388034Y694298D01*
Y694966D01*
X388210Y694980D01*
X388707Y695100D01*
X389180Y695295D01*
X389616Y695563D01*
X389670Y695609D01*
Y688486D01*
X389602Y688472D01*
X389529Y688445D01*
X389460Y688406D01*
X389398Y688357D01*
X389345Y688299D01*
X389302Y688234D01*
X389270Y688162D01*
X389194Y687929D01*
X389140Y687689D01*
X389108Y687445D01*
X389097Y687200D01*
X389108Y686955D01*
X389140Y686711D01*
X389194Y686471D01*
X389268Y686237D01*
X389300Y686165D01*
X389344Y686100D01*
X389397Y686041D01*
X389459Y685992D01*
X389528Y685954D01*
X389602Y685926D01*
X389670Y685912D01*
Y584000D01*
G37*
G36*
X388034Y694298D02*X388002Y694350D01*
X387899Y694469D01*
X387780Y694572D01*
X387646Y694654D01*
X387500Y694714D01*
X387375Y694744D01*
X387500Y694774D01*
X387646Y694834D01*
X387780Y694917D01*
X387818Y694949D01*
X388034Y694966D01*
Y694298D01*
G37*
G36*
Y736424D02*X388002Y736476D01*
X387899Y736595D01*
X387780Y736698D01*
X387646Y736780D01*
X387500Y736840D01*
X387375Y736870D01*
X387500Y736900D01*
X387646Y736960D01*
X387780Y737043D01*
X387899Y737145D01*
X388002Y737264D01*
X388034Y737317D01*
Y736424D01*
G37*
G36*
Y584000D02*X377000D01*
X369000Y576000D01*
Y558000D01*
X368242D01*
Y754318D01*
X368375Y754185D01*
X368722Y754751D01*
X368993Y755405D01*
X369158Y756094D01*
X369200Y756800D01*
X369158Y757506D01*
X368993Y758195D01*
X368722Y758849D01*
X368375Y759415D01*
X368242Y759282D01*
Y764019D01*
X368352Y764147D01*
X368722Y764751D01*
X368993Y765405D01*
X369158Y766094D01*
X369200Y766800D01*
X369158Y767506D01*
X368993Y768195D01*
X368722Y768849D01*
X368352Y769453D01*
X368242Y769581D01*
Y772000D01*
X370000D01*
X376070Y772007D01*
X374772Y770898D01*
X373462Y769364D01*
X372408Y767645D01*
X371637Y765782D01*
X371166Y763821D01*
X371008Y761811D01*
X371166Y759801D01*
X371637Y757840D01*
X372408Y755977D01*
X373462Y754258D01*
X374772Y752724D01*
X376305Y751415D01*
X378024Y750361D01*
X379887Y749589D01*
X381848Y749119D01*
X383858Y748960D01*
X385869Y749119D01*
X387829Y749589D01*
X388034Y749674D01*
Y743510D01*
X388002Y743562D01*
X387899Y743681D01*
X387780Y743784D01*
X387646Y743866D01*
X387500Y743926D01*
X387347Y743963D01*
X387190Y743972D01*
X381129Y743963D01*
X380976Y743926D01*
X380831Y743866D01*
X380697Y743784D01*
X380577Y743681D01*
X380475Y743562D01*
X380392Y743427D01*
X380332Y743282D01*
X380295Y743129D01*
X380286Y742972D01*
X380295Y737697D01*
X380332Y737544D01*
X380392Y737399D01*
X380475Y737264D01*
X380577Y737145D01*
X380697Y737043D01*
X380831Y736960D01*
X380976Y736900D01*
X381101Y736870D01*
X380976Y736840D01*
X380831Y736780D01*
X380697Y736698D01*
X380577Y736595D01*
X380475Y736476D01*
X380392Y736341D01*
X380332Y736196D01*
X380295Y736043D01*
X380286Y735886D01*
X380295Y730611D01*
X380332Y730458D01*
X380392Y730313D01*
X380475Y730178D01*
X380577Y730059D01*
X380697Y729957D01*
X380831Y729874D01*
X380976Y729814D01*
X381129Y729777D01*
X381286Y729768D01*
X387347Y729777D01*
X387500Y729814D01*
X387646Y729874D01*
X387780Y729957D01*
X387899Y730059D01*
X388002Y730178D01*
X388034Y730231D01*
Y722712D01*
X382310Y722703D01*
X382157Y722666D01*
X382012Y722606D01*
X381878Y722524D01*
X381758Y722422D01*
X381656Y722302D01*
X381574Y722168D01*
X381513Y722022D01*
X381477Y721869D01*
X381467Y721712D01*
X381477Y716437D01*
X381513Y716284D01*
X381574Y716139D01*
X381656Y716005D01*
X381758Y715885D01*
X381878Y715783D01*
X382012Y715700D01*
X382157Y715640D01*
X382282Y715610D01*
X382157Y715580D01*
X382012Y715520D01*
X381878Y715438D01*
X381758Y715336D01*
X381656Y715216D01*
X381574Y715082D01*
X381513Y714936D01*
X381477Y714783D01*
X381467Y714626D01*
X381477Y709351D01*
X381513Y709198D01*
X381574Y709053D01*
X381656Y708919D01*
X381758Y708799D01*
X381878Y708697D01*
X382012Y708614D01*
X382157Y708554D01*
X382310Y708518D01*
X382467Y708508D01*
X388034Y708517D01*
Y703130D01*
X386749Y701845D01*
X381129Y701837D01*
X380976Y701800D01*
X380831Y701740D01*
X380697Y701658D01*
X380577Y701555D01*
X380475Y701436D01*
X380392Y701301D01*
X380332Y701156D01*
X380295Y701003D01*
X380286Y700846D01*
X380295Y695571D01*
X380332Y695418D01*
X380392Y695273D01*
X380475Y695138D01*
X380577Y695019D01*
X380697Y694917D01*
X380831Y694834D01*
X380976Y694774D01*
X381101Y694744D01*
X380976Y694714D01*
X380831Y694654D01*
X380697Y694572D01*
X380577Y694469D01*
X380475Y694350D01*
X380392Y694215D01*
X380332Y694070D01*
X380295Y693917D01*
X380286Y693760D01*
X380295Y688485D01*
X380332Y688332D01*
X380392Y688187D01*
X380475Y688052D01*
X380577Y687933D01*
X380697Y687831D01*
X380831Y687748D01*
X380976Y687688D01*
X381129Y687651D01*
X381286Y687642D01*
X387347Y687651D01*
X387500Y687688D01*
X387646Y687748D01*
X387780Y687831D01*
X387899Y687933D01*
X388002Y688052D01*
X388034Y688105D01*
Y584000D01*
G37*
G36*
X368242Y769581D02*X367892Y769992D01*
X367353Y770452D01*
X366749Y770822D01*
X366095Y771093D01*
X365406Y771258D01*
X364700Y771314D01*
Y772000D01*
X368242D01*
Y769581D01*
G37*
G36*
Y558000D02*X364700D01*
Y752286D01*
X365406Y752342D01*
X366095Y752507D01*
X366749Y752778D01*
X367315Y753125D01*
X366224Y754215D01*
X366066Y754119D01*
X365630Y753938D01*
X365171Y753828D01*
X364700Y753791D01*
Y759809D01*
X365171Y759772D01*
X365630Y759662D01*
X366066Y759481D01*
X366224Y759385D01*
X367315Y760475D01*
X366749Y760822D01*
X366095Y761093D01*
X365406Y761258D01*
X364700Y761314D01*
Y762286D01*
X365406Y762342D01*
X366095Y762507D01*
X366749Y762778D01*
X367353Y763148D01*
X367892Y763608D01*
X368242Y764019D01*
Y759282D01*
X367285Y758324D01*
X367381Y758166D01*
X367562Y757730D01*
X367672Y757271D01*
X367700Y756800D01*
X367672Y756329D01*
X367562Y755870D01*
X367381Y755434D01*
X367285Y755276D01*
X368242Y754318D01*
Y558000D01*
G37*
G36*
X364700Y771314D02*X363994Y771258D01*
X363305Y771093D01*
X362651Y770822D01*
X362047Y770452D01*
X361508Y769992D01*
X361151Y769573D01*
Y772000D01*
X364700D01*
Y771314D01*
G37*
G36*
Y558000D02*X361151D01*
Y739083D01*
X361171Y739132D01*
X361274Y739561D01*
X361300Y740000D01*
X361274Y740439D01*
X361171Y740868D01*
X361151Y740917D01*
Y754311D01*
X362115Y755276D01*
X362019Y755434D01*
X361838Y755870D01*
X361728Y756329D01*
X361691Y756800D01*
X361728Y757271D01*
X361838Y757730D01*
X362019Y758166D01*
X362115Y758324D01*
X361151Y759289D01*
Y764027D01*
X361508Y763608D01*
X362047Y763148D01*
X362651Y762778D01*
X363305Y762507D01*
X363994Y762342D01*
X364700Y762286D01*
Y761314D01*
X363994Y761258D01*
X363305Y761093D01*
X362651Y760822D01*
X362085Y760475D01*
X363176Y759385D01*
X363334Y759481D01*
X363770Y759662D01*
X364229Y759772D01*
X364700Y759809D01*
Y753791D01*
X364229Y753828D01*
X363770Y753938D01*
X363334Y754119D01*
X363176Y754215D01*
X362085Y753125D01*
X362651Y752778D01*
X363305Y752507D01*
X363994Y752342D01*
X364700Y752286D01*
Y558000D01*
G37*
G36*
X361151Y740917D02*X361003Y741275D01*
X360772Y741651D01*
X360486Y741986D01*
X360151Y742272D01*
X359775Y742503D01*
X359368Y742671D01*
X358939Y742774D01*
X358500Y742809D01*
X358191Y742784D01*
X356786Y744189D01*
X356741Y744241D01*
X356532Y744420D01*
X356297Y744564D01*
X356042Y744669D01*
X355775Y744734D01*
X355774Y744734D01*
X355500Y744755D01*
X355431Y744750D01*
X354693D01*
Y752287D01*
X354700Y752286D01*
X355406Y752342D01*
X356095Y752507D01*
X356749Y752778D01*
X357353Y753148D01*
X357892Y753608D01*
X358352Y754147D01*
X358722Y754751D01*
X358993Y755405D01*
X359158Y756094D01*
X359200Y756800D01*
X359158Y757506D01*
X358993Y758195D01*
X358722Y758849D01*
X358352Y759453D01*
X357892Y759992D01*
X357353Y760452D01*
X356749Y760822D01*
X356095Y761093D01*
X355406Y761258D01*
X354700Y761314D01*
X354693Y761313D01*
Y762287D01*
X354700Y762286D01*
X355406Y762342D01*
X356095Y762507D01*
X356749Y762778D01*
X357353Y763148D01*
X357892Y763608D01*
X358352Y764147D01*
X358722Y764751D01*
X358993Y765405D01*
X359158Y766094D01*
X359200Y766800D01*
X359158Y767506D01*
X358993Y768195D01*
X358722Y768849D01*
X358352Y769453D01*
X357892Y769992D01*
X357353Y770452D01*
X356749Y770822D01*
X356095Y771093D01*
X355406Y771258D01*
X354700Y771314D01*
X354693Y771313D01*
Y772000D01*
X361151D01*
Y769573D01*
X361048Y769453D01*
X360678Y768849D01*
X360407Y768195D01*
X360242Y767506D01*
X360186Y766800D01*
X360242Y766094D01*
X360407Y765405D01*
X360678Y764751D01*
X361048Y764147D01*
X361151Y764027D01*
Y759289D01*
X361025Y759415D01*
X360678Y758849D01*
X360407Y758195D01*
X360242Y757506D01*
X360186Y756800D01*
X360242Y756094D01*
X360407Y755405D01*
X360678Y754751D01*
X361025Y754185D01*
X361151Y754311D01*
Y740917D01*
G37*
G36*
Y558000D02*X354693D01*
Y741250D01*
X354775D01*
X355716Y740309D01*
X355691Y740000D01*
X355726Y739561D01*
X355829Y739132D01*
X355997Y738725D01*
X356228Y738349D01*
X356514Y738014D01*
X356849Y737728D01*
X357225Y737497D01*
X357632Y737329D01*
X358061Y737226D01*
X358500Y737191D01*
X358939Y737226D01*
X359368Y737329D01*
X359775Y737497D01*
X360151Y737728D01*
X360486Y738014D01*
X360772Y738349D01*
X361003Y738725D01*
X361151Y739083D01*
Y558000D01*
G37*
G36*
X354693Y744750D02*X351552D01*
X351550Y746109D01*
X351513Y746262D01*
X351453Y746407D01*
X351371Y746542D01*
X351268Y746661D01*
X351149Y746764D01*
X351014Y746846D01*
X350869Y746906D01*
X350716Y746943D01*
X350559Y746952D01*
X345743Y746944D01*
Y752423D01*
X346095Y752507D01*
X346749Y752778D01*
X347353Y753148D01*
X347892Y753608D01*
X348352Y754147D01*
X348722Y754751D01*
X348993Y755405D01*
X349158Y756094D01*
X349200Y756800D01*
X349158Y757506D01*
X348993Y758195D01*
X348722Y758849D01*
X348352Y759453D01*
X347892Y759992D01*
X347353Y760452D01*
X346749Y760822D01*
X346095Y761093D01*
X345743Y761177D01*
Y762423D01*
X346095Y762507D01*
X346749Y762778D01*
X347353Y763148D01*
X347892Y763608D01*
X348352Y764147D01*
X348722Y764751D01*
X348993Y765405D01*
X349158Y766094D01*
X349200Y766800D01*
X349158Y767506D01*
X348993Y768195D01*
X348722Y768849D01*
X348352Y769453D01*
X347892Y769992D01*
X347353Y770452D01*
X346749Y770822D01*
X346095Y771093D01*
X345743Y771177D01*
Y772000D01*
X354693D01*
Y771313D01*
X353994Y771258D01*
X353305Y771093D01*
X352651Y770822D01*
X352047Y770452D01*
X351508Y769992D01*
X351048Y769453D01*
X350678Y768849D01*
X350407Y768195D01*
X350242Y767506D01*
X350186Y766800D01*
X350242Y766094D01*
X350407Y765405D01*
X350678Y764751D01*
X351048Y764147D01*
X351508Y763608D01*
X352047Y763148D01*
X352651Y762778D01*
X353305Y762507D01*
X353994Y762342D01*
X354693Y762287D01*
Y761313D01*
X353994Y761258D01*
X353305Y761093D01*
X352651Y760822D01*
X352047Y760452D01*
X351508Y759992D01*
X351048Y759453D01*
X350678Y758849D01*
X350407Y758195D01*
X350242Y757506D01*
X350186Y756800D01*
X350242Y756094D01*
X350407Y755405D01*
X350678Y754751D01*
X351048Y754147D01*
X351508Y753608D01*
X352047Y753148D01*
X352651Y752778D01*
X353305Y752507D01*
X353994Y752342D01*
X354693Y752287D01*
Y744750D01*
G37*
G36*
Y558000D02*X345743D01*
Y739049D01*
X350716Y739057D01*
X350869Y739094D01*
X351014Y739154D01*
X351149Y739236D01*
X351268Y739339D01*
X351371Y739458D01*
X351453Y739593D01*
X351513Y739738D01*
X351550Y739891D01*
X351559Y740048D01*
X351557Y741250D01*
X354693D01*
Y558000D01*
G37*
G36*
X338242Y772000D02*X345743D01*
Y771177D01*
X345406Y771258D01*
X344700Y771314D01*
X343994Y771258D01*
X343305Y771093D01*
X342651Y770822D01*
X342047Y770452D01*
X341508Y769992D01*
X341048Y769453D01*
X340678Y768849D01*
X340407Y768195D01*
X340242Y767506D01*
X340186Y766800D01*
X340242Y766094D01*
X340407Y765405D01*
X340678Y764751D01*
X341048Y764147D01*
X341508Y763608D01*
X342047Y763148D01*
X342651Y762778D01*
X343305Y762507D01*
X343994Y762342D01*
X344700Y762286D01*
X345406Y762342D01*
X345743Y762423D01*
Y761177D01*
X345406Y761258D01*
X344700Y761314D01*
X343994Y761258D01*
X343305Y761093D01*
X342651Y760822D01*
X342047Y760452D01*
X341508Y759992D01*
X341048Y759453D01*
X340678Y758849D01*
X340407Y758195D01*
X340242Y757506D01*
X340186Y756800D01*
X340242Y756094D01*
X340407Y755405D01*
X340678Y754751D01*
X341048Y754147D01*
X341508Y753608D01*
X342047Y753148D01*
X342651Y752778D01*
X343305Y752507D01*
X343994Y752342D01*
X344700Y752286D01*
X345406Y752342D01*
X345743Y752423D01*
Y746944D01*
X345284Y746943D01*
X345131Y746906D01*
X344986Y746846D01*
X344851Y746764D01*
X344732Y746661D01*
X344630Y746542D01*
X344547Y746407D01*
X344487Y746262D01*
X344457Y746137D01*
X344427Y746262D01*
X344367Y746407D01*
X344285Y746542D01*
X344182Y746661D01*
X344063Y746764D01*
X343928Y746846D01*
X343783Y746906D01*
X343630Y746943D01*
X343473Y746952D01*
X338242Y746943D01*
Y754019D01*
X338352Y754147D01*
X338722Y754751D01*
X338993Y755405D01*
X339158Y756094D01*
X339200Y756800D01*
X339158Y757506D01*
X338993Y758195D01*
X338722Y758849D01*
X338352Y759453D01*
X338242Y759581D01*
Y764318D01*
X338375Y764185D01*
X338722Y764751D01*
X338993Y765405D01*
X339158Y766094D01*
X339200Y766800D01*
X339158Y767506D01*
X338993Y768195D01*
X338722Y768849D01*
X338375Y769415D01*
X338242Y769282D01*
Y772000D01*
G37*
G36*
Y746943D02*X338198Y746943D01*
X338045Y746906D01*
X337900Y746846D01*
X337765Y746764D01*
X337646Y746661D01*
X337544Y746542D01*
X337461Y746407D01*
X337401Y746262D01*
X337364Y746109D01*
X337355Y745952D01*
X337357Y744750D01*
X336250D01*
Y752571D01*
X336749Y752778D01*
X337353Y753148D01*
X337892Y753608D01*
X338242Y754019D01*
Y746943D01*
G37*
G36*
X334700Y772000D02*X338242D01*
Y769282D01*
X337285Y768324D01*
X337381Y768166D01*
X337562Y767730D01*
X337672Y767271D01*
X337700Y766800D01*
X337672Y766329D01*
X337562Y765870D01*
X337381Y765434D01*
X337285Y765276D01*
X338242Y764318D01*
Y759581D01*
X337892Y759992D01*
X337353Y760452D01*
X336749Y760822D01*
X336095Y761093D01*
X335406Y761258D01*
X334700Y761314D01*
Y762286D01*
X335406Y762342D01*
X336095Y762507D01*
X336749Y762778D01*
X337315Y763125D01*
X336224Y764215D01*
X336066Y764119D01*
X335630Y763938D01*
X335171Y763828D01*
X334700Y763791D01*
Y769809D01*
X335171Y769772D01*
X335630Y769662D01*
X336066Y769481D01*
X336224Y769385D01*
X337315Y770475D01*
X336749Y770822D01*
X336095Y771093D01*
X335406Y771258D01*
X334700Y771314D01*
Y772000D01*
G37*
G36*
X331151D02*X334700D01*
Y771314D01*
X333994Y771258D01*
X333305Y771093D01*
X332651Y770822D01*
X332085Y770475D01*
X333176Y769385D01*
X333334Y769481D01*
X333770Y769662D01*
X334229Y769772D01*
X334700Y769809D01*
Y763791D01*
X334229Y763828D01*
X333770Y763938D01*
X333334Y764119D01*
X333176Y764215D01*
X332085Y763125D01*
X332651Y762778D01*
X333305Y762507D01*
X333994Y762342D01*
X334700Y762286D01*
Y761314D01*
X333994Y761258D01*
X333305Y761093D01*
X332651Y760822D01*
X332047Y760452D01*
X331508Y759992D01*
X331151Y759573D01*
Y764311D01*
X332115Y765276D01*
X332019Y765434D01*
X331838Y765870D01*
X331728Y766329D01*
X331691Y766800D01*
X331728Y767271D01*
X331838Y767730D01*
X332019Y768166D01*
X332115Y768324D01*
X331151Y769289D01*
Y772000D01*
G37*
G36*
X345743Y558000D02*X331151D01*
Y595728D01*
X331151Y595728D01*
X331486Y596014D01*
X331772Y596349D01*
X332003Y596725D01*
X332171Y597132D01*
X332274Y597561D01*
X332300Y598000D01*
X332274Y598439D01*
X332171Y598868D01*
X332003Y599275D01*
X331772Y599651D01*
X331486Y599986D01*
X331151Y600272D01*
X331151Y600272D01*
Y754027D01*
X331508Y753608D01*
X332047Y753148D01*
X332651Y752778D01*
X332750Y752737D01*
Y743069D01*
X332745Y743000D01*
X332766Y742725D01*
X332831Y742458D01*
X332936Y742203D01*
X333080Y741968D01*
X333259Y741759D01*
X333468Y741580D01*
X333703Y741436D01*
X333958Y741331D01*
X334225Y741266D01*
X334500Y741245D01*
X334569Y741250D01*
X337362D01*
X337364Y739891D01*
X337401Y739738D01*
X337461Y739593D01*
X337544Y739458D01*
X337646Y739339D01*
X337765Y739236D01*
X337900Y739154D01*
X338045Y739094D01*
X338198Y739057D01*
X338355Y739048D01*
X343630Y739057D01*
X343783Y739094D01*
X343928Y739154D01*
X344063Y739236D01*
X344182Y739339D01*
X344285Y739458D01*
X344367Y739593D01*
X344427Y739738D01*
X344457Y739863D01*
X344487Y739738D01*
X344547Y739593D01*
X344630Y739458D01*
X344732Y739339D01*
X344851Y739236D01*
X344986Y739154D01*
X345131Y739094D01*
X345284Y739057D01*
X345441Y739048D01*
X345743Y739049D01*
Y558000D01*
G37*
G36*
X331151Y600272D02*X330775Y600503D01*
X330368Y600671D01*
X329939Y600774D01*
X329882Y600779D01*
X329827Y600826D01*
X329827Y600826D01*
X329712Y600896D01*
X329525Y601011D01*
X329293Y601107D01*
X329197Y601146D01*
X328853Y601229D01*
X328500Y601257D01*
X328412Y601250D01*
X325996D01*
Y752483D01*
X326095Y752507D01*
X326749Y752778D01*
X327353Y753148D01*
X327892Y753608D01*
X328352Y754147D01*
X328722Y754751D01*
X328993Y755405D01*
X329158Y756094D01*
X329200Y756800D01*
X329158Y757506D01*
X328993Y758195D01*
X328722Y758849D01*
X328352Y759453D01*
X327892Y759992D01*
X327353Y760452D01*
X326749Y760822D01*
X326095Y761093D01*
X325996Y761117D01*
Y762483D01*
X326095Y762507D01*
X326749Y762778D01*
X327353Y763148D01*
X327892Y763608D01*
X328352Y764147D01*
X328722Y764751D01*
X328993Y765405D01*
X329158Y766094D01*
X329200Y766800D01*
X329158Y767506D01*
X328993Y768195D01*
X328722Y768849D01*
X328352Y769453D01*
X327892Y769992D01*
X327353Y770452D01*
X326749Y770822D01*
X326095Y771093D01*
X325996Y771117D01*
Y772000D01*
X331151D01*
Y769289D01*
X331025Y769415D01*
X330678Y768849D01*
X330407Y768195D01*
X330242Y767506D01*
X330186Y766800D01*
X330242Y766094D01*
X330407Y765405D01*
X330678Y764751D01*
X331025Y764185D01*
X331151Y764311D01*
Y759573D01*
X331048Y759453D01*
X330678Y758849D01*
X330407Y758195D01*
X330242Y757506D01*
X330186Y756800D01*
X330242Y756094D01*
X330407Y755405D01*
X330678Y754751D01*
X331048Y754147D01*
X331151Y754027D01*
Y600272D01*
G37*
G36*
Y558000D02*X325996D01*
Y596750D01*
X326987D01*
X326997Y596725D01*
X327228Y596349D01*
X327514Y596014D01*
X327849Y595728D01*
X328225Y595497D01*
X328632Y595329D01*
X329061Y595226D01*
X329500Y595191D01*
X329939Y595226D01*
X330368Y595329D01*
X330775Y595497D01*
X331151Y595728D01*
Y558000D01*
G37*
G36*
X325996D02*X312884D01*
Y732269D01*
X312887Y732270D01*
X312955Y732309D01*
X313016Y732358D01*
X313069Y732417D01*
X313111Y732483D01*
X313274Y732808D01*
X313403Y733148D01*
X313501Y733498D01*
X313567Y733856D01*
X313600Y734218D01*
Y734582D01*
X313567Y734944D01*
X313501Y735302D01*
X313403Y735652D01*
X313274Y735992D01*
X313115Y736319D01*
X313072Y736385D01*
X313019Y736444D01*
X312957Y736494D01*
X312888Y736533D01*
X312884Y736535D01*
Y752682D01*
X313305Y752507D01*
X313994Y752342D01*
X314700Y752286D01*
X315406Y752342D01*
X316095Y752507D01*
X316749Y752778D01*
X317353Y753148D01*
X317892Y753608D01*
X318352Y754147D01*
X318722Y754751D01*
X318993Y755405D01*
X319158Y756094D01*
X319200Y756800D01*
X319158Y757506D01*
X318993Y758195D01*
X318722Y758849D01*
X318352Y759453D01*
X317892Y759992D01*
X317353Y760452D01*
X316749Y760822D01*
X316095Y761093D01*
X315406Y761258D01*
X314700Y761314D01*
X313994Y761258D01*
X313305Y761093D01*
X312884Y760918D01*
Y762682D01*
X313305Y762507D01*
X313994Y762342D01*
X314700Y762286D01*
X315406Y762342D01*
X316095Y762507D01*
X316749Y762778D01*
X317353Y763148D01*
X317892Y763608D01*
X318352Y764147D01*
X318722Y764751D01*
X318993Y765405D01*
X319158Y766094D01*
X319200Y766800D01*
X319158Y767506D01*
X318993Y768195D01*
X318722Y768849D01*
X318352Y769453D01*
X317892Y769992D01*
X317353Y770452D01*
X316749Y770822D01*
X316095Y771093D01*
X315406Y771258D01*
X314700Y771314D01*
X313994Y771258D01*
X313305Y771093D01*
X312884Y770918D01*
Y772000D01*
X325996D01*
Y771117D01*
X325406Y771258D01*
X324700Y771314D01*
X323994Y771258D01*
X323305Y771093D01*
X322651Y770822D01*
X322047Y770452D01*
X321508Y769992D01*
X321048Y769453D01*
X320678Y768849D01*
X320407Y768195D01*
X320242Y767506D01*
X320186Y766800D01*
X320242Y766094D01*
X320407Y765405D01*
X320678Y764751D01*
X321048Y764147D01*
X321508Y763608D01*
X322047Y763148D01*
X322651Y762778D01*
X323305Y762507D01*
X323994Y762342D01*
X324700Y762286D01*
X325406Y762342D01*
X325996Y762483D01*
Y761117D01*
X325406Y761258D01*
X324700Y761314D01*
X323994Y761258D01*
X323305Y761093D01*
X322651Y760822D01*
X322047Y760452D01*
X321508Y759992D01*
X321048Y759453D01*
X320678Y758849D01*
X320407Y758195D01*
X320242Y757506D01*
X320186Y756800D01*
X320242Y756094D01*
X320407Y755405D01*
X320678Y754751D01*
X321048Y754147D01*
X321508Y753608D01*
X322047Y753148D01*
X322651Y752778D01*
X323305Y752507D01*
X323994Y752342D01*
X324700Y752286D01*
X325406Y752342D01*
X325996Y752483D01*
Y601250D01*
X324177D01*
X324151Y601272D01*
X323775Y601503D01*
X323368Y601671D01*
X322939Y601774D01*
X322500Y601809D01*
X322061Y601774D01*
X321632Y601671D01*
X321225Y601503D01*
X320849Y601272D01*
X320514Y600986D01*
X320228Y600651D01*
X319997Y600275D01*
X319829Y599868D01*
X319726Y599439D01*
X319691Y599000D01*
X319726Y598561D01*
X319829Y598132D01*
X319997Y597725D01*
X320228Y597349D01*
X320514Y597014D01*
X320849Y596728D01*
X321225Y596497D01*
X321632Y596329D01*
X322061Y596226D01*
X322500Y596191D01*
X322939Y596226D01*
X323368Y596329D01*
X323775Y596497D01*
X324151Y596728D01*
X324177Y596750D01*
X325996D01*
Y558000D01*
G37*
G36*
X312884D02*X309602D01*
Y730400D01*
X309782D01*
X310144Y730433D01*
X310502Y730499D01*
X310852Y730597D01*
X311192Y730726D01*
X311519Y730885D01*
X311585Y730928D01*
X311644Y730981D01*
X311694Y731043D01*
X311733Y731112D01*
X311761Y731186D01*
X311777Y731263D01*
X311781Y731342D01*
X311773Y731421D01*
X311752Y731497D01*
X311720Y731570D01*
X311677Y731636D01*
X311624Y731695D01*
X311562Y731744D01*
X311493Y731784D01*
X311419Y731812D01*
X311342Y731828D01*
X311263Y731832D01*
X311184Y731824D01*
X311107Y731803D01*
X311036Y731770D01*
X310793Y731647D01*
X310538Y731550D01*
X310276Y731477D01*
X310008Y731428D01*
X309736Y731403D01*
X309602D01*
Y737397D01*
X309736D01*
X310008Y737372D01*
X310276Y737323D01*
X310538Y737250D01*
X310793Y737153D01*
X311037Y737033D01*
X311109Y737000D01*
X311184Y736979D01*
X311263Y736971D01*
X311341Y736975D01*
X311418Y736991D01*
X311492Y737019D01*
X311560Y737058D01*
X311621Y737107D01*
X311674Y737166D01*
X311717Y737232D01*
X311749Y737304D01*
X311770Y737380D01*
X311778Y737458D01*
X311774Y737536D01*
X311758Y737613D01*
X311730Y737687D01*
X311691Y737755D01*
X311642Y737816D01*
X311583Y737869D01*
X311517Y737911D01*
X311192Y738074D01*
X310852Y738203D01*
X310502Y738301D01*
X310144Y738367D01*
X309782Y738400D01*
X309602D01*
Y745807D01*
X309800Y745791D01*
X310239Y745826D01*
X310668Y745929D01*
X311075Y746097D01*
X311451Y746328D01*
X311786Y746614D01*
X312072Y746949D01*
X312303Y747325D01*
X312471Y747732D01*
X312574Y748161D01*
X312600Y748600D01*
X312574Y749039D01*
X312471Y749468D01*
X312303Y749875D01*
X312072Y750251D01*
X311786Y750586D01*
X311451Y750872D01*
X311075Y751103D01*
X310668Y751271D01*
X310239Y751374D01*
X309800Y751409D01*
X309602Y751393D01*
Y772000D01*
X312884D01*
Y770918D01*
X312651Y770822D01*
X312047Y770452D01*
X311508Y769992D01*
X311048Y769453D01*
X310678Y768849D01*
X310407Y768195D01*
X310242Y767506D01*
X310186Y766800D01*
X310242Y766094D01*
X310407Y765405D01*
X310678Y764751D01*
X311048Y764147D01*
X311508Y763608D01*
X312047Y763148D01*
X312651Y762778D01*
X312884Y762682D01*
Y760918D01*
X312651Y760822D01*
X312047Y760452D01*
X311508Y759992D01*
X311048Y759453D01*
X310678Y758849D01*
X310407Y758195D01*
X310242Y757506D01*
X310186Y756800D01*
X310242Y756094D01*
X310407Y755405D01*
X310678Y754751D01*
X311048Y754147D01*
X311508Y753608D01*
X312047Y753148D01*
X312651Y752778D01*
X312884Y752682D01*
Y736535D01*
X312814Y736561D01*
X312737Y736577D01*
X312658Y736581D01*
X312579Y736573D01*
X312503Y736552D01*
X312430Y736520D01*
X312364Y736477D01*
X312305Y736424D01*
X312256Y736362D01*
X312216Y736293D01*
X312188Y736219D01*
X312172Y736142D01*
X312168Y736063D01*
X312176Y735984D01*
X312197Y735907D01*
X312230Y735836D01*
X312353Y735593D01*
X312450Y735338D01*
X312523Y735076D01*
X312572Y734808D01*
X312597Y734536D01*
Y734264D01*
X312572Y733992D01*
X312523Y733724D01*
X312450Y733462D01*
X312353Y733207D01*
X312233Y732963D01*
X312200Y732891D01*
X312179Y732816D01*
X312171Y732737D01*
X312175Y732659D01*
X312191Y732582D01*
X312219Y732508D01*
X312258Y732440D01*
X312307Y732379D01*
X312366Y732326D01*
X312432Y732283D01*
X312504Y732251D01*
X312580Y732230D01*
X312658Y732222D01*
X312736Y732226D01*
X312813Y732242D01*
X312884Y732269D01*
Y558000D01*
G37*
G36*
X309602Y751393D02*X309361Y751374D01*
X308932Y751271D01*
X308525Y751103D01*
X308149Y750872D01*
X307814Y750586D01*
X307612Y750350D01*
X304693D01*
Y752287D01*
X304700Y752286D01*
X305406Y752342D01*
X306095Y752507D01*
X306749Y752778D01*
X307353Y753148D01*
X307892Y753608D01*
X308352Y754147D01*
X308722Y754751D01*
X308993Y755405D01*
X309158Y756094D01*
X309200Y756800D01*
X309158Y757506D01*
X308993Y758195D01*
X308722Y758849D01*
X308352Y759453D01*
X307892Y759992D01*
X307353Y760452D01*
X306749Y760822D01*
X306095Y761093D01*
X305406Y761258D01*
X304700Y761314D01*
X304693Y761313D01*
Y762287D01*
X304700Y762286D01*
X305406Y762342D01*
X306095Y762507D01*
X306749Y762778D01*
X307353Y763148D01*
X307892Y763608D01*
X308352Y764147D01*
X308722Y764751D01*
X308993Y765405D01*
X309158Y766094D01*
X309200Y766800D01*
X309158Y767506D01*
X308993Y768195D01*
X308722Y768849D01*
X308352Y769453D01*
X307892Y769992D01*
X307353Y770452D01*
X306749Y770822D01*
X306095Y771093D01*
X305406Y771258D01*
X304700Y771314D01*
X304693Y771313D01*
Y772000D01*
X309602D01*
Y751393D01*
G37*
G36*
X304693Y750350D02*X297604D01*
Y763362D01*
X297892Y763608D01*
X298352Y764147D01*
X298722Y764751D01*
X298993Y765405D01*
X299158Y766094D01*
X299200Y766800D01*
X299158Y767506D01*
X298993Y768195D01*
X298722Y768849D01*
X298352Y769453D01*
X297892Y769992D01*
X297604Y770238D01*
Y772000D01*
X304693D01*
Y771313D01*
X303994Y771258D01*
X303305Y771093D01*
X302651Y770822D01*
X302047Y770452D01*
X301508Y769992D01*
X301048Y769453D01*
X300678Y768849D01*
X300407Y768195D01*
X300242Y767506D01*
X300186Y766800D01*
X300242Y766094D01*
X300407Y765405D01*
X300678Y764751D01*
X301048Y764147D01*
X301508Y763608D01*
X302047Y763148D01*
X302651Y762778D01*
X303305Y762507D01*
X303994Y762342D01*
X304693Y762287D01*
Y761313D01*
X303994Y761258D01*
X303305Y761093D01*
X302651Y760822D01*
X302047Y760452D01*
X301508Y759992D01*
X301048Y759453D01*
X300678Y758849D01*
X300407Y758195D01*
X300242Y757506D01*
X300186Y756800D01*
X300242Y756094D01*
X300407Y755405D01*
X300678Y754751D01*
X301048Y754147D01*
X301508Y753608D01*
X302047Y753148D01*
X302651Y752778D01*
X303305Y752507D01*
X303994Y752342D01*
X304693Y752287D01*
Y750350D01*
G37*
G36*
X308284Y737091D02*X308407Y737153D01*
X308662Y737250D01*
X308924Y737323D01*
X309192Y737372D01*
X309464Y737397D01*
X309602D01*
Y731403D01*
X309464D01*
X309192Y731428D01*
X308924Y731477D01*
X308662Y731550D01*
X308407Y731647D01*
X308284Y731708D01*
Y737091D01*
G37*
G36*
Y746245D02*X308525Y746097D01*
X308932Y745929D01*
X309361Y745826D01*
X309602Y745807D01*
Y738400D01*
X309418D01*
X309056Y738367D01*
X308698Y738301D01*
X308348Y738203D01*
X308284Y738179D01*
Y746245D01*
G37*
G36*
X309602Y558000D02*X308284D01*
Y612387D01*
X308379Y612467D01*
X308481Y612587D01*
X308563Y612721D01*
X308623Y612867D01*
X308660Y613020D01*
X308669Y613177D01*
X308660Y636834D01*
X308623Y636987D01*
X308563Y637132D01*
X308481Y637266D01*
X308379Y637386D01*
X308284Y637467D01*
Y643774D01*
X308313Y643821D01*
X308373Y643967D01*
X308410Y644120D01*
X308419Y644277D01*
X308410Y651934D01*
X308373Y652087D01*
X308313Y652232D01*
X308284Y652280D01*
Y665117D01*
X308337Y665163D01*
X308746Y665642D01*
X309075Y666178D01*
X309316Y666760D01*
X309463Y667372D01*
X309500Y668000D01*
X309463Y668628D01*
X309316Y669240D01*
X309075Y669822D01*
X308746Y670358D01*
X308337Y670837D01*
X308284Y670883D01*
Y726269D01*
X308287Y726270D01*
X308355Y726309D01*
X308416Y726358D01*
X308469Y726417D01*
X308511Y726483D01*
X308674Y726808D01*
X308803Y727148D01*
X308901Y727498D01*
X308967Y727856D01*
X309000Y728218D01*
Y728582D01*
X308967Y728944D01*
X308901Y729302D01*
X308803Y729652D01*
X308674Y729992D01*
X308515Y730319D01*
X308472Y730385D01*
X308419Y730444D01*
X308357Y730494D01*
X308288Y730533D01*
X308284Y730535D01*
Y730621D01*
X308348Y730597D01*
X308698Y730499D01*
X309056Y730433D01*
X309418Y730400D01*
X309602D01*
Y558000D01*
G37*
G36*
X308284Y670883D02*X307858Y671246D01*
X307322Y671575D01*
X306740Y671816D01*
X306316Y671918D01*
Y724621D01*
X306592Y724726D01*
X306919Y724885D01*
X306985Y724928D01*
X307044Y724981D01*
X307094Y725043D01*
X307133Y725112D01*
X307161Y725186D01*
X307177Y725263D01*
X307181Y725342D01*
X307173Y725421D01*
X307152Y725497D01*
X307120Y725570D01*
X307077Y725636D01*
X307024Y725695D01*
X306962Y725744D01*
X306893Y725784D01*
X306819Y725812D01*
X306742Y725828D01*
X306663Y725832D01*
X306584Y725824D01*
X306507Y725803D01*
X306436Y725770D01*
X306316Y725709D01*
Y731092D01*
X306437Y731033D01*
X306509Y731000D01*
X306584Y730979D01*
X306663Y730971D01*
X306741Y730975D01*
X306818Y730991D01*
X306892Y731019D01*
X306960Y731058D01*
X307021Y731107D01*
X307074Y731166D01*
X307117Y731232D01*
X307149Y731304D01*
X307170Y731380D01*
X307178Y731458D01*
X307174Y731536D01*
X307158Y731613D01*
X307130Y731687D01*
X307091Y731755D01*
X307042Y731816D01*
X306983Y731869D01*
X306917Y731911D01*
X306592Y732074D01*
X306316Y732179D01*
Y732265D01*
X306386Y732239D01*
X306463Y732223D01*
X306542Y732219D01*
X306621Y732227D01*
X306697Y732248D01*
X306770Y732280D01*
X306836Y732323D01*
X306895Y732376D01*
X306944Y732438D01*
X306984Y732507D01*
X307012Y732581D01*
X307028Y732658D01*
X307032Y732737D01*
X307024Y732816D01*
X307003Y732893D01*
X306970Y732964D01*
X306847Y733207D01*
X306750Y733462D01*
X306677Y733724D01*
X306628Y733992D01*
X306603Y734264D01*
Y734536D01*
X306628Y734808D01*
X306677Y735076D01*
X306750Y735338D01*
X306847Y735593D01*
X306967Y735837D01*
X307000Y735909D01*
X307021Y735985D01*
X307029Y736063D01*
X307025Y736141D01*
X307009Y736218D01*
X306981Y736292D01*
X306942Y736360D01*
X306893Y736421D01*
X306834Y736474D01*
X306768Y736517D01*
X306696Y736549D01*
X306620Y736570D01*
X306542Y736578D01*
X306464Y736574D01*
X306387Y736558D01*
X306316Y736531D01*
Y746850D01*
X307612D01*
X307814Y746614D01*
X308149Y746328D01*
X308284Y746245D01*
Y738179D01*
X308008Y738074D01*
X307681Y737915D01*
X307615Y737872D01*
X307556Y737819D01*
X307506Y737757D01*
X307467Y737688D01*
X307439Y737614D01*
X307423Y737537D01*
X307419Y737458D01*
X307427Y737379D01*
X307448Y737303D01*
X307480Y737230D01*
X307523Y737164D01*
X307576Y737105D01*
X307638Y737056D01*
X307707Y737016D01*
X307781Y736988D01*
X307858Y736972D01*
X307937Y736968D01*
X308016Y736976D01*
X308093Y736997D01*
X308164Y737030D01*
X308284Y737091D01*
Y731708D01*
X308163Y731767D01*
X308091Y731800D01*
X308015Y731821D01*
X307937Y731829D01*
X307859Y731825D01*
X307782Y731809D01*
X307708Y731781D01*
X307640Y731742D01*
X307579Y731693D01*
X307526Y731634D01*
X307483Y731568D01*
X307451Y731496D01*
X307430Y731420D01*
X307422Y731342D01*
X307426Y731264D01*
X307442Y731187D01*
X307470Y731113D01*
X307509Y731045D01*
X307558Y730984D01*
X307617Y730931D01*
X307683Y730889D01*
X308008Y730726D01*
X308284Y730621D01*
Y730535D01*
X308214Y730561D01*
X308137Y730577D01*
X308058Y730581D01*
X307979Y730573D01*
X307903Y730552D01*
X307830Y730520D01*
X307764Y730477D01*
X307705Y730424D01*
X307656Y730362D01*
X307616Y730293D01*
X307588Y730219D01*
X307572Y730142D01*
X307568Y730063D01*
X307576Y729984D01*
X307597Y729907D01*
X307630Y729836D01*
X307753Y729593D01*
X307850Y729338D01*
X307923Y729076D01*
X307972Y728808D01*
X307997Y728536D01*
Y728264D01*
X307972Y727992D01*
X307923Y727724D01*
X307850Y727462D01*
X307753Y727207D01*
X307633Y726963D01*
X307600Y726891D01*
X307579Y726816D01*
X307571Y726737D01*
X307575Y726659D01*
X307591Y726582D01*
X307619Y726508D01*
X307658Y726440D01*
X307707Y726379D01*
X307766Y726326D01*
X307832Y726283D01*
X307904Y726251D01*
X307980Y726230D01*
X308058Y726222D01*
X308136Y726226D01*
X308213Y726242D01*
X308284Y726269D01*
Y670883D01*
G37*
G36*
Y652280D02*X308231Y652366D01*
X308129Y652486D01*
X308009Y652588D01*
X307875Y652671D01*
X307729Y652731D01*
X307669Y652745D01*
Y664638D01*
X307858Y664754D01*
X308284Y665117D01*
Y652280D01*
G37*
G36*
Y637467D02*X308259Y637488D01*
X308125Y637571D01*
X307979Y637631D01*
X307826Y637668D01*
X307669Y637677D01*
X306316Y637676D01*
Y643284D01*
X307576Y643286D01*
X307729Y643323D01*
X307875Y643383D01*
X308009Y643465D01*
X308129Y643567D01*
X308231Y643687D01*
X308284Y643774D01*
Y637467D01*
G37*
G36*
Y558000D02*X306316D01*
Y612185D01*
X307826Y612186D01*
X307979Y612223D01*
X308125Y612283D01*
X308259Y612365D01*
X308284Y612387D01*
Y558000D01*
G37*
G36*
X306316Y671918D02*X306128Y671963D01*
X305500Y672012D01*
X304872Y671963D01*
X304260Y671816D01*
X303678Y671575D01*
X303142Y671246D01*
X302854Y671000D01*
X301646D01*
X301358Y671246D01*
X301301Y671281D01*
Y726873D01*
X301326Y726808D01*
X301485Y726481D01*
X301528Y726415D01*
X301581Y726356D01*
X301643Y726306D01*
X301712Y726267D01*
X301786Y726239D01*
X301863Y726223D01*
X301942Y726219D01*
X302021Y726227D01*
X302097Y726248D01*
X302170Y726280D01*
X302236Y726323D01*
X302295Y726376D01*
X302344Y726438D01*
X302384Y726507D01*
X302412Y726581D01*
X302428Y726658D01*
X302432Y726737D01*
X302424Y726816D01*
X302403Y726893D01*
X302370Y726964D01*
X302247Y727207D01*
X302150Y727462D01*
X302077Y727724D01*
X302028Y727992D01*
X302003Y728264D01*
Y728536D01*
X302028Y728808D01*
X302077Y729076D01*
X302150Y729338D01*
X302247Y729593D01*
X302367Y729837D01*
X302400Y729909D01*
X302421Y729985D01*
X302429Y730063D01*
X302425Y730141D01*
X302409Y730218D01*
X302381Y730292D01*
X302342Y730360D01*
X302293Y730421D01*
X302234Y730474D01*
X302168Y730517D01*
X302096Y730549D01*
X302020Y730570D01*
X301942Y730578D01*
X301864Y730574D01*
X301787Y730558D01*
X301713Y730530D01*
X301645Y730491D01*
X301584Y730442D01*
X301531Y730383D01*
X301489Y730317D01*
X301461Y730262D01*
X301406Y730461D01*
X301301Y730736D01*
Y746850D01*
X306316D01*
Y736531D01*
X306313Y736530D01*
X306245Y736491D01*
X306184Y736442D01*
X306131Y736383D01*
X306089Y736317D01*
X305926Y735992D01*
X305797Y735652D01*
X305699Y735302D01*
X305633Y734944D01*
X305600Y734582D01*
Y734218D01*
X305633Y733856D01*
X305699Y733498D01*
X305797Y733148D01*
X305926Y732808D01*
X306085Y732481D01*
X306128Y732415D01*
X306181Y732356D01*
X306243Y732306D01*
X306312Y732267D01*
X306316Y732265D01*
Y732179D01*
X306252Y732203D01*
X305902Y732301D01*
X305544Y732367D01*
X305182Y732400D01*
X304818D01*
X304456Y732367D01*
X304098Y732301D01*
X303748Y732203D01*
X303408Y732074D01*
X303081Y731915D01*
X303015Y731872D01*
X302956Y731819D01*
X302906Y731757D01*
X302867Y731688D01*
X302839Y731614D01*
X302823Y731537D01*
X302819Y731458D01*
X302827Y731379D01*
X302848Y731303D01*
X302880Y731230D01*
X302923Y731164D01*
X302976Y731105D01*
X303038Y731056D01*
X303107Y731016D01*
X303181Y730988D01*
X303258Y730972D01*
X303337Y730968D01*
X303416Y730976D01*
X303493Y730997D01*
X303564Y731030D01*
X303807Y731153D01*
X304062Y731250D01*
X304324Y731323D01*
X304592Y731372D01*
X304864Y731397D01*
X305136D01*
X305408Y731372D01*
X305676Y731323D01*
X305938Y731250D01*
X306193Y731153D01*
X306316Y731092D01*
Y725709D01*
X306193Y725647D01*
X305938Y725550D01*
X305676Y725477D01*
X305408Y725428D01*
X305136Y725403D01*
X304864D01*
X304592Y725428D01*
X304324Y725477D01*
X304062Y725550D01*
X303807Y725647D01*
X303563Y725767D01*
X303491Y725800D01*
X303415Y725821D01*
X303337Y725829D01*
X303259Y725825D01*
X303182Y725809D01*
X303108Y725781D01*
X303040Y725742D01*
X302979Y725693D01*
X302926Y725634D01*
X302883Y725568D01*
X302851Y725496D01*
X302830Y725420D01*
X302822Y725342D01*
X302826Y725264D01*
X302842Y725187D01*
X302870Y725113D01*
X302909Y725045D01*
X302958Y724984D01*
X303017Y724931D01*
X303083Y724889D01*
X303408Y724726D01*
X303748Y724597D01*
X304098Y724499D01*
X304456Y724433D01*
X304818Y724400D01*
X305182D01*
X305544Y724433D01*
X305902Y724499D01*
X306252Y724597D01*
X306316Y724621D01*
Y671918D01*
G37*
G36*
X301301Y671281D02*X300822Y671575D01*
X300240Y671816D01*
X299628Y671963D01*
X299000Y672012D01*
X298372Y671963D01*
X297760Y671816D01*
X297604Y671751D01*
Y725209D01*
X297784D01*
X298146Y725242D01*
X298504Y725307D01*
X298854Y725405D01*
X299194Y725535D01*
X299521Y725694D01*
X299587Y725737D01*
X299646Y725790D01*
X299696Y725852D01*
X299735Y725920D01*
X299764Y725994D01*
X299780Y726072D01*
X299784Y726151D01*
X299775Y726230D01*
X299755Y726306D01*
X299722Y726378D01*
X299679Y726445D01*
X299626Y726503D01*
X299564Y726553D01*
X299496Y726593D01*
X299422Y726621D01*
X299344Y726637D01*
X299265Y726641D01*
X299186Y726633D01*
X299110Y726612D01*
X299038Y726578D01*
X298795Y726456D01*
X298540Y726359D01*
X298278Y726286D01*
X298010Y726236D01*
X297739Y726212D01*
X297604D01*
Y732206D01*
X297739D01*
X298010Y732181D01*
X298278Y732132D01*
X298540Y732058D01*
X298795Y731961D01*
X299040Y731842D01*
X299111Y731808D01*
X299187Y731788D01*
X299265Y731779D01*
X299344Y731783D01*
X299421Y731800D01*
X299494Y731828D01*
X299563Y731867D01*
X299624Y731916D01*
X299677Y731975D01*
X299720Y732040D01*
X299752Y732112D01*
X299772Y732188D01*
X299781Y732266D01*
X299777Y732345D01*
X299761Y732422D01*
X299733Y732496D01*
X299693Y732564D01*
X299644Y732625D01*
X299586Y732678D01*
X299519Y732720D01*
X299194Y732883D01*
X298854Y733012D01*
X298504Y733110D01*
X298146Y733176D01*
X297784Y733209D01*
X297604D01*
Y746850D01*
X301301D01*
Y730736D01*
X301276Y730800D01*
X301117Y731127D01*
X301074Y731194D01*
X301021Y731253D01*
X300959Y731302D01*
X300891Y731342D01*
X300817Y731370D01*
X300739Y731386D01*
X300660Y731390D01*
X300581Y731382D01*
X300505Y731361D01*
X300433Y731329D01*
X300366Y731285D01*
X300308Y731232D01*
X300258Y731171D01*
X300218Y731102D01*
X300190Y731028D01*
X300174Y730950D01*
X300170Y730871D01*
X300178Y730793D01*
X300199Y730716D01*
X300233Y730645D01*
X300355Y730401D01*
X300452Y730147D01*
X300525Y729884D01*
X300575Y729616D01*
X300599Y729345D01*
Y729072D01*
X300575Y728801D01*
X300525Y728533D01*
X300452Y728271D01*
X300355Y728016D01*
X300236Y727771D01*
X300202Y727700D01*
X300182Y727624D01*
X300173Y727546D01*
X300177Y727467D01*
X300193Y727390D01*
X300221Y727317D01*
X300260Y727249D01*
X300310Y727187D01*
X300368Y727134D01*
X300434Y727091D01*
X300506Y727059D01*
X300582Y727039D01*
X300660Y727030D01*
X300739Y727034D01*
X300816Y727050D01*
X300889Y727078D01*
X300958Y727118D01*
X301019Y727167D01*
X301072Y727225D01*
X301113Y727292D01*
X301141Y727347D01*
X301197Y727148D01*
X301301Y726873D01*
Y671281D01*
G37*
G36*
X306316Y637676D02*X297604Y637673D01*
Y664249D01*
X297760Y664184D01*
X298372Y664037D01*
X299000Y663988D01*
X299628Y664037D01*
X300240Y664184D01*
X300822Y664425D01*
X301358Y664754D01*
X301646Y665000D01*
X301669D01*
Y652745D01*
X301609Y652731D01*
X301464Y652671D01*
X301330Y652588D01*
X301210Y652486D01*
X301108Y652366D01*
X301026Y652232D01*
X300965Y652087D01*
X300929Y651934D01*
X300919Y651777D01*
X300929Y644120D01*
X300965Y643967D01*
X301026Y643821D01*
X301108Y643687D01*
X301210Y643567D01*
X301330Y643465D01*
X301464Y643383D01*
X301609Y643323D01*
X301762Y643286D01*
X301919Y643277D01*
X306316Y643284D01*
Y637676D01*
G37*
G36*
Y558000D02*X297604D01*
Y579962D01*
X297839Y580059D01*
X298395Y580400D01*
X298892Y580824D01*
X299316Y581321D01*
X299658Y581878D01*
X299908Y582481D01*
X300060Y583117D01*
X300098Y583768D01*
X300060Y584419D01*
X299908Y585054D01*
X299658Y585657D01*
X299316Y586214D01*
X298892Y586711D01*
X298395Y587135D01*
X297839Y587476D01*
X297604Y587574D01*
Y612182D01*
X306316Y612185D01*
Y558000D01*
G37*
G36*
X297604Y750350D02*X286393D01*
Y752631D01*
X286749Y752778D01*
X287353Y753148D01*
X287892Y753608D01*
X288352Y754147D01*
X288722Y754751D01*
X288993Y755405D01*
X289158Y756094D01*
X289200Y756800D01*
X289158Y757506D01*
X288993Y758195D01*
X288722Y758849D01*
X288352Y759453D01*
X287892Y759992D01*
X287353Y760452D01*
X286749Y760822D01*
X286393Y760969D01*
Y762631D01*
X286749Y762778D01*
X287353Y763148D01*
X287892Y763608D01*
X288352Y764147D01*
X288722Y764751D01*
X288993Y765405D01*
X289158Y766094D01*
X289200Y766800D01*
X289158Y767506D01*
X288993Y768195D01*
X288722Y768849D01*
X288352Y769453D01*
X287892Y769992D01*
X287353Y770452D01*
X286749Y770822D01*
X286393Y770969D01*
Y772000D01*
X297604D01*
Y770238D01*
X297353Y770452D01*
X296749Y770822D01*
X296095Y771093D01*
X295406Y771258D01*
X294700Y771314D01*
X293994Y771258D01*
X293305Y771093D01*
X292651Y770822D01*
X292047Y770452D01*
X291508Y769992D01*
X291048Y769453D01*
X290678Y768849D01*
X290407Y768195D01*
X290242Y767506D01*
X290186Y766800D01*
X290242Y766094D01*
X290407Y765405D01*
X290678Y764751D01*
X291048Y764147D01*
X291508Y763608D01*
X292047Y763148D01*
X292651Y762778D01*
X293305Y762507D01*
X293994Y762342D01*
X294700Y762286D01*
X295406Y762342D01*
X296095Y762507D01*
X296749Y762778D01*
X297353Y763148D01*
X297604Y763362D01*
Y750350D01*
G37*
G36*
Y671751D02*X297178Y671575D01*
X296642Y671246D01*
X296354Y671000D01*
X295146D01*
X294858Y671246D01*
X294322Y671575D01*
X294319Y671576D01*
Y727074D01*
X294388Y727047D01*
X294466Y727031D01*
X294545Y727027D01*
X294623Y727036D01*
X294700Y727056D01*
X294772Y727089D01*
X294838Y727132D01*
X294897Y727185D01*
X294947Y727247D01*
X294986Y727315D01*
X295014Y727389D01*
X295031Y727467D01*
X295035Y727546D01*
X295026Y727625D01*
X295006Y727701D01*
X294972Y727773D01*
X294850Y728016D01*
X294753Y728271D01*
X294679Y728533D01*
X294630Y728801D01*
X294605Y729072D01*
Y729345D01*
X294630Y729616D01*
X294679Y729884D01*
X294753Y730147D01*
X294850Y730401D01*
X294969Y730646D01*
X295003Y730717D01*
X295023Y730793D01*
X295032Y730871D01*
X295028Y730950D01*
X295011Y731027D01*
X294983Y731101D01*
X294944Y731169D01*
X294895Y731230D01*
X294837Y731283D01*
X294771Y731326D01*
X294699Y731358D01*
X294623Y731379D01*
X294545Y731387D01*
X294466Y731383D01*
X294389Y731367D01*
X294319Y731340D01*
Y746850D01*
X297604D01*
Y733209D01*
X297421D01*
X297058Y733176D01*
X296701Y733110D01*
X296350Y733012D01*
X296011Y732883D01*
X295684Y732723D01*
X295617Y732680D01*
X295558Y732627D01*
X295509Y732566D01*
X295469Y732497D01*
X295441Y732423D01*
X295425Y732345D01*
X295421Y732266D01*
X295429Y732188D01*
X295450Y732111D01*
X295482Y732039D01*
X295526Y731973D01*
X295579Y731914D01*
X295640Y731864D01*
X295709Y731825D01*
X295783Y731797D01*
X295861Y731780D01*
X295940Y731776D01*
X296018Y731785D01*
X296095Y731805D01*
X296166Y731839D01*
X296410Y731961D01*
X296664Y732058D01*
X296927Y732132D01*
X297195Y732181D01*
X297466Y732206D01*
X297604D01*
Y726212D01*
X297466D01*
X297195Y726236D01*
X296927Y726286D01*
X296664Y726359D01*
X296410Y726456D01*
X296165Y726575D01*
X296094Y726609D01*
X296018Y726630D01*
X295940Y726638D01*
X295861Y726634D01*
X295784Y726618D01*
X295710Y726590D01*
X295642Y726551D01*
X295581Y726501D01*
X295528Y726443D01*
X295485Y726377D01*
X295453Y726305D01*
X295432Y726229D01*
X295424Y726151D01*
X295428Y726072D01*
X295444Y725995D01*
X295472Y725922D01*
X295511Y725853D01*
X295561Y725792D01*
X295619Y725739D01*
X295686Y725698D01*
X296011Y725535D01*
X296350Y725405D01*
X296701Y725307D01*
X297058Y725242D01*
X297421Y725209D01*
X297604D01*
Y671751D01*
G37*
G36*
X294319Y671576D02*X293740Y671816D01*
X293128Y671963D01*
X292500Y672012D01*
X291872Y671963D01*
X291260Y671816D01*
X290678Y671575D01*
X290142Y671246D01*
X289854Y671000D01*
X288146D01*
X287858Y671246D01*
X287322Y671575D01*
X286740Y671816D01*
X286393Y671899D01*
Y746850D01*
X294319D01*
Y731340D01*
X294315Y731339D01*
X294247Y731300D01*
X294186Y731250D01*
X294133Y731192D01*
X294091Y731125D01*
X293928Y730800D01*
X293799Y730461D01*
X293701Y730110D01*
X293635Y729753D01*
X293602Y729390D01*
Y729027D01*
X293635Y728665D01*
X293701Y728307D01*
X293799Y727957D01*
X293928Y727617D01*
X294088Y727290D01*
X294131Y727224D01*
X294184Y727165D01*
X294245Y727115D01*
X294314Y727076D01*
X294319Y727074D01*
Y671576D01*
G37*
G36*
X297604Y637673D02*X286393Y637669D01*
Y643281D01*
X289576Y643286D01*
X289729Y643323D01*
X289875Y643383D01*
X290009Y643465D01*
X290129Y643567D01*
X290231Y643687D01*
X290313Y643821D01*
X290373Y643967D01*
X290410Y644120D01*
X290419Y644277D01*
X290410Y651934D01*
X290373Y652087D01*
X290313Y652232D01*
X290231Y652366D01*
X290129Y652486D01*
X290009Y652588D01*
X289875Y652671D01*
X289729Y652731D01*
X289669Y652745D01*
Y665000D01*
X289854D01*
X290142Y664754D01*
X290678Y664425D01*
X291260Y664184D01*
X291872Y664037D01*
X292500Y663988D01*
X293128Y664037D01*
X293740Y664184D01*
X294322Y664425D01*
X294858Y664754D01*
X295146Y665000D01*
X296354D01*
X296642Y664754D01*
X297178Y664425D01*
X297604Y664249D01*
Y637673D01*
G37*
G36*
Y558000D02*X286393D01*
Y597250D01*
X287777D01*
X287968Y597080D01*
X288203Y596936D01*
X288458Y596831D01*
X288725Y596766D01*
X289000Y596745D01*
X289275Y596766D01*
X289542Y596831D01*
X289797Y596936D01*
X290032Y597080D01*
X290241Y597259D01*
X290420Y597468D01*
X290564Y597703D01*
X290669Y597958D01*
X290734Y598225D01*
X290755Y598500D01*
X290734Y598775D01*
X290669Y599042D01*
X290564Y599297D01*
X290420Y599532D01*
X290237Y599737D01*
X289786Y600189D01*
X289741Y600241D01*
X289532Y600420D01*
X289297Y600564D01*
X289042Y600669D01*
X288775Y600734D01*
X288774Y600734D01*
X288500Y600755D01*
X288431Y600750D01*
X286393D01*
Y611799D01*
X295455D01*
X295543Y611792D01*
X295896Y611820D01*
X296241Y611903D01*
X296337Y611942D01*
X296568Y612038D01*
X296755Y612153D01*
X296802Y612182D01*
X297604Y612182D01*
Y587574D01*
X297235Y587726D01*
X296600Y587879D01*
X295949Y587930D01*
X295298Y587879D01*
X294663Y587726D01*
X294059Y587476D01*
X293502Y587135D01*
X293006Y586711D01*
X292581Y586214D01*
X292240Y585657D01*
X291990Y585054D01*
X291838Y584419D01*
X291786Y583768D01*
X291838Y583117D01*
X291990Y582481D01*
X292240Y581878D01*
X292581Y581321D01*
X293006Y580824D01*
X293502Y580400D01*
X294059Y580059D01*
X294663Y579809D01*
X295298Y579657D01*
X295949Y579605D01*
X296600Y579657D01*
X297235Y579809D01*
X297604Y579962D01*
Y558000D01*
G37*
G36*
X274693Y609173D02*X274740Y609184D01*
X275322Y609425D01*
X275858Y609754D01*
X276337Y610163D01*
X276746Y610642D01*
X277075Y611178D01*
X277316Y611760D01*
X277325Y611799D01*
X286393D01*
Y600750D01*
X285595D01*
X285593Y602109D01*
X285556Y602262D01*
X285496Y602407D01*
X285414Y602542D01*
X285311Y602661D01*
X285192Y602764D01*
X285057Y602846D01*
X284912Y602906D01*
X284759Y602943D01*
X284602Y602952D01*
X279327Y602943D01*
X279174Y602906D01*
X279029Y602846D01*
X278894Y602764D01*
X278775Y602661D01*
X278672Y602542D01*
X278590Y602407D01*
X278530Y602262D01*
X278500Y602137D01*
X278470Y602262D01*
X278410Y602407D01*
X278328Y602542D01*
X278225Y602661D01*
X278106Y602764D01*
X277971Y602846D01*
X277826Y602906D01*
X277673Y602943D01*
X277516Y602952D01*
X274693Y602947D01*
Y609173D01*
G37*
G36*
Y746850D02*X286393D01*
Y671899D01*
X286128Y671963D01*
X285500Y672012D01*
X284872Y671963D01*
X284260Y671816D01*
X283678Y671575D01*
X283142Y671246D01*
X282663Y670837D01*
X282254Y670358D01*
X281925Y669822D01*
X281684Y669240D01*
X281537Y668628D01*
X281488Y668000D01*
X281537Y667372D01*
X281684Y666760D01*
X281925Y666178D01*
X282254Y665642D01*
X282663Y665163D01*
X283142Y664754D01*
X283669Y664431D01*
Y652745D01*
X283609Y652731D01*
X283464Y652671D01*
X283330Y652588D01*
X283210Y652486D01*
X283108Y652366D01*
X283026Y652232D01*
X282965Y652087D01*
X282929Y651934D01*
X282919Y651777D01*
X282929Y644120D01*
X282965Y643967D01*
X283026Y643821D01*
X283108Y643687D01*
X283210Y643567D01*
X283330Y643465D01*
X283464Y643383D01*
X283609Y643323D01*
X283762Y643286D01*
X283919Y643277D01*
X286393Y643281D01*
Y637669D01*
X283512Y637668D01*
X283359Y637631D01*
X283214Y637571D01*
X283080Y637488D01*
X282960Y637386D01*
X282858Y637266D01*
X282776Y637132D01*
X282715Y636987D01*
X282679Y636834D01*
X282669Y636677D01*
X282675Y622260D01*
X275836D01*
X275322Y622575D01*
X274740Y622816D01*
X274693Y622827D01*
Y746850D01*
G37*
G36*
Y772000D02*X286393D01*
Y770969D01*
X286095Y771093D01*
X285406Y771258D01*
X284700Y771314D01*
X283994Y771258D01*
X283305Y771093D01*
X282651Y770822D01*
X282047Y770452D01*
X281508Y769992D01*
X281048Y769453D01*
X280678Y768849D01*
X280407Y768195D01*
X280242Y767506D01*
X280186Y766800D01*
X280242Y766094D01*
X280407Y765405D01*
X280678Y764751D01*
X281048Y764147D01*
X281508Y763608D01*
X282047Y763148D01*
X282651Y762778D01*
X283305Y762507D01*
X283994Y762342D01*
X284700Y762286D01*
X285406Y762342D01*
X286095Y762507D01*
X286393Y762631D01*
Y760969D01*
X286095Y761093D01*
X285406Y761258D01*
X284700Y761314D01*
X283994Y761258D01*
X283305Y761093D01*
X282651Y760822D01*
X282047Y760452D01*
X281508Y759992D01*
X281048Y759453D01*
X280678Y758849D01*
X280407Y758195D01*
X280242Y757506D01*
X280186Y756800D01*
X280242Y756094D01*
X280407Y755405D01*
X280678Y754751D01*
X281048Y754147D01*
X281508Y753608D01*
X282047Y753148D01*
X282651Y752778D01*
X283305Y752507D01*
X283994Y752342D01*
X284700Y752286D01*
X285406Y752342D01*
X286095Y752507D01*
X286393Y752631D01*
Y750350D01*
X274693D01*
Y752287D01*
X274700Y752286D01*
X275406Y752342D01*
X276095Y752507D01*
X276749Y752778D01*
X277353Y753148D01*
X277892Y753608D01*
X278352Y754147D01*
X278722Y754751D01*
X278993Y755405D01*
X279158Y756094D01*
X279200Y756800D01*
X279158Y757506D01*
X278993Y758195D01*
X278722Y758849D01*
X278352Y759453D01*
X277892Y759992D01*
X277353Y760452D01*
X276749Y760822D01*
X276095Y761093D01*
X275406Y761258D01*
X274700Y761314D01*
X274693Y761313D01*
Y762287D01*
X274700Y762286D01*
X275406Y762342D01*
X276095Y762507D01*
X276749Y762778D01*
X277353Y763148D01*
X277892Y763608D01*
X278352Y764147D01*
X278722Y764751D01*
X278993Y765405D01*
X279158Y766094D01*
X279200Y766800D01*
X279158Y767506D01*
X278993Y768195D01*
X278722Y768849D01*
X278352Y769453D01*
X277892Y769992D01*
X277353Y770452D01*
X276749Y770822D01*
X276095Y771093D01*
X275406Y771258D01*
X274700Y771314D01*
X274693Y771313D01*
Y772000D01*
G37*
G36*
X286393Y558000D02*X274693D01*
Y595052D01*
X277673Y595057D01*
X277826Y595094D01*
X277971Y595154D01*
X278106Y595236D01*
X278225Y595339D01*
X278328Y595458D01*
X278410Y595593D01*
X278470Y595738D01*
X278500Y595863D01*
X278530Y595738D01*
X278590Y595593D01*
X278672Y595458D01*
X278775Y595339D01*
X278894Y595236D01*
X279029Y595154D01*
X279174Y595094D01*
X279327Y595057D01*
X279484Y595048D01*
X284759Y595057D01*
X284912Y595094D01*
X285057Y595154D01*
X285192Y595236D01*
X285311Y595339D01*
X285414Y595458D01*
X285496Y595593D01*
X285556Y595738D01*
X285593Y595891D01*
X285602Y596048D01*
X285600Y597250D01*
X286393D01*
Y558000D01*
G37*
G36*
X274693D02*X254693D01*
Y622017D01*
X254725Y621997D01*
X255132Y621829D01*
X255561Y621726D01*
X256000Y621691D01*
X256439Y621726D01*
X256868Y621829D01*
X257275Y621997D01*
X257651Y622228D01*
X257986Y622514D01*
X258272Y622849D01*
X258503Y623225D01*
X258671Y623632D01*
X258774Y624061D01*
X258800Y624500D01*
X258774Y624939D01*
X258671Y625368D01*
X258503Y625775D01*
X258272Y626151D01*
X257986Y626486D01*
X257651Y626772D01*
X257275Y627003D01*
X256868Y627171D01*
X256439Y627274D01*
X256000Y627309D01*
X255561Y627274D01*
X255132Y627171D01*
X254725Y627003D01*
X254693Y626983D01*
Y752287D01*
X254700Y752286D01*
X255406Y752342D01*
X256095Y752507D01*
X256749Y752778D01*
X257353Y753148D01*
X257892Y753608D01*
X258352Y754147D01*
X258722Y754751D01*
X258993Y755405D01*
X259158Y756094D01*
X259200Y756800D01*
X259158Y757506D01*
X258993Y758195D01*
X258722Y758849D01*
X258352Y759453D01*
X257892Y759992D01*
X257353Y760452D01*
X256749Y760822D01*
X256095Y761093D01*
X255406Y761258D01*
X254700Y761314D01*
X254693Y761313D01*
Y762287D01*
X254700Y762286D01*
X255406Y762342D01*
X256095Y762507D01*
X256749Y762778D01*
X257353Y763148D01*
X257892Y763608D01*
X258352Y764147D01*
X258722Y764751D01*
X258993Y765405D01*
X259158Y766094D01*
X259200Y766800D01*
X259158Y767506D01*
X258993Y768195D01*
X258722Y768849D01*
X258352Y769453D01*
X257892Y769992D01*
X257353Y770452D01*
X256749Y770822D01*
X256095Y771093D01*
X255406Y771258D01*
X254700Y771314D01*
X254693Y771313D01*
Y772000D01*
X274693D01*
Y771313D01*
X273994Y771258D01*
X273305Y771093D01*
X272651Y770822D01*
X272047Y770452D01*
X271508Y769992D01*
X271048Y769453D01*
X270678Y768849D01*
X270407Y768195D01*
X270242Y767506D01*
X270186Y766800D01*
X270242Y766094D01*
X270407Y765405D01*
X270678Y764751D01*
X271048Y764147D01*
X271508Y763608D01*
X272047Y763148D01*
X272651Y762778D01*
X273305Y762507D01*
X273994Y762342D01*
X274693Y762287D01*
Y761313D01*
X273994Y761258D01*
X273305Y761093D01*
X272651Y760822D01*
X272047Y760452D01*
X271508Y759992D01*
X271048Y759453D01*
X270678Y758849D01*
X270407Y758195D01*
X270242Y757506D01*
X270186Y756800D01*
X270242Y756094D01*
X270407Y755405D01*
X270678Y754751D01*
X271048Y754147D01*
X271508Y753608D01*
X272047Y753148D01*
X272651Y752778D01*
X273305Y752507D01*
X273994Y752342D01*
X274693Y752287D01*
Y750350D01*
X273625D01*
X268869Y755106D01*
X268993Y755405D01*
X269158Y756094D01*
X269200Y756800D01*
X269158Y757506D01*
X268993Y758195D01*
X268722Y758849D01*
X268352Y759453D01*
X267892Y759992D01*
X267353Y760452D01*
X266749Y760822D01*
X266095Y761093D01*
X265406Y761258D01*
X264700Y761314D01*
X263994Y761258D01*
X263305Y761093D01*
X262651Y760822D01*
X262047Y760452D01*
X261508Y759992D01*
X261048Y759453D01*
X260678Y758849D01*
X260407Y758195D01*
X260242Y757506D01*
X260186Y756800D01*
X260242Y756094D01*
X260407Y755405D01*
X260678Y754751D01*
X261048Y754147D01*
X261508Y753608D01*
X262047Y753148D01*
X262651Y752778D01*
X263305Y752507D01*
X263994Y752342D01*
X264700Y752286D01*
X265406Y752342D01*
X266095Y752507D01*
X266394Y752631D01*
X271614Y747411D01*
X271659Y747359D01*
X271868Y747180D01*
X272103Y747036D01*
X272358Y746931D01*
X272625Y746866D01*
X272626Y746866D01*
X272900Y746845D01*
X272969Y746850D01*
X274693D01*
Y622827D01*
X274128Y622963D01*
X273500Y623012D01*
X272872Y622963D01*
X272260Y622816D01*
X271678Y622575D01*
X271142Y622246D01*
X270663Y621837D01*
X270254Y621358D01*
X269925Y620822D01*
X269858Y620661D01*
X269494Y620234D01*
X269088Y619571D01*
X268790Y618853D01*
X268609Y618098D01*
X268548Y617323D01*
X268609Y616548D01*
X268790Y615793D01*
X269088Y615075D01*
X269494Y614412D01*
X269674Y614200D01*
X269537Y613628D01*
X269488Y613000D01*
X269537Y612372D01*
X269684Y611760D01*
X269925Y611178D01*
X270254Y610642D01*
X270663Y610163D01*
X271142Y609754D01*
X271678Y609425D01*
X272260Y609184D01*
X272872Y609037D01*
X273500Y608988D01*
X274128Y609037D01*
X274693Y609173D01*
Y602947D01*
X272241Y602943D01*
X272088Y602906D01*
X271943Y602846D01*
X271808Y602764D01*
X271689Y602661D01*
X271586Y602542D01*
X271504Y602407D01*
X271444Y602262D01*
X271407Y602109D01*
X271398Y601952D01*
X271400Y600750D01*
X270725D01*
X269450Y602025D01*
X269943Y602446D01*
X270367Y602943D01*
X270709Y603500D01*
X270959Y604104D01*
X271111Y604739D01*
X271150Y605390D01*
X271111Y606041D01*
X270959Y606676D01*
X270709Y607279D01*
X270367Y607836D01*
X269943Y608333D01*
X269447Y608757D01*
X268890Y609098D01*
X268286Y609348D01*
X267651Y609501D01*
X267000Y609552D01*
X266349Y609501D01*
X265714Y609348D01*
X265110Y609098D01*
X264553Y608757D01*
X264057Y608333D01*
X263633Y607836D01*
X263291Y607279D01*
X263041Y606676D01*
X262889Y606041D01*
X262838Y605390D01*
X262889Y604739D01*
X263041Y604104D01*
X263291Y603500D01*
X263633Y602943D01*
X264057Y602446D01*
X264553Y602022D01*
X265110Y601681D01*
X265295Y601604D01*
X265331Y601458D01*
X265436Y601203D01*
X265580Y600968D01*
X265759Y600759D01*
X265811Y600714D01*
X268714Y597811D01*
X268759Y597759D01*
X268968Y597580D01*
X269203Y597436D01*
X269458Y597331D01*
X269725Y597266D01*
X269726Y597266D01*
X270000Y597245D01*
X270069Y597250D01*
X271405D01*
X271407Y595891D01*
X271444Y595738D01*
X271504Y595593D01*
X271586Y595458D01*
X271689Y595339D01*
X271808Y595236D01*
X271943Y595154D01*
X272088Y595094D01*
X272241Y595057D01*
X272398Y595048D01*
X274693Y595052D01*
Y558000D01*
G37*
G36*
X254693Y626983D02*X254349Y626772D01*
X254014Y626486D01*
X253812Y626250D01*
X248188D01*
X247986Y626486D01*
X247651Y626772D01*
X247275Y627003D01*
X246868Y627171D01*
X246439Y627274D01*
X246000Y627309D01*
X245561Y627274D01*
X245132Y627171D01*
X244725Y627003D01*
X244433Y626824D01*
Y641589D01*
X247590Y641590D01*
X247743Y641627D01*
X247888Y641687D01*
X248023Y641769D01*
X248142Y641871D01*
X248245Y641991D01*
X248327Y642125D01*
X248387Y642271D01*
X248424Y642424D01*
X248433Y642581D01*
X248424Y666238D01*
X248387Y666391D01*
X248327Y666536D01*
X248245Y666670D01*
X248142Y666790D01*
X248023Y666892D01*
X247888Y666974D01*
X247743Y667035D01*
X247590Y667071D01*
X247433Y667081D01*
X244433Y667080D01*
Y672685D01*
X247340Y672690D01*
X247493Y672727D01*
X247638Y672787D01*
X247773Y672869D01*
X247892Y672971D01*
X247995Y673091D01*
X248077Y673225D01*
X248137Y673371D01*
X248174Y673524D01*
X248183Y673681D01*
X248174Y681338D01*
X248137Y681491D01*
X248077Y681636D01*
X247995Y681770D01*
X247892Y681890D01*
X247773Y681992D01*
X247638Y682074D01*
X247493Y682135D01*
X247340Y682171D01*
X247288Y682175D01*
Y690551D01*
X247262Y690991D01*
X247159Y691419D01*
X246991Y691826D01*
X246760Y692202D01*
X246474Y692537D01*
X246139Y692823D01*
X245763Y693054D01*
X245356Y693222D01*
X244928Y693325D01*
X244488Y693360D01*
X244433Y693355D01*
Y752307D01*
X244700Y752286D01*
X245406Y752342D01*
X246095Y752507D01*
X246749Y752778D01*
X247353Y753148D01*
X247892Y753608D01*
X248352Y754147D01*
X248722Y754751D01*
X248993Y755405D01*
X249158Y756094D01*
X249200Y756800D01*
X249158Y757506D01*
X248993Y758195D01*
X248722Y758849D01*
X248352Y759453D01*
X247892Y759992D01*
X247353Y760452D01*
X246749Y760822D01*
X246095Y761093D01*
X245406Y761258D01*
X244700Y761314D01*
X244433Y761293D01*
Y762307D01*
X244700Y762286D01*
X245406Y762342D01*
X246095Y762507D01*
X246749Y762778D01*
X247353Y763148D01*
X247892Y763608D01*
X248352Y764147D01*
X248722Y764751D01*
X248993Y765405D01*
X249158Y766094D01*
X249200Y766800D01*
X249158Y767506D01*
X248993Y768195D01*
X248722Y768849D01*
X248352Y769453D01*
X247892Y769992D01*
X247353Y770452D01*
X246749Y770822D01*
X246095Y771093D01*
X245406Y771258D01*
X244700Y771314D01*
X244433Y771293D01*
Y772000D01*
X254693D01*
Y771313D01*
X253994Y771258D01*
X253305Y771093D01*
X252651Y770822D01*
X252047Y770452D01*
X251508Y769992D01*
X251048Y769453D01*
X250678Y768849D01*
X250407Y768195D01*
X250242Y767506D01*
X250186Y766800D01*
X250242Y766094D01*
X250407Y765405D01*
X250678Y764751D01*
X251048Y764147D01*
X251508Y763608D01*
X252047Y763148D01*
X252651Y762778D01*
X253305Y762507D01*
X253994Y762342D01*
X254693Y762287D01*
Y761313D01*
X253994Y761258D01*
X253305Y761093D01*
X252651Y760822D01*
X252047Y760452D01*
X251508Y759992D01*
X251048Y759453D01*
X250678Y758849D01*
X250407Y758195D01*
X250242Y757506D01*
X250186Y756800D01*
X250242Y756094D01*
X250407Y755405D01*
X250678Y754751D01*
X251048Y754147D01*
X251508Y753608D01*
X252047Y753148D01*
X252651Y752778D01*
X253305Y752507D01*
X253994Y752342D01*
X254693Y752287D01*
Y626983D01*
G37*
G36*
Y558000D02*X244433D01*
Y622176D01*
X244725Y621997D01*
X245132Y621829D01*
X245561Y621726D01*
X246000Y621691D01*
X246439Y621726D01*
X246868Y621829D01*
X247275Y621997D01*
X247651Y622228D01*
X247986Y622514D01*
X248188Y622750D01*
X253812D01*
X254014Y622514D01*
X254349Y622228D01*
X254693Y622017D01*
Y558000D01*
G37*
G36*
X244433Y667080D02*X234693Y667076D01*
Y752287D01*
X234700Y752286D01*
X235406Y752342D01*
X236095Y752507D01*
X236749Y752778D01*
X237353Y753148D01*
X237892Y753608D01*
X238352Y754147D01*
X238722Y754751D01*
X238993Y755405D01*
X239158Y756094D01*
X239200Y756800D01*
X239158Y757506D01*
X238993Y758195D01*
X238722Y758849D01*
X238352Y759453D01*
X237892Y759992D01*
X237353Y760452D01*
X236749Y760822D01*
X236095Y761093D01*
X235406Y761258D01*
X234700Y761314D01*
X234693Y761313D01*
Y772000D01*
X244433D01*
Y771293D01*
X243994Y771258D01*
X243305Y771093D01*
X242651Y770822D01*
X242047Y770452D01*
X241508Y769992D01*
X241048Y769453D01*
X240678Y768849D01*
X240407Y768195D01*
X240242Y767506D01*
X240186Y766800D01*
X240242Y766094D01*
X240407Y765405D01*
X240678Y764751D01*
X241048Y764147D01*
X241508Y763608D01*
X242047Y763148D01*
X242651Y762778D01*
X243305Y762507D01*
X243994Y762342D01*
X244433Y762307D01*
Y761293D01*
X243994Y761258D01*
X243305Y761093D01*
X242651Y760822D01*
X242047Y760452D01*
X241508Y759992D01*
X241048Y759453D01*
X240678Y758849D01*
X240407Y758195D01*
X240242Y757506D01*
X240186Y756800D01*
X240242Y756094D01*
X240407Y755405D01*
X240678Y754751D01*
X241048Y754147D01*
X241508Y753608D01*
X242047Y753148D01*
X242651Y752778D01*
X243305Y752507D01*
X243994Y752342D01*
X244433Y752307D01*
Y693355D01*
X244049Y693325D01*
X243620Y693222D01*
X243213Y693054D01*
X242837Y692823D01*
X242502Y692537D01*
X242216Y692202D01*
X241986Y691826D01*
X241817Y691419D01*
X241714Y690991D01*
X241688Y690551D01*
Y682172D01*
X241526Y682171D01*
X241373Y682135D01*
X241228Y682074D01*
X241093Y681992D01*
X240974Y681890D01*
X240872Y681770D01*
X240789Y681636D01*
X240729Y681491D01*
X240692Y681338D01*
X240683Y681181D01*
X240692Y673524D01*
X240729Y673371D01*
X240789Y673225D01*
X240872Y673091D01*
X240974Y672971D01*
X241093Y672869D01*
X241228Y672787D01*
X241373Y672727D01*
X241526Y672690D01*
X241683Y672681D01*
X244433Y672685D01*
Y667080D01*
G37*
G36*
X234693Y667076D02*X226433Y667073D01*
Y672685D01*
X229340Y672690D01*
X229493Y672727D01*
X229638Y672787D01*
X229773Y672869D01*
X229892Y672971D01*
X229995Y673091D01*
X230077Y673225D01*
X230137Y673371D01*
X230174Y673524D01*
X230183Y673681D01*
X230174Y681338D01*
X230137Y681491D01*
X230077Y681636D01*
X229995Y681770D01*
X229892Y681890D01*
X229773Y681992D01*
X229638Y682074D01*
X229493Y682135D01*
X229340Y682171D01*
X229183Y682181D01*
X228784Y682180D01*
Y690551D01*
X228758Y690991D01*
X228655Y691419D01*
X228487Y691826D01*
X228256Y692202D01*
X227970Y692537D01*
X227635Y692823D01*
X227259Y693054D01*
X226852Y693222D01*
X226433Y693323D01*
Y752647D01*
X226749Y752778D01*
X227353Y753148D01*
X227892Y753608D01*
X228352Y754147D01*
X228722Y754751D01*
X228993Y755405D01*
X229158Y756094D01*
X229200Y756800D01*
X229158Y757506D01*
X228993Y758195D01*
X228722Y758849D01*
X228352Y759453D01*
X227892Y759992D01*
X227353Y760452D01*
X226749Y760822D01*
X226433Y760953D01*
Y762647D01*
X226749Y762778D01*
X227353Y763148D01*
X227892Y763608D01*
X228352Y764147D01*
X228722Y764751D01*
X228993Y765405D01*
X229158Y766094D01*
X229200Y766800D01*
X229158Y767506D01*
X228993Y768195D01*
X228722Y768849D01*
X228352Y769453D01*
X227892Y769992D01*
X227353Y770452D01*
X226749Y770822D01*
X226433Y770953D01*
Y772000D01*
X234693D01*
Y761313D01*
X233994Y761258D01*
X233305Y761093D01*
X232651Y760822D01*
X232047Y760452D01*
X231508Y759992D01*
X231048Y759453D01*
X230678Y758849D01*
X230407Y758195D01*
X230242Y757506D01*
X230186Y756800D01*
X230242Y756094D01*
X230407Y755405D01*
X230678Y754751D01*
X231048Y754147D01*
X231508Y753608D01*
X232047Y753148D01*
X232651Y752778D01*
X233305Y752507D01*
X233994Y752342D01*
X234693Y752287D01*
Y667076D01*
G37*
G36*
X244433Y558000D02*X226433D01*
Y610662D01*
X226894Y610853D01*
X227430Y611182D01*
X227909Y611591D01*
X228318Y612070D01*
X228429Y612250D01*
X229685D01*
X229687Y610938D01*
X229724Y610785D01*
X229784Y610640D01*
X229866Y610506D01*
X229968Y610386D01*
X230088Y610284D01*
X230222Y610201D01*
X230368Y610141D01*
X230521Y610105D01*
X230678Y610095D01*
X235952Y610105D01*
X236105Y610141D01*
X236251Y610201D01*
X236385Y610284D01*
X236505Y610386D01*
X236607Y610506D01*
X236689Y610640D01*
X236750Y610785D01*
X236780Y610910D01*
X236810Y610785D01*
X236870Y610640D01*
X236952Y610506D01*
X237054Y610386D01*
X237174Y610284D01*
X237308Y610201D01*
X237454Y610141D01*
X237607Y610105D01*
X237764Y610095D01*
X243038Y610105D01*
X243191Y610141D01*
X243337Y610201D01*
X243471Y610284D01*
X243591Y610386D01*
X243693Y610506D01*
X243775Y610640D01*
X243836Y610785D01*
X243872Y610938D01*
X243882Y611095D01*
X243872Y617156D01*
X243836Y617309D01*
X243775Y617455D01*
X243693Y617589D01*
X243591Y617709D01*
X243471Y617811D01*
X243337Y617893D01*
X243191Y617953D01*
X243038Y617990D01*
X242882Y617999D01*
X237607Y617990D01*
X237454Y617953D01*
X237308Y617893D01*
X237174Y617811D01*
X237054Y617709D01*
X236952Y617589D01*
X236870Y617455D01*
X236810Y617309D01*
X236780Y617184D01*
X236750Y617309D01*
X236689Y617455D01*
X236607Y617589D01*
X236505Y617709D01*
X236385Y617811D01*
X236251Y617893D01*
X236105Y617953D01*
X235952Y617990D01*
X235796Y617999D01*
X230521Y617990D01*
X230368Y617953D01*
X230222Y617893D01*
X230088Y617811D01*
X229968Y617709D01*
X229866Y617589D01*
X229784Y617455D01*
X229724Y617309D01*
X229687Y617156D01*
X229678Y616999D01*
X229678Y616750D01*
X228340D01*
X228318Y616786D01*
X227909Y617265D01*
X227430Y617674D01*
X226894Y618003D01*
X226433Y618194D01*
Y628966D01*
X226495Y628893D01*
X226615Y628791D01*
X226749Y628709D01*
X226895Y628648D01*
X227048Y628612D01*
X227204Y628602D01*
X232430Y628612D01*
X230971Y627153D01*
X230904Y627096D01*
X230674Y626827D01*
X230489Y626525D01*
X230354Y626197D01*
X230271Y625853D01*
X230271Y625853D01*
X230269Y625824D01*
X230142Y625746D01*
X229663Y625337D01*
X229254Y624858D01*
X228925Y624322D01*
X228684Y623740D01*
X228537Y623128D01*
X228488Y622500D01*
X228537Y621872D01*
X228684Y621260D01*
X228925Y620678D01*
X229254Y620142D01*
X229663Y619663D01*
X230142Y619254D01*
X230678Y618925D01*
X231260Y618684D01*
X231872Y618537D01*
X232500Y618488D01*
X233128Y618537D01*
X233740Y618684D01*
X234322Y618925D01*
X234858Y619254D01*
X235337Y619663D01*
X235746Y620142D01*
X236075Y620678D01*
X236316Y621260D01*
X236463Y621872D01*
X236500Y622500D01*
X236463Y623128D01*
X236316Y623740D01*
X236075Y624322D01*
X235746Y624858D01*
X235421Y625239D01*
X237029Y626847D01*
X237096Y626904D01*
X237326Y627173D01*
X237326Y627173D01*
X237511Y627475D01*
X237646Y627803D01*
X237729Y628147D01*
X237757Y628500D01*
X237750Y628588D01*
Y632412D01*
X237757Y632500D01*
X237729Y632853D01*
X237646Y633197D01*
X237511Y633525D01*
X237326Y633827D01*
X237096Y634096D01*
X236827Y634326D01*
X236525Y634511D01*
X236197Y634646D01*
X235853Y634729D01*
X235500Y634757D01*
X235412Y634750D01*
X233315D01*
X233313Y635663D01*
X233276Y635816D01*
X233216Y635962D01*
X233134Y636096D01*
X233032Y636216D01*
X232912Y636318D01*
X232778Y636400D01*
X232632Y636460D01*
X232479Y636497D01*
X232322Y636506D01*
X227048Y636497D01*
X226895Y636460D01*
X226749Y636400D01*
X226615Y636318D01*
X226495Y636216D01*
X226433Y636143D01*
Y641582D01*
X244433Y641589D01*
Y626824D01*
X244349Y626772D01*
X244014Y626486D01*
X243728Y626151D01*
X243497Y625775D01*
X243329Y625368D01*
X243226Y624939D01*
X243191Y624500D01*
X243226Y624061D01*
X243329Y623632D01*
X243497Y623225D01*
X243728Y622849D01*
X244014Y622514D01*
X244349Y622228D01*
X244433Y622176D01*
Y558000D01*
G37*
G36*
X219419Y640500D02*X222000D01*
X222549Y640532D01*
X223085Y640661D01*
X223594Y640872D01*
X224064Y641160D01*
X224483Y641517D01*
X224537Y641581D01*
X226433Y641582D01*
Y636143D01*
X226393Y636096D01*
X226311Y635962D01*
X226250Y635816D01*
X226220Y635691D01*
X226190Y635816D01*
X226130Y635962D01*
X226048Y636096D01*
X225946Y636216D01*
X225826Y636318D01*
X225692Y636400D01*
X225546Y636460D01*
X225393Y636497D01*
X225236Y636506D01*
X219962Y636497D01*
X219809Y636460D01*
X219663Y636400D01*
X219529Y636318D01*
X219419Y636224D01*
Y640500D01*
G37*
G36*
Y772000D02*X226433D01*
Y770953D01*
X226095Y771093D01*
X225406Y771258D01*
X224700Y771314D01*
X223994Y771258D01*
X223305Y771093D01*
X222651Y770822D01*
X222047Y770452D01*
X221508Y769992D01*
X221048Y769453D01*
X220678Y768849D01*
X220407Y768195D01*
X220242Y767506D01*
X220186Y766800D01*
X220242Y766094D01*
X220407Y765405D01*
X220678Y764751D01*
X221048Y764147D01*
X221508Y763608D01*
X222047Y763148D01*
X222651Y762778D01*
X223305Y762507D01*
X223994Y762342D01*
X224700Y762286D01*
X225406Y762342D01*
X226095Y762507D01*
X226433Y762647D01*
Y760953D01*
X226095Y761093D01*
X225406Y761258D01*
X224700Y761314D01*
X223994Y761258D01*
X223305Y761093D01*
X222651Y760822D01*
X222047Y760452D01*
X221508Y759992D01*
X221048Y759453D01*
X220678Y758849D01*
X220407Y758195D01*
X220242Y757506D01*
X220186Y756800D01*
X220242Y756094D01*
X220407Y755405D01*
X220678Y754751D01*
X221048Y754147D01*
X221508Y753608D01*
X222047Y753148D01*
X222651Y752778D01*
X223305Y752507D01*
X223994Y752342D01*
X224700Y752286D01*
X225406Y752342D01*
X226095Y752507D01*
X226433Y752647D01*
Y693323D01*
X226424Y693325D01*
X225984Y693360D01*
X225545Y693325D01*
X225116Y693222D01*
X224709Y693054D01*
X224333Y692823D01*
X223998Y692537D01*
X223712Y692202D01*
X223482Y691826D01*
X223313Y691419D01*
X223210Y690991D01*
X223184Y690551D01*
Y682048D01*
X223093Y681992D01*
X222974Y681890D01*
X222872Y681770D01*
X222789Y681636D01*
X222729Y681491D01*
X222692Y681338D01*
X222683Y681181D01*
X222692Y673524D01*
X222729Y673371D01*
X222789Y673225D01*
X222872Y673091D01*
X222974Y672971D01*
X223093Y672869D01*
X223228Y672787D01*
X223373Y672727D01*
X223526Y672690D01*
X223683Y672681D01*
X226433Y672685D01*
Y667073D01*
X223276Y667071D01*
X223123Y667035D01*
X222978Y666974D01*
X222843Y666892D01*
X222724Y666790D01*
X222622Y666670D01*
X222539Y666536D01*
X222479Y666391D01*
X222442Y666238D01*
X222433Y666081D01*
X222439Y651500D01*
X219419D01*
Y772000D01*
G37*
G36*
X226433Y558000D02*X219419D01*
Y601637D01*
X219425Y601637D01*
X220076Y601688D01*
X220711Y601841D01*
X221315Y602090D01*
X221872Y602432D01*
X222368Y602856D01*
X222793Y603353D01*
X223134Y603910D01*
X223384Y604513D01*
X223536Y605148D01*
X223575Y605799D01*
X223536Y606450D01*
X223384Y607085D01*
X223134Y607689D01*
X222793Y608246D01*
X222368Y608742D01*
X221872Y609167D01*
X221315Y609508D01*
X220711Y609758D01*
X220076Y609910D01*
X219425Y609962D01*
X219419Y609961D01*
Y618994D01*
X219500Y618988D01*
X220128Y619037D01*
X220740Y619184D01*
X221322Y619425D01*
X221858Y619754D01*
X222337Y620163D01*
X222746Y620642D01*
X223075Y621178D01*
X223316Y621760D01*
X223463Y622372D01*
X223500Y623000D01*
X223463Y623628D01*
X223316Y624240D01*
X223075Y624822D01*
X222746Y625358D01*
X222337Y625837D01*
X221858Y626246D01*
X221322Y626575D01*
X220740Y626816D01*
X220128Y626963D01*
X219500Y627012D01*
X219419Y627006D01*
Y628885D01*
X219529Y628791D01*
X219663Y628709D01*
X219809Y628648D01*
X219962Y628612D01*
X220118Y628602D01*
X225393Y628612D01*
X225546Y628648D01*
X225692Y628709D01*
X225826Y628791D01*
X225946Y628893D01*
X226048Y629013D01*
X226130Y629147D01*
X226190Y629292D01*
X226220Y629417D01*
X226250Y629292D01*
X226311Y629147D01*
X226393Y629013D01*
X226433Y628966D01*
Y618194D01*
X226312Y618244D01*
X225700Y618391D01*
X225072Y618440D01*
X224444Y618391D01*
X223832Y618244D01*
X223250Y618003D01*
X222714Y617674D01*
X222235Y617265D01*
X221826Y616786D01*
X221497Y616250D01*
X221256Y615668D01*
X221109Y615056D01*
X221060Y614428D01*
X221109Y613800D01*
X221256Y613188D01*
X221497Y612606D01*
X221826Y612070D01*
X222235Y611591D01*
X222714Y611182D01*
X223250Y610853D01*
X223832Y610612D01*
X224444Y610465D01*
X225072Y610416D01*
X225700Y610465D01*
X226312Y610612D01*
X226433Y610662D01*
Y558000D01*
G37*
G36*
X219419Y627006D02*X218872Y626963D01*
X218750Y626934D01*
Y630068D01*
X218986Y630304D01*
X219126D01*
X219128Y629445D01*
X219164Y629292D01*
X219225Y629147D01*
X219307Y629013D01*
X219409Y628893D01*
X219419Y628885D01*
Y627006D01*
G37*
G36*
X214693Y638770D02*X214983Y639017D01*
X215072Y639122D01*
X216450Y640500D01*
X219419D01*
Y636224D01*
X219409Y636216D01*
X219307Y636096D01*
X219225Y635962D01*
X219164Y635816D01*
X219128Y635663D01*
X219118Y635506D01*
X219120Y634804D01*
X218143D01*
X218054Y634811D01*
X217701Y634783D01*
X217357Y634701D01*
X217030Y634565D01*
X216728Y634380D01*
X216728Y634380D01*
X216458Y634150D01*
X216401Y634083D01*
X214971Y632653D01*
X214904Y632596D01*
X214693Y632349D01*
Y638770D01*
G37*
G36*
Y772000D02*X219419D01*
Y651500D01*
X214693D01*
Y762287D01*
X214700Y762286D01*
X215406Y762342D01*
X216095Y762507D01*
X216749Y762778D01*
X217353Y763148D01*
X217892Y763608D01*
X218352Y764147D01*
X218722Y764751D01*
X218993Y765405D01*
X219158Y766094D01*
X219200Y766800D01*
X219158Y767506D01*
X218993Y768195D01*
X218722Y768849D01*
X218352Y769453D01*
X217892Y769992D01*
X217353Y770452D01*
X216749Y770822D01*
X216095Y771093D01*
X215406Y771258D01*
X214700Y771314D01*
X214693Y771313D01*
Y772000D01*
G37*
G36*
X219419Y558000D02*X214693D01*
Y624651D01*
X214904Y624404D01*
X214971Y624347D01*
X215567Y623751D01*
X215537Y623628D01*
X215488Y623000D01*
X215537Y622372D01*
X215684Y621760D01*
X215925Y621178D01*
X216254Y620642D01*
X216663Y620163D01*
X217142Y619754D01*
X217678Y619425D01*
X218260Y619184D01*
X218872Y619037D01*
X219419Y618994D01*
Y609961D01*
X218774Y609910D01*
X218139Y609758D01*
X217536Y609508D01*
X216979Y609167D01*
X216482Y608742D01*
X216058Y608246D01*
X215716Y607689D01*
X215467Y607085D01*
X215314Y606450D01*
X215263Y605799D01*
X215314Y605148D01*
X215467Y604513D01*
X215716Y603910D01*
X216058Y603353D01*
X216482Y602856D01*
X216979Y602432D01*
X217536Y602090D01*
X218139Y601841D01*
X218774Y601688D01*
X219419Y601637D01*
Y558000D01*
G37*
G36*
X214693D02*X204693D01*
Y752287D01*
X204700Y752286D01*
X205406Y752342D01*
X206095Y752507D01*
X206749Y752778D01*
X207353Y753148D01*
X207892Y753608D01*
X208352Y754147D01*
X208722Y754751D01*
X208993Y755405D01*
X209158Y756094D01*
X209200Y756800D01*
X209158Y757506D01*
X208993Y758195D01*
X208722Y758849D01*
X208352Y759453D01*
X207892Y759992D01*
X207353Y760452D01*
X206749Y760822D01*
X206095Y761093D01*
X205406Y761258D01*
X204700Y761314D01*
X204693Y761313D01*
Y762287D01*
X204700Y762286D01*
X205406Y762342D01*
X206095Y762507D01*
X206749Y762778D01*
X207353Y763148D01*
X207892Y763608D01*
X208352Y764147D01*
X208722Y764751D01*
X208993Y765405D01*
X209158Y766094D01*
X209200Y766800D01*
X209158Y767506D01*
X208993Y768195D01*
X208722Y768849D01*
X208352Y769453D01*
X207892Y769992D01*
X207353Y770452D01*
X206749Y770822D01*
X206095Y771093D01*
X205406Y771258D01*
X204700Y771314D01*
X204693Y771313D01*
Y772000D01*
X214693D01*
Y771313D01*
X213994Y771258D01*
X213305Y771093D01*
X212651Y770822D01*
X212047Y770452D01*
X211508Y769992D01*
X211048Y769453D01*
X210678Y768849D01*
X210407Y768195D01*
X210242Y767506D01*
X210186Y766800D01*
X210242Y766094D01*
X210407Y765405D01*
X210678Y764751D01*
X211048Y764147D01*
X211508Y763608D01*
X212047Y763148D01*
X212651Y762778D01*
X213305Y762507D01*
X213994Y762342D01*
X214693Y762287D01*
Y651500D01*
X209157D01*
X209000Y651512D01*
X208372Y651463D01*
X207760Y651316D01*
X207178Y651075D01*
X206642Y650746D01*
X206163Y650337D01*
X205754Y649858D01*
X205425Y649322D01*
X205184Y648740D01*
X205037Y648128D01*
X204988Y647500D01*
X205037Y646872D01*
X205184Y646260D01*
X205425Y645678D01*
X205500Y645556D01*
Y643444D01*
X205425Y643322D01*
X205184Y642740D01*
X205037Y642128D01*
X204988Y641500D01*
X205037Y640872D01*
X205184Y640260D01*
X205425Y639678D01*
X205754Y639142D01*
X206163Y638663D01*
X206642Y638254D01*
X207178Y637925D01*
X207760Y637684D01*
X208372Y637537D01*
X209000Y637488D01*
X209628Y637537D01*
X210240Y637684D01*
X210822Y637925D01*
X210944Y638000D01*
X212363D01*
X212500Y637989D01*
X213049Y638032D01*
X213049Y638032D01*
X213585Y638161D01*
X214094Y638372D01*
X214564Y638660D01*
X214693Y638770D01*
Y632349D01*
X214674Y632327D01*
X214489Y632025D01*
X214354Y631697D01*
X214271Y631353D01*
X214271Y631353D01*
X214243Y631000D01*
X214250Y630912D01*
Y626088D01*
X214243Y626000D01*
X214271Y625647D01*
Y625647D01*
X214354Y625303D01*
X214489Y624975D01*
X214559Y624861D01*
X214674Y624673D01*
X214674Y624673D01*
X214693Y624651D01*
Y558000D01*
G37*
G36*
X204693D02*X187992D01*
Y726985D01*
X188000Y726985D01*
X188785Y727046D01*
X189550Y727230D01*
X190277Y727531D01*
X190948Y727942D01*
X191546Y728454D01*
X192058Y729052D01*
X192469Y729723D01*
X192770Y730450D01*
X192954Y731215D01*
X193000Y732000D01*
X192954Y732785D01*
X192770Y733550D01*
X192469Y734277D01*
X192058Y734948D01*
X191546Y735546D01*
X190948Y736058D01*
X190277Y736469D01*
X189550Y736770D01*
X188785Y736954D01*
X188000Y737015D01*
X187992Y737015D01*
Y738000D01*
X197000D01*
Y752932D01*
X197353Y753148D01*
X197892Y753608D01*
X198352Y754147D01*
X198722Y754751D01*
X198993Y755405D01*
X199158Y756094D01*
X199200Y756800D01*
X199158Y757506D01*
X198993Y758195D01*
X198722Y758849D01*
X198352Y759453D01*
X197892Y759992D01*
X197353Y760452D01*
X197000Y760668D01*
Y762932D01*
X197353Y763148D01*
X197892Y763608D01*
X198352Y764147D01*
X198722Y764751D01*
X198993Y765405D01*
X199158Y766094D01*
X199200Y766800D01*
X199158Y767506D01*
X198993Y768195D01*
X198722Y768849D01*
X198352Y769453D01*
X197892Y769992D01*
X197353Y770452D01*
X197000Y770668D01*
Y772000D01*
X204693D01*
Y771313D01*
X203994Y771258D01*
X203305Y771093D01*
X202651Y770822D01*
X202047Y770452D01*
X201508Y769992D01*
X201048Y769453D01*
X200678Y768849D01*
X200407Y768195D01*
X200242Y767506D01*
X200186Y766800D01*
X200242Y766094D01*
X200407Y765405D01*
X200678Y764751D01*
X201048Y764147D01*
X201508Y763608D01*
X202047Y763148D01*
X202651Y762778D01*
X203305Y762507D01*
X203994Y762342D01*
X204693Y762287D01*
Y761313D01*
X203994Y761258D01*
X203305Y761093D01*
X202651Y760822D01*
X202047Y760452D01*
X201508Y759992D01*
X201048Y759453D01*
X200678Y758849D01*
X200407Y758195D01*
X200242Y757506D01*
X200186Y756800D01*
X200242Y756094D01*
X200407Y755405D01*
X200678Y754751D01*
X201048Y754147D01*
X201508Y753608D01*
X202047Y753148D01*
X202651Y752778D01*
X203305Y752507D01*
X203994Y752342D01*
X204693Y752287D01*
Y558000D01*
G37*
G36*
X187992D02*X180529D01*
Y591105D01*
X181050Y591230D01*
X181777Y591531D01*
X182448Y591942D01*
X183046Y592454D01*
X183558Y593052D01*
X183969Y593723D01*
X184270Y594450D01*
X184454Y595215D01*
X184500Y596000D01*
X184454Y596785D01*
X184270Y597550D01*
X183969Y598277D01*
X183558Y598948D01*
X183046Y599546D01*
X182448Y600058D01*
X181777Y600469D01*
X181050Y600770D01*
X180529Y600895D01*
Y705114D01*
X180535Y705113D01*
X181187Y705164D01*
X181822Y705317D01*
X182425Y705567D01*
X182982Y705908D01*
X183479Y706332D01*
X183903Y706829D01*
X184244Y707386D01*
X184494Y707989D01*
X184647Y708624D01*
X184685Y709276D01*
X184647Y709927D01*
X184494Y710562D01*
X184244Y711165D01*
X183903Y711722D01*
X183479Y712219D01*
X182982Y712643D01*
X182425Y712984D01*
X181822Y713234D01*
X181187Y713387D01*
X180535Y713438D01*
X180529Y713437D01*
Y738000D01*
X187992D01*
Y737015D01*
X187215Y736954D01*
X186450Y736770D01*
X185723Y736469D01*
X185052Y736058D01*
X184454Y735546D01*
X183942Y734948D01*
X183531Y734277D01*
X183230Y733550D01*
X183046Y732785D01*
X182985Y732000D01*
X183046Y731215D01*
X183230Y730450D01*
X183531Y729723D01*
X183942Y729052D01*
X184454Y728454D01*
X185052Y727942D01*
X185723Y727531D01*
X186450Y727230D01*
X187215Y727046D01*
X187992Y726985D01*
Y558000D01*
G37*
G36*
X180529D02*X171000D01*
Y584000D01*
X159492D01*
Y590985D01*
X159500Y590985D01*
X160285Y591046D01*
X161050Y591230D01*
X161777Y591531D01*
X162448Y591942D01*
X163046Y592454D01*
X163558Y593052D01*
X163969Y593723D01*
X164270Y594450D01*
X164454Y595215D01*
X164500Y596000D01*
X164454Y596785D01*
X164270Y597550D01*
X163969Y598277D01*
X163558Y598948D01*
X163046Y599546D01*
X162448Y600058D01*
X161777Y600469D01*
X161050Y600770D01*
X160285Y600954D01*
X159500Y601015D01*
X159492Y601015D01*
Y738000D01*
X180529D01*
Y713437D01*
X179884Y713387D01*
X179249Y713234D01*
X178646Y712984D01*
X178089Y712643D01*
X177592Y712219D01*
X177168Y711722D01*
X176827Y711165D01*
X176577Y710562D01*
X176424Y709927D01*
X176373Y709276D01*
X176424Y708624D01*
X176577Y707989D01*
X176827Y707386D01*
X177168Y706829D01*
X177592Y706332D01*
X178089Y705908D01*
X178646Y705567D01*
X179249Y705317D01*
X179884Y705164D01*
X180529Y705114D01*
Y600895D01*
X180285Y600954D01*
X179500Y601015D01*
X178715Y600954D01*
X177950Y600770D01*
X177223Y600469D01*
X176552Y600058D01*
X175954Y599546D01*
X175442Y598948D01*
X175031Y598277D01*
X174730Y597550D01*
X174546Y596785D01*
X174485Y596000D01*
X174546Y595215D01*
X174730Y594450D01*
X175031Y593723D01*
X175442Y593052D01*
X175954Y592454D01*
X176552Y591942D01*
X177223Y591531D01*
X177950Y591230D01*
X178715Y591046D01*
X179500Y590985D01*
X180285Y591046D01*
X180529Y591105D01*
Y558000D01*
G37*
G36*
X159492Y584000D02*X145000D01*
Y738000D01*
X159492D01*
Y601015D01*
X158715Y600954D01*
X157950Y600770D01*
X157223Y600469D01*
X156552Y600058D01*
X155954Y599546D01*
X155442Y598948D01*
X155031Y598277D01*
X154730Y597550D01*
X154546Y596785D01*
X154485Y596000D01*
X154546Y595215D01*
X154730Y594450D01*
X155031Y593723D01*
X155442Y593052D01*
X155954Y592454D01*
X156552Y591942D01*
X157223Y591531D01*
X157950Y591230D01*
X158715Y591046D01*
X159492Y590985D01*
Y584000D01*
G37*
G54D36*X441461Y702902D02*X435709Y708654D01*
X426295D01*
X421827Y713122D01*
Y717937D01*
X416654Y723110D01*
X414961Y718110D02*X407087D01*
X407598Y723110D02*X406299Y724409D01*
X412890Y723110D02*X407598D01*
X416654D02*X412732D01*
G54D37*X417346Y634969D02*X464339D01*
X420936Y597866D02*X411236D01*
X421436Y598366D02*X420936Y597866D01*
X464236D02*Y621020D01*
X443736Y597866D02*X464236D01*
X443236Y598366D02*X443736Y597866D01*
G54D38*X436716Y620555D02*X464275D01*
G54D37*X437106D02*X464275D01*
G54D36*X407087Y718110D02*X406299Y717323D01*
X385419Y719153D02*X387653D01*
X391900Y723400D01*
X407480Y744094D02*X406299Y745275D01*
X412598Y744094D02*X407480D01*
X407086Y738976D02*X406299Y738189D01*
X412598Y738976D02*X407086D01*
X391800Y743700D02*X388700Y740600D01*
X392000Y729000D02*X387673Y733327D01*
X384238D01*
X388700Y740600D02*X384400D01*
X357500Y741000D02*X355500Y743000D01*
X348000D01*
X391800Y702300D02*X387900Y698400D01*
X384000D01*
G54D39*X391850Y702350D02*X387700Y698200D01*
X384400D01*
G54D36*X392000Y708200D02*X388133Y712067D01*
X385419D01*
X384238Y691201D02*X387899D01*
X391900Y687200D01*
G54D39*X384200Y691201D02*Y682700D01*
X391800Y702300D02*X395000D01*
X397200Y704500D01*
G54D38*X285543Y667543D02*X286000Y668000D01*
X305543Y667957D02*X305500Y668000D01*
X286000D01*
X286669Y648027D02*Y666831D01*
X285500Y668000D01*
X304669Y648027D02*Y666878D01*
X305646Y667854D01*
G54D36*X272900Y748600D02*X309800D01*
X334700Y756800D02*X334500Y756600D01*
Y743000D01*
X340914D01*
G54D40*X222678Y632554D02*X218054D01*
X216500Y631000D01*
Y626000D01*
X219500Y623000D01*
G54D41*X225984Y690551D02*Y681551D01*
G54D40*X233189Y615500D02*X233237Y615547D01*
X232500Y622500D02*Y625500D01*
X235500Y628500D01*
Y632500D01*
X230000D01*
X225000Y614500D02*X233189D01*
X240322Y614047D02*X243925D01*
G54D41*X244488Y690551D02*Y681051D01*
G54D40*X195000Y767000D02*X199500Y762500D01*
X195000Y767000D02*X198500D01*
X195000Y765500D02*X199000D01*
X194500Y765000D02*X199500Y760000D01*
G54D36*X264700Y756800D02*X272900Y748600D01*
G54D40*X244047Y614047D02*X245425D01*
X253488Y605984D01*
G54D36*X256000Y624500D02*X246000D01*
G54D42*X209000Y648000D02*X232500D01*
X215000Y644000D02*X222000D01*
X209000Y641500D02*X212500D01*
X215000Y644000D01*
X209000Y648000D02*Y641500D01*
Y642000D01*
X213000Y646000D01*
X159500Y604000D02*Y589000D01*
X168000Y596000D02*X152000D01*
G54D36*X274957Y599000D02*X270000D01*
X282043D02*X288500D01*
X289000Y598500D01*
G54D40*X322500Y599000D02*X328500D01*
X329500Y598000D01*
G54D36*X270000Y599000D02*X267000Y602000D01*
Y605390D01*
X264500Y626000D02*Y621500D01*
X265000Y621000D01*
G54D40*X273500Y619000D02*Y613000D01*
Y613500D01*
X274049Y614049D01*
X295543D01*
X273500Y619000D02*X290593D01*
X295543Y614049D01*
G54D43*X295669Y624927D02*X288065Y617323D01*
X273500D01*
G54D44*X383858Y761811D03*
G54D35*G36*
X438361Y753246D02*Y747046D01*
X444561D01*
Y753246D01*
X438361D01*
G37*
G54D45*X441461Y738335D03*
Y726524D03*
Y714713D03*
Y702902D03*
Y691091D03*
Y679280D03*
X429650Y750146D03*
Y738335D03*
Y726524D03*
Y714713D03*
Y702902D03*
Y691091D03*
Y679280D03*
G54D44*X383858Y568898D03*
G54D46*X267000Y605390D03*
Y591610D03*
X295949Y583768D03*
Y569988D03*
G54D47*X394736Y618866D03*
G54D46*X407236Y648756D03*
Y634976D03*
G54D48*X436736Y621189D03*
X464295D03*
Y634969D03*
X436736D03*
G54D44*X155512Y761811D03*
G54D35*G36*
X171700Y759800D02*Y753800D01*
X177700D01*
Y759800D01*
X171700D01*
G37*
G54D49*X174700Y766800D03*
X184700Y756800D03*
Y766800D03*
G54D47*X188000Y732000D03*
G54D46*X180535Y709276D03*
X166756D03*
G54D47*X164961Y732283D03*
G54D44*X155512Y568898D03*
G54D46*X219425Y605799D03*
X205646D03*
G54D47*X159500Y596000D03*
X179500D03*
G54D49*X194700Y756800D03*
X204700D03*
X214700D03*
X194700Y766800D03*
X204700D03*
X214700D03*
X224700Y756800D03*
X234700D03*
X244700D03*
X254700D03*
X224700Y766800D03*
X234700D03*
X244700D03*
X254700D03*
X264700Y756800D03*
X274700D03*
X284700D03*
X264700Y766800D03*
X274700D03*
X284700D03*
X294700D03*
X304700D03*
X314700D03*
X294700Y756800D03*
X304700D03*
X314700D03*
X324700D03*
Y766800D03*
X334700Y756800D03*
X344700D03*
X354700D03*
X364700D03*
X334700Y766800D03*
X344700D03*
X354700D03*
X364700D03*
G54D35*G36*
X343473Y745952D02*X338355D01*
Y740048D01*
X343473D01*
Y745952D01*
G37*
G36*
X350559D02*X345441D01*
Y740048D01*
X350559D01*
Y745952D01*
G37*
G36*
X428686Y607616D02*X414186D01*
Y589116D01*
X428686D01*
Y607616D01*
G37*
G36*
X450486D02*X435986D01*
Y589116D01*
X450486D01*
Y607616D01*
G37*
G36*
X283669Y636677D02*Y613177D01*
X307669D01*
Y636677D01*
X283669D01*
G37*
G36*
X307419Y651777D02*X301919D01*
Y644277D01*
X307419D01*
Y651777D01*
G37*
G36*
X284602Y601952D02*X279484D01*
Y596048D01*
X284602D01*
Y601952D01*
G37*
G36*
X277516D02*X272398D01*
Y596048D01*
X277516D01*
Y601952D01*
G37*
G36*
X225236Y635506D02*X220118D01*
Y629602D01*
X225236D01*
Y635506D01*
G37*
G36*
X232322D02*X227204D01*
Y629602D01*
X232322D01*
Y635506D01*
G37*
G36*
X229183Y681181D02*X223683D01*
Y673681D01*
X229183D01*
Y681181D01*
G37*
G36*
X247183D02*X241683D01*
Y673681D01*
X247183D01*
Y681181D01*
G37*
G36*
X223433Y666081D02*Y642581D01*
X247433D01*
Y666081D01*
X223433D01*
G37*
G36*
X242882Y616999D02*X237764D01*
Y611095D01*
X242882D01*
Y616999D01*
G37*
G36*
X235796D02*X230678D01*
Y611095D01*
X235796D01*
Y616999D01*
G37*
G36*
X289419Y651777D02*X283919D01*
Y644277D01*
X289419D01*
Y651777D01*
G37*
G36*
X381286Y693760D02*Y688642D01*
X387190D01*
Y693760D01*
X381286D01*
G37*
G36*
X382467Y714626D02*Y709508D01*
X388371D01*
Y714626D01*
X382467D01*
G37*
G36*
X381286Y700846D02*Y695728D01*
X387190D01*
Y700846D01*
X381286D01*
G37*
G36*
X382467Y721712D02*Y716594D01*
X388371D01*
Y721712D01*
X382467D01*
G37*
G36*
X403347Y719882D02*Y714764D01*
X409251D01*
Y719882D01*
X403347D01*
G37*
G36*
Y726968D02*Y721850D01*
X409251D01*
Y726968D01*
X403347D01*
G37*
G36*
Y740748D02*Y735630D01*
X409251D01*
Y740748D01*
X403347D01*
G37*
G36*
Y747834D02*Y742716D01*
X409251D01*
Y747834D01*
X403347D01*
G37*
G36*
X381286Y735886D02*Y730768D01*
X387190D01*
Y735886D01*
X381286D01*
G37*
G36*
Y742972D02*Y737854D01*
X387190D01*
Y742972D01*
X381286D01*
G37*
G54D49*X219500Y623000D03*
X225072Y614428D03*
G54D41*X246000Y624500D03*
X256000D03*
G54D49*X232500Y622500D03*
X240000Y623000D03*
X273500Y619000D03*
Y613000D03*
X295500Y598500D03*
X302000D03*
X289000D03*
G54D41*X329500Y598000D03*
X322500Y599000D03*
G54D49*X305500Y668000D03*
X292500D03*
X299000D03*
X285500D03*
G54D41*X274000Y643000D03*
X322500Y619500D03*
X304500Y604000D03*
X396236Y606366D03*
X365000Y610000D03*
X373000Y640000D03*
X343000Y604000D03*
X346000Y638500D03*
G54D49*X208000Y693500D03*
X209000Y676000D03*
Y682000D03*
X225984Y690551D03*
X209000Y641500D03*
X262500Y676000D03*
Y682000D03*
Y670000D03*
Y664000D03*
Y658000D03*
X209000D03*
Y647500D03*
Y664000D03*
Y670000D03*
X297602Y729209D03*
X309600Y734400D03*
X305000Y728400D03*
G54D41*X309800Y748600D03*
X412598Y738976D03*
Y744094D03*
X416654Y723110D03*
X391800Y702300D03*
X396700Y704600D03*
X414961Y718110D03*
X391800Y743700D03*
Y723300D03*
X392000Y729000D03*
X358500Y740000D03*
X392000Y708200D03*
X391900Y687200D03*
G54D49*X192000Y747500D03*
X186000Y743500D03*
X174500D03*
X180000Y747500D03*
X169000D03*
X244488Y690551D03*
X244874Y724740D03*
X270098Y698272D03*
G54D50*G54D51*G54D50*G54D51*G54D50*G54D51*G54D50*G54D51*G54D50*G54D52*G54D53*G54D54*G54D53*G54D54*G54D53*G54D52*G54D55*G54D38*G54D55*G54D56*G54D52*G54D57*G54D38*G54D55*G54D38*G54D52*G54D55*G54D38*G54D57*M02*
