G04 start of page 9 for group -4062 idx -4062 *
G04 Title: receiver, soldermask *
G04 Creator: pcb 20140316 *
G04 CreationDate: Tue 02 Jan 2018 12:34:38 AM GMT UTC *
G04 For: brian *
G04 Format: Gerber/RS-274X *
G04 PCB-Dimensions (mil): 6000.00 5000.00 *
G04 PCB-Coordinate-Origin: lower left *
%MOIN*%
%FSLAX25Y25*%
%LNBOTTOMMASK*%
%ADD146R,0.0300X0.0300*%
%ADD145R,0.0268X0.0268*%
%ADD144R,0.1280X0.1280*%
%ADD143C,0.0001*%
%ADD142R,0.0620X0.0620*%
%ADD141R,0.0400X0.0400*%
%ADD140R,0.1100X0.1100*%
%ADD139R,0.0787X0.0787*%
%ADD138R,0.0572X0.0572*%
%ADD137R,0.0260X0.0260*%
%ADD136R,0.0291X0.0291*%
%ADD135R,0.0355X0.0355*%
%ADD134C,0.0689*%
%ADD133C,0.0571*%
%ADD132C,0.0757*%
%ADD131C,0.0640*%
G54D131*X180283Y48563D03*
Y56437D03*
G54D132*X173016Y42657D03*
Y62343D03*
G54D131*X180283Y76126D03*
Y84000D03*
Y91874D03*
G54D132*X173016Y70220D03*
Y97780D03*
Y105220D03*
G54D131*X180283Y111126D03*
Y119000D03*
Y126874D03*
G54D132*X173016Y132780D03*
G54D131*X351717Y249437D03*
Y241563D03*
G54D132*X358984Y255343D03*
Y235657D03*
G54D131*X351717Y221811D03*
G54D132*X358984Y227717D03*
G54D131*X351717Y213937D03*
Y206063D03*
Y198189D03*
G54D132*X358984Y192283D03*
G54D131*X309563Y229717D03*
X317437D03*
G54D132*X323343Y236984D03*
X303657D03*
G54D131*X180283Y146626D03*
G54D132*X173016Y140720D03*
G54D131*X180283Y154500D03*
Y182126D03*
Y162374D03*
G54D132*X173016Y168280D03*
Y176220D03*
Y203780D03*
Y211846D03*
G54D133*X367661Y103843D03*
Y84157D03*
G54D134*X378291Y107780D03*
Y80220D03*
G54D131*X351717Y62811D03*
G54D132*X358984Y68717D03*
G54D131*X351717Y54937D03*
Y47063D03*
Y39189D03*
G54D132*X358984Y33283D03*
G54D131*X180283Y190000D03*
Y197874D03*
Y217752D03*
Y225626D03*
Y233500D03*
Y241374D03*
Y249248D03*
G54D132*X173016Y255154D03*
G54D131*X203693Y229717D03*
X211567D03*
X219441D03*
G54D132*X197787Y236984D03*
G54D131*X227315Y229717D03*
X235189D03*
X243063D03*
X250937D03*
X258811D03*
X266685D03*
X274559D03*
X282433D03*
X290307D03*
G54D132*X296213Y236984D03*
G54D135*X162008Y238941D02*X162992D01*
X162008Y244059D02*X162992D01*
G54D136*X174240Y235799D02*Y233831D01*
X170500Y235799D02*Y233831D01*
X166760Y235799D02*Y233831D01*
Y225169D02*Y223201D01*
G54D135*X160508Y223941D02*X161492D01*
X160508Y229059D02*X161492D01*
G54D136*X170500Y225169D02*Y223201D01*
X174240Y225169D02*Y223201D01*
G54D135*X157559Y243992D02*Y243008D01*
X152441Y243992D02*Y243008D01*
X160941Y249492D02*Y248508D01*
X166059Y249492D02*Y248508D01*
X157008Y233441D02*X157992D01*
X157008Y238559D02*X157992D01*
G54D136*X219240Y247614D02*Y245646D01*
X215500Y247614D02*Y245646D01*
X211760Y247614D02*Y245646D01*
Y236984D02*Y235016D01*
X215500Y236984D02*Y235016D01*
X219240Y236984D02*Y235016D01*
G54D137*X200724Y224232D02*Y222461D01*
X197575Y224232D02*Y222461D01*
X194425Y224232D02*Y222461D01*
X191276Y224232D02*Y222461D01*
X200724Y217539D02*Y215768D01*
X197575Y217539D02*Y215768D01*
X194425Y217539D02*Y215768D01*
X191276Y217539D02*Y215768D01*
G54D138*X238957Y217893D02*Y217107D01*
G54D139*X219957Y212217D02*X227043D01*
X219957Y176783D02*X227043D01*
G54D138*X239095Y173181D02*Y170819D01*
G54D135*X262008Y198441D02*X262992D01*
X262008Y203559D02*X262992D01*
G54D138*X259745Y192905D02*X265255D01*
G54D140*X250000Y189000D02*Y188500D01*
G54D141*X249000Y179500D02*X251000D01*
G54D138*X259745Y181095D02*X265255D01*
X250905Y173181D02*Y170819D01*
G54D136*X247760Y200669D02*Y198701D01*
X251500Y200669D02*Y198701D01*
X255240Y200669D02*Y198701D01*
G54D138*X246043Y217893D02*Y217107D01*
G54D136*X255240Y211299D02*Y209331D01*
G54D138*X260043Y217393D02*Y216607D01*
X252957Y217393D02*Y216607D01*
G54D136*X251500Y211299D02*Y209331D01*
X247760Y211299D02*Y209331D01*
G54D138*X274043Y211893D02*Y211107D01*
X266957Y211893D02*Y211107D01*
G54D136*X250740Y247799D02*Y245831D01*
X247000Y247799D02*Y245831D01*
X243260Y247799D02*Y245831D01*
Y237169D02*Y235201D01*
X247000Y237169D02*Y235201D01*
X250740Y237169D02*Y235201D01*
X165740Y174799D02*Y172831D01*
X162000Y174799D02*Y172831D01*
X158260Y174799D02*Y172831D01*
G54D135*X157559Y198492D02*Y197508D01*
X152441Y198492D02*Y197508D01*
X162008Y199059D02*X162992D01*
X171008Y196059D02*X171992D01*
X162008Y193941D02*X162992D01*
X166559Y187992D02*Y187008D01*
X161441Y187992D02*Y187008D01*
X171008Y190941D02*X171992D01*
X156008Y187941D02*X156992D01*
X156008Y193059D02*X156992D01*
G54D136*X158260Y164169D02*Y162201D01*
X162000Y164169D02*Y162201D01*
X165740Y164169D02*Y162201D01*
G54D135*X157559Y152492D02*Y151508D01*
X169941Y162492D02*Y161508D01*
X175059Y162492D02*Y161508D01*
X152441Y152492D02*Y151508D01*
X158941Y146992D02*Y146008D01*
X164059Y146992D02*Y146008D01*
X191508Y153941D02*X192492D01*
G54D138*X203457Y149393D02*Y148607D01*
G54D135*X191508Y159059D02*X192492D01*
X186008Y164059D02*X186992D01*
X186008Y158941D02*X186992D01*
G54D138*X220607Y147957D02*X221393D01*
X220607Y155043D02*X221393D01*
G54D142*X211700Y138700D02*Y132100D01*
X220800Y138700D02*Y132100D01*
G54D138*X210543Y149393D02*Y148607D01*
G54D142*X202700Y138700D02*Y132100D01*
G54D135*X349059Y254992D02*Y254008D01*
X343941Y254992D02*Y254008D01*
G54D138*X332095Y244255D02*Y238745D01*
X343905Y244255D02*Y238745D01*
X331905Y256255D02*Y250745D01*
G54D143*G36*
X369205Y242783D02*Y237193D01*
X374795D01*
Y242783D01*
X369205D01*
G37*
G36*
Y253807D02*Y248217D01*
X374795D01*
Y253807D01*
X369205D01*
G37*
G54D144*X364800Y179000D02*X373800D01*
X335300Y185500D02*X344300D01*
G54D142*X308800Y199700D02*X315400D01*
G54D143*G36*
X366717Y203295D02*Y197705D01*
X372307D01*
Y203295D01*
X366717D01*
G37*
G36*
X355693D02*Y197705D01*
X361283D01*
Y203295D01*
X355693D01*
G37*
G36*
X366717Y222295D02*Y216705D01*
X372307D01*
Y222295D01*
X366717D01*
G37*
G36*
X355693D02*Y216705D01*
X361283D01*
Y222295D01*
X355693D01*
G37*
G36*
X366717Y212795D02*Y207205D01*
X372307D01*
Y212795D01*
X366717D01*
G37*
G36*
X355693D02*Y207205D01*
X361283D01*
Y212795D01*
X355693D01*
G37*
G54D144*X336500Y213200D02*Y204200D01*
G54D143*G36*
X334693Y230795D02*Y225205D01*
X340283D01*
Y230795D01*
X334693D01*
G37*
G36*
X345717D02*Y225205D01*
X351307D01*
Y230795D01*
X345717D01*
G37*
G54D138*X320095Y256255D02*Y250745D01*
G54D135*X308059Y256992D02*Y256008D01*
X302941Y256992D02*Y256008D01*
G54D136*X301831Y244260D02*X303799D01*
X301831Y248000D02*X303799D01*
X301831Y251740D02*X303799D01*
X291201D02*X293169D01*
X291201Y248000D02*X293169D01*
X291201Y244260D02*X293169D01*
G54D142*X308800Y208700D02*X315400D01*
G54D135*X301441Y178992D02*Y178008D01*
X306559Y178992D02*Y178008D01*
G54D142*X308800Y217800D02*X315400D01*
G54D137*X236224Y257732D02*Y255961D01*
X268724Y257732D02*Y255961D01*
X265575Y257732D02*Y255961D01*
X262425Y257732D02*Y255961D01*
X259276Y257732D02*Y255961D01*
X236224Y251039D02*Y249268D01*
X233075Y251039D02*Y249268D01*
X229925Y251039D02*Y249268D01*
X226776Y251039D02*Y249268D01*
X233075Y257732D02*Y255961D01*
X229925Y257732D02*Y255961D01*
X226776Y257732D02*Y255961D01*
X268724Y251039D02*Y249268D01*
X265575Y251039D02*Y249268D01*
X262425Y251039D02*Y249268D01*
X259276Y251039D02*Y249268D01*
G54D135*X308441Y139992D02*Y139008D01*
X313559Y139992D02*Y139008D01*
X318008Y137559D02*X318992D01*
X308441Y130992D02*Y130008D01*
X313559Y130992D02*Y130008D01*
X318008Y132441D02*X318992D01*
X279008Y106059D02*X279992D01*
X306508Y107059D02*X307492D01*
X306508Y101941D02*X307492D01*
X279008Y100941D02*X279992D01*
X336559Y115492D02*Y114508D01*
X337441Y121992D02*Y121008D01*
X342559Y121992D02*Y121008D01*
Y108992D02*Y108008D01*
X336941Y99992D02*Y99008D01*
X342059Y99992D02*Y99008D01*
X328059Y97992D02*Y97008D01*
X322941Y97992D02*Y97008D01*
X313441Y88992D02*Y88008D01*
X318559Y88992D02*Y88008D01*
X337441Y108992D02*Y108008D01*
X331441Y115492D02*Y114508D01*
G54D142*X360200Y157900D02*Y151300D01*
X348800Y164400D02*Y157800D01*
X339800Y164400D02*Y157800D01*
X330700Y164400D02*Y157800D01*
X378300Y157900D02*Y151300D01*
X369300Y157900D02*Y151300D01*
G54D135*X303059Y122992D02*Y122008D01*
X297941Y122992D02*Y122008D01*
X294008Y112441D02*X294992D01*
X294008Y117559D02*X294992D01*
X297441Y128492D02*Y127508D01*
X302559Y128492D02*Y127508D01*
G54D136*X165740Y104299D02*Y102331D01*
X162000Y104299D02*Y102331D01*
X158260Y104299D02*Y102331D01*
G54D135*X157559Y127992D02*Y127008D01*
X152441Y127992D02*Y127008D01*
X162008Y128559D02*X162992D01*
X171008Y125559D02*X171992D01*
X162008Y123441D02*X162992D01*
X166559Y117492D02*Y116508D01*
X161441Y117492D02*Y116508D01*
X171008Y120441D02*X171992D01*
X156008Y117441D02*X156992D01*
X156008Y122559D02*X156992D01*
G54D136*X158260Y93669D02*Y91701D01*
X162000Y93669D02*Y91701D01*
X165740Y93669D02*Y91701D01*
G54D135*X157559Y81992D02*Y81008D01*
X169941Y91992D02*Y91008D01*
X175059Y91992D02*Y91008D01*
X152441Y81992D02*Y81008D01*
X164059Y76492D02*Y75508D01*
G54D145*X168894Y48681D02*X170744D01*
X168894Y56319D02*X170744D01*
X161256Y52500D02*X163106D01*
G54D135*X155008Y49941D02*X155992D01*
X155008Y55059D02*X155992D01*
G54D146*X189000Y33000D02*X195500D01*
X189000Y38000D02*X195500D01*
X189000Y48000D02*X195500D01*
G54D135*X158941Y76492D02*Y75508D01*
X186008Y88441D02*X186992D01*
X190508Y78941D02*X191492D01*
X190508Y84059D02*X191492D01*
G54D146*X209500Y48000D02*X216000D01*
X209500Y43000D02*X216000D01*
X209500Y33000D02*X216000D01*
X209500Y38000D02*X216000D01*
X189000Y43000D02*X195500D01*
G54D135*X207559Y55492D02*Y54508D01*
X213059Y61492D02*Y60508D01*
X207941Y61492D02*Y60508D01*
X202441Y55492D02*Y54508D01*
X190441Y55492D02*Y54508D01*
X195559Y55492D02*Y54508D01*
G54D146*X218000Y74000D02*Y67500D01*
X213000Y74000D02*Y67500D01*
X208000Y74000D02*Y67500D01*
X203000Y74000D02*Y67500D01*
G54D135*X193508Y68559D02*X194492D01*
X193508Y63441D02*X194492D01*
X186008Y93559D02*X186992D01*
G54D146*X218000Y94500D02*Y88000D01*
X213000Y94500D02*Y88000D01*
X203000Y94500D02*Y88000D01*
X208000Y94500D02*Y88000D01*
G54D135*X235441Y46492D02*Y45508D01*
X240941Y38492D02*Y37508D01*
X240559Y46492D02*Y45508D01*
X233941Y98992D02*Y98008D01*
X234941Y104492D02*Y103508D01*
X239059Y98992D02*Y98008D01*
X240059Y104492D02*Y103508D01*
X238559Y93492D02*Y92508D01*
X233441Y93492D02*Y92508D01*
G54D144*X207200Y111000D02*X216200D01*
G54D135*X246059Y38492D02*Y37508D01*
X256441Y113492D02*Y112508D01*
X261559Y113492D02*Y112508D01*
X256441Y107992D02*Y107008D01*
X261559Y107992D02*Y107008D01*
X266008Y113059D02*X266992D01*
X266008Y107941D02*X266992D01*
X258441Y96992D02*Y96008D01*
X263559Y96992D02*Y96008D01*
X268008Y94941D02*X268992D01*
X268008Y100059D02*X268992D01*
X256441Y102492D02*Y101508D01*
X261559Y102492D02*Y101508D01*
X344941Y69992D02*Y69008D01*
X350059Y69992D02*Y69008D01*
X358941Y41492D02*Y40508D01*
X364059Y41492D02*Y40508D01*
X365508Y36059D02*X366492D01*
X365508Y30941D02*X366492D01*
X378008Y36441D02*X378992D01*
X378008Y41559D02*X378992D01*
X374008Y51059D02*X374992D01*
X374008Y45941D02*X374992D01*
X378008Y58941D02*X378992D01*
X378008Y64059D02*X378992D01*
X372508Y41559D02*X373492D01*
G54D136*X367831Y47260D02*X369799D01*
X367831Y51000D02*X369799D01*
X367831Y54740D02*X369799D01*
G54D135*X371008Y65059D02*X371992D01*
X371008Y59941D02*X371992D01*
X372508Y36441D02*X373492D01*
G54D136*X357201Y54740D02*X359169D01*
X357201Y51000D02*X359169D01*
X357201Y47260D02*X359169D01*
G54D135*X246059Y32992D02*Y32008D01*
X240941Y32992D02*Y32008D01*
X292441Y53492D02*Y52508D01*
X297559Y53492D02*Y52508D01*
X299059Y61992D02*Y61008D01*
X293941Y61992D02*Y61008D01*
X284441Y61992D02*Y61008D01*
X289559Y61992D02*Y61008D01*
X289607Y45872D02*Y44888D01*
X284489Y45872D02*Y44888D01*
M02*
