M48
INCH
T111C0.025
T110C0.012
T109C0.020
T108C0.045
T107C0.033
T106C0.044
T105C0.028
%
T110
X020200Y003100
X025300Y010700
X025700Y008400
X025750Y014900
X025800Y018900
X025800Y018600
X025950Y007950
X026050Y014600
X026200Y008300
X026250Y018900
X026250Y018600
X026250Y009000
X026300Y008000
X026400Y011700
X026500Y012050
X026600Y007950
X026650Y013900
X026700Y018900
X026700Y018600
X026950Y005600
X027150Y006650
X027150Y006300
X027300Y010150
X027300Y009450
X027450Y005050
X027550Y003300
X027600Y005800
X027800Y007950
X027800Y005550
X027850Y006300
X028000Y009300
X028100Y006550
X028300Y008950
X028300Y005450
X028350Y009300
X028550Y007050
X028650Y008950
X028650Y005800
X028700Y009400
X028700Y008100
X028950Y009100
X029150Y007800
X029200Y005700
X029250Y007500
X029500Y008900
X029500Y007250
X029500Y005750
X029750Y007000
X030000Y005800
X030650Y012000
X030650Y005550
X035350Y009100
X035950Y008850
T109
X015650Y023000
X015650Y015650
X015650Y008600
X015950Y016850
X015950Y009800
X016100Y022050
X016100Y015050
X016100Y008000
X016450Y016850
X016450Y009800
X016650Y019400
X016650Y012350
X016750Y014650
X016750Y007600
X016800Y022950
X016950Y024900
X017000Y018700
X017000Y011650
X017300Y022950
X017550Y019500
X017550Y012450
X018300Y014200
X018400Y010450
X018600Y009700
X018650Y016750
X018650Y007800
X018700Y005500
X019050Y011250
X019100Y007550
X019200Y015050
X019300Y012350
X019300Y011750
X019400Y007200
X019400Y006000
X019750Y016450
X019800Y011600
X019800Y011050
X019800Y010500
X019850Y004800
X019850Y003300
X019900Y014800
X019900Y014400
X019900Y005500
X019950Y017350
X020200Y016450
X020300Y007700
X020350Y014400
X020400Y017250
X020400Y006400
X020450Y003850
X020550Y008550
X020600Y021000
X020650Y004300
X020650Y003000
X020850Y017350
X020900Y014400
X021250Y005600
X021300Y024131
X021300Y017350
X021300Y016750
X021350Y014400
X021500Y014800
X021650Y006300
X021800Y024131
X022250Y023900
X022350Y009750
X022400Y025650
X022400Y025000
X022500Y010400
X022600Y012650
X022850Y009100
X022900Y024600
X022900Y008400
X023050Y014500
X023050Y014050
X023050Y013600
X023050Y013150
X023050Y012700
X023050Y011450
X023050Y005650
X023200Y008000
X023250Y006150
X023300Y018000
X023300Y017550
X023350Y024600
X023400Y017100
X023500Y011550
X023650Y008050
X023700Y003150
X023750Y018000
X023750Y005600
X023800Y006200
X023900Y025650
X023900Y025000
X023950Y011550
X024000Y023900
X024050Y012150
X024100Y017750
X024100Y004200
X024300Y006650
X024350Y011300
X024350Y010850
X024350Y010150
X024350Y009700
X024350Y008000
X024400Y016050
X024400Y005600
X024450Y024150
X024450Y013750
X024850Y016050
X024950Y024150
X025050Y005050
X025300Y016050
X025300Y010250
X025300Y008450
X025300Y005400
X025350Y008900
X025350Y008000
X025350Y007000
X025350Y006550
X025400Y023900
X025450Y011750
X025500Y018000
X025600Y017650
X025650Y025650
X025650Y025000
X025650Y013550
X025650Y005150
X025700Y003300
X025800Y005600
X025900Y016050
X025900Y004150
X026000Y017650
X026050Y012600
X026100Y005900
X026150Y024600
X026150Y015050
X026350Y016050
X026400Y006300
X026500Y014250
X026600Y024600
X026650Y014650
X026650Y010450
X027050Y015550
X027150Y025650
X027150Y025000
X027150Y015100
X027300Y011000
X027300Y010550
X027350Y011450
X027500Y020650
X027650Y015150
X027950Y011550
X027950Y010950
X027950Y004200
X028000Y016050
X028000Y009750
X028150Y015650
X028150Y005100
X028200Y014550
X028250Y016850
X028250Y016400
X028250Y015200
X028450Y004150
X028550Y012600
X028650Y015550
X028750Y024800
X028750Y013500
X028900Y017100
X028900Y005300
X028950Y004150
X029000Y013950
X029100Y003650
X029150Y012600
X029200Y013550
X029400Y012200
X029450Y020200
X029450Y015500
X029500Y019300
X029650Y017050
X029750Y025050
X029750Y024550
X029800Y018900
X029800Y013650
X030100Y019200
X030100Y009850
X030100Y005300
X030350Y017100
X030400Y018850
X030450Y013950
X030450Y003600
X030500Y004100
X030550Y003000
X030650Y012400
X030700Y011100
X030700Y009850
X030700Y005150
X030750Y018550
X030900Y019500
X030900Y013500
X030950Y025250
X031000Y008850
X031050Y018250
X031050Y017800
X031100Y017200
X031100Y016000
X031150Y011950
X031200Y012450
X031250Y016700
X031400Y013500
X031450Y019500
X031500Y016200
X031600Y014250
X031600Y011500
X031850Y017950
X031900Y010750
X031900Y003600
X031950Y016200
X031950Y015450
X032100Y014400
X032200Y008850
X032300Y009350
X032350Y008000
X032400Y015200
X032400Y013550
X032450Y025500
X032450Y024800
X032700Y011050
X032750Y025850
X032750Y025150
X032750Y023150
X032750Y022700
X032800Y011500
X032800Y009350
X032800Y008650
X032800Y006400
X032850Y010650
X033200Y023150
X033200Y022700
X033200Y014000
X033550Y012550
X033650Y024350
X033650Y023650
X033700Y009550
X033700Y008350
X033700Y006200
X033750Y010450
X033950Y024700
X033950Y024000
X034050Y025450
X034050Y003200
X034200Y022800
X034250Y011750
X034250Y011250
X034300Y017700
X034350Y007450
X034350Y006550
X034550Y009950
X034700Y023250
X034900Y017700
X035100Y023250
X035250Y025450
X035250Y022900
X035300Y006950
X035350Y016000
X035350Y015500
X035650Y009500
X036050Y005800
X036300Y010000
X036350Y005350
X036350Y004850
X036500Y021950
X036500Y021000
X036500Y020050
X036750Y004100
X036950Y023550
X037350Y025550
X037350Y023550
X037400Y024650
X037400Y012650
X037450Y005450
X037550Y014650
X037650Y025300
X037650Y024900
X037650Y024100
X037700Y023700
X037850Y006750
X037850Y003300
X038000Y014650
T111
X015250Y007700
X016650Y005250
X018500Y003550
T105
X018028Y005644
X018028Y004856
X018028Y024925
X018028Y024137
X018028Y023350
X018028Y022563
X018028Y021775
X018028Y019787
X018028Y019000
X018028Y018213
X018028Y016237
X018028Y015450
X018028Y014663
X018028Y012687
X018028Y011900
X018028Y011113
X018028Y009187
X018028Y008400
X018028Y007613
X020369Y022972
X021157Y022972
X021944Y022972
X022731Y022972
X023519Y022972
X024306Y022972
X025094Y022972
X025881Y022972
X026669Y022972
X027456Y022972
X028243Y022972
X029031Y022972
X030956Y022972
X031744Y022972
X035172Y024944
X035172Y024156
X035172Y022181
X035172Y021394
X035172Y020606
X035172Y019819
X035172Y006281
X035172Y005494
X035172Y004706
X035172Y003919
T107
X036766Y010384
X036766Y008416
T106
X017302Y025515
X017302Y021185
X017302Y020378
X017302Y017622
X017302Y016828
X017302Y014072
X017302Y013278
X017302Y010522
X017302Y009778
X017302Y007022
X017302Y006234
X017302Y004266
X019779Y023698
X029621Y023698
X030366Y023698
X032334Y023698
X035898Y025534
X035898Y023566
X035898Y022772
X035898Y019228
X035898Y006872
X035898Y003328
T108
X037829Y010778
X037829Y008022
M30
