G04 start of page 5 for group 3 idx 3 *
G04 Title: receiver, bottom *
G04 Creator: pcb 20140316 *
G04 CreationDate: Tue 02 Jan 2018 12:34:38 AM GMT UTC *
G04 For: brian *
G04 Format: Gerber/RS-274X *
G04 PCB-Dimensions (mil): 6000.00 5000.00 *
G04 PCB-Coordinate-Origin: lower left *
%MOIN*%
%FSLAX25Y25*%
%LNBOTTOM*%
%ADD103C,0.0453*%
%ADD102C,0.0335*%
%ADD101C,0.0437*%
%ADD100C,0.0279*%
%ADD99C,0.0118*%
%ADD98C,0.0200*%
%ADD97C,0.0240*%
%ADD96C,0.0360*%
%ADD95R,0.0200X0.0200*%
%ADD94R,0.0189X0.0189*%
%ADD93R,0.1220X0.1220*%
%ADD92R,0.0560X0.0560*%
%ADD91R,0.0300X0.0300*%
%ADD90R,0.1000X0.1000*%
%ADD89R,0.0709X0.0709*%
%ADD88R,0.0512X0.0512*%
%ADD87R,0.0177X0.0177*%
%ADD86R,0.0236X0.0236*%
%ADD85R,0.0295X0.0295*%
%ADD84C,0.0610*%
%ADD83C,0.0492*%
%ADD82C,0.0597*%
%ADD81C,0.0480*%
%ADD80C,0.0450*%
%ADD79C,0.0250*%
%ADD78C,0.0150*%
%ADD77C,0.0100*%
%ADD76C,0.0001*%
G54D76*G36*
X367500Y231500D02*Y238000D01*
X372000D01*
Y243000D01*
X380500D01*
Y231500D01*
X367500D01*
G37*
G36*
X372000Y260000D02*X382000D01*
Y244500D01*
X372000D01*
Y260000D01*
G37*
G36*
X345000Y225500D02*Y234500D01*
X354500D01*
Y225500D01*
X345000D01*
G37*
G36*
X364000Y146000D02*Y162000D01*
X355000D01*
Y188000D01*
X363000D01*
Y193500D01*
X360000Y196500D01*
X356000D01*
Y203000D01*
X362000D01*
Y200000D01*
X365000Y197000D01*
X382000D01*
Y162000D01*
X374500D01*
Y149000D01*
X371500Y146000D01*
X364000D01*
G37*
G36*
X334500Y156000D02*Y168500D01*
X319500D01*
X317000Y171000D01*
Y177000D01*
X321000D01*
Y182000D01*
X317000D01*
Y194500D01*
X343500D01*
Y211000D01*
X348000D01*
Y194500D01*
X354000D01*
Y179500D01*
X340000D01*
Y173500D01*
X345000Y168500D01*
Y152500D01*
X338000D01*
X334500Y156000D01*
G37*
G36*
X348000Y212000D02*X342500D01*
Y195500D01*
X319500D01*
Y203500D01*
X302500D01*
Y214000D01*
X319500D01*
Y222500D01*
X321500Y224500D01*
X348000D01*
Y212000D01*
G37*
G36*
X290000Y246500D02*Y249500D01*
X294500D01*
X295500Y250500D01*
Y252500D01*
X299500D01*
Y250500D01*
X300500Y249500D01*
X305000D01*
Y246500D01*
X300500D01*
X299500Y245500D01*
Y243500D01*
X295500D01*
Y245500D01*
X294500Y246500D01*
X290000D01*
G37*
G36*
X337000Y247000D02*Y249000D01*
X346500D01*
Y236000D01*
X341000D01*
X338000Y239000D01*
Y241000D01*
X339500Y242500D01*
Y244500D01*
X337000Y247000D01*
G37*
G36*
X339000Y236500D02*Y234500D01*
X328500D01*
Y248000D01*
X326000Y250500D01*
Y252500D01*
X328000Y254500D01*
Y255500D01*
X325500Y258000D01*
Y260000D01*
X335500D01*
Y247000D01*
X338000Y244500D01*
Y242500D01*
X336500Y241000D01*
Y239000D01*
X339000Y236500D01*
G37*
G36*
X327000Y248000D02*Y246000D01*
X317500D01*
Y259000D01*
X323000D01*
X326000Y256000D01*
Y254000D01*
X324500Y252500D01*
Y250500D01*
X327000Y248000D01*
G37*
G36*
X356000Y49500D02*Y52500D01*
X360500D01*
X361500Y53500D01*
Y55500D01*
X365500D01*
Y53500D01*
X366500Y52500D01*
X371000D01*
Y49500D01*
X366500D01*
X365500Y48500D01*
Y46500D01*
X361500D01*
Y48500D01*
X360500Y49500D01*
X356000D01*
G37*
G36*
X237697Y147500D02*X252000D01*
X256300Y143200D01*
Y143047D01*
X256296Y143000D01*
X256311Y142812D01*
X256355Y142628D01*
X256427Y142454D01*
X256526Y142292D01*
X256526Y142292D01*
X256649Y142149D01*
X256685Y142118D01*
X260800Y138003D01*
Y132800D01*
X255689Y127689D01*
X255688Y127689D01*
X255500Y127704D01*
X255453Y127700D01*
X236700D01*
Y146503D01*
X237697Y147500D01*
G37*
G36*
X256500Y196500D02*X257500D01*
Y200000D01*
X264500D01*
Y195500D01*
X268000D01*
Y185000D01*
X256500D01*
Y196500D01*
G37*
G36*
X269000Y184000D02*Y197500D01*
X265500Y201000D01*
X257500D01*
Y202500D01*
X252000D01*
X250000Y204500D01*
Y216000D01*
X253000D01*
Y207500D01*
X270500D01*
X272500Y205500D01*
Y175000D01*
X265500Y168000D01*
X244000D01*
Y182000D01*
X256500D01*
Y184000D01*
X269000D01*
G37*
G36*
X245500Y249000D02*X248500D01*
Y244500D01*
X249500Y243500D01*
X251500D01*
Y239500D01*
X249500D01*
X248500Y238500D01*
Y234000D01*
X245500D01*
Y238500D01*
X244500Y239500D01*
X242500D01*
Y243500D01*
X244500D01*
X245500Y244500D01*
Y249000D01*
G37*
G36*
X169000Y237000D02*X172000D01*
Y232500D01*
X173000Y231500D01*
X175000D01*
Y227500D01*
X173000D01*
X172000Y226500D01*
Y222000D01*
X169000D01*
Y226500D01*
X168000Y227500D01*
X166000D01*
Y231500D01*
X168000D01*
X169000Y232500D01*
Y237000D01*
G37*
G36*
X160500Y176000D02*X163500D01*
Y171500D01*
X164500Y170500D01*
X166500D01*
Y166500D01*
X164500D01*
X163500Y165500D01*
Y161000D01*
X160500D01*
Y165500D01*
X159500Y166500D01*
X157500D01*
Y170500D01*
X159500D01*
X160500Y171500D01*
Y176000D01*
G37*
G36*
Y105500D02*X163500D01*
Y101000D01*
X164500Y100000D01*
X166500D01*
Y96000D01*
X164500D01*
X163500Y95000D01*
Y90500D01*
X160500D01*
Y95000D01*
X159500Y96000D01*
X157500D01*
Y100000D01*
X159500D01*
X160500Y101000D01*
Y105500D01*
G37*
G36*
X243000Y168500D02*X216000D01*
Y182000D01*
X243000D01*
Y168500D01*
G37*
G36*
X255500Y183000D02*X245000D01*
X241500Y186500D01*
Y197000D01*
X230000Y208500D01*
X216000D01*
Y216000D01*
X231500D01*
X236500Y221000D01*
X242000D01*
Y210500D01*
X249500Y203000D01*
Y195500D01*
X251000Y194000D01*
X255500D01*
Y183000D01*
G37*
G36*
X214000Y248815D02*X217000D01*
Y244315D01*
X218000Y243315D01*
X220000D01*
Y239315D01*
X218000D01*
X217000Y238315D01*
Y233815D01*
X214000D01*
Y238315D01*
X213000Y239315D01*
X211000D01*
Y243315D01*
X213000D01*
X214000Y244315D01*
Y248815D01*
G37*
G36*
X205500Y129000D02*X195500D01*
Y147500D01*
X197000Y149000D01*
Y152000D01*
X206500D01*
Y146000D01*
X205500Y145000D01*
Y129000D01*
G37*
G36*
X218000D02*Y152000D01*
X228000D01*
Y129000D01*
X218000D01*
G37*
G36*
X207500Y152000D02*X217000D01*
Y128000D01*
X223500D01*
Y125500D01*
X226000Y123000D01*
Y109000D01*
X218000Y101000D01*
X196000D01*
X195500Y101500D01*
Y128000D01*
X206500D01*
Y144500D01*
X207500Y145500D01*
Y152000D01*
G37*
G54D77*X342500Y117500D02*Y121441D01*
X342559Y121500D01*
Y112323D02*X342441Y112441D01*
X328000Y115000D02*X331441D01*
X336559D02*X339000Y112559D01*
X342559D01*
X328059Y97500D02*Y93559D01*
X336941Y99500D02*Y95559D01*
X342059Y99500D02*X345500D01*
X334000Y92500D02*X337000Y95500D01*
G54D78*X349000Y98000D02*X340500Y89500D01*
G54D77*X337441Y121500D02*Y123559D01*
Y108500D02*Y104559D01*
X337500Y104500D01*
X337441Y123559D02*X335500Y125500D01*
X342559Y112323D02*Y108500D01*
G54D78*X342500Y118000D02*X349000Y111500D01*
Y98000D01*
G54D79*X375500Y146500D02*X378300Y149300D01*
Y154600D01*
X380000Y146500D02*X377750Y148750D01*
X380000Y146500D02*Y152900D01*
X378300Y154600D01*
X380000Y146500D02*X375500D01*
X360200Y154600D02*X356100Y150500D01*
X334500D01*
X353500Y160000D02*X349900D01*
X348800Y161100D01*
X353500Y156400D02*X348800Y161100D01*
X353500Y155000D02*Y156400D01*
Y160000D02*Y155000D01*
X353000Y155500D01*
X349500D01*
X350500D02*Y160000D01*
G54D77*X322941Y97500D02*Y93559D01*
X324000Y106500D02*Y107500D01*
X327000Y110500D01*
X319000Y107500D02*Y111000D01*
X329000Y121000D01*
X316000Y110500D02*Y102500D01*
X327000Y121500D02*X316000Y110500D01*
X323000Y149000D02*X329000Y143000D01*
X322500Y147000D02*X327000Y142500D01*
X332000Y140000D02*Y148500D01*
X325500Y155000D01*
G54D79*X334500Y150500D02*X330700Y154300D01*
Y161100D01*
G54D77*X329000Y143000D02*Y121000D01*
X327000Y142500D02*Y121500D01*
X313559Y130500D02*X316559D01*
X318500Y132441D01*
X313559Y130500D02*X313500D01*
X318500Y132441D02*X320941D01*
X315000Y154000D02*X320000Y149000D01*
X316000Y147000D02*X322500D01*
X319500Y154500D02*X320000Y155000D01*
X325500D01*
X320941Y132441D02*X324000Y135500D01*
X320000Y149000D02*X323000D01*
X248500Y160500D02*X240500Y152500D01*
X256000Y156000D02*X261500Y150500D01*
X253000Y160500D02*X242500Y150000D01*
X263500Y160500D02*X267000D01*
Y157500D02*X262000D01*
X259000Y160500D01*
X257500Y143000D02*X262000Y138500D01*
X260500Y142500D02*X264000Y139000D01*
X257500Y149000D02*Y143000D01*
X260500Y146000D02*Y142500D01*
X282500Y152000D02*Y150500D01*
X281500Y156500D02*X283500Y158500D01*
X270500Y155500D02*X277500D01*
X279500Y153500D01*
Y150000D01*
X276500Y147000D01*
Y151500D02*X274500Y149500D01*
X283500Y158500D02*X288000D01*
X289500Y157000D01*
X280000Y160500D02*X288500D01*
X291500Y157500D01*
X289500Y157000D02*Y154000D01*
X291500Y157500D02*Y153500D01*
X289500Y154000D02*X285000Y149500D01*
X291500Y153500D02*X287000Y149000D01*
X292500Y152000D02*X289000Y148500D01*
X293500Y158000D02*X296000D01*
X294500Y160000D02*X296500D01*
X296000Y152000D02*X292500D01*
X282500Y150500D02*X278500Y146500D01*
X274500Y149500D02*Y119000D01*
X276500Y147000D02*Y119500D01*
X278500Y146500D02*Y121000D01*
X282500Y137000D02*Y122000D01*
X280500Y137500D02*Y121500D01*
X285000Y149500D02*Y144000D01*
X287000Y149000D02*Y143500D01*
X289000Y148500D02*Y143000D01*
X287000Y141000D01*
Y143500D02*X285000Y141500D01*
Y139500D01*
Y144000D02*X283000Y142000D01*
Y140000D01*
X285000Y139500D02*X282500Y137000D01*
X283000Y140000D02*X280500Y137500D01*
X273500Y114000D02*Y114500D01*
X296000Y139500D02*X292000Y135500D01*
X284500Y133500D02*X288500Y129500D01*
X287000Y141000D02*Y139000D01*
X284500Y136500D01*
Y133500D01*
X288500Y129500D02*Y115000D01*
X294000Y122000D02*Y124000D01*
X295000Y125000D01*
Y125559D01*
X297441Y128000D01*
X294500Y117559D02*Y121500D01*
X294000Y122000D01*
X235500Y147000D02*Y127000D01*
X236000Y126500D01*
X238500Y121500D02*X240500D01*
X239000Y118500D02*X243000D01*
X264000Y139000D02*Y131000D01*
X262000Y138500D02*Y129500D01*
X249500Y124500D02*X254500D01*
X243000Y118500D02*X249500Y124500D01*
X236000Y126500D02*X255500D01*
X254500Y124500D02*X257500Y121500D01*
Y118000D02*Y121500D01*
X255500Y126500D02*X261500Y120500D01*
X257500Y118000D02*X258500Y117000D01*
X262500D01*
X264000Y131000D02*X270000Y125000D01*
X262000Y129500D02*X267500Y124000D01*
Y114500D01*
X266000Y113000D01*
X262500Y117000D02*X264000D01*
X261500Y120500D02*X265000D01*
X328059Y93559D02*X328000Y93500D01*
X322941Y93559D02*X323000Y93500D01*
X316000Y102500D02*X302000Y88500D01*
X307000Y101941D02*Y98500D01*
X313441Y88500D02*X310000D01*
X301000Y98500D02*X299500Y97000D01*
X306500Y89500D02*X324000Y106500D01*
X322000Y88500D02*X318559D01*
X309000Y131059D02*X308441Y130500D01*
X304500Y131500D02*X299000D01*
X297441Y129941D01*
X309000Y131059D02*Y138941D01*
X305500Y128000D02*Y130500D01*
X304500Y131500D01*
X306500Y127000D02*X310000D01*
X313500Y130500D02*X310000Y127000D01*
X304500Y139500D02*X296000D01*
X303059Y128000D02*X306500Y124559D01*
Y124000D01*
X303059Y122500D02*X305000D01*
X306500Y124000D01*
X305500Y128000D02*X306500Y127000D01*
X297441Y129941D02*Y128000D01*
X309000Y138941D02*X308441Y139500D01*
X313559D02*X316559D01*
X318500Y137559D01*
X316000Y142500D02*Y139500D01*
X315000D02*Y141500D01*
X316000Y142500D01*
X296000Y158000D02*X297500Y156500D01*
Y153500D01*
X296000Y152000D01*
X296500Y160000D02*X299500Y157000D01*
X306000D01*
X315000Y162000D02*Y154000D01*
X306000Y157000D02*X316000Y147000D01*
X297500Y111500D02*X298000Y112000D01*
Y122500D01*
X307000Y107059D02*Y111000D01*
G54D78*X311500Y119500D02*X316000Y115000D01*
G54D77*X274500Y119000D02*X276500Y117000D01*
Y119500D02*X279500Y116500D01*
Y115500D01*
X278500Y121000D02*X282500Y117000D01*
X280500Y121500D02*X284500Y117500D01*
X282500Y117000D02*Y113500D01*
X284500Y117500D02*Y114000D01*
X282500Y122000D02*X286500Y118000D01*
X276500Y117000D02*Y114000D01*
X286500Y118000D02*Y114500D01*
X276500Y114000D02*X278000Y112500D01*
X281000D01*
X279500Y106059D02*Y109500D01*
X281000Y112500D02*X283000Y110500D01*
X282500Y113500D02*X285000Y111000D01*
X284500Y114000D02*X287000Y111500D01*
X286500Y114500D02*X289000Y112000D01*
X288500Y115000D02*X291000Y112500D01*
X276000Y111500D02*X273500Y114000D01*
X291000Y112500D02*Y102000D01*
X289000Y112000D02*Y100500D01*
X287000Y111500D02*Y98500D01*
X294500Y112441D02*X295441Y111500D01*
X297500D01*
X285000Y96000D02*X287000Y94000D01*
X285000Y111000D02*Y96000D01*
X276000Y111500D02*Y93000D01*
X280000Y97500D02*X279500Y98000D01*
Y101000D01*
X283500Y93000D02*X283000Y93500D01*
Y110500D01*
X272500Y101500D02*X273000D01*
X291000Y102000D02*X294000Y99000D01*
Y90000D01*
X292000Y87500D02*Y97500D01*
X297500Y111500D02*Y87500D01*
X295000Y89000D02*X294000Y90000D01*
X287000Y98500D02*X290000Y95500D01*
X289500Y91000D02*X290000Y91500D01*
Y95500D01*
X289000Y100500D02*X292000Y97500D01*
X270000Y125000D02*Y104000D01*
X272500Y101500D01*
X248500Y101000D02*X256500Y93000D01*
X275000Y92000D02*X276000Y93000D01*
X273000Y94500D02*X272559Y94941D01*
X268500D01*
X256500Y93000D02*X265000D01*
X266000Y92000D01*
X275000D01*
X180283Y154500D02*X171500D01*
X174409Y152500D02*X167500D01*
G54D79*X206543Y155543D02*X203457Y152457D01*
Y149000D01*
G54D77*X176500Y150409D02*Y149500D01*
X166000Y160000D02*Y162925D01*
X165740Y163185D02*X168756D01*
X169941Y162000D01*
X175059D02*X179909D01*
X180283Y162374D01*
X169941Y162000D02*Y159559D01*
X171000Y158500D01*
X191441D02*X171000D01*
G54D79*X152441Y243500D02*X152500Y81500D01*
G54D77*X158260Y163185D02*X156685D01*
X155500Y162000D01*
X158260Y173815D02*X155000Y177075D01*
Y186441D01*
X156500Y187941D01*
Y193059D02*Y196941D01*
X180283Y182126D02*X171126D01*
X171000Y180500D02*X175500D01*
X178000Y178000D01*
X157559Y152000D02*X159500D01*
X161000Y150500D01*
X158941Y146500D02*Y148441D01*
X161000Y150500D01*
X167500Y146500D02*X164059D01*
X158618Y128559D02*X179098D01*
X180283Y127374D01*
X171500Y125559D02*X174441D01*
X175500Y124500D01*
X176500Y115717D02*Y116000D01*
X168000Y174000D02*X168500Y174500D01*
X184000Y208000D02*Y182500D01*
X176500Y186217D02*Y187000D01*
X168500Y174500D02*Y178000D01*
X171000Y180500D01*
X192000Y159059D02*X191441Y158500D01*
X192000Y150500D02*Y153941D01*
X204500Y167500D02*X205000Y167000D01*
Y160500D02*Y167000D01*
X197000Y164500D02*X197500D01*
X199000Y161500D02*X202000Y164500D01*
X186500Y167500D02*Y164059D01*
X198500Y167500D02*X204500D01*
X187000Y174500D02*X197000Y164500D01*
X190000Y168500D02*Y167500D01*
X196000Y161500D01*
X193000Y123500D02*X190000Y120500D01*
Y113000D01*
X190500Y112500D01*
X195500Y93500D02*X196500Y92500D01*
G54D78*X194500Y82500D02*Y89000D01*
X191000Y92500D01*
X190500D01*
G54D77*X196500D02*Y84000D01*
X199500Y81000D01*
X186500Y88441D02*Y85500D01*
X188000Y84000D01*
X191000D01*
G54D78*X190500Y92500D02*X186000Y97000D01*
G54D77*X158118Y244059D02*X157559Y243500D01*
X156500Y230000D02*Y232441D01*
X157500Y233441D01*
X161000Y229059D02*Y234500D01*
X162500Y236000D01*
X163000Y243500D02*X162441Y244059D01*
X162559Y194000D02*X162500Y193941D01*
X156500Y196941D02*X158618Y199059D01*
X179098D01*
X180283Y197874D01*
X171500Y196059D02*X174441D01*
X175500Y195000D01*
X157500Y238559D02*X162441D01*
X174535Y243500D02*X163000D01*
X180157Y225500D02*X174000D01*
X172945Y218000D02*X180035D01*
X166760Y234815D02*X163685D01*
X162500Y236000D01*
Y238941D01*
X173445Y241500D02*X180157D01*
X180283Y233500D02*X174000D01*
X162500Y244059D02*X158118D01*
X160941Y249000D02*Y244118D01*
G54D78*X169500Y249000D02*X166059D01*
G54D77*X176500Y245465D02*Y246000D01*
G54D78*X235500Y239055D02*Y230028D01*
X219240Y236000D02*Y229918D01*
X211760Y236000D02*Y229910D01*
G54D77*X219240Y236000D02*X219500D01*
X222500Y239000D01*
G54D78*X227500Y238370D02*Y229902D01*
G54D77*X233075Y246425D02*X233500Y246000D01*
X229925Y246925D02*X229000Y246000D01*
G54D78*X204000Y238870D02*Y230024D01*
G54D77*X211760Y235740D02*X209740D01*
X211760Y246630D02*X204630D01*
X202000Y244000D01*
X219240Y246630D02*Y249740D01*
X209740Y235740D02*X207500Y233500D01*
G54D78*X246043Y217500D02*Y212032D01*
X250740Y236185D02*Y229914D01*
X259000Y238555D02*Y229906D01*
G54D77*X250740Y236185D02*X251185D01*
X254000Y239000D01*
G54D78*X243260Y236185D02*Y229914D01*
G54D77*Y236260D02*X242740D01*
X240000Y239000D01*
X250740Y249240D02*Y246815D01*
X207500Y233500D02*Y226500D01*
X202000Y244000D02*Y234500D01*
X200000Y232500D01*
Y228000D01*
X176925Y237500D02*X182000D01*
X176425Y222000D02*X184500D01*
X187000Y219500D01*
X164941Y191000D02*X161441Y187500D01*
X156530Y187970D02*X161911D01*
X166000Y177000D02*Y174075D01*
X174283Y184000D02*X167000D01*
X166000Y174000D02*X168000D01*
X166500Y194000D02*X162559D01*
X170941Y191000D02*X164941D01*
X166559Y187500D02*X170000D01*
X170500Y187000D01*
X174240Y224185D02*X176425Y222000D01*
X161000Y223941D02*Y220500D01*
X174240Y234815D02*X176925Y237500D01*
X187000Y219500D02*Y183000D01*
X190500Y179500D01*
Y175500D01*
X190000Y184500D02*X193500Y181000D01*
X192500Y186500D02*X196500Y182500D01*
X195500Y187500D02*X199500Y183500D01*
Y179000D01*
X184000Y182500D02*X187000Y179500D01*
X178000Y178000D02*X180500D01*
X190000Y168500D01*
X187000Y179500D02*Y174500D01*
X190000Y184500D02*Y207500D01*
X192500Y186500D02*Y206000D01*
X195500Y187500D02*Y206500D01*
X166760Y224185D02*Y217240D01*
X168000Y216000D01*
X176000D01*
X184000Y208000D01*
X182000Y237500D02*X188500Y231000D01*
Y221000D01*
X189500Y220000D01*
X197575Y215075D02*X190000Y207500D01*
X200724Y214224D02*X192500Y206000D01*
X203000Y214000D02*X195500Y206500D01*
X189500Y220000D02*X202500D01*
X203000Y219500D01*
X200724Y223346D02*X204346D01*
X207500Y226500D01*
X197575Y223346D02*Y225575D01*
Y216654D02*Y215075D01*
X200724Y216654D02*Y214224D01*
X203000Y219500D02*Y214000D01*
X197575Y225575D02*X200000Y228000D01*
X193500Y181000D02*Y175000D01*
X196500Y182500D02*Y176500D01*
X199500Y173500D01*
Y179000D02*X204000Y174500D01*
X193500Y175000D02*X199000Y169500D01*
X204000Y174500D02*Y172500D01*
X190500Y175500D02*X198500Y167500D01*
X199000Y169500D02*X211000D01*
X213000Y167500D01*
X166500Y123500D02*X162559D01*
X162500Y123441D01*
X155000Y115941D02*X156500Y117441D01*
Y122559D02*Y126441D01*
X218000Y91250D02*X203000D01*
X203500Y82500D02*X222000D01*
X203000Y80500D02*X221000D01*
X256500Y83500D02*X257000Y84000D01*
X205500Y85500D02*Y91250D01*
X203500Y82500D02*X200500Y85500D01*
Y95500D01*
X198500Y93000D02*Y85000D01*
X203000Y80500D01*
G54D78*X228500Y91000D02*Y97500D01*
G54D77*X233500Y147500D02*Y126500D01*
X238500Y121500D01*
X230500Y127000D02*X239000Y118500D01*
X195000Y97500D02*X198500D01*
X200500Y95500D02*X198500Y97500D01*
X194500Y95500D02*X196000D01*
X198500Y93000D01*
X194000Y93500D02*X195500D01*
X188000Y102000D02*Y105000D01*
X185500Y107500D01*
X184000Y104500D02*Y103500D01*
X185500Y107500D02*X178500D01*
X176000Y110000D01*
X188000Y102000D02*X194500Y95500D01*
X184000Y103500D02*X194000Y93500D01*
X156500Y126441D02*X158618Y128559D01*
X158260Y92685D02*X156685D01*
X174283Y113500D02*X167000D01*
X170941Y120500D02*X164941D01*
X161441Y117000D01*
X156530Y117470D02*X161911D01*
X166559Y117000D02*X170000D01*
X170500Y116500D01*
X174409Y82000D02*X167500D01*
X186500Y88000D02*X171000D01*
X186500Y97000D02*Y93559D01*
X185000Y110500D02*X191000Y104500D01*
Y101500D01*
X165740Y103315D02*X167815D01*
X168500Y104000D01*
Y107000D01*
X171500Y110000D01*
X176000D01*
X158260Y103315D02*X155000Y106575D01*
Y115941D01*
X180283Y111626D02*X171126D01*
X166000Y106500D02*Y103575D01*
Y89500D02*Y92425D01*
X175059Y91500D02*X179909D01*
X180283Y91874D01*
Y84000D02*X171500D01*
G54D78*X180165Y56319D02*X156760D01*
G54D77*X176500Y79909D02*Y79000D01*
G54D78*X156760Y56319D02*X155500Y55059D01*
G54D77*X156685Y92685D02*X155500Y91500D01*
Y87000D01*
X156500Y86000D01*
X165740Y92685D02*X168756D01*
X167500Y76000D02*X164059D01*
X168756Y92685D02*X169941Y91500D01*
Y89059D01*
X171000Y88000D01*
X157559Y81500D02*X159500D01*
X161000Y80000D01*
X158941Y76000D02*Y77941D01*
X161000Y80000D01*
G54D79*X152500Y81500D02*Y77000D01*
G54D78*X197500Y79500D02*Y65500D01*
G54D77*X194000Y72000D02*Y68559D01*
Y60000D02*Y63441D01*
X199500Y81000D02*Y67000D01*
X191000Y75500D02*Y78941D01*
G54D78*X197500Y79500D02*X194500Y82500D01*
X180165Y48681D02*X156760D01*
X155500Y49941D01*
G54D77*X156760Y48681D02*X166941Y38500D01*
X165500Y36500D02*X155000Y47000D01*
G54D78*X162181Y52500D02*X166500D01*
G54D77*X152000Y48000D02*Y53500D01*
X153500Y55000D01*
X155441D01*
X155000Y47000D02*X153000D01*
X152000Y48000D01*
G54D79*X192250Y33000D02*X198500D01*
G54D77*X192250Y38000D02*X191250Y39000D01*
X183000D01*
X180500Y36500D01*
X182500Y43000D02*X192500D01*
X180500Y36500D02*X165500D01*
X167000Y38441D02*X177941D01*
X182500Y43000D01*
G54D79*X212750D02*X206500D01*
G54D77*X212750Y48000D02*X224000D01*
X237500Y32500D02*X237000Y32000D01*
X206500Y30000D02*X233000D01*
X234500Y28500D01*
X212750Y33000D02*X219500D01*
X231500Y45000D01*
Y48500D01*
X234000Y51000D01*
X235500Y64500D02*X232500Y61500D01*
X236000Y59000D02*X233500Y56500D01*
X230500D01*
X240941Y32500D02*X237500D01*
X240941Y46000D02*Y42059D01*
X241000Y42000D01*
X240941Y38000D02*Y41941D01*
X241000Y42000D01*
X224000Y48000D02*X229000Y53000D01*
X234000Y51000D02*X244500D01*
X229000Y53000D02*X239500D01*
G54D78*X233441Y93000D02*Y93059D01*
G54D77*X232500Y87500D02*X252000D01*
X253500Y89000D01*
G54D78*X234941Y104000D02*X232000D01*
X231000Y103000D01*
Y99500D01*
G54D77*X234941Y98500D02*Y96618D01*
X236500Y108500D02*X230500Y114500D01*
X253000Y102500D02*X255941D01*
X261500Y102000D02*Y107500D01*
X253000Y107000D02*X255941D01*
X256441Y107500D01*
Y113000D02*Y107500D01*
X261559D02*X266059D01*
X261559Y113000D02*X266441D01*
X266500Y113059D01*
X243500Y108500D02*X236500D01*
X243500Y113000D02*X242500Y112000D01*
X238500D01*
X235000Y115500D01*
X255000Y92000D02*X260000Y87000D01*
X246059Y32500D02*Y38000D01*
X254000Y61500D02*X256500Y64000D01*
X258000Y53000D02*X256500Y51500D01*
X259000Y41500D02*X265500D01*
X214500Y61000D02*X216500Y63000D01*
X213000Y70750D02*Y75500D01*
X214000Y76500D01*
X208000Y70750D02*Y61059D01*
X221500Y76500D02*X214000D01*
X222000Y85500D02*X230500Y77000D01*
X234000D01*
X234500Y77500D01*
X222000Y82500D02*X229500Y75000D01*
X228500Y73000D02*X221000Y80500D01*
X221500Y76500D02*X227000Y71000D01*
X229500Y75000D02*X234500D01*
X235000Y73000D02*X228500D01*
X227000Y71000D02*X235500D01*
X236500Y69000D02*X226000D01*
X224250Y70750D02*X226000Y69000D01*
X238000Y62000D02*X239500Y63500D01*
X251500D01*
X242000Y61500D02*X254000D01*
X251500Y63500D02*X253500Y65500D01*
X261000Y63500D02*Y64500D01*
X262500Y66000D01*
X259000Y64000D02*Y65000D01*
X263000Y69000D01*
X256500Y64000D02*Y67000D01*
Y79000D02*X258500Y77000D01*
X256500Y79000D02*Y83500D01*
X262000Y83000D02*X264250Y85250D01*
X256500Y67000D02*X253500Y70000D01*
X255000Y57500D02*X261000Y63500D01*
Y59000D02*X261500Y58500D01*
X155500Y162000D02*Y157500D01*
X156500Y156500D01*
X187500Y141500D02*X195500Y149500D01*
Y154000D02*X197000Y155500D01*
X200000D01*
X195500Y149500D02*Y154000D01*
X183000Y142000D02*X185000Y140000D01*
Y110500D01*
X194000Y101000D02*Y104500D01*
X187500Y111000D02*X194000Y104500D01*
X187500Y111000D02*Y141500D01*
X191000Y101500D02*X195000Y97500D01*
X200000Y155500D02*X205000Y160500D01*
G54D79*X221000Y155543D02*X206543D01*
G54D77*X196000Y161500D02*X199000D01*
X244000Y160500D02*X230500Y147000D01*
X238500Y150000D02*X235500Y147000D01*
X230500D02*Y145000D01*
X240500Y152500D02*X238500D01*
X233500Y147500D01*
X242500Y150000D02*X238500D01*
X232500Y87500D02*X229000Y84000D01*
Y83500D01*
X218000Y70750D02*X224250D01*
X203000D02*Y77000D01*
G54D78*X233441Y93059D02*X229000Y97500D01*
X223000D01*
X231000Y99500D02*X229000Y97500D01*
G54D77*X225000Y104000D02*X223000D01*
X218500Y99500D01*
X195500D01*
X194000Y101000D01*
G54D79*X192250Y48000D02*X198500D01*
G54D78*X190441Y55000D02*X187000D01*
X204500Y38500D02*X203000Y40000D01*
Y47559D01*
X202441Y55000D02*X195559D01*
X203000Y47500D02*X207559Y52059D01*
Y55441D01*
X197500Y65500D01*
G54D77*X213059Y61000D02*X214500D01*
X202500Y64000D02*X204000D01*
X199500Y67000D02*X202500Y64000D01*
G54D79*X212750Y38000D02*X205000D01*
X204500Y38500D01*
X368500Y241500D02*X351780D01*
X351717Y241563D01*
X368500Y249500D02*X351780D01*
X351717Y249437D01*
X340500Y254500D02*X343941D01*
X349059D02*X352500D01*
X365000Y200500D02*X369512D01*
G54D78*X352000Y199500D02*X358500D01*
G54D79*X369512Y219500D02*X365000D01*
G54D78*X345000Y218000D02*X358500D01*
G54D79*X369512Y210000D02*X365000D01*
G54D78*X358488D02*X346500D01*
G54D79*X337488Y228000D02*X342000D01*
X351500Y225012D02*Y222028D01*
G54D78*X354488Y206000D02*X351780D01*
X300055Y241500D02*X294216D01*
X289342Y244500D02*X291945D01*
X288468Y251500D02*X291945D01*
G54D77*X292000Y244500D02*X290500D01*
X287500Y247500D01*
Y248000D01*
G54D78*X309500Y245055D02*Y229780D01*
G54D79*X300500Y215000D02*X303300Y217800D01*
X312100Y218100D02*X321000Y227000D01*
X332000D01*
Y231500D02*X327500D01*
Y227000D01*
X332000Y231500D02*Y227000D01*
X330000D02*Y231500D01*
X323500Y227000D02*X328000Y231500D01*
G54D77*X292000Y251500D02*Y253500D01*
X302815Y251740D02*Y256374D01*
X302941Y256500D01*
X308059D02*Y253941D01*
X309500Y252500D01*
X292000Y253500D02*X291000Y254500D01*
X275500D01*
G54D79*X314500Y184000D02*X300500Y198000D01*
X301441Y185559D02*X298000Y189000D01*
X301000Y192000D01*
X300000Y187000D02*Y191000D01*
X300500Y198000D02*Y215000D01*
X303300Y217800D02*X312100D01*
Y218100D01*
X309000Y195000D02*Y196600D01*
X312100Y199700D01*
X314500Y195000D02*Y197300D01*
X312100Y199700D01*
X309000Y195000D02*X314500D01*
Y197300D02*X310200D01*
G54D78*X306559Y178500D02*X310000D01*
X306559Y178559D02*X310500Y182500D01*
X308500Y178500D02*Y180500D01*
G54D79*X314500Y177500D02*Y184000D01*
G54D78*X310000Y178500D02*X310500Y178000D01*
G54D79*X279000Y178500D02*X301441D01*
G54D77*X280000Y176000D02*X296000D01*
X280500Y174000D02*X291000D01*
X292000Y173000D01*
X309000Y174000D02*X311000Y172000D01*
G54D78*X306559Y178500D02*Y178559D01*
G54D79*X301441Y178500D02*Y185559D01*
G54D77*X298000Y174000D02*X309000D01*
X296000Y176000D02*X298000Y174000D01*
G54D79*X330700Y161100D02*X325300Y166500D01*
X318500D01*
X315000Y170000D01*
Y177000D01*
X314500Y177500D01*
G54D78*X275000Y210543D02*X274043Y211500D01*
X275000Y210543D02*Y206500D01*
X265772Y210315D02*X266957Y211500D01*
X260043Y210358D02*X260000Y210315D01*
X260043Y217000D02*Y210358D01*
X255240Y210315D02*X265772D01*
X246043Y212032D02*X247760Y210315D01*
X251500Y214500D02*Y210315D01*
X259905Y195500D02*X262500Y192905D01*
X253000Y195500D02*X259905D01*
X251500Y197000D02*X253000Y195500D01*
X251500Y199685D02*Y197000D01*
G54D80*X239095Y172000D02*Y160595D01*
X227000Y148500D01*
G54D79*X221000D01*
G54D77*X226000Y126500D02*X227500Y125000D01*
Y107000D01*
X228000Y106500D01*
Y102000D01*
X227000Y101000D01*
X222500D01*
X220500Y99000D01*
Y95500D01*
X222000Y94000D01*
Y85500D01*
X236224Y250154D02*X238846D01*
X239000Y250000D01*
X233075Y250154D02*Y246425D01*
X229925Y250154D02*Y246925D01*
X240000Y253500D02*X243260Y250240D01*
Y246815D01*
X226776Y250154D02*X224154D01*
X224000Y250000D01*
X219240Y249740D02*X223000Y253500D01*
X228500D01*
X234500D02*X240000D01*
X228500D02*X230000Y255000D01*
Y257000D01*
X226776Y256846D02*X224346D01*
X224000Y256500D01*
X233075Y256846D02*Y254925D01*
X234500Y253500D01*
X236224Y256846D02*X238654D01*
X239000Y256500D01*
X262425Y256846D02*Y254925D01*
X261000Y253500D01*
X255000D01*
X256500Y256500D02*X258929D01*
X259276Y256846D01*
X255000Y253500D02*X250740Y249240D01*
X256500Y250000D02*X259122D01*
X259276Y250154D01*
X275500Y254500D02*X274500Y253500D01*
X266500D01*
X271500Y250000D02*X268878D01*
X268724Y250154D01*
X266500Y253500D02*X265500Y254500D01*
X265575Y250154D02*Y246425D01*
X266000Y246000D01*
X262425Y250154D02*Y246925D01*
X261500Y246000D01*
X265500Y254500D02*Y257000D01*
X271500Y256500D02*X269071D01*
X268724Y256846D01*
G54D79*X266500Y166000D02*X279000Y178500D01*
G54D77*X267000Y160500D02*X280500Y174000D01*
X267500Y163500D02*X280000Y176000D01*
G54D79*X266500Y166000D02*X239095D01*
G54D77*X267500Y163500D02*X257000D01*
X256000Y162500D01*
Y156000D01*
X281000Y171500D02*X267000Y157500D01*
X282500Y164000D02*X287500D01*
X286500Y89500D02*X284000Y87000D01*
X282000D01*
X260000D02*X282000D01*
X281000Y171500D02*X288500D01*
X289000Y171000D01*
X292000Y173000D02*Y162500D01*
X294500Y160000D01*
X287500Y164000D02*X293500Y158000D01*
X357130Y39189D02*X358941Y41000D01*
X351717Y39189D02*X359811D01*
X366382Y36441D02*X366000Y36059D01*
Y30941D02*X364059Y29000D01*
X366000Y36059D02*X362941D01*
X304500Y36000D02*X319000D01*
X291000Y37000D02*Y36500D01*
X362941Y36059D02*X359811Y39189D01*
X234500Y28500D02*X304000D01*
X364059Y29000D02*X326000D01*
X299000Y30500D02*X259500D01*
X257000Y33000D01*
X237000Y31500D02*X235441Y33059D01*
X304000Y28500D02*X305500Y30000D01*
X326000Y29000D02*X319000Y36000D01*
X304500D02*X299000Y30500D01*
X340500Y32000D02*X334000Y38500D01*
X289559Y62441D02*X287000Y65000D01*
X343500Y65500D02*Y68059D01*
X344941Y69500D01*
X353000D02*X350059D01*
X290000Y67000D02*X293941Y63059D01*
X301000Y65000D02*X294500D01*
X364000Y74000D02*X344000D01*
X343500Y74500D01*
X323500Y80000D02*X314000D01*
X301500Y67500D02*X314000Y80000D01*
X295000Y72500D02*X302000Y79500D01*
X297500Y70000D02*X306500Y79000D01*
X292000Y87500D02*X289750Y85250D01*
X293500Y83500D02*X297500Y87500D01*
X299500Y97000D02*Y82000D01*
X302000Y88500D02*Y79500D01*
X306500Y89500D02*Y79000D01*
X292500Y75000D02*X299500Y82000D01*
X334000Y38500D02*Y92500D01*
G54D78*X340500Y89500D02*Y81000D01*
X339500Y80000D01*
Y64500D01*
X344000Y60000D01*
Y29000D01*
G54D77*X284489Y45380D02*Y41511D01*
X289607Y45380D02*Y41607D01*
X289500Y41500D01*
X284489Y41511D02*X284500Y41500D01*
X274500Y50500D02*X265500Y41500D01*
X310000Y50000D02*Y56000D01*
X306500Y55500D02*X304000Y53000D01*
Y50500D01*
X303500Y50000D01*
X291000Y37000D02*X302000Y48000D01*
X308000D01*
X310000Y50000D01*
X303500D02*X301000D01*
X300500Y49500D01*
X288000D01*
X286000Y51500D01*
Y55000D01*
X289559Y61500D02*Y62441D01*
X294500Y67500D02*X301500D01*
X301000Y65000D02*X310000Y56000D01*
X289559Y61500D02*Y59441D01*
X292000Y57000D01*
X267000Y63000D02*X269500Y60500D01*
X261500Y58500D02*X272000D01*
X269500Y60500D02*X274500D01*
X263000Y69000D02*X277500D01*
X281000Y65500D01*
X276000Y61500D02*Y65500D01*
X275000Y66500D01*
X271500D01*
X264250Y85250D02*X289750D01*
X284441Y61500D02*Y60059D01*
X286500Y58000D01*
X286000Y55000D02*X283000Y58000D01*
Y54500D02*X280500D01*
X283000Y58000D02*X279500D01*
X280500Y54500D02*X279000Y53000D01*
X276000Y58000D02*Y59000D01*
X274500Y60500D01*
X278000Y55500D02*X275000D01*
X272000Y58500D01*
X279500Y58000D02*X276000Y61500D01*
X279000Y53000D02*X258000D01*
X266059Y107500D02*X266559Y108000D01*
X266500Y107941D02*Y104500D01*
X256441Y98500D02*X258441Y96500D01*
X268500Y101059D02*Y102500D01*
X266500Y104500D01*
X268500Y95941D02*X264118D01*
X263559Y96500D01*
X268500Y101000D02*Y100059D01*
X253500Y117500D02*X254500D01*
X253500D02*X252000Y116000D01*
X240000D01*
X239500Y115500D01*
X234500Y77500D02*X241000D01*
X234500Y75000D02*X235000Y75500D01*
X235500Y73500D02*X235000Y73000D01*
X241000Y77500D02*X243500Y80000D01*
X246500Y78500D02*Y81500D01*
X245000Y83000D01*
X238000D01*
X246500Y78500D02*X243500Y75500D01*
X238000Y83000D02*X236500Y81500D01*
X235000Y75500D02*X243500D01*
X236500Y81500D02*Y80500D01*
X235500Y73500D02*X246000D01*
X250000Y75000D02*X246500Y71500D01*
X250500Y73000D02*X247000Y69500D01*
X246000Y73500D02*X249500Y77000D01*
X256000D01*
X258000Y75000D01*
X234941Y96618D02*X238559Y93000D01*
X239559Y92000D02*X255000D01*
X238559Y93000D02*X239559Y92000D01*
X244000Y101000D02*X248500D01*
X255941Y102500D02*X256441Y102000D01*
Y98500D01*
X240059Y104000D02*X241000D01*
X244000Y101000D01*
X240500Y98500D02*X243500Y101500D01*
X239059Y98500D02*X240500D01*
X359000Y47500D02*X351500D01*
X359500Y54500D02*X351500D01*
X360555Y63000D02*X351906D01*
X358185Y54740D02*X360500Y57055D01*
Y58000D01*
X373000Y36441D02*X366382D01*
X358185Y47260D02*X360945Y44500D01*
X364059Y41000D02*X367500D01*
X360945Y44500D02*X370059D01*
X373000Y41559D01*
X378500D01*
X373059Y44500D02*X370000D01*
X373059D02*X378000Y49441D01*
X378500Y33000D02*Y36441D01*
X374500Y51059D02*Y54500D01*
X378059Y49500D02*X378500Y49941D01*
Y58941D01*
X368815Y54740D02*X369740D01*
X371500Y56500D01*
Y59941D01*
X378500Y58941D02*X375559D01*
X375000Y59500D01*
X371500Y59941D02*X370059D01*
X378500Y64059D02*Y67500D01*
X375000Y59500D02*Y63000D01*
X373000Y65000D01*
X371500D01*
X370059Y59941D02*X367000Y63000D01*
Y71000D01*
X364000Y74000D01*
X300500Y53000D02*X297059D01*
X258000Y75000D02*X284500D01*
X257500Y73000D02*X279500D01*
X257000Y71000D02*X279000D01*
X258500Y77000D02*X285000D01*
X285500Y67000D02*X290000D01*
X294500Y65000D02*X284500Y75000D01*
X293941Y63059D02*Y58559D01*
X299059Y61500D02*Y58941D01*
X300000Y58000D01*
X293941Y58559D02*X295000Y57500D01*
X285000Y77000D02*X294500Y67500D01*
X253500Y70000D02*X254000D01*
X254500Y59500D02*X259000Y64000D01*
X250000Y75000D02*X255500D01*
X257500Y73000D01*
X250500D02*X255000D01*
X257000Y71000D01*
X243000Y67000D02*X239000D01*
X236500Y64500D01*
X235500D01*
X242000Y61500D02*X239500Y59000D01*
X236000D01*
X239500Y53000D02*X240500Y54000D01*
Y57000D01*
X243000Y59500D01*
X244500Y51000D02*X251000Y57500D01*
X243000Y59500D02*X254500D01*
X251000Y57500D02*X255000D01*
X235441Y33059D02*Y46000D01*
X235500Y71000D02*X236000Y71500D01*
X246500D01*
X247000Y69500D02*X237000D01*
X236500Y69000D01*
X291941Y53000D02*X288500D01*
X258000Y56000D02*X269500D01*
X264000Y63000D02*X267000D01*
X262500Y66000D02*X267500D01*
X270500Y63000D01*
X271500D01*
X287000Y65000D02*X285000D01*
X279000Y71000D02*X285000Y65000D01*
X266000Y79500D02*X270000Y83500D01*
X293500D01*
X279500Y73000D02*X285500Y67000D01*
X173445Y241500D02*G75*G03X166760Y234815I0J-6685D01*G01*
Y224185D02*G75*G03X172945Y218000I6185J0D01*G01*
X174535Y243500D02*G75*G03X176500Y245465I0J1965D01*G01*
G54D78*X259000Y238555D02*G75*G03X250740Y246815I-8260J0D01*G01*
X243260D02*G75*G03X235500Y239055I0J-7760D01*G01*
X227500Y238370D02*G75*G03X219240Y246630I-8260J0D01*G01*
X211760D02*G75*G03X204000Y238870I0J-7760D01*G01*
X300055Y241500D02*G75*G03X302815Y244260I0J2760D01*G01*
X294216Y241500D02*G75*G03X282433Y229717I0J-11783D01*G01*
X289342Y244500D02*G75*G03X274559Y229717I0J-14783D01*G01*
X288468Y251500D02*G75*G03X266685Y229717I0J-21783D01*G01*
G54D77*X176500Y246000D02*G75*G02X179748Y249248I3248J0D01*G01*
G54D79*X372000Y238000D02*G75*G03X368500Y241500I-3500J0D01*G01*
Y249500D02*G75*G03X372000Y253000I0J3500D01*G01*
G54D78*X309500Y245055D02*G75*G03X302815Y251740I-6685J0D01*G01*
G54D79*X351500Y225012D02*G75*G03X348512Y228000I-2988J0D01*G01*
G54D78*X358488Y219500D02*G75*G02X352988Y214000I-5500J0D01*G01*
X354488Y206000D02*G75*G03X358488Y210000I0J4000D01*G01*
G54D77*X369000Y54555D02*G75*G03X360555Y63000I-8445J0D01*G01*
X171126Y111626D02*G75*G03X166000Y106500I0J-5126D01*G01*
X174283Y113500D02*G75*G03X176500Y115717I0J2217D01*G01*
Y116000D02*G75*G02X179500Y119000I3000J0D01*G01*
X166000Y89500D02*G75*G03X171500Y84000I5500J0D01*G01*
X158500Y91000D02*G75*G03X167500Y82000I9000J0D01*G01*
X174409D02*G75*G02X176500Y79909I0J-2091D01*G01*
Y79000D02*G75*G03X179500Y76000I3000J0D01*G01*
X167000Y113500D02*G75*G03X158500Y105000I0J-8500D01*G01*
X171126Y182126D02*G75*G03X166000Y177000I0J-5126D01*G01*
Y160000D02*G75*G03X171500Y154500I5500J0D01*G01*
X167000Y184000D02*G75*G03X158500Y175500I0J-8500D01*G01*
Y161500D02*G75*G03X167500Y152500I9000J0D01*G01*
X174409D02*G75*G02X176500Y150409I0J-2091D01*G01*
X174283Y184000D02*G75*G03X176500Y186217I0J2217D01*G01*
Y187000D02*G75*G02X179500Y190000I3000J0D01*G01*
X176500Y149500D02*G75*G03X179500Y146500I3000J0D01*G01*
G54D81*X180283Y48563D03*
Y56437D03*
G54D82*X173016Y42657D03*
Y62343D03*
G54D81*X180283Y76126D03*
Y84000D03*
Y91874D03*
G54D82*X173016Y70220D03*
Y97780D03*
Y105220D03*
G54D81*X180283Y111126D03*
Y119000D03*
Y126874D03*
G54D82*X173016Y132780D03*
G54D81*X351717Y249437D03*
Y241563D03*
G54D82*X358984Y255343D03*
Y235657D03*
G54D81*X351717Y221811D03*
G54D82*X358984Y227717D03*
G54D81*X351717Y213937D03*
Y206063D03*
Y198189D03*
G54D82*X358984Y192283D03*
G54D81*X309563Y229717D03*
X317437D03*
G54D82*X323343Y236984D03*
X303657D03*
G54D81*X180283Y146626D03*
G54D82*X173016Y140720D03*
G54D81*X180283Y154500D03*
Y182126D03*
Y162374D03*
G54D82*X173016Y168280D03*
Y176220D03*
Y203780D03*
Y211846D03*
G54D83*X367661Y103843D03*
Y84157D03*
G54D84*X378291Y107780D03*
Y80220D03*
G54D81*X351717Y62811D03*
G54D82*X358984Y68717D03*
G54D81*X351717Y54937D03*
Y47063D03*
Y39189D03*
G54D82*X358984Y33283D03*
G54D81*X180283Y190000D03*
Y197874D03*
Y217752D03*
Y225626D03*
Y233500D03*
Y241374D03*
Y249248D03*
G54D82*X173016Y255154D03*
G54D81*X203693Y229717D03*
X211567D03*
X219441D03*
G54D82*X197787Y236984D03*
G54D81*X227315Y229717D03*
X235189D03*
X243063D03*
X250937D03*
X258811D03*
X266685D03*
X274559D03*
X282433D03*
X290307D03*
G54D82*X296213Y236984D03*
G54D85*X162008Y238941D02*X162992D01*
X162008Y244059D02*X162992D01*
G54D86*X174240Y235799D02*Y233831D01*
X170500Y235799D02*Y233831D01*
X166760Y235799D02*Y233831D01*
Y225169D02*Y223201D01*
G54D85*X160508Y223941D02*X161492D01*
X160508Y229059D02*X161492D01*
G54D86*X170500Y225169D02*Y223201D01*
X174240Y225169D02*Y223201D01*
G54D85*X157559Y243992D02*Y243008D01*
X152441Y243992D02*Y243008D01*
X160941Y249492D02*Y248508D01*
X166059Y249492D02*Y248508D01*
X157008Y233441D02*X157992D01*
X157008Y238559D02*X157992D01*
G54D86*X219240Y247614D02*Y245646D01*
X215500Y247614D02*Y245646D01*
X211760Y247614D02*Y245646D01*
Y236984D02*Y235016D01*
X215500Y236984D02*Y235016D01*
X219240Y236984D02*Y235016D01*
G54D87*X200724Y224232D02*Y222461D01*
X197575Y224232D02*Y222461D01*
X194425Y224232D02*Y222461D01*
X191276Y224232D02*Y222461D01*
X200724Y217539D02*Y215768D01*
X197575Y217539D02*Y215768D01*
X194425Y217539D02*Y215768D01*
X191276Y217539D02*Y215768D01*
G54D88*X238957Y217893D02*Y217107D01*
G54D89*X219957Y212217D02*X227043D01*
X219957Y176783D02*X227043D01*
G54D88*X239095Y173181D02*Y170819D01*
G54D85*X262008Y198441D02*X262992D01*
X262008Y203559D02*X262992D01*
G54D88*X259745Y192905D02*X265255D01*
G54D90*X250000Y189000D02*Y188500D01*
G54D91*X249000Y179500D02*X251000D01*
G54D88*X259745Y181095D02*X265255D01*
X250905Y173181D02*Y170819D01*
G54D86*X247760Y200669D02*Y198701D01*
X251500Y200669D02*Y198701D01*
X255240Y200669D02*Y198701D01*
G54D88*X246043Y217893D02*Y217107D01*
G54D86*X255240Y211299D02*Y209331D01*
G54D88*X260043Y217393D02*Y216607D01*
X252957Y217393D02*Y216607D01*
G54D86*X251500Y211299D02*Y209331D01*
X247760Y211299D02*Y209331D01*
G54D88*X274043Y211893D02*Y211107D01*
X266957Y211893D02*Y211107D01*
G54D86*X250740Y247799D02*Y245831D01*
X247000Y247799D02*Y245831D01*
X243260Y247799D02*Y245831D01*
Y237169D02*Y235201D01*
X247000Y237169D02*Y235201D01*
X250740Y237169D02*Y235201D01*
X165740Y174799D02*Y172831D01*
X162000Y174799D02*Y172831D01*
X158260Y174799D02*Y172831D01*
G54D85*X157559Y198492D02*Y197508D01*
X152441Y198492D02*Y197508D01*
X162008Y199059D02*X162992D01*
X171008Y196059D02*X171992D01*
X162008Y193941D02*X162992D01*
X166559Y187992D02*Y187008D01*
X161441Y187992D02*Y187008D01*
X171008Y190941D02*X171992D01*
X156008Y187941D02*X156992D01*
X156008Y193059D02*X156992D01*
G54D86*X158260Y164169D02*Y162201D01*
X162000Y164169D02*Y162201D01*
X165740Y164169D02*Y162201D01*
G54D85*X157559Y152492D02*Y151508D01*
X169941Y162492D02*Y161508D01*
X175059Y162492D02*Y161508D01*
X152441Y152492D02*Y151508D01*
X158941Y146992D02*Y146008D01*
X164059Y146992D02*Y146008D01*
X191508Y153941D02*X192492D01*
G54D88*X203457Y149393D02*Y148607D01*
G54D85*X191508Y159059D02*X192492D01*
X186008Y164059D02*X186992D01*
X186008Y158941D02*X186992D01*
G54D88*X220607Y147957D02*X221393D01*
X220607Y155043D02*X221393D01*
G54D92*X211700Y138700D02*Y132100D01*
X220800Y138700D02*Y132100D01*
G54D88*X210543Y149393D02*Y148607D01*
G54D92*X202700Y138700D02*Y132100D01*
G54D85*X349059Y254992D02*Y254008D01*
X343941Y254992D02*Y254008D01*
G54D88*X332095Y244255D02*Y238745D01*
X343905Y244255D02*Y238745D01*
X331905Y256255D02*Y250745D01*
G54D76*G36*
X369638Y242350D02*Y237626D01*
X374362D01*
Y242350D01*
X369638D01*
G37*
G36*
Y253374D02*Y248650D01*
X374362D01*
Y253374D01*
X369638D01*
G37*
G54D93*X364800Y179000D02*X373800D01*
X335300Y185500D02*X344300D01*
G54D92*X308800Y199700D02*X315400D01*
G54D76*G36*
X367150Y202862D02*Y198138D01*
X371874D01*
Y202862D01*
X367150D01*
G37*
G36*
X356126D02*Y198138D01*
X360850D01*
Y202862D01*
X356126D01*
G37*
G36*
X367150Y221862D02*Y217138D01*
X371874D01*
Y221862D01*
X367150D01*
G37*
G36*
X356126D02*Y217138D01*
X360850D01*
Y221862D01*
X356126D01*
G37*
G36*
X367150Y212362D02*Y207638D01*
X371874D01*
Y212362D01*
X367150D01*
G37*
G36*
X356126D02*Y207638D01*
X360850D01*
Y212362D01*
X356126D01*
G37*
G54D93*X336500Y213200D02*Y204200D01*
G54D76*G36*
X335126Y230362D02*Y225638D01*
X339850D01*
Y230362D01*
X335126D01*
G37*
G36*
X346150D02*Y225638D01*
X350874D01*
Y230362D01*
X346150D01*
G37*
G54D88*X320095Y256255D02*Y250745D01*
G54D85*X308059Y256992D02*Y256008D01*
X302941Y256992D02*Y256008D01*
G54D86*X301831Y244260D02*X303799D01*
X301831Y248000D02*X303799D01*
X301831Y251740D02*X303799D01*
X291201D02*X293169D01*
X291201Y248000D02*X293169D01*
X291201Y244260D02*X293169D01*
G54D92*X308800Y208700D02*X315400D01*
G54D85*X301441Y178992D02*Y178008D01*
X306559Y178992D02*Y178008D01*
G54D92*X308800Y217800D02*X315400D01*
G54D87*X236224Y257732D02*Y255961D01*
X268724Y257732D02*Y255961D01*
X265575Y257732D02*Y255961D01*
X262425Y257732D02*Y255961D01*
X259276Y257732D02*Y255961D01*
X236224Y251039D02*Y249268D01*
X233075Y251039D02*Y249268D01*
X229925Y251039D02*Y249268D01*
X226776Y251039D02*Y249268D01*
X233075Y257732D02*Y255961D01*
X229925Y257732D02*Y255961D01*
X226776Y257732D02*Y255961D01*
X268724Y251039D02*Y249268D01*
X265575Y251039D02*Y249268D01*
X262425Y251039D02*Y249268D01*
X259276Y251039D02*Y249268D01*
G54D85*X308441Y139992D02*Y139008D01*
X313559Y139992D02*Y139008D01*
X318008Y137559D02*X318992D01*
X308441Y130992D02*Y130008D01*
X313559Y130992D02*Y130008D01*
X318008Y132441D02*X318992D01*
X279008Y106059D02*X279992D01*
X306508Y107059D02*X307492D01*
X306508Y101941D02*X307492D01*
X279008Y100941D02*X279992D01*
X336559Y115492D02*Y114508D01*
X337441Y121992D02*Y121008D01*
X342559Y121992D02*Y121008D01*
Y108992D02*Y108008D01*
X336941Y99992D02*Y99008D01*
X342059Y99992D02*Y99008D01*
X328059Y97992D02*Y97008D01*
X322941Y97992D02*Y97008D01*
X313441Y88992D02*Y88008D01*
X318559Y88992D02*Y88008D01*
X337441Y108992D02*Y108008D01*
X331441Y115492D02*Y114508D01*
G54D92*X360200Y157900D02*Y151300D01*
X348800Y164400D02*Y157800D01*
X339800Y164400D02*Y157800D01*
X330700Y164400D02*Y157800D01*
X378300Y157900D02*Y151300D01*
X369300Y157900D02*Y151300D01*
G54D85*X303059Y122992D02*Y122008D01*
X297941Y122992D02*Y122008D01*
X294008Y112441D02*X294992D01*
X294008Y117559D02*X294992D01*
X297441Y128492D02*Y127508D01*
X302559Y128492D02*Y127508D01*
G54D86*X165740Y104299D02*Y102331D01*
X162000Y104299D02*Y102331D01*
X158260Y104299D02*Y102331D01*
G54D85*X157559Y127992D02*Y127008D01*
X152441Y127992D02*Y127008D01*
X162008Y128559D02*X162992D01*
X171008Y125559D02*X171992D01*
X162008Y123441D02*X162992D01*
X166559Y117492D02*Y116508D01*
X161441Y117492D02*Y116508D01*
X171008Y120441D02*X171992D01*
X156008Y117441D02*X156992D01*
X156008Y122559D02*X156992D01*
G54D86*X158260Y93669D02*Y91701D01*
X162000Y93669D02*Y91701D01*
X165740Y93669D02*Y91701D01*
G54D85*X157559Y81992D02*Y81008D01*
X169941Y91992D02*Y91008D01*
X175059Y91992D02*Y91008D01*
X152441Y81992D02*Y81008D01*
X164059Y76492D02*Y75508D01*
G54D94*X168894Y48681D02*X170744D01*
X168894Y56319D02*X170744D01*
X161256Y52500D02*X163106D01*
G54D85*X155008Y49941D02*X155992D01*
X155008Y55059D02*X155992D01*
G54D95*X189000Y33000D02*X195500D01*
X189000Y38000D02*X195500D01*
X189000Y48000D02*X195500D01*
G54D85*X158941Y76492D02*Y75508D01*
X186008Y88441D02*X186992D01*
X190508Y78941D02*X191492D01*
X190508Y84059D02*X191492D01*
G54D95*X209500Y48000D02*X216000D01*
X209500Y43000D02*X216000D01*
X209500Y33000D02*X216000D01*
X209500Y38000D02*X216000D01*
X189000Y43000D02*X195500D01*
G54D85*X207559Y55492D02*Y54508D01*
X213059Y61492D02*Y60508D01*
X207941Y61492D02*Y60508D01*
X202441Y55492D02*Y54508D01*
X190441Y55492D02*Y54508D01*
X195559Y55492D02*Y54508D01*
G54D95*X218000Y74000D02*Y67500D01*
X213000Y74000D02*Y67500D01*
X208000Y74000D02*Y67500D01*
X203000Y74000D02*Y67500D01*
G54D85*X193508Y68559D02*X194492D01*
X193508Y63441D02*X194492D01*
X186008Y93559D02*X186992D01*
G54D95*X218000Y94500D02*Y88000D01*
X213000Y94500D02*Y88000D01*
X203000Y94500D02*Y88000D01*
X208000Y94500D02*Y88000D01*
G54D85*X235441Y46492D02*Y45508D01*
X240941Y38492D02*Y37508D01*
X240559Y46492D02*Y45508D01*
X233941Y98992D02*Y98008D01*
X234941Y104492D02*Y103508D01*
X239059Y98992D02*Y98008D01*
X240059Y104492D02*Y103508D01*
X238559Y93492D02*Y92508D01*
X233441Y93492D02*Y92508D01*
G54D93*X207200Y111000D02*X216200D01*
G54D85*X246059Y38492D02*Y37508D01*
X256441Y113492D02*Y112508D01*
X261559Y113492D02*Y112508D01*
X256441Y107992D02*Y107008D01*
X261559Y107992D02*Y107008D01*
X266008Y113059D02*X266992D01*
X266008Y107941D02*X266992D01*
X258441Y96992D02*Y96008D01*
X263559Y96992D02*Y96008D01*
X268008Y94941D02*X268992D01*
X268008Y100059D02*X268992D01*
X256441Y102492D02*Y101508D01*
X261559Y102492D02*Y101508D01*
X344941Y69992D02*Y69008D01*
X350059Y69992D02*Y69008D01*
X358941Y41492D02*Y40508D01*
X364059Y41492D02*Y40508D01*
X365508Y36059D02*X366492D01*
X365508Y30941D02*X366492D01*
X378008Y36441D02*X378992D01*
X378008Y41559D02*X378992D01*
X374008Y51059D02*X374992D01*
X374008Y45941D02*X374992D01*
X378008Y58941D02*X378992D01*
X378008Y64059D02*X378992D01*
X372508Y41559D02*X373492D01*
G54D86*X367831Y47260D02*X369799D01*
X367831Y51000D02*X369799D01*
X367831Y54740D02*X369799D01*
G54D85*X371008Y65059D02*X371992D01*
X371008Y59941D02*X371992D01*
X372508Y36441D02*X373492D01*
G54D86*X357201Y54740D02*X359169D01*
X357201Y51000D02*X359169D01*
X357201Y47260D02*X359169D01*
G54D85*X246059Y32992D02*Y32008D01*
X240941Y32992D02*Y32008D01*
X292441Y53492D02*Y52508D01*
X297559Y53492D02*Y52508D01*
X299059Y61992D02*Y61008D01*
X293941Y61992D02*Y61008D01*
X284441Y61992D02*Y61008D01*
X289559Y61992D02*Y61008D01*
X289607Y45872D02*Y44888D01*
X284489Y45872D02*Y44888D01*
G54D96*X356500Y95000D03*
G54D97*X359500Y88500D03*
X353500Y91000D03*
G54D96*X363000Y100000D03*
X328000Y86500D03*
X337000Y83500D03*
X328000Y93500D03*
X337000Y95500D03*
X323000Y93500D03*
X323500Y80000D03*
X342500Y112500D03*
X345500Y99500D03*
X337500Y104500D03*
X327000Y110500D03*
X322000Y88500D03*
X328000Y64000D03*
X337000Y62000D03*
X343500Y74500D03*
X353000Y69500D03*
X343500Y65500D03*
X367500Y41000D03*
X374500Y54500D03*
G54D97*X306500Y55500D03*
G54D96*X363500Y48500D03*
Y53500D03*
X360500Y58000D03*
X378500Y67500D03*
Y33000D03*
X319000Y36000D03*
X340500Y32000D03*
X328500Y106500D03*
X319000Y107500D03*
X301000Y98500D03*
X307000D03*
Y111000D03*
X310000Y88500D03*
X161000Y150500D03*
X192000D03*
X167500Y146500D03*
X183000Y142000D03*
X164500Y98000D03*
X159500D03*
X166500Y123500D03*
X170000Y116500D03*
X175500Y124500D03*
X186000Y97000D03*
X193000Y117500D03*
Y123500D03*
X190500Y112500D03*
X184000Y104500D03*
X244500Y137500D03*
X230500Y145000D03*
Y140500D03*
Y136000D03*
X199000Y148000D03*
X215000D03*
X261500Y150500D03*
X266500Y146500D03*
G54D97*X257500Y149000D03*
X260500Y146000D03*
G54D96*X209000Y144000D03*
X213500D03*
X203500D03*
X199000D03*
X230500Y131500D03*
X226000Y126500D03*
X223500Y97500D03*
X243500Y101500D03*
Y108500D03*
Y113000D03*
X225000Y104000D03*
X230500Y114500D03*
X235000Y115500D03*
X198000Y116000D03*
Y110500D03*
Y105000D03*
X239500Y115500D03*
X240500Y121500D03*
X254500Y117500D03*
G54D97*X264000Y117000D03*
X265000Y120500D03*
G54D96*X243500Y97000D03*
X230500Y127000D03*
X260500Y126000D03*
X256500Y135500D03*
X265000Y142500D03*
G54D97*X266500Y139000D03*
G54D96*X285500Y126000D03*
X287500Y135000D03*
X292000Y135500D03*
X298000Y136500D03*
X290000Y139500D03*
X291500Y126000D03*
X314000Y135000D03*
X309000D03*
X304500Y139500D03*
X316000Y142500D03*
X306500Y124000D03*
X312000Y124500D03*
X294000Y122000D03*
X311500Y119500D03*
X316000Y115000D03*
G54D97*X306500Y120000D03*
G54D96*X342500Y117500D03*
X343000Y177000D03*
X349000D03*
X328000Y115000D03*
X332000Y140000D03*
X335500Y125500D03*
X365000Y200500D03*
X380000Y146500D03*
X375500D03*
X374000Y126500D03*
X353500Y160000D03*
Y155000D03*
X309000Y195000D03*
X310500Y182500D03*
X314500Y195000D03*
X307500Y185500D03*
X310500Y178000D03*
X304000Y188500D03*
X301000Y192000D03*
X298000Y189000D03*
X318500Y179500D03*
X294500Y202000D03*
X295000Y193000D03*
X324000Y152000D03*
Y135500D03*
X319500Y154500D03*
X286500Y155500D03*
X282500Y152000D03*
X282000Y145500D03*
X289000Y171000D03*
X296500Y170500D03*
X311000Y160000D03*
X294500Y155000D03*
X311000Y172000D03*
X303500Y171000D03*
X312500Y167000D03*
X321000Y144000D03*
X315000Y162000D03*
X319500D03*
X161000Y80000D03*
X186500Y78000D03*
X206500Y30000D03*
X204500Y38500D03*
G54D97*X202000Y31000D03*
G54D80*X185000Y35500D03*
G54D96*X204000Y64000D03*
X191000Y75500D03*
X194000Y60000D03*
Y72000D03*
X167500Y76000D03*
G54D80*X166500Y52500D03*
X152500Y77000D03*
G54D96*X156500Y86000D03*
X198500Y33000D03*
Y48000D03*
X206500Y43000D03*
X199000Y55000D03*
X187000D03*
X241000Y42000D03*
X237000Y31500D03*
X257000Y33000D03*
X237500Y56000D03*
X243000Y66500D03*
X238000Y62000D03*
X250500Y50500D03*
X253500Y65500D03*
Y89000D03*
X256500Y51500D03*
G54D97*X257000Y84000D03*
G54D96*X230500Y56500D03*
X232500Y61500D03*
X212500Y56000D03*
X253000Y84500D03*
X232000Y80000D03*
X229000Y84000D03*
X243500Y80000D03*
X236500Y80500D03*
X216500Y63000D03*
X205500Y85500D03*
X203000Y77000D03*
X228500Y91000D03*
X307000Y51500D03*
X305000Y41000D03*
X304500Y36000D03*
X289000Y53000D03*
X291000Y36500D03*
X289500Y41500D03*
G54D97*X286500Y58000D03*
X292000Y57000D03*
G54D96*X305500Y30000D03*
X253000Y54000D03*
X253500Y80000D03*
X244000Y56000D03*
X253500Y70000D03*
X258000Y56000D03*
X261000Y59000D03*
X264000Y63000D03*
X259000Y41500D03*
G54D97*X259500Y79500D03*
X266000D03*
X269500Y56000D03*
X271500Y66500D03*
Y63000D03*
G54D96*X273500Y114500D03*
X266500Y104500D03*
X273000Y110000D03*
Y105500D03*
X253000Y102500D03*
G54D97*Y107000D03*
G54D96*X279500Y115500D03*
Y109500D03*
G54D97*X273000Y101500D03*
G54D96*X280000Y97500D03*
G54D97*Y93000D03*
X273000Y94500D03*
X262000Y83000D03*
X263000Y80000D03*
X262500Y90000D03*
X289500Y91000D03*
X295000Y89000D03*
X287000Y94000D03*
X283500Y93000D03*
X286500Y89500D03*
X283000D03*
X278000Y79500D03*
X287000Y81000D03*
X291500Y78000D03*
X292500Y75000D03*
G54D96*X281500Y51000D03*
X279500Y42000D03*
G54D97*X275500Y33000D03*
G54D96*X284500Y41500D03*
G54D97*X274500Y50500D03*
G54D96*X301000Y53000D03*
G54D97*X300000Y58000D03*
X295000Y57500D03*
Y72500D03*
X297500Y70000D03*
X278500Y63000D03*
X285500Y70500D03*
X281000Y65500D03*
X276000Y58000D03*
X278000Y55500D03*
X283000Y54500D03*
G54D96*X164500Y168500D03*
X159500D03*
X166500Y194000D03*
X173000Y229500D03*
X168000D03*
X169500Y249000D03*
X156500Y230000D03*
X170000Y187000D03*
X175500Y195000D03*
X186500Y167500D03*
X161000Y220500D03*
X156500Y156500D03*
X271500Y256500D03*
X256500D03*
Y250000D03*
X261500Y246000D03*
X254000Y239000D03*
X271500Y250000D03*
X266000Y246000D03*
X244500Y241500D03*
X240000Y239000D03*
X249500Y241500D03*
X213000Y241315D03*
X218000D03*
X222500Y239000D03*
X229000Y246000D03*
X233500D03*
X224000Y250000D03*
X239000D03*
Y256500D03*
X224000D03*
X206000Y210000D03*
X234000Y171000D03*
X237500Y180000D03*
X233000D03*
Y175500D03*
X241000Y177500D03*
X244000Y160500D03*
X248500D03*
X253000D03*
X199500Y173500D03*
X204000Y172500D03*
X202000Y164500D03*
X197500D03*
X208500Y173500D03*
X213000D03*
Y167500D03*
X255000Y180000D03*
X260000Y176500D03*
X256000D03*
X275000Y206500D03*
G54D97*X267000Y186000D03*
Y189000D03*
X262500Y186000D03*
Y189000D03*
X258000Y186000D03*
Y189000D03*
G54D96*X259000Y160500D03*
X263500D03*
X280000D03*
X282500Y168500D03*
Y164000D03*
X281500Y156500D03*
X276500Y151500D03*
X271500Y151000D03*
X270500Y155500D03*
X376500Y241000D03*
X369500Y235500D03*
X373500D03*
X365000Y219500D03*
Y210000D03*
X377000Y237000D03*
X376500Y253000D03*
Y249000D03*
X373500Y255500D03*
X352500Y254500D03*
X340500D03*
X324500Y255000D03*
X374000Y246500D03*
X342000Y228000D03*
X339500Y240000D03*
X336500Y236500D03*
X347000Y232500D03*
X351000D03*
X352500Y229000D03*
X332000Y227000D03*
Y231500D03*
X327500D03*
Y227000D03*
Y258500D03*
X297500Y245500D03*
Y250500D03*
X336500Y243500D03*
X339500Y247000D03*
X327500Y251500D03*
X324500Y248000D03*
X287500D03*
X309500Y252500D03*
G54D98*G54D99*G54D98*G54D99*G54D98*G54D99*G54D98*G54D99*G54D98*G54D99*G54D98*G54D99*G54D98*G54D99*G54D79*G54D98*G54D79*G54D98*G54D99*G54D98*G54D99*G54D98*G54D99*G54D98*G54D99*G54D98*G54D99*G54D98*G54D99*G54D98*G54D99*G54D98*G54D99*G54D98*G54D99*G54D98*G54D99*G54D98*G54D100*G54D101*G54D100*G54D101*G54D100*G54D101*G54D100*G54D101*G54D100*G54D101*G54D100*G54D101*G54D100*G54D101*G54D100*G54D101*G54D100*G54D101*G54D102*G54D103*G54D100*G54D101*G54D100*G54D101*G54D100*G54D101*G54D100*G54D101*G54D100*G54D101*M02*
