G04 start of page 2 for group 0 idx 0 *
G04 Title: receiver, top *
G04 Creator: pcb 20140316 *
G04 CreationDate: Tue 02 Jan 2018 12:34:38 AM GMT UTC *
G04 For: brian *
G04 Format: Gerber/RS-274X *
G04 PCB-Dimensions (mil): 6000.00 5000.00 *
G04 PCB-Coordinate-Origin: lower left *
%MOIN*%
%FSLAX25Y25*%
%LNTOP*%
%ADD43C,0.0453*%
%ADD42C,0.0335*%
%ADD41C,0.0437*%
%ADD40C,0.0279*%
%ADD39C,0.0118*%
%ADD38C,0.0200*%
%ADD37C,0.0450*%
%ADD36C,0.0240*%
%ADD35C,0.0360*%
%ADD34R,0.0591X0.0591*%
%ADD33R,0.0472X0.0472*%
%ADD32R,0.0157X0.0157*%
%ADD31R,0.0140X0.0140*%
%ADD30R,0.0146X0.0146*%
%ADD29R,0.0512X0.0512*%
%ADD28R,0.0413X0.0413*%
%ADD27R,0.0551X0.0551*%
%ADD26R,0.0110X0.0110*%
%ADD25R,0.0290X0.0290*%
%ADD24R,0.0200X0.0200*%
%ADD23R,0.0157X0.0157*%
%ADD22R,0.0280X0.0280*%
%ADD21R,0.0295X0.0295*%
%ADD20C,0.0610*%
%ADD19C,0.0492*%
%ADD18C,0.0597*%
%ADD17C,0.0480*%
%ADD16C,0.0120*%
%ADD15C,0.0060*%
%ADD14C,0.0150*%
%ADD13C,0.0250*%
%ADD12C,0.0100*%
%ADD11C,0.0001*%
G54D11*G36*
X363500Y80000D02*X371500Y88000D01*
Y100000D01*
X363500Y108000D01*
Y118000D01*
X382000D01*
Y71000D01*
X363500D01*
Y80000D01*
G37*
G36*
X284500Y182500D02*X295000D01*
X303500Y191000D01*
X305500D01*
X313000Y183500D01*
Y176500D01*
X309000D01*
X306000Y173500D01*
X284500D01*
Y182500D01*
G37*
G54D12*X244500Y137500D02*X236000D01*
G54D13*Y147000D02*Y127500D01*
X252500Y147000D02*X236000D01*
G54D12*X240858Y142028D02*Y141642D01*
X248142Y132972D02*Y134358D01*
X240858Y141642D02*X248142Y134358D01*
X248380Y124120D02*X241000Y131500D01*
G54D13*X236000Y127500D02*X241000D01*
G54D12*X248142Y142028D02*X253000Y137169D01*
Y133000D01*
X241000Y131500D02*Y133000D01*
X226000Y152000D02*Y145000D01*
X224000Y151500D02*Y142500D01*
X226000Y145000D02*X230500Y140500D01*
X224000Y142500D02*X230500Y136000D01*
G54D14*X234441Y105500D02*X233059D01*
X233000Y105441D01*
X229941D02*Y103441D01*
X227957Y101457D01*
Y98500D01*
G54D12*X237000Y98000D02*X234543D01*
X226000Y107500D02*Y105000D01*
X225000Y104000D01*
X234441Y111000D02*X229941D01*
X227500Y117500D02*X233000D01*
X235000Y115500D01*
X229941Y111000D02*X229500Y110559D01*
X230500Y114500D02*X227000D01*
X224500Y112000D01*
Y110000D01*
X229500Y110559D02*X229059D01*
X226000Y107500D01*
X235500Y119500D02*X239500Y115500D01*
X239000Y118500D02*X236000Y121500D01*
X239000Y118500D02*X242500D01*
G54D13*X252500Y147000D02*X257000Y142500D01*
G54D12*X258019Y130620D02*Y133981D01*
X256500Y135500D01*
X253000Y133000D02*X255000Y131000D01*
X256000D01*
X261000Y135000D02*Y136941D01*
Y135000D02*X260000Y134000D01*
Y130632D02*X259988Y130620D01*
X257500Y149000D02*X257000Y149500D01*
X260000Y134000D02*Y126500D01*
X260500Y126000D01*
G54D15*X255500Y123000D02*X253480Y120980D01*
G54D12*X245926Y115074D02*X242500Y118500D01*
X257500Y115500D02*Y119500D01*
G54D15*X253480Y120980D02*X248380D01*
G54D12*X259500Y121500D02*X257500Y119500D01*
X248380Y113106D02*X252606D01*
X254500Y115000D01*
Y117500D01*
X255500Y105000D02*Y113500D01*
X257500Y115500D01*
X260000Y112500D02*X257500Y110000D01*
X260000Y112500D02*Y118000D01*
X253000Y102500D02*X255500Y105000D01*
X248380Y99326D02*X252174D01*
X259500Y108000D02*Y99500D01*
X257500Y110000D02*Y99000D01*
X248380Y122948D02*Y124120D01*
Y115074D02*X245926D01*
X248380Y107200D02*X252800D01*
X253000Y107000D01*
X248380Y103263D02*X252237D01*
X253000Y102500D01*
X243795Y101295D02*X243500Y101000D01*
X248380Y101295D02*X243795D01*
X248380Y105232D02*X239827D01*
X239559Y105500D01*
Y111000D01*
X248380Y109169D02*X244169D01*
X243500Y108500D01*
X248380Y111137D02*X245363D01*
X243500Y113000D01*
X248380Y91452D02*X251048D01*
X253500Y89000D01*
X264000Y90000D02*X262500D01*
X244358Y97358D02*X243500Y96500D01*
X243858Y97358D02*X243500Y97000D01*
X237000Y98000D02*X241000Y94000D01*
X244000Y92250D02*X236750D01*
X233957Y89457D02*X236750Y92250D01*
X241000Y94000D02*X245000D01*
X245579Y93421D01*
X248380D01*
X245000Y91250D02*X244000Y92250D01*
X248380Y97358D02*X251142D01*
X248358D02*X243858D01*
X251142D02*X256500Y92000D01*
X252174Y99326D02*X258500Y93000D01*
Y89000D02*Y93000D01*
X273767Y130620D02*Y114767D01*
X271799Y130620D02*Y118299D01*
X269830Y130620D02*Y118830D01*
X267862Y130620D02*Y126362D01*
G54D15*X266000Y134500D02*Y127000D01*
G54D12*X267862Y126362D02*X267000Y125500D01*
X273767Y114767D02*X273500Y114500D01*
X273000Y105500D02*X274000Y106500D01*
X271799Y118299D02*X270500Y117000D01*
Y113000D01*
X269830Y118830D02*X268500Y117500D01*
Y113500D01*
X270500Y113000D02*X263500Y106000D01*
X268500Y113500D02*X261500Y106500D01*
X273000Y110000D02*X270000Y107000D01*
X264000Y112500D02*X259500Y108000D01*
X270000Y101000D02*Y107000D01*
X275500Y95500D02*X270000Y101000D01*
X273500Y101500D02*X273000D01*
X263500Y106000D02*Y100500D01*
X261500Y106500D02*Y100000D01*
X264000Y117000D02*Y112500D01*
G54D15*X263500Y125000D02*Y126000D01*
X264500Y127000D01*
X266000D01*
G54D12*X267000Y125500D02*X265500D01*
X265000Y125000D01*
Y124000D01*
G54D15*X255500Y123000D02*X261500D01*
G54D12*X262500Y121500D02*X259500D01*
G54D15*X261500Y123000D02*X263500Y125000D01*
G54D12*X265000Y124000D02*X262500Y121500D01*
X260000Y118000D02*X261500Y119500D01*
X264000D01*
X265000Y120500D01*
G54D13*X296500Y163000D02*Y170500D01*
G54D12*X325000Y179500D02*X318500D01*
X325000Y174500D02*X320500D01*
X310941Y154500D02*X300000D01*
X296500Y151000D02*X300000Y154500D01*
X304500Y139500D02*X305000D01*
X303295Y130620D02*Y127795D01*
X305263Y130620D02*Y127263D01*
X307232Y130620D02*Y124732D01*
X306500Y124000D01*
X301500Y135500D02*Y147000D01*
X325059Y140000D02*X328559Y143500D01*
X319941Y140000D02*Y142941D01*
X321000Y144000D01*
X328559Y143500D02*X333000D01*
X312917Y145476D02*X317976D01*
X319500Y147000D01*
X324500D01*
X326024Y145476D01*
X329471D01*
X296500Y140000D02*Y151000D01*
G54D13*X233000Y175500D02*Y180000D01*
X239000D01*
X241000Y177500D02*X238500Y180000D01*
X234000Y175500D01*
X234500Y180000D02*Y177000D01*
X241000Y177500D02*X236000D01*
G54D12*X232500Y168000D02*X235500D01*
X237000Y169500D01*
X232000Y166000D02*X236000D01*
X237500Y167500D01*
X236500Y164000D02*X238000Y165500D01*
X234500Y171500D02*X234000Y171000D01*
X238500Y158000D02*X241000Y155500D01*
X238000Y156000D02*X240500Y153500D01*
X237500Y154000D02*X240000Y151500D01*
X237000Y152000D02*X239500Y149500D01*
X260500Y157500D02*X241500D01*
X239000Y160000D02*X241500Y157500D01*
X262500Y171500D02*X234500D01*
X263500Y167500D02*X276500Y154500D01*
X260500Y157500D02*X263500Y160500D01*
X286500Y155500D02*Y163000D01*
Y147000D02*Y151000D01*
X290500Y155000D01*
X294500D01*
G54D15*X286500Y147000D02*Y143000D01*
G54D12*X273000Y136941D02*X278500D01*
G54D15*X283000Y139500D02*X270500D01*
G54D12*X275736Y130620D02*Y136736D01*
X281641Y130620D02*Y135359D01*
X280059Y136941D01*
X278441D01*
X275736Y136736D02*X275941Y136941D01*
X272441Y147000D02*Y142618D01*
X273000Y142059D01*
X277559Y147000D02*Y143000D01*
X278500Y142059D01*
X281500Y156500D02*X279500D01*
X282500Y152000D02*X281500D01*
X273000Y160500D01*
X276500Y154500D02*Y151500D01*
X277500Y163000D02*X280000Y160500D01*
X279500Y156500D02*X275500Y160500D01*
X282000Y145500D02*X277559D01*
G54D15*X286500Y143000D02*X283000Y139500D01*
G54D12*X260500Y151500D02*X240000D01*
X257000Y149500D02*X239500D01*
X260500Y151500D02*X261500Y150500D01*
X264500Y152000D02*Y149000D01*
X268500Y153000D02*Y149500D01*
X271500Y151000D02*Y147941D01*
X272441Y147000D01*
X269500Y148500D02*Y142000D01*
X265000Y142500D02*X261441D01*
X261000Y142059D01*
X269500Y142000D02*X266500Y139000D01*
G54D15*X270500Y139500D02*X269000Y138000D01*
Y137500D01*
X266000Y134500D01*
G54D12*X266500Y152500D02*Y146500D01*
X268500Y149500D02*X269500Y148500D01*
X264500Y149000D02*X263000Y147500D01*
X262000D02*X260500Y146000D01*
X263000Y147500D02*X262000D01*
X291484Y130620D02*Y126016D01*
X299358Y130620D02*Y133358D01*
X302500Y136500D01*
X306000D02*X302500D01*
X311500Y138941D02*X308441D01*
X309200Y130620D02*Y134800D01*
X309000Y135000D01*
X308441Y138941D02*X306000Y136500D01*
X291484Y126016D02*X291500Y126000D01*
X303295Y127795D02*X298000Y122500D01*
Y110000D01*
X305263Y127263D02*X300000Y122000D01*
X332620Y124120D02*X334000Y125500D01*
X324000Y135500D02*X332000D01*
X333559Y133941D01*
Y132000D01*
X334000Y125500D02*X335500D01*
X311169Y130620D02*Y125331D01*
X312000Y124500D01*
X302000Y119500D02*X306250Y123750D01*
X304000Y117500D02*X306500Y120000D01*
G54D14*X311500Y119500D02*X316000Y115000D01*
G54D12*X276500Y104500D02*X295500D01*
X274000Y106500D02*X294500D01*
X279500Y102500D02*X277000Y100000D01*
X276500Y104500D02*X273500Y101500D01*
X283500Y93000D02*Y94000D01*
X286000Y96500D01*
X294500D01*
X293500Y94000D02*X287000D01*
X280000Y93000D02*X285500Y98500D01*
X277000Y100000D02*Y96500D01*
X277500Y96000D01*
Y91500D01*
X275500Y91000D02*Y95500D01*
X285500Y98500D02*X295500D01*
X279500Y102500D02*X296000D01*
X289500Y91000D02*Y90000D01*
X287500Y89500D02*X286500D01*
X295500Y89000D02*X295000D01*
X332620Y111138D02*Y97359D01*
Y107201D02*X329201D01*
X328500Y106500D01*
X332620Y120981D02*Y124120D01*
X316000Y104500D02*X319000Y107500D01*
X301000Y100500D02*Y98500D01*
Y100500D02*X304000Y103500D01*
X298000Y110000D02*X294500Y106500D01*
X295500Y104500D02*X300000Y109000D01*
X296000Y102500D02*X302000Y108500D01*
X300000Y122000D02*Y109000D01*
X302000Y108500D02*Y119500D01*
X304000Y103500D02*Y117500D01*
X332620Y87516D02*X329016D01*
X332620Y85548D02*X328952D01*
X332620Y83579D02*X336921D01*
X337000Y83500D01*
X329016Y87516D02*X328000Y86500D01*
X328952Y85548D02*X328000Y86500D01*
X332620Y75705D02*X323295D01*
X332620Y71768D02*X322232D01*
X332620Y67831D02*X323169D01*
X340500Y71500D02*X343500Y74500D01*
X332620Y79642D02*X323858D01*
X323500Y80000D01*
G54D16*X345441Y93500D02*X343394Y91453D01*
X332620D01*
Y89485D02*X343456D01*
X345441Y87500D01*
G54D12*X332620Y61926D02*X336926D01*
X337000Y62000D01*
X332620Y63894D02*X328106D01*
X340500Y55500D02*Y71500D01*
X328106Y63894D02*X328000Y64000D01*
X348000Y59000D02*X359500D01*
X360500Y58000D01*
X369000D01*
X378500Y67500D01*
X332620Y57989D02*X329511D01*
X348000Y59000D02*X339000Y50000D01*
X325500D02*X339000D01*
X326500Y52000D02*X337000D01*
X338500Y53500D01*
X338750Y53750D02*X340500Y55500D01*
X332620Y56020D02*X328480D01*
X332620Y54052D02*X327448D01*
X323295Y75705D02*X316000Y83000D01*
X322232Y71768D02*X310500Y83500D01*
X329511Y57989D02*X293500Y94000D01*
X323169Y67831D02*X294500Y96500D01*
X294000Y66500D02*Y65000D01*
X295500Y98500D02*X310500Y83500D01*
X328480Y56020D02*X295500Y89000D01*
X327448Y54052D02*X295000Y86500D01*
X308000Y55500D02*X306500D01*
X304000Y50500D02*Y69500D01*
X326500Y52000D02*X294000Y84500D01*
X310000Y53500D02*X308000Y55500D01*
X297500Y66000D02*Y52000D01*
X325500Y50000D02*X293500Y82500D01*
X310000Y50000D02*Y53500D01*
X299359Y50141D02*X297500Y52000D01*
X300000Y71000D02*Y68500D01*
X297500Y66000D01*
Y70000D02*X294000Y66500D01*
X356451Y94951D02*X356500Y95000D01*
X363882Y99118D02*X363000Y100000D01*
X367661Y99118D02*X363882D01*
X361500Y94000D02*X368000D01*
X356451Y92500D02*Y94951D01*
X351000Y93500D02*X353500Y91000D01*
X350559Y93500D02*X351000D01*
X355000Y87500D02*X350500D01*
X361500Y94000D02*X355000Y87500D01*
X359518Y88500D02*X361549Y90531D01*
X361500Y91000D02*X368000D01*
X359500Y88500D02*X359518D01*
X332620Y115075D02*X328075D01*
X328000Y115000D01*
X332620Y113107D02*X337834D01*
X338500Y112441D01*
X342441D01*
X342500Y112500D01*
X338500Y117559D02*X342441D01*
X342500Y117500D01*
Y128500D02*Y117500D01*
X348500Y126500D02*X353205D01*
X332620Y117044D02*X337985D01*
X338500Y117559D01*
X332620Y117044D02*Y119012D01*
Y93422D02*X328078D01*
X328000Y93500D01*
X332620Y95390D02*X336890D01*
X337000Y95500D01*
X316000Y83000D02*Y104500D01*
X285578Y130620D02*Y126078D01*
X285500Y126000D01*
X287547Y130620D02*Y134953D01*
X293452Y134048D02*X292000Y135500D01*
X296500Y140000D02*X295000Y138500D01*
Y135000D02*Y138500D01*
X291500Y147000D02*Y141000D01*
X290000Y139500D01*
X287547Y134953D02*X287500Y135000D01*
X293452Y130620D02*Y134048D01*
X295421Y130620D02*Y134579D01*
X295000Y135000D01*
X297389Y130620D02*Y135889D01*
X298000Y136500D01*
X315106Y130620D02*Y133894D01*
X314000Y135000D01*
X313137Y130620D02*Y134137D01*
X314000Y135000D01*
X306500Y147000D02*Y141000D01*
X305000Y139500D01*
X308500Y149000D02*X306500Y147000D01*
X309500Y161500D02*X311000Y160000D01*
X312917Y145476D02*X311500Y144059D01*
X310941Y149000D02*X308500D01*
X324000Y155441D02*Y152000D01*
X316059Y154500D02*X319500D01*
X329471Y148626D02*X316433D01*
X316059Y149000D01*
X350724Y173029D02*Y175276D01*
G54D13*X353500Y155000D02*Y160000D01*
X347000Y166500D01*
X375500Y146500D02*Y173500D01*
X364000Y185000D01*
G54D12*X351000Y169000D02*X357500Y162500D01*
Y146500D01*
X338126Y173029D02*Y178874D01*
X334976Y173029D02*Y171524D01*
X337500Y169000D01*
X351000D01*
X324948Y130620D02*X327061D01*
X328441Y132000D01*
G54D13*X380000Y146500D02*X375500D01*
G54D12*X357500D02*X358523Y145477D01*
X362529D01*
X358500Y145500D02*X335000D01*
X333000Y143500D01*
X333559Y132000D02*X339000D01*
X342500Y128500D01*
X334977Y139971D02*X332029D01*
X332000Y140000D01*
X338126Y139971D02*Y136874D01*
X348500Y126500D01*
X378795D02*X374000D01*
X307233Y46380D02*Y51267D01*
X301327Y48827D02*X302500Y50000D01*
X303500D01*
X304000Y50500D01*
X299359Y46380D02*Y50141D01*
X303296Y46380D02*Y43796D01*
X302500Y43000D01*
X301941D01*
X301327Y46380D02*Y48827D01*
X295422Y46380D02*Y49078D01*
X297390Y46380D02*Y49610D01*
X293500Y50000D02*X294500D01*
X295422Y49078D01*
X295000Y52000D02*X297390Y49610D01*
X309201Y46299D02*Y49201D01*
X310000Y50000D01*
X289500Y90000D02*X293000Y86500D01*
X295000D01*
X292500Y84500D02*X287500Y89500D01*
Y87000D02*X285500D01*
X283000Y89500D01*
X294000Y84500D02*X292500D01*
X293500Y82500D02*X292000D01*
X287500Y87000D01*
X290000Y80500D02*X293000D01*
X287000Y82000D02*Y81000D01*
X284500Y82000D02*Y80000D01*
X286000Y78500D01*
X288000D01*
X290000Y80500D01*
X291500Y78000D02*X293000D01*
Y80500D02*X304000Y69500D01*
X293000Y78000D02*X300000Y71000D01*
X295000Y72500D02*X290500Y68000D01*
X284000Y65000D02*Y67500D01*
X283000Y68500D01*
Y72000D01*
X285500Y70500D02*X285750Y70250D01*
X283000Y72000D02*X286000Y75000D01*
X292500D01*
X290500Y68000D02*Y65500D01*
X289000Y60000D02*X294000Y65000D01*
X285750Y64250D02*Y70250D01*
X292000Y51500D02*X293500Y50000D01*
X292000Y51500D02*Y57000D01*
X295000Y52000D02*Y57500D01*
X289000Y60000D02*Y56500D01*
X288500Y56000D01*
X288000D01*
X287500Y55500D01*
X284000D01*
X283000Y54500D01*
X290500Y65500D02*X280500Y55500D01*
Y54500D01*
X256052Y46380D02*Y42552D01*
X258020Y46380D02*Y42480D01*
X251000Y44559D02*X245500D01*
X279674Y46380D02*Y42174D01*
X279500Y42000D01*
X281642Y46380D02*Y50858D01*
X281500Y51000D01*
X280500Y54500D02*X276500Y50500D01*
X274500D01*
X250941Y44559D02*X254000Y47618D01*
Y49000D01*
X256500Y51500D01*
X259989Y46380D02*Y53489D01*
X269831Y46380D02*Y53000D01*
X267863Y46380D02*Y53637D01*
X253138Y65862D02*X253500Y65500D01*
X248380Y57988D02*X256000Y58000D01*
X258000Y56000D01*
X248380Y59956D02*X260044D01*
X261000Y59000D01*
X248380Y61925D02*X257925D01*
X259000Y63000D01*
X264000D01*
X259989Y53489D02*X267000Y60500D01*
Y69000D01*
Y54500D02*Y58000D01*
X269000Y62500D02*Y60000D01*
X267000Y58000D01*
X267863Y53637D02*X267000Y54500D01*
X274000Y62000D02*X269500Y57500D01*
X276000Y61500D02*X272000Y57500D01*
X269500D02*Y56000D01*
X272000Y57500D02*Y55169D01*
X269831Y53000D01*
X276000Y58000D02*Y59000D01*
X277500Y60500D01*
X279500D01*
X278000Y55500D02*X278500Y56000D01*
Y58500D01*
X280000D01*
X248380Y71767D02*X243767D01*
X248380Y65862D02*X253138D01*
X248380Y69799D02*X253299D01*
X253500Y70000D01*
X248380Y67830D02*X243830D01*
X243000Y67000D01*
X244500Y63500D02*X244893Y63893D01*
X248380D01*
Y81610D02*X251890D01*
X253500Y80000D01*
X248380Y83578D02*X252078D01*
X253000Y84500D01*
X248380Y85547D02*X245547D01*
X248380Y87515D02*X245485D01*
X248380Y75704D02*X254704D01*
X256500Y77500D01*
X248380Y73736D02*X255736D01*
X245547Y85547D02*X245000Y85000D01*
Y84000D01*
X244000Y83000D01*
X245485Y87515D02*X245000Y88000D01*
Y91250D01*
X256500Y77500D02*Y80500D01*
X255736Y73736D02*X259500Y77500D01*
Y79500D01*
X263000Y73000D02*Y80000D01*
X256500Y80500D02*X257500Y81500D01*
X256500Y92000D02*Y88500D01*
X259500Y85500D01*
X258500Y89000D02*X260000Y87500D01*
X258000Y81500D02*X259000Y82500D01*
X257500Y81500D02*X258000D01*
X259000Y82500D02*X261500D01*
X262000Y83000D01*
X267000Y69000D02*X263000Y73000D01*
X269000Y60000D02*Y80000D01*
X271500D02*Y66500D01*
X274000Y69500D02*X273500Y70000D01*
Y80500D02*Y70000D01*
X274000Y69500D02*Y62000D01*
X276000Y70500D02*X275500Y71000D01*
X276000Y70500D02*Y61500D01*
X275500Y71000D02*Y81000D01*
X278500Y63000D02*Y76000D01*
X280500Y78000D01*
X281000Y76000D02*X282500Y77500D01*
Y81500D02*Y77500D01*
X281000Y65500D02*Y76000D01*
X279500Y60500D02*X284000Y65000D01*
X280000Y58500D02*X285750Y64250D01*
X264000Y87500D02*X260000D01*
X259500Y85500D02*X263500D01*
X269000Y80000D01*
X264000Y87500D02*X271500Y80000D01*
X264000Y90000D02*X273500Y80500D01*
X257500Y99000D02*X275500Y81000D01*
X259500Y99500D02*X278000Y81000D01*
Y79500D01*
X261500Y100000D02*X280500Y81000D01*
Y78000D01*
X263500Y100500D02*X282500Y81500D01*
X275500Y91000D02*X284500Y82000D01*
X277500Y91500D02*X287000Y82000D01*
X161000Y150500D02*X172874Y162374D01*
X180283D01*
X165500Y149500D02*X171500D01*
X156500Y156500D02*Y149500D01*
X158500Y147500D01*
X163500D01*
X165500Y149500D01*
G54D14*X175500Y181000D02*X186500Y170000D01*
Y139500D01*
X175500Y128500D01*
G54D12*X171500Y149500D02*X179000Y142000D01*
X183000D02*X179000D01*
X161000Y80000D02*X172874Y91874D01*
X180283D01*
G54D14*X175500Y128500D02*Y110000D01*
X179500Y106000D01*
Y103000D01*
X185500Y97000D01*
X152500Y77000D02*X153000Y76500D01*
X162500D01*
X166000Y80000D01*
D03*
X183500D01*
X175500D02*Y74500D01*
X185500Y97000D02*X186500D01*
G54D12*Y78000D02*Y73500D01*
G54D14*X175500Y74500D02*X177500Y72500D01*
Y59500D01*
X176000Y58000D01*
Y46500D01*
X185000Y37500D02*X176000Y46500D01*
G54D12*X222500Y239000D02*Y244000D01*
X229000Y239000D02*X223000Y233000D01*
Y227000D01*
X224000Y250000D02*X216000D01*
X207500Y241500D01*
Y228000D01*
X229000Y246000D02*Y239000D01*
X233500Y246000D02*X232000Y244500D01*
Y234000D01*
X231500Y233500D01*
Y226500D01*
X239000Y235500D02*Y228500D01*
X223500Y213000D01*
X222500Y244000D02*X227500Y249000D01*
Y253000D01*
X224000Y256500D01*
X229000Y83500D02*X228500Y84000D01*
X224000D01*
X224511Y82048D02*X226452D01*
X224511Y85984D02*X226484D01*
X223000Y227000D02*X218000Y222000D01*
X222000Y194559D02*Y168500D01*
X220000Y191059D02*Y168000D01*
X218000Y187559D02*Y167500D01*
X231500Y226500D02*X222500Y217500D01*
G54D14*X156500Y230000D02*X164500Y222000D01*
Y206000D01*
X175500Y195000D01*
Y181000D01*
G54D12*X205441Y189000D02*X201559D01*
X196441Y183500D02*X193000D01*
X205441D02*X201559D01*
X196441Y189000D02*X193000D01*
X191000Y177500D02*X201000Y167500D01*
X194500Y217500D02*X189000Y212000D01*
X193000Y222000D02*X187000Y216000D01*
X196500Y207500D02*X199000Y210000D01*
X196000Y213000D02*X191000Y208000D01*
X189000Y212000D02*Y177000D01*
X187000Y216000D02*Y176500D01*
X185000Y219000D02*Y175500D01*
G54D14*X193000Y180000D02*Y205500D01*
G54D12*X196441Y194500D02*X193500D01*
X196441Y200000D02*X193500D01*
X196441Y205500D02*X193500D01*
X196500D02*Y207500D01*
X191000Y208000D02*Y177500D01*
X222500Y217500D02*X194500D01*
X218000Y222000D02*X193000D01*
X207500Y228000D02*X205000Y225500D01*
X191500D01*
X185000Y219000D01*
X205941Y194500D02*X201559D01*
X205941Y200000D02*X201559D01*
X205441Y178000D02*X201559D01*
X211059Y183500D02*X214000Y180559D01*
X211059Y189000D02*X216000Y184059D01*
X211059Y194500D02*X218000Y187559D01*
X211059Y200000D02*X220000Y191059D01*
X211059Y205500D02*X222000Y194559D01*
X223500Y213000D02*X196000D01*
X205941Y205500D02*X201559D01*
X199000Y210000D02*X206000D01*
X211059Y178000D02*Y176059D01*
X207000Y161500D02*X195500D01*
X211059Y176059D02*X208500Y173500D01*
G54D14*X221457Y100000D02*X203500D01*
G54D12*X216543Y127000D02*Y126957D01*
X222000Y121500D01*
X207000Y161500D02*X213500Y155000D01*
X218000D01*
X202059Y133500D02*X203000Y132559D01*
Y128559D01*
Y123441D02*X193059D01*
X193000Y123500D01*
G54D14*X183500Y80000D02*X203500Y100000D01*
X233000Y105441D02*X229941D01*
G54D12*X209457Y119543D02*X195043D01*
X193000Y117500D01*
X209457Y127000D02*Y104500D01*
X205941Y139000D02*X202059D01*
X213500Y140941D02*X211559Y139000D01*
X236000Y121500D02*X222000D01*
X221952Y79489D02*Y76548D01*
X219984Y79489D02*Y75984D01*
X219500Y75500D01*
X218016Y79489D02*Y75516D01*
X218000Y75500D01*
X216048Y79489D02*Y77548D01*
X213489Y82048D02*X211548D01*
X213489Y84016D02*X211516D01*
X213489Y85984D02*X211516D01*
X213489Y87952D02*X211548D01*
X212500Y96500D02*X209500Y93500D01*
X216048Y90511D02*Y92452D01*
X219500Y75500D02*X210500D01*
X209500Y76500D01*
X186500Y73500D02*X190500Y69500D01*
X209500Y76500D02*Y93500D01*
X196441Y178000D02*X195000D01*
X193000Y180000D01*
X185000Y175500D02*X190000Y170500D01*
X187000Y176500D02*X192000Y171500D01*
X189000Y177000D02*X194000Y172000D01*
X199500Y173500D02*Y171500D01*
X198941Y154000D02*X186500D01*
X202441Y148500D02*X199500D01*
X199000Y148000D01*
Y144000D02*X197000Y142000D01*
Y133500D01*
X194000Y172000D02*Y163000D01*
X192000Y171500D02*Y162500D01*
X195000Y159500D01*
X190000Y170500D02*Y162000D01*
X194500Y157500D01*
X204059Y154000D02*X207500Y150559D01*
Y148500D01*
X206000Y157500D02*X212500Y151000D01*
X206500Y159500D02*X213000Y153000D01*
X195500Y161500D02*X194000Y163000D01*
X206500Y159500D02*X195000D01*
X206000Y157500D02*X194500D01*
X204000Y172500D02*Y172000D01*
X199500Y171500D02*X201500Y169500D01*
X204000D01*
X201000Y167500D02*X203500D01*
X215000Y161000D02*X204000Y172000D01*
Y169500D02*X214500Y159000D01*
X203500Y167500D02*X214000Y157000D01*
X218016Y90511D02*Y95457D01*
X219059Y96500D01*
X219984Y90511D02*Y95457D01*
X219000Y96441D01*
X221952Y90511D02*Y93452D01*
X222500Y94000D01*
X230543D02*X222500D01*
X224511Y87952D02*X233909D01*
X233957Y88000D02*Y89457D01*
X234543Y98000D02*X230543Y94000D01*
G54D14*X227957Y98457D02*X223957D01*
X223000Y97500D01*
X221457Y100000D02*X223000Y98457D01*
Y97500D01*
G54D12*X233909Y87952D02*X233957Y88000D01*
X238000Y83500D02*X234500D01*
X232000Y81000D01*
Y75457D01*
X232457Y75000D01*
X329471Y164374D02*X327815D01*
G54D13*X347000Y166500D02*X336000D01*
X334000Y168500D01*
G54D14*X332000Y170500D01*
G54D12*X327815Y164374D02*X324000Y160559D01*
G54D13*X331750Y170750D02*Y181750D01*
G54D12*X341275Y173029D02*Y175275D01*
X343000Y177000D01*
X344425Y173029D02*Y175575D01*
X343000Y177000D01*
X347575Y173029D02*Y175575D01*
X349000Y177000D01*
X350724Y175276D02*X349000Y177000D01*
G54D13*X364000Y185000D02*X336000D01*
G54D12*X321059Y166500D02*Y163559D01*
X319500Y162000D01*
G54D13*X331750Y181750D02*X329000Y184500D01*
X324500D01*
X336000Y185000D02*X331500Y189500D01*
G54D12*X338126Y178874D02*X330000Y187000D01*
G54D13*X331500Y189500D02*X324500D01*
X325000Y199500D02*X319000D01*
X325000Y209500D02*Y204500D01*
G54D12*X330000Y187000D02*X316000D01*
X314500Y176500D02*Y185500D01*
X320500Y174500D02*X318000Y172000D01*
X311000D01*
X309500Y175000D02*X313000D01*
X314500Y176500D01*
X312500Y167000D02*X315441D01*
X315941Y166500D01*
G54D13*X319000Y199500D02*X314500Y195000D01*
X309000D01*
X325000Y204500D02*X310500D01*
X301000Y195000D01*
Y192000D01*
X298000Y189000D01*
G54D12*X314500Y185500D02*X316000Y187000D01*
X289000Y194500D02*X293500D01*
X295000Y193000D01*
X292500Y184500D02*X295000Y187000D01*
Y193000D02*Y187000D01*
X282500Y194500D02*X279500Y191500D01*
X280500Y198000D02*X277500Y195000D01*
X278500Y200500D02*X275500Y197500D01*
X295000Y208000D02*X294000Y207000D01*
X284000D01*
X282500Y205500D01*
X289000Y209500D02*X283500D01*
X282500Y205500D02*Y194500D01*
X280500Y198000D02*Y206500D01*
X283500Y209500D01*
X289000Y184500D02*X292500D01*
X289000Y189500D02*X284000D01*
X282000Y187500D01*
Y169000D01*
X282500Y168500D01*
X279500Y191500D02*Y167000D01*
X282500Y164000D01*
X277500Y195000D02*Y163000D01*
X275500Y197500D02*Y160500D01*
G54D13*X296500Y163000D02*X301500D01*
G54D12*X309500Y161500D02*Y169000D01*
G54D13*X306500Y163000D02*Y168000D01*
G54D12*X309500Y169000D02*X308000Y170500D01*
G54D13*X306500Y168000D02*X303500Y171000D01*
G54D12*X308000Y170500D02*Y173500D01*
X309500Y175000D01*
X270500Y199000D02*X275000Y203500D01*
X270500Y199000D02*Y179500D01*
X262500Y171500D01*
G54D13*X260500Y209500D02*X258300Y207300D01*
Y197141D01*
X258441Y197000D01*
X262000Y203900D02*X265700D01*
X263559Y203859D02*X263600Y203900D01*
G54D12*X275000Y206500D02*Y203500D01*
G54D13*X263559Y203859D02*Y194559D01*
X261500Y192500D01*
X251500D01*
G54D12*X252000Y208441D02*X259441D01*
X241000Y213500D02*Y205500D01*
X248000Y212500D02*Y200500D01*
G54D13*X251500Y192500D02*X239000Y180000D01*
G54D12*X241000Y205500D02*X228000Y192500D01*
X237500Y208500D02*X226000Y197000D01*
X248000Y200500D02*X230000Y182500D01*
G54D13*X241000Y177500D02*Y182000D01*
G54D12*X230000Y182500D02*Y170500D01*
X228000Y192500D02*Y170000D01*
X226000Y197000D02*Y169500D01*
X224000Y207500D02*Y169000D01*
X230000Y170500D02*X232500Y168000D01*
X228000Y170000D02*X232000Y166000D01*
X226000Y169500D02*X231500Y164000D01*
X224000Y169000D02*X231000Y162000D01*
X230500Y160000D02*X239000D01*
X230000Y158000D02*X238500D01*
X229500Y156000D02*X238000D01*
X229000Y154000D02*X237500D01*
X228500Y152000D02*X237000D01*
X231500Y164000D02*X236500D01*
X231000Y162000D02*X239500D01*
X241000Y163500D01*
X256000D01*
X238000Y165500D02*X263000D01*
X266500Y162000D01*
X237500Y167500D02*X263500D01*
X237000Y169500D02*X264000D01*
X256000Y163500D02*X259000Y160500D01*
X241000Y155500D02*X263500D01*
X263000Y153500D02*X264500Y152000D01*
X263500Y155500D02*X266500Y152500D01*
X240500Y153500D02*X263000D01*
X266500Y162000D02*Y155000D01*
X268500Y153000D01*
X264000Y169500D02*X273000Y160500D01*
X239000Y256500D02*X242500Y253000D01*
Y247000D01*
X239000Y250000D02*X237000Y248000D01*
X256500Y256500D02*X253000Y253000D01*
Y247000D01*
X254000Y246000D01*
Y239000D02*Y246000D01*
X257000Y237500D02*X255000Y235500D01*
X242500Y247000D02*X240000Y244500D01*
Y239000D01*
X237000Y248000D02*Y237500D01*
X239000Y235500D01*
X287500Y248000D02*X283000Y252500D01*
X309500D02*Y236000D01*
X283000Y243000D02*X294000Y232000D01*
X309500Y236000D02*X295000Y221500D01*
X283000Y252500D02*X275500D01*
X271500Y256500D01*
X255000Y235500D02*Y228500D01*
X257000Y237500D02*Y249500D01*
X256500Y250000D01*
X261500Y246000D02*X262500Y245000D01*
Y227000D01*
X266000Y246000D02*X270500Y241500D01*
Y227500D01*
X271500Y250000D02*X278500Y243000D01*
X283000D01*
G54D13*X262000Y214100D02*X266816D01*
X269000Y209500D02*X260500D01*
X269500Y216784D02*X266816Y214100D01*
X269000Y209500D02*X274000Y214500D01*
Y221059D02*X272059D01*
X269500Y218500D01*
Y216784D01*
X274059Y221059D02*X277059D01*
X275500Y216000D02*X274000D01*
Y214500D01*
X276000Y216000D02*X276590D01*
X282433Y229717D02*Y229492D01*
X282500Y226500D02*Y229500D01*
G54D12*X278500Y212500D02*Y200500D01*
G54D13*X277059Y221059D02*X282500Y226500D01*
X276590Y216000D02*X290307Y229717D01*
G54D12*X294000Y225000D02*X285000Y216000D01*
X282000D01*
X278500Y212500D01*
X294000Y232000D02*Y225000D01*
X295000Y221500D02*Y208000D01*
X289000Y204500D02*X292000D01*
X294500Y202000D01*
X292000Y199500D02*X294500Y202000D01*
X289000Y199500D02*X292000D01*
X270500Y227500D02*X265000Y222000D01*
X262500Y227000D02*X260500Y225000D01*
X265000Y222000D02*X249500D01*
X258300Y214100D02*X252541D01*
X252000Y213559D01*
X249059D01*
X260500Y225000D02*X256000D01*
X255000Y228500D02*X252500Y226000D01*
X256000Y225000D02*X255000Y224000D01*
X247000D01*
X252500Y226000D02*X242500D01*
X224000Y207500D01*
X249500Y222000D02*X241000Y213500D01*
X247000Y224000D02*X237500Y214500D01*
Y208500D01*
X249059Y213559D02*X248000Y212500D01*
X236086Y42221D02*X240779D01*
X241000Y42000D01*
X245059Y39000D02*X239500D01*
X236086Y44779D02*X239779D01*
X236086Y39662D02*X238838D01*
X240500Y38000D01*
Y32500D01*
X239500Y31500D01*
X245500Y39441D02*X245059Y39000D01*
X239779Y44779D02*X240000Y45000D01*
X245059D01*
X245500Y44559D01*
X236086Y47338D02*X238662D01*
X241000Y45000D01*
X241941Y51559D02*Y49500D01*
X221914Y39662D02*X219162D01*
X221914D02*X218662D01*
X218000Y39000D01*
Y33000D01*
X219500Y31500D01*
X217221Y42221D02*X221914D01*
X239500Y31500D02*X219500D01*
X220000Y28500D02*X245500D01*
X225162Y36414D02*Y31838D01*
X225500Y31500D01*
X227721Y36414D02*Y31779D01*
X228000Y31500D01*
X230279Y36414D02*Y31721D01*
X230500Y31500D01*
X232838Y36414D02*Y31662D01*
X233000Y31500D01*
X216000Y32500D02*Y41000D01*
X217221Y42221D01*
X233500Y54000D02*X239500D01*
X241941Y51559D01*
X247059Y49500D02*X249500D01*
X250500Y50500D01*
X237500Y56000D02*Y54000D01*
X256052Y42552D02*X254500Y41000D01*
Y37500D01*
X245500Y28500D01*
X251000Y39441D02*X245500D01*
X220000Y28500D02*X216000Y32500D01*
X206000Y30000D02*X206500D01*
X205000Y28500D01*
X197500D01*
X195500Y30500D01*
X201000Y44500D02*Y35500D01*
X202000Y34500D01*
Y31000D01*
X195500Y30500D02*Y40500D01*
X190500Y45500D01*
G54D14*X185000Y35500D02*Y37500D01*
G54D12*X307233Y51267D02*X307000Y51500D01*
X248380Y56019D02*X244019D01*
X244000Y56000D01*
X248380Y54051D02*X252949D01*
X253000Y54000D01*
X301941Y43000D02*X300500Y41559D01*
X305264Y46380D02*Y41264D01*
X309201Y46380D02*Y41858D01*
X295000Y41559D02*X300500D01*
X295000Y36441D02*Y31941D01*
X295441Y31500D01*
X300500Y36441D02*Y31559D01*
Y36441D02*X304059D01*
X304500Y36000D01*
X295000Y36441D02*X291059D01*
X291000Y36500D01*
X261000Y37559D02*X272000D01*
X265894Y46380D02*Y38165D01*
X266500Y37559D01*
X261000Y32441D02*X266500D01*
X260941D02*X257559D01*
X257000Y33000D01*
X258020Y42480D02*X259000Y41500D01*
X275500Y33000D02*X275000Y32500D01*
X272000D01*
X309500Y36441D02*Y32059D01*
X308941Y31500D01*
X309000Y31559D02*X307059D01*
X305500Y30000D01*
X305264Y41264D02*X305000Y41000D01*
X315000Y41559D02*X309500D01*
X309201Y41858D02*X309500Y41559D01*
X315000Y36441D02*Y32441D01*
X314059Y31500D01*
X315000Y36441D02*X318559D01*
X319000Y36000D01*
X216000Y184059D02*Y167000D01*
X214000Y180559D02*Y174500D01*
X213000Y173500D01*
X222000Y168500D02*X230500Y160000D01*
X220000Y168000D02*X230000Y158000D01*
X218000Y167500D02*X229500Y156000D01*
X216000Y167000D02*X229000Y154000D01*
X219500Y161000D02*X228500Y152000D01*
X214500Y159000D02*X219000D01*
X215000Y161000D02*X219500D01*
X217500Y153000D02*X220000Y150500D01*
X218000Y155000D02*X222000Y151000D01*
X218500Y157000D02*X224000Y151500D01*
X219000Y159000D02*X226000Y152000D01*
X212500Y151000D02*X217000D01*
X218000Y150000D01*
X213000Y153000D02*X217500D01*
X214000Y157000D02*X218500D01*
X213500Y144000D02*Y140941D01*
X222000Y151000D02*Y140000D01*
X220000Y150500D02*Y137500D01*
X218000Y150000D02*Y134500D01*
X222000Y140000D02*X230500Y131500D01*
X220000Y137500D02*X230500Y127000D01*
X218000Y134500D02*X226000Y126500D01*
X232838Y50586D02*Y53338D01*
X230279Y50586D02*Y56279D01*
X230500Y56500D01*
X232838Y53338D02*X233500Y54000D01*
X232500Y75043D02*X232457Y75000D01*
X227721Y50586D02*Y53779D01*
X227500Y54000D01*
Y58000D01*
X231000Y61500D01*
X225162Y50586D02*Y59162D01*
X230500Y64500D01*
X216543Y112000D02*X222000D01*
X227500Y117500D01*
X216543Y119500D02*X235500D01*
X224500Y110000D02*X221500Y107000D01*
Y105500D01*
X220500Y104500D01*
X219059Y96500D02*X222500D01*
X223500Y97500D01*
X220500Y104500D02*X216543D01*
X231000Y61500D02*X232500D01*
X230500Y64500D02*X235500D01*
X238000Y62000D01*
X241107Y63893D02*X238500Y66500D01*
X229500D01*
X240000Y68500D02*X227500D01*
X237500Y70500D02*X228000D01*
X243767Y71767D02*X242000Y70000D01*
X241500D01*
X240000Y68500D01*
X239543Y72543D02*X237500Y70500D01*
X239543Y82043D02*Y72543D01*
X244000Y83000D02*X240500D01*
X239543Y82043D01*
X241043Y88000D02*Y86543D01*
X238000Y83500D01*
X241000Y64000D02*X241500Y63500D01*
X244500D01*
X229500Y66500D02*X218000Y55000D01*
X227500Y68500D02*X216000Y57000D01*
X212500Y56000D02*Y75500D01*
X221952Y76548D02*X228000Y70500D01*
X216000Y57000D02*Y46000D01*
X217221Y44779D01*
X221914Y47338D02*X218662D01*
X218000Y48000D01*
Y55000D02*Y48000D01*
X221914Y44779D02*X217221D01*
X204000Y64000D02*Y47500D01*
X201000Y44500D01*
X190500Y69500D02*Y45500D01*
G54D15*X151980Y174460D02*X152470Y174950D01*
X151980Y174460D02*Y172990D01*
X152470Y172500D02*X151980Y172990D01*
X152470Y172500D02*X153450D01*
X153940Y172990D01*
Y174460D02*Y172990D01*
Y174460D02*X154430Y174950D01*
X155410D01*
X155900Y174460D02*X155410Y174950D01*
X155900Y174460D02*Y172990D01*
X155410Y172500D02*X155900Y172990D01*
Y178086D02*Y176616D01*
X155410Y176126D02*X155900Y176616D01*
X154430Y176126D02*X155410D01*
X154430D02*X153940Y176616D01*
Y177596D02*Y176616D01*
Y177596D02*X154430Y178086D01*
X154920D02*Y176126D01*
X154430Y178086D02*X154920D01*
X155900Y181222D02*Y179752D01*
X155410Y179262D02*X155900Y179752D01*
X154430Y179262D02*X155410D01*
X154430D02*X153940Y179752D01*
Y180732D02*Y179752D01*
Y180732D02*X154430Y181222D01*
X154920D02*Y179262D01*
X154430Y181222D02*X154920D01*
X154430Y182888D02*X155900D01*
X154430D02*X153940Y183378D01*
Y183868D02*Y183378D01*
Y183868D02*X154430Y184358D01*
X155900D01*
X154430D02*X153940Y184848D01*
Y185338D02*Y184848D01*
Y185338D02*X154430Y185828D01*
X155900D01*
X153940Y182398D02*X154430Y182888D01*
X155900Y188964D02*Y187494D01*
Y188964D02*X155410Y189454D01*
X154920Y188964D02*X155410Y189454D01*
X154920Y188964D02*Y187494D01*
X154430Y187004D02*X154920Y187494D01*
X154430Y187004D02*X153940Y187494D01*
Y188964D02*Y187494D01*
Y188964D02*X154430Y189454D01*
X155410Y187004D02*X155900Y187494D01*
X151980Y194354D02*Y192394D01*
Y194354D02*X152470Y194844D01*
X153450D01*
X153940Y194354D02*X153450Y194844D01*
X153940Y194354D02*Y192884D01*
X151980D02*X155900D01*
X153940Y193668D02*X155900Y194844D01*
Y197980D02*Y196510D01*
X155410Y196020D02*X155900Y196510D01*
X154430Y196020D02*X155410D01*
X154430D02*X153940Y196510D01*
Y197490D02*Y196510D01*
Y197490D02*X154430Y197980D01*
X154920D02*Y196020D01*
X154430Y197980D02*X154920D01*
X153940Y200626D02*X154430Y201116D01*
X153940Y200626D02*Y199646D01*
X154430Y199156D02*X153940Y199646D01*
X154430Y199156D02*X155410D01*
X155900Y199646D01*
X153940Y201116D02*X155410D01*
X155900Y201606D01*
Y200626D02*Y199646D01*
Y200626D02*X155410Y201116D01*
X155900Y204742D02*Y203272D01*
Y204742D02*X155410Y205232D01*
X154920Y204742D02*X155410Y205232D01*
X154920Y204742D02*Y203272D01*
X154430Y202782D02*X154920Y203272D01*
X154430Y202782D02*X153940Y203272D01*
Y204742D02*Y203272D01*
Y204742D02*X154430Y205232D01*
X155410Y202782D02*X155900Y203272D01*
X154430Y206408D02*X155410D01*
X154430D02*X153940Y206898D01*
Y207878D02*Y206898D01*
Y207878D02*X154430Y208368D01*
X155410D01*
X155900Y207878D02*X155410Y208368D01*
X155900Y207878D02*Y206898D01*
X155410Y206408D02*X155900Y206898D01*
X154430Y210034D02*X155900D01*
X154430D02*X153940Y210524D01*
Y211014D02*Y210524D01*
Y211014D02*X154430Y211504D01*
X155900D01*
X153940Y209544D02*X154430Y210034D01*
X153940Y214150D02*X154430Y214640D01*
X153940Y214150D02*Y213170D01*
X154430Y212680D02*X153940Y213170D01*
X154430Y212680D02*X155410D01*
X155900Y213170D01*
X153940Y214640D02*X155410D01*
X155900Y215130D01*
Y214150D02*Y213170D01*
Y214150D02*X155410Y214640D01*
X151980Y216306D02*X155900D01*
X155410D02*X155900Y216796D01*
Y217776D02*Y216796D01*
Y217776D02*X155410Y218266D01*
X154430D02*X155410D01*
X153940Y217776D02*X154430Y218266D01*
X153940Y217776D02*Y216796D01*
X154430Y216306D02*X153940Y216796D01*
X151980Y219442D02*X155410D01*
X155900Y219932D01*
Y222872D02*Y221402D01*
X155410Y220912D02*X155900Y221402D01*
X154430Y220912D02*X155410D01*
X154430D02*X153940Y221402D01*
Y222382D02*Y221402D01*
Y222382D02*X154430Y222872D01*
X154920D02*Y220912D01*
X154430Y222872D02*X154920D01*
X151970Y116500D02*X151480Y116990D01*
Y118460D02*Y116990D01*
Y118460D02*X151970Y118950D01*
X152950D01*
X155400Y116500D02*X152950Y118950D01*
X155400D02*Y116500D01*
X154910Y120126D02*X155400Y120616D01*
X151970Y120126D02*X154910D01*
X151970D02*X151480Y120616D01*
Y121596D02*Y120616D01*
Y121596D02*X151970Y122086D01*
X154910D01*
X155400Y121596D02*X154910Y122086D01*
X155400Y121596D02*Y120616D01*
X154420Y120126D02*X152460Y122086D01*
X152264Y123262D02*X151480Y124046D01*
X155400D01*
Y124732D02*Y123262D01*
X154910Y125908D02*X155400Y126398D01*
X154126Y125908D02*X154910D01*
X154126D02*X153440Y126594D01*
Y127182D02*Y126594D01*
Y127182D02*X154126Y127868D01*
X154910D01*
X155400Y127378D02*X154910Y127868D01*
X155400Y127378D02*Y126398D01*
X152754Y125908D02*X153440Y126594D01*
X151970Y125908D02*X152754D01*
X151970D02*X151480Y126398D01*
Y127378D02*Y126398D01*
Y127378D02*X151970Y127868D01*
X152754D01*
X153440Y127182D02*X152754Y127868D01*
X154910Y129044D02*X155400Y129534D01*
X151970Y129044D02*X154910D01*
X151970D02*X151480Y129534D01*
Y130514D02*Y129534D01*
Y130514D02*X151970Y131004D01*
X154910D01*
X155400Y130514D02*X154910Y131004D01*
X155400Y130514D02*Y129534D01*
X154420Y129044D02*X152460Y131004D01*
X152264Y132180D02*X151480Y132964D01*
X155400D01*
Y133650D02*Y132180D01*
X154910Y134826D02*X155400Y135316D01*
X151970Y134826D02*X154910D01*
X151970D02*X151480Y135316D01*
Y136296D02*Y135316D01*
Y136296D02*X151970Y136786D01*
X154910D01*
X155400Y136296D02*X154910Y136786D01*
X155400Y136296D02*Y135316D01*
X154420Y134826D02*X152460Y136786D01*
X152264Y137962D02*X151480Y138746D01*
X155400D01*
Y139432D02*Y137962D01*
G54D17*X180283Y48563D03*
Y56437D03*
G54D18*X173016Y42657D03*
Y62343D03*
G54D17*X180283Y76126D03*
Y84000D03*
Y91874D03*
G54D18*X173016Y70220D03*
Y97780D03*
Y105220D03*
G54D17*X180283Y111126D03*
Y119000D03*
Y126874D03*
G54D18*X173016Y132780D03*
G54D17*X351717Y249437D03*
Y241563D03*
G54D18*X358984Y255343D03*
Y235657D03*
G54D17*X351717Y221811D03*
G54D18*X358984Y227717D03*
G54D17*X351717Y213937D03*
Y206063D03*
Y198189D03*
G54D18*X358984Y192283D03*
G54D17*X309563Y229717D03*
X317437D03*
G54D18*X323343Y236984D03*
X303657D03*
G54D17*X180283Y146626D03*
G54D18*X173016Y140720D03*
G54D17*X180283Y154500D03*
Y182126D03*
Y162374D03*
G54D18*X173016Y168280D03*
Y176220D03*
Y203780D03*
Y211846D03*
G54D19*X367661Y103843D03*
Y84157D03*
G54D20*X378291Y107780D03*
Y80220D03*
G54D17*X351717Y62811D03*
G54D18*X358984Y68717D03*
G54D17*X351717Y54937D03*
Y47063D03*
Y39189D03*
G54D18*X358984Y33283D03*
G54D17*X180283Y190000D03*
Y197874D03*
Y217752D03*
Y225626D03*
Y233500D03*
Y241374D03*
Y249248D03*
G54D18*X173016Y255154D03*
G54D17*X203693Y229717D03*
X211567D03*
X219441D03*
G54D18*X197787Y236984D03*
G54D17*X227315Y229717D03*
X235189D03*
X243063D03*
X250937D03*
X258811D03*
X266685D03*
X274559D03*
X282433D03*
X290307D03*
G54D18*X296213Y236984D03*
G54D21*X263559Y197492D02*Y196508D01*
G54D22*X265700Y204700D02*Y203100D01*
G54D21*X258441Y197492D02*Y196508D01*
G54D22*X258300Y204700D02*Y203100D01*
X262000Y204700D02*Y203100D01*
Y214900D02*Y213300D01*
X258300Y214900D02*Y213300D01*
G54D21*X251508Y208441D02*X252492D01*
X273508Y221059D02*X274492D01*
X273508Y215941D02*X274492D01*
G54D22*X265700Y214900D02*Y213300D01*
G54D21*X251508Y213559D02*X252492D01*
X202441Y148992D02*Y148008D01*
X207559Y148992D02*Y148008D01*
X204059Y154492D02*Y153508D01*
X198941Y154492D02*Y153508D01*
X205941Y205992D02*Y205008D01*
X211059Y205992D02*Y205008D01*
Y200492D02*Y199508D01*
X205941Y194992D02*Y194008D01*
Y200492D02*Y199508D01*
X201559Y200492D02*Y199508D01*
Y205992D02*Y205008D01*
Y194992D02*Y194008D01*
X196441Y200492D02*Y199508D01*
Y205992D02*Y205008D01*
X211059Y194992D02*Y194008D01*
Y189492D02*Y188508D01*
Y178492D02*Y177508D01*
Y183992D02*Y183008D01*
X205941Y189492D02*Y188508D01*
Y178492D02*Y177508D01*
Y183992D02*Y183008D01*
X201559Y189492D02*Y188508D01*
X196441Y189492D02*Y188508D01*
X201559Y183992D02*Y183008D01*
X196441Y183992D02*Y183008D01*
X201559Y178492D02*Y177508D01*
X196441Y178492D02*Y177508D01*
Y194992D02*Y194008D01*
G54D23*X357023Y174492D02*Y171566D01*
X353874Y174492D02*Y171566D01*
X350724Y174492D02*Y171566D01*
X347575Y174492D02*Y171566D01*
X344425Y174492D02*Y171566D01*
X341275Y174492D02*Y171566D01*
X338126Y174492D02*Y171566D01*
X334976Y174492D02*Y171566D01*
G54D24*X322000Y174500D02*X328000D01*
X322000Y179500D02*X328000D01*
X322000Y184500D02*X328000D01*
X322000Y199500D02*X328000D01*
X322000Y189500D02*X328000D01*
X322000Y194500D02*X328000D01*
X322000Y204500D02*X328000D01*
X322000Y209500D02*X328000D01*
X286000D02*X292000D01*
X286000Y204500D02*X292000D01*
X286000Y199500D02*X292000D01*
X286000Y194500D02*X292000D01*
X286000Y189500D02*X292000D01*
X286000Y184500D02*X292000D01*
X286000Y179500D02*X292000D01*
X286000Y174500D02*X292000D01*
G54D21*X311008Y144059D02*X311992D01*
X310941Y149492D02*Y148508D01*
G54D25*X306500Y151050D02*Y142950D01*
X301500Y151050D02*Y142950D01*
X296500Y151050D02*Y142950D01*
X291500Y151050D02*Y142950D01*
X286500Y151050D02*Y142950D01*
X306500Y167050D02*Y158950D01*
X301500Y167050D02*Y158950D01*
X296500Y167050D02*Y158950D01*
X291500Y167050D02*Y158950D01*
X286500Y167050D02*Y158950D01*
G54D21*X323508Y155441D02*X324492D01*
X323508Y160559D02*X324492D01*
X316059Y154992D02*Y154008D01*
X310941Y154992D02*Y154008D01*
X315941Y166992D02*Y166008D01*
X321059Y166992D02*Y166008D01*
G54D23*X328008Y167523D02*X330934D01*
X328008Y164374D02*X330934D01*
X328008Y161224D02*X330934D01*
X328008Y158075D02*X330934D01*
X328008Y154925D02*X330934D01*
G54D26*X309200Y132319D02*Y128921D01*
X307232Y132319D02*Y128921D01*
X317074Y132319D02*Y128921D01*
X315106Y132319D02*Y128921D01*
X313137Y132319D02*Y128921D01*
X311169Y132319D02*Y128921D01*
X324948Y132319D02*Y128921D01*
X322980Y132319D02*Y128921D01*
X321011Y132319D02*Y128921D01*
X319043Y132319D02*Y128921D01*
G54D21*X338008Y112441D02*X338992D01*
X338008Y117559D02*X338992D01*
G54D26*X330921Y87516D02*X334319D01*
X330921Y89485D02*X334319D01*
X330921Y91453D02*X334319D01*
X330921Y93422D02*X334319D01*
X330921Y95390D02*X334319D01*
X330921Y97359D02*X334319D01*
X330921Y99327D02*X334319D01*
X330921Y101296D02*X334319D01*
X330921Y103264D02*X334319D01*
X330921Y105233D02*X334319D01*
X330921Y107201D02*X334319D01*
X330921Y109170D02*X334319D01*
X330921Y111138D02*X334319D01*
X330921Y113107D02*X334319D01*
X330921Y115075D02*X334319D01*
X330921Y117044D02*X334319D01*
X330921Y119012D02*X334319D01*
X330921Y120981D02*X334319D01*
X330921Y122949D02*X334319D01*
G54D21*X319941Y140492D02*Y139508D01*
X325059Y140492D02*Y139508D01*
X311008Y138941D02*X311992D01*
X316059Y149492D02*Y148508D01*
G54D23*X328008Y151775D02*X330934D01*
X328008Y148626D02*X330934D01*
X328008Y145476D02*X330934D01*
G54D21*X333559Y132492D02*Y131508D01*
X328441Y132492D02*Y131508D01*
G54D23*X334977Y141434D02*Y138508D01*
X338126Y141434D02*Y138508D01*
X341276Y141434D02*Y138508D01*
X344425Y141434D02*Y138508D01*
X347575Y141434D02*Y138508D01*
X350725Y141434D02*Y138508D01*
X353874Y141434D02*Y138508D01*
X357024Y141434D02*Y138508D01*
X361066Y145477D02*X363992D01*
G54D27*X353008Y126500D02*X353402D01*
G54D23*X361066Y148626D02*X363992D01*
X361066Y151776D02*X363992D01*
X361066Y154925D02*X363992D01*
X361066Y158075D02*X363992D01*
X361066Y161225D02*X363992D01*
X361066Y164374D02*X363992D01*
X361066Y167524D02*X363992D01*
G54D21*X278008Y136941D02*X278992D01*
X278008Y142059D02*X278992D01*
X277559Y147492D02*Y146508D01*
G54D26*X305263Y132319D02*Y128921D01*
X303295Y132319D02*Y128921D01*
X301326Y132319D02*Y128921D01*
X299358Y132319D02*Y128921D01*
X297389Y132319D02*Y128921D01*
X295421Y132319D02*Y128921D01*
X293452Y132319D02*Y128921D01*
X291484Y132319D02*Y128921D01*
X289515Y132319D02*Y128921D01*
X287547Y132319D02*Y128921D01*
X285578Y132319D02*Y128921D01*
X283610Y132319D02*Y128921D01*
X281641Y132319D02*Y128921D01*
X279673Y132319D02*Y128921D01*
X277704Y132319D02*Y128921D01*
X275736Y132319D02*Y128921D01*
G54D21*X260508Y136941D02*X261492D01*
X260508Y142059D02*X261492D01*
G54D28*X240858Y142520D02*Y141535D01*
X248142Y142520D02*Y141535D01*
Y133465D02*Y132480D01*
G54D26*X261956Y132319D02*Y128921D01*
X259988Y132319D02*Y128921D01*
X258019Y132319D02*Y128921D01*
X256051Y132319D02*Y128921D01*
G54D28*X240858Y133465D02*Y132480D01*
G54D26*X246681Y122948D02*X250079D01*
X246681Y120980D02*X250079D01*
X246681Y119011D02*X250079D01*
X246681Y117043D02*X250079D01*
X246681Y115074D02*X250079D01*
X246681Y113106D02*X250079D01*
X246681Y111137D02*X250079D01*
X246681Y109169D02*X250079D01*
X246681Y107200D02*X250079D01*
X246681Y105232D02*X250079D01*
X246681Y103263D02*X250079D01*
X246681Y101295D02*X250079D01*
X246681Y99326D02*X250079D01*
X246681Y97358D02*X250079D01*
X246681Y95389D02*X250079D01*
X246681Y93421D02*X250079D01*
X246681Y91452D02*X250079D01*
X246681Y89484D02*X250079D01*
X246681Y87515D02*X250079D01*
G54D29*X239543Y75393D02*Y74607D01*
X232457Y75393D02*Y74607D01*
G54D26*X216048Y80315D02*Y78662D01*
X218016Y80315D02*Y78662D01*
G54D11*G36*
X216048Y87952D02*Y82048D01*
X221952D01*
Y87952D01*
X216048D01*
G37*
G54D26*X219984Y80315D02*Y78662D01*
X221952Y80315D02*Y78662D01*
G54D30*X220871Y47338D02*X222957D01*
X220871Y44779D02*X222957D01*
X220871Y42221D02*X222957D01*
X220871Y39662D02*X222957D01*
G54D21*X213941Y96992D02*Y96008D01*
X219059Y96992D02*Y96008D01*
G54D26*X221952Y91338D02*Y89685D01*
X219984Y91338D02*Y89685D01*
X218016Y91338D02*Y89685D01*
X216048Y91338D02*Y89685D01*
X212662Y87952D02*X214315D01*
X212662Y85984D02*X214315D01*
X212662Y84016D02*X214315D01*
X212662Y82048D02*X214315D01*
G54D21*X241941Y49992D02*Y49008D01*
X247059Y49992D02*Y49008D01*
G54D30*X232838Y51629D02*Y49543D01*
X230279Y51629D02*Y49543D01*
X227721Y51629D02*Y49543D01*
X225162Y51629D02*Y49543D01*
X235043Y47338D02*X237129D01*
X225162Y37457D02*Y35371D01*
X227721Y37457D02*Y35371D01*
X230279Y37457D02*Y35371D01*
X232838Y37457D02*Y35371D01*
X235043Y39662D02*X237129D01*
X235043Y42221D02*X237129D01*
X235043Y44779D02*X237129D01*
G54D29*X233957Y88393D02*Y87607D01*
X241043Y88393D02*Y87607D01*
G54D26*X223685Y82048D02*X225338D01*
X223685Y84016D02*X225338D01*
X223685Y85984D02*X225338D01*
X223685Y87952D02*X225338D01*
G54D29*X235043Y98893D02*Y98107D01*
X227957Y98893D02*Y98107D01*
G54D21*X234441Y105992D02*Y105008D01*
X229008Y105441D02*X229992D01*
X239559Y105992D02*Y105008D01*
Y111492D02*Y110508D01*
X234441Y111492D02*Y110508D01*
X229008Y110559D02*X229992D01*
G54D29*X216543Y104893D02*Y104107D01*
X209457Y104893D02*Y104107D01*
X216543Y112393D02*Y111607D01*
X209457Y112393D02*Y111607D01*
X216543Y119893D02*Y119107D01*
X209457Y119893D02*Y119107D01*
X216543Y127393D02*Y126607D01*
X209457Y127393D02*Y126607D01*
G54D21*X202508Y128559D02*X203492D01*
X202508Y123441D02*X203492D01*
X202059Y139492D02*Y138508D01*
X206441Y139492D02*Y138508D01*
X202059Y133992D02*Y133008D01*
X196941Y139492D02*Y138508D01*
X211559Y139492D02*Y138508D01*
X196941Y133992D02*Y133008D01*
X250508Y44559D02*X251492D01*
X250508Y39441D02*X251492D01*
X245008Y44559D02*X245992D01*
X245008Y39441D02*X245992D01*
X260508Y37559D02*X261492D01*
X266008D02*X266992D01*
X271508D02*X272492D01*
G54D26*X256052Y48079D02*Y44681D01*
X258020Y48079D02*Y44681D01*
X259989Y48079D02*Y44681D01*
X261957Y48079D02*Y44681D01*
X263926Y48079D02*Y44681D01*
X265894Y48079D02*Y44681D01*
X267863Y48079D02*Y44681D01*
X269831Y48079D02*Y44681D01*
X271800Y48079D02*Y44681D01*
X273768Y48079D02*Y44681D01*
G54D21*X272508Y136941D02*X273492D01*
G54D26*X273767Y132319D02*Y128921D01*
G54D21*X272508Y142059D02*X273492D01*
X272441Y147492D02*Y146508D01*
G54D26*X271799Y132319D02*Y128921D01*
X269830Y132319D02*Y128921D01*
X267862Y132319D02*Y128921D01*
X265893Y132319D02*Y128921D01*
X263925Y132319D02*Y128921D01*
G54D31*X361250Y94469D02*X361848D01*
X361250Y90531D02*X361848D01*
G54D32*X365791Y88882D02*X369531D01*
X365791Y91441D02*X369531D01*
X365791Y94000D02*X369531D01*
X365791Y96559D02*X369531D01*
X365791Y99118D02*X369531D01*
G54D33*X377602Y105417D02*X378980D01*
G54D27*X378598Y126500D02*X378992D01*
G54D33*X377602Y82583D02*X378980D01*
G54D34*X378193Y97937D02*X378390D01*
X378193Y90063D02*X378390D01*
G54D31*X356152Y92500D02*X356750D01*
G54D21*X350559Y93992D02*Y93008D01*
X345441Y93992D02*Y93008D01*
X350559Y87992D02*Y87008D01*
X345441Y87992D02*Y87008D01*
X260508Y32441D02*X261492D01*
X266008D02*X266992D01*
X271508D02*X272492D01*
G54D26*X275737Y48079D02*Y44681D01*
X277705Y48079D02*Y44681D01*
X279674Y48079D02*Y44681D01*
X281642Y48079D02*Y44681D01*
X246681Y85547D02*X250079D01*
X246681Y83578D02*X250079D01*
X246681Y81610D02*X250079D01*
X246681Y79641D02*X250079D01*
X246681Y77673D02*X250079D01*
X246681Y75704D02*X250079D01*
X246681Y73736D02*X250079D01*
X246681Y71767D02*X250079D01*
X246681Y69799D02*X250079D01*
X246681Y67830D02*X250079D01*
X246681Y65862D02*X250079D01*
X246681Y63893D02*X250079D01*
X246681Y61925D02*X250079D01*
X246681Y59956D02*X250079D01*
X246681Y57988D02*X250079D01*
X246681Y56019D02*X250079D01*
X246681Y54051D02*X250079D01*
G54D21*X294508Y41559D02*X295492D01*
X294508Y36441D02*X295492D01*
X300008Y41559D02*X300992D01*
X300008Y36441D02*X300992D01*
X295441Y31992D02*Y31008D01*
X300559Y31992D02*Y31008D01*
X309008Y41559D02*X309992D01*
X309008Y36441D02*X309992D01*
X314508Y41559D02*X315492D01*
X314508Y36441D02*X315492D01*
X308941Y31992D02*Y31008D01*
X314059Y31992D02*Y31008D01*
G54D26*X330921Y54052D02*X334319D01*
X330921Y56020D02*X334319D01*
X330921Y57989D02*X334319D01*
X330921Y59957D02*X334319D01*
X330921Y61926D02*X334319D01*
X330921Y63894D02*X334319D01*
X330921Y65863D02*X334319D01*
X330921Y67831D02*X334319D01*
X330921Y69800D02*X334319D01*
X330921Y71768D02*X334319D01*
X330921Y73737D02*X334319D01*
X330921Y75705D02*X334319D01*
X330921Y77674D02*X334319D01*
X330921Y79642D02*X334319D01*
X330921Y81611D02*X334319D01*
X330921Y83579D02*X334319D01*
X330921Y85548D02*X334319D01*
X289516Y48079D02*Y44681D01*
X291485Y48079D02*Y44681D01*
X293453Y48079D02*Y44681D01*
X285579Y48079D02*Y44681D01*
X287548Y48079D02*Y44681D01*
X283611Y48079D02*Y44681D01*
X295422Y48079D02*Y44681D01*
X297390Y48079D02*Y44681D01*
X299359Y48079D02*Y44681D01*
X301327Y48079D02*Y44681D01*
X303296Y48079D02*Y44681D01*
X305264Y48079D02*Y44681D01*
X307233Y48079D02*Y44681D01*
X309201Y48079D02*Y44681D01*
X311170Y48079D02*Y44681D01*
X313138Y48079D02*Y44681D01*
X315107Y48079D02*Y44681D01*
X317075Y48079D02*Y44681D01*
X319044Y48079D02*Y44681D01*
X321012Y48079D02*Y44681D01*
X322981Y48079D02*Y44681D01*
X324949Y48079D02*Y44681D01*
G54D35*X356500Y95000D03*
G54D36*X359500Y88500D03*
X353500Y91000D03*
G54D35*X363000Y100000D03*
X328000Y86500D03*
X337000Y83500D03*
X328000Y93500D03*
X337000Y95500D03*
X323000Y93500D03*
X323500Y80000D03*
X342500Y112500D03*
X345500Y99500D03*
X337500Y104500D03*
X327000Y110500D03*
X322000Y88500D03*
X328000Y64000D03*
X337000Y62000D03*
X343500Y74500D03*
X353000Y69500D03*
X343500Y65500D03*
X367500Y41000D03*
X374500Y54500D03*
G54D36*X306500Y55500D03*
G54D35*X363500Y48500D03*
Y53500D03*
X360500Y58000D03*
X378500Y67500D03*
Y33000D03*
X319000Y36000D03*
X340500Y32000D03*
X328500Y106500D03*
X319000Y107500D03*
X301000Y98500D03*
X307000D03*
Y111000D03*
X310000Y88500D03*
X161000Y150500D03*
X192000D03*
X167500Y146500D03*
X183000Y142000D03*
X164500Y98000D03*
X159500D03*
X166500Y123500D03*
X170000Y116500D03*
X175500Y124500D03*
X186000Y97000D03*
X193000Y117500D03*
Y123500D03*
X190500Y112500D03*
X184000Y104500D03*
X244500Y137500D03*
X230500Y145000D03*
Y140500D03*
Y136000D03*
X199000Y148000D03*
X215000D03*
X261500Y150500D03*
X266500Y146500D03*
G54D36*X257500Y149000D03*
X260500Y146000D03*
G54D35*X209000Y144000D03*
X213500D03*
X203500D03*
X199000D03*
X230500Y131500D03*
X226000Y126500D03*
X223500Y97500D03*
X243500Y101500D03*
Y108500D03*
Y113000D03*
X225000Y104000D03*
X230500Y114500D03*
X235000Y115500D03*
X198000Y116000D03*
Y110500D03*
Y105000D03*
X239500Y115500D03*
X240500Y121500D03*
X254500Y117500D03*
G54D36*X264000Y117000D03*
X265000Y120500D03*
G54D35*X243500Y97000D03*
X230500Y127000D03*
X260500Y126000D03*
X256500Y135500D03*
X265000Y142500D03*
G54D36*X266500Y139000D03*
G54D35*X285500Y126000D03*
X287500Y135000D03*
X292000Y135500D03*
X298000Y136500D03*
X290000Y139500D03*
X291500Y126000D03*
X314000Y135000D03*
X309000D03*
X304500Y139500D03*
X316000Y142500D03*
X306500Y124000D03*
X312000Y124500D03*
X294000Y122000D03*
X311500Y119500D03*
X316000Y115000D03*
G54D36*X306500Y120000D03*
G54D35*X342500Y117500D03*
X343000Y177000D03*
X349000D03*
X328000Y115000D03*
X332000Y140000D03*
X335500Y125500D03*
X365000Y200500D03*
X380000Y146500D03*
X375500D03*
X374000Y126500D03*
X353500Y160000D03*
Y155000D03*
X309000Y195000D03*
X310500Y182500D03*
X314500Y195000D03*
X307500Y185500D03*
X310500Y178000D03*
X304000Y188500D03*
X301000Y192000D03*
X298000Y189000D03*
X318500Y179500D03*
X294500Y202000D03*
X295000Y193000D03*
X324000Y152000D03*
Y135500D03*
X319500Y154500D03*
X286500Y155500D03*
X282500Y152000D03*
X282000Y145500D03*
X289000Y171000D03*
X296500Y170500D03*
X311000Y160000D03*
X294500Y155000D03*
X311000Y172000D03*
X303500Y171000D03*
X312500Y167000D03*
X321000Y144000D03*
X315000Y162000D03*
X319500D03*
X161000Y80000D03*
X186500Y78000D03*
X206500Y30000D03*
X204500Y38500D03*
G54D36*X202000Y31000D03*
G54D37*X185000Y35500D03*
G54D35*X204000Y64000D03*
X191000Y75500D03*
X194000Y60000D03*
Y72000D03*
X167500Y76000D03*
G54D37*X166500Y52500D03*
X152500Y77000D03*
G54D35*X156500Y86000D03*
X198500Y33000D03*
Y48000D03*
X206500Y43000D03*
X199000Y55000D03*
X187000D03*
X241000Y42000D03*
X237000Y31500D03*
X257000Y33000D03*
X237500Y56000D03*
X243000Y66500D03*
X238000Y62000D03*
X250500Y50500D03*
X253500Y65500D03*
Y89000D03*
X256500Y51500D03*
G54D36*X257000Y84000D03*
G54D35*X230500Y56500D03*
X232500Y61500D03*
X212500Y56000D03*
X253000Y84500D03*
X232000Y80000D03*
X229000Y84000D03*
X243500Y80000D03*
X236500Y80500D03*
X216500Y63000D03*
X205500Y85500D03*
X203000Y77000D03*
X228500Y91000D03*
X307000Y51500D03*
X305000Y41000D03*
X304500Y36000D03*
X289000Y53000D03*
X291000Y36500D03*
X289500Y41500D03*
G54D36*X286500Y58000D03*
X292000Y57000D03*
G54D35*X305500Y30000D03*
X253000Y54000D03*
X253500Y80000D03*
X244000Y56000D03*
X253500Y70000D03*
X258000Y56000D03*
X261000Y59000D03*
X264000Y63000D03*
X259000Y41500D03*
G54D36*X259500Y79500D03*
X266000D03*
X269500Y56000D03*
X271500Y66500D03*
Y63000D03*
G54D35*X273500Y114500D03*
X266500Y104500D03*
X273000Y110000D03*
Y105500D03*
X253000Y102500D03*
G54D36*Y107000D03*
G54D35*X279500Y115500D03*
Y109500D03*
G54D36*X273000Y101500D03*
G54D35*X280000Y97500D03*
G54D36*Y93000D03*
X273000Y94500D03*
X262000Y83000D03*
X263000Y80000D03*
X262500Y90000D03*
X289500Y91000D03*
X295000Y89000D03*
X287000Y94000D03*
X283500Y93000D03*
X286500Y89500D03*
X283000D03*
X278000Y79500D03*
X287000Y81000D03*
X291500Y78000D03*
X292500Y75000D03*
G54D35*X281500Y51000D03*
X279500Y42000D03*
G54D36*X275500Y33000D03*
G54D35*X284500Y41500D03*
G54D36*X274500Y50500D03*
G54D35*X301000Y53000D03*
G54D36*X300000Y58000D03*
X295000Y57500D03*
Y72500D03*
X297500Y70000D03*
X278500Y63000D03*
X285500Y70500D03*
X281000Y65500D03*
X276000Y58000D03*
X278000Y55500D03*
X283000Y54500D03*
G54D35*X164500Y168500D03*
X159500D03*
X166500Y194000D03*
X173000Y229500D03*
X168000D03*
X169500Y249000D03*
X156500Y230000D03*
X170000Y187000D03*
X175500Y195000D03*
X186500Y167500D03*
X161000Y220500D03*
X156500Y156500D03*
X271500Y256500D03*
X256500D03*
Y250000D03*
X261500Y246000D03*
X254000Y239000D03*
X271500Y250000D03*
X266000Y246000D03*
X244500Y241500D03*
X240000Y239000D03*
X249500Y241500D03*
X213000Y241315D03*
X218000D03*
X222500Y239000D03*
X229000Y246000D03*
X233500D03*
X224000Y250000D03*
X239000D03*
Y256500D03*
X224000D03*
X206000Y210000D03*
X234000Y171000D03*
X237500Y180000D03*
X233000D03*
Y175500D03*
X241000Y177500D03*
X244000Y160500D03*
X248500D03*
X253000D03*
X199500Y173500D03*
X204000Y172500D03*
X202000Y164500D03*
X197500D03*
X208500Y173500D03*
X213000D03*
Y167500D03*
X255000Y180000D03*
X260000Y176500D03*
X256000D03*
X275000Y206500D03*
G54D36*X267000Y186000D03*
Y189000D03*
X262500Y186000D03*
Y189000D03*
X258000Y186000D03*
Y189000D03*
G54D35*X259000Y160500D03*
X263500D03*
X280000D03*
X282500Y168500D03*
Y164000D03*
X281500Y156500D03*
X276500Y151500D03*
X271500Y151000D03*
X270500Y155500D03*
X376500Y241000D03*
X369500Y235500D03*
X373500D03*
X365000Y219500D03*
Y210000D03*
X377000Y237000D03*
X376500Y253000D03*
Y249000D03*
X373500Y255500D03*
X352500Y254500D03*
X340500D03*
X324500Y255000D03*
X374000Y246500D03*
X342000Y228000D03*
X339500Y240000D03*
X336500Y236500D03*
X347000Y232500D03*
X351000D03*
X352500Y229000D03*
X332000Y227000D03*
Y231500D03*
X327500D03*
Y227000D03*
Y258500D03*
X297500Y245500D03*
Y250500D03*
X336500Y243500D03*
X339500Y247000D03*
X327500Y251500D03*
X324500Y248000D03*
X287500D03*
X309500Y252500D03*
G54D38*G54D39*G54D38*G54D39*G54D38*G54D39*G54D38*G54D39*G54D38*G54D39*G54D38*G54D39*G54D38*G54D39*G54D13*G54D38*G54D13*G54D38*G54D39*G54D38*G54D39*G54D38*G54D39*G54D38*G54D39*G54D38*G54D39*G54D38*G54D39*G54D38*G54D39*G54D38*G54D39*G54D38*G54D39*G54D38*G54D39*G54D38*G54D40*G54D41*G54D40*G54D41*G54D40*G54D41*G54D40*G54D41*G54D40*G54D41*G54D40*G54D41*G54D40*G54D41*G54D40*G54D41*G54D40*G54D41*G54D42*G54D43*G54D40*G54D41*G54D40*G54D41*G54D40*G54D41*G54D40*G54D41*G54D40*G54D41*M02*
