M48
INCH
T42C0.020
T41C0.129
T40C0.044
T39C0.028
%
T42
X004100Y005600
X004550Y005600
X005474Y006826
X005730Y008110
X005850Y004400
X006250Y004250
X006300Y005600
X006750Y008100
X006950Y005700
X007250Y007650
X007600Y005600
X008900Y007850
T39
X007325Y010750
X008113Y010750
X008900Y010750
X009687Y010750
X010475Y010750
T40
X011065Y011419
X011065Y010081
T41
X005000Y010600
X009850Y005150
M30
