G04 start of page 2 for group 0 idx 0 *
G04 Title: encoder, top *
G04 Creator: pcb 20140316 *
G04 CreationDate: Mon 15 Jan 2018 02:12:54 AM GMT UTC *
G04 For: brian *
G04 Format: Gerber/RS-274X *
G04 PCB-Dimensions (mil): 1250.00 1300.00 *
G04 PCB-Coordinate-Origin: lower left *
%MOIN*%
%FSLAX25Y25*%
%LNTOP*%
%ADD23C,0.1285*%
%ADD22C,0.0437*%
%ADD21C,0.0279*%
%ADD20C,0.0200*%
%ADD19C,0.0360*%
%ADD18R,0.0165X0.0165*%
%ADD17R,0.0295X0.0295*%
%ADD16C,0.1800*%
%ADD15C,0.0597*%
%ADD14C,0.0480*%
%ADD13C,0.0060*%
%ADD12C,0.0250*%
%ADD11C,0.0100*%
G54D11*X74441Y85500D02*X68059D01*
X62941D02*Y81559D01*
X65000Y79500D01*
Y76000D01*
X67531Y75929D02*Y80969D01*
X67500Y81000D01*
G54D12*X49000Y89500D02*X78500D01*
X79559Y88441D01*
X82748Y85500D02*X79559D01*
G54D11*X72500Y76500D02*X71929Y75929D01*
X70050D01*
G54D12*X79559Y67059D02*X69500Y57000D01*
G54D11*X67531Y55031D02*X69500Y57000D01*
X57294Y75929D02*X57300Y75934D01*
Y81100D01*
X62413Y50141D02*Y42587D01*
X62500Y42500D01*
X59854Y45354D02*X58500Y44000D01*
X59854Y50141D02*Y45354D01*
X41940Y50141D02*Y55060D01*
X41000Y56000D01*
X44499Y50141D02*Y54999D01*
X45500Y56000D01*
X64972Y50141D02*Y54028D01*
X63000Y56000D01*
X67531Y50141D02*Y55031D01*
X70050Y50141D02*X70141D01*
X76000Y56000D01*
X100441Y74000D02*X95059D01*
X89941D02*X89000Y74941D01*
Y78500D01*
G54D12*X104748Y107500D02*X82748Y85500D01*
X104748Y74811D02*Y107500D01*
X105559Y74000D02*X104748Y74811D01*
X79559Y88441D02*Y67059D01*
G54D11*X47058Y79942D02*X45500Y81500D01*
X45441D01*
X41441Y85500D01*
G54D12*X46559D02*Y87059D01*
X49000Y89500D01*
X57559Y85500D02*X57500Y85559D01*
Y89500D01*
G54D11*X47058Y75929D02*Y79942D01*
X49617Y75929D02*Y82676D01*
X52441Y85500D01*
X54735Y75929D02*Y68265D01*
G54D13*X80610Y42500D02*X80240Y42870D01*
Y43980D02*Y42870D01*
Y43980D02*X80610Y44350D01*
X81350D01*
X83200Y42500D02*X81350Y44350D01*
X83200D02*Y42500D01*
X82830Y45238D02*X83200Y45608D01*
X80610Y45238D02*X82830D01*
X80610D02*X80240Y45608D01*
Y46348D02*Y45608D01*
Y46348D02*X80610Y46718D01*
X82830D01*
X83200Y46348D02*X82830Y46718D01*
X83200Y46348D02*Y45608D01*
X82460Y45238D02*X80980Y46718D01*
X80832Y47606D02*X80240Y48198D01*
X83200D01*
Y48716D02*Y47606D01*
X82830Y49604D02*X83200Y49974D01*
X82238Y49604D02*X82830D01*
X82238D02*X81720Y50122D01*
Y50566D02*Y50122D01*
Y50566D02*X82238Y51084D01*
X82830D01*
X83200Y50714D02*X82830Y51084D01*
X83200Y50714D02*Y49974D01*
X81202Y49604D02*X81720Y50122D01*
X80610Y49604D02*X81202D01*
X80610D02*X80240Y49974D01*
Y50714D02*Y49974D01*
Y50714D02*X80610Y51084D01*
X81202D01*
X81720Y50566D02*X81202Y51084D01*
X82830Y51972D02*X83200Y52342D01*
X80610Y51972D02*X82830D01*
X80610D02*X80240Y52342D01*
Y53082D02*Y52342D01*
Y53082D02*X80610Y53452D01*
X82830D01*
X83200Y53082D02*X82830Y53452D01*
X83200Y53082D02*Y52342D01*
X82460Y51972D02*X80980Y53452D01*
X80832Y54340D02*X80240Y54932D01*
X83200D01*
Y55450D02*Y54340D01*
X80832Y56338D02*X80240Y56930D01*
X83200D01*
Y57448D02*Y56338D01*
X82090Y58336D02*X80240Y59816D01*
X82090Y60186D02*Y58336D01*
X80240Y59816D02*X83200D01*
G54D14*X73252Y107500D03*
X81126D03*
X89000D03*
X96874D03*
X104748D03*
G54D15*X110654Y114193D03*
G54D16*X50000Y106000D03*
G54D15*X110654Y100807D03*
G54D16*X98500Y51500D03*
G54D17*X52441Y85992D02*Y85008D01*
X57559Y85992D02*Y85008D01*
X41441Y85992D02*Y85008D01*
X46559Y85992D02*Y85008D01*
G54D18*X67531Y78389D02*Y73468D01*
X64972Y78389D02*Y73468D01*
X62413Y78389D02*Y73468D01*
X59854Y78389D02*Y73468D01*
X57294Y78389D02*Y73468D01*
X54735Y78389D02*Y73468D01*
X52176Y78389D02*Y73468D01*
X49617Y78389D02*Y73468D01*
X47058Y78389D02*Y73468D01*
X44499Y78389D02*Y73468D01*
X41940Y78389D02*Y73468D01*
X39381Y78389D02*Y73468D01*
X36822Y78389D02*Y73468D01*
Y52602D02*Y47681D01*
X39381Y52602D02*Y47681D01*
X41940Y52602D02*Y47681D01*
X44499Y52602D02*Y47681D01*
X47058Y52602D02*Y47681D01*
X49617Y52602D02*Y47681D01*
X52176Y52602D02*Y47681D01*
X54735Y52602D02*Y47681D01*
X57294Y52602D02*Y47681D01*
X59854Y52602D02*Y47681D01*
X62413Y52602D02*Y47681D01*
X64972Y52602D02*Y47681D01*
X67531Y52602D02*Y47681D01*
X70050Y52602D02*Y47681D01*
G54D17*X100441Y74492D02*Y73508D01*
X105559Y74492D02*Y73508D01*
X95059Y74492D02*Y73508D01*
X89941Y74492D02*Y73508D01*
X74441Y85992D02*Y85008D01*
X68059Y85992D02*Y85008D01*
X62941Y85992D02*Y85008D01*
X79559Y85992D02*Y85008D01*
G54D18*X70050Y78389D02*Y73468D01*
G54D19*X69500Y57000D03*
X62500Y42500D03*
X58500Y44000D03*
X76000Y56000D03*
X63000D03*
X57300Y81100D03*
X54735Y68265D03*
X45500Y56000D03*
X41000D03*
X89000Y78500D03*
X67500Y81000D03*
X72500Y76500D03*
G54D20*G54D21*G54D22*G54D23*G54D22*G54D23*M02*
