G04 start of page 3 for group 1 idx 1 *
G04 Title: encoder, bottom *
G04 Creator: pcb 20140316 *
G04 CreationDate: Mon 15 Jan 2018 02:12:54 AM GMT UTC *
G04 For: brian *
G04 Format: Gerber/RS-274X *
G04 PCB-Dimensions (mil): 1250.00 1300.00 *
G04 PCB-Coordinate-Origin: lower left *
%MOIN*%
%FSLAX25Y25*%
%LNBOTTOM*%
%ADD37C,0.1285*%
%ADD36C,0.0437*%
%ADD35C,0.0279*%
%ADD34C,0.0200*%
%ADD33C,0.0360*%
%ADD32R,0.0274X0.0274*%
%ADD31R,0.0512X0.0512*%
%ADD30R,0.0295X0.0295*%
%ADD29C,0.1800*%
%ADD28C,0.0597*%
%ADD27C,0.0480*%
%ADD26C,0.0060*%
%ADD25C,0.0250*%
%ADD24C,0.0100*%
G54D24*X104748Y107500D02*X104500Y107252D01*
X81126Y107500D02*X81000Y107374D01*
X58500Y44000D02*X58000Y43500D01*
X55059D01*
X62059Y38500D02*X62500Y38941D01*
Y42500D01*
G54D25*X76000Y46441D02*X61559D01*
X60000Y48000D01*
X51000D01*
X49941Y46941D01*
Y41559D01*
X53000Y38500D01*
X56941D01*
X76059Y46441D02*X79941D01*
X83000Y49500D01*
G54D24*X57300Y81100D02*Y91548D01*
X64000Y86000D02*Y77000D01*
X61000Y87374D02*Y80000D01*
G54D25*Y60457D02*Y58000D01*
X63000Y56000D01*
Y51559D02*Y56000D01*
G54D24*X61000Y80000D02*X57500Y76500D01*
X53500D01*
X64000Y77000D02*X59500Y72500D01*
X52500D01*
X49500Y69500D01*
Y60000D01*
X45500Y56000D01*
X53500Y76500D02*X41000Y64000D01*
Y56000D01*
G54D25*X83000Y49500D02*Y79941D01*
X61000Y67543D02*X82957D01*
G54D24*X54735Y68265D02*X55500Y67500D01*
X61000D01*
G54D25*X82957Y67543D02*X83000Y67500D01*
X78000Y60457D02*Y58000D01*
X76000Y56000D01*
Y51559D02*Y56000D01*
X69500Y61457D02*Y51559D01*
G54D24*X57300Y91548D02*X73252Y107500D01*
X67500Y89500D02*X64000Y86000D01*
X81126Y107500D02*X61000Y87374D01*
G54D25*X89000Y78500D02*X87228Y80272D01*
X72500Y79941D02*X86941D01*
X87250Y80250D01*
X72000Y80441D02*X72500Y79941D01*
G54D24*X67500Y81000D02*Y83500D01*
X69559Y85559D01*
X72000D01*
X71000Y89500D02*X67500D01*
X89000Y107500D02*X71000Y89500D01*
G54D25*X96874Y107500D02*Y89917D01*
X87228Y80272D01*
X72500Y76500D02*Y79941D01*
G54D26*X91000Y66110D02*X91370Y65740D01*
X92480D01*
X92850Y66110D01*
Y66850D01*
X91000Y68700D02*X92850Y66850D01*
X91000Y68700D02*X92850D01*
X93738Y68330D02*X94108Y68700D01*
X93738Y66110D02*Y68330D01*
Y66110D02*X94108Y65740D01*
X94848D01*
X95218Y66110D01*
Y68330D01*
X94848Y68700D02*X95218Y68330D01*
X94108Y68700D02*X94848D01*
X93738Y67960D02*X95218Y66480D01*
X96106Y66332D02*X96698Y65740D01*
Y68700D01*
X96106D02*X97216D01*
X98104Y68330D02*X98474Y68700D01*
X98104Y67738D02*Y68330D01*
Y67738D02*X98622Y67220D01*
X99066D01*
X99584Y67738D01*
Y68330D01*
X99214Y68700D02*X99584Y68330D01*
X98474Y68700D02*X99214D01*
X98104Y66702D02*X98622Y67220D01*
X98104Y66110D02*Y66702D01*
Y66110D02*X98474Y65740D01*
X99214D01*
X99584Y66110D01*
Y66702D01*
X99066Y67220D02*X99584Y66702D01*
X100472Y68330D02*X100842Y68700D01*
X100472Y66110D02*Y68330D01*
Y66110D02*X100842Y65740D01*
X101582D01*
X101952Y66110D01*
Y68330D01*
X101582Y68700D02*X101952Y68330D01*
X100842Y68700D02*X101582D01*
X100472Y67960D02*X101952Y66480D01*
X102840Y66332D02*X103432Y65740D01*
Y68700D01*
X102840D02*X103950D01*
X104838Y66332D02*X105430Y65740D01*
Y68700D01*
X104838D02*X105948D01*
X106836Y67590D02*X108316Y65740D01*
X106836Y67590D02*X108686D01*
X108316Y65740D02*Y68700D01*
G54D27*X73252Y107500D03*
X81126D03*
X89000D03*
X96874D03*
X104748D03*
G54D28*X110654Y114193D03*
G54D29*X50000Y106000D03*
G54D28*X110654Y100807D03*
G54D29*X98500Y51500D03*
G54D30*X75508Y51559D02*X76492D01*
G54D31*X77607Y60457D02*X78393D01*
X77607Y67543D02*X78393D01*
X69107Y61457D02*X69893D01*
X69107Y68543D02*X69893D01*
G54D30*X69008Y51559D02*X69992D01*
G54D31*X60607Y60457D02*X61393D01*
X60607Y67543D02*X61393D01*
G54D30*X75508Y46441D02*X76492D01*
X62059Y38992D02*Y38008D01*
X56941Y38992D02*Y38008D01*
G54D32*X69008Y46441D02*X69992D01*
G54D30*X62508D02*X63492D01*
X55059Y43992D02*Y43008D01*
X49941Y43992D02*Y43008D01*
X62508Y51559D02*X63492D01*
X71508Y85559D02*X72492D01*
X71508Y80441D02*X72492D01*
G54D33*X69500Y57000D03*
X62500Y42500D03*
X58500Y44000D03*
X76000Y56000D03*
X63000D03*
X57300Y81100D03*
X54735Y68265D03*
X45500Y56000D03*
X41000D03*
X89000Y78500D03*
X67500Y81000D03*
X72500Y76500D03*
G54D34*G54D35*G54D36*G54D37*G54D36*G54D37*M02*
