%TF.GenerationSoftware,KiCad,Pcbnew,6.0.9-8da3e8f707~117~ubuntu20.04.1*%
%TF.CreationDate,2022-12-10T16:21:19-08:00*%
%TF.ProjectId,PI-Power-Board,50492d50-6f77-4657-922d-426f6172642e,rev?*%
%TF.SameCoordinates,Original*%
%TF.FileFunction,Legend,Bot*%
%TF.FilePolarity,Positive*%
%FSLAX46Y46*%
G04 Gerber Fmt 4.6, Leading zero omitted, Abs format (unit mm)*
G04 Created by KiCad (PCBNEW 6.0.9-8da3e8f707~117~ubuntu20.04.1) date 2022-12-10 16:21:19*
%MOMM*%
%LPD*%
G01*
G04 APERTURE LIST*
%ADD10C,0.150000*%
%ADD11C,0.120000*%
G04 APERTURE END LIST*
D10*
%TO.C,U9*%
X69175380Y-98425095D02*
X69984904Y-98425095D01*
X70080142Y-98472714D01*
X70127761Y-98520333D01*
X70175380Y-98615571D01*
X70175380Y-98806047D01*
X70127761Y-98901285D01*
X70080142Y-98948904D01*
X69984904Y-98996523D01*
X69175380Y-98996523D01*
X70175380Y-99520333D02*
X70175380Y-99710809D01*
X70127761Y-99806047D01*
X70080142Y-99853666D01*
X69937285Y-99948904D01*
X69746809Y-99996523D01*
X69365857Y-99996523D01*
X69270619Y-99948904D01*
X69223000Y-99901285D01*
X69175380Y-99806047D01*
X69175380Y-99615571D01*
X69223000Y-99520333D01*
X69270619Y-99472714D01*
X69365857Y-99425095D01*
X69603952Y-99425095D01*
X69699190Y-99472714D01*
X69746809Y-99520333D01*
X69794428Y-99615571D01*
X69794428Y-99806047D01*
X69746809Y-99901285D01*
X69699190Y-99948904D01*
X69603952Y-99996523D01*
%TO.C,C32*%
X107418142Y-109593142D02*
X107465761Y-109545523D01*
X107513380Y-109402666D01*
X107513380Y-109307428D01*
X107465761Y-109164571D01*
X107370523Y-109069333D01*
X107275285Y-109021714D01*
X107084809Y-108974095D01*
X106941952Y-108974095D01*
X106751476Y-109021714D01*
X106656238Y-109069333D01*
X106561000Y-109164571D01*
X106513380Y-109307428D01*
X106513380Y-109402666D01*
X106561000Y-109545523D01*
X106608619Y-109593142D01*
X106513380Y-109926476D02*
X106513380Y-110545523D01*
X106894333Y-110212190D01*
X106894333Y-110355047D01*
X106941952Y-110450285D01*
X106989571Y-110497904D01*
X107084809Y-110545523D01*
X107322904Y-110545523D01*
X107418142Y-110497904D01*
X107465761Y-110450285D01*
X107513380Y-110355047D01*
X107513380Y-110069333D01*
X107465761Y-109974095D01*
X107418142Y-109926476D01*
X106608619Y-110926476D02*
X106561000Y-110974095D01*
X106513380Y-111069333D01*
X106513380Y-111307428D01*
X106561000Y-111402666D01*
X106608619Y-111450285D01*
X106703857Y-111497904D01*
X106799095Y-111497904D01*
X106941952Y-111450285D01*
X107513380Y-110878857D01*
X107513380Y-111497904D01*
%TO.C,C23*%
X93168742Y-90390742D02*
X93216361Y-90343123D01*
X93263980Y-90200266D01*
X93263980Y-90105028D01*
X93216361Y-89962171D01*
X93121123Y-89866933D01*
X93025885Y-89819314D01*
X92835409Y-89771695D01*
X92692552Y-89771695D01*
X92502076Y-89819314D01*
X92406838Y-89866933D01*
X92311600Y-89962171D01*
X92263980Y-90105028D01*
X92263980Y-90200266D01*
X92311600Y-90343123D01*
X92359219Y-90390742D01*
X92359219Y-90771695D02*
X92311600Y-90819314D01*
X92263980Y-90914552D01*
X92263980Y-91152647D01*
X92311600Y-91247885D01*
X92359219Y-91295504D01*
X92454457Y-91343123D01*
X92549695Y-91343123D01*
X92692552Y-91295504D01*
X93263980Y-90724076D01*
X93263980Y-91343123D01*
X92263980Y-91676457D02*
X92263980Y-92295504D01*
X92644933Y-91962171D01*
X92644933Y-92105028D01*
X92692552Y-92200266D01*
X92740171Y-92247885D01*
X92835409Y-92295504D01*
X93073504Y-92295504D01*
X93168742Y-92247885D01*
X93216361Y-92200266D01*
X93263980Y-92105028D01*
X93263980Y-91819314D01*
X93216361Y-91724076D01*
X93168742Y-91676457D01*
%TO.C,C38*%
X111310657Y-121464342D02*
X111358276Y-121511961D01*
X111501133Y-121559580D01*
X111596371Y-121559580D01*
X111739228Y-121511961D01*
X111834466Y-121416723D01*
X111882085Y-121321485D01*
X111929704Y-121131009D01*
X111929704Y-120988152D01*
X111882085Y-120797676D01*
X111834466Y-120702438D01*
X111739228Y-120607200D01*
X111596371Y-120559580D01*
X111501133Y-120559580D01*
X111358276Y-120607200D01*
X111310657Y-120654819D01*
X110977323Y-120559580D02*
X110358276Y-120559580D01*
X110691609Y-120940533D01*
X110548752Y-120940533D01*
X110453514Y-120988152D01*
X110405895Y-121035771D01*
X110358276Y-121131009D01*
X110358276Y-121369104D01*
X110405895Y-121464342D01*
X110453514Y-121511961D01*
X110548752Y-121559580D01*
X110834466Y-121559580D01*
X110929704Y-121511961D01*
X110977323Y-121464342D01*
X109786847Y-120988152D02*
X109882085Y-120940533D01*
X109929704Y-120892914D01*
X109977323Y-120797676D01*
X109977323Y-120750057D01*
X109929704Y-120654819D01*
X109882085Y-120607200D01*
X109786847Y-120559580D01*
X109596371Y-120559580D01*
X109501133Y-120607200D01*
X109453514Y-120654819D01*
X109405895Y-120750057D01*
X109405895Y-120797676D01*
X109453514Y-120892914D01*
X109501133Y-120940533D01*
X109596371Y-120988152D01*
X109786847Y-120988152D01*
X109882085Y-121035771D01*
X109929704Y-121083390D01*
X109977323Y-121178628D01*
X109977323Y-121369104D01*
X109929704Y-121464342D01*
X109882085Y-121511961D01*
X109786847Y-121559580D01*
X109596371Y-121559580D01*
X109501133Y-121511961D01*
X109453514Y-121464342D01*
X109405895Y-121369104D01*
X109405895Y-121178628D01*
X109453514Y-121083390D01*
X109501133Y-121035771D01*
X109596371Y-120988152D01*
%TO.C,D7*%
X117451095Y-103449380D02*
X117451095Y-102449380D01*
X117213000Y-102449380D01*
X117070142Y-102497000D01*
X116974904Y-102592238D01*
X116927285Y-102687476D01*
X116879666Y-102877952D01*
X116879666Y-103020809D01*
X116927285Y-103211285D01*
X116974904Y-103306523D01*
X117070142Y-103401761D01*
X117213000Y-103449380D01*
X117451095Y-103449380D01*
X116546333Y-102449380D02*
X115879666Y-102449380D01*
X116308238Y-103449380D01*
%TO.C,C31*%
X91041457Y-101169742D02*
X91089076Y-101217361D01*
X91231933Y-101264980D01*
X91327171Y-101264980D01*
X91470028Y-101217361D01*
X91565266Y-101122123D01*
X91612885Y-101026885D01*
X91660504Y-100836409D01*
X91660504Y-100693552D01*
X91612885Y-100503076D01*
X91565266Y-100407838D01*
X91470028Y-100312600D01*
X91327171Y-100264980D01*
X91231933Y-100264980D01*
X91089076Y-100312600D01*
X91041457Y-100360219D01*
X90708123Y-100264980D02*
X90089076Y-100264980D01*
X90422409Y-100645933D01*
X90279552Y-100645933D01*
X90184314Y-100693552D01*
X90136695Y-100741171D01*
X90089076Y-100836409D01*
X90089076Y-101074504D01*
X90136695Y-101169742D01*
X90184314Y-101217361D01*
X90279552Y-101264980D01*
X90565266Y-101264980D01*
X90660504Y-101217361D01*
X90708123Y-101169742D01*
X89136695Y-101264980D02*
X89708123Y-101264980D01*
X89422409Y-101264980D02*
X89422409Y-100264980D01*
X89517647Y-100407838D01*
X89612885Y-100503076D01*
X89708123Y-100550695D01*
%TO.C,C33*%
X103989142Y-109593142D02*
X104036761Y-109545523D01*
X104084380Y-109402666D01*
X104084380Y-109307428D01*
X104036761Y-109164571D01*
X103941523Y-109069333D01*
X103846285Y-109021714D01*
X103655809Y-108974095D01*
X103512952Y-108974095D01*
X103322476Y-109021714D01*
X103227238Y-109069333D01*
X103132000Y-109164571D01*
X103084380Y-109307428D01*
X103084380Y-109402666D01*
X103132000Y-109545523D01*
X103179619Y-109593142D01*
X103084380Y-109926476D02*
X103084380Y-110545523D01*
X103465333Y-110212190D01*
X103465333Y-110355047D01*
X103512952Y-110450285D01*
X103560571Y-110497904D01*
X103655809Y-110545523D01*
X103893904Y-110545523D01*
X103989142Y-110497904D01*
X104036761Y-110450285D01*
X104084380Y-110355047D01*
X104084380Y-110069333D01*
X104036761Y-109974095D01*
X103989142Y-109926476D01*
X103084380Y-110878857D02*
X103084380Y-111497904D01*
X103465333Y-111164571D01*
X103465333Y-111307428D01*
X103512952Y-111402666D01*
X103560571Y-111450285D01*
X103655809Y-111497904D01*
X103893904Y-111497904D01*
X103989142Y-111450285D01*
X104036761Y-111402666D01*
X104084380Y-111307428D01*
X104084380Y-111021714D01*
X104036761Y-110926476D01*
X103989142Y-110878857D01*
%TO.C,R18*%
X77381380Y-80002142D02*
X76905190Y-79668809D01*
X77381380Y-79430714D02*
X76381380Y-79430714D01*
X76381380Y-79811666D01*
X76429000Y-79906904D01*
X76476619Y-79954523D01*
X76571857Y-80002142D01*
X76714714Y-80002142D01*
X76809952Y-79954523D01*
X76857571Y-79906904D01*
X76905190Y-79811666D01*
X76905190Y-79430714D01*
X77381380Y-80954523D02*
X77381380Y-80383095D01*
X77381380Y-80668809D02*
X76381380Y-80668809D01*
X76524238Y-80573571D01*
X76619476Y-80478333D01*
X76667095Y-80383095D01*
X76809952Y-81525952D02*
X76762333Y-81430714D01*
X76714714Y-81383095D01*
X76619476Y-81335476D01*
X76571857Y-81335476D01*
X76476619Y-81383095D01*
X76429000Y-81430714D01*
X76381380Y-81525952D01*
X76381380Y-81716428D01*
X76429000Y-81811666D01*
X76476619Y-81859285D01*
X76571857Y-81906904D01*
X76619476Y-81906904D01*
X76714714Y-81859285D01*
X76762333Y-81811666D01*
X76809952Y-81716428D01*
X76809952Y-81525952D01*
X76857571Y-81430714D01*
X76905190Y-81383095D01*
X77000428Y-81335476D01*
X77190904Y-81335476D01*
X77286142Y-81383095D01*
X77333761Y-81430714D01*
X77381380Y-81525952D01*
X77381380Y-81716428D01*
X77333761Y-81811666D01*
X77286142Y-81859285D01*
X77190904Y-81906904D01*
X77000428Y-81906904D01*
X76905190Y-81859285D01*
X76857571Y-81811666D01*
X76809952Y-81716428D01*
%TO.C,R22*%
X96083380Y-93591142D02*
X95607190Y-93257809D01*
X96083380Y-93019714D02*
X95083380Y-93019714D01*
X95083380Y-93400666D01*
X95131000Y-93495904D01*
X95178619Y-93543523D01*
X95273857Y-93591142D01*
X95416714Y-93591142D01*
X95511952Y-93543523D01*
X95559571Y-93495904D01*
X95607190Y-93400666D01*
X95607190Y-93019714D01*
X95178619Y-93972095D02*
X95131000Y-94019714D01*
X95083380Y-94114952D01*
X95083380Y-94353047D01*
X95131000Y-94448285D01*
X95178619Y-94495904D01*
X95273857Y-94543523D01*
X95369095Y-94543523D01*
X95511952Y-94495904D01*
X96083380Y-93924476D01*
X96083380Y-94543523D01*
X95178619Y-94924476D02*
X95131000Y-94972095D01*
X95083380Y-95067333D01*
X95083380Y-95305428D01*
X95131000Y-95400666D01*
X95178619Y-95448285D01*
X95273857Y-95495904D01*
X95369095Y-95495904D01*
X95511952Y-95448285D01*
X96083380Y-94876857D01*
X96083380Y-95495904D01*
%TO.C,C20*%
X82399142Y-87368142D02*
X82446761Y-87320523D01*
X82494380Y-87177666D01*
X82494380Y-87082428D01*
X82446761Y-86939571D01*
X82351523Y-86844333D01*
X82256285Y-86796714D01*
X82065809Y-86749095D01*
X81922952Y-86749095D01*
X81732476Y-86796714D01*
X81637238Y-86844333D01*
X81542000Y-86939571D01*
X81494380Y-87082428D01*
X81494380Y-87177666D01*
X81542000Y-87320523D01*
X81589619Y-87368142D01*
X81589619Y-87749095D02*
X81542000Y-87796714D01*
X81494380Y-87891952D01*
X81494380Y-88130047D01*
X81542000Y-88225285D01*
X81589619Y-88272904D01*
X81684857Y-88320523D01*
X81780095Y-88320523D01*
X81922952Y-88272904D01*
X82494380Y-87701476D01*
X82494380Y-88320523D01*
X81494380Y-88939571D02*
X81494380Y-89034809D01*
X81542000Y-89130047D01*
X81589619Y-89177666D01*
X81684857Y-89225285D01*
X81875333Y-89272904D01*
X82113428Y-89272904D01*
X82303904Y-89225285D01*
X82399142Y-89177666D01*
X82446761Y-89130047D01*
X82494380Y-89034809D01*
X82494380Y-88939571D01*
X82446761Y-88844333D01*
X82399142Y-88796714D01*
X82303904Y-88749095D01*
X82113428Y-88701476D01*
X81875333Y-88701476D01*
X81684857Y-88749095D01*
X81589619Y-88796714D01*
X81542000Y-88844333D01*
X81494380Y-88939571D01*
%TO.C,C17*%
X83669142Y-79748142D02*
X83716761Y-79700523D01*
X83764380Y-79557666D01*
X83764380Y-79462428D01*
X83716761Y-79319571D01*
X83621523Y-79224333D01*
X83526285Y-79176714D01*
X83335809Y-79129095D01*
X83192952Y-79129095D01*
X83002476Y-79176714D01*
X82907238Y-79224333D01*
X82812000Y-79319571D01*
X82764380Y-79462428D01*
X82764380Y-79557666D01*
X82812000Y-79700523D01*
X82859619Y-79748142D01*
X83764380Y-80700523D02*
X83764380Y-80129095D01*
X83764380Y-80414809D02*
X82764380Y-80414809D01*
X82907238Y-80319571D01*
X83002476Y-80224333D01*
X83050095Y-80129095D01*
X82764380Y-81033857D02*
X82764380Y-81700523D01*
X83764380Y-81271952D01*
%TO.C,C26*%
X86621857Y-99544142D02*
X86669476Y-99591761D01*
X86812333Y-99639380D01*
X86907571Y-99639380D01*
X87050428Y-99591761D01*
X87145666Y-99496523D01*
X87193285Y-99401285D01*
X87240904Y-99210809D01*
X87240904Y-99067952D01*
X87193285Y-98877476D01*
X87145666Y-98782238D01*
X87050428Y-98687000D01*
X86907571Y-98639380D01*
X86812333Y-98639380D01*
X86669476Y-98687000D01*
X86621857Y-98734619D01*
X86240904Y-98734619D02*
X86193285Y-98687000D01*
X86098047Y-98639380D01*
X85859952Y-98639380D01*
X85764714Y-98687000D01*
X85717095Y-98734619D01*
X85669476Y-98829857D01*
X85669476Y-98925095D01*
X85717095Y-99067952D01*
X86288523Y-99639380D01*
X85669476Y-99639380D01*
X84812333Y-98639380D02*
X85002809Y-98639380D01*
X85098047Y-98687000D01*
X85145666Y-98734619D01*
X85240904Y-98877476D01*
X85288523Y-99067952D01*
X85288523Y-99448904D01*
X85240904Y-99544142D01*
X85193285Y-99591761D01*
X85098047Y-99639380D01*
X84907571Y-99639380D01*
X84812333Y-99591761D01*
X84764714Y-99544142D01*
X84717095Y-99448904D01*
X84717095Y-99210809D01*
X84764714Y-99115571D01*
X84812333Y-99067952D01*
X84907571Y-99020333D01*
X85098047Y-99020333D01*
X85193285Y-99067952D01*
X85240904Y-99115571D01*
X85288523Y-99210809D01*
%TO.C,C40*%
X88241142Y-78605142D02*
X88288761Y-78557523D01*
X88336380Y-78414666D01*
X88336380Y-78319428D01*
X88288761Y-78176571D01*
X88193523Y-78081333D01*
X88098285Y-78033714D01*
X87907809Y-77986095D01*
X87764952Y-77986095D01*
X87574476Y-78033714D01*
X87479238Y-78081333D01*
X87384000Y-78176571D01*
X87336380Y-78319428D01*
X87336380Y-78414666D01*
X87384000Y-78557523D01*
X87431619Y-78605142D01*
X87669714Y-79462285D02*
X88336380Y-79462285D01*
X87288761Y-79224190D02*
X88003047Y-78986095D01*
X88003047Y-79605142D01*
X87336380Y-80176571D02*
X87336380Y-80271809D01*
X87384000Y-80367047D01*
X87431619Y-80414666D01*
X87526857Y-80462285D01*
X87717333Y-80509904D01*
X87955428Y-80509904D01*
X88145904Y-80462285D01*
X88241142Y-80414666D01*
X88288761Y-80367047D01*
X88336380Y-80271809D01*
X88336380Y-80176571D01*
X88288761Y-80081333D01*
X88241142Y-80033714D01*
X88145904Y-79986095D01*
X87955428Y-79938476D01*
X87717333Y-79938476D01*
X87526857Y-79986095D01*
X87431619Y-80033714D01*
X87384000Y-80081333D01*
X87336380Y-80176571D01*
%TO.C,U8*%
X69048380Y-90043095D02*
X69857904Y-90043095D01*
X69953142Y-90090714D01*
X70000761Y-90138333D01*
X70048380Y-90233571D01*
X70048380Y-90424047D01*
X70000761Y-90519285D01*
X69953142Y-90566904D01*
X69857904Y-90614523D01*
X69048380Y-90614523D01*
X69476952Y-91233571D02*
X69429333Y-91138333D01*
X69381714Y-91090714D01*
X69286476Y-91043095D01*
X69238857Y-91043095D01*
X69143619Y-91090714D01*
X69096000Y-91138333D01*
X69048380Y-91233571D01*
X69048380Y-91424047D01*
X69096000Y-91519285D01*
X69143619Y-91566904D01*
X69238857Y-91614523D01*
X69286476Y-91614523D01*
X69381714Y-91566904D01*
X69429333Y-91519285D01*
X69476952Y-91424047D01*
X69476952Y-91233571D01*
X69524571Y-91138333D01*
X69572190Y-91090714D01*
X69667428Y-91043095D01*
X69857904Y-91043095D01*
X69953142Y-91090714D01*
X70000761Y-91138333D01*
X70048380Y-91233571D01*
X70048380Y-91424047D01*
X70000761Y-91519285D01*
X69953142Y-91566904D01*
X69857904Y-91614523D01*
X69667428Y-91614523D01*
X69572190Y-91566904D01*
X69524571Y-91519285D01*
X69476952Y-91424047D01*
%TO.C,C39*%
X90019142Y-78605142D02*
X90066761Y-78557523D01*
X90114380Y-78414666D01*
X90114380Y-78319428D01*
X90066761Y-78176571D01*
X89971523Y-78081333D01*
X89876285Y-78033714D01*
X89685809Y-77986095D01*
X89542952Y-77986095D01*
X89352476Y-78033714D01*
X89257238Y-78081333D01*
X89162000Y-78176571D01*
X89114380Y-78319428D01*
X89114380Y-78414666D01*
X89162000Y-78557523D01*
X89209619Y-78605142D01*
X89114380Y-78938476D02*
X89114380Y-79557523D01*
X89495333Y-79224190D01*
X89495333Y-79367047D01*
X89542952Y-79462285D01*
X89590571Y-79509904D01*
X89685809Y-79557523D01*
X89923904Y-79557523D01*
X90019142Y-79509904D01*
X90066761Y-79462285D01*
X90114380Y-79367047D01*
X90114380Y-79081333D01*
X90066761Y-78986095D01*
X90019142Y-78938476D01*
X90114380Y-80033714D02*
X90114380Y-80224190D01*
X90066761Y-80319428D01*
X90019142Y-80367047D01*
X89876285Y-80462285D01*
X89685809Y-80509904D01*
X89304857Y-80509904D01*
X89209619Y-80462285D01*
X89162000Y-80414666D01*
X89114380Y-80319428D01*
X89114380Y-80128952D01*
X89162000Y-80033714D01*
X89209619Y-79986095D01*
X89304857Y-79938476D01*
X89542952Y-79938476D01*
X89638190Y-79986095D01*
X89685809Y-80033714D01*
X89733428Y-80128952D01*
X89733428Y-80319428D01*
X89685809Y-80414666D01*
X89638190Y-80462285D01*
X89542952Y-80509904D01*
%TO.C,C35*%
X84964542Y-106545142D02*
X85012161Y-106497523D01*
X85059780Y-106354666D01*
X85059780Y-106259428D01*
X85012161Y-106116571D01*
X84916923Y-106021333D01*
X84821685Y-105973714D01*
X84631209Y-105926095D01*
X84488352Y-105926095D01*
X84297876Y-105973714D01*
X84202638Y-106021333D01*
X84107400Y-106116571D01*
X84059780Y-106259428D01*
X84059780Y-106354666D01*
X84107400Y-106497523D01*
X84155019Y-106545142D01*
X84059780Y-106878476D02*
X84059780Y-107497523D01*
X84440733Y-107164190D01*
X84440733Y-107307047D01*
X84488352Y-107402285D01*
X84535971Y-107449904D01*
X84631209Y-107497523D01*
X84869304Y-107497523D01*
X84964542Y-107449904D01*
X85012161Y-107402285D01*
X85059780Y-107307047D01*
X85059780Y-107021333D01*
X85012161Y-106926095D01*
X84964542Y-106878476D01*
X84059780Y-108402285D02*
X84059780Y-107926095D01*
X84535971Y-107878476D01*
X84488352Y-107926095D01*
X84440733Y-108021333D01*
X84440733Y-108259428D01*
X84488352Y-108354666D01*
X84535971Y-108402285D01*
X84631209Y-108449904D01*
X84869304Y-108449904D01*
X84964542Y-108402285D01*
X85012161Y-108354666D01*
X85059780Y-108259428D01*
X85059780Y-108021333D01*
X85012161Y-107926095D01*
X84964542Y-107878476D01*
%TO.C,C24*%
X96070657Y-97080342D02*
X96118276Y-97127961D01*
X96261133Y-97175580D01*
X96356371Y-97175580D01*
X96499228Y-97127961D01*
X96594466Y-97032723D01*
X96642085Y-96937485D01*
X96689704Y-96747009D01*
X96689704Y-96604152D01*
X96642085Y-96413676D01*
X96594466Y-96318438D01*
X96499228Y-96223200D01*
X96356371Y-96175580D01*
X96261133Y-96175580D01*
X96118276Y-96223200D01*
X96070657Y-96270819D01*
X95689704Y-96270819D02*
X95642085Y-96223200D01*
X95546847Y-96175580D01*
X95308752Y-96175580D01*
X95213514Y-96223200D01*
X95165895Y-96270819D01*
X95118276Y-96366057D01*
X95118276Y-96461295D01*
X95165895Y-96604152D01*
X95737323Y-97175580D01*
X95118276Y-97175580D01*
X94261133Y-96508914D02*
X94261133Y-97175580D01*
X94499228Y-96127961D02*
X94737323Y-96842247D01*
X94118276Y-96842247D01*
%TO.C,C22*%
X104147857Y-94337142D02*
X104195476Y-94384761D01*
X104338333Y-94432380D01*
X104433571Y-94432380D01*
X104576428Y-94384761D01*
X104671666Y-94289523D01*
X104719285Y-94194285D01*
X104766904Y-94003809D01*
X104766904Y-93860952D01*
X104719285Y-93670476D01*
X104671666Y-93575238D01*
X104576428Y-93480000D01*
X104433571Y-93432380D01*
X104338333Y-93432380D01*
X104195476Y-93480000D01*
X104147857Y-93527619D01*
X103766904Y-93527619D02*
X103719285Y-93480000D01*
X103624047Y-93432380D01*
X103385952Y-93432380D01*
X103290714Y-93480000D01*
X103243095Y-93527619D01*
X103195476Y-93622857D01*
X103195476Y-93718095D01*
X103243095Y-93860952D01*
X103814523Y-94432380D01*
X103195476Y-94432380D01*
X102814523Y-93527619D02*
X102766904Y-93480000D01*
X102671666Y-93432380D01*
X102433571Y-93432380D01*
X102338333Y-93480000D01*
X102290714Y-93527619D01*
X102243095Y-93622857D01*
X102243095Y-93718095D01*
X102290714Y-93860952D01*
X102862142Y-94432380D01*
X102243095Y-94432380D01*
%TO.C,R19*%
X120276857Y-80335380D02*
X120610190Y-79859190D01*
X120848285Y-80335380D02*
X120848285Y-79335380D01*
X120467333Y-79335380D01*
X120372095Y-79383000D01*
X120324476Y-79430619D01*
X120276857Y-79525857D01*
X120276857Y-79668714D01*
X120324476Y-79763952D01*
X120372095Y-79811571D01*
X120467333Y-79859190D01*
X120848285Y-79859190D01*
X119324476Y-80335380D02*
X119895904Y-80335380D01*
X119610190Y-80335380D02*
X119610190Y-79335380D01*
X119705428Y-79478238D01*
X119800666Y-79573476D01*
X119895904Y-79621095D01*
X118848285Y-80335380D02*
X118657809Y-80335380D01*
X118562571Y-80287761D01*
X118514952Y-80240142D01*
X118419714Y-80097285D01*
X118372095Y-79906809D01*
X118372095Y-79525857D01*
X118419714Y-79430619D01*
X118467333Y-79383000D01*
X118562571Y-79335380D01*
X118753047Y-79335380D01*
X118848285Y-79383000D01*
X118895904Y-79430619D01*
X118943523Y-79525857D01*
X118943523Y-79763952D01*
X118895904Y-79859190D01*
X118848285Y-79906809D01*
X118753047Y-79954428D01*
X118562571Y-79954428D01*
X118467333Y-79906809D01*
X118419714Y-79859190D01*
X118372095Y-79763952D01*
%TO.C,C27*%
X99036142Y-96029542D02*
X99083761Y-95981923D01*
X99131380Y-95839066D01*
X99131380Y-95743828D01*
X99083761Y-95600971D01*
X98988523Y-95505733D01*
X98893285Y-95458114D01*
X98702809Y-95410495D01*
X98559952Y-95410495D01*
X98369476Y-95458114D01*
X98274238Y-95505733D01*
X98179000Y-95600971D01*
X98131380Y-95743828D01*
X98131380Y-95839066D01*
X98179000Y-95981923D01*
X98226619Y-96029542D01*
X98226619Y-96410495D02*
X98179000Y-96458114D01*
X98131380Y-96553352D01*
X98131380Y-96791447D01*
X98179000Y-96886685D01*
X98226619Y-96934304D01*
X98321857Y-96981923D01*
X98417095Y-96981923D01*
X98559952Y-96934304D01*
X99131380Y-96362876D01*
X99131380Y-96981923D01*
X98131380Y-97315257D02*
X98131380Y-97981923D01*
X99131380Y-97553352D01*
%TO.C,C29*%
X95632542Y-101846142D02*
X95680161Y-101798523D01*
X95727780Y-101655666D01*
X95727780Y-101560428D01*
X95680161Y-101417571D01*
X95584923Y-101322333D01*
X95489685Y-101274714D01*
X95299209Y-101227095D01*
X95156352Y-101227095D01*
X94965876Y-101274714D01*
X94870638Y-101322333D01*
X94775400Y-101417571D01*
X94727780Y-101560428D01*
X94727780Y-101655666D01*
X94775400Y-101798523D01*
X94823019Y-101846142D01*
X94823019Y-102227095D02*
X94775400Y-102274714D01*
X94727780Y-102369952D01*
X94727780Y-102608047D01*
X94775400Y-102703285D01*
X94823019Y-102750904D01*
X94918257Y-102798523D01*
X95013495Y-102798523D01*
X95156352Y-102750904D01*
X95727780Y-102179476D01*
X95727780Y-102798523D01*
X95727780Y-103274714D02*
X95727780Y-103465190D01*
X95680161Y-103560428D01*
X95632542Y-103608047D01*
X95489685Y-103703285D01*
X95299209Y-103750904D01*
X94918257Y-103750904D01*
X94823019Y-103703285D01*
X94775400Y-103655666D01*
X94727780Y-103560428D01*
X94727780Y-103369952D01*
X94775400Y-103274714D01*
X94823019Y-103227095D01*
X94918257Y-103179476D01*
X95156352Y-103179476D01*
X95251590Y-103227095D01*
X95299209Y-103274714D01*
X95346828Y-103369952D01*
X95346828Y-103560428D01*
X95299209Y-103655666D01*
X95251590Y-103703285D01*
X95156352Y-103750904D01*
%TO.C,R24*%
X88717380Y-93731142D02*
X88241190Y-93397809D01*
X88717380Y-93159714D02*
X87717380Y-93159714D01*
X87717380Y-93540666D01*
X87765000Y-93635904D01*
X87812619Y-93683523D01*
X87907857Y-93731142D01*
X88050714Y-93731142D01*
X88145952Y-93683523D01*
X88193571Y-93635904D01*
X88241190Y-93540666D01*
X88241190Y-93159714D01*
X87812619Y-94112095D02*
X87765000Y-94159714D01*
X87717380Y-94254952D01*
X87717380Y-94493047D01*
X87765000Y-94588285D01*
X87812619Y-94635904D01*
X87907857Y-94683523D01*
X88003095Y-94683523D01*
X88145952Y-94635904D01*
X88717380Y-94064476D01*
X88717380Y-94683523D01*
X88050714Y-95540666D02*
X88717380Y-95540666D01*
X87669761Y-95302571D02*
X88384047Y-95064476D01*
X88384047Y-95683523D01*
%TO.C,C28*%
X62587142Y-101846142D02*
X62634761Y-101798523D01*
X62682380Y-101655666D01*
X62682380Y-101560428D01*
X62634761Y-101417571D01*
X62539523Y-101322333D01*
X62444285Y-101274714D01*
X62253809Y-101227095D01*
X62110952Y-101227095D01*
X61920476Y-101274714D01*
X61825238Y-101322333D01*
X61730000Y-101417571D01*
X61682380Y-101560428D01*
X61682380Y-101655666D01*
X61730000Y-101798523D01*
X61777619Y-101846142D01*
X61777619Y-102227095D02*
X61730000Y-102274714D01*
X61682380Y-102369952D01*
X61682380Y-102608047D01*
X61730000Y-102703285D01*
X61777619Y-102750904D01*
X61872857Y-102798523D01*
X61968095Y-102798523D01*
X62110952Y-102750904D01*
X62682380Y-102179476D01*
X62682380Y-102798523D01*
X62110952Y-103369952D02*
X62063333Y-103274714D01*
X62015714Y-103227095D01*
X61920476Y-103179476D01*
X61872857Y-103179476D01*
X61777619Y-103227095D01*
X61730000Y-103274714D01*
X61682380Y-103369952D01*
X61682380Y-103560428D01*
X61730000Y-103655666D01*
X61777619Y-103703285D01*
X61872857Y-103750904D01*
X61920476Y-103750904D01*
X62015714Y-103703285D01*
X62063333Y-103655666D01*
X62110952Y-103560428D01*
X62110952Y-103369952D01*
X62158571Y-103274714D01*
X62206190Y-103227095D01*
X62301428Y-103179476D01*
X62491904Y-103179476D01*
X62587142Y-103227095D01*
X62634761Y-103274714D01*
X62682380Y-103369952D01*
X62682380Y-103560428D01*
X62634761Y-103655666D01*
X62587142Y-103703285D01*
X62491904Y-103750904D01*
X62301428Y-103750904D01*
X62206190Y-103703285D01*
X62158571Y-103655666D01*
X62110952Y-103560428D01*
%TO.C,C16*%
X114561857Y-83161142D02*
X114609476Y-83208761D01*
X114752333Y-83256380D01*
X114847571Y-83256380D01*
X114990428Y-83208761D01*
X115085666Y-83113523D01*
X115133285Y-83018285D01*
X115180904Y-82827809D01*
X115180904Y-82684952D01*
X115133285Y-82494476D01*
X115085666Y-82399238D01*
X114990428Y-82304000D01*
X114847571Y-82256380D01*
X114752333Y-82256380D01*
X114609476Y-82304000D01*
X114561857Y-82351619D01*
X113609476Y-83256380D02*
X114180904Y-83256380D01*
X113895190Y-83256380D02*
X113895190Y-82256380D01*
X113990428Y-82399238D01*
X114085666Y-82494476D01*
X114180904Y-82542095D01*
X112752333Y-82256380D02*
X112942809Y-82256380D01*
X113038047Y-82304000D01*
X113085666Y-82351619D01*
X113180904Y-82494476D01*
X113228523Y-82684952D01*
X113228523Y-83065904D01*
X113180904Y-83161142D01*
X113133285Y-83208761D01*
X113038047Y-83256380D01*
X112847571Y-83256380D01*
X112752333Y-83208761D01*
X112704714Y-83161142D01*
X112657095Y-83065904D01*
X112657095Y-82827809D01*
X112704714Y-82732571D01*
X112752333Y-82684952D01*
X112847571Y-82637333D01*
X113038047Y-82637333D01*
X113133285Y-82684952D01*
X113180904Y-82732571D01*
X113228523Y-82827809D01*
%TO.C,C37*%
X62587142Y-110736142D02*
X62634761Y-110688523D01*
X62682380Y-110545666D01*
X62682380Y-110450428D01*
X62634761Y-110307571D01*
X62539523Y-110212333D01*
X62444285Y-110164714D01*
X62253809Y-110117095D01*
X62110952Y-110117095D01*
X61920476Y-110164714D01*
X61825238Y-110212333D01*
X61730000Y-110307571D01*
X61682380Y-110450428D01*
X61682380Y-110545666D01*
X61730000Y-110688523D01*
X61777619Y-110736142D01*
X61682380Y-111069476D02*
X61682380Y-111688523D01*
X62063333Y-111355190D01*
X62063333Y-111498047D01*
X62110952Y-111593285D01*
X62158571Y-111640904D01*
X62253809Y-111688523D01*
X62491904Y-111688523D01*
X62587142Y-111640904D01*
X62634761Y-111593285D01*
X62682380Y-111498047D01*
X62682380Y-111212333D01*
X62634761Y-111117095D01*
X62587142Y-111069476D01*
X61682380Y-112021857D02*
X61682380Y-112688523D01*
X62682380Y-112259952D01*
%TO.C,R28*%
X81224380Y-99560142D02*
X80748190Y-99226809D01*
X81224380Y-98988714D02*
X80224380Y-98988714D01*
X80224380Y-99369666D01*
X80272000Y-99464904D01*
X80319619Y-99512523D01*
X80414857Y-99560142D01*
X80557714Y-99560142D01*
X80652952Y-99512523D01*
X80700571Y-99464904D01*
X80748190Y-99369666D01*
X80748190Y-98988714D01*
X80319619Y-99941095D02*
X80272000Y-99988714D01*
X80224380Y-100083952D01*
X80224380Y-100322047D01*
X80272000Y-100417285D01*
X80319619Y-100464904D01*
X80414857Y-100512523D01*
X80510095Y-100512523D01*
X80652952Y-100464904D01*
X81224380Y-99893476D01*
X81224380Y-100512523D01*
X80652952Y-101083952D02*
X80605333Y-100988714D01*
X80557714Y-100941095D01*
X80462476Y-100893476D01*
X80414857Y-100893476D01*
X80319619Y-100941095D01*
X80272000Y-100988714D01*
X80224380Y-101083952D01*
X80224380Y-101274428D01*
X80272000Y-101369666D01*
X80319619Y-101417285D01*
X80414857Y-101464904D01*
X80462476Y-101464904D01*
X80557714Y-101417285D01*
X80605333Y-101369666D01*
X80652952Y-101274428D01*
X80652952Y-101083952D01*
X80700571Y-100988714D01*
X80748190Y-100941095D01*
X80843428Y-100893476D01*
X81033904Y-100893476D01*
X81129142Y-100941095D01*
X81176761Y-100988714D01*
X81224380Y-101083952D01*
X81224380Y-101274428D01*
X81176761Y-101369666D01*
X81129142Y-101417285D01*
X81033904Y-101464904D01*
X80843428Y-101464904D01*
X80748190Y-101417285D01*
X80700571Y-101369666D01*
X80652952Y-101274428D01*
%TO.C,C21*%
X79986142Y-87622142D02*
X80033761Y-87574523D01*
X80081380Y-87431666D01*
X80081380Y-87336428D01*
X80033761Y-87193571D01*
X79938523Y-87098333D01*
X79843285Y-87050714D01*
X79652809Y-87003095D01*
X79509952Y-87003095D01*
X79319476Y-87050714D01*
X79224238Y-87098333D01*
X79129000Y-87193571D01*
X79081380Y-87336428D01*
X79081380Y-87431666D01*
X79129000Y-87574523D01*
X79176619Y-87622142D01*
X79176619Y-88003095D02*
X79129000Y-88050714D01*
X79081380Y-88145952D01*
X79081380Y-88384047D01*
X79129000Y-88479285D01*
X79176619Y-88526904D01*
X79271857Y-88574523D01*
X79367095Y-88574523D01*
X79509952Y-88526904D01*
X80081380Y-87955476D01*
X80081380Y-88574523D01*
X80081380Y-89526904D02*
X80081380Y-88955476D01*
X80081380Y-89241190D02*
X79081380Y-89241190D01*
X79224238Y-89145952D01*
X79319476Y-89050714D01*
X79367095Y-88955476D01*
%TO.C,C36*%
X79351142Y-106545142D02*
X79398761Y-106497523D01*
X79446380Y-106354666D01*
X79446380Y-106259428D01*
X79398761Y-106116571D01*
X79303523Y-106021333D01*
X79208285Y-105973714D01*
X79017809Y-105926095D01*
X78874952Y-105926095D01*
X78684476Y-105973714D01*
X78589238Y-106021333D01*
X78494000Y-106116571D01*
X78446380Y-106259428D01*
X78446380Y-106354666D01*
X78494000Y-106497523D01*
X78541619Y-106545142D01*
X78446380Y-106878476D02*
X78446380Y-107497523D01*
X78827333Y-107164190D01*
X78827333Y-107307047D01*
X78874952Y-107402285D01*
X78922571Y-107449904D01*
X79017809Y-107497523D01*
X79255904Y-107497523D01*
X79351142Y-107449904D01*
X79398761Y-107402285D01*
X79446380Y-107307047D01*
X79446380Y-107021333D01*
X79398761Y-106926095D01*
X79351142Y-106878476D01*
X78446380Y-108354666D02*
X78446380Y-108164190D01*
X78494000Y-108068952D01*
X78541619Y-108021333D01*
X78684476Y-107926095D01*
X78874952Y-107878476D01*
X79255904Y-107878476D01*
X79351142Y-107926095D01*
X79398761Y-107973714D01*
X79446380Y-108068952D01*
X79446380Y-108259428D01*
X79398761Y-108354666D01*
X79351142Y-108402285D01*
X79255904Y-108449904D01*
X79017809Y-108449904D01*
X78922571Y-108402285D01*
X78874952Y-108354666D01*
X78827333Y-108259428D01*
X78827333Y-108068952D01*
X78874952Y-107973714D01*
X78922571Y-107926095D01*
X79017809Y-107878476D01*
%TO.C,R25*%
X86621857Y-98115380D02*
X86955190Y-97639190D01*
X87193285Y-98115380D02*
X87193285Y-97115380D01*
X86812333Y-97115380D01*
X86717095Y-97163000D01*
X86669476Y-97210619D01*
X86621857Y-97305857D01*
X86621857Y-97448714D01*
X86669476Y-97543952D01*
X86717095Y-97591571D01*
X86812333Y-97639190D01*
X87193285Y-97639190D01*
X86240904Y-97210619D02*
X86193285Y-97163000D01*
X86098047Y-97115380D01*
X85859952Y-97115380D01*
X85764714Y-97163000D01*
X85717095Y-97210619D01*
X85669476Y-97305857D01*
X85669476Y-97401095D01*
X85717095Y-97543952D01*
X86288523Y-98115380D01*
X85669476Y-98115380D01*
X84764714Y-97115380D02*
X85240904Y-97115380D01*
X85288523Y-97591571D01*
X85240904Y-97543952D01*
X85145666Y-97496333D01*
X84907571Y-97496333D01*
X84812333Y-97543952D01*
X84764714Y-97591571D01*
X84717095Y-97686809D01*
X84717095Y-97924904D01*
X84764714Y-98020142D01*
X84812333Y-98067761D01*
X84907571Y-98115380D01*
X85145666Y-98115380D01*
X85240904Y-98067761D01*
X85288523Y-98020142D01*
%TO.C,R26*%
X102085380Y-98938142D02*
X101609190Y-98604809D01*
X102085380Y-98366714D02*
X101085380Y-98366714D01*
X101085380Y-98747666D01*
X101133000Y-98842904D01*
X101180619Y-98890523D01*
X101275857Y-98938142D01*
X101418714Y-98938142D01*
X101513952Y-98890523D01*
X101561571Y-98842904D01*
X101609190Y-98747666D01*
X101609190Y-98366714D01*
X101180619Y-99319095D02*
X101133000Y-99366714D01*
X101085380Y-99461952D01*
X101085380Y-99700047D01*
X101133000Y-99795285D01*
X101180619Y-99842904D01*
X101275857Y-99890523D01*
X101371095Y-99890523D01*
X101513952Y-99842904D01*
X102085380Y-99271476D01*
X102085380Y-99890523D01*
X101085380Y-100747666D02*
X101085380Y-100557190D01*
X101133000Y-100461952D01*
X101180619Y-100414333D01*
X101323476Y-100319095D01*
X101513952Y-100271476D01*
X101894904Y-100271476D01*
X101990142Y-100319095D01*
X102037761Y-100366714D01*
X102085380Y-100461952D01*
X102085380Y-100652428D01*
X102037761Y-100747666D01*
X101990142Y-100795285D01*
X101894904Y-100842904D01*
X101656809Y-100842904D01*
X101561571Y-100795285D01*
X101513952Y-100747666D01*
X101466333Y-100652428D01*
X101466333Y-100461952D01*
X101513952Y-100366714D01*
X101561571Y-100319095D01*
X101656809Y-100271476D01*
%TO.C,R27*%
X78397380Y-96766142D02*
X77921190Y-96432809D01*
X78397380Y-96194714D02*
X77397380Y-96194714D01*
X77397380Y-96575666D01*
X77445000Y-96670904D01*
X77492619Y-96718523D01*
X77587857Y-96766142D01*
X77730714Y-96766142D01*
X77825952Y-96718523D01*
X77873571Y-96670904D01*
X77921190Y-96575666D01*
X77921190Y-96194714D01*
X77492619Y-97147095D02*
X77445000Y-97194714D01*
X77397380Y-97289952D01*
X77397380Y-97528047D01*
X77445000Y-97623285D01*
X77492619Y-97670904D01*
X77587857Y-97718523D01*
X77683095Y-97718523D01*
X77825952Y-97670904D01*
X78397380Y-97099476D01*
X78397380Y-97718523D01*
X77397380Y-98051857D02*
X77397380Y-98718523D01*
X78397380Y-98289952D01*
%TO.C,C18*%
X82145142Y-79748142D02*
X82192761Y-79700523D01*
X82240380Y-79557666D01*
X82240380Y-79462428D01*
X82192761Y-79319571D01*
X82097523Y-79224333D01*
X82002285Y-79176714D01*
X81811809Y-79129095D01*
X81668952Y-79129095D01*
X81478476Y-79176714D01*
X81383238Y-79224333D01*
X81288000Y-79319571D01*
X81240380Y-79462428D01*
X81240380Y-79557666D01*
X81288000Y-79700523D01*
X81335619Y-79748142D01*
X82240380Y-80700523D02*
X82240380Y-80129095D01*
X82240380Y-80414809D02*
X81240380Y-80414809D01*
X81383238Y-80319571D01*
X81478476Y-80224333D01*
X81526095Y-80129095D01*
X81668952Y-81271952D02*
X81621333Y-81176714D01*
X81573714Y-81129095D01*
X81478476Y-81081476D01*
X81430857Y-81081476D01*
X81335619Y-81129095D01*
X81288000Y-81176714D01*
X81240380Y-81271952D01*
X81240380Y-81462428D01*
X81288000Y-81557666D01*
X81335619Y-81605285D01*
X81430857Y-81652904D01*
X81478476Y-81652904D01*
X81573714Y-81605285D01*
X81621333Y-81557666D01*
X81668952Y-81462428D01*
X81668952Y-81271952D01*
X81716571Y-81176714D01*
X81764190Y-81129095D01*
X81859428Y-81081476D01*
X82049904Y-81081476D01*
X82145142Y-81129095D01*
X82192761Y-81176714D01*
X82240380Y-81271952D01*
X82240380Y-81462428D01*
X82192761Y-81557666D01*
X82145142Y-81605285D01*
X82049904Y-81652904D01*
X81859428Y-81652904D01*
X81764190Y-81605285D01*
X81716571Y-81557666D01*
X81668952Y-81462428D01*
%TO.C,R30*%
X92921057Y-108122980D02*
X93254390Y-107646790D01*
X93492485Y-108122980D02*
X93492485Y-107122980D01*
X93111533Y-107122980D01*
X93016295Y-107170600D01*
X92968676Y-107218219D01*
X92921057Y-107313457D01*
X92921057Y-107456314D01*
X92968676Y-107551552D01*
X93016295Y-107599171D01*
X93111533Y-107646790D01*
X93492485Y-107646790D01*
X92587723Y-107122980D02*
X91968676Y-107122980D01*
X92302009Y-107503933D01*
X92159152Y-107503933D01*
X92063914Y-107551552D01*
X92016295Y-107599171D01*
X91968676Y-107694409D01*
X91968676Y-107932504D01*
X92016295Y-108027742D01*
X92063914Y-108075361D01*
X92159152Y-108122980D01*
X92444866Y-108122980D01*
X92540104Y-108075361D01*
X92587723Y-108027742D01*
X91349628Y-107122980D02*
X91254390Y-107122980D01*
X91159152Y-107170600D01*
X91111533Y-107218219D01*
X91063914Y-107313457D01*
X91016295Y-107503933D01*
X91016295Y-107742028D01*
X91063914Y-107932504D01*
X91111533Y-108027742D01*
X91159152Y-108075361D01*
X91254390Y-108122980D01*
X91349628Y-108122980D01*
X91444866Y-108075361D01*
X91492485Y-108027742D01*
X91540104Y-107932504D01*
X91587723Y-107742028D01*
X91587723Y-107503933D01*
X91540104Y-107313457D01*
X91492485Y-107218219D01*
X91444866Y-107170600D01*
X91349628Y-107122980D01*
%TO.C,R31*%
X69388880Y-114038142D02*
X68912690Y-113704809D01*
X69388880Y-113466714D02*
X68388880Y-113466714D01*
X68388880Y-113847666D01*
X68436500Y-113942904D01*
X68484119Y-113990523D01*
X68579357Y-114038142D01*
X68722214Y-114038142D01*
X68817452Y-113990523D01*
X68865071Y-113942904D01*
X68912690Y-113847666D01*
X68912690Y-113466714D01*
X68388880Y-114371476D02*
X68388880Y-114990523D01*
X68769833Y-114657190D01*
X68769833Y-114800047D01*
X68817452Y-114895285D01*
X68865071Y-114942904D01*
X68960309Y-114990523D01*
X69198404Y-114990523D01*
X69293642Y-114942904D01*
X69341261Y-114895285D01*
X69388880Y-114800047D01*
X69388880Y-114514333D01*
X69341261Y-114419095D01*
X69293642Y-114371476D01*
X69388880Y-115942904D02*
X69388880Y-115371476D01*
X69388880Y-115657190D02*
X68388880Y-115657190D01*
X68531738Y-115561952D01*
X68626976Y-115466714D01*
X68674595Y-115371476D01*
%TO.C,R29*%
X90660457Y-103652580D02*
X90993790Y-103176390D01*
X91231885Y-103652580D02*
X91231885Y-102652580D01*
X90850933Y-102652580D01*
X90755695Y-102700200D01*
X90708076Y-102747819D01*
X90660457Y-102843057D01*
X90660457Y-102985914D01*
X90708076Y-103081152D01*
X90755695Y-103128771D01*
X90850933Y-103176390D01*
X91231885Y-103176390D01*
X90279504Y-102747819D02*
X90231885Y-102700200D01*
X90136647Y-102652580D01*
X89898552Y-102652580D01*
X89803314Y-102700200D01*
X89755695Y-102747819D01*
X89708076Y-102843057D01*
X89708076Y-102938295D01*
X89755695Y-103081152D01*
X90327123Y-103652580D01*
X89708076Y-103652580D01*
X89231885Y-103652580D02*
X89041409Y-103652580D01*
X88946171Y-103604961D01*
X88898552Y-103557342D01*
X88803314Y-103414485D01*
X88755695Y-103224009D01*
X88755695Y-102843057D01*
X88803314Y-102747819D01*
X88850933Y-102700200D01*
X88946171Y-102652580D01*
X89136647Y-102652580D01*
X89231885Y-102700200D01*
X89279504Y-102747819D01*
X89327123Y-102843057D01*
X89327123Y-103081152D01*
X89279504Y-103176390D01*
X89231885Y-103224009D01*
X89136647Y-103271628D01*
X88946171Y-103271628D01*
X88850933Y-103224009D01*
X88803314Y-103176390D01*
X88755695Y-103081152D01*
%TO.C,R20*%
X85542380Y-91305142D02*
X85066190Y-90971809D01*
X85542380Y-90733714D02*
X84542380Y-90733714D01*
X84542380Y-91114666D01*
X84590000Y-91209904D01*
X84637619Y-91257523D01*
X84732857Y-91305142D01*
X84875714Y-91305142D01*
X84970952Y-91257523D01*
X85018571Y-91209904D01*
X85066190Y-91114666D01*
X85066190Y-90733714D01*
X84637619Y-91686095D02*
X84590000Y-91733714D01*
X84542380Y-91828952D01*
X84542380Y-92067047D01*
X84590000Y-92162285D01*
X84637619Y-92209904D01*
X84732857Y-92257523D01*
X84828095Y-92257523D01*
X84970952Y-92209904D01*
X85542380Y-91638476D01*
X85542380Y-92257523D01*
X84542380Y-92876571D02*
X84542380Y-92971809D01*
X84590000Y-93067047D01*
X84637619Y-93114666D01*
X84732857Y-93162285D01*
X84923333Y-93209904D01*
X85161428Y-93209904D01*
X85351904Y-93162285D01*
X85447142Y-93114666D01*
X85494761Y-93067047D01*
X85542380Y-92971809D01*
X85542380Y-92876571D01*
X85494761Y-92781333D01*
X85447142Y-92733714D01*
X85351904Y-92686095D01*
X85161428Y-92638476D01*
X84923333Y-92638476D01*
X84732857Y-92686095D01*
X84637619Y-92733714D01*
X84590000Y-92781333D01*
X84542380Y-92876571D01*
%TO.C,U10*%
X69048380Y-107092904D02*
X69857904Y-107092904D01*
X69953142Y-107140523D01*
X70000761Y-107188142D01*
X70048380Y-107283380D01*
X70048380Y-107473857D01*
X70000761Y-107569095D01*
X69953142Y-107616714D01*
X69857904Y-107664333D01*
X69048380Y-107664333D01*
X70048380Y-108664333D02*
X70048380Y-108092904D01*
X70048380Y-108378619D02*
X69048380Y-108378619D01*
X69191238Y-108283380D01*
X69286476Y-108188142D01*
X69334095Y-108092904D01*
X69048380Y-109283380D02*
X69048380Y-109378619D01*
X69096000Y-109473857D01*
X69143619Y-109521476D01*
X69238857Y-109569095D01*
X69429333Y-109616714D01*
X69667428Y-109616714D01*
X69857904Y-109569095D01*
X69953142Y-109521476D01*
X70000761Y-109473857D01*
X70048380Y-109378619D01*
X70048380Y-109283380D01*
X70000761Y-109188142D01*
X69953142Y-109140523D01*
X69857904Y-109092904D01*
X69667428Y-109045285D01*
X69429333Y-109045285D01*
X69238857Y-109092904D01*
X69143619Y-109140523D01*
X69096000Y-109188142D01*
X69048380Y-109283380D01*
%TO.C,C34*%
X100687142Y-109593142D02*
X100734761Y-109545523D01*
X100782380Y-109402666D01*
X100782380Y-109307428D01*
X100734761Y-109164571D01*
X100639523Y-109069333D01*
X100544285Y-109021714D01*
X100353809Y-108974095D01*
X100210952Y-108974095D01*
X100020476Y-109021714D01*
X99925238Y-109069333D01*
X99830000Y-109164571D01*
X99782380Y-109307428D01*
X99782380Y-109402666D01*
X99830000Y-109545523D01*
X99877619Y-109593142D01*
X99782380Y-109926476D02*
X99782380Y-110545523D01*
X100163333Y-110212190D01*
X100163333Y-110355047D01*
X100210952Y-110450285D01*
X100258571Y-110497904D01*
X100353809Y-110545523D01*
X100591904Y-110545523D01*
X100687142Y-110497904D01*
X100734761Y-110450285D01*
X100782380Y-110355047D01*
X100782380Y-110069333D01*
X100734761Y-109974095D01*
X100687142Y-109926476D01*
X100115714Y-111402666D02*
X100782380Y-111402666D01*
X99734761Y-111164571D02*
X100449047Y-110926476D01*
X100449047Y-111545523D01*
%TO.C,C25*%
X106941857Y-100974142D02*
X106989476Y-101021761D01*
X107132333Y-101069380D01*
X107227571Y-101069380D01*
X107370428Y-101021761D01*
X107465666Y-100926523D01*
X107513285Y-100831285D01*
X107560904Y-100640809D01*
X107560904Y-100497952D01*
X107513285Y-100307476D01*
X107465666Y-100212238D01*
X107370428Y-100117000D01*
X107227571Y-100069380D01*
X107132333Y-100069380D01*
X106989476Y-100117000D01*
X106941857Y-100164619D01*
X106560904Y-100164619D02*
X106513285Y-100117000D01*
X106418047Y-100069380D01*
X106179952Y-100069380D01*
X106084714Y-100117000D01*
X106037095Y-100164619D01*
X105989476Y-100259857D01*
X105989476Y-100355095D01*
X106037095Y-100497952D01*
X106608523Y-101069380D01*
X105989476Y-101069380D01*
X105084714Y-100069380D02*
X105560904Y-100069380D01*
X105608523Y-100545571D01*
X105560904Y-100497952D01*
X105465666Y-100450333D01*
X105227571Y-100450333D01*
X105132333Y-100497952D01*
X105084714Y-100545571D01*
X105037095Y-100640809D01*
X105037095Y-100878904D01*
X105084714Y-100974142D01*
X105132333Y-101021761D01*
X105227571Y-101069380D01*
X105465666Y-101069380D01*
X105560904Y-101021761D01*
X105608523Y-100974142D01*
%TO.C,R23*%
X91638380Y-90289142D02*
X91162190Y-89955809D01*
X91638380Y-89717714D02*
X90638380Y-89717714D01*
X90638380Y-90098666D01*
X90686000Y-90193904D01*
X90733619Y-90241523D01*
X90828857Y-90289142D01*
X90971714Y-90289142D01*
X91066952Y-90241523D01*
X91114571Y-90193904D01*
X91162190Y-90098666D01*
X91162190Y-89717714D01*
X90733619Y-90670095D02*
X90686000Y-90717714D01*
X90638380Y-90812952D01*
X90638380Y-91051047D01*
X90686000Y-91146285D01*
X90733619Y-91193904D01*
X90828857Y-91241523D01*
X90924095Y-91241523D01*
X91066952Y-91193904D01*
X91638380Y-90622476D01*
X91638380Y-91241523D01*
X90638380Y-91574857D02*
X90638380Y-92193904D01*
X91019333Y-91860571D01*
X91019333Y-92003428D01*
X91066952Y-92098666D01*
X91114571Y-92146285D01*
X91209809Y-92193904D01*
X91447904Y-92193904D01*
X91543142Y-92146285D01*
X91590761Y-92098666D01*
X91638380Y-92003428D01*
X91638380Y-91717714D01*
X91590761Y-91622476D01*
X91543142Y-91574857D01*
%TO.C,U7*%
X100010980Y-83007295D02*
X100820504Y-83007295D01*
X100915742Y-83054914D01*
X100963361Y-83102533D01*
X101010980Y-83197771D01*
X101010980Y-83388247D01*
X100963361Y-83483485D01*
X100915742Y-83531104D01*
X100820504Y-83578723D01*
X100010980Y-83578723D01*
X100010980Y-83959676D02*
X100010980Y-84626342D01*
X101010980Y-84197771D01*
%TO.C,R21*%
X76525380Y-91686142D02*
X76049190Y-91352809D01*
X76525380Y-91114714D02*
X75525380Y-91114714D01*
X75525380Y-91495666D01*
X75573000Y-91590904D01*
X75620619Y-91638523D01*
X75715857Y-91686142D01*
X75858714Y-91686142D01*
X75953952Y-91638523D01*
X76001571Y-91590904D01*
X76049190Y-91495666D01*
X76049190Y-91114714D01*
X75620619Y-92067095D02*
X75573000Y-92114714D01*
X75525380Y-92209952D01*
X75525380Y-92448047D01*
X75573000Y-92543285D01*
X75620619Y-92590904D01*
X75715857Y-92638523D01*
X75811095Y-92638523D01*
X75953952Y-92590904D01*
X76525380Y-92019476D01*
X76525380Y-92638523D01*
X76525380Y-93590904D02*
X76525380Y-93019476D01*
X76525380Y-93305190D02*
X75525380Y-93305190D01*
X75668238Y-93209952D01*
X75763476Y-93114714D01*
X75811095Y-93019476D01*
%TO.C,C19*%
X62587142Y-92956142D02*
X62634761Y-92908523D01*
X62682380Y-92765666D01*
X62682380Y-92670428D01*
X62634761Y-92527571D01*
X62539523Y-92432333D01*
X62444285Y-92384714D01*
X62253809Y-92337095D01*
X62110952Y-92337095D01*
X61920476Y-92384714D01*
X61825238Y-92432333D01*
X61730000Y-92527571D01*
X61682380Y-92670428D01*
X61682380Y-92765666D01*
X61730000Y-92908523D01*
X61777619Y-92956142D01*
X62682380Y-93908523D02*
X62682380Y-93337095D01*
X62682380Y-93622809D02*
X61682380Y-93622809D01*
X61825238Y-93527571D01*
X61920476Y-93432333D01*
X61968095Y-93337095D01*
X62682380Y-94384714D02*
X62682380Y-94575190D01*
X62634761Y-94670428D01*
X62587142Y-94718047D01*
X62444285Y-94813285D01*
X62253809Y-94860904D01*
X61872857Y-94860904D01*
X61777619Y-94813285D01*
X61730000Y-94765666D01*
X61682380Y-94670428D01*
X61682380Y-94479952D01*
X61730000Y-94384714D01*
X61777619Y-94337095D01*
X61872857Y-94289476D01*
X62110952Y-94289476D01*
X62206190Y-94337095D01*
X62253809Y-94384714D01*
X62301428Y-94479952D01*
X62301428Y-94670428D01*
X62253809Y-94765666D01*
X62206190Y-94813285D01*
X62110952Y-94860904D01*
D11*
%TO.C,U9*%
X68600000Y-99695000D02*
X68600000Y-101645000D01*
X68600000Y-99695000D02*
X68600000Y-97745000D01*
X63480000Y-99695000D02*
X63480000Y-101645000D01*
X63480000Y-99695000D02*
X63480000Y-96245000D01*
%TO.C,C32*%
X108294000Y-105714748D02*
X108294000Y-107137252D01*
X105574000Y-105714748D02*
X105574000Y-107137252D01*
%TO.C,C23*%
X92200000Y-94527580D02*
X92200000Y-94246420D01*
X93220000Y-94527580D02*
X93220000Y-94246420D01*
%TO.C,C38*%
X105497800Y-120370548D02*
X105497800Y-121793052D01*
X108217800Y-120370548D02*
X108217800Y-121793052D01*
%TO.C,D7*%
X116840000Y-98770000D02*
X116190000Y-98770000D01*
X116840000Y-101890000D02*
X117490000Y-101890000D01*
X116840000Y-101890000D02*
X115165000Y-101890000D01*
X116840000Y-98770000D02*
X117490000Y-98770000D01*
%TO.C,C31*%
X93093000Y-100953180D02*
X93093000Y-100672020D01*
X92073000Y-100953180D02*
X92073000Y-100672020D01*
%TO.C,C33*%
X102272000Y-105714748D02*
X102272000Y-107137252D01*
X104992000Y-105714748D02*
X104992000Y-107137252D01*
%TO.C,R18*%
X77836500Y-80407742D02*
X77836500Y-80882258D01*
X78881500Y-80407742D02*
X78881500Y-80882258D01*
%TO.C,R22*%
X94756500Y-94611258D02*
X94756500Y-94136742D01*
X93711500Y-94611258D02*
X93711500Y-94136742D01*
%TO.C,C20*%
X81180000Y-90797748D02*
X81180000Y-91320252D01*
X82650000Y-90797748D02*
X82650000Y-91320252D01*
%TO.C,C17*%
X82802000Y-83044420D02*
X82802000Y-83325580D01*
X83822000Y-83044420D02*
X83822000Y-83325580D01*
%TO.C,C26*%
X88581620Y-98690000D02*
X88862780Y-98690000D01*
X88581620Y-99710000D02*
X88862780Y-99710000D01*
%TO.C,C40*%
X87374000Y-81901420D02*
X87374000Y-82182580D01*
X88394000Y-81901420D02*
X88394000Y-82182580D01*
%TO.C,U8*%
X63480000Y-90805000D02*
X63480000Y-92755000D01*
X63480000Y-90805000D02*
X63480000Y-87355000D01*
X68600000Y-90805000D02*
X68600000Y-92755000D01*
X68600000Y-90805000D02*
X68600000Y-88855000D01*
%TO.C,C39*%
X89152000Y-81901420D02*
X89152000Y-82182580D01*
X90172000Y-81901420D02*
X90172000Y-82182580D01*
%TO.C,C35*%
X82069000Y-107449252D02*
X82069000Y-106926748D01*
X83539000Y-107449252D02*
X83539000Y-106926748D01*
%TO.C,C24*%
X95390580Y-97547000D02*
X95109420Y-97547000D01*
X95390580Y-98567000D02*
X95109420Y-98567000D01*
%TO.C,C22*%
X106158420Y-94490000D02*
X106439580Y-94490000D01*
X106158420Y-93470000D02*
X106439580Y-93470000D01*
%TO.C,R19*%
X119399742Y-80757500D02*
X119874258Y-80757500D01*
X119399742Y-81802500D02*
X119874258Y-81802500D01*
%TO.C,C27*%
X98169000Y-99721580D02*
X98169000Y-99440420D01*
X99189000Y-99721580D02*
X99189000Y-99440420D01*
%TO.C,C29*%
X95390580Y-99896200D02*
X95109420Y-99896200D01*
X95390580Y-100916200D02*
X95109420Y-100916200D01*
%TO.C,R24*%
X90184500Y-94611258D02*
X90184500Y-94136742D01*
X89139500Y-94611258D02*
X89139500Y-94136742D01*
%TO.C,C28*%
X61720000Y-99554420D02*
X61720000Y-99835580D01*
X62740000Y-99554420D02*
X62740000Y-99835580D01*
%TO.C,C16*%
X110996000Y-82028420D02*
X110996000Y-82309580D01*
X112016000Y-82028420D02*
X112016000Y-82309580D01*
%TO.C,C37*%
X62740000Y-108444420D02*
X62740000Y-108725580D01*
X61720000Y-108444420D02*
X61720000Y-108725580D01*
%TO.C,R28*%
X78373500Y-100440258D02*
X78373500Y-99965742D01*
X77328500Y-100440258D02*
X77328500Y-99965742D01*
%TO.C,C21*%
X79119000Y-90918420D02*
X79119000Y-91199580D01*
X80139000Y-90918420D02*
X80139000Y-91199580D01*
%TO.C,C36*%
X81507000Y-107449252D02*
X81507000Y-106926748D01*
X80037000Y-107449252D02*
X80037000Y-106926748D01*
%TO.C,R25*%
X88484942Y-97153500D02*
X88959458Y-97153500D01*
X88484942Y-98198500D02*
X88959458Y-98198500D01*
%TO.C,R26*%
X99680500Y-99818258D02*
X99680500Y-99343742D01*
X100725500Y-99818258D02*
X100725500Y-99343742D01*
%TO.C,R27*%
X79897500Y-99965742D02*
X79897500Y-100440258D01*
X78852500Y-99965742D02*
X78852500Y-100440258D01*
%TO.C,C18*%
X82298000Y-83044420D02*
X82298000Y-83325580D01*
X81278000Y-83044420D02*
X81278000Y-83325580D01*
%TO.C,R30*%
X92091742Y-105535500D02*
X92566258Y-105535500D01*
X92091742Y-106580500D02*
X92566258Y-106580500D01*
%TO.C,R31*%
X66551500Y-114908064D02*
X66551500Y-114453936D01*
X68021500Y-114908064D02*
X68021500Y-114453936D01*
%TO.C,R29*%
X92091742Y-105056500D02*
X92566258Y-105056500D01*
X92091742Y-104011500D02*
X92566258Y-104011500D01*
%TO.C,R20*%
X84215500Y-90882742D02*
X84215500Y-91357258D01*
X83170500Y-90882742D02*
X83170500Y-91357258D01*
%TO.C,U10*%
X63480000Y-108585000D02*
X63480000Y-110535000D01*
X68600000Y-108585000D02*
X68600000Y-106635000D01*
X63480000Y-108585000D02*
X63480000Y-105135000D01*
X68600000Y-108585000D02*
X68600000Y-110535000D01*
%TO.C,C34*%
X98970000Y-105714748D02*
X98970000Y-107137252D01*
X101690000Y-105714748D02*
X101690000Y-107137252D01*
%TO.C,C25*%
X106158420Y-99697000D02*
X106439580Y-99697000D01*
X106158420Y-98677000D02*
X106439580Y-98677000D01*
%TO.C,R23*%
X90663500Y-94149742D02*
X90663500Y-94624258D01*
X91708500Y-94149742D02*
X91708500Y-94624258D01*
%TO.C,U7*%
X110480000Y-83820000D02*
X110480000Y-87270000D01*
X110480000Y-83820000D02*
X110480000Y-81870000D01*
X101610000Y-83820000D02*
X101610000Y-85770000D01*
X101610000Y-83820000D02*
X101610000Y-81870000D01*
%TO.C,R21*%
X75157000Y-92101936D02*
X75157000Y-92556064D01*
X73687000Y-92101936D02*
X73687000Y-92556064D01*
%TO.C,C19*%
X61720000Y-90664420D02*
X61720000Y-90945580D01*
X62740000Y-90664420D02*
X62740000Y-90945580D01*
%TD*%
M02*
