%TF.GenerationSoftware,KiCad,Pcbnew,6.0.9-8da3e8f707~117~ubuntu20.04.1*%
%TF.CreationDate,2022-12-10T16:21:19-08:00*%
%TF.ProjectId,PI-Power-Board,50492d50-6f77-4657-922d-426f6172642e,rev?*%
%TF.SameCoordinates,Original*%
%TF.FileFunction,Soldermask,Top*%
%TF.FilePolarity,Negative*%
%FSLAX46Y46*%
G04 Gerber Fmt 4.6, Leading zero omitted, Abs format (unit mm)*
G04 Created by KiCad (PCBNEW 6.0.9-8da3e8f707~117~ubuntu20.04.1) date 2022-12-10 16:21:19*
%MOMM*%
%LPD*%
G01*
G04 APERTURE LIST*
G04 Aperture macros list*
%AMRoundRect*
0 Rectangle with rounded corners*
0 $1 Rounding radius*
0 $2 $3 $4 $5 $6 $7 $8 $9 X,Y pos of 4 corners*
0 Add a 4 corners polygon primitive as box body*
4,1,4,$2,$3,$4,$5,$6,$7,$8,$9,$2,$3,0*
0 Add four circle primitives for the rounded corners*
1,1,$1+$1,$2,$3*
1,1,$1+$1,$4,$5*
1,1,$1+$1,$6,$7*
1,1,$1+$1,$8,$9*
0 Add four rect primitives between the rounded corners*
20,1,$1+$1,$2,$3,$4,$5,0*
20,1,$1+$1,$4,$5,$6,$7,0*
20,1,$1+$1,$6,$7,$8,$9,0*
20,1,$1+$1,$8,$9,$2,$3,0*%
%AMFreePoly0*
4,1,19,2.150000,-1.500000,1.178000,-1.500000,1.005260,-1.197301,0.896353,-1.078740,0.724646,-0.944703,0.533256,-0.840690,0.327380,-0.769525,0.212121,-0.750000,-0.211969,-0.750000,-0.320184,-0.767707,-0.526456,-0.837714,-0.718428,-0.940651,-0.890884,-1.073722,-1.004579,-1.196108,-1.178000,-1.500000,-2.150000,-1.500000,-2.150000,0.100000,2.150000,0.100000,2.150000,-1.500000,2.150000,-1.500000,
$1*%
%AMFreePoly1*
4,1,17,2.145000,-2.250000,-2.805000,-2.250000,-2.805000,-1.590000,-2.145000,-1.590000,-2.145000,-0.970000,-2.805000,-0.970000,-2.805000,-0.310000,-2.145000,-0.310000,-2.145000,0.310000,-2.805000,0.310000,-2.805000,0.970000,-2.145000,0.970000,-2.145000,1.590000,-2.805000,1.590000,-2.805000,2.250000,2.145000,2.250000,2.145000,-2.250000,2.145000,-2.250000,$1*%
G04 Aperture macros list end*
%ADD10RoundRect,0.250000X-1.100000X0.325000X-1.100000X-0.325000X1.100000X-0.325000X1.100000X0.325000X0*%
%ADD11RoundRect,0.200000X0.200000X0.275000X-0.200000X0.275000X-0.200000X-0.275000X0.200000X-0.275000X0*%
%ADD12C,2.000000*%
%ADD13RoundRect,0.150000X-0.512500X-0.150000X0.512500X-0.150000X0.512500X0.150000X-0.512500X0.150000X0*%
%ADD14RoundRect,0.225000X0.225000X0.250000X-0.225000X0.250000X-0.225000X-0.250000X0.225000X-0.250000X0*%
%ADD15RoundRect,0.250000X0.475000X-0.250000X0.475000X0.250000X-0.475000X0.250000X-0.475000X-0.250000X0*%
%ADD16FreePoly0,180.000000*%
%ADD17FreePoly0,0.000000*%
%ADD18R,1.200000X1.400000*%
%ADD19R,0.660000X0.750000*%
%ADD20FreePoly1,270.000000*%
%ADD21R,0.650000X0.400000*%
%ADD22C,3.400000*%
%ADD23R,1.778000X1.778000*%
%ADD24C,1.905000*%
%ADD25C,1.778000*%
%ADD26RoundRect,0.250000X-0.625000X0.312500X-0.625000X-0.312500X0.625000X-0.312500X0.625000X0.312500X0*%
%ADD27FreePoly1,90.000000*%
%ADD28RoundRect,0.200000X-0.275000X0.200000X-0.275000X-0.200000X0.275000X-0.200000X0.275000X0.200000X0*%
%ADD29RoundRect,0.250000X-0.250000X-0.475000X0.250000X-0.475000X0.250000X0.475000X-0.250000X0.475000X0*%
%ADD30R,1.100000X1.100000*%
%ADD31R,0.600000X0.700000*%
%ADD32RoundRect,0.250000X0.250000X0.475000X-0.250000X0.475000X-0.250000X-0.475000X0.250000X-0.475000X0*%
%ADD33C,2.500000*%
%ADD34RoundRect,0.150000X-0.825000X-0.150000X0.825000X-0.150000X0.825000X0.150000X-0.825000X0.150000X0*%
%ADD35RoundRect,0.200000X-0.200000X-0.275000X0.200000X-0.275000X0.200000X0.275000X-0.200000X0.275000X0*%
%ADD36R,2.500000X2.300000*%
%ADD37RoundRect,0.200000X0.275000X-0.200000X0.275000X0.200000X-0.275000X0.200000X-0.275000X-0.200000X0*%
%ADD38R,0.700000X0.600000*%
%ADD39RoundRect,0.225000X-0.225000X-0.250000X0.225000X-0.250000X0.225000X0.250000X-0.225000X0.250000X0*%
%ADD40C,1.020000*%
%ADD41C,1.700000*%
%ADD42R,1.020000X1.780000*%
%ADD43RoundRect,0.225000X0.250000X-0.225000X0.250000X0.225000X-0.250000X0.225000X-0.250000X-0.225000X0*%
%ADD44RoundRect,0.250000X-0.312500X-0.625000X0.312500X-0.625000X0.312500X0.625000X-0.312500X0.625000X0*%
%ADD45RoundRect,0.250000X1.100000X-0.325000X1.100000X0.325000X-1.100000X0.325000X-1.100000X-0.325000X0*%
%ADD46RoundRect,0.150000X-0.150000X0.512500X-0.150000X-0.512500X0.150000X-0.512500X0.150000X0.512500X0*%
%ADD47RoundRect,0.250000X1.450000X-0.250000X1.450000X0.250000X-1.450000X0.250000X-1.450000X-0.250000X0*%
%ADD48RoundRect,0.150000X-0.150000X0.725000X-0.150000X-0.725000X0.150000X-0.725000X0.150000X0.725000X0*%
%ADD49RoundRect,0.050000X-0.070000X0.250000X-0.070000X-0.250000X0.070000X-0.250000X0.070000X0.250000X0*%
%ADD50RoundRect,0.050000X-0.250000X-0.070000X0.250000X-0.070000X0.250000X0.070000X-0.250000X0.070000X0*%
%ADD51C,0.400000*%
%ADD52RoundRect,0.050000X1.725000X-1.225000X1.725000X1.225000X-1.725000X1.225000X-1.725000X-1.225000X0*%
%ADD53R,1.905000X2.790000*%
%ADD54RoundRect,0.250000X0.375000X0.625000X-0.375000X0.625000X-0.375000X-0.625000X0.375000X-0.625000X0*%
G04 APERTURE END LIST*
D10*
%TO.C,C10*%
X103632000Y-104951000D03*
X103632000Y-107901000D03*
%TD*%
D11*
%TO.C,R9*%
X99885000Y-97168000D03*
X98235000Y-97168000D03*
%TD*%
D12*
%TO.C,TP7*%
X95529400Y-86690200D03*
%TD*%
D13*
%TO.C,U3*%
X79761500Y-90109000D03*
X79761500Y-91059000D03*
X79761500Y-92009000D03*
X82036500Y-92009000D03*
X82036500Y-90109000D03*
%TD*%
D14*
%TO.C,C30*%
X91453000Y-102616000D03*
X89903000Y-102616000D03*
%TD*%
D15*
%TO.C,C14*%
X84836000Y-108138000D03*
X84836000Y-106238000D03*
%TD*%
D16*
%TO.C,L1*%
X82931000Y-102380000D03*
D17*
X82931000Y-98280000D03*
%TD*%
D18*
%TO.C,U2*%
X108288000Y-88138000D03*
X108288000Y-85598000D03*
X106088000Y-85598000D03*
X106088000Y-88138000D03*
%TD*%
D19*
%TO.C,Q4*%
X99095800Y-115333000D03*
X100375800Y-115333000D03*
X101655800Y-115333000D03*
X102935800Y-115333000D03*
D20*
X101015800Y-112263000D03*
%TD*%
D21*
%TO.C,U1*%
X81600000Y-82535000D03*
X81600000Y-83185000D03*
X81600000Y-83835000D03*
X83500000Y-83835000D03*
X83500000Y-82535000D03*
%TD*%
D22*
%TO.C,J5*%
X121683500Y-107185000D03*
X121683500Y-117605000D03*
D23*
X113043500Y-108585000D03*
D24*
X113043500Y-111125000D03*
D25*
X113043500Y-113665000D03*
X113043500Y-116205000D03*
%TD*%
D26*
%TO.C,R14*%
X77089000Y-105979500D03*
X77089000Y-108904500D03*
%TD*%
D19*
%TO.C,Q2*%
X97093800Y-107928000D03*
X95813800Y-107928000D03*
X94533800Y-107928000D03*
X93253800Y-107928000D03*
D27*
X95173800Y-110998000D03*
%TD*%
D28*
%TO.C,R4*%
X103632000Y-85535000D03*
X103632000Y-87185000D03*
%TD*%
D29*
%TO.C,C6*%
X76774000Y-96774000D03*
X78674000Y-96774000D03*
%TD*%
D21*
%TO.C,U11*%
X87816000Y-81387000D03*
X87816000Y-82037000D03*
X87816000Y-82687000D03*
X89716000Y-82687000D03*
X89716000Y-81387000D03*
%TD*%
D28*
%TO.C,R7*%
X89662000Y-93549000D03*
X89662000Y-95199000D03*
%TD*%
D30*
%TO.C,D5*%
X99314000Y-119504000D03*
X99314000Y-122304000D03*
%TD*%
D31*
%TO.C,D4*%
X96712000Y-102616000D03*
X95312000Y-102616000D03*
%TD*%
D10*
%TO.C,C11*%
X106934000Y-104951000D03*
X106934000Y-107901000D03*
%TD*%
D11*
%TO.C,R17*%
X99885000Y-123952000D03*
X98235000Y-123952000D03*
%TD*%
D32*
%TO.C,C7*%
X82738000Y-96774000D03*
X80838000Y-96774000D03*
%TD*%
D31*
%TO.C,D3*%
X92772000Y-102616000D03*
X94172000Y-102616000D03*
%TD*%
D11*
%TO.C,R10*%
X89547200Y-97676000D03*
X87897200Y-97676000D03*
%TD*%
D12*
%TO.C,TP2*%
X108966000Y-116713000D03*
%TD*%
D33*
%TO.C,H2*%
X63500000Y-74500000D03*
%TD*%
D34*
%TO.C,Q5*%
X101919000Y-118999000D03*
X101919000Y-120269000D03*
X101919000Y-121539000D03*
X101919000Y-122809000D03*
X106869000Y-122809000D03*
X106869000Y-121539000D03*
X106869000Y-120269000D03*
X106869000Y-118999000D03*
%TD*%
D35*
%TO.C,R1*%
X99251000Y-80899000D03*
X100901000Y-80899000D03*
%TD*%
D36*
%TO.C,D6*%
X115180000Y-122428000D03*
X110880000Y-122428000D03*
%TD*%
D22*
%TO.C,J3*%
X63217000Y-84630000D03*
X63217000Y-115370000D03*
D23*
X71857000Y-113970000D03*
D25*
X71857000Y-111430000D03*
X71857000Y-108890000D03*
X71857000Y-106350000D03*
X71857000Y-103810000D03*
X71857000Y-101270000D03*
X71857000Y-98730000D03*
X71857000Y-96190000D03*
X71857000Y-93650000D03*
X71857000Y-91110000D03*
X71857000Y-88570000D03*
X71857000Y-86030000D03*
%TD*%
D22*
%TO.C,J4*%
X121670000Y-97660000D03*
X121670000Y-103000000D03*
D23*
X113030000Y-99060000D03*
D25*
X113030000Y-101600000D03*
%TD*%
D12*
%TO.C,TP9*%
X93599000Y-82194400D03*
%TD*%
D37*
%TO.C,R6*%
X83693000Y-91945000D03*
X83693000Y-90295000D03*
%TD*%
D38*
%TO.C,D2*%
X101320600Y-98817200D03*
X101320600Y-100217200D03*
%TD*%
D39*
%TO.C,C8*%
X80505000Y-103632000D03*
X82055000Y-103632000D03*
%TD*%
D37*
%TO.C,R16*%
X97282000Y-121729000D03*
X97282000Y-120079000D03*
%TD*%
D35*
%TO.C,R2*%
X99251000Y-82423000D03*
X100901000Y-82423000D03*
%TD*%
D33*
%TO.C,H8*%
X121500000Y-123500000D03*
%TD*%
D35*
%TO.C,R11*%
X98235000Y-98692000D03*
X99885000Y-98692000D03*
%TD*%
D12*
%TO.C,TP3*%
X74168000Y-123444000D03*
%TD*%
D10*
%TO.C,C9*%
X100330000Y-104951000D03*
X100330000Y-107901000D03*
%TD*%
D15*
%TO.C,C12*%
X80772000Y-108138000D03*
X80772000Y-106238000D03*
%TD*%
D40*
%TO.C,J1*%
X69640000Y-74500000D03*
X115360000Y-74500000D03*
D41*
X68370000Y-75770000D03*
D42*
X68370000Y-77410000D03*
X68370000Y-71590000D03*
D41*
X68370000Y-73230000D03*
D42*
X70910000Y-77410000D03*
D41*
X70910000Y-75770000D03*
X70910000Y-73230000D03*
D42*
X70910000Y-71590000D03*
D41*
X73450000Y-75770000D03*
D42*
X73450000Y-77410000D03*
D41*
X73450000Y-73230000D03*
D42*
X73450000Y-71590000D03*
D41*
X75990000Y-75770000D03*
D42*
X75990000Y-77410000D03*
X75990000Y-71590000D03*
D41*
X75990000Y-73230000D03*
D42*
X78530000Y-77410000D03*
D41*
X78530000Y-75770000D03*
X78530000Y-73230000D03*
D42*
X78530000Y-71590000D03*
X81070000Y-77410000D03*
D41*
X81070000Y-75770000D03*
D42*
X81070000Y-71590000D03*
D41*
X81070000Y-73230000D03*
X83610000Y-75770000D03*
D42*
X83610000Y-77410000D03*
D41*
X83610000Y-73230000D03*
D42*
X83610000Y-71590000D03*
D41*
X86150000Y-75770000D03*
D42*
X86150000Y-77410000D03*
D41*
X86150000Y-73230000D03*
D42*
X86150000Y-71590000D03*
X88690000Y-77410000D03*
D41*
X88690000Y-75770000D03*
X88690000Y-73230000D03*
D42*
X88690000Y-71590000D03*
X91230000Y-77410000D03*
D41*
X91230000Y-75770000D03*
X91230000Y-73230000D03*
D42*
X91230000Y-71590000D03*
X93770000Y-77410000D03*
D41*
X93770000Y-75770000D03*
X93770000Y-73230000D03*
D42*
X93770000Y-71590000D03*
D41*
X96310000Y-75770000D03*
D42*
X96310000Y-77410000D03*
D41*
X96310000Y-73230000D03*
D42*
X96310000Y-71590000D03*
D41*
X98850000Y-75770000D03*
D42*
X98850000Y-77410000D03*
X98850000Y-71590000D03*
D41*
X98850000Y-73230000D03*
X101390000Y-75770000D03*
D42*
X101390000Y-77410000D03*
X101390000Y-71590000D03*
D41*
X101390000Y-73230000D03*
X103930000Y-75770000D03*
D42*
X103930000Y-77410000D03*
D41*
X103930000Y-73230000D03*
D42*
X103930000Y-71590000D03*
X106470000Y-77410000D03*
D41*
X106470000Y-75770000D03*
D42*
X106470000Y-71590000D03*
D41*
X106470000Y-73230000D03*
X109010000Y-75770000D03*
D42*
X109010000Y-77410000D03*
X109010000Y-71590000D03*
D41*
X109010000Y-73230000D03*
X111550000Y-75770000D03*
D42*
X111550000Y-77410000D03*
D41*
X111550000Y-73230000D03*
D42*
X111550000Y-71590000D03*
X114090000Y-77410000D03*
D41*
X114090000Y-75770000D03*
D42*
X114090000Y-71590000D03*
D41*
X114090000Y-73230000D03*
X116630000Y-75770000D03*
D42*
X116630000Y-77410000D03*
D41*
X116630000Y-73230000D03*
D42*
X116630000Y-71590000D03*
%TD*%
D12*
%TO.C,TP6*%
X98933000Y-86487000D03*
%TD*%
D35*
%TO.C,R3*%
X99251000Y-83947000D03*
X100901000Y-83947000D03*
%TD*%
D32*
%TO.C,C5*%
X82738000Y-94615000D03*
X80838000Y-94615000D03*
%TD*%
D43*
%TO.C,C3*%
X92710000Y-95162000D03*
X92710000Y-93612000D03*
%TD*%
D12*
%TO.C,TP4*%
X81788000Y-123444000D03*
%TD*%
D19*
%TO.C,Q3*%
X81569800Y-115333000D03*
X82849800Y-115333000D03*
X84129800Y-115333000D03*
X85409800Y-115333000D03*
D20*
X83489800Y-112263000D03*
%TD*%
D19*
%TO.C,Q1*%
X91251800Y-107928000D03*
X89971800Y-107928000D03*
X88691800Y-107928000D03*
X87411800Y-107928000D03*
D27*
X89331800Y-110998000D03*
%TD*%
D43*
%TO.C,C2*%
X91186000Y-95162000D03*
X91186000Y-93612000D03*
%TD*%
D12*
%TO.C,TP5*%
X89408000Y-123444000D03*
%TD*%
D44*
%TO.C,R5*%
X91247500Y-90551000D03*
X94172500Y-90551000D03*
%TD*%
D45*
%TO.C,C15*%
X106172000Y-113489000D03*
X106172000Y-110539000D03*
%TD*%
D46*
%TO.C,U6*%
X79690000Y-99192500D03*
X78740000Y-99192500D03*
X77790000Y-99192500D03*
X77790000Y-101467500D03*
X78740000Y-101467500D03*
X79690000Y-101467500D03*
%TD*%
D43*
%TO.C,C1*%
X109982000Y-86881000D03*
X109982000Y-85331000D03*
%TD*%
D47*
%TO.C,R13*%
X92329000Y-106046000D03*
X92329000Y-104546000D03*
%TD*%
D48*
%TO.C,U4*%
X108204000Y-93945000D03*
X106934000Y-93945000D03*
X105664000Y-93945000D03*
X104394000Y-93945000D03*
X104394000Y-99095000D03*
X105664000Y-99095000D03*
X106934000Y-99095000D03*
X108204000Y-99095000D03*
%TD*%
D37*
%TO.C,R8*%
X95758000Y-95212000D03*
X95758000Y-93562000D03*
%TD*%
D12*
%TO.C,TP8*%
X113919000Y-80645000D03*
%TD*%
%TO.C,TP1*%
X99822000Y-92456000D03*
%TD*%
D49*
%TO.C,U5*%
X95349000Y-97046000D03*
X94849000Y-97046000D03*
X94349000Y-97046000D03*
X93849000Y-97046000D03*
X93349000Y-97046000D03*
X92849000Y-97046000D03*
X92349000Y-97046000D03*
X91849000Y-97046000D03*
D50*
X91199000Y-97696000D03*
X91199000Y-98196000D03*
X91199000Y-98696000D03*
X91199000Y-99196000D03*
X91199000Y-99696000D03*
X91199000Y-100196000D03*
D49*
X91849000Y-100846000D03*
X92349000Y-100846000D03*
X92849000Y-100846000D03*
X93349000Y-100846000D03*
X93849000Y-100846000D03*
X94349000Y-100846000D03*
X94849000Y-100846000D03*
X95349000Y-100846000D03*
D50*
X95999000Y-100196000D03*
X95999000Y-99696000D03*
X95999000Y-99196000D03*
X95999000Y-98696000D03*
X95999000Y-98196000D03*
X95999000Y-97696000D03*
D51*
X93599000Y-98946000D03*
X95124000Y-98946000D03*
X93599000Y-99971000D03*
X93599000Y-97921000D03*
D52*
X93599000Y-98946000D03*
D51*
X92074000Y-98946000D03*
%TD*%
D33*
%TO.C,H4*%
X121500000Y-74500000D03*
%TD*%
D43*
%TO.C,C4*%
X94234000Y-95162000D03*
X94234000Y-93612000D03*
%TD*%
D22*
%TO.C,J2*%
X121670000Y-93475000D03*
X121670000Y-85595000D03*
D23*
X113030000Y-86995000D03*
D24*
X113030000Y-89535000D03*
D25*
X113030000Y-92075000D03*
%TD*%
D33*
%TO.C,H6*%
X63500000Y-123500000D03*
%TD*%
D26*
%TO.C,R15*%
X77089000Y-112710500D03*
X77089000Y-115635500D03*
%TD*%
D15*
%TO.C,C13*%
X82804000Y-108138000D03*
X82804000Y-106238000D03*
%TD*%
D11*
%TO.C,R12*%
X99885000Y-100216000D03*
X98235000Y-100216000D03*
%TD*%
D53*
%TO.C,L2*%
X94932300Y-117348000D03*
X90081300Y-117348000D03*
%TD*%
D54*
%TO.C,D1*%
X121164000Y-81280000D03*
X118364000Y-81280000D03*
%TD*%
M02*
