G04 start of page 5 for group 5 idx 2 *
G04 Title: RspPiPS, mechanical *
G04 Creator: pcb 4.2.0 *
G04 CreationDate: Sun Jan 23 00:25:27 2022 UTC *
G04 For: debian *
G04 Format: Gerber/RS-274X *
G04 PCB-Dimensions (mil): 10000.00 10000.00 *
G04 PCB-Coordinate-Origin: lower left *
%MOIN*%
%FSLAX25Y25*%
%LNGROUP5*%
%ADD77C,0.0380*%
%ADD76C,0.0453*%
%ADD75C,0.0400*%
%ADD74C,0.0354*%
%ADD73C,0.1181*%
%ADD72C,0.0402*%
%ADD71C,0.1063*%
%ADD70C,0.0200*%
%ADD69C,0.0350*%
%ADD68C,0.0360*%
%ADD67C,0.0600*%
%ADD66C,0.0768*%
%ADD65C,0.0800*%
%ADD64C,0.0630*%
%ADD63C,0.0620*%
%ADD62C,0.0001*%
%ADD61C,0.2362*%
%ADD60C,0.0060*%
%ADD59C,0.0100*%
G54D59*X141732Y791339D02*Y529528D01*
G54D60*Y566929D02*X133858D01*
X155512Y568898D02*Y541339D01*
Y568898D02*X125984D01*
X141732Y533465D02*X143701Y535433D01*
X141732Y533465D02*X143701Y531496D01*
G54D59*X129921Y775591D02*X509843D01*
G54D60*X476378Y763780D02*X486220D01*
X476378Y566929D02*X490157D01*
X174700Y756800D02*X173806Y755906D01*
G54D59*X476383Y789657D02*Y527846D01*
X120079Y555118D02*X509843D01*
G54D60*X383858Y568898D02*Y541339D01*
X155512Y761811D02*X129921D01*
X174700Y756800D02*X129027D01*
G54D59*X108268Y776559D02*X110268D01*
X108268D02*Y774559D01*
X108768Y775059D01*
X109768D01*
X110268Y774559D01*
Y773059D01*
X109768Y772559D02*X110268Y773059D01*
X108768Y772559D02*X109768D01*
X108268Y773059D02*X108768Y772559D01*
X112968Y776559D02*X113468Y776059D01*
X111968Y776559D02*X112968D01*
X111468Y776059D02*X111968Y776559D01*
X111468Y776059D02*Y773059D01*
X111968Y772559D01*
X112968Y774759D02*X113468Y774259D01*
X111468Y774759D02*X112968D01*
X111968Y772559D02*X112968D01*
X113468Y773059D01*
Y774259D02*Y773059D01*
X114668Y772559D02*X115168D01*
X116368Y773059D02*X116868Y772559D01*
X116368Y776059D02*Y773059D01*
Y776059D02*X116868Y776559D01*
X117868D01*
X118368Y776059D01*
Y773059D01*
X117868Y772559D02*X118368Y773059D01*
X116868Y772559D02*X117868D01*
X116368Y773559D02*X118368Y775559D01*
X120068Y774059D02*Y772559D01*
Y774059D02*X120568Y774559D01*
X121068D01*
X121568Y774059D01*
Y772559D01*
Y774059D02*X122068Y774559D01*
X122568D01*
X123068Y774059D01*
Y772559D01*
X119568Y774559D02*X120068Y774059D01*
X124768D02*Y772559D01*
Y774059D02*X125268Y774559D01*
X125768D01*
X126268Y774059D01*
Y772559D01*
Y774059D02*X126768Y774559D01*
X127268D01*
X127768Y774059D01*
Y772559D01*
X124268Y774559D02*X124768Y774059D01*
X108268Y764748D02*X110268D01*
X108268D02*Y762748D01*
X108768Y763248D01*
X109768D01*
X110268Y762748D01*
Y761248D01*
X109768Y760748D02*X110268Y761248D01*
X108768Y760748D02*X109768D01*
X108268Y761248D02*X108768Y760748D01*
X111468Y764248D02*X111968Y764748D01*
X113468D01*
X113968Y764248D01*
Y763248D01*
X111468Y760748D02*X113968Y763248D01*
X111468Y760748D02*X113968D01*
X115168D02*X115668D01*
X116868Y764748D02*X118868D01*
X116868D02*Y762748D01*
X117368Y763248D01*
X118368D01*
X118868Y762748D01*
Y761248D01*
X118368Y760748D02*X118868Y761248D01*
X117368Y760748D02*X118368D01*
X116868Y761248D02*X117368Y760748D01*
X120568Y762248D02*Y760748D01*
Y762248D02*X121068Y762748D01*
X121568D01*
X122068Y762248D01*
Y760748D01*
Y762248D02*X122568Y762748D01*
X123068D01*
X123568Y762248D01*
Y760748D01*
X120068Y762748D02*X120568Y762248D01*
X125268D02*Y760748D01*
Y762248D02*X125768Y762748D01*
X126268D01*
X126768Y762248D01*
Y760748D01*
Y762248D02*X127268Y762748D01*
X127768D01*
X128268Y762248D01*
Y760748D01*
X124768Y762748D02*X125268Y762248D01*
X149606Y539839D02*X150106Y540339D01*
X151106D01*
X151606Y539839D01*
X151106Y536339D02*X151606Y536839D01*
X150106Y536339D02*X151106D01*
X149606Y536839D02*X150106Y536339D01*
Y538539D02*X151106D01*
X151606Y539839D02*Y539039D01*
Y538039D02*Y536839D01*
Y538039D02*X151106Y538539D01*
X151606Y539039D02*X151106Y538539D01*
X152806Y536339D02*X153306D01*
X154506Y540339D02*X156506D01*
X154506D02*Y538339D01*
X155006Y538839D01*
X156006D01*
X156506Y538339D01*
Y536839D01*
X156006Y536339D02*X156506Y536839D01*
X155006Y536339D02*X156006D01*
X154506Y536839D02*X155006Y536339D01*
X158206Y537839D02*Y536339D01*
Y537839D02*X158706Y538339D01*
X159206D01*
X159706Y537839D01*
Y536339D01*
Y537839D02*X160206Y538339D01*
X160706D01*
X161206Y537839D01*
Y536339D01*
X157706Y538339D02*X158206Y537839D01*
X162906D02*Y536339D01*
Y537839D02*X163406Y538339D01*
X163906D01*
X164406Y537839D01*
Y536339D01*
Y537839D02*X164906Y538339D01*
X165406D01*
X165906Y537839D01*
Y536339D01*
X162406Y538339D02*X162906Y537839D01*
X135827Y523059D02*X136327Y522559D01*
X135827Y526059D02*Y523059D01*
Y526059D02*X136327Y526559D01*
X137327D01*
X137827Y526059D01*
Y523059D01*
X137327Y522559D02*X137827Y523059D01*
X136327Y522559D02*X137327D01*
X135827Y523559D02*X137827Y525559D01*
X139527Y524059D02*Y522559D01*
Y524059D02*X140027Y524559D01*
X140527D01*
X141027Y524059D01*
Y522559D01*
Y524059D02*X141527Y524559D01*
X142027D01*
X142527Y524059D01*
Y522559D01*
X139027Y524559D02*X139527Y524059D01*
X144227D02*Y522559D01*
Y524059D02*X144727Y524559D01*
X145227D01*
X145727Y524059D01*
Y522559D01*
Y524059D02*X146227Y524559D01*
X146727D01*
X147227Y524059D01*
Y522559D01*
X143727Y524559D02*X144227Y524059D01*
X106299Y552587D02*X106799Y552087D01*
X106299Y555587D02*Y552587D01*
Y555587D02*X106799Y556087D01*
X107799D01*
X108299Y555587D01*
Y552587D01*
X107799Y552087D02*X108299Y552587D01*
X106799Y552087D02*X107799D01*
X106299Y553087D02*X108299Y555087D01*
X109999Y553587D02*Y552087D01*
Y553587D02*X110499Y554087D01*
X110999D01*
X111499Y553587D01*
Y552087D01*
Y553587D02*X111999Y554087D01*
X112499D01*
X112999Y553587D01*
Y552087D01*
X109499Y554087D02*X109999Y553587D01*
X114699D02*Y552087D01*
Y553587D02*X115199Y554087D01*
X115699D01*
X116199Y553587D01*
Y552087D01*
Y553587D02*X116699Y554087D01*
X117199D01*
X117699Y553587D01*
Y552087D01*
X114199Y554087D02*X114699Y553587D01*
X379453Y540339D02*X379953Y539839D01*
X378453Y540339D02*X379453D01*
X377953Y539839D02*X378453Y540339D01*
X377953Y539839D02*Y536839D01*
X378453Y536339D01*
X379453Y538539D02*X379953Y538039D01*
X377953Y538539D02*X379453D01*
X378453Y536339D02*X379453D01*
X379953Y536839D01*
Y538039D02*Y536839D01*
X381153Y539539D02*X381953Y540339D01*
Y536339D01*
X381153D02*X382653D01*
X383853D02*X384353D01*
X385553Y540339D02*X387553D01*
X385553D02*Y538339D01*
X386053Y538839D01*
X387053D01*
X387553Y538339D01*
Y536839D01*
X387053Y536339D02*X387553Y536839D01*
X386053Y536339D02*X387053D01*
X385553Y536839D02*X386053Y536339D01*
X389253Y537839D02*Y536339D01*
Y537839D02*X389753Y538339D01*
X390253D01*
X390753Y537839D01*
Y536339D01*
Y537839D02*X391253Y538339D01*
X391753D01*
X392253Y537839D01*
Y536339D01*
X388753Y538339D02*X389253Y537839D01*
X393953D02*Y536339D01*
Y537839D02*X394453Y538339D01*
X394953D01*
X395453Y537839D01*
Y536339D01*
Y537839D02*X395953Y538339D01*
X396453D01*
X396953Y537839D01*
Y536339D01*
X393453Y538339D02*X393953Y537839D01*
X108268Y569366D02*X108768Y569866D01*
X109768D01*
X110268Y569366D01*
X109768Y565866D02*X110268Y566366D01*
X108768Y565866D02*X109768D01*
X108268Y566366D02*X108768Y565866D01*
Y568066D02*X109768D01*
X110268Y569366D02*Y568566D01*
Y567566D02*Y566366D01*
Y567566D02*X109768Y568066D01*
X110268Y568566D02*X109768Y568066D01*
X111468Y565866D02*X111968D01*
X113168Y569866D02*X115168D01*
X113168D02*Y567866D01*
X113668Y568366D01*
X114668D01*
X115168Y567866D01*
Y566366D01*
X114668Y565866D02*X115168Y566366D01*
X113668Y565866D02*X114668D01*
X113168Y566366D02*X113668Y565866D01*
X116868Y567366D02*Y565866D01*
Y567366D02*X117368Y567866D01*
X117868D01*
X118368Y567366D01*
Y565866D01*
Y567366D02*X118868Y567866D01*
X119368D01*
X119868Y567366D01*
Y565866D01*
X116368Y567866D02*X116868Y567366D01*
X121568D02*Y565866D01*
Y567366D02*X122068Y567866D01*
X122568D01*
X123068Y567366D01*
Y565866D01*
Y567366D02*X123568Y567866D01*
X124068D01*
X124568Y567366D01*
Y565866D01*
X121068Y567866D02*X121568Y567366D01*
X469800Y521690D02*X470290Y521200D01*
X469800Y522474D02*Y521690D01*
Y522474D02*X470486Y523160D01*
X471074D01*
X471760Y522474D01*
Y521690D01*
X471270Y521200D02*X471760Y521690D01*
X470290Y521200D02*X471270D01*
X469800Y523846D02*X470486Y523160D01*
X469800Y524630D02*Y523846D01*
Y524630D02*X470290Y525120D01*
X471270D01*
X471760Y524630D01*
Y523846D01*
X471074Y523160D02*X471760Y523846D01*
X472936Y525120D02*X474896D01*
X472936D02*Y523160D01*
X473426Y523650D01*
X474406D01*
X474896Y523160D01*
Y521690D01*
X474406Y521200D02*X474896Y521690D01*
X473426Y521200D02*X474406D01*
X472936Y521690D02*X473426Y521200D01*
X476562Y522670D02*Y521200D01*
Y522670D02*X477052Y523160D01*
X477542D01*
X478032Y522670D01*
Y521200D01*
Y522670D02*X478522Y523160D01*
X479012D01*
X479502Y522670D01*
Y521200D01*
X476072Y523160D02*X476562Y522670D01*
X481168D02*Y521200D01*
Y522670D02*X481658Y523160D01*
X482148D01*
X482638Y522670D01*
Y521200D01*
Y522670D02*X483128Y523160D01*
X483618D01*
X484108Y522670D01*
Y521200D01*
X480678Y523160D02*X481168Y522670D01*
G54D61*X383858Y761811D03*
G54D62*G36*
X438361Y753246D02*Y747046D01*
X444561D01*
Y753246D01*
X438361D01*
G37*
G54D63*X441461Y738335D03*
Y726524D03*
Y714713D03*
Y702902D03*
Y691091D03*
Y679280D03*
X429650Y750146D03*
Y738335D03*
Y726524D03*
Y714713D03*
Y702902D03*
Y691091D03*
Y679280D03*
G54D61*X383858Y568898D03*
G54D64*X267000Y605390D03*
Y591610D03*
X295949Y583768D03*
Y569988D03*
G54D65*X394736Y618866D03*
G54D64*X407236Y648756D03*
Y634976D03*
G54D66*X436736Y621189D03*
X464295D03*
Y634969D03*
X436736D03*
G54D61*X155512Y761811D03*
G54D62*G36*
X171700Y759800D02*Y753800D01*
X177700D01*
Y759800D01*
X171700D01*
G37*
G54D67*X174700Y766800D03*
X184700Y756800D03*
Y766800D03*
G54D65*X188000Y732000D03*
G54D64*X180535Y709276D03*
X166756D03*
G54D65*X164961Y732283D03*
G54D61*X155512Y568898D03*
G54D64*X219425Y605799D03*
X205646D03*
G54D65*X159500Y596000D03*
X179500D03*
G54D67*X194700Y756800D03*
X204700D03*
X214700D03*
X194700Y766800D03*
X204700D03*
X214700D03*
X224700Y756800D03*
X234700D03*
X244700D03*
X254700D03*
X224700Y766800D03*
X234700D03*
X244700D03*
X254700D03*
X264700Y756800D03*
X274700D03*
X284700D03*
X264700Y766800D03*
X274700D03*
X284700D03*
X294700D03*
X304700D03*
X314700D03*
X294700Y756800D03*
X304700D03*
X314700D03*
X324700D03*
Y766800D03*
X334700Y756800D03*
X344700D03*
X354700D03*
X364700D03*
X334700Y766800D03*
X344700D03*
X354700D03*
X364700D03*
X219500Y623000D03*
X225072Y614428D03*
G54D68*X246000Y624500D03*
X256000D03*
G54D67*X232500Y622500D03*
X240000Y623000D03*
X273500Y619000D03*
Y613000D03*
X295500Y598500D03*
X302000D03*
X289000D03*
G54D68*X329500Y598000D03*
X322500Y599000D03*
G54D67*X305500Y668000D03*
X292500D03*
X299000D03*
X285500D03*
G54D68*X274000Y643000D03*
X322500Y619500D03*
X304500Y604000D03*
X396236Y606366D03*
X365000Y610000D03*
X373000Y640000D03*
X343000Y604000D03*
X346000Y638500D03*
G54D67*X208000Y693500D03*
X209000Y676000D03*
Y682000D03*
X225984Y690551D03*
X209000Y641500D03*
X262500Y676000D03*
Y682000D03*
Y670000D03*
Y664000D03*
Y658000D03*
X209000D03*
Y647500D03*
Y664000D03*
Y670000D03*
X297602Y729209D03*
X309600Y734400D03*
X305000Y728400D03*
G54D68*X309800Y748600D03*
X412598Y738976D03*
Y744094D03*
X416654Y723110D03*
X391800Y702300D03*
X396700Y704600D03*
X414961Y718110D03*
X391800Y743700D03*
Y723300D03*
X392000Y729000D03*
X358500Y740000D03*
X392000Y708200D03*
X391900Y687200D03*
G54D67*X192000Y747500D03*
X186000Y743500D03*
X174500D03*
X180000Y747500D03*
X169000D03*
X244488Y690551D03*
X244874Y724740D03*
X270098Y698272D03*
G54D69*G54D70*G54D69*G54D70*G54D69*G54D70*G54D69*G54D70*G54D69*G54D71*G54D72*G54D73*G54D72*G54D73*G54D72*G54D71*G54D74*G54D75*G54D74*G54D76*G54D71*G54D77*G54D75*G54D74*G54D75*G54D71*G54D74*G54D75*G54D77*M02*
