%TF.GenerationSoftware,KiCad,Pcbnew,6.0.1-79c1e3a40b~116~ubuntu20.04.1*%
%TF.CreationDate,2022-01-23T15:23:11-08:00*%
%TF.ProjectId,led-ring-driver,6c65642d-7269-46e6-972d-647269766572,rev?*%
%TF.SameCoordinates,Original*%
%TF.FileFunction,Copper,L2,Inr*%
%TF.FilePolarity,Positive*%
%FSLAX46Y46*%
G04 Gerber Fmt 4.6, Leading zero omitted, Abs format (unit mm)*
G04 Created by KiCad (PCBNEW 6.0.1-79c1e3a40b~116~ubuntu20.04.1) date 2022-01-23 15:23:11*
%MOMM*%
%LPD*%
G01*
G04 APERTURE LIST*
%ADD10C,0.300000*%
%TA.AperFunction,NonConductor*%
%ADD11C,0.300000*%
%TD*%
%TA.AperFunction,ComponentPad*%
%ADD12R,1.520000X1.520000*%
%TD*%
%TA.AperFunction,ComponentPad*%
%ADD13C,1.520000*%
%TD*%
%TA.AperFunction,ComponentPad*%
%ADD14C,1.200000*%
%TD*%
%TA.AperFunction,ComponentPad*%
%ADD15R,1.200000X1.200000*%
%TD*%
%TA.AperFunction,ViaPad*%
%ADD16C,1.143000*%
%TD*%
G04 APERTURE END LIST*
D10*
D11*
X150320428Y-119463428D02*
X150391857Y-119392000D01*
X150534714Y-119320571D01*
X150891857Y-119320571D01*
X151034714Y-119392000D01*
X151106142Y-119463428D01*
X151177571Y-119606285D01*
X151177571Y-119749142D01*
X151106142Y-119963428D01*
X150249000Y-120820571D01*
X151177571Y-120820571D01*
D12*
%TO.N,/PWM_H*%
%TO.C,J1*%
X154493501Y-112643001D03*
D13*
%TO.N,/PWM_L*%
X151493502Y-112643001D03*
%TO.N,/VIN*%
X148493503Y-112643001D03*
%TO.N,/DISABLE_H*%
X154493501Y-109643002D03*
%TO.N,/DISABLE_L*%
X151493502Y-109643002D03*
%TO.N,GND*%
X148493503Y-109643002D03*
%TD*%
D14*
%TO.N,GND*%
%TO.C,C1*%
X131572000Y-85765000D03*
D15*
%TO.N,/Boost Converter/+15V*%
X131572000Y-90765000D03*
%TD*%
D16*
%TO.N,/VIN*%
X142875000Y-111252000D03*
%TO.N,GND*%
X169291000Y-103505000D03*
X137160000Y-84709000D03*
X172212000Y-95377000D03*
X131953000Y-99060000D03*
X136505433Y-89808567D03*
X132016000Y-102362000D03*
X138303000Y-112776000D03*
X133350000Y-109855000D03*
X141443000Y-74803000D03*
X161417000Y-75438000D03*
X161925000Y-66929000D03*
X136652000Y-101981000D03*
X141824000Y-68580000D03*
X142748000Y-77851000D03*
X167005000Y-97790000D03*
X159766000Y-114935000D03*
X137795000Y-88011000D03*
X163830000Y-80010000D03*
X133731000Y-99060000D03*
X159766000Y-117475000D03*
X142748000Y-102235000D03*
X168902855Y-109257533D03*
X140589000Y-108204000D03*
X159766000Y-112395000D03*
%TO.N,+5V*%
X135255000Y-88011000D03*
X172085000Y-97790000D03*
X165325500Y-68580000D03*
X173990000Y-105410000D03*
X146650000Y-68707000D03*
X134239000Y-84709000D03*
X138811000Y-93726000D03*
X142748000Y-103632000D03*
%TO.N,/Boost Converter/+15V*%
X149839998Y-76835000D03*
X133985000Y-96012000D03*
X136525000Y-95123000D03*
X165608000Y-85344000D03*
X131445000Y-96139000D03*
X153797000Y-101600000D03*
X142113000Y-91567000D03*
X157607000Y-113411000D03*
%TO.N,Net-(D2-Pad2)*%
X136525000Y-116205000D03*
%TO.N,/LED Current Regulator/LED1_NEG*%
X135509000Y-74422000D03*
X143129000Y-85979000D03*
X134366000Y-74422000D03*
X135001000Y-73533000D03*
X137607500Y-79375000D03*
X137668000Y-80518000D03*
X136474200Y-79375000D03*
%TO.N,/LED Current Regulator/LED2_NEG*%
X152492000Y-73025000D03*
X149352000Y-79756000D03*
X152492000Y-74133000D03*
X152527000Y-71882000D03*
%TO.N,/LED Current Regulator/LED3_NEG*%
X154432000Y-73025000D03*
X161036000Y-90932000D03*
X154432000Y-71882000D03*
X154432000Y-74168000D03*
%TO.N,/LED Current Regulator/LED4_NEG*%
X166941500Y-80264000D03*
X168097200Y-80238600D03*
X165785800Y-80264000D03*
X170789600Y-93726000D03*
X149606000Y-98196400D03*
%TO.N,Net-(D20-Pad2)*%
X168656000Y-113665000D03*
%TO.N,Net-(D21-Pad2)*%
X164084000Y-119380000D03*
%TO.N,/PWM_H*%
X158750000Y-103759000D03*
%TO.N,/PWM_L*%
X156845000Y-103632000D03*
%TO.N,/DISABLE_H*%
X158707998Y-109643002D03*
%TO.N,/DISABLE_L*%
X160909000Y-99568000D03*
%TO.N,Net-(Q7-Pad1)*%
X169164000Y-107885665D03*
%TO.N,/Boost Converter/V_P*%
X131445000Y-112776000D03*
X129286000Y-92456000D03*
%TO.N,Net-(C6-Pad1)*%
X173990000Y-103505000D03*
%TO.N,Net-(C11-Pad1)*%
X140013470Y-102119990D03*
%TO.N,Net-(Q10-Pad2)*%
X144999000Y-72390000D03*
X148809000Y-75057000D03*
%TO.N,Net-(C12-Pad1)*%
X137541000Y-107696000D03*
%TO.N,Net-(Q11-Pad2)*%
X139954000Y-75819000D03*
X143094489Y-71306466D03*
%TO.N,Net-(Q5-Pad2)*%
X159321500Y-75184000D03*
X161836010Y-70373776D03*
%TO.N,Net-(Q6-Pad2)*%
X164973000Y-75311000D03*
X163512500Y-71755000D03*
%TO.N,Net-(Q7-Pad3)*%
X163703000Y-65659000D03*
X174117000Y-94361000D03*
X143834066Y-70080572D03*
X162869000Y-74930000D03*
%TO.N,Net-(R29-Pad1)*%
X160274000Y-68326000D03*
%TO.N,Net-(C15-Pad1)*%
X134366000Y-93599000D03*
%TO.N,Net-(R1-Pad1)*%
X139446000Y-69850000D03*
X133096000Y-75819000D03*
%TO.N,Net-(R11-Pad2)*%
X169037000Y-101727000D03*
%TO.N,Net-(R3-Pad2)*%
X140208000Y-98552000D03*
%TO.N,Net-(R30-Pad1)*%
X145125500Y-70612000D03*
X147066000Y-67310000D03*
%TO.N,Net-(R13-Pad2)*%
X164846000Y-110490000D03*
%TO.N,Net-(R14-Pad1)*%
X167865500Y-70485000D03*
%TO.N,Net-(R17-Pad1)*%
X168910000Y-99695000D03*
%TO.N,Net-(Q1-Pad1)*%
X136652000Y-104902000D03*
%TO.N,Net-(R33-Pad2)*%
X140590000Y-97028000D03*
%TD*%
%TA.AperFunction,Conductor*%
%TO.N,GND*%
G36*
X161946835Y-64778398D02*
G01*
X162763635Y-65092552D01*
X162820035Y-65135675D01*
X162844168Y-65202444D01*
X162828820Y-65270852D01*
X162825795Y-65276355D01*
X162825792Y-65276361D01*
X162822826Y-65281757D01*
X162820965Y-65287624D01*
X162820964Y-65287626D01*
X162794571Y-65370829D01*
X162766315Y-65459901D01*
X162745482Y-65645630D01*
X162761121Y-65831867D01*
X162812636Y-66011520D01*
X162898064Y-66177746D01*
X162901887Y-66182570D01*
X162901890Y-66182574D01*
X162972802Y-66272042D01*
X163014152Y-66324212D01*
X163018846Y-66328207D01*
X163138621Y-66430144D01*
X163156478Y-66445342D01*
X163319621Y-66536519D01*
X163497367Y-66594272D01*
X163682945Y-66616401D01*
X163689080Y-66615929D01*
X163689082Y-66615929D01*
X163745119Y-66611617D01*
X163869287Y-66602063D01*
X164049296Y-66551804D01*
X164054785Y-66549031D01*
X164054791Y-66549029D01*
X164140267Y-66505851D01*
X164216114Y-66467538D01*
X164244524Y-66445342D01*
X164276477Y-66420377D01*
X164363387Y-66352475D01*
X164367413Y-66347811D01*
X164367416Y-66347808D01*
X164481480Y-66215663D01*
X164485507Y-66210998D01*
X164577821Y-66048495D01*
X164592091Y-66005600D01*
X164612318Y-65944794D01*
X164652800Y-65886470D01*
X164718388Y-65859290D01*
X164777106Y-65866964D01*
X169342725Y-67622971D01*
X170099231Y-67913935D01*
X170155631Y-67957058D01*
X170179764Y-68023827D01*
X170180000Y-68031537D01*
X170180000Y-82550000D01*
X175769000Y-82550000D01*
X175837121Y-82570002D01*
X175883614Y-82623658D01*
X175895000Y-82676000D01*
X175895000Y-114809000D01*
X175874998Y-114877121D01*
X175821342Y-114923614D01*
X175769000Y-114935000D01*
X170180000Y-114935000D01*
X170180000Y-120524000D01*
X170159998Y-120592121D01*
X170106342Y-120638614D01*
X170054000Y-120650000D01*
X155066000Y-120650000D01*
X154997879Y-120629998D01*
X154951386Y-120576342D01*
X154940000Y-120524000D01*
X154940000Y-119366630D01*
X163126482Y-119366630D01*
X163142121Y-119552867D01*
X163193636Y-119732520D01*
X163279064Y-119898746D01*
X163282887Y-119903570D01*
X163282890Y-119903574D01*
X163373333Y-120017683D01*
X163395152Y-120045212D01*
X163399846Y-120049207D01*
X163432819Y-120077269D01*
X163537478Y-120166342D01*
X163700621Y-120257519D01*
X163878367Y-120315272D01*
X164063945Y-120337401D01*
X164070080Y-120336929D01*
X164070082Y-120336929D01*
X164126119Y-120332617D01*
X164250287Y-120323063D01*
X164430296Y-120272804D01*
X164435785Y-120270031D01*
X164435791Y-120270029D01*
X164513159Y-120230947D01*
X164597114Y-120188538D01*
X164613855Y-120175459D01*
X164649486Y-120147621D01*
X164744387Y-120073475D01*
X164748413Y-120068811D01*
X164748416Y-120068808D01*
X164862480Y-119936663D01*
X164866507Y-119931998D01*
X164958821Y-119769495D01*
X164973091Y-119726600D01*
X165015867Y-119598009D01*
X165017814Y-119592157D01*
X165039091Y-119423737D01*
X165040796Y-119410241D01*
X165040797Y-119410232D01*
X165041238Y-119406738D01*
X165041611Y-119380000D01*
X165023373Y-119193999D01*
X165019419Y-119180901D01*
X164971136Y-119020983D01*
X164969355Y-119015083D01*
X164881615Y-118850066D01*
X164868727Y-118834264D01*
X164767388Y-118710010D01*
X164767385Y-118710007D01*
X164763493Y-118705235D01*
X164758744Y-118701306D01*
X164624239Y-118590034D01*
X164624236Y-118590032D01*
X164619489Y-118586105D01*
X164455089Y-118497214D01*
X164365821Y-118469581D01*
X164282441Y-118443770D01*
X164282438Y-118443769D01*
X164276554Y-118441948D01*
X164270429Y-118441304D01*
X164270428Y-118441304D01*
X164096813Y-118423056D01*
X164096812Y-118423056D01*
X164090685Y-118422412D01*
X163972087Y-118433206D01*
X163910703Y-118438792D01*
X163910702Y-118438792D01*
X163904562Y-118439351D01*
X163898648Y-118441092D01*
X163898646Y-118441092D01*
X163776466Y-118477052D01*
X163725273Y-118492119D01*
X163559647Y-118578705D01*
X163413995Y-118695813D01*
X163293862Y-118838981D01*
X163290899Y-118844370D01*
X163290896Y-118844375D01*
X163260889Y-118898959D01*
X163203826Y-119002757D01*
X163147315Y-119180901D01*
X163126482Y-119366630D01*
X154940000Y-119366630D01*
X154940000Y-114300000D01*
X147955000Y-114300000D01*
X147955000Y-120524000D01*
X147934998Y-120592121D01*
X147881342Y-120638614D01*
X147829000Y-120650000D01*
X133476000Y-120650000D01*
X133407879Y-120629998D01*
X133361386Y-120576342D01*
X133350000Y-120524000D01*
X133350000Y-116191630D01*
X135567482Y-116191630D01*
X135567998Y-116197774D01*
X135578767Y-116326013D01*
X135583121Y-116377867D01*
X135634636Y-116557520D01*
X135720064Y-116723746D01*
X135723887Y-116728570D01*
X135723890Y-116728574D01*
X135815153Y-116843718D01*
X135836152Y-116870212D01*
X135840846Y-116874207D01*
X135873819Y-116902269D01*
X135978478Y-116991342D01*
X136141621Y-117082519D01*
X136319367Y-117140272D01*
X136504945Y-117162401D01*
X136511080Y-117161929D01*
X136511082Y-117161929D01*
X136567119Y-117157617D01*
X136691287Y-117148063D01*
X136871296Y-117097804D01*
X136876785Y-117095031D01*
X136876791Y-117095029D01*
X136954159Y-117055947D01*
X137038114Y-117013538D01*
X137048019Y-117005800D01*
X137157580Y-116920200D01*
X137185387Y-116898475D01*
X137189413Y-116893811D01*
X137189416Y-116893808D01*
X137303480Y-116761663D01*
X137307507Y-116756998D01*
X137399821Y-116594495D01*
X137414091Y-116551600D01*
X137456867Y-116423009D01*
X137458814Y-116417157D01*
X137473685Y-116299441D01*
X137481796Y-116235241D01*
X137481797Y-116235232D01*
X137482238Y-116231738D01*
X137482611Y-116205000D01*
X137464373Y-116018999D01*
X137460419Y-116005901D01*
X137441760Y-115944103D01*
X137410355Y-115840083D01*
X137322615Y-115675066D01*
X137220671Y-115550071D01*
X137208388Y-115535010D01*
X137208385Y-115535007D01*
X137204493Y-115530235D01*
X137199744Y-115526306D01*
X137065239Y-115415034D01*
X137065236Y-115415032D01*
X137060489Y-115411105D01*
X136896089Y-115322214D01*
X136806821Y-115294581D01*
X136723441Y-115268770D01*
X136723438Y-115268769D01*
X136717554Y-115266948D01*
X136711429Y-115266304D01*
X136711428Y-115266304D01*
X136537813Y-115248056D01*
X136537812Y-115248056D01*
X136531685Y-115247412D01*
X136413087Y-115258206D01*
X136351703Y-115263792D01*
X136351702Y-115263792D01*
X136345562Y-115264351D01*
X136339648Y-115266092D01*
X136339646Y-115266092D01*
X136217466Y-115302052D01*
X136166273Y-115317119D01*
X136000647Y-115403705D01*
X135854995Y-115520813D01*
X135734862Y-115663981D01*
X135731899Y-115669370D01*
X135731896Y-115669375D01*
X135725389Y-115681212D01*
X135644826Y-115827757D01*
X135588315Y-116005901D01*
X135567482Y-116191630D01*
X133350000Y-116191630D01*
X133350000Y-114935000D01*
X127761000Y-114935000D01*
X127692879Y-114914998D01*
X127646386Y-114861342D01*
X127635000Y-114809000D01*
X127635000Y-112762630D01*
X130487482Y-112762630D01*
X130487998Y-112768774D01*
X130500369Y-112916089D01*
X130503121Y-112948867D01*
X130554636Y-113128520D01*
X130597000Y-113210951D01*
X130633700Y-113282362D01*
X130640064Y-113294746D01*
X130643887Y-113299570D01*
X130643890Y-113299574D01*
X130716796Y-113391557D01*
X130756152Y-113441212D01*
X130760846Y-113445207D01*
X130860336Y-113529880D01*
X130898478Y-113562342D01*
X131061621Y-113653519D01*
X131239367Y-113711272D01*
X131424945Y-113733401D01*
X131431080Y-113732929D01*
X131431082Y-113732929D01*
X131487119Y-113728617D01*
X131611287Y-113719063D01*
X131791296Y-113668804D01*
X131796785Y-113666031D01*
X131796791Y-113666029D01*
X131874159Y-113626947D01*
X131958114Y-113584538D01*
X131986524Y-113562342D01*
X132022911Y-113533913D01*
X132105387Y-113469475D01*
X132109413Y-113464811D01*
X132109416Y-113464808D01*
X132223480Y-113332663D01*
X132227507Y-113327998D01*
X132319821Y-113165495D01*
X132328134Y-113140507D01*
X132365439Y-113028362D01*
X132378814Y-112988157D01*
X132389331Y-112904906D01*
X132401796Y-112806241D01*
X132401797Y-112806232D01*
X132402238Y-112802738D01*
X132402611Y-112776000D01*
X132386628Y-112612992D01*
X147347506Y-112612992D01*
X147361227Y-112822336D01*
X147412868Y-113025674D01*
X147500700Y-113216196D01*
X147504033Y-113220912D01*
X147583011Y-113332663D01*
X147621781Y-113387522D01*
X147772056Y-113533913D01*
X147946493Y-113650468D01*
X147951796Y-113652746D01*
X147951799Y-113652748D01*
X147982712Y-113666029D01*
X148139249Y-113733283D01*
X148343869Y-113779583D01*
X148349643Y-113779810D01*
X148349644Y-113779810D01*
X148387138Y-113781283D01*
X148553500Y-113787820D01*
X148657311Y-113772768D01*
X148755408Y-113758545D01*
X148755413Y-113758544D01*
X148761122Y-113757716D01*
X148766586Y-113755861D01*
X148766591Y-113755860D01*
X148954310Y-113692138D01*
X148954315Y-113692136D01*
X148959782Y-113690280D01*
X149142825Y-113587771D01*
X149304123Y-113453621D01*
X149438273Y-113292323D01*
X149532549Y-113123981D01*
X149537958Y-113114323D01*
X149537959Y-113114321D01*
X149540782Y-113109280D01*
X149542638Y-113103813D01*
X149542640Y-113103808D01*
X149606362Y-112916089D01*
X149606363Y-112916084D01*
X149608218Y-112910620D01*
X149609046Y-112904911D01*
X149609047Y-112904906D01*
X149633503Y-112736235D01*
X149638322Y-112702998D01*
X149639893Y-112643001D01*
X149637136Y-112612992D01*
X150347505Y-112612992D01*
X150361226Y-112822336D01*
X150412867Y-113025674D01*
X150500699Y-113216196D01*
X150504032Y-113220912D01*
X150583010Y-113332663D01*
X150621780Y-113387522D01*
X150772055Y-113533913D01*
X150946492Y-113650468D01*
X150951795Y-113652746D01*
X150951798Y-113652748D01*
X150982711Y-113666029D01*
X151139248Y-113733283D01*
X151343868Y-113779583D01*
X151349642Y-113779810D01*
X151349643Y-113779810D01*
X151387137Y-113781283D01*
X151553499Y-113787820D01*
X151657310Y-113772768D01*
X151755407Y-113758545D01*
X151755412Y-113758544D01*
X151761121Y-113757716D01*
X151766585Y-113755861D01*
X151766590Y-113755860D01*
X151954309Y-113692138D01*
X151954314Y-113692136D01*
X151959781Y-113690280D01*
X152142824Y-113587771D01*
X152304122Y-113453621D01*
X152316150Y-113439159D01*
X153352001Y-113439159D01*
X153352671Y-113443707D01*
X153352671Y-113443714D01*
X153361613Y-113504460D01*
X153363039Y-113514145D01*
X153367354Y-113522933D01*
X153367354Y-113522934D01*
X153413557Y-113617037D01*
X153419014Y-113628152D01*
X153508900Y-113717881D01*
X153518256Y-113722454D01*
X153518257Y-113722455D01*
X153555136Y-113740481D01*
X153623004Y-113773656D01*
X153654885Y-113778307D01*
X153692817Y-113783841D01*
X153692821Y-113783841D01*
X153697343Y-113784501D01*
X155289659Y-113784501D01*
X155294207Y-113783831D01*
X155294214Y-113783831D01*
X155354960Y-113774889D01*
X155354962Y-113774888D01*
X155364645Y-113773463D01*
X155373434Y-113769148D01*
X155469304Y-113722078D01*
X155469305Y-113722077D01*
X155478652Y-113717488D01*
X155568381Y-113627602D01*
X155624156Y-113513498D01*
X155634119Y-113445207D01*
X155634341Y-113443685D01*
X155634341Y-113443681D01*
X155635001Y-113439159D01*
X155635001Y-113397630D01*
X156649482Y-113397630D01*
X156649998Y-113403774D01*
X156661196Y-113537123D01*
X156665121Y-113583867D01*
X156716636Y-113763520D01*
X156738392Y-113805852D01*
X156778045Y-113883009D01*
X156802064Y-113929746D01*
X156805887Y-113934570D01*
X156805890Y-113934574D01*
X156866941Y-114011600D01*
X156918152Y-114076212D01*
X156922846Y-114080207D01*
X157050176Y-114188574D01*
X157060478Y-114197342D01*
X157223621Y-114288519D01*
X157401367Y-114346272D01*
X157586945Y-114368401D01*
X157593080Y-114367929D01*
X157593082Y-114367929D01*
X157649119Y-114363617D01*
X157773287Y-114354063D01*
X157953296Y-114303804D01*
X157958785Y-114301031D01*
X157958791Y-114301029D01*
X158036159Y-114261947D01*
X158120114Y-114219538D01*
X158148524Y-114197342D01*
X158172936Y-114178269D01*
X158267387Y-114104475D01*
X158271413Y-114099811D01*
X158271416Y-114099808D01*
X158385480Y-113967663D01*
X158389507Y-113962998D01*
X158481821Y-113800495D01*
X158486038Y-113787820D01*
X158519424Y-113687456D01*
X158531342Y-113651630D01*
X167698482Y-113651630D01*
X167698998Y-113657774D01*
X167711433Y-113805852D01*
X167714121Y-113837867D01*
X167765636Y-114017520D01*
X167787392Y-114059852D01*
X167810325Y-114104475D01*
X167851064Y-114183746D01*
X167854887Y-114188570D01*
X167854890Y-114188574D01*
X167931723Y-114285512D01*
X167967152Y-114330212D01*
X167971846Y-114334207D01*
X168012024Y-114368401D01*
X168109478Y-114451342D01*
X168272621Y-114542519D01*
X168450367Y-114600272D01*
X168635945Y-114622401D01*
X168642080Y-114621929D01*
X168642082Y-114621929D01*
X168698119Y-114617617D01*
X168822287Y-114608063D01*
X169002296Y-114557804D01*
X169007785Y-114555031D01*
X169007791Y-114555029D01*
X169085159Y-114515947D01*
X169169114Y-114473538D01*
X169197524Y-114451342D01*
X169303682Y-114368401D01*
X169316387Y-114358475D01*
X169320413Y-114353811D01*
X169320416Y-114353808D01*
X169434480Y-114221663D01*
X169438507Y-114216998D01*
X169518484Y-114076212D01*
X169527778Y-114059852D01*
X169527779Y-114059851D01*
X169530821Y-114054495D01*
X169545091Y-114011600D01*
X169587867Y-113883009D01*
X169589814Y-113877157D01*
X169602734Y-113774889D01*
X169612796Y-113695241D01*
X169612797Y-113695232D01*
X169613238Y-113691738D01*
X169613611Y-113665000D01*
X169595373Y-113478999D01*
X169591419Y-113465901D01*
X169549783Y-113327998D01*
X169541355Y-113300083D01*
X169453615Y-113135066D01*
X169440727Y-113119264D01*
X169339388Y-112995010D01*
X169339385Y-112995007D01*
X169335493Y-112990235D01*
X169330744Y-112986306D01*
X169196239Y-112875034D01*
X169196236Y-112875032D01*
X169191489Y-112871105D01*
X169027089Y-112782214D01*
X168893981Y-112741010D01*
X168854441Y-112728770D01*
X168854438Y-112728769D01*
X168848554Y-112726948D01*
X168842429Y-112726304D01*
X168842428Y-112726304D01*
X168668813Y-112708056D01*
X168668812Y-112708056D01*
X168662685Y-112707412D01*
X168544087Y-112718206D01*
X168482703Y-112723792D01*
X168482702Y-112723792D01*
X168476562Y-112724351D01*
X168470648Y-112726092D01*
X168470646Y-112726092D01*
X168419960Y-112741010D01*
X168297273Y-112777119D01*
X168131647Y-112863705D01*
X167985995Y-112980813D01*
X167865862Y-113123981D01*
X167862899Y-113129370D01*
X167862896Y-113129375D01*
X167814164Y-113218020D01*
X167775826Y-113287757D01*
X167719315Y-113465901D01*
X167698482Y-113651630D01*
X158531342Y-113651630D01*
X158540814Y-113623157D01*
X158553557Y-113522286D01*
X158563796Y-113441241D01*
X158563797Y-113441232D01*
X158564238Y-113437738D01*
X158564611Y-113411000D01*
X158546373Y-113224999D01*
X158542419Y-113211901D01*
X158494136Y-113051983D01*
X158492355Y-113046083D01*
X158404615Y-112881066D01*
X158399974Y-112875375D01*
X158290388Y-112741010D01*
X158290385Y-112741007D01*
X158286493Y-112736235D01*
X158281744Y-112732306D01*
X158147239Y-112621034D01*
X158147236Y-112621032D01*
X158142489Y-112617105D01*
X157978089Y-112528214D01*
X157888822Y-112500581D01*
X157805441Y-112474770D01*
X157805438Y-112474769D01*
X157799554Y-112472948D01*
X157793429Y-112472304D01*
X157793428Y-112472304D01*
X157619813Y-112454056D01*
X157619812Y-112454056D01*
X157613685Y-112453412D01*
X157495087Y-112464206D01*
X157433703Y-112469792D01*
X157433702Y-112469792D01*
X157427562Y-112470351D01*
X157421648Y-112472092D01*
X157421646Y-112472092D01*
X157299466Y-112508052D01*
X157248273Y-112523119D01*
X157242808Y-112525976D01*
X157120342Y-112589999D01*
X157082647Y-112609705D01*
X156936995Y-112726813D01*
X156816862Y-112869981D01*
X156813899Y-112875370D01*
X156813896Y-112875375D01*
X156758056Y-112976950D01*
X156726826Y-113033757D01*
X156724965Y-113039624D01*
X156724964Y-113039626D01*
X156701269Y-113114323D01*
X156670315Y-113211901D01*
X156649482Y-113397630D01*
X155635001Y-113397630D01*
X155635001Y-111846843D01*
X155633310Y-111835351D01*
X155625389Y-111781542D01*
X155625388Y-111781540D01*
X155623963Y-111771857D01*
X155598189Y-111719362D01*
X155572578Y-111667198D01*
X155572577Y-111667197D01*
X155567988Y-111657850D01*
X155478102Y-111568121D01*
X155363998Y-111512346D01*
X155331217Y-111507564D01*
X155294185Y-111502161D01*
X155294181Y-111502161D01*
X155289659Y-111501501D01*
X153697343Y-111501501D01*
X153692795Y-111502171D01*
X153692788Y-111502171D01*
X153632042Y-111511113D01*
X153632040Y-111511114D01*
X153622357Y-111512539D01*
X153613569Y-111516854D01*
X153613568Y-111516854D01*
X153517698Y-111563924D01*
X153517697Y-111563925D01*
X153508350Y-111568514D01*
X153418621Y-111658400D01*
X153362846Y-111772504D01*
X153361434Y-111782184D01*
X153352666Y-111842288D01*
X153352001Y-111846843D01*
X153352001Y-113439159D01*
X152316150Y-113439159D01*
X152438272Y-113292323D01*
X152532548Y-113123981D01*
X152537957Y-113114323D01*
X152537958Y-113114321D01*
X152540781Y-113109280D01*
X152542637Y-113103813D01*
X152542639Y-113103808D01*
X152606361Y-112916089D01*
X152606362Y-112916084D01*
X152608217Y-112910620D01*
X152609045Y-112904911D01*
X152609046Y-112904906D01*
X152633502Y-112736235D01*
X152638321Y-112702998D01*
X152639892Y-112643001D01*
X152624267Y-112472948D01*
X152621225Y-112439842D01*
X152621224Y-112439839D01*
X152620696Y-112434088D01*
X152610838Y-112399134D01*
X152565317Y-112237731D01*
X152565316Y-112237729D01*
X152563749Y-112232172D01*
X152552724Y-112209814D01*
X152473515Y-112049195D01*
X152470960Y-112044014D01*
X152452007Y-112018632D01*
X152348889Y-111880540D01*
X152348888Y-111880539D01*
X152345436Y-111875916D01*
X152326497Y-111858409D01*
X152195621Y-111737429D01*
X152195619Y-111737427D01*
X152191380Y-111733509D01*
X152071468Y-111657850D01*
X152018832Y-111624639D01*
X152013952Y-111621560D01*
X151819094Y-111543820D01*
X151613332Y-111502891D01*
X151607557Y-111502815D01*
X151607553Y-111502815D01*
X151502585Y-111501441D01*
X151403557Y-111500145D01*
X151397860Y-111501124D01*
X151397859Y-111501124D01*
X151202491Y-111534694D01*
X151202490Y-111534694D01*
X151196794Y-111535673D01*
X150999968Y-111608286D01*
X150995007Y-111611238D01*
X150995006Y-111611238D01*
X150977657Y-111621560D01*
X150819671Y-111715552D01*
X150661940Y-111853878D01*
X150658368Y-111858409D01*
X150560854Y-111982105D01*
X150532058Y-112018632D01*
X150529370Y-112023741D01*
X150438986Y-112195535D01*
X150434376Y-112204297D01*
X150372163Y-112404653D01*
X150347505Y-112612992D01*
X149637136Y-112612992D01*
X149624268Y-112472948D01*
X149621226Y-112439842D01*
X149621225Y-112439839D01*
X149620697Y-112434088D01*
X149610839Y-112399134D01*
X149565318Y-112237731D01*
X149565317Y-112237729D01*
X149563750Y-112232172D01*
X149552725Y-112209814D01*
X149473516Y-112049195D01*
X149470961Y-112044014D01*
X149452008Y-112018632D01*
X149348890Y-111880540D01*
X149348889Y-111880539D01*
X149345437Y-111875916D01*
X149326498Y-111858409D01*
X149195622Y-111737429D01*
X149195620Y-111737427D01*
X149191381Y-111733509D01*
X149071469Y-111657850D01*
X149018833Y-111624639D01*
X149013953Y-111621560D01*
X148819095Y-111543820D01*
X148613333Y-111502891D01*
X148607558Y-111502815D01*
X148607554Y-111502815D01*
X148502586Y-111501441D01*
X148403558Y-111500145D01*
X148397861Y-111501124D01*
X148397860Y-111501124D01*
X148202492Y-111534694D01*
X148202491Y-111534694D01*
X148196795Y-111535673D01*
X147999969Y-111608286D01*
X147995008Y-111611238D01*
X147995007Y-111611238D01*
X147977658Y-111621560D01*
X147819672Y-111715552D01*
X147661941Y-111853878D01*
X147658369Y-111858409D01*
X147560855Y-111982105D01*
X147532059Y-112018632D01*
X147529371Y-112023741D01*
X147438987Y-112195535D01*
X147434377Y-112204297D01*
X147372164Y-112404653D01*
X147347506Y-112612992D01*
X132386628Y-112612992D01*
X132384373Y-112589999D01*
X132380419Y-112576901D01*
X132343329Y-112454056D01*
X132330355Y-112411083D01*
X132242615Y-112246066D01*
X132233574Y-112234981D01*
X132128388Y-112106010D01*
X132128385Y-112106007D01*
X132124493Y-112101235D01*
X132119744Y-112097306D01*
X131985239Y-111986034D01*
X131985236Y-111986032D01*
X131980489Y-111982105D01*
X131816089Y-111893214D01*
X131703653Y-111858409D01*
X131643441Y-111839770D01*
X131643438Y-111839769D01*
X131637554Y-111837948D01*
X131631429Y-111837304D01*
X131631428Y-111837304D01*
X131457813Y-111819056D01*
X131457812Y-111819056D01*
X131451685Y-111818412D01*
X131333087Y-111829206D01*
X131271703Y-111834792D01*
X131271702Y-111834792D01*
X131265562Y-111835351D01*
X131259648Y-111837092D01*
X131259646Y-111837092D01*
X131215541Y-111850073D01*
X131086273Y-111888119D01*
X131080808Y-111890976D01*
X130976560Y-111945475D01*
X130920647Y-111974705D01*
X130774995Y-112091813D01*
X130654862Y-112234981D01*
X130651899Y-112240370D01*
X130651896Y-112240375D01*
X130578509Y-112373868D01*
X130564826Y-112398757D01*
X130562965Y-112404624D01*
X130562964Y-112404626D01*
X130562641Y-112405644D01*
X130508315Y-112576901D01*
X130487482Y-112762630D01*
X127635000Y-112762630D01*
X127635000Y-111238630D01*
X141917482Y-111238630D01*
X141917998Y-111244774D01*
X141929728Y-111384459D01*
X141933121Y-111424867D01*
X141934819Y-111430788D01*
X141934819Y-111430789D01*
X141939447Y-111446929D01*
X141984636Y-111604520D01*
X142006392Y-111646852D01*
X142052942Y-111737429D01*
X142070064Y-111770746D01*
X142073887Y-111775570D01*
X142073890Y-111775574D01*
X142165687Y-111891392D01*
X142186152Y-111917212D01*
X142190846Y-111921207D01*
X142299992Y-112014098D01*
X142328478Y-112038342D01*
X142491621Y-112129519D01*
X142669367Y-112187272D01*
X142854945Y-112209401D01*
X142861080Y-112208929D01*
X142861082Y-112208929D01*
X142921278Y-112204297D01*
X143041287Y-112195063D01*
X143221296Y-112144804D01*
X143226785Y-112142031D01*
X143226791Y-112142029D01*
X143326200Y-112091813D01*
X143388114Y-112060538D01*
X143402633Y-112049195D01*
X143488503Y-111982105D01*
X143535387Y-111945475D01*
X143539413Y-111940811D01*
X143539416Y-111940808D01*
X143644509Y-111819056D01*
X143657507Y-111803998D01*
X143744405Y-111651029D01*
X143746778Y-111646852D01*
X143746779Y-111646851D01*
X143749821Y-111641495D01*
X143755429Y-111624639D01*
X143792719Y-111512539D01*
X143808814Y-111464157D01*
X143830216Y-111294746D01*
X143831796Y-111282241D01*
X143831797Y-111282232D01*
X143832238Y-111278738D01*
X143832611Y-111252000D01*
X143814373Y-111065999D01*
X143810419Y-111052901D01*
X143762136Y-110892983D01*
X143760355Y-110887083D01*
X143672615Y-110722066D01*
X143663574Y-110710981D01*
X143558388Y-110582010D01*
X143558385Y-110582007D01*
X143554493Y-110577235D01*
X143549744Y-110573306D01*
X143415239Y-110462034D01*
X143415236Y-110462032D01*
X143410489Y-110458105D01*
X143246089Y-110369214D01*
X143125257Y-110331810D01*
X143073441Y-110315770D01*
X143073438Y-110315769D01*
X143067554Y-110313948D01*
X143061429Y-110313304D01*
X143061428Y-110313304D01*
X142887813Y-110295056D01*
X142887812Y-110295056D01*
X142881685Y-110294412D01*
X142783113Y-110303383D01*
X142701703Y-110310792D01*
X142701702Y-110310792D01*
X142695562Y-110311351D01*
X142689648Y-110313092D01*
X142689646Y-110313092D01*
X142610192Y-110336477D01*
X142516273Y-110364119D01*
X142350647Y-110450705D01*
X142204995Y-110567813D01*
X142084862Y-110710981D01*
X142081899Y-110716370D01*
X142081896Y-110716375D01*
X142043075Y-110786992D01*
X141994826Y-110874757D01*
X141992965Y-110880624D01*
X141992964Y-110880626D01*
X141990916Y-110887083D01*
X141938315Y-111052901D01*
X141917482Y-111238630D01*
X127635000Y-111238630D01*
X127635000Y-109612993D01*
X150347505Y-109612993D01*
X150361226Y-109822337D01*
X150412867Y-110025675D01*
X150500699Y-110216197D01*
X150504032Y-110220913D01*
X150608841Y-110369214D01*
X150621780Y-110387523D01*
X150772055Y-110533914D01*
X150776858Y-110537124D01*
X150776859Y-110537124D01*
X150844036Y-110582010D01*
X150946492Y-110650469D01*
X150951795Y-110652747D01*
X150951798Y-110652749D01*
X151026927Y-110685027D01*
X151139248Y-110733284D01*
X151343868Y-110779584D01*
X151349642Y-110779811D01*
X151349643Y-110779811D01*
X151387137Y-110781284D01*
X151553499Y-110787821D01*
X151657310Y-110772769D01*
X151755407Y-110758546D01*
X151755412Y-110758545D01*
X151761121Y-110757717D01*
X151766585Y-110755862D01*
X151766590Y-110755861D01*
X151954309Y-110692139D01*
X151954314Y-110692137D01*
X151959781Y-110690281D01*
X152142824Y-110587772D01*
X152304122Y-110453622D01*
X152438272Y-110292324D01*
X152528627Y-110130983D01*
X152537957Y-110114324D01*
X152537958Y-110114322D01*
X152540781Y-110109281D01*
X152542637Y-110103814D01*
X152542639Y-110103809D01*
X152606361Y-109916090D01*
X152606362Y-109916085D01*
X152608217Y-109910621D01*
X152609045Y-109904912D01*
X152609046Y-109904907D01*
X152637788Y-109706673D01*
X152638321Y-109702999D01*
X152639892Y-109643002D01*
X152637135Y-109612993D01*
X153347504Y-109612993D01*
X153361225Y-109822337D01*
X153412866Y-110025675D01*
X153500698Y-110216197D01*
X153504031Y-110220913D01*
X153608840Y-110369214D01*
X153621779Y-110387523D01*
X153772054Y-110533914D01*
X153776857Y-110537124D01*
X153776858Y-110537124D01*
X153844035Y-110582010D01*
X153946491Y-110650469D01*
X153951794Y-110652747D01*
X153951797Y-110652749D01*
X154026926Y-110685027D01*
X154139247Y-110733284D01*
X154343867Y-110779584D01*
X154349641Y-110779811D01*
X154349642Y-110779811D01*
X154387136Y-110781284D01*
X154553498Y-110787821D01*
X154657309Y-110772769D01*
X154755406Y-110758546D01*
X154755411Y-110758545D01*
X154761120Y-110757717D01*
X154766584Y-110755862D01*
X154766589Y-110755861D01*
X154954308Y-110692139D01*
X154954313Y-110692137D01*
X154959780Y-110690281D01*
X155142823Y-110587772D01*
X155304121Y-110453622D01*
X155438271Y-110292324D01*
X155528626Y-110130983D01*
X155537956Y-110114324D01*
X155537957Y-110114322D01*
X155540780Y-110109281D01*
X155542636Y-110103814D01*
X155542638Y-110103809D01*
X155606360Y-109916090D01*
X155606361Y-109916085D01*
X155608216Y-109910621D01*
X155609044Y-109904912D01*
X155609045Y-109904907D01*
X155637787Y-109706673D01*
X155638320Y-109702999D01*
X155639891Y-109643002D01*
X155638662Y-109629632D01*
X157750480Y-109629632D01*
X157751310Y-109639515D01*
X157765275Y-109805813D01*
X157766119Y-109815869D01*
X157817634Y-109995522D01*
X157839390Y-110037854D01*
X157878690Y-110114324D01*
X157903062Y-110161748D01*
X157906885Y-110166572D01*
X157906888Y-110166576D01*
X158000776Y-110285032D01*
X158019150Y-110308214D01*
X158023844Y-110312209D01*
X158088195Y-110366976D01*
X158161476Y-110429344D01*
X158324619Y-110520521D01*
X158502365Y-110578274D01*
X158687943Y-110600403D01*
X158694078Y-110599931D01*
X158694080Y-110599931D01*
X158750117Y-110595619D01*
X158874285Y-110586065D01*
X159054294Y-110535806D01*
X159059783Y-110533033D01*
X159059789Y-110533031D01*
X159171442Y-110476630D01*
X163888482Y-110476630D01*
X163888998Y-110482774D01*
X163898876Y-110600403D01*
X163904121Y-110662867D01*
X163955636Y-110842520D01*
X164041064Y-111008746D01*
X164044887Y-111013570D01*
X164044890Y-111013574D01*
X164086442Y-111065999D01*
X164157152Y-111155212D01*
X164161846Y-111159207D01*
X164270877Y-111252000D01*
X164299478Y-111276342D01*
X164462621Y-111367519D01*
X164640367Y-111425272D01*
X164825945Y-111447401D01*
X164832080Y-111446929D01*
X164832082Y-111446929D01*
X164888119Y-111442617D01*
X165012287Y-111433063D01*
X165192296Y-111382804D01*
X165197785Y-111380031D01*
X165197791Y-111380029D01*
X165275159Y-111340947D01*
X165359114Y-111298538D01*
X165387524Y-111276342D01*
X165414193Y-111255505D01*
X165506387Y-111183475D01*
X165510413Y-111178811D01*
X165510416Y-111178808D01*
X165619096Y-111052901D01*
X165628507Y-111041998D01*
X165713159Y-110892983D01*
X165717778Y-110884852D01*
X165717779Y-110884851D01*
X165720821Y-110879495D01*
X165735091Y-110836600D01*
X165761949Y-110755861D01*
X165779814Y-110702157D01*
X165792761Y-110599674D01*
X165802796Y-110520241D01*
X165802797Y-110520232D01*
X165803238Y-110516738D01*
X165803611Y-110490000D01*
X165785373Y-110303999D01*
X165783191Y-110296770D01*
X165733136Y-110130983D01*
X165731355Y-110125083D01*
X165643615Y-109960066D01*
X165607749Y-109916090D01*
X165529388Y-109820010D01*
X165529385Y-109820007D01*
X165525493Y-109815235D01*
X165520744Y-109811306D01*
X165386239Y-109700034D01*
X165386236Y-109700032D01*
X165381489Y-109696105D01*
X165217089Y-109607214D01*
X165127822Y-109579581D01*
X165044441Y-109553770D01*
X165044438Y-109553769D01*
X165038554Y-109551948D01*
X165032429Y-109551304D01*
X165032428Y-109551304D01*
X164858813Y-109533056D01*
X164858812Y-109533056D01*
X164852685Y-109532412D01*
X164734087Y-109543206D01*
X164672703Y-109548792D01*
X164672702Y-109548792D01*
X164666562Y-109549351D01*
X164660648Y-109551092D01*
X164660646Y-109551092D01*
X164538466Y-109587052D01*
X164487273Y-109602119D01*
X164321647Y-109688705D01*
X164175995Y-109805813D01*
X164055862Y-109948981D01*
X164052899Y-109954370D01*
X164052896Y-109954375D01*
X164030276Y-109995522D01*
X163965826Y-110112757D01*
X163909315Y-110290901D01*
X163888482Y-110476630D01*
X159171442Y-110476630D01*
X159221112Y-110451540D01*
X159249522Y-110429344D01*
X159297885Y-110391558D01*
X159368385Y-110336477D01*
X159372411Y-110331813D01*
X159372414Y-110331810D01*
X159472208Y-110216197D01*
X159490505Y-110195000D01*
X159582819Y-110032497D01*
X159585089Y-110025675D01*
X159639865Y-109861011D01*
X159641812Y-109855159D01*
X159648534Y-109801950D01*
X159664794Y-109673243D01*
X159664795Y-109673234D01*
X159665236Y-109669740D01*
X159665609Y-109643002D01*
X159647371Y-109457001D01*
X159643417Y-109443903D01*
X159595134Y-109283985D01*
X159593353Y-109278085D01*
X159505613Y-109113068D01*
X159453520Y-109049196D01*
X159391386Y-108973012D01*
X159391383Y-108973009D01*
X159387491Y-108968237D01*
X159382742Y-108964308D01*
X159248237Y-108853036D01*
X159248234Y-108853034D01*
X159243487Y-108849107D01*
X159079087Y-108760216D01*
X158934805Y-108715553D01*
X158906439Y-108706772D01*
X158906436Y-108706771D01*
X158900552Y-108704950D01*
X158894427Y-108704306D01*
X158894426Y-108704306D01*
X158720811Y-108686058D01*
X158720810Y-108686058D01*
X158714683Y-108685414D01*
X158618111Y-108694203D01*
X158534701Y-108701794D01*
X158534700Y-108701794D01*
X158528560Y-108702353D01*
X158522646Y-108704094D01*
X158522644Y-108704094D01*
X158422698Y-108733510D01*
X158349271Y-108755121D01*
X158343806Y-108757978D01*
X158211640Y-108827072D01*
X158183645Y-108841707D01*
X158037993Y-108958815D01*
X157917860Y-109101983D01*
X157914897Y-109107372D01*
X157914894Y-109107377D01*
X157864421Y-109199188D01*
X157827824Y-109265759D01*
X157771313Y-109443903D01*
X157750480Y-109629632D01*
X155638662Y-109629632D01*
X155620695Y-109434089D01*
X155574876Y-109271628D01*
X155565316Y-109237732D01*
X155565315Y-109237730D01*
X155563748Y-109232173D01*
X155552723Y-109209815D01*
X155473514Y-109049196D01*
X155470959Y-109044015D01*
X155452006Y-109018633D01*
X155348888Y-108880541D01*
X155348887Y-108880540D01*
X155345435Y-108875917D01*
X155326496Y-108858410D01*
X155195620Y-108737430D01*
X155195618Y-108737428D01*
X155191379Y-108733510D01*
X155013951Y-108621561D01*
X154819093Y-108543821D01*
X154613331Y-108502892D01*
X154607556Y-108502816D01*
X154607552Y-108502816D01*
X154502584Y-108501442D01*
X154403556Y-108500146D01*
X154397859Y-108501125D01*
X154397858Y-108501125D01*
X154202490Y-108534695D01*
X154202489Y-108534695D01*
X154196793Y-108535674D01*
X153999967Y-108608287D01*
X153995006Y-108611239D01*
X153995005Y-108611239D01*
X153842797Y-108701794D01*
X153819670Y-108715553D01*
X153661939Y-108853879D01*
X153658367Y-108858410D01*
X153574884Y-108964308D01*
X153532057Y-109018633D01*
X153529369Y-109023742D01*
X153484886Y-109108292D01*
X153434375Y-109204298D01*
X153372162Y-109404654D01*
X153347504Y-109612993D01*
X152637135Y-109612993D01*
X152620696Y-109434089D01*
X152574877Y-109271628D01*
X152565317Y-109237732D01*
X152565316Y-109237730D01*
X152563749Y-109232173D01*
X152552724Y-109209815D01*
X152473515Y-109049196D01*
X152470960Y-109044015D01*
X152452007Y-109018633D01*
X152348889Y-108880541D01*
X152348888Y-108880540D01*
X152345436Y-108875917D01*
X152326497Y-108858410D01*
X152195621Y-108737430D01*
X152195619Y-108737428D01*
X152191380Y-108733510D01*
X152013952Y-108621561D01*
X151819094Y-108543821D01*
X151613332Y-108502892D01*
X151607557Y-108502816D01*
X151607553Y-108502816D01*
X151502585Y-108501442D01*
X151403557Y-108500146D01*
X151397860Y-108501125D01*
X151397859Y-108501125D01*
X151202491Y-108534695D01*
X151202490Y-108534695D01*
X151196794Y-108535674D01*
X150999968Y-108608287D01*
X150995007Y-108611239D01*
X150995006Y-108611239D01*
X150842798Y-108701794D01*
X150819671Y-108715553D01*
X150661940Y-108853879D01*
X150658368Y-108858410D01*
X150574885Y-108964308D01*
X150532058Y-109018633D01*
X150529370Y-109023742D01*
X150484887Y-109108292D01*
X150434376Y-109204298D01*
X150372163Y-109404654D01*
X150347505Y-109612993D01*
X127635000Y-109612993D01*
X127635000Y-107682630D01*
X136583482Y-107682630D01*
X136599121Y-107868867D01*
X136650636Y-108048520D01*
X136736064Y-108214746D01*
X136739887Y-108219570D01*
X136739890Y-108219574D01*
X136845170Y-108352402D01*
X136852152Y-108361212D01*
X136856846Y-108365207D01*
X136889819Y-108393269D01*
X136994478Y-108482342D01*
X137157621Y-108573519D01*
X137335367Y-108631272D01*
X137520945Y-108653401D01*
X137527080Y-108652929D01*
X137527082Y-108652929D01*
X137583119Y-108648617D01*
X137707287Y-108639063D01*
X137887296Y-108588804D01*
X137892785Y-108586031D01*
X137892791Y-108586029D01*
X137994413Y-108534695D01*
X138054114Y-108504538D01*
X138059639Y-108500222D01*
X138106486Y-108463621D01*
X138201387Y-108389475D01*
X138205413Y-108384811D01*
X138205416Y-108384808D01*
X138319480Y-108252663D01*
X138323507Y-108247998D01*
X138415821Y-108085495D01*
X138422821Y-108064454D01*
X138472867Y-107914009D01*
X138474814Y-107908157D01*
X138479344Y-107872295D01*
X168206482Y-107872295D01*
X168222121Y-108058532D01*
X168273636Y-108238185D01*
X168359064Y-108404411D01*
X168362887Y-108409235D01*
X168362890Y-108409239D01*
X168438424Y-108504538D01*
X168475152Y-108550877D01*
X168479846Y-108554872D01*
X168595062Y-108652929D01*
X168617478Y-108672007D01*
X168780621Y-108763184D01*
X168958367Y-108820937D01*
X169143945Y-108843066D01*
X169150080Y-108842594D01*
X169150082Y-108842594D01*
X169206119Y-108838282D01*
X169330287Y-108828728D01*
X169510296Y-108778469D01*
X169515785Y-108775696D01*
X169515791Y-108775694D01*
X169593159Y-108736612D01*
X169677114Y-108694203D01*
X169688364Y-108685414D01*
X169747085Y-108639535D01*
X169824387Y-108579140D01*
X169828413Y-108574476D01*
X169828416Y-108574473D01*
X169942480Y-108442328D01*
X169946507Y-108437663D01*
X170038821Y-108275160D01*
X170053091Y-108232265D01*
X170095867Y-108103674D01*
X170097814Y-108097822D01*
X170104790Y-108042600D01*
X170120796Y-107915906D01*
X170120797Y-107915897D01*
X170121238Y-107912403D01*
X170121611Y-107885665D01*
X170103373Y-107699664D01*
X170099419Y-107686566D01*
X170051136Y-107526648D01*
X170049355Y-107520748D01*
X169961615Y-107355731D01*
X169948727Y-107339929D01*
X169847388Y-107215675D01*
X169847385Y-107215672D01*
X169843493Y-107210900D01*
X169838744Y-107206971D01*
X169704239Y-107095699D01*
X169704236Y-107095697D01*
X169699489Y-107091770D01*
X169535089Y-107002879D01*
X169445821Y-106975246D01*
X169362441Y-106949435D01*
X169362438Y-106949434D01*
X169356554Y-106947613D01*
X169350429Y-106946969D01*
X169350428Y-106946969D01*
X169176813Y-106928721D01*
X169176812Y-106928721D01*
X169170685Y-106928077D01*
X169052087Y-106938871D01*
X168990703Y-106944457D01*
X168990702Y-106944457D01*
X168984562Y-106945016D01*
X168978648Y-106946757D01*
X168978646Y-106946757D01*
X168856466Y-106982717D01*
X168805273Y-106997784D01*
X168639647Y-107084370D01*
X168493995Y-107201478D01*
X168373862Y-107344646D01*
X168370899Y-107350035D01*
X168370896Y-107350040D01*
X168297509Y-107483533D01*
X168283826Y-107508422D01*
X168227315Y-107686566D01*
X168206482Y-107872295D01*
X138479344Y-107872295D01*
X138480553Y-107862727D01*
X138497796Y-107726241D01*
X138497797Y-107726232D01*
X138498238Y-107722738D01*
X138498611Y-107696000D01*
X138480373Y-107509999D01*
X138476419Y-107496901D01*
X138435439Y-107361172D01*
X138426355Y-107331083D01*
X138338615Y-107166066D01*
X138281225Y-107095699D01*
X138224388Y-107026010D01*
X138224385Y-107026007D01*
X138220493Y-107021235D01*
X138215744Y-107017306D01*
X138081239Y-106906034D01*
X138081236Y-106906032D01*
X138076489Y-106902105D01*
X137912089Y-106813214D01*
X137822821Y-106785581D01*
X137739441Y-106759770D01*
X137739438Y-106759769D01*
X137733554Y-106757948D01*
X137727429Y-106757304D01*
X137727428Y-106757304D01*
X137553813Y-106739056D01*
X137553812Y-106739056D01*
X137547685Y-106738412D01*
X137429087Y-106749206D01*
X137367703Y-106754792D01*
X137367702Y-106754792D01*
X137361562Y-106755351D01*
X137355648Y-106757092D01*
X137355646Y-106757092D01*
X137233466Y-106793052D01*
X137182273Y-106808119D01*
X137016647Y-106894705D01*
X136870995Y-107011813D01*
X136750862Y-107154981D01*
X136747899Y-107160370D01*
X136747896Y-107160375D01*
X136722280Y-107206971D01*
X136660826Y-107318757D01*
X136604315Y-107496901D01*
X136583482Y-107682630D01*
X127635000Y-107682630D01*
X127635000Y-104888630D01*
X135694482Y-104888630D01*
X135694998Y-104894774D01*
X135707078Y-105038626D01*
X135710121Y-105074867D01*
X135761636Y-105254520D01*
X135783392Y-105296852D01*
X135843343Y-105413505D01*
X135847064Y-105420746D01*
X135850887Y-105425570D01*
X135850890Y-105425574D01*
X135956170Y-105558402D01*
X135963152Y-105567212D01*
X135967846Y-105571207D01*
X136034588Y-105628009D01*
X136105478Y-105688342D01*
X136268621Y-105779519D01*
X136446367Y-105837272D01*
X136631945Y-105859401D01*
X136638080Y-105858929D01*
X136638082Y-105858929D01*
X136694119Y-105854617D01*
X136818287Y-105845063D01*
X136998296Y-105794804D01*
X137003785Y-105792031D01*
X137003791Y-105792029D01*
X137081159Y-105752947D01*
X137165114Y-105710538D01*
X137193524Y-105688342D01*
X137217486Y-105669621D01*
X137312387Y-105595475D01*
X137316413Y-105590811D01*
X137316416Y-105590808D01*
X137430480Y-105458663D01*
X137434507Y-105453998D01*
X137467096Y-105396630D01*
X173032482Y-105396630D01*
X173032998Y-105402774D01*
X173047142Y-105571207D01*
X173048121Y-105582867D01*
X173099636Y-105762520D01*
X173185064Y-105928746D01*
X173188887Y-105933570D01*
X173188890Y-105933574D01*
X173294170Y-106066402D01*
X173301152Y-106075212D01*
X173305846Y-106079207D01*
X173338819Y-106107269D01*
X173443478Y-106196342D01*
X173606621Y-106287519D01*
X173784367Y-106345272D01*
X173969945Y-106367401D01*
X173976080Y-106366929D01*
X173976082Y-106366929D01*
X174032119Y-106362617D01*
X174156287Y-106353063D01*
X174336296Y-106302804D01*
X174341785Y-106300031D01*
X174341791Y-106300029D01*
X174419159Y-106260947D01*
X174503114Y-106218538D01*
X174531524Y-106196342D01*
X174555486Y-106177621D01*
X174650387Y-106103475D01*
X174654413Y-106098811D01*
X174654416Y-106098808D01*
X174768480Y-105966663D01*
X174772507Y-105961998D01*
X174843361Y-105837272D01*
X174861778Y-105804852D01*
X174861779Y-105804851D01*
X174864821Y-105799495D01*
X174872467Y-105776512D01*
X174921867Y-105628009D01*
X174923814Y-105622157D01*
X174931366Y-105562381D01*
X174946796Y-105440241D01*
X174946797Y-105440232D01*
X174947238Y-105436738D01*
X174947611Y-105410000D01*
X174929373Y-105223999D01*
X174925419Y-105210901D01*
X174906760Y-105149103D01*
X174875355Y-105045083D01*
X174787615Y-104880066D01*
X174774727Y-104864264D01*
X174673388Y-104740010D01*
X174673385Y-104740007D01*
X174669493Y-104735235D01*
X174664744Y-104731306D01*
X174530239Y-104620034D01*
X174530236Y-104620032D01*
X174525489Y-104616105D01*
X174437385Y-104568467D01*
X174386976Y-104518472D01*
X174371599Y-104449160D01*
X174396135Y-104382538D01*
X174440504Y-104345165D01*
X174497614Y-104316317D01*
X174497620Y-104316313D01*
X174503114Y-104313538D01*
X174513226Y-104305638D01*
X174613576Y-104227235D01*
X174650387Y-104198475D01*
X174654413Y-104193811D01*
X174654416Y-104193808D01*
X174735120Y-104100311D01*
X174772507Y-104056998D01*
X174864821Y-103894495D01*
X174879091Y-103851600D01*
X174902172Y-103782214D01*
X174923814Y-103717157D01*
X174934572Y-103632000D01*
X174946796Y-103535241D01*
X174946797Y-103535232D01*
X174947238Y-103531738D01*
X174947611Y-103505000D01*
X174929373Y-103318999D01*
X174925419Y-103305901D01*
X174877136Y-103145983D01*
X174875355Y-103140083D01*
X174787615Y-102975066D01*
X174782974Y-102969375D01*
X174673388Y-102835010D01*
X174673385Y-102835007D01*
X174669493Y-102830235D01*
X174664744Y-102826306D01*
X174530239Y-102715034D01*
X174530236Y-102715032D01*
X174525489Y-102711105D01*
X174361089Y-102622214D01*
X174271821Y-102594581D01*
X174188441Y-102568770D01*
X174188438Y-102568769D01*
X174182554Y-102566948D01*
X174176429Y-102566304D01*
X174176428Y-102566304D01*
X174002813Y-102548056D01*
X174002812Y-102548056D01*
X173996685Y-102547412D01*
X173878087Y-102558206D01*
X173816703Y-102563792D01*
X173816702Y-102563792D01*
X173810562Y-102564351D01*
X173804648Y-102566092D01*
X173804646Y-102566092D01*
X173684301Y-102601512D01*
X173631273Y-102617119D01*
X173625808Y-102619976D01*
X173484311Y-102693948D01*
X173465647Y-102703705D01*
X173319995Y-102820813D01*
X173199862Y-102963981D01*
X173196899Y-102969370D01*
X173196896Y-102969375D01*
X173137774Y-103076919D01*
X173109826Y-103127757D01*
X173053315Y-103305901D01*
X173032482Y-103491630D01*
X173032998Y-103497774D01*
X173046809Y-103662241D01*
X173048121Y-103677867D01*
X173099636Y-103857520D01*
X173121392Y-103899852D01*
X173181799Y-104017392D01*
X173185064Y-104023746D01*
X173188887Y-104028570D01*
X173188890Y-104028574D01*
X173225200Y-104074385D01*
X173301152Y-104170212D01*
X173305846Y-104174207D01*
X173433176Y-104282574D01*
X173443478Y-104291342D01*
X173483193Y-104313538D01*
X173544176Y-104347620D01*
X173593882Y-104398313D01*
X173608290Y-104467832D01*
X173582827Y-104534105D01*
X173541080Y-104569270D01*
X173471110Y-104605849D01*
X173465647Y-104608705D01*
X173319995Y-104725813D01*
X173199862Y-104868981D01*
X173196899Y-104874370D01*
X173196896Y-104874375D01*
X173123509Y-105007868D01*
X173109826Y-105032757D01*
X173107965Y-105038624D01*
X173107964Y-105038626D01*
X173096468Y-105074867D01*
X173053315Y-105210901D01*
X173032482Y-105396630D01*
X137467096Y-105396630D01*
X137526821Y-105291495D01*
X137541091Y-105248600D01*
X137583867Y-105120009D01*
X137585814Y-105114157D01*
X137596779Y-105027362D01*
X137608796Y-104932241D01*
X137608797Y-104932232D01*
X137609238Y-104928738D01*
X137609611Y-104902000D01*
X137591373Y-104715999D01*
X137587419Y-104702901D01*
X137553008Y-104588929D01*
X137537355Y-104537083D01*
X137449615Y-104372066D01*
X137427675Y-104345165D01*
X137335388Y-104232010D01*
X137335385Y-104232007D01*
X137331493Y-104227235D01*
X137326744Y-104223306D01*
X137192239Y-104112034D01*
X137192236Y-104112032D01*
X137187489Y-104108105D01*
X137023089Y-104019214D01*
X136933822Y-103991581D01*
X136850441Y-103965770D01*
X136850438Y-103965769D01*
X136844554Y-103963948D01*
X136838429Y-103963304D01*
X136838428Y-103963304D01*
X136664813Y-103945056D01*
X136664812Y-103945056D01*
X136658685Y-103944412D01*
X136540087Y-103955206D01*
X136478703Y-103960792D01*
X136478702Y-103960792D01*
X136472562Y-103961351D01*
X136466648Y-103963092D01*
X136466646Y-103963092D01*
X136439244Y-103971157D01*
X136293273Y-104014119D01*
X136287808Y-104016976D01*
X136151361Y-104088308D01*
X136127647Y-104100705D01*
X135981995Y-104217813D01*
X135861862Y-104360981D01*
X135858899Y-104366370D01*
X135858896Y-104366375D01*
X135802285Y-104469351D01*
X135771826Y-104524757D01*
X135769965Y-104530624D01*
X135769964Y-104530626D01*
X135757374Y-104570314D01*
X135715315Y-104702901D01*
X135694482Y-104888630D01*
X127635000Y-104888630D01*
X127635000Y-103618630D01*
X141790482Y-103618630D01*
X141790998Y-103624774D01*
X141804809Y-103789241D01*
X141806121Y-103804867D01*
X141857636Y-103984520D01*
X141876972Y-104022144D01*
X141917347Y-104100705D01*
X141943064Y-104150746D01*
X141946887Y-104155570D01*
X141946890Y-104155574D01*
X142007473Y-104232010D01*
X142059152Y-104297212D01*
X142063846Y-104301207D01*
X142141493Y-104367290D01*
X142201478Y-104418342D01*
X142364621Y-104509519D01*
X142542367Y-104567272D01*
X142727945Y-104589401D01*
X142734080Y-104588929D01*
X142734082Y-104588929D01*
X142790119Y-104584617D01*
X142914287Y-104575063D01*
X143094296Y-104524804D01*
X143099785Y-104522031D01*
X143099791Y-104522029D01*
X143177159Y-104482947D01*
X143261114Y-104440538D01*
X143282011Y-104424212D01*
X143341789Y-104377507D01*
X143408387Y-104325475D01*
X143412413Y-104320811D01*
X143412416Y-104320808D01*
X143496577Y-104223306D01*
X143530507Y-104183998D01*
X143536069Y-104174207D01*
X143619778Y-104026852D01*
X143619779Y-104026851D01*
X143622821Y-104021495D01*
X143637091Y-103978600D01*
X143652637Y-103931867D01*
X143681814Y-103844157D01*
X143692572Y-103759000D01*
X143704796Y-103662241D01*
X143704797Y-103662232D01*
X143705238Y-103658738D01*
X143705611Y-103632000D01*
X143704300Y-103618630D01*
X155887482Y-103618630D01*
X155887998Y-103624774D01*
X155901809Y-103789241D01*
X155903121Y-103804867D01*
X155954636Y-103984520D01*
X155973972Y-104022144D01*
X156014347Y-104100705D01*
X156040064Y-104150746D01*
X156043887Y-104155570D01*
X156043890Y-104155574D01*
X156104473Y-104232010D01*
X156156152Y-104297212D01*
X156160846Y-104301207D01*
X156238493Y-104367290D01*
X156298478Y-104418342D01*
X156461621Y-104509519D01*
X156639367Y-104567272D01*
X156824945Y-104589401D01*
X156831080Y-104588929D01*
X156831082Y-104588929D01*
X156887119Y-104584617D01*
X157011287Y-104575063D01*
X157191296Y-104524804D01*
X157196785Y-104522031D01*
X157196791Y-104522029D01*
X157274159Y-104482947D01*
X157358114Y-104440538D01*
X157379011Y-104424212D01*
X157438789Y-104377507D01*
X157505387Y-104325475D01*
X157509413Y-104320811D01*
X157509416Y-104320808D01*
X157593577Y-104223306D01*
X157627507Y-104183998D01*
X157635339Y-104170212D01*
X157653831Y-104137659D01*
X157704871Y-104088308D01*
X157774489Y-104074385D01*
X157840582Y-104100311D01*
X157875455Y-104142301D01*
X157912278Y-104213950D01*
X157945064Y-104277746D01*
X157948887Y-104282570D01*
X157948890Y-104282574D01*
X158015311Y-104366375D01*
X158061152Y-104424212D01*
X158065846Y-104428207D01*
X158190275Y-104534105D01*
X158203478Y-104545342D01*
X158366621Y-104636519D01*
X158544367Y-104694272D01*
X158729945Y-104716401D01*
X158736080Y-104715929D01*
X158736082Y-104715929D01*
X158792119Y-104711617D01*
X158916287Y-104702063D01*
X159096296Y-104651804D01*
X159101785Y-104649031D01*
X159101791Y-104649029D01*
X159187271Y-104605849D01*
X159263114Y-104567538D01*
X159291524Y-104545342D01*
X159341223Y-104506512D01*
X159410387Y-104452475D01*
X159414413Y-104447811D01*
X159414416Y-104447808D01*
X159524039Y-104320808D01*
X159532507Y-104310998D01*
X159538069Y-104301207D01*
X159621778Y-104153852D01*
X159621779Y-104153851D01*
X159624821Y-104148495D01*
X159626882Y-104142301D01*
X159664714Y-104028574D01*
X159683814Y-103971157D01*
X159700631Y-103838037D01*
X159706796Y-103789241D01*
X159706797Y-103789232D01*
X159707238Y-103785738D01*
X159707611Y-103759000D01*
X159689373Y-103572999D01*
X159685419Y-103559901D01*
X159637136Y-103399983D01*
X159635355Y-103394083D01*
X159547615Y-103229066D01*
X159460589Y-103122362D01*
X159433388Y-103089010D01*
X159433385Y-103089007D01*
X159429493Y-103084235D01*
X159424744Y-103080306D01*
X159290239Y-102969034D01*
X159290236Y-102969032D01*
X159285489Y-102965105D01*
X159121089Y-102876214D01*
X159010672Y-102842034D01*
X158948441Y-102822770D01*
X158948438Y-102822769D01*
X158942554Y-102820948D01*
X158936429Y-102820304D01*
X158936428Y-102820304D01*
X158762813Y-102802056D01*
X158762812Y-102802056D01*
X158756685Y-102801412D01*
X158638087Y-102812206D01*
X158576703Y-102817792D01*
X158576702Y-102817792D01*
X158570562Y-102818351D01*
X158564648Y-102820092D01*
X158564646Y-102820092D01*
X158442466Y-102856052D01*
X158391273Y-102871119D01*
X158385808Y-102873976D01*
X158234062Y-102953306D01*
X158225647Y-102957705D01*
X158079995Y-103074813D01*
X157959862Y-103217981D01*
X157956896Y-103223376D01*
X157956894Y-103223379D01*
X157942185Y-103250134D01*
X157891840Y-103300192D01*
X157822422Y-103315085D01*
X157755974Y-103290084D01*
X157720520Y-103248587D01*
X157642615Y-103102066D01*
X157629727Y-103086264D01*
X157528388Y-102962010D01*
X157528385Y-102962007D01*
X157524493Y-102957235D01*
X157519744Y-102953306D01*
X157385239Y-102842034D01*
X157385236Y-102842032D01*
X157380489Y-102838105D01*
X157216089Y-102749214D01*
X157105672Y-102715034D01*
X157043441Y-102695770D01*
X157043438Y-102695769D01*
X157037554Y-102693948D01*
X157031429Y-102693304D01*
X157031428Y-102693304D01*
X156857813Y-102675056D01*
X156857812Y-102675056D01*
X156851685Y-102674412D01*
X156733087Y-102685206D01*
X156671703Y-102690792D01*
X156671702Y-102690792D01*
X156665562Y-102691351D01*
X156659648Y-102693092D01*
X156659646Y-102693092D01*
X156537466Y-102729052D01*
X156486273Y-102744119D01*
X156480808Y-102746976D01*
X156329062Y-102826306D01*
X156320647Y-102830705D01*
X156174995Y-102947813D01*
X156054862Y-103090981D01*
X156051899Y-103096370D01*
X156051896Y-103096375D01*
X155987637Y-103213264D01*
X155964826Y-103254757D01*
X155962965Y-103260624D01*
X155962964Y-103260626D01*
X155950464Y-103300032D01*
X155908315Y-103432901D01*
X155887482Y-103618630D01*
X143704300Y-103618630D01*
X143687373Y-103445999D01*
X143683419Y-103432901D01*
X143649029Y-103318999D01*
X143633355Y-103267083D01*
X143545615Y-103102066D01*
X143532727Y-103086264D01*
X143431388Y-102962010D01*
X143431385Y-102962007D01*
X143427493Y-102957235D01*
X143422744Y-102953306D01*
X143288239Y-102842034D01*
X143288236Y-102842032D01*
X143283489Y-102838105D01*
X143119089Y-102749214D01*
X143008672Y-102715034D01*
X142946441Y-102695770D01*
X142946438Y-102695769D01*
X142940554Y-102693948D01*
X142934429Y-102693304D01*
X142934428Y-102693304D01*
X142760813Y-102675056D01*
X142760812Y-102675056D01*
X142754685Y-102674412D01*
X142636087Y-102685206D01*
X142574703Y-102690792D01*
X142574702Y-102690792D01*
X142568562Y-102691351D01*
X142562648Y-102693092D01*
X142562646Y-102693092D01*
X142440466Y-102729052D01*
X142389273Y-102744119D01*
X142383808Y-102746976D01*
X142232062Y-102826306D01*
X142223647Y-102830705D01*
X142077995Y-102947813D01*
X141957862Y-103090981D01*
X141954899Y-103096370D01*
X141954896Y-103096375D01*
X141890637Y-103213264D01*
X141867826Y-103254757D01*
X141865965Y-103260624D01*
X141865964Y-103260626D01*
X141853464Y-103300032D01*
X141811315Y-103432901D01*
X141790482Y-103618630D01*
X127635000Y-103618630D01*
X127635000Y-102106620D01*
X139055952Y-102106620D01*
X139056468Y-102112764D01*
X139069270Y-102265212D01*
X139071591Y-102292857D01*
X139123106Y-102472510D01*
X139144091Y-102513342D01*
X139199107Y-102620392D01*
X139208534Y-102638736D01*
X139212357Y-102643560D01*
X139212360Y-102643564D01*
X139257766Y-102700851D01*
X139324622Y-102785202D01*
X139329316Y-102789197D01*
X139372919Y-102826306D01*
X139466948Y-102906332D01*
X139630091Y-102997509D01*
X139807837Y-103055262D01*
X139993415Y-103077391D01*
X139999550Y-103076919D01*
X139999552Y-103076919D01*
X140055589Y-103072607D01*
X140179757Y-103063053D01*
X140359766Y-103012794D01*
X140365255Y-103010021D01*
X140365261Y-103010019D01*
X140468823Y-102957705D01*
X140526584Y-102928528D01*
X140554994Y-102906332D01*
X140596407Y-102873976D01*
X140673857Y-102813465D01*
X140677883Y-102808801D01*
X140677886Y-102808798D01*
X140765266Y-102707567D01*
X140795977Y-102671988D01*
X140888291Y-102509485D01*
X140898292Y-102479423D01*
X140927303Y-102392212D01*
X140947284Y-102332147D01*
X140953998Y-102278998D01*
X140970266Y-102150231D01*
X140970267Y-102150222D01*
X140970708Y-102146728D01*
X140971081Y-102119990D01*
X140952843Y-101933989D01*
X140948889Y-101920891D01*
X140930230Y-101859093D01*
X140898825Y-101755073D01*
X140811085Y-101590056D01*
X140808291Y-101586630D01*
X152839482Y-101586630D01*
X152839998Y-101592774D01*
X152853809Y-101757241D01*
X152855121Y-101772867D01*
X152906636Y-101952520D01*
X152928392Y-101994852D01*
X152988990Y-102112764D01*
X152992064Y-102118746D01*
X152995887Y-102123570D01*
X152995890Y-102123574D01*
X153088382Y-102240269D01*
X153108152Y-102265212D01*
X153112846Y-102269207D01*
X153193676Y-102337999D01*
X153250478Y-102386342D01*
X153413621Y-102477519D01*
X153591367Y-102535272D01*
X153776945Y-102557401D01*
X153783080Y-102556929D01*
X153783082Y-102556929D01*
X153839119Y-102552617D01*
X153963287Y-102543063D01*
X154143296Y-102492804D01*
X154148785Y-102490031D01*
X154148791Y-102490029D01*
X154226159Y-102450947D01*
X154310114Y-102408538D01*
X154331011Y-102392212D01*
X154407889Y-102332147D01*
X154457387Y-102293475D01*
X154461413Y-102288811D01*
X154461416Y-102288808D01*
X154575480Y-102156663D01*
X154579507Y-102151998D01*
X154671821Y-101989495D01*
X154686091Y-101946600D01*
X154728867Y-101818009D01*
X154730814Y-101812157D01*
X154741572Y-101727000D01*
X154753796Y-101630241D01*
X154753797Y-101630232D01*
X154754238Y-101626738D01*
X154754611Y-101600000D01*
X154736373Y-101413999D01*
X154732419Y-101400901D01*
X154684136Y-101240983D01*
X154682355Y-101235083D01*
X154594615Y-101070066D01*
X154581727Y-101054264D01*
X154480388Y-100930010D01*
X154480385Y-100930007D01*
X154476493Y-100925235D01*
X154471744Y-100921306D01*
X154337239Y-100810034D01*
X154337236Y-100810032D01*
X154332489Y-100806105D01*
X154168089Y-100717214D01*
X154078821Y-100689581D01*
X153995441Y-100663770D01*
X153995438Y-100663769D01*
X153989554Y-100661948D01*
X153983429Y-100661304D01*
X153983428Y-100661304D01*
X153809813Y-100643056D01*
X153809812Y-100643056D01*
X153803685Y-100642412D01*
X153692400Y-100652540D01*
X153623703Y-100658792D01*
X153623702Y-100658792D01*
X153617562Y-100659351D01*
X153611648Y-100661092D01*
X153611646Y-100661092D01*
X153489466Y-100697052D01*
X153438273Y-100712119D01*
X153432808Y-100714976D01*
X153291311Y-100788948D01*
X153272647Y-100798705D01*
X153126995Y-100915813D01*
X153006862Y-101058981D01*
X153003899Y-101064370D01*
X153003896Y-101064375D01*
X152950006Y-101162402D01*
X152916826Y-101222757D01*
X152914965Y-101228624D01*
X152914964Y-101228626D01*
X152911044Y-101240983D01*
X152860315Y-101400901D01*
X152839482Y-101586630D01*
X140808291Y-101586630D01*
X140806444Y-101584365D01*
X140696858Y-101450000D01*
X140696855Y-101449997D01*
X140692963Y-101445225D01*
X140688214Y-101441296D01*
X140553709Y-101330024D01*
X140553706Y-101330022D01*
X140548959Y-101326095D01*
X140384559Y-101237204D01*
X140295292Y-101209571D01*
X140211911Y-101183760D01*
X140211908Y-101183759D01*
X140206024Y-101181938D01*
X140199899Y-101181294D01*
X140199898Y-101181294D01*
X140026283Y-101163046D01*
X140026282Y-101163046D01*
X140020155Y-101162402D01*
X139901557Y-101173196D01*
X139840173Y-101178782D01*
X139840172Y-101178782D01*
X139834032Y-101179341D01*
X139828118Y-101181082D01*
X139828116Y-101181082D01*
X139811471Y-101185981D01*
X139654743Y-101232109D01*
X139489117Y-101318695D01*
X139343465Y-101435803D01*
X139223332Y-101578971D01*
X139220369Y-101584360D01*
X139220366Y-101584365D01*
X139213688Y-101596513D01*
X139133296Y-101742747D01*
X139076785Y-101920891D01*
X139055952Y-102106620D01*
X127635000Y-102106620D01*
X127635000Y-99554630D01*
X159951482Y-99554630D01*
X159951998Y-99560774D01*
X159965809Y-99725241D01*
X159967121Y-99740867D01*
X160018636Y-99920520D01*
X160104064Y-100086746D01*
X160107887Y-100091570D01*
X160107890Y-100091574D01*
X160200382Y-100208269D01*
X160220152Y-100233212D01*
X160224846Y-100237207D01*
X160257819Y-100265269D01*
X160362478Y-100354342D01*
X160525621Y-100445519D01*
X160703367Y-100503272D01*
X160888945Y-100525401D01*
X160895080Y-100524929D01*
X160895082Y-100524929D01*
X160951119Y-100520617D01*
X161075287Y-100511063D01*
X161255296Y-100460804D01*
X161260785Y-100458031D01*
X161260791Y-100458029D01*
X161338159Y-100418947D01*
X161422114Y-100376538D01*
X161443011Y-100360212D01*
X161474486Y-100335621D01*
X161569387Y-100261475D01*
X161573413Y-100256811D01*
X161573416Y-100256808D01*
X161687480Y-100124663D01*
X161691507Y-100119998D01*
X161783821Y-99957495D01*
X161798091Y-99914600D01*
X161840867Y-99786009D01*
X161842814Y-99780157D01*
X161853572Y-99695000D01*
X161855261Y-99681630D01*
X167952482Y-99681630D01*
X167952998Y-99687774D01*
X167960756Y-99780157D01*
X167968121Y-99867867D01*
X168019636Y-100047520D01*
X168105064Y-100213746D01*
X168108887Y-100218570D01*
X168108890Y-100218574D01*
X168213335Y-100350349D01*
X168221152Y-100360212D01*
X168225846Y-100364207D01*
X168341291Y-100462459D01*
X168363478Y-100481342D01*
X168526621Y-100572519D01*
X168649571Y-100612468D01*
X168708176Y-100652540D01*
X168735813Y-100717937D01*
X168723706Y-100787893D01*
X168675701Y-100840200D01*
X168669009Y-100843962D01*
X168521062Y-100921306D01*
X168512647Y-100925705D01*
X168366995Y-101042813D01*
X168246862Y-101185981D01*
X168243899Y-101191370D01*
X168243896Y-101191375D01*
X168175471Y-101315841D01*
X168156826Y-101349757D01*
X168100315Y-101527901D01*
X168079482Y-101713630D01*
X168079998Y-101719774D01*
X168087756Y-101812157D01*
X168095121Y-101899867D01*
X168146636Y-102079520D01*
X168232064Y-102245746D01*
X168235887Y-102250570D01*
X168235890Y-102250574D01*
X168295694Y-102326027D01*
X168348152Y-102392212D01*
X168352846Y-102396207D01*
X168479074Y-102503636D01*
X168490478Y-102513342D01*
X168653621Y-102604519D01*
X168831367Y-102662272D01*
X169016945Y-102684401D01*
X169023080Y-102683929D01*
X169023082Y-102683929D01*
X169079119Y-102679617D01*
X169203287Y-102670063D01*
X169383296Y-102619804D01*
X169388785Y-102617031D01*
X169388791Y-102617029D01*
X169484326Y-102568770D01*
X169550114Y-102535538D01*
X169578524Y-102513342D01*
X169628223Y-102474512D01*
X169697387Y-102420475D01*
X169701413Y-102415811D01*
X169701416Y-102415808D01*
X169815480Y-102283663D01*
X169819507Y-102278998D01*
X169825069Y-102269207D01*
X169908778Y-102121852D01*
X169908779Y-102121851D01*
X169911821Y-102116495D01*
X169926091Y-102073600D01*
X169941218Y-102028126D01*
X169970814Y-101939157D01*
X169987631Y-101806037D01*
X169993796Y-101757241D01*
X169993797Y-101757232D01*
X169994238Y-101753738D01*
X169994611Y-101727000D01*
X169976373Y-101540999D01*
X169972419Y-101527901D01*
X169924136Y-101367983D01*
X169922355Y-101362083D01*
X169834615Y-101197066D01*
X169806869Y-101163046D01*
X169720388Y-101057010D01*
X169720385Y-101057007D01*
X169716493Y-101052235D01*
X169711744Y-101048306D01*
X169577239Y-100937034D01*
X169577236Y-100937032D01*
X169572489Y-100933105D01*
X169408089Y-100844214D01*
X169297152Y-100809873D01*
X169237993Y-100770621D01*
X169209446Y-100705617D01*
X169220575Y-100635498D01*
X169267846Y-100582527D01*
X169277601Y-100577042D01*
X169292508Y-100569512D01*
X169423114Y-100503538D01*
X169451524Y-100481342D01*
X169501223Y-100442512D01*
X169570387Y-100388475D01*
X169574413Y-100383811D01*
X169574416Y-100383808D01*
X169688480Y-100251663D01*
X169692507Y-100246998D01*
X169698069Y-100237207D01*
X169781778Y-100089852D01*
X169781779Y-100089851D01*
X169784821Y-100084495D01*
X169799091Y-100041600D01*
X169814218Y-99996126D01*
X169843814Y-99907157D01*
X169860631Y-99774037D01*
X169866796Y-99725241D01*
X169866797Y-99725232D01*
X169867238Y-99721738D01*
X169867611Y-99695000D01*
X169849373Y-99508999D01*
X169845419Y-99495901D01*
X169798756Y-99341348D01*
X169795355Y-99330083D01*
X169707615Y-99165066D01*
X169698574Y-99153981D01*
X169593388Y-99025010D01*
X169593385Y-99025007D01*
X169589493Y-99020235D01*
X169584744Y-99016306D01*
X169450239Y-98905034D01*
X169450236Y-98905032D01*
X169445489Y-98901105D01*
X169281089Y-98812214D01*
X169170672Y-98778034D01*
X169108441Y-98758770D01*
X169108438Y-98758769D01*
X169102554Y-98756948D01*
X169096429Y-98756304D01*
X169096428Y-98756304D01*
X168922813Y-98738056D01*
X168922812Y-98738056D01*
X168916685Y-98737412D01*
X168798087Y-98748206D01*
X168736703Y-98753792D01*
X168736702Y-98753792D01*
X168730562Y-98754351D01*
X168724648Y-98756092D01*
X168724646Y-98756092D01*
X168602466Y-98792052D01*
X168551273Y-98807119D01*
X168545808Y-98809976D01*
X168394062Y-98889306D01*
X168385647Y-98893705D01*
X168239995Y-99010813D01*
X168119862Y-99153981D01*
X168116899Y-99159370D01*
X168116896Y-99159375D01*
X168082904Y-99221207D01*
X168029826Y-99317757D01*
X168027965Y-99323624D01*
X168027964Y-99323626D01*
X168024044Y-99335983D01*
X167973315Y-99495901D01*
X167952482Y-99681630D01*
X161855261Y-99681630D01*
X161865796Y-99598241D01*
X161865797Y-99598232D01*
X161866238Y-99594738D01*
X161866611Y-99568000D01*
X161848373Y-99381999D01*
X161844419Y-99368901D01*
X161796136Y-99208983D01*
X161794355Y-99203083D01*
X161706615Y-99038066D01*
X161693727Y-99022264D01*
X161592388Y-98898010D01*
X161592385Y-98898007D01*
X161588493Y-98893235D01*
X161583744Y-98889306D01*
X161449239Y-98778034D01*
X161449236Y-98778032D01*
X161444489Y-98774105D01*
X161280089Y-98685214D01*
X161190821Y-98657581D01*
X161107441Y-98631770D01*
X161107438Y-98631769D01*
X161101554Y-98629948D01*
X161095429Y-98629304D01*
X161095428Y-98629304D01*
X160921813Y-98611056D01*
X160921812Y-98611056D01*
X160915685Y-98610412D01*
X160797087Y-98621206D01*
X160735703Y-98626792D01*
X160735702Y-98626792D01*
X160729562Y-98627351D01*
X160723648Y-98629092D01*
X160723646Y-98629092D01*
X160603301Y-98664512D01*
X160550273Y-98680119D01*
X160544808Y-98682976D01*
X160401228Y-98758037D01*
X160384647Y-98766705D01*
X160238995Y-98883813D01*
X160118862Y-99026981D01*
X160115899Y-99032370D01*
X160115896Y-99032375D01*
X160083745Y-99090859D01*
X160028826Y-99190757D01*
X160026965Y-99196624D01*
X160026964Y-99196626D01*
X160012949Y-99240808D01*
X159972315Y-99368901D01*
X159951482Y-99554630D01*
X127635000Y-99554630D01*
X127635000Y-98538630D01*
X139250482Y-98538630D01*
X139250998Y-98544774D01*
X139265305Y-98715146D01*
X139266121Y-98724867D01*
X139267819Y-98730788D01*
X139267819Y-98730789D01*
X139272447Y-98746929D01*
X139317636Y-98904520D01*
X139339392Y-98946852D01*
X139370278Y-99006950D01*
X139403064Y-99070746D01*
X139406887Y-99075570D01*
X139406890Y-99075574D01*
X139507953Y-99203083D01*
X139519152Y-99217212D01*
X139523846Y-99221207D01*
X139556819Y-99249269D01*
X139661478Y-99338342D01*
X139824621Y-99429519D01*
X140002367Y-99487272D01*
X140187945Y-99509401D01*
X140194080Y-99508929D01*
X140194082Y-99508929D01*
X140250119Y-99504617D01*
X140374287Y-99495063D01*
X140554296Y-99444804D01*
X140559785Y-99442031D01*
X140559791Y-99442029D01*
X140666485Y-99388133D01*
X140721114Y-99360538D01*
X140749524Y-99338342D01*
X140782776Y-99312362D01*
X140868387Y-99245475D01*
X140872413Y-99240811D01*
X140872416Y-99240808D01*
X140986480Y-99108663D01*
X140990507Y-99103998D01*
X141082821Y-98941495D01*
X141097091Y-98898600D01*
X141125827Y-98812214D01*
X141141814Y-98764157D01*
X141148006Y-98715146D01*
X141164796Y-98582241D01*
X141164797Y-98582232D01*
X141165238Y-98578738D01*
X141165611Y-98552000D01*
X141147373Y-98365999D01*
X141143419Y-98352901D01*
X141105298Y-98226641D01*
X141093355Y-98187083D01*
X141008901Y-98028246D01*
X140994582Y-97958710D01*
X141020130Y-97892469D01*
X141063343Y-97856628D01*
X141097614Y-97839317D01*
X141097620Y-97839313D01*
X141103114Y-97836538D01*
X141109585Y-97831483D01*
X141158193Y-97793505D01*
X141250387Y-97721475D01*
X141254413Y-97716811D01*
X141254416Y-97716808D01*
X141363096Y-97590901D01*
X141372507Y-97579998D01*
X141457159Y-97430983D01*
X141461778Y-97422852D01*
X141461779Y-97422851D01*
X141464821Y-97417495D01*
X141469865Y-97402334D01*
X141517191Y-97260066D01*
X141523814Y-97240157D01*
X141537063Y-97135282D01*
X141546796Y-97058241D01*
X141546797Y-97058232D01*
X141547238Y-97054738D01*
X141547611Y-97028000D01*
X141529373Y-96841999D01*
X141525419Y-96828901D01*
X141477136Y-96668983D01*
X141475355Y-96663083D01*
X141387615Y-96498066D01*
X141374727Y-96482264D01*
X141273388Y-96358010D01*
X141273385Y-96358007D01*
X141269493Y-96353235D01*
X141264744Y-96349306D01*
X141130239Y-96238034D01*
X141130236Y-96238032D01*
X141125489Y-96234105D01*
X140961089Y-96145214D01*
X140871821Y-96117581D01*
X140788441Y-96091770D01*
X140788438Y-96091769D01*
X140782554Y-96089948D01*
X140776429Y-96089304D01*
X140776428Y-96089304D01*
X140602813Y-96071056D01*
X140602812Y-96071056D01*
X140596685Y-96070412D01*
X140478087Y-96081206D01*
X140416703Y-96086792D01*
X140416702Y-96086792D01*
X140410562Y-96087351D01*
X140404648Y-96089092D01*
X140404646Y-96089092D01*
X140329643Y-96111167D01*
X140231273Y-96140119D01*
X140225808Y-96142976D01*
X140082228Y-96218037D01*
X140065647Y-96226705D01*
X139919995Y-96343813D01*
X139799862Y-96486981D01*
X139796899Y-96492370D01*
X139796896Y-96492375D01*
X139773148Y-96535574D01*
X139709826Y-96650757D01*
X139707965Y-96656624D01*
X139707964Y-96656626D01*
X139698761Y-96685638D01*
X139653315Y-96828901D01*
X139632482Y-97014630D01*
X139632998Y-97020774D01*
X139642614Y-97135282D01*
X139648121Y-97200867D01*
X139699636Y-97380520D01*
X139783976Y-97544629D01*
X139783977Y-97544632D01*
X139785064Y-97546746D01*
X139784662Y-97546952D01*
X139803699Y-97611467D01*
X139783788Y-97679614D01*
X139736073Y-97723297D01*
X139683647Y-97750705D01*
X139537995Y-97867813D01*
X139417862Y-98010981D01*
X139414899Y-98016370D01*
X139414896Y-98016375D01*
X139348803Y-98136600D01*
X139327826Y-98174757D01*
X139325965Y-98180624D01*
X139325964Y-98180626D01*
X139311367Y-98226641D01*
X139271315Y-98352901D01*
X139250482Y-98538630D01*
X127635000Y-98538630D01*
X127635000Y-96125630D01*
X130487482Y-96125630D01*
X130487998Y-96131774D01*
X130498088Y-96251926D01*
X130503121Y-96311867D01*
X130554636Y-96491520D01*
X130574795Y-96530746D01*
X130633700Y-96645362D01*
X130640064Y-96657746D01*
X130643887Y-96662570D01*
X130643890Y-96662574D01*
X130725064Y-96764989D01*
X130756152Y-96804212D01*
X130760846Y-96808207D01*
X130880621Y-96910144D01*
X130898478Y-96925342D01*
X131061621Y-97016519D01*
X131239367Y-97074272D01*
X131424945Y-97096401D01*
X131431080Y-97095929D01*
X131431082Y-97095929D01*
X131488458Y-97091514D01*
X131611287Y-97082063D01*
X131791296Y-97031804D01*
X131796785Y-97029031D01*
X131796791Y-97029029D01*
X131913884Y-96969880D01*
X131958114Y-96947538D01*
X131986524Y-96925342D01*
X132043716Y-96880658D01*
X132105387Y-96832475D01*
X132109413Y-96827811D01*
X132109416Y-96827808D01*
X132223480Y-96695663D01*
X132227507Y-96690998D01*
X132233069Y-96681207D01*
X132316778Y-96533852D01*
X132316779Y-96533851D01*
X132319821Y-96528495D01*
X132328134Y-96503507D01*
X132349218Y-96440126D01*
X132378814Y-96351157D01*
X132393601Y-96234105D01*
X132401796Y-96169241D01*
X132401797Y-96169232D01*
X132402238Y-96165738D01*
X132402611Y-96139000D01*
X132388847Y-95998630D01*
X133027482Y-95998630D01*
X133027998Y-96004774D01*
X133041809Y-96169241D01*
X133043121Y-96184867D01*
X133094636Y-96364520D01*
X133180064Y-96530746D01*
X133183887Y-96535570D01*
X133183890Y-96535574D01*
X133280723Y-96657746D01*
X133296152Y-96677212D01*
X133300846Y-96681207D01*
X133399289Y-96764989D01*
X133438478Y-96798342D01*
X133601621Y-96889519D01*
X133779367Y-96947272D01*
X133964945Y-96969401D01*
X133971080Y-96968929D01*
X133971082Y-96968929D01*
X134027119Y-96964617D01*
X134151287Y-96955063D01*
X134331296Y-96904804D01*
X134336785Y-96902031D01*
X134336791Y-96902029D01*
X134432326Y-96853770D01*
X134498114Y-96820538D01*
X134519011Y-96804212D01*
X134550486Y-96779621D01*
X134645387Y-96705475D01*
X134649413Y-96700811D01*
X134649416Y-96700808D01*
X134763480Y-96568663D01*
X134767507Y-96563998D01*
X134859821Y-96401495D01*
X134874091Y-96358600D01*
X134910287Y-96249789D01*
X134918814Y-96224157D01*
X134929651Y-96138377D01*
X134941796Y-96042241D01*
X134941797Y-96042232D01*
X134942238Y-96038738D01*
X134942611Y-96012000D01*
X134924373Y-95825999D01*
X134920419Y-95812901D01*
X134878783Y-95674998D01*
X134870355Y-95647083D01*
X134782615Y-95482066D01*
X134769727Y-95466264D01*
X134668388Y-95342010D01*
X134668385Y-95342007D01*
X134664493Y-95337235D01*
X134659744Y-95333306D01*
X134525239Y-95222034D01*
X134525236Y-95222032D01*
X134520489Y-95218105D01*
X134356089Y-95129214D01*
X134292823Y-95109630D01*
X135567482Y-95109630D01*
X135567998Y-95115774D01*
X135579728Y-95255459D01*
X135583121Y-95295867D01*
X135584819Y-95301788D01*
X135584819Y-95301789D01*
X135589447Y-95317929D01*
X135634636Y-95475520D01*
X135656392Y-95517852D01*
X135713700Y-95629362D01*
X135720064Y-95641746D01*
X135723887Y-95646570D01*
X135723890Y-95646574D01*
X135824953Y-95774083D01*
X135836152Y-95788212D01*
X135840846Y-95792207D01*
X135887759Y-95832133D01*
X135978478Y-95909342D01*
X136141621Y-96000519D01*
X136319367Y-96058272D01*
X136504945Y-96080401D01*
X136511080Y-96079929D01*
X136511082Y-96079929D01*
X136567119Y-96075617D01*
X136691287Y-96066063D01*
X136871296Y-96015804D01*
X136876785Y-96013031D01*
X136876791Y-96013029D01*
X136983485Y-95959133D01*
X137038114Y-95931538D01*
X137066524Y-95909342D01*
X137090486Y-95890621D01*
X137185387Y-95816475D01*
X137189413Y-95811811D01*
X137189416Y-95811808D01*
X137303480Y-95679663D01*
X137307507Y-95674998D01*
X137366979Y-95570308D01*
X137396778Y-95517852D01*
X137396779Y-95517851D01*
X137399821Y-95512495D01*
X137408134Y-95487507D01*
X137450400Y-95360449D01*
X137458814Y-95335157D01*
X137473601Y-95218105D01*
X137481796Y-95153241D01*
X137481797Y-95153232D01*
X137482238Y-95149738D01*
X137482611Y-95123000D01*
X137464373Y-94936999D01*
X137460419Y-94923901D01*
X137412136Y-94763983D01*
X137410355Y-94758083D01*
X137322615Y-94593066D01*
X137313574Y-94581981D01*
X137208388Y-94453010D01*
X137208385Y-94453007D01*
X137204493Y-94448235D01*
X137199744Y-94444306D01*
X137065239Y-94333034D01*
X137065236Y-94333032D01*
X137060489Y-94329105D01*
X136896089Y-94240214D01*
X136806821Y-94212581D01*
X136723441Y-94186770D01*
X136723438Y-94186769D01*
X136717554Y-94184948D01*
X136711429Y-94184304D01*
X136711428Y-94184304D01*
X136537813Y-94166056D01*
X136537812Y-94166056D01*
X136531685Y-94165412D01*
X136426345Y-94174999D01*
X136351703Y-94181792D01*
X136351702Y-94181792D01*
X136345562Y-94182351D01*
X136339648Y-94184092D01*
X136339646Y-94184092D01*
X136222627Y-94218533D01*
X136166273Y-94235119D01*
X136160808Y-94237976D01*
X136056560Y-94292475D01*
X136000647Y-94321705D01*
X135854995Y-94438813D01*
X135734862Y-94581981D01*
X135731899Y-94587370D01*
X135731896Y-94587375D01*
X135686729Y-94669535D01*
X135644826Y-94745757D01*
X135642965Y-94751624D01*
X135642964Y-94751626D01*
X135640916Y-94758083D01*
X135588315Y-94923901D01*
X135567482Y-95109630D01*
X134292823Y-95109630D01*
X134266821Y-95101581D01*
X134183441Y-95075770D01*
X134183438Y-95075769D01*
X134177554Y-95073948D01*
X134171429Y-95073304D01*
X134171428Y-95073304D01*
X133997813Y-95055056D01*
X133997812Y-95055056D01*
X133991685Y-95054412D01*
X133873087Y-95065206D01*
X133811703Y-95070792D01*
X133811702Y-95070792D01*
X133805562Y-95071351D01*
X133799648Y-95073092D01*
X133799646Y-95073092D01*
X133696313Y-95103505D01*
X133626273Y-95124119D01*
X133620808Y-95126976D01*
X133479311Y-95200948D01*
X133460647Y-95210705D01*
X133314995Y-95327813D01*
X133194862Y-95470981D01*
X133191899Y-95476370D01*
X133191896Y-95476375D01*
X133157640Y-95538688D01*
X133104826Y-95634757D01*
X133048315Y-95812901D01*
X133027482Y-95998630D01*
X132388847Y-95998630D01*
X132384373Y-95952999D01*
X132381317Y-95942875D01*
X132332136Y-95779983D01*
X132330355Y-95774083D01*
X132242615Y-95609066D01*
X132185216Y-95538688D01*
X132128388Y-95469010D01*
X132128385Y-95469007D01*
X132124493Y-95464235D01*
X132119744Y-95460306D01*
X131985239Y-95349034D01*
X131985236Y-95349032D01*
X131980489Y-95345105D01*
X131816089Y-95256214D01*
X131722063Y-95227108D01*
X131643441Y-95202770D01*
X131643438Y-95202769D01*
X131637554Y-95200948D01*
X131631429Y-95200304D01*
X131631428Y-95200304D01*
X131457813Y-95182056D01*
X131457812Y-95182056D01*
X131451685Y-95181412D01*
X131333087Y-95192206D01*
X131271703Y-95197792D01*
X131271702Y-95197792D01*
X131265562Y-95198351D01*
X131259648Y-95200092D01*
X131259646Y-95200092D01*
X131139301Y-95235512D01*
X131086273Y-95251119D01*
X131080808Y-95253976D01*
X130929062Y-95333306D01*
X130920647Y-95337705D01*
X130774995Y-95454813D01*
X130654862Y-95597981D01*
X130651899Y-95603370D01*
X130651896Y-95603375D01*
X130615467Y-95669641D01*
X130564826Y-95761757D01*
X130562965Y-95767624D01*
X130562964Y-95767626D01*
X130550464Y-95807032D01*
X130508315Y-95939901D01*
X130487482Y-96125630D01*
X127635000Y-96125630D01*
X127635000Y-93585630D01*
X133408482Y-93585630D01*
X133408998Y-93591774D01*
X133422809Y-93756241D01*
X133424121Y-93771867D01*
X133475636Y-93951520D01*
X133561064Y-94117746D01*
X133564887Y-94122570D01*
X133564890Y-94122574D01*
X133656687Y-94238392D01*
X133677152Y-94264212D01*
X133681846Y-94268207D01*
X133790877Y-94361000D01*
X133819478Y-94385342D01*
X133982621Y-94476519D01*
X134160367Y-94534272D01*
X134345945Y-94556401D01*
X134352080Y-94555929D01*
X134352082Y-94555929D01*
X134408119Y-94551617D01*
X134532287Y-94542063D01*
X134712296Y-94491804D01*
X134717785Y-94489031D01*
X134717791Y-94489029D01*
X134817200Y-94438813D01*
X134879114Y-94407538D01*
X134892622Y-94396985D01*
X134934193Y-94364505D01*
X135026387Y-94292475D01*
X135030413Y-94287811D01*
X135030416Y-94287808D01*
X135135509Y-94166056D01*
X135148507Y-94150998D01*
X135233159Y-94001983D01*
X135237778Y-93993852D01*
X135237779Y-93993851D01*
X135240821Y-93988495D01*
X135255091Y-93945600D01*
X135295084Y-93825375D01*
X135299814Y-93811157D01*
X135310572Y-93726000D01*
X135312261Y-93712630D01*
X137853482Y-93712630D01*
X137853998Y-93718774D01*
X137863428Y-93831066D01*
X137869121Y-93898867D01*
X137920636Y-94078520D01*
X137963350Y-94161633D01*
X138002799Y-94238392D01*
X138006064Y-94244746D01*
X138009887Y-94249570D01*
X138009890Y-94249574D01*
X138087609Y-94347630D01*
X138122152Y-94391212D01*
X138126846Y-94395207D01*
X138242291Y-94493459D01*
X138264478Y-94512342D01*
X138427621Y-94603519D01*
X138605367Y-94661272D01*
X138790945Y-94683401D01*
X138797080Y-94682929D01*
X138797082Y-94682929D01*
X138853119Y-94678617D01*
X138977287Y-94669063D01*
X139157296Y-94618804D01*
X139162785Y-94616031D01*
X139162791Y-94616029D01*
X139240159Y-94576947D01*
X139324114Y-94534538D01*
X139351829Y-94512885D01*
X139434576Y-94448235D01*
X139471387Y-94419475D01*
X139475413Y-94414811D01*
X139475416Y-94414808D01*
X139555780Y-94321705D01*
X139593507Y-94277998D01*
X139599069Y-94268207D01*
X139682778Y-94120852D01*
X139682779Y-94120851D01*
X139685821Y-94115495D01*
X139700091Y-94072600D01*
X139725544Y-93996083D01*
X139744814Y-93938157D01*
X139750553Y-93892727D01*
X139767796Y-93756241D01*
X139767797Y-93756232D01*
X139768238Y-93752738D01*
X139768611Y-93726000D01*
X139750373Y-93539999D01*
X139746419Y-93526901D01*
X139712008Y-93412929D01*
X139696355Y-93361083D01*
X139608615Y-93196066D01*
X139581881Y-93163287D01*
X139494388Y-93056010D01*
X139494385Y-93056007D01*
X139490493Y-93051235D01*
X139485744Y-93047306D01*
X139351239Y-92936034D01*
X139351236Y-92936032D01*
X139346489Y-92932105D01*
X139182089Y-92843214D01*
X139092821Y-92815581D01*
X139009441Y-92789770D01*
X139009438Y-92789769D01*
X139003554Y-92787948D01*
X138997429Y-92787304D01*
X138997428Y-92787304D01*
X138823813Y-92769056D01*
X138823812Y-92769056D01*
X138817685Y-92768412D01*
X138699087Y-92779206D01*
X138637703Y-92784792D01*
X138637702Y-92784792D01*
X138631562Y-92785351D01*
X138625648Y-92787092D01*
X138625646Y-92787092D01*
X138534232Y-92813997D01*
X138452273Y-92838119D01*
X138446808Y-92840976D01*
X138295062Y-92920306D01*
X138286647Y-92924705D01*
X138140995Y-93041813D01*
X138020862Y-93184981D01*
X138017899Y-93190370D01*
X138017896Y-93190375D01*
X137987675Y-93245348D01*
X137930826Y-93348757D01*
X137874315Y-93526901D01*
X137853482Y-93712630D01*
X135312261Y-93712630D01*
X135322796Y-93629241D01*
X135322797Y-93629232D01*
X135323238Y-93625738D01*
X135323611Y-93599000D01*
X135305373Y-93412999D01*
X135301419Y-93399901D01*
X135254756Y-93245348D01*
X135251355Y-93234083D01*
X135163615Y-93069066D01*
X135150727Y-93053264D01*
X135049388Y-92929010D01*
X135049385Y-92929007D01*
X135045493Y-92924235D01*
X135040744Y-92920306D01*
X134906239Y-92809034D01*
X134906236Y-92809032D01*
X134901489Y-92805105D01*
X134737089Y-92716214D01*
X134647822Y-92688581D01*
X134564441Y-92662770D01*
X134564438Y-92662769D01*
X134558554Y-92660948D01*
X134552429Y-92660304D01*
X134552428Y-92660304D01*
X134378813Y-92642056D01*
X134378812Y-92642056D01*
X134372685Y-92641412D01*
X134254087Y-92652206D01*
X134192703Y-92657792D01*
X134192702Y-92657792D01*
X134186562Y-92658351D01*
X134180648Y-92660092D01*
X134180646Y-92660092D01*
X134153244Y-92668157D01*
X134007273Y-92711119D01*
X134001808Y-92713976D01*
X133860311Y-92787948D01*
X133841647Y-92797705D01*
X133695995Y-92914813D01*
X133575862Y-93057981D01*
X133572899Y-93063370D01*
X133572896Y-93063375D01*
X133538904Y-93125207D01*
X133485826Y-93221757D01*
X133483965Y-93227624D01*
X133483964Y-93227626D01*
X133480044Y-93239983D01*
X133429315Y-93399901D01*
X133408482Y-93585630D01*
X127635000Y-93585630D01*
X127635000Y-92442630D01*
X128328482Y-92442630D01*
X128328998Y-92448774D01*
X128340492Y-92585648D01*
X128344121Y-92628867D01*
X128345819Y-92634788D01*
X128345819Y-92634789D01*
X128347903Y-92642056D01*
X128395636Y-92808520D01*
X128414972Y-92846144D01*
X128474777Y-92962512D01*
X128481064Y-92974746D01*
X128484887Y-92979570D01*
X128484890Y-92979574D01*
X128551311Y-93063375D01*
X128597152Y-93121212D01*
X128601846Y-93125207D01*
X128679493Y-93191290D01*
X128739478Y-93242342D01*
X128902621Y-93333519D01*
X129080367Y-93391272D01*
X129265945Y-93413401D01*
X129272080Y-93412929D01*
X129272082Y-93412929D01*
X129328119Y-93408617D01*
X129452287Y-93399063D01*
X129632296Y-93348804D01*
X129637785Y-93346031D01*
X129637791Y-93346029D01*
X129715159Y-93306947D01*
X129799114Y-93264538D01*
X129827524Y-93242342D01*
X129879789Y-93201507D01*
X129946387Y-93149475D01*
X129950413Y-93144811D01*
X129950416Y-93144808D01*
X130034577Y-93047306D01*
X130068507Y-93007998D01*
X130160821Y-92845495D01*
X130175091Y-92802600D01*
X130203827Y-92716214D01*
X130219814Y-92668157D01*
X130225553Y-92622727D01*
X130242796Y-92486241D01*
X130242797Y-92486232D01*
X130243238Y-92482738D01*
X130243611Y-92456000D01*
X130225373Y-92269999D01*
X130221419Y-92256901D01*
X130179783Y-92118998D01*
X130171355Y-92091083D01*
X130083615Y-91926066D01*
X130073448Y-91913600D01*
X129969388Y-91786010D01*
X129969385Y-91786007D01*
X129965493Y-91781235D01*
X129960744Y-91777306D01*
X129826239Y-91666034D01*
X129826236Y-91666032D01*
X129821489Y-91662105D01*
X129657089Y-91573214D01*
X129567822Y-91545581D01*
X129484441Y-91519770D01*
X129484438Y-91519769D01*
X129478554Y-91517948D01*
X129472429Y-91517304D01*
X129472428Y-91517304D01*
X129298813Y-91499056D01*
X129298812Y-91499056D01*
X129292685Y-91498412D01*
X129174087Y-91509206D01*
X129112703Y-91514792D01*
X129112702Y-91514792D01*
X129106562Y-91515351D01*
X129100648Y-91517092D01*
X129100646Y-91517092D01*
X128997313Y-91547505D01*
X128927273Y-91568119D01*
X128921808Y-91570976D01*
X128817560Y-91625475D01*
X128761647Y-91654705D01*
X128615995Y-91771813D01*
X128495862Y-91914981D01*
X128492899Y-91920370D01*
X128492896Y-91920375D01*
X128419509Y-92053868D01*
X128405826Y-92078757D01*
X128349315Y-92256901D01*
X128328482Y-92442630D01*
X127635000Y-92442630D01*
X127635000Y-91401158D01*
X130590500Y-91401158D01*
X130591170Y-91405706D01*
X130591170Y-91405713D01*
X130600112Y-91466459D01*
X130601538Y-91476144D01*
X130605853Y-91484932D01*
X130605853Y-91484933D01*
X130648303Y-91571392D01*
X130657513Y-91590151D01*
X130747399Y-91679880D01*
X130861503Y-91735655D01*
X130890375Y-91739867D01*
X130931316Y-91745840D01*
X130931320Y-91745840D01*
X130935842Y-91746500D01*
X132208158Y-91746500D01*
X132212706Y-91745830D01*
X132212713Y-91745830D01*
X132273459Y-91736888D01*
X132273461Y-91736887D01*
X132283144Y-91735462D01*
X132311891Y-91721348D01*
X132387803Y-91684077D01*
X132387804Y-91684076D01*
X132397151Y-91679487D01*
X132486880Y-91589601D01*
X132504463Y-91553630D01*
X141155482Y-91553630D01*
X141155998Y-91559774D01*
X141170407Y-91731359D01*
X141171121Y-91739867D01*
X141222636Y-91919520D01*
X141244392Y-91961852D01*
X141301700Y-92073362D01*
X141308064Y-92085746D01*
X141311887Y-92090570D01*
X141311890Y-92090574D01*
X141399619Y-92201259D01*
X141424152Y-92232212D01*
X141428846Y-92236207D01*
X141546647Y-92336464D01*
X141566478Y-92353342D01*
X141729621Y-92444519D01*
X141907367Y-92502272D01*
X142092945Y-92524401D01*
X142099080Y-92523929D01*
X142099082Y-92523929D01*
X142155119Y-92519617D01*
X142279287Y-92510063D01*
X142459296Y-92459804D01*
X142464785Y-92457031D01*
X142464791Y-92457029D01*
X142542159Y-92417947D01*
X142626114Y-92375538D01*
X142654524Y-92353342D01*
X142678486Y-92334621D01*
X142773387Y-92260475D01*
X142777413Y-92255811D01*
X142777416Y-92255808D01*
X142891480Y-92123663D01*
X142895507Y-92118998D01*
X142987821Y-91956495D01*
X142996134Y-91931507D01*
X143018135Y-91865368D01*
X143046814Y-91779157D01*
X143058778Y-91684454D01*
X143069796Y-91597241D01*
X143069797Y-91597232D01*
X143070238Y-91593738D01*
X143070611Y-91567000D01*
X143052373Y-91380999D01*
X143048419Y-91367901D01*
X143000136Y-91207983D01*
X142998355Y-91202083D01*
X142910615Y-91037066D01*
X142846732Y-90958738D01*
X142796388Y-90897010D01*
X142796385Y-90897007D01*
X142792493Y-90892235D01*
X142787744Y-90888306D01*
X142653239Y-90777034D01*
X142653236Y-90777032D01*
X142648489Y-90773105D01*
X142484089Y-90684214D01*
X142394821Y-90656581D01*
X142311441Y-90630770D01*
X142311438Y-90630769D01*
X142305554Y-90628948D01*
X142299429Y-90628304D01*
X142299428Y-90628304D01*
X142125813Y-90610056D01*
X142125812Y-90610056D01*
X142119685Y-90609412D01*
X142001087Y-90620206D01*
X141939703Y-90625792D01*
X141939702Y-90625792D01*
X141933562Y-90626351D01*
X141927648Y-90628092D01*
X141927646Y-90628092D01*
X141805466Y-90664052D01*
X141754273Y-90679119D01*
X141748808Y-90681976D01*
X141608522Y-90755315D01*
X141588647Y-90765705D01*
X141442995Y-90882813D01*
X141322862Y-91025981D01*
X141319899Y-91031370D01*
X141319896Y-91031375D01*
X141280204Y-91103576D01*
X141232826Y-91189757D01*
X141176315Y-91367901D01*
X141155482Y-91553630D01*
X132504463Y-91553630D01*
X132542655Y-91475497D01*
X132548947Y-91432366D01*
X132552840Y-91405684D01*
X132552840Y-91405680D01*
X132553500Y-91401158D01*
X132553500Y-90128842D01*
X132551098Y-90112518D01*
X132543888Y-90063541D01*
X132543887Y-90063539D01*
X132542462Y-90053856D01*
X132538147Y-90045067D01*
X132491077Y-89949197D01*
X132491076Y-89949196D01*
X132486487Y-89939849D01*
X132396601Y-89850120D01*
X132282497Y-89794345D01*
X132249716Y-89789563D01*
X132212684Y-89784160D01*
X132212680Y-89784160D01*
X132208158Y-89783500D01*
X130935842Y-89783500D01*
X130931294Y-89784170D01*
X130931287Y-89784170D01*
X130870541Y-89793112D01*
X130870539Y-89793113D01*
X130860856Y-89794538D01*
X130852068Y-89798853D01*
X130852067Y-89798853D01*
X130756197Y-89845923D01*
X130756196Y-89845924D01*
X130746849Y-89850513D01*
X130657120Y-89940399D01*
X130601345Y-90054503D01*
X130599933Y-90064183D01*
X130591165Y-90124287D01*
X130590500Y-90128842D01*
X130590500Y-91401158D01*
X127635000Y-91401158D01*
X127635000Y-87997630D01*
X134297482Y-87997630D01*
X134313121Y-88183867D01*
X134364636Y-88363520D01*
X134450064Y-88529746D01*
X134453887Y-88534570D01*
X134453890Y-88534574D01*
X134559170Y-88667402D01*
X134566152Y-88676212D01*
X134570846Y-88680207D01*
X134603819Y-88708269D01*
X134708478Y-88797342D01*
X134871621Y-88888519D01*
X135049367Y-88946272D01*
X135234945Y-88968401D01*
X135241080Y-88967929D01*
X135241082Y-88967929D01*
X135297119Y-88963617D01*
X135421287Y-88954063D01*
X135601296Y-88903804D01*
X135606785Y-88901031D01*
X135606791Y-88901029D01*
X135684159Y-88861947D01*
X135768114Y-88819538D01*
X135781989Y-88808698D01*
X135820486Y-88778621D01*
X135915387Y-88704475D01*
X135919413Y-88699811D01*
X135919416Y-88699808D01*
X136033480Y-88567663D01*
X136037507Y-88562998D01*
X136129821Y-88400495D01*
X136144091Y-88357600D01*
X136159218Y-88312126D01*
X136188814Y-88223157D01*
X136194553Y-88177727D01*
X136211796Y-88041241D01*
X136211797Y-88041232D01*
X136212238Y-88037738D01*
X136212611Y-88011000D01*
X136194373Y-87824999D01*
X136190419Y-87811901D01*
X136169434Y-87742397D01*
X136140355Y-87646083D01*
X136052615Y-87481066D01*
X136043574Y-87469981D01*
X135938388Y-87341010D01*
X135938385Y-87341007D01*
X135934493Y-87336235D01*
X135929744Y-87332306D01*
X135795239Y-87221034D01*
X135795236Y-87221032D01*
X135790489Y-87217105D01*
X135626089Y-87128214D01*
X135536821Y-87100581D01*
X135453441Y-87074770D01*
X135453438Y-87074769D01*
X135447554Y-87072948D01*
X135441429Y-87072304D01*
X135441428Y-87072304D01*
X135267813Y-87054056D01*
X135267812Y-87054056D01*
X135261685Y-87053412D01*
X135143087Y-87064206D01*
X135081703Y-87069792D01*
X135081702Y-87069792D01*
X135075562Y-87070351D01*
X135069648Y-87072092D01*
X135069646Y-87072092D01*
X134947466Y-87108052D01*
X134896273Y-87123119D01*
X134890808Y-87125976D01*
X134799948Y-87173476D01*
X134730647Y-87209705D01*
X134584995Y-87326813D01*
X134464862Y-87469981D01*
X134461899Y-87475370D01*
X134461896Y-87475375D01*
X134388509Y-87608868D01*
X134374826Y-87633757D01*
X134318315Y-87811901D01*
X134297482Y-87997630D01*
X127635000Y-87997630D01*
X127635000Y-85965630D01*
X142171482Y-85965630D01*
X142187121Y-86151867D01*
X142238636Y-86331520D01*
X142324064Y-86497746D01*
X142327887Y-86502570D01*
X142327890Y-86502574D01*
X142411754Y-86608383D01*
X142440152Y-86644212D01*
X142582478Y-86765342D01*
X142745621Y-86856519D01*
X142923367Y-86914272D01*
X143108945Y-86936401D01*
X143115080Y-86935929D01*
X143115082Y-86935929D01*
X143171119Y-86931617D01*
X143295287Y-86922063D01*
X143301218Y-86920407D01*
X143305388Y-86919672D01*
X143375947Y-86927542D01*
X143431050Y-86972310D01*
X143453203Y-87039762D01*
X143449389Y-87074772D01*
X143447001Y-87084174D01*
X143446998Y-87084189D01*
X143446470Y-87086267D01*
X143446086Y-87088371D01*
X143446084Y-87088379D01*
X143401676Y-87331534D01*
X143342372Y-87656254D01*
X143342129Y-87658401D01*
X143342129Y-87658403D01*
X143278975Y-88217037D01*
X143277283Y-88232002D01*
X143251504Y-88810844D01*
X143255266Y-88970486D01*
X143265155Y-89390098D01*
X143299780Y-89766923D01*
X143316529Y-89949197D01*
X143318172Y-89967083D01*
X143318511Y-89969186D01*
X143318512Y-89969196D01*
X143346351Y-90142034D01*
X143410311Y-90539125D01*
X143410791Y-90541196D01*
X143410792Y-90541201D01*
X143523158Y-91025981D01*
X143541143Y-91103576D01*
X143541774Y-91105646D01*
X143691601Y-91597241D01*
X143710064Y-91657821D01*
X143916291Y-92199293D01*
X143917194Y-92201251D01*
X143917197Y-92201259D01*
X143988694Y-92356348D01*
X144158869Y-92725485D01*
X144436674Y-93233960D01*
X144437816Y-93235749D01*
X144437823Y-93235761D01*
X144742208Y-93712630D01*
X144748420Y-93722362D01*
X145092663Y-94188429D01*
X145094059Y-94190072D01*
X145094062Y-94190076D01*
X145442753Y-94600512D01*
X145467808Y-94630004D01*
X145469305Y-94631541D01*
X145469308Y-94631544D01*
X145870625Y-95043507D01*
X145870634Y-95043516D01*
X145872119Y-95045040D01*
X146303722Y-95431616D01*
X146328513Y-95450950D01*
X146758931Y-95786626D01*
X146758943Y-95786635D01*
X146760618Y-95787941D01*
X147240692Y-96112365D01*
X147375709Y-96190789D01*
X147739872Y-96402312D01*
X147739881Y-96402317D01*
X147741720Y-96403385D01*
X148006281Y-96533852D01*
X148255242Y-96656626D01*
X148261382Y-96659654D01*
X148263374Y-96660473D01*
X148795299Y-96879174D01*
X148795309Y-96879178D01*
X148797270Y-96879984D01*
X149309814Y-97050982D01*
X149368102Y-97091514D01*
X149395225Y-97157126D01*
X149382569Y-97226985D01*
X149334154Y-97278913D01*
X149305514Y-97291378D01*
X149247273Y-97308519D01*
X149241808Y-97311376D01*
X149164162Y-97351968D01*
X149081647Y-97395105D01*
X148935995Y-97512213D01*
X148815862Y-97655381D01*
X148812899Y-97660770D01*
X148812896Y-97660775D01*
X148761334Y-97754567D01*
X148725826Y-97819157D01*
X148669315Y-97997301D01*
X148648482Y-98183030D01*
X148648998Y-98189174D01*
X148663351Y-98360096D01*
X148664121Y-98369267D01*
X148715636Y-98548920D01*
X148757278Y-98629948D01*
X148784443Y-98682804D01*
X148801064Y-98715146D01*
X148804887Y-98719970D01*
X148804890Y-98719974D01*
X148876555Y-98810392D01*
X148917152Y-98861612D01*
X148921846Y-98865607D01*
X148959399Y-98897567D01*
X149059478Y-98982742D01*
X149222621Y-99073919D01*
X149400367Y-99131672D01*
X149585945Y-99153801D01*
X149592080Y-99153329D01*
X149592082Y-99153329D01*
X149648119Y-99149017D01*
X149772287Y-99139463D01*
X149952296Y-99089204D01*
X149957785Y-99086431D01*
X149957791Y-99086429D01*
X150035159Y-99047347D01*
X150119114Y-99004938D01*
X150147524Y-98982742D01*
X150207803Y-98935646D01*
X150266387Y-98889875D01*
X150270413Y-98885211D01*
X150270416Y-98885208D01*
X150381127Y-98756948D01*
X150388507Y-98748398D01*
X150457271Y-98627351D01*
X150477778Y-98591252D01*
X150477779Y-98591251D01*
X150480821Y-98585895D01*
X150490931Y-98555505D01*
X150537867Y-98414409D01*
X150539814Y-98408557D01*
X150546845Y-98352901D01*
X150562796Y-98226641D01*
X150562797Y-98226632D01*
X150563238Y-98223138D01*
X150563611Y-98196400D01*
X150545373Y-98010399D01*
X150541419Y-97997301D01*
X150503749Y-97872534D01*
X150491355Y-97831483D01*
X150462190Y-97776630D01*
X171127482Y-97776630D01*
X171127998Y-97782774D01*
X171134815Y-97863950D01*
X171143121Y-97962867D01*
X171194636Y-98142520D01*
X171280064Y-98308746D01*
X171283887Y-98313570D01*
X171283890Y-98313574D01*
X171363812Y-98414409D01*
X171396152Y-98455212D01*
X171400846Y-98459207D01*
X171509877Y-98552000D01*
X171538478Y-98576342D01*
X171701621Y-98667519D01*
X171879367Y-98725272D01*
X172064945Y-98747401D01*
X172071080Y-98746929D01*
X172071082Y-98746929D01*
X172127119Y-98742617D01*
X172251287Y-98733063D01*
X172431296Y-98682804D01*
X172436785Y-98680031D01*
X172436791Y-98680029D01*
X172532326Y-98631770D01*
X172598114Y-98598538D01*
X172614297Y-98585895D01*
X172654612Y-98554397D01*
X172745387Y-98483475D01*
X172749413Y-98478811D01*
X172749416Y-98478808D01*
X172858096Y-98352901D01*
X172867507Y-98341998D01*
X172933039Y-98226641D01*
X172956778Y-98184852D01*
X172956779Y-98184851D01*
X172959821Y-98179495D01*
X172974091Y-98136600D01*
X173012191Y-98022066D01*
X173018814Y-98002157D01*
X173032671Y-97892469D01*
X173041796Y-97820241D01*
X173041797Y-97820232D01*
X173042238Y-97816738D01*
X173042611Y-97790000D01*
X173024373Y-97603999D01*
X173020419Y-97590901D01*
X172972136Y-97430983D01*
X172970355Y-97425083D01*
X172882615Y-97260066D01*
X172873574Y-97248981D01*
X172768388Y-97120010D01*
X172768385Y-97120007D01*
X172764493Y-97115235D01*
X172759744Y-97111306D01*
X172625239Y-97000034D01*
X172625236Y-97000032D01*
X172620489Y-96996105D01*
X172456089Y-96907214D01*
X172365507Y-96879174D01*
X172283441Y-96853770D01*
X172283438Y-96853769D01*
X172277554Y-96851948D01*
X172271429Y-96851304D01*
X172271428Y-96851304D01*
X172097813Y-96833056D01*
X172097812Y-96833056D01*
X172091685Y-96832412D01*
X171986345Y-96841999D01*
X171911703Y-96848792D01*
X171911702Y-96848792D01*
X171905562Y-96849351D01*
X171899648Y-96851092D01*
X171899646Y-96851092D01*
X171804233Y-96879174D01*
X171726273Y-96902119D01*
X171720808Y-96904976D01*
X171597573Y-96969401D01*
X171560647Y-96988705D01*
X171414995Y-97105813D01*
X171294862Y-97248981D01*
X171291899Y-97254370D01*
X171291896Y-97254375D01*
X171225803Y-97374600D01*
X171204826Y-97412757D01*
X171202965Y-97418624D01*
X171202964Y-97418626D01*
X171200916Y-97425083D01*
X171148315Y-97590901D01*
X171127482Y-97776630D01*
X150462190Y-97776630D01*
X150403615Y-97666466D01*
X150352668Y-97603999D01*
X150289388Y-97526410D01*
X150289385Y-97526407D01*
X150285493Y-97521635D01*
X150280745Y-97517707D01*
X150276403Y-97513335D01*
X150277960Y-97511789D01*
X150243751Y-97461153D01*
X150242122Y-97390175D01*
X150279125Y-97329584D01*
X150343012Y-97298617D01*
X150387087Y-97299060D01*
X150425197Y-97306226D01*
X150477171Y-97316000D01*
X150479278Y-97316249D01*
X150479282Y-97316250D01*
X150688864Y-97341056D01*
X151052570Y-97384103D01*
X151054716Y-97384210D01*
X151054718Y-97384210D01*
X151629135Y-97412807D01*
X151629141Y-97412807D01*
X151631268Y-97412913D01*
X151633397Y-97412874D01*
X151633399Y-97412874D01*
X151780902Y-97410170D01*
X152210586Y-97402295D01*
X152590260Y-97369411D01*
X152785695Y-97352485D01*
X152785699Y-97352485D01*
X152787841Y-97352299D01*
X153360358Y-97263157D01*
X153662776Y-97194727D01*
X153923401Y-97135754D01*
X153923407Y-97135752D01*
X153925486Y-97135282D01*
X153992519Y-97115235D01*
X154284212Y-97028000D01*
X154480608Y-96969265D01*
X154482605Y-96968516D01*
X154482618Y-96968512D01*
X154920891Y-96804212D01*
X155023153Y-96765876D01*
X155155998Y-96705475D01*
X155548664Y-96526941D01*
X155548678Y-96526934D01*
X155550607Y-96526057D01*
X155552478Y-96525048D01*
X155552487Y-96525043D01*
X156058662Y-96251926D01*
X156058664Y-96251925D01*
X156060530Y-96250918D01*
X156062311Y-96249794D01*
X156062320Y-96249789D01*
X156268806Y-96119505D01*
X156550557Y-95941733D01*
X156945808Y-95652983D01*
X157016669Y-95601216D01*
X157016671Y-95601215D01*
X157018421Y-95599936D01*
X157026359Y-95593264D01*
X157460316Y-95228484D01*
X157461953Y-95227108D01*
X157463481Y-95225635D01*
X157463491Y-95225626D01*
X157782953Y-94917663D01*
X157879101Y-94824976D01*
X158267931Y-94395403D01*
X158275044Y-94386381D01*
X158625319Y-93942059D01*
X158625322Y-93942055D01*
X158626644Y-93940378D01*
X158782294Y-93712630D01*
X169832082Y-93712630D01*
X169832598Y-93718774D01*
X169842028Y-93831066D01*
X169847721Y-93898867D01*
X169899236Y-94078520D01*
X169941950Y-94161633D01*
X169981399Y-94238392D01*
X169984664Y-94244746D01*
X169988487Y-94249570D01*
X169988490Y-94249574D01*
X170066209Y-94347630D01*
X170100752Y-94391212D01*
X170105446Y-94395207D01*
X170220891Y-94493459D01*
X170243078Y-94512342D01*
X170406221Y-94603519D01*
X170583967Y-94661272D01*
X170769545Y-94683401D01*
X170775680Y-94682929D01*
X170775682Y-94682929D01*
X170831719Y-94678617D01*
X170955887Y-94669063D01*
X171135896Y-94618804D01*
X171141385Y-94616031D01*
X171141391Y-94616029D01*
X171218759Y-94576947D01*
X171302714Y-94534538D01*
X171330429Y-94512885D01*
X171413176Y-94448235D01*
X171449987Y-94419475D01*
X171454013Y-94414811D01*
X171454016Y-94414808D01*
X171512002Y-94347630D01*
X173159482Y-94347630D01*
X173159998Y-94353774D01*
X173171728Y-94493459D01*
X173175121Y-94533867D01*
X173176819Y-94539788D01*
X173176819Y-94539789D01*
X173181447Y-94555929D01*
X173226636Y-94713520D01*
X173246220Y-94751626D01*
X173284684Y-94826469D01*
X173312064Y-94879746D01*
X173315887Y-94884570D01*
X173315890Y-94884574D01*
X173357442Y-94936999D01*
X173428152Y-95026212D01*
X173432846Y-95030207D01*
X173552621Y-95132144D01*
X173570478Y-95147342D01*
X173733621Y-95238519D01*
X173911367Y-95296272D01*
X174096945Y-95318401D01*
X174103080Y-95317929D01*
X174103082Y-95317929D01*
X174159119Y-95313617D01*
X174283287Y-95304063D01*
X174463296Y-95253804D01*
X174468785Y-95251031D01*
X174468791Y-95251029D01*
X174564326Y-95202770D01*
X174630114Y-95169538D01*
X174658524Y-95147342D01*
X174689527Y-95123119D01*
X174777387Y-95054475D01*
X174781413Y-95049811D01*
X174781416Y-95049808D01*
X174890096Y-94923901D01*
X174899507Y-94912998D01*
X174984159Y-94763983D01*
X174988778Y-94755852D01*
X174988779Y-94755851D01*
X174991821Y-94750495D01*
X175006091Y-94707600D01*
X175032450Y-94628360D01*
X175050814Y-94573157D01*
X175065992Y-94453010D01*
X175073796Y-94391241D01*
X175073797Y-94391232D01*
X175074238Y-94387738D01*
X175074611Y-94361000D01*
X175056373Y-94174999D01*
X175052419Y-94161901D01*
X175004136Y-94001983D01*
X175002355Y-93996083D01*
X174914615Y-93831066D01*
X174905574Y-93819981D01*
X174800388Y-93691010D01*
X174800385Y-93691007D01*
X174796493Y-93686235D01*
X174791744Y-93682306D01*
X174657239Y-93571034D01*
X174657236Y-93571032D01*
X174652489Y-93567105D01*
X174488089Y-93478214D01*
X174398822Y-93450581D01*
X174315441Y-93424770D01*
X174315438Y-93424769D01*
X174309554Y-93422948D01*
X174303429Y-93422304D01*
X174303428Y-93422304D01*
X174129813Y-93404056D01*
X174129812Y-93404056D01*
X174123685Y-93403412D01*
X174005087Y-93414206D01*
X173943703Y-93419792D01*
X173943702Y-93419792D01*
X173937562Y-93420351D01*
X173931648Y-93422092D01*
X173931646Y-93422092D01*
X173809466Y-93458052D01*
X173758273Y-93473119D01*
X173752808Y-93475976D01*
X173630342Y-93539999D01*
X173592647Y-93559705D01*
X173446995Y-93676813D01*
X173326862Y-93819981D01*
X173323899Y-93825370D01*
X173323896Y-93825375D01*
X173258677Y-93944009D01*
X173236826Y-93983757D01*
X173234965Y-93989624D01*
X173234964Y-93989626D01*
X173232916Y-93996083D01*
X173180315Y-94161901D01*
X173159482Y-94347630D01*
X171512002Y-94347630D01*
X171534380Y-94321705D01*
X171572107Y-94277998D01*
X171577669Y-94268207D01*
X171661378Y-94120852D01*
X171661379Y-94120851D01*
X171664421Y-94115495D01*
X171678691Y-94072600D01*
X171704144Y-93996083D01*
X171723414Y-93938157D01*
X171729153Y-93892727D01*
X171746396Y-93756241D01*
X171746397Y-93756232D01*
X171746838Y-93752738D01*
X171747211Y-93726000D01*
X171728973Y-93539999D01*
X171725019Y-93526901D01*
X171690608Y-93412929D01*
X171674955Y-93361083D01*
X171587215Y-93196066D01*
X171560481Y-93163287D01*
X171472988Y-93056010D01*
X171472985Y-93056007D01*
X171469093Y-93051235D01*
X171464344Y-93047306D01*
X171329839Y-92936034D01*
X171329836Y-92936032D01*
X171325089Y-92932105D01*
X171160689Y-92843214D01*
X171071421Y-92815581D01*
X170988041Y-92789770D01*
X170988038Y-92789769D01*
X170982154Y-92787948D01*
X170976029Y-92787304D01*
X170976028Y-92787304D01*
X170802413Y-92769056D01*
X170802412Y-92769056D01*
X170796285Y-92768412D01*
X170677687Y-92779206D01*
X170616303Y-92784792D01*
X170616302Y-92784792D01*
X170610162Y-92785351D01*
X170604248Y-92787092D01*
X170604246Y-92787092D01*
X170512832Y-92813997D01*
X170430873Y-92838119D01*
X170425408Y-92840976D01*
X170273662Y-92920306D01*
X170265247Y-92924705D01*
X170119595Y-93041813D01*
X169999462Y-93184981D01*
X169996499Y-93190370D01*
X169996496Y-93190375D01*
X169966275Y-93245348D01*
X169909426Y-93348757D01*
X169852915Y-93526901D01*
X169832082Y-93712630D01*
X158782294Y-93712630D01*
X158806773Y-93676813D01*
X158952361Y-93463790D01*
X158952368Y-93463780D01*
X158953577Y-93462010D01*
X159247216Y-92962512D01*
X159264178Y-92928567D01*
X159473057Y-92510535D01*
X159506203Y-92444199D01*
X159507020Y-92442241D01*
X159507026Y-92442228D01*
X159728513Y-91911445D01*
X159728516Y-91911437D01*
X159729336Y-91909472D01*
X159835334Y-91597212D01*
X159914891Y-91362845D01*
X159914892Y-91362841D01*
X159915583Y-91360806D01*
X159923205Y-91332059D01*
X159959998Y-91271340D01*
X160023777Y-91240151D01*
X160094293Y-91248395D01*
X160149158Y-91293454D01*
X160157064Y-91306757D01*
X160198372Y-91387133D01*
X160231064Y-91450746D01*
X160234887Y-91455570D01*
X160234890Y-91455574D01*
X160326687Y-91571392D01*
X160347152Y-91597212D01*
X160351846Y-91601207D01*
X160444286Y-91679880D01*
X160489478Y-91718342D01*
X160652621Y-91809519D01*
X160830367Y-91867272D01*
X161015945Y-91889401D01*
X161022080Y-91888929D01*
X161022082Y-91888929D01*
X161078119Y-91884617D01*
X161202287Y-91875063D01*
X161382296Y-91824804D01*
X161387785Y-91822031D01*
X161387791Y-91822029D01*
X161468548Y-91781235D01*
X161549114Y-91740538D01*
X161577524Y-91718342D01*
X161649503Y-91662105D01*
X161696387Y-91625475D01*
X161700413Y-91620811D01*
X161700416Y-91620808D01*
X161805509Y-91499056D01*
X161818507Y-91483998D01*
X161910821Y-91321495D01*
X161927506Y-91271340D01*
X161967867Y-91150009D01*
X161969814Y-91144157D01*
X161975206Y-91101476D01*
X161992796Y-90962241D01*
X161992797Y-90962232D01*
X161993238Y-90958738D01*
X161993611Y-90932000D01*
X161975373Y-90745999D01*
X161971419Y-90732901D01*
X161934329Y-90610056D01*
X161921355Y-90567083D01*
X161833615Y-90402066D01*
X161824574Y-90390981D01*
X161719388Y-90262010D01*
X161719385Y-90262007D01*
X161715493Y-90257235D01*
X161710744Y-90253306D01*
X161576239Y-90142034D01*
X161576236Y-90142032D01*
X161571489Y-90138105D01*
X161407089Y-90049214D01*
X161317821Y-90021581D01*
X161234441Y-89995770D01*
X161234438Y-89995769D01*
X161228554Y-89993948D01*
X161222429Y-89993304D01*
X161222428Y-89993304D01*
X161048813Y-89975056D01*
X161048812Y-89975056D01*
X161042685Y-89974412D01*
X160924087Y-89985206D01*
X160862703Y-89990792D01*
X160862702Y-89990792D01*
X160856562Y-89991351D01*
X160850648Y-89993092D01*
X160850646Y-89993092D01*
X160728466Y-90029052D01*
X160677273Y-90044119D01*
X160671808Y-90046976D01*
X160523924Y-90124287D01*
X160511647Y-90130705D01*
X160497557Y-90142034D01*
X160392902Y-90226179D01*
X160327280Y-90253276D01*
X160257425Y-90240593D01*
X160205517Y-90192157D01*
X160188035Y-90123346D01*
X160188903Y-90112518D01*
X160197578Y-90042377D01*
X160245257Y-89656843D01*
X160277096Y-89078303D01*
X160278963Y-88900000D01*
X160276095Y-88815746D01*
X160264174Y-88465633D01*
X160259247Y-88320920D01*
X160200190Y-87744523D01*
X160182341Y-87640644D01*
X160102431Y-87175594D01*
X160102431Y-87175592D01*
X160102067Y-87173476D01*
X160101563Y-87171402D01*
X160101560Y-87171386D01*
X159965836Y-86612510D01*
X159965835Y-86612506D01*
X159965330Y-86610427D01*
X159930027Y-86498797D01*
X159791258Y-86060014D01*
X159791258Y-86060013D01*
X159790615Y-86057981D01*
X159781225Y-86034080D01*
X159605376Y-85586519D01*
X159578729Y-85518698D01*
X159543044Y-85443375D01*
X159489629Y-85330630D01*
X164650482Y-85330630D01*
X164650998Y-85336774D01*
X164660428Y-85449066D01*
X164666121Y-85516867D01*
X164717636Y-85696520D01*
X164803064Y-85862746D01*
X164806887Y-85867570D01*
X164806890Y-85867574D01*
X164889479Y-85971774D01*
X164919152Y-86009212D01*
X164923846Y-86013207D01*
X164978844Y-86060014D01*
X165061478Y-86130342D01*
X165224621Y-86221519D01*
X165402367Y-86279272D01*
X165587945Y-86301401D01*
X165594080Y-86300929D01*
X165594082Y-86300929D01*
X165650119Y-86296617D01*
X165774287Y-86287063D01*
X165954296Y-86236804D01*
X165959785Y-86234031D01*
X165959791Y-86234029D01*
X166037159Y-86194947D01*
X166121114Y-86152538D01*
X166149524Y-86130342D01*
X166173486Y-86111621D01*
X166268387Y-86037475D01*
X166272413Y-86032811D01*
X166272416Y-86032808D01*
X166386480Y-85900663D01*
X166390507Y-85895998D01*
X166482821Y-85733495D01*
X166497091Y-85690600D01*
X166524692Y-85607626D01*
X166541814Y-85556157D01*
X166557339Y-85433264D01*
X166564796Y-85374241D01*
X166564797Y-85374232D01*
X166565238Y-85370738D01*
X166565611Y-85344000D01*
X166547373Y-85157999D01*
X166543419Y-85144901D01*
X166506329Y-85022056D01*
X166493355Y-84979083D01*
X166405615Y-84814066D01*
X166392727Y-84798264D01*
X166291388Y-84674010D01*
X166291385Y-84674007D01*
X166287493Y-84669235D01*
X166282744Y-84665306D01*
X166148239Y-84554034D01*
X166148236Y-84554032D01*
X166143489Y-84550105D01*
X165979089Y-84461214D01*
X165889821Y-84433581D01*
X165806441Y-84407770D01*
X165806438Y-84407769D01*
X165800554Y-84405948D01*
X165794429Y-84405304D01*
X165794428Y-84405304D01*
X165620813Y-84387056D01*
X165620812Y-84387056D01*
X165614685Y-84386412D01*
X165496087Y-84397206D01*
X165434703Y-84402792D01*
X165434702Y-84402792D01*
X165428562Y-84403351D01*
X165422648Y-84405092D01*
X165422646Y-84405092D01*
X165387698Y-84415378D01*
X165249273Y-84456119D01*
X165243808Y-84458976D01*
X165121342Y-84522999D01*
X165083647Y-84542705D01*
X164937995Y-84659813D01*
X164817862Y-84802981D01*
X164814899Y-84808370D01*
X164814896Y-84808375D01*
X164756720Y-84914198D01*
X164727826Y-84966757D01*
X164671315Y-85144901D01*
X164650482Y-85330630D01*
X159489629Y-85330630D01*
X159405045Y-85152096D01*
X159330654Y-84995075D01*
X159047540Y-84489537D01*
X159027580Y-84458976D01*
X158731864Y-84006215D01*
X158731861Y-84006211D01*
X158730696Y-84004427D01*
X158590998Y-83819377D01*
X158382894Y-83543713D01*
X158382886Y-83543704D01*
X158381592Y-83541989D01*
X158320329Y-83471389D01*
X158003244Y-83105982D01*
X158003237Y-83105975D01*
X158001843Y-83104368D01*
X157593209Y-82693588D01*
X157157581Y-82311553D01*
X157085880Y-82256832D01*
X156698685Y-81961335D01*
X156696978Y-81960032D01*
X156213533Y-81640653D01*
X155709485Y-81354896D01*
X155622418Y-81313087D01*
X155189099Y-81105010D01*
X155189093Y-81105007D01*
X155187168Y-81104083D01*
X155185188Y-81103293D01*
X155185181Y-81103290D01*
X154650980Y-80890165D01*
X154650976Y-80890164D01*
X154649002Y-80889376D01*
X154342265Y-80790598D01*
X154099508Y-80712423D01*
X154099497Y-80712420D01*
X154097479Y-80711770D01*
X154095416Y-80711257D01*
X154095407Y-80711255D01*
X153537237Y-80572606D01*
X153535152Y-80572088D01*
X152964628Y-80470975D01*
X152962516Y-80470747D01*
X152962513Y-80470747D01*
X152390685Y-80409131D01*
X152390674Y-80409130D01*
X152388547Y-80408901D01*
X151809579Y-80386154D01*
X151807460Y-80386215D01*
X151807450Y-80386215D01*
X151232549Y-80402775D01*
X151232543Y-80402775D01*
X151230404Y-80402837D01*
X151228272Y-80403044D01*
X151228259Y-80403045D01*
X150819249Y-80442789D01*
X150653705Y-80458875D01*
X150651604Y-80459225D01*
X150651594Y-80459226D01*
X150239129Y-80527879D01*
X150168649Y-80519333D01*
X150113978Y-80474039D01*
X150092473Y-80406378D01*
X150110962Y-80337831D01*
X150123062Y-80321257D01*
X150130480Y-80312664D01*
X150130483Y-80312660D01*
X150134507Y-80307998D01*
X150167096Y-80250630D01*
X164828282Y-80250630D01*
X164828798Y-80256774D01*
X164842942Y-80425207D01*
X164843921Y-80436867D01*
X164895436Y-80616520D01*
X164925720Y-80675447D01*
X164956845Y-80736009D01*
X164980864Y-80782746D01*
X164984687Y-80787570D01*
X164984690Y-80787574D01*
X165075103Y-80901646D01*
X165096952Y-80929212D01*
X165101646Y-80933207D01*
X165228976Y-81041574D01*
X165239278Y-81050342D01*
X165402421Y-81141519D01*
X165580167Y-81199272D01*
X165765745Y-81221401D01*
X165771880Y-81220929D01*
X165771882Y-81220929D01*
X165827919Y-81216617D01*
X165952087Y-81207063D01*
X166132096Y-81156804D01*
X166137585Y-81154031D01*
X166137591Y-81154029D01*
X166253020Y-81095721D01*
X166298914Y-81072538D01*
X166300049Y-81071651D01*
X166366711Y-81052488D01*
X166427464Y-81068498D01*
X166558121Y-81141519D01*
X166735867Y-81199272D01*
X166921445Y-81221401D01*
X166927580Y-81220929D01*
X166927582Y-81220929D01*
X166983619Y-81216617D01*
X167107787Y-81207063D01*
X167287796Y-81156804D01*
X167293285Y-81154031D01*
X167293291Y-81154029D01*
X167390330Y-81105010D01*
X167454614Y-81072538D01*
X167464220Y-81065033D01*
X167530214Y-81038853D01*
X167603265Y-81054332D01*
X167713821Y-81116119D01*
X167891567Y-81173872D01*
X168077145Y-81196001D01*
X168083280Y-81195529D01*
X168083282Y-81195529D01*
X168139319Y-81191217D01*
X168263487Y-81181663D01*
X168443496Y-81131404D01*
X168448985Y-81128631D01*
X168448991Y-81128629D01*
X168554535Y-81075314D01*
X168610314Y-81047138D01*
X168620919Y-81038853D01*
X168662686Y-81006221D01*
X168757587Y-80932075D01*
X168761613Y-80927411D01*
X168761616Y-80927408D01*
X168875680Y-80795263D01*
X168879707Y-80790598D01*
X168939850Y-80684727D01*
X168968978Y-80633452D01*
X168968979Y-80633451D01*
X168972021Y-80628095D01*
X168999548Y-80545348D01*
X169024364Y-80470747D01*
X169031014Y-80450757D01*
X169045280Y-80337831D01*
X169053996Y-80268841D01*
X169053997Y-80268832D01*
X169054438Y-80265338D01*
X169054811Y-80238600D01*
X169036573Y-80052599D01*
X169034040Y-80044207D01*
X168993451Y-79909772D01*
X168982555Y-79873683D01*
X168894815Y-79708666D01*
X168800487Y-79593009D01*
X168780588Y-79568610D01*
X168780585Y-79568607D01*
X168776693Y-79563835D01*
X168771944Y-79559906D01*
X168637439Y-79448634D01*
X168637436Y-79448632D01*
X168632689Y-79444705D01*
X168468289Y-79355814D01*
X168371808Y-79325948D01*
X168295641Y-79302370D01*
X168295638Y-79302369D01*
X168289754Y-79300548D01*
X168283629Y-79299904D01*
X168283628Y-79299904D01*
X168110013Y-79281656D01*
X168110012Y-79281656D01*
X168103885Y-79281012D01*
X167985287Y-79291806D01*
X167923903Y-79297392D01*
X167923902Y-79297392D01*
X167917762Y-79297951D01*
X167911848Y-79299692D01*
X167911846Y-79299692D01*
X167886826Y-79307056D01*
X167738473Y-79350719D01*
X167733008Y-79353576D01*
X167632339Y-79406204D01*
X167572847Y-79437305D01*
X167568042Y-79441168D01*
X167565486Y-79442841D01*
X167497533Y-79463406D01*
X167436562Y-79448246D01*
X167410105Y-79433941D01*
X167312589Y-79381214D01*
X167214076Y-79350719D01*
X167139941Y-79327770D01*
X167139938Y-79327769D01*
X167134054Y-79325948D01*
X167127929Y-79325304D01*
X167127928Y-79325304D01*
X166954313Y-79307056D01*
X166954312Y-79307056D01*
X166948185Y-79306412D01*
X166829587Y-79317206D01*
X166768203Y-79322792D01*
X166768202Y-79322792D01*
X166762062Y-79323351D01*
X166756148Y-79325092D01*
X166756146Y-79325092D01*
X166652813Y-79355505D01*
X166582773Y-79376119D01*
X166420823Y-79460783D01*
X166351188Y-79474617D01*
X166302522Y-79459957D01*
X166156889Y-79381214D01*
X166058376Y-79350719D01*
X165984241Y-79327770D01*
X165984238Y-79327769D01*
X165978354Y-79325948D01*
X165972229Y-79325304D01*
X165972228Y-79325304D01*
X165798613Y-79307056D01*
X165798612Y-79307056D01*
X165792485Y-79306412D01*
X165673887Y-79317206D01*
X165612503Y-79322792D01*
X165612502Y-79322792D01*
X165606362Y-79323351D01*
X165600448Y-79325092D01*
X165600446Y-79325092D01*
X165497113Y-79355505D01*
X165427073Y-79376119D01*
X165421608Y-79378976D01*
X165288363Y-79448634D01*
X165261447Y-79462705D01*
X165115795Y-79579813D01*
X164995662Y-79722981D01*
X164992699Y-79728370D01*
X164992696Y-79728375D01*
X164934995Y-79833334D01*
X164905626Y-79886757D01*
X164903765Y-79892624D01*
X164903764Y-79892626D01*
X164892268Y-79928867D01*
X164849115Y-80064901D01*
X164828282Y-80250630D01*
X150167096Y-80250630D01*
X150220087Y-80157349D01*
X150223778Y-80150852D01*
X150223779Y-80150851D01*
X150226821Y-80145495D01*
X150241091Y-80102600D01*
X150279191Y-79988066D01*
X150285814Y-79968157D01*
X150294525Y-79899200D01*
X150308796Y-79786241D01*
X150308797Y-79786232D01*
X150309238Y-79782738D01*
X150309611Y-79756000D01*
X150291373Y-79569999D01*
X150288612Y-79560852D01*
X150254731Y-79448634D01*
X150237355Y-79391083D01*
X150149615Y-79226066D01*
X150119384Y-79188999D01*
X150035388Y-79086010D01*
X150035385Y-79086007D01*
X150031493Y-79081235D01*
X150026744Y-79077306D01*
X149892239Y-78966034D01*
X149892236Y-78966032D01*
X149887489Y-78962105D01*
X149723089Y-78873214D01*
X149613773Y-78839375D01*
X149550441Y-78819770D01*
X149550438Y-78819769D01*
X149544554Y-78817948D01*
X149538429Y-78817304D01*
X149538428Y-78817304D01*
X149364813Y-78799056D01*
X149364812Y-78799056D01*
X149358685Y-78798412D01*
X149240087Y-78809206D01*
X149178703Y-78814792D01*
X149178702Y-78814792D01*
X149172562Y-78815351D01*
X149166648Y-78817092D01*
X149166646Y-78817092D01*
X149125290Y-78829264D01*
X148993273Y-78868119D01*
X148827647Y-78954705D01*
X148681995Y-79071813D01*
X148561862Y-79214981D01*
X148558899Y-79220370D01*
X148558896Y-79220375D01*
X148502593Y-79322792D01*
X148471826Y-79378757D01*
X148415315Y-79556901D01*
X148411265Y-79593009D01*
X148395563Y-79732997D01*
X148394482Y-79742630D01*
X148394998Y-79748774D01*
X148408518Y-79909772D01*
X148410121Y-79928867D01*
X148461636Y-80108520D01*
X148481743Y-80147644D01*
X148534096Y-80249512D01*
X148547064Y-80274746D01*
X148550887Y-80279570D01*
X148550890Y-80279574D01*
X148635432Y-80386238D01*
X148663152Y-80421212D01*
X148667846Y-80425207D01*
X148776877Y-80518000D01*
X148805478Y-80542342D01*
X148927612Y-80610600D01*
X148968621Y-80633519D01*
X148967818Y-80634956D01*
X149016139Y-80675447D01*
X149037266Y-80743227D01*
X149018394Y-80811670D01*
X148965515Y-80859044D01*
X148956748Y-80862824D01*
X148827432Y-80912852D01*
X148426661Y-81067898D01*
X148426653Y-81067901D01*
X148424656Y-81068674D01*
X148203645Y-81171968D01*
X147901701Y-81313087D01*
X147901691Y-81313092D01*
X147899742Y-81314003D01*
X147392729Y-81594467D01*
X146905966Y-81908766D01*
X146767432Y-82012214D01*
X146443416Y-82254167D01*
X146443401Y-82254179D01*
X146441707Y-82255444D01*
X146002103Y-82632897D01*
X146000577Y-82634400D01*
X146000574Y-82634402D01*
X145941890Y-82692171D01*
X145589189Y-83039375D01*
X145587774Y-83040972D01*
X145587766Y-83040980D01*
X145299576Y-83366148D01*
X145204879Y-83472996D01*
X144850951Y-83931752D01*
X144849752Y-83933547D01*
X144849748Y-83933552D01*
X144532886Y-84407770D01*
X144529045Y-84413518D01*
X144448408Y-84554034D01*
X144299185Y-84814066D01*
X144240652Y-84916063D01*
X144202201Y-84995075D01*
X144047138Y-85313706D01*
X143999344Y-85366206D01*
X143930754Y-85384532D01*
X143863144Y-85362866D01*
X143836199Y-85338206D01*
X143812388Y-85309010D01*
X143812385Y-85309007D01*
X143808493Y-85304235D01*
X143803744Y-85300306D01*
X143669239Y-85189034D01*
X143669236Y-85189032D01*
X143664489Y-85185105D01*
X143500089Y-85096214D01*
X143410821Y-85068581D01*
X143327441Y-85042770D01*
X143327438Y-85042769D01*
X143321554Y-85040948D01*
X143315429Y-85040304D01*
X143315428Y-85040304D01*
X143141813Y-85022056D01*
X143141812Y-85022056D01*
X143135685Y-85021412D01*
X143017087Y-85032206D01*
X142955703Y-85037792D01*
X142955702Y-85037792D01*
X142949562Y-85038351D01*
X142943648Y-85040092D01*
X142943646Y-85040092D01*
X142890955Y-85055600D01*
X142770273Y-85091119D01*
X142764808Y-85093976D01*
X142642342Y-85157999D01*
X142604647Y-85177705D01*
X142458995Y-85294813D01*
X142338862Y-85437981D01*
X142335899Y-85443370D01*
X142335896Y-85443375D01*
X142291391Y-85524331D01*
X142248826Y-85601757D01*
X142192315Y-85779901D01*
X142171482Y-85965630D01*
X127635000Y-85965630D01*
X127635000Y-84695630D01*
X133281482Y-84695630D01*
X133281998Y-84701774D01*
X133291428Y-84814066D01*
X133297121Y-84881867D01*
X133348636Y-85061520D01*
X133391350Y-85144633D01*
X133408347Y-85177705D01*
X133434064Y-85227746D01*
X133437887Y-85232570D01*
X133437890Y-85232574D01*
X133515609Y-85330630D01*
X133550152Y-85374212D01*
X133554846Y-85378207D01*
X133631418Y-85443375D01*
X133692478Y-85495342D01*
X133855621Y-85586519D01*
X134033367Y-85644272D01*
X134218945Y-85666401D01*
X134225080Y-85665929D01*
X134225082Y-85665929D01*
X134281119Y-85661617D01*
X134405287Y-85652063D01*
X134585296Y-85601804D01*
X134590785Y-85599031D01*
X134590791Y-85599029D01*
X134668159Y-85559947D01*
X134752114Y-85517538D01*
X134763744Y-85508452D01*
X134804486Y-85476621D01*
X134899387Y-85402475D01*
X134903413Y-85397811D01*
X134903416Y-85397808D01*
X134987577Y-85300306D01*
X135021507Y-85260998D01*
X135113821Y-85098495D01*
X135128091Y-85055600D01*
X135147574Y-84997030D01*
X135172814Y-84921157D01*
X135178553Y-84875727D01*
X135195796Y-84739241D01*
X135195797Y-84739232D01*
X135196238Y-84735738D01*
X135196611Y-84709000D01*
X135178373Y-84522999D01*
X135174419Y-84509901D01*
X135137329Y-84387056D01*
X135124355Y-84344083D01*
X135036615Y-84179066D01*
X135023727Y-84163264D01*
X134922388Y-84039010D01*
X134922385Y-84039007D01*
X134918493Y-84034235D01*
X134913744Y-84030306D01*
X134779239Y-83919034D01*
X134779236Y-83919032D01*
X134774489Y-83915105D01*
X134610089Y-83826214D01*
X134520821Y-83798581D01*
X134437441Y-83772770D01*
X134437438Y-83772769D01*
X134431554Y-83770948D01*
X134425429Y-83770304D01*
X134425428Y-83770304D01*
X134251813Y-83752056D01*
X134251812Y-83752056D01*
X134245685Y-83751412D01*
X134127087Y-83762206D01*
X134065703Y-83767792D01*
X134065702Y-83767792D01*
X134059562Y-83768351D01*
X134053648Y-83770092D01*
X134053646Y-83770092D01*
X133931466Y-83806052D01*
X133880273Y-83821119D01*
X133714647Y-83907705D01*
X133568995Y-84024813D01*
X133448862Y-84167981D01*
X133445899Y-84173370D01*
X133445896Y-84173375D01*
X133372509Y-84306868D01*
X133358826Y-84331757D01*
X133356965Y-84337624D01*
X133356964Y-84337626D01*
X133341488Y-84386412D01*
X133302315Y-84509901D01*
X133281482Y-84695630D01*
X127635000Y-84695630D01*
X127635000Y-82676000D01*
X127655002Y-82607879D01*
X127708658Y-82561386D01*
X127761000Y-82550000D01*
X133350000Y-82550000D01*
X133350000Y-79361630D01*
X135516682Y-79361630D01*
X135517198Y-79367774D01*
X135525229Y-79463406D01*
X135532321Y-79547867D01*
X135583836Y-79727520D01*
X135605595Y-79769858D01*
X135662900Y-79881362D01*
X135669264Y-79893746D01*
X135673087Y-79898570D01*
X135673090Y-79898574D01*
X135732880Y-79974009D01*
X135785352Y-80040212D01*
X135790046Y-80044207D01*
X135902186Y-80139646D01*
X135927678Y-80161342D01*
X136090821Y-80252519D01*
X136268567Y-80310272D01*
X136454145Y-80332401D01*
X136460280Y-80331929D01*
X136460282Y-80331929D01*
X136580342Y-80322691D01*
X136649796Y-80337408D01*
X136700268Y-80387339D01*
X136715223Y-80462365D01*
X136710482Y-80504630D01*
X136710998Y-80510774D01*
X136721300Y-80633452D01*
X136726121Y-80690867D01*
X136777636Y-80870520D01*
X136799392Y-80912852D01*
X136856998Y-81024942D01*
X136863064Y-81036746D01*
X136866887Y-81041570D01*
X136866890Y-81041574D01*
X136935890Y-81128629D01*
X136979152Y-81183212D01*
X136983846Y-81187207D01*
X137024024Y-81221401D01*
X137121478Y-81304342D01*
X137284621Y-81395519D01*
X137462367Y-81453272D01*
X137647945Y-81475401D01*
X137654080Y-81474929D01*
X137654082Y-81474929D01*
X137710119Y-81470617D01*
X137834287Y-81461063D01*
X138014296Y-81410804D01*
X138019785Y-81408031D01*
X138019791Y-81408029D01*
X138122872Y-81355958D01*
X138181114Y-81326538D01*
X138195821Y-81315048D01*
X138315682Y-81221401D01*
X138328387Y-81211475D01*
X138332413Y-81206811D01*
X138332416Y-81206808D01*
X138420285Y-81105010D01*
X138450507Y-81069998D01*
X138496664Y-80988747D01*
X138539778Y-80912852D01*
X138539779Y-80912851D01*
X138542821Y-80907495D01*
X138548849Y-80889376D01*
X138599867Y-80736009D01*
X138601814Y-80730157D01*
X138614708Y-80628095D01*
X138624796Y-80548241D01*
X138624797Y-80548232D01*
X138625238Y-80544738D01*
X138625611Y-80518000D01*
X138607373Y-80331999D01*
X138603419Y-80318901D01*
X138556756Y-80164348D01*
X138553355Y-80153083D01*
X138465615Y-79988066D01*
X138461723Y-79983294D01*
X138461717Y-79983285D01*
X138455126Y-79975204D01*
X138427574Y-79909772D01*
X138439771Y-79839831D01*
X138443215Y-79833334D01*
X138482321Y-79764495D01*
X138541314Y-79587157D01*
X138556548Y-79466567D01*
X138564296Y-79405241D01*
X138564297Y-79405232D01*
X138564738Y-79401738D01*
X138565111Y-79375000D01*
X138546873Y-79188999D01*
X138542919Y-79175901D01*
X138494636Y-79015983D01*
X138492855Y-79010083D01*
X138405115Y-78845066D01*
X138367065Y-78798412D01*
X138290888Y-78705010D01*
X138290885Y-78705007D01*
X138286993Y-78700235D01*
X138282244Y-78696306D01*
X138147739Y-78585034D01*
X138147736Y-78585032D01*
X138142989Y-78581105D01*
X137978589Y-78492214D01*
X137889321Y-78464581D01*
X137805941Y-78438770D01*
X137805938Y-78438769D01*
X137800054Y-78436948D01*
X137793929Y-78436304D01*
X137793928Y-78436304D01*
X137620313Y-78418056D01*
X137620312Y-78418056D01*
X137614185Y-78417412D01*
X137495587Y-78428206D01*
X137434203Y-78433792D01*
X137434202Y-78433792D01*
X137428062Y-78434351D01*
X137422148Y-78436092D01*
X137422146Y-78436092D01*
X137299966Y-78472052D01*
X137248773Y-78487119D01*
X137243308Y-78489976D01*
X137098213Y-78565829D01*
X137028577Y-78579663D01*
X136979909Y-78565003D01*
X136845289Y-78492214D01*
X136756021Y-78464581D01*
X136672641Y-78438770D01*
X136672638Y-78438769D01*
X136666754Y-78436948D01*
X136660629Y-78436304D01*
X136660628Y-78436304D01*
X136487013Y-78418056D01*
X136487012Y-78418056D01*
X136480885Y-78417412D01*
X136362287Y-78428206D01*
X136300903Y-78433792D01*
X136300902Y-78433792D01*
X136294762Y-78434351D01*
X136288848Y-78436092D01*
X136288846Y-78436092D01*
X136166666Y-78472052D01*
X136115473Y-78487119D01*
X136110008Y-78489976D01*
X135964913Y-78565829D01*
X135949847Y-78573705D01*
X135804195Y-78690813D01*
X135720236Y-78790871D01*
X135695987Y-78819770D01*
X135684062Y-78833981D01*
X135681099Y-78839370D01*
X135681096Y-78839375D01*
X135619263Y-78951851D01*
X135594026Y-78997757D01*
X135537515Y-79175901D01*
X135516682Y-79361630D01*
X133350000Y-79361630D01*
X133350000Y-76833213D01*
X133370002Y-76765092D01*
X133423658Y-76718599D01*
X133430739Y-76716011D01*
X133430615Y-76715690D01*
X133436363Y-76713461D01*
X133442296Y-76711804D01*
X133609114Y-76627538D01*
X133637524Y-76605342D01*
X133661486Y-76586621D01*
X133756387Y-76512475D01*
X133760413Y-76507811D01*
X133760416Y-76507808D01*
X133874480Y-76375663D01*
X133878507Y-76370998D01*
X133949361Y-76246272D01*
X133967778Y-76213852D01*
X133967779Y-76213851D01*
X133970821Y-76208495D01*
X133973151Y-76201493D01*
X134009125Y-76093349D01*
X134029814Y-76031157D01*
X134042402Y-75931512D01*
X134052796Y-75849241D01*
X134052797Y-75849232D01*
X134053238Y-75845738D01*
X134053611Y-75819000D01*
X134052300Y-75805630D01*
X138996482Y-75805630D01*
X138996998Y-75811774D01*
X139011142Y-75980207D01*
X139012121Y-75991867D01*
X139013819Y-75997788D01*
X139013819Y-75997789D01*
X139018447Y-76013929D01*
X139063636Y-76171520D01*
X139149064Y-76337746D01*
X139152887Y-76342570D01*
X139152890Y-76342574D01*
X139253953Y-76470083D01*
X139265152Y-76484212D01*
X139269846Y-76488207D01*
X139302819Y-76516269D01*
X139407478Y-76605342D01*
X139570621Y-76696519D01*
X139748367Y-76754272D01*
X139933945Y-76776401D01*
X139940080Y-76775929D01*
X139940082Y-76775929D01*
X139996119Y-76771617D01*
X140120287Y-76762063D01*
X140300296Y-76711804D01*
X140305785Y-76709031D01*
X140305791Y-76709029D01*
X140412485Y-76655133D01*
X140467114Y-76627538D01*
X140495524Y-76605342D01*
X140519486Y-76586621D01*
X140614387Y-76512475D01*
X140618413Y-76507811D01*
X140618416Y-76507808D01*
X140732480Y-76375663D01*
X140736507Y-76370998D01*
X140807361Y-76246272D01*
X140825778Y-76213852D01*
X140825779Y-76213851D01*
X140828821Y-76208495D01*
X140831151Y-76201493D01*
X140867125Y-76093349D01*
X140887814Y-76031157D01*
X140900402Y-75931512D01*
X140910796Y-75849241D01*
X140910797Y-75849232D01*
X140911238Y-75845738D01*
X140911611Y-75819000D01*
X140893373Y-75632999D01*
X140889419Y-75619901D01*
X140862457Y-75530600D01*
X140839355Y-75454083D01*
X140751615Y-75289066D01*
X140741448Y-75276600D01*
X140637388Y-75149010D01*
X140637385Y-75149007D01*
X140633493Y-75144235D01*
X140628744Y-75140306D01*
X140511883Y-75043630D01*
X147851482Y-75043630D01*
X147854052Y-75074236D01*
X147865811Y-75214262D01*
X147867121Y-75229867D01*
X147918636Y-75409520D01*
X147938220Y-75447626D01*
X147980045Y-75529009D01*
X148004064Y-75575746D01*
X148007887Y-75580570D01*
X148007890Y-75580574D01*
X148049442Y-75632999D01*
X148120152Y-75722212D01*
X148124846Y-75726207D01*
X148252176Y-75834574D01*
X148262478Y-75843342D01*
X148425621Y-75934519D01*
X148603367Y-75992272D01*
X148788945Y-76014401D01*
X148795080Y-76013929D01*
X148795082Y-76013929D01*
X148851119Y-76009617D01*
X148975287Y-76000063D01*
X149002715Y-75992405D01*
X149073706Y-75993352D01*
X149132915Y-76032528D01*
X149161544Y-76097496D01*
X149150505Y-76167629D01*
X149133120Y-76194755D01*
X149083355Y-76254063D01*
X149049860Y-76293981D01*
X149046897Y-76299370D01*
X149046894Y-76299375D01*
X149010465Y-76365641D01*
X148959824Y-76457757D01*
X148957963Y-76463624D01*
X148957962Y-76463626D01*
X148943947Y-76507808D01*
X148903313Y-76635901D01*
X148882480Y-76821630D01*
X148882996Y-76827774D01*
X148896498Y-76988558D01*
X148898119Y-77007867D01*
X148949634Y-77187520D01*
X149035062Y-77353746D01*
X149038885Y-77358570D01*
X149038888Y-77358574D01*
X149078267Y-77408257D01*
X149151150Y-77500212D01*
X149155844Y-77504207D01*
X149188817Y-77532269D01*
X149293476Y-77621342D01*
X149456619Y-77712519D01*
X149634365Y-77770272D01*
X149819943Y-77792401D01*
X149826078Y-77791929D01*
X149826080Y-77791929D01*
X149882117Y-77787617D01*
X150006285Y-77778063D01*
X150186294Y-77727804D01*
X150191783Y-77725031D01*
X150191789Y-77725029D01*
X150269157Y-77685947D01*
X150353112Y-77643538D01*
X150381522Y-77621342D01*
X150405484Y-77602621D01*
X150500385Y-77528475D01*
X150504411Y-77523811D01*
X150504414Y-77523808D01*
X150604155Y-77408257D01*
X150622505Y-77386998D01*
X150714819Y-77224495D01*
X150729089Y-77181600D01*
X150771865Y-77053009D01*
X150773812Y-77047157D01*
X150781215Y-76988558D01*
X150796794Y-76865241D01*
X150796795Y-76865232D01*
X150797236Y-76861738D01*
X150797609Y-76835000D01*
X150779371Y-76648999D01*
X150775417Y-76635901D01*
X150727134Y-76475983D01*
X150725353Y-76470083D01*
X150637613Y-76305066D01*
X150590256Y-76247001D01*
X150523386Y-76165010D01*
X150523383Y-76165007D01*
X150519491Y-76160235D01*
X150496154Y-76140929D01*
X150380237Y-76045034D01*
X150380234Y-76045032D01*
X150375487Y-76041105D01*
X150211087Y-75952214D01*
X150121819Y-75924581D01*
X150038439Y-75898770D01*
X150038436Y-75898769D01*
X150032552Y-75896948D01*
X150026427Y-75896304D01*
X150026426Y-75896304D01*
X149852811Y-75878056D01*
X149852810Y-75878056D01*
X149846683Y-75877412D01*
X149728085Y-75888206D01*
X149666701Y-75893792D01*
X149666700Y-75893792D01*
X149660560Y-75894351D01*
X149649377Y-75897642D01*
X149648481Y-75897906D01*
X149577484Y-75897948D01*
X149517735Y-75859600D01*
X149488204Y-75795036D01*
X149498266Y-75724756D01*
X149517525Y-75694707D01*
X149591507Y-75608998D01*
X149597069Y-75599207D01*
X149680778Y-75451852D01*
X149680779Y-75451851D01*
X149683821Y-75446495D01*
X149698091Y-75403600D01*
X149721172Y-75334214D01*
X149742814Y-75269157D01*
X149753572Y-75184000D01*
X149755261Y-75170630D01*
X158363982Y-75170630D01*
X158364498Y-75176774D01*
X158378309Y-75341241D01*
X158379621Y-75356867D01*
X158381319Y-75362788D01*
X158381319Y-75362789D01*
X158385947Y-75378929D01*
X158431136Y-75536520D01*
X158473381Y-75618721D01*
X158475825Y-75623475D01*
X158516564Y-75702746D01*
X158520387Y-75707570D01*
X158520390Y-75707574D01*
X158597223Y-75804512D01*
X158632652Y-75849212D01*
X158637346Y-75853207D01*
X158757121Y-75955144D01*
X158774978Y-75970342D01*
X158938121Y-76061519D01*
X159115867Y-76119272D01*
X159301445Y-76141401D01*
X159307580Y-76140929D01*
X159307582Y-76140929D01*
X159363619Y-76136617D01*
X159487787Y-76127063D01*
X159667796Y-76076804D01*
X159673285Y-76074031D01*
X159673291Y-76074029D01*
X159755447Y-76032528D01*
X159834614Y-75992538D01*
X159855511Y-75976212D01*
X159912723Y-75931512D01*
X159981887Y-75877475D01*
X159985913Y-75872811D01*
X159985916Y-75872808D01*
X160099980Y-75740663D01*
X160104007Y-75735998D01*
X160110393Y-75724756D01*
X160193278Y-75578852D01*
X160193279Y-75578851D01*
X160196321Y-75573495D01*
X160210591Y-75530600D01*
X160236214Y-75453574D01*
X160255314Y-75396157D01*
X160266072Y-75311000D01*
X160278296Y-75214241D01*
X160278297Y-75214232D01*
X160278738Y-75210738D01*
X160279111Y-75184000D01*
X160260873Y-74997999D01*
X160256919Y-74984901D01*
X160236306Y-74916630D01*
X161911482Y-74916630D01*
X161911998Y-74922774D01*
X161926035Y-75089929D01*
X161927121Y-75102867D01*
X161928819Y-75108788D01*
X161928819Y-75108789D01*
X161933447Y-75124929D01*
X161978636Y-75282520D01*
X162000392Y-75324852D01*
X162057700Y-75436362D01*
X162064064Y-75448746D01*
X162067887Y-75453570D01*
X162067890Y-75453574D01*
X162127680Y-75529009D01*
X162180152Y-75595212D01*
X162184846Y-75599207D01*
X162312176Y-75707574D01*
X162322478Y-75716342D01*
X162485621Y-75807519D01*
X162663367Y-75865272D01*
X162848945Y-75887401D01*
X162855080Y-75886929D01*
X162855082Y-75886929D01*
X162911119Y-75882617D01*
X163035287Y-75873063D01*
X163215296Y-75822804D01*
X163220785Y-75820031D01*
X163220791Y-75820029D01*
X163298159Y-75780947D01*
X163382114Y-75738538D01*
X163392226Y-75730638D01*
X163438293Y-75694646D01*
X163529387Y-75623475D01*
X163533413Y-75618811D01*
X163533416Y-75618808D01*
X163647480Y-75486663D01*
X163651507Y-75481998D01*
X163723166Y-75355855D01*
X163740778Y-75324852D01*
X163740779Y-75324851D01*
X163743821Y-75319495D01*
X163751095Y-75297630D01*
X163771580Y-75236050D01*
X163812062Y-75177725D01*
X163877650Y-75150546D01*
X163947521Y-75163141D01*
X163999490Y-75211511D01*
X164017058Y-75280300D01*
X164016352Y-75289871D01*
X164015482Y-75297630D01*
X164015998Y-75303774D01*
X164028433Y-75451852D01*
X164031121Y-75483867D01*
X164082636Y-75663520D01*
X164102795Y-75702746D01*
X164164343Y-75822505D01*
X164168064Y-75829746D01*
X164171887Y-75834570D01*
X164171890Y-75834574D01*
X164220649Y-75896092D01*
X164284152Y-75976212D01*
X164288846Y-75980207D01*
X164404291Y-76078459D01*
X164426478Y-76097342D01*
X164589621Y-76188519D01*
X164767367Y-76246272D01*
X164952945Y-76268401D01*
X164959080Y-76267929D01*
X164959082Y-76267929D01*
X165015119Y-76263617D01*
X165139287Y-76254063D01*
X165319296Y-76203804D01*
X165324785Y-76201031D01*
X165324791Y-76201029D01*
X165424200Y-76150813D01*
X165486114Y-76119538D01*
X165514327Y-76097496D01*
X165586503Y-76041105D01*
X165633387Y-76004475D01*
X165637413Y-75999811D01*
X165637416Y-75999808D01*
X165742509Y-75878056D01*
X165755507Y-75862998D01*
X165763322Y-75849241D01*
X165844778Y-75705852D01*
X165844779Y-75705851D01*
X165847821Y-75700495D01*
X165862091Y-75657600D01*
X165887714Y-75580574D01*
X165906814Y-75523157D01*
X165915540Y-75454083D01*
X165929796Y-75341241D01*
X165929797Y-75341232D01*
X165930238Y-75337738D01*
X165930611Y-75311000D01*
X165912373Y-75124999D01*
X165908419Y-75111901D01*
X165877809Y-75010519D01*
X165858355Y-74946083D01*
X165770615Y-74781066D01*
X165740384Y-74743999D01*
X165656388Y-74641010D01*
X165656385Y-74641007D01*
X165652493Y-74636235D01*
X165647744Y-74632306D01*
X165513239Y-74521034D01*
X165513236Y-74521032D01*
X165508489Y-74517105D01*
X165344089Y-74428214D01*
X165233672Y-74394034D01*
X165171441Y-74374770D01*
X165171438Y-74374769D01*
X165165554Y-74372948D01*
X165159429Y-74372304D01*
X165159428Y-74372304D01*
X164985813Y-74354056D01*
X164985812Y-74354056D01*
X164979685Y-74353412D01*
X164861087Y-74364206D01*
X164799703Y-74369792D01*
X164799702Y-74369792D01*
X164793562Y-74370351D01*
X164787648Y-74372092D01*
X164787646Y-74372092D01*
X164711936Y-74394375D01*
X164614273Y-74423119D01*
X164608808Y-74425976D01*
X164457062Y-74505306D01*
X164448647Y-74509705D01*
X164302995Y-74626813D01*
X164182862Y-74769981D01*
X164179899Y-74775370D01*
X164179896Y-74775375D01*
X164131164Y-74864020D01*
X164092826Y-74933757D01*
X164090965Y-74939624D01*
X164090964Y-74939626D01*
X164072168Y-74998878D01*
X164032504Y-75057762D01*
X163967302Y-75085854D01*
X163897262Y-75074236D01*
X163844623Y-75026596D01*
X163827544Y-74956756D01*
X163826238Y-74956738D01*
X163826461Y-74940746D01*
X163826611Y-74930000D01*
X163808373Y-74743999D01*
X163804419Y-74730901D01*
X163779502Y-74648375D01*
X163754355Y-74565083D01*
X163666615Y-74400066D01*
X163661974Y-74394375D01*
X163552388Y-74260010D01*
X163552385Y-74260007D01*
X163548493Y-74255235D01*
X163543744Y-74251306D01*
X163409239Y-74140034D01*
X163409236Y-74140032D01*
X163404489Y-74136105D01*
X163240089Y-74047214D01*
X163150822Y-74019581D01*
X163067441Y-73993770D01*
X163067438Y-73993769D01*
X163061554Y-73991948D01*
X163055429Y-73991304D01*
X163055428Y-73991304D01*
X162881813Y-73973056D01*
X162881812Y-73973056D01*
X162875685Y-73972412D01*
X162770345Y-73981999D01*
X162695703Y-73988792D01*
X162695702Y-73988792D01*
X162689562Y-73989351D01*
X162683648Y-73991092D01*
X162683646Y-73991092D01*
X162561466Y-74027052D01*
X162510273Y-74042119D01*
X162504808Y-74044976D01*
X162350254Y-74125774D01*
X162344647Y-74128705D01*
X162198995Y-74245813D01*
X162143634Y-74311789D01*
X162090787Y-74374770D01*
X162078862Y-74388981D01*
X162075899Y-74394370D01*
X162075896Y-74394375D01*
X162020056Y-74495950D01*
X161988826Y-74552757D01*
X161986965Y-74558624D01*
X161986964Y-74558626D01*
X161983044Y-74570983D01*
X161932315Y-74730901D01*
X161911482Y-74916630D01*
X160236306Y-74916630D01*
X160219829Y-74862056D01*
X160206855Y-74819083D01*
X160119115Y-74654066D01*
X160108467Y-74641010D01*
X160004888Y-74514010D01*
X160004885Y-74514007D01*
X160000993Y-74509235D01*
X159996244Y-74505306D01*
X159861739Y-74394034D01*
X159861736Y-74394032D01*
X159856989Y-74390105D01*
X159692589Y-74301214D01*
X159582172Y-74267034D01*
X159519941Y-74247770D01*
X159519938Y-74247769D01*
X159514054Y-74245948D01*
X159507929Y-74245304D01*
X159507928Y-74245304D01*
X159334313Y-74227056D01*
X159334312Y-74227056D01*
X159328185Y-74226412D01*
X159222845Y-74235999D01*
X159148203Y-74242792D01*
X159148202Y-74242792D01*
X159142062Y-74243351D01*
X159136148Y-74245092D01*
X159136146Y-74245092D01*
X159013966Y-74281052D01*
X158962773Y-74296119D01*
X158957308Y-74298976D01*
X158805562Y-74378306D01*
X158797147Y-74382705D01*
X158651495Y-74499813D01*
X158531362Y-74642981D01*
X158528399Y-74648370D01*
X158528396Y-74648375D01*
X158491967Y-74714641D01*
X158441326Y-74806757D01*
X158439465Y-74812624D01*
X158439464Y-74812626D01*
X158426964Y-74852032D01*
X158384815Y-74984901D01*
X158363982Y-75170630D01*
X149755261Y-75170630D01*
X149765796Y-75087241D01*
X149765797Y-75087232D01*
X149766238Y-75083738D01*
X149766611Y-75057000D01*
X149748373Y-74870999D01*
X149744419Y-74857901D01*
X149702783Y-74719998D01*
X149694355Y-74692083D01*
X149606615Y-74527066D01*
X149601974Y-74521375D01*
X149492388Y-74387010D01*
X149492385Y-74387007D01*
X149488493Y-74382235D01*
X149483744Y-74378306D01*
X149349239Y-74267034D01*
X149349236Y-74267032D01*
X149344489Y-74263105D01*
X149180089Y-74174214D01*
X149069672Y-74140034D01*
X149007441Y-74120770D01*
X149007438Y-74120769D01*
X149003758Y-74119630D01*
X151534482Y-74119630D01*
X151536195Y-74140034D01*
X151545909Y-74255705D01*
X151550121Y-74305867D01*
X151601636Y-74485520D01*
X151622063Y-74525266D01*
X151678025Y-74634157D01*
X151687064Y-74651746D01*
X151690887Y-74656570D01*
X151690890Y-74656574D01*
X151785777Y-74776290D01*
X151803152Y-74798212D01*
X151807846Y-74802207D01*
X151935095Y-74910505D01*
X151945478Y-74919342D01*
X152108621Y-75010519D01*
X152286367Y-75068272D01*
X152471945Y-75090401D01*
X152478080Y-75089929D01*
X152478082Y-75089929D01*
X152534119Y-75085617D01*
X152658287Y-75076063D01*
X152838296Y-75025804D01*
X152843785Y-75023031D01*
X152843791Y-75023029D01*
X152930330Y-74979314D01*
X153005114Y-74941538D01*
X153011929Y-74936214D01*
X153085989Y-74878351D01*
X153152387Y-74826475D01*
X153156413Y-74821811D01*
X153156416Y-74821808D01*
X153248920Y-74714641D01*
X153274507Y-74684998D01*
X153299496Y-74641010D01*
X153344032Y-74562613D01*
X153395071Y-74513262D01*
X153464689Y-74499340D01*
X153530783Y-74525266D01*
X153565655Y-74567256D01*
X153620700Y-74674362D01*
X153627064Y-74686746D01*
X153630887Y-74691570D01*
X153630890Y-74691574D01*
X153730185Y-74816852D01*
X153743152Y-74833212D01*
X153747846Y-74837207D01*
X153867621Y-74939144D01*
X153885478Y-74954342D01*
X154048621Y-75045519D01*
X154226367Y-75103272D01*
X154411945Y-75125401D01*
X154418080Y-75124929D01*
X154418082Y-75124929D01*
X154474119Y-75120617D01*
X154598287Y-75111063D01*
X154778296Y-75060804D01*
X154783785Y-75058031D01*
X154783791Y-75058029D01*
X154900888Y-74998878D01*
X154945114Y-74976538D01*
X154973524Y-74954342D01*
X155003247Y-74931119D01*
X155092387Y-74861475D01*
X155096413Y-74856811D01*
X155096416Y-74856808D01*
X155205096Y-74730901D01*
X155214507Y-74719998D01*
X155301276Y-74567256D01*
X155303778Y-74562852D01*
X155303779Y-74562851D01*
X155306821Y-74557495D01*
X155315134Y-74532507D01*
X155349827Y-74428214D01*
X155365814Y-74380157D01*
X155380601Y-74263105D01*
X155388796Y-74198241D01*
X155388797Y-74198232D01*
X155389238Y-74194738D01*
X155389611Y-74168000D01*
X155371373Y-73981999D01*
X155367419Y-73968901D01*
X155319136Y-73808983D01*
X155317355Y-73803083D01*
X155238058Y-73653945D01*
X155223739Y-73584407D01*
X155239754Y-73532555D01*
X155303776Y-73419855D01*
X155306821Y-73414495D01*
X155317297Y-73383005D01*
X155337135Y-73323368D01*
X155365814Y-73237157D01*
X155377749Y-73142686D01*
X155388796Y-73055241D01*
X155388797Y-73055232D01*
X155389238Y-73051738D01*
X155389611Y-73025000D01*
X155371373Y-72838999D01*
X155367419Y-72825901D01*
X155333008Y-72711929D01*
X155317355Y-72660083D01*
X155238058Y-72510945D01*
X155223739Y-72441407D01*
X155239754Y-72389555D01*
X155275099Y-72327336D01*
X155306821Y-72271495D01*
X155309294Y-72264063D01*
X155336932Y-72180978D01*
X155365814Y-72094157D01*
X155377237Y-72003735D01*
X155388796Y-71912241D01*
X155388797Y-71912232D01*
X155389238Y-71908738D01*
X155389611Y-71882000D01*
X155375847Y-71741630D01*
X162554982Y-71741630D01*
X162555498Y-71747774D01*
X162569309Y-71912241D01*
X162570621Y-71927867D01*
X162622136Y-72107520D01*
X162662412Y-72185889D01*
X162702588Y-72264063D01*
X162707564Y-72273746D01*
X162711387Y-72278570D01*
X162711390Y-72278574D01*
X162789109Y-72376630D01*
X162823652Y-72420212D01*
X162828346Y-72424207D01*
X162898580Y-72483981D01*
X162965978Y-72541342D01*
X163129121Y-72632519D01*
X163306867Y-72690272D01*
X163492445Y-72712401D01*
X163498580Y-72711929D01*
X163498582Y-72711929D01*
X163554619Y-72707617D01*
X163678787Y-72698063D01*
X163858796Y-72647804D01*
X163864285Y-72645031D01*
X163864291Y-72645029D01*
X163941659Y-72605947D01*
X164025614Y-72563538D01*
X164054024Y-72541342D01*
X164085967Y-72516385D01*
X164172887Y-72448475D01*
X164176913Y-72443811D01*
X164176916Y-72443808D01*
X164273443Y-72331980D01*
X164295007Y-72306998D01*
X164353518Y-72203999D01*
X164384278Y-72149852D01*
X164384279Y-72149851D01*
X164387321Y-72144495D01*
X164397132Y-72115004D01*
X164435408Y-71999941D01*
X164446314Y-71967157D01*
X164457072Y-71882000D01*
X164469296Y-71785241D01*
X164469297Y-71785232D01*
X164469738Y-71781738D01*
X164470111Y-71755000D01*
X164451873Y-71568999D01*
X164447919Y-71555901D01*
X164413508Y-71441929D01*
X164397855Y-71390083D01*
X164310115Y-71225066D01*
X164297227Y-71209264D01*
X164195888Y-71085010D01*
X164195885Y-71085007D01*
X164191993Y-71080235D01*
X164187244Y-71076306D01*
X164052739Y-70965034D01*
X164052736Y-70965032D01*
X164047989Y-70961105D01*
X163883589Y-70872214D01*
X163794321Y-70844581D01*
X163710941Y-70818770D01*
X163710938Y-70818769D01*
X163705054Y-70816948D01*
X163698929Y-70816304D01*
X163698928Y-70816304D01*
X163525313Y-70798056D01*
X163525312Y-70798056D01*
X163519185Y-70797412D01*
X163400587Y-70808206D01*
X163339203Y-70813792D01*
X163339202Y-70813792D01*
X163333062Y-70814351D01*
X163327148Y-70816092D01*
X163327146Y-70816092D01*
X163299744Y-70824157D01*
X163153773Y-70867119D01*
X163148308Y-70869976D01*
X163006811Y-70943948D01*
X162988147Y-70953705D01*
X162842495Y-71070813D01*
X162722362Y-71213981D01*
X162719399Y-71219370D01*
X162719396Y-71219375D01*
X162670099Y-71309048D01*
X162632326Y-71377757D01*
X162630465Y-71383624D01*
X162630464Y-71383626D01*
X162612051Y-71441672D01*
X162575815Y-71555901D01*
X162554982Y-71741630D01*
X155375847Y-71741630D01*
X155371373Y-71695999D01*
X155367419Y-71682901D01*
X155338117Y-71585849D01*
X155317355Y-71517083D01*
X155229615Y-71352066D01*
X155220574Y-71340981D01*
X155115388Y-71212010D01*
X155115385Y-71212007D01*
X155111493Y-71207235D01*
X155106744Y-71203306D01*
X154972239Y-71092034D01*
X154972236Y-71092032D01*
X154967489Y-71088105D01*
X154803089Y-70999214D01*
X154691011Y-70964520D01*
X154630441Y-70945770D01*
X154630438Y-70945769D01*
X154624554Y-70943948D01*
X154618429Y-70943304D01*
X154618428Y-70943304D01*
X154444813Y-70925056D01*
X154444812Y-70925056D01*
X154438685Y-70924412D01*
X154321335Y-70935092D01*
X154258703Y-70940792D01*
X154258702Y-70940792D01*
X154252562Y-70941351D01*
X154246648Y-70943092D01*
X154246646Y-70943092D01*
X154143751Y-70973376D01*
X154073273Y-70994119D01*
X154067808Y-70996976D01*
X153916062Y-71076306D01*
X153907647Y-71080705D01*
X153761995Y-71197813D01*
X153641862Y-71340981D01*
X153597986Y-71420792D01*
X153589860Y-71435573D01*
X153539515Y-71485631D01*
X153470098Y-71500525D01*
X153403649Y-71475524D01*
X153368193Y-71434025D01*
X153327508Y-71357507D01*
X153324615Y-71352066D01*
X153315574Y-71340981D01*
X153210388Y-71212010D01*
X153210385Y-71212007D01*
X153206493Y-71207235D01*
X153201744Y-71203306D01*
X153067239Y-71092034D01*
X153067236Y-71092032D01*
X153062489Y-71088105D01*
X152898089Y-70999214D01*
X152786011Y-70964520D01*
X152725441Y-70945770D01*
X152725438Y-70945769D01*
X152719554Y-70943948D01*
X152713429Y-70943304D01*
X152713428Y-70943304D01*
X152539813Y-70925056D01*
X152539812Y-70925056D01*
X152533685Y-70924412D01*
X152416335Y-70935092D01*
X152353703Y-70940792D01*
X152353702Y-70940792D01*
X152347562Y-70941351D01*
X152341648Y-70943092D01*
X152341646Y-70943092D01*
X152238751Y-70973376D01*
X152168273Y-70994119D01*
X152162808Y-70996976D01*
X152011062Y-71076306D01*
X152002647Y-71080705D01*
X151856995Y-71197813D01*
X151736862Y-71340981D01*
X151733899Y-71346370D01*
X151733896Y-71346375D01*
X151688729Y-71428535D01*
X151646826Y-71504757D01*
X151590315Y-71682901D01*
X151569482Y-71868630D01*
X151569998Y-71874774D01*
X151582078Y-72018626D01*
X151585121Y-72054867D01*
X151636636Y-72234520D01*
X151639451Y-72239997D01*
X151639454Y-72240005D01*
X151703817Y-72365242D01*
X151717165Y-72434972D01*
X151699779Y-72482836D01*
X151701862Y-72483981D01*
X151611826Y-72647757D01*
X151609965Y-72653624D01*
X151609964Y-72653626D01*
X151606044Y-72665983D01*
X151555315Y-72825901D01*
X151534482Y-73011630D01*
X151534998Y-73017774D01*
X151547078Y-73161626D01*
X151550121Y-73197867D01*
X151601636Y-73377520D01*
X151604451Y-73382997D01*
X151604454Y-73383005D01*
X151676402Y-73523001D01*
X151689750Y-73592731D01*
X151674751Y-73641296D01*
X151611826Y-73755757D01*
X151609965Y-73761624D01*
X151609964Y-73761626D01*
X151597258Y-73801681D01*
X151555315Y-73933901D01*
X151534482Y-74119630D01*
X149003758Y-74119630D01*
X149001554Y-74118948D01*
X148995429Y-74118304D01*
X148995428Y-74118304D01*
X148821813Y-74100056D01*
X148821812Y-74100056D01*
X148815685Y-74099412D01*
X148697087Y-74110206D01*
X148635703Y-74115792D01*
X148635702Y-74115792D01*
X148629562Y-74116351D01*
X148623648Y-74118092D01*
X148623646Y-74118092D01*
X148501466Y-74154052D01*
X148450273Y-74169119D01*
X148444808Y-74171976D01*
X148293062Y-74251306D01*
X148284647Y-74255705D01*
X148138995Y-74372813D01*
X148018862Y-74515981D01*
X148015899Y-74521370D01*
X148015896Y-74521375D01*
X147975494Y-74594867D01*
X147928826Y-74679757D01*
X147926965Y-74685624D01*
X147926964Y-74685626D01*
X147925077Y-74691574D01*
X147872315Y-74857901D01*
X147851482Y-75043630D01*
X140511883Y-75043630D01*
X140494239Y-75029034D01*
X140494236Y-75029032D01*
X140489489Y-75025105D01*
X140325089Y-74936214D01*
X140235822Y-74908581D01*
X140152441Y-74882770D01*
X140152438Y-74882769D01*
X140146554Y-74880948D01*
X140140429Y-74880304D01*
X140140428Y-74880304D01*
X139966813Y-74862056D01*
X139966812Y-74862056D01*
X139960685Y-74861412D01*
X139855345Y-74870999D01*
X139780703Y-74877792D01*
X139780702Y-74877792D01*
X139774562Y-74878351D01*
X139768648Y-74880092D01*
X139768646Y-74880092D01*
X139665313Y-74910505D01*
X139595273Y-74931119D01*
X139589808Y-74933976D01*
X139439751Y-75012423D01*
X139429647Y-75017705D01*
X139283995Y-75134813D01*
X139163862Y-75277981D01*
X139160899Y-75283370D01*
X139160896Y-75283375D01*
X139102259Y-75390037D01*
X139073826Y-75441757D01*
X139071965Y-75447624D01*
X139071964Y-75447626D01*
X139061061Y-75481998D01*
X139017315Y-75619901D01*
X138996482Y-75805630D01*
X134052300Y-75805630D01*
X134035373Y-75632999D01*
X134031419Y-75619901D01*
X134004457Y-75530600D01*
X133999137Y-75512980D01*
X133998596Y-75441986D01*
X134036524Y-75381969D01*
X134100878Y-75351985D01*
X134148092Y-75355855D01*
X134148490Y-75354045D01*
X134154507Y-75355368D01*
X134160367Y-75357272D01*
X134345945Y-75379401D01*
X134352080Y-75378929D01*
X134352082Y-75378929D01*
X134408119Y-75374617D01*
X134532287Y-75365063D01*
X134712296Y-75314804D01*
X134717785Y-75312031D01*
X134717791Y-75312029D01*
X134879114Y-75230538D01*
X134879778Y-75231853D01*
X134940956Y-75214262D01*
X135001717Y-75230272D01*
X135125621Y-75299519D01*
X135303367Y-75357272D01*
X135488945Y-75379401D01*
X135495080Y-75378929D01*
X135495082Y-75378929D01*
X135551119Y-75374617D01*
X135675287Y-75365063D01*
X135855296Y-75314804D01*
X135860785Y-75312031D01*
X135860791Y-75312029D01*
X135938159Y-75272947D01*
X136022114Y-75230538D01*
X136039614Y-75216866D01*
X136079176Y-75185956D01*
X136169387Y-75115475D01*
X136173413Y-75110811D01*
X136173416Y-75110808D01*
X136253780Y-75017705D01*
X136291507Y-74973998D01*
X136373156Y-74830269D01*
X136380778Y-74816852D01*
X136380779Y-74816851D01*
X136383821Y-74811495D01*
X136392134Y-74786507D01*
X136438785Y-74646269D01*
X136442814Y-74634157D01*
X136453779Y-74547362D01*
X136465796Y-74452241D01*
X136465797Y-74452232D01*
X136466238Y-74448738D01*
X136466611Y-74422000D01*
X136448373Y-74235999D01*
X136444419Y-74222901D01*
X136407329Y-74100056D01*
X136394355Y-74057083D01*
X136306615Y-73892066D01*
X136297574Y-73880981D01*
X136192388Y-73752010D01*
X136192385Y-73752007D01*
X136188493Y-73747235D01*
X136183744Y-73743306D01*
X136049238Y-73632033D01*
X136049233Y-73632030D01*
X136044489Y-73628105D01*
X136022582Y-73616260D01*
X135972174Y-73566266D01*
X135957113Y-73517721D01*
X135946991Y-73414495D01*
X135940373Y-73346999D01*
X135936419Y-73333901D01*
X135915469Y-73264512D01*
X135886355Y-73168083D01*
X135798615Y-73003066D01*
X135721689Y-72908746D01*
X135684388Y-72863010D01*
X135684385Y-72863007D01*
X135680493Y-72858235D01*
X135675744Y-72854306D01*
X135541239Y-72743034D01*
X135541236Y-72743032D01*
X135536489Y-72739105D01*
X135372089Y-72650214D01*
X135245203Y-72610936D01*
X135199441Y-72596770D01*
X135199438Y-72596769D01*
X135193554Y-72594948D01*
X135187429Y-72594304D01*
X135187428Y-72594304D01*
X135013813Y-72576056D01*
X135013812Y-72576056D01*
X135007685Y-72575412D01*
X134889087Y-72586206D01*
X134827703Y-72591792D01*
X134827702Y-72591792D01*
X134821562Y-72592351D01*
X134815648Y-72594092D01*
X134815646Y-72594092D01*
X134788244Y-72602157D01*
X134642273Y-72645119D01*
X134636808Y-72647976D01*
X134513573Y-72712401D01*
X134476647Y-72731705D01*
X134330995Y-72848813D01*
X134210862Y-72991981D01*
X134207899Y-72997370D01*
X134207896Y-72997375D01*
X134173904Y-73059207D01*
X134120826Y-73155757D01*
X134118965Y-73161624D01*
X134118964Y-73161626D01*
X134108458Y-73194746D01*
X134064315Y-73333901D01*
X134058807Y-73383005D01*
X134051479Y-73448335D01*
X134024008Y-73513802D01*
X133984638Y-73545952D01*
X133896592Y-73591981D01*
X133841647Y-73620705D01*
X133695995Y-73737813D01*
X133575862Y-73880981D01*
X133574911Y-73880183D01*
X133524970Y-73920963D01*
X133454431Y-73929008D01*
X133390739Y-73897640D01*
X133354118Y-73836817D01*
X133350000Y-73804868D01*
X133350000Y-71293096D01*
X142136971Y-71293096D01*
X142137487Y-71299240D01*
X142149509Y-71442401D01*
X142152610Y-71479333D01*
X142154308Y-71485254D01*
X142154308Y-71485255D01*
X142158353Y-71499362D01*
X142204125Y-71658986D01*
X142228191Y-71705813D01*
X142267211Y-71781738D01*
X142289553Y-71825212D01*
X142293376Y-71830036D01*
X142293379Y-71830040D01*
X142366050Y-71921727D01*
X142405641Y-71971678D01*
X142410335Y-71975673D01*
X142475324Y-72030983D01*
X142547967Y-72092808D01*
X142711110Y-72183985D01*
X142888856Y-72241738D01*
X143074434Y-72263867D01*
X143080569Y-72263395D01*
X143080571Y-72263395D01*
X143136608Y-72259083D01*
X143260776Y-72249529D01*
X143440785Y-72199270D01*
X143446274Y-72196497D01*
X143446280Y-72196495D01*
X143538616Y-72149852D01*
X143607603Y-72115004D01*
X143624760Y-72101600D01*
X143659975Y-72074087D01*
X143754876Y-71999941D01*
X143758902Y-71995277D01*
X143758905Y-71995274D01*
X143859690Y-71878513D01*
X143876996Y-71858464D01*
X143958361Y-71715235D01*
X143966267Y-71701318D01*
X143966268Y-71701317D01*
X143969310Y-71695961D01*
X143983580Y-71653066D01*
X144013509Y-71563096D01*
X144028303Y-71518623D01*
X144038990Y-71434025D01*
X144051285Y-71336707D01*
X144051286Y-71336698D01*
X144051727Y-71333204D01*
X144052100Y-71306466D01*
X144036305Y-71145381D01*
X144034045Y-71122331D01*
X144047304Y-71052583D01*
X144096167Y-71001076D01*
X144125560Y-70988677D01*
X144133270Y-70986524D01*
X144204259Y-70987473D01*
X144263467Y-71026651D01*
X144279216Y-71050291D01*
X144311694Y-71113486D01*
X144320564Y-71130746D01*
X144324387Y-71135570D01*
X144324390Y-71135574D01*
X144390811Y-71219375D01*
X144436652Y-71277212D01*
X144441346Y-71281207D01*
X144535582Y-71361409D01*
X144574494Y-71420792D01*
X144575125Y-71491785D01*
X144537273Y-71551850D01*
X144512294Y-71569023D01*
X144484305Y-71583656D01*
X144474647Y-71588705D01*
X144328995Y-71705813D01*
X144208862Y-71848981D01*
X144205899Y-71854370D01*
X144205896Y-71854375D01*
X144159312Y-71939113D01*
X144118826Y-72012757D01*
X144116965Y-72018624D01*
X144116964Y-72018626D01*
X144105468Y-72054867D01*
X144062315Y-72190901D01*
X144041482Y-72376630D01*
X144041998Y-72382774D01*
X144053218Y-72516385D01*
X144057121Y-72562867D01*
X144058819Y-72568788D01*
X144058819Y-72568789D01*
X144060903Y-72576056D01*
X144108636Y-72742520D01*
X144151350Y-72825633D01*
X144161278Y-72844950D01*
X144194064Y-72908746D01*
X144197887Y-72913570D01*
X144197890Y-72913574D01*
X144273134Y-73008507D01*
X144310152Y-73055212D01*
X144314846Y-73059207D01*
X144412933Y-73142686D01*
X144452478Y-73176342D01*
X144615621Y-73267519D01*
X144793367Y-73325272D01*
X144978945Y-73347401D01*
X144985080Y-73346929D01*
X144985082Y-73346929D01*
X145041119Y-73342617D01*
X145165287Y-73333063D01*
X145345296Y-73282804D01*
X145350785Y-73280031D01*
X145350791Y-73280029D01*
X145428159Y-73240947D01*
X145512114Y-73198538D01*
X145540524Y-73176342D01*
X145583601Y-73142686D01*
X145659387Y-73083475D01*
X145663413Y-73078811D01*
X145663416Y-73078808D01*
X145777480Y-72946663D01*
X145781507Y-72941998D01*
X145873821Y-72779495D01*
X145888091Y-72736600D01*
X145916827Y-72650214D01*
X145932814Y-72602157D01*
X145949101Y-72473233D01*
X145955796Y-72420241D01*
X145955797Y-72420232D01*
X145956238Y-72416738D01*
X145956611Y-72390000D01*
X145938373Y-72203999D01*
X145936108Y-72196495D01*
X145907457Y-72101600D01*
X145884355Y-72025083D01*
X145796615Y-71860066D01*
X145791974Y-71854375D01*
X145682388Y-71720010D01*
X145682385Y-71720007D01*
X145678493Y-71715235D01*
X145673746Y-71711308D01*
X145673743Y-71711305D01*
X145590559Y-71642489D01*
X145550821Y-71583656D01*
X145549200Y-71512678D01*
X145586209Y-71452090D01*
X145614065Y-71432939D01*
X145633114Y-71423317D01*
X145633120Y-71423313D01*
X145638614Y-71420538D01*
X145667024Y-71398342D01*
X145719289Y-71357507D01*
X145785887Y-71305475D01*
X145789913Y-71300811D01*
X145789916Y-71300808D01*
X145874077Y-71203306D01*
X145908007Y-71163998D01*
X145911052Y-71158638D01*
X145997278Y-71006852D01*
X145997279Y-71006851D01*
X146000321Y-71001495D01*
X146018859Y-70945770D01*
X146038394Y-70887045D01*
X146059314Y-70824157D01*
X146076131Y-70691037D01*
X146082296Y-70642241D01*
X146082297Y-70642232D01*
X146082738Y-70638738D01*
X146083111Y-70612000D01*
X146064873Y-70425999D01*
X146045069Y-70360406D01*
X160878492Y-70360406D01*
X160879008Y-70366550D01*
X160891492Y-70515212D01*
X160894131Y-70546643D01*
X160945646Y-70726296D01*
X160965767Y-70765447D01*
X161024563Y-70879852D01*
X161031074Y-70892522D01*
X161034897Y-70897346D01*
X161034900Y-70897350D01*
X161114193Y-70997392D01*
X161147162Y-71038988D01*
X161151856Y-71042983D01*
X161282543Y-71154207D01*
X161289488Y-71160118D01*
X161452631Y-71251295D01*
X161630377Y-71309048D01*
X161815955Y-71331177D01*
X161822090Y-71330705D01*
X161822092Y-71330705D01*
X161878129Y-71326393D01*
X162002297Y-71316839D01*
X162182306Y-71266580D01*
X162187795Y-71263807D01*
X162187801Y-71263805D01*
X162295772Y-71209264D01*
X162349124Y-71182314D01*
X162360012Y-71173808D01*
X162408948Y-71135574D01*
X162496397Y-71067251D01*
X162500423Y-71062587D01*
X162500426Y-71062584D01*
X162591074Y-70957567D01*
X162618517Y-70925774D01*
X162686176Y-70806672D01*
X162707788Y-70768628D01*
X162707789Y-70768627D01*
X162710831Y-70763271D01*
X162725101Y-70720376D01*
X162740228Y-70674902D01*
X162769824Y-70585933D01*
X162779197Y-70511738D01*
X162784264Y-70471630D01*
X166907982Y-70471630D01*
X166908498Y-70477774D01*
X166922309Y-70642241D01*
X166923621Y-70657867D01*
X166975136Y-70837520D01*
X166994472Y-70875144D01*
X167057299Y-70997392D01*
X167060564Y-71003746D01*
X167064387Y-71008570D01*
X167064390Y-71008574D01*
X167142693Y-71107367D01*
X167176652Y-71150212D01*
X167181346Y-71154207D01*
X167313383Y-71266580D01*
X167318978Y-71271342D01*
X167482121Y-71362519D01*
X167659867Y-71420272D01*
X167845445Y-71442401D01*
X167851580Y-71441929D01*
X167851582Y-71441929D01*
X167907619Y-71437617D01*
X168031787Y-71428063D01*
X168211796Y-71377804D01*
X168217285Y-71375031D01*
X168217291Y-71375029D01*
X168300089Y-71333204D01*
X168378614Y-71293538D01*
X168387020Y-71286971D01*
X168459289Y-71230507D01*
X168525887Y-71178475D01*
X168529913Y-71173811D01*
X168529916Y-71173808D01*
X168610686Y-71080235D01*
X168648007Y-71036998D01*
X168740321Y-70874495D01*
X168754591Y-70831600D01*
X168779266Y-70757422D01*
X168799314Y-70697157D01*
X168810072Y-70612000D01*
X168822296Y-70515241D01*
X168822297Y-70515232D01*
X168822738Y-70511738D01*
X168823111Y-70485000D01*
X168804873Y-70298999D01*
X168800919Y-70285901D01*
X168752636Y-70125983D01*
X168750855Y-70120083D01*
X168663115Y-69955066D01*
X168650227Y-69939264D01*
X168548888Y-69815010D01*
X168548885Y-69815007D01*
X168544993Y-69810235D01*
X168540244Y-69806306D01*
X168405739Y-69695034D01*
X168405736Y-69695032D01*
X168400989Y-69691105D01*
X168236589Y-69602214D01*
X168131318Y-69569627D01*
X168063941Y-69548770D01*
X168063938Y-69548769D01*
X168058054Y-69546948D01*
X168051929Y-69546304D01*
X168051928Y-69546304D01*
X167878313Y-69528056D01*
X167878312Y-69528056D01*
X167872185Y-69527412D01*
X167753587Y-69538206D01*
X167692203Y-69543792D01*
X167692202Y-69543792D01*
X167686062Y-69544351D01*
X167680148Y-69546092D01*
X167680146Y-69546092D01*
X167646214Y-69556079D01*
X167506773Y-69597119D01*
X167501308Y-69599976D01*
X167359811Y-69673948D01*
X167341147Y-69683705D01*
X167195495Y-69800813D01*
X167075362Y-69943981D01*
X167072399Y-69949370D01*
X167072396Y-69949375D01*
X167013759Y-70056037D01*
X166985326Y-70107757D01*
X166983465Y-70113624D01*
X166983464Y-70113626D01*
X166961815Y-70181872D01*
X166928815Y-70285901D01*
X166907982Y-70471630D01*
X162784264Y-70471630D01*
X162792806Y-70404017D01*
X162792807Y-70404008D01*
X162793248Y-70400514D01*
X162793621Y-70373776D01*
X162775383Y-70187775D01*
X162771429Y-70174677D01*
X162745110Y-70087507D01*
X162721365Y-70008859D01*
X162633625Y-69843842D01*
X162615839Y-69822034D01*
X162519398Y-69703786D01*
X162519395Y-69703783D01*
X162515503Y-69699011D01*
X162510696Y-69695034D01*
X162376249Y-69583810D01*
X162376246Y-69583808D01*
X162371499Y-69579881D01*
X162207099Y-69490990D01*
X162089258Y-69454512D01*
X162034451Y-69437546D01*
X162034448Y-69437545D01*
X162028564Y-69435724D01*
X162022439Y-69435080D01*
X162022438Y-69435080D01*
X161848823Y-69416832D01*
X161848822Y-69416832D01*
X161842695Y-69416188D01*
X161724097Y-69426982D01*
X161662713Y-69432568D01*
X161662712Y-69432568D01*
X161656572Y-69433127D01*
X161650658Y-69434868D01*
X161650656Y-69434868D01*
X161567226Y-69459423D01*
X161477283Y-69485895D01*
X161471818Y-69488752D01*
X161343032Y-69556079D01*
X161311657Y-69572481D01*
X161166005Y-69689589D01*
X161045872Y-69832757D01*
X161042909Y-69838146D01*
X161042906Y-69838151D01*
X160975641Y-69960507D01*
X160955836Y-69996533D01*
X160899325Y-70174677D01*
X160878492Y-70360406D01*
X146045069Y-70360406D01*
X146010855Y-70247083D01*
X145923115Y-70082066D01*
X145916003Y-70073346D01*
X145808888Y-69942010D01*
X145808885Y-69942007D01*
X145804993Y-69937235D01*
X145744985Y-69887592D01*
X145665739Y-69822034D01*
X145665736Y-69822032D01*
X145660989Y-69818105D01*
X145496589Y-69729214D01*
X145383833Y-69694310D01*
X145323941Y-69675770D01*
X145323938Y-69675769D01*
X145318054Y-69673948D01*
X145311929Y-69673304D01*
X145311928Y-69673304D01*
X145138313Y-69655056D01*
X145138312Y-69655056D01*
X145132185Y-69654412D01*
X145013587Y-69665206D01*
X144952203Y-69670792D01*
X144952202Y-69670792D01*
X144946062Y-69671351D01*
X144828302Y-69706010D01*
X144757307Y-69706056D01*
X144697556Y-69667710D01*
X144681476Y-69644290D01*
X144634574Y-69556079D01*
X144631681Y-69550638D01*
X144627040Y-69544947D01*
X144517454Y-69410582D01*
X144517451Y-69410579D01*
X144513559Y-69405807D01*
X144508810Y-69401878D01*
X144374305Y-69290606D01*
X144374302Y-69290604D01*
X144369555Y-69286677D01*
X144205155Y-69197786D01*
X144089388Y-69161950D01*
X144032507Y-69144342D01*
X144032504Y-69144341D01*
X144026620Y-69142520D01*
X144020495Y-69141876D01*
X144020494Y-69141876D01*
X143846879Y-69123628D01*
X143846878Y-69123628D01*
X143840751Y-69122984D01*
X143741707Y-69131998D01*
X143660769Y-69139364D01*
X143660768Y-69139364D01*
X143654628Y-69139923D01*
X143648714Y-69141664D01*
X143648712Y-69141664D01*
X143579787Y-69161950D01*
X143475339Y-69192691D01*
X143469874Y-69195548D01*
X143329739Y-69268808D01*
X143309713Y-69279277D01*
X143164061Y-69396385D01*
X143082704Y-69493342D01*
X143053647Y-69527971D01*
X143043928Y-69539553D01*
X143040965Y-69544942D01*
X143040962Y-69544947D01*
X142971779Y-69670792D01*
X142953892Y-69703329D01*
X142897381Y-69881473D01*
X142876548Y-70067202D01*
X142892187Y-70253439D01*
X142892898Y-70255919D01*
X142885650Y-70325299D01*
X142841268Y-70380714D01*
X142804680Y-70398301D01*
X142735762Y-70418585D01*
X142730297Y-70421442D01*
X142602016Y-70488505D01*
X142570136Y-70505171D01*
X142424484Y-70622279D01*
X142304351Y-70765447D01*
X142301388Y-70770836D01*
X142301385Y-70770841D01*
X142261718Y-70842997D01*
X142214315Y-70929223D01*
X142212454Y-70935090D01*
X142212453Y-70935092D01*
X142207454Y-70950851D01*
X142157804Y-71107367D01*
X142136971Y-71293096D01*
X133350000Y-71293096D01*
X133350000Y-69836630D01*
X138488482Y-69836630D01*
X138488998Y-69842774D01*
X138502945Y-70008859D01*
X138504121Y-70022867D01*
X138555636Y-70202520D01*
X138641064Y-70368746D01*
X138644887Y-70373570D01*
X138644890Y-70373574D01*
X138749194Y-70505171D01*
X138757152Y-70515212D01*
X138761846Y-70519207D01*
X138870877Y-70612000D01*
X138899478Y-70636342D01*
X139062621Y-70727519D01*
X139240367Y-70785272D01*
X139425945Y-70807401D01*
X139432080Y-70806929D01*
X139432082Y-70806929D01*
X139488119Y-70802617D01*
X139612287Y-70793063D01*
X139792296Y-70742804D01*
X139797785Y-70740031D01*
X139797791Y-70740029D01*
X139875159Y-70700947D01*
X139959114Y-70658538D01*
X139987524Y-70636342D01*
X140014193Y-70615505D01*
X140106387Y-70543475D01*
X140110413Y-70538811D01*
X140110416Y-70538808D01*
X140214189Y-70418585D01*
X140228507Y-70401998D01*
X140316386Y-70247302D01*
X140317778Y-70244852D01*
X140317779Y-70244851D01*
X140320821Y-70239495D01*
X140335091Y-70196600D01*
X140377867Y-70068009D01*
X140379814Y-70062157D01*
X140388786Y-69991138D01*
X140402796Y-69880241D01*
X140402797Y-69880232D01*
X140403238Y-69876738D01*
X140403611Y-69850000D01*
X140385373Y-69663999D01*
X140381419Y-69650901D01*
X140347008Y-69536929D01*
X140331355Y-69485083D01*
X140243615Y-69320066D01*
X140219588Y-69290606D01*
X140129388Y-69180010D01*
X140129385Y-69180007D01*
X140125493Y-69175235D01*
X140120744Y-69171306D01*
X139986239Y-69060034D01*
X139986236Y-69060032D01*
X139981489Y-69056105D01*
X139817089Y-68967214D01*
X139727822Y-68939581D01*
X139644441Y-68913770D01*
X139644438Y-68913769D01*
X139638554Y-68911948D01*
X139632429Y-68911304D01*
X139632428Y-68911304D01*
X139458813Y-68893056D01*
X139458812Y-68893056D01*
X139452685Y-68892412D01*
X139334087Y-68903206D01*
X139272703Y-68908792D01*
X139272702Y-68908792D01*
X139266562Y-68909351D01*
X139260648Y-68911092D01*
X139260646Y-68911092D01*
X139233244Y-68919157D01*
X139087273Y-68962119D01*
X139081808Y-68964976D01*
X138977560Y-69019475D01*
X138921647Y-69048705D01*
X138775995Y-69165813D01*
X138655862Y-69308981D01*
X138652899Y-69314370D01*
X138652896Y-69314375D01*
X138586539Y-69435080D01*
X138565826Y-69472757D01*
X138563965Y-69478624D01*
X138563964Y-69478626D01*
X138539395Y-69556079D01*
X138509315Y-69650901D01*
X138488482Y-69836630D01*
X133350000Y-69836630D01*
X133350000Y-68693630D01*
X145692482Y-68693630D01*
X145692998Y-68699774D01*
X145705172Y-68844746D01*
X145708121Y-68879867D01*
X145709819Y-68885788D01*
X145709819Y-68885789D01*
X145711903Y-68893056D01*
X145759636Y-69059520D01*
X145779795Y-69098746D01*
X145832096Y-69200512D01*
X145845064Y-69225746D01*
X145848887Y-69230570D01*
X145848890Y-69230574D01*
X145915311Y-69314375D01*
X145961152Y-69372212D01*
X145965846Y-69376207D01*
X146098574Y-69489168D01*
X146103478Y-69493342D01*
X146266621Y-69584519D01*
X146444367Y-69642272D01*
X146629945Y-69664401D01*
X146636080Y-69663929D01*
X146636082Y-69663929D01*
X146692119Y-69659617D01*
X146816287Y-69650063D01*
X146996296Y-69599804D01*
X147001785Y-69597031D01*
X147001791Y-69597029D01*
X147097326Y-69548770D01*
X147163114Y-69515538D01*
X147191524Y-69493342D01*
X147241223Y-69454512D01*
X147310387Y-69400475D01*
X147314413Y-69395811D01*
X147314416Y-69395808D01*
X147412072Y-69282672D01*
X147432507Y-69258998D01*
X147438069Y-69249207D01*
X147521778Y-69101852D01*
X147521779Y-69101851D01*
X147524821Y-69096495D01*
X147539091Y-69053600D01*
X147561451Y-68986381D01*
X147583814Y-68919157D01*
X147589690Y-68872641D01*
X147606796Y-68737241D01*
X147606797Y-68737232D01*
X147607238Y-68733738D01*
X147607611Y-68707000D01*
X147589373Y-68520999D01*
X147585419Y-68507901D01*
X147545303Y-68375032D01*
X147535355Y-68342083D01*
X147532463Y-68336644D01*
X147532461Y-68336639D01*
X147519696Y-68312630D01*
X159316482Y-68312630D01*
X159316998Y-68318774D01*
X159323299Y-68393805D01*
X159332121Y-68498867D01*
X159383636Y-68678520D01*
X159405392Y-68720852D01*
X159445045Y-68798009D01*
X159469064Y-68844746D01*
X159472887Y-68849570D01*
X159472890Y-68849574D01*
X159564687Y-68965392D01*
X159585152Y-68991212D01*
X159589846Y-68995207D01*
X159717176Y-69103574D01*
X159727478Y-69112342D01*
X159890621Y-69203519D01*
X160068367Y-69261272D01*
X160253945Y-69283401D01*
X160260080Y-69282929D01*
X160260082Y-69282929D01*
X160316119Y-69278617D01*
X160440287Y-69269063D01*
X160620296Y-69218804D01*
X160625785Y-69216031D01*
X160625791Y-69216029D01*
X160725200Y-69165813D01*
X160787114Y-69134538D01*
X160801903Y-69122984D01*
X160843293Y-69090646D01*
X160934387Y-69019475D01*
X160938413Y-69014811D01*
X160938416Y-69014808D01*
X161043509Y-68893056D01*
X161056507Y-68877998D01*
X161138458Y-68733738D01*
X161145778Y-68720852D01*
X161145779Y-68720851D01*
X161148821Y-68715495D01*
X161163091Y-68672600D01*
X161186172Y-68603214D01*
X161198342Y-68566630D01*
X164367982Y-68566630D01*
X164368498Y-68572774D01*
X164382309Y-68737241D01*
X164383621Y-68752867D01*
X164435136Y-68932520D01*
X164454472Y-68970144D01*
X164494847Y-69048705D01*
X164520564Y-69098746D01*
X164524387Y-69103570D01*
X164524390Y-69103574D01*
X164597618Y-69195964D01*
X164636652Y-69245212D01*
X164641346Y-69249207D01*
X164718993Y-69315290D01*
X164778978Y-69366342D01*
X164942121Y-69457519D01*
X165119867Y-69515272D01*
X165305445Y-69537401D01*
X165311580Y-69536929D01*
X165311582Y-69536929D01*
X165367619Y-69532617D01*
X165491787Y-69523063D01*
X165671796Y-69472804D01*
X165677285Y-69470031D01*
X165677291Y-69470029D01*
X165754659Y-69430947D01*
X165838614Y-69388538D01*
X165859511Y-69372212D01*
X165919289Y-69325507D01*
X165985887Y-69273475D01*
X165989913Y-69268811D01*
X165989916Y-69268808D01*
X166074077Y-69171306D01*
X166108007Y-69131998D01*
X166187984Y-68991212D01*
X166197278Y-68974852D01*
X166197279Y-68974851D01*
X166200321Y-68969495D01*
X166214591Y-68926600D01*
X166257367Y-68798009D01*
X166259314Y-68792157D01*
X166270072Y-68707000D01*
X166282296Y-68610241D01*
X166282297Y-68610232D01*
X166282738Y-68606738D01*
X166283111Y-68580000D01*
X166264873Y-68393999D01*
X166260919Y-68380901D01*
X166212636Y-68220983D01*
X166210855Y-68215083D01*
X166123115Y-68050066D01*
X166108003Y-68031537D01*
X166008888Y-67910010D01*
X166008885Y-67910007D01*
X166004993Y-67905235D01*
X166000244Y-67901306D01*
X165865739Y-67790034D01*
X165865736Y-67790032D01*
X165860989Y-67786105D01*
X165696589Y-67697214D01*
X165607321Y-67669581D01*
X165523941Y-67643770D01*
X165523938Y-67643769D01*
X165518054Y-67641948D01*
X165511929Y-67641304D01*
X165511928Y-67641304D01*
X165338313Y-67623056D01*
X165338312Y-67623056D01*
X165332185Y-67622412D01*
X165213587Y-67633206D01*
X165152203Y-67638792D01*
X165152202Y-67638792D01*
X165146062Y-67639351D01*
X165140148Y-67641092D01*
X165140146Y-67641092D01*
X165089460Y-67656010D01*
X164966773Y-67692119D01*
X164801147Y-67778705D01*
X164655495Y-67895813D01*
X164535362Y-68038981D01*
X164532399Y-68044370D01*
X164532396Y-68044375D01*
X164487920Y-68125278D01*
X164445326Y-68202757D01*
X164388815Y-68380901D01*
X164367982Y-68566630D01*
X161198342Y-68566630D01*
X161207814Y-68538157D01*
X161225251Y-68400133D01*
X161230796Y-68356241D01*
X161230797Y-68356232D01*
X161231238Y-68352738D01*
X161231611Y-68326000D01*
X161213373Y-68139999D01*
X161209419Y-68126901D01*
X161179418Y-68027534D01*
X161159355Y-67961083D01*
X161071615Y-67796066D01*
X161066974Y-67790375D01*
X160957388Y-67656010D01*
X160957385Y-67656007D01*
X160953493Y-67651235D01*
X160948744Y-67647306D01*
X160814239Y-67536034D01*
X160814236Y-67536032D01*
X160809489Y-67532105D01*
X160645089Y-67443214D01*
X160555822Y-67415581D01*
X160472441Y-67389770D01*
X160472438Y-67389769D01*
X160466554Y-67387948D01*
X160460429Y-67387304D01*
X160460428Y-67387304D01*
X160286813Y-67369056D01*
X160286812Y-67369056D01*
X160280685Y-67368412D01*
X160162087Y-67379206D01*
X160100703Y-67384792D01*
X160100702Y-67384792D01*
X160094562Y-67385351D01*
X160088648Y-67387092D01*
X160088646Y-67387092D01*
X159966466Y-67423052D01*
X159915273Y-67438119D01*
X159909808Y-67440976D01*
X159766228Y-67516037D01*
X159749647Y-67524705D01*
X159603995Y-67641813D01*
X159483862Y-67784981D01*
X159480899Y-67790370D01*
X159480896Y-67790375D01*
X159444467Y-67856641D01*
X159393826Y-67948757D01*
X159337315Y-68126901D01*
X159316482Y-68312630D01*
X147519696Y-68312630D01*
X147511330Y-68296896D01*
X147497011Y-68227358D01*
X147522560Y-68161118D01*
X147565772Y-68125278D01*
X147573614Y-68121317D01*
X147573620Y-68121313D01*
X147579114Y-68118538D01*
X147726387Y-68003475D01*
X147730413Y-67998811D01*
X147730416Y-67998808D01*
X147814577Y-67901306D01*
X147848507Y-67861998D01*
X147940821Y-67699495D01*
X147955091Y-67656600D01*
X147970218Y-67611126D01*
X147999814Y-67522157D01*
X148010651Y-67436377D01*
X148022796Y-67340241D01*
X148022797Y-67340232D01*
X148023238Y-67336738D01*
X148023611Y-67310000D01*
X148005373Y-67123999D01*
X148001419Y-67110901D01*
X147953136Y-66950983D01*
X147951355Y-66945083D01*
X147863615Y-66780066D01*
X147799966Y-66702025D01*
X147749388Y-66640010D01*
X147749385Y-66640007D01*
X147745493Y-66635235D01*
X147740744Y-66631306D01*
X147606239Y-66520034D01*
X147606236Y-66520032D01*
X147601489Y-66516105D01*
X147437089Y-66427214D01*
X147347822Y-66399581D01*
X147264441Y-66373770D01*
X147264438Y-66373769D01*
X147258554Y-66371948D01*
X147252429Y-66371304D01*
X147252428Y-66371304D01*
X147078813Y-66353056D01*
X147078812Y-66353056D01*
X147072685Y-66352412D01*
X146954087Y-66363206D01*
X146892703Y-66368792D01*
X146892702Y-66368792D01*
X146886562Y-66369351D01*
X146880648Y-66371092D01*
X146880646Y-66371092D01*
X146758466Y-66407052D01*
X146707273Y-66422119D01*
X146541647Y-66508705D01*
X146395995Y-66625813D01*
X146275862Y-66768981D01*
X146272899Y-66774370D01*
X146272896Y-66774375D01*
X146199509Y-66907868D01*
X146185826Y-66932757D01*
X146129315Y-67110901D01*
X146108482Y-67296630D01*
X146124121Y-67482867D01*
X146175636Y-67662520D01*
X146178451Y-67667997D01*
X146206368Y-67722319D01*
X146219715Y-67792050D01*
X146193244Y-67857927D01*
X146152675Y-67891575D01*
X146131109Y-67902849D01*
X146131105Y-67902852D01*
X146125647Y-67905705D01*
X145979995Y-68022813D01*
X145859862Y-68165981D01*
X145856899Y-68171370D01*
X145856896Y-68171375D01*
X145826120Y-68227358D01*
X145769826Y-68329757D01*
X145713315Y-68507901D01*
X145705619Y-68576513D01*
X145693563Y-68683997D01*
X145692482Y-68693630D01*
X133350000Y-68693630D01*
X133350000Y-68033794D01*
X133370002Y-67965673D01*
X133423658Y-67919180D01*
X133433622Y-67915135D01*
X137901733Y-66319381D01*
X142219445Y-64777341D01*
X142261823Y-64770000D01*
X161901604Y-64770000D01*
X161946835Y-64778398D01*
G37*
%TD.AperFunction*%
%TD*%
M02*
