G04 start of page 10 for group -4015 idx -4015 *
G04 Title: encoder, toppaste *
G04 Creator: pcb 20140316 *
G04 CreationDate: Mon 25 Sep 2017 03:55:45 AM GMT UTC *
G04 For: brian *
G04 Format: Gerber/RS-274X *
G04 PCB-Dimensions (mil): 1250.00 1300.00 *
G04 PCB-Coordinate-Origin: lower left *
%MOIN*%
%FSLAX25Y25*%
%LNTOPPASTE*%
%ADD58R,0.0165X0.0165*%
%ADD57R,0.0295X0.0295*%
G54D57*X100441Y74492D02*Y73508D01*
X105559Y74492D02*Y73508D01*
X95059Y74492D02*Y73508D01*
X89941Y74492D02*Y73508D01*
X52441Y85992D02*Y85008D01*
X57559Y85992D02*Y85008D01*
X41441Y85992D02*Y85008D01*
X46559Y85992D02*Y85008D01*
X74441Y85992D02*Y85008D01*
X79559Y85992D02*Y85008D01*
X68059Y85992D02*Y85008D01*
X62941Y85992D02*Y85008D01*
G54D58*X36822Y52602D02*Y47681D01*
X39381Y52602D02*Y47681D01*
X41940Y52602D02*Y47681D01*
X44499Y52602D02*Y47681D01*
X47058Y52602D02*Y47681D01*
X49617Y52602D02*Y47681D01*
X52176Y52602D02*Y47681D01*
X54735Y52602D02*Y47681D01*
X57294Y52602D02*Y47681D01*
X59854Y52602D02*Y47681D01*
X62413Y52602D02*Y47681D01*
X64972Y52602D02*Y47681D01*
X67531Y52602D02*Y47681D01*
X70050Y52602D02*Y47681D01*
Y78389D02*Y73468D01*
X67531Y78389D02*Y73468D01*
X64972Y78389D02*Y73468D01*
X62413Y78389D02*Y73468D01*
X59854Y78389D02*Y73468D01*
X57294Y78389D02*Y73468D01*
X54735Y78389D02*Y73468D01*
X52176Y78389D02*Y73468D01*
X49617Y78389D02*Y73468D01*
X47058Y78389D02*Y73468D01*
X44499Y78389D02*Y73468D01*
X41940Y78389D02*Y73468D01*
X39381Y78389D02*Y73468D01*
X36822Y78389D02*Y73468D01*
M02*
