G04 start of page 9 for group -4078 idx -4078 *
G04 Title: encoder, bottomsilk *
G04 Creator: pcb 20140316 *
G04 CreationDate: Mon 25 Sep 2017 03:55:45 AM GMT UTC *
G04 For: brian *
G04 Format: Gerber/RS-274X *
G04 PCB-Dimensions (mil): 1250.00 1300.00 *
G04 PCB-Coordinate-Origin: lower left *
%MOIN*%
%FSLAX25Y25*%
%LNBOTTOMSILK*%
%ADD56C,0.0080*%
G54D56*X77255Y64393D02*Y63607D01*
X71745Y64393D02*Y63607D01*
X70255Y64393D02*Y63607D01*
X64745Y64393D02*Y63607D01*
X63255Y64393D02*Y63607D01*
X57745Y64393D02*Y63607D01*
X78300Y85945D02*Y86933D01*
X77768Y87465D02*X78300Y86933D01*
X75792Y87465D02*X77768D01*
X75792D02*X75260Y86933D01*
Y85945D02*Y86933D01*
X75868Y85033D02*X75260Y84425D01*
X78300D01*
Y83893D02*Y85033D01*
X77920Y82981D02*X78300Y82601D01*
X75640Y82981D02*X77920D01*
X75640D02*X75260Y82601D01*
Y81841D02*Y82601D01*
Y81841D02*X75640Y81461D01*
X77920D01*
X78300Y81841D02*X77920Y81461D01*
X78300Y81841D02*Y82601D01*
X77540Y82981D02*X76020Y81461D01*
X77920Y80549D02*X78300Y80169D01*
X77312Y80549D02*X77920D01*
X77312D02*X76780Y80017D01*
Y79561D02*Y80017D01*
Y79561D02*X77312Y79029D01*
X77920D01*
X78300Y79409D02*X77920Y79029D01*
X78300Y79409D02*Y80169D01*
X76248Y80549D02*X76780Y80017D01*
X75640Y80549D02*X76248D01*
X75640D02*X75260Y80169D01*
Y79409D02*Y80169D01*
Y79409D02*X75640Y79029D01*
X76248D01*
X76780Y79561D02*X76248Y79029D01*
X75300Y41945D02*Y42933D01*
X74768Y43465D02*X75300Y42933D01*
X72792Y43465D02*X74768D01*
X72792D02*X72260Y42933D01*
Y41945D02*Y42933D01*
X72868Y41033D02*X72260Y40425D01*
X75300D01*
Y39893D02*Y41033D01*
X74920Y38981D02*X75300Y38601D01*
X72640Y38981D02*X74920D01*
X72640D02*X72260Y38601D01*
Y37841D02*Y38601D01*
Y37841D02*X72640Y37461D01*
X74920D01*
X75300Y37841D02*X74920Y37461D01*
X75300Y37841D02*Y38601D01*
X74540Y38981D02*X73020Y37461D01*
X74160Y36549D02*X72260Y35029D01*
X74160Y34649D02*Y36549D01*
X72260Y35029D02*X75300D01*
X69335Y41980D02*Y42968D01*
X68803Y43500D02*X69335Y42968D01*
X66827Y43500D02*X68803D01*
X66827D02*X66295Y42968D01*
Y41980D02*Y42968D01*
X66903Y41068D02*X66295Y40460D01*
X69335D01*
Y39928D02*Y41068D01*
X68955Y39016D02*X69335Y38636D01*
X66675Y39016D02*X68955D01*
X66675D02*X66295Y38636D01*
Y37876D02*Y38636D01*
Y37876D02*X66675Y37496D01*
X68955D01*
X69335Y37876D02*X68955Y37496D01*
X69335Y37876D02*Y38636D01*
X68575Y39016D02*X67055Y37496D01*
X66295Y35444D02*X66675Y35064D01*
X66295Y35444D02*Y36204D01*
X66675Y36584D02*X66295Y36204D01*
X66675Y36584D02*X68955D01*
X69335Y36204D01*
X67663Y35444D02*X68043Y35064D01*
X67663Y35444D02*Y36584D01*
X69335Y35444D02*Y36204D01*
Y35444D02*X68955Y35064D01*
X68043D02*X68955D01*
X68800Y78445D02*Y79433D01*
X68268Y79965D02*X68800Y79433D01*
X66292Y79965D02*X68268D01*
X66292D02*X65760Y79433D01*
Y78445D02*Y79433D01*
X66368Y77533D02*X65760Y76925D01*
X68800D01*
Y76393D02*Y77533D01*
X68420Y75481D02*X68800Y75101D01*
X66140Y75481D02*X68420D01*
X66140D02*X65760Y75101D01*
Y74341D02*Y75101D01*
Y74341D02*X66140Y73961D01*
X68420D01*
X68800Y74341D02*X68420Y73961D01*
X68800Y74341D02*Y75101D01*
X68040Y75481D02*X66520Y73961D01*
X68800Y72669D02*X65760Y71149D01*
Y73049D01*
X61859Y78095D02*Y79083D01*
X61327Y79615D02*X61859Y79083D01*
X59351Y79615D02*X61327D01*
X59351D02*X58819Y79083D01*
Y78095D02*Y79083D01*
X59427Y77183D02*X58819Y76575D01*
X61859D01*
Y76043D02*Y77183D01*
X61479Y75131D02*X61859Y74751D01*
X59199Y75131D02*X61479D01*
X59199D02*X58819Y74751D01*
Y73991D02*Y74751D01*
Y73991D02*X59199Y73611D01*
X61479D01*
X61859Y73991D02*X61479Y73611D01*
X61859Y73991D02*Y74751D01*
X61099Y75131D02*X59579Y73611D01*
X59199Y72699D02*X58819Y72319D01*
Y71559D02*Y72319D01*
Y71559D02*X59199Y71179D01*
X61859Y71559D02*X61479Y71179D01*
X61859Y71559D02*Y72319D01*
X61479Y72699D02*X61859Y72319D01*
X60187Y71559D02*Y72319D01*
X59199Y71179D02*X59807D01*
X60567D02*X61479D01*
X60567D02*X60187Y71559D01*
X59807Y71179D02*X60187Y71559D01*
X81891Y67095D02*Y68083D01*
X81359Y68615D02*X81891Y68083D01*
X79383Y68615D02*X81359D01*
X79383D02*X78851Y68083D01*
Y67095D02*Y68083D01*
X79459Y66183D02*X78851Y65575D01*
X81891D01*
Y65043D02*Y66183D01*
X81511Y64131D02*X81891Y63751D01*
X79231Y64131D02*X81511D01*
X79231D02*X78851Y63751D01*
Y62991D02*Y63751D01*
Y62991D02*X79231Y62611D01*
X81511D01*
X81891Y62991D02*X81511Y62611D01*
X81891Y62991D02*Y63751D01*
X81131Y64131D02*X79611Y62611D01*
X78851Y60179D02*Y61699D01*
X80371D01*
X79991Y61319D01*
Y60559D02*Y61319D01*
Y60559D02*X80371Y60179D01*
X81511D01*
X81891Y60559D02*X81511Y60179D01*
X81891Y60559D02*Y61319D01*
X81511Y61699D02*X81891Y61319D01*
X39067Y44800D02*X40055D01*
X38535Y44268D02*X39067Y44800D01*
X38535Y42292D02*Y44268D01*
Y42292D02*X39067Y41760D01*
X40055D01*
X40967Y42368D02*X41575Y41760D01*
Y44800D01*
X40967D02*X42107D01*
X43019Y44420D02*X43399Y44800D01*
X43019Y42140D02*Y44420D01*
Y42140D02*X43399Y41760D01*
X44159D01*
X44539Y42140D01*
Y44420D01*
X44159Y44800D02*X44539Y44420D01*
X43399Y44800D02*X44159D01*
X43019Y44040D02*X44539Y42520D01*
X45451Y44420D02*X45831Y44800D01*
X45451Y42140D02*Y44420D01*
Y42140D02*X45831Y41760D01*
X46591D01*
X46971Y42140D01*
Y44420D01*
X46591Y44800D02*X46971Y44420D01*
X45831Y44800D02*X46591D01*
X45451Y44040D02*X46971Y42520D01*
X46067Y40300D02*X47055D01*
X45535Y39768D02*X46067Y40300D01*
X45535Y37792D02*Y39768D01*
Y37792D02*X46067Y37260D01*
X47055D01*
X47967Y37868D02*X48575Y37260D01*
Y40300D01*
X47967D02*X49107D01*
X50019Y39920D02*X50399Y40300D01*
X50019Y37640D02*Y39920D01*
Y37640D02*X50399Y37260D01*
X51159D01*
X51539Y37640D01*
Y39920D01*
X51159Y40300D02*X51539Y39920D01*
X50399Y40300D02*X51159D01*
X50019Y39540D02*X51539Y38020D01*
X52451Y37868D02*X53059Y37260D01*
Y40300D01*
X52451D02*X53591D01*
X52032Y53765D02*X53020D01*
X51500Y53233D02*X52032Y53765D01*
X51500Y51257D02*Y53233D01*
Y51257D02*X52032Y50725D01*
X53020D01*
X53932Y51333D02*X54540Y50725D01*
Y53765D01*
X53932D02*X55072D01*
X55984Y53385D02*X56364Y53765D01*
X55984Y51105D02*Y53385D01*
Y51105D02*X56364Y50725D01*
X57124D01*
X57504Y51105D01*
Y53385D01*
X57124Y53765D02*X57504Y53385D01*
X56364Y53765D02*X57124D01*
X55984Y53005D02*X57504Y51485D01*
X58416Y51105D02*X58796Y50725D01*
X59936D01*
X60316Y51105D01*
Y51865D01*
X58416Y53765D02*X60316Y51865D01*
X58416Y53765D02*X60316D01*
M02*
