M48
; DRILL file {KiCad 6.0.8-f2edbf62ab~116~ubuntu20.04.1} date Fri 16 Dec 2022 05:32:00 PM PST
; FORMAT={-:-/ absolute / inch / decimal}
; #@! TF.CreationDate,2022-12-16T17:32:00-08:00
; #@! TF.GenerationSoftware,Kicad,Pcbnew,6.0.8-f2edbf62ab~116~ubuntu20.04.1
; #@! TF.FileFunction,Plated,1,4,PTH
FMAT,2
INCH
; #@! TA.AperFunction,Plated,PTH,ViaDrill
T1C0.0280
; #@! TA.AperFunction,Plated,PTH,ComponentDrill
T2C0.0394
; #@! TA.AperFunction,Plated,PTH,ComponentDrill
T3C0.0430
%
G90
G05
T1
X0.94Y2.095
X0.99Y2.035
X2.095Y1.435
X2.25Y2.075
X2.42Y1.15
X2.495Y3.12
X2.5Y2.76
X2.935Y1.97
X3.345Y1.95
X3.445Y1.87
T2
X0.0991Y4.2741
X0.0991Y3.8241
X0.0991Y3.3741
X0.0991Y3.0741
X0.0991Y2.7741
X0.0991Y2.4741
X0.0991Y2.1741
X0.0991Y1.8741
X0.0991Y1.5741
X0.0991Y1.2741
X0.0991Y0.9741
X0.0991Y0.6741
X0.1991Y4.2741
X0.1991Y3.8241
X0.1991Y3.3741
X0.1991Y3.0741
X0.1991Y2.7741
X0.1991Y2.4741
X0.1991Y2.1741
X0.1991Y1.8741
X0.1991Y1.5741
X0.1991Y1.2741
X0.1991Y0.9741
X0.1991Y0.6741
X0.2991Y4.2741
X0.2991Y3.8241
X0.2991Y3.3741
X0.2991Y3.0741
X0.2991Y2.7741
X0.2991Y2.4741
X0.2991Y2.1741
X0.2991Y1.8741
X0.2991Y1.5741
X0.2991Y1.2741
X0.2991Y0.9741
X0.2991Y0.6741
X0.3991Y4.2741
X0.7433Y0.2376
X0.7433Y0.1376
X1.6442Y0.3376
X1.6442Y0.2376
X1.6442Y0.1376
X1.944Y1.632
X1.944Y1.532
X1.9442Y0.3376
X1.9442Y0.2376
X1.9442Y0.1376
X2.044Y1.632
X2.044Y1.532
X2.144Y1.632
X2.144Y1.532
X2.244Y1.632
X2.244Y1.532
X2.2442Y0.3376
X2.2442Y0.2376
X2.2442Y0.1376
X2.344Y1.632
X2.344Y1.532
X2.444Y1.632
X2.444Y1.532
X2.544Y1.632
X2.544Y1.532
X2.5442Y0.3376
X2.5442Y0.2376
X2.5442Y0.1376
X2.644Y1.632
X2.644Y1.532
X2.744Y1.632
X2.744Y1.532
X2.844Y1.632
X2.844Y1.532
X2.9437Y0.3376
X2.9437Y0.2376
X2.9437Y0.1376
X2.944Y1.632
X2.944Y1.532
X3.044Y1.632
X3.044Y1.532
X3.144Y1.632
X3.144Y1.532
X3.2437Y0.3376
X3.2437Y0.2376
X3.2437Y0.1376
X3.244Y1.632
X3.244Y1.532
X3.344Y1.632
X3.344Y1.532
X3.444Y1.632
X3.444Y1.532
X3.5437Y0.3376
X3.5437Y0.2376
X3.5437Y0.1376
X3.544Y1.632
X3.544Y1.532
X3.8437Y0.3376
X3.8437Y0.2376
X3.8437Y0.1376
X4.409Y5.1925
X4.409Y5.0925
X4.409Y4.9925
X4.409Y4.8925
X4.409Y4.7925
X4.509Y5.1925
X4.509Y5.0925
X4.509Y4.9925
X4.509Y4.8925
X4.509Y4.7925
X5.1889Y3.4181
X5.1889Y3.1181
X5.1889Y2.8181
X5.1889Y2.5181
X5.1889Y2.2181
X5.1889Y1.9181
X5.1889Y1.6181
X5.1889Y1.3181
X5.1889Y1.0181
X5.1889Y0.7181
X5.2889Y3.4181
X5.2889Y3.1181
X5.2889Y2.8181
X5.2889Y2.5181
X5.2889Y2.2181
X5.2889Y1.9181
X5.2889Y1.6181
X5.2889Y1.3181
X5.2889Y1.0181
X5.2889Y0.7181
X5.3889Y3.4181
X5.3889Y3.1181
X5.3889Y2.8181
X5.3889Y2.5181
X5.3889Y2.2181
X5.3889Y1.9181
X5.3889Y1.6181
X5.3889Y1.3181
X5.3889Y1.0181
X5.3889Y0.7181
T3
X0.475Y3.95
X0.475Y3.5
X0.475Y3.2
X0.475Y2.9
X0.475Y2.6
X0.475Y2.3
X0.475Y2.0
X0.475Y1.7
X0.475Y1.4
X0.475Y1.1
X0.475Y0.8
X0.575Y3.95
X0.575Y3.5
X0.575Y3.2
X0.575Y2.9
X0.575Y2.6
X0.575Y2.3
X0.575Y2.0
X0.575Y1.7
X0.575Y1.4
X0.575Y1.1
X0.575Y0.8
X0.675Y3.95
X0.675Y3.5
X0.675Y3.2
X0.675Y2.9
X0.675Y2.6
X0.675Y2.3
X0.675Y2.0
X0.675Y1.7
X0.675Y1.4
X0.675Y1.1
X0.675Y0.8
X0.985Y4.295
X1.0761Y0.6147
X1.0761Y0.5147
X1.085Y4.295
X1.185Y4.295
X1.285Y4.295
X1.325Y3.8
X1.325Y3.5
X1.325Y3.2
X1.325Y2.9
X1.325Y2.6
X1.325Y2.3
X1.325Y2.0
X1.325Y1.7
X1.325Y1.4
X1.325Y1.1
X1.425Y3.8
X1.425Y3.5
X1.425Y3.2
X1.425Y2.9
X1.425Y2.6
X1.425Y2.3
X1.425Y2.0
X1.425Y1.7
X1.425Y1.4
X1.425Y1.1
X1.525Y3.8
X1.525Y3.5
X1.525Y3.2
X1.525Y2.9
X1.525Y2.6
X1.525Y2.3
X1.525Y2.0
X1.525Y1.7
X1.525Y1.4
X1.525Y1.1
X1.5261Y0.7147
X1.5261Y0.6147
X1.5261Y0.5147
X1.625Y3.8
X1.625Y3.5
X1.625Y3.2
X1.625Y2.9
X1.625Y2.6
X1.625Y2.3
X1.725Y3.8
X1.725Y3.5
X1.725Y3.2
X1.725Y2.9
X1.725Y2.6
X1.725Y2.3
X1.825Y3.8
X1.825Y3.5
X1.825Y3.2
X1.825Y2.9
X1.825Y2.6
X1.825Y2.3
X1.8261Y0.7147
X1.8261Y0.6147
X1.8261Y0.5147
X2.1261Y0.7147
X2.1261Y0.6147
X2.1261Y0.5147
X2.4261Y0.7147
X2.4261Y0.6147
X2.4261Y0.5147
X2.475Y3.8
X2.475Y3.5
X2.475Y3.2
X2.475Y2.905
X2.475Y2.605
X2.475Y2.305
X2.575Y3.8
X2.575Y3.5
X2.575Y3.2
X2.575Y2.905
X2.575Y2.605
X2.575Y2.305
X2.675Y3.8
X2.675Y3.5
X2.675Y3.2
X2.675Y2.905
X2.675Y2.605
X2.675Y2.305
X2.775Y3.8
X2.775Y3.5
X2.775Y3.2
X2.775Y2.905
X2.775Y2.605
X2.775Y2.305
X3.025Y1.275
X3.025Y0.975
X3.025Y0.675
X3.125Y1.275
X3.125Y0.975
X3.125Y0.675
X3.225Y1.275
X3.225Y0.975
X3.225Y0.675
X3.5Y3.795
X3.5Y3.495
X3.5Y3.195
X3.5Y2.895
X3.6Y3.795
X3.6Y3.495
X3.6Y3.195
X3.6Y2.895
X3.7Y3.795
X3.7Y3.495
X3.7Y3.195
X3.7Y2.895
X3.8Y3.795
X3.8Y3.495
X3.8Y3.195
X3.8Y2.895
X3.875Y1.875
X3.875Y1.575
X3.875Y1.275
X3.875Y0.975
X3.875Y0.675
X3.9Y3.795
X3.9Y3.495
X3.9Y3.195
X3.9Y2.895
X3.975Y1.875
X3.975Y1.575
X3.975Y1.275
X3.975Y0.975
X3.975Y0.675
X4.0Y3.795
X4.0Y3.495
X4.0Y3.195
X4.0Y2.895
X4.075Y1.875
X4.075Y1.575
X4.075Y1.275
X4.075Y0.975
X4.075Y0.675
X4.1Y3.795
X4.1Y3.495
X4.1Y3.195
X4.1Y2.895
X4.65Y3.38
X4.65Y3.075
X4.65Y2.775
X4.65Y2.475
X4.65Y2.175
X4.65Y1.875
X4.65Y1.575
X4.65Y1.275
X4.65Y0.975
X4.65Y0.675
X4.75Y3.38
X4.75Y3.075
X4.75Y2.775
X4.75Y2.475
X4.75Y2.175
X4.75Y1.875
X4.75Y1.575
X4.75Y1.275
X4.75Y0.975
X4.75Y0.675
X4.85Y3.38
X4.85Y3.075
X4.85Y2.775
X4.85Y2.475
X4.85Y2.175
X4.85Y1.875
X4.85Y1.575
X4.85Y1.275
X4.85Y0.975
X4.85Y0.675
T0
M30
