M48
; DRILL file {KiCad 6.0.8-f2edbf62ab~116~ubuntu20.04.1} date Fri 16 Dec 2022 05:32:00 PM PST
; FORMAT={-:-/ absolute / inch / decimal}
; #@! TF.CreationDate,2022-12-16T17:32:00-08:00
; #@! TF.GenerationSoftware,Kicad,Pcbnew,6.0.8-f2edbf62ab~116~ubuntu20.04.1
; #@! TF.FileFunction,NonPlated,1,4,NPTH
FMAT,2
INCH
; #@! TA.AperFunction,NonPlated,NPTH,ComponentDrill
T1C0.1260
; #@! TA.AperFunction,NonPlated,NPTH,ComponentDrill
T2C0.1340
%
G90
G05
T1
X1.767Y4.3095
X3.721Y4.3095
T2
X0.3103Y3.9761
X0.3103Y3.5261
X0.3103Y3.2261
X0.3103Y2.9261
X0.3103Y2.6261
X0.3103Y2.3261
X0.3103Y2.0261
X0.3103Y1.7261
X0.3103Y1.4261
X0.3103Y1.1261
X0.3103Y0.8261
X0.825Y4.325
X0.835Y3.98
X0.835Y3.53
X0.835Y3.23
X0.835Y2.93
X0.835Y2.63
X0.835Y2.33
X0.835Y2.03
X0.835Y1.73
X0.835Y1.43
X0.835Y1.13
X0.835Y0.83
X1.0461Y0.7747
X1.0461Y0.3547
X1.1603Y2.0261
X1.1603Y1.7261
X1.1603Y1.4261
X1.1603Y1.1261
X1.165Y3.83
X1.165Y3.53
X1.165Y3.23
X1.165Y2.93
X1.165Y2.63
X1.165Y2.33
X1.445Y4.325
X1.4961Y0.8747
X1.5Y0.35
X1.685Y2.03
X1.685Y1.73
X1.685Y1.43
X1.685Y1.13
X1.7961Y0.8747
X1.8Y0.35
X1.985Y3.83
X1.985Y3.53
X1.985Y3.23
X1.985Y2.93
X1.985Y2.63
X1.985Y2.33
X2.0961Y0.8747
X2.1Y0.35
X2.315Y3.83
X2.315Y3.53
X2.315Y3.23
X2.315Y2.935
X2.315Y2.635
X2.315Y2.335
X2.3961Y0.8747
X2.4Y0.35
X2.8603Y1.3011
X2.8603Y1.0011
X2.8603Y0.7011
X2.935Y3.83
X2.935Y3.53
X2.935Y3.23
X2.935Y2.935
X2.935Y2.635
X2.935Y2.335
X3.34Y3.825
X3.34Y3.525
X3.34Y3.225
X3.34Y2.925
X3.385Y1.305
X3.385Y1.005
X3.385Y0.705
X3.7103Y1.9011
X3.7103Y1.6011
X3.7103Y1.3011
X3.7103Y1.0011
X3.7103Y0.7011
X4.235Y1.905
X4.235Y1.605
X4.235Y1.305
X4.235Y1.005
X4.235Y0.705
X4.26Y3.825
X4.26Y3.525
X4.26Y3.225
X4.26Y2.925
X4.4853Y3.4061
X4.4853Y3.1011
X4.4853Y2.8011
X4.4853Y2.5011
X4.4853Y2.2011
X4.4853Y1.9011
X4.4853Y1.6011
X4.4853Y1.3011
X4.4853Y1.0011
X4.4853Y0.7011
X5.01Y3.41
X5.01Y3.105
X5.01Y2.805
X5.01Y2.505
X5.01Y2.205
X5.01Y1.905
X5.01Y1.605
X5.01Y1.305
X5.01Y1.005
X5.01Y0.705
T0
M30
