G04 start of page 4 for group 2 idx 2 *
G04 Title: uart, signal3 *
G04 Creator: pcb 20140316 *
G04 CreationDate: Wed 16 Jan 2019 07:50:34 AM GMT UTC *
G04 For: brian *
G04 Format: Gerber/RS-274X *
G04 PCB-Dimensions (mil): 9000.00 5000.00 *
G04 PCB-Coordinate-Origin: lower left *
%MOIN*%
%FSLAX25Y25*%
%LNGROUP2*%
%ADD100C,0.0380*%
%ADD99C,0.0906*%
%ADD98C,0.0354*%
%ADD97C,0.0118*%
%ADD96C,0.1285*%
%ADD95C,0.0433*%
%ADD94C,0.0400*%
%ADD93C,0.0118*%
%ADD92C,0.0200*%
%ADD91C,0.0240*%
%ADD90C,0.0450*%
%ADD89C,0.0360*%
%ADD88C,0.0600*%
%ADD87C,0.1063*%
%ADD86C,0.0551*%
%ADD85C,0.0256*%
%ADD84C,0.1800*%
%ADD83C,0.0630*%
%ADD82C,0.0060*%
%ADD81C,0.0350*%
%ADD80C,0.0100*%
%ADD79C,0.0150*%
%ADD78C,0.0650*%
%ADD77C,0.0250*%
%ADD76C,0.1150*%
%ADD75C,0.0001*%
G54D75*G36*
X691496Y379657D02*X691593Y378431D01*
X691960Y376900D01*
X692562Y375446D01*
X693385Y374104D01*
X694407Y372907D01*
X695604Y371885D01*
X696946Y371062D01*
X698400Y370460D01*
X699931Y370093D01*
X701500Y369969D01*
Y222031D01*
X699931Y221907D01*
X698400Y221540D01*
X696946Y220938D01*
X695604Y220115D01*
X694407Y219093D01*
X693385Y217896D01*
X692562Y216554D01*
X691960Y215100D01*
X691593Y213569D01*
X691496Y212343D01*
Y234993D01*
X691500Y234992D01*
X691892Y235023D01*
X692275Y235115D01*
X692638Y235266D01*
X692974Y235471D01*
X693273Y235727D01*
X693529Y236026D01*
X693734Y236362D01*
X693885Y236725D01*
X693977Y237108D01*
X694000Y237500D01*
X693977Y237892D01*
X693885Y238275D01*
X693734Y238638D01*
X693529Y238974D01*
X693273Y239273D01*
X692974Y239529D01*
X692638Y239734D01*
X692275Y239885D01*
X691892Y239977D01*
X691500Y240008D01*
X691496Y240007D01*
Y241493D01*
X691500Y241492D01*
X691892Y241523D01*
X692275Y241615D01*
X692638Y241766D01*
X692974Y241971D01*
X693273Y242227D01*
X693529Y242526D01*
X693734Y242862D01*
X693885Y243225D01*
X693977Y243608D01*
X694000Y244000D01*
X693977Y244392D01*
X693885Y244775D01*
X693734Y245138D01*
X693529Y245474D01*
X693273Y245773D01*
X692974Y246029D01*
X692638Y246234D01*
X692275Y246385D01*
X691892Y246477D01*
X691500Y246508D01*
X691496Y246507D01*
Y379657D01*
G37*
G36*
X685996Y380000D02*X691469D01*
X691496Y379657D01*
Y246507D01*
X691108Y246477D01*
X690725Y246385D01*
X690362Y246234D01*
X690026Y246029D01*
X689727Y245773D01*
X689471Y245474D01*
X689266Y245138D01*
X689115Y244775D01*
X689023Y244392D01*
X688992Y244000D01*
X689023Y243608D01*
X689115Y243225D01*
X689266Y242862D01*
X689471Y242526D01*
X689727Y242227D01*
X690026Y241971D01*
X690362Y241766D01*
X690725Y241615D01*
X691108Y241523D01*
X691496Y241493D01*
Y240007D01*
X691108Y239977D01*
X690725Y239885D01*
X690362Y239734D01*
X690026Y239529D01*
X689727Y239273D01*
X689471Y238974D01*
X689266Y238638D01*
X689115Y238275D01*
X689023Y237892D01*
X688992Y237500D01*
X689023Y237108D01*
X689115Y236725D01*
X689266Y236362D01*
X689471Y236026D01*
X689727Y235727D01*
X690026Y235471D01*
X690362Y235266D01*
X690725Y235115D01*
X691108Y235023D01*
X691496Y234993D01*
Y212343D01*
X691469Y212000D01*
X685996D01*
Y228493D01*
X686000Y228492D01*
X686392Y228523D01*
X686775Y228615D01*
X687138Y228766D01*
X687474Y228971D01*
X687773Y229227D01*
X688029Y229526D01*
X688234Y229862D01*
X688385Y230225D01*
X688477Y230608D01*
X688500Y231000D01*
X688477Y231392D01*
X688385Y231775D01*
X688234Y232138D01*
X688029Y232474D01*
X687773Y232773D01*
X687474Y233029D01*
X687138Y233234D01*
X686775Y233385D01*
X686392Y233477D01*
X686000Y233508D01*
X685996Y233507D01*
Y380000D01*
G37*
G36*
X680496D02*X685996D01*
Y233507D01*
X685608Y233477D01*
X685225Y233385D01*
X684862Y233234D01*
X684526Y233029D01*
X684227Y232773D01*
X683971Y232474D01*
X683766Y232138D01*
X683615Y231775D01*
X683523Y231392D01*
X683492Y231000D01*
X683523Y230608D01*
X683615Y230225D01*
X683766Y229862D01*
X683971Y229526D01*
X684227Y229227D01*
X684526Y228971D01*
X684862Y228766D01*
X685225Y228615D01*
X685608Y228523D01*
X685996Y228493D01*
Y212000D01*
X680496D01*
Y234993D01*
X680500Y234992D01*
X680892Y235023D01*
X681275Y235115D01*
X681638Y235266D01*
X681974Y235471D01*
X682273Y235727D01*
X682529Y236026D01*
X682734Y236362D01*
X682885Y236725D01*
X682977Y237108D01*
X683000Y237500D01*
X682977Y237892D01*
X682885Y238275D01*
X682734Y238638D01*
X682529Y238974D01*
X682273Y239273D01*
X681974Y239529D01*
X681638Y239734D01*
X681275Y239885D01*
X680892Y239977D01*
X680500Y240008D01*
X680496Y240007D01*
Y241493D01*
X680500Y241492D01*
X680892Y241523D01*
X681275Y241615D01*
X681638Y241766D01*
X681974Y241971D01*
X682273Y242227D01*
X682529Y242526D01*
X682734Y242862D01*
X682885Y243225D01*
X682977Y243608D01*
X683000Y244000D01*
X682977Y244392D01*
X682885Y244775D01*
X682734Y245138D01*
X682529Y245474D01*
X682273Y245773D01*
X681974Y246029D01*
X681638Y246234D01*
X681275Y246385D01*
X680892Y246477D01*
X680500Y246508D01*
X680496Y246507D01*
Y348232D01*
X680541Y348235D01*
X681176Y348388D01*
X681779Y348638D01*
X682336Y348979D01*
X682833Y349403D01*
X683257Y349900D01*
X683598Y350457D01*
X683848Y351060D01*
X684001Y351695D01*
X684039Y352346D01*
X684001Y352998D01*
X683848Y353633D01*
X683598Y354236D01*
X683257Y354793D01*
X682833Y355290D01*
X682336Y355714D01*
X681779Y356055D01*
X681176Y356305D01*
X680541Y356458D01*
X680496Y356461D01*
Y369885D01*
X680541Y369889D01*
X681176Y370041D01*
X681779Y370291D01*
X682336Y370633D01*
X682833Y371057D01*
X683257Y371553D01*
X683598Y372110D01*
X683848Y372714D01*
X684001Y373349D01*
X684039Y374000D01*
X684001Y374651D01*
X683848Y375286D01*
X683598Y375890D01*
X683257Y376447D01*
X682833Y376943D01*
X682336Y377367D01*
X681779Y377709D01*
X681176Y377959D01*
X680541Y378111D01*
X680496Y378115D01*
Y380000D01*
G37*
G36*
X667996D02*X680496D01*
Y378115D01*
X679890Y378162D01*
X679239Y378111D01*
X678604Y377959D01*
X678000Y377709D01*
X677443Y377367D01*
X676946Y376943D01*
X676522Y376447D01*
X676181Y375890D01*
X675931Y375286D01*
X675779Y374651D01*
X675727Y374000D01*
X675779Y373349D01*
X675931Y372714D01*
X676181Y372110D01*
X676522Y371553D01*
X676946Y371057D01*
X677443Y370633D01*
X678000Y370291D01*
X678604Y370041D01*
X679239Y369889D01*
X679890Y369838D01*
X680496Y369885D01*
Y356461D01*
X679890Y356509D01*
X679239Y356458D01*
X678604Y356305D01*
X678000Y356055D01*
X677443Y355714D01*
X676946Y355290D01*
X676522Y354793D01*
X676181Y354236D01*
X675931Y353633D01*
X675779Y352998D01*
X675727Y352346D01*
X675779Y351695D01*
X675931Y351060D01*
X676181Y350457D01*
X676522Y349900D01*
X676946Y349403D01*
X677443Y348979D01*
X678000Y348638D01*
X678604Y348388D01*
X679239Y348235D01*
X679890Y348184D01*
X680496Y348232D01*
Y246507D01*
X680108Y246477D01*
X679725Y246385D01*
X679362Y246234D01*
X679026Y246029D01*
X678727Y245773D01*
X678471Y245474D01*
X678266Y245138D01*
X678115Y244775D01*
X678023Y244392D01*
X677992Y244000D01*
X678023Y243608D01*
X678115Y243225D01*
X678266Y242862D01*
X678471Y242526D01*
X678727Y242227D01*
X679026Y241971D01*
X679362Y241766D01*
X679725Y241615D01*
X680108Y241523D01*
X680496Y241493D01*
Y240007D01*
X680108Y239977D01*
X679725Y239885D01*
X679362Y239734D01*
X679026Y239529D01*
X678727Y239273D01*
X678471Y238974D01*
X678266Y238638D01*
X678115Y238275D01*
X678023Y237892D01*
X677992Y237500D01*
X678023Y237108D01*
X678115Y236725D01*
X678266Y236362D01*
X678471Y236026D01*
X678727Y235727D01*
X679026Y235471D01*
X679362Y235266D01*
X679725Y235115D01*
X680108Y235023D01*
X680496Y234993D01*
Y212000D01*
X667996D01*
Y242993D01*
X668000Y242992D01*
X668392Y243023D01*
X668775Y243115D01*
X669138Y243266D01*
X669474Y243471D01*
X669773Y243727D01*
X670029Y244026D01*
X670234Y244362D01*
X670385Y244725D01*
X670477Y245108D01*
X670500Y245500D01*
X670477Y245892D01*
X670385Y246275D01*
X670234Y246638D01*
X670029Y246974D01*
X669773Y247273D01*
X669474Y247529D01*
X669138Y247734D01*
X668775Y247885D01*
X668392Y247977D01*
X668000Y248008D01*
X667996Y248007D01*
Y380000D01*
G37*
G36*
X662496D02*X667996D01*
Y248007D01*
X667608Y247977D01*
X667225Y247885D01*
X666862Y247734D01*
X666526Y247529D01*
X666227Y247273D01*
X665971Y246974D01*
X665766Y246638D01*
X665615Y246275D01*
X665523Y245892D01*
X665492Y245500D01*
X665523Y245108D01*
X665615Y244725D01*
X665766Y244362D01*
X665971Y244026D01*
X666227Y243727D01*
X666526Y243471D01*
X666862Y243266D01*
X667225Y243115D01*
X667608Y243023D01*
X667996Y242993D01*
Y212000D01*
X662496D01*
Y229493D01*
X662500Y229492D01*
X662892Y229523D01*
X663275Y229615D01*
X663638Y229766D01*
X663974Y229971D01*
X664273Y230227D01*
X664529Y230526D01*
X664734Y230862D01*
X664885Y231225D01*
X664977Y231608D01*
X665000Y232000D01*
X664977Y232392D01*
X664885Y232775D01*
X664734Y233138D01*
X664529Y233474D01*
X664273Y233773D01*
X663974Y234029D01*
X663638Y234234D01*
X663275Y234385D01*
X662892Y234477D01*
X662500Y234508D01*
X662496Y234507D01*
Y380000D01*
G37*
G36*
X654996Y268000D02*X658000D01*
Y271107D01*
X658021Y271132D01*
X659868Y272979D01*
X659951Y273049D01*
X660231Y273378D01*
X660232Y273379D01*
X660458Y273748D01*
X660623Y274148D01*
X660725Y274568D01*
X660758Y275000D01*
X660750Y275108D01*
Y278000D01*
X660725Y278432D01*
X660623Y278852D01*
X660458Y279252D01*
X660232Y279621D01*
X659951Y279951D01*
X659621Y280232D01*
X659252Y280458D01*
X658852Y280623D01*
X658432Y280725D01*
X658000Y280758D01*
Y380000D01*
X662496D01*
Y234507D01*
X662108Y234477D01*
X661725Y234385D01*
X661362Y234234D01*
X661026Y234029D01*
X660727Y233773D01*
X660471Y233474D01*
X660266Y233138D01*
X660115Y232775D01*
X660023Y232392D01*
X659992Y232000D01*
X660023Y231608D01*
X660115Y231225D01*
X660266Y230862D01*
X660471Y230526D01*
X660727Y230227D01*
X661026Y229971D01*
X661362Y229766D01*
X661725Y229615D01*
X662108Y229523D01*
X662496Y229493D01*
Y212000D01*
X654996D01*
Y229493D01*
X655000Y229492D01*
X655392Y229523D01*
X655775Y229615D01*
X656138Y229766D01*
X656474Y229971D01*
X656773Y230227D01*
X657029Y230526D01*
X657234Y230862D01*
X657385Y231225D01*
X657477Y231608D01*
X657500Y232000D01*
X657477Y232392D01*
X657385Y232775D01*
X657234Y233138D01*
X657029Y233474D01*
X656773Y233773D01*
X656474Y234029D01*
X656138Y234234D01*
X655775Y234385D01*
X655392Y234477D01*
X655000Y234508D01*
X654996Y234507D01*
Y268000D01*
G37*
G36*
X648496D02*X654996D01*
Y234507D01*
X654608Y234477D01*
X654225Y234385D01*
X653862Y234234D01*
X653526Y234029D01*
X653227Y233773D01*
X652971Y233474D01*
X652766Y233138D01*
X652615Y232775D01*
X652523Y232392D01*
X652492Y232000D01*
X652523Y231608D01*
X652615Y231225D01*
X652766Y230862D01*
X652971Y230526D01*
X653227Y230227D01*
X653526Y229971D01*
X653862Y229766D01*
X654225Y229615D01*
X654608Y229523D01*
X654996Y229493D01*
Y212000D01*
X648496D01*
Y243493D01*
X648500Y243492D01*
X648892Y243523D01*
X649275Y243615D01*
X649638Y243766D01*
X649974Y243971D01*
X650273Y244227D01*
X650529Y244526D01*
X650734Y244862D01*
X650885Y245225D01*
X650977Y245608D01*
X651000Y246000D01*
X650977Y246392D01*
X650885Y246775D01*
X650734Y247138D01*
X650529Y247474D01*
X650273Y247773D01*
X649974Y248029D01*
X649638Y248234D01*
X649275Y248385D01*
X648892Y248477D01*
X648500Y248508D01*
X648496Y248507D01*
Y268000D01*
G37*
G36*
X628496D02*X648496D01*
Y248507D01*
X648108Y248477D01*
X647725Y248385D01*
X647362Y248234D01*
X647026Y248029D01*
X646727Y247773D01*
X646471Y247474D01*
X646266Y247138D01*
X646115Y246775D01*
X646023Y246392D01*
X645992Y246000D01*
X646023Y245608D01*
X646115Y245225D01*
X646266Y244862D01*
X646471Y244526D01*
X646727Y244227D01*
X647026Y243971D01*
X647362Y243766D01*
X647725Y243615D01*
X648108Y243523D01*
X648496Y243493D01*
Y212000D01*
X628496D01*
Y243493D01*
X628500Y243492D01*
X628892Y243523D01*
X629275Y243615D01*
X629638Y243766D01*
X629974Y243971D01*
X630273Y244227D01*
X630529Y244526D01*
X630734Y244862D01*
X630885Y245225D01*
X630977Y245608D01*
X631000Y246000D01*
X630977Y246392D01*
X630885Y246775D01*
X630734Y247138D01*
X630529Y247474D01*
X630273Y247773D01*
X629974Y248029D01*
X629638Y248234D01*
X629275Y248385D01*
X628892Y248477D01*
X628500Y248508D01*
X628496Y248507D01*
Y268000D01*
G37*
G36*
X620996D02*X628496D01*
Y248507D01*
X628108Y248477D01*
X627725Y248385D01*
X627362Y248234D01*
X627026Y248029D01*
X626727Y247773D01*
X626471Y247474D01*
X626266Y247138D01*
X626115Y246775D01*
X626023Y246392D01*
X625992Y246000D01*
X626023Y245608D01*
X626115Y245225D01*
X626266Y244862D01*
X626471Y244526D01*
X626727Y244227D01*
X627026Y243971D01*
X627362Y243766D01*
X627725Y243615D01*
X628108Y243523D01*
X628496Y243493D01*
Y212000D01*
X620996D01*
Y231493D01*
X621000Y231492D01*
X621392Y231523D01*
X621775Y231615D01*
X622138Y231766D01*
X622474Y231971D01*
X622773Y232227D01*
X623029Y232526D01*
X623234Y232862D01*
X623385Y233225D01*
X623477Y233608D01*
X623500Y234000D01*
X623477Y234392D01*
X623385Y234775D01*
X623234Y235138D01*
X623029Y235474D01*
X622773Y235773D01*
X622474Y236029D01*
X622138Y236234D01*
X622101Y236250D01*
X622138Y236266D01*
X622474Y236471D01*
X622773Y236727D01*
X623029Y237026D01*
X623234Y237362D01*
X623385Y237725D01*
X623477Y238108D01*
X623500Y238500D01*
X623477Y238892D01*
X623385Y239275D01*
X623234Y239638D01*
X623029Y239974D01*
X622773Y240273D01*
X622474Y240529D01*
X622138Y240734D01*
X621775Y240885D01*
X621392Y240977D01*
X621000Y241008D01*
X620996Y241007D01*
Y268000D01*
G37*
G36*
X607496D02*X620996D01*
Y241007D01*
X620608Y240977D01*
X620225Y240885D01*
X619862Y240734D01*
X619526Y240529D01*
X619227Y240273D01*
X618971Y239974D01*
X618766Y239638D01*
X618615Y239275D01*
X618523Y238892D01*
X618492Y238500D01*
X618523Y238108D01*
X618615Y237725D01*
X618766Y237362D01*
X618971Y237026D01*
X619227Y236727D01*
X619526Y236471D01*
X619862Y236266D01*
X619899Y236250D01*
X619862Y236234D01*
X619526Y236029D01*
X619227Y235773D01*
X618971Y235474D01*
X618766Y235138D01*
X618615Y234775D01*
X618523Y234392D01*
X618492Y234000D01*
X618523Y233608D01*
X618615Y233225D01*
X618766Y232862D01*
X618971Y232526D01*
X619227Y232227D01*
X619526Y231971D01*
X619862Y231766D01*
X620225Y231615D01*
X620608Y231523D01*
X620996Y231493D01*
Y212000D01*
X607496D01*
Y229493D01*
X607500Y229492D01*
X607892Y229523D01*
X608275Y229615D01*
X608638Y229766D01*
X608974Y229971D01*
X609273Y230227D01*
X609529Y230526D01*
X609734Y230862D01*
X609885Y231225D01*
X609977Y231608D01*
X610000Y232000D01*
X609977Y232392D01*
X609885Y232775D01*
X609734Y233138D01*
X609529Y233474D01*
X609273Y233773D01*
X608974Y234029D01*
X608638Y234234D01*
X608275Y234385D01*
X607892Y234477D01*
X607500Y234508D01*
X607496Y234507D01*
Y268000D01*
G37*
G36*
X599496D02*X607496D01*
Y234507D01*
X607108Y234477D01*
X606725Y234385D01*
X606362Y234234D01*
X606026Y234029D01*
X605727Y233773D01*
X605471Y233474D01*
X605266Y233138D01*
X605115Y232775D01*
X605023Y232392D01*
X604992Y232000D01*
X605023Y231608D01*
X605115Y231225D01*
X605266Y230862D01*
X605471Y230526D01*
X605727Y230227D01*
X606026Y229971D01*
X606362Y229766D01*
X606725Y229615D01*
X607108Y229523D01*
X607496Y229493D01*
Y212000D01*
X599496D01*
Y229493D01*
X599500Y229492D01*
X599892Y229523D01*
X600275Y229615D01*
X600638Y229766D01*
X600974Y229971D01*
X601273Y230227D01*
X601529Y230526D01*
X601734Y230862D01*
X601885Y231225D01*
X601977Y231608D01*
X602000Y232000D01*
X601977Y232392D01*
X601885Y232775D01*
X601734Y233138D01*
X601529Y233474D01*
X601273Y233773D01*
X600974Y234029D01*
X600638Y234234D01*
X600275Y234385D01*
X599892Y234477D01*
X599500Y234508D01*
X599496Y234507D01*
Y268000D01*
G37*
G36*
X581496D02*X595800D01*
Y248997D01*
X594705Y247902D01*
X594392Y247977D01*
X594000Y248008D01*
X593608Y247977D01*
X593225Y247885D01*
X592862Y247734D01*
X592526Y247529D01*
X592227Y247273D01*
X591971Y246974D01*
X591766Y246638D01*
X591615Y246275D01*
X591523Y245892D01*
X591492Y245500D01*
X591523Y245108D01*
X591615Y244725D01*
X591766Y244362D01*
X591971Y244026D01*
X592227Y243727D01*
X592526Y243471D01*
X592862Y243266D01*
X593225Y243115D01*
X593608Y243023D01*
X594000Y242992D01*
X594392Y243023D01*
X594775Y243115D01*
X595138Y243266D01*
X595474Y243471D01*
X595773Y243727D01*
X596029Y244026D01*
X596234Y244362D01*
X596385Y244725D01*
X596477Y245108D01*
X596500Y245500D01*
X596477Y245892D01*
X596402Y246205D01*
X597815Y247618D01*
X597851Y247649D01*
X597974Y247792D01*
X597974Y247792D01*
X598073Y247954D01*
X598145Y248128D01*
X598189Y248312D01*
X598204Y248500D01*
X598200Y248547D01*
Y268000D01*
X599496D01*
Y234507D01*
X599108Y234477D01*
X598725Y234385D01*
X598362Y234234D01*
X598026Y234029D01*
X597727Y233773D01*
X597471Y233474D01*
X597266Y233138D01*
X597115Y232775D01*
X597023Y232392D01*
X596992Y232000D01*
X597023Y231608D01*
X597115Y231225D01*
X597266Y230862D01*
X597471Y230526D01*
X597727Y230227D01*
X598026Y229971D01*
X598362Y229766D01*
X598725Y229615D01*
X599108Y229523D01*
X599496Y229493D01*
Y212000D01*
X581496D01*
Y234993D01*
X581500Y234992D01*
X581892Y235023D01*
X582275Y235115D01*
X582638Y235266D01*
X582974Y235471D01*
X583273Y235727D01*
X583529Y236026D01*
X583734Y236362D01*
X583885Y236725D01*
X583977Y237108D01*
X584000Y237500D01*
X583977Y237892D01*
X583885Y238275D01*
X583734Y238638D01*
X583529Y238974D01*
X583273Y239273D01*
X582974Y239529D01*
X582638Y239734D01*
X582275Y239885D01*
X581892Y239977D01*
X581500Y240008D01*
X581496Y240007D01*
Y241493D01*
X581500Y241492D01*
X581892Y241523D01*
X582275Y241615D01*
X582638Y241766D01*
X582974Y241971D01*
X583273Y242227D01*
X583529Y242526D01*
X583734Y242862D01*
X583885Y243225D01*
X583977Y243608D01*
X584000Y244000D01*
X583977Y244392D01*
X583885Y244775D01*
X583734Y245138D01*
X583529Y245474D01*
X583273Y245773D01*
X582974Y246029D01*
X582638Y246234D01*
X582275Y246385D01*
X581892Y246477D01*
X581500Y246508D01*
X581496Y246507D01*
Y268000D01*
G37*
G36*
X575996D02*X581496D01*
Y246507D01*
X581108Y246477D01*
X580725Y246385D01*
X580362Y246234D01*
X580026Y246029D01*
X579727Y245773D01*
X579471Y245474D01*
X579266Y245138D01*
X579115Y244775D01*
X579023Y244392D01*
X578992Y244000D01*
X579023Y243608D01*
X579115Y243225D01*
X579266Y242862D01*
X579471Y242526D01*
X579727Y242227D01*
X580026Y241971D01*
X580362Y241766D01*
X580725Y241615D01*
X581108Y241523D01*
X581496Y241493D01*
Y240007D01*
X581108Y239977D01*
X580725Y239885D01*
X580362Y239734D01*
X580026Y239529D01*
X579727Y239273D01*
X579471Y238974D01*
X579266Y238638D01*
X579115Y238275D01*
X579023Y237892D01*
X578992Y237500D01*
X579023Y237108D01*
X579115Y236725D01*
X579266Y236362D01*
X579471Y236026D01*
X579727Y235727D01*
X580026Y235471D01*
X580362Y235266D01*
X580725Y235115D01*
X581108Y235023D01*
X581496Y234993D01*
Y212000D01*
X575996D01*
Y228493D01*
X576000Y228492D01*
X576392Y228523D01*
X576775Y228615D01*
X577138Y228766D01*
X577474Y228971D01*
X577773Y229227D01*
X578029Y229526D01*
X578234Y229862D01*
X578385Y230225D01*
X578477Y230608D01*
X578500Y231000D01*
X578477Y231392D01*
X578385Y231775D01*
X578234Y232138D01*
X578029Y232474D01*
X577773Y232773D01*
X577474Y233029D01*
X577138Y233234D01*
X576775Y233385D01*
X576392Y233477D01*
X576000Y233508D01*
X575996Y233507D01*
Y268000D01*
G37*
G36*
X570496D02*X575996D01*
Y233507D01*
X575608Y233477D01*
X575225Y233385D01*
X574862Y233234D01*
X574526Y233029D01*
X574227Y232773D01*
X573971Y232474D01*
X573766Y232138D01*
X573615Y231775D01*
X573523Y231392D01*
X573492Y231000D01*
X573523Y230608D01*
X573615Y230225D01*
X573766Y229862D01*
X573971Y229526D01*
X574227Y229227D01*
X574526Y228971D01*
X574862Y228766D01*
X575225Y228615D01*
X575608Y228523D01*
X575996Y228493D01*
Y212000D01*
X570496D01*
Y234993D01*
X570500Y234992D01*
X570892Y235023D01*
X571275Y235115D01*
X571638Y235266D01*
X571974Y235471D01*
X572273Y235727D01*
X572529Y236026D01*
X572734Y236362D01*
X572885Y236725D01*
X572977Y237108D01*
X573000Y237500D01*
X572977Y237892D01*
X572885Y238275D01*
X572734Y238638D01*
X572529Y238974D01*
X572273Y239273D01*
X571974Y239529D01*
X571638Y239734D01*
X571275Y239885D01*
X570892Y239977D01*
X570500Y240008D01*
X570496Y240007D01*
Y241493D01*
X570500Y241492D01*
X570892Y241523D01*
X571275Y241615D01*
X571638Y241766D01*
X571974Y241971D01*
X572273Y242227D01*
X572529Y242526D01*
X572734Y242862D01*
X572885Y243225D01*
X572977Y243608D01*
X573000Y244000D01*
X572977Y244392D01*
X572885Y244775D01*
X572734Y245138D01*
X572529Y245474D01*
X572273Y245773D01*
X571974Y246029D01*
X571638Y246234D01*
X571275Y246385D01*
X570892Y246477D01*
X570500Y246508D01*
X570496Y246507D01*
Y268000D01*
G37*
G36*
X551000D02*X570496D01*
Y246507D01*
X570108Y246477D01*
X569725Y246385D01*
X569362Y246234D01*
X569026Y246029D01*
X568727Y245773D01*
X568471Y245474D01*
X568266Y245138D01*
X568115Y244775D01*
X568023Y244392D01*
X567992Y244000D01*
X568023Y243608D01*
X568115Y243225D01*
X568266Y242862D01*
X568471Y242526D01*
X568727Y242227D01*
X569026Y241971D01*
X569362Y241766D01*
X569725Y241615D01*
X570108Y241523D01*
X570496Y241493D01*
Y240007D01*
X570108Y239977D01*
X569725Y239885D01*
X569362Y239734D01*
X569026Y239529D01*
X568727Y239273D01*
X568471Y238974D01*
X568266Y238638D01*
X568115Y238275D01*
X568023Y237892D01*
X567992Y237500D01*
X568023Y237108D01*
X568115Y236725D01*
X568266Y236362D01*
X568471Y236026D01*
X568727Y235727D01*
X569026Y235471D01*
X569362Y235266D01*
X569725Y235115D01*
X570108Y235023D01*
X570496Y234993D01*
Y212000D01*
X551000D01*
Y235208D01*
X551138Y235266D01*
X551474Y235471D01*
X551773Y235727D01*
X552029Y236026D01*
X552234Y236362D01*
X552385Y236725D01*
X552477Y237108D01*
X552500Y237500D01*
X552477Y237892D01*
X552385Y238275D01*
X552234Y238638D01*
X552029Y238974D01*
X551773Y239273D01*
X551474Y239529D01*
X551138Y239734D01*
X551000Y239792D01*
Y241708D01*
X551138Y241766D01*
X551474Y241971D01*
X551773Y242227D01*
X552029Y242526D01*
X552234Y242862D01*
X552385Y243225D01*
X552477Y243608D01*
X552500Y244000D01*
X552477Y244392D01*
X552385Y244775D01*
X552234Y245138D01*
X552029Y245474D01*
X551773Y245773D01*
X551474Y246029D01*
X551138Y246234D01*
X551000Y246292D01*
Y268000D01*
G37*
G36*
X595995Y344000D02*X599500D01*
Y316000D01*
X595995D01*
Y316740D01*
X596000Y316740D01*
X596510Y316780D01*
X597007Y316900D01*
X597480Y317095D01*
X597916Y317363D01*
X598305Y317695D01*
X598637Y318084D01*
X598905Y318520D01*
X599100Y318993D01*
X599220Y319490D01*
X599250Y320000D01*
X599220Y320510D01*
X599100Y321007D01*
X598905Y321480D01*
X598637Y321916D01*
X598305Y322305D01*
X597916Y322637D01*
X597480Y322905D01*
X597007Y323100D01*
X596510Y323220D01*
X596000Y323260D01*
X595995Y323260D01*
Y344000D01*
G37*
G36*
X582996D02*X595995D01*
Y323260D01*
X595490Y323220D01*
X594993Y323100D01*
X594520Y322905D01*
X594084Y322637D01*
X593695Y322305D01*
X593363Y321916D01*
X593095Y321480D01*
X592900Y321007D01*
X592780Y320510D01*
X592740Y320000D01*
X592780Y319490D01*
X592900Y318993D01*
X593095Y318520D01*
X593363Y318084D01*
X593695Y317695D01*
X594084Y317363D01*
X594520Y317095D01*
X594993Y316900D01*
X595490Y316780D01*
X595995Y316740D01*
Y316000D01*
X582996D01*
Y325993D01*
X583000Y325992D01*
X583392Y326023D01*
X583775Y326115D01*
X584138Y326266D01*
X584474Y326471D01*
X584773Y326727D01*
X585029Y327026D01*
X585234Y327362D01*
X585385Y327725D01*
X585477Y328108D01*
X585500Y328500D01*
X585477Y328892D01*
X585385Y329275D01*
X585234Y329638D01*
X585029Y329974D01*
X584773Y330273D01*
X584474Y330529D01*
X584138Y330734D01*
X583775Y330885D01*
X583392Y330977D01*
X583000Y331008D01*
X582996Y331007D01*
Y344000D01*
G37*
G36*
X567500Y316000D02*Y326493D01*
X567526Y326471D01*
X567862Y326266D01*
X568225Y326115D01*
X568608Y326023D01*
X569000Y325992D01*
X569392Y326023D01*
X569775Y326115D01*
X570138Y326266D01*
X570474Y326471D01*
X570773Y326727D01*
X571029Y327026D01*
X571234Y327362D01*
X571385Y327725D01*
X571477Y328108D01*
X571500Y328500D01*
X571477Y328892D01*
X571385Y329275D01*
X571234Y329638D01*
X571029Y329974D01*
X570773Y330273D01*
X570474Y330529D01*
X570138Y330734D01*
X569775Y330885D01*
X569392Y330977D01*
X569000Y331008D01*
X568608Y330977D01*
X568225Y330885D01*
X567862Y330734D01*
X567526Y330529D01*
X567500Y330507D01*
Y333051D01*
X567554Y333183D01*
X567711Y333833D01*
X567763Y334500D01*
X567711Y335167D01*
X567554Y335817D01*
X567500Y335949D01*
Y344000D01*
X582996D01*
Y331007D01*
X582608Y330977D01*
X582225Y330885D01*
X581862Y330734D01*
X581526Y330529D01*
X581227Y330273D01*
X580971Y329974D01*
X580766Y329638D01*
X580615Y329275D01*
X580523Y328892D01*
X580492Y328500D01*
X580523Y328108D01*
X580615Y327725D01*
X580766Y327362D01*
X580971Y327026D01*
X581227Y326727D01*
X581526Y326471D01*
X581862Y326266D01*
X582225Y326115D01*
X582608Y326023D01*
X582996Y325993D01*
Y316000D01*
X567500D01*
G37*
G54D76*X172500Y384000D02*X606000D01*
G54D77*X394500Y365000D02*Y384000D01*
X339000Y365000D02*Y384000D01*
G54D78*X554500Y339000D02*X559000D01*
G54D79*X544000Y365000D02*X538000Y359000D01*
X387000Y352500D02*X383500Y349000D01*
X380000Y352000D02*X278500D01*
X383500Y349000D02*X284500D01*
X278500Y352000D02*X269000Y342500D01*
X284500Y349000D02*X274000Y338500D01*
X269000Y342500D02*X267000D01*
X263000Y338500D01*
G54D78*X410000Y329780D02*X433720Y353500D01*
G54D79*X432000Y359000D02*X425500Y352500D01*
X434000Y364500D02*X427500Y358000D01*
G54D78*X433720Y353500D02*X548500D01*
G54D79*X375000Y355500D02*X277500D01*
X268000Y346000D01*
X253500D01*
X246000Y338500D01*
X538000Y359000D02*X432000D01*
G54D78*X559000Y339000D02*X563500Y334500D01*
G54D79*X518500Y365000D02*X510500Y373000D01*
X440000D01*
X434000Y367000D01*
Y364500D01*
X384500Y365000D02*X375000Y355500D01*
X427500Y358000D02*X386000D01*
X380000Y352000D01*
X425500Y352500D02*X387000D01*
G54D80*X434000Y320000D02*X422500Y331500D01*
X487500Y272000D02*X489500Y274000D01*
X466000Y277500D02*Y292000D01*
X455000Y303000D01*
Y315000D01*
X450000Y320000D01*
X434000D01*
X449500Y313500D02*X433000Y297000D01*
X281000Y298000D02*X303500D01*
X308000D02*X347000D01*
X303500D02*X306000Y300500D01*
X349000D01*
X404500Y301000D02*X362500Y300500D01*
X349000D02*X352500Y297000D01*
X347000Y298000D02*X350500Y294500D01*
X352500Y297000D02*X359000D01*
X362500Y300500D02*X359000Y297000D01*
X350500Y294500D02*X386000D01*
X389000Y297500D01*
X433000Y297000D02*X408500D01*
X404500Y301000D01*
X389000Y297500D02*X403000D01*
X414000Y286500D01*
X415500D01*
G54D79*X634000Y288500D02*Y299500D01*
X637500Y303000D01*
X625000D02*X637500D01*
G54D80*X622500Y311000D02*X611000Y299500D01*
X622500Y306500D02*X625500Y309500D01*
Y317000D01*
X622500Y320000D01*
G54D79*X627000Y325500D02*X637500Y315000D01*
Y303000D01*
G54D81*X619000Y286000D02*X632000Y273000D01*
X619000Y286000D02*X613000D01*
X605500Y293500D01*
G54D79*X631000Y286760D02*X632260D01*
G54D77*X476500Y294000D02*X498000Y272500D01*
Y257000D01*
G54D81*X658000Y278000D02*Y275000D01*
X656000Y273000D01*
X632000D01*
G54D79*X632260Y286760D02*X634000Y288500D01*
G54D81*X598000Y293500D02*X605500D01*
G54D80*X611000Y299500D02*X599500D01*
X597000Y289000D02*X595000Y291000D01*
Y295000D01*
X599500Y299500D01*
X594000Y245500D02*X597000Y248500D01*
Y289000D01*
X595000Y352000D02*X595500Y351500D01*
X595000Y352000D02*Y349500D01*
X591000Y345500D01*
X567500D01*
X595500Y351500D02*X646500D01*
G54D81*X554000Y365000D02*Y384000D01*
X528500Y365000D02*Y384000D01*
G54D82*X588000Y363000D02*X591500Y359500D01*
Y350000D01*
X588000Y359000D02*Y345500D01*
G54D80*X567500D02*X564500Y348500D01*
G54D78*X548500Y353500D02*X554500Y347500D01*
Y339000D01*
X188000Y329780D02*X410000D01*
G54D77*X283500Y365000D02*Y384000D01*
X228000Y365000D02*Y384000D01*
X172500Y365000D02*Y384000D01*
G54D80*X311000Y280500D02*X308500Y283000D01*
X301500D01*
X296000Y277500D01*
X287500D02*X308000Y298000D01*
X286000Y277500D02*X287500D01*
X276000D02*Y293000D01*
X281000Y298000D01*
X376000Y217500D02*Y233500D01*
X366000Y217500D02*Y229500D01*
X282000Y211500D02*X480500D01*
X487500Y218500D01*
X376000Y233500D02*X382500Y240000D01*
X366000Y229500D02*X380000Y243500D01*
X463500D01*
X382500Y240000D02*X449500D01*
X454500Y249500D02*X359000D01*
X429000Y254500D02*X327500D01*
X454500Y249500D02*X455000Y250000D01*
X332500Y246500D02*X312500D01*
X291000Y268000D01*
X487500Y218500D02*Y272000D01*
X465500Y270000D02*X365500D01*
X464500Y264000D02*X365000D01*
X327500Y254500D02*X311000Y271000D01*
Y280500D01*
X365500Y270000D02*X361000Y274500D01*
X365000Y264000D02*X356000Y273000D01*
Y277500D01*
X361000Y274500D02*Y280500D01*
X358000Y283500D01*
X352000D01*
X346000Y277500D01*
X276000Y217500D02*X282000Y211500D01*
X336000Y226500D02*X315000D01*
X306000Y217500D01*
X339000Y234500D02*X304500D01*
X359000Y249500D02*X336000Y226500D01*
X304500Y234500D02*X271000Y268000D01*
X329500Y240500D02*X308500D01*
X281000Y268000D01*
X343500Y245000D02*X338000Y250500D01*
X318500D01*
X301000Y268000D01*
X337000Y242000D02*X332500Y246500D01*
G54D75*G36*
X646250Y368250D02*Y361750D01*
X652750D01*
Y368250D01*
X646250D01*
G37*
G54D78*X639500Y365000D03*
G54D83*X666110Y374000D03*
X679890D03*
X666110Y352346D03*
X679890D03*
G54D78*X629500Y365000D03*
X619500D03*
G54D84*X701500Y380000D03*
G54D85*X631000Y290500D03*
Y286760D03*
Y294240D03*
X636709Y290500D03*
X625291D03*
G54D84*X701500Y212000D03*
G54D78*X609500Y365000D03*
G54D75*G36*
X525250Y368250D02*Y361750D01*
X531750D01*
Y368250D01*
X525250D01*
G37*
G54D78*X518500Y365000D03*
G54D75*G36*
X550750Y368250D02*Y361750D01*
X557250D01*
Y368250D01*
X550750D01*
G37*
G54D78*X544000Y365000D03*
X599500D03*
G54D83*X569110Y374000D03*
X582890D03*
Y352346D03*
X569110D03*
G54D86*X554500Y329780D03*
Y312063D03*
X528500D03*
X554500Y302220D03*
G54D87*X543831Y290134D03*
G54D86*X528500Y302220D03*
G54D87*X517831Y290134D03*
G54D86*X554500Y319937D03*
G54D87*X543831Y341866D03*
G54D86*X528500Y329780D03*
Y319937D03*
G54D87*X517831Y341866D03*
G54D75*G36*
X243000Y220500D02*Y214500D01*
X249000D01*
Y220500D01*
X243000D01*
G37*
G54D88*X256000Y217500D03*
X266000D03*
X276000D03*
X286000D03*
X296000D03*
X306000D03*
X316000D03*
X326000D03*
X336000D03*
X346000D03*
X356000D03*
X366000D03*
X376000D03*
X386000D03*
X396000D03*
X406000D03*
X416000D03*
X406000Y277500D03*
X396000D03*
X386000D03*
X376000D03*
X366000D03*
X356000D03*
X346000D03*
X336000D03*
X326000D03*
X316000D03*
X306000D03*
X296000D03*
X286000D03*
X276000D03*
X266000D03*
X256000D03*
X246000D03*
X426000Y217500D03*
X436000D03*
X446000D03*
X456000D03*
X466000D03*
X476000D03*
Y277500D03*
X466000D03*
X456000D03*
X446000D03*
X436000D03*
X426000D03*
X416000D03*
G54D86*X410000Y329780D03*
G54D87*X399331Y341866D03*
G54D86*X410000Y319937D03*
Y312063D03*
Y302220D03*
G54D87*X399331Y290134D03*
G54D75*G36*
X447750Y368250D02*Y361750D01*
X454250D01*
Y368250D01*
X447750D01*
G37*
G54D78*X441000Y365000D03*
G54D75*G36*
X421250Y368250D02*Y361750D01*
X427750D01*
Y368250D01*
X421250D01*
G37*
G54D78*X414500Y365000D03*
G54D75*G36*
X473250Y368250D02*Y361750D01*
X479750D01*
Y368250D01*
X473250D01*
G37*
G54D78*X466500Y365000D03*
G54D75*G36*
X498750Y368250D02*Y361750D01*
X505250D01*
Y368250D01*
X498750D01*
G37*
G54D78*X492000Y365000D03*
X404500D03*
X394500D03*
X384500D03*
G54D75*G36*
X365750Y368250D02*Y361750D01*
X372250D01*
Y368250D01*
X365750D01*
G37*
G54D78*X359000Y365000D03*
X349000D03*
X339000D03*
X329000D03*
G54D86*X354500Y329780D03*
G54D87*X343831Y341866D03*
G54D75*G36*
X310250Y368250D02*Y361750D01*
X316750D01*
Y368250D01*
X310250D01*
G37*
G54D78*X303500Y365000D03*
X293500D03*
X283500D03*
X273500D03*
G54D75*G36*
X254750Y368250D02*Y361750D01*
X261250D01*
Y368250D01*
X254750D01*
G37*
G54D78*X248000Y365000D03*
X238000D03*
X228000D03*
X218000D03*
G54D75*G36*
X199250Y368250D02*Y361750D01*
X205750D01*
Y368250D01*
X199250D01*
G37*
G54D78*X192500Y365000D03*
X182500D03*
X172500D03*
X162500D03*
G54D84*X141000Y380000D03*
G54D86*X354500Y319937D03*
X299000D03*
Y312063D03*
Y302220D03*
G54D87*X288331Y290134D03*
G54D86*X354500Y312063D03*
Y302220D03*
G54D87*X343831Y290134D03*
G54D86*X299000Y329780D03*
G54D87*X288331Y341866D03*
G54D86*X243500Y329780D03*
Y319937D03*
Y312063D03*
Y302220D03*
X188000D03*
G54D87*X232831Y341866D03*
G54D86*X188000Y329780D03*
Y319937D03*
Y312063D03*
G54D87*X177331Y341866D03*
X232831Y290134D03*
X177331D03*
G54D84*X141000Y212000D03*
G54D89*X628500Y246000D03*
X653500Y277500D03*
X648500Y246000D03*
X658000Y278000D03*
X649000Y277500D03*
X668000Y245500D03*
X680500Y244000D03*
Y237500D03*
X662500Y232000D03*
X655000D03*
X599500D03*
X607500D03*
X691500Y237500D03*
Y244000D03*
X686000Y231000D03*
X598000Y293500D03*
X569000Y297500D03*
X575500Y285000D03*
X621000Y234000D03*
Y238500D03*
X594000Y245500D03*
G54D90*X587000Y264500D03*
Y254500D03*
X583000Y259500D03*
G54D89*X562000Y316000D03*
X532500Y288000D03*
X593500Y277500D03*
X627000Y278000D03*
X616500Y280500D03*
Y290500D03*
X625000Y303000D03*
X622500Y306500D03*
X647500Y285500D03*
X637500Y303000D03*
X622500Y311000D03*
Y320000D03*
X627000Y325500D03*
G54D90*X596000Y320000D03*
G54D89*Y312500D03*
X570500Y244000D03*
X581500Y237500D03*
Y244000D03*
X576000Y231000D03*
X570500Y237500D03*
X539000Y244000D03*
Y237500D03*
X518500D03*
Y244000D03*
X513000Y231000D03*
X507500Y237500D03*
X550000D03*
X544500Y231000D03*
X550000Y244000D03*
X507500D03*
X449500Y313500D03*
G54D88*X462500Y311500D03*
X442000Y326000D03*
G54D90*X496000Y332000D03*
X246000Y338500D03*
X274000D03*
X263000D03*
G54D89*X422500Y331500D03*
X416000Y373500D03*
X313500Y323500D03*
G54D88*X513500Y332000D03*
G54D89*X569000Y328500D03*
G54D91*X576000Y322500D03*
G54D90*X568500Y323500D03*
G54D88*X563500Y334500D03*
X554500Y339000D03*
G54D89*X583000Y328500D03*
G54D90*X583500Y323500D03*
X596500Y333500D03*
X589000D03*
Y326000D03*
X596500D03*
G54D89*X573500Y348500D03*
X564500D03*
X578000Y349000D03*
G54D91*X591500Y350000D03*
G54D89*X646500Y351500D03*
X595000Y352000D03*
G54D91*X588000Y363000D03*
Y359000D03*
G54D88*X606000Y381500D03*
X600500Y386500D03*
X595000Y381500D03*
X589500Y386500D03*
G54D89*X360500Y373500D03*
X305000D03*
X249500D03*
X194000D03*
X278500Y380000D03*
X271000Y268000D03*
X281000D03*
X291000D03*
X301000D03*
G54D90*X492500Y294000D03*
X485000D03*
X476500D03*
X471000D03*
G54D89*X494500Y286500D03*
X415500D03*
G54D90*X483000Y323000D03*
G54D88*X502000Y315000D03*
X498000Y257000D03*
G54D89*X246000Y261500D03*
X429000Y254500D03*
G54D88*X498000Y264000D03*
G54D89*X463500Y243500D03*
X489500Y274000D03*
X464500Y264000D03*
X465500Y270000D03*
X449500Y240000D03*
X455000Y250000D03*
G54D90*X191500Y258000D03*
Y237000D03*
X205000Y314000D03*
X213500D03*
X221000D03*
G54D89*X386000Y233500D03*
X376500Y306500D03*
X225000Y243500D03*
X215000D03*
X205000D03*
X220000Y231000D03*
X210000D03*
X200000D03*
X329500Y240500D03*
X339000Y234500D03*
X337000Y242000D03*
X343500Y245000D03*
G54D92*G54D77*G54D92*G54D77*G54D92*G54D81*G54D77*G54D92*G54D81*G54D92*G54D93*G54D77*G54D81*G54D92*G54D77*G54D92*G54D93*G54D92*G54D93*G54D81*G54D92*G54D77*G54D92*G54D77*G54D81*G54D92*G54D81*G54D92*G54D77*G54D92*G54D94*G54D95*G54D94*G54D96*G54D97*G54D96*G54D94*G54D95*G54D98*G54D99*G54D98*G54D99*G54D98*G54D99*G54D98*G54D99*G54D100*G54D98*G54D99*G54D98*G54D99*G54D94*G54D98*G54D99*G54D94*G54D96*G54D98*G54D99*G54D98*G54D99*G54D98*G54D99*G54D98*G54D99*G54D98*G54D99*G54D96*M02*
