G04 start of page 12 for group -4015 idx -4015 *
G04 Title: uart, toppaste *
G04 Creator: pcb 20140316 *
G04 CreationDate: Wed 16 Jan 2019 07:50:34 AM GMT UTC *
G04 For: brian *
G04 Format: Gerber/RS-274X *
G04 PCB-Dimensions (mil): 9000.00 5000.00 *
G04 PCB-Coordinate-Origin: lower left *
%MOIN*%
%FSLAX25Y25*%
%LNTOPPASTE*%
%ADD207R,0.0362X0.0362*%
%ADD206R,0.0098X0.0098*%
%ADD205R,0.0197X0.0197*%
%ADD204R,0.0472X0.0472*%
%ADD203R,0.0528X0.0528*%
%ADD202R,0.0280X0.0280*%
%ADD201R,0.0295X0.0295*%
%ADD200R,0.0512X0.0512*%
%ADD199R,0.0630X0.0630*%
%ADD198R,0.1772X0.1772*%
%ADD197R,0.0221X0.0221*%
%ADD196R,0.0294X0.0294*%
%ADD195R,0.0200X0.0200*%
%ADD194R,0.0551X0.0551*%
G54D194*X625882Y240634D02*X636118D01*
X625882Y232366D02*X636118D01*
G54D195*X628500Y273465D02*Y272449D01*
X623500Y273465D02*Y272449D01*
X618500Y273465D02*Y272449D01*
X613500Y273465D02*Y272449D01*
G54D196*X627177Y268854D02*Y266697D01*
Y262382D02*Y260224D01*
X623059Y268854D02*Y266697D01*
Y262382D02*Y260224D01*
X618941Y268854D02*Y266697D01*
Y262382D02*Y260224D01*
X614823Y268854D02*Y266697D01*
Y262382D02*Y260224D01*
G54D197*X628500Y251650D02*Y249642D01*
X623500Y251650D02*Y249642D01*
X618500Y251650D02*Y249642D01*
X613500Y251650D02*Y249642D01*
G54D195*X653500Y251051D02*Y250035D01*
X658500Y251051D02*Y250035D01*
X663500Y251051D02*Y250035D01*
X668500Y251051D02*Y250035D01*
G54D196*X654823Y256803D02*Y254646D01*
Y263276D02*Y261118D01*
X658941Y256803D02*Y254646D01*
Y263276D02*Y261118D01*
X663059Y256803D02*Y254646D01*
Y263276D02*Y261118D01*
X667177Y256803D02*Y254646D01*
Y263276D02*Y261118D01*
G54D197*X653500Y273858D02*Y271850D01*
X658500Y273858D02*Y271850D01*
X663500Y273858D02*Y271850D01*
X668500Y273858D02*Y271850D01*
G54D195*X648500Y273465D02*Y272449D01*
X643500Y273465D02*Y272449D01*
X638500Y273465D02*Y272449D01*
X633500Y273465D02*Y272449D01*
G54D196*X647177Y268854D02*Y266697D01*
Y262382D02*Y260224D01*
X643059Y268854D02*Y266697D01*
Y262382D02*Y260224D01*
X638941Y268854D02*Y266697D01*
Y262382D02*Y260224D01*
X634823Y268854D02*Y266697D01*
Y262382D02*Y260224D01*
G54D197*X648500Y251650D02*Y249642D01*
X643500Y251650D02*Y249642D01*
X638500Y251650D02*Y249642D01*
X633500Y251650D02*Y249642D01*
G54D195*X593500Y251051D02*Y250035D01*
X598500Y251051D02*Y250035D01*
X603500Y251051D02*Y250035D01*
X608500Y251051D02*Y250035D01*
G54D196*X594823Y256803D02*Y254646D01*
Y263276D02*Y261118D01*
X598941Y256803D02*Y254646D01*
Y263276D02*Y261118D01*
X603059Y256803D02*Y254646D01*
Y263276D02*Y261118D01*
X607177Y256803D02*Y254646D01*
Y263276D02*Y261118D01*
G54D197*X593500Y273858D02*Y271850D01*
X598500Y273858D02*Y271850D01*
X603500Y273858D02*Y271850D01*
X608500Y273858D02*Y271850D01*
G54D198*X610331Y310984D02*Y309016D01*
X651669Y310984D02*Y309016D01*
G54D199*X513000Y262492D02*Y256193D01*
Y242807D02*Y236508D01*
X544500Y262492D02*Y256193D01*
Y242807D02*Y236508D01*
X576000Y262492D02*Y256193D01*
Y242807D02*Y236508D01*
G54D200*X654107Y244043D02*X654893D01*
X654107Y236957D02*X654893D01*
X662107Y244043D02*X662893D01*
X662107Y236957D02*X662893D01*
G54D199*X686000Y262492D02*Y256193D01*
Y242807D02*Y236508D01*
G54D200*X607107Y244043D02*X607893D01*
X607107Y236957D02*X607893D01*
X599107Y244043D02*X599893D01*
X599107Y236957D02*X599893D01*
G54D201*X448441Y341492D02*Y340508D01*
X453559Y341492D02*Y340508D01*
X458441Y341492D02*Y340508D01*
X463559Y341492D02*Y340508D01*
G54D200*X441607Y312957D02*X442393D01*
X441607Y320043D02*X442393D01*
G54D202*X448600Y324200D02*X450200D01*
X448600Y320500D02*X450200D01*
X448600Y316800D02*X450200D01*
X458800D02*X460400D01*
X458800Y324200D02*X460400D01*
G54D203*X447870Y333906D02*Y332094D01*
X459130Y333906D02*Y332094D01*
G54D204*X449988Y303921D02*Y294079D01*
X461012Y303921D02*Y294079D01*
X440512Y344421D02*Y334579D01*
X429488Y344421D02*Y334579D01*
G54D203*X473094Y287870D02*X474906D01*
X473094Y299130D02*X474906D01*
G54D201*X472508Y310059D02*X473492D01*
X472508Y304941D02*X473492D01*
G54D202*X482800Y289700D02*Y288100D01*
X486500Y289700D02*Y288100D01*
X490200Y289700D02*Y288100D01*
Y299900D02*Y298300D01*
X482800Y299900D02*Y298300D01*
G54D200*X478957Y307393D02*Y306607D01*
X486043Y307393D02*Y306607D01*
G54D203*X481094Y316870D02*X482906D01*
X481094Y328130D02*X482906D01*
G54D202*X498300Y310700D02*Y309100D01*
X502000Y310700D02*Y309100D01*
X505700Y310700D02*Y309100D01*
Y320900D02*Y319300D01*
X498300Y320900D02*Y319300D01*
G54D204*X490488Y344921D02*Y335079D01*
X501512Y344921D02*Y335079D01*
G54D201*X504559Y327492D02*Y326508D01*
X499441Y327492D02*Y326508D01*
X507508Y337559D02*X508492D01*
X507508Y332441D02*X508492D01*
X467441Y315492D02*Y314508D01*
X472559Y315492D02*Y314508D01*
G54D200*X491107Y327043D02*X491893D01*
X491107Y319957D02*X491893D01*
G54D201*X575008Y295059D02*X575992D01*
X575008Y289941D02*X575992D01*
X575008Y299441D02*X575992D01*
X575008Y304559D02*X575992D01*
G54D205*X571768Y325154D02*X572358D01*
G54D206*X574425Y325646D02*Y324661D01*
X576000Y325646D02*Y324661D01*
X577575Y325646D02*Y324661D01*
G54D205*X579642Y325154D02*X580232D01*
X579642Y331846D02*X580232D01*
G54D206*X577575Y332339D02*Y331354D01*
X576000Y332339D02*Y331354D01*
X574425Y332339D02*Y331354D01*
G54D205*X571768Y331846D02*X572358D01*
G54D207*X572850Y328500D02*X579150D01*
G54D201*X582008Y336441D02*X582992D01*
X582008Y341559D02*X582992D01*
X560441Y328492D02*Y327508D01*
X565559Y328492D02*Y327508D01*
X586941Y320492D02*Y319508D01*
X592059Y320492D02*Y319508D01*
X570508Y336441D02*X571492D01*
X570508Y341559D02*X571492D01*
X576508Y336441D02*X577492D01*
X576508Y341559D02*X577492D01*
X546059Y277492D02*Y276508D01*
X540941Y277492D02*Y276508D01*
X551441Y277492D02*Y276508D01*
X556559Y277492D02*Y276508D01*
X376008Y315059D02*X376992D01*
X376008Y309941D02*X376992D01*
X376008Y320441D02*X376992D01*
X376008Y325559D02*X376992D01*
X489008Y245941D02*X489992D01*
X489008Y251059D02*X489992D01*
X489008Y241559D02*X489992D01*
X489008Y236441D02*X489992D01*
X321008Y333559D02*X321992D01*
X321008Y328441D02*X321992D01*
X321008Y338441D02*X321992D01*
X321008Y343559D02*X321992D01*
M02*
