G04 start of page 2 for group 0 idx 0 *
G04 Title: uart, top *
G04 Creator: pcb 20140316 *
G04 CreationDate: Wed 16 Jan 2019 07:50:34 AM GMT UTC *
G04 For: brian *
G04 Format: Gerber/RS-274X *
G04 PCB-Dimensions (mil): 9000.00 5000.00 *
G04 PCB-Coordinate-Origin: lower left *
%MOIN*%
%FSLAX25Y25*%
%LNTOP*%
%ADD52C,0.0380*%
%ADD51C,0.0906*%
%ADD50C,0.0354*%
%ADD49C,0.0118*%
%ADD48C,0.1285*%
%ADD47C,0.0433*%
%ADD46C,0.0400*%
%ADD45C,0.0118*%
%ADD44C,0.0200*%
%ADD43C,0.0240*%
%ADD42C,0.0450*%
%ADD41C,0.0360*%
%ADD40R,0.0098X0.0098*%
%ADD39R,0.0197X0.0197*%
%ADD38R,0.1890X0.1890*%
%ADD37R,0.0551X0.0551*%
%ADD36R,0.0221X0.0221*%
%ADD35R,0.0362X0.0362*%
%ADD34R,0.0528X0.0528*%
%ADD33R,0.0472X0.0472*%
%ADD32R,0.0280X0.0280*%
%ADD31R,0.0295X0.0295*%
%ADD30R,0.0512X0.0512*%
%ADD29R,0.0630X0.0630*%
%ADD28R,0.1594X0.1594*%
%ADD27R,0.0294X0.0294*%
%ADD26R,0.0200X0.0200*%
%ADD25R,0.0358X0.0358*%
%ADD24C,0.0600*%
%ADD23C,0.1063*%
%ADD22C,0.0551*%
%ADD21C,0.0256*%
%ADD20C,0.1800*%
%ADD19C,0.0630*%
%ADD18C,0.0650*%
%ADD17C,0.0057*%
%ADD16C,0.0150*%
%ADD15C,0.0060*%
%ADD14C,0.0250*%
%ADD13C,0.0100*%
%ADD12C,0.0350*%
%ADD11C,0.0001*%
G54D11*G36*
X640500Y320500D02*X661500D01*
Y293000D01*
X670500Y284000D01*
Y269000D01*
X656500D01*
Y275500D01*
X659000D01*
X661000Y277500D01*
Y278500D01*
X659000Y280500D01*
X652500D01*
X650500Y278500D01*
Y257000D01*
X631500D01*
Y277500D01*
X640500Y286500D01*
Y320500D01*
G37*
G36*
X620000D02*Y301500D01*
X623000Y298500D01*
Y278500D01*
X626000Y275500D01*
X630500D01*
Y257000D01*
X611500D01*
Y269000D01*
X596500D01*
Y280000D01*
X600500Y284000D01*
Y320500D01*
X620000D01*
G37*
G36*
X679883Y390000D02*X701108D01*
X699931Y389907D01*
X698400Y389540D01*
X696946Y388938D01*
X695604Y388115D01*
X694407Y387093D01*
X693385Y385896D01*
X692562Y384554D01*
X691960Y383100D01*
X691593Y381569D01*
X691469Y380000D01*
X691593Y378431D01*
X691960Y376900D01*
X692562Y375446D01*
X693385Y374104D01*
X694407Y372907D01*
X695604Y371885D01*
X696946Y371062D01*
X698400Y370460D01*
X699931Y370093D01*
X701500Y369969D01*
Y267000D01*
X679883D01*
Y348185D01*
X679890Y348184D01*
X680541Y348235D01*
X681176Y348388D01*
X681779Y348638D01*
X682336Y348979D01*
X682833Y349403D01*
X683257Y349900D01*
X683598Y350457D01*
X683848Y351060D01*
X684001Y351695D01*
X684039Y352346D01*
X684001Y352998D01*
X683848Y353633D01*
X683598Y354236D01*
X683257Y354793D01*
X682833Y355290D01*
X682336Y355714D01*
X681779Y356055D01*
X681176Y356305D01*
X680541Y356458D01*
X679890Y356509D01*
X679883Y356508D01*
Y369838D01*
X679890Y369838D01*
X680541Y369889D01*
X681176Y370041D01*
X681779Y370291D01*
X682336Y370633D01*
X682833Y371057D01*
X683257Y371553D01*
X683598Y372110D01*
X683848Y372714D01*
X684001Y373349D01*
X684039Y374000D01*
X684001Y374651D01*
X683848Y375286D01*
X683598Y375890D01*
X683257Y376447D01*
X682833Y376943D01*
X682336Y377367D01*
X681779Y377709D01*
X681176Y377959D01*
X680541Y378111D01*
X679890Y378162D01*
X679883Y378162D01*
Y390000D01*
G37*
G36*
X671500Y267000D02*Y284500D01*
X666104Y289896D01*
Y348185D01*
X666110Y348184D01*
X666761Y348235D01*
X667396Y348388D01*
X668000Y348638D01*
X668557Y348979D01*
X669054Y349403D01*
X669478Y349900D01*
X669819Y350457D01*
X670069Y351060D01*
X670221Y351695D01*
X670260Y352346D01*
X670221Y352998D01*
X670069Y353633D01*
X669819Y354236D01*
X669478Y354793D01*
X669054Y355290D01*
X668557Y355714D01*
X668000Y356055D01*
X667396Y356305D01*
X666761Y356458D01*
X666110Y356509D01*
X666104Y356508D01*
Y369838D01*
X666110Y369838D01*
X666761Y369889D01*
X667396Y370041D01*
X668000Y370291D01*
X668557Y370633D01*
X669054Y371057D01*
X669478Y371553D01*
X669819Y372110D01*
X670069Y372714D01*
X670221Y373349D01*
X670260Y374000D01*
X670221Y374651D01*
X670069Y375286D01*
X669819Y375890D01*
X669478Y376447D01*
X669054Y376943D01*
X668557Y377367D01*
X668000Y377709D01*
X667396Y377959D01*
X666761Y378111D01*
X666110Y378162D01*
X666104Y378162D01*
Y390000D01*
X679883D01*
Y378162D01*
X679239Y378111D01*
X678604Y377959D01*
X678000Y377709D01*
X677443Y377367D01*
X676946Y376943D01*
X676522Y376447D01*
X676181Y375890D01*
X675931Y375286D01*
X675779Y374651D01*
X675727Y374000D01*
X675779Y373349D01*
X675931Y372714D01*
X676181Y372110D01*
X676522Y371553D01*
X676946Y371057D01*
X677443Y370633D01*
X678000Y370291D01*
X678604Y370041D01*
X679239Y369889D01*
X679883Y369838D01*
Y356508D01*
X679239Y356458D01*
X678604Y356305D01*
X678000Y356055D01*
X677443Y355714D01*
X676946Y355290D01*
X676522Y354793D01*
X676181Y354236D01*
X675931Y353633D01*
X675779Y352998D01*
X675727Y352346D01*
X675779Y351695D01*
X675931Y351060D01*
X676181Y350457D01*
X676522Y349900D01*
X676946Y349403D01*
X677443Y348979D01*
X678000Y348638D01*
X678604Y348388D01*
X679239Y348235D01*
X679883Y348185D01*
Y267000D01*
X671500D01*
G37*
G36*
X666104Y289896D02*X662500Y293500D01*
Y344000D01*
X646496D01*
Y348993D01*
X646500Y348992D01*
X646892Y349023D01*
X647275Y349115D01*
X647638Y349266D01*
X647974Y349471D01*
X648273Y349727D01*
X648529Y350026D01*
X648734Y350362D01*
X648885Y350725D01*
X648977Y351108D01*
X649000Y351500D01*
X648977Y351892D01*
X648885Y352275D01*
X648734Y352638D01*
X648529Y352974D01*
X648273Y353273D01*
X647974Y353529D01*
X647638Y353734D01*
X647275Y353885D01*
X646892Y353977D01*
X646500Y354008D01*
X646496Y354007D01*
Y360251D01*
X652985Y360264D01*
X653215Y360319D01*
X653433Y360409D01*
X653634Y360533D01*
X653814Y360686D01*
X653967Y360866D01*
X654091Y361067D01*
X654181Y361285D01*
X654236Y361515D01*
X654250Y361750D01*
X654236Y368485D01*
X654181Y368715D01*
X654091Y368933D01*
X653967Y369134D01*
X653814Y369314D01*
X653634Y369467D01*
X653433Y369591D01*
X653215Y369681D01*
X652985Y369736D01*
X652750Y369750D01*
X646496Y369737D01*
Y390000D01*
X666104D01*
Y378162D01*
X665459Y378111D01*
X664824Y377959D01*
X664221Y377709D01*
X663664Y377367D01*
X663167Y376943D01*
X662743Y376447D01*
X662402Y375890D01*
X662152Y375286D01*
X661999Y374651D01*
X661948Y374000D01*
X661999Y373349D01*
X662152Y372714D01*
X662402Y372110D01*
X662743Y371553D01*
X663167Y371057D01*
X663664Y370633D01*
X664221Y370291D01*
X664824Y370041D01*
X665459Y369889D01*
X666104Y369838D01*
Y356508D01*
X665459Y356458D01*
X664824Y356305D01*
X664221Y356055D01*
X663664Y355714D01*
X663167Y355290D01*
X662743Y354793D01*
X662402Y354236D01*
X662152Y353633D01*
X661999Y352998D01*
X661948Y352346D01*
X661999Y351695D01*
X662152Y351060D01*
X662402Y350457D01*
X662743Y349900D01*
X663167Y349403D01*
X663664Y348979D01*
X664221Y348638D01*
X664824Y348388D01*
X665459Y348235D01*
X666104Y348185D01*
Y289896D01*
G37*
G36*
X646496Y344000D02*X639493D01*
Y360236D01*
X639500Y360235D01*
X640245Y360294D01*
X640972Y360469D01*
X641663Y360755D01*
X642301Y361145D01*
X642869Y361631D01*
X643355Y362199D01*
X643745Y362837D01*
X644031Y363528D01*
X644206Y364255D01*
X644250Y365000D01*
X644206Y365745D01*
X644031Y366472D01*
X643745Y367163D01*
X643355Y367801D01*
X642869Y368369D01*
X642301Y368855D01*
X641663Y369245D01*
X640972Y369531D01*
X640245Y369706D01*
X639500Y369765D01*
X639493Y369764D01*
Y390000D01*
X646496D01*
Y369737D01*
X646015Y369736D01*
X645785Y369681D01*
X645567Y369591D01*
X645366Y369467D01*
X645186Y369314D01*
X645033Y369134D01*
X644909Y368933D01*
X644819Y368715D01*
X644764Y368485D01*
X644750Y368250D01*
X644764Y361515D01*
X644819Y361285D01*
X644909Y361067D01*
X645033Y360866D01*
X645186Y360686D01*
X645366Y360533D01*
X645567Y360409D01*
X645785Y360319D01*
X646015Y360264D01*
X646250Y360250D01*
X646496Y360251D01*
Y354007D01*
X646108Y353977D01*
X645725Y353885D01*
X645362Y353734D01*
X645026Y353529D01*
X644727Y353273D01*
X644471Y352974D01*
X644266Y352638D01*
X644115Y352275D01*
X644023Y351892D01*
X643992Y351500D01*
X644023Y351108D01*
X644115Y350725D01*
X644266Y350362D01*
X644471Y350026D01*
X644727Y349727D01*
X645026Y349471D01*
X645362Y349266D01*
X645725Y349115D01*
X646108Y349023D01*
X646496Y348993D01*
Y344000D01*
G37*
G36*
X639493D02*X629493D01*
Y360236D01*
X629500Y360235D01*
X630245Y360294D01*
X630972Y360469D01*
X631663Y360755D01*
X632301Y361145D01*
X632869Y361631D01*
X633355Y362199D01*
X633745Y362837D01*
X634031Y363528D01*
X634206Y364255D01*
X634250Y365000D01*
X634206Y365745D01*
X634031Y366472D01*
X633745Y367163D01*
X633355Y367801D01*
X632869Y368369D01*
X632301Y368855D01*
X631663Y369245D01*
X630972Y369531D01*
X630245Y369706D01*
X629500Y369765D01*
X629493Y369764D01*
Y390000D01*
X639493D01*
Y369764D01*
X638755Y369706D01*
X638028Y369531D01*
X637337Y369245D01*
X636699Y368855D01*
X636131Y368369D01*
X635645Y367801D01*
X635255Y367163D01*
X634969Y366472D01*
X634794Y365745D01*
X634735Y365000D01*
X634794Y364255D01*
X634969Y363528D01*
X635255Y362837D01*
X635645Y362199D01*
X636131Y361631D01*
X636699Y361145D01*
X637337Y360755D01*
X638028Y360469D01*
X638755Y360294D01*
X639493Y360236D01*
Y344000D01*
G37*
G36*
X629493D02*X619493D01*
Y360236D01*
X619500Y360235D01*
X620245Y360294D01*
X620972Y360469D01*
X621663Y360755D01*
X622301Y361145D01*
X622869Y361631D01*
X623355Y362199D01*
X623745Y362837D01*
X624031Y363528D01*
X624206Y364255D01*
X624250Y365000D01*
X624206Y365745D01*
X624031Y366472D01*
X623745Y367163D01*
X623355Y367801D01*
X622869Y368369D01*
X622301Y368855D01*
X621663Y369245D01*
X620972Y369531D01*
X620245Y369706D01*
X619500Y369765D01*
X619493Y369764D01*
Y390000D01*
X629493D01*
Y369764D01*
X628755Y369706D01*
X628028Y369531D01*
X627337Y369245D01*
X626699Y368855D01*
X626131Y368369D01*
X625645Y367801D01*
X625255Y367163D01*
X624969Y366472D01*
X624794Y365745D01*
X624735Y365000D01*
X624794Y364255D01*
X624969Y363528D01*
X625255Y362837D01*
X625645Y362199D01*
X626131Y361631D01*
X626699Y361145D01*
X627337Y360755D01*
X628028Y360469D01*
X628755Y360294D01*
X629493Y360236D01*
Y344000D01*
G37*
G36*
X619493D02*X609493D01*
Y360236D01*
X609500Y360235D01*
X610245Y360294D01*
X610972Y360469D01*
X611663Y360755D01*
X612301Y361145D01*
X612869Y361631D01*
X613355Y362199D01*
X613745Y362837D01*
X614031Y363528D01*
X614206Y364255D01*
X614250Y365000D01*
X614206Y365745D01*
X614031Y366472D01*
X613745Y367163D01*
X613355Y367801D01*
X612869Y368369D01*
X612301Y368855D01*
X611663Y369245D01*
X610972Y369531D01*
X610245Y369706D01*
X609500Y369765D01*
X609493Y369764D01*
Y390000D01*
X619493D01*
Y369764D01*
X618755Y369706D01*
X618028Y369531D01*
X617337Y369245D01*
X616699Y368855D01*
X616131Y368369D01*
X615645Y367801D01*
X615255Y367163D01*
X614969Y366472D01*
X614794Y365745D01*
X614735Y365000D01*
X614794Y364255D01*
X614969Y363528D01*
X615255Y362837D01*
X615645Y362199D01*
X616131Y361631D01*
X616699Y361145D01*
X617337Y360755D01*
X618028Y360469D01*
X618755Y360294D01*
X619493Y360236D01*
Y344000D01*
G37*
G36*
X609493D02*X599500D01*
Y323500D01*
X599493D01*
Y360236D01*
X599500Y360235D01*
X600245Y360294D01*
X600972Y360469D01*
X601663Y360755D01*
X602301Y361145D01*
X602869Y361631D01*
X603355Y362199D01*
X603745Y362837D01*
X604031Y363528D01*
X604206Y364255D01*
X604250Y365000D01*
X604206Y365745D01*
X604031Y366472D01*
X603745Y367163D01*
X603355Y367801D01*
X602869Y368369D01*
X602301Y368855D01*
X601663Y369245D01*
X600972Y369531D01*
X600245Y369706D01*
X599500Y369765D01*
X599493Y369764D01*
Y390000D01*
X609493D01*
Y369764D01*
X608755Y369706D01*
X608028Y369531D01*
X607337Y369245D01*
X606699Y368855D01*
X606131Y368369D01*
X605645Y367801D01*
X605255Y367163D01*
X604969Y366472D01*
X604794Y365745D01*
X604735Y365000D01*
X604794Y364255D01*
X604969Y363528D01*
X605255Y362837D01*
X605645Y362199D01*
X606131Y361631D01*
X606699Y361145D01*
X607337Y360755D01*
X608028Y360469D01*
X608755Y360294D01*
X609493Y360236D01*
Y344000D01*
G37*
G36*
X599493Y323500D02*X587997D01*
Y337315D01*
X588029Y337347D01*
X588096Y337404D01*
X588326Y337673D01*
X588326Y337673D01*
X588511Y337975D01*
X588646Y338303D01*
X588729Y338647D01*
X588757Y339000D01*
X588750Y339088D01*
Y347568D01*
X589529Y348347D01*
X589596Y348404D01*
X589826Y348673D01*
X589826Y348673D01*
X590011Y348975D01*
X590013Y348980D01*
X590038Y348938D01*
X590223Y348723D01*
X590438Y348538D01*
X590680Y348390D01*
X590942Y348282D01*
X591217Y348216D01*
X591500Y348193D01*
X591783Y348216D01*
X592058Y348282D01*
X592320Y348390D01*
X592562Y348538D01*
X592777Y348723D01*
X592962Y348938D01*
X593110Y349180D01*
X593218Y349442D01*
X593284Y349717D01*
X593301Y350000D01*
X593291Y350172D01*
X593526Y349971D01*
X593862Y349766D01*
X594225Y349615D01*
X594608Y349523D01*
X595000Y349492D01*
X595392Y349523D01*
X595775Y349615D01*
X596138Y349766D01*
X596474Y349971D01*
X596773Y350227D01*
X597029Y350526D01*
X597234Y350862D01*
X597385Y351225D01*
X597477Y351608D01*
X597500Y352000D01*
X597477Y352392D01*
X597385Y352775D01*
X597234Y353138D01*
X597029Y353474D01*
X596773Y353773D01*
X596474Y354029D01*
X596138Y354234D01*
X595775Y354385D01*
X595392Y354477D01*
X595000Y354508D01*
X594608Y354477D01*
X594225Y354385D01*
X593862Y354234D01*
X593526Y354029D01*
X593227Y353773D01*
X592971Y353474D01*
X592766Y353138D01*
X592615Y352775D01*
X592523Y352392D01*
X592492Y352000D01*
X592523Y351608D01*
X592558Y351464D01*
X592320Y351610D01*
X592058Y351718D01*
X591783Y351784D01*
X591500Y351807D01*
X591217Y351784D01*
X590942Y351718D01*
X590680Y351610D01*
X590438Y351462D01*
X590250Y351301D01*
Y354412D01*
X590257Y354500D01*
X590229Y354853D01*
X590146Y355197D01*
X590107Y355293D01*
X590011Y355525D01*
X589896Y355712D01*
X589826Y355827D01*
X589826Y355827D01*
X589596Y356096D01*
X589529Y356153D01*
X588431Y357251D01*
X588558Y357282D01*
X588820Y357390D01*
X589062Y357538D01*
X589277Y357723D01*
X589462Y357938D01*
X589610Y358180D01*
X589718Y358442D01*
X589784Y358717D01*
X589801Y359000D01*
X589784Y359283D01*
X589718Y359558D01*
X589610Y359820D01*
X589462Y360062D01*
X589277Y360277D01*
X589062Y360462D01*
X588820Y360610D01*
X588558Y360718D01*
X588283Y360784D01*
X588000Y360807D01*
X587997Y360806D01*
Y361194D01*
X588000Y361193D01*
X588283Y361216D01*
X588558Y361282D01*
X588820Y361390D01*
X589062Y361538D01*
X589277Y361723D01*
X589462Y361938D01*
X589610Y362180D01*
X589718Y362442D01*
X589784Y362717D01*
X589801Y363000D01*
X589784Y363283D01*
X589718Y363558D01*
X589610Y363820D01*
X589462Y364062D01*
X589277Y364277D01*
X589062Y364462D01*
X588820Y364610D01*
X588558Y364718D01*
X588283Y364784D01*
X588000Y364807D01*
X587997Y364806D01*
Y390000D01*
X599493D01*
Y369764D01*
X598755Y369706D01*
X598028Y369531D01*
X597337Y369245D01*
X596699Y368855D01*
X596131Y368369D01*
X595645Y367801D01*
X595255Y367163D01*
X594969Y366472D01*
X594794Y365745D01*
X594735Y365000D01*
X594794Y364255D01*
X594969Y363528D01*
X595255Y362837D01*
X595645Y362199D01*
X596131Y361631D01*
X596699Y361145D01*
X597337Y360755D01*
X598028Y360469D01*
X598755Y360294D01*
X599493Y360236D01*
Y323500D01*
G37*
G36*
X587997Y360806D02*X587717Y360784D01*
X587442Y360718D01*
X587180Y360610D01*
X586938Y360462D01*
X586723Y360277D01*
X586538Y360062D01*
X586390Y359820D01*
X586282Y359558D01*
X586239Y359380D01*
X586025Y359511D01*
X586000Y359521D01*
Y371252D01*
X586257Y371553D01*
X586598Y372110D01*
X586848Y372714D01*
X587001Y373349D01*
X587039Y374000D01*
X587001Y374651D01*
X586848Y375286D01*
X586598Y375890D01*
X586257Y376447D01*
X586000Y376748D01*
Y390000D01*
X587997D01*
Y364806D01*
X587717Y364784D01*
X587442Y364718D01*
X587180Y364610D01*
X586938Y364462D01*
X586723Y364277D01*
X586538Y364062D01*
X586390Y363820D01*
X586282Y363558D01*
X586216Y363283D01*
X586193Y363000D01*
X586216Y362717D01*
X586282Y362442D01*
X586390Y362180D01*
X586538Y361938D01*
X586723Y361723D01*
X586938Y361538D01*
X587180Y361390D01*
X587442Y361282D01*
X587717Y361216D01*
X587997Y361194D01*
Y360806D01*
G37*
G36*
Y323500D02*X586750D01*
X586720Y324010D01*
X586600Y324507D01*
X586405Y324980D01*
X586137Y325416D01*
X586000Y325577D01*
Y335318D01*
X587997Y337315D01*
Y323500D01*
G37*
G36*
X651500Y268000D02*X701500D01*
Y250000D01*
X675500D01*
X666500Y241000D01*
X651500D01*
Y268000D01*
G37*
G36*
X610500D02*Y241000D01*
X595500D01*
X586500Y250000D01*
X494000D01*
Y268000D01*
X610500D01*
G37*
G36*
X701500Y249000D02*X701000Y230000D01*
X683000Y212000D01*
X494000D01*
Y249000D01*
X586000D01*
X595000Y240000D01*
X618500D01*
Y232500D01*
X619500Y231500D01*
X622500D01*
X623500Y232500D01*
Y236000D01*
X641500D01*
X645500Y240000D01*
X667000D01*
X676000Y249000D01*
X701500D01*
G37*
G36*
X611500Y256000D02*X626000D01*
Y244500D01*
X627000Y243500D01*
X630000D01*
X631000Y244500D01*
Y256000D01*
X645500D01*
Y241500D01*
X641000Y237000D01*
X623500D01*
Y240000D01*
X622500Y241000D01*
X611500D01*
Y256000D01*
G37*
G54D12*X593500Y277500D02*Y272854D01*
G54D13*X621000Y234000D02*X629366D01*
X631000Y232366D01*
X621000Y238500D02*X628866D01*
X631000Y240634D01*
G54D12*X628500Y250646D02*Y246000D01*
X653500Y277500D02*Y272854D01*
X648500Y250646D02*Y246000D01*
G54D13*X663957Y245500D02*X662500Y244043D01*
X406500Y258000D02*X214500D01*
X217500Y251500D02*X420000D01*
X413000Y254500D02*X216000D01*
X426500Y248000D02*X219500D01*
X214500Y258000D02*X200000Y243500D01*
X210000Y244000D02*X217500Y251500D01*
X205000Y243500D02*X216000Y254500D01*
X219500Y248000D02*X215000Y243500D01*
X200000D02*Y231000D01*
X210000D02*Y244000D01*
X443500Y230000D02*X238500D01*
X437000Y226500D02*X224500D01*
X220000Y231000D01*
X238500Y230000D02*X225000Y243500D01*
X436000Y277500D02*X413000Y254500D01*
X571000Y270000D02*X491000D01*
X506000Y277000D02*X509500Y273500D01*
X570500D01*
X546059Y277000D02*X551441D01*
X491000Y270000D02*X485000Y264000D01*
X464500D01*
X486000Y277000D02*X479000Y270000D01*
X465500D01*
X486000Y277000D02*X506000D01*
X489500Y236441D02*X506441D01*
X507500Y237500D01*
X489500Y251059D02*X496059D01*
X489500Y241559D02*Y245941D01*
X496059Y251059D02*X498000Y253000D01*
Y257000D01*
G54D14*X450000Y294500D02*X455500Y289000D01*
X450000Y299000D02*Y294500D01*
X461012Y302512D02*Y299000D01*
X456000Y311500D02*X455000Y312500D01*
X456000Y311500D02*X462500D01*
X445457Y309500D02*X452000D01*
X455000Y312500D02*X452000Y309500D01*
X461012Y302512D02*X467500Y309000D01*
G54D13*X449400Y313600D02*X449500Y313500D01*
X449400Y316800D02*Y313600D01*
G54D14*X455000Y320000D02*Y312500D01*
G54D13*X446000Y217500D02*X437000Y226500D01*
X456000Y217500D02*X443500Y230000D01*
X456000Y277500D02*X426500Y248000D01*
X446000Y277500D02*X420000Y251500D01*
X426000Y277500D02*X406500Y258000D01*
X418500Y283500D02*X415500Y286500D01*
G54D14*X455500Y289000D02*X482500D01*
X476500Y299100D02*Y294000D01*
X471000Y296100D02*Y294000D01*
Y296100D02*X474000Y299100D01*
X473000Y304941D02*Y299100D01*
G54D13*X498500Y283500D02*X418500D01*
G54D14*X490200Y299100D02*X491000Y299900D01*
X485000Y294000D02*X492500D01*
X486500Y306543D02*X486043Y307000D01*
X486500Y306543D02*Y288900D01*
X478500Y306543D02*Y299000D01*
X478957Y307000D02*X478500Y306543D01*
X474030Y299100D02*X482800D01*
G54D13*X490200Y288900D02*X492100D01*
X494500Y286500D01*
X505700Y290700D02*X498500Y283500D01*
X505700Y309900D02*Y290700D01*
G54D14*X491000Y310500D02*Y299900D01*
X474941Y312000D02*X489500D01*
X474941D02*X473000Y310059D01*
X491000Y310500D02*X489500Y312000D01*
X495957Y315500D02*X491500Y319957D01*
X483370Y315500D02*X491000D01*
X496500Y310000D01*
X483087Y327043D02*X499398D01*
X478500Y334500D02*X491000D01*
X496000Y332000D02*Y327086D01*
X496043Y327043D01*
X476500Y322370D02*Y332500D01*
X478500Y334500D01*
X474000Y336000D02*Y362500D01*
X476500Y365000D01*
X470500Y337000D02*Y361000D01*
X466500Y365000D01*
X482000Y328130D02*X483087Y327043D01*
X483370Y315500D02*X476500Y322370D01*
X483000Y323000D02*Y327000D01*
X483065Y327065D01*
X492000Y365000D02*Y358500D01*
X501512Y348988D01*
Y340000D01*
X502000Y313500D02*X500000Y315500D01*
X495957D01*
X496500Y310000D02*X498000D01*
X499441Y327000D02*Y321241D01*
X504559Y327000D02*Y321241D01*
X505700Y320100D01*
X499441Y321241D02*X498300Y320100D01*
X504559Y327000D02*X508000Y330441D01*
Y332000D01*
Y337559D02*X507941Y337500D01*
X502000D01*
X508000Y332000D02*X513500D01*
X502000Y315500D02*Y309900D01*
G54D15*X576000Y325154D02*Y322500D01*
X574425Y325154D02*Y323925D01*
G54D16*X572063Y325154D02*X570154D01*
X568500Y323500D01*
G54D15*X574425Y323925D02*X573500Y323000D01*
Y320500D01*
G54D13*X562000Y316000D02*X564059D01*
G54D15*X577575Y325154D02*Y323925D01*
G54D16*X579937Y325154D02*X581846D01*
X583000Y328500D02*X569000D01*
G54D15*X577575Y323925D02*X578500Y323000D01*
Y320500D01*
G54D16*X596000Y320000D02*X592059D01*
X586941D02*Y320059D01*
X581846Y325154D02*X586941Y320059D01*
G54D13*X578500Y320500D02*Y318000D01*
X573500Y320500D02*Y315500D01*
X578500Y318000D02*X583500Y313000D01*
G54D16*X579937Y331846D02*X582500Y334409D01*
Y336000D01*
G54D14*X583500D01*
X586500Y339000D01*
Y348500D01*
G54D13*X582500Y341559D02*Y344500D01*
G54D14*X586500Y348500D02*X588000Y350000D01*
Y354500D01*
X585000Y357500D01*
X561000D01*
X569110Y352346D02*Y374000D01*
G54D13*X571000Y346000D02*X573500Y348500D01*
G54D14*X554500Y351000D02*X561000Y357500D01*
X554500Y351000D02*X540000D01*
X535500Y346500D01*
G54D13*X575500Y295059D02*Y299441D01*
X556559Y290441D02*X548000Y299000D01*
X575500Y285000D02*Y289941D01*
X583500Y282500D02*X571000Y270000D01*
X579500Y282500D02*X570500Y273500D01*
X540941Y277000D02*X532500Y285441D01*
Y288000D01*
X556559Y277000D02*Y290441D01*
X564059Y316000D02*X575500Y304559D01*
X548000Y299000D02*Y329780D01*
X573500Y315500D02*X579500Y309500D01*
Y282500D01*
X583500Y313000D02*Y282500D01*
G54D14*X528500Y329780D02*X554500D01*
X569000Y328500D02*X566059D01*
X565559Y328000D01*
G54D16*X568654Y331846D02*X568000Y332500D01*
X572063Y331846D02*X568654D01*
G54D14*X560441Y328000D02*Y331441D01*
X563500Y334500D01*
X568000Y332500D02*X566000Y334500D01*
X563500D01*
X559000Y339000D02*X563500Y334500D01*
X535500Y346500D02*Y329780D01*
X554500Y339000D02*X559000D01*
G54D15*X577575Y331846D02*Y335866D01*
X577000Y336441D01*
G54D13*Y341559D02*Y345000D01*
G54D15*X576000Y331846D02*Y328500D01*
G54D13*X577000Y345000D02*X573500Y348500D01*
X582500Y344500D02*X578000Y349000D01*
G54D15*X574425Y331846D02*Y333016D01*
X571000Y336441D01*
G54D13*Y341559D02*Y346000D01*
G54D14*X459200Y324200D02*X455000Y320000D01*
X459600Y316800D02*X464000Y321200D01*
X474500Y312000D02*Y313059D01*
X472559Y318500D01*
G54D13*X376500Y320441D02*Y315059D01*
X372280Y329780D02*X376500Y325559D01*
Y309941D02*Y306500D01*
X354500Y329780D02*X372280D01*
X321500Y328441D02*X316559Y323500D01*
X313500D01*
G54D14*X442000Y326000D02*Y320043D01*
X445457Y309500D02*X442000Y312957D01*
Y320043D02*X442457Y320500D01*
X449500D01*
X449400Y324200D02*X447870Y325730D01*
Y333000D01*
X447012D01*
X440512Y339500D01*
X429488D02*Y342488D01*
X436000Y349000D01*
X445500D01*
X448500Y346000D01*
Y341000D01*
X453559D02*X458441D01*
X466000Y345500D02*X459500D01*
X458500Y344500D01*
Y341500D01*
X467000Y344500D02*X466000Y345500D01*
X467000Y338000D02*Y344500D01*
X463559Y341000D02*Y339559D01*
X459130Y335130D01*
X451000Y365000D02*Y353500D01*
X459000Y345500D01*
X441000Y365000D02*Y349000D01*
X464000Y321200D02*Y335000D01*
X467000Y338000D01*
X467500Y309000D02*Y334000D01*
X470500Y337000D01*
X472559Y334559D02*X474000Y336000D01*
X472559Y318500D02*Y334559D01*
X459130Y324130D02*Y335130D01*
G54D13*X339000Y365000D02*Y361059D01*
X321500Y343559D01*
Y333559D02*Y338441D01*
G54D16*X275000Y383500D02*X310500D01*
X329000Y365000D02*X310500Y383500D01*
X218000Y365000D02*Y351500D01*
X205000Y338500D01*
X260000Y356000D02*X231000D01*
X213500Y338500D01*
X231500Y351000D02*X221000Y340500D01*
X231500Y351000D02*X262000D01*
X221000Y340500D02*Y314000D01*
X213500Y338500D02*Y314000D01*
X205000Y338500D02*Y314000D01*
X260000Y356000D02*X266500Y362500D01*
X262000Y351000D02*X273500Y362500D01*
Y365000D01*
X266500Y362500D02*Y375000D01*
X275000Y383500D01*
G54D13*X278500Y310000D02*Y380000D01*
X246000Y277500D02*X278500Y310000D01*
G54D17*X157500Y226370D02*X158210Y227080D01*
X160340D01*
X161050Y226370D01*
Y224950D01*
X157500Y221400D02*X161050Y224950D01*
X157500Y221400D02*X161050D01*
X162754Y222110D02*X163464Y221400D01*
X162754Y226370D02*Y222110D01*
Y226370D02*X163464Y227080D01*
X164884D01*
X165594Y226370D01*
Y222110D01*
X164884Y221400D02*X165594Y222110D01*
X163464Y221400D02*X164884D01*
X162754Y222820D02*X165594Y225660D01*
X167298Y225944D02*X168434Y227080D01*
Y221400D01*
X167298D02*X169428D01*
X171842D02*X173972Y224240D01*
Y226370D02*Y224240D01*
X173262Y227080D02*X173972Y226370D01*
X171842Y227080D02*X173262D01*
X171132Y226370D02*X171842Y227080D01*
X171132Y226370D02*Y224950D01*
X171842Y224240D01*
X173972D01*
X175676Y222110D02*X176386Y221400D01*
X175676Y226370D02*Y222110D01*
Y226370D02*X176386Y227080D01*
X177806D01*
X178516Y226370D01*
Y222110D01*
X177806Y221400D02*X178516Y222110D01*
X176386Y221400D02*X177806D01*
X175676Y222820D02*X178516Y225660D01*
X180220Y225944D02*X181356Y227080D01*
Y221400D01*
X180220D02*X182350D01*
X184054Y225944D02*X185190Y227080D01*
Y221400D01*
X184054D02*X186184D01*
X187888Y227080D02*X190728D01*
X187888D02*Y224240D01*
X188598Y224950D01*
X190018D01*
X190728Y224240D01*
Y222110D01*
X190018Y221400D02*X190728Y222110D01*
X188598Y221400D02*X190018D01*
X187888Y222110D02*X188598Y221400D01*
G54D11*G36*
X646250Y368250D02*Y361750D01*
X652750D01*
Y368250D01*
X646250D01*
G37*
G54D18*X639500Y365000D03*
G54D19*X666110Y374000D03*
X679890D03*
X666110Y352346D03*
X679890D03*
G54D18*X629500Y365000D03*
X619500D03*
G54D20*X701500Y380000D03*
G54D21*X631000Y290500D03*
Y286760D03*
Y294240D03*
X636709Y290500D03*
X625291D03*
G54D20*X701500Y212000D03*
G54D18*X609500Y365000D03*
G54D11*G36*
X525250Y368250D02*Y361750D01*
X531750D01*
Y368250D01*
X525250D01*
G37*
G54D18*X518500Y365000D03*
G54D11*G36*
X550750Y368250D02*Y361750D01*
X557250D01*
Y368250D01*
X550750D01*
G37*
G54D18*X544000Y365000D03*
X599500D03*
G54D19*X569110Y374000D03*
X582890D03*
Y352346D03*
X569110D03*
G54D22*X554500Y329780D03*
Y312063D03*
X528500D03*
X554500Y302220D03*
G54D23*X543831Y290134D03*
G54D22*X528500Y302220D03*
G54D23*X517831Y290134D03*
G54D22*X554500Y319937D03*
G54D23*X543831Y341866D03*
G54D22*X528500Y329780D03*
Y319937D03*
G54D23*X517831Y341866D03*
G54D11*G36*
X243000Y220500D02*Y214500D01*
X249000D01*
Y220500D01*
X243000D01*
G37*
G54D24*X256000Y217500D03*
X266000D03*
X276000D03*
X286000D03*
X296000D03*
X306000D03*
X316000D03*
X326000D03*
X336000D03*
X346000D03*
X356000D03*
X366000D03*
X376000D03*
X386000D03*
X396000D03*
X406000D03*
X416000D03*
X406000Y277500D03*
X396000D03*
X386000D03*
X376000D03*
X366000D03*
X356000D03*
X346000D03*
X336000D03*
X326000D03*
X316000D03*
X306000D03*
X296000D03*
X286000D03*
X276000D03*
X266000D03*
X256000D03*
X246000D03*
X426000Y217500D03*
X436000D03*
X446000D03*
X456000D03*
X466000D03*
X476000D03*
Y277500D03*
X466000D03*
X456000D03*
X446000D03*
X436000D03*
X426000D03*
X416000D03*
G54D22*X410000Y329780D03*
G54D23*X399331Y341866D03*
G54D22*X410000Y319937D03*
Y312063D03*
Y302220D03*
G54D23*X399331Y290134D03*
G54D11*G36*
X447750Y368250D02*Y361750D01*
X454250D01*
Y368250D01*
X447750D01*
G37*
G54D18*X441000Y365000D03*
G54D11*G36*
X421250Y368250D02*Y361750D01*
X427750D01*
Y368250D01*
X421250D01*
G37*
G54D18*X414500Y365000D03*
G54D11*G36*
X473250Y368250D02*Y361750D01*
X479750D01*
Y368250D01*
X473250D01*
G37*
G54D18*X466500Y365000D03*
G54D11*G36*
X498750Y368250D02*Y361750D01*
X505250D01*
Y368250D01*
X498750D01*
G37*
G54D18*X492000Y365000D03*
X404500D03*
X394500D03*
X384500D03*
G54D11*G36*
X365750Y368250D02*Y361750D01*
X372250D01*
Y368250D01*
X365750D01*
G37*
G54D18*X359000Y365000D03*
X349000D03*
X339000D03*
X329000D03*
G54D22*X354500Y329780D03*
G54D23*X343831Y341866D03*
G54D11*G36*
X310250Y368250D02*Y361750D01*
X316750D01*
Y368250D01*
X310250D01*
G37*
G54D18*X303500Y365000D03*
X293500D03*
X283500D03*
X273500D03*
G54D11*G36*
X254750Y368250D02*Y361750D01*
X261250D01*
Y368250D01*
X254750D01*
G37*
G54D18*X248000Y365000D03*
X238000D03*
X228000D03*
X218000D03*
G54D11*G36*
X199250Y368250D02*Y361750D01*
X205750D01*
Y368250D01*
X199250D01*
G37*
G54D18*X192500Y365000D03*
X182500D03*
X172500D03*
X162500D03*
G54D20*X141000Y380000D03*
G54D22*X354500Y319937D03*
X299000D03*
Y312063D03*
Y302220D03*
G54D23*X288331Y290134D03*
G54D22*X354500Y312063D03*
Y302220D03*
G54D23*X343831Y290134D03*
G54D22*X299000Y329780D03*
G54D23*X288331Y341866D03*
G54D22*X243500Y329780D03*
Y319937D03*
Y312063D03*
Y302220D03*
X188000D03*
G54D23*X232831Y341866D03*
G54D22*X188000Y329780D03*
Y319937D03*
Y312063D03*
G54D23*X177331Y341866D03*
X232831Y290134D03*
X177331D03*
G54D20*X141000Y212000D03*
G54D25*X593500Y264476D02*Y249791D01*
G54D26*Y251051D02*Y250035D01*
G54D25*X598500Y264476D02*Y249791D01*
G54D26*Y251051D02*Y250035D01*
G54D27*X594823Y256803D02*Y254646D01*
Y263276D02*Y261118D01*
G54D25*X603500Y264476D02*Y249791D01*
G54D26*Y251051D02*Y250035D01*
G54D25*X608500Y264476D02*Y249791D01*
G54D26*Y251051D02*Y250035D01*
G54D28*X599681Y258295D02*X602319D01*
G54D27*X598941Y256803D02*Y254646D01*
Y263276D02*Y261118D01*
X603059Y256803D02*Y254646D01*
G54D25*X628500Y273709D02*Y259024D01*
G54D26*Y273465D02*Y272449D01*
G54D25*X623500Y273709D02*Y259024D01*
G54D26*Y273465D02*Y272449D01*
G54D25*X618500Y273709D02*Y259024D01*
G54D26*Y273465D02*Y272449D01*
G54D25*X613500Y273709D02*Y259024D01*
G54D27*X614823Y268854D02*Y266697D01*
Y262382D02*Y260224D01*
X627177Y268854D02*Y266697D01*
Y262382D02*Y260224D01*
G54D28*X619681Y265205D02*X622319D01*
G54D27*X623059Y268854D02*Y266697D01*
Y262382D02*Y260224D01*
X618941Y268854D02*Y266697D01*
Y262382D02*Y260224D01*
G54D26*X613500Y273465D02*Y272449D01*
G54D25*X608500Y273752D02*Y271146D01*
G54D27*X603059Y263276D02*Y261118D01*
X607177Y256803D02*Y254646D01*
Y263276D02*Y261118D01*
G54D29*X544500Y262492D02*Y256193D01*
X576000Y262492D02*Y256193D01*
Y242807D02*Y236508D01*
G54D30*X607107Y244043D02*X607893D01*
X607107Y236957D02*X607893D01*
X599107Y244043D02*X599893D01*
X599107Y236957D02*X599893D01*
G54D29*X513000Y262492D02*Y256193D01*
Y242807D02*Y236508D01*
X544500Y242807D02*Y236508D01*
G54D31*X489008Y245941D02*X489992D01*
X489008Y251059D02*X489992D01*
X489008Y241559D02*X489992D01*
X489008Y236441D02*X489992D01*
G54D32*X498300Y310700D02*Y309100D01*
X502000Y310700D02*Y309100D01*
X505700Y310700D02*Y309100D01*
G54D33*X429488Y344421D02*Y334579D01*
G54D30*X441607Y312957D02*X442393D01*
X441607Y320043D02*X442393D01*
G54D32*X448600Y316800D02*X450200D01*
X448600Y324200D02*X450200D01*
X448600Y320500D02*X450200D01*
X458800Y316800D02*X460400D01*
X458800Y324200D02*X460400D01*
G54D34*X481094Y316870D02*X482906D01*
G54D31*X467441Y315492D02*Y314508D01*
X472559Y315492D02*Y314508D01*
G54D32*X505700Y320900D02*Y319300D01*
X498300Y320900D02*Y319300D01*
G54D30*X491107Y319957D02*X491893D01*
G54D31*X448441Y341492D02*Y340508D01*
G54D34*X447870Y333906D02*Y332094D01*
G54D33*X449988Y303921D02*Y294079D01*
X440512Y344421D02*Y334579D01*
G54D31*X453559Y341492D02*Y340508D01*
X458441Y341492D02*Y340508D01*
X463559Y341492D02*Y340508D01*
G54D34*X459130Y333906D02*Y332094D01*
G54D33*X461012Y303921D02*Y294079D01*
G54D34*X473094Y287870D02*X474906D01*
X473094Y299130D02*X474906D01*
G54D31*X472508Y310059D02*X473492D01*
G54D34*X481094Y328130D02*X482906D01*
G54D31*X472508Y304941D02*X473492D01*
G54D30*X478957Y307393D02*Y306607D01*
X486043Y307393D02*Y306607D01*
G54D32*X482800Y289700D02*Y288100D01*
X486500Y289700D02*Y288100D01*
X490200Y289700D02*Y288100D01*
Y299900D02*Y298300D01*
X482800Y299900D02*Y298300D01*
G54D33*X490488Y344921D02*Y335079D01*
X501512Y344921D02*Y335079D01*
G54D31*X504559Y327492D02*Y326508D01*
X499441Y327492D02*Y326508D01*
X507508Y337559D02*X508492D01*
X507508Y332441D02*X508492D01*
G54D30*X491107Y327043D02*X491893D01*
G54D35*X572850Y328500D02*X579150D01*
G54D31*X560441Y328492D02*Y327508D01*
X565559Y328492D02*Y327508D01*
X586941Y320492D02*Y319508D01*
X592059Y320492D02*Y319508D01*
X582008Y336441D02*X582992D01*
X582008Y341559D02*X582992D01*
X570508Y336441D02*X571492D01*
X570508Y341559D02*X571492D01*
X576508Y336441D02*X577492D01*
X576508Y341559D02*X577492D01*
X376008Y315059D02*X376992D01*
X376008Y309941D02*X376992D01*
X376008Y320441D02*X376992D01*
X376008Y325559D02*X376992D01*
X321008Y333559D02*X321992D01*
X321008Y338441D02*X321992D01*
X321008Y328441D02*X321992D01*
X321008Y343559D02*X321992D01*
G54D25*X593500Y273752D02*Y271146D01*
G54D36*Y273858D02*Y271850D01*
G54D25*X598500Y273752D02*Y271146D01*
G54D36*Y273858D02*Y271850D01*
G54D25*X603500Y273752D02*Y271146D01*
G54D36*Y273858D02*Y271850D01*
X608500Y273858D02*Y271850D01*
G54D31*X546059Y277492D02*Y276508D01*
X551441Y277492D02*Y276508D01*
X556559Y277492D02*Y276508D01*
X540941Y277492D02*Y276508D01*
G54D37*X625882Y240634D02*X636118D01*
X625882Y232366D02*X636118D01*
G54D25*X628500Y252354D02*Y249748D01*
G54D36*Y251650D02*Y249642D01*
G54D25*X638500Y252354D02*Y249748D01*
G54D36*Y251650D02*Y249642D01*
G54D25*X633500Y252354D02*Y249748D01*
G54D36*Y251650D02*Y249642D01*
G54D25*X623500Y252354D02*Y249748D01*
G54D36*Y251650D02*Y249642D01*
G54D25*X618500Y252354D02*Y249748D01*
G54D36*Y251650D02*Y249642D01*
G54D25*X613500Y252354D02*Y249748D01*
G54D36*Y251650D02*Y249642D01*
G54D25*X658500Y264476D02*Y249791D01*
G54D27*X658941Y256803D02*Y254646D01*
Y263276D02*Y261118D01*
G54D25*X668500Y264476D02*Y249791D01*
G54D26*Y251051D02*Y250035D01*
G54D28*X659681Y258295D02*X662319D01*
G54D27*X654823Y263276D02*Y261118D01*
X663059Y263276D02*Y261118D01*
X667177Y256803D02*Y254646D01*
Y263276D02*Y261118D01*
G54D25*X653500Y264476D02*Y249791D01*
G54D26*Y251051D02*Y250035D01*
G54D27*X654823Y256803D02*Y254646D01*
G54D30*X654107Y244043D02*X654893D01*
X654107Y236957D02*X654893D01*
G54D26*X658500Y251051D02*Y250035D01*
G54D25*X663500Y264476D02*Y249791D01*
G54D26*Y251051D02*Y250035D01*
G54D27*X663059Y256803D02*Y254646D01*
G54D30*X662107Y244043D02*X662893D01*
X662107Y236957D02*X662893D01*
G54D25*X648500Y252354D02*Y249748D01*
G54D36*Y251650D02*Y249642D01*
G54D25*X643500Y252354D02*Y249748D01*
G54D36*Y251650D02*Y249642D01*
G54D25*X653500Y273752D02*Y271146D01*
G54D36*Y273858D02*Y271850D01*
G54D25*X658500Y273752D02*Y271146D01*
G54D36*Y273858D02*Y271850D01*
G54D25*X663500Y273752D02*Y271146D01*
G54D36*Y273858D02*Y271850D01*
G54D25*X668500Y273752D02*Y271146D01*
G54D36*Y273858D02*Y271850D01*
G54D25*X648500Y273709D02*Y259024D01*
G54D27*X647177Y268854D02*Y266697D01*
Y262382D02*Y260224D01*
G54D25*X638500Y273709D02*Y259024D01*
G54D26*Y273465D02*Y272449D01*
G54D25*X633500Y273709D02*Y259024D01*
G54D26*Y273465D02*Y272449D01*
G54D27*X634823Y268854D02*Y266697D01*
Y262382D02*Y260224D01*
G54D28*X639681Y265205D02*X642319D01*
G54D27*X643059Y268854D02*Y266697D01*
Y262382D02*Y260224D01*
X638941Y268854D02*Y266697D01*
Y262382D02*Y260224D01*
G54D26*X648500Y273465D02*Y272449D01*
G54D25*X643500Y273709D02*Y259024D01*
G54D26*Y273465D02*Y272449D01*
G54D29*X686000Y262492D02*Y256193D01*
Y242807D02*Y236508D01*
G54D38*X610331Y310984D02*Y309016D01*
G54D31*X575008Y295059D02*X575992D01*
X575008Y289941D02*X575992D01*
X575008Y299441D02*X575992D01*
X575008Y304559D02*X575992D01*
G54D38*X651669Y310984D02*Y309016D01*
G54D39*X571768Y325154D02*X572358D01*
G54D40*X574425Y325646D02*Y324661D01*
X576000Y325646D02*Y324661D01*
X577575Y325646D02*Y324661D01*
G54D39*X579642Y325154D02*X580232D01*
X579642Y331846D02*X580232D01*
G54D40*X577575Y332339D02*Y331354D01*
X576000Y332339D02*Y331354D01*
X574425Y332339D02*Y331354D01*
G54D39*X571768Y331846D02*X572358D01*
G54D41*X628500Y246000D03*
X653500Y277500D03*
X648500Y246000D03*
X658000Y278000D03*
X649000Y277500D03*
X668000Y245500D03*
X680500Y244000D03*
Y237500D03*
X662500Y232000D03*
X655000D03*
X599500D03*
X607500D03*
X691500Y237500D03*
Y244000D03*
X686000Y231000D03*
X598000Y293500D03*
X569000Y297500D03*
X575500Y285000D03*
X621000Y234000D03*
Y238500D03*
X594000Y245500D03*
G54D42*X587000Y264500D03*
Y254500D03*
X583000Y259500D03*
G54D41*X562000Y316000D03*
X532500Y288000D03*
X593500Y277500D03*
X627000Y278000D03*
X616500Y280500D03*
Y290500D03*
X625000Y303000D03*
X622500Y306500D03*
X647500Y285500D03*
X637500Y303000D03*
X622500Y311000D03*
Y320000D03*
X627000Y325500D03*
G54D42*X596000Y320000D03*
G54D41*Y312500D03*
X570500Y244000D03*
X581500Y237500D03*
Y244000D03*
X576000Y231000D03*
X570500Y237500D03*
X539000Y244000D03*
Y237500D03*
X518500D03*
Y244000D03*
X513000Y231000D03*
X507500Y237500D03*
X550000D03*
X544500Y231000D03*
X550000Y244000D03*
X507500D03*
X449500Y313500D03*
G54D24*X462500Y311500D03*
X442000Y326000D03*
G54D42*X496000Y332000D03*
X246000Y338500D03*
X274000D03*
X263000D03*
G54D41*X422500Y331500D03*
X416000Y373500D03*
X313500Y323500D03*
G54D24*X513500Y332000D03*
G54D41*X569000Y328500D03*
G54D43*X576000Y322500D03*
G54D42*X568500Y323500D03*
G54D24*X563500Y334500D03*
X554500Y339000D03*
G54D41*X583000Y328500D03*
G54D42*X583500Y323500D03*
X596500Y333500D03*
X589000D03*
Y326000D03*
X596500D03*
G54D41*X573500Y348500D03*
X564500D03*
X578000Y349000D03*
G54D43*X591500Y350000D03*
G54D41*X646500Y351500D03*
X595000Y352000D03*
G54D43*X588000Y363000D03*
Y359000D03*
G54D24*X606000Y381500D03*
X600500Y386500D03*
X595000Y381500D03*
X589500Y386500D03*
G54D41*X360500Y373500D03*
X305000D03*
X249500D03*
X194000D03*
X278500Y380000D03*
X271000Y268000D03*
X281000D03*
X291000D03*
X301000D03*
G54D42*X492500Y294000D03*
X485000D03*
X476500D03*
X471000D03*
G54D41*X494500Y286500D03*
X415500D03*
G54D42*X483000Y323000D03*
G54D24*X502000Y315000D03*
X498000Y257000D03*
G54D41*X246000Y261500D03*
X429000Y254500D03*
G54D24*X498000Y264000D03*
G54D41*X463500Y243500D03*
X489500Y274000D03*
X464500Y264000D03*
X465500Y270000D03*
X449500Y240000D03*
X455000Y250000D03*
G54D42*X191500Y258000D03*
Y237000D03*
X205000Y314000D03*
X213500D03*
X221000D03*
G54D41*X386000Y233500D03*
X376500Y306500D03*
X225000Y243500D03*
X215000D03*
X205000D03*
X220000Y231000D03*
X210000D03*
X200000D03*
X329500Y240500D03*
X339000Y234500D03*
X337000Y242000D03*
X343500Y245000D03*
G54D44*G54D14*G54D44*G54D14*G54D44*G54D12*G54D14*G54D44*G54D12*G54D44*G54D45*G54D14*G54D12*G54D44*G54D14*G54D44*G54D45*G54D44*G54D45*G54D12*G54D44*G54D14*G54D44*G54D14*G54D12*G54D44*G54D12*G54D44*G54D14*G54D44*G54D46*G54D47*G54D46*G54D48*G54D49*G54D48*G54D46*G54D47*G54D50*G54D51*G54D50*G54D51*G54D50*G54D51*G54D50*G54D51*G54D52*G54D50*G54D51*G54D50*G54D51*G54D46*G54D50*G54D51*G54D46*G54D48*G54D50*G54D51*G54D50*G54D51*G54D50*G54D51*G54D50*G54D51*G54D50*G54D51*G54D48*M02*
