G04 start of page 8 for group -4063 idx -4063 *
G04 Title: uart, componentmask *
G04 Creator: pcb 20140316 *
G04 CreationDate: Wed 16 Jan 2019 07:50:34 AM GMT UTC *
G04 For: brian *
G04 Format: Gerber/RS-274X *
G04 PCB-Dimensions (mil): 9000.00 5000.00 *
G04 PCB-Coordinate-Origin: lower left *
%MOIN*%
%FSLAX25Y25*%
%LNTOPMASK*%
%ADD169R,0.0138X0.0138*%
%ADD168R,0.0236X0.0236*%
%ADD167R,0.1772X0.1772*%
%ADD166R,0.0650X0.0650*%
%ADD165R,0.0221X0.0221*%
%ADD164R,0.0402X0.0402*%
%ADD163R,0.0614X0.0614*%
%ADD162R,0.0551X0.0551*%
%ADD161R,0.0380X0.0380*%
%ADD160R,0.0355X0.0355*%
%ADD159R,0.0572X0.0572*%
%ADD158R,0.0748X0.0748*%
%ADD157R,0.1516X0.1516*%
%ADD156R,0.0294X0.0294*%
%ADD155R,0.0200X0.0200*%
%ADD154R,0.0280X0.0280*%
%ADD153C,0.0660*%
%ADD152C,0.1161*%
%ADD151C,0.0650*%
%ADD150C,0.1850*%
%ADD149C,0.0728*%
%ADD148C,0.0710*%
%ADD147C,0.0001*%
G54D147*G36*
X645950Y368550D02*Y361450D01*
X653050D01*
Y368550D01*
X645950D01*
G37*
G54D148*X639500Y365000D03*
G54D149*X666110Y374000D03*
X679890D03*
X666110Y352346D03*
X679890D03*
G54D148*X629500Y365000D03*
X619500D03*
G54D150*X701500Y380000D03*
Y212000D03*
G54D148*X609500Y365000D03*
G54D147*G36*
X524950Y368550D02*Y361450D01*
X532050D01*
Y368550D01*
X524950D01*
G37*
G54D148*X518500Y365000D03*
G54D147*G36*
X550450Y368550D02*Y361450D01*
X557550D01*
Y368550D01*
X550450D01*
G37*
G54D148*X544000Y365000D03*
X599500D03*
G54D149*X569110Y374000D03*
X582890D03*
Y352346D03*
X569110D03*
G54D151*X554500Y329780D03*
Y312063D03*
X528500D03*
X554500Y302220D03*
G54D152*X543831Y290134D03*
G54D151*X528500Y302220D03*
G54D152*X517831Y290134D03*
G54D151*X554500Y319937D03*
G54D152*X543831Y341866D03*
G54D151*X528500Y329780D03*
Y319937D03*
G54D152*X517831Y341866D03*
G54D147*G36*
X242700Y220800D02*Y214200D01*
X249300D01*
Y220800D01*
X242700D01*
G37*
G54D153*X256000Y217500D03*
X266000D03*
X276000D03*
X286000D03*
X296000D03*
X306000D03*
X316000D03*
X326000D03*
X336000D03*
X346000D03*
X356000D03*
X366000D03*
X376000D03*
X386000D03*
X396000D03*
X406000D03*
X416000D03*
X406000Y277500D03*
X396000D03*
X386000D03*
X376000D03*
X366000D03*
X356000D03*
X346000D03*
X336000D03*
X326000D03*
X316000D03*
X306000D03*
X296000D03*
X286000D03*
X276000D03*
X266000D03*
X256000D03*
X246000D03*
X426000Y217500D03*
X436000D03*
X446000D03*
X456000D03*
X466000D03*
X476000D03*
Y277500D03*
X466000D03*
X456000D03*
X446000D03*
X436000D03*
X426000D03*
X416000D03*
G54D151*X410000Y329780D03*
G54D152*X399331Y341866D03*
G54D151*X410000Y319937D03*
Y312063D03*
Y302220D03*
G54D152*X399331Y290134D03*
G54D147*G36*
X447450Y368550D02*Y361450D01*
X454550D01*
Y368550D01*
X447450D01*
G37*
G54D148*X441000Y365000D03*
G54D147*G36*
X420950Y368550D02*Y361450D01*
X428050D01*
Y368550D01*
X420950D01*
G37*
G54D148*X414500Y365000D03*
G54D147*G36*
X472950Y368550D02*Y361450D01*
X480050D01*
Y368550D01*
X472950D01*
G37*
G54D148*X466500Y365000D03*
G54D147*G36*
X498450Y368550D02*Y361450D01*
X505550D01*
Y368550D01*
X498450D01*
G37*
G54D148*X492000Y365000D03*
X404500D03*
X394500D03*
X384500D03*
G54D147*G36*
X365450Y368550D02*Y361450D01*
X372550D01*
Y368550D01*
X365450D01*
G37*
G54D148*X359000Y365000D03*
X349000D03*
X339000D03*
X329000D03*
G54D151*X354500Y329780D03*
G54D152*X343831Y341866D03*
G54D147*G36*
X309950Y368550D02*Y361450D01*
X317050D01*
Y368550D01*
X309950D01*
G37*
G54D148*X303500Y365000D03*
X293500D03*
X283500D03*
X273500D03*
G54D147*G36*
X254450Y368550D02*Y361450D01*
X261550D01*
Y368550D01*
X254450D01*
G37*
G54D148*X248000Y365000D03*
X238000D03*
X228000D03*
X218000D03*
G54D147*G36*
X198950Y368550D02*Y361450D01*
X206050D01*
Y368550D01*
X198950D01*
G37*
G54D148*X192500Y365000D03*
X182500D03*
X172500D03*
X162500D03*
G54D150*X141000Y380000D03*
G54D151*X354500Y319937D03*
X299000D03*
Y312063D03*
Y302220D03*
G54D152*X288331Y290134D03*
G54D151*X354500Y312063D03*
Y302220D03*
G54D152*X343831Y290134D03*
G54D151*X299000Y329780D03*
G54D152*X288331Y341866D03*
G54D151*X243500Y329780D03*
Y319937D03*
Y312063D03*
Y302220D03*
X188000D03*
G54D152*X232831Y341866D03*
G54D151*X188000Y329780D03*
Y319937D03*
Y312063D03*
G54D152*X177331Y341866D03*
X232831Y290134D03*
X177331D03*
G54D150*X141000Y212000D03*
G54D154*X593500Y264476D02*Y249791D01*
G54D155*Y251051D02*Y250035D01*
G54D154*X598500Y264476D02*Y249791D01*
G54D155*Y251051D02*Y250035D01*
G54D156*X594823Y256803D02*Y254646D01*
Y263276D02*Y261118D01*
G54D154*X603500Y264476D02*Y249791D01*
G54D155*Y251051D02*Y250035D01*
G54D154*X608500Y264476D02*Y249791D01*
G54D155*Y251051D02*Y250035D01*
G54D157*X599681Y258295D02*X602319D01*
G54D156*X598941Y256803D02*Y254646D01*
Y263276D02*Y261118D01*
X603059Y256803D02*Y254646D01*
G54D154*X628500Y273709D02*Y259024D01*
G54D155*Y273465D02*Y272449D01*
G54D154*X623500Y273709D02*Y259024D01*
G54D155*Y273465D02*Y272449D01*
G54D154*X618500Y273709D02*Y259024D01*
G54D155*Y273465D02*Y272449D01*
G54D154*X613500Y273709D02*Y259024D01*
G54D156*X614823Y268854D02*Y266697D01*
Y262382D02*Y260224D01*
X627177Y268854D02*Y266697D01*
Y262382D02*Y260224D01*
G54D157*X619681Y265205D02*X622319D01*
G54D156*X623059Y268854D02*Y266697D01*
Y262382D02*Y260224D01*
X618941Y268854D02*Y266697D01*
Y262382D02*Y260224D01*
G54D155*X613500Y273465D02*Y272449D01*
G54D154*X608500Y273752D02*Y271146D01*
G54D156*X603059Y263276D02*Y261118D01*
X607177Y256803D02*Y254646D01*
Y263276D02*Y261118D01*
G54D158*X544500Y262492D02*Y256193D01*
X576000Y262492D02*Y256193D01*
Y242807D02*Y236508D01*
G54D159*X607107Y244043D02*X607893D01*
X607107Y236957D02*X607893D01*
X599107Y244043D02*X599893D01*
X599107Y236957D02*X599893D01*
G54D158*X513000Y262492D02*Y256193D01*
Y242807D02*Y236508D01*
X544500Y242807D02*Y236508D01*
G54D160*X489008Y245941D02*X489992D01*
X489008Y251059D02*X489992D01*
X489008Y241559D02*X489992D01*
X489008Y236441D02*X489992D01*
G54D161*X498300Y310700D02*Y309100D01*
X502000Y310700D02*Y309100D01*
X505700Y310700D02*Y309100D01*
G54D162*X429488Y344421D02*Y334579D01*
G54D159*X441607Y312957D02*X442393D01*
X441607Y320043D02*X442393D01*
G54D161*X448600Y316800D02*X450200D01*
X448600Y324200D02*X450200D01*
X448600Y320500D02*X450200D01*
X458800Y316800D02*X460400D01*
X458800Y324200D02*X460400D01*
G54D163*X481094Y316870D02*X482906D01*
G54D160*X467441Y315492D02*Y314508D01*
X472559Y315492D02*Y314508D01*
G54D161*X505700Y320900D02*Y319300D01*
X498300Y320900D02*Y319300D01*
G54D159*X491107Y319957D02*X491893D01*
G54D160*X448441Y341492D02*Y340508D01*
G54D163*X447870Y333906D02*Y332094D01*
G54D162*X449988Y303921D02*Y294079D01*
X440512Y344421D02*Y334579D01*
G54D160*X453559Y341492D02*Y340508D01*
X458441Y341492D02*Y340508D01*
X463559Y341492D02*Y340508D01*
G54D163*X459130Y333906D02*Y332094D01*
G54D162*X461012Y303921D02*Y294079D01*
G54D163*X473094Y287870D02*X474906D01*
X473094Y299130D02*X474906D01*
G54D160*X472508Y310059D02*X473492D01*
G54D163*X481094Y328130D02*X482906D01*
G54D160*X472508Y304941D02*X473492D01*
G54D159*X478957Y307393D02*Y306607D01*
X486043Y307393D02*Y306607D01*
G54D161*X482800Y289700D02*Y288100D01*
X486500Y289700D02*Y288100D01*
X490200Y289700D02*Y288100D01*
Y299900D02*Y298300D01*
X482800Y299900D02*Y298300D01*
G54D162*X490488Y344921D02*Y335079D01*
X501512Y344921D02*Y335079D01*
G54D160*X504559Y327492D02*Y326508D01*
X499441Y327492D02*Y326508D01*
X507508Y337559D02*X508492D01*
X507508Y332441D02*X508492D01*
G54D159*X491107Y327043D02*X491893D01*
G54D164*X572850Y328500D02*X579150D01*
G54D160*X560441Y328492D02*Y327508D01*
X565559Y328492D02*Y327508D01*
X586941Y320492D02*Y319508D01*
X592059Y320492D02*Y319508D01*
X582008Y336441D02*X582992D01*
X582008Y341559D02*X582992D01*
X570508Y336441D02*X571492D01*
X570508Y341559D02*X571492D01*
X576508Y336441D02*X577492D01*
X576508Y341559D02*X577492D01*
X376008Y315059D02*X376992D01*
X376008Y309941D02*X376992D01*
X376008Y320441D02*X376992D01*
X376008Y325559D02*X376992D01*
X321008Y333559D02*X321992D01*
X321008Y338441D02*X321992D01*
X321008Y328441D02*X321992D01*
X321008Y343559D02*X321992D01*
G54D154*X593500Y273752D02*Y271146D01*
G54D165*Y273858D02*Y271850D01*
G54D154*X598500Y273752D02*Y271146D01*
G54D165*Y273858D02*Y271850D01*
G54D154*X603500Y273752D02*Y271146D01*
G54D165*Y273858D02*Y271850D01*
X608500Y273858D02*Y271850D01*
G54D160*X546059Y277492D02*Y276508D01*
X551441Y277492D02*Y276508D01*
X556559Y277492D02*Y276508D01*
X540941Y277492D02*Y276508D01*
G54D166*X625882Y240634D02*X636118D01*
X625882Y232366D02*X636118D01*
G54D154*X628500Y252354D02*Y249748D01*
G54D165*Y251650D02*Y249642D01*
G54D154*X638500Y252354D02*Y249748D01*
G54D165*Y251650D02*Y249642D01*
G54D154*X633500Y252354D02*Y249748D01*
G54D165*Y251650D02*Y249642D01*
G54D154*X623500Y252354D02*Y249748D01*
G54D165*Y251650D02*Y249642D01*
G54D154*X618500Y252354D02*Y249748D01*
G54D165*Y251650D02*Y249642D01*
G54D154*X613500Y252354D02*Y249748D01*
G54D165*Y251650D02*Y249642D01*
G54D154*X658500Y264476D02*Y249791D01*
G54D156*X658941Y256803D02*Y254646D01*
Y263276D02*Y261118D01*
G54D154*X668500Y264476D02*Y249791D01*
G54D155*Y251051D02*Y250035D01*
G54D157*X659681Y258295D02*X662319D01*
G54D156*X654823Y263276D02*Y261118D01*
X663059Y263276D02*Y261118D01*
X667177Y256803D02*Y254646D01*
Y263276D02*Y261118D01*
G54D154*X653500Y264476D02*Y249791D01*
G54D155*Y251051D02*Y250035D01*
G54D156*X654823Y256803D02*Y254646D01*
G54D159*X654107Y244043D02*X654893D01*
X654107Y236957D02*X654893D01*
G54D155*X658500Y251051D02*Y250035D01*
G54D154*X663500Y264476D02*Y249791D01*
G54D155*Y251051D02*Y250035D01*
G54D156*X663059Y256803D02*Y254646D01*
G54D159*X662107Y244043D02*X662893D01*
X662107Y236957D02*X662893D01*
G54D154*X648500Y252354D02*Y249748D01*
G54D165*Y251650D02*Y249642D01*
G54D154*X643500Y252354D02*Y249748D01*
G54D165*Y251650D02*Y249642D01*
G54D154*X653500Y273752D02*Y271146D01*
G54D165*Y273858D02*Y271850D01*
G54D154*X658500Y273752D02*Y271146D01*
G54D165*Y273858D02*Y271850D01*
G54D154*X663500Y273752D02*Y271146D01*
G54D165*Y273858D02*Y271850D01*
G54D154*X668500Y273752D02*Y271146D01*
G54D165*Y273858D02*Y271850D01*
G54D154*X648500Y273709D02*Y259024D01*
G54D156*X647177Y268854D02*Y266697D01*
Y262382D02*Y260224D01*
G54D154*X638500Y273709D02*Y259024D01*
G54D155*Y273465D02*Y272449D01*
G54D154*X633500Y273709D02*Y259024D01*
G54D155*Y273465D02*Y272449D01*
G54D156*X634823Y268854D02*Y266697D01*
Y262382D02*Y260224D01*
G54D157*X639681Y265205D02*X642319D01*
G54D156*X643059Y268854D02*Y266697D01*
Y262382D02*Y260224D01*
X638941Y268854D02*Y266697D01*
Y262382D02*Y260224D01*
G54D155*X648500Y273465D02*Y272449D01*
G54D154*X643500Y273709D02*Y259024D01*
G54D155*Y273465D02*Y272449D01*
G54D158*X686000Y262492D02*Y256193D01*
Y242807D02*Y236508D01*
G54D167*X610331Y310984D02*Y309016D01*
G54D160*X575008Y295059D02*X575992D01*
X575008Y289941D02*X575992D01*
X575008Y299441D02*X575992D01*
X575008Y304559D02*X575992D01*
G54D167*X651669Y310984D02*Y309016D01*
G54D168*X571768Y325154D02*X572358D01*
G54D169*X574425Y325646D02*Y324661D01*
X576000Y325646D02*Y324661D01*
X577575Y325646D02*Y324661D01*
G54D168*X579642Y325154D02*X580232D01*
X579642Y331846D02*X580232D01*
G54D169*X577575Y332339D02*Y331354D01*
X576000Y332339D02*Y331354D01*
X574425Y332339D02*Y331354D01*
G54D168*X571768Y331846D02*X572358D01*
M02*
