G04 start of page 14 for group -3984 idx -3984 *
G04 Title: uart, fab *
G04 Creator: pcb 20140316 *
G04 CreationDate: Wed 16 Jan 2019 07:50:34 AM GMT UTC *
G04 For: brian *
G04 Format: Gerber/RS-274X *
G04 PCB-Dimensions (mil): 9000.00 5000.00 *
G04 PCB-Coordinate-Origin: lower left *
%MOIN*%
%FSLAX25Y25*%
%LNFAB*%
%ADD220C,0.0100*%
%ADD219C,0.0075*%
%ADD218C,0.0060*%
%ADD217R,0.0080X0.0080*%
G54D217*X700700Y380000D02*G75*G03X702300Y380000I800J0D01*G01*
G75*G03X700700Y380000I-800J0D01*G01*
X699100D02*G75*G03X703900Y380000I2400J0D01*G01*
G75*G03X699100Y380000I-2400J0D01*G01*
X140200D02*G75*G03X141800Y380000I800J0D01*G01*
G75*G03X140200Y380000I-800J0D01*G01*
X138600D02*G75*G03X143400Y380000I2400J0D01*G01*
G75*G03X138600Y380000I-2400J0D01*G01*
X700700Y212000D02*G75*G03X702300Y212000I800J0D01*G01*
G75*G03X700700Y212000I-800J0D01*G01*
X699100D02*G75*G03X703900Y212000I2400J0D01*G01*
G75*G03X699100Y212000I-2400J0D01*G01*
X140200D02*G75*G03X141800Y212000I800J0D01*G01*
G75*G03X140200Y212000I-800J0D01*G01*
X138600D02*G75*G03X143400Y212000I2400J0D01*G01*
G75*G03X138600Y212000I-2400J0D01*G01*
X14200Y511250D02*G75*G03X15800Y511250I800J0D01*G01*
G75*G03X14200Y511250I-800J0D01*G01*
X12600D02*G75*G03X17400Y511250I2400J0D01*G01*
G75*G03X12600Y511250I-2400J0D01*G01*
G54D218*X135000Y513500D02*X136500Y510500D01*
X138000Y513500D01*
X136500Y510500D02*Y507500D01*
X139800Y510800D02*X142050D01*
X139800Y507500D02*X142800D01*
X139800Y513500D02*Y507500D01*
Y513500D02*X142800D01*
X147600D02*X148350Y512750D01*
X145350Y513500D02*X147600D01*
X144600Y512750D02*X145350Y513500D01*
X144600Y512750D02*Y511250D01*
X145350Y510500D01*
X147600D01*
X148350Y509750D01*
Y508250D01*
X147600Y507500D02*X148350Y508250D01*
X145350Y507500D02*X147600D01*
X144600Y508250D02*X145350Y507500D01*
X98000Y509750D02*X101000Y513500D01*
X98000Y509750D02*X101750D01*
X101000Y513500D02*Y507500D01*
X45000Y508250D02*X45750Y507500D01*
X45000Y512750D02*Y508250D01*
Y512750D02*X45750Y513500D01*
X47250D01*
X48000Y512750D01*
Y508250D01*
X47250Y507500D02*X48000Y508250D01*
X45750Y507500D02*X47250D01*
X45000Y509000D02*X48000Y512000D01*
X49800Y507500D02*X50550D01*
X52350Y512300D02*X53550Y513500D01*
Y507500D01*
X52350D02*X54600D01*
X56400Y512750D02*X57150Y513500D01*
X59400D01*
X60150Y512750D01*
Y511250D01*
X56400Y507500D02*X60150Y511250D01*
X56400Y507500D02*X60150D01*
X62700D02*X64950Y510500D01*
Y512750D02*Y510500D01*
X64200Y513500D02*X64950Y512750D01*
X62700Y513500D02*X64200D01*
X61950Y512750D02*X62700Y513500D01*
X61950Y512750D02*Y511250D01*
X62700Y510500D01*
X64950D01*
X541431Y344266D02*X546231Y339466D01*
X541431D02*X546231Y344266D01*
X542231Y343466D02*X545431D01*
X542231D02*Y340266D01*
X545431D01*
Y343466D02*Y340266D01*
X541431Y292534D02*X546231Y287734D01*
X541431D02*X546231Y292534D01*
X542231Y291734D02*X545431D01*
X542231D02*Y288534D01*
X545431D01*
Y291734D02*Y288534D01*
X515431Y344266D02*X520231Y339466D01*
X515431D02*X520231Y344266D01*
X516231Y343466D02*X519431D01*
X516231D02*Y340266D01*
X519431D01*
Y343466D02*Y340266D01*
X515431Y292534D02*X520231Y287734D01*
X515431D02*X520231Y292534D01*
X516231Y291734D02*X519431D01*
X516231D02*Y288534D01*
X519431D01*
Y291734D02*Y288534D01*
X396931Y344266D02*X401731Y339466D01*
X396931D02*X401731Y344266D01*
X397731Y343466D02*X400931D01*
X397731D02*Y340266D01*
X400931D01*
Y343466D02*Y340266D01*
X396931Y292534D02*X401731Y287734D01*
X396931D02*X401731Y292534D01*
X397731Y291734D02*X400931D01*
X397731D02*Y288534D01*
X400931D01*
Y291734D02*Y288534D01*
X341431Y344266D02*X346231Y339466D01*
X341431D02*X346231Y344266D01*
X342231Y343466D02*X345431D01*
X342231D02*Y340266D01*
X345431D01*
Y343466D02*Y340266D01*
X341431Y292534D02*X346231Y287734D01*
X341431D02*X346231Y292534D01*
X342231Y291734D02*X345431D01*
X342231D02*Y288534D01*
X345431D01*
Y291734D02*Y288534D01*
X285931Y344266D02*X290731Y339466D01*
X285931D02*X290731Y344266D01*
X286731Y343466D02*X289931D01*
X286731D02*Y340266D01*
X289931D01*
Y343466D02*Y340266D01*
X285931Y292534D02*X290731Y287734D01*
X285931D02*X290731Y292534D01*
X286731Y291734D02*X289931D01*
X286731D02*Y288534D01*
X289931D01*
Y291734D02*Y288534D01*
X230431Y344266D02*X235231Y339466D01*
X230431D02*X235231Y344266D01*
X231231Y343466D02*X234431D01*
X231231D02*Y340266D01*
X234431D01*
Y343466D02*Y340266D01*
X230431Y292534D02*X235231Y287734D01*
X230431D02*X235231Y292534D01*
X231231Y291734D02*X234431D01*
X231231D02*Y288534D01*
X234431D01*
Y291734D02*Y288534D01*
X174931Y344266D02*X179731Y339466D01*
X174931D02*X179731Y344266D01*
X175731Y343466D02*X178931D01*
X175731D02*Y340266D01*
X178931D01*
Y343466D02*Y340266D01*
X174931Y292534D02*X179731Y287734D01*
X174931D02*X179731Y292534D01*
X175731Y291734D02*X178931D01*
X175731D02*Y288534D01*
X178931D01*
Y291734D02*Y288534D01*
X12600Y528650D02*X17400Y523850D01*
X12600D02*X17400Y528650D01*
X13400Y527850D02*X16600D01*
X13400D02*Y524650D01*
X16600D01*
Y527850D02*Y524650D01*
X135000Y528500D02*X136500Y525500D01*
X138000Y528500D01*
X136500Y525500D02*Y522500D01*
X139800Y525800D02*X142050D01*
X139800Y522500D02*X142800D01*
X139800Y528500D02*Y522500D01*
Y528500D02*X142800D01*
X147600D02*X148350Y527750D01*
X145350Y528500D02*X147600D01*
X144600Y527750D02*X145350Y528500D01*
X144600Y527750D02*Y526250D01*
X145350Y525500D01*
X147600D01*
X148350Y524750D01*
Y523250D01*
X147600Y522500D02*X148350Y523250D01*
X145350Y522500D02*X147600D01*
X144600Y523250D02*X145350Y522500D01*
X98000Y527300D02*X99200Y528500D01*
Y522500D01*
X98000D02*X100250D01*
X102050Y524750D02*X105050Y528500D01*
X102050Y524750D02*X105800D01*
X105050Y528500D02*Y522500D01*
X45000Y523250D02*X45750Y522500D01*
X45000Y527750D02*Y523250D01*
Y527750D02*X45750Y528500D01*
X47250D01*
X48000Y527750D01*
Y523250D01*
X47250Y522500D02*X48000Y523250D01*
X45750Y522500D02*X47250D01*
X45000Y524000D02*X48000Y527000D01*
X49800Y522500D02*X50550D01*
X52350Y523250D02*X53100Y522500D01*
X52350Y527750D02*Y523250D01*
Y527750D02*X53100Y528500D01*
X54600D01*
X55350Y527750D01*
Y523250D01*
X54600Y522500D02*X55350Y523250D01*
X53100Y522500D02*X54600D01*
X52350Y524000D02*X55350Y527000D01*
X57900Y522500D02*X60150Y525500D01*
Y527750D02*Y525500D01*
X59400Y528500D02*X60150Y527750D01*
X57900Y528500D02*X59400D01*
X57150Y527750D02*X57900Y528500D01*
X57150Y527750D02*Y526250D01*
X57900Y525500D01*
X60150D01*
X61950Y527300D02*X63150Y528500D01*
Y522500D01*
X61950D02*X64200D01*
X666110Y377200D02*Y370800D01*
X662910Y374000D02*X669310D01*
X664510Y375600D02*X667710D01*
X664510D02*Y372400D01*
X667710D01*
Y375600D02*Y372400D01*
X679890Y377200D02*Y370800D01*
X676690Y374000D02*X683090D01*
X678290Y375600D02*X681490D01*
X678290D02*Y372400D01*
X681490D01*
Y375600D02*Y372400D01*
X666110Y355546D02*Y349146D01*
X662910Y352346D02*X669310D01*
X664510Y353946D02*X667710D01*
X664510D02*Y350746D01*
X667710D01*
Y353946D02*Y350746D01*
X679890Y355546D02*Y349146D01*
X676690Y352346D02*X683090D01*
X678290Y353946D02*X681490D01*
X678290D02*Y350746D01*
X681490D01*
Y353946D02*Y350746D01*
X569110Y377200D02*Y370800D01*
X565910Y374000D02*X572310D01*
X567510Y375600D02*X570710D01*
X567510D02*Y372400D01*
X570710D01*
Y375600D02*Y372400D01*
X582890Y377200D02*Y370800D01*
X579690Y374000D02*X586090D01*
X581290Y375600D02*X584490D01*
X581290D02*Y372400D01*
X584490D01*
Y375600D02*Y372400D01*
X569110Y355546D02*Y349146D01*
X565910Y352346D02*X572310D01*
X567510Y353946D02*X570710D01*
X567510D02*Y350746D01*
X570710D01*
Y353946D02*Y350746D01*
X582890Y355546D02*Y349146D01*
X579690Y352346D02*X586090D01*
X581290Y353946D02*X584490D01*
X581290D02*Y350746D01*
X584490D01*
Y353946D02*Y350746D01*
X15000Y544450D02*Y538050D01*
X11800Y541250D02*X18200D01*
X13400Y542850D02*X16600D01*
X13400D02*Y539650D01*
X16600D01*
Y542850D02*Y539650D01*
X135000Y543500D02*X136500Y540500D01*
X138000Y543500D01*
X136500Y540500D02*Y537500D01*
X139800Y540800D02*X142050D01*
X139800Y537500D02*X142800D01*
X139800Y543500D02*Y537500D01*
Y543500D02*X142800D01*
X147600D02*X148350Y542750D01*
X145350Y543500D02*X147600D01*
X144600Y542750D02*X145350Y543500D01*
X144600Y542750D02*Y541250D01*
X145350Y540500D01*
X147600D01*
X148350Y539750D01*
Y538250D01*
X147600Y537500D02*X148350Y538250D01*
X145350Y537500D02*X147600D01*
X144600Y538250D02*X145350Y537500D01*
X98000Y538250D02*X98750Y537500D01*
X98000Y539450D02*Y538250D01*
Y539450D02*X99050Y540500D01*
X99950D01*
X101000Y539450D01*
Y538250D01*
X100250Y537500D02*X101000Y538250D01*
X98750Y537500D02*X100250D01*
X98000Y541550D02*X99050Y540500D01*
X98000Y542750D02*Y541550D01*
Y542750D02*X98750Y543500D01*
X100250D01*
X101000Y542750D01*
Y541550D01*
X99950Y540500D02*X101000Y541550D01*
X45000Y538250D02*X45750Y537500D01*
X45000Y542750D02*Y538250D01*
Y542750D02*X45750Y543500D01*
X47250D01*
X48000Y542750D01*
Y538250D01*
X47250Y537500D02*X48000Y538250D01*
X45750Y537500D02*X47250D01*
X45000Y539000D02*X48000Y542000D01*
X49800Y537500D02*X50550D01*
X52350Y538250D02*X53100Y537500D01*
X52350Y542750D02*Y538250D01*
Y542750D02*X53100Y543500D01*
X54600D01*
X55350Y542750D01*
Y538250D01*
X54600Y537500D02*X55350Y538250D01*
X53100Y537500D02*X54600D01*
X52350Y539000D02*X55350Y542000D01*
X57150Y539750D02*X60150Y543500D01*
X57150Y539750D02*X60900D01*
X60150Y543500D02*Y537500D01*
X62700Y542750D02*X63450Y543500D01*
X64950D01*
X65700Y542750D01*
X64950Y537500D02*X65700Y538250D01*
X63450Y537500D02*X64950D01*
X62700Y538250D02*X63450Y537500D01*
Y540800D02*X64950D01*
X65700Y542750D02*Y541550D01*
Y540050D02*Y538250D01*
Y540050D02*X64950Y540800D01*
X65700Y541550D02*X64950Y540800D01*
X649500Y365000D02*Y361800D01*
Y365000D02*X652273Y366600D01*
X649500Y365000D02*X646727Y366600D01*
X647900Y365000D02*G75*G03X651100Y365000I1600J0D01*G01*
G75*G03X647900Y365000I-1600J0D01*G01*
X639500D02*Y361800D01*
Y365000D02*X642273Y366600D01*
X639500Y365000D02*X636727Y366600D01*
X637900Y365000D02*G75*G03X641100Y365000I1600J0D01*G01*
G75*G03X637900Y365000I-1600J0D01*G01*
X629500D02*Y361800D01*
Y365000D02*X632273Y366600D01*
X629500Y365000D02*X626727Y366600D01*
X627900Y365000D02*G75*G03X631100Y365000I1600J0D01*G01*
G75*G03X627900Y365000I-1600J0D01*G01*
X619500D02*Y361800D01*
Y365000D02*X622273Y366600D01*
X619500Y365000D02*X616727Y366600D01*
X617900Y365000D02*G75*G03X621100Y365000I1600J0D01*G01*
G75*G03X617900Y365000I-1600J0D01*G01*
X609500D02*Y361800D01*
Y365000D02*X612273Y366600D01*
X609500Y365000D02*X606727Y366600D01*
X607900Y365000D02*G75*G03X611100Y365000I1600J0D01*G01*
G75*G03X607900Y365000I-1600J0D01*G01*
X599500D02*Y361800D01*
Y365000D02*X602273Y366600D01*
X599500Y365000D02*X596727Y366600D01*
X597900Y365000D02*G75*G03X601100Y365000I1600J0D01*G01*
G75*G03X597900Y365000I-1600J0D01*G01*
X528500D02*Y361800D01*
Y365000D02*X531273Y366600D01*
X528500Y365000D02*X525727Y366600D01*
X526900Y365000D02*G75*G03X530100Y365000I1600J0D01*G01*
G75*G03X526900Y365000I-1600J0D01*G01*
X518500D02*Y361800D01*
Y365000D02*X521273Y366600D01*
X518500Y365000D02*X515727Y366600D01*
X516900Y365000D02*G75*G03X520100Y365000I1600J0D01*G01*
G75*G03X516900Y365000I-1600J0D01*G01*
X554000D02*Y361800D01*
Y365000D02*X556773Y366600D01*
X554000Y365000D02*X551227Y366600D01*
X552400Y365000D02*G75*G03X555600Y365000I1600J0D01*G01*
G75*G03X552400Y365000I-1600J0D01*G01*
X544000D02*Y361800D01*
Y365000D02*X546773Y366600D01*
X544000Y365000D02*X541227Y366600D01*
X542400Y365000D02*G75*G03X545600Y365000I1600J0D01*G01*
G75*G03X542400Y365000I-1600J0D01*G01*
X451000D02*Y361800D01*
Y365000D02*X453773Y366600D01*
X451000Y365000D02*X448227Y366600D01*
X449400Y365000D02*G75*G03X452600Y365000I1600J0D01*G01*
G75*G03X449400Y365000I-1600J0D01*G01*
X441000D02*Y361800D01*
Y365000D02*X443773Y366600D01*
X441000Y365000D02*X438227Y366600D01*
X439400Y365000D02*G75*G03X442600Y365000I1600J0D01*G01*
G75*G03X439400Y365000I-1600J0D01*G01*
X476500D02*Y361800D01*
Y365000D02*X479273Y366600D01*
X476500Y365000D02*X473727Y366600D01*
X474900Y365000D02*G75*G03X478100Y365000I1600J0D01*G01*
G75*G03X474900Y365000I-1600J0D01*G01*
X466500D02*Y361800D01*
Y365000D02*X469273Y366600D01*
X466500Y365000D02*X463727Y366600D01*
X464900Y365000D02*G75*G03X468100Y365000I1600J0D01*G01*
G75*G03X464900Y365000I-1600J0D01*G01*
X502000D02*Y361800D01*
Y365000D02*X504773Y366600D01*
X502000Y365000D02*X499227Y366600D01*
X500400Y365000D02*G75*G03X503600Y365000I1600J0D01*G01*
G75*G03X500400Y365000I-1600J0D01*G01*
X492000D02*Y361800D01*
Y365000D02*X494773Y366600D01*
X492000Y365000D02*X489227Y366600D01*
X490400Y365000D02*G75*G03X493600Y365000I1600J0D01*G01*
G75*G03X490400Y365000I-1600J0D01*G01*
X424500D02*Y361800D01*
Y365000D02*X427273Y366600D01*
X424500Y365000D02*X421727Y366600D01*
X422900Y365000D02*G75*G03X426100Y365000I1600J0D01*G01*
G75*G03X422900Y365000I-1600J0D01*G01*
X414500D02*Y361800D01*
Y365000D02*X417273Y366600D01*
X414500Y365000D02*X411727Y366600D01*
X412900Y365000D02*G75*G03X416100Y365000I1600J0D01*G01*
G75*G03X412900Y365000I-1600J0D01*G01*
X404500D02*Y361800D01*
Y365000D02*X407273Y366600D01*
X404500Y365000D02*X401727Y366600D01*
X402900Y365000D02*G75*G03X406100Y365000I1600J0D01*G01*
G75*G03X402900Y365000I-1600J0D01*G01*
X394500D02*Y361800D01*
Y365000D02*X397273Y366600D01*
X394500Y365000D02*X391727Y366600D01*
X392900Y365000D02*G75*G03X396100Y365000I1600J0D01*G01*
G75*G03X392900Y365000I-1600J0D01*G01*
X384500D02*Y361800D01*
Y365000D02*X387273Y366600D01*
X384500Y365000D02*X381727Y366600D01*
X382900Y365000D02*G75*G03X386100Y365000I1600J0D01*G01*
G75*G03X382900Y365000I-1600J0D01*G01*
X369000D02*Y361800D01*
Y365000D02*X371773Y366600D01*
X369000Y365000D02*X366227Y366600D01*
X367400Y365000D02*G75*G03X370600Y365000I1600J0D01*G01*
G75*G03X367400Y365000I-1600J0D01*G01*
X359000D02*Y361800D01*
Y365000D02*X361773Y366600D01*
X359000Y365000D02*X356227Y366600D01*
X357400Y365000D02*G75*G03X360600Y365000I1600J0D01*G01*
G75*G03X357400Y365000I-1600J0D01*G01*
X349000D02*Y361800D01*
Y365000D02*X351773Y366600D01*
X349000Y365000D02*X346227Y366600D01*
X347400Y365000D02*G75*G03X350600Y365000I1600J0D01*G01*
G75*G03X347400Y365000I-1600J0D01*G01*
X339000D02*Y361800D01*
Y365000D02*X341773Y366600D01*
X339000Y365000D02*X336227Y366600D01*
X337400Y365000D02*G75*G03X340600Y365000I1600J0D01*G01*
G75*G03X337400Y365000I-1600J0D01*G01*
X329000D02*Y361800D01*
Y365000D02*X331773Y366600D01*
X329000Y365000D02*X326227Y366600D01*
X327400Y365000D02*G75*G03X330600Y365000I1600J0D01*G01*
G75*G03X327400Y365000I-1600J0D01*G01*
X313500D02*Y361800D01*
Y365000D02*X316273Y366600D01*
X313500Y365000D02*X310727Y366600D01*
X311900Y365000D02*G75*G03X315100Y365000I1600J0D01*G01*
G75*G03X311900Y365000I-1600J0D01*G01*
X303500D02*Y361800D01*
Y365000D02*X306273Y366600D01*
X303500Y365000D02*X300727Y366600D01*
X301900Y365000D02*G75*G03X305100Y365000I1600J0D01*G01*
G75*G03X301900Y365000I-1600J0D01*G01*
X293500D02*Y361800D01*
Y365000D02*X296273Y366600D01*
X293500Y365000D02*X290727Y366600D01*
X291900Y365000D02*G75*G03X295100Y365000I1600J0D01*G01*
G75*G03X291900Y365000I-1600J0D01*G01*
X283500D02*Y361800D01*
Y365000D02*X286273Y366600D01*
X283500Y365000D02*X280727Y366600D01*
X281900Y365000D02*G75*G03X285100Y365000I1600J0D01*G01*
G75*G03X281900Y365000I-1600J0D01*G01*
X273500D02*Y361800D01*
Y365000D02*X276273Y366600D01*
X273500Y365000D02*X270727Y366600D01*
X271900Y365000D02*G75*G03X275100Y365000I1600J0D01*G01*
G75*G03X271900Y365000I-1600J0D01*G01*
X258000D02*Y361800D01*
Y365000D02*X260773Y366600D01*
X258000Y365000D02*X255227Y366600D01*
X256400Y365000D02*G75*G03X259600Y365000I1600J0D01*G01*
G75*G03X256400Y365000I-1600J0D01*G01*
X248000D02*Y361800D01*
Y365000D02*X250773Y366600D01*
X248000Y365000D02*X245227Y366600D01*
X246400Y365000D02*G75*G03X249600Y365000I1600J0D01*G01*
G75*G03X246400Y365000I-1600J0D01*G01*
X238000D02*Y361800D01*
Y365000D02*X240773Y366600D01*
X238000Y365000D02*X235227Y366600D01*
X236400Y365000D02*G75*G03X239600Y365000I1600J0D01*G01*
G75*G03X236400Y365000I-1600J0D01*G01*
X228000D02*Y361800D01*
Y365000D02*X230773Y366600D01*
X228000Y365000D02*X225227Y366600D01*
X226400Y365000D02*G75*G03X229600Y365000I1600J0D01*G01*
G75*G03X226400Y365000I-1600J0D01*G01*
X218000D02*Y361800D01*
Y365000D02*X220773Y366600D01*
X218000Y365000D02*X215227Y366600D01*
X216400Y365000D02*G75*G03X219600Y365000I1600J0D01*G01*
G75*G03X216400Y365000I-1600J0D01*G01*
X202500D02*Y361800D01*
Y365000D02*X205273Y366600D01*
X202500Y365000D02*X199727Y366600D01*
X200900Y365000D02*G75*G03X204100Y365000I1600J0D01*G01*
G75*G03X200900Y365000I-1600J0D01*G01*
X192500D02*Y361800D01*
Y365000D02*X195273Y366600D01*
X192500Y365000D02*X189727Y366600D01*
X190900Y365000D02*G75*G03X194100Y365000I1600J0D01*G01*
G75*G03X190900Y365000I-1600J0D01*G01*
X182500D02*Y361800D01*
Y365000D02*X185273Y366600D01*
X182500Y365000D02*X179727Y366600D01*
X180900Y365000D02*G75*G03X184100Y365000I1600J0D01*G01*
G75*G03X180900Y365000I-1600J0D01*G01*
X172500D02*Y361800D01*
Y365000D02*X175273Y366600D01*
X172500Y365000D02*X169727Y366600D01*
X170900Y365000D02*G75*G03X174100Y365000I1600J0D01*G01*
G75*G03X170900Y365000I-1600J0D01*G01*
X162500D02*Y361800D01*
Y365000D02*X165273Y366600D01*
X162500Y365000D02*X159727Y366600D01*
X160900Y365000D02*G75*G03X164100Y365000I1600J0D01*G01*
G75*G03X160900Y365000I-1600J0D01*G01*
X15000Y556250D02*Y553050D01*
Y556250D02*X17773Y557850D01*
X15000Y556250D02*X12227Y557850D01*
X13400Y556250D02*G75*G03X16600Y556250I1600J0D01*G01*
G75*G03X13400Y556250I-1600J0D01*G01*
X135000Y558500D02*X136500Y555500D01*
X138000Y558500D01*
X136500Y555500D02*Y552500D01*
X139800Y555800D02*X142050D01*
X139800Y552500D02*X142800D01*
X139800Y558500D02*Y552500D01*
Y558500D02*X142800D01*
X147600D02*X148350Y557750D01*
X145350Y558500D02*X147600D01*
X144600Y557750D02*X145350Y558500D01*
X144600Y557750D02*Y556250D01*
X145350Y555500D01*
X147600D01*
X148350Y554750D01*
Y553250D01*
X147600Y552500D02*X148350Y553250D01*
X145350Y552500D02*X147600D01*
X144600Y553250D02*X145350Y552500D01*
X98000Y554750D02*X101000Y558500D01*
X98000Y554750D02*X101750D01*
X101000Y558500D02*Y552500D01*
X103550Y557300D02*X104750Y558500D01*
Y552500D01*
X103550D02*X105800D01*
X45000Y553250D02*X45750Y552500D01*
X45000Y557750D02*Y553250D01*
Y557750D02*X45750Y558500D01*
X47250D01*
X48000Y557750D01*
Y553250D01*
X47250Y552500D02*X48000Y553250D01*
X45750Y552500D02*X47250D01*
X45000Y554000D02*X48000Y557000D01*
X49800Y552500D02*X50550D01*
X52350Y553250D02*X53100Y552500D01*
X52350Y557750D02*Y553250D01*
Y557750D02*X53100Y558500D01*
X54600D01*
X55350Y557750D01*
Y553250D01*
X54600Y552500D02*X55350Y553250D01*
X53100Y552500D02*X54600D01*
X52350Y554000D02*X55350Y557000D01*
X57150Y554750D02*X60150Y558500D01*
X57150Y554750D02*X60900D01*
X60150Y558500D02*Y552500D01*
X62700Y553250D02*X63450Y552500D01*
X62700Y557750D02*Y553250D01*
Y557750D02*X63450Y558500D01*
X64950D01*
X65700Y557750D01*
Y553250D01*
X64950Y552500D02*X65700Y553250D01*
X63450Y552500D02*X64950D01*
X62700Y554000D02*X65700Y557000D01*
X244400Y219100D02*X247600D01*
X244400D02*Y215900D01*
X247600D01*
Y219100D02*Y215900D01*
X254400Y219100D02*X257600D01*
X254400D02*Y215900D01*
X257600D01*
Y219100D02*Y215900D01*
X264400Y219100D02*X267600D01*
X264400D02*Y215900D01*
X267600D01*
Y219100D02*Y215900D01*
X274400Y219100D02*X277600D01*
X274400D02*Y215900D01*
X277600D01*
Y219100D02*Y215900D01*
X284400Y219100D02*X287600D01*
X284400D02*Y215900D01*
X287600D01*
Y219100D02*Y215900D01*
X294400Y219100D02*X297600D01*
X294400D02*Y215900D01*
X297600D01*
Y219100D02*Y215900D01*
X304400Y219100D02*X307600D01*
X304400D02*Y215900D01*
X307600D01*
Y219100D02*Y215900D01*
X314400Y219100D02*X317600D01*
X314400D02*Y215900D01*
X317600D01*
Y219100D02*Y215900D01*
X324400Y219100D02*X327600D01*
X324400D02*Y215900D01*
X327600D01*
Y219100D02*Y215900D01*
X334400Y219100D02*X337600D01*
X334400D02*Y215900D01*
X337600D01*
Y219100D02*Y215900D01*
X344400Y219100D02*X347600D01*
X344400D02*Y215900D01*
X347600D01*
Y219100D02*Y215900D01*
X354400Y219100D02*X357600D01*
X354400D02*Y215900D01*
X357600D01*
Y219100D02*Y215900D01*
X364400Y219100D02*X367600D01*
X364400D02*Y215900D01*
X367600D01*
Y219100D02*Y215900D01*
X374400Y219100D02*X377600D01*
X374400D02*Y215900D01*
X377600D01*
Y219100D02*Y215900D01*
X384400Y219100D02*X387600D01*
X384400D02*Y215900D01*
X387600D01*
Y219100D02*Y215900D01*
X394400Y219100D02*X397600D01*
X394400D02*Y215900D01*
X397600D01*
Y219100D02*Y215900D01*
X404400Y219100D02*X407600D01*
X404400D02*Y215900D01*
X407600D01*
Y219100D02*Y215900D01*
X414400Y219100D02*X417600D01*
X414400D02*Y215900D01*
X417600D01*
Y219100D02*Y215900D01*
X424400Y219100D02*X427600D01*
X424400D02*Y215900D01*
X427600D01*
Y219100D02*Y215900D01*
X434400Y219100D02*X437600D01*
X434400D02*Y215900D01*
X437600D01*
Y219100D02*Y215900D01*
X444400Y219100D02*X447600D01*
X444400D02*Y215900D01*
X447600D01*
Y219100D02*Y215900D01*
X454400Y219100D02*X457600D01*
X454400D02*Y215900D01*
X457600D01*
Y219100D02*Y215900D01*
X464400Y219100D02*X467600D01*
X464400D02*Y215900D01*
X467600D01*
Y219100D02*Y215900D01*
X474400Y219100D02*X477600D01*
X474400D02*Y215900D01*
X477600D01*
Y219100D02*Y215900D01*
X474400Y279100D02*X477600D01*
X474400D02*Y275900D01*
X477600D01*
Y279100D02*Y275900D01*
X464400Y279100D02*X467600D01*
X464400D02*Y275900D01*
X467600D01*
Y279100D02*Y275900D01*
X454400Y279100D02*X457600D01*
X454400D02*Y275900D01*
X457600D01*
Y279100D02*Y275900D01*
X444400Y279100D02*X447600D01*
X444400D02*Y275900D01*
X447600D01*
Y279100D02*Y275900D01*
X434400Y279100D02*X437600D01*
X434400D02*Y275900D01*
X437600D01*
Y279100D02*Y275900D01*
X424400Y279100D02*X427600D01*
X424400D02*Y275900D01*
X427600D01*
Y279100D02*Y275900D01*
X414400Y279100D02*X417600D01*
X414400D02*Y275900D01*
X417600D01*
Y279100D02*Y275900D01*
X404400Y279100D02*X407600D01*
X404400D02*Y275900D01*
X407600D01*
Y279100D02*Y275900D01*
X394400Y279100D02*X397600D01*
X394400D02*Y275900D01*
X397600D01*
Y279100D02*Y275900D01*
X384400Y279100D02*X387600D01*
X384400D02*Y275900D01*
X387600D01*
Y279100D02*Y275900D01*
X374400Y279100D02*X377600D01*
X374400D02*Y275900D01*
X377600D01*
Y279100D02*Y275900D01*
X364400Y279100D02*X367600D01*
X364400D02*Y275900D01*
X367600D01*
Y279100D02*Y275900D01*
X354400Y279100D02*X357600D01*
X354400D02*Y275900D01*
X357600D01*
Y279100D02*Y275900D01*
X344400Y279100D02*X347600D01*
X344400D02*Y275900D01*
X347600D01*
Y279100D02*Y275900D01*
X334400Y279100D02*X337600D01*
X334400D02*Y275900D01*
X337600D01*
Y279100D02*Y275900D01*
X324400Y279100D02*X327600D01*
X324400D02*Y275900D01*
X327600D01*
Y279100D02*Y275900D01*
X314400Y279100D02*X317600D01*
X314400D02*Y275900D01*
X317600D01*
Y279100D02*Y275900D01*
X304400Y279100D02*X307600D01*
X304400D02*Y275900D01*
X307600D01*
Y279100D02*Y275900D01*
X294400Y279100D02*X297600D01*
X294400D02*Y275900D01*
X297600D01*
Y279100D02*Y275900D01*
X284400Y279100D02*X287600D01*
X284400D02*Y275900D01*
X287600D01*
Y279100D02*Y275900D01*
X274400Y279100D02*X277600D01*
X274400D02*Y275900D01*
X277600D01*
Y279100D02*Y275900D01*
X264400Y279100D02*X267600D01*
X264400D02*Y275900D01*
X267600D01*
Y279100D02*Y275900D01*
X254400Y279100D02*X257600D01*
X254400D02*Y275900D01*
X257600D01*
Y279100D02*Y275900D01*
X244400Y279100D02*X247600D01*
X244400D02*Y275900D01*
X247600D01*
Y279100D02*Y275900D01*
X13400Y572850D02*X16600D01*
X13400D02*Y569650D01*
X16600D01*
Y572850D02*Y569650D01*
X135000Y573500D02*X136500Y570500D01*
X138000Y573500D01*
X136500Y570500D02*Y567500D01*
X139800Y570800D02*X142050D01*
X139800Y567500D02*X142800D01*
X139800Y573500D02*Y567500D01*
Y573500D02*X142800D01*
X147600D02*X148350Y572750D01*
X145350Y573500D02*X147600D01*
X144600Y572750D02*X145350Y573500D01*
X144600Y572750D02*Y571250D01*
X145350Y570500D01*
X147600D01*
X148350Y569750D01*
Y568250D01*
X147600Y567500D02*X148350Y568250D01*
X145350Y567500D02*X147600D01*
X144600Y568250D02*X145350Y567500D01*
X98000Y569750D02*X101000Y573500D01*
X98000Y569750D02*X101750D01*
X101000Y573500D02*Y567500D01*
X103550Y568250D02*X104300Y567500D01*
X103550Y569450D02*Y568250D01*
Y569450D02*X104600Y570500D01*
X105500D01*
X106550Y569450D01*
Y568250D01*
X105800Y567500D02*X106550Y568250D01*
X104300Y567500D02*X105800D01*
X103550Y571550D02*X104600Y570500D01*
X103550Y572750D02*Y571550D01*
Y572750D02*X104300Y573500D01*
X105800D01*
X106550Y572750D01*
Y571550D01*
X105500Y570500D02*X106550Y571550D01*
X45000Y568250D02*X45750Y567500D01*
X45000Y572750D02*Y568250D01*
Y572750D02*X45750Y573500D01*
X47250D01*
X48000Y572750D01*
Y568250D01*
X47250Y567500D02*X48000Y568250D01*
X45750Y567500D02*X47250D01*
X45000Y569000D02*X48000Y572000D01*
X49800Y567500D02*X50550D01*
X52350Y568250D02*X53100Y567500D01*
X52350Y572750D02*Y568250D01*
Y572750D02*X53100Y573500D01*
X54600D01*
X55350Y572750D01*
Y568250D01*
X54600Y567500D02*X55350Y568250D01*
X53100Y567500D02*X54600D01*
X52350Y569000D02*X55350Y572000D01*
X57150Y572750D02*X57900Y573500D01*
X59400D01*
X60150Y572750D01*
X59400Y567500D02*X60150Y568250D01*
X57900Y567500D02*X59400D01*
X57150Y568250D02*X57900Y567500D01*
Y570800D02*X59400D01*
X60150Y572750D02*Y571550D01*
Y570050D02*Y568250D01*
Y570050D02*X59400Y570800D01*
X60150Y571550D02*X59400Y570800D01*
X61950Y568250D02*X62700Y567500D01*
X61950Y569450D02*Y568250D01*
Y569450D02*X63000Y570500D01*
X63900D01*
X64950Y569450D01*
Y568250D01*
X64200Y567500D02*X64950Y568250D01*
X62700Y567500D02*X64200D01*
X61950Y571550D02*X63000Y570500D01*
X61950Y572750D02*Y571550D01*
Y572750D02*X62700Y573500D01*
X64200D01*
X64950Y572750D01*
Y571550D01*
X63900Y570500D02*X64950Y571550D01*
X461700Y311500D02*G75*G03X463300Y311500I800J0D01*G01*
G75*G03X461700Y311500I-800J0D01*G01*
X441200Y326000D02*G75*G03X442800Y326000I800J0D01*G01*
G75*G03X441200Y326000I-800J0D01*G01*
X512700Y332000D02*G75*G03X514300Y332000I800J0D01*G01*
G75*G03X512700Y332000I-800J0D01*G01*
X605200Y381500D02*G75*G03X606800Y381500I800J0D01*G01*
G75*G03X605200Y381500I-800J0D01*G01*
X599700Y386500D02*G75*G03X601300Y386500I800J0D01*G01*
G75*G03X599700Y386500I-800J0D01*G01*
X594200Y381500D02*G75*G03X595800Y381500I800J0D01*G01*
G75*G03X594200Y381500I-800J0D01*G01*
X588700Y386500D02*G75*G03X590300Y386500I800J0D01*G01*
G75*G03X588700Y386500I-800J0D01*G01*
X562700Y334500D02*G75*G03X564300Y334500I800J0D01*G01*
G75*G03X562700Y334500I-800J0D01*G01*
X553700Y339000D02*G75*G03X555300Y339000I800J0D01*G01*
G75*G03X553700Y339000I-800J0D01*G01*
X497200Y264000D02*G75*G03X498800Y264000I800J0D01*G01*
G75*G03X497200Y264000I-800J0D01*G01*
Y257000D02*G75*G03X498800Y257000I800J0D01*G01*
G75*G03X497200Y257000I-800J0D01*G01*
X501200Y315000D02*G75*G03X502800Y315000I800J0D01*G01*
G75*G03X501200Y315000I-800J0D01*G01*
X553700Y329780D02*G75*G03X555300Y329780I800J0D01*G01*
G75*G03X553700Y329780I-800J0D01*G01*
Y319937D02*G75*G03X555300Y319937I800J0D01*G01*
G75*G03X553700Y319937I-800J0D01*G01*
Y312063D02*G75*G03X555300Y312063I800J0D01*G01*
G75*G03X553700Y312063I-800J0D01*G01*
Y302220D02*G75*G03X555300Y302220I800J0D01*G01*
G75*G03X553700Y302220I-800J0D01*G01*
X527700Y329780D02*G75*G03X529300Y329780I800J0D01*G01*
G75*G03X527700Y329780I-800J0D01*G01*
Y319937D02*G75*G03X529300Y319937I800J0D01*G01*
G75*G03X527700Y319937I-800J0D01*G01*
Y312063D02*G75*G03X529300Y312063I800J0D01*G01*
G75*G03X527700Y312063I-800J0D01*G01*
Y302220D02*G75*G03X529300Y302220I800J0D01*G01*
G75*G03X527700Y302220I-800J0D01*G01*
X409200Y329780D02*G75*G03X410800Y329780I800J0D01*G01*
G75*G03X409200Y329780I-800J0D01*G01*
Y319937D02*G75*G03X410800Y319937I800J0D01*G01*
G75*G03X409200Y319937I-800J0D01*G01*
Y312063D02*G75*G03X410800Y312063I800J0D01*G01*
G75*G03X409200Y312063I-800J0D01*G01*
Y302220D02*G75*G03X410800Y302220I800J0D01*G01*
G75*G03X409200Y302220I-800J0D01*G01*
X353700Y329780D02*G75*G03X355300Y329780I800J0D01*G01*
G75*G03X353700Y329780I-800J0D01*G01*
Y319937D02*G75*G03X355300Y319937I800J0D01*G01*
G75*G03X353700Y319937I-800J0D01*G01*
Y312063D02*G75*G03X355300Y312063I800J0D01*G01*
G75*G03X353700Y312063I-800J0D01*G01*
Y302220D02*G75*G03X355300Y302220I800J0D01*G01*
G75*G03X353700Y302220I-800J0D01*G01*
X298200Y329780D02*G75*G03X299800Y329780I800J0D01*G01*
G75*G03X298200Y329780I-800J0D01*G01*
Y319937D02*G75*G03X299800Y319937I800J0D01*G01*
G75*G03X298200Y319937I-800J0D01*G01*
Y312063D02*G75*G03X299800Y312063I800J0D01*G01*
G75*G03X298200Y312063I-800J0D01*G01*
Y302220D02*G75*G03X299800Y302220I800J0D01*G01*
G75*G03X298200Y302220I-800J0D01*G01*
X242700Y329780D02*G75*G03X244300Y329780I800J0D01*G01*
G75*G03X242700Y329780I-800J0D01*G01*
Y319937D02*G75*G03X244300Y319937I800J0D01*G01*
G75*G03X242700Y319937I-800J0D01*G01*
Y312063D02*G75*G03X244300Y312063I800J0D01*G01*
G75*G03X242700Y312063I-800J0D01*G01*
Y302220D02*G75*G03X244300Y302220I800J0D01*G01*
G75*G03X242700Y302220I-800J0D01*G01*
X187200Y329780D02*G75*G03X188800Y329780I800J0D01*G01*
G75*G03X187200Y329780I-800J0D01*G01*
Y319937D02*G75*G03X188800Y319937I800J0D01*G01*
G75*G03X187200Y319937I-800J0D01*G01*
Y312063D02*G75*G03X188800Y312063I800J0D01*G01*
G75*G03X187200Y312063I-800J0D01*G01*
Y302220D02*G75*G03X188800Y302220I800J0D01*G01*
G75*G03X187200Y302220I-800J0D01*G01*
X14200Y586250D02*G75*G03X15800Y586250I800J0D01*G01*
G75*G03X14200Y586250I-800J0D01*G01*
X135000Y588500D02*X136500Y585500D01*
X138000Y588500D01*
X136500Y585500D02*Y582500D01*
X139800Y585800D02*X142050D01*
X139800Y582500D02*X142800D01*
X139800Y588500D02*Y582500D01*
Y588500D02*X142800D01*
X147600D02*X148350Y587750D01*
X145350Y588500D02*X147600D01*
X144600Y587750D02*X145350Y588500D01*
X144600Y587750D02*Y586250D01*
X145350Y585500D01*
X147600D01*
X148350Y584750D01*
Y583250D01*
X147600Y582500D02*X148350Y583250D01*
X145350Y582500D02*X147600D01*
X144600Y583250D02*X145350Y582500D01*
X98000Y584750D02*X101000Y588500D01*
X98000Y584750D02*X101750D01*
X101000Y588500D02*Y582500D01*
X103550Y583250D02*X104300Y582500D01*
X103550Y587750D02*Y583250D01*
Y587750D02*X104300Y588500D01*
X105800D01*
X106550Y587750D01*
Y583250D01*
X105800Y582500D02*X106550Y583250D01*
X104300Y582500D02*X105800D01*
X103550Y584000D02*X106550Y587000D01*
X45000Y583250D02*X45750Y582500D01*
X45000Y587750D02*Y583250D01*
Y587750D02*X45750Y588500D01*
X47250D01*
X48000Y587750D01*
Y583250D01*
X47250Y582500D02*X48000Y583250D01*
X45750Y582500D02*X47250D01*
X45000Y584000D02*X48000Y587000D01*
X49800Y582500D02*X50550D01*
X52350Y583250D02*X53100Y582500D01*
X52350Y587750D02*Y583250D01*
Y587750D02*X53100Y588500D01*
X54600D01*
X55350Y587750D01*
Y583250D01*
X54600Y582500D02*X55350Y583250D01*
X53100Y582500D02*X54600D01*
X52350Y584000D02*X55350Y587000D01*
X57150Y587750D02*X57900Y588500D01*
X59400D01*
X60150Y587750D01*
X59400Y582500D02*X60150Y583250D01*
X57900Y582500D02*X59400D01*
X57150Y583250D02*X57900Y582500D01*
Y585800D02*X59400D01*
X60150Y587750D02*Y586550D01*
Y585050D02*Y583250D01*
Y585050D02*X59400Y585800D01*
X60150Y586550D02*X59400Y585800D01*
X61950Y588500D02*X64950D01*
X61950D02*Y585500D01*
X62700Y586250D01*
X64200D01*
X64950Y585500D01*
Y583250D01*
X64200Y582500D02*X64950Y583250D01*
X62700Y582500D02*X64200D01*
X61950Y583250D02*X62700Y582500D01*
X491300Y295200D02*X493700Y292800D01*
X491300D02*X493700Y295200D01*
X483800D02*X486200Y292800D01*
X483800D02*X486200Y295200D01*
X475300D02*X477700Y292800D01*
X475300D02*X477700Y295200D01*
X469800D02*X472200Y292800D01*
X469800D02*X472200Y295200D01*
X481800Y324200D02*X484200Y321800D01*
X481800D02*X484200Y324200D01*
X494800Y333200D02*X497200Y330800D01*
X494800D02*X497200Y333200D01*
X585800Y265700D02*X588200Y263300D01*
X585800D02*X588200Y265700D01*
X585800Y255700D02*X588200Y253300D01*
X585800D02*X588200Y255700D01*
X581800Y260700D02*X584200Y258300D01*
X581800D02*X584200Y260700D01*
X582300Y324700D02*X584700Y322300D01*
X582300D02*X584700Y324700D01*
X567300D02*X569700Y322300D01*
X567300D02*X569700Y324700D01*
X595300Y334700D02*X597700Y332300D01*
X595300D02*X597700Y334700D01*
X587800D02*X590200Y332300D01*
X587800D02*X590200Y334700D01*
X587800Y327200D02*X590200Y324800D01*
X587800D02*X590200Y327200D01*
X595300D02*X597700Y324800D01*
X595300D02*X597700Y327200D01*
X594800Y321200D02*X597200Y318800D01*
X594800D02*X597200Y321200D01*
X190300Y259200D02*X192700Y256800D01*
X190300D02*X192700Y259200D01*
X190300Y238200D02*X192700Y235800D01*
X190300D02*X192700Y238200D01*
X244800Y339700D02*X247200Y337300D01*
X244800D02*X247200Y339700D01*
X272800D02*X275200Y337300D01*
X272800D02*X275200Y339700D01*
X261800D02*X264200Y337300D01*
X261800D02*X264200Y339700D01*
X203800Y315200D02*X206200Y312800D01*
X203800D02*X206200Y315200D01*
X212300D02*X214700Y312800D01*
X212300D02*X214700Y315200D01*
X219800D02*X222200Y312800D01*
X219800D02*X222200Y315200D01*
X13800Y602450D02*X16200Y600050D01*
X13800D02*X16200Y602450D01*
X135000Y603500D02*X136500Y600500D01*
X138000Y603500D01*
X136500Y600500D02*Y597500D01*
X139800Y600800D02*X142050D01*
X139800Y597500D02*X142800D01*
X139800Y603500D02*Y597500D01*
Y603500D02*X142800D01*
X147600D02*X148350Y602750D01*
X145350Y603500D02*X147600D01*
X144600Y602750D02*X145350Y603500D01*
X144600Y602750D02*Y601250D01*
X145350Y600500D01*
X147600D01*
X148350Y599750D01*
Y598250D01*
X147600Y597500D02*X148350Y598250D01*
X145350Y597500D02*X147600D01*
X144600Y598250D02*X145350Y597500D01*
X98000Y602750D02*X98750Y603500D01*
X101000D01*
X101750Y602750D01*
Y601250D01*
X98000Y597500D02*X101750Y601250D01*
X98000Y597500D02*X101750D01*
X103550Y599750D02*X106550Y603500D01*
X103550Y599750D02*X107300D01*
X106550Y603500D02*Y597500D01*
X45000Y598250D02*X45750Y597500D01*
X45000Y602750D02*Y598250D01*
Y602750D02*X45750Y603500D01*
X47250D01*
X48000Y602750D01*
Y598250D01*
X47250Y597500D02*X48000Y598250D01*
X45750Y597500D02*X47250D01*
X45000Y599000D02*X48000Y602000D01*
X49800Y597500D02*X50550D01*
X52350Y598250D02*X53100Y597500D01*
X52350Y602750D02*Y598250D01*
Y602750D02*X53100Y603500D01*
X54600D01*
X55350Y602750D01*
Y598250D01*
X54600Y597500D02*X55350Y598250D01*
X53100Y597500D02*X54600D01*
X52350Y599000D02*X55350Y602000D01*
X57150Y602750D02*X57900Y603500D01*
X60150D01*
X60900Y602750D01*
Y601250D01*
X57150Y597500D02*X60900Y601250D01*
X57150Y597500D02*X60900D01*
X62700Y603500D02*X65700D01*
X62700D02*Y600500D01*
X63450Y601250D01*
X64950D01*
X65700Y600500D01*
Y598250D01*
X64950Y597500D02*X65700Y598250D01*
X63450Y597500D02*X64950D01*
X62700Y598250D02*X63450Y597500D01*
X628500Y247600D02*Y244400D01*
X626900Y246000D02*X630100D01*
X653500Y279100D02*Y275900D01*
X651900Y277500D02*X655100D01*
X593500Y279100D02*Y275900D01*
X591900Y277500D02*X595100D01*
X648500Y247600D02*Y244400D01*
X646900Y246000D02*X650100D01*
X627000Y279600D02*Y276400D01*
X625400Y278000D02*X628600D01*
X658000Y279600D02*Y276400D01*
X656400Y278000D02*X659600D01*
X616500Y282100D02*Y278900D01*
X614900Y280500D02*X618100D01*
X616500Y292100D02*Y288900D01*
X614900Y290500D02*X618100D01*
X598000Y295100D02*Y291900D01*
X596400Y293500D02*X599600D01*
X649000Y279100D02*Y275900D01*
X647400Y277500D02*X650600D01*
X647500Y287100D02*Y283900D01*
X645900Y285500D02*X649100D01*
X621000Y235600D02*Y232400D01*
X619400Y234000D02*X622600D01*
X621000Y240100D02*Y236900D01*
X619400Y238500D02*X622600D01*
X637500Y304600D02*Y301400D01*
X635900Y303000D02*X639100D01*
X625000Y304600D02*Y301400D01*
X623400Y303000D02*X626600D01*
X622500Y308100D02*Y304900D01*
X620900Y306500D02*X624100D01*
X622500Y312600D02*Y309400D01*
X620900Y311000D02*X624100D01*
X622500Y321600D02*Y318400D01*
X620900Y320000D02*X624100D01*
X627000Y327100D02*Y323900D01*
X625400Y325500D02*X628600D01*
X594000Y247100D02*Y243900D01*
X592400Y245500D02*X595600D01*
X668000Y247100D02*Y243900D01*
X666400Y245500D02*X669600D01*
X449500Y315100D02*Y311900D01*
X447900Y313500D02*X451100D01*
X570500Y245600D02*Y242400D01*
X568900Y244000D02*X572100D01*
X581500Y239100D02*Y235900D01*
X579900Y237500D02*X583100D01*
X581500Y245600D02*Y242400D01*
X579900Y244000D02*X583100D01*
X576000Y232600D02*Y229400D01*
X574400Y231000D02*X577600D01*
X570500Y239100D02*Y235900D01*
X568900Y237500D02*X572100D01*
X539000Y245600D02*Y242400D01*
X537400Y244000D02*X540600D01*
X550000Y239100D02*Y235900D01*
X548400Y237500D02*X551600D01*
X550000Y245600D02*Y242400D01*
X548400Y244000D02*X551600D01*
X544500Y232600D02*Y229400D01*
X542900Y231000D02*X546100D01*
X539000Y239100D02*Y235900D01*
X537400Y237500D02*X540600D01*
X507500Y245600D02*Y242400D01*
X505900Y244000D02*X509100D01*
X518500Y239100D02*Y235900D01*
X516900Y237500D02*X520100D01*
X518500Y245600D02*Y242400D01*
X516900Y244000D02*X520100D01*
X513000Y232600D02*Y229400D01*
X511400Y231000D02*X514600D01*
X507500Y239100D02*Y235900D01*
X505900Y237500D02*X509100D01*
X680500Y245600D02*Y242400D01*
X678900Y244000D02*X682100D01*
X691500Y239100D02*Y235900D01*
X689900Y237500D02*X693100D01*
X691500Y245600D02*Y242400D01*
X689900Y244000D02*X693100D01*
X686000Y232600D02*Y229400D01*
X684400Y231000D02*X687600D01*
X680500Y239100D02*Y235900D01*
X678900Y237500D02*X682100D01*
X662500Y233600D02*Y230400D01*
X660900Y232000D02*X664100D01*
X655000Y233600D02*Y230400D01*
X653400Y232000D02*X656600D01*
X599500Y233600D02*Y230400D01*
X597900Y232000D02*X601100D01*
X607500Y233600D02*Y230400D01*
X605900Y232000D02*X609100D01*
X569000Y330100D02*Y326900D01*
X567400Y328500D02*X570600D01*
X583000Y330100D02*Y326900D01*
X581400Y328500D02*X584600D01*
X573500Y350100D02*Y346900D01*
X571900Y348500D02*X575100D01*
X578000Y350600D02*Y347400D01*
X576400Y349000D02*X579600D01*
X646500Y353100D02*Y349900D01*
X644900Y351500D02*X648100D01*
X595000Y353600D02*Y350400D01*
X593400Y352000D02*X596600D01*
X564500Y350100D02*Y346900D01*
X562900Y348500D02*X566100D01*
X596000Y314100D02*Y310900D01*
X594400Y312500D02*X597600D01*
X569000Y299100D02*Y295900D01*
X567400Y297500D02*X570600D01*
X575500Y286600D02*Y283400D01*
X573900Y285000D02*X577100D01*
X562000Y317600D02*Y314400D01*
X560400Y316000D02*X563600D01*
X416000Y375100D02*Y371900D01*
X414400Y373500D02*X417600D01*
X360500Y375100D02*Y371900D01*
X358900Y373500D02*X362100D01*
X305000Y375100D02*Y371900D01*
X303400Y373500D02*X306600D01*
X249500Y375100D02*Y371900D01*
X247900Y373500D02*X251100D01*
X194000Y375100D02*Y371900D01*
X192400Y373500D02*X195600D01*
X386000Y235100D02*Y231900D01*
X384400Y233500D02*X387600D01*
X246000Y263100D02*Y259900D01*
X244400Y261500D02*X247600D01*
X278500Y381600D02*Y378400D01*
X276900Y380000D02*X280100D01*
X225000Y245100D02*Y241900D01*
X223400Y243500D02*X226600D01*
X220000Y232600D02*Y229400D01*
X218400Y231000D02*X221600D01*
X215000Y245100D02*Y241900D01*
X213400Y243500D02*X216600D01*
X210000Y232600D02*Y229400D01*
X208400Y231000D02*X211600D01*
X205000Y245100D02*Y241900D01*
X203400Y243500D02*X206600D01*
X200000Y232600D02*Y229400D01*
X198400Y231000D02*X201600D01*
X494500Y288100D02*Y284900D01*
X492900Y286500D02*X496100D01*
X463500Y245100D02*Y241900D01*
X461900Y243500D02*X465100D01*
X449500Y241600D02*Y238400D01*
X447900Y240000D02*X451100D01*
X455000Y251600D02*Y248400D01*
X453400Y250000D02*X456600D01*
X489500Y275600D02*Y272400D01*
X487900Y274000D02*X491100D01*
X429000Y256100D02*Y252900D01*
X427400Y254500D02*X430600D01*
X464500Y265600D02*Y262400D01*
X462900Y264000D02*X466100D01*
X465500Y271600D02*Y268400D01*
X463900Y270000D02*X467100D01*
X422500Y333100D02*Y329900D01*
X420900Y331500D02*X424100D01*
X415500Y288100D02*Y284900D01*
X413900Y286500D02*X417100D01*
X532500Y289600D02*Y286400D01*
X530900Y288000D02*X534100D01*
X376500Y308100D02*Y304900D01*
X374900Y306500D02*X378100D01*
X313500Y325100D02*Y321900D01*
X311900Y323500D02*X315100D01*
X329500Y242100D02*Y238900D01*
X327900Y240500D02*X331100D01*
X339000Y236100D02*Y232900D01*
X337400Y234500D02*X340600D01*
X271000Y269600D02*Y266400D01*
X269400Y268000D02*X272600D01*
X281000Y269600D02*Y266400D01*
X279400Y268000D02*X282600D01*
X337000Y243600D02*Y240400D01*
X335400Y242000D02*X338600D01*
X343500Y246600D02*Y243400D01*
X341900Y245000D02*X345100D01*
X291000Y269600D02*Y266400D01*
X289400Y268000D02*X292600D01*
X301000Y269600D02*Y266400D01*
X299400Y268000D02*X302600D01*
X15000Y617850D02*Y614650D01*
X13400Y616250D02*X16600D01*
X135000Y618500D02*X136500Y615500D01*
X138000Y618500D01*
X136500Y615500D02*Y612500D01*
X139800Y615800D02*X142050D01*
X139800Y612500D02*X142800D01*
X139800Y618500D02*Y612500D01*
Y618500D02*X142800D01*
X147600D02*X148350Y617750D01*
X145350Y618500D02*X147600D01*
X144600Y617750D02*X145350Y618500D01*
X144600Y617750D02*Y616250D01*
X145350Y615500D01*
X147600D01*
X148350Y614750D01*
Y613250D01*
X147600Y612500D02*X148350Y613250D01*
X145350Y612500D02*X147600D01*
X144600Y613250D02*X145350Y612500D01*
X98750D02*X101000Y615500D01*
Y617750D02*Y615500D01*
X100250Y618500D02*X101000Y617750D01*
X98750Y618500D02*X100250D01*
X98000Y617750D02*X98750Y618500D01*
X98000Y617750D02*Y616250D01*
X98750Y615500D01*
X101000D01*
X102800Y617750D02*X103550Y618500D01*
X105800D01*
X106550Y617750D01*
Y616250D01*
X102800Y612500D02*X106550Y616250D01*
X102800Y612500D02*X106550D01*
X45000Y613250D02*X45750Y612500D01*
X45000Y617750D02*Y613250D01*
Y617750D02*X45750Y618500D01*
X47250D01*
X48000Y617750D01*
Y613250D01*
X47250Y612500D02*X48000Y613250D01*
X45750Y612500D02*X47250D01*
X45000Y614000D02*X48000Y617000D01*
X49800Y612500D02*X50550D01*
X52350Y613250D02*X53100Y612500D01*
X52350Y617750D02*Y613250D01*
Y617750D02*X53100Y618500D01*
X54600D01*
X55350Y617750D01*
Y613250D01*
X54600Y612500D02*X55350Y613250D01*
X53100Y612500D02*X54600D01*
X52350Y614000D02*X55350Y617000D01*
X57150Y617750D02*X57900Y618500D01*
X60150D01*
X60900Y617750D01*
Y616250D01*
X57150Y612500D02*X60900Y616250D01*
X57150Y612500D02*X60900D01*
X62700Y613250D02*X63450Y612500D01*
X62700Y617750D02*Y613250D01*
Y617750D02*X63450Y618500D01*
X64950D01*
X65700Y617750D01*
Y613250D01*
X64950Y612500D02*X65700Y613250D01*
X63450Y612500D02*X64950D01*
X62700Y614000D02*X65700Y617000D01*
X576000Y322500D02*Y320900D01*
Y322500D02*X577387Y323300D01*
X576000Y322500D02*X574613Y323300D01*
X591500Y350000D02*Y348400D01*
Y350000D02*X592887Y350800D01*
X591500Y350000D02*X590113Y350800D01*
X588000Y363000D02*Y361400D01*
Y363000D02*X589387Y363800D01*
X588000Y363000D02*X586613Y363800D01*
X588000Y359000D02*Y357400D01*
Y359000D02*X589387Y359800D01*
X588000Y359000D02*X586613Y359800D01*
X631000Y290500D02*Y288900D01*
Y290500D02*X632387Y291300D01*
X631000Y290500D02*X629613Y291300D01*
X631000Y286760D02*Y285160D01*
Y286760D02*X632387Y287560D01*
X631000Y286760D02*X629613Y287560D01*
X631000Y294240D02*Y292640D01*
Y294240D02*X632387Y295040D01*
X631000Y294240D02*X629613Y295040D01*
X636709Y290500D02*Y288900D01*
Y290500D02*X638095Y291300D01*
X636709Y290500D02*X635322Y291300D01*
X625291Y290500D02*Y288900D01*
Y290500D02*X626678Y291300D01*
X625291Y290500D02*X623905Y291300D01*
X15000Y631250D02*Y629650D01*
Y631250D02*X16387Y632050D01*
X15000Y631250D02*X13613Y632050D01*
X135000Y633500D02*X136500Y630500D01*
X138000Y633500D01*
X136500Y630500D02*Y627500D01*
X139800Y630800D02*X142050D01*
X139800Y627500D02*X142800D01*
X139800Y633500D02*Y627500D01*
Y633500D02*X142800D01*
X147600D02*X148350Y632750D01*
X145350Y633500D02*X147600D01*
X144600Y632750D02*X145350Y633500D01*
X144600Y632750D02*Y631250D01*
X145350Y630500D01*
X147600D01*
X148350Y629750D01*
Y628250D01*
X147600Y627500D02*X148350Y628250D01*
X145350Y627500D02*X147600D01*
X144600Y628250D02*X145350Y627500D01*
X98750D02*X101000Y630500D01*
Y632750D02*Y630500D01*
X100250Y633500D02*X101000Y632750D01*
X98750Y633500D02*X100250D01*
X98000Y632750D02*X98750Y633500D01*
X98000Y632750D02*Y631250D01*
X98750Y630500D01*
X101000D01*
X45000Y628250D02*X45750Y627500D01*
X45000Y632750D02*Y628250D01*
Y632750D02*X45750Y633500D01*
X47250D01*
X48000Y632750D01*
Y628250D01*
X47250Y627500D02*X48000Y628250D01*
X45750Y627500D02*X47250D01*
X45000Y629000D02*X48000Y632000D01*
X49800Y627500D02*X50550D01*
X52350Y628250D02*X53100Y627500D01*
X52350Y632750D02*Y628250D01*
Y632750D02*X53100Y633500D01*
X54600D01*
X55350Y632750D01*
Y628250D01*
X54600Y627500D02*X55350Y628250D01*
X53100Y627500D02*X54600D01*
X52350Y629000D02*X55350Y632000D01*
X57150Y632300D02*X58350Y633500D01*
Y627500D01*
X57150D02*X59400D01*
X61200Y632750D02*X61950Y633500D01*
X64200D01*
X64950Y632750D01*
Y631250D01*
X61200Y627500D02*X64950Y631250D01*
X61200Y627500D02*X64950D01*
X3000Y648500D02*X3750Y647750D01*
X750Y648500D02*X3000D01*
X0Y647750D02*X750Y648500D01*
X0Y647750D02*Y646250D01*
X750Y645500D01*
X3000D01*
X3750Y644750D01*
Y643250D01*
X3000Y642500D02*X3750Y643250D01*
X750Y642500D02*X3000D01*
X0Y643250D02*X750Y642500D01*
X5550Y645500D02*Y643250D01*
X6300Y642500D01*
X8550Y645500D02*Y641000D01*
X7800Y640250D02*X8550Y641000D01*
X6300Y640250D02*X7800D01*
X5550Y641000D02*X6300Y640250D01*
Y642500D02*X7800D01*
X8550Y643250D01*
X11100Y644750D02*Y642500D01*
Y644750D02*X11850Y645500D01*
X12600D01*
X13350Y644750D01*
Y642500D01*
Y644750D02*X14100Y645500D01*
X14850D01*
X15600Y644750D01*
Y642500D01*
X10350Y645500D02*X11100Y644750D01*
X17400Y648500D02*Y642500D01*
Y643250D02*X18150Y642500D01*
X19650D01*
X20400Y643250D01*
Y644750D02*Y643250D01*
X19650Y645500D02*X20400Y644750D01*
X18150Y645500D02*X19650D01*
X17400Y644750D02*X18150Y645500D01*
X22200Y644750D02*Y643250D01*
Y644750D02*X22950Y645500D01*
X24450D01*
X25200Y644750D01*
Y643250D01*
X24450Y642500D02*X25200Y643250D01*
X22950Y642500D02*X24450D01*
X22200Y643250D02*X22950Y642500D01*
X27000Y648500D02*Y643250D01*
X27750Y642500D01*
X0Y639250D02*X29250D01*
X41750Y648500D02*Y642500D01*
X43700Y648500D02*X44750Y647450D01*
Y643550D01*
X43700Y642500D02*X44750Y643550D01*
X41000Y642500D02*X43700D01*
X41000Y648500D02*X43700D01*
G54D219*X46550Y647000D02*Y646850D01*
G54D218*Y644750D02*Y642500D01*
X50300Y645500D02*X51050Y644750D01*
X48800Y645500D02*X50300D01*
X48050Y644750D02*X48800Y645500D01*
X48050Y644750D02*Y643250D01*
X48800Y642500D01*
X51050Y645500D02*Y643250D01*
X51800Y642500D01*
X48800D02*X50300D01*
X51050Y643250D01*
X54350Y644750D02*Y642500D01*
Y644750D02*X55100Y645500D01*
X55850D01*
X56600Y644750D01*
Y642500D01*
Y644750D02*X57350Y645500D01*
X58100D01*
X58850Y644750D01*
Y642500D01*
X53600Y645500D02*X54350Y644750D01*
X60650Y642500D02*X61400D01*
X65900Y643250D02*X66650Y642500D01*
X65900Y647750D02*X66650Y648500D01*
X65900Y647750D02*Y643250D01*
X68450Y648500D02*X69950D01*
X69200D02*Y642500D01*
X68450D02*X69950D01*
X72500Y644750D02*Y642500D01*
Y644750D02*X73250Y645500D01*
X74000D01*
X74750Y644750D01*
Y642500D01*
X71750Y645500D02*X72500Y644750D01*
X77300Y645500D02*X79550D01*
X76550Y644750D02*X77300Y645500D01*
X76550Y644750D02*Y643250D01*
X77300Y642500D01*
X79550D01*
X81350Y648500D02*Y642500D01*
Y644750D02*X82100Y645500D01*
X83600D01*
X84350Y644750D01*
Y642500D01*
X86150Y648500D02*X86900Y647750D01*
Y643250D01*
X86150Y642500D02*X86900Y643250D01*
X41000Y639250D02*X88700D01*
X96050Y642500D02*X98000D01*
X95000Y643550D02*X96050Y642500D01*
X95000Y647450D02*Y643550D01*
Y647450D02*X96050Y648500D01*
X98000D01*
X99800Y644750D02*Y643250D01*
Y644750D02*X100550Y645500D01*
X102050D01*
X102800Y644750D01*
Y643250D01*
X102050Y642500D02*X102800Y643250D01*
X100550Y642500D02*X102050D01*
X99800Y643250D02*X100550Y642500D01*
X104600Y645500D02*Y643250D01*
X105350Y642500D01*
X106850D01*
X107600Y643250D01*
Y645500D02*Y643250D01*
X110150Y644750D02*Y642500D01*
Y644750D02*X110900Y645500D01*
X111650D01*
X112400Y644750D01*
Y642500D01*
X109400Y645500D02*X110150Y644750D01*
X114950Y648500D02*Y643250D01*
X115700Y642500D01*
X114200Y646250D02*X115700D01*
X95000Y639250D02*X117200D01*
X130750Y648500D02*Y642500D01*
X130000Y648500D02*X133000D01*
X133750Y647750D01*
Y646250D01*
X133000Y645500D02*X133750Y646250D01*
X130750Y645500D02*X133000D01*
X135550Y648500D02*Y643250D01*
X136300Y642500D01*
X140050Y645500D02*X140800Y644750D01*
X138550Y645500D02*X140050D01*
X137800Y644750D02*X138550Y645500D01*
X137800Y644750D02*Y643250D01*
X138550Y642500D01*
X140800Y645500D02*Y643250D01*
X141550Y642500D01*
X138550D02*X140050D01*
X140800Y643250D01*
X144100Y648500D02*Y643250D01*
X144850Y642500D01*
X143350Y646250D02*X144850D01*
X147100Y642500D02*X149350D01*
X146350Y643250D02*X147100Y642500D01*
X146350Y644750D02*Y643250D01*
Y644750D02*X147100Y645500D01*
X148600D01*
X149350Y644750D01*
X146350Y644000D02*X149350D01*
Y644750D02*Y644000D01*
X154150Y648500D02*Y642500D01*
X153400D02*X154150Y643250D01*
X151900Y642500D02*X153400D01*
X151150Y643250D02*X151900Y642500D01*
X151150Y644750D02*Y643250D01*
Y644750D02*X151900Y645500D01*
X153400D01*
X154150Y644750D01*
X157450Y645500D02*Y644750D01*
Y643250D02*Y642500D01*
X155950Y647750D02*Y647000D01*
Y647750D02*X156700Y648500D01*
X158200D01*
X158950Y647750D01*
Y647000D01*
X157450Y645500D02*X158950Y647000D01*
X130000Y639250D02*X160750D01*
X0Y663500D02*X3000D01*
X1500D02*Y657500D01*
X4800Y663500D02*Y657500D01*
Y659750D02*X5550Y660500D01*
X7050D01*
X7800Y659750D01*
Y657500D01*
X10350D02*X12600D01*
X9600Y658250D02*X10350Y657500D01*
X9600Y659750D02*Y658250D01*
Y659750D02*X10350Y660500D01*
X11850D01*
X12600Y659750D01*
X9600Y659000D02*X12600D01*
Y659750D02*Y659000D01*
X15150Y659750D02*Y657500D01*
Y659750D02*X15900Y660500D01*
X17400D01*
X14400D02*X15150Y659750D01*
X19950Y657500D02*X22200D01*
X19200Y658250D02*X19950Y657500D01*
X19200Y659750D02*Y658250D01*
Y659750D02*X19950Y660500D01*
X21450D01*
X22200Y659750D01*
X19200Y659000D02*X22200D01*
Y659750D02*Y659000D01*
X28950Y660500D02*X29700Y659750D01*
X27450Y660500D02*X28950D01*
X26700Y659750D02*X27450Y660500D01*
X26700Y659750D02*Y658250D01*
X27450Y657500D01*
X29700Y660500D02*Y658250D01*
X30450Y657500D01*
X27450D02*X28950D01*
X29700Y658250D01*
X33000Y659750D02*Y657500D01*
Y659750D02*X33750Y660500D01*
X35250D01*
X32250D02*X33000Y659750D01*
X37800Y657500D02*X40050D01*
X37050Y658250D02*X37800Y657500D01*
X37050Y659750D02*Y658250D01*
Y659750D02*X37800Y660500D01*
X39300D01*
X40050Y659750D01*
X37050Y659000D02*X40050D01*
Y659750D02*Y659000D01*
X45300Y657500D02*X47550Y660500D01*
Y662750D02*Y660500D01*
X46800Y663500D02*X47550Y662750D01*
X45300Y663500D02*X46800D01*
X44550Y662750D02*X45300Y663500D01*
X44550Y662750D02*Y661250D01*
X45300Y660500D01*
X47550D01*
X55050Y663500D02*Y657500D01*
X54300D02*X55050Y658250D01*
X52800Y657500D02*X54300D01*
X52050Y658250D02*X52800Y657500D01*
X52050Y659750D02*Y658250D01*
Y659750D02*X52800Y660500D01*
X54300D01*
X55050Y659750D01*
G54D219*X56850Y662000D02*Y661850D01*
G54D218*Y659750D02*Y657500D01*
X59100Y662750D02*Y657500D01*
Y662750D02*X59850Y663500D01*
X60600D01*
X58350Y660500D02*X59850D01*
X62850Y662750D02*Y657500D01*
Y662750D02*X63600Y663500D01*
X64350D01*
X62100Y660500D02*X63600D01*
X66600Y657500D02*X68850D01*
X65850Y658250D02*X66600Y657500D01*
X65850Y659750D02*Y658250D01*
Y659750D02*X66600Y660500D01*
X68100D01*
X68850Y659750D01*
X65850Y659000D02*X68850D01*
Y659750D02*Y659000D01*
X71400Y659750D02*Y657500D01*
Y659750D02*X72150Y660500D01*
X73650D01*
X70650D02*X71400Y659750D01*
X76200Y657500D02*X78450D01*
X75450Y658250D02*X76200Y657500D01*
X75450Y659750D02*Y658250D01*
Y659750D02*X76200Y660500D01*
X77700D01*
X78450Y659750D01*
X75450Y659000D02*X78450D01*
Y659750D02*Y659000D01*
X81000Y659750D02*Y657500D01*
Y659750D02*X81750Y660500D01*
X82500D01*
X83250Y659750D01*
Y657500D01*
X80250Y660500D02*X81000Y659750D01*
X85800Y663500D02*Y658250D01*
X86550Y657500D01*
X85050Y661250D02*X86550D01*
X93750Y663500D02*Y657500D01*
X93000D02*X93750Y658250D01*
X91500Y657500D02*X93000D01*
X90750Y658250D02*X91500Y657500D01*
X90750Y659750D02*Y658250D01*
Y659750D02*X91500Y660500D01*
X93000D01*
X93750Y659750D01*
X96300D02*Y657500D01*
Y659750D02*X97050Y660500D01*
X98550D01*
X95550D02*X96300Y659750D01*
G54D219*X100350Y662000D02*Y661850D01*
G54D218*Y659750D02*Y657500D01*
X101850Y663500D02*Y658250D01*
X102600Y657500D01*
X104100Y663500D02*Y658250D01*
X104850Y657500D01*
X109800D02*X112050D01*
X112800Y658250D01*
X112050Y659000D02*X112800Y658250D01*
X109800Y659000D02*X112050D01*
X109050Y659750D02*X109800Y659000D01*
X109050Y659750D02*X109800Y660500D01*
X112050D01*
X112800Y659750D01*
X109050Y658250D02*X109800Y657500D01*
G54D219*X114600Y662000D02*Y661850D01*
G54D218*Y659750D02*Y657500D01*
X116100Y660500D02*X119100D01*
X116100Y657500D02*X119100Y660500D01*
X116100Y657500D02*X119100D01*
X121650D02*X123900D01*
X120900Y658250D02*X121650Y657500D01*
X120900Y659750D02*Y658250D01*
Y659750D02*X121650Y660500D01*
X123150D01*
X123900Y659750D01*
X120900Y659000D02*X123900D01*
Y659750D02*Y659000D01*
X126450Y657500D02*X128700D01*
X129450Y658250D01*
X128700Y659000D02*X129450Y658250D01*
X126450Y659000D02*X128700D01*
X125700Y659750D02*X126450Y659000D01*
X125700Y659750D02*X126450Y660500D01*
X128700D01*
X129450Y659750D01*
X125700Y658250D02*X126450Y657500D01*
X133950Y660500D02*Y658250D01*
X134700Y657500D01*
X136200D01*
X136950Y658250D01*
Y660500D02*Y658250D01*
X139500Y657500D02*X141750D01*
X142500Y658250D01*
X141750Y659000D02*X142500Y658250D01*
X139500Y659000D02*X141750D01*
X138750Y659750D02*X139500Y659000D01*
X138750Y659750D02*X139500Y660500D01*
X141750D01*
X142500Y659750D01*
X138750Y658250D02*X139500Y657500D01*
X145050D02*X147300D01*
X144300Y658250D02*X145050Y657500D01*
X144300Y659750D02*Y658250D01*
Y659750D02*X145050Y660500D01*
X146550D01*
X147300Y659750D01*
X144300Y659000D02*X147300D01*
Y659750D02*Y659000D01*
X152100Y663500D02*Y657500D01*
X151350D02*X152100Y658250D01*
X149850Y657500D02*X151350D01*
X149100Y658250D02*X149850Y657500D01*
X149100Y659750D02*Y658250D01*
Y659750D02*X149850Y660500D01*
X151350D01*
X152100Y659750D01*
G54D219*X156600Y662000D02*Y661850D01*
G54D218*Y659750D02*Y657500D01*
X158850Y659750D02*Y657500D01*
Y659750D02*X159600Y660500D01*
X160350D01*
X161100Y659750D01*
Y657500D01*
X158100Y660500D02*X158850Y659750D01*
X166350Y663500D02*Y658250D01*
X167100Y657500D01*
X165600Y661250D02*X167100D01*
X168600Y663500D02*Y657500D01*
Y659750D02*X169350Y660500D01*
X170850D01*
X171600Y659750D01*
Y657500D01*
G54D219*X173400Y662000D02*Y661850D01*
G54D218*Y659750D02*Y657500D01*
X175650D02*X177900D01*
X178650Y658250D01*
X177900Y659000D02*X178650Y658250D01*
X175650Y659000D02*X177900D01*
X174900Y659750D02*X175650Y659000D01*
X174900Y659750D02*X175650Y660500D01*
X177900D01*
X178650Y659750D01*
X174900Y658250D02*X175650Y657500D01*
X183150Y663500D02*Y658250D01*
X183900Y657500D01*
X187650Y660500D02*X188400Y659750D01*
X186150Y660500D02*X187650D01*
X185400Y659750D02*X186150Y660500D01*
X185400Y659750D02*Y658250D01*
X186150Y657500D01*
X188400Y660500D02*Y658250D01*
X189150Y657500D01*
X186150D02*X187650D01*
X188400Y658250D01*
X190950Y660500D02*Y658250D01*
X191700Y657500D01*
X193950Y660500D02*Y656000D01*
X193200Y655250D02*X193950Y656000D01*
X191700Y655250D02*X193200D01*
X190950Y656000D02*X191700Y655250D01*
Y657500D02*X193200D01*
X193950Y658250D01*
X195750Y659750D02*Y658250D01*
Y659750D02*X196500Y660500D01*
X198000D01*
X198750Y659750D01*
Y658250D01*
X198000Y657500D02*X198750Y658250D01*
X196500Y657500D02*X198000D01*
X195750Y658250D02*X196500Y657500D01*
X200550Y660500D02*Y658250D01*
X201300Y657500D01*
X202800D01*
X203550Y658250D01*
Y660500D02*Y658250D01*
X206100Y663500D02*Y658250D01*
X206850Y657500D01*
X205350Y661250D02*X206850D01*
X208350Y656000D02*X209850Y657500D01*
X214350Y662750D02*X215100Y663500D01*
X217350D01*
X218100Y662750D01*
Y661250D01*
X214350Y657500D02*X218100Y661250D01*
X214350Y657500D02*X218100D01*
X219900Y658250D02*X220650Y657500D01*
X219900Y659450D02*Y658250D01*
Y659450D02*X220950Y660500D01*
X221850D01*
X222900Y659450D01*
Y658250D01*
X222150Y657500D02*X222900Y658250D01*
X220650Y657500D02*X222150D01*
X219900Y661550D02*X220950Y660500D01*
X219900Y662750D02*Y661550D01*
Y662750D02*X220650Y663500D01*
X222150D01*
X222900Y662750D01*
Y661550D01*
X221850Y660500D02*X222900Y661550D01*
X224700Y658250D02*X225450Y657500D01*
X224700Y662750D02*Y658250D01*
Y662750D02*X225450Y663500D01*
X226950D01*
X227700Y662750D01*
Y658250D01*
X226950Y657500D02*X227700Y658250D01*
X225450Y657500D02*X226950D01*
X224700Y659000D02*X227700Y662000D01*
X232200Y663500D02*Y657500D01*
Y659750D02*X232950Y660500D01*
X234450D01*
X235200Y659750D01*
Y657500D01*
X237000Y659750D02*Y658250D01*
Y659750D02*X237750Y660500D01*
X239250D01*
X240000Y659750D01*
Y658250D01*
X239250Y657500D02*X240000Y658250D01*
X237750Y657500D02*X239250D01*
X237000Y658250D02*X237750Y657500D01*
X241800Y663500D02*Y658250D01*
X242550Y657500D01*
X244800D02*X247050D01*
X244050Y658250D02*X244800Y657500D01*
X244050Y659750D02*Y658250D01*
Y659750D02*X244800Y660500D01*
X246300D01*
X247050Y659750D01*
X244050Y659000D02*X247050D01*
Y659750D02*Y659000D01*
X249600Y657500D02*X251850D01*
X252600Y658250D01*
X251850Y659000D02*X252600Y658250D01*
X249600Y659000D02*X251850D01*
X248850Y659750D02*X249600Y659000D01*
X248850Y659750D02*X249600Y660500D01*
X251850D01*
X252600Y659750D01*
X248850Y658250D02*X249600Y657500D01*
X257850Y663500D02*Y658250D01*
X258600Y657500D01*
X257100Y661250D02*X258600D01*
X260100Y659750D02*Y658250D01*
Y659750D02*X260850Y660500D01*
X262350D01*
X263100Y659750D01*
Y658250D01*
X262350Y657500D02*X263100Y658250D01*
X260850Y657500D02*X262350D01*
X260100Y658250D02*X260850Y657500D01*
X265650Y663500D02*Y658250D01*
X266400Y657500D01*
X264900Y661250D02*X266400D01*
X270150Y660500D02*X270900Y659750D01*
X268650Y660500D02*X270150D01*
X267900Y659750D02*X268650Y660500D01*
X267900Y659750D02*Y658250D01*
X268650Y657500D01*
X270900Y660500D02*Y658250D01*
X271650Y657500D01*
X268650D02*X270150D01*
X270900Y658250D01*
X273450Y663500D02*Y658250D01*
X274200Y657500D01*
G54D220*X714000Y390000D02*Y202000D01*
X131000Y392500D02*X711500D01*
X131000Y199500D02*X711500D01*
X128500Y390000D02*Y202000D01*
X711500Y392500D02*G75*G02X714000Y390000I0J-2500D01*G01*
Y202000D02*G75*G02X711500Y199500I-2500J0D01*G01*
X128500Y390000D02*G75*G02X131000Y392500I2500J0D01*G01*
Y199500D02*G75*G02X128500Y202000I0J2500D01*G01*
G54D218*X363675Y-9500D02*X366675D01*
X367425Y-8750D01*
Y-6950D02*Y-8750D01*
X366675Y-6200D02*X367425Y-6950D01*
X364425Y-6200D02*X366675D01*
X364425Y-3500D02*Y-9500D01*
X363675Y-3500D02*X366675D01*
X367425Y-4250D01*
Y-5450D01*
X366675Y-6200D02*X367425Y-5450D01*
X369225Y-7250D02*Y-8750D01*
Y-7250D02*X369975Y-6500D01*
X371475D01*
X372225Y-7250D01*
Y-8750D01*
X371475Y-9500D02*X372225Y-8750D01*
X369975Y-9500D02*X371475D01*
X369225Y-8750D02*X369975Y-9500D01*
X376275Y-6500D02*X377025Y-7250D01*
X374775Y-6500D02*X376275D01*
X374025Y-7250D02*X374775Y-6500D01*
X374025Y-7250D02*Y-8750D01*
X374775Y-9500D01*
X377025Y-6500D02*Y-8750D01*
X377775Y-9500D01*
X374775D02*X376275D01*
X377025Y-8750D01*
X380325Y-7250D02*Y-9500D01*
Y-7250D02*X381075Y-6500D01*
X382575D01*
X379575D02*X380325Y-7250D01*
X387375Y-3500D02*Y-9500D01*
X386625D02*X387375Y-8750D01*
X385125Y-9500D02*X386625D01*
X384375Y-8750D02*X385125Y-9500D01*
X384375Y-7250D02*Y-8750D01*
Y-7250D02*X385125Y-6500D01*
X386625D01*
X387375Y-7250D01*
X391875D02*Y-8750D01*
Y-7250D02*X392625Y-6500D01*
X394125D01*
X394875Y-7250D01*
Y-8750D01*
X394125Y-9500D02*X394875Y-8750D01*
X392625Y-9500D02*X394125D01*
X391875Y-8750D02*X392625Y-9500D01*
X396675Y-6500D02*Y-8750D01*
X397425Y-9500D01*
X398925D01*
X399675Y-8750D01*
Y-6500D02*Y-8750D01*
X402225Y-3500D02*Y-8750D01*
X402975Y-9500D01*
X401475Y-5750D02*X402975D01*
X404475Y-3500D02*Y-8750D01*
X405225Y-9500D01*
G54D219*X406725Y-5000D02*Y-5150D01*
G54D218*Y-7250D02*Y-9500D01*
X408975Y-7250D02*Y-9500D01*
Y-7250D02*X409725Y-6500D01*
X410475D01*
X411225Y-7250D01*
Y-9500D01*
X408225Y-6500D02*X408975Y-7250D01*
X413775Y-9500D02*X416025D01*
X413025Y-8750D02*X413775Y-9500D01*
X413025Y-7250D02*Y-8750D01*
Y-7250D02*X413775Y-6500D01*
X415275D01*
X416025Y-7250D01*
X413025Y-8000D02*X416025D01*
Y-7250D02*Y-8000D01*
G54D219*X420525Y-5000D02*Y-5150D01*
G54D218*Y-7250D02*Y-9500D01*
X422775D02*X425025D01*
X425775Y-8750D01*
X425025Y-8000D02*X425775Y-8750D01*
X422775Y-8000D02*X425025D01*
X422025Y-7250D02*X422775Y-8000D01*
X422025Y-7250D02*X422775Y-6500D01*
X425025D01*
X425775Y-7250D01*
X422025Y-8750D02*X422775Y-9500D01*
X431025Y-3500D02*Y-8750D01*
X431775Y-9500D01*
X430275Y-5750D02*X431775D01*
X433275Y-3500D02*Y-9500D01*
Y-7250D02*X434025Y-6500D01*
X435525D01*
X436275Y-7250D01*
Y-9500D01*
X438825D02*X441075D01*
X438075Y-8750D02*X438825Y-9500D01*
X438075Y-7250D02*Y-8750D01*
Y-7250D02*X438825Y-6500D01*
X440325D01*
X441075Y-7250D01*
X438075Y-8000D02*X441075D01*
Y-7250D02*Y-8000D01*
X446325Y-6500D02*X448575D01*
X445575Y-7250D02*X446325Y-6500D01*
X445575Y-7250D02*Y-8750D01*
X446325Y-9500D01*
X448575D01*
X451125D02*X453375D01*
X450375Y-8750D02*X451125Y-9500D01*
X450375Y-7250D02*Y-8750D01*
Y-7250D02*X451125Y-6500D01*
X452625D01*
X453375Y-7250D01*
X450375Y-8000D02*X453375D01*
Y-7250D02*Y-8000D01*
X455925Y-7250D02*Y-9500D01*
Y-7250D02*X456675Y-6500D01*
X457425D01*
X458175Y-7250D01*
Y-9500D01*
X455175Y-6500D02*X455925Y-7250D01*
X460725Y-3500D02*Y-8750D01*
X461475Y-9500D01*
X459975Y-5750D02*X461475D01*
X463725Y-9500D02*X465975D01*
X462975Y-8750D02*X463725Y-9500D01*
X462975Y-7250D02*Y-8750D01*
Y-7250D02*X463725Y-6500D01*
X465225D01*
X465975Y-7250D01*
X462975Y-8000D02*X465975D01*
Y-7250D02*Y-8000D01*
X468525Y-7250D02*Y-9500D01*
Y-7250D02*X469275Y-6500D01*
X470775D01*
X467775D02*X468525Y-7250D01*
X472575Y-3500D02*Y-8750D01*
X473325Y-9500D01*
G54D219*X474825Y-5000D02*Y-5150D01*
G54D218*Y-7250D02*Y-9500D01*
X477075Y-7250D02*Y-9500D01*
Y-7250D02*X477825Y-6500D01*
X478575D01*
X479325Y-7250D01*
Y-9500D01*
X476325Y-6500D02*X477075Y-7250D01*
X481875Y-9500D02*X484125D01*
X481125Y-8750D02*X481875Y-9500D01*
X481125Y-7250D02*Y-8750D01*
Y-7250D02*X481875Y-6500D01*
X483375D01*
X484125Y-7250D01*
X481125Y-8000D02*X484125D01*
Y-7250D02*Y-8000D01*
X488625Y-7250D02*Y-8750D01*
Y-7250D02*X489375Y-6500D01*
X490875D01*
X491625Y-7250D01*
Y-8750D01*
X490875Y-9500D02*X491625Y-8750D01*
X489375Y-9500D02*X490875D01*
X488625Y-8750D02*X489375Y-9500D01*
X494175Y-4250D02*Y-9500D01*
Y-4250D02*X494925Y-3500D01*
X495675D01*
X493425Y-6500D02*X494925D01*
X500625Y-3500D02*Y-8750D01*
X501375Y-9500D01*
X499875Y-5750D02*X501375D01*
X502875Y-3500D02*Y-9500D01*
Y-7250D02*X503625Y-6500D01*
X505125D01*
X505875Y-7250D01*
Y-9500D01*
G54D219*X507675Y-5000D02*Y-5150D01*
G54D218*Y-7250D02*Y-9500D01*
X509925D02*X512175D01*
X512925Y-8750D01*
X512175Y-8000D02*X512925Y-8750D01*
X509925Y-8000D02*X512175D01*
X509175Y-7250D02*X509925Y-8000D01*
X509175Y-7250D02*X509925Y-6500D01*
X512175D01*
X512925Y-7250D01*
X509175Y-8750D02*X509925Y-9500D01*
X518175Y-7250D02*Y-11750D01*
X517425Y-6500D02*X518175Y-7250D01*
X518925Y-6500D01*
X520425D01*
X521175Y-7250D01*
Y-8750D01*
X520425Y-9500D02*X521175Y-8750D01*
X518925Y-9500D02*X520425D01*
X518175Y-8750D02*X518925Y-9500D01*
X525225Y-6500D02*X525975Y-7250D01*
X523725Y-6500D02*X525225D01*
X522975Y-7250D02*X523725Y-6500D01*
X522975Y-7250D02*Y-8750D01*
X523725Y-9500D01*
X525975Y-6500D02*Y-8750D01*
X526725Y-9500D01*
X523725D02*X525225D01*
X525975Y-8750D01*
X529275Y-3500D02*Y-8750D01*
X530025Y-9500D01*
X528525Y-5750D02*X530025D01*
X531525Y-3500D02*Y-9500D01*
Y-7250D02*X532275Y-6500D01*
X533775D01*
X534525Y-7250D01*
Y-9500D01*
X200750Y528500D02*Y522500D01*
X202700Y528500D02*X203750Y527450D01*
Y523550D01*
X202700Y522500D02*X203750Y523550D01*
X200000Y522500D02*X202700D01*
X200000Y528500D02*X202700D01*
X207800Y525500D02*X208550Y524750D01*
X206300Y525500D02*X207800D01*
X205550Y524750D02*X206300Y525500D01*
X205550Y524750D02*Y523250D01*
X206300Y522500D01*
X208550Y525500D02*Y523250D01*
X209300Y522500D01*
X206300D02*X207800D01*
X208550Y523250D01*
X211850Y528500D02*Y523250D01*
X212600Y522500D01*
X211100Y526250D02*X212600D01*
X214850Y522500D02*X217100D01*
X214100Y523250D02*X214850Y522500D01*
X214100Y524750D02*Y523250D01*
Y524750D02*X214850Y525500D01*
X216350D01*
X217100Y524750D01*
X214100Y524000D02*X217100D01*
Y524750D02*Y524000D01*
X218900Y526250D02*X219650D01*
X218900Y524750D02*X219650D01*
X224150Y528500D02*Y525500D01*
X224900Y522500D01*
X226400Y525500D01*
X227900Y522500D01*
X228650Y525500D01*
Y528500D02*Y525500D01*
X231200Y522500D02*X233450D01*
X230450Y523250D02*X231200Y522500D01*
X230450Y524750D02*Y523250D01*
Y524750D02*X231200Y525500D01*
X232700D01*
X233450Y524750D01*
X230450Y524000D02*X233450D01*
Y524750D02*Y524000D01*
X238250Y528500D02*Y522500D01*
X237500D02*X238250Y523250D01*
X236000Y522500D02*X237500D01*
X235250Y523250D02*X236000Y522500D01*
X235250Y524750D02*Y523250D01*
Y524750D02*X236000Y525500D01*
X237500D01*
X238250Y524750D01*
X242750Y527300D02*X243950Y528500D01*
Y522500D01*
X242750D02*X245000D01*
X249050Y528500D02*X249800Y527750D01*
X247550Y528500D02*X249050D01*
X246800Y527750D02*X247550Y528500D01*
X246800Y527750D02*Y523250D01*
X247550Y522500D01*
X249050Y525800D02*X249800Y525050D01*
X246800Y525800D02*X249050D01*
X247550Y522500D02*X249050D01*
X249800Y523250D01*
Y525050D02*Y523250D01*
X255350Y528500D02*X256550D01*
Y523250D01*
X255800Y522500D02*X256550Y523250D01*
X255050Y522500D02*X255800D01*
X254300Y523250D02*X255050Y522500D01*
X254300Y524000D02*Y523250D01*
X260600Y525500D02*X261350Y524750D01*
X259100Y525500D02*X260600D01*
X258350Y524750D02*X259100Y525500D01*
X258350Y524750D02*Y523250D01*
X259100Y522500D01*
X261350Y525500D02*Y523250D01*
X262100Y522500D01*
X259100D02*X260600D01*
X261350Y523250D01*
X264650Y524750D02*Y522500D01*
Y524750D02*X265400Y525500D01*
X266150D01*
X266900Y524750D01*
Y522500D01*
X263900Y525500D02*X264650Y524750D01*
X271400Y527750D02*X272150Y528500D01*
X274400D01*
X275150Y527750D01*
Y526250D01*
X271400Y522500D02*X275150Y526250D01*
X271400Y522500D02*X275150D01*
X276950Y523250D02*X277700Y522500D01*
X276950Y527750D02*Y523250D01*
Y527750D02*X277700Y528500D01*
X279200D01*
X279950Y527750D01*
Y523250D01*
X279200Y522500D02*X279950Y523250D01*
X277700Y522500D02*X279200D01*
X276950Y524000D02*X279950Y527000D01*
X281750Y527300D02*X282950Y528500D01*
Y522500D01*
X281750D02*X284000D01*
X286550D02*X288800Y525500D01*
Y527750D02*Y525500D01*
X288050Y528500D02*X288800Y527750D01*
X286550Y528500D02*X288050D01*
X285800Y527750D02*X286550Y528500D01*
X285800Y527750D02*Y526250D01*
X286550Y525500D01*
X288800D01*
X293300Y523250D02*X294050Y522500D01*
X293300Y527750D02*Y523250D01*
Y527750D02*X294050Y528500D01*
X295550D01*
X296300Y527750D01*
Y523250D01*
X295550Y522500D02*X296300Y523250D01*
X294050Y522500D02*X295550D01*
X293300Y524000D02*X296300Y527000D01*
X298850Y522500D02*X301850Y528500D01*
X298100D02*X301850D01*
X303650Y526250D02*X304400D01*
X303650Y524750D02*X304400D01*
X306200Y528500D02*X309200D01*
X306200D02*Y525500D01*
X306950Y526250D01*
X308450D01*
X309200Y525500D01*
Y523250D01*
X308450Y522500D02*X309200Y523250D01*
X306950Y522500D02*X308450D01*
X306200Y523250D02*X306950Y522500D01*
X311000Y523250D02*X311750Y522500D01*
X311000Y527750D02*Y523250D01*
Y527750D02*X311750Y528500D01*
X313250D01*
X314000Y527750D01*
Y523250D01*
X313250Y522500D02*X314000Y523250D01*
X311750Y522500D02*X313250D01*
X311000Y524000D02*X314000Y527000D01*
X315800Y526250D02*X316550D01*
X315800Y524750D02*X316550D01*
X318350Y527750D02*X319100Y528500D01*
X320600D01*
X321350Y527750D01*
X320600Y522500D02*X321350Y523250D01*
X319100Y522500D02*X320600D01*
X318350Y523250D02*X319100Y522500D01*
Y525800D02*X320600D01*
X321350Y527750D02*Y526550D01*
Y525050D02*Y523250D01*
Y525050D02*X320600Y525800D01*
X321350Y526550D02*X320600Y525800D01*
X323150Y524750D02*X326150Y528500D01*
X323150Y524750D02*X326900D01*
X326150Y528500D02*Y522500D01*
X331400Y527000D02*Y522500D01*
Y527000D02*X332450Y528500D01*
X334100D01*
X335150Y527000D01*
Y522500D01*
X331400Y525500D02*X335150D01*
X336950Y528500D02*Y522500D01*
Y528500D02*X339200Y525500D01*
X341450Y528500D01*
Y522500D01*
X348950Y528500D02*X349700Y527750D01*
X346700Y528500D02*X348950D01*
X345950Y527750D02*X346700Y528500D01*
X345950Y527750D02*Y523250D01*
X346700Y522500D01*
X348950D01*
X349700Y523250D01*
Y524750D02*Y523250D01*
X348950Y525500D02*X349700Y524750D01*
X347450Y525500D02*X348950D01*
X351500Y528500D02*Y522500D01*
Y528500D02*X353750Y525500D01*
X356000Y528500D01*
Y522500D01*
X357800Y528500D02*X360800D01*
X359300D02*Y522500D01*
X365300Y528500D02*Y523250D01*
X366050Y522500D01*
X367550D01*
X368300Y523250D01*
Y528500D02*Y523250D01*
X370100Y528500D02*X373100D01*
X371600D02*Y522500D01*
X375950D02*X377900D01*
X374900Y523550D02*X375950Y522500D01*
X374900Y527450D02*Y523550D01*
Y527450D02*X375950Y528500D01*
X377900D01*
X200000Y542000D02*Y537500D01*
Y542000D02*X201050Y543500D01*
X202700D01*
X203750Y542000D01*
Y537500D01*
X200000Y540500D02*X203750D01*
X205550D02*Y538250D01*
X206300Y537500D01*
X207800D01*
X208550Y538250D01*
Y540500D02*Y538250D01*
X211100Y543500D02*Y538250D01*
X211850Y537500D01*
X210350Y541250D02*X211850D01*
X213350Y543500D02*Y537500D01*
Y539750D02*X214100Y540500D01*
X215600D01*
X216350Y539750D01*
Y537500D01*
X218150Y539750D02*Y538250D01*
Y539750D02*X218900Y540500D01*
X220400D01*
X221150Y539750D01*
Y538250D01*
X220400Y537500D02*X221150Y538250D01*
X218900Y537500D02*X220400D01*
X218150Y538250D02*X218900Y537500D01*
X223700Y539750D02*Y537500D01*
Y539750D02*X224450Y540500D01*
X225950D01*
X222950D02*X223700Y539750D01*
X227750Y541250D02*X228500D01*
X227750Y539750D02*X228500D01*
X233000Y537500D02*X236000D01*
X236750Y538250D01*
Y540050D02*Y538250D01*
X236000Y540800D02*X236750Y540050D01*
X233750Y540800D02*X236000D01*
X233750Y543500D02*Y537500D01*
X233000Y543500D02*X236000D01*
X236750Y542750D01*
Y541550D01*
X236000Y540800D02*X236750Y541550D01*
X239300Y539750D02*Y537500D01*
Y539750D02*X240050Y540500D01*
X241550D01*
X238550D02*X239300Y539750D01*
G54D219*X243350Y542000D02*Y541850D01*
G54D218*Y539750D02*Y537500D01*
X247100Y540500D02*X247850Y539750D01*
X245600Y540500D02*X247100D01*
X244850Y539750D02*X245600Y540500D01*
X244850Y539750D02*Y538250D01*
X245600Y537500D01*
X247850Y540500D02*Y538250D01*
X248600Y537500D01*
X245600D02*X247100D01*
X247850Y538250D01*
X251150Y539750D02*Y537500D01*
Y539750D02*X251900Y540500D01*
X252650D01*
X253400Y539750D01*
Y537500D01*
X250400Y540500D02*X251150Y539750D01*
X260900Y543500D02*X261650Y542750D01*
X258650Y543500D02*X260900D01*
X257900Y542750D02*X258650Y543500D01*
X257900Y542750D02*Y541250D01*
X258650Y540500D01*
X260900D01*
X261650Y539750D01*
Y538250D01*
X260900Y537500D02*X261650Y538250D01*
X258650Y537500D02*X260900D01*
X257900Y538250D02*X258650Y537500D01*
G54D219*X263450Y542000D02*Y541850D01*
G54D218*Y539750D02*Y537500D01*
X264950Y543500D02*Y538250D01*
X265700Y537500D01*
X267200Y540500D02*X268700Y537500D01*
X270200Y540500D02*X268700Y537500D01*
X272750D02*X275000D01*
X272000Y538250D02*X272750Y537500D01*
X272000Y539750D02*Y538250D01*
Y539750D02*X272750Y540500D01*
X274250D01*
X275000Y539750D01*
X272000Y539000D02*X275000D01*
Y539750D02*Y539000D01*
X277550Y539750D02*Y537500D01*
Y539750D02*X278300Y540500D01*
X279800D01*
X276800D02*X277550Y539750D01*
X282350D02*Y537500D01*
Y539750D02*X283100Y540500D01*
X283850D01*
X284600Y539750D01*
Y537500D01*
Y539750D02*X285350Y540500D01*
X286100D01*
X286850Y539750D01*
Y537500D01*
X281600Y540500D02*X282350Y539750D01*
X290900Y540500D02*X291650Y539750D01*
X289400Y540500D02*X290900D01*
X288650Y539750D02*X289400Y540500D01*
X288650Y539750D02*Y538250D01*
X289400Y537500D01*
X291650Y540500D02*Y538250D01*
X292400Y537500D01*
X289400D02*X290900D01*
X291650Y538250D01*
X294950Y539750D02*Y537500D01*
Y539750D02*X295700Y540500D01*
X296450D01*
X297200Y539750D01*
Y537500D01*
X294200Y540500D02*X294950Y539750D01*
X200000Y558500D02*X203000D01*
X201500D02*Y552500D01*
G54D219*X204800Y557000D02*Y556850D01*
G54D218*Y554750D02*Y552500D01*
X207050Y558500D02*Y553250D01*
X207800Y552500D01*
X206300Y556250D02*X207800D01*
X209300Y558500D02*Y553250D01*
X210050Y552500D01*
X212300D02*X214550D01*
X211550Y553250D02*X212300Y552500D01*
X211550Y554750D02*Y553250D01*
Y554750D02*X212300Y555500D01*
X213800D01*
X214550Y554750D01*
X211550Y554000D02*X214550D01*
Y554750D02*Y554000D01*
X216350Y556250D02*X217100D01*
X216350Y554750D02*X217100D01*
X221600Y555500D02*Y553250D01*
X222350Y552500D01*
X223850D01*
X224600Y553250D01*
Y555500D02*Y553250D01*
X228650Y555500D02*X229400Y554750D01*
X227150Y555500D02*X228650D01*
X226400Y554750D02*X227150Y555500D01*
X226400Y554750D02*Y553250D01*
X227150Y552500D01*
X229400Y555500D02*Y553250D01*
X230150Y552500D01*
X227150D02*X228650D01*
X229400Y553250D01*
X232700Y554750D02*Y552500D01*
Y554750D02*X233450Y555500D01*
X234950D01*
X231950D02*X232700Y554750D01*
X237500Y558500D02*Y553250D01*
X238250Y552500D01*
X236750Y556250D02*X238250D01*
X242450Y555500D02*X245450D01*
X249950Y558500D02*Y552500D01*
Y558500D02*X252950D01*
X249950Y555800D02*X252200D01*
X257000Y555500D02*X257750Y554750D01*
X255500Y555500D02*X257000D01*
X254750Y554750D02*X255500Y555500D01*
X254750Y554750D02*Y553250D01*
X255500Y552500D01*
X257750Y555500D02*Y553250D01*
X258500Y552500D01*
X255500D02*X257000D01*
X257750Y553250D01*
X260300Y558500D02*Y552500D01*
Y553250D02*X261050Y552500D01*
X262550D01*
X263300Y553250D01*
Y554750D02*Y553250D01*
X262550Y555500D02*X263300Y554750D01*
X261050Y555500D02*X262550D01*
X260300Y554750D02*X261050Y555500D01*
X265850Y554750D02*Y552500D01*
Y554750D02*X266600Y555500D01*
X268100D01*
X265100D02*X265850Y554750D01*
G54D219*X269900Y557000D02*Y556850D01*
G54D218*Y554750D02*Y552500D01*
X272150Y555500D02*X274400D01*
X271400Y554750D02*X272150Y555500D01*
X271400Y554750D02*Y553250D01*
X272150Y552500D01*
X274400D01*
X278450Y555500D02*X279200Y554750D01*
X276950Y555500D02*X278450D01*
X276200Y554750D02*X276950Y555500D01*
X276200Y554750D02*Y553250D01*
X276950Y552500D01*
X279200Y555500D02*Y553250D01*
X279950Y552500D01*
X276950D02*X278450D01*
X279200Y553250D01*
X282500Y558500D02*Y553250D01*
X283250Y552500D01*
X281750Y556250D02*X283250D01*
G54D219*X284750Y557000D02*Y556850D01*
G54D218*Y554750D02*Y552500D01*
X286250Y554750D02*Y553250D01*
Y554750D02*X287000Y555500D01*
X288500D01*
X289250Y554750D01*
Y553250D01*
X288500Y552500D02*X289250Y553250D01*
X287000Y552500D02*X288500D01*
X286250Y553250D02*X287000Y552500D01*
X291800Y554750D02*Y552500D01*
Y554750D02*X292550Y555500D01*
X293300D01*
X294050Y554750D01*
Y552500D01*
X291050Y555500D02*X291800Y554750D01*
X299300Y558500D02*Y552500D01*
X301250Y558500D02*X302300Y557450D01*
Y553550D01*
X301250Y552500D02*X302300Y553550D01*
X298550Y552500D02*X301250D01*
X298550Y558500D02*X301250D01*
X304850Y554750D02*Y552500D01*
Y554750D02*X305600Y555500D01*
X307100D01*
X304100D02*X304850Y554750D01*
X311150Y555500D02*X311900Y554750D01*
X309650Y555500D02*X311150D01*
X308900Y554750D02*X309650Y555500D01*
X308900Y554750D02*Y553250D01*
X309650Y552500D01*
X311900Y555500D02*Y553250D01*
X312650Y552500D01*
X309650D02*X311150D01*
X311900Y553250D01*
X314450Y555500D02*Y553250D01*
X315200Y552500D01*
X315950D01*
X316700Y553250D01*
Y555500D02*Y553250D01*
X317450Y552500D01*
X318200D01*
X318950Y553250D01*
Y555500D02*Y553250D01*
G54D219*X320750Y557000D02*Y556850D01*
G54D218*Y554750D02*Y552500D01*
X323000Y554750D02*Y552500D01*
Y554750D02*X323750Y555500D01*
X324500D01*
X325250Y554750D01*
Y552500D01*
X322250Y555500D02*X323000Y554750D01*
X329300Y555500D02*X330050Y554750D01*
X327800Y555500D02*X329300D01*
X327050Y554750D02*X327800Y555500D01*
X327050Y554750D02*Y553250D01*
X327800Y552500D01*
X329300D01*
X330050Y553250D01*
X327050Y551000D02*X327800Y550250D01*
X329300D01*
X330050Y551000D01*
Y555500D02*Y551000D01*
M02*
