M48
INCH
T132C0.025
T131C0.020
T130C0.129
T129C0.215
T128C0.012
%
T128
X022810Y044617
X022810Y044145
X022810Y043672
X022810Y043200
X022810Y042728
X022810Y042255
X022810Y041783
X022810Y038467
X022810Y037995
X022810Y037522
X022810Y037050
X022810Y036578
X022810Y036105
X022810Y035633
X022810Y023667
X022810Y023195
X022810Y022722
X022810Y022250
X022810Y021778
X022810Y021305
X022810Y020833
X022810Y017517
X022810Y017045
X022810Y016572
X022810Y016100
X022810Y015628
X022810Y015155
X022810Y014683
X022810Y013117
X022810Y012645
X022810Y012172
X022810Y011700
X022810Y011228
X022810Y010755
X022810Y010283
X022810Y006967
X022810Y006495
X022810Y006022
X022810Y005550
X022810Y005078
X022810Y004605
X022810Y004133
X023282Y044617
X023282Y044145
X023282Y043672
X023282Y043200
X023282Y042728
X023282Y042255
X023282Y041783
X023282Y038467
X023282Y037995
X023282Y037522
X023282Y037050
X023282Y036578
X023282Y036105
X023282Y035633
X023282Y023667
X023282Y023195
X023282Y022722
X023282Y022250
X023282Y021778
X023282Y021305
X023282Y020833
X023282Y017517
X023282Y017045
X023282Y016572
X023282Y016100
X023282Y015628
X023282Y015155
X023282Y014683
X023282Y013117
X023282Y012645
X023282Y012172
X023282Y011700
X023282Y011228
X023282Y010755
X023282Y010283
X023282Y006967
X023282Y006495
X023282Y006022
X023282Y005550
X023282Y005078
X023282Y004605
X023282Y004133
X023754Y044617
X023754Y044145
X023754Y043672
X023754Y043200
X023754Y042728
X023754Y042255
X023754Y041783
X023754Y038467
X023754Y037995
X023754Y037522
X023754Y037050
X023754Y036578
X023754Y036105
X023754Y035633
X023754Y023667
X023754Y023195
X023754Y022722
X023754Y022250
X023754Y021778
X023754Y021305
X023754Y020833
X023754Y017517
X023754Y017045
X023754Y016572
X023754Y016100
X023754Y015628
X023754Y015155
X023754Y014683
X023754Y013117
X023754Y012645
X023754Y012172
X023754Y011700
X023754Y011228
X023754Y010755
X023754Y010283
X023754Y006967
X023754Y006495
X023754Y006022
X023754Y005550
X023754Y005078
X023754Y004605
X023754Y004133
X024227Y044617
X024227Y044145
X024227Y043672
X024227Y043200
X024227Y042728
X024227Y042255
X024227Y041783
X024227Y038467
X024227Y037995
X024227Y037522
X024227Y037050
X024227Y036578
X024227Y036105
X024227Y035633
X024227Y023667
X024227Y023195
X024227Y022722
X024227Y022250
X024227Y021778
X024227Y021305
X024227Y020833
X024227Y017517
X024227Y017045
X024227Y016572
X024227Y016100
X024227Y015628
X024227Y015155
X024227Y014683
X024227Y013117
X024227Y012645
X024227Y012172
X024227Y011700
X024227Y011228
X024227Y010755
X024227Y010283
X024227Y006967
X024227Y006495
X024227Y006022
X024227Y005550
X024227Y005078
X024227Y004605
X024227Y004133
X024699Y044617
X024699Y044145
X024699Y043672
X024699Y043200
X024699Y042728
X024699Y042255
X024699Y041783
X024699Y038467
X024699Y037995
X024699Y037522
X024699Y037050
X024699Y036578
X024699Y036105
X024699Y035633
X024699Y023667
X024699Y023195
X024699Y022722
X024699Y022250
X024699Y021778
X024699Y021305
X024699Y020833
X024699Y017517
X024699Y017045
X024699Y016572
X024699Y016100
X024699Y015628
X024699Y015155
X024699Y014683
X024699Y013117
X024699Y012645
X024699Y012172
X024699Y011700
X024699Y011228
X024699Y010755
X024699Y010283
X024699Y006967
X024699Y006495
X024699Y006022
X024699Y005550
X024699Y005078
X024699Y004605
X024699Y004133
X025889Y028598
X025889Y028224
X025889Y027850
X025889Y027476
X025889Y027102
X026263Y028598
X026263Y028224
X026263Y027850
X026263Y027476
X026263Y027102
X026637Y028598
X026637Y028224
X026637Y027850
X026637Y027476
X026637Y027102
X027011Y028598
X027011Y028224
X027011Y027850
X027011Y027476
X027011Y027102
X028855Y040395
X028855Y039805
X028855Y019445
X028855Y018855
X028855Y008895
X028855Y008305
X029150Y040100
X029150Y019150
X029150Y008600
X029445Y040395
X029445Y039805
X029445Y019445
X029445Y018855
X029445Y008895
X029445Y008305
X030060Y044617
X030060Y044145
X030060Y043672
X030060Y043200
X030060Y042728
X030060Y042255
X030060Y041783
X030060Y038467
X030060Y037995
X030060Y037522
X030060Y037050
X030060Y036578
X030060Y036105
X030060Y035633
X030060Y023667
X030060Y023195
X030060Y022722
X030060Y022250
X030060Y021778
X030060Y021305
X030060Y020833
X030060Y017517
X030060Y017045
X030060Y016572
X030060Y016100
X030060Y015628
X030060Y015155
X030060Y014683
X030060Y013117
X030060Y012645
X030060Y012172
X030060Y011700
X030060Y011228
X030060Y010755
X030060Y010283
X030060Y006967
X030060Y006495
X030060Y006022
X030060Y005550
X030060Y005078
X030060Y004605
X030060Y004133
X030532Y044617
X030532Y044145
X030532Y043672
X030532Y043200
X030532Y042728
X030532Y042255
X030532Y041783
X030532Y038467
X030532Y037995
X030532Y037522
X030532Y037050
X030532Y036578
X030532Y036105
X030532Y035633
X030532Y023667
X030532Y023195
X030532Y022722
X030532Y022250
X030532Y021778
X030532Y021305
X030532Y020833
X030532Y017517
X030532Y017045
X030532Y016572
X030532Y016100
X030532Y015628
X030532Y015155
X030532Y014683
X030532Y013117
X030532Y012645
X030532Y012172
X030532Y011700
X030532Y011228
X030532Y010755
X030532Y010283
X030532Y006967
X030532Y006495
X030532Y006022
X030532Y005550
X030532Y005078
X030532Y004605
X030532Y004133
X031004Y044617
X031004Y044145
X031004Y043672
X031004Y043200
X031004Y042728
X031004Y042255
X031004Y041783
X031004Y038467
X031004Y037995
X031004Y037522
X031004Y037050
X031004Y036578
X031004Y036105
X031004Y035633
X031004Y023667
X031004Y023195
X031004Y022722
X031004Y022250
X031004Y021778
X031004Y021305
X031004Y020833
X031004Y017517
X031004Y017045
X031004Y016572
X031004Y016100
X031004Y015628
X031004Y015155
X031004Y014683
X031004Y013117
X031004Y012645
X031004Y012172
X031004Y011700
X031004Y011228
X031004Y010755
X031004Y010283
X031004Y006967
X031004Y006495
X031004Y006022
X031004Y005550
X031004Y005078
X031004Y004605
X031004Y004133
X031455Y040495
X031455Y039905
X031455Y019545
X031455Y018955
X031455Y008995
X031455Y008405
X031477Y044617
X031477Y044145
X031477Y043672
X031477Y043200
X031477Y042728
X031477Y042255
X031477Y041783
X031477Y038467
X031477Y037995
X031477Y037522
X031477Y037050
X031477Y036578
X031477Y036105
X031477Y035633
X031477Y023667
X031477Y023195
X031477Y022722
X031477Y022250
X031477Y021778
X031477Y021305
X031477Y020833
X031477Y017517
X031477Y017045
X031477Y016572
X031477Y016100
X031477Y015628
X031477Y015155
X031477Y014683
X031477Y013117
X031477Y012645
X031477Y012172
X031477Y011700
X031477Y011228
X031477Y010755
X031477Y010283
X031477Y006967
X031477Y006495
X031477Y006022
X031477Y005550
X031477Y005078
X031477Y004605
X031477Y004133
X031750Y040200
X031750Y019250
X031750Y008700
X031949Y044617
X031949Y044145
X031949Y043672
X031949Y043200
X031949Y042728
X031949Y042255
X031949Y041783
X031949Y038467
X031949Y037995
X031949Y037522
X031949Y037050
X031949Y036578
X031949Y036105
X031949Y035633
X031949Y023667
X031949Y023195
X031949Y022722
X031949Y022250
X031949Y021778
X031949Y021305
X031949Y020833
X031949Y017517
X031949Y017045
X031949Y016572
X031949Y016100
X031949Y015628
X031949Y015155
X031949Y014683
X031949Y013117
X031949Y012645
X031949Y012172
X031949Y011700
X031949Y011228
X031949Y010755
X031949Y010283
X031949Y006967
X031949Y006495
X031949Y006022
X031949Y005550
X031949Y005078
X031949Y004605
X031949Y004133
X032045Y040495
X032045Y039905
X032045Y019545
X032045Y018955
X032045Y008995
X032045Y008405
X032350Y031500
X032400Y032300
X032400Y031900
X032800Y032300
X032800Y031900
X032800Y031500
X033200Y032300
X033200Y031900
X033200Y031500
T131
X018450Y023600
X018450Y022500
X018450Y005350
X018450Y004250
X018700Y042800
X018950Y023600
X018950Y022500
X018950Y005350
X018950Y004250
X019000Y044000
X019350Y032900
X019350Y032400
X019350Y031850
X019350Y030900
X019350Y030400
X019350Y029900
X019350Y012200
X019350Y011800
X019350Y011400
X019350Y011000
X019400Y023600
X019400Y022500
X019400Y005350
X019400Y004250
X019550Y033350
X019550Y031350
X019550Y029350
X019650Y012600
X019650Y010600
X019800Y044250
X019800Y043600
X019800Y023450
X019800Y022650
X019800Y005200
X019800Y004400
X019850Y023050
X019850Y004800
X020050Y033350
X020050Y031350
X020050Y029350
X020050Y012600
X020050Y010600
X020450Y012600
X020450Y010600
X020500Y044100
X020500Y043450
X020500Y033350
X020500Y031350
X020550Y029350
X020750Y032900
X020750Y032400
X020750Y031850
X020750Y030400
X020750Y029900
X020750Y012200
X020750Y011800
X020750Y011400
X020750Y011000
X020900Y034300
X021050Y043300
X021350Y026300
X021500Y037850
X021500Y033800
X021600Y034500
X021600Y025600
X021650Y027450
X022100Y034500
X022100Y034050
X022200Y019900
X022200Y009350
X022250Y019350
X022250Y008800
X022350Y030250
X022350Y018900
X022350Y008350
X022600Y039550
X022800Y030250
X022900Y027100
X022900Y026650
X022900Y025250
X022950Y025700
X022950Y024800
X023150Y031900
X023250Y040900
X023250Y040450
X023250Y029800
X023250Y019950
X023250Y019500
X023250Y009400
X023250Y008950
X023300Y039850
X023300Y018900
X023300Y008350
X023600Y031900
X024050Y031900
X024150Y026000
X024250Y025100
X024400Y032200
X024550Y026650
X024550Y026200
X024550Y025750
X024600Y040850
X024600Y039450
X024600Y031850
X024600Y025100
X024600Y019900
X024600Y018500
X024600Y009350
X024600Y007950
X024800Y028950
X024800Y028500
X024850Y032200
X025150Y040900
X025150Y039400
X025150Y019950
X025150Y018450
X025150Y009400
X025150Y007900
X025550Y033000
X025550Y032600
X025750Y032200
X025950Y044700
X025950Y044100
X025950Y043500
X025950Y042900
X025950Y042300
X025950Y037950
X025950Y037350
X025950Y036750
X025950Y036150
X025950Y035550
X025950Y023750
X025950Y023150
X025950Y022550
X025950Y021950
X025950Y021350
X025950Y017000
X025950Y016400
X025950Y015800
X025950Y015200
X025950Y014600
X025950Y013200
X025950Y012600
X025950Y012000
X025950Y011400
X025950Y010800
X025950Y006450
X025950Y005850
X025950Y005250
X025950Y004650
X025950Y004050
X026000Y039050
X026000Y018100
X026000Y007550
X026150Y032200
X026200Y045000
X026200Y044400
X026200Y043800
X026200Y043200
X026200Y042600
X026200Y042000
X026200Y038250
X026200Y037650
X026200Y037050
X026200Y036450
X026200Y035850
X026200Y035250
X026200Y024050
X026200Y023450
X026200Y022850
X026200Y022250
X026200Y021650
X026200Y021050
X026200Y017300
X026200Y016700
X026200Y016100
X026200Y015500
X026200Y014900
X026200Y014300
X026200Y013500
X026200Y012900
X026200Y012300
X026200Y011700
X026200Y011100
X026200Y010500
X026200Y006750
X026200Y006150
X026200Y005550
X026200Y004950
X026200Y004350
X026200Y003750
X026500Y034600
X026550Y032200
X026950Y032200
X027150Y040900
X027150Y019950
X027150Y009400
X027700Y045050
X027700Y044550
X027700Y044050
X027700Y042300
X027700Y037900
X027700Y036200
X027700Y035700
X027700Y035200
X027700Y024050
X027700Y023550
X027700Y023050
X027700Y021350
X027700Y016950
X027700Y015250
X027700Y014750
X027700Y014250
X027700Y013550
X027700Y013050
X027700Y012550
X027700Y010800
X027700Y006400
X027700Y004700
X027700Y004200
X027700Y003700
X028000Y044800
X028000Y044300
X028000Y042050
X028000Y040100
X028000Y038150
X028000Y035950
X028000Y035450
X028000Y023800
X028000Y023300
X028000Y021100
X028000Y019150
X028000Y017200
X028000Y015000
X028000Y014500
X028000Y013300
X028000Y012800
X028000Y010550
X028000Y008600
X028000Y006650
X028000Y004450
X028000Y003950
X028200Y034050
X028250Y028750
X028800Y026500
X028850Y025400
X029000Y026800
X029050Y028100
X029100Y041000
X029100Y020050
X029100Y009500
X029200Y026500
X029400Y026800
X029550Y028900
X029600Y026500
X029750Y028550
X029950Y028900
X029950Y028200
X030550Y039450
X030550Y018500
X030550Y007950
X030600Y040150
X030600Y026450
X030600Y019200
X030600Y008650
X030950Y025450
X031000Y026450
X031350Y025450
X031400Y026450
X031750Y030750
X031750Y025450
X032300Y024800
X032400Y029150
X032450Y028100
X032450Y027650
X032750Y024650
X032900Y029700
X032900Y028100
X032900Y027650
X032950Y040250
X032950Y019300
X032950Y008750
X033000Y029050
X033050Y030150
X033150Y037950
X033150Y037350
X033150Y036750
X033150Y036150
X033150Y035550
X033150Y017000
X033150Y016400
X033150Y015800
X033150Y015200
X033150Y014600
X033150Y006450
X033150Y005850
X033150Y005250
X033150Y004650
X033150Y004050
X033200Y044700
X033200Y044100
X033200Y043500
X033200Y042900
X033200Y042300
X033200Y023750
X033200Y023150
X033200Y022550
X033200Y021950
X033200Y021350
X033200Y013200
X033200Y012600
X033200Y012000
X033200Y011400
X033200Y010800
X033250Y041150
X033250Y039900
X033250Y038950
X033250Y020200
X033250Y018950
X033250Y018000
X033250Y009650
X033250Y008400
X033300Y034700
X033300Y026800
X033300Y026250
X033300Y025050
X033400Y038250
X033400Y037650
X033400Y037050
X033400Y036450
X033400Y035850
X033400Y035250
X033400Y017300
X033400Y016700
X033400Y016100
X033400Y015500
X033400Y014900
X033400Y014300
X033400Y006750
X033400Y006150
X033400Y005550
X033400Y004950
X033400Y004350
X033400Y003750
X033450Y045000
X033450Y044400
X033450Y043800
X033450Y043200
X033450Y042600
X033450Y042000
X033450Y029950
X033450Y024050
X033450Y023450
X033450Y022850
X033450Y022250
X033450Y021650
X033450Y021050
X033450Y013500
X033450Y012900
X033450Y012300
X033450Y011700
X033450Y011100
X033450Y010500
X033750Y033700
X034000Y027200
X034300Y032500
X034700Y025250
X034750Y040600
X034750Y019650
X034750Y009100
X034950Y045050
X034950Y044550
X034950Y044050
X034950Y043550
X034950Y043050
X034950Y042550
X034950Y042050
X034950Y038200
X034950Y037700
X034950Y037200
X034950Y036700
X034950Y036200
X034950Y035700
X034950Y035200
X034950Y024650
X034950Y024100
X034950Y023600
X034950Y023100
X034950Y022600
X034950Y022100
X034950Y021600
X034950Y021100
X034950Y017250
X034950Y016750
X034950Y016250
X034950Y015750
X034950Y015250
X034950Y014750
X034950Y014250
X034950Y013550
X034950Y013050
X034950Y012550
X034950Y012050
X034950Y011550
X034950Y011050
X034950Y010550
X034950Y006700
X034950Y006200
X034950Y005700
X034950Y005200
X034950Y004700
X034950Y004200
X034950Y003700
X035250Y044800
X035250Y044300
X035250Y043800
X035250Y043300
X035250Y042800
X035250Y042300
X035250Y041800
X035250Y038450
X035250Y037950
X035250Y037450
X035250Y036950
X035250Y036450
X035250Y035950
X035250Y035450
X035250Y023850
X035250Y023350
X035250Y022850
X035250Y022350
X035250Y021850
X035250Y021350
X035250Y020850
X035250Y017500
X035250Y017000
X035250Y016500
X035250Y016000
X035250Y015500
X035250Y015000
X035250Y014500
X035250Y013300
X035250Y012800
X035250Y012300
X035250Y011800
X035250Y011300
X035250Y010800
X035250Y010300
X035250Y006950
X035250Y006450
X035250Y005950
X035250Y005450
X035250Y004950
X035250Y004450
X035250Y003950
X035450Y031350
X035450Y030800
X035450Y030250
X035450Y026600
X035450Y026000
X035450Y025400
X035850Y029700
X035850Y025000
X035900Y027000
X036300Y033100
X036300Y032350
X036300Y031700
X036300Y029700
X036300Y029200
X036300Y025000
X036300Y016900
X036300Y016500
X036300Y016100
X036300Y015700
X036400Y027000
X036550Y033550
X036600Y028850
X036600Y017300
X036600Y015300
X036700Y021450
X036850Y031100
X036850Y026600
X036850Y026150
X036950Y033550
X037000Y017300
X037000Y015300
X037150Y030850
X037200Y043950
X037200Y004800
X037250Y044350
X037250Y043550
X037250Y005200
X037250Y004400
X037300Y028850
X037300Y026150
X037350Y033550
X037400Y017300
X037400Y015300
X037450Y031100
X037650Y044500
X037650Y043400
X037650Y005350
X037650Y004250
X037700Y033100
X037700Y032550
X037700Y032000
X037700Y031400
X037700Y030300
X037700Y029800
X037700Y029200
X037700Y025800
X037700Y025350
X037700Y024800
X037700Y016900
X037700Y016500
X037700Y016100
X037700Y015700
X037900Y023300
X038100Y044500
X038100Y043400
X038100Y005350
X038100Y004250
X038200Y021250
X038600Y044500
X038600Y043400
X038600Y022450
X038600Y005350
X038600Y004250
X038650Y021250
T132
X021700Y029450
X021700Y028300
X022900Y029450
X022900Y028350
X030450Y025250
X032700Y034650
T130
X028500Y043200
X028500Y037050
X028500Y022250
X028500Y016100
X028500Y011700
X028500Y005550
T129
X020100Y040150
X020100Y019200
X020100Y008650
X036950Y040150
X036950Y019200
X036950Y008650
M30
