G04 start of page 5 for group 3 idx 3 *
G04 Title: fet12, bottom *
G04 Creator: pcb 20140316 *
G04 CreationDate: Thu 12 Apr 2018 01:23:09 AM GMT UTC *
G04 For: brian *
G04 Format: Gerber/RS-274X *
G04 PCB-Dimensions (mil): 6000.00 5000.00 *
G04 PCB-Coordinate-Origin: lower left *
%MOIN*%
%FSLAX25Y25*%
%LNBOTTOM*%
%ADD126C,0.0118*%
%ADD125C,0.1285*%
%ADD124C,0.2150*%
%ADD123C,0.0250*%
%ADD122C,0.0118*%
%ADD121C,0.0200*%
%ADD120C,0.0450*%
%ADD119C,0.0360*%
%ADD118R,0.2600X0.2600*%
%ADD117R,0.1047X0.1047*%
%ADD116C,0.0138*%
%ADD115R,0.0197X0.0197*%
%ADD114R,0.3600X0.3600*%
%ADD113R,0.0630X0.0630*%
%ADD112R,0.0200X0.0200*%
%ADD111R,0.0159X0.0159*%
%ADD110R,0.0217X0.0217*%
%ADD109R,0.0256X0.0256*%
%ADD108R,0.0276X0.0276*%
%ADD107R,0.0315X0.0315*%
%ADD106R,0.0512X0.0512*%
%ADD105R,0.1657X0.1657*%
%ADD104R,0.1342X0.1342*%
%ADD103R,0.0751X0.0751*%
%ADD102R,0.0276X0.0276*%
%ADD101R,0.0100X0.0100*%
%ADD100R,0.0515X0.0515*%
%ADD99R,0.0295X0.0295*%
%ADD98C,0.0394*%
%ADD97R,0.0984X0.0984*%
%ADD96C,0.0295*%
%ADD95C,0.1850*%
%ADD94C,0.2350*%
%ADD93C,0.0318*%
%ADD92C,0.0500*%
%ADD91C,0.0100*%
%ADD90C,0.0150*%
%ADD89C,0.0001*%
G54D89*G36*
X256500Y453000D02*X327500D01*
Y416000D01*
X291000D01*
X290000Y417000D01*
X256500D01*
Y453000D01*
G37*
G36*
X369000D02*Y431000D01*
X388000D01*
Y416000D01*
X351500D01*
X349000Y418500D01*
X334500D01*
X334000Y419000D01*
X328500D01*
Y453000D01*
X369000D01*
G37*
G36*
X328500Y349500D02*Y384000D01*
X350500D01*
Y416000D01*
X388000D01*
Y349500D01*
X328500D01*
G37*
G36*
X388000Y432000D02*X370000D01*
Y453000D01*
X385000D01*
X388000Y450000D01*
Y432000D01*
G37*
G36*
X313000Y398121D02*Y405695D01*
X313096Y405735D01*
X313331Y405879D01*
X313540Y406058D01*
X313585Y406110D01*
X313725Y406250D01*
X321275D01*
X322000Y405525D01*
Y398000D01*
X321500Y397500D01*
X313621D01*
X313000Y398121D01*
G37*
G36*
X255500Y453000D02*Y416000D01*
X282000D01*
Y409000D01*
X274500D01*
Y412000D01*
X249000D01*
X247500Y410500D01*
Y392500D01*
X250500Y389500D01*
X255000D01*
Y381500D01*
X255500Y381000D01*
Y348500D01*
X182500D01*
Y392500D01*
X208000D01*
Y375500D01*
X218500D01*
Y392500D01*
X236000D01*
Y412500D01*
X182500D01*
Y422000D01*
X213500D01*
Y453000D01*
X255500D01*
G37*
G36*
X236000Y392500D02*X232496D01*
Y395742D01*
X232561Y395726D01*
X233000Y395691D01*
X233439Y395726D01*
X233868Y395829D01*
X234275Y395997D01*
X234651Y396228D01*
X234986Y396514D01*
X235272Y396849D01*
X235503Y397225D01*
X235671Y397632D01*
X235774Y398061D01*
X235800Y398500D01*
X235774Y398939D01*
X235671Y399368D01*
X235503Y399775D01*
X235272Y400151D01*
X234986Y400486D01*
X234651Y400772D01*
X234275Y401003D01*
X233868Y401171D01*
X233439Y401274D01*
X233000Y401309D01*
X232561Y401274D01*
X232496Y401258D01*
Y401692D01*
X232500Y401691D01*
X232939Y401726D01*
X233368Y401829D01*
X233775Y401997D01*
X234151Y402228D01*
X234486Y402514D01*
X234772Y402849D01*
X235003Y403225D01*
X235171Y403632D01*
X235274Y404061D01*
X235300Y404500D01*
X235274Y404939D01*
X235171Y405368D01*
X235003Y405775D01*
X234772Y406151D01*
X234486Y406486D01*
X234177Y406750D01*
X234486Y407014D01*
X234772Y407349D01*
X235003Y407725D01*
X235171Y408132D01*
X235274Y408561D01*
X235300Y409000D01*
X235274Y409439D01*
X235171Y409868D01*
X235003Y410275D01*
X234772Y410651D01*
X234486Y410986D01*
X234151Y411272D01*
X233775Y411503D01*
X233368Y411671D01*
X232939Y411774D01*
X232500Y411809D01*
X232496Y411808D01*
Y412500D01*
X236000D01*
Y392500D01*
G37*
G36*
X232496D02*X225996D01*
Y392692D01*
X226000Y392691D01*
X226439Y392726D01*
X226868Y392829D01*
X227275Y392997D01*
X227651Y393228D01*
X227986Y393514D01*
X228272Y393849D01*
X228503Y394225D01*
X228671Y394632D01*
X228774Y395061D01*
X228800Y395500D01*
X228774Y395939D01*
X228671Y396368D01*
X228503Y396775D01*
X228272Y397151D01*
X227986Y397486D01*
X227651Y397772D01*
X227275Y398003D01*
X226868Y398171D01*
X226439Y398274D01*
X226000Y398309D01*
X225996Y398308D01*
Y412500D01*
X232496D01*
Y411808D01*
X232061Y411774D01*
X231632Y411671D01*
X231225Y411503D01*
X230849Y411272D01*
X230514Y410986D01*
X230228Y410651D01*
X229997Y410275D01*
X229829Y409868D01*
X229726Y409439D01*
X229691Y409000D01*
X229726Y408561D01*
X229829Y408132D01*
X229997Y407725D01*
X230228Y407349D01*
X230514Y407014D01*
X230823Y406750D01*
X230514Y406486D01*
X230228Y406151D01*
X229997Y405775D01*
X229829Y405368D01*
X229726Y404939D01*
X229691Y404500D01*
X229726Y404061D01*
X229829Y403632D01*
X229997Y403225D01*
X230228Y402849D01*
X230514Y402514D01*
X230849Y402228D01*
X231225Y401997D01*
X231632Y401829D01*
X232061Y401726D01*
X232496Y401692D01*
Y401258D01*
X232132Y401171D01*
X231725Y401003D01*
X231349Y400772D01*
X231014Y400486D01*
X230728Y400151D01*
X230497Y399775D01*
X230329Y399368D01*
X230226Y398939D01*
X230191Y398500D01*
X230226Y398061D01*
X230329Y397632D01*
X230497Y397225D01*
X230728Y396849D01*
X231014Y396514D01*
X231349Y396228D01*
X231725Y395997D01*
X232132Y395829D01*
X232496Y395742D01*
Y392500D01*
G37*
G36*
X225996D02*X218500D01*
Y375500D01*
X214996D01*
Y375692D01*
X215000Y375691D01*
X215439Y375726D01*
X215868Y375829D01*
X216275Y375997D01*
X216651Y376228D01*
X216986Y376514D01*
X217272Y376849D01*
X217503Y377225D01*
X217671Y377632D01*
X217774Y378061D01*
X217800Y378500D01*
X217774Y378939D01*
X217671Y379368D01*
X217503Y379775D01*
X217272Y380151D01*
X216986Y380486D01*
X216651Y380772D01*
X216275Y381003D01*
X215868Y381171D01*
X215439Y381274D01*
X215000Y381309D01*
X214996Y381308D01*
Y412500D01*
X225996D01*
Y398308D01*
X225561Y398274D01*
X225132Y398171D01*
X224725Y398003D01*
X224349Y397772D01*
X224014Y397486D01*
X223728Y397151D01*
X223497Y396775D01*
X223329Y396368D01*
X223226Y395939D01*
X223191Y395500D01*
X223226Y395061D01*
X223329Y394632D01*
X223497Y394225D01*
X223728Y393849D01*
X224014Y393514D01*
X224349Y393228D01*
X224725Y392997D01*
X225132Y392829D01*
X225561Y392726D01*
X225996Y392692D01*
Y392500D01*
G37*
G36*
X214996Y375500D02*X208000D01*
Y392500D01*
X182500D01*
Y412500D01*
X214996D01*
Y381308D01*
X214561Y381274D01*
X214132Y381171D01*
X213725Y381003D01*
X213349Y380772D01*
X213014Y380486D01*
X212728Y380151D01*
X212497Y379775D01*
X212329Y379368D01*
X212226Y378939D01*
X212191Y378500D01*
X212226Y378061D01*
X212329Y377632D01*
X212497Y377225D01*
X212728Y376849D01*
X213014Y376514D01*
X213349Y376228D01*
X213725Y375997D01*
X214132Y375829D01*
X214561Y375726D01*
X214996Y375692D01*
Y375500D01*
G37*
G36*
X256500Y243500D02*X327500D01*
Y206500D01*
X291000D01*
X290000Y207500D01*
X256500D01*
Y243500D01*
G37*
G36*
Y140000D02*Y174500D01*
X277500D01*
Y182000D01*
X327500D01*
Y140000D01*
X256500D01*
G37*
G36*
X289000Y245000D02*Y263500D01*
X301500D01*
Y245000D01*
X289000D01*
G37*
G36*
X313000Y188621D02*Y196195D01*
X313096Y196235D01*
X313331Y196379D01*
X313540Y196558D01*
X313585Y196610D01*
X313725Y196750D01*
X321275D01*
X322000Y196025D01*
Y188500D01*
X321500Y188000D01*
X313621D01*
X313000Y188621D01*
G37*
G36*
X347500Y244500D02*X348500Y243500D01*
X363500D01*
Y209000D01*
X388000D01*
Y206500D01*
X351500D01*
X349000Y209000D01*
X334500D01*
X334000Y209500D01*
X328500D01*
Y243500D01*
X329500Y244500D01*
X347500D01*
G37*
G36*
X355000Y250500D02*Y269000D01*
X367500D01*
Y250500D01*
X355000D01*
G37*
G36*
X328500Y140000D02*Y174500D01*
X350500D01*
Y206500D01*
X388000D01*
Y176000D01*
X360000D01*
Y140000D01*
X328500D01*
G37*
G36*
X360000D02*Y141000D01*
X388000D01*
Y101000D01*
X351500D01*
X349000Y103500D01*
X334500D01*
X334000Y104000D01*
X328500D01*
Y140000D01*
X360000D01*
G37*
G36*
X369000Y56500D02*Y34500D01*
X328500D01*
Y69000D01*
X350500D01*
Y101000D01*
X388000D01*
Y56500D01*
X369000D01*
G37*
G36*
X361000Y142000D02*Y175000D01*
X388000D01*
Y142000D01*
X361000D01*
G37*
G36*
X388000Y55500D02*Y37500D01*
X385000Y34500D01*
X370000D01*
Y55500D01*
X388000D01*
G37*
G36*
X313000Y83121D02*Y90695D01*
X313096Y90735D01*
X313331Y90879D01*
X313540Y91058D01*
X313585Y91110D01*
X313725Y91250D01*
X321275D01*
X322000Y90525D01*
Y83000D01*
X321500Y82500D01*
X313621D01*
X313000Y83121D01*
G37*
G36*
X256500Y349500D02*Y384000D01*
X277500D01*
Y391500D01*
X327500D01*
Y349500D01*
X256500D01*
G37*
G36*
X289744Y320000D02*X271244D01*
Y332500D01*
X289744D01*
Y320000D01*
G37*
G36*
X295500Y346500D02*X303000D01*
Y303000D01*
X319000D01*
Y292000D01*
X295500D01*
Y292753D01*
X300578Y292757D01*
X300731Y292794D01*
X300877Y292854D01*
X301011Y292937D01*
X301131Y293039D01*
X301233Y293158D01*
X301315Y293293D01*
X301375Y293438D01*
X301412Y293591D01*
X301421Y293748D01*
X301412Y309653D01*
X301375Y309806D01*
X301315Y309951D01*
X301233Y310086D01*
X301131Y310205D01*
X301011Y310308D01*
X300877Y310390D01*
X300731Y310450D01*
X300578Y310487D01*
X300421Y310496D01*
X295500Y310492D01*
Y346500D01*
G37*
G36*
X280622Y338061D02*X280725Y337997D01*
X281132Y337829D01*
X281561Y337726D01*
X282000Y337691D01*
X282439Y337726D01*
X282868Y337829D01*
X283275Y337997D01*
X283651Y338228D01*
X283986Y338514D01*
X284272Y338849D01*
X284503Y339225D01*
X284671Y339632D01*
X284774Y340061D01*
X284800Y340500D01*
X284774Y340939D01*
X284733Y341111D01*
X290121Y346500D01*
X295500D01*
Y310492D01*
X290422Y310487D01*
X290269Y310450D01*
X290123Y310390D01*
X289989Y310308D01*
X289869Y310205D01*
X289767Y310086D01*
X289685Y309951D01*
X289625Y309806D01*
X289588Y309653D01*
X289579Y309496D01*
X289588Y293591D01*
X289625Y293438D01*
X289685Y293293D01*
X289767Y293158D01*
X289869Y293039D01*
X289989Y292937D01*
X290123Y292854D01*
X290269Y292794D01*
X290422Y292757D01*
X290579Y292748D01*
X295500Y292753D01*
Y292000D01*
X280622D01*
Y320083D01*
X288653Y320088D01*
X288806Y320125D01*
X288951Y320185D01*
X289086Y320267D01*
X289205Y320369D01*
X289308Y320489D01*
X289390Y320623D01*
X289450Y320769D01*
X289487Y320922D01*
X289496Y321079D01*
X289487Y331078D01*
X289450Y331231D01*
X289390Y331377D01*
X289308Y331511D01*
X289205Y331631D01*
X289086Y331733D01*
X288951Y331815D01*
X288806Y331875D01*
X288653Y331912D01*
X288496Y331921D01*
X280622Y331917D01*
Y338061D01*
G37*
G36*
Y348500D02*X287879D01*
X282611Y343233D01*
X282439Y343274D01*
X282000Y343309D01*
X281561Y343274D01*
X281132Y343171D01*
X280725Y343003D01*
X280622Y342939D01*
Y348500D01*
G37*
G36*
X218496Y343714D02*X218500Y343721D01*
X218728Y343349D01*
X219014Y343014D01*
X219323Y342750D01*
X219014Y342486D01*
X218728Y342151D01*
X218497Y341775D01*
X218496Y341771D01*
Y343714D01*
G37*
G36*
Y348500D02*X263721D01*
X263349Y348272D01*
X263014Y347986D01*
X262728Y347651D01*
X262497Y347275D01*
X262329Y346868D01*
X262226Y346439D01*
X262191Y346000D01*
X262226Y345561D01*
X262329Y345132D01*
X262497Y344725D01*
X262728Y344349D01*
X263014Y344014D01*
X263349Y343728D01*
X263725Y343497D01*
X264132Y343329D01*
X264561Y343226D01*
X265000Y343191D01*
X265439Y343226D01*
X265868Y343329D01*
X266275Y343497D01*
X266651Y343728D01*
X266986Y344014D01*
X267272Y344349D01*
X267503Y344725D01*
X267671Y345132D01*
X267774Y345561D01*
X267800Y346000D01*
X267774Y346439D01*
X267671Y346868D01*
X267503Y347275D01*
X267272Y347651D01*
X266986Y347986D01*
X266651Y348272D01*
X266279Y348500D01*
X280622D01*
Y342939D01*
X280349Y342772D01*
X280014Y342486D01*
X279728Y342151D01*
X279497Y341775D01*
X279329Y341368D01*
X279226Y340939D01*
X279191Y340500D01*
X279226Y340061D01*
X279329Y339632D01*
X279497Y339225D01*
X279728Y338849D01*
X280014Y338514D01*
X280349Y338228D01*
X280622Y338061D01*
Y331917D01*
X272591Y331912D01*
X272438Y331875D01*
X272293Y331815D01*
X272158Y331733D01*
X272039Y331631D01*
X271937Y331511D01*
X271854Y331377D01*
X271794Y331231D01*
X271757Y331078D01*
X271748Y330921D01*
X271757Y320922D01*
X271794Y320769D01*
X271854Y320623D01*
X271937Y320489D01*
X272039Y320369D01*
X272158Y320267D01*
X272293Y320185D01*
X272438Y320125D01*
X272591Y320088D01*
X272748Y320079D01*
X280622Y320083D01*
Y292000D01*
X280500D01*
Y296500D01*
X244000Y333000D01*
X218496D01*
Y339229D01*
X218497Y339225D01*
X218728Y338849D01*
X219014Y338514D01*
X219349Y338228D01*
X219725Y337997D01*
X220132Y337829D01*
X220561Y337726D01*
X221000Y337691D01*
X221439Y337726D01*
X221868Y337829D01*
X222275Y337997D01*
X222651Y338228D01*
X222986Y338514D01*
X223272Y338849D01*
X223503Y339225D01*
X223671Y339632D01*
X223774Y340061D01*
X223800Y340500D01*
X223774Y340939D01*
X223671Y341368D01*
X223503Y341775D01*
X223272Y342151D01*
X222986Y342486D01*
X222677Y342750D01*
X222986Y343014D01*
X223272Y343349D01*
X223503Y343725D01*
X223671Y344132D01*
X223774Y344561D01*
X223800Y345000D01*
X223774Y345439D01*
X223671Y345868D01*
X223503Y346275D01*
X223272Y346651D01*
X222986Y346986D01*
X222651Y347272D01*
X222275Y347503D01*
X221868Y347671D01*
X221439Y347774D01*
X221000Y347809D01*
X220561Y347774D01*
X220132Y347671D01*
X219725Y347503D01*
X219349Y347272D01*
X219014Y346986D01*
X218728Y346651D01*
X218500Y346279D01*
X218496Y346286D01*
Y348500D01*
G37*
G36*
X214996Y342385D02*X215132Y342329D01*
X215561Y342226D01*
X216000Y342191D01*
X216439Y342226D01*
X216868Y342329D01*
X217275Y342497D01*
X217651Y342728D01*
X217986Y343014D01*
X218272Y343349D01*
X218496Y343714D01*
Y341771D01*
X218329Y341368D01*
X218226Y340939D01*
X218191Y340500D01*
X218226Y340061D01*
X218329Y339632D01*
X218496Y339229D01*
Y333000D01*
X214996D01*
Y335192D01*
X215000Y335191D01*
X215439Y335226D01*
X215868Y335329D01*
X216275Y335497D01*
X216651Y335728D01*
X216986Y336014D01*
X217272Y336349D01*
X217503Y336725D01*
X217671Y337132D01*
X217774Y337561D01*
X217800Y338000D01*
X217774Y338439D01*
X217671Y338868D01*
X217503Y339275D01*
X217272Y339651D01*
X216986Y339986D01*
X216651Y340272D01*
X216275Y340503D01*
X215868Y340671D01*
X215439Y340774D01*
X215000Y340809D01*
X214996Y340808D01*
Y342385D01*
G37*
G36*
Y348500D02*X218496D01*
Y346286D01*
X218272Y346651D01*
X217986Y346986D01*
X217651Y347272D01*
X217275Y347503D01*
X216868Y347671D01*
X216439Y347774D01*
X216000Y347809D01*
X215561Y347774D01*
X215132Y347671D01*
X214996Y347615D01*
Y348500D01*
G37*
G36*
X208996D02*X214996D01*
Y347615D01*
X214725Y347503D01*
X214349Y347272D01*
X214014Y346986D01*
X213728Y346651D01*
X213497Y346275D01*
X213329Y345868D01*
X213226Y345439D01*
X213191Y345000D01*
X213226Y344561D01*
X213329Y344132D01*
X213497Y343725D01*
X213728Y343349D01*
X214014Y343014D01*
X214349Y342728D01*
X214725Y342497D01*
X214996Y342385D01*
Y340808D01*
X214561Y340774D01*
X214132Y340671D01*
X213725Y340503D01*
X213349Y340272D01*
X213014Y339986D01*
X212728Y339651D01*
X212497Y339275D01*
X212329Y338868D01*
X212226Y338439D01*
X212191Y338000D01*
X212226Y337561D01*
X212329Y337132D01*
X212497Y336725D01*
X212728Y336349D01*
X213014Y336014D01*
X213349Y335728D01*
X213725Y335497D01*
X214132Y335329D01*
X214561Y335226D01*
X214996Y335192D01*
Y333000D01*
X212500D01*
X209000Y336500D01*
X208996D01*
Y340192D01*
X209000Y340191D01*
X209439Y340226D01*
X209868Y340329D01*
X210275Y340497D01*
X210651Y340728D01*
X210986Y341014D01*
X211272Y341349D01*
X211503Y341725D01*
X211671Y342132D01*
X211774Y342561D01*
X211800Y343000D01*
X211774Y343439D01*
X211671Y343868D01*
X211503Y344275D01*
X211272Y344651D01*
X210986Y344986D01*
X210651Y345272D01*
X210275Y345503D01*
X209868Y345671D01*
X209439Y345774D01*
X209000Y345809D01*
X208996Y345808D01*
Y348500D01*
G37*
G36*
X182500D02*X208996D01*
Y345808D01*
X208561Y345774D01*
X208132Y345671D01*
X207725Y345503D01*
X207349Y345272D01*
X207014Y344986D01*
X206728Y344651D01*
X206497Y344275D01*
X206329Y343868D01*
X206226Y343439D01*
X206191Y343000D01*
X206226Y342561D01*
X206329Y342132D01*
X206497Y341725D01*
X206728Y341349D01*
X207014Y341014D01*
X207349Y340728D01*
X207725Y340497D01*
X208132Y340329D01*
X208561Y340226D01*
X208996Y340192D01*
Y336500D01*
X182500D01*
Y348500D01*
G37*
G36*
X233378Y332000D02*X243000D01*
X278500Y296500D01*
Y295000D01*
X233378D01*
Y295333D01*
X233775Y295497D01*
X234151Y295728D01*
X234486Y296014D01*
X234772Y296349D01*
X235003Y296725D01*
X235171Y297132D01*
X235274Y297561D01*
X235300Y298000D01*
X235274Y298439D01*
X235171Y298868D01*
X235003Y299275D01*
X234772Y299651D01*
X234486Y299986D01*
X234151Y300272D01*
X233775Y300503D01*
X233378Y300667D01*
Y320083D01*
X241409Y320088D01*
X241562Y320125D01*
X241707Y320185D01*
X241842Y320267D01*
X241961Y320369D01*
X242063Y320489D01*
X242146Y320623D01*
X242206Y320769D01*
X242243Y320922D01*
X242252Y321079D01*
X242243Y331078D01*
X242206Y331231D01*
X242146Y331377D01*
X242063Y331511D01*
X241961Y331631D01*
X241842Y331733D01*
X241707Y331815D01*
X241562Y331875D01*
X241409Y331912D01*
X241252Y331921D01*
X233378Y331917D01*
Y332000D01*
G37*
G36*
X225746Y283428D02*X225780Y282990D01*
X225900Y282493D01*
X226095Y282020D01*
X226363Y281584D01*
X226695Y281195D01*
X227084Y280863D01*
X227520Y280595D01*
X227750Y280500D01*
X225746D01*
Y283428D01*
G37*
G36*
Y320079D02*X233378Y320083D01*
Y300667D01*
X233368Y300671D01*
X232939Y300774D01*
X232500Y300809D01*
X232061Y300774D01*
X231632Y300671D01*
X231225Y300503D01*
X230849Y300272D01*
X230514Y299986D01*
X230228Y299651D01*
X229997Y299275D01*
X229829Y298868D01*
X229726Y298439D01*
X229691Y298000D01*
X229726Y297561D01*
X229829Y297132D01*
X229997Y296725D01*
X230228Y296349D01*
X230514Y296014D01*
X230849Y295728D01*
X231225Y295497D01*
X231632Y295329D01*
X232061Y295226D01*
X232500Y295191D01*
X232939Y295226D01*
X233368Y295329D01*
X233378Y295333D01*
Y295000D01*
X230000D01*
Y286602D01*
X229510Y286720D01*
X229000Y286760D01*
X228490Y286720D01*
X227993Y286600D01*
X227520Y286405D01*
X227084Y286137D01*
X226695Y285805D01*
X226363Y285416D01*
X226095Y284980D01*
X225900Y284507D01*
X225780Y284010D01*
X225746Y283572D01*
Y300818D01*
X225750Y300823D01*
X226014Y300514D01*
X226349Y300228D01*
X226725Y299997D01*
X227132Y299829D01*
X227561Y299726D01*
X228000Y299691D01*
X228439Y299726D01*
X228868Y299829D01*
X229275Y299997D01*
X229651Y300228D01*
X229986Y300514D01*
X230272Y300849D01*
X230503Y301225D01*
X230671Y301632D01*
X230774Y302061D01*
X230800Y302500D01*
X230774Y302939D01*
X230671Y303368D01*
X230503Y303775D01*
X230272Y304151D01*
X229986Y304486D01*
X229651Y304772D01*
X229275Y305003D01*
X228868Y305171D01*
X228439Y305274D01*
X228000Y305309D01*
X227561Y305274D01*
X227132Y305171D01*
X226725Y305003D01*
X226349Y304772D01*
X226014Y304486D01*
X225750Y304177D01*
X225746Y304182D01*
Y320079D01*
G37*
G36*
Y332000D02*X233378D01*
Y331917D01*
X225746Y331912D01*
Y332000D01*
G37*
G36*
X200500Y335500D02*X208000D01*
X211500Y332000D01*
X225746D01*
Y331912D01*
X225347Y331912D01*
X225194Y331875D01*
X225049Y331815D01*
X224914Y331733D01*
X224795Y331631D01*
X224692Y331511D01*
X224610Y331377D01*
X224550Y331231D01*
X224513Y331078D01*
X224504Y330921D01*
X224513Y320922D01*
X224550Y320769D01*
X224610Y320623D01*
X224692Y320489D01*
X224795Y320369D01*
X224914Y320267D01*
X225049Y320185D01*
X225194Y320125D01*
X225347Y320088D01*
X225504Y320079D01*
X225746Y320079D01*
Y304182D01*
X225486Y304486D01*
X225151Y304772D01*
X224775Y305003D01*
X224368Y305171D01*
X223939Y305274D01*
X223500Y305309D01*
X223061Y305274D01*
X222632Y305171D01*
X222225Y305003D01*
X221849Y304772D01*
X221514Y304486D01*
X221228Y304151D01*
X220997Y303775D01*
X220829Y303368D01*
X220726Y302939D01*
X220691Y302500D01*
X220726Y302061D01*
X220829Y301632D01*
X220997Y301225D01*
X221228Y300849D01*
X221514Y300514D01*
X221849Y300228D01*
X222225Y299997D01*
X222632Y299829D01*
X223061Y299726D01*
X223500Y299691D01*
X223939Y299726D01*
X224368Y299829D01*
X224775Y299997D01*
X225151Y300228D01*
X225486Y300514D01*
X225746Y300818D01*
Y283572D01*
X225740Y283500D01*
X225746Y283428D01*
Y280500D01*
X219077D01*
X219305Y280695D01*
X219637Y281084D01*
X219905Y281520D01*
X220100Y281993D01*
X220220Y282490D01*
X220250Y283000D01*
X220220Y283510D01*
X220100Y284007D01*
X219905Y284480D01*
X219637Y284916D01*
X219305Y285305D01*
X218916Y285637D01*
X218480Y285905D01*
X218007Y286100D01*
X217510Y286220D01*
X217000Y286260D01*
X216490Y286220D01*
X215993Y286100D01*
X215520Y285905D01*
X215084Y285637D01*
X214695Y285305D01*
X214363Y284916D01*
X214095Y284480D01*
X213900Y284007D01*
X213780Y283510D01*
X213740Y283000D01*
X213780Y282490D01*
X213900Y281993D01*
X214095Y281520D01*
X214363Y281084D01*
X214695Y280695D01*
X214923Y280500D01*
X200500D01*
Y294753D01*
X205578Y294757D01*
X205731Y294794D01*
X205877Y294854D01*
X206011Y294937D01*
X206131Y295039D01*
X206233Y295158D01*
X206315Y295293D01*
X206375Y295438D01*
X206412Y295591D01*
X206421Y295748D01*
X206412Y311653D01*
X206375Y311806D01*
X206315Y311951D01*
X206233Y312086D01*
X206131Y312205D01*
X206011Y312308D01*
X205877Y312390D01*
X205731Y312450D01*
X205578Y312487D01*
X205421Y312496D01*
X200500Y312492D01*
Y314508D01*
X205578Y314513D01*
X205731Y314550D01*
X205877Y314610D01*
X206011Y314692D01*
X206131Y314795D01*
X206233Y314914D01*
X206315Y315049D01*
X206375Y315194D01*
X206412Y315347D01*
X206421Y315504D01*
X206412Y331409D01*
X206375Y331562D01*
X206315Y331707D01*
X206233Y331842D01*
X206131Y331961D01*
X206011Y332063D01*
X205877Y332146D01*
X205731Y332206D01*
X205578Y332243D01*
X205421Y332252D01*
X200500Y332247D01*
Y335500D01*
G37*
G36*
X182500D02*X200500D01*
Y332247D01*
X195422Y332243D01*
X195269Y332206D01*
X195123Y332146D01*
X194989Y332063D01*
X194869Y331961D01*
X194767Y331842D01*
X194685Y331707D01*
X194625Y331562D01*
X194588Y331409D01*
X194579Y331252D01*
X194588Y315347D01*
X194625Y315194D01*
X194685Y315049D01*
X194767Y314914D01*
X194869Y314795D01*
X194989Y314692D01*
X195123Y314610D01*
X195269Y314550D01*
X195422Y314513D01*
X195579Y314504D01*
X200500Y314508D01*
Y312492D01*
X195422Y312487D01*
X195269Y312450D01*
X195123Y312390D01*
X194989Y312308D01*
X194869Y312205D01*
X194767Y312086D01*
X194685Y311951D01*
X194625Y311806D01*
X194588Y311653D01*
X194579Y311496D01*
X194588Y295591D01*
X194625Y295438D01*
X194685Y295293D01*
X194767Y295158D01*
X194869Y295039D01*
X194989Y294937D01*
X195123Y294854D01*
X195269Y294794D01*
X195422Y294757D01*
X195579Y294748D01*
X200500Y294753D01*
Y280500D01*
X182500D01*
Y335500D01*
G37*
G36*
X206500Y332500D02*Y314000D01*
X194000D01*
Y332500D01*
X206500D01*
G37*
G36*
Y312744D02*Y294244D01*
X194000D01*
Y312744D01*
X206500D01*
G37*
G36*
X224256Y332000D02*X242756D01*
Y319500D01*
X224256D01*
Y332000D01*
G37*
G36*
X339916Y348500D02*X348000D01*
Y304000D01*
X339916D01*
Y325963D01*
X340267Y325611D01*
X340226Y325439D01*
X340191Y325000D01*
X340226Y324561D01*
X340329Y324132D01*
X340497Y323725D01*
X340728Y323349D01*
X341014Y323014D01*
X341349Y322728D01*
X341725Y322497D01*
X342132Y322329D01*
X342561Y322226D01*
X343000Y322191D01*
X343439Y322226D01*
X343868Y322329D01*
X344275Y322497D01*
X344651Y322728D01*
X344986Y323014D01*
X345272Y323349D01*
X345503Y323725D01*
X345671Y324132D01*
X345774Y324561D01*
X345800Y325000D01*
X345774Y325439D01*
X345671Y325868D01*
X345503Y326275D01*
X345272Y326651D01*
X344986Y326986D01*
X344651Y327272D01*
X344275Y327503D01*
X343868Y327671D01*
X343439Y327774D01*
X343000Y327809D01*
X342561Y327774D01*
X342389Y327733D01*
X340661Y329460D01*
X340623Y329505D01*
X340443Y329658D01*
X340242Y329782D01*
X340024Y329872D01*
X339959Y329887D01*
X339959Y330074D01*
X339922Y330227D01*
X339916Y330241D01*
Y331759D01*
X339922Y331773D01*
X339959Y331926D01*
X339968Y332083D01*
X339959Y335192D01*
X339922Y335345D01*
X339916Y335359D01*
Y335584D01*
X340003Y335725D01*
X340171Y336132D01*
X340274Y336561D01*
X340300Y337000D01*
X340274Y337439D01*
X340171Y337868D01*
X340003Y338275D01*
X339916Y338416D01*
Y338556D01*
X339929Y338577D01*
X339989Y338722D01*
X340026Y338875D01*
X340035Y339032D01*
X340026Y343125D01*
X339989Y343278D01*
X339929Y343423D01*
X339916Y343444D01*
Y348500D01*
G37*
G36*
Y338416D02*X339873Y338486D01*
X339916Y338556D01*
Y338416D01*
G37*
G36*
Y335359D02*X339862Y335490D01*
X339860Y335493D01*
X339916Y335584D01*
Y335359D01*
G37*
G36*
X333917Y343968D02*X331601Y343961D01*
X331543Y344019D01*
X331505Y344064D01*
X331325Y344217D01*
X331124Y344341D01*
X330906Y344431D01*
X330676Y344486D01*
X330676Y344486D01*
X330441Y344505D01*
X330382Y344500D01*
X329566D01*
X329637Y344584D01*
X329905Y345020D01*
X330100Y345493D01*
X330220Y345990D01*
X330248Y346468D01*
X330329Y346132D01*
X330497Y345725D01*
X330728Y345349D01*
X331014Y345014D01*
X331349Y344728D01*
X331725Y344497D01*
X332132Y344329D01*
X332561Y344226D01*
X333000Y344191D01*
X333439Y344226D01*
X333868Y344329D01*
X334275Y344497D01*
X334651Y344728D01*
X334986Y345014D01*
X335272Y345349D01*
X335503Y345725D01*
X335671Y346132D01*
X335774Y346561D01*
X335800Y347000D01*
X335774Y347439D01*
X335671Y347868D01*
X335503Y348275D01*
X335365Y348500D01*
X339916D01*
Y343444D01*
X339847Y343558D01*
X339744Y343677D01*
X339625Y343780D01*
X339490Y343862D01*
X339345Y343922D01*
X339192Y343959D01*
X339035Y343968D01*
X335926Y343959D01*
X335773Y343922D01*
X335628Y343862D01*
X335493Y343780D01*
X335374Y343677D01*
X335271Y343558D01*
X335189Y343423D01*
X335129Y343278D01*
X335092Y343125D01*
X335083Y342968D01*
X335092Y338875D01*
X335129Y338722D01*
X335186Y338583D01*
X334997Y338275D01*
X334829Y337868D01*
X334726Y337439D01*
X334691Y337000D01*
X334726Y336561D01*
X334829Y336132D01*
X334873Y336025D01*
X334722Y335989D01*
X334577Y335929D01*
X334442Y335847D01*
X334323Y335744D01*
X334220Y335625D01*
X334138Y335490D01*
X334078Y335345D01*
X334041Y335192D01*
X334032Y335035D01*
X334041Y331926D01*
X334078Y331773D01*
X334138Y331628D01*
X334220Y331493D01*
X334323Y331374D01*
X334442Y331271D01*
X334577Y331189D01*
X334722Y331129D01*
X334875Y331092D01*
X335032Y331083D01*
X339125Y331092D01*
X339278Y331129D01*
X339423Y331189D01*
X339558Y331271D01*
X339677Y331374D01*
X339780Y331493D01*
X339862Y331628D01*
X339916Y331759D01*
Y330241D01*
X339862Y330372D01*
X339780Y330507D01*
X339677Y330626D01*
X339558Y330729D01*
X339423Y330811D01*
X339278Y330871D01*
X339125Y330908D01*
X338968Y330917D01*
X334875Y330908D01*
X334722Y330871D01*
X334577Y330811D01*
X334442Y330729D01*
X334323Y330626D01*
X334220Y330507D01*
X334138Y330372D01*
X334078Y330227D01*
X334041Y330074D01*
X334032Y329917D01*
X334041Y326808D01*
X334078Y326655D01*
X334138Y326510D01*
X334220Y326375D01*
X334323Y326256D01*
X334442Y326153D01*
X334577Y326071D01*
X334722Y326011D01*
X334875Y325974D01*
X335032Y325965D01*
X339125Y325974D01*
X339278Y326011D01*
X339423Y326071D01*
X339558Y326153D01*
X339648Y326231D01*
X339916Y325963D01*
Y304000D01*
X331779D01*
X331775Y304003D01*
X331368Y304171D01*
X330939Y304274D01*
X330500Y304309D01*
X330061Y304274D01*
X329877Y304230D01*
X329841Y304260D01*
X329640Y304384D01*
X329422Y304474D01*
X329192Y304529D01*
X329192Y304529D01*
X328957Y304548D01*
X328898Y304543D01*
X326945D01*
X326943Y305759D01*
X326906Y305912D01*
X326846Y306057D01*
X326764Y306192D01*
X326661Y306311D01*
X326542Y306414D01*
X326407Y306496D01*
X326262Y306556D01*
X326109Y306593D01*
X325952Y306602D01*
X320155Y306593D01*
X320171Y306632D01*
X320274Y307061D01*
X320300Y307500D01*
X320274Y307939D01*
X320171Y308368D01*
X320003Y308775D01*
X319772Y309151D01*
X319486Y309486D01*
X319151Y309772D01*
X318775Y310003D01*
X318368Y310171D01*
X317939Y310274D01*
X317500Y310309D01*
X317061Y310274D01*
X316632Y310171D01*
X316225Y310003D01*
X315849Y309772D01*
X315514Y309486D01*
X315228Y309151D01*
X314997Y308775D01*
X314829Y308368D01*
X314726Y307939D01*
X314691Y307500D01*
X314726Y307061D01*
X314829Y306632D01*
X314997Y306225D01*
X315228Y305849D01*
X315514Y305514D01*
X315849Y305228D01*
X316225Y304997D01*
X316632Y304829D01*
X317061Y304726D01*
X317500Y304691D01*
X317939Y304726D01*
X318368Y304829D01*
X318775Y304997D01*
X319049Y305165D01*
X319051Y304000D01*
X304000D01*
Y346500D01*
X319879D01*
X324398Y341981D01*
X324436Y341936D01*
X324616Y341783D01*
X324817Y341659D01*
X325035Y341569D01*
X325265Y341514D01*
X325500Y341495D01*
X325559Y341500D01*
X329820D01*
X329969Y341351D01*
X329974Y338875D01*
X330011Y338722D01*
X330071Y338577D01*
X330153Y338442D01*
X330256Y338323D01*
X330375Y338220D01*
X330510Y338138D01*
X330655Y338078D01*
X330808Y338041D01*
X330965Y338032D01*
X334074Y338041D01*
X334227Y338078D01*
X334372Y338138D01*
X334507Y338220D01*
X334626Y338323D01*
X334729Y338442D01*
X334811Y338577D01*
X334871Y338722D01*
X334908Y338875D01*
X334917Y339032D01*
X334908Y343125D01*
X334871Y343278D01*
X334811Y343423D01*
X334729Y343558D01*
X334626Y343677D01*
X334507Y343780D01*
X334372Y343862D01*
X334227Y343922D01*
X334074Y343959D01*
X333917Y343968D01*
G37*
G36*
X289500Y292500D02*Y311000D01*
X302000D01*
Y292500D01*
X289500D01*
G37*
G36*
X361500Y273500D02*X380000D01*
Y349500D01*
X388000D01*
Y246033D01*
X387968Y246035D01*
X383875Y246026D01*
X383722Y245989D01*
X383577Y245929D01*
X383442Y245847D01*
X383323Y245744D01*
X383220Y245625D01*
X383138Y245490D01*
X383078Y245345D01*
X383041Y245192D01*
X383033Y245059D01*
X382868D01*
X382809Y245064D01*
X382574Y245045D01*
X382344Y244990D01*
X382126Y244900D01*
X381996Y244820D01*
X381995Y245578D01*
X381977Y245655D01*
X381947Y245728D01*
X381906Y245795D01*
X381855Y245855D01*
X381795Y245906D01*
X381728Y245947D01*
X381655Y245977D01*
X381578Y245995D01*
X381500Y246000D01*
X379422Y245995D01*
X379345Y245977D01*
X379272Y245947D01*
X379205Y245906D01*
X379145Y245855D01*
X379094Y245795D01*
X379053Y245728D01*
X379023Y245655D01*
X379005Y245578D01*
X379000Y245500D01*
X379001Y244500D01*
X377000D01*
Y245879D01*
X378061Y246939D01*
X378217Y247116D01*
X378341Y247317D01*
X378431Y247535D01*
X378486Y247765D01*
X378505Y248000D01*
X378486Y248235D01*
X378431Y248465D01*
X378341Y248683D01*
X378217Y248884D01*
X378064Y249064D01*
X377884Y249217D01*
X377683Y249341D01*
X377465Y249431D01*
X377235Y249486D01*
X377000Y249505D01*
X376765Y249486D01*
X376535Y249431D01*
X376317Y249341D01*
X376116Y249217D01*
X375939Y249061D01*
X374481Y247602D01*
X374436Y247564D01*
X374283Y247384D01*
X374159Y247183D01*
X374069Y246965D01*
X374014Y246735D01*
X374014Y246735D01*
X373995Y246500D01*
X374000Y246441D01*
Y244500D01*
X371996D01*
X371995Y245578D01*
X371977Y245655D01*
X371947Y245728D01*
X371906Y245795D01*
X371855Y245855D01*
X371795Y245906D01*
X371728Y245947D01*
X371655Y245977D01*
X371578Y245995D01*
X371500Y246000D01*
X369422Y245995D01*
X369345Y245977D01*
X369272Y245947D01*
X369205Y245906D01*
X369145Y245855D01*
X369094Y245795D01*
X369053Y245728D01*
X369023Y245655D01*
X369005Y245578D01*
X369000Y245500D01*
X369001Y244500D01*
X366996D01*
X366995Y245578D01*
X366977Y245655D01*
X366947Y245728D01*
X366906Y245795D01*
X366855Y245855D01*
X366795Y245906D01*
X366728Y245947D01*
X366655Y245977D01*
X366578Y245995D01*
X366500Y246000D01*
X365623Y245998D01*
X365602Y246019D01*
X365564Y246064D01*
X365384Y246217D01*
X365183Y246341D01*
X364965Y246431D01*
X364735Y246486D01*
X364500Y246505D01*
X364441Y246500D01*
X361500D01*
Y251008D01*
X366578Y251013D01*
X366731Y251050D01*
X366877Y251110D01*
X367011Y251192D01*
X367131Y251295D01*
X367233Y251414D01*
X367315Y251549D01*
X367375Y251694D01*
X367412Y251847D01*
X367421Y252004D01*
X367412Y267909D01*
X367375Y268062D01*
X367315Y268207D01*
X367233Y268342D01*
X367131Y268461D01*
X367011Y268563D01*
X366877Y268646D01*
X366731Y268706D01*
X366578Y268743D01*
X366421Y268752D01*
X361500Y268747D01*
Y273500D01*
G37*
G36*
X332996D02*X337635D01*
X337497Y273275D01*
X337329Y272868D01*
X337226Y272439D01*
X337191Y272000D01*
X337226Y271561D01*
X337329Y271132D01*
X337497Y270725D01*
X337728Y270349D01*
X338014Y270014D01*
X338349Y269728D01*
X338725Y269497D01*
X339132Y269329D01*
X339561Y269226D01*
X340000Y269191D01*
X340439Y269226D01*
X340868Y269329D01*
X341275Y269497D01*
X341651Y269728D01*
X341986Y270014D01*
X342272Y270349D01*
X342503Y270725D01*
X342671Y271132D01*
X342774Y271561D01*
X342800Y272000D01*
X342774Y272439D01*
X342671Y272868D01*
X342503Y273275D01*
X342365Y273500D01*
X361500D01*
Y268747D01*
X356422Y268743D01*
X356269Y268706D01*
X356123Y268646D01*
X355989Y268563D01*
X355869Y268461D01*
X355767Y268342D01*
X355685Y268207D01*
X355625Y268062D01*
X355588Y267909D01*
X355579Y267752D01*
X355588Y251847D01*
X355625Y251694D01*
X355685Y251549D01*
X355767Y251414D01*
X355869Y251295D01*
X355989Y251192D01*
X356123Y251110D01*
X356269Y251050D01*
X356422Y251013D01*
X356579Y251004D01*
X361500Y251008D01*
Y246500D01*
X352300D01*
X352274Y246939D01*
X352171Y247368D01*
X352003Y247775D01*
X351772Y248151D01*
X351486Y248486D01*
X351151Y248772D01*
X350775Y249003D01*
X350368Y249171D01*
X349939Y249274D01*
X349500Y249309D01*
X349061Y249274D01*
X348632Y249171D01*
X348225Y249003D01*
X347849Y248772D01*
X347514Y248486D01*
X347228Y248151D01*
X346997Y247775D01*
X346829Y247368D01*
X346726Y246939D01*
X346691Y246500D01*
X346726Y246061D01*
X346829Y245632D01*
X346997Y245225D01*
X347228Y244849D01*
X347514Y244514D01*
X347530Y244500D01*
X332996D01*
Y259692D01*
X333000Y259691D01*
X333439Y259726D01*
X333868Y259829D01*
X334275Y259997D01*
X334651Y260228D01*
X334986Y260514D01*
X335272Y260849D01*
X335503Y261225D01*
X335671Y261632D01*
X335774Y262061D01*
X335800Y262500D01*
X335774Y262939D01*
X335671Y263368D01*
X335503Y263775D01*
X335272Y264151D01*
X334986Y264486D01*
X334651Y264772D01*
X334275Y265003D01*
X333868Y265171D01*
X333540Y265250D01*
X333868Y265329D01*
X334275Y265497D01*
X334651Y265728D01*
X334986Y266014D01*
X335272Y266349D01*
X335503Y266725D01*
X335671Y267132D01*
X335774Y267561D01*
X335800Y268000D01*
X335774Y268439D01*
X335671Y268868D01*
X335503Y269275D01*
X335272Y269651D01*
X334986Y269986D01*
X334651Y270272D01*
X334275Y270503D01*
X333868Y270671D01*
X333439Y270774D01*
X333000Y270809D01*
X332996Y270808D01*
Y273500D01*
G37*
G36*
X304939Y291000D02*X321240D01*
X321267Y290889D01*
X319422Y289043D01*
X319377Y289005D01*
X319339Y288960D01*
X318808Y288959D01*
X318655Y288922D01*
X318510Y288862D01*
X318375Y288780D01*
X318256Y288677D01*
X318153Y288558D01*
X318071Y288423D01*
X318011Y288278D01*
X317974Y288125D01*
X317965Y287968D01*
X317974Y283875D01*
X318011Y283722D01*
X318071Y283577D01*
X318153Y283442D01*
X318256Y283323D01*
X318375Y283220D01*
X318510Y283138D01*
X318655Y283078D01*
X318808Y283041D01*
X318965Y283032D01*
X321500Y283040D01*
Y273500D01*
X332996D01*
Y270808D01*
X332561Y270774D01*
X332132Y270671D01*
X331725Y270503D01*
X331349Y270272D01*
X331014Y269986D01*
X330728Y269651D01*
X330497Y269275D01*
X330329Y268868D01*
X330226Y268439D01*
X330191Y268000D01*
X330226Y267561D01*
X330329Y267132D01*
X330497Y266725D01*
X330728Y266349D01*
X331014Y266014D01*
X331349Y265728D01*
X331725Y265497D01*
X332132Y265329D01*
X332460Y265250D01*
X332132Y265171D01*
X331725Y265003D01*
X331349Y264772D01*
X331014Y264486D01*
X330728Y264151D01*
X330497Y263775D01*
X330329Y263368D01*
X330226Y262939D01*
X330191Y262500D01*
X330226Y262061D01*
X330329Y261632D01*
X330497Y261225D01*
X330728Y260849D01*
X331014Y260514D01*
X331349Y260228D01*
X331725Y259997D01*
X332132Y259829D01*
X332561Y259726D01*
X332996Y259692D01*
Y244500D01*
X329470D01*
X329486Y244514D01*
X329772Y244849D01*
X330003Y245225D01*
X330171Y245632D01*
X330274Y246061D01*
X330300Y246500D01*
X330274Y246939D01*
X330171Y247368D01*
X330003Y247775D01*
X329772Y248151D01*
X329486Y248486D01*
X329151Y248772D01*
X328775Y249003D01*
X328368Y249171D01*
X327939Y249274D01*
X327500Y249309D01*
X327061Y249274D01*
X326632Y249171D01*
X326225Y249003D01*
X325849Y248772D01*
X325721Y248662D01*
X325671Y248868D01*
X325503Y249275D01*
X325272Y249651D01*
X324986Y249986D01*
X324651Y250272D01*
X324275Y250503D01*
X323868Y250671D01*
X323439Y250774D01*
X323000Y250809D01*
X322561Y250774D01*
X322132Y250671D01*
X321725Y250503D01*
X321349Y250272D01*
X321014Y249986D01*
X320728Y249651D01*
X320497Y249275D01*
X320329Y248868D01*
X320226Y248439D01*
X320191Y248000D01*
X320226Y247561D01*
X320329Y247132D01*
X320497Y246725D01*
X320728Y246349D01*
X321014Y246014D01*
X321349Y245728D01*
X321725Y245497D01*
X322132Y245329D01*
X322561Y245226D01*
X323000Y245191D01*
X323439Y245226D01*
X323868Y245329D01*
X324275Y245497D01*
X324651Y245728D01*
X324779Y245838D01*
X324829Y245632D01*
X324997Y245225D01*
X325228Y244849D01*
X325514Y244514D01*
X325530Y244500D01*
X304939D01*
Y249275D01*
X305010Y249280D01*
X305507Y249400D01*
X305980Y249595D01*
X306416Y249863D01*
X306805Y250195D01*
X307137Y250584D01*
X307405Y251020D01*
X307600Y251493D01*
X307720Y251990D01*
X307739Y252321D01*
X307849Y252228D01*
X308225Y251997D01*
X308632Y251829D01*
X309061Y251726D01*
X309500Y251691D01*
X309939Y251726D01*
X310368Y251829D01*
X310775Y251997D01*
X311151Y252228D01*
X311486Y252514D01*
X311500Y252530D01*
X311514Y252514D01*
X311849Y252228D01*
X312225Y251997D01*
X312632Y251829D01*
X313061Y251726D01*
X313500Y251691D01*
X313939Y251726D01*
X314368Y251829D01*
X314775Y251997D01*
X315151Y252228D01*
X315486Y252514D01*
X315500Y252530D01*
X315514Y252514D01*
X315849Y252228D01*
X316225Y251997D01*
X316632Y251829D01*
X317061Y251726D01*
X317500Y251691D01*
X317939Y251726D01*
X318368Y251829D01*
X318775Y251997D01*
X319151Y252228D01*
X319486Y252514D01*
X319772Y252849D01*
X320003Y253225D01*
X320171Y253632D01*
X320274Y254061D01*
X320300Y254500D01*
X320274Y254939D01*
X320171Y255368D01*
X320003Y255775D01*
X319772Y256151D01*
X319486Y256486D01*
X319151Y256772D01*
X318775Y257003D01*
X318368Y257171D01*
X317939Y257274D01*
X317500Y257309D01*
X317061Y257274D01*
X316632Y257171D01*
X316225Y257003D01*
X315849Y256772D01*
X315514Y256486D01*
X315500Y256470D01*
X315486Y256486D01*
X315151Y256772D01*
X314775Y257003D01*
X314368Y257171D01*
X313939Y257274D01*
X313500Y257309D01*
X313061Y257274D01*
X312632Y257171D01*
X312225Y257003D01*
X311849Y256772D01*
X311514Y256486D01*
X311500Y256470D01*
X311486Y256486D01*
X311151Y256772D01*
X310775Y257003D01*
X310368Y257171D01*
X309939Y257274D01*
X309500Y257309D01*
X309061Y257274D01*
X308632Y257171D01*
X308225Y257003D01*
X307849Y256772D01*
X307514Y256486D01*
X307228Y256151D01*
X306997Y255775D01*
X306829Y255368D01*
X306726Y254939D01*
X306721Y254877D01*
X306416Y255137D01*
X305980Y255405D01*
X305507Y255600D01*
X305010Y255720D01*
X304939Y255725D01*
Y261909D01*
X305132Y261829D01*
X305561Y261726D01*
X306000Y261691D01*
X306439Y261726D01*
X306868Y261829D01*
X307275Y261997D01*
X307651Y262228D01*
X307986Y262514D01*
X308000Y262530D01*
X308014Y262514D01*
X308349Y262228D01*
X308725Y261997D01*
X309132Y261829D01*
X309561Y261726D01*
X310000Y261691D01*
X310439Y261726D01*
X310868Y261829D01*
X311275Y261997D01*
X311651Y262228D01*
X311986Y262514D01*
X312000Y262530D01*
X312014Y262514D01*
X312349Y262228D01*
X312725Y261997D01*
X313132Y261829D01*
X313561Y261726D01*
X314000Y261691D01*
X314439Y261726D01*
X314868Y261829D01*
X315275Y261997D01*
X315651Y262228D01*
X315986Y262514D01*
X316272Y262849D01*
X316503Y263225D01*
X316671Y263632D01*
X316774Y264061D01*
X316800Y264500D01*
X316774Y264939D01*
X316671Y265368D01*
X316503Y265775D01*
X316272Y266151D01*
X315986Y266486D01*
X315651Y266772D01*
X315275Y267003D01*
X314868Y267171D01*
X314439Y267274D01*
X314000Y267309D01*
X313561Y267274D01*
X313132Y267171D01*
X312725Y267003D01*
X312349Y266772D01*
X312014Y266486D01*
X312000Y266470D01*
X311986Y266486D01*
X311651Y266772D01*
X311275Y267003D01*
X310868Y267171D01*
X310439Y267274D01*
X310000Y267309D01*
X309561Y267274D01*
X309132Y267171D01*
X308725Y267003D01*
X308349Y266772D01*
X308014Y266486D01*
X308000Y266470D01*
X307986Y266486D01*
X307651Y266772D01*
X307275Y267003D01*
X306868Y267171D01*
X306439Y267274D01*
X306000Y267309D01*
X305561Y267274D01*
X305132Y267171D01*
X304939Y267091D01*
Y291000D01*
G37*
G36*
X290496Y245509D02*X290579Y245504D01*
X300578Y245513D01*
X300731Y245550D01*
X300877Y245610D01*
X301011Y245692D01*
X301131Y245795D01*
X301233Y245914D01*
X301315Y246049D01*
X301375Y246194D01*
X301412Y246347D01*
X301421Y246504D01*
X301418Y251447D01*
X301595Y251020D01*
X301863Y250584D01*
X302195Y250195D01*
X302584Y249863D01*
X303020Y249595D01*
X303493Y249400D01*
X303990Y249280D01*
X304500Y249240D01*
X304939Y249275D01*
Y244500D01*
X290496D01*
Y245509D01*
G37*
G36*
Y291000D02*X293530D01*
X293514Y290986D01*
X293228Y290651D01*
X292997Y290275D01*
X292829Y289868D01*
X292726Y289439D01*
X292691Y289000D01*
X292726Y288561D01*
X292829Y288132D01*
X292997Y287725D01*
X293228Y287349D01*
X293514Y287014D01*
X293849Y286728D01*
X294225Y286497D01*
X294632Y286329D01*
X294809Y286286D01*
X294726Y285939D01*
X294691Y285500D01*
X294726Y285061D01*
X294829Y284632D01*
X294997Y284225D01*
X295228Y283849D01*
X295514Y283514D01*
X295849Y283228D01*
X296225Y282997D01*
X296632Y282829D01*
X296809Y282786D01*
X296726Y282439D01*
X296691Y282000D01*
X296726Y281561D01*
X296829Y281132D01*
X296997Y280725D01*
X297228Y280349D01*
X297514Y280014D01*
X297849Y279728D01*
X298225Y279497D01*
X298632Y279329D01*
X299061Y279226D01*
X299500Y279191D01*
X299939Y279226D01*
X300368Y279329D01*
X300775Y279497D01*
X301151Y279728D01*
X301486Y280014D01*
X301772Y280349D01*
X302003Y280725D01*
X302171Y281132D01*
X302274Y281561D01*
X302300Y282000D01*
X302274Y282439D01*
X302171Y282868D01*
X302003Y283275D01*
X301772Y283651D01*
X301486Y283986D01*
X301151Y284272D01*
X300775Y284503D01*
X300368Y284671D01*
X300191Y284714D01*
X300274Y285061D01*
X300300Y285500D01*
X300274Y285939D01*
X300191Y286286D01*
X300368Y286329D01*
X300775Y286497D01*
X301151Y286728D01*
X301486Y287014D01*
X301772Y287349D01*
X302003Y287725D01*
X302171Y288132D01*
X302274Y288561D01*
X302300Y289000D01*
X302274Y289439D01*
X302171Y289868D01*
X302003Y290275D01*
X301772Y290651D01*
X301486Y290986D01*
X301470Y291000D01*
X304939D01*
Y267091D01*
X304725Y267003D01*
X304349Y266772D01*
X304014Y266486D01*
X303728Y266151D01*
X303497Y265775D01*
X303329Y265368D01*
X303226Y264939D01*
X303191Y264500D01*
X303226Y264061D01*
X303329Y263632D01*
X303497Y263225D01*
X303728Y262849D01*
X304014Y262514D01*
X304349Y262228D01*
X304725Y261997D01*
X304939Y261909D01*
Y255725D01*
X304500Y255760D01*
X303990Y255720D01*
X303493Y255600D01*
X303020Y255405D01*
X302584Y255137D01*
X302195Y254805D01*
X301863Y254416D01*
X301595Y253980D01*
X301417Y253550D01*
X301412Y262409D01*
X301375Y262562D01*
X301315Y262707D01*
X301233Y262842D01*
X301131Y262961D01*
X301011Y263063D01*
X300877Y263146D01*
X300731Y263206D01*
X300578Y263243D01*
X300421Y263252D01*
X290496Y263243D01*
Y278192D01*
X290500Y278191D01*
X290939Y278226D01*
X291368Y278329D01*
X291775Y278497D01*
X292151Y278728D01*
X292486Y279014D01*
X292772Y279349D01*
X293003Y279725D01*
X293171Y280132D01*
X293274Y280561D01*
X293300Y281000D01*
X293274Y281439D01*
X293171Y281868D01*
X293003Y282275D01*
X292772Y282651D01*
X292486Y282986D01*
X292151Y283272D01*
X291775Y283503D01*
X291368Y283671D01*
X290939Y283774D01*
X290500Y283809D01*
X290496Y283808D01*
Y291000D01*
G37*
G36*
X280500D02*X290496D01*
Y283808D01*
X290061Y283774D01*
X289632Y283671D01*
X289225Y283503D01*
X288849Y283272D01*
X288514Y282986D01*
X288228Y282651D01*
X287997Y282275D01*
X287829Y281868D01*
X287726Y281439D01*
X287691Y281000D01*
X287726Y280561D01*
X287829Y280132D01*
X287997Y279725D01*
X288228Y279349D01*
X288514Y279014D01*
X288849Y278728D01*
X289225Y278497D01*
X289632Y278329D01*
X290061Y278226D01*
X290496Y278192D01*
Y263243D01*
X290422Y263243D01*
X290269Y263206D01*
X290123Y263146D01*
X289989Y263063D01*
X289869Y262961D01*
X289767Y262842D01*
X289685Y262707D01*
X289625Y262562D01*
X289588Y262409D01*
X289579Y262252D01*
X289588Y246347D01*
X289625Y246194D01*
X289685Y246049D01*
X289767Y245914D01*
X289869Y245795D01*
X289989Y245692D01*
X290123Y245610D01*
X290269Y245550D01*
X290422Y245513D01*
X290496Y245509D01*
Y244500D01*
X280500D01*
Y255941D01*
X280505Y256000D01*
X280500Y256059D01*
Y262879D01*
X282019Y264398D01*
X282064Y264436D01*
X282217Y264615D01*
X282217Y264616D01*
X282341Y264817D01*
X282431Y265035D01*
X282486Y265265D01*
X282505Y265500D01*
X282500Y265559D01*
Y284691D01*
X282500D01*
X282939Y284726D01*
X283368Y284829D01*
X283775Y284997D01*
X284151Y285228D01*
X284486Y285514D01*
X284772Y285849D01*
X285003Y286225D01*
X285171Y286632D01*
X285274Y287061D01*
X285300Y287500D01*
X285274Y287939D01*
X285171Y288368D01*
X285003Y288775D01*
X284772Y289151D01*
X284486Y289486D01*
X284151Y289772D01*
X283775Y290003D01*
X283368Y290171D01*
X282939Y290274D01*
X282500Y290309D01*
X282061Y290274D01*
X281632Y290171D01*
X281225Y290003D01*
X280849Y289772D01*
X280514Y289486D01*
X280500Y289470D01*
Y291000D01*
G37*
G36*
X355000Y298000D02*Y316500D01*
X367500D01*
Y298000D01*
X355000D01*
G37*
G36*
X363500Y316500D02*Y335000D01*
X376000D01*
Y316500D01*
X363500D01*
G37*
G36*
X370000Y348500D02*X379000D01*
Y274500D01*
X370000D01*
Y316508D01*
X375078Y316513D01*
X375231Y316550D01*
X375377Y316610D01*
X375511Y316692D01*
X375631Y316795D01*
X375733Y316914D01*
X375815Y317049D01*
X375875Y317194D01*
X375912Y317347D01*
X375921Y317504D01*
X375912Y333409D01*
X375875Y333562D01*
X375815Y333707D01*
X375733Y333842D01*
X375631Y333961D01*
X375511Y334063D01*
X375377Y334146D01*
X375231Y334206D01*
X375078Y334243D01*
X374921Y334252D01*
X370000Y334247D01*
Y348500D01*
G37*
G36*
X361500D02*X370000D01*
Y334247D01*
X364922Y334243D01*
X364769Y334206D01*
X364623Y334146D01*
X364489Y334063D01*
X364369Y333961D01*
X364267Y333842D01*
X364185Y333707D01*
X364125Y333562D01*
X364088Y333409D01*
X364079Y333252D01*
X364088Y317347D01*
X364125Y317194D01*
X364185Y317049D01*
X364267Y316914D01*
X364369Y316795D01*
X364489Y316692D01*
X364623Y316610D01*
X364769Y316550D01*
X364922Y316513D01*
X365079Y316504D01*
X370000Y316508D01*
Y274500D01*
X361500D01*
Y298253D01*
X366578Y298257D01*
X366731Y298294D01*
X366877Y298354D01*
X367011Y298437D01*
X367131Y298539D01*
X367233Y298658D01*
X367315Y298793D01*
X367375Y298938D01*
X367412Y299091D01*
X367421Y299248D01*
X367412Y315153D01*
X367375Y315306D01*
X367315Y315451D01*
X367233Y315586D01*
X367131Y315705D01*
X367011Y315808D01*
X366877Y315890D01*
X366731Y315950D01*
X366578Y315987D01*
X366421Y315996D01*
X361500Y315992D01*
Y348500D01*
G37*
G36*
X349000D02*X361500D01*
Y315992D01*
X356422Y315987D01*
X356269Y315950D01*
X356123Y315890D01*
X355989Y315808D01*
X355869Y315705D01*
X355767Y315586D01*
X355685Y315451D01*
X355625Y315306D01*
X355588Y315153D01*
X355579Y314996D01*
X355588Y299091D01*
X355625Y298938D01*
X355685Y298793D01*
X355767Y298658D01*
X355869Y298539D01*
X355989Y298437D01*
X356123Y298354D01*
X356269Y298294D01*
X356422Y298257D01*
X356579Y298248D01*
X361500Y298253D01*
Y274500D01*
X341279D01*
X341275Y274503D01*
X340868Y274671D01*
X340439Y274774D01*
X340000Y274809D01*
X339561Y274774D01*
X339132Y274671D01*
X338725Y274503D01*
X338721Y274500D01*
X322500D01*
Y283000D01*
X337500D01*
Y283768D01*
X337526Y283875D01*
X337535Y284032D01*
X337526Y288125D01*
X337500Y288232D01*
Y303000D01*
X349000D01*
Y348500D01*
G37*
G36*
X236000Y183000D02*X232496D01*
Y186242D01*
X232561Y186226D01*
X233000Y186191D01*
X233439Y186226D01*
X233868Y186329D01*
X234275Y186497D01*
X234651Y186728D01*
X234986Y187014D01*
X235272Y187349D01*
X235503Y187725D01*
X235671Y188132D01*
X235774Y188561D01*
X235800Y189000D01*
X235774Y189439D01*
X235671Y189868D01*
X235503Y190275D01*
X235272Y190651D01*
X234986Y190986D01*
X234651Y191272D01*
X234275Y191503D01*
X233868Y191671D01*
X233439Y191774D01*
X233000Y191809D01*
X232561Y191774D01*
X232496Y191758D01*
Y192192D01*
X232500Y192191D01*
X232939Y192226D01*
X233368Y192329D01*
X233775Y192497D01*
X234151Y192728D01*
X234486Y193014D01*
X234772Y193349D01*
X235003Y193725D01*
X235171Y194132D01*
X235274Y194561D01*
X235300Y195000D01*
X235274Y195439D01*
X235171Y195868D01*
X235003Y196275D01*
X234772Y196651D01*
X234486Y196986D01*
X234177Y197250D01*
X234486Y197514D01*
X234772Y197849D01*
X235003Y198225D01*
X235171Y198632D01*
X235274Y199061D01*
X235300Y199500D01*
X235274Y199939D01*
X235171Y200368D01*
X235003Y200775D01*
X234772Y201151D01*
X234486Y201486D01*
X234151Y201772D01*
X233775Y202003D01*
X233368Y202171D01*
X232939Y202274D01*
X232500Y202309D01*
X232496Y202308D01*
Y203000D01*
X236000D01*
Y183000D01*
G37*
G36*
X232496D02*X222746D01*
Y186302D01*
X223061Y186226D01*
X223500Y186191D01*
X223939Y186226D01*
X224368Y186329D01*
X224775Y186497D01*
X225151Y186728D01*
X225486Y187014D01*
X225772Y187349D01*
X226003Y187725D01*
X226171Y188132D01*
X226274Y188561D01*
X226300Y189000D01*
X226274Y189439D01*
X226171Y189868D01*
X226003Y190275D01*
X225772Y190651D01*
X225486Y190986D01*
X225151Y191272D01*
X224775Y191503D01*
X224554Y191594D01*
X224772Y191849D01*
X225003Y192225D01*
X225171Y192632D01*
X225274Y193061D01*
X225300Y193500D01*
X225274Y193939D01*
X225171Y194368D01*
X225003Y194775D01*
X224772Y195151D01*
X224486Y195486D01*
X224151Y195772D01*
X223775Y196003D01*
X223368Y196171D01*
X222939Y196274D01*
X222746Y196289D01*
Y196299D01*
X222868Y196329D01*
X223275Y196497D01*
X223651Y196728D01*
X223986Y197014D01*
X224272Y197349D01*
X224503Y197725D01*
X224671Y198132D01*
X224774Y198561D01*
X224800Y199000D01*
X224774Y199439D01*
X224671Y199868D01*
X224503Y200275D01*
X224272Y200651D01*
X223986Y200986D01*
X223651Y201272D01*
X223275Y201503D01*
X222868Y201671D01*
X222746Y201701D01*
Y203000D01*
X232496D01*
Y202308D01*
X232061Y202274D01*
X231632Y202171D01*
X231225Y202003D01*
X230849Y201772D01*
X230514Y201486D01*
X230228Y201151D01*
X229997Y200775D01*
X229829Y200368D01*
X229726Y199939D01*
X229691Y199500D01*
X229726Y199061D01*
X229829Y198632D01*
X229997Y198225D01*
X230228Y197849D01*
X230514Y197514D01*
X230823Y197250D01*
X230514Y196986D01*
X230228Y196651D01*
X229997Y196275D01*
X229829Y195868D01*
X229726Y195439D01*
X229691Y195000D01*
X229726Y194561D01*
X229829Y194132D01*
X229997Y193725D01*
X230228Y193349D01*
X230514Y193014D01*
X230849Y192728D01*
X231225Y192497D01*
X231632Y192329D01*
X232061Y192226D01*
X232496Y192192D01*
Y191758D01*
X232132Y191671D01*
X231725Y191503D01*
X231349Y191272D01*
X231014Y190986D01*
X230728Y190651D01*
X230497Y190275D01*
X230329Y189868D01*
X230226Y189439D01*
X230191Y189000D01*
X230226Y188561D01*
X230329Y188132D01*
X230497Y187725D01*
X230728Y187349D01*
X231014Y187014D01*
X231349Y186728D01*
X231725Y186497D01*
X232132Y186329D01*
X232496Y186242D01*
Y183000D01*
G37*
G36*
X222746Y196289D02*X222714Y196292D01*
X222746Y196299D01*
Y196289D01*
G37*
G36*
Y183000D02*X182500D01*
Y203000D01*
X222746D01*
Y201701D01*
X222439Y201774D01*
X222000Y201809D01*
X221561Y201774D01*
X221132Y201671D01*
X220725Y201503D01*
X220349Y201272D01*
X220014Y200986D01*
X219728Y200651D01*
X219497Y200275D01*
X219329Y199868D01*
X219226Y199439D01*
X219191Y199000D01*
X219226Y198561D01*
X219329Y198132D01*
X219497Y197725D01*
X219728Y197349D01*
X220014Y197014D01*
X220349Y196728D01*
X220725Y196497D01*
X221132Y196329D01*
X221561Y196226D01*
X221786Y196208D01*
X221632Y196171D01*
X221225Y196003D01*
X220849Y195772D01*
X220514Y195486D01*
X220228Y195151D01*
X219997Y194775D01*
X219829Y194368D01*
X219726Y193939D01*
X219691Y193500D01*
X219726Y193061D01*
X219829Y192632D01*
X219997Y192225D01*
X220228Y191849D01*
X220514Y191514D01*
X220849Y191228D01*
X221225Y190997D01*
X221446Y190906D01*
X221228Y190651D01*
X220997Y190275D01*
X220829Y189868D01*
X220726Y189439D01*
X220691Y189000D01*
X220726Y188561D01*
X220829Y188132D01*
X220997Y187725D01*
X221228Y187349D01*
X221514Y187014D01*
X221849Y186728D01*
X222225Y186497D01*
X222632Y186329D01*
X222746Y186302D01*
Y183000D01*
G37*
G36*
X236000Y77500D02*X232496D01*
Y80742D01*
X232561Y80726D01*
X233000Y80691D01*
X233439Y80726D01*
X233868Y80829D01*
X234275Y80997D01*
X234651Y81228D01*
X234986Y81514D01*
X235272Y81849D01*
X235503Y82225D01*
X235671Y82632D01*
X235774Y83061D01*
X235800Y83500D01*
X235774Y83939D01*
X235671Y84368D01*
X235503Y84775D01*
X235272Y85151D01*
X234986Y85486D01*
X234651Y85772D01*
X234275Y86003D01*
X233868Y86171D01*
X233439Y86274D01*
X233000Y86309D01*
X232561Y86274D01*
X232496Y86258D01*
Y86692D01*
X232500Y86691D01*
X232939Y86726D01*
X233368Y86829D01*
X233775Y86997D01*
X234151Y87228D01*
X234486Y87514D01*
X234772Y87849D01*
X235003Y88225D01*
X235171Y88632D01*
X235274Y89061D01*
X235300Y89500D01*
X235274Y89939D01*
X235171Y90368D01*
X235003Y90775D01*
X234772Y91151D01*
X234486Y91486D01*
X234177Y91750D01*
X234486Y92014D01*
X234772Y92349D01*
X235003Y92725D01*
X235171Y93132D01*
X235274Y93561D01*
X235300Y94000D01*
X235274Y94439D01*
X235171Y94868D01*
X235003Y95275D01*
X234772Y95651D01*
X234486Y95986D01*
X234151Y96272D01*
X233775Y96503D01*
X233368Y96671D01*
X232939Y96774D01*
X232500Y96809D01*
X232496Y96808D01*
Y97500D01*
X236000D01*
Y77500D01*
G37*
G36*
X232496D02*X222746D01*
Y80802D01*
X223061Y80726D01*
X223500Y80691D01*
X223939Y80726D01*
X224368Y80829D01*
X224775Y80997D01*
X225151Y81228D01*
X225486Y81514D01*
X225772Y81849D01*
X226003Y82225D01*
X226171Y82632D01*
X226274Y83061D01*
X226300Y83500D01*
X226274Y83939D01*
X226171Y84368D01*
X226003Y84775D01*
X225772Y85151D01*
X225486Y85486D01*
X225151Y85772D01*
X224775Y86003D01*
X224554Y86094D01*
X224772Y86349D01*
X225003Y86725D01*
X225171Y87132D01*
X225274Y87561D01*
X225300Y88000D01*
X225274Y88439D01*
X225171Y88868D01*
X225003Y89275D01*
X224772Y89651D01*
X224486Y89986D01*
X224151Y90272D01*
X223775Y90503D01*
X223368Y90671D01*
X222939Y90774D01*
X222746Y90789D01*
Y90799D01*
X222868Y90829D01*
X223275Y90997D01*
X223651Y91228D01*
X223986Y91514D01*
X224272Y91849D01*
X224503Y92225D01*
X224671Y92632D01*
X224774Y93061D01*
X224800Y93500D01*
X224774Y93939D01*
X224671Y94368D01*
X224503Y94775D01*
X224272Y95151D01*
X223986Y95486D01*
X223651Y95772D01*
X223275Y96003D01*
X222868Y96171D01*
X222746Y96201D01*
Y97500D01*
X232496D01*
Y96808D01*
X232061Y96774D01*
X231632Y96671D01*
X231225Y96503D01*
X230849Y96272D01*
X230514Y95986D01*
X230228Y95651D01*
X229997Y95275D01*
X229829Y94868D01*
X229726Y94439D01*
X229691Y94000D01*
X229726Y93561D01*
X229829Y93132D01*
X229997Y92725D01*
X230228Y92349D01*
X230514Y92014D01*
X230823Y91750D01*
X230514Y91486D01*
X230228Y91151D01*
X229997Y90775D01*
X229829Y90368D01*
X229726Y89939D01*
X229691Y89500D01*
X229726Y89061D01*
X229829Y88632D01*
X229997Y88225D01*
X230228Y87849D01*
X230514Y87514D01*
X230849Y87228D01*
X231225Y86997D01*
X231632Y86829D01*
X232061Y86726D01*
X232496Y86692D01*
Y86258D01*
X232132Y86171D01*
X231725Y86003D01*
X231349Y85772D01*
X231014Y85486D01*
X230728Y85151D01*
X230497Y84775D01*
X230329Y84368D01*
X230226Y83939D01*
X230191Y83500D01*
X230226Y83061D01*
X230329Y82632D01*
X230497Y82225D01*
X230728Y81849D01*
X231014Y81514D01*
X231349Y81228D01*
X231725Y80997D01*
X232132Y80829D01*
X232496Y80742D01*
Y77500D01*
G37*
G36*
X222746Y90789D02*X222714Y90792D01*
X222746Y90799D01*
Y90789D01*
G37*
G36*
Y77500D02*X182500D01*
Y97500D01*
X222746D01*
Y96201D01*
X222439Y96274D01*
X222000Y96309D01*
X221561Y96274D01*
X221132Y96171D01*
X220725Y96003D01*
X220349Y95772D01*
X220014Y95486D01*
X219728Y95151D01*
X219497Y94775D01*
X219329Y94368D01*
X219226Y93939D01*
X219191Y93500D01*
X219226Y93061D01*
X219329Y92632D01*
X219497Y92225D01*
X219728Y91849D01*
X220014Y91514D01*
X220349Y91228D01*
X220725Y90997D01*
X221132Y90829D01*
X221561Y90726D01*
X221786Y90708D01*
X221632Y90671D01*
X221225Y90503D01*
X220849Y90272D01*
X220514Y89986D01*
X220228Y89651D01*
X219997Y89275D01*
X219829Y88868D01*
X219726Y88439D01*
X219691Y88000D01*
X219726Y87561D01*
X219829Y87132D01*
X219997Y86725D01*
X220228Y86349D01*
X220514Y86014D01*
X220849Y85728D01*
X221225Y85497D01*
X221446Y85406D01*
X221228Y85151D01*
X220997Y84775D01*
X220829Y84368D01*
X220726Y83939D01*
X220691Y83500D01*
X220726Y83061D01*
X220829Y82632D01*
X220997Y82225D01*
X221228Y81849D01*
X221514Y81514D01*
X221849Y81228D01*
X222225Y80997D01*
X222632Y80829D01*
X222746Y80802D01*
Y77500D01*
G37*
G36*
X209500Y137000D02*Y104000D01*
X182500D01*
Y137000D01*
X209500D01*
G37*
G36*
X256500Y138000D02*X327500D01*
Y101000D01*
X291000D01*
X290000Y102000D01*
X256500D01*
Y138000D01*
G37*
G36*
Y34500D02*Y69000D01*
X277500D01*
Y76500D01*
X327500D01*
Y34500D01*
X256500D01*
G37*
G36*
X255500Y138000D02*Y101000D01*
X282000D01*
Y94000D01*
X274500D01*
Y97000D01*
X249000D01*
X247500Y95500D01*
Y77500D01*
X250500Y74500D01*
X255000D01*
Y66500D01*
X255500Y66000D01*
Y34500D01*
X201500D01*
Y56500D01*
X182500D01*
Y77500D01*
X236000D01*
Y97500D01*
X182500D01*
Y103000D01*
X210500D01*
Y138000D01*
X255500D01*
G37*
G36*
X182500Y55500D02*X200500D01*
Y34500D01*
X185500D01*
X182500Y37500D01*
Y55500D01*
G37*
G36*
X243496Y264535D02*X243514Y264514D01*
X243823Y264250D01*
X243514Y263986D01*
X243496Y263965D01*
Y264535D01*
G37*
G36*
X255000Y294000D02*X279500D01*
Y286059D01*
X279495Y286000D01*
X279500Y285941D01*
Y266121D01*
X277981Y264602D01*
X277936Y264564D01*
X277783Y264384D01*
X277659Y264183D01*
X277569Y263965D01*
X277514Y263735D01*
X277514Y263735D01*
X277495Y263500D01*
X277500Y263441D01*
Y256621D01*
X273879Y253000D01*
X247970D01*
X247651Y253272D01*
X247275Y253503D01*
X246868Y253671D01*
X246439Y253774D01*
X246000Y253809D01*
X245561Y253774D01*
X245132Y253671D01*
X244725Y253503D01*
X244349Y253272D01*
X244250Y253188D01*
X244151Y253272D01*
X243775Y253503D01*
X243496Y253618D01*
Y255535D01*
X243514Y255514D01*
X243849Y255228D01*
X244225Y254997D01*
X244632Y254829D01*
X245061Y254726D01*
X245500Y254691D01*
X245939Y254726D01*
X246368Y254829D01*
X246775Y254997D01*
X247151Y255228D01*
X247486Y255514D01*
X247772Y255849D01*
X248003Y256225D01*
X248171Y256632D01*
X248274Y257061D01*
X248300Y257500D01*
X248274Y257939D01*
X248171Y258368D01*
X248003Y258775D01*
X247772Y259151D01*
X247486Y259486D01*
X247177Y259750D01*
X247486Y260014D01*
X247772Y260349D01*
X248003Y260725D01*
X248171Y261132D01*
X248274Y261561D01*
X248300Y262000D01*
X248274Y262439D01*
X248171Y262868D01*
X248003Y263275D01*
X247772Y263651D01*
X247486Y263986D01*
X247177Y264250D01*
X247486Y264514D01*
X247772Y264849D01*
X248003Y265225D01*
X248171Y265632D01*
X248274Y266061D01*
X248300Y266500D01*
X248274Y266939D01*
X248171Y267368D01*
X248003Y267775D01*
X247772Y268151D01*
X247486Y268486D01*
X247151Y268772D01*
X246775Y269003D01*
X246368Y269171D01*
X245939Y269274D01*
X245500Y269309D01*
X245061Y269274D01*
X244632Y269171D01*
X244225Y269003D01*
X243849Y268772D01*
X243514Y268486D01*
X243496Y268465D01*
Y281000D01*
X255000D01*
Y294000D01*
G37*
G36*
X243496Y253618D02*X243368Y253671D01*
X242939Y253774D01*
X242500Y253809D01*
X242061Y253774D01*
X241632Y253671D01*
X241225Y253503D01*
X240849Y253272D01*
X240530Y253000D01*
X235000D01*
Y258441D01*
X235005Y258500D01*
X234986Y258735D01*
X234931Y258965D01*
X234841Y259183D01*
X234717Y259384D01*
X234564Y259564D01*
X234519Y259602D01*
X234000Y260121D01*
Y281000D01*
X243496D01*
Y268465D01*
X243228Y268151D01*
X242997Y267775D01*
X242829Y267368D01*
X242726Y266939D01*
X242691Y266500D01*
X242726Y266061D01*
X242829Y265632D01*
X242997Y265225D01*
X243228Y264849D01*
X243496Y264535D01*
Y263965D01*
X243228Y263651D01*
X242997Y263275D01*
X242829Y262868D01*
X242744Y262515D01*
X242368Y262671D01*
X241939Y262774D01*
X241500Y262809D01*
X241061Y262774D01*
X240632Y262671D01*
X240225Y262503D01*
X239849Y262272D01*
X239514Y261986D01*
X239228Y261651D01*
X238997Y261275D01*
X238829Y260868D01*
X238726Y260439D01*
X238691Y260000D01*
X238726Y259561D01*
X238829Y259132D01*
X238997Y258725D01*
X239228Y258349D01*
X239514Y258014D01*
X239849Y257728D01*
X240225Y257497D01*
X240632Y257329D01*
X241061Y257226D01*
X241500Y257191D01*
X241939Y257226D01*
X242368Y257329D01*
X242694Y257464D01*
X242726Y257061D01*
X242829Y256632D01*
X242997Y256225D01*
X243228Y255849D01*
X243496Y255535D01*
Y253618D01*
G37*
G36*
X206500Y265500D02*Y243500D01*
X255500D01*
Y206500D01*
X282000D01*
Y199500D01*
X274500D01*
Y202500D01*
X249000D01*
X247500Y201000D01*
Y183000D01*
X250500Y180000D01*
X255000D01*
Y172000D01*
X255500Y171500D01*
Y138000D01*
X182500D01*
Y183000D01*
X236000D01*
Y203000D01*
X182500D01*
Y222000D01*
X201500D01*
Y239000D01*
X182500D01*
Y265500D01*
X206500D01*
G37*
G36*
X215996Y279500D02*X231000D01*
Y272970D01*
X230986Y272986D01*
X230651Y273272D01*
X230275Y273503D01*
X229868Y273671D01*
X229439Y273774D01*
X229000Y273809D01*
X228561Y273774D01*
X228132Y273671D01*
X227725Y273503D01*
X227349Y273272D01*
X227014Y272986D01*
X226728Y272651D01*
X226497Y272275D01*
X226329Y271868D01*
X226226Y271439D01*
X226191Y271000D01*
X226226Y270561D01*
X226329Y270132D01*
X226497Y269725D01*
X226728Y269349D01*
X227014Y269014D01*
X227323Y268750D01*
X227014Y268486D01*
X226728Y268151D01*
X226497Y267775D01*
X226329Y267368D01*
X226226Y266939D01*
X226191Y266500D01*
X226226Y266061D01*
X226329Y265632D01*
X226497Y265225D01*
X226728Y264849D01*
X227014Y264514D01*
X227349Y264228D01*
X227725Y263997D01*
X228132Y263829D01*
X228561Y263726D01*
X229000Y263691D01*
X229439Y263726D01*
X229868Y263829D01*
X230275Y263997D01*
X230651Y264228D01*
X230986Y264514D01*
X231000Y264530D01*
Y259559D01*
X230995Y259500D01*
X231000Y259441D01*
Y259365D01*
X230775Y259503D01*
X230368Y259671D01*
X229939Y259774D01*
X229500Y259809D01*
X229061Y259774D01*
X228632Y259671D01*
X228225Y259503D01*
X227849Y259272D01*
X227514Y258986D01*
X227228Y258651D01*
X226997Y258275D01*
X226829Y257868D01*
X226726Y257439D01*
X226691Y257000D01*
X226726Y256561D01*
X226829Y256132D01*
X226997Y255725D01*
X227228Y255349D01*
X227514Y255014D01*
X227610Y254932D01*
X227349Y254772D01*
X227014Y254486D01*
X226728Y254151D01*
X226497Y253775D01*
X226329Y253368D01*
X226226Y252939D01*
X226191Y252500D01*
X226226Y252061D01*
X226329Y251632D01*
X226497Y251225D01*
X226728Y250849D01*
X227014Y250514D01*
X227349Y250228D01*
X227610Y250068D01*
X227514Y249986D01*
X227228Y249651D01*
X226997Y249275D01*
X226829Y248868D01*
X226726Y248439D01*
X226691Y248000D01*
X226726Y247561D01*
X226829Y247132D01*
X226997Y246725D01*
X227228Y246349D01*
X227514Y246014D01*
X227849Y245728D01*
X228225Y245497D01*
X228632Y245329D01*
X229061Y245226D01*
X229500Y245191D01*
X229939Y245226D01*
X230368Y245329D01*
X230775Y245497D01*
X231151Y245728D01*
X231486Y246014D01*
X231772Y246349D01*
X232003Y246725D01*
X232171Y247132D01*
X232274Y247561D01*
X232300Y248000D01*
X232274Y248439D01*
X232171Y248868D01*
X232003Y249275D01*
X231865Y249500D01*
X234441D01*
X234500Y249495D01*
X234559Y249500D01*
X240135D01*
X240228Y249349D01*
X240514Y249014D01*
X240849Y248728D01*
X241225Y248497D01*
X241632Y248329D01*
X242061Y248226D01*
X242500Y248191D01*
X242939Y248226D01*
X243368Y248329D01*
X243775Y248497D01*
X244151Y248728D01*
X244250Y248812D01*
X244349Y248728D01*
X244725Y248497D01*
X245132Y248329D01*
X245561Y248226D01*
X246000Y248191D01*
X246439Y248226D01*
X246868Y248329D01*
X247275Y248497D01*
X247651Y248728D01*
X247986Y249014D01*
X248272Y249349D01*
X248365Y249500D01*
X273941D01*
X274000Y249495D01*
X274059Y249500D01*
X279500D01*
Y244500D01*
X255500D01*
Y243366D01*
X255455Y243394D01*
X255310Y243454D01*
X255157Y243491D01*
X255000Y243500D01*
X217843Y243491D01*
X217690Y243454D01*
X217545Y243394D01*
X217410Y243312D01*
X217291Y243209D01*
X217188Y243090D01*
X217106Y242955D01*
X217046Y242810D01*
X217009Y242657D01*
X217000Y242500D01*
X215996D01*
Y253192D01*
X216000Y253191D01*
X216439Y253226D01*
X216868Y253329D01*
X217275Y253497D01*
X217651Y253728D01*
X217986Y254014D01*
X218272Y254349D01*
X218503Y254725D01*
X218671Y255132D01*
X218774Y255561D01*
X218800Y256000D01*
X218774Y256439D01*
X218671Y256868D01*
X218503Y257275D01*
X218272Y257651D01*
X217986Y257986D01*
X217651Y258272D01*
X217275Y258503D01*
X216868Y258671D01*
X216439Y258774D01*
X216000Y258809D01*
X215996Y258808D01*
Y261714D01*
X216003Y261725D01*
X216171Y262132D01*
X216274Y262561D01*
X216300Y263000D01*
X216274Y263439D01*
X216171Y263868D01*
X216003Y264275D01*
X215996Y264286D01*
Y271742D01*
X216061Y271726D01*
X216500Y271691D01*
X216939Y271726D01*
X217368Y271829D01*
X217775Y271997D01*
X218151Y272228D01*
X218486Y272514D01*
X218772Y272849D01*
X219003Y273225D01*
X219171Y273632D01*
X219274Y274061D01*
X219300Y274500D01*
X219274Y274939D01*
X219171Y275368D01*
X219003Y275775D01*
X218772Y276151D01*
X218486Y276486D01*
X218151Y276772D01*
X217775Y277003D01*
X217368Y277171D01*
X216939Y277274D01*
X216500Y277309D01*
X216061Y277274D01*
X215996Y277258D01*
Y279500D01*
G37*
G36*
X182500Y265500D02*Y279500D01*
X215996D01*
Y277258D01*
X215632Y277171D01*
X215225Y277003D01*
X214849Y276772D01*
X214514Y276486D01*
X214228Y276151D01*
X213997Y275775D01*
X213829Y275368D01*
X213726Y274939D01*
X213691Y274500D01*
X213726Y274061D01*
X213829Y273632D01*
X213997Y273225D01*
X214228Y272849D01*
X214514Y272514D01*
X214849Y272228D01*
X215225Y271997D01*
X215632Y271829D01*
X215996Y271742D01*
Y264286D01*
X215772Y264651D01*
X215486Y264986D01*
X215151Y265272D01*
X214775Y265503D01*
X214368Y265671D01*
X213939Y265774D01*
X213500Y265809D01*
X213061Y265774D01*
X212632Y265671D01*
X212225Y265503D01*
X211849Y265272D01*
X211514Y264986D01*
X211228Y264651D01*
X210997Y264275D01*
X210829Y263868D01*
X210726Y263439D01*
X210691Y263000D01*
X210726Y262561D01*
X210829Y262132D01*
X210997Y261725D01*
X211228Y261349D01*
X211514Y261014D01*
X211849Y260728D01*
X212225Y260497D01*
X212632Y260329D01*
X213061Y260226D01*
X213500Y260191D01*
X213939Y260226D01*
X214368Y260329D01*
X214775Y260497D01*
X215151Y260728D01*
X215486Y261014D01*
X215772Y261349D01*
X215996Y261714D01*
Y258808D01*
X215561Y258774D01*
X215132Y258671D01*
X214725Y258503D01*
X214349Y258272D01*
X214014Y257986D01*
X213728Y257651D01*
X213497Y257275D01*
X213329Y256868D01*
X213226Y256439D01*
X213191Y256000D01*
X213226Y255561D01*
X213329Y255132D01*
X213497Y254725D01*
X213728Y254349D01*
X214014Y254014D01*
X214349Y253728D01*
X214725Y253497D01*
X215132Y253329D01*
X215561Y253226D01*
X215996Y253192D01*
Y242500D01*
X206500D01*
Y265500D01*
X182500D01*
G37*
G36*
Y238000D02*X200500D01*
Y223000D01*
X182500D01*
Y238000D01*
G37*
G54D90*X259500Y199500D02*X257000Y197000D01*
X283724Y197799D02*Y202298D01*
X283926Y202500D01*
X287074D02*X287500Y202074D01*
Y195500D01*
X259500Y199500D02*X271500D01*
X264917Y184500D02*X269059D01*
X269500Y184941D01*
X270941Y195000D02*Y194559D01*
X273500Y192000D01*
Y185500D01*
X283926Y202500D02*Y203926D01*
X285500Y205500D01*
X289000D01*
X291000Y203500D01*
Y200500D02*Y203500D01*
X299276Y194650D02*X294650D01*
G54D91*X299276Y191500D02*X300500D01*
X304000Y195000D01*
G54D90*X294453Y194453D02*Y197953D01*
X299559Y203500D02*Y203059D01*
X291000Y203500D02*X294500D01*
X294453Y197953D02*X299559Y203059D01*
X257000Y197000D02*Y190500D01*
G54D92*X251500Y185000D02*Y199000D01*
G54D90*X261961Y196000D02*X263000D01*
X269000Y190000D01*
X262059Y191000D02*Y187358D01*
X264917Y184500D01*
X257083D02*X256500Y183917D01*
Y173000D01*
X259500Y170000D01*
G54D91*X299276Y188350D02*X307150D01*
X311000Y184500D01*
X309000Y193500D02*Y190500D01*
X313000Y186500D01*
X304000Y195000D02*X307500D01*
X309000Y193500D01*
G54D90*X299276Y197799D02*X312299D01*
X313000Y198500D01*
X322000D01*
X269000Y190000D02*X269500D01*
X283724Y188350D02*X281850D01*
X280500Y187000D01*
X276500Y187926D02*X276926Y187500D01*
X283724Y191500D02*X280000D01*
X283724Y194650D02*X281350D01*
X281000Y195000D01*
X278500D01*
X276500Y193000D01*
Y187926D01*
X280500Y187000D02*Y179000D01*
X273500Y185500D02*X279500Y179500D01*
X269059Y184500D02*Y177830D01*
X259500Y94000D02*X257000Y91500D01*
Y85000D01*
X261961Y90500D02*X263000D01*
X269000Y84500D01*
X269500D01*
X262059Y85500D02*Y81858D01*
X264917Y79000D01*
X256500Y78417D02*Y67500D01*
X259500Y64500D01*
X264917Y79000D02*X269059D01*
X257083D02*X256500Y78417D01*
G54D92*X251500Y79500D02*Y93500D01*
G54D90*X259500Y94000D02*X271500D01*
X270941Y89500D02*Y89059D01*
X347461Y85500D02*Y79902D01*
X347059Y79500D01*
X341941D02*X337417D01*
X337500Y85941D02*Y79500D01*
X343327Y85673D02*Y85500D01*
X329083Y79500D02*Y66417D01*
G54D91*X329000Y98000D02*Y105000D01*
X332000Y108000D01*
G54D90*X329583Y66417D02*X331500Y64500D01*
X341854Y72035D02*Y79413D01*
G54D91*X332500Y84000D02*X330000D01*
G54D90*X338000Y91000D02*X343327Y85673D01*
X346543Y96500D02*Y97043D01*
X352500Y103000D01*
X339457Y96500D02*Y95043D01*
X343500Y91000D01*
X347500D01*
X269059Y79000D02*X269500Y79441D01*
X269059Y79000D02*Y72330D01*
X280500Y81500D02*Y73500D01*
X273500Y80000D02*X279500Y74000D01*
X283724Y82850D02*X281850D01*
X280500Y81500D01*
X283724Y86000D02*X280000D01*
X283724Y89150D02*X281350D01*
X281000Y89500D01*
X278500D01*
X276500Y87500D01*
X270941Y89059D02*X273500Y86500D01*
X276500Y87500D02*Y82426D01*
X273500Y86500D02*Y80000D01*
X276500Y82426D02*X276926Y82000D01*
X299276Y89150D02*X294650D01*
X294453Y88953D02*Y92453D01*
X299559Y98000D02*Y97559D01*
X294453Y92453D02*X299559Y97559D01*
G54D91*X299276Y82850D02*X307150D01*
X299276Y86000D02*X300500D01*
X304000Y89500D01*
X307500D01*
X309000Y88000D01*
Y85000D01*
G54D90*X299276Y92299D02*X312299D01*
X313000Y93000D01*
G54D91*X308941Y97000D02*Y101724D01*
X310044Y102827D01*
G54D90*X283724Y92299D02*Y96798D01*
X287500Y96574D02*Y90000D01*
X283724Y96798D02*X283926Y97000D01*
X287074D02*X287500Y96574D01*
X283926Y97000D02*Y98426D01*
X285500Y100000D01*
X289000D01*
X291000Y98000D01*
X294500D01*
X291000Y95000D02*Y98000D01*
G54D91*X307150Y82850D02*X311000Y79000D01*
X309000Y85000D02*X313000Y81000D01*
X323000D01*
X329000Y87000D01*
X330000Y84000D02*X325000Y79000D01*
X311000D02*X325000D01*
G54D90*X324000Y91000D02*X322000Y93000D01*
X313000D02*X322000D01*
X324000Y91000D02*X338000D01*
G54D91*X323559Y97000D02*X328000D01*
X329000Y98000D01*
X318441Y97000D02*X314059D01*
G54D90*X347461Y191000D02*Y185402D01*
X347059Y185000D01*
X341941D02*X337417D01*
X337500Y191441D02*Y185000D01*
X341854Y177535D02*Y184913D01*
X343327Y191173D02*Y191000D01*
G54D91*X313000Y186500D02*X323000D01*
X311000Y184500D02*X325000D01*
G54D90*X324000Y196500D02*X322000Y198500D01*
G54D91*X323000Y186500D02*X329000Y192500D01*
X330000Y189500D02*X325000Y184500D01*
G54D90*X324000Y196500D02*X338000D01*
X343500D02*X347500D01*
X338000D02*X343327Y191173D01*
X339457Y200543D02*X343500Y196500D01*
X346543Y202000D02*Y202543D01*
G54D91*X318441Y202500D02*X314059D01*
X308941D02*Y207224D01*
X310044Y208327D01*
G54D90*X346543Y202543D02*X352500Y208500D01*
X339457Y202000D02*Y200543D01*
X329083Y185000D02*Y171917D01*
X329583D02*X331500Y170000D01*
G54D91*X332500Y189500D02*X330000D01*
X323559Y202500D02*X328000D01*
X329000Y203500D01*
Y210500D01*
X332000Y213500D01*
X386000Y238441D02*X384941D01*
X386000Y243559D02*X382809D01*
X380500Y241250D01*
Y239000D01*
X376000Y231500D02*Y234500D01*
X380500Y239000D02*X376000Y234500D01*
X370500Y241250D02*X375500D01*
Y246500D01*
X377000Y248000D01*
X365500Y238000D02*Y244000D01*
X384941Y238441D02*X379500Y233000D01*
X379000D01*
X386000Y234059D02*X385059D01*
X349500Y246500D02*X351000Y245000D01*
X364500D01*
X365500Y244000D01*
X377500Y230000D02*X376000Y231500D01*
X385059Y234059D02*X381000Y230000D01*
X377500D02*X381000D01*
X386000Y228941D02*X384059Y227000D01*
X371500D01*
X369000Y234500D02*X376000D01*
X365500Y238000D02*X369000Y234500D01*
X365500Y220750D02*Y216000D01*
X371941Y212000D02*X369500D01*
X365500Y216000D02*X369500Y212000D01*
X370500Y220750D02*Y226000D01*
X371500Y227000D02*X370500Y226000D01*
X375500Y220750D02*Y213559D01*
X377059Y212000D01*
X381500D01*
X382000Y212500D01*
X380500Y220750D02*X385691D01*
X386000Y221059D01*
Y215941D02*Y213000D01*
X386500Y212500D01*
X386000Y221059D02*Y224500D01*
G54D90*X386500Y212500D02*Y205500D01*
G54D91*X248000Y285000D02*X251441D01*
X252000Y284441D02*X251441Y285000D01*
X238000Y289559D02*X252000D01*
X243500Y284441D02*X234441D01*
X234500Y251000D02*X274000D01*
X234500D02*X233500Y252000D01*
Y258500D01*
X279000Y256000D02*X274000Y251000D01*
X234441Y284441D02*X232500Y282500D01*
Y259500D01*
X233500Y258500D01*
X281000Y286000D02*X282500Y287500D01*
X281000Y286000D02*Y265500D01*
X279000Y263500D01*
Y256000D01*
G54D90*X263000Y405500D02*X269000Y399500D01*
X269500D01*
X262059Y400500D02*Y396858D01*
X259500Y409000D02*X257000Y406500D01*
Y400000D01*
X261961Y405500D02*X263000D01*
X259500Y409000D02*X271500D01*
X270941Y404500D02*Y404059D01*
X273500Y401500D01*
Y395000D01*
X299276Y404150D02*X294650D01*
G54D91*X299276Y401000D02*X300500D01*
G54D90*X294453Y403953D02*Y407453D01*
X299559Y413000D02*Y412559D01*
X291000Y413000D02*X294500D01*
X291000Y410000D02*Y413000D01*
X294453Y407453D02*X299559Y412559D01*
X283724Y407299D02*Y411798D01*
X283926Y412000D01*
X287074D02*X287500Y411574D01*
Y405000D01*
X283724Y397850D02*X281850D01*
X280500Y396500D01*
Y388500D01*
X283724Y401000D02*X280000D01*
X283724Y404150D02*X281350D01*
X281000Y404500D01*
X278500D01*
X276500Y402500D01*
Y397426D01*
X276926Y397000D01*
X273500Y395000D02*X279500Y389000D01*
X283926Y412000D02*Y413426D01*
X285500Y415000D01*
X289000D01*
X291000Y413000D01*
G54D92*X251500Y394500D02*Y408500D01*
G54D90*X262059Y396858D02*X264917Y394000D01*
X269059D01*
X269500Y394441D01*
X269059Y394000D02*Y387330D01*
X257083Y394000D02*X256500Y393417D01*
Y382500D01*
X259500Y379500D01*
G54D91*X190000Y428250D02*X189750Y428000D01*
X187000D01*
X195000Y428250D02*Y433000D01*
X193059Y434941D01*
X184500D01*
Y440059D02*X184559Y440000D01*
X200000Y439500D02*X190500D01*
X190000Y440000D01*
X184559D01*
X190000Y448750D02*Y440000D01*
X195000Y448750D02*X190000D01*
X200000Y434000D02*Y428250D01*
X205000D02*Y434500D01*
X198000Y436000D02*X200000Y434000D01*
X203500Y437500D02*X200000Y434000D01*
Y448750D02*Y444000D01*
X198500Y442500D01*
X210500Y451559D02*X208059D01*
X205000Y448500D01*
X210500Y446441D02*X209941D01*
X210500Y429559D02*Y436941D01*
Y424441D02*X208809D01*
X205000Y428250D01*
X210500Y441559D02*X210059D01*
X206000Y437500D01*
X205000Y448500D02*Y446000D01*
X201500Y442500D01*
Y441000D01*
X200000Y439500D01*
X209941Y446441D02*X204500Y441000D01*
X206000Y437500D02*X203500D01*
X328957Y303043D02*X330500Y301500D01*
X323000Y303043D02*X328957D01*
X334500Y299500D02*Y296059D01*
X335059Y290382D02*X334500Y290941D01*
X330000Y290500D02*X335059D01*
Y290382D02*Y286000D01*
X327000Y292000D02*Y286000D01*
X329000Y294000D02*X327000Y292000D01*
X329000Y297000D02*Y294000D01*
X325559Y286000D02*X329941D01*
X320441Y287941D02*X324000Y291500D01*
X320441Y287941D02*Y286000D01*
X324000Y294957D02*X323000Y295957D01*
X324000Y294957D02*Y291500D01*
X282000Y340500D02*X289500Y348000D01*
X320500D01*
X325500Y343000D01*
X330441D01*
X332441Y341000D01*
X337000Y333559D02*Y336500D01*
Y328441D02*X339559D01*
X343000Y325000D01*
X337559Y341000D02*Y337059D01*
X337000Y336500D01*
G54D90*X347461Y400500D02*Y394902D01*
X346543Y411500D02*Y412043D01*
X352500Y418000D01*
X343500Y406000D02*X347500D01*
X347461Y394902D02*X347059Y394500D01*
X341941D02*X337417D01*
X337500Y400941D02*Y394500D01*
X338000Y406000D02*X343327Y400673D01*
Y400500D01*
X339457Y411500D02*Y410043D01*
X343500Y406000D01*
X341854Y387035D02*Y394413D01*
G54D91*X299276Y397850D02*X307150D01*
X311000Y394000D01*
X309000Y400000D02*X313000Y396000D01*
X323000D01*
X311000Y394000D02*X325000D01*
X300500Y401000D02*X304000Y404500D01*
X307500D01*
X309000Y403000D01*
Y400000D01*
G54D90*X299276Y407299D02*X312299D01*
X313000Y408000D01*
X324000Y406000D02*X322000Y408000D01*
G54D91*X323000Y396000D02*X329000Y402000D01*
X332500Y399000D02*X330000D01*
X325000Y394000D01*
X323559Y412000D02*X328000D01*
G54D90*X313000Y408000D02*X322000D01*
X324000Y406000D02*X338000D01*
X329083Y394500D02*Y381417D01*
X329583D02*X331500Y379500D01*
G54D91*X328000Y412000D02*X329000Y413000D01*
X318441Y412000D02*X314059D01*
X308941D02*Y416724D01*
X310044Y417827D01*
X329000Y413000D02*Y420000D01*
X332000Y423000D01*
G54D93*X228095Y175173D03*
Y170449D03*
Y165724D03*
X232819Y175173D03*
Y170449D03*
Y165724D03*
X237544Y175173D03*
Y170449D03*
Y165724D03*
X242268Y175173D03*
Y170449D03*
Y165724D03*
Y161000D03*
X246992D03*
X242268Y156276D03*
X246992D03*
Y175173D03*
Y170449D03*
Y165724D03*
X228095Y161000D03*
X232819D03*
X237544D03*
X228095Y156276D03*
X232819D03*
X237544D03*
X228095Y151551D03*
X232819D03*
X237544D03*
X228095Y146827D03*
X232819D03*
X237544D03*
X242268Y151551D03*
X246992D03*
X242268Y146827D03*
X246992D03*
X228095Y208327D03*
Y213051D03*
Y217776D03*
Y222500D03*
X232819Y208327D03*
X237544D03*
X242268D03*
G54D94*X201000Y192000D03*
G54D93*X232819Y213051D03*
Y217776D03*
Y222500D03*
X237544Y213051D03*
Y217776D03*
Y222500D03*
X242268Y213051D03*
Y217776D03*
Y222500D03*
X246992Y208327D03*
Y213051D03*
Y217776D03*
Y222500D03*
X228095Y227224D03*
X232819D03*
X237544D03*
X228095Y231949D03*
X232819D03*
X237544D03*
X228095Y236673D03*
X232819D03*
X237544D03*
X242268Y227224D03*
X246992D03*
X242268Y231949D03*
X246992D03*
X242268Y236673D03*
X246992D03*
X300595Y208327D03*
Y213051D03*
Y217776D03*
Y222500D03*
Y227224D03*
Y231949D03*
X305319Y213051D03*
X310044D03*
X314768D03*
X319492D03*
Y217776D03*
Y222500D03*
Y227224D03*
Y231949D03*
Y236673D03*
X300595D03*
X305319D03*
X310044D03*
X305319Y217776D03*
X310044D03*
Y222500D03*
Y227224D03*
Y231949D03*
X305319Y222500D03*
Y227224D03*
Y231949D03*
X314768Y217776D03*
Y222500D03*
Y227224D03*
Y231949D03*
Y236673D03*
G54D95*X285000Y222500D03*
G54D93*X270110Y285980D03*
X266370D03*
X270110Y282240D03*
X266370D03*
X262630Y285980D03*
X258890D03*
X262630Y282240D03*
X258890D03*
X270110Y278500D03*
Y274760D03*
Y271020D03*
X266370Y278500D03*
Y274760D03*
Y271020D03*
X262630Y278500D03*
Y274760D03*
Y271020D03*
X258890Y278500D03*
Y274760D03*
Y271020D03*
X300595Y175173D03*
X305319D03*
X310044D03*
X314768D03*
X300595Y170449D03*
X305319D03*
X310044D03*
X314768D03*
X300595Y165724D03*
X305319D03*
X310044D03*
X314768D03*
X319492Y175173D03*
Y170449D03*
Y165724D03*
X300595Y161000D03*
X305319D03*
X310044D03*
X314768D03*
G54D95*X285000D03*
G54D93*X300595Y156276D03*
X305319D03*
X310044D03*
X314768D03*
X300595Y151551D03*
Y146827D03*
X305319Y151551D03*
Y146827D03*
X310044Y151551D03*
Y146827D03*
X314768Y151551D03*
Y146827D03*
X319492Y161000D03*
Y156276D03*
Y151551D03*
Y146827D03*
X305319Y208327D03*
X310044D03*
X314768D03*
X319492D03*
G54D96*X317500Y192500D03*
X320453Y195453D03*
Y189547D03*
X314547Y195453D03*
Y189547D03*
X291500Y191500D03*
X294453Y188547D03*
Y194453D03*
X288547D03*
Y188547D03*
G54D94*X369500Y192000D03*
G54D93*X228095Y50776D03*
X232819D03*
X237544D03*
X228095Y46051D03*
X232819D03*
X237544D03*
X228095Y41327D03*
X232819D03*
X237544D03*
X242268Y50776D03*
X246992D03*
X242268Y46051D03*
X246992D03*
X242268Y41327D03*
X246992D03*
X228095Y69673D03*
Y64949D03*
Y60224D03*
Y55500D03*
X232819Y69673D03*
X237544D03*
X242268D03*
G54D94*X201000Y86500D03*
G54D93*X232819Y64949D03*
Y60224D03*
Y55500D03*
X237544Y64949D03*
Y60224D03*
Y55500D03*
X242268Y64949D03*
Y60224D03*
Y55500D03*
X246992Y69673D03*
Y64949D03*
Y60224D03*
Y55500D03*
X228095Y102827D03*
Y107551D03*
Y112276D03*
X232819Y102827D03*
Y107551D03*
Y112276D03*
X237544Y102827D03*
Y107551D03*
Y112276D03*
X242268Y102827D03*
Y107551D03*
Y112276D03*
Y117000D03*
X246992D03*
X242268Y121724D03*
X246992D03*
Y102827D03*
Y107551D03*
Y112276D03*
X228095Y117000D03*
X232819D03*
X237544D03*
X228095Y121724D03*
X232819D03*
X237544D03*
X228095Y126449D03*
X232819D03*
X237544D03*
X228095Y131173D03*
X232819D03*
X237544D03*
X242268Y126449D03*
X246992D03*
X242268Y131173D03*
X246992D03*
X300595Y102827D03*
Y107551D03*
Y112276D03*
G54D95*X285000Y117000D03*
G54D93*X305319Y102827D03*
Y107551D03*
Y112276D03*
X310044Y102827D03*
Y107551D03*
Y112276D03*
X314768Y102827D03*
Y107551D03*
Y112276D03*
Y117000D03*
X319492D03*
X314768Y121724D03*
X319492D03*
Y102827D03*
Y107551D03*
Y112276D03*
X300595Y117000D03*
X305319D03*
X310044D03*
X300595Y121724D03*
X305319D03*
X310044D03*
X300595Y126449D03*
X305319D03*
X310044D03*
X300595Y131173D03*
X305319D03*
X310044D03*
X314768Y126449D03*
X319492D03*
X314768Y131173D03*
X319492D03*
X300595Y50776D03*
X305319D03*
X310044D03*
X300595Y46051D03*
X305319D03*
X310044D03*
X300595Y41327D03*
X305319D03*
X310044D03*
X314768Y50776D03*
X319492D03*
X314768Y46051D03*
X319492D03*
X314768Y41327D03*
X319492D03*
X300595Y69673D03*
Y64949D03*
Y60224D03*
Y55500D03*
X305319Y69673D03*
X310044D03*
X314768D03*
X305319Y64949D03*
Y60224D03*
Y55500D03*
G54D95*X285000D03*
G54D93*X310044Y64949D03*
Y60224D03*
Y55500D03*
X314768Y64949D03*
Y60224D03*
Y55500D03*
X319492Y69673D03*
Y64949D03*
Y60224D03*
Y55500D03*
G54D96*X317500Y87000D03*
X320453Y89953D03*
Y84047D03*
X314547Y89953D03*
Y84047D03*
G54D94*X369500Y86500D03*
G54D96*X291500Y86000D03*
X294453Y83047D03*
Y88953D03*
X288547Y83047D03*
Y88953D03*
G54D93*X228095Y436724D03*
X232819D03*
X237544D03*
X228095Y441449D03*
X232819D03*
X237544D03*
X228095Y446173D03*
X232819D03*
X237544D03*
X242268Y436724D03*
X246992D03*
X242268Y441449D03*
X246992D03*
X242268Y446173D03*
X246992D03*
X300595Y417827D03*
Y422551D03*
Y427276D03*
Y432000D03*
Y436724D03*
Y441449D03*
X305319Y422551D03*
X310044D03*
X314768D03*
X319492D03*
Y427276D03*
Y432000D03*
Y436724D03*
Y441449D03*
Y446173D03*
X300595D03*
X305319D03*
X310044D03*
X305319Y427276D03*
X310044D03*
Y432000D03*
Y436724D03*
Y441449D03*
X305319Y432000D03*
Y436724D03*
Y441449D03*
X314768Y427276D03*
Y432000D03*
Y436724D03*
Y441449D03*
Y446173D03*
G54D95*X285000Y432000D03*
G54D93*X228095Y384673D03*
Y379949D03*
Y375224D03*
X232819Y384673D03*
X237544D03*
X242268D03*
X232819Y379949D03*
X237544D03*
X242268D03*
X246992Y384673D03*
Y379949D03*
Y375224D03*
Y370500D03*
Y365776D03*
X228095Y370500D03*
Y365776D03*
Y361051D03*
Y356327D03*
X232819Y375224D03*
X237544D03*
Y370500D03*
Y365776D03*
Y361051D03*
Y356327D03*
X232819Y370500D03*
Y365776D03*
Y361051D03*
Y356327D03*
X242268Y375224D03*
Y370500D03*
Y365776D03*
Y361051D03*
Y356327D03*
X246992D03*
Y361051D03*
X228095Y417827D03*
Y422551D03*
Y427276D03*
Y432000D03*
X232819Y417827D03*
X237544D03*
X242268D03*
G54D94*X201000Y401500D03*
G54D93*X232819Y422551D03*
Y427276D03*
Y432000D03*
X237544Y422551D03*
Y427276D03*
Y432000D03*
X242268Y422551D03*
Y427276D03*
Y432000D03*
X246992Y417827D03*
Y422551D03*
Y427276D03*
Y432000D03*
X300595Y384673D03*
X305319D03*
X310044D03*
X314768D03*
X300595Y379949D03*
X305319D03*
X310044D03*
X314768D03*
X300595Y375224D03*
X305319D03*
X310044D03*
X314768D03*
X319492Y384673D03*
Y379949D03*
Y375224D03*
X300595Y370500D03*
X305319D03*
X310044D03*
X314768D03*
G54D95*X285000D03*
G54D93*X300595Y365776D03*
X305319D03*
X310044D03*
X314768D03*
X300595Y361051D03*
Y356327D03*
X305319Y361051D03*
Y356327D03*
X310044Y361051D03*
Y356327D03*
X314768Y361051D03*
Y356327D03*
X319492Y370500D03*
Y365776D03*
Y361051D03*
Y356327D03*
X305319Y417827D03*
X310044D03*
X314768D03*
X319492D03*
G54D96*X317500Y402000D03*
X320453Y404953D03*
Y399047D03*
X314547Y404953D03*
Y399047D03*
X291500Y401000D03*
X294453Y398047D03*
Y403953D03*
X288547D03*
Y398047D03*
G54D94*X369500Y401500D03*
G54D97*X200500Y306575D02*Y300669D01*
G54D98*X225732Y372862D03*
Y368138D03*
Y363413D03*
Y358689D03*
Y353965D03*
G54D97*X200500Y373575D02*Y367669D01*
Y326331D02*Y320425D01*
X230425Y326000D02*X236331D01*
G54D99*X243008Y284441D02*X243992D01*
X243008Y289559D02*X243992D01*
X251508D02*X252492D01*
X251508Y284441D02*X252492D01*
X237508D02*X238492D01*
X237508Y289559D02*X238492D01*
G54D98*X249354Y372862D03*
Y368138D03*
Y363413D03*
Y358689D03*
Y353965D03*
X244630Y372862D03*
X239906D03*
X244630Y368138D03*
X239906D03*
X244630Y363413D03*
X239906D03*
Y358689D03*
X244630D03*
Y353965D03*
G54D100*X265417Y387748D02*X273291D01*
G54D101*X265417Y387035D02*X273291D01*
G54D102*X265614D02*X273094D01*
G54D100*X265417Y381598D02*X273291D01*
G54D101*X265417Y382311D02*X273291D01*
G54D102*X265614D02*X273094D01*
G54D100*X265417Y377587D02*X273291D01*
G54D102*X265614D02*X273094D01*
G54D100*X265417Y372862D02*X273291D01*
G54D102*X265614D02*X273094D01*
G54D100*X265417Y381598D02*Y353965D01*
Y368138D02*X273291D01*
G54D102*X265614D02*X273094D01*
G54D100*X265417Y363413D02*X273291D01*
G54D102*X265614D02*X273094D01*
G54D100*X265417Y358689D02*X273291D01*
G54D102*X265614D02*X273094D01*
G54D100*X265417Y353965D02*X273291D01*
G54D102*X265614D02*X273094D01*
G54D103*X225260Y387626D02*Y353374D01*
G54D98*X225732Y387035D03*
Y382311D03*
Y377587D03*
G54D104*X233724Y381917D02*Y359083D01*
G54D98*X235181Y372862D03*
Y368138D03*
X230457Y372862D03*
Y368138D03*
X235181Y363413D03*
Y358689D03*
Y382311D03*
Y377587D03*
X230457Y382311D03*
Y377587D03*
Y363413D03*
Y358689D03*
G54D105*X246717Y382311D02*Y358689D01*
G54D98*X244630Y377587D03*
X239906Y382311D03*
Y377587D03*
X249354Y387035D03*
Y382311D03*
Y377587D03*
X244630Y387035D03*
Y382311D03*
G54D106*X239595Y404255D02*Y398745D01*
X251405Y404255D02*Y398745D01*
G54D99*X256941Y400992D02*Y400008D01*
G54D107*X257335Y405500D02*X258319D01*
G54D108*X257335D02*X258319D01*
G54D109*X261961Y405795D02*Y405205D01*
G54D110*Y405795D02*Y405205D01*
G54D111*X256478Y394000D02*X257687D01*
X264313D02*X265522D01*
G54D99*X262059Y400992D02*Y400008D01*
X184008Y440059D02*X184992D01*
G54D112*X190000Y452000D02*Y445500D01*
X195000Y452000D02*Y445500D01*
G54D99*X184008Y434941D02*X184992D01*
X210008Y451559D02*X210992D01*
X210008Y446441D02*X210992D01*
X210008Y441559D02*X210992D01*
G54D112*X205000Y452000D02*Y445500D01*
G54D99*X210008Y436441D02*X210992D01*
X210008Y424441D02*X210992D01*
X210008Y429559D02*X210992D01*
G54D112*X205000Y431500D02*Y425000D01*
X200000Y431500D02*Y425000D01*
Y452000D02*Y445500D01*
X195000Y431500D02*Y425000D01*
X190000Y431500D02*Y425000D01*
G54D97*X200500Y259331D02*Y253425D01*
G54D113*X206890Y230500D02*X214370D01*
X185630D02*X193110D01*
G54D114*X236000Y224500D02*X237000D01*
G54D106*X239595Y194755D02*Y189245D01*
X251405Y194755D02*Y189245D01*
G54D111*X256478Y184500D02*X257687D01*
G54D99*X256941Y191492D02*Y190508D01*
G54D111*X264313Y184500D02*X265522D01*
G54D99*X262059Y191492D02*Y190508D01*
G54D107*X257335Y196000D02*X258319D01*
G54D108*X257335D02*X258319D01*
G54D109*X261961Y196295D02*Y195705D01*
G54D110*Y196295D02*Y195705D01*
G54D100*X265417Y178248D02*X273291D01*
G54D101*X265417Y177535D02*X273291D01*
G54D102*X265614D02*X273094D01*
G54D100*X265417Y172098D02*X273291D01*
G54D101*X265417Y172811D02*X273291D01*
G54D102*X265614D02*X273094D01*
G54D100*X265417Y168087D02*X273291D01*
G54D102*X265614D02*X273094D01*
G54D100*X265417Y163362D02*X273291D01*
G54D102*X265614D02*X273094D01*
G54D100*X265417Y158638D02*X273291D01*
G54D102*X265614D02*X273094D01*
G54D100*X265417Y153913D02*X273291D01*
G54D102*X265614D02*X273094D01*
G54D100*X265417Y149189D02*X273291D01*
G54D102*X265614D02*X273094D01*
G54D100*X265417Y144465D02*X273291D01*
G54D102*X265614D02*X273094D01*
G54D100*X265417Y172098D02*Y144465D01*
G54D103*X225260Y178126D02*Y143874D01*
G54D98*X225732Y177535D03*
Y172811D03*
Y168087D03*
Y163362D03*
G54D104*X233724Y172417D02*Y149583D01*
G54D98*X235181Y163362D03*
Y158638D03*
X230457Y163362D03*
Y158638D03*
X235181Y172811D03*
Y168087D03*
X230457Y172811D03*
Y168087D03*
X225732Y158638D03*
Y153913D03*
G54D105*X246717Y172811D02*Y149189D01*
G54D98*X249354Y163362D03*
X244630D03*
X239906Y158638D03*
Y153913D03*
Y149189D03*
X249354Y177535D03*
Y172811D03*
Y168087D03*
X244630Y177535D03*
Y172811D03*
Y168087D03*
X239906Y172811D03*
X249354Y158638D03*
Y153913D03*
Y149189D03*
Y144465D03*
X244630Y153913D03*
Y149189D03*
Y158638D03*
Y144465D03*
X239906Y168087D03*
Y163362D03*
X235181Y153913D03*
Y149189D03*
X230457Y153913D03*
Y149189D03*
X225732D03*
Y144465D03*
G54D99*X269008Y190059D02*X269992D01*
X270941Y195492D02*Y194508D01*
X269008Y184941D02*X269992D01*
X276059Y195492D02*Y194508D01*
G54D115*X280074Y187893D02*Y187107D01*
X276926Y187893D02*Y187107D01*
X283926Y202893D02*Y202107D01*
X287074Y202893D02*Y202107D01*
G54D116*X282740Y197799D02*X284709D01*
X282740Y194650D02*X284709D01*
X282740Y191500D02*X284709D01*
X282740Y188350D02*X284709D01*
X282740Y185201D02*X284709D01*
G54D99*X269008Y399559D02*X269992D01*
X269008Y394441D02*X269992D01*
X270941Y404992D02*Y404008D01*
X276059Y404992D02*Y404008D01*
G54D115*X280074Y397393D02*Y396607D01*
X276926Y397393D02*Y396607D01*
X283926Y412393D02*Y411607D01*
X287074Y412393D02*Y411607D01*
G54D116*X282740Y407299D02*X284709D01*
X282740Y404150D02*X284709D01*
X282740Y401000D02*X284709D01*
X282740Y397850D02*X284709D01*
X282740Y394701D02*X284709D01*
G54D99*X294441Y413492D02*Y412508D01*
X299559Y413492D02*Y412508D01*
G54D98*X317130Y387035D03*
X298232D03*
G54D117*X291500Y401965D02*Y400035D01*
G54D89*G36*
X292091Y400409D02*Y395882D01*
X296618D01*
Y400409D01*
X292091D01*
G37*
G36*
X286382D02*Y395882D01*
X290909D01*
Y400409D01*
X286382D01*
G37*
G36*
Y406118D02*Y401591D01*
X290909D01*
Y406118D01*
X286382D01*
G37*
G36*
X292091D02*Y401591D01*
X296618D01*
Y406118D01*
X292091D01*
G37*
G54D116*X298291Y407299D02*X300260D01*
X298291Y404150D02*X300260D01*
X298291Y401000D02*X300260D01*
X298291Y397850D02*X300260D01*
X298291Y394701D02*X300260D01*
G54D99*X318441Y412492D02*Y411508D01*
X314059Y412492D02*Y411508D01*
X308941Y412492D02*Y411508D01*
G54D114*X235500Y434000D02*X236500D01*
X276000Y435000D02*X309000D01*
G54D106*X338957Y411893D02*Y411107D01*
X346043Y411893D02*Y411107D01*
G54D118*X342500Y440000D02*Y430000D01*
G54D99*X323559Y412492D02*Y411508D01*
G54D113*X377390Y439500D02*X384870D01*
X356130D02*X363610D01*
G54D97*X295500Y304575D02*Y298669D01*
G54D103*X297760Y387626D02*Y353374D01*
G54D104*X306224Y381917D02*Y359083D01*
G54D105*X319217Y382311D02*Y358689D01*
G54D99*X335059Y286492D02*Y285508D01*
X334008Y296059D02*X334992D01*
X334008Y290941D02*X334992D01*
X320441Y286492D02*Y285508D01*
G54D106*X322607Y295957D02*X323393D01*
G54D99*X325559Y286492D02*Y285508D01*
X329941Y286492D02*Y285508D01*
G54D106*X322607Y303043D02*X323393D01*
G54D99*X332441Y341492D02*Y340508D01*
X337559Y341492D02*Y340508D01*
X336508Y333559D02*X337492D01*
X336508Y328441D02*X337492D01*
G54D97*X277669Y326000D02*X283575D01*
G54D100*X337917Y387748D02*X345791D01*
G54D101*X337917Y387035D02*X345791D01*
G54D102*X338114D02*X345594D01*
G54D100*X337917Y381598D02*X345791D01*
G54D101*X337917Y382311D02*X345791D01*
G54D102*X338114D02*X345594D01*
G54D100*X337917Y377587D02*X345791D01*
G54D102*X338114D02*X345594D01*
G54D100*X337917Y372862D02*X345791D01*
G54D102*X338114D02*X345594D01*
G54D100*X337917Y368138D02*X345791D01*
G54D102*X338114D02*X345594D01*
G54D100*X337917Y358689D02*X345791D01*
G54D102*X338114D02*X345594D01*
G54D100*X337917Y353965D02*X345791D01*
G54D102*X338114D02*X345594D01*
G54D100*X337917Y363413D02*X345791D01*
G54D102*X338114D02*X345594D01*
G54D100*X337917Y381598D02*Y353965D01*
G54D97*X370000Y328331D02*Y322425D01*
X361500Y310075D02*Y304169D01*
Y262831D02*Y256925D01*
X370000Y375575D02*Y369669D01*
G54D98*X321854Y387035D03*
Y382311D03*
X317130D03*
Y377587D03*
X321854D03*
Y372862D03*
Y368138D03*
Y363413D03*
Y358689D03*
Y353965D03*
X317130Y372862D03*
Y368138D03*
Y363413D03*
Y358689D03*
Y353965D03*
G54D107*X342835Y400500D02*X343819D01*
G54D108*X342835D02*X343819D01*
G54D99*X337008Y400441D02*X337992D01*
G54D111*X336813Y394500D02*X338022D01*
G54D109*X347461Y400795D02*Y400205D01*
G54D110*Y400795D02*Y400205D01*
G54D99*X347059Y394992D02*Y394008D01*
X341941Y394992D02*Y394008D01*
G54D111*X328978Y394500D02*X330187D01*
G54D99*X337008Y405559D02*X337992D01*
G54D98*X312406Y382311D03*
Y377587D03*
Y372862D03*
Y368138D03*
Y363413D03*
Y358689D03*
X307681Y382311D03*
Y377587D03*
X302957Y382311D03*
Y377587D03*
X298232Y382311D03*
Y377587D03*
X307681Y363413D03*
Y358689D03*
Y372862D03*
Y368138D03*
X302957Y372862D03*
Y368138D03*
X298232Y372862D03*
Y368138D03*
X302957Y363413D03*
X298232D03*
X302957Y358689D03*
X298232D03*
Y353965D03*
G54D97*X295500Y257331D02*Y251425D01*
G54D99*X294441Y203992D02*Y203008D01*
X299559Y203992D02*Y203008D01*
G54D116*X298291Y197799D02*X300260D01*
X298291Y194650D02*X300260D01*
X298291Y191500D02*X300260D01*
X298291Y188350D02*X300260D01*
X298291Y185201D02*X300260D01*
G54D117*X291500Y192465D02*Y190535D01*
G54D89*G36*
X292091Y190909D02*Y186382D01*
X296618D01*
Y190909D01*
X292091D01*
G37*
G36*
Y196618D02*Y192091D01*
X296618D01*
Y196618D01*
X292091D01*
G37*
G36*
X286382Y190909D02*Y186382D01*
X290909D01*
Y190909D01*
X286382D01*
G37*
G36*
Y196618D02*Y192091D01*
X290909D01*
Y196618D01*
X286382D01*
G37*
G54D114*X276000Y225500D02*X309000D01*
G54D99*X314059Y202992D02*Y202008D01*
X308941Y202992D02*Y202008D01*
G54D106*X338957Y202393D02*Y201607D01*
X346043Y202393D02*Y201607D01*
G54D99*X318441Y202992D02*Y202008D01*
X323559Y202992D02*Y202008D01*
G54D107*X342835Y191000D02*X343819D01*
G54D108*X342835D02*X343819D01*
G54D99*X337008Y196059D02*X337992D01*
X337008Y190941D02*X337992D01*
G54D109*X347461Y191295D02*Y190705D01*
G54D110*Y191295D02*Y190705D01*
G54D111*X328978Y185000D02*X330187D01*
X336813D02*X338022D01*
G54D99*X347059Y185492D02*Y184508D01*
X341941Y185492D02*Y184508D01*
G54D118*X342500Y230500D02*Y220500D01*
G54D99*X385508Y234059D02*X386492D01*
X385508Y228941D02*X386492D01*
X385508Y243559D02*X386492D01*
X385508Y238441D02*X386492D01*
X377059Y212492D02*Y211508D01*
X371941Y212492D02*Y211508D01*
X385508Y221059D02*X386492D01*
X385508Y215941D02*X386492D01*
G54D112*X380500Y224000D02*Y217500D01*
Y244500D02*Y238000D01*
X375500Y224000D02*Y217500D01*
Y244500D02*Y238000D01*
X370500Y224000D02*Y217500D01*
Y244500D02*Y238000D01*
X365500Y224000D02*Y217500D01*
Y244500D02*Y238000D01*
G54D97*X200500Y166075D02*Y160169D01*
Y118831D02*Y112925D01*
G54D114*X235500Y119000D02*X236500D01*
G54D106*X239595Y89255D02*Y83745D01*
X251405Y89255D02*Y83745D01*
G54D99*X256941Y85992D02*Y85008D01*
G54D107*X257335Y90500D02*X258319D01*
G54D108*X257335D02*X258319D01*
G54D109*X261961Y90795D02*Y90205D01*
G54D110*Y90795D02*Y90205D01*
G54D111*X264313Y79000D02*X265522D01*
G54D99*X262059Y85992D02*Y85008D01*
G54D111*X256478Y79000D02*X257687D01*
G54D103*X225260Y72626D02*Y38374D01*
G54D98*X225732Y72035D03*
Y67311D03*
Y62587D03*
Y57862D03*
G54D104*X233724Y66917D02*Y44083D01*
G54D98*X235181Y57862D03*
Y53138D03*
X230457Y57862D03*
Y53138D03*
X235181Y67311D03*
Y62587D03*
X230457Y67311D03*
Y62587D03*
X225732Y53138D03*
Y48413D03*
G54D105*X246717Y67311D02*Y43689D01*
G54D98*X249354Y57862D03*
X244630D03*
X239906Y53138D03*
Y48413D03*
Y43689D03*
X249354Y72035D03*
Y67311D03*
Y62587D03*
X244630Y72035D03*
Y67311D03*
Y62587D03*
X239906Y67311D03*
X249354Y53138D03*
Y48413D03*
Y43689D03*
Y38965D03*
X244630Y48413D03*
Y43689D03*
Y53138D03*
Y38965D03*
X239906Y62587D03*
Y57862D03*
X235181Y48413D03*
Y43689D03*
X230457Y48413D03*
Y43689D03*
X225732D03*
Y38965D03*
G54D113*X206890Y48000D02*X214370D01*
X185630D02*X193110D01*
G54D99*X269008Y84559D02*X269992D01*
X270941Y89992D02*Y89008D01*
X269008Y79441D02*X269992D01*
G54D100*X265417Y72748D02*X273291D01*
G54D101*X265417Y72035D02*X273291D01*
G54D102*X265614D02*X273094D01*
G54D100*X265417Y66598D02*X273291D01*
G54D101*X265417Y67311D02*X273291D01*
G54D102*X265614D02*X273094D01*
G54D100*X265417Y62587D02*X273291D01*
G54D102*X265614D02*X273094D01*
G54D100*X265417Y57862D02*X273291D01*
G54D102*X265614D02*X273094D01*
G54D100*X265417Y53138D02*X273291D01*
G54D102*X265614D02*X273094D01*
G54D100*X265417Y48413D02*X273291D01*
G54D102*X265614D02*X273094D01*
G54D100*X265417Y43689D02*X273291D01*
G54D102*X265614D02*X273094D01*
G54D100*X265417Y38965D02*X273291D01*
G54D102*X265614D02*X273094D01*
G54D100*X265417Y66598D02*Y38965D01*
G54D99*X276059Y89992D02*Y89008D01*
G54D115*X280074Y82393D02*Y81607D01*
X276926Y82393D02*Y81607D01*
X283926Y97393D02*Y96607D01*
X287074Y97393D02*Y96607D01*
G54D117*X291500Y86965D02*Y85035D01*
G54D89*G36*
X292091Y85409D02*Y80882D01*
X296618D01*
Y85409D01*
X292091D01*
G37*
G36*
Y91118D02*Y86591D01*
X296618D01*
Y91118D01*
X292091D01*
G37*
G36*
X286382Y85409D02*Y80882D01*
X290909D01*
Y85409D01*
X286382D01*
G37*
G36*
Y91118D02*Y86591D01*
X290909D01*
Y91118D01*
X286382D01*
G37*
G54D116*X282740Y92299D02*X284709D01*
X282740Y89150D02*X284709D01*
X282740Y86000D02*X284709D01*
X282740Y82850D02*X284709D01*
X282740Y79701D02*X284709D01*
X298291Y92299D02*X300260D01*
X298291Y89150D02*X300260D01*
X298291Y86000D02*X300260D01*
X298291Y82850D02*X300260D01*
X298291Y79701D02*X300260D01*
G54D99*X318441Y97492D02*Y96508D01*
X323559Y97492D02*Y96508D01*
X314059Y97492D02*Y96508D01*
X308941Y97492D02*Y96508D01*
G54D114*X276000Y120000D02*X309000D01*
G54D103*X297760Y72626D02*Y38374D01*
G54D104*X306224Y66917D02*Y44083D01*
G54D105*X319217Y67311D02*Y43689D01*
G54D98*X298232D03*
Y38965D03*
G54D97*X370000Y166075D02*Y160169D01*
Y118831D02*Y112925D01*
G54D100*X337917Y178248D02*X345791D01*
G54D101*X337917Y177535D02*X345791D01*
G54D102*X338114D02*X345594D01*
G54D100*X337917Y172098D02*X345791D01*
G54D101*X337917Y172811D02*X345791D01*
G54D102*X338114D02*X345594D01*
G54D100*X337917Y168087D02*X345791D01*
G54D102*X338114D02*X345594D01*
G54D100*X337917Y163362D02*X345791D01*
G54D102*X338114D02*X345594D01*
G54D100*X337917Y172098D02*Y144465D01*
Y158638D02*X345791D01*
G54D102*X338114D02*X345594D01*
G54D100*X337917Y153913D02*X345791D01*
G54D102*X338114D02*X345594D01*
G54D100*X337917Y149189D02*X345791D01*
G54D102*X338114D02*X345594D01*
G54D100*X337917Y144465D02*X345791D01*
G54D102*X338114D02*X345594D01*
G54D118*X342500Y125000D02*Y115000D01*
G54D103*X297760Y178126D02*Y143874D01*
G54D98*X298232Y177535D03*
Y172811D03*
Y168087D03*
Y163362D03*
G54D104*X306224Y172417D02*Y149583D01*
G54D98*X307681Y163362D03*
Y158638D03*
X302957Y163362D03*
Y158638D03*
X307681Y172811D03*
Y168087D03*
X302957Y172811D03*
Y168087D03*
X298232Y158638D03*
Y153913D03*
X307681D03*
Y149189D03*
X302957Y153913D03*
Y149189D03*
X298232D03*
Y144465D03*
G54D105*X319217Y172811D02*Y149189D01*
G54D98*X321854Y163362D03*
X317130D03*
X312406Y158638D03*
Y153913D03*
Y149189D03*
X321854Y177535D03*
Y172811D03*
Y168087D03*
X317130Y177535D03*
Y172811D03*
Y168087D03*
X312406Y172811D03*
G54D106*X338957Y96893D02*Y96107D01*
X346043Y96893D02*Y96107D01*
G54D99*X337008Y90559D02*X337992D01*
G54D111*X328978Y79500D02*X330187D01*
X336813D02*X338022D01*
G54D99*X337008Y85441D02*X337992D01*
X341941Y79992D02*Y79008D01*
G54D109*X347461Y85795D02*Y85205D01*
G54D110*Y85795D02*Y85205D01*
G54D99*X347059Y79992D02*Y79008D01*
G54D107*X342835Y85500D02*X343819D01*
G54D108*X342835D02*X343819D01*
G54D98*X321854Y158638D03*
Y153913D03*
Y149189D03*
Y144465D03*
X317130Y153913D03*
Y149189D03*
Y158638D03*
Y144465D03*
X312406Y168087D03*
Y163362D03*
G54D99*X294441Y98492D02*Y97508D01*
X299559Y98492D02*Y97508D01*
G54D98*X298232Y72035D03*
Y67311D03*
Y62587D03*
Y57862D03*
Y53138D03*
Y48413D03*
G54D100*X337917Y62587D02*X345791D01*
G54D102*X338114D02*X345594D01*
G54D100*X337917Y57862D02*X345791D01*
G54D102*X338114D02*X345594D01*
G54D100*X337917Y66598D02*Y38965D01*
Y53138D02*X345791D01*
G54D102*X338114D02*X345594D01*
G54D100*X337917Y48413D02*X345791D01*
G54D102*X338114D02*X345594D01*
G54D100*X337917Y43689D02*X345791D01*
G54D102*X338114D02*X345594D01*
G54D100*X337917Y38965D02*X345791D01*
G54D102*X338114D02*X345594D01*
G54D113*X377390Y48000D02*X384870D01*
X356130D02*X363610D01*
G54D98*X321854Y72035D03*
Y67311D03*
Y62587D03*
Y57862D03*
X317130Y72035D03*
Y67311D03*
X312406D03*
Y62587D03*
X321854Y53138D03*
Y48413D03*
Y43689D03*
Y38965D03*
X317130Y62587D03*
Y57862D03*
Y53138D03*
Y48413D03*
Y43689D03*
Y38965D03*
X312406Y57862D03*
Y53138D03*
Y48413D03*
Y43689D03*
X307681Y67311D03*
X302957D03*
Y62587D03*
X307681D03*
Y57862D03*
Y53138D03*
Y48413D03*
Y43689D03*
X302957Y57862D03*
Y53138D03*
Y48413D03*
Y43689D03*
G54D100*X337917Y72748D02*X345791D01*
G54D101*X337917Y72035D02*X345791D01*
G54D102*X338114D02*X345594D01*
G54D100*X337917Y66598D02*X345791D01*
G54D101*X337917Y67311D02*X345791D01*
G54D102*X338114D02*X345594D01*
G54D119*X295500Y289000D03*
X330000Y290500D03*
X329000Y297000D03*
X334500Y299500D03*
X324000Y291500D03*
X330500Y301500D03*
X299500Y289000D03*
X317500Y307500D03*
X299500Y282000D03*
X324500Y281000D03*
X329000D03*
X324500Y276500D03*
X329000D03*
G54D93*X328000Y315000D03*
Y319000D03*
G54D119*X297500Y285500D03*
X282000Y340500D03*
X282500Y287500D03*
X269500Y322000D03*
X265500D03*
X261500D03*
X257500D03*
X255500Y326000D03*
Y330000D03*
X251500Y394000D03*
Y409000D03*
X246000Y394500D03*
X259500Y379500D03*
Y373500D03*
X277000Y379000D03*
X215000Y378500D03*
X226000Y395500D03*
X246000Y408500D03*
X232500Y409000D03*
Y404500D03*
X233000Y398500D03*
X280000Y381500D03*
Y401000D03*
X271500Y409000D03*
X260000Y390500D03*
X352500Y418000D03*
X349500Y420500D03*
Y425500D03*
X347500Y406000D03*
X352500Y423000D03*
Y428000D03*
Y433000D03*
X349500Y430500D03*
X334500Y432000D03*
X332000Y429000D03*
Y423000D03*
X334500Y426000D03*
Y420000D03*
X332500Y411500D03*
X262000Y352500D03*
Y382500D03*
Y376500D03*
Y364500D03*
Y358500D03*
Y370500D03*
X259500Y355500D03*
X265000Y346000D03*
X259500Y367500D03*
Y361500D03*
X277000Y357000D03*
X280000Y359500D03*
X277000Y362000D03*
X280000Y354500D03*
X277000Y352000D03*
X306000Y401500D03*
X291000Y410000D03*
X305500Y394500D03*
X332500Y399000D03*
X329500Y402500D03*
X332500Y389500D03*
X262000Y450000D03*
X259500Y447000D03*
X262000Y420000D03*
X259500Y423000D03*
X277000D03*
X280000Y420500D03*
X262000Y426000D03*
Y432000D03*
X259500Y429000D03*
X262000Y438000D03*
X259500Y435000D03*
Y441000D03*
X262000Y444000D03*
X277000Y445500D03*
X280000Y448000D03*
Y443000D03*
X277000Y440500D03*
Y450500D03*
X352500Y438000D03*
Y443000D03*
Y448000D03*
X349500Y450500D03*
Y440500D03*
Y445500D03*
Y435500D03*
X332000Y441000D03*
Y435000D03*
Y447000D03*
X334500Y444000D03*
Y438000D03*
Y450000D03*
X386000Y445000D03*
Y434000D03*
X372000Y439500D03*
X372500Y435500D03*
X376500Y434000D03*
X381000D03*
X372500Y443500D03*
X381000Y445000D03*
X376500D03*
X210500Y433000D03*
X205000Y434500D03*
Y441000D03*
X187000Y428000D03*
X190000Y440000D03*
X198000Y436000D03*
Y442500D03*
G54D120*X229000Y283500D03*
X217000Y283000D03*
G54D119*X195500Y313500D03*
X193500Y304000D03*
Y299000D03*
Y309000D03*
X195500Y293500D03*
X200500Y313500D03*
X205000D03*
X207500Y304000D03*
Y299000D03*
X200500Y293500D03*
X205500D03*
G54D120*X229000Y294500D03*
G54D119*X228000Y302500D03*
X223500D03*
G54D120*X217000Y294500D03*
G54D119*X232500Y298000D03*
X221000Y345000D03*
X216000D03*
X209000Y343000D03*
X221000Y340500D03*
X215000Y338000D03*
X193500Y318500D03*
Y329000D03*
Y324000D03*
X195500Y333500D03*
X200500D03*
X205000D03*
X207500Y329000D03*
Y324000D03*
Y318500D03*
X244000Y322000D03*
X231500Y319000D03*
X236000D03*
X240500D03*
X248500Y322000D03*
X246000Y318500D03*
X343000Y325000D03*
X337500Y337000D03*
X333000Y347000D03*
G54D93*X324000Y323000D03*
X323500Y315000D03*
X324000Y319000D03*
X332000Y323000D03*
Y315000D03*
Y319000D03*
X328000Y323000D03*
G54D119*X334000Y352500D03*
X331500Y355500D03*
G54D120*X327000Y346500D03*
G54D119*X352500Y384500D03*
Y379500D03*
Y374500D03*
X349500Y382000D03*
Y377000D03*
X352500Y369500D03*
Y364500D03*
Y359500D03*
Y354500D03*
X349500Y372000D03*
Y367000D03*
Y352000D03*
Y357000D03*
Y362000D03*
X334000Y364500D03*
Y358500D03*
Y382500D03*
Y376500D03*
Y370500D03*
X331500Y379500D03*
Y367500D03*
Y373500D03*
Y361500D03*
X377000Y331000D03*
X373500Y335500D03*
X369500D03*
X377000Y325500D03*
Y320000D03*
X363000Y317000D03*
Y323500D03*
Y331000D03*
X365500Y335500D03*
X368500Y311000D03*
X371500Y308500D03*
X374500Y311000D03*
X377000Y314000D03*
X354500Y313500D03*
Y308000D03*
Y302500D03*
X363000Y297000D03*
X358500D03*
X363000Y292000D03*
X366000Y288500D03*
X373000D03*
X377000Y292000D03*
Y298000D03*
Y303000D03*
X251500Y184500D03*
Y199500D03*
X246000Y185000D03*
Y199000D03*
X232500Y199500D03*
Y195000D03*
X233000Y189000D03*
X223500D03*
X222000Y199000D03*
X222500Y193500D03*
X262000Y173000D03*
Y167000D03*
Y155000D03*
Y161000D03*
X259500Y170000D03*
X280000Y172000D03*
X277000Y169500D03*
X259500Y158000D03*
Y164000D03*
X260000Y181000D03*
X262000Y210500D03*
X259500Y213500D03*
X271500Y199500D03*
X262000Y216500D03*
Y222500D03*
X259500Y219500D03*
X262000Y228500D03*
X259500Y225500D03*
Y231500D03*
X277000Y213500D03*
X280000Y211000D03*
Y191500D03*
X291000Y200500D03*
X277000Y230500D03*
X352500Y208500D03*
Y213500D03*
Y218500D03*
X349500Y211000D03*
Y216000D03*
Y221000D03*
Y226000D03*
X347500Y196500D03*
X352500Y223500D03*
Y228500D03*
Y233500D03*
Y238500D03*
X349500Y231000D03*
X332000Y231500D03*
Y237500D03*
X334500Y234500D03*
X379000Y233000D03*
X386000Y224500D03*
X332000Y219500D03*
Y225500D03*
Y213500D03*
X334500Y222500D03*
Y228500D03*
Y216500D03*
Y210500D03*
X332500Y202000D03*
X382000Y212500D03*
X367000Y214500D03*
X386500Y212500D03*
X352500Y175000D03*
X349500Y172500D03*
Y167500D03*
X352500Y170000D03*
Y165000D03*
Y160000D03*
X349500Y162500D03*
X370000Y173000D03*
X366000D03*
X363000Y169000D03*
Y161000D03*
Y165000D03*
X374000Y173000D03*
X377000Y169000D03*
Y161000D03*
Y165000D03*
X349500Y241000D03*
Y236000D03*
X358500Y250000D03*
X349500Y246500D03*
X347000Y252500D03*
X377000Y248000D03*
X363000Y250000D03*
X377000Y258000D03*
Y253500D03*
X368500Y261500D03*
Y266000D03*
X364000Y270000D03*
X373000Y261500D03*
X354500Y254000D03*
Y266000D03*
X359000Y270000D03*
X354500Y260000D03*
X340000Y272000D03*
X334000Y173000D03*
X331500Y170000D03*
X332500Y180000D03*
X334000Y167000D03*
Y161000D03*
X331500Y164000D03*
X306000Y192000D03*
X305500Y185000D03*
X332500Y189500D03*
X329500Y193000D03*
X334500Y240500D03*
X327500Y246500D03*
X323000Y248000D03*
G54D120*X304500Y252500D03*
G54D119*X306000Y264500D03*
X314000D03*
X310000D03*
X313500Y254500D03*
X309500D03*
X317500D03*
X333000Y268000D03*
Y262500D03*
Y250500D03*
X251500Y79000D03*
Y94000D03*
X246000Y79500D03*
X262000Y105000D03*
X271500Y94000D03*
X262000Y111000D03*
X259500Y108000D03*
X246000Y93500D03*
X260000Y75500D03*
X259500Y146000D03*
X277000Y147500D03*
X280000Y150000D03*
X277000Y152500D03*
X280000Y145000D03*
X277000Y142500D03*
X259500Y152000D03*
X262000Y143000D03*
Y149000D03*
Y135000D03*
Y123000D03*
X259500Y120000D03*
Y126000D03*
X262000Y129000D03*
X259500Y132000D03*
X262000Y117000D03*
X259500Y114000D03*
X277000Y108000D03*
X280000Y105500D03*
X277000Y130500D03*
X280000Y133000D03*
Y128000D03*
X277000Y125500D03*
Y135500D03*
X262000Y37500D03*
Y43500D03*
X259500Y40500D03*
X262000Y67500D03*
Y61500D03*
X259500Y64500D03*
X262000Y49500D03*
Y55500D03*
X259500Y52500D03*
Y46500D03*
Y58500D03*
X277000Y42000D03*
X280000Y44500D03*
X277000Y47000D03*
X280000Y39500D03*
X277000Y37000D03*
X280000Y66500D03*
X277000Y64000D03*
X306000Y86500D03*
X280000Y86000D03*
X291000Y95000D03*
X305500Y79500D03*
X352500Y155000D03*
Y150000D03*
Y145000D03*
X349500Y152500D03*
Y147500D03*
Y157500D03*
X370000Y153000D03*
X374000D03*
X366000D03*
X363000Y157000D03*
X377000D03*
X349500Y142500D03*
X334000Y143000D03*
Y155000D03*
X331500Y158000D03*
Y152000D03*
X334000Y149000D03*
X331500Y146000D03*
X352500Y103000D03*
Y108000D03*
Y113000D03*
X349500Y105500D03*
Y110500D03*
Y115500D03*
Y120500D03*
X352500Y118000D03*
Y123000D03*
Y128000D03*
Y133000D03*
X349500Y135500D03*
Y130500D03*
Y125500D03*
X332000Y126000D03*
Y132000D03*
X334500Y129000D03*
X332000Y114000D03*
Y120000D03*
Y108000D03*
X334500Y117000D03*
Y123000D03*
Y111000D03*
Y105000D03*
Y135000D03*
X352500Y69500D03*
X349500Y67000D03*
Y62000D03*
X347500Y91000D03*
X352500Y64500D03*
Y59500D03*
Y54500D03*
X349500Y57000D03*
X334000Y67500D03*
X331500Y64500D03*
X332500Y84000D03*
X329500Y87500D03*
X332500Y96500D03*
X334000Y61500D03*
Y55500D03*
X331500Y58500D03*
X352500Y49500D03*
Y44500D03*
Y39500D03*
X349500Y47000D03*
Y42000D03*
Y52000D03*
X372000Y48000D03*
X372500Y52000D03*
X376500Y53500D03*
X386000D03*
X381000D03*
X349500Y37000D03*
X334000Y37500D03*
Y49500D03*
X331500Y52500D03*
Y46500D03*
X334000Y43500D03*
X386000Y42500D03*
X372500Y44000D03*
X381000Y42500D03*
X376500D03*
X331500Y40500D03*
X232500Y94000D03*
Y89500D03*
X233000Y83500D03*
X223500D03*
X222000Y93500D03*
X222500Y88000D03*
X200500Y106000D03*
Y126000D03*
X196500D03*
Y106000D03*
X193500Y110000D03*
Y118000D03*
Y114000D03*
Y122000D03*
X204500Y106000D03*
X207500Y110000D03*
Y114000D03*
Y118000D03*
X204500Y126000D03*
X207500Y122000D03*
X184500Y42500D03*
X198500Y48000D03*
X198000Y44000D03*
Y52000D03*
X189500Y42500D03*
X194000D03*
Y53500D03*
X184500D03*
X189500D03*
X246000Y251000D03*
X241500Y260000D03*
X245500Y257500D03*
Y262000D03*
Y266500D03*
X248000Y289500D03*
Y285000D03*
X242500Y251000D03*
X229500Y248000D03*
X229000Y252500D03*
X229500Y257000D03*
X229000Y271000D03*
Y266500D03*
X216000Y256000D03*
X213500Y263000D03*
X216500Y274500D03*
X262000Y240500D03*
X259500Y237500D03*
X262000Y234500D03*
X280000Y233000D03*
X277000Y235500D03*
X280000Y238000D03*
X277000Y240500D03*
X290500Y281000D03*
X288500Y254000D03*
X288000Y265000D03*
X290000Y268000D03*
X292000Y265000D03*
X294000Y268000D03*
X296000Y265000D03*
X184500Y225000D03*
Y236000D03*
X198500Y230500D03*
X198000Y234500D03*
X194000Y236000D03*
X198000Y226500D03*
X189500Y236000D03*
Y225000D03*
X194000D03*
G54D121*G54D122*G54D121*G54D123*G54D121*G54D123*G54D121*G54D123*G54D121*G54D122*G54D121*G54D123*G54D121*G54D123*G54D121*G54D122*G54D124*G54D122*G54D125*G54D122*G54D125*G54D122*G54D126*G54D124*G54D122*G54D124*G54D122*G54D125*G54D122*G54D125*G54D122*G54D126*G54D124*G54D126*G54D122*G54D125*G54D122*G54D124*G54D122*G54D125*G54D122*G54D126*G54D124*M02*
