G04 start of page 11 for group -4078 idx -4078 *
G04 Title: fet12, bottomsilk *
G04 Creator: pcb 20140316 *
G04 CreationDate: Thu 12 Apr 2018 01:23:09 AM GMT UTC *
G04 For: brian *
G04 Format: Gerber/RS-274X *
G04 PCB-Dimensions (mil): 6000.00 5000.00 *
G04 PCB-Coordinate-Origin: lower left *
%MOIN*%
%FSLAX25Y25*%
%LNBOTTOMSILK*%
%ADD197C,0.0120*%
%ADD196C,0.0200*%
%ADD195C,0.0080*%
%ADD194C,0.0060*%
%ADD193C,0.0100*%
G54D193*X278500Y79500D02*X279000Y79000D01*
X272000Y82000D02*X274500Y79500D01*
X255500Y77000D02*X242000D01*
X278500Y185000D02*X279000Y184500D01*
X272000Y187500D02*X275000Y184500D01*
X255500Y182500D02*X244000D01*
X307000Y197500D02*X305500Y196000D01*
X307500D02*Y199000D01*
X305500D02*X307000Y197500D01*
X307500D02*X309500D01*
X305500D02*X303500D01*
X307000Y92000D02*X305500Y90500D01*
Y93500D01*
X307000Y92000D01*
X307500Y90500D02*Y93500D01*
Y92000D02*X309500D01*
X305500D02*X303500D01*
X256000Y392000D02*X243000D01*
X278500Y394500D02*X279000Y394000D01*
X272000Y397000D02*X275000Y394000D01*
X307000Y407000D02*X305500Y405500D01*
Y408500D01*
X307000Y407000D01*
X307500Y405500D02*Y408500D01*
Y407000D02*X309500D01*
X305500D02*X303500D01*
X337000Y293500D02*X338000Y294500D01*
X384000Y213000D02*Y211000D01*
X384500Y210500D01*
X383500Y231500D02*X383000Y231000D01*
X361000D01*
X360000Y230000D01*
X338000Y294500D02*Y301000D01*
X305500Y196000D02*Y199000D01*
G54D194*X312500Y400750D02*X312875Y401125D01*
X311375Y400750D02*X312500D01*
X311000Y401125D02*X311375Y400750D01*
X311000Y401125D02*Y403375D01*
X311375Y403750D01*
X312500D01*
X312875Y403375D01*
Y402625D02*Y403375D01*
X312500Y402250D02*X312875Y402625D01*
X311750Y402250D02*X312500D01*
Y191250D02*X312875Y191625D01*
X311375Y191250D02*X312500D01*
X311000Y191625D02*X311375Y191250D01*
X311000Y191625D02*Y193875D01*
X311375Y194250D01*
X312500D01*
X312875Y193875D01*
Y193125D02*Y193875D01*
X312500Y192750D02*X312875Y193125D01*
X311750Y192750D02*X312500D01*
Y85250D02*X312875Y85625D01*
X311375Y85250D02*X312500D01*
X311000Y85625D02*X311375Y85250D01*
X311000Y85625D02*Y87875D01*
X311375Y88250D01*
X312500D01*
X312875Y87875D01*
Y87125D02*Y87875D01*
X312500Y86750D02*X312875Y87125D01*
X311750Y86750D02*X312500D01*
G54D195*X342107Y408745D02*X342893D01*
X342107Y414255D02*X342893D01*
X243532Y396186D02*X247468D01*
X243532Y406814D02*X247468D01*
G54D193*X188000Y423000D02*X207000D01*
X188000Y454000D02*Y423000D01*
Y454000D02*X207000D01*
Y436000D02*Y423000D01*
Y454000D02*Y441000D01*
G75*G03X207000Y436000I0J-2500D01*G01*
G54D196*X377874Y378528D02*X389685D01*
X350315D02*X362126D01*
G54D195*X390669Y369669D02*Y328331D01*
X349331Y369669D02*Y328331D01*
X359173Y318488D01*
X390669Y328331D02*X380827Y318488D01*
G54D196*X355146Y453476D02*Y445406D01*
Y433594D02*Y425524D01*
G54D195*X357902Y454461D02*X382114D01*
X357902Y424539D02*X382114D01*
X386839Y429264D01*
X382114Y454461D02*X386839Y449736D01*
G54D197*X337634Y397059D02*Y396350D01*
Y392650D02*Y391941D01*
G54D195*X329169Y397256D02*X337831D01*
X329169Y391744D02*X337831D01*
X283429Y409071D02*X299571D01*
X283429Y392929D02*X299571D01*
X284807Y409071D02*G75*G03X283232Y409071I-787J0D01*G01*
G54D197*X265134Y396559D02*Y395850D01*
Y392150D02*Y391441D01*
G54D195*X256669Y396756D02*X265331D01*
X256669Y391244D02*X265331D01*
G54D196*X227472Y345685D02*Y333874D01*
Y318126D02*Y306315D01*
G54D195*X236331Y346669D02*X277669D01*
X236331Y305331D02*X277669D01*
X287512Y315173D01*
X277669Y346669D02*X287512Y336827D01*
G54D196*X180815Y317472D02*X192626D01*
X208374D02*X220185D01*
G54D195*X179831Y367669D02*Y326331D01*
X221169Y367669D02*Y326331D01*
Y367669D02*X211327Y377512D01*
X179831Y367669D02*X189673Y377512D01*
G54D196*X208374Y309528D02*X220185D01*
X180815D02*X192626D01*
G54D195*X221169Y300669D02*Y259331D01*
X179831Y300669D02*Y259331D01*
X189673Y249488D01*
X221169Y259331D02*X211327Y249488D01*
G54D196*X184646Y244476D02*Y236406D01*
Y224594D02*Y216524D01*
G54D195*X187402Y245461D02*X211614D01*
X187402Y215539D02*X211614D01*
X216339Y220264D01*
X211614Y245461D02*X216339Y240736D01*
X325755Y299893D02*Y299107D01*
X320245Y299893D02*Y299107D01*
G54D196*X275815Y248472D02*X287626D01*
X303374D02*X315185D01*
G54D195*X274831Y298669D02*Y257331D01*
X316169Y298669D02*Y257331D01*
Y298669D02*X306327Y308512D01*
X274831Y298669D02*X284673Y308512D01*
G54D196*X341815Y253972D02*X353626D01*
X381185D02*X369374D01*
G54D195*X340831Y304169D02*Y262831D01*
X382169Y304169D02*Y262831D01*
Y304169D02*X372327Y314012D01*
X340831Y304169D02*X350673Y314012D01*
G54D193*X363500Y215500D02*X382500D01*
X363500Y246500D02*Y215500D01*
Y246500D02*X382500D01*
Y228500D02*Y215500D01*
Y246500D02*Y233500D01*
G75*G03X382500Y228500I0J-2500D01*G01*
G54D196*X180815Y109972D02*X192626D01*
X208374D02*X220185D01*
G54D195*X179831Y118831D02*Y160169D01*
X221169Y118831D02*Y160169D01*
X211327Y170012D01*
X179831Y160169D02*X189673Y170012D01*
X342107Y199245D02*X342893D01*
X342107Y204755D02*X342893D01*
G54D197*X337634Y187559D02*Y186850D01*
Y183150D02*Y182441D01*
G54D195*X329169Y187756D02*X337831D01*
X329169Y182244D02*X337831D01*
X243532Y186686D02*X247468D01*
X243532Y197314D02*X247468D01*
G54D196*X350315Y109972D02*X362126D01*
X389685D02*X377874D01*
G54D195*X349331Y160169D02*Y118831D01*
X390669Y160169D02*Y118831D01*
Y160169D02*X380827Y170012D01*
X349331Y160169D02*X359173Y170012D01*
G54D196*X355146Y61976D02*Y53906D01*
Y42094D02*Y34024D01*
G54D195*X357902Y62961D02*X382114D01*
X357902Y33039D02*X382114D01*
X386839Y37764D01*
X382114Y62961D02*X386839Y58236D01*
G54D197*X265134Y187059D02*Y186350D01*
Y182650D02*Y181941D01*
G54D195*X256669Y187256D02*X265331D01*
X256669Y181744D02*X265331D01*
X283429Y199571D02*X299571D01*
X283429Y183429D02*X299571D01*
X284807Y199571D02*G75*G03X283232Y199571I-787J0D01*G01*
X243532Y81186D02*X247468D01*
X243532Y91814D02*X247468D01*
G54D197*X265134Y81559D02*Y80850D01*
Y77150D02*Y76441D01*
G54D195*X256669Y81756D02*X265331D01*
X256669Y76244D02*X265331D01*
G54D196*X184646Y61976D02*Y53906D01*
Y42094D02*Y34024D01*
G54D195*X187402Y62961D02*X211614D01*
X187402Y33039D02*X211614D01*
X216339Y37764D01*
X211614Y62961D02*X216339Y58236D01*
X342107Y93745D02*X342893D01*
X342107Y99255D02*X342893D01*
X283429Y94071D02*X299571D01*
X283429Y77929D02*X299571D01*
X284807Y94071D02*G75*G03X283232Y94071I-787J0D01*G01*
G54D197*X337634Y82059D02*Y81350D01*
Y77650D02*Y76941D01*
G54D195*X329169Y82256D02*X337831D01*
X329169Y76744D02*X337831D01*
G54D194*X185700Y108000D02*X187000D01*
X185000Y107300D02*X185700Y108000D01*
X185000Y104700D02*Y107300D01*
Y104700D02*X185700Y104000D01*
X187000D01*
X188200Y107500D02*X188700Y108000D01*
X188200Y106700D02*Y107500D01*
Y106700D02*X188900Y106000D01*
X189500D01*
X190200Y106700D01*
Y107500D01*
X189700Y108000D02*X190200Y107500D01*
X188700Y108000D02*X189700D01*
X188200Y105300D02*X188900Y106000D01*
X188200Y104500D02*Y105300D01*
Y104500D02*X188700Y104000D01*
X189700D01*
X190200Y104500D01*
Y105300D01*
X189500Y106000D02*X190200Y105300D01*
X189200Y68500D02*X190500D01*
X188500Y67800D02*X189200Y68500D01*
X188500Y65200D02*Y67800D01*
Y65200D02*X189200Y64500D01*
X190500D01*
X193200D02*X193700Y65000D01*
X192200Y64500D02*X193200D01*
X191700Y65000D02*X192200Y64500D01*
X191700Y65000D02*Y68000D01*
X192200Y68500D01*
X193200Y66300D02*X193700Y66800D01*
X191700Y66300D02*X193200D01*
X192200Y68500D02*X193200D01*
X193700Y68000D01*
Y66800D02*Y68000D01*
X194900D02*X195400Y68500D01*
X194900Y67200D02*Y68000D01*
Y67200D02*X195600Y66500D01*
X196200D01*
X196900Y67200D01*
Y68000D01*
X196400Y68500D02*X196900Y68000D01*
X195400Y68500D02*X196400D01*
X194900Y65800D02*X195600Y66500D01*
X194900Y65000D02*Y65800D01*
Y65000D02*X195400Y64500D01*
X196400D01*
X196900Y65000D01*
Y65800D01*
X196200Y66500D02*X196900Y65800D01*
X217200Y252500D02*X218500D01*
X216500Y251800D02*X217200Y252500D01*
X216500Y249200D02*Y251800D01*
Y249200D02*X217200Y248500D01*
X218500D01*
X219700Y249000D02*X220200Y248500D01*
X221200D01*
X221700Y249000D01*
X221200Y252500D02*X221700Y252000D01*
X220200Y252500D02*X221200D01*
X219700Y252000D02*X220200Y252500D01*
Y250300D02*X221200D01*
X221700Y249000D02*Y249800D01*
Y250800D02*Y252000D01*
Y250800D02*X221200Y250300D01*
X221700Y249800D02*X221200Y250300D01*
X222900Y252000D02*X223400Y252500D01*
X222900Y249000D02*Y252000D01*
Y249000D02*X223400Y248500D01*
X224400D01*
X224900Y249000D01*
Y252000D01*
X224400Y252500D02*X224900Y252000D01*
X223400Y252500D02*X224400D01*
X222900Y251500D02*X224900Y249500D01*
X215500Y174500D02*Y177500D01*
Y174500D02*X216000Y174000D01*
X217000D01*
X217500Y174500D01*
Y177000D01*
X216500Y178000D02*X217500Y177000D01*
X216000Y178000D02*X216500D01*
X215500Y177500D02*X216000Y178000D01*
X216500Y176500D02*X217500Y178000D01*
X218700Y174800D02*X219500Y174000D01*
Y178000D01*
X218700D02*X220200D01*
X188200Y214000D02*X189500D01*
X187500Y213300D02*X188200Y214000D01*
X187500Y210700D02*Y213300D01*
Y210700D02*X188200Y210000D01*
X189500D01*
X192200D02*X192700Y210500D01*
X191200Y210000D02*X192200D01*
X190700Y210500D02*X191200Y210000D01*
X190700Y210500D02*Y213500D01*
X191200Y214000D01*
X192200Y211800D02*X192700Y212300D01*
X190700Y211800D02*X192200D01*
X191200Y214000D02*X192200D01*
X192700Y213500D01*
Y212300D02*Y213500D01*
X194400Y214000D02*X195900Y212000D01*
Y210500D02*Y212000D01*
X195400Y210000D02*X195900Y210500D01*
X194400Y210000D02*X195400D01*
X193900Y210500D02*X194400Y210000D01*
X193900Y210500D02*Y211500D01*
X194400Y212000D01*
X195900D01*
X264540Y409230D02*X266700D01*
X264540Y408528D02*X264918Y408150D01*
X266322D01*
X266700Y408528D02*X266322Y408150D01*
X266700Y408528D02*Y409500D01*
X264540Y408528D02*Y409500D01*
X264972Y407502D02*X264540Y407070D01*
X266700D01*
Y406692D02*Y407502D01*
X264810Y406044D02*X264540Y405774D01*
Y405234D02*Y405774D01*
Y405234D02*X264810Y404964D01*
X266700Y405234D02*X266430Y404964D01*
X266700Y405234D02*Y405774D01*
X266430Y406044D02*X266700Y405774D01*
X265512Y405234D02*Y405774D01*
X264810Y404964D02*X265242D01*
X265782D02*X266430D01*
X265782D02*X265512Y405234D01*
X265242Y404964D02*X265512Y405234D01*
X272500Y391040D02*X273580D01*
X273850Y391310D01*
Y391850D01*
X273580Y392120D02*X273850Y391850D01*
X272770Y392120D02*X273580D01*
X272770Y391040D02*Y393200D01*
X273202Y392120D02*X273850Y393200D01*
X274498Y391310D02*X274768Y391040D01*
X275308D01*
X275578Y391310D01*
X275308Y393200D02*X275578Y392930D01*
X274768Y393200D02*X275308D01*
X274498Y392930D02*X274768Y393200D01*
Y392012D02*X275308D01*
X275578Y391310D02*Y391742D01*
Y392282D02*Y392930D01*
Y392282D02*X275308Y392012D01*
X275578Y391742D02*X275308Y392012D01*
X277036Y391040D02*X277306Y391310D01*
X276496Y391040D02*X277036D01*
X276226Y391310D02*X276496Y391040D01*
X276226Y391310D02*Y392930D01*
X276496Y393200D01*
X277036Y392012D02*X277306Y392282D01*
X276226Y392012D02*X277036D01*
X276496Y393200D02*X277036D01*
X277306Y392930D01*
Y392282D02*Y392930D01*
X281200Y392420D02*Y393122D01*
X280822Y393500D02*X281200Y393122D01*
X279418Y393500D02*X280822D01*
X279418D02*X279040Y393122D01*
Y392420D02*Y393122D01*
Y390692D02*Y391772D01*
X280120D01*
X279850Y391502D01*
Y390962D02*Y391502D01*
Y390962D02*X280120Y390692D01*
X280930D01*
X281200Y390962D02*X280930Y390692D01*
X281200Y390962D02*Y391502D01*
X280930Y391772D02*X281200Y391502D01*
X279472Y390044D02*X279040Y389612D01*
X281200D01*
Y389234D02*Y390044D01*
X286000Y387970D02*Y391365D01*
X286485Y391850D01*
X287455D01*
X287940Y391365D01*
Y387970D02*Y391365D01*
X289589Y391850D02*X291529Y387970D01*
X289104D02*X291529D01*
X276200Y411420D02*Y412122D01*
X275822Y412500D02*X276200Y412122D01*
X274418Y412500D02*X275822D01*
X274418D02*X274040Y412122D01*
Y411420D02*Y412122D01*
Y409692D02*Y410772D01*
X275120D01*
X274850Y410502D01*
Y409962D02*Y410502D01*
Y409962D02*X275120Y409692D01*
X275930D01*
X276200Y409962D02*X275930Y409692D01*
X276200Y409962D02*Y410502D01*
X275930Y410772D02*X276200Y410502D01*
X274310Y409044D02*X274040Y408774D01*
Y407964D02*Y408774D01*
Y407964D02*X274310Y407694D01*
X274850D01*
X276200Y409044D02*X274850Y407694D01*
X276200D02*Y409044D01*
X304700Y414920D02*Y415622D01*
X304322Y416000D02*X304700Y415622D01*
X302918Y416000D02*X304322D01*
X302918D02*X302540Y415622D01*
Y414920D02*Y415622D01*
Y413192D02*Y414272D01*
X303620D01*
X303350Y414002D01*
Y413462D02*Y414002D01*
Y413462D02*X303620Y413192D01*
X304430D01*
X304700Y413462D02*X304430Y413192D01*
X304700Y413462D02*Y414002D01*
X304430Y414272D02*X304700Y414002D01*
X304430Y412544D02*X304700Y412274D01*
X302810Y412544D02*X304430D01*
X302810D02*X302540Y412274D01*
Y411734D02*Y412274D01*
Y411734D02*X302810Y411464D01*
X304430D01*
X304700Y411734D02*X304430Y411464D01*
X304700Y411734D02*Y412274D01*
X304160Y412544D02*X303080Y411464D01*
X281700Y414920D02*Y415622D01*
X281322Y416000D02*X281700Y415622D01*
X279918Y416000D02*X281322D01*
X279918D02*X279540Y415622D01*
Y414920D02*Y415622D01*
X280890Y414272D02*X279540Y413192D01*
X280890Y412922D02*Y414272D01*
X279540Y413192D02*X281700D01*
Y412004D02*X280620Y411194D01*
X279810D02*X280620D01*
X279540Y411464D02*X279810Y411194D01*
X279540Y411464D02*Y412004D01*
X279810Y412274D02*X279540Y412004D01*
X279810Y412274D02*X280350D01*
X280620Y412004D01*
Y411194D02*Y412004D01*
X264540Y401920D02*Y403000D01*
Y401920D02*X264810Y401650D01*
X265350D01*
X265620Y401920D02*X265350Y401650D01*
X265620Y401920D02*Y402730D01*
X264540D02*X266700D01*
X265620Y402298D02*X266700Y401650D01*
X264810Y401002D02*X264540Y400732D01*
Y400192D02*Y400732D01*
Y400192D02*X264810Y399922D01*
X266700Y400192D02*X266430Y399922D01*
X266700Y400192D02*Y400732D01*
X266430Y401002D02*X266700Y400732D01*
X265512Y400192D02*Y400732D01*
X264810Y399922D02*X265242D01*
X265782D02*X266430D01*
X265782D02*X265512Y400192D01*
X265242Y399922D02*X265512Y400192D01*
X265890Y399274D02*X264540Y398194D01*
X265890Y397924D02*Y399274D01*
X264540Y398194D02*X266700D01*
X187700Y383500D02*X189000D01*
X187000Y382800D02*X187700Y383500D01*
X187000Y380200D02*Y382800D01*
Y380200D02*X187700Y379500D01*
X189000D01*
X190200Y380300D02*X191000Y379500D01*
Y383500D01*
X190200D02*X191700D01*
X193400D02*X194900Y381500D01*
Y380000D02*Y381500D01*
X194400Y379500D02*X194900Y380000D01*
X193400Y379500D02*X194400D01*
X192900Y380000D02*X193400Y379500D01*
X192900Y380000D02*Y381000D01*
X193400Y381500D01*
X194900D01*
X183000Y443040D02*X184080D01*
X184350Y443310D01*
Y443850D01*
X184080Y444120D02*X184350Y443850D01*
X183270Y444120D02*X184080D01*
X183270Y443040D02*Y445200D01*
X183702Y444120D02*X184350Y445200D01*
X185268D02*X186078Y444120D01*
Y443310D02*Y444120D01*
X185808Y443040D02*X186078Y443310D01*
X185268Y443040D02*X185808D01*
X184998Y443310D02*X185268Y443040D01*
X184998Y443310D02*Y443850D01*
X185268Y444120D01*
X186078D01*
X187500Y418000D02*Y421500D01*
X188000Y422000D01*
X189000D01*
X189500Y421500D01*
Y418000D02*Y421500D01*
X190700Y420500D02*X192700Y418000D01*
X190700Y420500D02*X193200D01*
X192700Y418000D02*Y422000D01*
X240700Y411420D02*Y412122D01*
X240322Y412500D02*X240700Y412122D01*
X238918Y412500D02*X240322D01*
X238918D02*X238540Y412122D01*
Y411420D02*Y412122D01*
Y409692D02*Y410772D01*
X239620D01*
X239350Y410502D01*
Y409962D02*Y410502D01*
Y409962D02*X239620Y409692D01*
X240430D01*
X240700Y409962D02*X240430Y409692D01*
X240700Y409962D02*Y410502D01*
X240430Y410772D02*X240700Y410502D01*
X240430Y409044D02*X240700Y408774D01*
X239998Y409044D02*X240430D01*
X239998D02*X239620Y408666D01*
Y408342D02*Y408666D01*
Y408342D02*X239998Y407964D01*
X240430D01*
X240700Y408234D02*X240430Y407964D01*
X240700Y408234D02*Y408774D01*
X239242Y409044D02*X239620Y408666D01*
X238810Y409044D02*X239242D01*
X238810D02*X238540Y408774D01*
Y408234D02*Y408774D01*
Y408234D02*X238810Y407964D01*
X239242D01*
X239620Y408342D02*X239242Y407964D01*
X212000Y384500D02*Y387500D01*
Y384500D02*X212500Y384000D01*
X213500D01*
X214000Y384500D01*
Y387000D01*
X213000Y388000D02*X214000Y387000D01*
X212500Y388000D02*X213000D01*
X212000Y387500D02*X212500Y388000D01*
X213000Y386500D02*X214000Y388000D01*
X215200Y384800D02*X216000Y384000D01*
Y388000D01*
X215200D02*X216700D01*
X217900Y384500D02*X218400Y384000D01*
X219900D01*
X220400Y384500D01*
Y385500D01*
X217900Y388000D02*X220400Y385500D01*
X217900Y388000D02*X220400D01*
X215700Y448920D02*Y449622D01*
X215322Y450000D02*X215700Y449622D01*
X213918Y450000D02*X215322D01*
X213918D02*X213540Y449622D01*
Y448920D02*Y449622D01*
Y447462D02*X213810Y447192D01*
X213540Y447462D02*Y448002D01*
X213810Y448272D02*X213540Y448002D01*
X213810Y448272D02*X215430D01*
X215700Y448002D01*
X214512Y447462D02*X214782Y447192D01*
X214512Y447462D02*Y448272D01*
X215700Y447462D02*Y448002D01*
Y447462D02*X215430Y447192D01*
X214782D02*X215430D01*
X215700Y439920D02*Y440622D01*
X215322Y441000D02*X215700Y440622D01*
X213918Y441000D02*X215322D01*
X213918D02*X213540Y440622D01*
Y439920D02*Y440622D01*
X213972Y439272D02*X213540Y438840D01*
X215700D01*
Y438462D02*Y439272D01*
X214890Y437814D02*X213540Y436734D01*
X214890Y436464D02*Y437814D01*
X213540Y436734D02*X215700D01*
X208378Y421700D02*X209080D01*
X208000Y421322D02*X208378Y421700D01*
X208000Y419918D02*Y421322D01*
Y419918D02*X208378Y419540D01*
X209080D01*
X209728Y419972D02*X210160Y419540D01*
Y421700D01*
X209728D02*X210538D01*
X211186Y419810D02*X211456Y419540D01*
X211996D01*
X212266Y419810D01*
X211996Y421700D02*X212266Y421430D01*
X211456Y421700D02*X211996D01*
X211186Y421430D02*X211456Y421700D01*
Y420512D02*X211996D01*
X212266Y419810D02*Y420242D01*
Y420782D02*Y421430D01*
Y420782D02*X211996Y420512D01*
X212266Y420242D02*X211996Y420512D01*
X240540Y393650D02*Y395000D01*
X242700D02*X240540Y393650D01*
X242700D02*Y395000D01*
Y392732D02*X241620Y391922D01*
X240810D02*X241620D01*
X240540Y392192D02*X240810Y391922D01*
X240540Y392192D02*Y392732D01*
X240810Y393002D02*X240540Y392732D01*
X240810Y393002D02*X241350D01*
X241620Y392732D01*
Y391922D02*Y392732D01*
X325270Y342460D02*Y344000D01*
Y342460D02*X325655Y342075D01*
X326425D01*
X326810Y342460D02*X326425Y342075D01*
X326810Y342460D02*Y343615D01*
X325270D02*X328350D01*
X326810Y342999D02*X328350Y342075D01*
X325655Y341151D02*X325270Y340766D01*
Y339611D02*Y340766D01*
Y339611D02*X325655Y339226D01*
X326425D01*
X328350Y341151D02*X326425Y339226D01*
X328350D02*Y341151D01*
X327965Y338302D02*X328350Y337917D01*
X325655Y338302D02*X327965D01*
X325655D02*X325270Y337917D01*
Y337147D02*Y337917D01*
Y337147D02*X325655Y336762D01*
X327965D01*
X328350Y337147D02*X327965Y336762D01*
X328350Y337147D02*Y337917D01*
X327580Y338302D02*X326040Y336762D01*
X327965Y335838D02*X328350Y335453D01*
X325655Y335838D02*X327965D01*
X325655D02*X325270Y335453D01*
Y334683D02*Y335453D01*
Y334683D02*X325655Y334298D01*
X327965D01*
X328350Y334683D02*X327965Y334298D01*
X328350Y334683D02*Y335453D01*
X327580Y335838D02*X326040Y334298D01*
X285500Y351000D02*Y354000D01*
Y351000D02*X286000Y350500D01*
X287000D01*
X287500Y351000D01*
Y353500D01*
X286500Y354500D02*X287500Y353500D01*
X286000Y354500D02*X286500D01*
X285500Y354000D02*X286000Y354500D01*
X286500Y353000D02*X287500Y354500D01*
X288700Y351300D02*X289500Y350500D01*
Y354500D01*
X288700D02*X290200D01*
X291400Y351300D02*X292200Y350500D01*
Y354500D01*
X291400D02*X292900D01*
X283700Y346000D02*X285000D01*
X283000Y345300D02*X283700Y346000D01*
X283000Y342700D02*Y345300D01*
Y342700D02*X283700Y342000D01*
X285000D01*
X286200Y342500D02*X286700Y342000D01*
X288200D01*
X288700Y342500D01*
Y343500D01*
X286200Y346000D02*X288700Y343500D01*
X286200Y346000D02*X288700D01*
X289900Y345500D02*X290400Y346000D01*
X289900Y342500D02*Y345500D01*
Y342500D02*X290400Y342000D01*
X291400D01*
X291900Y342500D01*
Y345500D01*
X291400Y346000D02*X291900Y345500D01*
X290400Y346000D02*X291400D01*
X289900Y345000D02*X291900Y343000D01*
X323000Y393040D02*X324350D01*
X323000Y395200D02*X324350Y393040D01*
X323000Y395200D02*X324350D01*
X324998Y393472D02*X325430Y393040D01*
Y395200D01*
X324998D02*X325808D01*
X326456Y393472D02*X326888Y393040D01*
Y395200D01*
X326456D02*X327266D01*
X350040Y403230D02*X352200D01*
X350040Y402528D02*X350418Y402150D01*
X351822D01*
X352200Y402528D02*X351822Y402150D01*
X352200Y402528D02*Y403500D01*
X350040Y402528D02*Y403500D01*
X350472Y401502D02*X350040Y401070D01*
X352200D01*
Y400692D02*Y401502D01*
X350040Y398964D02*Y400044D01*
X351120D01*
X350850Y399774D01*
Y399234D02*Y399774D01*
Y399234D02*X351120Y398964D01*
X351930D01*
X352200Y399234D02*X351930Y398964D01*
X352200Y399234D02*Y399774D01*
X351930Y400044D02*X352200Y399774D01*
X350040Y394920D02*Y396000D01*
Y394920D02*X350310Y394650D01*
X350850D01*
X351120Y394920D02*X350850Y394650D01*
X351120Y394920D02*Y395730D01*
X350040D02*X352200D01*
X351120Y395298D02*X352200Y394650D01*
X350310Y394002D02*X350040Y393732D01*
Y393192D02*Y393732D01*
Y393192D02*X350310Y392922D01*
X352200Y393192D02*X351930Y392922D01*
X352200Y393192D02*Y393732D01*
X351930Y394002D02*X352200Y393732D01*
X351012Y393192D02*Y393732D01*
X350310Y392922D02*X350742D01*
X351282D02*X351930D01*
X351282D02*X351012Y393192D01*
X350742Y392922D02*X351012Y393192D01*
X351930Y392274D02*X352200Y392004D01*
X351498Y392274D02*X351930D01*
X351498D02*X351120Y391896D01*
Y391572D02*Y391896D01*
Y391572D02*X351498Y391194D01*
X351930D01*
X352200Y391464D02*X351930Y391194D01*
X352200Y391464D02*Y392004D01*
X350742Y392274D02*X351120Y391896D01*
X350310Y392274D02*X350742D01*
X350310D02*X350040Y392004D01*
Y391464D02*Y392004D01*
Y391464D02*X350310Y391194D01*
X350742D01*
X351120Y391572D02*X350742Y391194D01*
X352200Y412920D02*Y413622D01*
X351822Y414000D02*X352200Y413622D01*
X350418Y414000D02*X351822D01*
X350418D02*X350040Y413622D01*
Y412920D02*Y413622D01*
Y411192D02*Y412272D01*
X351120D01*
X350850Y412002D01*
Y411462D02*Y412002D01*
Y411462D02*X351120Y411192D01*
X351930D01*
X352200Y411462D02*X351930Y411192D01*
X352200Y411462D02*Y412002D01*
X351930Y412272D02*X352200Y412002D01*
X350310Y410544D02*X350040Y410274D01*
Y409734D02*Y410274D01*
Y409734D02*X350310Y409464D01*
X352200Y409734D02*X351930Y409464D01*
X352200Y409734D02*Y410274D01*
X351930Y410544D02*X352200Y410274D01*
X351012Y409734D02*Y410274D01*
X350310Y409464D02*X350742D01*
X351282D02*X351930D01*
X351282D02*X351012Y409734D01*
X350742Y409464D02*X351012Y409734D01*
X329500Y404540D02*X330580D01*
X330850Y404810D01*
Y405350D01*
X330580Y405620D02*X330850Y405350D01*
X329770Y405620D02*X330580D01*
X329770Y404540D02*Y406700D01*
X330202Y405620D02*X330850Y406700D01*
X331498Y404810D02*X331768Y404540D01*
X332308D01*
X332578Y404810D01*
X332308Y406700D02*X332578Y406430D01*
X331768Y406700D02*X332308D01*
X331498Y406430D02*X331768Y406700D01*
Y405512D02*X332308D01*
X332578Y404810D02*Y405242D01*
Y405782D02*Y406430D01*
Y405782D02*X332308Y405512D01*
X332578Y405242D02*X332308Y405512D01*
X333226Y404540D02*X334306D01*
X333226D02*Y405620D01*
X333496Y405350D01*
X334036D01*
X334306Y405620D01*
Y406430D01*
X334036Y406700D02*X334306Y406430D01*
X333496Y406700D02*X334036D01*
X333226Y406430D02*X333496Y406700D01*
X322540Y407920D02*Y409000D01*
Y407920D02*X322810Y407650D01*
X323350D01*
X323620Y407920D02*X323350Y407650D01*
X323620Y407920D02*Y408730D01*
X322540D02*X324700D01*
X323620Y408298D02*X324700Y407650D01*
X323890Y407002D02*X322540Y405922D01*
X323890Y405652D02*Y407002D01*
X322540Y405922D02*X324700D01*
X322810Y405004D02*X322540Y404734D01*
Y403924D02*Y404734D01*
Y403924D02*X322810Y403654D01*
X323350D01*
X324700Y405004D02*X323350Y403654D01*
X324700D02*Y405004D01*
X310540Y408730D02*X312700D01*
X310540Y408028D02*X310918Y407650D01*
X312322D01*
X312700Y408028D02*X312322Y407650D01*
X312700Y408028D02*Y409000D01*
X310540Y408028D02*Y409000D01*
X310972Y407002D02*X310540Y406570D01*
X312700D01*
Y406192D02*Y407002D01*
Y405274D02*X310540Y404194D01*
Y405544D01*
X359200Y423000D02*X360500D01*
X358500Y422300D02*X359200Y423000D01*
X358500Y419700D02*Y422300D01*
Y419700D02*X359200Y419000D01*
X360500D01*
X362200Y423000D02*X364200Y419000D01*
X361700D02*X364200D01*
X365400Y422500D02*X365900Y423000D01*
X365400Y419500D02*Y422500D01*
Y419500D02*X365900Y419000D01*
X366900D01*
X367400Y419500D01*
Y422500D01*
X366900Y423000D02*X367400Y422500D01*
X365900Y423000D02*X366900D01*
X365400Y422000D02*X367400Y420000D01*
X240000Y292270D02*X241540D01*
X241925Y292655D01*
Y293425D01*
X241540Y293810D02*X241925Y293425D01*
X240385Y293810D02*X241540D01*
X240385Y292270D02*Y295350D01*
X241001Y293810D02*X241925Y295350D01*
X242849Y292886D02*X243465Y292270D01*
Y295350D01*
X242849D02*X244004D01*
X244928Y294965D02*X245313Y295350D01*
X244928Y292655D02*Y294965D01*
Y292655D02*X245313Y292270D01*
X246083D01*
X246468Y292655D01*
Y294965D01*
X246083Y295350D02*X246468Y294965D01*
X245313Y295350D02*X246083D01*
X244928Y294580D02*X246468Y293040D01*
X247392Y294965D02*X247777Y295350D01*
X247392Y292655D02*Y294965D01*
Y292655D02*X247777Y292270D01*
X248547D01*
X248932Y292655D01*
Y294965D01*
X248547Y295350D02*X248932Y294965D01*
X247777Y295350D02*X248547D01*
X247392Y294580D02*X248932Y293040D01*
X251000Y292270D02*X252540D01*
X252925Y292655D01*
Y293425D01*
X252540Y293810D02*X252925Y293425D01*
X251385Y293810D02*X252540D01*
X251385Y292270D02*Y295350D01*
X252001Y293810D02*X252925Y295350D01*
X253849Y292886D02*X254465Y292270D01*
Y295350D01*
X253849D02*X255004D01*
X255928Y294965D02*X256313Y295350D01*
X255928Y292655D02*Y294965D01*
Y292655D02*X256313Y292270D01*
X257083D01*
X257468Y292655D01*
Y294965D01*
X257083Y295350D02*X257468Y294965D01*
X256313Y295350D02*X257083D01*
X255928Y294580D02*X257468Y293040D01*
X258392Y292886D02*X259008Y292270D01*
Y295350D01*
X258392D02*X259547D01*
X226539Y291350D02*X227540D01*
X226000Y290811D02*X226539Y291350D01*
X226000Y288809D02*Y290811D01*
Y288809D02*X226539Y288270D01*
X227540D01*
X228464Y288886D02*X229080Y288270D01*
Y291350D01*
X228464D02*X229619D01*
X230543Y290965D02*X230928Y291350D01*
X230543Y288655D02*Y290965D01*
Y288655D02*X230928Y288270D01*
X231698D01*
X232083Y288655D01*
Y290965D01*
X231698Y291350D02*X232083Y290965D01*
X230928Y291350D02*X231698D01*
X230543Y290580D02*X232083Y289040D01*
X233007Y288270D02*X234547D01*
X233007D02*Y289810D01*
X233392Y289425D01*
X234162D01*
X234547Y289810D01*
Y290965D01*
X234162Y291350D02*X234547Y290965D01*
X233392Y291350D02*X234162D01*
X233007Y290965D02*X233392Y291350D01*
X332500Y322770D02*X334040D01*
X334425Y323155D01*
Y323925D01*
X334040Y324310D02*X334425Y323925D01*
X332885Y324310D02*X334040D01*
X332885Y322770D02*Y325850D01*
X333501Y324310D02*X334425Y325850D01*
X335349Y323155D02*X335734Y322770D01*
X336889D01*
X337274Y323155D01*
Y323925D01*
X335349Y325850D02*X337274Y323925D01*
X335349Y325850D02*X337274D01*
X338198Y325465D02*X338583Y325850D01*
X338198Y323155D02*Y325465D01*
Y323155D02*X338583Y322770D01*
X339353D01*
X339738Y323155D01*
Y325465D01*
X339353Y325850D02*X339738Y325465D01*
X338583Y325850D02*X339353D01*
X338198Y325080D02*X339738Y323540D01*
X340662Y324695D02*X342202Y322770D01*
X340662Y324695D02*X342587D01*
X342202Y322770D02*Y325850D01*
X339500Y266500D02*Y267800D01*
X338800Y268500D02*X339500Y267800D01*
X336200Y268500D02*X338800D01*
X336200D02*X335500Y267800D01*
Y266500D02*Y267800D01*
X336300Y265300D02*X335500Y264500D01*
X339500D01*
Y263800D02*Y265300D01*
X335500Y261100D02*X336000Y260600D01*
X335500Y261100D02*Y262100D01*
X336000Y262600D02*X335500Y262100D01*
X336000Y262600D02*X339000D01*
X339500Y262100D01*
X337300Y261100D02*X337800Y260600D01*
X337300Y261100D02*Y262600D01*
X339500Y261100D02*Y262100D01*
Y261100D02*X339000Y260600D01*
X337800D02*X339000D01*
X358000Y239000D02*X361500D01*
X362000Y238500D01*
Y237500D02*Y238500D01*
Y237500D02*X361500Y237000D01*
X358000D02*X361500D01*
X358500Y235800D02*X358000Y235300D01*
Y234300D02*Y235300D01*
Y234300D02*X358500Y233800D01*
X362000Y234300D02*X361500Y233800D01*
X362000Y234300D02*Y235300D01*
X361500Y235800D02*X362000Y235300D01*
X359800Y234300D02*Y235300D01*
X358500Y233800D02*X359300D01*
X360300D02*X361500D01*
X360300D02*X359800Y234300D01*
X359300Y233800D02*X359800Y234300D01*
X376700Y385000D02*X378000D01*
X376000Y384300D02*X376700Y385000D01*
X376000Y381700D02*Y384300D01*
Y381700D02*X376700Y381000D01*
X378000D01*
X379200Y381500D02*X379700Y381000D01*
X381200D01*
X381700Y381500D01*
Y382500D01*
X379200Y385000D02*X381700Y382500D01*
X379200Y385000D02*X381700D01*
X384400Y381000D02*X384900Y381500D01*
X383400Y381000D02*X384400D01*
X382900Y381500D02*X383400Y381000D01*
X382900Y381500D02*Y384500D01*
X383400Y385000D01*
X384400Y382800D02*X384900Y383300D01*
X382900Y382800D02*X384400D01*
X383400Y385000D02*X384400D01*
X384900Y384500D01*
Y383300D02*Y384500D01*
X384878Y248700D02*X385580D01*
X384500Y248322D02*X384878Y248700D01*
X384500Y246918D02*Y248322D01*
Y246918D02*X384878Y246540D01*
X385580D01*
X386228Y246810D02*X386498Y246540D01*
X387038D01*
X387308Y246810D01*
X387038Y248700D02*X387308Y248430D01*
X386498Y248700D02*X387038D01*
X386228Y248430D02*X386498Y248700D01*
Y247512D02*X387038D01*
X387308Y246810D02*Y247242D01*
Y247782D02*Y248430D01*
Y247782D02*X387038Y247512D01*
X387308Y247242D02*X387038Y247512D01*
X318770Y280960D02*Y282500D01*
Y280960D02*X319155Y280575D01*
X319925D01*
X320310Y280960D02*X319925Y280575D01*
X320310Y280960D02*Y282115D01*
X318770D02*X321850D01*
X320310Y281499D02*X321850Y280575D01*
X319155Y279651D02*X318770Y279266D01*
Y278111D02*Y279266D01*
Y278111D02*X319155Y277726D01*
X319925D01*
X321850Y279651D02*X319925Y277726D01*
X321850D02*Y279651D01*
X321465Y276802D02*X321850Y276417D01*
X319155Y276802D02*X321465D01*
X319155D02*X318770Y276417D01*
Y275647D02*Y276417D01*
Y275647D02*X319155Y275262D01*
X321465D01*
X321850Y275647D02*X321465Y275262D01*
X321850Y275647D02*Y276417D01*
X321080Y276802D02*X319540Y275262D01*
X319386Y274338D02*X318770Y273722D01*
X321850D01*
Y273183D02*Y274338D01*
X332770Y281460D02*Y283000D01*
Y281460D02*X333155Y281075D01*
X333925D01*
X334310Y281460D02*X333925Y281075D01*
X334310Y281460D02*Y282615D01*
X332770D02*X335850D01*
X334310Y281999D02*X335850Y281075D01*
X333155Y280151D02*X332770Y279766D01*
Y278611D02*Y279766D01*
Y278611D02*X333155Y278226D01*
X333925D01*
X335850Y280151D02*X333925Y278226D01*
X335850D02*Y280151D01*
X335465Y277302D02*X335850Y276917D01*
X333155Y277302D02*X335465D01*
X333155D02*X332770Y276917D01*
Y276147D02*Y276917D01*
Y276147D02*X333155Y275762D01*
X335465D01*
X335850Y276147D02*X335465Y275762D01*
X335850Y276147D02*Y276917D01*
X335080Y277302D02*X333540Y275762D01*
X333155Y274838D02*X332770Y274453D01*
Y273298D02*Y274453D01*
Y273298D02*X333155Y272913D01*
X333925D01*
X335850Y274838D02*X333925Y272913D01*
X335850D02*Y274838D01*
X332878Y303700D02*X333580D01*
X332500Y303322D02*X332878Y303700D01*
X332500Y301918D02*Y303322D01*
Y301918D02*X332878Y301540D01*
X333580D01*
X334228Y301810D02*X334498Y301540D01*
X335308D01*
X335578Y301810D01*
Y302350D01*
X334228Y303700D02*X335578Y302350D01*
X334228Y303700D02*X335578D01*
X336226Y303430D02*X336496Y303700D01*
X336226Y301810D02*Y303430D01*
Y301810D02*X336496Y301540D01*
X337036D01*
X337306Y301810D01*
Y303430D01*
X337036Y303700D02*X337306Y303430D01*
X336496Y303700D02*X337036D01*
X336226Y303160D02*X337306Y302080D01*
X337954Y301972D02*X338386Y301540D01*
Y303700D01*
X337954D02*X338764D01*
X320000Y307000D02*X322000D01*
X322500Y307500D01*
Y308500D01*
X322000Y309000D02*X322500Y308500D01*
X320500Y309000D02*X322000D01*
X320500Y307000D02*Y311000D01*
X321300Y309000D02*X322500Y311000D01*
X323700Y307500D02*X324200Y307000D01*
X325700D01*
X326200Y307500D01*
Y308500D01*
X323700Y311000D02*X326200Y308500D01*
X323700Y311000D02*X326200D01*
X327400Y310500D02*X327900Y311000D01*
X327400Y307500D02*Y310500D01*
Y307500D02*X327900Y307000D01*
X328900D01*
X329400Y307500D01*
Y310500D01*
X328900Y311000D02*X329400Y310500D01*
X327900Y311000D02*X328900D01*
X327400Y310000D02*X329400Y308000D01*
X332100Y307000D02*X332600Y307500D01*
X331100Y307000D02*X332100D01*
X330600Y307500D02*X331100Y307000D01*
X330600Y307500D02*Y310500D01*
X331100Y311000D01*
X332100Y308800D02*X332600Y309300D01*
X330600Y308800D02*X332100D01*
X331100Y311000D02*X332100D01*
X332600Y310500D01*
Y309300D02*Y310500D01*
X318200Y262500D02*X319500D01*
X317500Y261800D02*X318200Y262500D01*
X317500Y259200D02*Y261800D01*
Y259200D02*X318200Y258500D01*
X319500D01*
X320700Y261000D02*X322700Y258500D01*
X320700Y261000D02*X323200D01*
X322700Y258500D02*Y262500D01*
X240200Y202420D02*Y203122D01*
X239822Y203500D02*X240200Y203122D01*
X238418Y203500D02*X239822D01*
X238418D02*X238040Y203122D01*
Y202420D02*Y203122D01*
X238310Y201772D02*X238040Y201502D01*
Y200692D02*Y201502D01*
Y200692D02*X238310Y200422D01*
X238850D01*
X240200Y201772D02*X238850Y200422D01*
X240200D02*Y201772D01*
Y199504D02*X239120Y198694D01*
X238310D02*X239120D01*
X238040Y198964D02*X238310Y198694D01*
X238040Y198964D02*Y199504D01*
X238310Y199774D02*X238040Y199504D01*
X238310Y199774D02*X238850D01*
X239120Y199504D01*
Y198694D02*Y199504D01*
X276200Y201920D02*Y202622D01*
X275822Y203000D02*X276200Y202622D01*
X274418Y203000D02*X275822D01*
X274418D02*X274040Y202622D01*
Y201920D02*Y202622D01*
X274310Y201272D02*X274040Y201002D01*
Y200192D02*Y201002D01*
Y200192D02*X274310Y199922D01*
X274850D01*
X276200Y201272D02*X274850Y199922D01*
X276200D02*Y201272D01*
X274310Y199274D02*X274040Y199004D01*
Y198464D02*Y199004D01*
Y198464D02*X274310Y198194D01*
X276200Y198464D02*X275930Y198194D01*
X276200Y198464D02*Y199004D01*
X275930Y199274D02*X276200Y199004D01*
X275012Y198464D02*Y199004D01*
X274310Y198194D02*X274742D01*
X275282D02*X275930D01*
X275282D02*X275012Y198464D01*
X274742Y198194D02*X275012Y198464D01*
X281700Y204920D02*Y205622D01*
X281322Y206000D02*X281700Y205622D01*
X279918Y206000D02*X281322D01*
X279918D02*X279540Y205622D01*
Y204920D02*Y205622D01*
X279972Y204272D02*X279540Y203840D01*
X281700D01*
Y203462D02*Y204272D01*
X279540Y201734D02*Y202814D01*
X280620D01*
X280350Y202544D01*
Y202004D02*Y202544D01*
Y202004D02*X280620Y201734D01*
X281430D01*
X281700Y202004D02*X281430Y201734D01*
X281700Y202004D02*Y202544D01*
X281430Y202814D02*X281700Y202544D01*
X264540Y196730D02*X266700D01*
X264540Y196028D02*X264918Y195650D01*
X266322D01*
X266700Y196028D02*X266322Y195650D01*
X266700Y196028D02*Y197000D01*
X264540Y196028D02*Y197000D01*
X264972Y195002D02*X264540Y194570D01*
X266700D01*
Y194192D02*Y195002D01*
X264540Y191420D02*Y192500D01*
Y191420D02*X264810Y191150D01*
X265350D01*
X265620Y191420D02*X265350Y191150D01*
X265620Y191420D02*Y192230D01*
X264540D02*X266700D01*
X265620Y191798D02*X266700Y191150D01*
X264810Y190502D02*X264540Y190232D01*
Y189692D02*Y190232D01*
Y189692D02*X264810Y189422D01*
X266700Y189692D02*X266430Y189422D01*
X266700Y189692D02*Y190232D01*
X266430Y190502D02*X266700Y190232D01*
X265512Y189692D02*Y190232D01*
X264810Y189422D02*X265242D01*
X265782D02*X266430D01*
X265782D02*X265512Y189692D01*
X265242Y189422D02*X265512Y189692D01*
X286500Y180510D02*Y182295D01*
X286755Y182550D01*
X287265D01*
X287520Y182295D01*
Y180510D02*Y182295D01*
X288132Y180918D02*X288540Y180510D01*
Y182550D01*
X288132D02*X288897D01*
X304200Y204420D02*Y205122D01*
X303822Y205500D02*X304200Y205122D01*
X302418Y205500D02*X303822D01*
X302418D02*X302040Y205122D01*
Y204420D02*Y205122D01*
X302310Y203772D02*X302040Y203502D01*
Y202692D02*Y203502D01*
Y202692D02*X302310Y202422D01*
X302850D01*
X304200Y203772D02*X302850Y202422D01*
X304200D02*Y203772D01*
X302472Y201774D02*X302040Y201342D01*
X304200D01*
Y200964D02*Y201774D01*
X323040Y198420D02*Y199500D01*
Y198420D02*X323310Y198150D01*
X323850D01*
X324120Y198420D02*X323850Y198150D01*
X324120Y198420D02*Y199230D01*
X323040D02*X325200D01*
X324120Y198798D02*X325200Y198150D01*
X323310Y197502D02*X323040Y197232D01*
Y196422D02*Y197232D01*
Y196422D02*X323310Y196152D01*
X323850D01*
X325200Y197502D02*X323850Y196152D01*
X325200D02*Y197502D01*
X323310Y195504D02*X323040Y195234D01*
Y194424D02*Y195234D01*
Y194424D02*X323310Y194154D01*
X323850D01*
X325200Y195504D02*X323850Y194154D01*
X325200D02*Y195504D01*
X310540Y198730D02*X312700D01*
X310540Y198028D02*X310918Y197650D01*
X312322D01*
X312700Y198028D02*X312322Y197650D01*
X312700Y198028D02*Y199000D01*
X310540Y198028D02*Y199000D01*
X312700Y196732D02*X310540Y195652D01*
Y197002D01*
X352200Y202920D02*Y203622D01*
X351822Y204000D02*X352200Y203622D01*
X350418Y204000D02*X351822D01*
X350418D02*X350040Y203622D01*
Y202920D02*Y203622D01*
Y201192D02*Y202272D01*
X351120D01*
X350850Y202002D01*
Y201462D02*Y202002D01*
Y201462D02*X351120Y201192D01*
X351930D01*
X352200Y201462D02*X351930Y201192D01*
X352200Y201462D02*Y202002D01*
X351930Y202272D02*X352200Y202002D01*
X331000Y194540D02*X332080D01*
X332350Y194810D01*
Y195350D01*
X332080Y195620D02*X332350Y195350D01*
X331270Y195620D02*X332080D01*
X331270Y194540D02*Y196700D01*
X331702Y195620D02*X332350Y196700D01*
X332998Y194810D02*X333268Y194540D01*
X334078D01*
X334348Y194810D01*
Y195350D01*
X332998Y196700D02*X334348Y195350D01*
X332998Y196700D02*X334348D01*
X350040Y192230D02*X352200D01*
X350040Y191528D02*X350418Y191150D01*
X351822D01*
X352200Y191528D02*X351822Y191150D01*
X352200Y191528D02*Y192500D01*
X350040Y191528D02*Y192500D01*
X350310Y190502D02*X350040Y190232D01*
Y189692D02*Y190232D01*
Y189692D02*X350310Y189422D01*
X352200Y189692D02*X351930Y189422D01*
X352200Y189692D02*Y190232D01*
X351930Y190502D02*X352200Y190232D01*
X351012Y189692D02*Y190232D01*
X350310Y189422D02*X350742D01*
X351282D02*X351930D01*
X351282D02*X351012Y189692D01*
X350742Y189422D02*X351012Y189692D01*
X357500Y227040D02*X358580D01*
X358850Y227310D01*
Y227850D01*
X358580Y228120D02*X358850Y227850D01*
X357770Y228120D02*X358580D01*
X357770Y227040D02*Y229200D01*
X358202Y228120D02*X358850Y229200D01*
X359498Y227472D02*X359930Y227040D01*
Y229200D01*
X359498D02*X360308D01*
X361226D02*X362306Y227040D01*
X360956D02*X362306D01*
X369200Y211420D02*Y212122D01*
X368822Y212500D02*X369200Y212122D01*
X367418Y212500D02*X368822D01*
X367418D02*X367040Y212122D01*
Y211420D02*Y212122D01*
X367472Y210772D02*X367040Y210340D01*
X369200D01*
Y209962D02*Y210772D01*
X367310Y209314D02*X367040Y209044D01*
Y208234D02*Y209044D01*
Y208234D02*X367310Y207964D01*
X367850D01*
X369200Y209314D02*X367850Y207964D01*
X369200D02*Y209314D01*
X383378Y209700D02*X384080D01*
X383000Y209322D02*X383378Y209700D01*
X383000Y207918D02*Y209322D01*
Y207918D02*X383378Y207540D01*
X384080D01*
X384728Y207972D02*X385160Y207540D01*
Y209700D01*
X384728D02*X385538D01*
X386186Y207972D02*X386618Y207540D01*
Y209700D01*
X386186D02*X386996D01*
X272500Y181540D02*X273580D01*
X273850Y181810D01*
Y182350D01*
X273580Y182620D02*X273850Y182350D01*
X272770Y182620D02*X273580D01*
X272770Y181540D02*Y183700D01*
X273202Y182620D02*X273850Y183700D01*
X274498Y181972D02*X274930Y181540D01*
Y183700D01*
X274498D02*X275308D01*
X275956Y181810D02*X276226Y181540D01*
X276766D01*
X277036Y181810D01*
X276766Y183700D02*X277036Y183430D01*
X276226Y183700D02*X276766D01*
X275956Y183430D02*X276226Y183700D01*
Y182512D02*X276766D01*
X277036Y181810D02*Y182242D01*
Y182782D02*Y183430D01*
Y182782D02*X276766Y182512D01*
X277036Y182242D02*X276766Y182512D01*
X280700Y182920D02*Y183622D01*
X280322Y184000D02*X280700Y183622D01*
X278918Y184000D02*X280322D01*
X278918D02*X278540Y183622D01*
Y182920D02*Y183622D01*
X278810Y182272D02*X278540Y182002D01*
Y181192D02*Y182002D01*
Y181192D02*X278810Y180922D01*
X279350D01*
X280700Y182272D02*X279350Y180922D01*
X280700D02*Y182272D01*
X278810Y180274D02*X278540Y180004D01*
Y179194D02*Y180004D01*
Y179194D02*X278810Y178924D01*
X279350D01*
X280700Y180274D02*X279350Y178924D01*
X280700D02*Y180274D01*
X241040Y183650D02*Y185000D01*
X243200D02*X241040Y183650D01*
X243200D02*Y185000D01*
X241472Y183002D02*X241040Y182570D01*
X243200D01*
Y182192D02*Y183002D01*
X264540Y92230D02*X266700D01*
X264540Y91528D02*X264918Y91150D01*
X266322D01*
X266700Y91528D02*X266322Y91150D01*
X266700Y91528D02*Y92500D01*
X264540Y91528D02*Y92500D01*
X266430Y90502D02*X266700Y90232D01*
X265998Y90502D02*X266430D01*
X265998D02*X265620Y90124D01*
Y89800D02*Y90124D01*
Y89800D02*X265998Y89422D01*
X266430D01*
X266700Y89692D02*X266430Y89422D01*
X266700Y89692D02*Y90232D01*
X265242Y90502D02*X265620Y90124D01*
X264810Y90502D02*X265242D01*
X264810D02*X264540Y90232D01*
Y89692D02*Y90232D01*
Y89692D02*X264810Y89422D01*
X265242D01*
X265620Y89800D02*X265242Y89422D01*
X264540Y86420D02*Y87500D01*
Y86420D02*X264810Y86150D01*
X265350D01*
X265620Y86420D02*X265350Y86150D01*
X265620Y86420D02*Y87230D01*
X264540D02*X266700D01*
X265620Y86798D02*X266700Y86150D01*
Y85232D02*X264540Y84152D01*
Y85502D01*
X240200Y96920D02*Y97622D01*
X239822Y98000D02*X240200Y97622D01*
X238418Y98000D02*X239822D01*
X238418D02*X238040Y97622D01*
Y96920D02*Y97622D01*
X239390Y96272D02*X238040Y95192D01*
X239390Y94922D02*Y96272D01*
X238040Y95192D02*X240200D01*
X239390Y94274D02*X238040Y93194D01*
X239390Y92924D02*Y94274D01*
X238040Y93194D02*X240200D01*
X272500Y76540D02*X273580D01*
X273850Y76810D01*
Y77350D01*
X273580Y77620D02*X273850Y77350D01*
X272770Y77620D02*X273580D01*
X272770Y76540D02*Y78700D01*
X273202Y77620D02*X273850Y78700D01*
X274498Y76810D02*X274768Y76540D01*
X275578D01*
X275848Y76810D01*
Y77350D01*
X274498Y78700D02*X275848Y77350D01*
X274498Y78700D02*X275848D01*
X276496Y76810D02*X276766Y76540D01*
X277306D01*
X277576Y76810D01*
X277306Y78700D02*X277576Y78430D01*
X276766Y78700D02*X277306D01*
X276496Y78430D02*X276766Y78700D01*
Y77512D02*X277306D01*
X277576Y76810D02*Y77242D01*
Y77782D02*Y78430D01*
Y77782D02*X277306Y77512D01*
X277576Y77242D02*X277306Y77512D01*
X276200Y95920D02*Y96622D01*
X275822Y97000D02*X276200Y96622D01*
X274418Y97000D02*X275822D01*
X274418D02*X274040Y96622D01*
Y95920D02*Y96622D01*
X274310Y95272D02*X274040Y95002D01*
Y94462D02*Y95002D01*
Y94462D02*X274310Y94192D01*
X276200Y94462D02*X275930Y94192D01*
X276200Y94462D02*Y95002D01*
X275930Y95272D02*X276200Y95002D01*
X275012Y94462D02*Y95002D01*
X274310Y94192D02*X274742D01*
X275282D02*X275930D01*
X275282D02*X275012Y94462D01*
X274742Y94192D02*X275012Y94462D01*
X275930Y93544D02*X276200Y93274D01*
X275498Y93544D02*X275930D01*
X275498D02*X275120Y93166D01*
Y92842D02*Y93166D01*
Y92842D02*X275498Y92464D01*
X275930D01*
X276200Y92734D02*X275930Y92464D01*
X276200Y92734D02*Y93274D01*
X274742Y93544D02*X275120Y93166D01*
X274310Y93544D02*X274742D01*
X274310D02*X274040Y93274D01*
Y92734D02*Y93274D01*
Y92734D02*X274310Y92464D01*
X274742D01*
X275120Y92842D02*X274742Y92464D01*
X281700Y77420D02*Y78122D01*
X281322Y78500D02*X281700Y78122D01*
X279918Y78500D02*X281322D01*
X279918D02*X279540Y78122D01*
Y77420D02*Y78122D01*
X279810Y76772D02*X279540Y76502D01*
Y75962D02*Y76502D01*
Y75962D02*X279810Y75692D01*
X281700Y75962D02*X281430Y75692D01*
X281700Y75962D02*Y76502D01*
X281430Y76772D02*X281700Y76502D01*
X280512Y75962D02*Y76502D01*
X279810Y75692D02*X280242D01*
X280782D02*X281430D01*
X280782D02*X280512Y75962D01*
X280242Y75692D02*X280512Y75962D01*
X281700Y74774D02*X279540Y73694D01*
Y75044D01*
X281700Y99420D02*Y100122D01*
X281322Y100500D02*X281700Y100122D01*
X279918Y100500D02*X281322D01*
X279918D02*X279540Y100122D01*
Y99420D02*Y100122D01*
X279810Y98772D02*X279540Y98502D01*
Y97962D02*Y98502D01*
Y97962D02*X279810Y97692D01*
X281700Y97962D02*X281430Y97692D01*
X281700Y97962D02*Y98502D01*
X281430Y98772D02*X281700Y98502D01*
X280512Y97962D02*Y98502D01*
X279810Y97692D02*X280242D01*
X280782D02*X281430D01*
X280782D02*X280512Y97962D01*
X280242Y97692D02*X280512Y97962D01*
X279540Y95964D02*Y97044D01*
X280620D01*
X280350Y96774D01*
Y96234D02*Y96774D01*
Y96234D02*X280620Y95964D01*
X281430D01*
X281700Y96234D02*X281430Y95964D01*
X281700Y96234D02*Y96774D01*
X281430Y97044D02*X281700Y96774D01*
X239040Y78150D02*Y79500D01*
X241200D02*X239040Y78150D01*
X241200D02*Y79500D01*
X239040Y76422D02*Y77502D01*
X240120D01*
X239850Y77232D01*
Y76692D02*Y77232D01*
Y76692D02*X240120Y76422D01*
X240930D01*
X241200Y76692D02*X240930Y76422D01*
X241200Y76692D02*Y77232D01*
X240930Y77502D02*X241200Y77232D01*
X215500Y67500D02*Y70500D01*
Y67500D02*X216000Y67000D01*
X217000D01*
X217500Y67500D01*
Y70000D01*
X216500Y71000D02*X217500Y70000D01*
X216000Y71000D02*X216500D01*
X215500Y70500D02*X216000Y71000D01*
X216500Y69500D02*X217500Y71000D01*
X218700Y70500D02*X219200Y71000D01*
X218700Y69700D02*Y70500D01*
Y69700D02*X219400Y69000D01*
X220000D01*
X220700Y69700D01*
Y70500D01*
X220200Y71000D02*X220700Y70500D01*
X219200Y71000D02*X220200D01*
X218700Y68300D02*X219400Y69000D01*
X218700Y67500D02*Y68300D01*
Y67500D02*X219200Y67000D01*
X220200D01*
X220700Y67500D01*
Y68300D01*
X220000Y69000D02*X220700Y68300D01*
X378200Y108000D02*X379500D01*
X377500Y107300D02*X378200Y108000D01*
X377500Y104700D02*Y107300D01*
Y104700D02*X378200Y104000D01*
X379500D01*
X382200D02*X382700Y104500D01*
X381200Y104000D02*X382200D01*
X380700Y104500D02*X381200Y104000D01*
X380700Y104500D02*Y107500D01*
X381200Y108000D01*
X382200Y105800D02*X382700Y106300D01*
X380700Y105800D02*X382200D01*
X381200Y108000D02*X382200D01*
X382700Y107500D01*
Y106300D02*Y107500D01*
X383900Y104000D02*X385900D01*
X383900D02*Y106000D01*
X384400Y105500D01*
X385400D01*
X385900Y106000D01*
Y107500D01*
X385400Y108000D02*X385900Y107500D01*
X384400Y108000D02*X385400D01*
X383900Y107500D02*X384400Y108000D01*
X349540Y185420D02*Y186500D01*
Y185420D02*X349810Y185150D01*
X350350D01*
X350620Y185420D02*X350350Y185150D01*
X350620Y185420D02*Y186230D01*
X349540D02*X351700D01*
X350620Y185798D02*X351700Y185150D01*
X349972Y184502D02*X349540Y184070D01*
X351700D01*
Y183692D02*Y184502D01*
X349540Y181964D02*Y183044D01*
X350620D01*
X350350Y182774D01*
Y182234D02*Y182774D01*
Y182234D02*X350620Y181964D01*
X351430D01*
X351700Y182234D02*X351430Y181964D01*
X351700Y182234D02*Y182774D01*
X351430Y183044D02*X351700Y182774D01*
X352200Y97420D02*Y98122D01*
X351822Y98500D02*X352200Y98122D01*
X350418Y98500D02*X351822D01*
X350418D02*X350040Y98122D01*
Y97420D02*Y98122D01*
X350310Y96772D02*X350040Y96502D01*
Y95962D02*Y96502D01*
Y95962D02*X350310Y95692D01*
X352200Y95962D02*X351930Y95692D01*
X352200Y95962D02*Y96502D01*
X351930Y96772D02*X352200Y96502D01*
X351012Y95962D02*Y96502D01*
X350310Y95692D02*X350742D01*
X351282D02*X351930D01*
X351282D02*X351012Y95962D01*
X350742Y95692D02*X351012Y95962D01*
X352200Y94774D02*X351120Y93964D01*
X350310D02*X351120D01*
X350040Y94234D02*X350310Y93964D01*
X350040Y94234D02*Y94774D01*
X350310Y95044D02*X350040Y94774D01*
X350310Y95044D02*X350850D01*
X351120Y94774D01*
Y93964D02*Y94774D01*
X331500Y89040D02*X332580D01*
X332850Y89310D01*
Y89850D01*
X332580Y90120D02*X332850Y89850D01*
X331770Y90120D02*X332580D01*
X331770Y89040D02*Y91200D01*
X332202Y90120D02*X332850Y91200D01*
X333498Y90930D02*X333768Y91200D01*
X333498Y90498D02*Y90930D01*
Y90498D02*X333876Y90120D01*
X334200D01*
X334578Y90498D01*
Y90930D01*
X334308Y91200D02*X334578Y90930D01*
X333768Y91200D02*X334308D01*
X333498Y89742D02*X333876Y90120D01*
X333498Y89310D02*Y89742D01*
Y89310D02*X333768Y89040D01*
X334308D01*
X334578Y89310D01*
Y89742D01*
X334200Y90120D02*X334578Y89742D01*
X350040Y87230D02*X352200D01*
X350040Y86528D02*X350418Y86150D01*
X351822D01*
X352200Y86528D02*X351822Y86150D01*
X352200Y86528D02*Y87500D01*
X350040Y86528D02*Y87500D01*
X350472Y85502D02*X350040Y85070D01*
X352200D01*
Y84692D02*Y85502D01*
X351930Y84044D02*X352200Y83774D01*
X350310Y84044D02*X351930D01*
X350310D02*X350040Y83774D01*
Y83234D02*Y83774D01*
Y83234D02*X350310Y82964D01*
X351930D01*
X352200Y83234D02*X351930Y82964D01*
X352200Y83234D02*Y83774D01*
X351660Y84044D02*X350580Y82964D01*
X349540Y80420D02*Y81500D01*
Y80420D02*X349810Y80150D01*
X350350D01*
X350620Y80420D02*X350350Y80150D01*
X350620Y80420D02*Y81230D01*
X349540D02*X351700D01*
X350620Y80798D02*X351700Y80150D01*
X349810Y79502D02*X349540Y79232D01*
Y78422D02*Y79232D01*
Y78422D02*X349810Y78152D01*
X350350D01*
X351700Y79502D02*X350350Y78152D01*
X351700D02*Y79502D01*
X349540Y76424D02*Y77504D01*
X350620D01*
X350350Y77234D01*
Y76694D02*Y77234D01*
Y76694D02*X350620Y76424D01*
X351430D01*
X351700Y76694D02*X351430Y76424D01*
X351700Y76694D02*Y77234D01*
X351430Y77504D02*X351700Y77234D01*
X372200Y68500D02*X373500D01*
X371500Y67800D02*X372200Y68500D01*
X371500Y65200D02*Y67800D01*
Y65200D02*X372200Y64500D01*
X373500D01*
X376200D02*X376700Y65000D01*
X375200Y64500D02*X376200D01*
X374700Y65000D02*X375200Y64500D01*
X374700Y65000D02*Y68000D01*
X375200Y68500D01*
X376200Y66300D02*X376700Y66800D01*
X374700Y66300D02*X376200D01*
X375200Y68500D02*X376200D01*
X376700Y68000D01*
Y66800D02*Y68000D01*
X378400Y68500D02*X380400Y64500D01*
X377900D02*X380400D01*
X287500Y141500D02*Y144500D01*
Y141500D02*X288000Y141000D01*
X289000D01*
X289500Y141500D01*
Y144000D01*
X288500Y145000D02*X289500Y144000D01*
X288000Y145000D02*X288500D01*
X287500Y144500D02*X288000Y145000D01*
X288500Y143500D02*X289500Y145000D01*
X290700Y141500D02*X291200Y141000D01*
X292200D01*
X292700Y141500D01*
X292200Y145000D02*X292700Y144500D01*
X291200Y145000D02*X292200D01*
X290700Y144500D02*X291200Y145000D01*
Y142800D02*X292200D01*
X292700Y141500D02*Y142300D01*
Y143300D02*Y144500D01*
Y143300D02*X292200Y142800D01*
X292700Y142300D02*X292200Y142800D01*
X287500Y36000D02*Y39000D01*
Y36000D02*X288000Y35500D01*
X289000D01*
X289500Y36000D01*
Y38500D01*
X288500Y39500D02*X289500Y38500D01*
X288000Y39500D02*X288500D01*
X287500Y39000D02*X288000Y39500D01*
X288500Y38000D02*X289500Y39500D01*
X291200D02*X293200Y35500D01*
X290700D02*X293200D01*
X287500Y75010D02*Y76795D01*
X287755Y77050D01*
X288265D01*
X288520Y76795D01*
Y75010D02*Y76795D01*
X289132Y75010D02*X290152D01*
X289132D02*Y76030D01*
X289387Y75775D01*
X289897D01*
X290152Y76030D01*
Y76795D01*
X289897Y77050D02*X290152Y76795D01*
X289387Y77050D02*X289897D01*
X289132Y76795D02*X289387Y77050D01*
X325040Y185150D02*Y186500D01*
X327200D02*X325040Y185150D01*
X327200D02*Y186500D01*
X325310Y184502D02*X325040Y184232D01*
Y183692D02*Y184232D01*
Y183692D02*X325310Y183422D01*
X327200Y183692D02*X326930Y183422D01*
X327200Y183692D02*Y184232D01*
X326930Y184502D02*X327200Y184232D01*
X326012Y183692D02*Y184232D01*
X325310Y183422D02*X325742D01*
X326282D02*X326930D01*
X326282D02*X326012Y183692D01*
X325742Y183422D02*X326012Y183692D01*
X325040Y79650D02*Y81000D01*
X327200D02*X325040Y79650D01*
X327200D02*Y81000D01*
Y78732D02*X325040Y77652D01*
Y79002D01*
X304200Y98920D02*Y99622D01*
X303822Y100000D02*X304200Y99622D01*
X302418Y100000D02*X303822D01*
X302418D02*X302040Y99622D01*
Y98920D02*Y99622D01*
X302310Y98272D02*X302040Y98002D01*
Y97462D02*Y98002D01*
Y97462D02*X302310Y97192D01*
X304200Y97462D02*X303930Y97192D01*
X304200Y97462D02*Y98002D01*
X303930Y98272D02*X304200Y98002D01*
X303012Y97462D02*Y98002D01*
X302310Y97192D02*X302742D01*
X303282D02*X303930D01*
X303282D02*X303012Y97462D01*
X302742Y97192D02*X303012Y97462D01*
X302040Y95734D02*X302310Y95464D01*
X302040Y95734D02*Y96274D01*
X302310Y96544D02*X302040Y96274D01*
X302310Y96544D02*X303930D01*
X304200Y96274D01*
X303012Y95734D02*X303282Y95464D01*
X303012Y95734D02*Y96544D01*
X304200Y95734D02*Y96274D01*
Y95734D02*X303930Y95464D01*
X303282D02*X303930D01*
X322540Y92920D02*Y94000D01*
Y92920D02*X322810Y92650D01*
X323350D01*
X323620Y92920D02*X323350Y92650D01*
X323620Y92920D02*Y93730D01*
X322540D02*X324700D01*
X323620Y93298D02*X324700Y92650D01*
X322810Y92002D02*X322540Y91732D01*
Y90922D02*Y91732D01*
Y90922D02*X322810Y90652D01*
X323350D01*
X324700Y92002D02*X323350Y90652D01*
X324700D02*Y92002D01*
Y89734D02*X323620Y88924D01*
X322810D02*X323620D01*
X322540Y89194D02*X322810Y88924D01*
X322540Y89194D02*Y89734D01*
X322810Y90004D02*X322540Y89734D01*
X322810Y90004D02*X323350D01*
X323620Y89734D01*
Y88924D02*Y89734D01*
X310540Y93730D02*X312700D01*
X310540Y93028D02*X310918Y92650D01*
X312322D01*
X312700Y93028D02*X312322Y92650D01*
X312700Y93028D02*Y94000D01*
X310540Y93028D02*Y94000D01*
X310972Y92002D02*X310540Y91570D01*
X312700D01*
Y91192D02*Y92002D01*
X310810Y90544D02*X310540Y90274D01*
Y89464D02*Y90274D01*
Y89464D02*X310810Y89194D01*
X311350D01*
X312700Y90544D02*X311350Y89194D01*
X312700D02*Y90544D01*
M02*
