G04 start of page 10 for group -4079 idx -4079 *
G04 Title: fet12, topsilk *
G04 Creator: pcb 20140316 *
G04 CreationDate: Thu 12 Apr 2018 01:23:09 AM GMT UTC *
G04 For: brian *
G04 Format: Gerber/RS-274X *
G04 PCB-Dimensions (mil): 6000.00 5000.00 *
G04 PCB-Coordinate-Origin: lower left *
%MOIN*%
%FSLAX25Y25*%
%LNTOPSILK*%
%ADD192C,0.0200*%
%ADD191C,0.0080*%
%ADD190C,0.0120*%
%ADD189C,0.0060*%
%ADD188C,0.0100*%
%ADD187C,0.0001*%
G54D187*G36*
X203500Y228000D02*Y224500D01*
X201000D01*
Y228000D01*
X203500D01*
G37*
G36*
Y222500D02*Y219000D01*
X201000D01*
Y222500D01*
X203500D01*
G37*
G36*
Y217500D02*Y214000D01*
X201000D01*
Y217500D01*
X203500D01*
G37*
G54D188*X223500Y196000D02*X219500D01*
X219000Y195500D01*
X223500Y90500D02*X220000D01*
X219500Y90000D01*
X259000Y86500D02*X257500D01*
X257000Y87000D01*
X246500Y279000D02*Y280500D01*
X290500Y277500D02*X292500D01*
X282500Y264500D02*Y264000D01*
X282000Y263500D01*
X259000Y192000D02*X258000D01*
X257500Y192500D01*
X320000Y294500D02*X321500Y293000D01*
X325000D01*
X270000Y407000D02*X273000D01*
X259000Y402000D02*X258000D01*
X257500Y402500D01*
X331000Y400500D02*X333000Y402500D01*
Y404500D01*
X237500Y344500D02*X239000Y346000D01*
X236000D01*
X237500Y344500D01*
Y342000D01*
Y346000D02*Y347500D01*
X236000Y344000D02*X239000D01*
G54D189*X234540Y349480D02*X234800Y349220D01*
X233760Y349480D02*X234540D01*
X233500Y349220D02*X233760Y349480D01*
X233500Y349220D02*Y347660D01*
X233760Y347400D01*
X234540D01*
X234800Y347660D01*
Y348180D02*Y347660D01*
X234540Y348440D02*X234800Y348180D01*
X234020Y348440D02*X234540D01*
X358460Y236020D02*X358950Y235530D01*
X356990Y236020D02*X358460D01*
X356500Y235530D02*X356990Y236020D01*
X356500Y235530D02*Y234550D01*
X356990Y234060D01*
X358460D01*
X358950Y233570D01*
Y232590D01*
X358460Y232100D02*X358950Y232590D01*
X356990Y232100D02*X358460D01*
X356500Y232590D02*X356990Y232100D01*
X360616D02*X362086D01*
X360126Y232590D02*X360616Y232100D01*
X360126Y233570D02*Y232590D01*
Y233570D02*X360616Y234060D01*
X361596D01*
X362086Y233570D01*
X360126Y233080D02*X362086D01*
Y233570D02*Y233080D01*
X363752Y232100D02*X365222D01*
X363262Y232590D02*X363752Y232100D01*
X363262Y233570D02*Y232590D01*
Y233570D02*X363752Y234060D01*
X364732D01*
X365222Y233570D01*
X363262Y233080D02*X365222D01*
Y233570D02*Y233080D01*
X366888Y233570D02*Y232100D01*
Y233570D02*X367378Y234060D01*
X367868D01*
X368358Y233570D01*
Y232100D01*
Y233570D02*X368848Y234060D01*
X369338D01*
X369828Y233570D01*
Y232100D01*
X366398Y234060D02*X366888Y233570D01*
X371494Y232100D02*X372964D01*
X373454Y232590D01*
X372964Y233080D02*X373454Y232590D01*
X371494Y233080D02*X372964D01*
X371004Y233570D02*X371494Y233080D01*
X371004Y233570D02*X371494Y234060D01*
X372964D01*
X373454Y233570D01*
X371004Y232590D02*X371494Y232100D01*
X356500Y231020D02*X358460D01*
X358950Y230530D01*
Y229550D01*
X358460Y229060D02*X358950Y229550D01*
X356990Y229060D02*X358460D01*
X356990Y231020D02*Y227100D01*
X357774Y229060D02*X358950Y227100D01*
X360616D02*X362086D01*
X360126Y227590D02*X360616Y227100D01*
X360126Y228570D02*Y227590D01*
Y228570D02*X360616Y229060D01*
X361596D01*
X362086Y228570D01*
X360126Y228080D02*X362086D01*
Y228570D02*Y228080D01*
X364732Y229060D02*X365222Y228570D01*
X363752Y229060D02*X364732D01*
X363262Y228570D02*X363752Y229060D01*
X363262Y228570D02*Y227590D01*
X363752Y227100D01*
X365222Y229060D02*Y227590D01*
X365712Y227100D01*
X363752D02*X364732D01*
X365222Y227590D01*
X367378Y227100D02*X368848D01*
X369338Y227590D01*
X368848Y228080D02*X369338Y227590D01*
X367378Y228080D02*X368848D01*
X366888Y228570D02*X367378Y228080D01*
X366888Y228570D02*X367378Y229060D01*
X368848D01*
X369338Y228570D01*
X366888Y227590D02*X367378Y227100D01*
X370514Y228570D02*Y227590D01*
Y228570D02*X371004Y229060D01*
X371984D01*
X372474Y228570D01*
Y227590D01*
X371984Y227100D02*X372474Y227590D01*
X371004Y227100D02*X371984D01*
X370514Y227590D02*X371004Y227100D01*
X374140Y228570D02*Y227100D01*
Y228570D02*X374630Y229060D01*
X375120D01*
X375610Y228570D01*
Y227100D01*
X373650Y229060D02*X374140Y228570D01*
X378256Y229060D02*X378746Y228570D01*
X377276Y229060D02*X378256D01*
X376786Y228570D02*X377276Y229060D01*
X376786Y228570D02*Y227590D01*
X377276Y227100D01*
X378746Y229060D02*Y227590D01*
X379236Y227100D01*
X377276D02*X378256D01*
X378746Y227590D01*
X380412Y231020D02*Y227100D01*
Y227590D02*X380902Y227100D01*
X381882D01*
X382372Y227590D01*
Y228570D02*Y227590D01*
X381882Y229060D02*X382372Y228570D01*
X380902Y229060D02*X381882D01*
X380412Y228570D02*X380902Y229060D01*
X383548Y231020D02*Y227590D01*
X384038Y227100D01*
X385508D02*X386978D01*
X385018Y227590D02*X385508Y227100D01*
X385018Y228570D02*Y227590D01*
Y228570D02*X385508Y229060D01*
X386488D01*
X386978Y228570D01*
X385018Y228080D02*X386978D01*
Y228570D02*Y228080D01*
X357375Y220875D02*Y218250D01*
Y220875D02*X357750Y221250D01*
X358125D01*
X357000Y219750D02*X357750D01*
X359250Y218250D02*X360375D01*
X358875Y218625D02*X359250Y218250D01*
X358875Y219375D02*Y218625D01*
Y219375D02*X359250Y219750D01*
X360000D01*
X360375Y219375D01*
X358875Y219000D02*X360375D01*
Y219375D02*Y219000D01*
X361650Y221250D02*Y218625D01*
X362025Y218250D01*
X361275Y220125D02*X362025D01*
X362775Y220650D02*X363375Y221250D01*
Y218250D01*
X362775D02*X363900D01*
X364800Y220875D02*X365175Y221250D01*
X366300D01*
X366675Y220875D01*
Y220125D01*
X364800Y218250D02*X366675Y220125D01*
X364800Y218250D02*X366675D01*
X368925Y220875D02*X369300Y221250D01*
X370425D01*
X370800Y220875D01*
Y220125D01*
X368925Y218250D02*X370800Y220125D01*
X368925Y218250D02*X370800D01*
X371700Y218625D02*X372075Y218250D01*
X371700Y220875D02*Y218625D01*
Y220875D02*X372075Y221250D01*
X372825D01*
X373200Y220875D01*
Y218625D01*
X372825Y218250D02*X373200Y218625D01*
X372075Y218250D02*X372825D01*
X371700Y219000D02*X373200Y220500D01*
X374100Y220650D02*X374700Y221250D01*
Y218250D01*
X374100D02*X375225D01*
X376125Y218625D02*X376500Y218250D01*
X376125Y219225D02*Y218625D01*
Y219225D02*X376650Y219750D01*
X377100D01*
X377625Y219225D01*
Y218625D01*
X377250Y218250D02*X377625Y218625D01*
X376500Y218250D02*X377250D01*
X376125Y220275D02*X376650Y219750D01*
X376125Y220875D02*Y220275D01*
Y220875D02*X376500Y221250D01*
X377250D01*
X377625Y220875D01*
Y220275D01*
X377100Y219750D02*X377625Y220275D01*
X378525Y218625D02*X378900Y218250D01*
X378525Y220875D02*Y218625D01*
Y220875D02*X378900Y221250D01*
X379650D01*
X380025Y220875D01*
Y218625D01*
X379650Y218250D02*X380025Y218625D01*
X378900Y218250D02*X379650D01*
X378525Y219000D02*X380025Y220500D01*
X380925Y219375D02*X382425Y221250D01*
X380925Y219375D02*X382800D01*
X382425Y221250D02*Y218250D01*
X383700Y220650D02*X384300Y221250D01*
Y218250D01*
X383700D02*X384825D01*
X385725Y218625D02*X386100Y218250D01*
X385725Y220875D02*Y218625D01*
Y220875D02*X386100Y221250D01*
X386850D01*
X387225Y220875D01*
Y218625D01*
X386850Y218250D02*X387225Y218625D01*
X386100Y218250D02*X386850D01*
X385725Y219000D02*X387225Y220500D01*
X206470Y228020D02*X206960Y227530D01*
X205490Y228020D02*X206470D01*
X205000Y227530D02*X205490Y228020D01*
X205000Y227530D02*Y224590D01*
X205490Y224100D01*
X206470Y226256D02*X206960Y225766D01*
X205000Y226256D02*X206470D01*
X205490Y224100D02*X206470D01*
X206960Y224590D01*
Y225766D02*Y224590D01*
X208136D02*X208626Y224100D01*
X208136Y227530D02*Y224590D01*
Y227530D02*X208626Y228020D01*
X209606D01*
X210096Y227530D01*
Y224590D01*
X209606Y224100D02*X210096Y224590D01*
X208626Y224100D02*X209606D01*
X208136Y225080D02*X210096Y227040D01*
X211272Y228020D02*X212252Y224100D01*
X213232Y228020D01*
X205000Y219090D02*X205490Y218600D01*
X205000Y219874D02*Y219090D01*
Y219874D02*X205686Y220560D01*
X206274D01*
X206960Y219874D01*
Y219090D01*
X206470Y218600D02*X206960Y219090D01*
X205490Y218600D02*X206470D01*
X205000Y221246D02*X205686Y220560D01*
X205000Y222030D02*Y221246D01*
Y222030D02*X205490Y222520D01*
X206470D01*
X206960Y222030D01*
Y221246D01*
X206274Y220560D02*X206960Y221246D01*
X208136Y219090D02*X208626Y218600D01*
X208136Y222030D02*Y219090D01*
Y222030D02*X208626Y222520D01*
X209606D01*
X210096Y222030D01*
Y219090D01*
X209606Y218600D02*X210096Y219090D01*
X208626Y218600D02*X209606D01*
X208136Y219580D02*X210096Y221540D01*
X211272Y222520D02*X212252Y218600D01*
X213232Y222520D01*
X205000Y216736D02*X205784Y217520D01*
Y213600D01*
X205000D02*X206470D01*
X207646Y214090D02*X208136Y213600D01*
X207646Y217030D02*Y214090D01*
Y217030D02*X208136Y217520D01*
X209116D01*
X209606Y217030D01*
Y214090D01*
X209116Y213600D02*X209606Y214090D01*
X208136Y213600D02*X209116D01*
X207646Y214580D02*X209606Y216540D01*
X210782Y214090D02*X211272Y213600D01*
X210782Y217030D02*Y214090D01*
Y217030D02*X211272Y217520D01*
X212252D01*
X212742Y217030D01*
Y214090D01*
X212252Y213600D02*X212742Y214090D01*
X211272Y213600D02*X212252D01*
X210782Y214580D02*X212742Y216540D01*
X213918Y217520D02*X214898Y213600D01*
X215878Y217520D01*
G54D190*X267634Y406150D02*Y405441D01*
Y410559D02*Y409850D01*
G54D191*X259169Y405244D02*X267831D01*
X259169Y410756D02*X267831D01*
X181750Y401500D02*G75*G03X181750Y401500I19250J0D01*G01*
G54D192*X350315Y374028D02*X362126D01*
X377874D02*X389685D01*
G54D191*X349331Y365169D02*Y323831D01*
X390669Y365169D02*Y323831D01*
X380827Y313988D01*
X349331Y323831D02*X359173Y313988D01*
X350250Y401500D02*G75*G03X350250Y401500I19250J0D01*G01*
G54D192*X355146Y433594D02*Y425524D01*
Y453476D02*Y445406D01*
G54D191*X357902Y424539D02*X382114D01*
X357902Y454461D02*X382114D01*
X386839Y449736D01*
X382114Y424539D02*X386839Y429264D01*
G54D190*X338634Y406150D02*Y405441D01*
Y410559D02*Y409850D01*
G54D191*X330169Y405244D02*X338831D01*
X330169Y410756D02*X338831D01*
X309429Y393929D02*X325571D01*
X309429Y410071D02*X325571D01*
X309232Y393929D02*G75*G03X310807Y393929I787J0D01*G01*
G54D192*X238646Y321594D02*Y313524D01*
Y341476D02*Y333406D01*
G54D191*X241402Y312539D02*X265614D01*
X241402Y342461D02*X265614D01*
X270339Y337736D01*
X265614Y312539D02*X270339Y317264D01*
X316800Y344200D02*Y302800D01*
X276200Y344200D02*Y302800D01*
X306500D02*X316800D01*
X276200D02*X286500D01*
X276200Y344200D02*X286500D01*
X306500D02*X316800D01*
G54D188*X318674Y302934D02*X337326D01*
Y335066D02*Y302934D01*
X318674Y335066D02*X337326D01*
X318674Y316500D02*Y302934D01*
Y335066D02*Y321500D01*
Y316500D02*G75*G03X318674Y321500I0J2500D01*G01*
G54D192*X208374Y317472D02*X220185D01*
X180815D02*X192626D01*
G54D191*X221169Y367669D02*Y326331D01*
X179831Y367669D02*Y326331D01*
Y367669D02*X189673Y377512D01*
X221169Y367669D02*X211327Y377512D01*
X217685Y246228D02*Y240126D01*
Y305874D02*Y299772D01*
X210598Y245638D02*X216898D01*
X210598Y300362D02*X216898D01*
X210598Y245638D02*Y240126D01*
Y305874D02*Y300362D01*
X174772Y300559D02*Y245441D01*
X194063D01*
X174772Y300559D02*X194063D01*
X319607Y295245D02*X320393D01*
X319607Y300755D02*X320393D01*
X301638Y299740D02*X306362D01*
X301638Y292260D02*X306362D01*
X308032Y280186D02*X311968D01*
X308032Y290814D02*X311968D01*
X248260Y260862D02*Y256138D01*
X255740Y260862D02*Y256138D01*
X255642Y289130D02*X273358D01*
X255642Y267870D02*X273358D01*
X274342Y267859D02*G75*G03X276705Y267859I1182J208D01*G01*
X242814Y272968D02*Y269032D01*
X232186Y272968D02*Y269032D01*
X278900Y266300D02*Y244700D01*
X258100D02*X278900D01*
X258100Y266300D02*Y244700D01*
Y266300D02*X278900D01*
G54D192*X286646Y253594D02*Y245524D01*
Y273476D02*Y265406D01*
G54D191*X289402Y244539D02*X313614D01*
X289402Y274461D02*X313614D01*
X318339Y269736D01*
X313614Y244539D02*X318339Y249264D01*
G54D188*X335000Y259400D02*X345000D01*
G54D192*X377874Y245472D02*X389685D01*
X350315D02*X362126D01*
G54D191*X390669Y295669D02*Y254331D01*
X349331Y295669D02*Y254331D01*
Y295669D02*X359173Y305512D01*
X390669Y295669D02*X380827Y305512D01*
G54D192*X208374Y109972D02*X220185D01*
X180815D02*X192626D01*
G54D191*X221169Y160169D02*Y118831D01*
X179831Y160169D02*Y118831D01*
Y160169D02*X189673Y170012D01*
X221169Y160169D02*X211327Y170012D01*
X181750Y192000D02*G75*G03X181750Y192000I19250J0D01*G01*
G54D190*X338634Y196650D02*Y195941D01*
Y201059D02*Y200350D01*
G54D191*X330169Y195744D02*X338831D01*
X330169Y201256D02*X338831D01*
X309429Y184429D02*X325571D01*
X309429Y200571D02*X325571D01*
X309232Y184429D02*G75*G03X310807Y184429I787J0D01*G01*
G54D190*X267634Y196650D02*Y195941D01*
Y201059D02*Y200350D01*
G54D191*X259169Y195744D02*X267831D01*
X259169Y201256D02*X267831D01*
G54D192*X377874Y109972D02*X389685D01*
X350315D02*X362126D01*
G54D191*X390669Y160169D02*Y118831D01*
X349331Y160169D02*Y118831D01*
Y160169D02*X359173Y170012D01*
X390669Y160169D02*X380827Y170012D01*
X350250Y192000D02*G75*G03X350250Y192000I19250J0D01*G01*
Y86500D02*G75*G03X350250Y86500I19250J0D01*G01*
G54D192*X355146Y42094D02*Y34024D01*
Y61976D02*Y53906D01*
G54D191*X357902Y33039D02*X382114D01*
X357902Y62961D02*X382114D01*
X386839Y58236D01*
X382114Y33039D02*X386839Y37764D01*
X181750Y86500D02*G75*G03X181750Y86500I19250J0D01*G01*
G54D192*X184646Y42094D02*Y34024D01*
Y61976D02*Y53906D01*
G54D191*X187402Y33039D02*X211614D01*
X187402Y62961D02*X211614D01*
X216339Y58236D01*
X211614Y33039D02*X216339Y37764D01*
G54D190*X338634Y91150D02*Y90441D01*
Y95559D02*Y94850D01*
G54D191*X330169Y90244D02*X338831D01*
X330169Y95756D02*X338831D01*
X309429Y78929D02*X325571D01*
X309429Y95071D02*X325571D01*
X309232Y78929D02*G75*G03X310807Y78929I787J0D01*G01*
G54D190*X267634Y91150D02*Y90441D01*
Y95559D02*Y94850D01*
G54D191*X259169Y90244D02*X267831D01*
X259169Y95756D02*X267831D01*
G54D189*X184200Y104500D02*X185500D01*
X183500Y105200D02*X184200Y104500D01*
X183500Y107800D02*Y105200D01*
Y107800D02*X184200Y108500D01*
X185500D01*
X186700Y107700D02*X187500Y108500D01*
Y104500D01*
X186700D02*X188200D01*
X189400Y105000D02*X189900Y104500D01*
X189400Y105800D02*Y105000D01*
Y105800D02*X190100Y106500D01*
X190700D01*
X191400Y105800D01*
Y105000D01*
X190900Y104500D02*X191400Y105000D01*
X189900Y104500D02*X190900D01*
X189400Y107200D02*X190100Y106500D01*
X189400Y108000D02*Y107200D01*
Y108000D02*X189900Y108500D01*
X190900D01*
X191400Y108000D01*
Y107200D01*
X190700Y106500D02*X191400Y107200D01*
X216000Y116000D02*Y113000D01*
Y116000D02*X216500Y116500D01*
X217500D01*
X218000Y116000D01*
Y113500D01*
X217000Y112500D02*X218000Y113500D01*
X216500Y112500D02*X217000D01*
X216000Y113000D02*X216500Y112500D01*
X217000Y114000D02*X218000Y112500D01*
X220700Y116500D02*X221200Y116000D01*
X219700Y116500D02*X220700D01*
X219200Y116000D02*X219700Y116500D01*
X219200Y116000D02*Y113000D01*
X219700Y112500D01*
X220700Y114700D02*X221200Y114200D01*
X219200Y114700D02*X220700D01*
X219700Y112500D02*X220700D01*
X221200Y113000D01*
Y114200D02*Y113000D01*
X186200Y64000D02*X187500D01*
X185500Y64700D02*X186200Y64000D01*
X185500Y67300D02*Y64700D01*
Y67300D02*X186200Y68000D01*
X187500D01*
X190200D02*X190700Y67500D01*
X189200Y68000D02*X190200D01*
X188700Y67500D02*X189200Y68000D01*
X188700Y67500D02*Y64500D01*
X189200Y64000D01*
X190200Y66200D02*X190700Y65700D01*
X188700Y66200D02*X190200D01*
X189200Y64000D02*X190200D01*
X190700Y64500D01*
Y65700D02*Y64500D01*
X191900Y65500D02*X193900Y68000D01*
X191900Y65500D02*X194400D01*
X193900Y68000D02*Y64000D01*
X185200Y240000D02*X186500D01*
X184500Y240700D02*X185200Y240000D01*
X184500Y243300D02*Y240700D01*
Y243300D02*X185200Y244000D01*
X186500D01*
X187700Y243500D02*Y240500D01*
Y243500D02*X188200Y244000D01*
X189200D01*
X189700Y243500D01*
Y240500D01*
X189200Y240000D02*X189700Y240500D01*
X188200Y240000D02*X189200D01*
X187700Y240500D02*X188200Y240000D01*
X190900Y244000D02*Y240000D01*
Y244000D02*X193400Y240000D01*
Y244000D02*Y240000D01*
X194600Y244000D02*Y240000D01*
Y244000D02*X197100Y240000D01*
Y244000D02*Y240000D01*
X198300Y243200D02*X199100Y244000D01*
Y240000D01*
X198300D02*X199800D01*
X201000Y243200D02*X201800Y244000D01*
Y240000D01*
X201000D02*X202500D01*
X214000Y196460D02*X215080D01*
X215350Y196190D01*
Y195650D01*
X215080Y195380D02*X215350Y195650D01*
X214270Y195380D02*X215080D01*
X214270Y196460D02*Y194300D01*
X214702Y195380D02*X215350Y194300D01*
X215998Y196028D02*X216430Y196460D01*
Y194300D01*
X215998D02*X216808D01*
X217456Y196028D02*X217888Y196460D01*
Y194300D01*
X217456D02*X218266D01*
X219040Y179080D02*Y178000D01*
Y179080D02*X219310Y179350D01*
X219850D01*
X220120Y179080D02*X219850Y179350D01*
X220120Y179080D02*Y178270D01*
X219040D02*X221200D01*
X220120Y178702D02*X221200Y179350D01*
X219472Y179998D02*X219040Y180430D01*
X221200D01*
Y180808D02*Y179998D01*
X220930Y181456D02*X221200Y181726D01*
X219310Y181456D02*X220930D01*
X219310D02*X219040Y181726D01*
Y182266D02*Y181726D01*
Y182266D02*X219310Y182536D01*
X220930D01*
X221200Y182266D02*X220930Y182536D01*
X221200Y182266D02*Y181726D01*
X220660Y181456D02*X219580Y182536D01*
X215500Y227000D02*Y224000D01*
Y227000D02*X216000Y227500D01*
X217000D01*
X217500Y227000D01*
Y224500D01*
X216500Y223500D02*X217500Y224500D01*
X216000Y223500D02*X216500D01*
X215500Y224000D02*X216000Y223500D01*
X216500Y225000D02*X217500Y223500D01*
X218700Y225000D02*X220700Y227500D01*
X218700Y225000D02*X221200D01*
X220700Y227500D02*Y223500D01*
X272540Y388580D02*Y387500D01*
Y388580D02*X272810Y388850D01*
X273350D01*
X273620Y388580D02*X273350Y388850D01*
X273620Y388580D02*Y387770D01*
X272540D02*X274700D01*
X273620Y388202D02*X274700Y388850D01*
X273890Y389498D02*X272540Y390578D01*
X273890Y390848D02*Y389498D01*
X272540Y390578D02*X274700D01*
X273890Y391496D02*X272540Y392576D01*
X273890Y392846D02*Y391496D01*
X272540Y392576D02*X274700D01*
X288500Y446500D02*Y443500D01*
Y446500D02*X289000Y447000D01*
X290000D01*
X290500Y446500D01*
Y444000D01*
X289500Y443000D02*X290500Y444000D01*
X289000Y443000D02*X289500D01*
X288500Y443500D02*X289000Y443000D01*
X289500Y444500D02*X290500Y443000D01*
X292200D02*X293700Y445000D01*
Y446500D02*Y445000D01*
X293200Y447000D02*X293700Y446500D01*
X292200Y447000D02*X293200D01*
X291700Y446500D02*X292200Y447000D01*
X291700Y446500D02*Y445500D01*
X292200Y445000D01*
X293700D01*
X275540Y401080D02*Y400000D01*
Y401080D02*X275810Y401350D01*
X276350D01*
X276620Y401080D02*X276350Y401350D01*
X276620Y401080D02*Y400270D01*
X275540D02*X277700D01*
X276620Y400702D02*X277700Y401350D01*
X275810Y401998D02*X275540Y402268D01*
Y402808D02*Y402268D01*
Y402808D02*X275810Y403078D01*
X277700Y402808D02*X277430Y403078D01*
X277700Y402808D02*Y402268D01*
X277430Y401998D02*X277700Y402268D01*
X276512Y402808D02*Y402268D01*
X275810Y403078D02*X276242D01*
X276782D02*X277430D01*
X276782D02*X276512Y402808D01*
X276242Y403078D02*X276512Y402808D01*
X275810Y403726D02*X275540Y403996D01*
Y404806D02*Y403996D01*
Y404806D02*X275810Y405076D01*
X276350D01*
X277700Y403726D02*X276350Y405076D01*
X277700D02*Y403726D01*
X275040Y394270D02*X277200D01*
X275040Y394972D02*X275418Y395350D01*
X276822D01*
X277200Y394972D02*X276822Y395350D01*
X277200Y394972D02*Y394000D01*
X275040Y394972D02*Y394000D01*
X275472Y395998D02*X275040Y396430D01*
X277200D01*
Y396808D02*Y395998D01*
X276390Y397456D02*X275040Y398536D01*
X276390Y398806D02*Y397456D01*
X275040Y398536D02*X277200D01*
X296878Y397300D02*X297580D01*
X296500Y397678D02*X296878Y397300D01*
X296500Y399082D02*Y397678D01*
Y399082D02*X296878Y399460D01*
X297580D01*
X298228D02*X299308D01*
X298228D02*Y398380D01*
X298498Y398650D01*
X299038D01*
X299308Y398380D01*
Y397570D01*
X299038Y397300D02*X299308Y397570D01*
X298498Y397300D02*X299038D01*
X298228Y397570D02*X298498Y397300D01*
X300226D02*X301306Y399460D01*
X299956D02*X301306D01*
X304000Y398960D02*Y397070D01*
X304270Y396800D01*
X304810D01*
X305080Y397070D01*
Y398960D02*Y397070D01*
X305728D02*X305998Y396800D01*
X305728Y397502D02*Y397070D01*
Y397502D02*X306106Y397880D01*
X306430D01*
X306808Y397502D01*
Y397070D01*
X306538Y396800D02*X306808Y397070D01*
X305998Y396800D02*X306538D01*
X305728Y398258D02*X306106Y397880D01*
X305728Y398690D02*Y398258D01*
Y398690D02*X305998Y398960D01*
X306538D01*
X306808Y398690D01*
Y398258D01*
X306430Y397880D02*X306808Y398258D01*
X273530Y407825D02*Y406500D01*
X275650D02*X273530Y407825D01*
X275650D02*Y406500D01*
X273954Y408461D02*X273530Y408885D01*
X275650D01*
Y409256D02*Y408461D01*
X275385Y409892D02*X275650Y410157D01*
X273795Y409892D02*X275385D01*
X273795D02*X273530Y410157D01*
Y410687D02*Y410157D01*
Y410687D02*X273795Y410952D01*
X275385D01*
X275650Y410687D02*X275385Y410952D01*
X275650Y410687D02*Y410157D01*
X275120Y409892D02*X274060Y410952D01*
X247700Y343500D02*X249000D01*
X247000Y344200D02*X247700Y343500D01*
X247000Y346800D02*Y344200D01*
Y346800D02*X247700Y347500D01*
X249000D01*
X250200Y346700D02*X251000Y347500D01*
Y343500D01*
X250200D02*X251700D01*
X252900Y344000D02*X253400Y343500D01*
X252900Y347000D02*Y344000D01*
Y347000D02*X253400Y347500D01*
X254400D01*
X254900Y347000D01*
Y344000D01*
X254400Y343500D02*X254900Y344000D01*
X253400Y343500D02*X254400D01*
X252900Y344500D02*X254900Y346500D01*
X232270Y346460D02*Y344300D01*
X232972Y346460D02*X233350Y346082D01*
Y344678D01*
X232972Y344300D02*X233350Y344678D01*
X232000Y344300D02*X232972D01*
X232000Y346460D02*X232972D01*
X234808D02*X235078Y346190D01*
X234268Y346460D02*X234808D01*
X233998Y346190D02*X234268Y346460D01*
X233998Y346190D02*Y344570D01*
X234268Y344300D01*
X234808Y345488D02*X235078Y345218D01*
X233998Y345488D02*X234808D01*
X234268Y344300D02*X234808D01*
X235078Y344570D01*
Y345218D02*Y344570D01*
X224500Y346460D02*X225580D01*
X225850Y346190D01*
Y345650D01*
X225580Y345380D02*X225850Y345650D01*
X224770Y345380D02*X225580D01*
X224770Y346460D02*Y344300D01*
X225202Y345380D02*X225850Y344300D01*
X226498Y346190D02*X226768Y346460D01*
X227578D01*
X227848Y346190D01*
Y345650D01*
X226498Y344300D02*X227848Y345650D01*
X226498Y344300D02*X227848D01*
X228496Y344570D02*X228766Y344300D01*
X228496Y346190D02*Y344570D01*
Y346190D02*X228766Y346460D01*
X229306D01*
X229576Y346190D01*
Y344570D01*
X229306Y344300D02*X229576Y344570D01*
X228766Y344300D02*X229306D01*
X228496Y344840D02*X229576Y345920D01*
X254000Y404960D02*X255080D01*
X255350Y404690D01*
Y404150D01*
X255080Y403880D02*X255350Y404150D01*
X254270Y403880D02*X255080D01*
X254270Y404960D02*Y402800D01*
X254702Y403880D02*X255350Y402800D01*
X255998Y404690D02*X256268Y404960D01*
X256808D01*
X257078Y404690D01*
X256808Y402800D02*X257078Y403070D01*
X256268Y402800D02*X256808D01*
X255998Y403070D02*X256268Y402800D01*
Y403988D02*X256808D01*
X257078Y404690D02*Y404258D01*
Y403718D02*Y403070D01*
Y403718D02*X256808Y403988D01*
X257078Y404258D02*X256808Y403988D01*
X257996Y402800D02*X259076Y404960D01*
X257726D02*X259076D01*
X253000Y390460D02*X254080D01*
X254350Y390190D01*
Y389650D01*
X254080Y389380D02*X254350Y389650D01*
X253270Y389380D02*X254080D01*
X253270Y390460D02*Y388300D01*
X253702Y389380D02*X254350Y388300D01*
X254998Y389110D02*X256078Y390460D01*
X254998Y389110D02*X256348D01*
X256078Y390460D02*Y388300D01*
X256996Y390190D02*X257266Y390460D01*
X257806D01*
X258076Y390190D01*
X257806Y388300D02*X258076Y388570D01*
X257266Y388300D02*X257806D01*
X256996Y388570D02*X257266Y388300D01*
Y389488D02*X257806D01*
X258076Y390190D02*Y389758D01*
Y389218D02*Y388570D01*
Y389218D02*X257806Y389488D01*
X258076Y389758D02*X257806Y389488D01*
X234878Y407300D02*X235580D01*
X234500Y407678D02*X234878Y407300D01*
X234500Y409082D02*Y407678D01*
Y409082D02*X234878Y409460D01*
X235580D01*
X237038D02*X237308Y409190D01*
X236498Y409460D02*X237038D01*
X236228Y409190D02*X236498Y409460D01*
X236228Y409190D02*Y407570D01*
X236498Y407300D01*
X237038Y408488D02*X237308Y408218D01*
X236228Y408488D02*X237038D01*
X236498Y407300D02*X237038D01*
X237308Y407570D01*
Y408218D02*Y407570D01*
X237956D02*X238226Y407300D01*
X237956Y409190D02*Y407570D01*
Y409190D02*X238226Y409460D01*
X238766D01*
X239036Y409190D01*
Y407570D01*
X238766Y407300D02*X239036Y407570D01*
X238226Y407300D02*X238766D01*
X237956Y407840D02*X239036Y408920D01*
X223500Y399970D02*X224560D01*
X224825Y399705D01*
Y399175D01*
X224560Y398910D02*X224825Y399175D01*
X223765Y398910D02*X224560D01*
X223765Y399970D02*Y397850D01*
X224189Y398910D02*X224825Y397850D01*
X225461Y398645D02*X226521Y399970D01*
X225461Y398645D02*X226786D01*
X226521Y399970D02*Y397850D01*
X227422Y399546D02*X227846Y399970D01*
Y397850D01*
X227422D02*X228217D01*
X220040Y389580D02*Y388500D01*
Y389580D02*X220310Y389850D01*
X220850D01*
X221120Y389580D02*X220850Y389850D01*
X221120Y389580D02*Y388770D01*
X220040D02*X222200D01*
X221120Y389202D02*X222200Y389850D01*
X221390Y390498D02*X220040Y391578D01*
X221390Y391848D02*Y390498D01*
X220040Y391578D02*X222200D01*
X221930Y392496D02*X222200Y392766D01*
X220310Y392496D02*X221930D01*
X220310D02*X220040Y392766D01*
Y393306D02*Y392766D01*
Y393306D02*X220310Y393576D01*
X221930D01*
X222200Y393306D02*X221930Y393576D01*
X222200Y393306D02*Y392766D01*
X221660Y392496D02*X220580Y393576D01*
X213000Y450500D02*Y447500D01*
Y450500D02*X213500Y451000D01*
X214500D01*
X215000Y450500D01*
Y448000D01*
X214000Y447000D02*X215000Y448000D01*
X213500Y447000D02*X214000D01*
X213000Y447500D02*X213500Y447000D01*
X214000Y448500D02*X215000Y447000D01*
X216200Y450200D02*X217000Y451000D01*
Y447000D01*
X216200D02*X217700D01*
X218900Y447500D02*X219400Y447000D01*
X218900Y450500D02*Y447500D01*
Y450500D02*X219400Y451000D01*
X220400D01*
X220900Y450500D01*
Y447500D01*
X220400Y447000D02*X220900Y447500D01*
X219400Y447000D02*X220400D01*
X218900Y448000D02*X220900Y450000D01*
X243700Y403080D02*Y402378D01*
X243322Y402000D02*X243700Y402378D01*
X241918Y402000D02*X243322D01*
X241918D02*X241540Y402378D01*
Y403080D02*Y402378D01*
X242890Y403728D02*X241540Y404808D01*
X242890Y405078D02*Y403728D01*
X241540Y404808D02*X243700D01*
X243430Y405726D02*X243700Y405996D01*
X242998Y405726D02*X243430D01*
X242998D02*X242620Y406104D01*
Y406428D02*Y406104D01*
Y406428D02*X242998Y406806D01*
X243430D01*
X243700Y406536D02*X243430Y406806D01*
X243700Y406536D02*Y405996D01*
X242242Y405726D02*X242620Y406104D01*
X241810Y405726D02*X242242D01*
X241810D02*X241540Y405996D01*
Y406536D02*Y405996D01*
Y406536D02*X241810Y406806D01*
X242242D01*
X242620Y406428D02*X242242Y406806D01*
X239539Y388150D02*X240540D01*
X239000Y388689D02*X239539Y388150D01*
X239000Y390691D02*Y388689D01*
Y390691D02*X239539Y391230D01*
X240540D01*
X241464D02*X243004D01*
X241464D02*Y389690D01*
X241849Y390075D01*
X242619D01*
X243004Y389690D01*
Y388535D01*
X242619Y388150D02*X243004Y388535D01*
X241849Y388150D02*X242619D01*
X241464Y388535D02*X241849Y388150D01*
X244313D02*X245468Y389690D01*
Y390845D02*Y389690D01*
X245083Y391230D02*X245468Y390845D01*
X244313Y391230D02*X245083D01*
X243928Y390845D02*X244313Y391230D01*
X243928Y390845D02*Y390075D01*
X244313Y389690D01*
X245468D01*
X243700Y397580D02*Y396878D01*
X243322Y396500D02*X243700Y396878D01*
X241918Y396500D02*X243322D01*
X241918D02*X241540Y396878D01*
Y397580D02*Y396878D01*
Y399038D02*X241810Y399308D01*
X241540Y399038D02*Y398498D01*
X241810Y398228D02*X241540Y398498D01*
X241810Y398228D02*X243430D01*
X243700Y398498D01*
X242512Y399038D02*X242782Y399308D01*
X242512Y399038D02*Y398228D01*
X243700Y399038D02*Y398498D01*
Y399038D02*X243430Y399308D01*
X242782D02*X243430D01*
X241972Y399956D02*X241540Y400388D01*
X243700D01*
Y400766D02*Y399956D01*
X336378Y341800D02*X337080D01*
X336000Y342178D02*X336378Y341800D01*
X336000Y343582D02*Y342178D01*
Y343582D02*X336378Y343960D01*
X337080D01*
X337728Y343690D02*X337998Y343960D01*
X338808D01*
X339078Y343690D01*
Y343150D01*
X337728Y341800D02*X339078Y343150D01*
X337728Y341800D02*X339078D01*
X339726Y342070D02*X339996Y341800D01*
X339726Y343690D02*Y342070D01*
Y343690D02*X339996Y343960D01*
X340536D01*
X340806Y343690D01*
Y342070D01*
X340536Y341800D02*X340806Y342070D01*
X339996Y341800D02*X340536D01*
X339726Y342340D02*X340806Y343420D01*
X341454Y342610D02*X342534Y343960D01*
X341454Y342610D02*X342804D01*
X342534Y343960D02*Y341800D01*
X320200Y338080D02*Y337378D01*
X319822Y337000D02*X320200Y337378D01*
X318418Y337000D02*X319822D01*
X318418D02*X318040Y337378D01*
Y338080D02*Y337378D01*
X318310Y338728D02*X318040Y338998D01*
Y339808D02*Y338998D01*
Y339808D02*X318310Y340078D01*
X318850D01*
X320200Y338728D02*X318850Y340078D01*
X320200D02*Y338728D01*
X319930Y340726D02*X320200Y340996D01*
X318310Y340726D02*X319930D01*
X318310D02*X318040Y340996D01*
Y341536D02*Y340996D01*
Y341536D02*X318310Y341806D01*
X319930D01*
X320200Y341536D02*X319930Y341806D01*
X320200Y341536D02*Y340996D01*
X319660Y340726D02*X318580Y341806D01*
X318310Y342454D02*X318040Y342724D01*
Y343264D02*Y342724D01*
Y343264D02*X318310Y343534D01*
X320200Y343264D02*X319930Y343534D01*
X320200Y343264D02*Y342724D01*
X319930Y342454D02*X320200Y342724D01*
X319012Y343264D02*Y342724D01*
X318310Y343534D02*X318742D01*
X319282D02*X319930D01*
X319282D02*X319012Y343264D01*
X318742Y343534D02*X319012Y343264D01*
X330700Y388080D02*Y387378D01*
X330322Y387000D02*X330700Y387378D01*
X328918Y387000D02*X330322D01*
X328918D02*X328540Y387378D01*
Y388080D02*Y387378D01*
Y389808D02*Y388728D01*
X329620D01*
X329350Y388998D01*
Y389538D02*Y388998D01*
Y389538D02*X329620Y389808D01*
X330430D01*
X330700Y389538D02*X330430Y389808D01*
X330700Y389538D02*Y388998D01*
X330430Y388728D02*X330700Y388998D01*
X328540Y391536D02*Y390456D01*
X329620D01*
X329350Y390726D01*
Y391266D02*Y390726D01*
Y391266D02*X329620Y391536D01*
X330430D01*
X330700Y391266D02*X330430Y391536D01*
X330700Y391266D02*Y390726D01*
X330430Y390456D02*X330700Y390726D01*
X308200Y388580D02*Y387878D01*
X307822Y387500D02*X308200Y387878D01*
X306418Y387500D02*X307822D01*
X306418D02*X306040Y387878D01*
Y388580D02*Y387878D01*
Y390308D02*Y389228D01*
X307120D01*
X306850Y389498D01*
Y390038D02*Y389498D01*
Y390038D02*X307120Y390308D01*
X307930D01*
X308200Y390038D02*X307930Y390308D01*
X308200Y390038D02*Y389498D01*
X307930Y389228D02*X308200Y389498D01*
X307390Y390956D02*X306040Y392036D01*
X307390Y392306D02*Y390956D01*
X306040Y392036D02*X308200D01*
X345270Y396460D02*Y394300D01*
X345972Y396460D02*X346350Y396082D01*
Y394678D01*
X345972Y394300D02*X346350Y394678D01*
X345000Y394300D02*X345972D01*
X345000Y396460D02*X345972D01*
X346998Y396028D02*X347430Y396460D01*
Y394300D01*
X346998D02*X347808D01*
X349266Y396460D02*X349536Y396190D01*
X348726Y396460D02*X349266D01*
X348456Y396190D02*X348726Y396460D01*
X348456Y396190D02*Y394570D01*
X348726Y394300D01*
X349266Y395488D02*X349536Y395218D01*
X348456Y395488D02*X349266D01*
X348726Y394300D02*X349266D01*
X349536Y394570D01*
Y395218D02*Y394570D01*
X333500Y393960D02*X334580D01*
X334850Y393690D01*
Y393150D01*
X334580Y392880D02*X334850Y393150D01*
X333770Y392880D02*X334580D01*
X333770Y393960D02*Y391800D01*
X334202Y392880D02*X334850Y391800D01*
X335498Y393690D02*X335768Y393960D01*
X336308D01*
X336578Y393690D01*
X336308Y391800D02*X336578Y392070D01*
X335768Y391800D02*X336308D01*
X335498Y392070D02*X335768Y391800D01*
Y392988D02*X336308D01*
X336578Y393690D02*Y393258D01*
Y392718D02*Y392070D01*
Y392718D02*X336308Y392988D01*
X336578Y393258D02*X336308Y392988D01*
X337226Y393690D02*X337496Y393960D01*
X338036D01*
X338306Y393690D01*
X338036Y391800D02*X338306Y392070D01*
X337496Y391800D02*X338036D01*
X337226Y392070D02*X337496Y391800D01*
Y392988D02*X338036D01*
X338306Y393690D02*Y393258D01*
Y392718D02*Y392070D01*
Y392718D02*X338036Y392988D01*
X338306Y393258D02*X338036Y392988D01*
X328040Y397350D02*Y396000D01*
X330200D02*X328040Y397350D01*
X330200D02*Y396000D01*
X328472Y397998D02*X328040Y398430D01*
X330200D01*
Y398808D02*Y397998D01*
X328310Y399456D02*X328040Y399726D01*
Y400536D02*Y399726D01*
Y400536D02*X328310Y400806D01*
X328850D01*
X330200Y399456D02*X328850Y400806D01*
X330200D02*Y399456D01*
X346000Y410460D02*X347080D01*
X347350Y410190D01*
Y409650D01*
X347080Y409380D02*X347350Y409650D01*
X346270Y409380D02*X347080D01*
X346270Y410460D02*Y408300D01*
X346702Y409380D02*X347350Y408300D01*
X347998Y410190D02*X348268Y410460D01*
X348808D01*
X349078Y410190D01*
X348808Y408300D02*X349078Y408570D01*
X348268Y408300D02*X348808D01*
X347998Y408570D02*X348268Y408300D01*
Y409488D02*X348808D01*
X349078Y410190D02*Y409758D01*
Y409218D02*Y408570D01*
Y409218D02*X348808Y409488D01*
X349078Y409758D02*X348808Y409488D01*
X349996Y408300D02*X350806Y409380D01*
Y410190D02*Y409380D01*
X350536Y410460D02*X350806Y410190D01*
X349996Y410460D02*X350536D01*
X349726Y410190D02*X349996Y410460D01*
X349726Y410190D02*Y409650D01*
X349996Y409380D01*
X350806D01*
X306200Y409080D02*Y408378D01*
X305822Y408000D02*X306200Y408378D01*
X304418Y408000D02*X305822D01*
X304418D02*X304040Y408378D01*
Y409080D02*Y408378D01*
Y410808D02*Y409728D01*
X305120D01*
X304850Y409998D01*
Y410538D02*Y409998D01*
Y410538D02*X305120Y410808D01*
X305930D01*
X306200Y410538D02*X305930Y410808D01*
X306200Y410538D02*Y409998D01*
X305930Y409728D02*X306200Y409998D01*
X304040Y412266D02*X304310Y412536D01*
X304040Y412266D02*Y411726D01*
X304310Y411456D02*X304040Y411726D01*
X304310Y411456D02*X305930D01*
X306200Y411726D01*
X305012Y412266D02*X305282Y412536D01*
X305012Y412266D02*Y411456D01*
X306200Y412266D02*Y411726D01*
Y412266D02*X305930Y412536D01*
X305282D02*X305930D01*
X378700Y419500D02*X380000D01*
X378000Y420200D02*X378700Y419500D01*
X378000Y422800D02*Y420200D01*
Y422800D02*X378700Y423500D01*
X380000D01*
X382700D02*X383200Y423000D01*
X381700Y423500D02*X382700D01*
X381200Y423000D02*X381700Y423500D01*
X381200Y423000D02*Y420000D01*
X381700Y419500D01*
X382700Y421700D02*X383200Y421200D01*
X381200Y421700D02*X382700D01*
X381700Y419500D02*X382700D01*
X383200Y420000D01*
Y421200D02*Y420000D01*
X385900Y423500D02*X386400Y423000D01*
X384900Y423500D02*X385900D01*
X384400Y423000D02*X384900Y423500D01*
X384400Y423000D02*Y420000D01*
X384900Y419500D01*
X385900Y421700D02*X386400Y421200D01*
X384400Y421700D02*X385900D01*
X384900Y419500D02*X385900D01*
X386400Y420000D01*
Y421200D02*Y420000D01*
X238539Y252650D02*X239540D01*
X238000Y253189D02*X238539Y252650D01*
X238000Y255191D02*Y253189D01*
Y255191D02*X238539Y255730D01*
X239540D01*
X240464Y255114D02*X241080Y255730D01*
Y252650D01*
X240464D02*X241619D01*
X242543Y253035D02*X242928Y252650D01*
X242543Y255345D02*Y253035D01*
Y255345D02*X242928Y255730D01*
X243698D01*
X244083Y255345D01*
Y253035D01*
X243698Y252650D02*X244083Y253035D01*
X242928Y252650D02*X243698D01*
X242543Y253420D02*X244083Y254960D01*
X245007Y255345D02*X245392Y255730D01*
X246547D01*
X246932Y255345D01*
Y254575D01*
X245007Y252650D02*X246932Y254575D01*
X245007Y252650D02*X246932D01*
X231000Y323960D02*X232080D01*
X232350Y323690D01*
Y323150D01*
X232080Y322880D02*X232350Y323150D01*
X231270Y322880D02*X232080D01*
X231270Y323960D02*Y321800D01*
X231702Y322880D02*X232350Y321800D01*
X232998Y323690D02*X233268Y323960D01*
X234078D01*
X234348Y323690D01*
Y323150D01*
X232998Y321800D02*X234348Y323150D01*
X232998Y321800D02*X234348D01*
X234996Y323528D02*X235428Y323960D01*
Y321800D01*
X234996D02*X235806D01*
X223500Y323960D02*X224580D01*
X224850Y323690D01*
Y323150D01*
X224580Y322880D02*X224850Y323150D01*
X223770Y322880D02*X224580D01*
X223770Y323960D02*Y321800D01*
X224202Y322880D02*X224850Y321800D01*
X225498Y323528D02*X225930Y323960D01*
Y321800D01*
X225498D02*X226308D01*
X226956Y323690D02*X227226Y323960D01*
X228036D01*
X228306Y323690D01*
Y323150D01*
X226956Y321800D02*X228306Y323150D01*
X226956Y321800D02*X228306D01*
X259000Y294500D02*Y291000D01*
X259500Y290500D01*
X260500D01*
X261000Y291000D01*
Y294500D02*Y291000D01*
X262200Y293700D02*X263000Y294500D01*
Y290500D01*
X262200D02*X263700D01*
X264900Y291000D02*X265400Y290500D01*
X264900Y294000D02*Y291000D01*
Y294000D02*X265400Y294500D01*
X266400D01*
X266900Y294000D01*
Y291000D01*
X266400Y290500D02*X266900Y291000D01*
X265400Y290500D02*X266400D01*
X264900Y291500D02*X266900Y293500D01*
X268100Y291000D02*X268600Y290500D01*
X268100Y294000D02*Y291000D01*
Y294000D02*X268600Y294500D01*
X269600D01*
X270100Y294000D01*
Y291000D01*
X269600Y290500D02*X270100Y291000D01*
X268600Y290500D02*X269600D01*
X268100Y291500D02*X270100Y293500D01*
X242878Y281300D02*X243580D01*
X242500Y281678D02*X242878Y281300D01*
X242500Y283082D02*Y281678D01*
Y283082D02*X242878Y283460D01*
X243580D01*
X244228Y283028D02*X244660Y283460D01*
Y281300D01*
X244228D02*X245038D01*
X245686Y281570D02*X245956Y281300D01*
X245686Y283190D02*Y281570D01*
Y283190D02*X245956Y283460D01*
X246496D01*
X246766Y283190D01*
Y281570D01*
X246496Y281300D02*X246766Y281570D01*
X245956Y281300D02*X246496D01*
X245686Y281840D02*X246766Y282920D01*
X247414Y281570D02*X247684Y281300D01*
X247414Y283190D02*Y281570D01*
Y283190D02*X247684Y283460D01*
X248224D01*
X248494Y283190D01*
Y281570D01*
X248224Y281300D02*X248494Y281570D01*
X247684Y281300D02*X248224D01*
X247414Y281840D02*X248494Y282920D01*
X232539Y281150D02*X233540D01*
X232000Y281689D02*X232539Y281150D01*
X232000Y283691D02*Y281689D01*
Y283691D02*X232539Y284230D01*
X233540D01*
X234464Y283614D02*X235080Y284230D01*
Y281150D01*
X234464D02*X235619D01*
X236543Y281535D02*X236928Y281150D01*
X236543Y283845D02*Y281535D01*
Y283845D02*X236928Y284230D01*
X237698D01*
X238083Y283845D01*
Y281535D01*
X237698Y281150D02*X238083Y281535D01*
X236928Y281150D02*X237698D01*
X236543Y281920D02*X238083Y283460D01*
X239007Y283614D02*X239623Y284230D01*
Y281150D01*
X239007D02*X240162D01*
X339000Y308500D02*X342500D01*
X343000Y309000D01*
Y310000D02*Y309000D01*
Y310000D02*X342500Y310500D01*
X339000D02*X342500D01*
X339500Y311700D02*X339000Y312200D01*
Y313700D02*Y312200D01*
Y313700D02*X339500Y314200D01*
X340500D01*
X343000Y311700D02*X340500Y314200D01*
X343000D02*Y311700D01*
X342500Y315400D02*X343000Y315900D01*
X339500Y315400D02*X342500D01*
X339500D02*X339000Y315900D01*
Y316900D02*Y315900D01*
Y316900D02*X339500Y317400D01*
X342500D01*
X343000Y316900D02*X342500Y317400D01*
X343000Y316900D02*Y315900D01*
X342000Y315400D02*X340000Y317400D01*
X339500Y318600D02*X339000Y319100D01*
Y320600D02*Y319100D01*
Y320600D02*X339500Y321100D01*
X340500D01*
X343000Y318600D02*X340500Y321100D01*
X343000D02*Y318600D01*
X316039Y273650D02*X317040D01*
X315500Y274189D02*X316039Y273650D01*
X315500Y276191D02*Y274189D01*
Y276191D02*X316039Y276730D01*
X317040D01*
X319119D02*X319504Y276345D01*
X318349Y276730D02*X319119D01*
X317964Y276345D02*X318349Y276730D01*
X317964Y276345D02*Y274035D01*
X318349Y273650D01*
X319119Y275344D02*X319504Y274959D01*
X317964Y275344D02*X319119D01*
X318349Y273650D02*X319119D01*
X319504Y274035D01*
Y274959D02*Y274035D01*
X320428Y276345D02*X320813Y276730D01*
X321968D01*
X322353Y276345D01*
Y275575D01*
X320428Y273650D02*X322353Y275575D01*
X320428Y273650D02*X322353D01*
X379200Y376000D02*X380500D01*
X378500Y376700D02*X379200Y376000D01*
X378500Y379300D02*Y376700D01*
Y379300D02*X379200Y380000D01*
X380500D01*
X381700Y379500D02*X382200Y380000D01*
X383200D01*
X383700Y379500D01*
X383200Y376000D02*X383700Y376500D01*
X382200Y376000D02*X383200D01*
X381700Y376500D02*X382200Y376000D01*
Y378200D02*X383200D01*
X383700Y379500D02*Y378700D01*
Y377700D02*Y376500D01*
Y377700D02*X383200Y378200D01*
X383700Y378700D02*X383200Y378200D01*
X384900Y379200D02*X385700Y380000D01*
Y376000D01*
X384900D02*X386400D01*
X379200Y239500D02*X380500D01*
X378500Y240200D02*X379200Y239500D01*
X378500Y242800D02*Y240200D01*
Y242800D02*X379200Y243500D01*
X380500D01*
X381700Y243000D02*X382200Y243500D01*
X383200D01*
X383700Y243000D01*
X383200Y239500D02*X383700Y240000D01*
X382200Y239500D02*X383200D01*
X381700Y240000D02*X382200Y239500D01*
Y241700D02*X383200D01*
X383700Y243000D02*Y242200D01*
Y241200D02*Y240000D01*
Y241200D02*X383200Y241700D01*
X383700Y242200D02*X383200Y241700D01*
X384900Y243000D02*X385400Y243500D01*
X386900D01*
X387400Y243000D01*
Y242000D01*
X384900Y239500D02*X387400Y242000D01*
X384900Y239500D02*X387400D01*
X282700Y257580D02*Y256878D01*
X282322Y256500D02*X282700Y256878D01*
X280918Y256500D02*X282322D01*
X280918D02*X280540Y256878D01*
Y257580D02*Y256878D01*
X280972Y258228D02*X280540Y258660D01*
X282700D01*
Y259038D02*Y258228D01*
X282430Y259686D02*X282700Y259956D01*
X280810Y259686D02*X282430D01*
X280810D02*X280540Y259956D01*
Y260496D02*Y259956D01*
Y260496D02*X280810Y260766D01*
X282430D01*
X282700Y260496D02*X282430Y260766D01*
X282700Y260496D02*Y259956D01*
X282160Y259686D02*X281080Y260766D01*
X280540Y262224D02*X280810Y262494D01*
X280540Y262224D02*Y261684D01*
X280810Y261414D02*X280540Y261684D01*
X280810Y261414D02*X282430D01*
X282700Y261684D01*
X281512Y262224D02*X281782Y262494D01*
X281512Y262224D02*Y261414D01*
X282700Y262224D02*Y261684D01*
Y262224D02*X282430Y262494D01*
X281782D02*X282430D01*
X295200Y277080D02*Y276378D01*
X294822Y276000D02*X295200Y276378D01*
X293418Y276000D02*X294822D01*
X293418D02*X293040Y276378D01*
Y277080D02*Y276378D01*
X293472Y277728D02*X293040Y278160D01*
X295200D01*
Y278538D02*Y277728D01*
X294930Y279186D02*X295200Y279456D01*
X293310Y279186D02*X294930D01*
X293310D02*X293040Y279456D01*
Y279996D02*Y279456D01*
Y279996D02*X293310Y280266D01*
X294930D01*
X295200Y279996D02*X294930Y280266D01*
X295200Y279996D02*Y279456D01*
X294660Y279186D02*X293580Y280266D01*
X294390Y280914D02*X293040Y281994D01*
X294390Y282264D02*Y280914D01*
X293040Y281994D02*X295200D01*
X279770Y246500D02*X282850D01*
Y248040D02*Y246500D01*
X280386Y248964D02*X279770Y249580D01*
X282850D01*
Y250119D02*Y248964D01*
X282465Y251043D02*X282850Y251428D01*
X280155Y251043D02*X282465D01*
X280155D02*X279770Y251428D01*
Y252198D02*Y251428D01*
Y252198D02*X280155Y252583D01*
X282465D01*
X282850Y252198D02*X282465Y252583D01*
X282850Y252198D02*Y251428D01*
X282080Y251043D02*X280540Y252583D01*
X282465Y253507D02*X282850Y253892D01*
X280155Y253507D02*X282465D01*
X280155D02*X279770Y253892D01*
Y254662D02*Y253892D01*
Y254662D02*X280155Y255047D01*
X282465D01*
X282850Y254662D02*X282465Y255047D01*
X282850Y254662D02*Y253892D01*
X282080Y253507D02*X280540Y255047D01*
X291700Y284080D02*Y283378D01*
X291322Y283000D02*X291700Y283378D01*
X289918Y283000D02*X291322D01*
X289918D02*X289540Y283378D01*
Y284080D02*Y283378D01*
X289972Y284728D02*X289540Y285160D01*
X291700D01*
Y285538D02*Y284728D01*
X291430Y286186D02*X291700Y286456D01*
X289810Y286186D02*X291430D01*
X289810D02*X289540Y286456D01*
Y286996D02*Y286456D01*
Y286996D02*X289810Y287266D01*
X291430D01*
X291700Y286996D02*X291430Y287266D01*
X291700Y286996D02*Y286456D01*
X291160Y286186D02*X290080Y287266D01*
X291700Y288184D02*X289540Y289264D01*
Y287914D01*
X321700Y282080D02*Y281378D01*
X321322Y281000D02*X321700Y281378D01*
X319918Y281000D02*X321322D01*
X319918D02*X319540Y281378D01*
Y282080D02*Y281378D01*
X319810Y282728D02*X319540Y282998D01*
Y283808D02*Y282998D01*
Y283808D02*X319810Y284078D01*
X320350D01*
X321700Y282728D02*X320350Y284078D01*
X321700D02*Y282728D01*
X321430Y284726D02*X321700Y284996D01*
X319810Y284726D02*X321430D01*
X319810D02*X319540Y284996D01*
Y285536D02*Y284996D01*
Y285536D02*X319810Y285806D01*
X321430D01*
X321700Y285536D02*X321430Y285806D01*
X321700Y285536D02*Y284996D01*
X321160Y284726D02*X320080Y285806D01*
X321430Y286454D02*X321700Y286724D01*
X319810Y286454D02*X321430D01*
X319810D02*X319540Y286724D01*
Y287264D02*Y286724D01*
Y287264D02*X319810Y287534D01*
X321430D01*
X321700Y287264D02*X321430Y287534D01*
X321700Y287264D02*Y286724D01*
X321160Y286454D02*X320080Y287534D01*
X328200Y287580D02*Y286878D01*
X327822Y286500D02*X328200Y286878D01*
X326418Y286500D02*X327822D01*
X326418D02*X326040Y286878D01*
Y287580D02*Y286878D01*
X326310Y288228D02*X326040Y288498D01*
Y289308D02*Y288498D01*
Y289308D02*X326310Y289578D01*
X326850D01*
X328200Y288228D02*X326850Y289578D01*
X328200D02*Y288228D01*
X327930Y290226D02*X328200Y290496D01*
X326310Y290226D02*X327930D01*
X326310D02*X326040Y290496D01*
Y291036D02*Y290496D01*
Y291036D02*X326310Y291306D01*
X327930D01*
X328200Y291036D02*X327930Y291306D01*
X328200Y291036D02*Y290496D01*
X327660Y290226D02*X326580Y291306D01*
X328200Y292224D02*X326040Y293304D01*
Y291954D01*
X329000Y259000D02*Y255000D01*
X330300Y259000D02*X331000Y258300D01*
Y255700D01*
X330300Y255000D02*X331000Y255700D01*
X328500Y255000D02*X330300D01*
X328500Y259000D02*X330300D01*
X332200D02*X334200D01*
X332200D02*Y257000D01*
X332700Y257500D01*
X333700D01*
X334200Y257000D01*
Y255500D01*
X333700Y255000D02*X334200Y255500D01*
X332700Y255000D02*X333700D01*
X332200Y255500D02*X332700Y255000D01*
X184700Y311500D02*X186000D01*
X184000Y312200D02*X184700Y311500D01*
X184000Y314800D02*Y312200D01*
Y314800D02*X184700Y315500D01*
X186000D01*
X187200Y314700D02*X188000Y315500D01*
Y311500D01*
X187200D02*X188700D01*
X190400D02*X192400Y315500D01*
X189900D02*X192400D01*
X294200Y294080D02*Y293378D01*
X293822Y293000D02*X294200Y293378D01*
X292418Y293000D02*X293822D01*
X292418D02*X292040Y293378D01*
Y294080D02*Y293378D01*
X292310Y294728D02*X292040Y294998D01*
Y295808D02*Y294998D01*
Y295808D02*X292310Y296078D01*
X292850D01*
X294200Y294728D02*X292850Y296078D01*
X294200D02*Y294728D01*
X293930Y296726D02*X294200Y296996D01*
X292310Y296726D02*X293930D01*
X292310D02*X292040Y296996D01*
Y297536D02*Y296996D01*
Y297536D02*X292310Y297806D01*
X293930D01*
X294200Y297536D02*X293930Y297806D01*
X294200Y297536D02*Y296996D01*
X293660Y296726D02*X292580Y297806D01*
X292040Y299534D02*Y298454D01*
X293120D01*
X292850Y298724D01*
Y299264D02*Y298724D01*
Y299264D02*X293120Y299534D01*
X293930D01*
X294200Y299264D02*X293930Y299534D01*
X294200Y299264D02*Y298724D01*
X293930Y298454D02*X294200Y298724D01*
X262500Y306500D02*Y302500D01*
X264500D01*
X265700Y306000D02*X266200Y306500D01*
X267700D01*
X268200Y306000D01*
Y305000D01*
X265700Y302500D02*X268200Y305000D01*
X265700Y302500D02*X268200D01*
X269400Y303000D02*X269900Y302500D01*
X269400Y306000D02*Y303000D01*
Y306000D02*X269900Y306500D01*
X270900D01*
X271400Y306000D01*
Y303000D01*
X270900Y302500D02*X271400Y303000D01*
X269900Y302500D02*X270900D01*
X269400Y303500D02*X271400Y305500D01*
X272600Y306000D02*X273100Y306500D01*
X274600D01*
X275100Y306000D01*
Y305000D01*
X272600Y302500D02*X275100Y305000D01*
X272600Y302500D02*X275100D01*
X243700Y194580D02*Y193878D01*
X243322Y193500D02*X243700Y193878D01*
X241918Y193500D02*X243322D01*
X241918D02*X241540Y193878D01*
Y194580D02*Y193878D01*
X241810Y195228D02*X241540Y195498D01*
Y196308D02*Y195498D01*
Y196308D02*X241810Y196578D01*
X242350D01*
X243700Y195228D02*X242350Y196578D01*
X243700D02*Y195228D01*
X235878Y197800D02*X236580D01*
X235500Y198178D02*X235878Y197800D01*
X235500Y199582D02*Y198178D01*
Y199582D02*X235878Y199960D01*
X236580D01*
X237498Y197800D02*X238308Y198880D01*
Y199690D02*Y198880D01*
X238038Y199960D02*X238308Y199690D01*
X237498Y199960D02*X238038D01*
X237228Y199690D02*X237498Y199960D01*
X237228Y199690D02*Y199150D01*
X237498Y198880D01*
X238308D01*
X287500Y239500D02*Y236500D01*
Y239500D02*X288000Y240000D01*
X289000D01*
X289500Y239500D01*
Y237000D01*
X288500Y236000D02*X289500Y237000D01*
X288000Y236000D02*X288500D01*
X287500Y236500D02*X288000Y236000D01*
X288500Y237500D02*X289500Y236000D01*
X290700Y239500D02*X291200Y240000D01*
X292700D01*
X293200Y239500D01*
Y238500D01*
X290700Y236000D02*X293200Y238500D01*
X290700Y236000D02*X293200D01*
X255040Y198350D02*Y197000D01*
X257200D02*X255040Y198350D01*
X257200D02*Y197000D01*
X255310Y198998D02*X255040Y199268D01*
Y200078D02*Y199268D01*
Y200078D02*X255310Y200348D01*
X255850D01*
X257200Y198998D02*X255850Y200348D01*
X257200D02*Y198998D01*
X254500Y195460D02*X255580D01*
X255850Y195190D01*
Y194650D01*
X255580Y194380D02*X255850Y194650D01*
X254770Y194380D02*X255580D01*
X254770Y195460D02*Y193300D01*
X255202Y194380D02*X255850Y193300D01*
X256498Y195028D02*X256930Y195460D01*
Y193300D01*
X256498D02*X257308D01*
X257956Y194110D02*X259036Y195460D01*
X257956Y194110D02*X259306D01*
X259036Y195460D02*Y193300D01*
X253500Y181460D02*X254580D01*
X254850Y181190D01*
Y180650D01*
X254580Y180380D02*X254850Y180650D01*
X253770Y180380D02*X254580D01*
X253770Y181460D02*Y179300D01*
X254202Y180380D02*X254850Y179300D01*
X255498Y181028D02*X255930Y181460D01*
Y179300D01*
X255498D02*X256308D01*
X256956Y179570D02*X257226Y179300D01*
X256956Y180002D02*Y179570D01*
Y180002D02*X257334Y180380D01*
X257658D01*
X258036Y180002D01*
Y179570D01*
X257766Y179300D02*X258036Y179570D01*
X257226Y179300D02*X257766D01*
X256956Y180758D02*X257334Y180380D01*
X256956Y181190D02*Y180758D01*
Y181190D02*X257226Y181460D01*
X257766D01*
X258036Y181190D01*
Y180758D01*
X257658Y180380D02*X258036Y180758D01*
X308200Y179080D02*Y178378D01*
X307822Y178000D02*X308200Y178378D01*
X306418Y178000D02*X307822D01*
X306418D02*X306040Y178378D01*
Y179080D02*Y178378D01*
X306310Y179728D02*X306040Y179998D01*
Y180808D02*Y179998D01*
Y180808D02*X306310Y181078D01*
X306850D01*
X308200Y179728D02*X306850Y181078D01*
X308200D02*Y179728D01*
X307390Y181726D02*X306040Y182806D01*
X307390Y183076D02*Y181726D01*
X306040Y182806D02*X308200D01*
X305700Y199580D02*Y198878D01*
X305322Y198500D02*X305700Y198878D01*
X303918Y198500D02*X305322D01*
X303918D02*X303540Y198878D01*
Y199580D02*Y198878D01*
X303810Y200228D02*X303540Y200498D01*
Y201308D02*Y200498D01*
Y201308D02*X303810Y201578D01*
X304350D01*
X305700Y200228D02*X304350Y201578D01*
X305700D02*Y200228D01*
Y202496D02*X303540Y203576D01*
Y202226D01*
X304000Y189460D02*Y187570D01*
X304270Y187300D01*
X304810D01*
X305080Y187570D01*
Y189460D02*Y187570D01*
X305728Y189190D02*X305998Y189460D01*
X306808D01*
X307078Y189190D01*
Y188650D01*
X305728Y187300D02*X307078Y188650D01*
X305728Y187300D02*X307078D01*
X296378Y188300D02*X297080D01*
X296000Y188678D02*X296378Y188300D01*
X296000Y190082D02*Y188678D01*
Y190082D02*X296378Y190460D01*
X297080D01*
X297728Y190190D02*X297998Y190460D01*
X298808D01*
X299078Y190190D01*
Y189650D01*
X297728Y188300D02*X299078Y189650D01*
X297728Y188300D02*X299078D01*
X299726Y188570D02*X299996Y188300D01*
X299726Y189002D02*Y188570D01*
Y189002D02*X300104Y189380D01*
X300428D01*
X300806Y189002D01*
Y188570D01*
X300536Y188300D02*X300806Y188570D01*
X299996Y188300D02*X300536D01*
X299726Y189758D02*X300104Y189380D01*
X299726Y190190D02*Y189758D01*
Y190190D02*X299996Y190460D01*
X300536D01*
X300806Y190190D01*
Y189758D01*
X300428Y189380D02*X300806Y189758D01*
X330200Y179580D02*Y178878D01*
X329822Y178500D02*X330200Y178878D01*
X328418Y178500D02*X329822D01*
X328418D02*X328040Y178878D01*
Y179580D02*Y178878D01*
X328310Y180228D02*X328040Y180498D01*
Y181308D02*Y180498D01*
Y181308D02*X328310Y181578D01*
X328850D01*
X330200Y180228D02*X328850Y181578D01*
X330200D02*Y180228D01*
X328040Y183306D02*Y182226D01*
X329120D01*
X328850Y182496D01*
Y183036D02*Y182496D01*
Y183036D02*X329120Y183306D01*
X329930D01*
X330200Y183036D02*X329930Y183306D01*
X330200Y183036D02*Y182496D01*
X329930Y182226D02*X330200Y182496D01*
X334500Y184460D02*X335580D01*
X335850Y184190D01*
Y183650D01*
X335580Y183380D02*X335850Y183650D01*
X334770Y183380D02*X335580D01*
X334770Y184460D02*Y182300D01*
X335202Y183380D02*X335850Y182300D01*
X336498Y183110D02*X337578Y184460D01*
X336498Y183110D02*X337848D01*
X337578Y184460D02*Y182300D01*
X331540Y192850D02*Y191500D01*
X333700D02*X331540Y192850D01*
X333700D02*Y191500D01*
X332890Y193498D02*X331540Y194578D01*
X332890Y194848D02*Y193498D01*
X331540Y194578D02*X333700D01*
X346000Y201460D02*X347080D01*
X347350Y201190D01*
Y200650D01*
X347080Y200380D02*X347350Y200650D01*
X346270Y200380D02*X347080D01*
X346270Y201460D02*Y199300D01*
X346702Y200380D02*X347350Y199300D01*
X347998Y201028D02*X348430Y201460D01*
Y199300D01*
X347998D02*X348808D01*
X350266Y201460D02*X350536Y201190D01*
X349726Y201460D02*X350266D01*
X349456Y201190D02*X349726Y201460D01*
X349456Y201190D02*Y199570D01*
X349726Y199300D01*
X350266Y200488D02*X350536Y200218D01*
X349456Y200488D02*X350266D01*
X349726Y199300D02*X350266D01*
X350536Y199570D01*
Y200218D02*Y199570D01*
X344770Y186960D02*Y184800D01*
X345472Y186960D02*X345850Y186582D01*
Y185178D01*
X345472Y184800D02*X345850Y185178D01*
X344500Y184800D02*X345472D01*
X344500Y186960D02*X345472D01*
X346498Y185610D02*X347578Y186960D01*
X346498Y185610D02*X347848D01*
X347578Y186960D02*Y184800D01*
X272540Y178580D02*Y177500D01*
Y178580D02*X272810Y178850D01*
X273350D01*
X273620Y178580D02*X273350Y178850D01*
X273620Y178580D02*Y177770D01*
X272540D02*X274700D01*
X273620Y178202D02*X274700Y178850D01*
X272972Y179498D02*X272540Y179930D01*
X274700D01*
Y180308D02*Y179498D01*
Y181226D02*X273620Y182036D01*
X272810D02*X273620D01*
X272540Y181766D02*X272810Y182036D01*
X272540Y181766D02*Y181226D01*
X272810Y180956D02*X272540Y181226D01*
X272810Y180956D02*X273350D01*
X273620Y181226D01*
Y182036D02*Y181226D01*
X275040Y191580D02*Y190500D01*
Y191580D02*X275310Y191850D01*
X275850D01*
X276120Y191580D02*X275850Y191850D01*
X276120Y191580D02*Y190770D01*
X275040D02*X277200D01*
X276120Y191202D02*X277200Y191850D01*
X275472Y192498D02*X275040Y192930D01*
X277200D01*
Y193308D02*Y192498D01*
X275040Y184770D02*X277200D01*
X275040Y185472D02*X275418Y185850D01*
X276822D01*
X277200Y185472D02*X276822Y185850D01*
X277200Y185472D02*Y184500D01*
X275040Y185472D02*Y184500D01*
X275310Y186498D02*X275040Y186768D01*
Y187578D02*Y186768D01*
Y187578D02*X275310Y187848D01*
X275850D01*
X277200Y186498D02*X275850Y187848D01*
X277200D02*Y186498D01*
X240878Y180800D02*X241580D01*
X240500Y181178D02*X240878Y180800D01*
X240500Y182582D02*Y181178D01*
Y182582D02*X240878Y182960D01*
X241580D01*
X242498Y180800D02*X243578Y182960D01*
X242228D02*X243578D01*
X243700Y189080D02*Y188378D01*
X243322Y188000D02*X243700Y188378D01*
X241918Y188000D02*X243322D01*
X241918D02*X241540Y188378D01*
Y189080D02*Y188378D01*
X241972Y189728D02*X241540Y190160D01*
X243700D01*
Y190538D02*Y189728D01*
X213500Y90960D02*X214580D01*
X214850Y90690D01*
Y90150D01*
X214580Y89880D02*X214850Y90150D01*
X213770Y89880D02*X214580D01*
X213770Y90960D02*Y88800D01*
X214202Y89880D02*X214850Y88800D01*
X215498Y90690D02*X215768Y90960D01*
X216578D01*
X216848Y90690D01*
Y90150D01*
X215498Y88800D02*X216848Y90150D01*
X215498Y88800D02*X216848D01*
X217496Y89070D02*X217766Y88800D01*
X217496Y89502D02*Y89070D01*
Y89502D02*X217874Y89880D01*
X218198D01*
X218576Y89502D01*
Y89070D01*
X218306Y88800D02*X218576Y89070D01*
X217766Y88800D02*X218306D01*
X217496Y90258D02*X217874Y89880D01*
X217496Y90690D02*Y90258D01*
Y90690D02*X217766Y90960D01*
X218306D01*
X218576Y90690D01*
Y90258D01*
X218198Y89880D02*X218576Y90258D01*
X255040Y93350D02*Y92000D01*
X257200D02*X255040Y93350D01*
X257200D02*Y92000D01*
X255040Y94808D02*X255310Y95078D01*
X255040Y94808D02*Y94268D01*
X255310Y93998D02*X255040Y94268D01*
X255310Y93998D02*X256930D01*
X257200Y94268D01*
X256012Y94808D02*X256282Y95078D01*
X256012Y94808D02*Y93998D01*
X257200Y94808D02*Y94268D01*
Y94808D02*X256930Y95078D01*
X256282D02*X256930D01*
X254500Y89960D02*X255580D01*
X255850Y89690D01*
Y89150D01*
X255580Y88880D02*X255850Y89150D01*
X254770Y88880D02*X255580D01*
X254770Y89960D02*Y87800D01*
X255202Y88880D02*X255850Y87800D01*
X256498Y89690D02*X256768Y89960D01*
X257578D01*
X257848Y89690D01*
Y89150D01*
X256498Y87800D02*X257848Y89150D01*
X256498Y87800D02*X257848D01*
X258496Y88610D02*X259576Y89960D01*
X258496Y88610D02*X259846D01*
X259576Y89960D02*Y87800D01*
X243700Y88580D02*Y87878D01*
X243322Y87500D02*X243700Y87878D01*
X241918Y87500D02*X243322D01*
X241918D02*X241540Y87878D01*
Y88580D02*Y87878D01*
X241810Y89228D02*X241540Y89498D01*
Y90038D02*Y89498D01*
Y90038D02*X241810Y90308D01*
X243700Y90038D02*X243430Y90308D01*
X243700Y90038D02*Y89498D01*
X243430Y89228D02*X243700Y89498D01*
X242512Y90038D02*Y89498D01*
X241810Y90308D02*X242242D01*
X242782D02*X243430D01*
X242782D02*X242512Y90038D01*
X242242Y90308D02*X242512Y90038D01*
X242890Y90956D02*X241540Y92036D01*
X242890Y92306D02*Y90956D01*
X241540Y92036D02*X243700D01*
X236378Y92300D02*X237080D01*
X236000Y92678D02*X236378Y92300D01*
X236000Y94082D02*Y92678D01*
Y94082D02*X236378Y94460D01*
X237080D01*
X237728Y93110D02*X238808Y94460D01*
X237728Y93110D02*X239078D01*
X238808Y94460D02*Y92300D01*
X240536Y94460D02*X240806Y94190D01*
X239996Y94460D02*X240536D01*
X239726Y94190D02*X239996Y94460D01*
X239726Y94190D02*Y92570D01*
X239996Y92300D01*
X240536Y93488D02*X240806Y93218D01*
X239726Y93488D02*X240536D01*
X239996Y92300D02*X240536D01*
X240806Y92570D01*
Y93218D02*Y92570D01*
X275040Y86080D02*Y85000D01*
Y86080D02*X275310Y86350D01*
X275850D01*
X276120Y86080D02*X275850Y86350D01*
X276120Y86080D02*Y85270D01*
X275040D02*X277200D01*
X276120Y85702D02*X277200Y86350D01*
X275040Y88078D02*Y86998D01*
X276120D01*
X275850Y87268D01*
Y87808D02*Y87268D01*
Y87808D02*X276120Y88078D01*
X276930D01*
X277200Y87808D02*X276930Y88078D01*
X277200Y87808D02*Y87268D01*
X276930Y86998D02*X277200Y87268D01*
X275040Y79770D02*X277200D01*
X275040Y80472D02*X275418Y80850D01*
X276822D01*
X277200Y80472D02*X276822Y80850D01*
X277200Y80472D02*Y79500D01*
X275040Y80472D02*Y79500D01*
X277200Y81768D02*X276120Y82578D01*
X275310D02*X276120D01*
X275040Y82308D02*X275310Y82578D01*
X275040Y82308D02*Y81768D01*
X275310Y81498D02*X275040Y81768D01*
X275310Y81498D02*X275850D01*
X276120Y81768D01*
Y82578D02*Y81768D01*
X240878Y73800D02*X241580D01*
X240500Y74178D02*X240878Y73800D01*
X240500Y75582D02*Y74178D01*
Y75582D02*X240878Y75960D01*
X241580D01*
X242228Y74610D02*X243308Y75960D01*
X242228Y74610D02*X243578D01*
X243308Y75960D02*Y73800D01*
X244226Y75960D02*X245306D01*
X244226D02*Y74880D01*
X244496Y75150D01*
X245036D01*
X245306Y74880D01*
Y74070D01*
X245036Y73800D02*X245306Y74070D01*
X244496Y73800D02*X245036D01*
X244226Y74070D02*X244496Y73800D01*
X219540Y73580D02*Y72500D01*
Y73580D02*X219810Y73850D01*
X220350D01*
X220620Y73580D02*X220350Y73850D01*
X220620Y73580D02*Y72770D01*
X219540D02*X221700D01*
X220620Y73202D02*X221700Y73850D01*
X219810Y74498D02*X219540Y74768D01*
Y75578D02*Y74768D01*
Y75578D02*X219810Y75848D01*
X220350D01*
X221700Y74498D02*X220350Y75848D01*
X221700D02*Y74498D01*
Y76766D02*X219540Y77846D01*
Y76496D01*
X243700Y81080D02*Y80378D01*
X243322Y80000D02*X243700Y80378D01*
X241918Y80000D02*X243322D01*
X241918D02*X241540Y80378D01*
Y81080D02*Y80378D01*
X242890Y81728D02*X241540Y82808D01*
X242890Y83078D02*Y81728D01*
X241540Y82808D02*X243700D01*
Y83996D02*X241540Y85076D01*
Y83726D01*
X272540Y73580D02*Y72500D01*
Y73580D02*X272810Y73850D01*
X273350D01*
X273620Y73580D02*X273350Y73850D01*
X273620Y73580D02*Y72770D01*
X272540D02*X274700D01*
X273620Y73202D02*X274700Y73850D01*
X272810Y74498D02*X272540Y74768D01*
Y75308D02*Y74768D01*
Y75308D02*X272810Y75578D01*
X274700Y75308D02*X274430Y75578D01*
X274700Y75308D02*Y74768D01*
X274430Y74498D02*X274700Y74768D01*
X273512Y75308D02*Y74768D01*
X272810Y75578D02*X273242D01*
X273782D02*X274430D01*
X273782D02*X273512Y75308D01*
X273242Y75578D02*X273512Y75308D01*
X272972Y76226D02*X272540Y76658D01*
X274700D01*
Y77036D02*Y76226D01*
X253000Y75960D02*X254080D01*
X254350Y75690D01*
Y75150D01*
X254080Y74880D02*X254350Y75150D01*
X253270Y74880D02*X254080D01*
X253270Y75960D02*Y73800D01*
X253702Y74880D02*X254350Y73800D01*
X254998Y75690D02*X255268Y75960D01*
X255808D01*
X256078Y75690D01*
X255808Y73800D02*X256078Y74070D01*
X255268Y73800D02*X255808D01*
X254998Y74070D02*X255268Y73800D01*
Y74988D02*X255808D01*
X256078Y75690D02*Y75258D01*
Y74718D02*Y74070D01*
Y74718D02*X255808Y74988D01*
X256078Y75258D02*X255808Y74988D01*
X256726Y74070D02*X256996Y73800D01*
X256726Y75690D02*Y74070D01*
Y75690D02*X256996Y75960D01*
X257536D01*
X257806Y75690D01*
Y74070D01*
X257536Y73800D02*X257806Y74070D01*
X256996Y73800D02*X257536D01*
X256726Y74340D02*X257806Y75420D01*
X379200Y104000D02*X380500D01*
X378500Y104700D02*X379200Y104000D01*
X378500Y107300D02*Y104700D01*
Y107300D02*X379200Y108000D01*
X380500D01*
X381700Y107500D02*X382200Y108000D01*
X383200D01*
X383700Y107500D01*
X383200Y104000D02*X383700Y104500D01*
X382200Y104000D02*X383200D01*
X381700Y104500D02*X382200Y104000D01*
Y106200D02*X383200D01*
X383700Y107500D02*Y106700D01*
Y105700D02*Y104500D01*
Y105700D02*X383200Y106200D01*
X383700Y106700D02*X383200Y106200D01*
X384900Y107500D02*X385400Y108000D01*
X386400D01*
X386900Y107500D01*
X386400Y104000D02*X386900Y104500D01*
X385400Y104000D02*X386400D01*
X384900Y104500D02*X385400Y104000D01*
Y106200D02*X386400D01*
X386900Y107500D02*Y106700D01*
Y105700D02*Y104500D01*
Y105700D02*X386400Y106200D01*
X386900Y106700D02*X386400Y106200D01*
X346000Y95960D02*X347080D01*
X347350Y95690D01*
Y95150D01*
X347080Y94880D02*X347350Y95150D01*
X346270Y94880D02*X347080D01*
X346270Y95960D02*Y93800D01*
X346702Y94880D02*X347350Y93800D01*
X347998Y95690D02*X348268Y95960D01*
X349078D01*
X349348Y95690D01*
Y95150D01*
X347998Y93800D02*X349348Y95150D01*
X347998Y93800D02*X349348D01*
X350806Y95960D02*X351076Y95690D01*
X350266Y95960D02*X350806D01*
X349996Y95690D02*X350266Y95960D01*
X349996Y95690D02*Y94070D01*
X350266Y93800D01*
X350806Y94988D02*X351076Y94718D01*
X349996Y94988D02*X350806D01*
X350266Y93800D02*X350806D01*
X351076Y94070D01*
Y94718D02*Y94070D01*
X331040Y87350D02*Y86000D01*
X333200D02*X331040Y87350D01*
X333200D02*Y86000D01*
X332930Y87998D02*X333200Y88268D01*
X332498Y87998D02*X332930D01*
X332498D02*X332120Y88376D01*
Y88700D02*Y88376D01*
Y88700D02*X332498Y89078D01*
X332930D01*
X333200Y88808D02*X332930Y89078D01*
X333200Y88808D02*Y88268D01*
X331742Y87998D02*X332120Y88376D01*
X331310Y87998D02*X331742D01*
X331310D02*X331040Y88268D01*
Y88808D02*Y88268D01*
Y88808D02*X331310Y89078D01*
X331742D01*
X332120Y88700D02*X331742Y89078D01*
X341770Y76460D02*Y74300D01*
X342472Y76460D02*X342850Y76082D01*
Y74678D01*
X342472Y74300D02*X342850Y74678D01*
X341500Y74300D02*X342472D01*
X341500Y76460D02*X342472D01*
X343498Y76028D02*X343930Y76460D01*
Y74300D01*
X343498D02*X344308D01*
X344956Y76028D02*X345388Y76460D01*
Y74300D01*
X344956D02*X345766D01*
X335500Y78460D02*X336580D01*
X336850Y78190D01*
Y77650D01*
X336580Y77380D02*X336850Y77650D01*
X335770Y77380D02*X336580D01*
X335770Y78460D02*Y76300D01*
X336202Y77380D02*X336850Y76300D01*
X338308Y78460D02*X338578Y78190D01*
X337768Y78460D02*X338308D01*
X337498Y78190D02*X337768Y78460D01*
X337498Y78190D02*Y76570D01*
X337768Y76300D01*
X338308Y77488D02*X338578Y77218D01*
X337498Y77488D02*X338308D01*
X337768Y76300D02*X338308D01*
X338578Y76570D01*
Y77218D02*Y76570D01*
X375700Y64000D02*X377000D01*
X375000Y64700D02*X375700Y64000D01*
X375000Y67300D02*Y64700D01*
Y67300D02*X375700Y68000D01*
X377000D01*
X379700D02*X380200Y67500D01*
X378700Y68000D02*X379700D01*
X378200Y67500D02*X378700Y68000D01*
X378200Y67500D02*Y64500D01*
X378700Y64000D01*
X379700Y66200D02*X380200Y65700D01*
X378200Y66200D02*X379700D01*
X378700Y64000D02*X379700D01*
X380200Y64500D01*
Y65700D02*Y64500D01*
X381400Y67500D02*X381900Y68000D01*
X382900D01*
X383400Y67500D01*
X382900Y64000D02*X383400Y64500D01*
X381900Y64000D02*X382900D01*
X381400Y64500D02*X381900Y64000D01*
Y66200D02*X382900D01*
X383400Y67500D02*Y66700D01*
Y65700D02*Y64500D01*
Y65700D02*X382900Y66200D01*
X383400Y66700D02*X382900Y66200D01*
X288500Y136500D02*Y133500D01*
Y136500D02*X289000Y137000D01*
X290000D01*
X290500Y136500D01*
Y134000D01*
X289500Y133000D02*X290500Y134000D01*
X289000Y133000D02*X289500D01*
X288500Y133500D02*X289000Y133000D01*
X289500Y134500D02*X290500Y133000D01*
X291700Y137000D02*X293700D01*
X291700D02*Y135000D01*
X292200Y135500D01*
X293200D01*
X293700Y135000D01*
Y133500D01*
X293200Y133000D02*X293700Y133500D01*
X292200Y133000D02*X293200D01*
X291700Y133500D02*X292200Y133000D01*
X330200Y73580D02*Y72878D01*
X329822Y72500D02*X330200Y72878D01*
X328418Y72500D02*X329822D01*
X328418D02*X328040Y72878D01*
Y73580D02*Y72878D01*
X329390Y74228D02*X328040Y75308D01*
X329390Y75578D02*Y74228D01*
X328040Y75308D02*X330200D01*
X328472Y76226D02*X328040Y76658D01*
X330200D01*
Y77036D02*Y76226D01*
X297378Y82800D02*X298080D01*
X297000Y83178D02*X297378Y82800D01*
X297000Y84582D02*Y83178D01*
Y84582D02*X297378Y84960D01*
X298080D01*
X298728Y83610D02*X299808Y84960D01*
X298728Y83610D02*X300078D01*
X299808Y84960D02*Y82800D01*
X300726Y84690D02*X300996Y84960D01*
X301536D01*
X301806Y84690D01*
X301536Y82800D02*X301806Y83070D01*
X300996Y82800D02*X301536D01*
X300726Y83070D02*X300996Y82800D01*
Y83988D02*X301536D01*
X301806Y84690D02*Y84258D01*
Y83718D02*Y83070D01*
Y83718D02*X301536Y83988D01*
X301806Y84258D02*X301536Y83988D01*
X308200Y73580D02*Y72878D01*
X307822Y72500D02*X308200Y72878D01*
X306418Y72500D02*X307822D01*
X306418D02*X306040Y72878D01*
Y73580D02*Y72878D01*
X307390Y74228D02*X306040Y75308D01*
X307390Y75578D02*Y74228D01*
X306040Y75308D02*X308200D01*
X307930Y76226D02*X308200Y76496D01*
X306310Y76226D02*X307930D01*
X306310D02*X306040Y76496D01*
Y77036D02*Y76496D01*
Y77036D02*X306310Y77306D01*
X307930D01*
X308200Y77036D02*X307930Y77306D01*
X308200Y77036D02*Y76496D01*
X307660Y76226D02*X306580Y77306D01*
X305700Y94080D02*Y93378D01*
X305322Y93000D02*X305700Y93378D01*
X303918Y93000D02*X305322D01*
X303918D02*X303540Y93378D01*
Y94080D02*Y93378D01*
X304890Y94728D02*X303540Y95808D01*
X304890Y96078D02*Y94728D01*
X303540Y95808D02*X305700D01*
X303810Y96726D02*X303540Y96996D01*
Y97806D02*Y96996D01*
Y97806D02*X303810Y98076D01*
X304350D01*
X305700Y96726D02*X304350Y98076D01*
X305700D02*Y96726D01*
X304000Y84460D02*Y82570D01*
X304270Y82300D01*
X304810D01*
X305080Y82570D01*
Y84460D02*Y82570D01*
X306538Y84460D02*X306808Y84190D01*
X305998Y84460D02*X306538D01*
X305728Y84190D02*X305998Y84460D01*
X305728Y84190D02*Y82570D01*
X305998Y82300D01*
X306538Y83488D02*X306808Y83218D01*
X305728Y83488D02*X306538D01*
X305998Y82300D02*X306538D01*
X306808Y82570D01*
Y83218D02*Y82570D01*
M02*
