G04 start of page 12 for group -4015 idx -4015 *
G04 Title: fet12, toppaste *
G04 Creator: pcb 20140316 *
G04 CreationDate: Thu 12 Apr 2018 01:23:09 AM GMT UTC *
G04 For: brian *
G04 Format: Gerber/RS-274X *
G04 PCB-Dimensions (mil): 6000.00 5000.00 *
G04 PCB-Coordinate-Origin: lower left *
%MOIN*%
%FSLAX25Y25*%
%LNTOPPASTE*%
%ADD217R,0.0460X0.0460*%
%ADD216R,0.0100X0.0100*%
%ADD215R,0.0177X0.0177*%
%ADD214C,0.0138*%
%ADD213C,0.0001*%
%ADD212R,0.0159X0.0159*%
%ADD211R,0.0217X0.0217*%
%ADD210R,0.0276X0.0276*%
%ADD209C,0.0394*%
%ADD208R,0.0276X0.0276*%
%ADD207R,0.0827X0.0827*%
%ADD206R,0.0236X0.0236*%
%ADD205R,0.0700X0.0700*%
%ADD204R,0.1181X0.1181*%
%ADD203R,0.0165X0.0165*%
%ADD202R,0.0512X0.0512*%
%ADD201R,0.0197X0.0197*%
%ADD200R,0.0295X0.0295*%
%ADD199R,0.0984X0.0984*%
%ADD198R,0.0630X0.0630*%
G54D198*X260890Y327500D02*X268370D01*
X239630D02*X247110D01*
G54D199*X200500Y166075D02*Y160169D01*
Y118831D02*Y112925D01*
G54D200*X246441Y404992D02*Y404008D01*
X251559Y404992D02*Y404008D01*
X320441Y390992D02*Y390008D01*
X325559Y390992D02*Y390008D01*
G54D201*X310426Y391393D02*Y390607D01*
X313574Y391393D02*Y390607D01*
G54D200*X236508Y399441D02*X237492D01*
X236508Y404559D02*X237492D01*
X235008Y395059D02*X235992D01*
X235008Y389941D02*X235992D01*
X225508Y407559D02*X226492D01*
X225508Y402441D02*X226492D01*
X230559Y390992D02*Y390008D01*
X225441Y390992D02*Y390008D01*
X246441Y398992D02*Y398008D01*
X251559Y398992D02*Y398008D01*
X264941Y391992D02*Y391008D01*
X270059Y391992D02*Y391008D01*
X328059Y339492D02*Y338508D01*
X322941Y339492D02*Y338508D01*
X332508Y338441D02*X333492D01*
X332508Y343559D02*X333492D01*
G54D202*X298095Y297181D02*Y294819D01*
X309905Y297181D02*Y294819D01*
X315905Y288255D02*Y282745D01*
X304095Y288255D02*Y282745D01*
G54D203*X320323Y309984D02*Y304630D01*
X322882Y309984D02*Y304630D01*
X325441Y309984D02*Y304630D01*
X328000Y309984D02*Y304630D01*
X330559Y309984D02*Y304630D01*
X333118Y309984D02*Y304630D01*
X335677Y309984D02*Y304630D01*
Y333370D02*Y328016D01*
X333118Y333370D02*Y328016D01*
X330559Y333370D02*Y328016D01*
X328000Y333370D02*Y328016D01*
X325441Y333370D02*Y328016D01*
X322882Y333370D02*Y328016D01*
X320323Y333370D02*Y328016D01*
G54D204*X327803Y319000D02*X328197D01*
G54D202*X323543Y298393D02*Y297607D01*
X316457Y298393D02*Y297607D01*
G54D205*X293000Y342000D02*X300000D01*
X293000Y305000D02*X300000D01*
G54D206*X220441Y298591D02*X225559D01*
X220441Y294654D02*X225559D01*
X220441Y290717D02*X225559D01*
X220441Y286780D02*X225559D01*
X220441Y282843D02*X225559D01*
X220441Y278906D02*X225559D01*
X220441Y274969D02*X225559D01*
X220441Y271031D02*X225559D01*
X220441Y267094D02*X225559D01*
X220441Y263157D02*X225559D01*
X220441Y259220D02*X225559D01*
X220441Y255283D02*X225559D01*
X220441Y251346D02*X225559D01*
X220441Y247409D02*X225559D01*
G54D207*X212370Y235008D02*X215126D01*
X212370Y310992D02*X215126D01*
G54D208*X265614Y415465D02*X273094D01*
X265614Y420189D02*X273094D01*
X265614Y424913D02*X273094D01*
X265614Y429638D02*X273094D01*
X265614Y434362D02*X273094D01*
X265614Y439087D02*X273094D01*
X265614Y443811D02*X273094D01*
X265614Y448535D02*X273094D01*
G54D209*X249354Y415465D03*
Y420189D03*
Y424913D03*
Y429638D03*
Y434362D03*
Y439087D03*
Y443811D03*
Y448535D03*
X244630Y415465D03*
Y420189D03*
Y424913D03*
Y429638D03*
Y434362D03*
Y439087D03*
Y443811D03*
Y448535D03*
X239906Y420189D03*
Y424913D03*
Y429638D03*
Y434362D03*
Y439087D03*
Y443811D03*
X235181Y420189D03*
Y424913D03*
Y429638D03*
Y434362D03*
Y439087D03*
Y443811D03*
X230457Y420189D03*
Y424913D03*
Y429638D03*
Y434362D03*
Y439087D03*
Y443811D03*
X225732Y415465D03*
Y420189D03*
Y424913D03*
Y429638D03*
Y434362D03*
Y439087D03*
Y443811D03*
Y448535D03*
G54D208*X338114Y415465D02*X345594D01*
X338114Y420189D02*X345594D01*
X338114Y424913D02*X345594D01*
X338114Y429638D02*X345594D01*
X338114Y434362D02*X345594D01*
X338114Y439087D02*X345594D01*
X338114Y443811D02*X345594D01*
X338114Y448535D02*X345594D01*
G54D209*X321854Y415465D03*
Y420189D03*
Y424913D03*
Y429638D03*
Y434362D03*
Y439087D03*
Y443811D03*
Y448535D03*
X317130Y415465D03*
Y420189D03*
Y424913D03*
Y429638D03*
Y434362D03*
Y439087D03*
Y443811D03*
Y448535D03*
X312406Y420189D03*
Y424913D03*
Y429638D03*
Y434362D03*
Y439087D03*
Y443811D03*
X307681Y420189D03*
Y424913D03*
Y429638D03*
Y434362D03*
Y439087D03*
Y443811D03*
X302957Y420189D03*
Y424913D03*
Y429638D03*
Y434362D03*
Y439087D03*
Y443811D03*
X298232Y415465D03*
Y420189D03*
Y424913D03*
Y429638D03*
Y434362D03*
Y439087D03*
Y443811D03*
Y448535D03*
G54D200*X342508Y403441D02*X343492D01*
X342508Y408559D02*X343492D01*
G54D210*X342000Y395319D02*Y394335D01*
G54D211*X341705Y398961D02*X342295D01*
G54D200*X336508Y396441D02*X337492D01*
X336508Y401559D02*X337492D01*
G54D212*X329978Y408000D02*X331187D01*
X337813D02*X339022D01*
G54D200*X272559Y401992D02*Y401008D01*
X267441Y401992D02*Y401008D01*
G54D212*X258978Y408000D02*X260187D01*
X266813D02*X268022D01*
G54D200*X262008Y396441D02*X262992D01*
X262008Y401559D02*X262992D01*
G54D210*X271181Y396500D02*X272165D01*
G54D211*X267539Y396795D02*Y396205D01*
G54D200*X298508Y407559D02*X299492D01*
X298508Y402441D02*X299492D01*
G54D201*X306074Y405893D02*Y405107D01*
X302926Y405893D02*Y405107D01*
G54D199*X370000Y323831D02*Y317925D01*
Y371075D02*Y365169D01*
Y301575D02*Y295669D01*
Y254331D02*Y248425D01*
G54D213*G36*
X336050Y268800D02*Y260900D01*
X343950D01*
Y268800D01*
X336050D01*
G37*
G36*
Y253100D02*Y245200D01*
X343950D01*
Y253100D01*
X336050D01*
G37*
G36*
X318091Y407118D02*Y402591D01*
X322618D01*
Y407118D01*
X318091D01*
G37*
G36*
Y401409D02*Y396882D01*
X322618D01*
Y401409D01*
X318091D01*
G37*
G36*
X312382Y407118D02*Y402591D01*
X316909D01*
Y407118D01*
X312382D01*
G37*
G36*
Y401409D02*Y396882D01*
X316909D01*
Y401409D01*
X312382D01*
G37*
G54D214*X308740Y395701D02*X310709D01*
X308740Y398850D02*X310709D01*
X308740Y402000D02*X310709D01*
X308740Y405150D02*X310709D01*
X308740Y408299D02*X310709D01*
X324291Y395701D02*X326260D01*
X324291Y398850D02*X326260D01*
X324291Y402000D02*X326260D01*
X324291Y405150D02*X326260D01*
X324291Y408299D02*X326260D01*
G54D199*X200500Y373575D02*Y367669D01*
Y326331D02*Y320425D01*
G54D200*X256508Y398559D02*X257492D01*
X256508Y393441D02*X257492D01*
G54D199*X370000Y166075D02*Y160169D01*
Y118831D02*Y112925D01*
G54D200*X246441Y195492D02*Y194508D01*
X251559Y195492D02*Y194508D01*
X320441Y181492D02*Y180508D01*
X325559Y181492D02*Y180508D01*
G54D201*X310426Y181893D02*Y181107D01*
X313574Y181893D02*Y181107D01*
G54D200*X236508Y189941D02*X237492D01*
X236508Y195059D02*X237492D01*
X237008Y185559D02*X237992D01*
X237008Y180441D02*X237992D01*
X226008Y198059D02*X226992D01*
X226008Y192941D02*X226992D01*
X229559Y181492D02*Y180508D01*
X224441Y181492D02*Y180508D01*
X246441Y189492D02*Y188508D01*
X251559Y189492D02*Y188508D01*
X264941Y182492D02*Y181508D01*
X270059Y182492D02*Y181508D01*
G54D208*X265614Y205965D02*X273094D01*
X265614Y210689D02*X273094D01*
X265614Y215413D02*X273094D01*
X265614Y220138D02*X273094D01*
X265614Y224862D02*X273094D01*
X265614Y229587D02*X273094D01*
X265614Y234311D02*X273094D01*
X265614Y239035D02*X273094D01*
G54D209*X249354Y205965D03*
Y210689D03*
Y215413D03*
Y220138D03*
Y224862D03*
Y229587D03*
Y234311D03*
Y239035D03*
X244630Y205965D03*
Y210689D03*
Y215413D03*
Y220138D03*
Y224862D03*
Y229587D03*
Y234311D03*
Y239035D03*
X239906Y210689D03*
Y215413D03*
Y220138D03*
Y224862D03*
Y229587D03*
Y234311D03*
X235181Y210689D03*
Y215413D03*
Y220138D03*
Y224862D03*
Y229587D03*
Y234311D03*
X230457Y210689D03*
Y215413D03*
Y220138D03*
Y224862D03*
Y229587D03*
Y234311D03*
X225732Y205965D03*
Y210689D03*
Y215413D03*
Y220138D03*
Y224862D03*
Y229587D03*
Y234311D03*
Y239035D03*
G54D208*X338114Y205965D02*X345594D01*
X338114Y210689D02*X345594D01*
X338114Y215413D02*X345594D01*
X338114Y220138D02*X345594D01*
X338114Y224862D02*X345594D01*
X338114Y229587D02*X345594D01*
X338114Y234311D02*X345594D01*
X338114Y239035D02*X345594D01*
G54D209*X321854Y205965D03*
Y210689D03*
Y215413D03*
Y220138D03*
Y224862D03*
Y229587D03*
Y234311D03*
Y239035D03*
X317130Y205965D03*
Y210689D03*
Y215413D03*
Y220138D03*
Y224862D03*
Y229587D03*
Y234311D03*
Y239035D03*
X312406Y210689D03*
Y215413D03*
Y220138D03*
Y224862D03*
Y229587D03*
Y234311D03*
X307681Y210689D03*
Y215413D03*
Y220138D03*
Y224862D03*
Y229587D03*
Y234311D03*
X302957Y210689D03*
Y215413D03*
Y220138D03*
Y224862D03*
Y229587D03*
Y234311D03*
X298232Y205965D03*
Y210689D03*
Y215413D03*
Y220138D03*
Y224862D03*
Y229587D03*
Y234311D03*
Y239035D03*
G54D200*X342508Y193941D02*X343492D01*
X342508Y199059D02*X343492D01*
G54D210*X342000Y185819D02*Y184835D01*
G54D211*X341705Y189461D02*X342295D01*
G54D200*X336508Y186941D02*X337492D01*
X336508Y192059D02*X337492D01*
G54D212*X329978Y198500D02*X331187D01*
X337813D02*X339022D01*
G54D200*X272559Y192492D02*Y191508D01*
X267441Y192492D02*Y191508D01*
G54D212*X258978Y198500D02*X260187D01*
X266813D02*X268022D01*
G54D200*X262008Y186941D02*X262992D01*
X262008Y192059D02*X262992D01*
G54D210*X271181Y187000D02*X272165D01*
G54D211*X267539Y187295D02*Y186705D01*
G54D200*X298508Y198059D02*X299492D01*
X298508Y192941D02*X299492D01*
G54D201*X306074Y196393D02*Y195607D01*
X302926Y196393D02*Y195607D01*
G54D213*G36*
X318091Y197618D02*Y193091D01*
X322618D01*
Y197618D01*
X318091D01*
G37*
G36*
Y191909D02*Y187382D01*
X322618D01*
Y191909D01*
X318091D01*
G37*
G36*
X312382Y197618D02*Y193091D01*
X316909D01*
Y197618D01*
X312382D01*
G37*
G36*
Y191909D02*Y187382D01*
X316909D01*
Y191909D01*
X312382D01*
G37*
G54D214*X308740Y186201D02*X310709D01*
X308740Y189350D02*X310709D01*
X308740Y192500D02*X310709D01*
X308740Y195650D02*X310709D01*
X308740Y198799D02*X310709D01*
X324291Y186201D02*X326260D01*
X324291Y189350D02*X326260D01*
X324291Y192500D02*X326260D01*
X324291Y195650D02*X326260D01*
X324291Y198799D02*X326260D01*
G54D200*X256508Y189059D02*X257492D01*
X256508Y183941D02*X257492D01*
X246441Y89992D02*Y89008D01*
X251559Y89992D02*Y89008D01*
X320441Y75992D02*Y75008D01*
X325559Y75992D02*Y75008D01*
G54D201*X310426Y76393D02*Y75607D01*
X313574Y76393D02*Y75607D01*
G54D200*X236508Y84441D02*X237492D01*
X236508Y89559D02*X237492D01*
X237008Y80059D02*X237992D01*
X237008Y74941D02*X237992D01*
X226008Y92559D02*X226992D01*
X226008Y87441D02*X226992D01*
X229559Y75992D02*Y75008D01*
X224441Y75992D02*Y75008D01*
X246441Y83992D02*Y83008D01*
X251559Y83992D02*Y83008D01*
X264941Y76992D02*Y76008D01*
X270059Y76992D02*Y76008D01*
G54D208*X265614Y100465D02*X273094D01*
X265614Y105189D02*X273094D01*
X265614Y109913D02*X273094D01*
X265614Y114638D02*X273094D01*
X265614Y119362D02*X273094D01*
X265614Y124087D02*X273094D01*
X265614Y128811D02*X273094D01*
X265614Y133535D02*X273094D01*
G54D209*X249354Y100465D03*
Y105189D03*
Y109913D03*
Y114638D03*
Y119362D03*
Y124087D03*
Y128811D03*
Y133535D03*
X244630Y100465D03*
Y105189D03*
Y109913D03*
Y114638D03*
Y119362D03*
Y124087D03*
Y128811D03*
Y133535D03*
X239906Y105189D03*
Y109913D03*
Y114638D03*
Y119362D03*
Y124087D03*
Y128811D03*
X235181Y105189D03*
Y109913D03*
Y114638D03*
Y119362D03*
Y124087D03*
Y128811D03*
X230457Y105189D03*
Y109913D03*
Y114638D03*
Y119362D03*
Y124087D03*
Y128811D03*
X225732Y100465D03*
Y105189D03*
Y109913D03*
Y114638D03*
Y119362D03*
Y124087D03*
Y128811D03*
Y133535D03*
G54D208*X338114Y100465D02*X345594D01*
X338114Y105189D02*X345594D01*
X338114Y109913D02*X345594D01*
X338114Y114638D02*X345594D01*
X338114Y119362D02*X345594D01*
X338114Y124087D02*X345594D01*
X338114Y128811D02*X345594D01*
X338114Y133535D02*X345594D01*
G54D209*X321854Y100465D03*
Y105189D03*
Y109913D03*
Y114638D03*
Y119362D03*
Y124087D03*
Y128811D03*
Y133535D03*
X317130Y100465D03*
Y105189D03*
Y109913D03*
Y114638D03*
Y119362D03*
Y124087D03*
Y128811D03*
Y133535D03*
X312406Y105189D03*
Y109913D03*
Y114638D03*
Y119362D03*
Y124087D03*
Y128811D03*
X307681Y105189D03*
Y109913D03*
Y114638D03*
Y119362D03*
Y124087D03*
Y128811D03*
X302957Y105189D03*
Y109913D03*
Y114638D03*
Y119362D03*
Y124087D03*
Y128811D03*
X298232Y100465D03*
Y105189D03*
Y109913D03*
Y114638D03*
Y119362D03*
Y124087D03*
Y128811D03*
Y133535D03*
G54D200*X342508Y88441D02*X343492D01*
X342508Y93559D02*X343492D01*
G54D210*X342000Y80319D02*Y79335D01*
G54D211*X341705Y83961D02*X342295D01*
G54D200*X336508Y81441D02*X337492D01*
X336508Y86559D02*X337492D01*
G54D212*X329978Y93000D02*X331187D01*
X337813D02*X339022D01*
G54D200*X272559Y86992D02*Y86008D01*
X267441Y86992D02*Y86008D01*
G54D212*X258978Y93000D02*X260187D01*
X266813D02*X268022D01*
G54D200*X262008Y81441D02*X262992D01*
X262008Y86559D02*X262992D01*
G54D210*X271181Y81500D02*X272165D01*
G54D211*X267539Y81795D02*Y81205D01*
G54D200*X298508Y92559D02*X299492D01*
X298508Y87441D02*X299492D01*
G54D201*X306074Y90893D02*Y90107D01*
X302926Y90893D02*Y90107D01*
G54D213*G36*
X318091Y92118D02*Y87591D01*
X322618D01*
Y92118D01*
X318091D01*
G37*
G36*
Y86409D02*Y81882D01*
X322618D01*
Y86409D01*
X318091D01*
G37*
G36*
X312382Y92118D02*Y87591D01*
X316909D01*
Y92118D01*
X312382D01*
G37*
G36*
Y86409D02*Y81882D01*
X316909D01*
Y86409D01*
X312382D01*
G37*
G54D214*X308740Y80701D02*X310709D01*
X308740Y83850D02*X310709D01*
X308740Y87000D02*X310709D01*
X308740Y90150D02*X310709D01*
X308740Y93299D02*X310709D01*
X324291Y80701D02*X326260D01*
X324291Y83850D02*X326260D01*
X324291Y87000D02*X326260D01*
X324291Y90150D02*X326260D01*
X324291Y93299D02*X326260D01*
G54D200*X256508Y83559D02*X257492D01*
X256508Y78441D02*X257492D01*
G54D202*X250819Y252595D02*X253181D01*
X250819Y264405D02*X253181D01*
G54D200*X282008Y267441D02*X282992D01*
X282008Y272559D02*X282992D01*
G54D215*X273850Y269543D02*X277984D01*
X273850Y272102D02*X277984D01*
X273850Y274661D02*X277984D01*
X273850Y277220D02*X277984D01*
X273850Y279780D02*X277984D01*
X273850Y282339D02*X277984D01*
X273850Y284898D02*X277984D01*
X273850Y287457D02*X277984D01*
X251016D02*X255150D01*
X251016Y284898D02*X255150D01*
X251016Y282339D02*X255150D01*
X251016Y279780D02*X255150D01*
X251016Y277220D02*X255150D01*
X251016Y274661D02*X255150D01*
X251016Y272102D02*X255150D01*
X251016Y269543D02*X255150D01*
G54D216*X264500Y280232D02*Y276768D01*
Y281650D02*Y275350D01*
G54D200*X287559Y277992D02*Y277008D01*
X282441Y277992D02*Y277008D01*
G54D217*X275000Y262450D02*Y248550D01*
X262000Y262450D02*Y248550D01*
G54D200*X246008Y275559D02*X246992D01*
X246008Y270441D02*X246992D01*
G54D202*X234745Y276905D02*X240255D01*
X234745Y265095D02*X240255D01*
G54D200*X281941Y283992D02*Y283008D01*
X287059Y283992D02*Y283008D01*
G54D198*X206890Y48000D02*X214370D01*
X185630D02*X193110D01*
X377390D02*X384870D01*
X356130D02*X363610D01*
X308890Y259500D02*X316370D01*
X287630D02*X295110D01*
X377390Y439500D02*X384870D01*
X356130D02*X363610D01*
G54D200*X232508Y332118D02*X233492D01*
X232508Y327000D02*X233492D01*
X232508Y336500D02*X233492D01*
X232508Y341618D02*X233492D01*
X227008Y341559D02*X227992D01*
X227008Y336441D02*X227992D01*
X227008Y332059D02*X227992D01*
X227008Y326941D02*X227992D01*
M02*
