G04 start of page 2 for group 0 idx 0 *
G04 Title: fet12, top *
G04 Creator: pcb 20140316 *
G04 CreationDate: Thu 12 Apr 2018 01:23:08 AM GMT UTC *
G04 For: brian *
G04 Format: Gerber/RS-274X *
G04 PCB-Dimensions (mil): 6000.00 5000.00 *
G04 PCB-Coordinate-Origin: lower left *
%MOIN*%
%FSLAX25Y25*%
%LNTOP*%
%ADD57C,0.0118*%
%ADD56C,0.1285*%
%ADD55C,0.2150*%
%ADD54C,0.0118*%
%ADD53C,0.0200*%
%ADD52C,0.0450*%
%ADD51C,0.0360*%
%ADD50R,0.2600X0.2600*%
%ADD49R,0.0460X0.0460*%
%ADD48R,0.1181X0.1181*%
%ADD47R,0.0165X0.0165*%
%ADD46R,0.0700X0.0700*%
%ADD45R,0.1047X0.1047*%
%ADD44C,0.0138*%
%ADD43R,0.0197X0.0197*%
%ADD42R,0.0276X0.0276*%
%ADD41R,0.0515X0.0515*%
%ADD40R,0.1657X0.1657*%
%ADD39R,0.1342X0.1342*%
%ADD38R,0.0751X0.0751*%
%ADD37C,0.0394*%
%ADD36R,0.0217X0.0217*%
%ADD35R,0.0256X0.0256*%
%ADD34R,0.0276X0.0276*%
%ADD33R,0.0315X0.0315*%
%ADD32R,0.0159X0.0159*%
%ADD31R,0.3600X0.3600*%
%ADD30R,0.0630X0.0630*%
%ADD29R,0.0512X0.0512*%
%ADD28R,0.1339X0.1339*%
%ADD27R,0.0100X0.0100*%
%ADD26R,0.0177X0.0177*%
%ADD25R,0.0295X0.0295*%
%ADD24R,0.0984X0.0984*%
%ADD23R,0.0236X0.0236*%
%ADD22R,0.0827X0.0827*%
%ADD21C,0.0295*%
%ADD20C,0.1850*%
%ADD19C,0.2350*%
%ADD18C,0.0318*%
%ADD17C,0.0070*%
%ADD16C,0.0700*%
%ADD15C,0.0250*%
%ADD14C,0.0500*%
%ADD13C,0.0100*%
%ADD12C,0.0150*%
%ADD11C,0.0001*%
G54D11*G36*
X327500Y243500D02*Y200500D01*
X294500D01*
X293500Y201500D01*
Y209000D01*
X256500D01*
Y243500D01*
X327500D01*
G37*
G36*
X220000Y245000D02*X255500D01*
Y202500D01*
X231500D01*
X231000Y202000D01*
X220000D01*
Y245000D01*
G37*
G36*
X273000Y273000D02*X279000D01*
Y270500D01*
X280500Y269000D01*
X284500D01*
Y266000D01*
X280000D01*
X277000Y263000D01*
Y246500D01*
X273000D01*
Y273000D01*
G37*
G36*
X248000Y255500D02*X258000D01*
Y263500D01*
X259500Y265000D01*
X266500D01*
Y246000D01*
X234500D01*
Y253000D01*
X245500D01*
X248000Y255500D01*
G37*
G36*
X321000Y264000D02*Y255000D01*
X306500D01*
X306000Y255500D01*
X304500D01*
Y264000D01*
X321000D01*
G37*
G36*
X213748Y260211D02*X213939Y260226D01*
X214368Y260329D01*
X214775Y260497D01*
X215151Y260728D01*
X215486Y261014D01*
X215772Y261349D01*
X215961Y261657D01*
X218310D01*
X218366Y261521D01*
X218448Y261387D01*
X218551Y261267D01*
X218642Y261189D01*
X218551Y261111D01*
X218448Y260991D01*
X218366Y260857D01*
X218306Y260712D01*
X218269Y260558D01*
X218260Y260402D01*
X218269Y257882D01*
X218306Y257729D01*
X218366Y257584D01*
X218448Y257450D01*
X218551Y257330D01*
X218642Y257252D01*
X218551Y257174D01*
X218546Y257169D01*
X218503Y257275D01*
X218272Y257651D01*
X217986Y257986D01*
X217651Y258272D01*
X217275Y258503D01*
X216868Y258671D01*
X216439Y258774D01*
X216000Y258809D01*
X215561Y258774D01*
X215132Y258671D01*
X214725Y258503D01*
X214349Y258272D01*
X214014Y257986D01*
X213748Y257675D01*
Y260211D01*
G37*
G36*
X225917Y183968D02*X225000Y183965D01*
Y186635D01*
X225151Y186728D01*
X225486Y187014D01*
X225772Y187349D01*
X226003Y187725D01*
X226171Y188132D01*
X226274Y188561D01*
X226300Y189000D01*
X226274Y189439D01*
X226171Y189868D01*
X226003Y190275D01*
X225884Y190468D01*
X228250Y190473D01*
Y183960D01*
X227926Y183959D01*
X227773Y183922D01*
X227628Y183862D01*
X227493Y183780D01*
X227374Y183677D01*
X227271Y183558D01*
X227189Y183423D01*
X227129Y183278D01*
X227092Y183125D01*
X227083Y182968D01*
X227092Y178875D01*
X227129Y178722D01*
X227189Y178577D01*
X227271Y178442D01*
X227374Y178323D01*
X227493Y178220D01*
X227628Y178138D01*
X227773Y178078D01*
X227926Y178041D01*
X228083Y178032D01*
X231192Y178041D01*
X231345Y178078D01*
X231490Y178138D01*
X231625Y178220D01*
X231744Y178323D01*
X231847Y178442D01*
X231929Y178577D01*
X231989Y178722D01*
X232026Y178875D01*
X232030Y178941D01*
X234541D01*
X234541Y178808D01*
X234578Y178655D01*
X234638Y178510D01*
X234720Y178375D01*
X234823Y178256D01*
X234942Y178153D01*
X235077Y178071D01*
X235222Y178011D01*
X235288Y177995D01*
X217843Y177991D01*
X217690Y177954D01*
X217545Y177894D01*
X217410Y177812D01*
X217291Y177709D01*
X217188Y177590D01*
X217106Y177455D01*
X217046Y177310D01*
X217009Y177157D01*
X217000Y177000D01*
X217001Y172500D01*
X213748D01*
Y229879D01*
X219417Y229883D01*
X219570Y229920D01*
X219715Y229980D01*
X219849Y230063D01*
X219969Y230165D01*
X220071Y230284D01*
X220154Y230419D01*
X220214Y230564D01*
X220251Y230717D01*
X220260Y230874D01*
X220251Y239299D01*
X220214Y239452D01*
X220154Y239597D01*
X220071Y239731D01*
X219969Y239851D01*
X219849Y239953D01*
X219715Y240035D01*
X219570Y240096D01*
X219417Y240132D01*
X219260Y240142D01*
X213748Y240137D01*
Y254325D01*
X214014Y254014D01*
X214349Y253728D01*
X214500Y253635D01*
Y249559D01*
X214495Y249500D01*
X214514Y249265D01*
X214569Y249035D01*
X214659Y248817D01*
X214783Y248616D01*
X214783Y248615D01*
X214936Y248436D01*
X214981Y248398D01*
X216988Y246390D01*
X217027Y246346D01*
X217206Y246192D01*
X217407Y246069D01*
X217626Y245978D01*
X217855Y245923D01*
X218091Y245905D01*
X218149Y245909D01*
X218310D01*
X218366Y245773D01*
X218448Y245639D01*
X218551Y245519D01*
X218670Y245417D01*
X218804Y245335D01*
X218950Y245274D01*
X219103Y245238D01*
X219260Y245228D01*
X223500Y245233D01*
Y245000D01*
X255500D01*
Y243461D01*
X255456Y243488D01*
X255310Y243548D01*
X255157Y243585D01*
X255000Y243595D01*
X238277Y243585D01*
X238124Y243548D01*
X237978Y243488D01*
X237844Y243406D01*
X237724Y243304D01*
X237622Y243184D01*
X237540Y243050D01*
X237480Y242904D01*
X237443Y242751D01*
X237434Y242595D01*
X237434Y241623D01*
X230007Y241618D01*
X230007Y243539D01*
X229970Y243692D01*
X229910Y243837D01*
X229828Y243972D01*
X229725Y244091D01*
X229606Y244194D01*
X229471Y244276D01*
X229326Y244336D01*
X229173Y244373D01*
X229016Y244382D01*
X221347Y244373D01*
X221194Y244336D01*
X221049Y244276D01*
X220914Y244194D01*
X220795Y244091D01*
X220692Y243972D01*
X220610Y243837D01*
X220550Y243692D01*
X220513Y243539D01*
X220504Y243382D01*
X220513Y201461D01*
X220532Y201384D01*
X220349Y201272D01*
X220014Y200986D01*
X219728Y200651D01*
X219497Y200275D01*
X219329Y199868D01*
X219226Y199439D01*
X219191Y199000D01*
X219226Y198561D01*
X219329Y198132D01*
X219497Y197725D01*
X219728Y197349D01*
X220014Y197014D01*
X220349Y196728D01*
X220725Y196497D01*
X221132Y196329D01*
X221561Y196226D01*
X221786Y196208D01*
X221632Y196171D01*
X221225Y196003D01*
X220849Y195772D01*
X220514Y195486D01*
X220228Y195151D01*
X219997Y194775D01*
X219829Y194368D01*
X219726Y193939D01*
X219691Y193500D01*
X219726Y193061D01*
X219829Y192632D01*
X219997Y192225D01*
X220228Y191849D01*
X220514Y191514D01*
X220849Y191228D01*
X221225Y190997D01*
X221446Y190906D01*
X221228Y190651D01*
X220997Y190275D01*
X220829Y189868D01*
X220726Y189439D01*
X220691Y189000D01*
X220726Y188561D01*
X220829Y188132D01*
X220997Y187725D01*
X221228Y187349D01*
X221514Y187014D01*
X221849Y186728D01*
X222000Y186635D01*
Y183232D01*
X221974Y183125D01*
X221965Y182968D01*
X221974Y178875D01*
X222011Y178722D01*
X222071Y178577D01*
X222153Y178442D01*
X222256Y178323D01*
X222375Y178220D01*
X222510Y178138D01*
X222655Y178078D01*
X222808Y178041D01*
X222965Y178032D01*
X226074Y178041D01*
X226227Y178078D01*
X226372Y178138D01*
X226507Y178220D01*
X226626Y178323D01*
X226729Y178442D01*
X226811Y178577D01*
X226871Y178722D01*
X226908Y178875D01*
X226917Y179032D01*
X226913Y180707D01*
X226927Y180765D01*
X226946Y181000D01*
X226927Y181235D01*
X226912Y181299D01*
X226908Y183125D01*
X226871Y183278D01*
X226811Y183423D01*
X226729Y183558D01*
X226626Y183677D01*
X226507Y183780D01*
X226372Y183862D01*
X226227Y183922D01*
X226074Y183959D01*
X225917Y183968D01*
G37*
G36*
X213748Y172500D02*X182500D01*
Y223030D01*
X182514Y223014D01*
X182849Y222728D01*
X183225Y222497D01*
X183632Y222329D01*
X184061Y222226D01*
X184500Y222191D01*
X184939Y222226D01*
X185368Y222329D01*
X185775Y222497D01*
X186151Y222728D01*
X186486Y223014D01*
X186772Y223349D01*
X187000Y223721D01*
X187228Y223349D01*
X187514Y223014D01*
X187849Y222728D01*
X188225Y222497D01*
X188632Y222329D01*
X189061Y222226D01*
X189500Y222191D01*
X189939Y222226D01*
X190368Y222329D01*
X190775Y222497D01*
X191151Y222728D01*
X191486Y223014D01*
X191750Y223323D01*
X192014Y223014D01*
X192349Y222728D01*
X192725Y222497D01*
X193132Y222329D01*
X193561Y222226D01*
X194000Y222191D01*
X194439Y222226D01*
X194868Y222329D01*
X195275Y222497D01*
X195651Y222728D01*
X195986Y223014D01*
X196272Y223349D01*
X196503Y223725D01*
X196638Y224051D01*
X196725Y223997D01*
X197132Y223829D01*
X197561Y223726D01*
X198000Y223691D01*
X198439Y223726D01*
X198868Y223829D01*
X199275Y223997D01*
X199651Y224228D01*
X199986Y224514D01*
X200272Y224849D01*
X200503Y225225D01*
X200671Y225632D01*
X200774Y226061D01*
X200800Y226500D01*
X200774Y226939D01*
X200671Y227368D01*
X200503Y227775D01*
X200272Y228151D01*
X200183Y228255D01*
X200486Y228514D01*
X200772Y228849D01*
X201003Y229225D01*
X201171Y229632D01*
X201274Y230061D01*
X201300Y230500D01*
X201274Y230939D01*
X201171Y231368D01*
X201003Y231775D01*
X200772Y232151D01*
X200486Y232486D01*
X200183Y232745D01*
X200272Y232849D01*
X200503Y233225D01*
X200671Y233632D01*
X200774Y234061D01*
X200800Y234500D01*
X200774Y234939D01*
X200671Y235368D01*
X200503Y235775D01*
X200272Y236151D01*
X199986Y236486D01*
X199651Y236772D01*
X199275Y237003D01*
X198868Y237171D01*
X198439Y237274D01*
X198000Y237309D01*
X197561Y237274D01*
X197132Y237171D01*
X196725Y237003D01*
X196638Y236949D01*
X196503Y237275D01*
X196272Y237651D01*
X195986Y237986D01*
X195651Y238272D01*
X195275Y238503D01*
X194868Y238671D01*
X194439Y238774D01*
X194000Y238809D01*
X193561Y238774D01*
X193132Y238671D01*
X192725Y238503D01*
X192349Y238272D01*
X192014Y237986D01*
X191750Y237677D01*
X191486Y237986D01*
X191151Y238272D01*
X190775Y238503D01*
X190368Y238671D01*
X189939Y238774D01*
X189500Y238809D01*
X189061Y238774D01*
X188632Y238671D01*
X188225Y238503D01*
X187849Y238272D01*
X187514Y237986D01*
X187228Y237651D01*
X187000Y237279D01*
X186772Y237651D01*
X186486Y237986D01*
X186151Y238272D01*
X185775Y238503D01*
X185368Y238671D01*
X184939Y238774D01*
X184500Y238809D01*
X184061Y238774D01*
X183632Y238671D01*
X183225Y238503D01*
X182849Y238272D01*
X182514Y237986D01*
X182500Y237970D01*
Y280441D01*
X182514Y280265D01*
X182569Y280035D01*
X182659Y279817D01*
X182783Y279616D01*
X182936Y279436D01*
X182981Y279398D01*
X196303Y266075D01*
X196342Y266031D01*
X196521Y265877D01*
X196722Y265754D01*
X196941Y265664D01*
X197170Y265608D01*
X197406Y265590D01*
X197464Y265594D01*
X212447D01*
X212225Y265503D01*
X211849Y265272D01*
X211514Y264986D01*
X211228Y264651D01*
X210997Y264275D01*
X210829Y263868D01*
X210726Y263439D01*
X210691Y263000D01*
X210726Y262561D01*
X210829Y262132D01*
X210997Y261725D01*
X211228Y261349D01*
X211514Y261014D01*
X211849Y260728D01*
X212225Y260497D01*
X212632Y260329D01*
X213061Y260226D01*
X213500Y260191D01*
X213748Y260211D01*
Y257675D01*
X213728Y257651D01*
X213497Y257275D01*
X213329Y256868D01*
X213226Y256439D01*
X213191Y256000D01*
X213226Y255561D01*
X213329Y255132D01*
X213497Y254725D01*
X213728Y254349D01*
X213748Y254325D01*
Y240137D01*
X208079Y240132D01*
X207926Y240096D01*
X207781Y240035D01*
X207647Y239953D01*
X207527Y239851D01*
X207425Y239731D01*
X207342Y239597D01*
X207282Y239452D01*
X207245Y239299D01*
X207236Y239142D01*
X207245Y230717D01*
X207282Y230564D01*
X207342Y230419D01*
X207425Y230284D01*
X207527Y230165D01*
X207647Y230063D01*
X207781Y229980D01*
X207926Y229920D01*
X208079Y229883D01*
X208236Y229874D01*
X213748Y229879D01*
Y172500D01*
G37*
G36*
X300000Y273000D02*Y244500D01*
X278500D01*
Y262000D01*
X281500Y265000D01*
X285500D01*
Y274500D01*
X290000D01*
Y278000D01*
X295000D01*
X300000Y273000D01*
G37*
G36*
X327500Y140000D02*X256500D01*
Y175000D01*
X277500D01*
Y177000D01*
X321000D01*
X322000Y176000D01*
X327500D01*
Y140000D01*
G37*
G36*
X277000Y189577D02*Y208000D01*
X292500D01*
Y202865D01*
X292275Y203003D01*
X291868Y203171D01*
X291439Y203274D01*
X291000Y203309D01*
X290561Y203274D01*
X290132Y203171D01*
X289725Y203003D01*
X289349Y202772D01*
X289014Y202486D01*
X288728Y202151D01*
X288497Y201775D01*
X288329Y201368D01*
X288226Y200939D01*
X288191Y200500D01*
X288226Y200061D01*
X288329Y199632D01*
X288497Y199225D01*
X288728Y198849D01*
X289014Y198514D01*
X289349Y198228D01*
X289725Y197997D01*
X290132Y197829D01*
X290561Y197726D01*
X291000Y197691D01*
X291439Y197726D01*
X291868Y197829D01*
X292275Y197997D01*
X292651Y198228D01*
X292986Y198514D01*
X293272Y198849D01*
X293503Y199225D01*
X293671Y199632D01*
X293709Y199791D01*
X294000Y199500D01*
X296032D01*
X296041Y196426D01*
X296078Y196273D01*
X296138Y196128D01*
X296220Y195993D01*
X296323Y195874D01*
X296442Y195771D01*
X296577Y195689D01*
X296722Y195629D01*
X296875Y195592D01*
X297000Y195585D01*
Y195408D01*
X296875Y195408D01*
X296722Y195371D01*
X296577Y195311D01*
X296442Y195229D01*
X296323Y195126D01*
X296220Y195007D01*
X296138Y194872D01*
X296078Y194727D01*
X296041Y194574D01*
X296032Y194417D01*
X296041Y191308D01*
X296078Y191155D01*
X296138Y191010D01*
X296220Y190875D01*
X296323Y190756D01*
X296442Y190653D01*
X296577Y190571D01*
X296722Y190511D01*
X296875Y190474D01*
X297000Y190467D01*
Y186750D01*
X282725D01*
X280689Y188786D01*
X280868Y188829D01*
X281275Y188997D01*
X281651Y189228D01*
X281986Y189514D01*
X282272Y189849D01*
X282503Y190225D01*
X282671Y190632D01*
X282774Y191061D01*
X282800Y191500D01*
X282774Y191939D01*
X282671Y192368D01*
X282503Y192775D01*
X282272Y193151D01*
X281986Y193486D01*
X281651Y193772D01*
X281275Y194003D01*
X280868Y194171D01*
X280439Y194274D01*
X280000Y194309D01*
X279561Y194274D01*
X279132Y194171D01*
X278725Y194003D01*
X278349Y193772D01*
X278014Y193486D01*
X277728Y193151D01*
X277497Y192775D01*
X277329Y192368D01*
X277226Y191939D01*
X277191Y191500D01*
X277226Y191061D01*
X277329Y190632D01*
X277497Y190225D01*
X277728Y189849D01*
X277960Y189577D01*
X277000D01*
G37*
G36*
X335000Y349500D02*X328500D01*
Y385000D01*
X330000Y386500D01*
X388000D01*
Y348500D01*
X336000D01*
X335000Y349500D01*
G37*
G36*
X364000Y311500D02*Y330000D01*
X376000D01*
Y311500D01*
X364000D01*
G37*
G36*
X327500Y453000D02*Y410000D01*
X294500D01*
X293500Y411000D01*
Y418500D01*
X256500D01*
Y453000D01*
X327500D01*
G37*
G36*
X369000Y431000D02*X388000D01*
Y386500D01*
X350500D01*
Y418500D01*
X334500D01*
X334000Y419000D01*
X328500D01*
Y453000D01*
X369000D01*
Y431000D01*
G37*
G36*
X388000Y432000D02*X370000D01*
Y453000D01*
X385000D01*
X388000Y450000D01*
Y432000D01*
G37*
G36*
X277000Y399077D02*Y417500D01*
X292500D01*
Y412365D01*
X292275Y412503D01*
X291868Y412671D01*
X291439Y412774D01*
X291000Y412809D01*
X290561Y412774D01*
X290132Y412671D01*
X289725Y412503D01*
X289349Y412272D01*
X289014Y411986D01*
X288728Y411651D01*
X288497Y411275D01*
X288329Y410868D01*
X288226Y410439D01*
X288191Y410000D01*
X288226Y409561D01*
X288329Y409132D01*
X288497Y408725D01*
X288728Y408349D01*
X289014Y408014D01*
X289349Y407728D01*
X289725Y407497D01*
X290132Y407329D01*
X290561Y407226D01*
X291000Y407191D01*
X291439Y407226D01*
X291868Y407329D01*
X292275Y407497D01*
X292651Y407728D01*
X292986Y408014D01*
X293272Y408349D01*
X293503Y408725D01*
X293671Y409132D01*
X293709Y409291D01*
X294000Y409000D01*
X296032D01*
X296041Y405926D01*
X296078Y405773D01*
X296138Y405628D01*
X296220Y405493D01*
X296323Y405374D01*
X296442Y405271D01*
X296577Y405189D01*
X296722Y405129D01*
X296875Y405092D01*
X297000Y405085D01*
Y404908D01*
X296875Y404908D01*
X296722Y404871D01*
X296577Y404811D01*
X296442Y404729D01*
X296323Y404626D01*
X296220Y404507D01*
X296138Y404372D01*
X296078Y404227D01*
X296041Y404074D01*
X296032Y403917D01*
X296041Y400808D01*
X296078Y400655D01*
X296138Y400510D01*
X296220Y400375D01*
X296323Y400256D01*
X296442Y400153D01*
X296577Y400071D01*
X296722Y400011D01*
X296875Y399974D01*
X297000Y399967D01*
Y396250D01*
X282725D01*
X280689Y398286D01*
X280868Y398329D01*
X281275Y398497D01*
X281651Y398728D01*
X281986Y399014D01*
X282272Y399349D01*
X282503Y399725D01*
X282671Y400132D01*
X282774Y400561D01*
X282800Y401000D01*
X282774Y401439D01*
X282671Y401868D01*
X282503Y402275D01*
X282272Y402651D01*
X281986Y402986D01*
X281651Y403272D01*
X281275Y403503D01*
X280868Y403671D01*
X280439Y403774D01*
X280000Y403809D01*
X279561Y403774D01*
X279132Y403671D01*
X278725Y403503D01*
X278349Y403272D01*
X278014Y402986D01*
X277728Y402651D01*
X277497Y402275D01*
X277329Y401868D01*
X277226Y401439D01*
X277191Y401000D01*
X277226Y400561D01*
X277329Y400132D01*
X277497Y399725D01*
X277728Y399349D01*
X277960Y399077D01*
X277000D01*
G37*
G36*
X327500Y349500D02*X256500D01*
Y384500D01*
X277500D01*
Y386500D01*
X321000D01*
X322000Y385500D01*
X327500D01*
Y349500D01*
G37*
G36*
X300500Y292000D02*X289500D01*
Y308500D01*
X304000D01*
Y302000D01*
X301500Y299500D01*
Y293000D01*
X300500Y292000D01*
G37*
G36*
X312000Y280000D02*X299000D01*
X293500Y285500D01*
Y291000D01*
X301000D01*
X302500Y292500D01*
Y298500D01*
X305000Y301000D01*
Y332500D01*
X312000D01*
X318500Y326000D01*
X338000D01*
X341500Y322500D01*
Y303000D01*
X337500D01*
Y312000D01*
X317500D01*
X315000Y309500D01*
Y306000D01*
X318000Y303000D01*
X320000D01*
Y296000D01*
X317500Y293500D01*
X314000D01*
X312000Y291500D01*
Y280000D01*
G37*
G36*
X332000Y282000D02*Y276000D01*
X329500Y273500D01*
X318000D01*
X313000Y278500D01*
Y290500D01*
X315000Y292500D01*
X318500D01*
X321000Y295000D01*
Y301000D01*
X326000D01*
Y288000D01*
X332000Y282000D01*
G37*
G36*
X326000Y327500D02*X319500D01*
X313000Y334000D01*
X307000D01*
X302500Y338500D01*
X289500D01*
Y345500D01*
X305500D01*
X310000Y341000D01*
X325500D01*
Y336500D01*
X326000Y336000D01*
Y327500D01*
G37*
G36*
X364000Y289500D02*Y308000D01*
X376000D01*
Y289500D01*
X364000D01*
G37*
G36*
X370000Y337500D02*X388000D01*
Y273000D01*
X385121D01*
X381602Y276519D01*
X381564Y276564D01*
X381384Y276717D01*
X381183Y276841D01*
X380965Y276931D01*
X380735Y276986D01*
X380500Y277005D01*
X380441Y277000D01*
X370000D01*
Y289753D01*
X375078Y289757D01*
X375231Y289794D01*
X375377Y289854D01*
X375511Y289937D01*
X375631Y290039D01*
X375733Y290158D01*
X375815Y290293D01*
X375875Y290438D01*
X375912Y290591D01*
X375921Y290748D01*
X375912Y306653D01*
X375875Y306806D01*
X375815Y306951D01*
X375733Y307086D01*
X375631Y307205D01*
X375511Y307308D01*
X375377Y307390D01*
X375231Y307450D01*
X375078Y307487D01*
X374921Y307496D01*
X370000Y307492D01*
Y312008D01*
X375078Y312013D01*
X375231Y312050D01*
X375377Y312110D01*
X375511Y312192D01*
X375631Y312295D01*
X375733Y312414D01*
X375815Y312549D01*
X375875Y312694D01*
X375912Y312847D01*
X375921Y313004D01*
X375912Y328909D01*
X375875Y329062D01*
X375815Y329207D01*
X375733Y329342D01*
X375631Y329461D01*
X375511Y329563D01*
X375377Y329646D01*
X375231Y329706D01*
X375078Y329743D01*
X374921Y329752D01*
X370000Y329747D01*
Y337500D01*
G37*
G36*
X304740Y262650D02*X304749Y256193D01*
X304786Y256040D01*
X304846Y255895D01*
X304929Y255761D01*
X304960Y255724D01*
X304500Y255760D01*
X303990Y255720D01*
X303800Y255674D01*
X303750Y255725D01*
Y274431D01*
X303755Y274500D01*
X303734Y274774D01*
X303734Y274775D01*
X303669Y275042D01*
X303564Y275297D01*
X303420Y275532D01*
X303241Y275741D01*
X303189Y275786D01*
X302030Y276945D01*
X302000Y279000D01*
X310500D01*
X317000Y272500D01*
X330500D01*
X333000Y275000D01*
Y297135D01*
X333225Y296997D01*
X333632Y296829D01*
X334061Y296726D01*
X334500Y296691D01*
X334939Y296726D01*
X335368Y296829D01*
X335775Y296997D01*
X336151Y297228D01*
X336486Y297514D01*
X336772Y297849D01*
X337003Y298225D01*
X337171Y298632D01*
X337274Y299061D01*
X337300Y299500D01*
X337274Y299939D01*
X337171Y300368D01*
X337003Y300775D01*
X336772Y301151D01*
X336486Y301486D01*
X336151Y301772D01*
X336000Y301865D01*
Y301941D01*
X336005Y302000D01*
X342500D01*
Y322240D01*
X342561Y322226D01*
X343000Y322191D01*
X343439Y322226D01*
X343868Y322329D01*
X344275Y322497D01*
X344651Y322728D01*
X344986Y323014D01*
X345272Y323349D01*
X345503Y323725D01*
X345671Y324132D01*
X345774Y324561D01*
X345800Y325000D01*
X345774Y325439D01*
X345671Y325868D01*
X345503Y326275D01*
X345272Y326651D01*
X344986Y326986D01*
X344651Y327272D01*
X344275Y327503D01*
X343868Y327671D01*
X343439Y327774D01*
X343000Y327809D01*
X342561Y327774D01*
X342132Y327671D01*
X341725Y327503D01*
X341349Y327272D01*
X341014Y326986D01*
X340728Y326651D01*
X340497Y326275D01*
X340329Y325868D01*
X340228Y325447D01*
X337427Y328463D01*
Y330693D01*
X337411Y330968D01*
X337347Y331235D01*
X337300Y331349D01*
X337297Y334207D01*
X337500Y334191D01*
X337939Y334226D01*
X338368Y334329D01*
X338775Y334497D01*
X339151Y334728D01*
X339486Y335014D01*
X339772Y335349D01*
X340003Y335725D01*
X340171Y336132D01*
X340274Y336561D01*
X340300Y337000D01*
X340274Y337439D01*
X340260Y337500D01*
X370000D01*
Y329747D01*
X364922Y329743D01*
X364769Y329706D01*
X364623Y329646D01*
X364489Y329563D01*
X364369Y329461D01*
X364267Y329342D01*
X364185Y329207D01*
X364125Y329062D01*
X364088Y328909D01*
X364079Y328752D01*
X364088Y312847D01*
X364125Y312694D01*
X364185Y312549D01*
X364267Y312414D01*
X364369Y312295D01*
X364489Y312192D01*
X364623Y312110D01*
X364769Y312050D01*
X364922Y312013D01*
X365079Y312004D01*
X370000Y312008D01*
Y307492D01*
X364922Y307487D01*
X364769Y307450D01*
X364623Y307390D01*
X364489Y307308D01*
X364369Y307205D01*
X364267Y307086D01*
X364185Y306951D01*
X364125Y306806D01*
X364088Y306653D01*
X364079Y306496D01*
X364088Y290591D01*
X364125Y290438D01*
X364185Y290293D01*
X364267Y290158D01*
X364369Y290039D01*
X364489Y289937D01*
X364623Y289854D01*
X364769Y289794D01*
X364922Y289757D01*
X365079Y289748D01*
X370000Y289753D01*
Y277000D01*
X351059D01*
X351000Y277005D01*
X350765Y276986D01*
X350535Y276931D01*
X350317Y276841D01*
X350116Y276717D01*
X350115Y276717D01*
X349936Y276564D01*
X349898Y276519D01*
X345981Y272602D01*
X345936Y272564D01*
X345783Y272384D01*
X345659Y272183D01*
X345569Y271965D01*
X345514Y271735D01*
X345514Y271735D01*
X345495Y271500D01*
X345500Y271441D01*
Y270636D01*
X345405Y270694D01*
X345260Y270754D01*
X345107Y270791D01*
X344950Y270800D01*
X334893Y270791D01*
X334740Y270754D01*
X334595Y270694D01*
X334460Y270612D01*
X334341Y270509D01*
X334238Y270390D01*
X334156Y270255D01*
X334096Y270110D01*
X334059Y269957D01*
X334050Y269800D01*
X334059Y259743D01*
X334096Y259590D01*
X334133Y259500D01*
X333059D01*
X333000Y259505D01*
X332765Y259486D01*
X332535Y259431D01*
X332317Y259341D01*
X332116Y259217D01*
X332115Y259217D01*
X331936Y259064D01*
X331898Y259019D01*
X323611Y250733D01*
X323439Y250774D01*
X323000Y250809D01*
X322561Y250774D01*
X322132Y250671D01*
X321725Y250503D01*
X321349Y250272D01*
X321014Y249986D01*
X320728Y249651D01*
X320497Y249275D01*
X320329Y248868D01*
X320226Y248439D01*
X320191Y248000D01*
X320226Y247561D01*
X320329Y247132D01*
X320497Y246725D01*
X320728Y246349D01*
X321014Y246014D01*
X321349Y245728D01*
X321725Y245497D01*
X322132Y245329D01*
X322561Y245226D01*
X323000Y245191D01*
X323439Y245226D01*
X323868Y245329D01*
X324275Y245497D01*
X324651Y245728D01*
X324779Y245838D01*
X324829Y245632D01*
X324997Y245225D01*
X325228Y244849D01*
X325514Y244514D01*
X325530Y244500D01*
X302500D01*
X302420Y250002D01*
X302584Y249863D01*
X303020Y249595D01*
X303493Y249400D01*
X303990Y249280D01*
X304500Y249240D01*
X305010Y249280D01*
X305507Y249400D01*
X305980Y249595D01*
X306416Y249863D01*
X306805Y250195D01*
X307137Y250584D01*
X307405Y251020D01*
X307600Y251493D01*
X307720Y251990D01*
X307750Y252500D01*
X307720Y253010D01*
X307600Y253507D01*
X307405Y253980D01*
X307137Y254416D01*
X306805Y254805D01*
X306416Y255137D01*
X306068Y255351D01*
X319677Y255360D01*
X319830Y255396D01*
X319975Y255457D01*
X320109Y255539D01*
X320229Y255641D01*
X320331Y255761D01*
X320413Y255895D01*
X320474Y256040D01*
X320510Y256193D01*
X320520Y256350D01*
X320510Y262807D01*
X320474Y262960D01*
X320413Y263105D01*
X320331Y263239D01*
X320229Y263359D01*
X320109Y263461D01*
X319975Y263543D01*
X319830Y263604D01*
X319677Y263640D01*
X319520Y263650D01*
X305583Y263640D01*
X305430Y263604D01*
X305285Y263543D01*
X305151Y263461D01*
X305031Y263359D01*
X304929Y263239D01*
X304846Y263105D01*
X304786Y262960D01*
X304749Y262807D01*
X304740Y262650D01*
G37*
G36*
X345500Y259500D02*X333500D01*
Y271000D01*
X345500D01*
Y259500D01*
G37*
G36*
X369000Y34500D02*X328500D01*
Y70000D01*
X330000Y71500D01*
X388000D01*
Y56500D01*
X369000D01*
Y34500D01*
G37*
G36*
X360000Y141000D02*X388000D01*
Y71500D01*
X350500D01*
Y103500D01*
X334500D01*
X334000Y104000D01*
X328500D01*
Y140000D01*
X360000D01*
Y141000D01*
G37*
G36*
X388000Y55500D02*Y37500D01*
X385000Y34500D01*
X370000D01*
Y55500D01*
X388000D01*
G37*
G36*
X384000Y242000D02*X352500D01*
Y248500D01*
X351500Y249500D01*
Y269500D01*
X354000Y272000D01*
X377000D01*
X384000Y265000D01*
Y242000D01*
G37*
G36*
X360000Y140000D02*X328500D01*
Y175500D01*
X330000Y177000D01*
X360000D01*
Y140000D01*
G37*
G36*
X328500Y243500D02*X357000D01*
Y209500D01*
X388000D01*
Y176000D01*
X360000D01*
Y177000D01*
X350500D01*
Y209000D01*
X334500D01*
X334000Y209500D01*
X328500D01*
Y243500D01*
G37*
G36*
X357000Y209500D02*Y243500D01*
X364088D01*
X364088Y243347D01*
X364125Y243194D01*
X364185Y243049D01*
X364267Y242914D01*
X364369Y242795D01*
X364489Y242692D01*
X364623Y242610D01*
X364769Y242550D01*
X364922Y242513D01*
X365079Y242504D01*
X375078Y242513D01*
X375231Y242550D01*
X375377Y242610D01*
X375511Y242692D01*
X375631Y242795D01*
X375733Y242914D01*
X375815Y243049D01*
X375875Y243194D01*
X375912Y243347D01*
X375921Y243500D01*
X384000D01*
Y229621D01*
X381981Y227602D01*
X381936Y227564D01*
X381783Y227384D01*
X381659Y227183D01*
X381569Y226965D01*
X381514Y226735D01*
X381514Y226735D01*
X381495Y226500D01*
X381500Y226441D01*
Y215259D01*
X381132Y215171D01*
X380725Y215003D01*
X380349Y214772D01*
X380014Y214486D01*
X379728Y214151D01*
X379497Y213775D01*
X379329Y213368D01*
X379226Y212939D01*
X379191Y212500D01*
X379226Y212061D01*
X379329Y211632D01*
X379497Y211225D01*
X379728Y210849D01*
X380014Y210514D01*
X380349Y210228D01*
X380725Y209997D01*
X381132Y209829D01*
X381561Y209726D01*
X382000Y209691D01*
X382439Y209726D01*
X382868Y209829D01*
X383275Y209997D01*
X383651Y210228D01*
X383986Y210514D01*
X384272Y210849D01*
X384503Y211225D01*
X384671Y211632D01*
X384774Y212061D01*
X384800Y212500D01*
X384774Y212939D01*
X384671Y213368D01*
X384503Y213775D01*
X384500Y213779D01*
Y222135D01*
X384725Y221997D01*
X385132Y221829D01*
X385561Y221726D01*
X386000Y221691D01*
X386439Y221726D01*
X386868Y221829D01*
X387275Y221997D01*
X387651Y222228D01*
X387986Y222514D01*
X388000Y222530D01*
Y209500D01*
X357000D01*
G37*
G36*
X361000Y142000D02*Y175000D01*
X388000D01*
Y142000D01*
X361000D01*
G37*
G36*
X330500Y243500D02*Y250500D01*
X334500Y254500D01*
X351500D01*
Y249500D01*
X348500D01*
X346500Y247500D01*
Y243500D01*
X330500D01*
G37*
G36*
X234322Y402374D02*X234323Y402374D01*
X234442Y402271D01*
X234577Y402189D01*
X234722Y402129D01*
X234875Y402092D01*
X235032Y402083D01*
X239125Y402092D01*
X239278Y402129D01*
X239423Y402189D01*
X239558Y402271D01*
X239677Y402374D01*
X239780Y402493D01*
X239862Y402628D01*
X239922Y402773D01*
X239959Y402926D01*
X239968Y403083D01*
X239959Y406192D01*
X239922Y406345D01*
X239862Y406490D01*
X239780Y406625D01*
X239677Y406744D01*
X239558Y406847D01*
X239423Y406929D01*
X239278Y406989D01*
X239125Y407026D01*
X238968Y407035D01*
X236651Y407030D01*
X235244Y408436D01*
X235274Y408561D01*
X235300Y409000D01*
X235274Y409439D01*
X235171Y409868D01*
X235003Y410275D01*
X234772Y410651D01*
X234486Y410986D01*
X234151Y411272D01*
X233775Y411503D01*
X233368Y411671D01*
X232939Y411774D01*
X232500Y411809D01*
X232061Y411774D01*
X231632Y411671D01*
X231225Y411503D01*
X230849Y411272D01*
X230514Y410986D01*
X230228Y410651D01*
X229997Y410275D01*
X229829Y409868D01*
X229726Y409439D01*
X229696Y409059D01*
X228959D01*
X228959Y409192D01*
X228922Y409345D01*
X228862Y409490D01*
X228780Y409625D01*
X228677Y409744D01*
X228558Y409847D01*
X228423Y409929D01*
X228278Y409989D01*
X228125Y410026D01*
X227968Y410035D01*
X223875Y410026D01*
X223722Y409989D01*
X223577Y409929D01*
X223442Y409847D01*
X223323Y409744D01*
X223220Y409625D01*
X223138Y409490D01*
X223078Y409345D01*
X223041Y409192D01*
X223032Y409035D01*
X223041Y405926D01*
X223078Y405773D01*
X223138Y405628D01*
X223220Y405493D01*
X223323Y405374D01*
X223442Y405271D01*
X223577Y405189D01*
X223722Y405129D01*
X223875Y405092D01*
X224032Y405083D01*
X228125Y405092D01*
X228278Y405129D01*
X228423Y405189D01*
X228558Y405271D01*
X228677Y405374D01*
X228780Y405493D01*
X228862Y405628D01*
X228922Y405773D01*
X228959Y405926D01*
X228967Y406059D01*
X230172D01*
X229997Y405775D01*
X229829Y405368D01*
X229726Y404939D01*
X229691Y404500D01*
X229726Y404061D01*
X229767Y403889D01*
X228998Y403120D01*
X228971Y403088D01*
X228962Y403081D01*
X228959Y404074D01*
X228922Y404227D01*
X228862Y404372D01*
X228780Y404507D01*
X228677Y404626D01*
X228558Y404729D01*
X228423Y404811D01*
X228278Y404871D01*
X228125Y404908D01*
X227968Y404917D01*
X223875Y404908D01*
X223722Y404871D01*
X223577Y404811D01*
X223442Y404729D01*
X223323Y404626D01*
X223220Y404507D01*
X223138Y404372D01*
X223078Y404227D01*
X223041Y404074D01*
X223032Y403917D01*
X223034Y403156D01*
X221481Y401602D01*
X221436Y401564D01*
X221283Y401384D01*
X221159Y401183D01*
X221069Y400965D01*
X221014Y400735D01*
X221014Y400735D01*
X220995Y400500D01*
X221000Y400441D01*
Y393621D01*
X215481Y388102D01*
X215436Y388064D01*
X215283Y387884D01*
X215159Y387683D01*
X215069Y387465D01*
X215014Y387235D01*
X215014Y387235D01*
X214995Y387000D01*
X215000Y386941D01*
Y381309D01*
X214561Y381274D01*
X214132Y381171D01*
X213725Y381003D01*
X213349Y380772D01*
X213014Y380486D01*
X212728Y380151D01*
X212497Y379775D01*
X212329Y379368D01*
X212226Y378939D01*
X212191Y378500D01*
X212226Y378061D01*
X212329Y377632D01*
X212497Y377225D01*
X212728Y376849D01*
X213014Y376514D01*
X213349Y376228D01*
X213725Y375997D01*
X214132Y375829D01*
X214561Y375726D01*
X215000Y375691D01*
X215439Y375726D01*
X215868Y375829D01*
X216275Y375997D01*
X216651Y376228D01*
X216986Y376514D01*
X217003Y376533D01*
X217008Y354000D01*
X217000D01*
Y351121D01*
X216602Y351519D01*
X216564Y351564D01*
X216384Y351717D01*
X216183Y351841D01*
X215965Y351931D01*
X215735Y351986D01*
X215735Y351986D01*
X215500Y352005D01*
X215441Y352000D01*
X210496D01*
Y430192D01*
X210500Y430191D01*
X210939Y430226D01*
X211368Y430329D01*
X211775Y430497D01*
X212151Y430728D01*
X212486Y431014D01*
X212772Y431349D01*
X213003Y431725D01*
X213171Y432132D01*
X213274Y432561D01*
X213300Y433000D01*
X213274Y433439D01*
X213171Y433868D01*
X213003Y434275D01*
X212772Y434651D01*
X212486Y434986D01*
X212151Y435272D01*
X211775Y435503D01*
X211368Y435671D01*
X210939Y435774D01*
X210500Y435809D01*
X210496Y435808D01*
Y453000D01*
X220511D01*
X220504Y452882D01*
X220513Y410961D01*
X220550Y410808D01*
X220610Y410663D01*
X220692Y410528D01*
X220795Y410409D01*
X220914Y410307D01*
X221049Y410224D01*
X221194Y410164D01*
X221347Y410127D01*
X221504Y410118D01*
X229173Y410127D01*
X229326Y410164D01*
X229471Y410224D01*
X229606Y410307D01*
X229725Y410409D01*
X229828Y410528D01*
X229910Y410663D01*
X229970Y410808D01*
X230007Y410961D01*
X230016Y411118D01*
X230016Y412877D01*
X237443Y412882D01*
X237443Y411749D01*
X237480Y411596D01*
X237540Y411450D01*
X237622Y411316D01*
X237724Y411196D01*
X237844Y411094D01*
X237978Y411012D01*
X238124Y410952D01*
X238277Y410915D01*
X238434Y410906D01*
X244572Y410909D01*
X244349Y410772D01*
X244014Y410486D01*
X243728Y410151D01*
X243497Y409775D01*
X243329Y409368D01*
X243226Y408939D01*
X243191Y408500D01*
X243226Y408061D01*
X243329Y407632D01*
X243497Y407225D01*
X243728Y406849D01*
X243971Y406565D01*
X243965Y406468D01*
X243974Y402375D01*
X244011Y402222D01*
X244071Y402077D01*
X244153Y401942D01*
X244250Y401829D01*
Y401171D01*
X244153Y401058D01*
X244071Y400923D01*
X244011Y400778D01*
X243974Y400625D01*
X243965Y400468D01*
X243974Y396439D01*
X243728Y396151D01*
X243497Y395775D01*
X243329Y395368D01*
X243226Y394939D01*
X243191Y394500D01*
X243226Y394061D01*
X243329Y393632D01*
X243497Y393225D01*
X243728Y392849D01*
X244014Y392514D01*
X244349Y392228D01*
X244725Y391997D01*
X245132Y391829D01*
X245561Y391726D01*
X246000Y391691D01*
X246439Y391726D01*
X246868Y391829D01*
X247275Y391997D01*
X247651Y392228D01*
X247986Y392514D01*
X248272Y392849D01*
X248346Y392969D01*
X248372Y392906D01*
X248660Y392436D01*
X249017Y392017D01*
X249436Y391660D01*
X249906Y391372D01*
X250415Y391161D01*
X250951Y391032D01*
X251500Y390989D01*
X252049Y391032D01*
X252585Y391161D01*
X253094Y391372D01*
X253564Y391660D01*
X253983Y392017D01*
X254040Y392085D01*
X254041Y391808D01*
X254078Y391655D01*
X254138Y391510D01*
X254220Y391375D01*
X254323Y391256D01*
X254442Y391153D01*
X254577Y391071D01*
X254722Y391011D01*
X254875Y390974D01*
X255032Y390965D01*
X255500Y390966D01*
Y387366D01*
X255455Y387394D01*
X255310Y387454D01*
X255157Y387491D01*
X255000Y387500D01*
X237714Y387496D01*
X237778Y387511D01*
X237923Y387571D01*
X238058Y387653D01*
X238177Y387756D01*
X238280Y387875D01*
X238362Y388010D01*
X238422Y388155D01*
X238459Y388308D01*
X238468Y388465D01*
X238459Y391574D01*
X238422Y391727D01*
X238362Y391872D01*
X238280Y392007D01*
X238177Y392126D01*
X238058Y392229D01*
X237923Y392311D01*
X237778Y392371D01*
X237625Y392408D01*
X237468Y392417D01*
X233375Y392408D01*
X233222Y392371D01*
X233077Y392311D01*
X233027Y392280D01*
X233026Y392625D01*
X232999Y392737D01*
X233077Y392689D01*
X233222Y392629D01*
X233375Y392592D01*
X233532Y392583D01*
X237625Y392592D01*
X237778Y392629D01*
X237923Y392689D01*
X238058Y392771D01*
X238177Y392874D01*
X238280Y392993D01*
X238362Y393128D01*
X238422Y393273D01*
X238459Y393426D01*
X238468Y393583D01*
X238459Y396692D01*
X238422Y396845D01*
X238369Y396973D01*
X239125Y396974D01*
X239278Y397011D01*
X239423Y397071D01*
X239558Y397153D01*
X239677Y397256D01*
X239780Y397375D01*
X239862Y397510D01*
X239922Y397655D01*
X239959Y397808D01*
X239968Y397965D01*
X239959Y401074D01*
X239922Y401227D01*
X239862Y401372D01*
X239780Y401507D01*
X239677Y401626D01*
X239558Y401729D01*
X239423Y401811D01*
X239278Y401871D01*
X239125Y401908D01*
X238968Y401917D01*
X234875Y401908D01*
X234722Y401871D01*
X234577Y401811D01*
X234442Y401729D01*
X234323Y401626D01*
X234220Y401507D01*
X234138Y401372D01*
X234078Y401227D01*
X234047Y401097D01*
X233868Y401171D01*
X233439Y401274D01*
X233000Y401309D01*
X232561Y401274D01*
X232132Y401171D01*
X231725Y401003D01*
X231349Y400772D01*
X231014Y400486D01*
X231000Y400470D01*
Y400879D01*
X231061Y400939D01*
X231088Y400971D01*
X231120Y400998D01*
X231889Y401767D01*
X232061Y401726D01*
X232500Y401691D01*
X232939Y401726D01*
X233368Y401829D01*
X233775Y401997D01*
X234151Y402228D01*
X234322Y402374D01*
G37*
G36*
X210496Y352000D02*X204996D01*
Y361757D01*
X205578Y361757D01*
X205731Y361794D01*
X205877Y361854D01*
X206011Y361937D01*
X206131Y362039D01*
X206233Y362158D01*
X206315Y362293D01*
X206375Y362438D01*
X206412Y362591D01*
X206421Y362748D01*
X206412Y378653D01*
X206375Y378806D01*
X206315Y378951D01*
X206233Y379086D01*
X206131Y379205D01*
X206011Y379308D01*
X205877Y379390D01*
X205731Y379450D01*
X205578Y379487D01*
X205421Y379496D01*
X204996Y379496D01*
Y431692D01*
X205000Y431691D01*
X205439Y431726D01*
X205868Y431829D01*
X206275Y431997D01*
X206651Y432228D01*
X206986Y432514D01*
X207272Y432849D01*
X207503Y433225D01*
X207671Y433632D01*
X207774Y434061D01*
X207800Y434500D01*
X207774Y434939D01*
X207671Y435368D01*
X207503Y435775D01*
X207272Y436151D01*
X206986Y436486D01*
X206651Y436772D01*
X206275Y437003D01*
X205868Y437171D01*
X205439Y437274D01*
X205000Y437309D01*
X204996Y437308D01*
Y438192D01*
X205000Y438191D01*
X205439Y438226D01*
X205868Y438329D01*
X206275Y438497D01*
X206651Y438728D01*
X206986Y439014D01*
X207272Y439349D01*
X207503Y439725D01*
X207671Y440132D01*
X207774Y440561D01*
X207800Y441000D01*
X207774Y441439D01*
X207671Y441868D01*
X207503Y442275D01*
X207272Y442651D01*
X206986Y442986D01*
X206651Y443272D01*
X206275Y443503D01*
X205868Y443671D01*
X205439Y443774D01*
X205000Y443809D01*
X204996Y443808D01*
Y453000D01*
X210496D01*
Y435808D01*
X210061Y435774D01*
X209632Y435671D01*
X209225Y435503D01*
X208849Y435272D01*
X208514Y434986D01*
X208228Y434651D01*
X207997Y434275D01*
X207829Y433868D01*
X207726Y433439D01*
X207691Y433000D01*
X207726Y432561D01*
X207829Y432132D01*
X207997Y431725D01*
X208228Y431349D01*
X208514Y431014D01*
X208849Y430728D01*
X209225Y430497D01*
X209632Y430329D01*
X210061Y430226D01*
X210496Y430192D01*
Y352000D01*
G37*
G36*
X204996Y379496D02*X200500Y379492D01*
Y434721D01*
X200503Y434725D01*
X200671Y435132D01*
X200774Y435561D01*
X200800Y436000D01*
X200774Y436439D01*
X200671Y436868D01*
X200503Y437275D01*
X200500Y437279D01*
Y441221D01*
X200503Y441225D01*
X200671Y441632D01*
X200774Y442061D01*
X200800Y442500D01*
X200774Y442939D01*
X200671Y443368D01*
X200503Y443775D01*
X200500Y443779D01*
Y453000D01*
X204996D01*
Y443808D01*
X204561Y443774D01*
X204132Y443671D01*
X203725Y443503D01*
X203349Y443272D01*
X203014Y442986D01*
X202728Y442651D01*
X202497Y442275D01*
X202329Y441868D01*
X202226Y441439D01*
X202191Y441000D01*
X202226Y440561D01*
X202329Y440132D01*
X202497Y439725D01*
X202728Y439349D01*
X203014Y439014D01*
X203349Y438728D01*
X203725Y438497D01*
X204132Y438329D01*
X204561Y438226D01*
X204996Y438192D01*
Y437308D01*
X204561Y437274D01*
X204132Y437171D01*
X203725Y437003D01*
X203349Y436772D01*
X203014Y436486D01*
X202728Y436151D01*
X202497Y435775D01*
X202329Y435368D01*
X202226Y434939D01*
X202191Y434500D01*
X202226Y434061D01*
X202329Y433632D01*
X202497Y433225D01*
X202728Y432849D01*
X203014Y432514D01*
X203349Y432228D01*
X203725Y431997D01*
X204132Y431829D01*
X204561Y431726D01*
X204996Y431692D01*
Y379496D01*
G37*
G36*
Y352000D02*X200500D01*
Y361753D01*
X204996Y361757D01*
Y352000D01*
G37*
G36*
X200500D02*X194559D01*
X194500Y352005D01*
X194265Y351986D01*
X194035Y351931D01*
X193817Y351841D01*
X193616Y351717D01*
X193615Y351717D01*
X193436Y351564D01*
X193398Y351519D01*
X189996Y348117D01*
Y437192D01*
X190000Y437191D01*
X190439Y437226D01*
X190868Y437329D01*
X191275Y437497D01*
X191651Y437728D01*
X191986Y438014D01*
X192272Y438349D01*
X192503Y438725D01*
X192671Y439132D01*
X192774Y439561D01*
X192800Y440000D01*
X192774Y440439D01*
X192671Y440868D01*
X192503Y441275D01*
X192272Y441651D01*
X191986Y441986D01*
X191651Y442272D01*
X191275Y442503D01*
X190868Y442671D01*
X190439Y442774D01*
X190000Y442809D01*
X189996Y442808D01*
Y453000D01*
X200500D01*
Y443779D01*
X200272Y444151D01*
X199986Y444486D01*
X199651Y444772D01*
X199275Y445003D01*
X198868Y445171D01*
X198439Y445274D01*
X198000Y445309D01*
X197561Y445274D01*
X197132Y445171D01*
X196725Y445003D01*
X196349Y444772D01*
X196014Y444486D01*
X195728Y444151D01*
X195497Y443775D01*
X195329Y443368D01*
X195226Y442939D01*
X195191Y442500D01*
X195226Y442061D01*
X195329Y441632D01*
X195497Y441225D01*
X195728Y440849D01*
X196014Y440514D01*
X196349Y440228D01*
X196725Y439997D01*
X197132Y439829D01*
X197561Y439726D01*
X198000Y439691D01*
X198439Y439726D01*
X198868Y439829D01*
X199275Y439997D01*
X199651Y440228D01*
X199986Y440514D01*
X200272Y440849D01*
X200500Y441221D01*
Y437279D01*
X200272Y437651D01*
X199986Y437986D01*
X199651Y438272D01*
X199275Y438503D01*
X198868Y438671D01*
X198439Y438774D01*
X198000Y438809D01*
X197561Y438774D01*
X197132Y438671D01*
X196725Y438503D01*
X196349Y438272D01*
X196014Y437986D01*
X195728Y437651D01*
X195497Y437275D01*
X195329Y436868D01*
X195226Y436439D01*
X195191Y436000D01*
X195226Y435561D01*
X195329Y435132D01*
X195497Y434725D01*
X195728Y434349D01*
X196014Y434014D01*
X196349Y433728D01*
X196725Y433497D01*
X197132Y433329D01*
X197561Y433226D01*
X198000Y433191D01*
X198439Y433226D01*
X198868Y433329D01*
X199275Y433497D01*
X199651Y433728D01*
X199986Y434014D01*
X200272Y434349D01*
X200500Y434721D01*
Y379492D01*
X195422Y379487D01*
X195269Y379450D01*
X195123Y379390D01*
X194989Y379308D01*
X194869Y379205D01*
X194767Y379086D01*
X194685Y378951D01*
X194625Y378806D01*
X194588Y378653D01*
X194579Y378496D01*
X194588Y362591D01*
X194625Y362438D01*
X194685Y362293D01*
X194767Y362158D01*
X194869Y362039D01*
X194989Y361937D01*
X195123Y361854D01*
X195269Y361794D01*
X195422Y361757D01*
X195579Y361748D01*
X200500Y361753D01*
Y352000D01*
G37*
G36*
X189996Y348117D02*X186996Y345117D01*
Y425192D01*
X187000Y425191D01*
X187439Y425226D01*
X187868Y425329D01*
X188275Y425497D01*
X188651Y425728D01*
X188986Y426014D01*
X189272Y426349D01*
X189503Y426725D01*
X189671Y427132D01*
X189774Y427561D01*
X189800Y428000D01*
X189774Y428439D01*
X189671Y428868D01*
X189503Y429275D01*
X189272Y429651D01*
X188986Y429986D01*
X188651Y430272D01*
X188275Y430503D01*
X187868Y430671D01*
X187439Y430774D01*
X187000Y430809D01*
X186996Y430808D01*
Y453000D01*
X189996D01*
Y442808D01*
X189561Y442774D01*
X189132Y442671D01*
X188725Y442503D01*
X188349Y442272D01*
X188014Y441986D01*
X187728Y441651D01*
X187497Y441275D01*
X187329Y440868D01*
X187226Y440439D01*
X187191Y440000D01*
X187226Y439561D01*
X187329Y439132D01*
X187497Y438725D01*
X187728Y438349D01*
X188014Y438014D01*
X188349Y437728D01*
X188725Y437497D01*
X189132Y437329D01*
X189561Y437226D01*
X189996Y437192D01*
Y348117D01*
G37*
G36*
X186996Y345117D02*X182981Y341102D01*
X182936Y341064D01*
X182783Y340884D01*
X182659Y340683D01*
X182569Y340465D01*
X182514Y340235D01*
X182514Y340235D01*
X182500Y340059D01*
Y450000D01*
X185500Y453000D01*
X186996D01*
Y430808D01*
X186561Y430774D01*
X186132Y430671D01*
X185725Y430503D01*
X185349Y430272D01*
X185014Y429986D01*
X184728Y429651D01*
X184497Y429275D01*
X184329Y428868D01*
X184226Y428439D01*
X184191Y428000D01*
X184226Y427561D01*
X184329Y427132D01*
X184497Y426725D01*
X184728Y426349D01*
X185014Y426014D01*
X185349Y425728D01*
X185725Y425497D01*
X186132Y425329D01*
X186561Y425226D01*
X186996Y425192D01*
Y345117D01*
G37*
G36*
X220000Y453000D02*X255500D01*
Y412000D01*
X231500D01*
X229500Y410000D01*
X220000D01*
Y453000D01*
G37*
G36*
X256000Y274000D02*X232000D01*
Y279500D01*
X233000Y280500D01*
X256000D01*
Y274000D01*
G37*
G36*
X191500Y295000D02*Y332000D01*
X195000Y335500D01*
X209500D01*
Y316500D01*
X207000D01*
Y306000D01*
X209500D01*
Y295000D01*
X206000Y291500D01*
X195000D01*
X191500Y295000D01*
G37*
G36*
X194500Y361500D02*Y380000D01*
X207000D01*
Y361500D01*
X194500D01*
G37*
G36*
X227000Y307000D02*Y322000D01*
X223500Y325500D01*
Y329500D01*
X236000D01*
Y331000D01*
X250500D01*
Y312000D01*
X242500D01*
X237500Y307000D01*
X227000D01*
G37*
G36*
X257000Y289500D02*X253000D01*
Y294000D01*
X279500D01*
Y289500D01*
X272000D01*
Y266000D01*
X259000D01*
X257000Y264000D01*
Y256500D01*
X247500D01*
X244500Y254000D01*
X234500D01*
Y259000D01*
X232500Y261000D01*
Y273000D01*
X257000D01*
Y289500D01*
G37*
G36*
X271500Y317000D02*X266500Y312000D01*
X251500D01*
Y332000D01*
X236000D01*
Y339000D01*
X224000D01*
Y346000D01*
X222000Y348000D01*
X220500D01*
X217000Y351500D01*
Y376500D01*
X218000Y377500D01*
Y386500D01*
X219000Y387500D01*
X255500D01*
Y349500D01*
X271500Y333500D01*
Y317000D01*
G37*
G36*
X327500Y138000D02*Y95000D01*
X294500D01*
X293500Y96000D01*
Y103500D01*
X256500D01*
Y138000D01*
X327500D01*
G37*
G36*
X209500Y137000D02*Y104000D01*
X182500D01*
Y137000D01*
X209500D01*
G37*
G36*
X277000Y84077D02*Y102500D01*
X292500D01*
Y97365D01*
X292275Y97503D01*
X291868Y97671D01*
X291439Y97774D01*
X291000Y97809D01*
X290561Y97774D01*
X290132Y97671D01*
X289725Y97503D01*
X289349Y97272D01*
X289014Y96986D01*
X288728Y96651D01*
X288497Y96275D01*
X288329Y95868D01*
X288226Y95439D01*
X288191Y95000D01*
X288226Y94561D01*
X288329Y94132D01*
X288497Y93725D01*
X288728Y93349D01*
X289014Y93014D01*
X289349Y92728D01*
X289725Y92497D01*
X290132Y92329D01*
X290561Y92226D01*
X291000Y92191D01*
X291439Y92226D01*
X291868Y92329D01*
X292275Y92497D01*
X292651Y92728D01*
X292986Y93014D01*
X293272Y93349D01*
X293503Y93725D01*
X293671Y94132D01*
X293709Y94291D01*
X294000Y94000D01*
X296032D01*
X296041Y90926D01*
X296078Y90773D01*
X296138Y90628D01*
X296220Y90493D01*
X296323Y90374D01*
X296442Y90271D01*
X296577Y90189D01*
X296722Y90129D01*
X296875Y90092D01*
X297000Y90085D01*
Y89908D01*
X296875Y89908D01*
X296722Y89871D01*
X296577Y89811D01*
X296442Y89729D01*
X296323Y89626D01*
X296220Y89507D01*
X296138Y89372D01*
X296078Y89227D01*
X296041Y89074D01*
X296032Y88917D01*
X296041Y85808D01*
X296078Y85655D01*
X296138Y85510D01*
X296220Y85375D01*
X296323Y85256D01*
X296442Y85153D01*
X296577Y85071D01*
X296722Y85011D01*
X296875Y84974D01*
X297000Y84967D01*
Y81250D01*
X282725D01*
X280689Y83286D01*
X280868Y83329D01*
X281275Y83497D01*
X281651Y83728D01*
X281986Y84014D01*
X282272Y84349D01*
X282503Y84725D01*
X282671Y85132D01*
X282774Y85561D01*
X282800Y86000D01*
X282774Y86439D01*
X282671Y86868D01*
X282503Y87275D01*
X282272Y87651D01*
X281986Y87986D01*
X281651Y88272D01*
X281275Y88503D01*
X280868Y88671D01*
X280439Y88774D01*
X280000Y88809D01*
X279561Y88774D01*
X279132Y88671D01*
X278725Y88503D01*
X278349Y88272D01*
X278014Y87986D01*
X277728Y87651D01*
X277497Y87275D01*
X277329Y86868D01*
X277226Y86439D01*
X277191Y86000D01*
X277226Y85561D01*
X277329Y85132D01*
X277497Y84725D01*
X277728Y84349D01*
X277960Y84077D01*
X277000D01*
G37*
G36*
X220000Y138000D02*X182500D01*
Y172500D01*
X217000D01*
Y178000D01*
X255500D01*
Y97000D01*
X231500D01*
X231000Y96500D01*
X220000D01*
Y138000D01*
G37*
G36*
X327500Y34500D02*X256500D01*
Y69500D01*
X277500D01*
Y71500D01*
X321000D01*
X322000Y70500D01*
X327500D01*
Y34500D01*
G37*
G36*
X225917Y78468D02*X225000Y78465D01*
Y81135D01*
X225151Y81228D01*
X225486Y81514D01*
X225772Y81849D01*
X226003Y82225D01*
X226171Y82632D01*
X226274Y83061D01*
X226300Y83500D01*
X226274Y83939D01*
X226171Y84368D01*
X226003Y84775D01*
X225884Y84968D01*
X228250Y84973D01*
Y78460D01*
X227926Y78459D01*
X227773Y78422D01*
X227628Y78362D01*
X227493Y78280D01*
X227374Y78177D01*
X227271Y78058D01*
X227189Y77923D01*
X227129Y77778D01*
X227092Y77625D01*
X227083Y77468D01*
X227092Y73375D01*
X227129Y73222D01*
X227189Y73077D01*
X227271Y72942D01*
X227374Y72823D01*
X227493Y72720D01*
X227628Y72638D01*
X227773Y72578D01*
X227926Y72541D01*
X228083Y72532D01*
X231192Y72541D01*
X231345Y72578D01*
X231490Y72638D01*
X231625Y72720D01*
X231744Y72823D01*
X231847Y72942D01*
X231929Y73077D01*
X231989Y73222D01*
X232026Y73375D01*
X232030Y73441D01*
X234541D01*
X234541Y73308D01*
X234578Y73155D01*
X234638Y73010D01*
X234720Y72875D01*
X234823Y72756D01*
X234942Y72653D01*
X235077Y72571D01*
X235222Y72511D01*
X235288Y72495D01*
X217843Y72491D01*
X217690Y72454D01*
X217545Y72394D01*
X217410Y72312D01*
X217291Y72209D01*
X217188Y72090D01*
X217106Y71955D01*
X217046Y71810D01*
X217009Y71657D01*
X217000Y71500D01*
X217005Y52149D01*
X203583Y52140D01*
X203430Y52104D01*
X203285Y52043D01*
X203151Y51961D01*
X203031Y51859D01*
X202929Y51739D01*
X202846Y51605D01*
X202786Y51460D01*
X202749Y51307D01*
X202740Y51150D01*
X202749Y44693D01*
X202786Y44540D01*
X202846Y44395D01*
X202929Y44261D01*
X203031Y44141D01*
X203151Y44039D01*
X203285Y43957D01*
X203430Y43896D01*
X203583Y43860D01*
X203740Y43850D01*
X217007Y43859D01*
X217009Y35343D01*
X217046Y35190D01*
X217106Y35045D01*
X217188Y34910D01*
X217291Y34791D01*
X217410Y34688D01*
X217545Y34606D01*
X217690Y34546D01*
X217843Y34509D01*
X218000Y34500D01*
X255157Y34509D01*
X255310Y34546D01*
X255455Y34606D01*
X255500Y34634D01*
Y34500D01*
X201500D01*
Y56500D01*
X182500D01*
Y103000D01*
X210500D01*
Y138000D01*
X220511D01*
X220504Y137882D01*
X220513Y95961D01*
X220532Y95884D01*
X220349Y95772D01*
X220014Y95486D01*
X219728Y95151D01*
X219497Y94775D01*
X219329Y94368D01*
X219226Y93939D01*
X219191Y93500D01*
X219226Y93061D01*
X219329Y92632D01*
X219497Y92225D01*
X219728Y91849D01*
X220014Y91514D01*
X220349Y91228D01*
X220725Y90997D01*
X221132Y90829D01*
X221561Y90726D01*
X221786Y90708D01*
X221632Y90671D01*
X221225Y90503D01*
X220849Y90272D01*
X220514Y89986D01*
X220228Y89651D01*
X219997Y89275D01*
X219829Y88868D01*
X219726Y88439D01*
X219691Y88000D01*
X219726Y87561D01*
X219829Y87132D01*
X219997Y86725D01*
X220228Y86349D01*
X220514Y86014D01*
X220849Y85728D01*
X221225Y85497D01*
X221446Y85406D01*
X221228Y85151D01*
X220997Y84775D01*
X220829Y84368D01*
X220726Y83939D01*
X220691Y83500D01*
X220726Y83061D01*
X220829Y82632D01*
X220997Y82225D01*
X221228Y81849D01*
X221514Y81514D01*
X221849Y81228D01*
X222000Y81135D01*
Y77732D01*
X221974Y77625D01*
X221965Y77468D01*
X221974Y73375D01*
X222011Y73222D01*
X222071Y73077D01*
X222153Y72942D01*
X222256Y72823D01*
X222375Y72720D01*
X222510Y72638D01*
X222655Y72578D01*
X222808Y72541D01*
X222965Y72532D01*
X226074Y72541D01*
X226227Y72578D01*
X226372Y72638D01*
X226507Y72720D01*
X226626Y72823D01*
X226729Y72942D01*
X226811Y73077D01*
X226871Y73222D01*
X226908Y73375D01*
X226917Y73532D01*
X226913Y75207D01*
X226927Y75265D01*
X226946Y75500D01*
X226927Y75735D01*
X226912Y75799D01*
X226908Y77625D01*
X226871Y77778D01*
X226811Y77923D01*
X226729Y78058D01*
X226626Y78177D01*
X226507Y78280D01*
X226372Y78362D01*
X226227Y78422D01*
X226074Y78459D01*
X225917Y78468D01*
G37*
G36*
X202500Y43500D02*Y52500D01*
X216500D01*
Y72500D01*
X255500D01*
Y34500D01*
X216500D01*
Y43500D01*
X202500D01*
G37*
G36*
X182500Y55500D02*X200500D01*
Y34500D01*
X185500D01*
X182500Y37500D01*
Y55500D01*
G37*
G54D12*X322882Y313882D02*X328000Y319000D01*
X333000D01*
X335677Y321677D02*X333000Y319000D01*
X335677Y330693D02*Y321677D01*
G54D13*X333000Y347000D02*Y343559D01*
X336000Y335500D02*X337500Y337000D01*
X334000Y335500D02*X336000D01*
X333118Y334618D02*X334000Y335500D01*
X328000Y338941D02*X328059Y339000D01*
X328000Y338941D02*Y330693D01*
X330559Y336000D02*X333000Y338441D01*
X330559Y336000D02*Y330693D01*
X333118Y334618D02*Y330693D01*
G54D12*X326000Y347500D02*X327000Y346500D01*
X322882Y313882D02*Y307307D01*
G54D13*X317000Y302500D02*X322000D01*
X322882Y303382D02*X322000Y302500D01*
G54D12*X325441Y299898D02*X323543Y298000D01*
X325441Y307307D02*Y299898D01*
G54D13*X327500Y306807D02*Y298500D01*
X322882Y307307D02*Y303382D01*
X317693Y307307D02*X317500Y307500D01*
X317693Y307307D02*X320323D01*
X327500Y298500D02*X329000Y297000D01*
X334500Y302000D02*Y299500D01*
X330559Y301559D02*X330500Y301500D01*
X333118Y303382D02*X334500Y302000D01*
X333118Y307307D02*Y303382D01*
X330559Y307307D02*Y301559D01*
X328000Y307307D02*X327500Y306807D01*
X323000Y248000D02*X333000Y258000D01*
X347000Y271500D02*Y259500D01*
X345500Y258000D01*
X333000D02*X345500D01*
X327500Y249500D02*X334000Y256000D01*
X347000D02*X334000D01*
G54D12*X325276Y186201D02*X341126D01*
X342000Y185327D01*
X343500Y180000D02*X347500Y184000D01*
Y196500D02*Y184000D01*
G54D13*X325276Y192500D02*X329000D01*
X325276Y195650D02*X325626Y196000D01*
X331000D01*
X332500Y194500D01*
Y190000D01*
G54D12*X330500Y180000D02*X343500D01*
X290574Y175418D02*X290819Y175173D01*
X305500Y185000D02*X282000D01*
X279173Y187827D01*
G54D13*X343000Y193941D02*Y190461D01*
X342000Y189461D01*
G54D12*X337000Y192059D02*Y197083D01*
X338417Y198500D02*X342941D01*
X343500Y199059D01*
Y204319D01*
X341854Y205965D01*
X337000Y197083D02*X338417Y198500D01*
X330583D02*X329000Y200083D01*
Y210500D01*
G54D13*Y192500D02*X329500Y193000D01*
X327500Y246500D02*Y249500D01*
G54D12*X329000Y210500D02*X332000Y213500D01*
X309724Y189350D02*X308850D01*
X308000Y188500D01*
X309724Y192500D02*X306500D01*
X306000Y192000D01*
X302500Y195574D02*X302926Y196000D01*
X302500Y190500D02*Y195574D01*
X299000Y198059D02*Y205000D01*
Y192941D02*X302441D01*
X302000Y274500D02*Y255000D01*
X304500Y252500D01*
X309724Y195650D02*X306424D01*
X306000Y196074D01*
Y203500D01*
X308000Y188500D02*X304500D01*
X302500Y190500D01*
X309724Y186201D02*Y182202D01*
X313574Y181500D02*Y188574D01*
X314547Y189547D01*
X309724Y182202D02*X310426Y181500D01*
Y179574D01*
X311500Y178500D01*
X318000D01*
X325276Y189350D02*X320650D01*
X325559Y181000D02*Y181441D01*
X320453Y186547D01*
Y189547D01*
X320441Y181000D02*Y180059D01*
X323000Y177500D01*
X318000Y178500D02*X320441Y180941D01*
X323000Y177500D02*X328000D01*
X330500Y180000D01*
G54D13*X386000Y224500D02*X387500Y226000D01*
X382000Y212500D02*X383000Y213500D01*
Y226500D01*
X385500Y229000D01*
X378500Y273500D02*X353500D01*
X385500Y229000D02*Y266500D01*
X378500Y273500D01*
X387500Y226000D02*Y268500D01*
X380500Y275500D01*
X351000D01*
X353500Y273500D02*X350000Y270000D01*
X351000Y275500D02*X347000Y271500D01*
Y256000D02*X350000Y259000D01*
Y270000D02*Y259000D01*
G54D12*X325276Y80701D02*X341126D01*
X342000Y79827D01*
X343500Y74500D02*X347500Y78500D01*
Y91000D02*Y78500D01*
G54D13*X325276Y87000D02*X329000D01*
X325276Y90150D02*X325626Y90500D01*
X331000D01*
X332500Y89000D01*
Y84500D01*
G54D12*X330500Y74500D02*X343500D01*
G54D13*X343000Y88441D02*Y84961D01*
X342000Y83961D01*
G54D12*X337000Y86559D02*Y91583D01*
X338417Y93000D02*X342941D01*
X343500Y93559D01*
Y98819D01*
X341854Y100465D01*
X337000Y91583D02*X338417Y93000D01*
X330583D02*X329000Y94583D01*
Y105000D01*
G54D13*Y87000D02*X329500Y87500D01*
G54D12*X329000Y105000D02*X332000Y108000D01*
X325276Y83850D02*X320650D01*
X325559Y75500D02*Y75941D01*
X320453Y81047D01*
Y84047D01*
X320441Y75500D02*Y74559D01*
X323000Y72000D01*
X318000Y73000D02*X320441Y75441D01*
X323000Y72000D02*X328000D01*
X330500Y74500D01*
X325276Y395701D02*X341126D01*
X337000Y401559D02*Y406583D01*
X341126Y395701D02*X342000Y394827D01*
G54D13*X325626Y405500D02*X331000D01*
X332500Y404000D01*
Y399500D01*
X343000Y403441D02*Y399961D01*
X342000Y398961D01*
G54D12*X343500Y389500D02*X347500Y393500D01*
Y406000D02*Y393500D01*
X325276Y398850D02*X320650D01*
G54D13*X325276Y402000D02*X329000D01*
X329500Y402500D01*
X325276Y405150D02*X325626Y405500D01*
G54D12*X320441Y390500D02*Y389559D01*
X318000Y388000D02*X320441Y390441D01*
X330500Y389500D02*X343500D01*
X320441Y389559D02*X323000Y387000D01*
X325559Y390500D02*Y390941D01*
X320453Y396047D01*
Y399047D01*
X323000Y387000D02*X328000D01*
X330500Y389500D01*
X305500Y394500D02*X282000D01*
X279173Y397327D01*
X290574Y384918D02*X290819Y384673D01*
X302500Y405074D02*X302926Y405500D01*
X302500Y400000D02*Y405074D01*
X299000Y407559D02*Y414500D01*
Y402441D02*X302441D01*
X337000Y406583D02*X338417Y408000D01*
X342941D01*
X343500Y408559D01*
X330583Y408000D02*X329000Y409583D01*
Y420000D01*
X332000Y423000D01*
X343500Y408559D02*Y413819D01*
X341854Y415465D01*
X309724Y402000D02*X306500D01*
X309724Y405150D02*X306424D01*
X306000Y405574D01*
X306500Y402000D02*X306000Y401500D01*
Y405574D02*Y413000D01*
X304500Y398000D02*X302500Y400000D01*
X309724Y398850D02*X308850D01*
X308000Y398000D01*
X304500D01*
X309724Y395701D02*Y391702D01*
X310426Y391000D01*
Y389074D01*
X311500Y388000D01*
X318000D01*
X313574Y391000D02*Y398074D01*
X314547Y399047D01*
G54D14*X251500Y408500D02*Y394500D01*
G54D12*X246000Y408500D02*Y394500D01*
X262500Y401559D02*X267382D01*
X267500D02*Y413611D01*
X269354Y415465D01*
G54D15*X259583Y408000D02*Y420417D01*
G54D13*X257000Y393441D02*X257059D01*
X257000Y398559D02*X251618D01*
X232559Y409000D02*X237000Y404559D01*
X226000Y407559D02*X231059D01*
X232500Y409000D01*
X230059Y402059D02*X232500Y404500D01*
X226000Y402441D02*X224441D01*
X222500Y393000D02*X216500Y387000D01*
Y380000D01*
X215000Y378500D01*
X224441Y402441D02*X222500Y400500D01*
Y393000D02*Y400500D01*
X235500Y389941D02*X233059D01*
X230059Y392941D01*
X225441Y392559D02*Y390500D01*
Y394941D02*X226000Y395500D01*
X225441Y392500D02*Y394941D01*
X233000Y398500D02*Y397559D01*
X235500Y395059D01*
X237000Y399441D02*X233941D01*
X233000Y398500D01*
X230000Y393000D02*X229500Y393500D01*
Y401500D01*
X230000Y402000D01*
G54D12*X258000Y382500D02*X261000Y379500D01*
G54D13*Y391500D02*X260000Y390500D01*
G54D12*X279173Y397327D02*X271673D01*
X270559Y391500D02*Y382559D01*
X271673Y396500D02*Y400673D01*
X272500Y401500D01*
X267539Y396500D02*X262559D01*
G54D13*X264941Y391500D02*X261000D01*
X257059Y393441D02*X260000Y390500D01*
G54D14*X251500Y199000D02*Y185000D01*
G54D12*X246000Y199000D02*Y185000D01*
G54D14*X251500Y93500D02*Y79500D01*
G54D12*X246000Y93500D02*Y79500D01*
G54D13*X257000Y83559D02*X251618D01*
G54D12*X267500Y192059D02*Y204111D01*
Y86559D02*Y98611D01*
X269354Y100465D01*
G54D13*X257000Y183941D02*X257059D01*
X232559Y199500D02*X237000Y195059D01*
X226000Y198059D02*X231059D01*
X232500Y199500D01*
X237000Y189941D02*X233941D01*
X233000Y189000D01*
X232500Y195000D02*X229750Y192250D01*
X237500Y185559D02*X236941Y186118D01*
X237500Y180441D02*X230559D01*
X229750Y181250D01*
X236941Y186118D02*Y189941D01*
X225441Y181000D02*X223500Y182941D01*
Y189000D01*
X229750Y192250D02*Y181250D01*
X226500Y192941D02*X223059D01*
X222500Y193500D01*
G54D12*X262500Y192059D02*X267382D01*
X258000Y173000D02*X261000Y170000D01*
X270559Y182000D02*Y173059D01*
X271673Y187000D02*Y191173D01*
X272500Y192000D01*
X267539Y187000D02*X262559D01*
X279173Y187827D02*X271673D01*
G54D13*X264941Y182000D02*X261000D01*
X260000Y181000D01*
X257059Y183941D02*X260000Y181000D01*
X232500Y89500D02*X229750Y86750D01*
X237500Y80059D02*X236941Y80618D01*
Y84441D01*
G54D12*X290574Y69918D02*X290819Y69673D01*
X270559Y76500D02*Y67559D01*
X271673Y81500D02*Y85673D01*
X272500Y86500D01*
X267539Y81500D02*X262559D01*
X262500Y86559D02*X267382D01*
X279173Y82327D02*X271673D01*
X282000Y79500D02*X279173Y82327D01*
X305500Y79500D02*X282000D01*
X299000Y92559D02*Y99500D01*
Y87441D02*X302441D01*
X309724Y83850D02*X308850D01*
X309724Y87000D02*X306500D01*
X306000Y86500D01*
Y90574D02*Y98000D01*
X308850Y83850D02*X308000Y83000D01*
X304500D01*
X302500Y85000D01*
Y90074D02*X302926Y90500D01*
X309724Y90150D02*X306424D01*
X306000Y90574D01*
X302500Y85000D02*Y90074D01*
X309724Y80701D02*Y76702D01*
X310426Y76000D01*
Y74074D01*
X311500Y73000D01*
X318000D01*
X313574Y76000D02*Y83074D01*
X314547Y84047D01*
X258000Y67500D02*X261000Y64500D01*
G54D15*X259583Y93000D02*Y105417D01*
G54D13*X264941Y76500D02*X261000D01*
X260000Y75500D01*
X257000Y78441D02*X257059D01*
X260000Y75500D01*
X232559Y94000D02*X237000Y89559D01*
Y84441D02*X233941D01*
X233000Y83500D01*
X237500Y74941D02*X230559D01*
X226000Y92559D02*X231059D01*
X229750Y86750D02*Y75750D01*
X226500Y87441D02*X223059D01*
X222500Y88000D01*
X231059Y92559D02*X232500Y94000D01*
X225441Y75500D02*X223500Y77441D01*
Y83500D01*
X230559Y74941D02*X229750Y75750D01*
G54D12*X267500Y204111D02*X269354Y205965D01*
G54D15*X259583Y198500D02*Y210917D01*
G54D13*X257000Y189059D02*X251618D01*
X250043Y287457D02*X248000Y289500D01*
X250043Y287457D02*X253083D01*
X248102Y284898D02*X248000Y285000D01*
X248102Y284898D02*X253083D01*
X223000Y247409D02*X218091D01*
X216000Y249500D01*
Y256000D01*
X223000Y251346D02*X227846D01*
X229000Y252500D01*
X223000Y255283D02*X227783D01*
X229500Y248000D02*X233000Y251500D01*
X227783Y255283D02*X229500Y257000D01*
X233000Y251500D02*Y258000D01*
X230500Y260500D01*
X227220Y259220D02*X228500Y260500D01*
X230500D02*X228500D01*
X223000Y259220D02*X227220D01*
X223000Y263157D02*X213657D01*
X216500Y277000D02*Y274500D01*
X213657Y263157D02*X213500Y263000D01*
X223000Y278906D02*X218406D01*
X216500Y277000D01*
X232500Y282000D02*X229000Y278500D01*
Y276500D01*
X227469Y274969D01*
X223000D01*
X270209Y282339D02*X270110Y282240D01*
X270209Y282339D02*X275917D01*
X288000Y283500D02*X290500Y281000D01*
G54D12*X287000Y305000D02*Y346000D01*
X288500Y347500D01*
X326000D01*
G54D13*X287059Y283500D02*X288000D01*
G54D16*X296500Y305000D02*X248000D01*
G54D12*X291500Y285000D02*Y296500D01*
Y285000D02*X302000Y274500D01*
G54D13*X290500Y281000D02*Y280441D01*
X287559Y277500D02*X290500Y280441D01*
X279280Y279780D02*X282000Y282500D01*
Y287000D02*Y282500D01*
Y287000D02*X282500Y287500D01*
X282000Y340500D02*X275000Y333500D01*
Y316500D01*
Y333500D02*Y305000D01*
X265000Y346000D02*X273000Y338000D01*
Y315500D02*Y338000D01*
X268000Y310500D02*X273000Y315500D01*
X228406Y267094D02*X229000Y266500D01*
X228969Y271031D02*X229000Y271000D01*
X228406Y267094D02*X197406D01*
X228969Y271031D02*X204469D01*
G54D12*X217000Y283000D02*X229000D01*
X217000Y294500D02*X229000D01*
G54D13*X223000Y290717D02*X208217D01*
X207500Y290000D01*
X223000Y286780D02*X193220D01*
X223000Y298591D02*X227591D01*
X225559D02*X228591D01*
X231500Y301500D01*
X232500Y282000D02*Y298000D01*
X231500Y301500D02*X235500D01*
X228000Y302500D02*X225500Y305000D01*
X204469Y271031D02*X186000Y289500D01*
X197406Y267094D02*X184000Y280500D01*
Y283500D01*
X223500Y302500D02*Y317500D01*
X215000Y326000D01*
X225500Y305000D02*Y320500D01*
X222000Y324000D01*
X207500Y290000D02*X194000D01*
X190000Y294000D01*
X193220Y286780D02*X188000Y292000D01*
X190000Y294000D02*Y333500D01*
X188000Y292000D02*Y335500D01*
X186000Y289500D02*Y337500D01*
X184000Y283531D02*Y340000D01*
X216000Y345000D02*X212500Y348500D01*
X214500Y341500D02*X212000Y344000D01*
Y345000D01*
X210500Y346500D01*
X199000D01*
X212500Y348500D02*X197000D01*
X221000Y345000D02*X215500Y350500D01*
X221000Y340500D02*X220000Y341500D01*
X222000Y324000D02*Y331000D01*
X227500Y336441D02*Y332059D01*
Y332000D02*X223000D01*
X222000Y331000D01*
X220000Y341500D02*X214500D01*
X199500Y343000D02*X209000D01*
X215500Y350500D02*X194500D01*
X190000Y333500D02*X199500Y343000D01*
X188000Y335500D02*X199000Y346500D01*
X186000Y337500D02*X197000Y348500D01*
X184000Y340000D02*X194500Y350500D01*
X215000Y326000D02*Y338000D01*
X279839Y274661D02*X282500Y272000D01*
X275917Y274661D02*X279839D01*
X282161Y277220D02*X282441Y277500D01*
X275917Y277220D02*X282161D01*
X275917Y279780D02*X279280D01*
G54D16*X248000Y305000D02*X238000Y295000D01*
Y277500D01*
G54D13*X233000Y336500D02*Y332118D01*
X235500Y301500D02*X244500Y310500D01*
X268000D01*
G54D17*X345000Y344530D02*X345490Y345020D01*
X346960D01*
X347450Y344530D01*
Y343550D01*
X345000Y341100D02*X347450Y343550D01*
X345000Y341100D02*X347450D01*
X348626Y341590D02*X349116Y341100D01*
X348626Y344530D02*Y341590D01*
Y344530D02*X349116Y345020D01*
X350096D01*
X350586Y344530D01*
Y341590D01*
X350096Y341100D02*X350586Y341590D01*
X349116Y341100D02*X350096D01*
X348626Y342080D02*X350586Y344040D01*
X351762Y344236D02*X352546Y345020D01*
Y341100D01*
X351762D02*X353232D01*
X354408Y341590D02*X354898Y341100D01*
X354408Y342374D02*Y341590D01*
Y342374D02*X355094Y343060D01*
X355682D01*
X356368Y342374D01*
Y341590D01*
X355878Y341100D02*X356368Y341590D01*
X354898Y341100D02*X355878D01*
X354408Y343746D02*X355094Y343060D01*
X354408Y344530D02*Y343746D01*
Y344530D02*X354898Y345020D01*
X355878D01*
X356368Y344530D01*
Y343746D01*
X355682Y343060D02*X356368Y343746D01*
X357544Y341590D02*X358034Y341100D01*
X357544Y344530D02*Y341590D01*
Y344530D02*X358034Y345020D01*
X359014D01*
X359504Y344530D01*
Y341590D01*
X359014Y341100D02*X359504Y341590D01*
X358034Y341100D02*X359014D01*
X357544Y342080D02*X359504Y344040D01*
X360680Y342570D02*X362640Y345020D01*
X360680Y342570D02*X363130D01*
X362640Y345020D02*Y341100D01*
X364306Y344236D02*X365090Y345020D01*
Y341100D01*
X364306D02*X365776D01*
X366952Y341590D02*X367442Y341100D01*
X366952Y344530D02*Y341590D01*
Y344530D02*X367442Y345020D01*
X368422D01*
X368912Y344530D01*
Y341590D01*
X368422Y341100D02*X368912Y341590D01*
X367442Y341100D02*X368422D01*
X366952Y342080D02*X368912Y344040D01*
G54D18*X228095Y175173D03*
Y170449D03*
Y165724D03*
X232819Y175173D03*
Y170449D03*
Y165724D03*
X237544Y175173D03*
Y170449D03*
Y165724D03*
X242268Y175173D03*
Y170449D03*
Y165724D03*
Y161000D03*
X246992D03*
X242268Y156276D03*
X246992D03*
Y175173D03*
Y170449D03*
Y165724D03*
X228095Y161000D03*
X232819D03*
X237544D03*
X228095Y156276D03*
X232819D03*
X237544D03*
X228095Y151551D03*
X232819D03*
X237544D03*
X228095Y146827D03*
X232819D03*
X237544D03*
X242268Y151551D03*
X246992D03*
X242268Y146827D03*
X246992D03*
X228095Y208327D03*
Y213051D03*
Y217776D03*
Y222500D03*
X232819Y208327D03*
X237544D03*
X242268D03*
G54D19*X201000Y192000D03*
G54D18*X232819Y213051D03*
Y217776D03*
Y222500D03*
X237544Y213051D03*
Y217776D03*
Y222500D03*
X242268Y213051D03*
Y217776D03*
Y222500D03*
X246992Y208327D03*
Y213051D03*
Y217776D03*
Y222500D03*
X228095Y227224D03*
X232819D03*
X237544D03*
X228095Y231949D03*
X232819D03*
X237544D03*
X228095Y236673D03*
X232819D03*
X237544D03*
X242268Y227224D03*
X246992D03*
X242268Y231949D03*
X246992D03*
X242268Y236673D03*
X246992D03*
X300595Y208327D03*
Y213051D03*
Y217776D03*
Y222500D03*
Y227224D03*
Y231949D03*
X305319Y213051D03*
X310044D03*
X314768D03*
X319492D03*
Y217776D03*
Y222500D03*
Y227224D03*
Y231949D03*
Y236673D03*
X300595D03*
X305319D03*
X310044D03*
X305319Y217776D03*
X310044D03*
Y222500D03*
Y227224D03*
Y231949D03*
X305319Y222500D03*
Y227224D03*
Y231949D03*
X314768Y217776D03*
Y222500D03*
Y227224D03*
Y231949D03*
Y236673D03*
G54D20*X285000Y222500D03*
G54D18*X270110Y285980D03*
X266370D03*
X270110Y282240D03*
X266370D03*
X262630Y285980D03*
X258890D03*
X262630Y282240D03*
X258890D03*
X270110Y278500D03*
Y274760D03*
Y271020D03*
X266370Y278500D03*
Y274760D03*
Y271020D03*
X262630Y278500D03*
Y274760D03*
Y271020D03*
X258890Y278500D03*
Y274760D03*
Y271020D03*
X300595Y175173D03*
X305319D03*
X310044D03*
X314768D03*
X300595Y170449D03*
X305319D03*
X310044D03*
X314768D03*
X300595Y165724D03*
X305319D03*
X310044D03*
X314768D03*
X319492Y175173D03*
Y170449D03*
Y165724D03*
X300595Y161000D03*
X305319D03*
X310044D03*
X314768D03*
G54D20*X285000D03*
G54D18*X300595Y156276D03*
X305319D03*
X310044D03*
X314768D03*
X300595Y151551D03*
Y146827D03*
X305319Y151551D03*
Y146827D03*
X310044Y151551D03*
Y146827D03*
X314768Y151551D03*
Y146827D03*
X319492Y161000D03*
Y156276D03*
Y151551D03*
Y146827D03*
X305319Y208327D03*
X310044D03*
X314768D03*
X319492D03*
G54D21*X317500Y192500D03*
X320453Y195453D03*
Y189547D03*
X314547Y195453D03*
Y189547D03*
X291500Y191500D03*
X294453Y188547D03*
Y194453D03*
X288547D03*
Y188547D03*
G54D19*X369500Y192000D03*
G54D18*X228095Y50776D03*
X232819D03*
X237544D03*
X228095Y46051D03*
X232819D03*
X237544D03*
X228095Y41327D03*
X232819D03*
X237544D03*
X242268Y50776D03*
X246992D03*
X242268Y46051D03*
X246992D03*
X242268Y41327D03*
X246992D03*
X228095Y69673D03*
Y64949D03*
Y60224D03*
Y55500D03*
X232819Y69673D03*
X237544D03*
X242268D03*
G54D19*X201000Y86500D03*
G54D18*X232819Y64949D03*
Y60224D03*
Y55500D03*
X237544Y64949D03*
Y60224D03*
Y55500D03*
X242268Y64949D03*
Y60224D03*
Y55500D03*
X246992Y69673D03*
Y64949D03*
Y60224D03*
Y55500D03*
X228095Y102827D03*
Y107551D03*
Y112276D03*
X232819Y102827D03*
Y107551D03*
Y112276D03*
X237544Y102827D03*
Y107551D03*
Y112276D03*
X242268Y102827D03*
Y107551D03*
Y112276D03*
Y117000D03*
X246992D03*
X242268Y121724D03*
X246992D03*
Y102827D03*
Y107551D03*
Y112276D03*
X228095Y117000D03*
X232819D03*
X237544D03*
X228095Y121724D03*
X232819D03*
X237544D03*
X228095Y126449D03*
X232819D03*
X237544D03*
X228095Y131173D03*
X232819D03*
X237544D03*
X242268Y126449D03*
X246992D03*
X242268Y131173D03*
X246992D03*
X300595Y102827D03*
Y107551D03*
Y112276D03*
G54D20*X285000Y117000D03*
G54D18*X305319Y102827D03*
Y107551D03*
Y112276D03*
X310044Y102827D03*
Y107551D03*
Y112276D03*
X314768Y102827D03*
Y107551D03*
Y112276D03*
Y117000D03*
X319492D03*
X314768Y121724D03*
X319492D03*
Y102827D03*
Y107551D03*
Y112276D03*
X300595Y117000D03*
X305319D03*
X310044D03*
X300595Y121724D03*
X305319D03*
X310044D03*
X300595Y126449D03*
X305319D03*
X310044D03*
X300595Y131173D03*
X305319D03*
X310044D03*
X314768Y126449D03*
X319492D03*
X314768Y131173D03*
X319492D03*
X300595Y50776D03*
X305319D03*
X310044D03*
X300595Y46051D03*
X305319D03*
X310044D03*
X300595Y41327D03*
X305319D03*
X310044D03*
X314768Y50776D03*
X319492D03*
X314768Y46051D03*
X319492D03*
X314768Y41327D03*
X319492D03*
X300595Y69673D03*
Y64949D03*
Y60224D03*
Y55500D03*
X305319Y69673D03*
X310044D03*
X314768D03*
X305319Y64949D03*
Y60224D03*
Y55500D03*
G54D20*X285000D03*
G54D18*X310044Y64949D03*
Y60224D03*
Y55500D03*
X314768Y64949D03*
Y60224D03*
Y55500D03*
X319492Y69673D03*
Y64949D03*
Y60224D03*
Y55500D03*
G54D21*X317500Y87000D03*
X320453Y89953D03*
Y84047D03*
X314547Y89953D03*
Y84047D03*
G54D19*X369500Y86500D03*
G54D21*X291500Y86000D03*
X294453Y83047D03*
Y88953D03*
X288547Y83047D03*
Y88953D03*
G54D18*X228095Y436724D03*
X232819D03*
X237544D03*
X228095Y441449D03*
X232819D03*
X237544D03*
X228095Y446173D03*
X232819D03*
X237544D03*
X242268Y436724D03*
X246992D03*
X242268Y441449D03*
X246992D03*
X242268Y446173D03*
X246992D03*
X300595Y417827D03*
Y422551D03*
Y427276D03*
Y432000D03*
Y436724D03*
Y441449D03*
X305319Y422551D03*
X310044D03*
X314768D03*
X319492D03*
Y427276D03*
Y432000D03*
Y436724D03*
Y441449D03*
Y446173D03*
X300595D03*
X305319D03*
X310044D03*
X305319Y427276D03*
X310044D03*
Y432000D03*
Y436724D03*
Y441449D03*
X305319Y432000D03*
Y436724D03*
Y441449D03*
X314768Y427276D03*
Y432000D03*
Y436724D03*
Y441449D03*
Y446173D03*
G54D20*X285000Y432000D03*
G54D18*X228095Y384673D03*
Y379949D03*
Y375224D03*
X232819Y384673D03*
X237544D03*
X242268D03*
X232819Y379949D03*
X237544D03*
X242268D03*
X246992Y384673D03*
Y379949D03*
Y375224D03*
Y370500D03*
Y365776D03*
X228095Y370500D03*
Y365776D03*
Y361051D03*
Y356327D03*
X232819Y375224D03*
X237544D03*
Y370500D03*
Y365776D03*
Y361051D03*
Y356327D03*
X232819Y370500D03*
Y365776D03*
Y361051D03*
Y356327D03*
X242268Y375224D03*
Y370500D03*
Y365776D03*
Y361051D03*
Y356327D03*
X246992D03*
Y361051D03*
X228095Y417827D03*
Y422551D03*
Y427276D03*
Y432000D03*
X232819Y417827D03*
X237544D03*
X242268D03*
G54D19*X201000Y401500D03*
G54D18*X232819Y422551D03*
Y427276D03*
Y432000D03*
X237544Y422551D03*
Y427276D03*
Y432000D03*
X242268Y422551D03*
Y427276D03*
Y432000D03*
X246992Y417827D03*
Y422551D03*
Y427276D03*
Y432000D03*
X300595Y384673D03*
X305319D03*
X310044D03*
X314768D03*
X300595Y379949D03*
X305319D03*
X310044D03*
X314768D03*
X300595Y375224D03*
X305319D03*
X310044D03*
X314768D03*
X319492Y384673D03*
Y379949D03*
Y375224D03*
X300595Y370500D03*
X305319D03*
X310044D03*
X314768D03*
G54D20*X285000D03*
G54D18*X300595Y365776D03*
X305319D03*
X310044D03*
X314768D03*
X300595Y361051D03*
Y356327D03*
X305319Y361051D03*
Y356327D03*
X310044Y361051D03*
Y356327D03*
X314768Y361051D03*
Y356327D03*
X319492Y370500D03*
Y365776D03*
Y361051D03*
Y356327D03*
X305319Y417827D03*
X310044D03*
X314768D03*
X319492D03*
G54D21*X317500Y402000D03*
X320453Y404953D03*
Y399047D03*
X314547Y404953D03*
Y399047D03*
X291500Y401000D03*
X294453Y398047D03*
Y403953D03*
X288547D03*
Y398047D03*
G54D19*X369500Y401500D03*
G54D22*X212370Y310992D02*X215126D01*
G54D23*X220441Y298591D02*X225559D01*
G54D24*X200500Y373575D02*Y367669D01*
Y326331D02*Y320425D01*
G54D25*X232508Y332118D02*X233492D01*
X227008Y332059D02*X227992D01*
X232508Y327000D02*X233492D01*
X227008Y326941D02*X227992D01*
X232508Y336500D02*X233492D01*
X232508Y341618D02*X233492D01*
X227008Y341559D02*X227992D01*
X227008Y336441D02*X227992D01*
G54D23*X220441Y294654D02*X225559D01*
X220441Y290717D02*X225559D01*
X220441Y286780D02*X225559D01*
X220441Y282843D02*X225559D01*
X220441Y278906D02*X225559D01*
X220441Y274969D02*X225559D01*
X220441Y271031D02*X225559D01*
X220441Y267094D02*X225559D01*
G54D26*X251016Y287457D02*X255150D01*
X251016Y277220D02*X255150D01*
X251016Y274661D02*X255150D01*
X251016Y272102D02*X255150D01*
X251016Y269543D02*X255150D01*
G54D27*X264500Y280232D02*Y276768D01*
G54D28*Y281650D02*Y275350D01*
G54D26*X251016Y284898D02*X255150D01*
X251016Y282339D02*X255150D01*
X251016Y279780D02*X255150D01*
G54D25*X246008Y275559D02*X246992D01*
X246008Y270441D02*X246992D01*
G54D29*X234745Y276905D02*X240255D01*
G54D30*X260890Y327500D02*X268370D01*
X239630D02*X247110D01*
G54D31*X236000Y368500D02*X237000D01*
G54D25*X236508Y399441D02*X237492D01*
X236508Y404559D02*X237492D01*
X235008Y395059D02*X235992D01*
X235008Y389941D02*X235992D01*
X225508Y407559D02*X226492D01*
X225508Y402441D02*X226492D01*
X230559Y390992D02*Y390008D01*
X225441Y390992D02*Y390008D01*
X246441Y404992D02*Y404008D01*
X251559Y404992D02*Y404008D01*
G54D32*X258978Y408000D02*X260187D01*
G54D25*X246441Y398992D02*Y398008D01*
X251559Y398992D02*Y398008D01*
X256508Y398559D02*X257492D01*
X256508Y393441D02*X257492D01*
X264941Y391992D02*Y391008D01*
X262008Y396441D02*X262992D01*
X262008Y401559D02*X262992D01*
X272559Y401992D02*Y401008D01*
G54D33*X271181Y396500D02*X272165D01*
G54D34*X271181D02*X272165D01*
G54D25*X267441Y401992D02*Y401008D01*
G54D32*X266813Y408000D02*X268022D01*
G54D35*X267539Y396795D02*Y396205D01*
G54D36*Y396795D02*Y396205D01*
G54D23*X220441Y263157D02*X225559D01*
X220441Y259220D02*X225559D01*
X220441Y255283D02*X225559D01*
X220441Y251346D02*X225559D01*
X220441Y247409D02*X225559D01*
G54D22*X212370Y235008D02*X215126D01*
G54D37*X225732Y234311D03*
Y239035D03*
G54D38*X225260Y239626D02*Y205374D01*
G54D37*X225732Y205965D03*
Y210689D03*
Y215413D03*
Y220138D03*
G54D39*X233724Y233917D02*Y211083D01*
G54D37*X235181Y220138D03*
Y224862D03*
X230457Y220138D03*
Y224862D03*
X235181Y229587D03*
Y234311D03*
Y210689D03*
Y215413D03*
X230457Y210689D03*
Y215413D03*
Y229587D03*
Y234311D03*
X225732Y224862D03*
Y229587D03*
G54D40*X246717Y234311D02*Y210689D01*
G54D37*X249354Y220138D03*
X244630D03*
X239906Y224862D03*
Y229587D03*
Y234311D03*
X249354Y205965D03*
Y210689D03*
Y215413D03*
X244630Y205965D03*
Y210689D03*
Y215413D03*
X239906Y210689D03*
G54D29*X250819Y252595D02*X253181D01*
G54D37*X249354Y224862D03*
Y229587D03*
Y234311D03*
Y239035D03*
X244630Y229587D03*
Y234311D03*
Y224862D03*
Y239035D03*
X239906Y215413D03*
Y220138D03*
G54D25*X236508Y189941D02*X237492D01*
X236508Y195059D02*X237492D01*
X237008Y185559D02*X237992D01*
X246441Y195492D02*Y194508D01*
X226008Y198059D02*X226992D01*
X226008Y192941D02*X226992D01*
X237008Y180441D02*X237992D01*
X229559Y181492D02*Y180508D01*
X224441Y181492D02*Y180508D01*
X246441Y189492D02*Y188508D01*
X251559Y195492D02*Y194508D01*
Y189492D02*Y188508D01*
X256508Y183941D02*X257492D01*
X262008Y186941D02*X262992D01*
G54D32*X258978Y198500D02*X260187D01*
G54D25*X262008Y192059D02*X262992D01*
X256508Y189059D02*X257492D01*
G54D31*X236000Y159000D02*X237000D01*
G54D25*X272559Y192492D02*Y191508D01*
X264941Y182492D02*Y181508D01*
X267441Y192492D02*Y191508D01*
G54D32*X266813Y198500D02*X268022D01*
G54D34*X271181Y187000D02*X272165D01*
G54D35*X267539Y187295D02*Y186705D01*
G54D36*Y187295D02*Y186705D01*
G54D41*X265417Y205252D02*X273291D01*
G54D27*X265417Y205965D02*X273291D01*
G54D42*X265614D02*X273094D01*
G54D41*X265417Y211402D02*X273291D01*
G54D27*X265417Y210689D02*X273291D01*
G54D42*X265614D02*X273094D01*
G54D41*X265417Y215413D02*X273291D01*
G54D42*X265614D02*X273094D01*
G54D41*X265417Y220138D02*X273291D01*
G54D42*X265614D02*X273094D01*
G54D41*X265417Y239035D02*Y211402D01*
Y224862D02*X273291D01*
G54D42*X265614D02*X273094D01*
G54D41*X265417Y229587D02*X273291D01*
G54D42*X265614D02*X273094D01*
G54D41*X265417Y234311D02*X273291D01*
G54D42*X265614D02*X273094D01*
G54D41*X265417Y239035D02*X273291D01*
G54D42*X265614D02*X273094D01*
G54D25*X270059Y182492D02*Y181508D01*
G54D33*X271181Y187000D02*X272165D01*
G54D25*X270059Y391992D02*Y391008D01*
X320441Y390992D02*Y390008D01*
G54D43*X310426Y391393D02*Y390607D01*
X313574Y391393D02*Y390607D01*
G54D44*X308740Y395701D02*X310709D01*
G54D43*X306074Y405893D02*Y405107D01*
X302926Y405893D02*Y405107D01*
G54D25*X298508Y407559D02*X299492D01*
X298508Y402441D02*X299492D01*
G54D45*X317500Y402965D02*Y401035D01*
G54D11*G36*
X318091Y407118D02*Y402591D01*
X322618D01*
Y407118D01*
X318091D01*
G37*
G36*
Y401409D02*Y396882D01*
X322618D01*
Y401409D01*
X318091D01*
G37*
G36*
X312382Y407118D02*Y402591D01*
X316909D01*
Y407118D01*
X312382D01*
G37*
G36*
Y401409D02*Y396882D01*
X316909D01*
Y401409D01*
X312382D01*
G37*
G54D44*X308740Y398850D02*X310709D01*
X308740Y402000D02*X310709D01*
X308740Y405150D02*X310709D01*
X308740Y408299D02*X310709D01*
G54D41*X265417Y414752D02*X273291D01*
G54D27*X265417Y415465D02*X273291D01*
G54D42*X265614D02*X273094D01*
G54D41*X265417Y420902D02*X273291D01*
G54D27*X265417Y420189D02*X273291D01*
G54D42*X265614D02*X273094D01*
G54D41*X265417Y424913D02*X273291D01*
G54D42*X265614D02*X273094D01*
G54D41*X265417Y429638D02*X273291D01*
G54D42*X265614D02*X273094D01*
G54D41*X265417Y434362D02*X273291D01*
G54D42*X265614D02*X273094D01*
G54D41*X265417Y439087D02*X273291D01*
G54D42*X265614D02*X273094D01*
G54D41*X265417Y443811D02*X273291D01*
G54D42*X265614D02*X273094D01*
G54D41*X265417Y448535D02*X273291D01*
G54D42*X265614D02*X273094D01*
G54D41*X265417D02*Y420902D01*
G54D38*X225260Y449126D02*Y414874D01*
G54D37*X225732Y415465D03*
Y420189D03*
Y424913D03*
Y429638D03*
G54D39*X233724Y443417D02*Y420583D01*
G54D37*X235181Y429638D03*
Y434362D03*
X230457Y429638D03*
Y434362D03*
X235181Y420189D03*
Y424913D03*
X230457Y420189D03*
Y424913D03*
X225732Y434362D03*
Y439087D03*
G54D40*X246717Y443811D02*Y420189D01*
G54D37*X249354Y429638D03*
X244630D03*
X239906Y434362D03*
Y439087D03*
Y443811D03*
X249354Y415465D03*
Y420189D03*
Y424913D03*
X244630Y415465D03*
Y420189D03*
Y424913D03*
X239906Y420189D03*
X249354Y434362D03*
Y439087D03*
Y443811D03*
Y448535D03*
X244630Y439087D03*
Y443811D03*
Y434362D03*
Y448535D03*
X239906Y424913D03*
Y429638D03*
X235181Y439087D03*
Y443811D03*
X230457Y439087D03*
Y443811D03*
X225732D03*
Y448535D03*
G54D38*X297760Y449126D02*Y414874D01*
G54D37*X298232Y415465D03*
Y420189D03*
Y424913D03*
Y429638D03*
G54D39*X306224Y443417D02*Y420583D01*
G54D37*X307681Y429638D03*
Y434362D03*
X302957Y429638D03*
Y434362D03*
X307681Y420189D03*
Y424913D03*
X302957Y420189D03*
Y424913D03*
X298232Y434362D03*
Y439087D03*
G54D41*X337917Y414752D02*X345791D01*
G54D27*X337917Y415465D02*X345791D01*
G54D42*X338114D02*X345594D01*
G54D41*X337917Y420902D02*X345791D01*
G54D27*X337917Y420189D02*X345791D01*
G54D42*X338114D02*X345594D01*
G54D41*X337917Y424913D02*X345791D01*
G54D42*X338114D02*X345594D01*
G54D41*X337917Y429638D02*X345791D01*
G54D42*X338114D02*X345594D01*
G54D41*X337917Y434362D02*X345791D01*
G54D42*X338114D02*X345594D01*
G54D41*X337917Y448535D02*Y420902D01*
Y439087D02*X345791D01*
G54D42*X338114D02*X345594D01*
G54D41*X337917Y443811D02*X345791D01*
G54D42*X338114D02*X345594D01*
G54D41*X337917Y448535D02*X345791D01*
G54D42*X338114D02*X345594D01*
G54D40*X319217Y443811D02*Y420189D01*
G54D37*X321854Y429638D03*
X317130D03*
X312406Y434362D03*
Y439087D03*
Y443811D03*
X321854Y415465D03*
Y420189D03*
Y424913D03*
X317130Y415465D03*
Y420189D03*
Y424913D03*
X312406Y420189D03*
X321854Y434362D03*
Y439087D03*
Y443811D03*
Y448535D03*
X317130Y439087D03*
Y443811D03*
Y434362D03*
Y448535D03*
X312406Y424913D03*
Y429638D03*
X307681Y439087D03*
Y443811D03*
X302957Y439087D03*
Y443811D03*
X298232D03*
Y448535D03*
G54D30*X377390Y439500D02*X384870D01*
X356130D02*X363610D01*
G54D29*X298095Y297181D02*Y294819D01*
G54D46*X293000Y342000D02*X300000D01*
X293000Y305000D02*X300000D01*
G54D47*X330559Y309984D02*Y304630D01*
X333118Y309984D02*Y304630D01*
X335677Y309984D02*Y304630D01*
G54D29*X315905Y288255D02*Y282745D01*
X304095Y288255D02*Y282745D01*
X309905Y297181D02*Y294819D01*
G54D30*X308890Y259500D02*X316370D01*
G54D47*X320323Y309984D02*Y304630D01*
X322882Y309984D02*Y304630D01*
X325441Y309984D02*Y304630D01*
X328000Y309984D02*Y304630D01*
G54D29*X323543Y298393D02*Y297607D01*
X316457Y298393D02*Y297607D01*
G54D25*X328059Y339492D02*Y338508D01*
X322941Y339492D02*Y338508D01*
X332508Y338441D02*X333492D01*
X332508Y343559D02*X333492D01*
G54D47*X335677Y333370D02*Y328016D01*
X333118Y333370D02*Y328016D01*
X330559Y333370D02*Y328016D01*
X328000Y333370D02*Y328016D01*
G54D48*X327803Y319000D02*X328197D01*
G54D47*X325441Y333370D02*Y328016D01*
X322882Y333370D02*Y328016D01*
X320323Y333370D02*Y328016D01*
G54D29*X250819Y264405D02*X253181D01*
X234745Y265095D02*X240255D01*
G54D26*X273850Y274661D02*X277984D01*
G54D49*X275000Y262450D02*Y248550D01*
X262000Y262450D02*Y248550D01*
G54D26*X273850Y277220D02*X277984D01*
G54D25*X287559Y277992D02*Y277008D01*
X282441Y277992D02*Y277008D01*
G54D26*X273850Y279780D02*X277984D01*
X273850Y282339D02*X277984D01*
G54D25*X281941Y283992D02*Y283008D01*
X287059Y283992D02*Y283008D01*
G54D26*X273850Y284898D02*X277984D01*
X273850Y287457D02*X277984D01*
G54D25*X282008Y267441D02*X282992D01*
X282008Y272559D02*X282992D01*
G54D26*X273850Y269543D02*X277984D01*
X273850Y272102D02*X277984D01*
G54D30*X287630Y259500D02*X295110D01*
G54D25*X325559Y390992D02*Y390008D01*
G54D11*G36*
X335050Y269800D02*Y259900D01*
X344950D01*
Y269800D01*
X335050D01*
G37*
G36*
Y254100D02*Y244200D01*
X344950D01*
Y254100D01*
X335050D01*
G37*
G54D50*X342500Y372500D02*Y362500D01*
G54D24*X370000Y323831D02*Y317925D01*
Y301575D02*Y295669D01*
Y254331D02*Y248425D01*
Y371075D02*Y365169D01*
G54D25*X342508Y403441D02*X343492D01*
G54D35*X341705Y398961D02*X342295D01*
G54D36*X341705D02*X342295D01*
G54D25*X342508Y408559D02*X343492D01*
G54D33*X342000Y395319D02*Y394335D01*
G54D34*Y395319D02*Y394335D01*
G54D25*X336508Y396441D02*X337492D01*
X336508Y401559D02*X337492D01*
G54D32*X329978Y408000D02*X331187D01*
X337813D02*X339022D01*
G54D44*X324291Y395701D02*X326260D01*
X324291Y398850D02*X326260D01*
X324291Y402000D02*X326260D01*
X324291Y405150D02*X326260D01*
X324291Y408299D02*X326260D01*
G54D31*X275500Y367500D02*X308500D01*
G54D38*X297760Y239626D02*Y205374D01*
G54D37*X298232Y224862D03*
Y229587D03*
Y234311D03*
Y239035D03*
Y205965D03*
Y210689D03*
Y215413D03*
Y220138D03*
G54D25*X298508Y198059D02*X299492D01*
X298508Y192941D02*X299492D01*
G54D39*X306224Y233917D02*Y211083D01*
G54D37*X307681Y220138D03*
X302957Y215413D03*
Y220138D03*
Y229587D03*
Y234311D03*
X312406Y215413D03*
Y220138D03*
X307681Y210689D03*
Y215413D03*
X302957Y210689D03*
X307681Y224862D03*
Y234311D03*
X302957Y224862D03*
X317130Y229587D03*
Y234311D03*
X312406Y224862D03*
Y229587D03*
Y234311D03*
X307681Y229587D03*
G54D43*X306074Y196393D02*Y195607D01*
X302926Y196393D02*Y195607D01*
G54D44*X308740Y192500D02*X310709D01*
X308740Y195650D02*X310709D01*
G54D11*G36*
X312382Y197618D02*Y193091D01*
X316909D01*
Y197618D01*
X312382D01*
G37*
G54D44*X308740Y198799D02*X310709D01*
G54D43*X310426Y181893D02*Y181107D01*
X313574Y181893D02*Y181107D01*
G54D45*X317500Y193465D02*Y191535D01*
G54D11*G36*
X318091Y197618D02*Y193091D01*
X322618D01*
Y197618D01*
X318091D01*
G37*
G36*
Y191909D02*Y187382D01*
X322618D01*
Y191909D01*
X318091D01*
G37*
G36*
X312382D02*Y187382D01*
X316909D01*
Y191909D01*
X312382D01*
G37*
G54D44*X308740Y186201D02*X310709D01*
X308740Y189350D02*X310709D01*
G54D41*X337917Y205252D02*X345791D01*
G54D27*X337917Y205965D02*X345791D01*
G54D42*X338114D02*X345594D01*
G54D41*X337917Y211402D02*X345791D01*
G54D27*X337917Y210689D02*X345791D01*
G54D42*X338114D02*X345594D01*
G54D41*X337917Y215413D02*X345791D01*
G54D42*X338114D02*X345594D01*
G54D25*X342508Y199059D02*X343492D01*
G54D32*X337813Y198500D02*X339022D01*
G54D40*X319217Y234311D02*Y210689D01*
G54D37*X321854Y220138D03*
X317130D03*
Y224862D03*
Y239035D03*
X321854Y224862D03*
Y229587D03*
Y234311D03*
Y239035D03*
Y205965D03*
Y210689D03*
Y215413D03*
X317130Y205965D03*
Y210689D03*
Y215413D03*
X312406Y210689D03*
G54D25*X342508Y193941D02*X343492D01*
G54D35*X341705Y189461D02*X342295D01*
G54D36*X341705D02*X342295D01*
G54D25*X336508Y192059D02*X337492D01*
G54D44*X324291Y192500D02*X326260D01*
X324291Y195650D02*X326260D01*
G54D32*X329978Y198500D02*X331187D01*
G54D44*X324291Y198799D02*X326260D01*
G54D25*X336508Y186941D02*X337492D01*
G54D33*X342000Y185819D02*Y184835D01*
G54D34*Y185819D02*Y184835D01*
G54D44*X324291Y186201D02*X326260D01*
X324291Y189350D02*X326260D01*
G54D41*X337917Y220138D02*X345791D01*
G54D42*X338114D02*X345594D01*
G54D41*X337917Y224862D02*X345791D01*
G54D42*X338114D02*X345594D01*
G54D41*X337917Y229587D02*X345791D01*
G54D42*X338114D02*X345594D01*
G54D41*X337917Y234311D02*X345791D01*
G54D42*X338114D02*X345594D01*
G54D41*X337917Y239035D02*X345791D01*
G54D42*X338114D02*X345594D01*
G54D41*X337917D02*Y211402D01*
G54D24*X200500Y166075D02*Y160169D01*
Y118831D02*Y112925D01*
G54D38*X225260Y134126D02*Y99874D01*
G54D37*X225732Y100465D03*
Y105189D03*
Y109913D03*
Y114638D03*
G54D39*X233724Y128417D02*Y105583D01*
G54D37*X235181Y114638D03*
Y119362D03*
X230457Y114638D03*
Y119362D03*
X235181Y105189D03*
Y109913D03*
X230457Y105189D03*
Y109913D03*
X225732Y119362D03*
Y124087D03*
G54D40*X246717Y128811D02*Y105189D01*
G54D37*X249354Y114638D03*
X244630D03*
X239906Y119362D03*
Y124087D03*
Y128811D03*
X249354Y100465D03*
Y105189D03*
Y109913D03*
X244630Y100465D03*
Y105189D03*
Y109913D03*
X239906Y105189D03*
X249354Y119362D03*
Y124087D03*
Y128811D03*
Y133535D03*
X244630Y124087D03*
Y128811D03*
Y119362D03*
Y133535D03*
X239906Y109913D03*
Y114638D03*
X235181Y124087D03*
Y128811D03*
X230457Y124087D03*
Y128811D03*
X225732D03*
Y133535D03*
G54D25*X236508Y84441D02*X237492D01*
X236508Y89559D02*X237492D01*
X237008Y80059D02*X237992D01*
X246441Y89992D02*Y89008D01*
X226008Y92559D02*X226992D01*
X226008Y87441D02*X226992D01*
X237008Y74941D02*X237992D01*
X229559Y75992D02*Y75008D01*
X224441Y75992D02*Y75008D01*
X246441Y83992D02*Y83008D01*
X251559Y89992D02*Y89008D01*
Y83992D02*Y83008D01*
G54D32*X258978Y93000D02*X260187D01*
G54D25*X262008Y81441D02*X262992D01*
G54D36*X267539Y81795D02*Y81205D01*
G54D32*X266813Y93000D02*X268022D01*
G54D25*X262008Y86559D02*X262992D01*
X256508Y83559D02*X257492D01*
X256508Y78441D02*X257492D01*
G54D31*X236000Y53500D02*X237000D01*
G54D30*X206890Y48000D02*X214370D01*
X185630D02*X193110D01*
G54D25*X272559Y86992D02*Y86008D01*
G54D34*X271181Y81500D02*X272165D01*
G54D25*X264941Y76992D02*Y76008D01*
X267441Y86992D02*Y86008D01*
G54D33*X271181Y81500D02*X272165D01*
G54D35*X267539Y81795D02*Y81205D01*
G54D25*X270059Y76992D02*Y76008D01*
X298508Y92559D02*X299492D01*
G54D43*X306074Y90893D02*Y90107D01*
X302926Y90893D02*Y90107D01*
G54D25*X298508Y87441D02*X299492D01*
G54D44*X308740Y87000D02*X310709D01*
X308740Y90150D02*X310709D01*
X308740Y93299D02*X310709D01*
G54D45*X317500Y87965D02*Y86035D01*
G54D11*G36*
X318091Y92118D02*Y87591D01*
X322618D01*
Y92118D01*
X318091D01*
G37*
G36*
Y86409D02*Y81882D01*
X322618D01*
Y86409D01*
X318091D01*
G37*
G36*
X312382Y92118D02*Y87591D01*
X316909D01*
Y92118D01*
X312382D01*
G37*
G36*
Y86409D02*Y81882D01*
X316909D01*
Y86409D01*
X312382D01*
G37*
G54D44*X308740Y80701D02*X310709D01*
X324291D02*X326260D01*
X308740Y83850D02*X310709D01*
X324291D02*X326260D01*
X324291Y87000D02*X326260D01*
X324291Y90150D02*X326260D01*
X324291Y93299D02*X326260D01*
G54D31*X275500Y52500D02*X308500D01*
G54D24*X370000Y166075D02*Y160169D01*
Y118831D02*Y112925D01*
G54D25*X320441Y181492D02*Y180508D01*
X325559Y181492D02*Y180508D01*
G54D50*X342500Y163000D02*Y153000D01*
G54D41*X337917Y128811D02*X345791D01*
G54D42*X338114D02*X345594D01*
G54D41*X337917Y133535D02*X345791D01*
G54D42*X338114D02*X345594D01*
G54D31*X275500Y158000D02*X308500D01*
G54D37*X317130Y133535D03*
G54D41*X337917Y114638D02*X345791D01*
G54D42*X338114D02*X345594D01*
G54D41*X337917Y119362D02*X345791D01*
G54D42*X338114D02*X345594D01*
G54D41*X337917Y124087D02*X345791D01*
G54D42*X338114D02*X345594D01*
G54D41*X337917Y133535D02*Y105902D01*
G54D37*X321854Y114638D03*
Y119362D03*
Y124087D03*
Y128811D03*
Y133535D03*
X317130Y100465D03*
Y105189D03*
X312406D03*
Y109913D03*
X317130D03*
Y114638D03*
Y119362D03*
Y124087D03*
Y128811D03*
X312406Y114638D03*
Y119362D03*
Y124087D03*
Y128811D03*
G54D41*X337917Y99752D02*X345791D01*
G54D27*X337917Y100465D02*X345791D01*
G54D42*X338114D02*X345594D01*
G54D37*X321854D03*
G54D41*X337917Y105902D02*X345791D01*
G54D27*X337917Y105189D02*X345791D01*
G54D42*X338114D02*X345594D01*
G54D37*X321854D03*
Y109913D03*
G54D41*X337917D02*X345791D01*
G54D42*X338114D02*X345594D01*
G54D32*X329978Y93000D02*X331187D01*
X337813D02*X339022D01*
G54D25*X342508Y88441D02*X343492D01*
X342508Y93559D02*X343492D01*
X336508Y81441D02*X337492D01*
X336508Y86559D02*X337492D01*
G54D33*X342000Y80319D02*Y79335D01*
G54D34*Y80319D02*Y79335D01*
G54D35*X341705Y83961D02*X342295D01*
G54D36*X341705D02*X342295D01*
G54D40*X319217Y128811D02*Y105189D01*
G54D25*X320441Y75992D02*Y75008D01*
G54D43*X310426Y76393D02*Y75607D01*
X313574Y76393D02*Y75607D01*
G54D25*X325559Y75992D02*Y75008D01*
G54D37*X307681Y105189D03*
Y109913D03*
X302957Y105189D03*
Y109913D03*
X298232Y100465D03*
Y105189D03*
Y109913D03*
G54D41*X265417Y99752D02*X273291D01*
G54D27*X265417Y100465D02*X273291D01*
G54D42*X265614D02*X273094D01*
G54D41*X265417Y105902D02*X273291D01*
G54D27*X265417Y105189D02*X273291D01*
G54D42*X265614D02*X273094D01*
G54D41*X265417Y109913D02*X273291D01*
G54D42*X265614D02*X273094D01*
G54D41*X265417Y114638D02*X273291D01*
G54D42*X265614D02*X273094D01*
G54D41*X265417Y119362D02*X273291D01*
G54D42*X265614D02*X273094D01*
G54D41*X265417Y124087D02*X273291D01*
G54D42*X265614D02*X273094D01*
G54D41*X265417Y128811D02*X273291D01*
G54D42*X265614D02*X273094D01*
G54D41*X265417Y133535D02*X273291D01*
G54D42*X265614D02*X273094D01*
G54D41*X265417D02*Y105902D01*
G54D38*X297760Y134126D02*Y99874D01*
G54D37*X298232Y114638D03*
Y119362D03*
Y124087D03*
Y128811D03*
Y133535D03*
G54D39*X306224Y128417D02*Y105583D01*
G54D37*X307681Y114638D03*
Y119362D03*
X302957Y114638D03*
Y119362D03*
X307681Y124087D03*
Y128811D03*
X302957Y124087D03*
Y128811D03*
G54D50*X342500Y57500D02*Y47500D01*
G54D30*X377390Y48000D02*X384870D01*
X356130D02*X363610D01*
G54D51*X295500Y289000D03*
X330000Y290500D03*
X329000Y297000D03*
X334500Y299500D03*
X324000Y291500D03*
X330500Y301500D03*
X299500Y289000D03*
X317500Y307500D03*
X299500Y282000D03*
X324500Y281000D03*
X329000D03*
X324500Y276500D03*
X329000D03*
G54D18*X328000Y315000D03*
Y319000D03*
G54D51*X297500Y285500D03*
X282000Y340500D03*
X282500Y287500D03*
X269500Y322000D03*
X265500D03*
X261500D03*
X257500D03*
X255500Y326000D03*
Y330000D03*
X251500Y394000D03*
Y409000D03*
X246000Y394500D03*
X259500Y379500D03*
Y373500D03*
X277000Y379000D03*
X215000Y378500D03*
X226000Y395500D03*
X246000Y408500D03*
X232500Y409000D03*
Y404500D03*
X233000Y398500D03*
X280000Y381500D03*
Y401000D03*
X271500Y409000D03*
X260000Y390500D03*
X352500Y418000D03*
X349500Y420500D03*
Y425500D03*
X347500Y406000D03*
X352500Y423000D03*
Y428000D03*
Y433000D03*
X349500Y430500D03*
X334500Y432000D03*
X332000Y429000D03*
Y423000D03*
X334500Y426000D03*
Y420000D03*
X332500Y411500D03*
X262000Y352500D03*
Y382500D03*
Y376500D03*
Y364500D03*
Y358500D03*
Y370500D03*
X259500Y355500D03*
X265000Y346000D03*
X259500Y367500D03*
Y361500D03*
X277000Y357000D03*
X280000Y359500D03*
X277000Y362000D03*
X280000Y354500D03*
X277000Y352000D03*
X306000Y401500D03*
X291000Y410000D03*
X305500Y394500D03*
X332500Y399000D03*
X329500Y402500D03*
X332500Y389500D03*
X262000Y450000D03*
X259500Y447000D03*
X262000Y420000D03*
X259500Y423000D03*
X277000D03*
X280000Y420500D03*
X262000Y426000D03*
Y432000D03*
X259500Y429000D03*
X262000Y438000D03*
X259500Y435000D03*
Y441000D03*
X262000Y444000D03*
X277000Y445500D03*
X280000Y448000D03*
Y443000D03*
X277000Y440500D03*
Y450500D03*
X352500Y438000D03*
Y443000D03*
Y448000D03*
X349500Y450500D03*
Y440500D03*
Y445500D03*
Y435500D03*
X332000Y441000D03*
Y435000D03*
Y447000D03*
X334500Y444000D03*
Y438000D03*
Y450000D03*
X386000Y445000D03*
Y434000D03*
X372000Y439500D03*
X372500Y435500D03*
X376500Y434000D03*
X381000D03*
X372500Y443500D03*
X381000Y445000D03*
X376500D03*
X210500Y433000D03*
X205000Y434500D03*
Y441000D03*
X187000Y428000D03*
X190000Y440000D03*
X198000Y436000D03*
Y442500D03*
G54D52*X229000Y283500D03*
X217000Y283000D03*
G54D51*X195500Y313500D03*
X193500Y304000D03*
Y299000D03*
Y309000D03*
X195500Y293500D03*
X200500Y313500D03*
X205000D03*
X207500Y304000D03*
Y299000D03*
X200500Y293500D03*
X205500D03*
G54D52*X229000Y294500D03*
G54D51*X228000Y302500D03*
X223500D03*
G54D52*X217000Y294500D03*
G54D51*X232500Y298000D03*
X221000Y345000D03*
X216000D03*
X209000Y343000D03*
X221000Y340500D03*
X215000Y338000D03*
X193500Y318500D03*
Y329000D03*
Y324000D03*
X195500Y333500D03*
X200500D03*
X205000D03*
X207500Y329000D03*
Y324000D03*
Y318500D03*
X244000Y322000D03*
X231500Y319000D03*
X236000D03*
X240500D03*
X248500Y322000D03*
X246000Y318500D03*
X343000Y325000D03*
X337500Y337000D03*
X333000Y347000D03*
G54D18*X324000Y323000D03*
X323500Y315000D03*
X324000Y319000D03*
X332000Y323000D03*
Y315000D03*
Y319000D03*
X328000Y323000D03*
G54D51*X334000Y352500D03*
X331500Y355500D03*
G54D52*X327000Y346500D03*
G54D51*X352500Y384500D03*
Y379500D03*
Y374500D03*
X349500Y382000D03*
Y377000D03*
X352500Y369500D03*
Y364500D03*
Y359500D03*
Y354500D03*
X349500Y372000D03*
Y367000D03*
Y352000D03*
Y357000D03*
Y362000D03*
X334000Y364500D03*
Y358500D03*
Y382500D03*
Y376500D03*
Y370500D03*
X331500Y379500D03*
Y367500D03*
Y373500D03*
Y361500D03*
X377000Y331000D03*
X373500Y335500D03*
X369500D03*
X377000Y325500D03*
Y320000D03*
X363000Y317000D03*
Y323500D03*
Y331000D03*
X365500Y335500D03*
X368500Y311000D03*
X371500Y308500D03*
X374500Y311000D03*
X377000Y314000D03*
X354500Y313500D03*
Y308000D03*
Y302500D03*
X363000Y297000D03*
X358500D03*
X363000Y292000D03*
X366000Y288500D03*
X373000D03*
X377000Y292000D03*
Y298000D03*
Y303000D03*
X251500Y184500D03*
Y199500D03*
X246000Y185000D03*
Y199000D03*
X232500Y199500D03*
Y195000D03*
X233000Y189000D03*
X223500D03*
X222000Y199000D03*
X222500Y193500D03*
X262000Y173000D03*
Y167000D03*
Y155000D03*
Y161000D03*
X259500Y170000D03*
X280000Y172000D03*
X277000Y169500D03*
X259500Y158000D03*
Y164000D03*
X260000Y181000D03*
X262000Y210500D03*
X259500Y213500D03*
X271500Y199500D03*
X262000Y216500D03*
Y222500D03*
X259500Y219500D03*
X262000Y228500D03*
X259500Y225500D03*
Y231500D03*
X277000Y213500D03*
X280000Y211000D03*
Y191500D03*
X291000Y200500D03*
X277000Y230500D03*
X352500Y208500D03*
Y213500D03*
Y218500D03*
X349500Y211000D03*
Y216000D03*
Y221000D03*
Y226000D03*
X347500Y196500D03*
X352500Y223500D03*
Y228500D03*
Y233500D03*
Y238500D03*
X349500Y231000D03*
X332000Y231500D03*
Y237500D03*
X334500Y234500D03*
X379000Y233000D03*
X386000Y224500D03*
X332000Y219500D03*
Y225500D03*
Y213500D03*
X334500Y222500D03*
Y228500D03*
Y216500D03*
Y210500D03*
X332500Y202000D03*
X382000Y212500D03*
X367000Y214500D03*
X386500Y212500D03*
X352500Y175000D03*
X349500Y172500D03*
Y167500D03*
X352500Y170000D03*
Y165000D03*
Y160000D03*
X349500Y162500D03*
X370000Y173000D03*
X366000D03*
X363000Y169000D03*
Y161000D03*
Y165000D03*
X374000Y173000D03*
X377000Y169000D03*
Y161000D03*
Y165000D03*
X349500Y241000D03*
Y236000D03*
X358500Y250000D03*
X349500Y246500D03*
X347000Y252500D03*
X377000Y248000D03*
X363000Y250000D03*
X377000Y258000D03*
Y253500D03*
X368500Y261500D03*
Y266000D03*
X364000Y270000D03*
X373000Y261500D03*
X354500Y254000D03*
Y266000D03*
X359000Y270000D03*
X354500Y260000D03*
X340000Y272000D03*
X334000Y173000D03*
X331500Y170000D03*
X332500Y180000D03*
X334000Y167000D03*
Y161000D03*
X331500Y164000D03*
X306000Y192000D03*
X305500Y185000D03*
X332500Y189500D03*
X329500Y193000D03*
X334500Y240500D03*
X327500Y246500D03*
X323000Y248000D03*
G54D52*X304500Y252500D03*
G54D51*X306000Y264500D03*
X314000D03*
X310000D03*
X313500Y254500D03*
X309500D03*
X317500D03*
X333000Y268000D03*
Y262500D03*
Y250500D03*
X251500Y79000D03*
Y94000D03*
X246000Y79500D03*
X262000Y105000D03*
X271500Y94000D03*
X262000Y111000D03*
X259500Y108000D03*
X246000Y93500D03*
X260000Y75500D03*
X259500Y146000D03*
X277000Y147500D03*
X280000Y150000D03*
X277000Y152500D03*
X280000Y145000D03*
X277000Y142500D03*
X259500Y152000D03*
X262000Y143000D03*
Y149000D03*
Y135000D03*
Y123000D03*
X259500Y120000D03*
Y126000D03*
X262000Y129000D03*
X259500Y132000D03*
X262000Y117000D03*
X259500Y114000D03*
X277000Y108000D03*
X280000Y105500D03*
X277000Y130500D03*
X280000Y133000D03*
Y128000D03*
X277000Y125500D03*
Y135500D03*
X262000Y37500D03*
Y43500D03*
X259500Y40500D03*
X262000Y67500D03*
Y61500D03*
X259500Y64500D03*
X262000Y49500D03*
Y55500D03*
X259500Y52500D03*
Y46500D03*
Y58500D03*
X277000Y42000D03*
X280000Y44500D03*
X277000Y47000D03*
X280000Y39500D03*
X277000Y37000D03*
X280000Y66500D03*
X277000Y64000D03*
X306000Y86500D03*
X280000Y86000D03*
X291000Y95000D03*
X305500Y79500D03*
X352500Y155000D03*
Y150000D03*
Y145000D03*
X349500Y152500D03*
Y147500D03*
Y157500D03*
X370000Y153000D03*
X374000D03*
X366000D03*
X363000Y157000D03*
X377000D03*
X349500Y142500D03*
X334000Y143000D03*
Y155000D03*
X331500Y158000D03*
Y152000D03*
X334000Y149000D03*
X331500Y146000D03*
X352500Y103000D03*
Y108000D03*
Y113000D03*
X349500Y105500D03*
Y110500D03*
Y115500D03*
Y120500D03*
X352500Y118000D03*
Y123000D03*
Y128000D03*
Y133000D03*
X349500Y135500D03*
Y130500D03*
Y125500D03*
X332000Y126000D03*
Y132000D03*
X334500Y129000D03*
X332000Y114000D03*
Y120000D03*
Y108000D03*
X334500Y117000D03*
Y123000D03*
Y111000D03*
Y105000D03*
Y135000D03*
X352500Y69500D03*
X349500Y67000D03*
Y62000D03*
X347500Y91000D03*
X352500Y64500D03*
Y59500D03*
Y54500D03*
X349500Y57000D03*
X334000Y67500D03*
X331500Y64500D03*
X332500Y84000D03*
X329500Y87500D03*
X332500Y96500D03*
X334000Y61500D03*
Y55500D03*
X331500Y58500D03*
X352500Y49500D03*
Y44500D03*
Y39500D03*
X349500Y47000D03*
Y42000D03*
Y52000D03*
X372000Y48000D03*
X372500Y52000D03*
X376500Y53500D03*
X386000D03*
X381000D03*
X349500Y37000D03*
X334000Y37500D03*
Y49500D03*
X331500Y52500D03*
Y46500D03*
X334000Y43500D03*
X386000Y42500D03*
X372500Y44000D03*
X381000Y42500D03*
X376500D03*
X331500Y40500D03*
X232500Y94000D03*
Y89500D03*
X233000Y83500D03*
X223500D03*
X222000Y93500D03*
X222500Y88000D03*
X200500Y106000D03*
Y126000D03*
X196500D03*
Y106000D03*
X193500Y110000D03*
Y118000D03*
Y114000D03*
Y122000D03*
X204500Y106000D03*
X207500Y110000D03*
Y114000D03*
Y118000D03*
X204500Y126000D03*
X207500Y122000D03*
X184500Y42500D03*
X198500Y48000D03*
X198000Y44000D03*
Y52000D03*
X189500Y42500D03*
X194000D03*
Y53500D03*
X184500D03*
X189500D03*
X246000Y251000D03*
X241500Y260000D03*
X245500Y257500D03*
Y262000D03*
Y266500D03*
X248000Y289500D03*
Y285000D03*
X242500Y251000D03*
X229500Y248000D03*
X229000Y252500D03*
X229500Y257000D03*
X229000Y271000D03*
Y266500D03*
X216000Y256000D03*
X213500Y263000D03*
X216500Y274500D03*
X262000Y240500D03*
X259500Y237500D03*
X262000Y234500D03*
X280000Y233000D03*
X277000Y235500D03*
X280000Y238000D03*
X277000Y240500D03*
X290500Y281000D03*
X288500Y254000D03*
X288000Y265000D03*
X290000Y268000D03*
X292000Y265000D03*
X294000Y268000D03*
X296000Y265000D03*
X184500Y225000D03*
Y236000D03*
X198500Y230500D03*
X198000Y234500D03*
X194000Y236000D03*
X198000Y226500D03*
X189500Y236000D03*
Y225000D03*
X194000D03*
G54D53*G54D54*G54D53*G54D15*G54D53*G54D15*G54D53*G54D15*G54D53*G54D54*G54D53*G54D15*G54D53*G54D15*G54D53*G54D54*G54D55*G54D54*G54D56*G54D54*G54D56*G54D54*G54D57*G54D55*G54D54*G54D55*G54D54*G54D56*G54D54*G54D56*G54D54*G54D57*G54D55*G54D57*G54D54*G54D56*G54D54*G54D55*G54D54*G54D56*G54D54*G54D57*G54D55*M02*
