G04 start of page 8 for group -4063 idx -4063 *
G04 Title: fet12, componentmask *
G04 Creator: pcb 20140316 *
G04 CreationDate: Thu 12 Apr 2018 01:23:09 AM GMT UTC *
G04 For: brian *
G04 Format: Gerber/RS-274X *
G04 PCB-Dimensions (mil): 6000.00 5000.00 *
G04 PCB-Coordinate-Origin: lower left *
%MOIN*%
%FSLAX25Y25*%
%LNTOPMASK*%
%ADD162R,0.2760X0.2760*%
%ADD161R,0.0550X0.0550*%
%ADD160R,0.1255X0.1255*%
%ADD159R,0.0230X0.0230*%
%ADD158R,0.0900X0.0900*%
%ADD157C,0.0001*%
%ADD156R,0.1024X0.1024*%
%ADD155C,0.0209*%
%ADD154R,0.0257X0.0257*%
%ADD153R,0.0276X0.0276*%
%ADD152R,0.0315X0.0315*%
%ADD151R,0.1457X0.1457*%
%ADD150R,0.1142X0.1142*%
%ADD149R,0.0551X0.0551*%
%ADD148C,0.0394*%
%ADD147R,0.0354X0.0354*%
%ADD146R,0.0240X0.0240*%
%ADD145R,0.3760X0.3760*%
%ADD144R,0.0728X0.0728*%
%ADD143R,0.0572X0.0572*%
%ADD142R,0.0100X0.0100*%
%ADD141R,0.0949X0.0949*%
%ADD140R,0.0217X0.0217*%
%ADD139R,0.0355X0.0355*%
%ADD138R,0.1074X0.1074*%
%ADD137R,0.0295X0.0295*%
%ADD136R,0.0886X0.0886*%
%ADD135C,0.1930*%
%ADD134C,0.2540*%
%ADD133C,0.0010*%
G54D133*X228095Y175173D03*
Y170449D03*
Y165724D03*
X232819Y175173D03*
Y170449D03*
Y165724D03*
X237544Y175173D03*
Y170449D03*
Y165724D03*
X242268Y175173D03*
Y170449D03*
Y165724D03*
Y161000D03*
X246992D03*
X242268Y156276D03*
X246992D03*
Y175173D03*
Y170449D03*
Y165724D03*
X228095Y161000D03*
X232819D03*
X237544D03*
X228095Y156276D03*
X232819D03*
X237544D03*
X228095Y151551D03*
X232819D03*
X237544D03*
X228095Y146827D03*
X232819D03*
X237544D03*
X242268Y151551D03*
X246992D03*
X242268Y146827D03*
X246992D03*
X228095Y208327D03*
Y213051D03*
Y217776D03*
Y222500D03*
X232819Y208327D03*
X237544D03*
X242268D03*
G54D134*X201000Y192000D03*
G54D133*X232819Y213051D03*
Y217776D03*
Y222500D03*
X237544Y213051D03*
Y217776D03*
Y222500D03*
X242268Y213051D03*
Y217776D03*
Y222500D03*
X246992Y208327D03*
Y213051D03*
Y217776D03*
Y222500D03*
X228095Y227224D03*
X232819D03*
X237544D03*
X228095Y231949D03*
X232819D03*
X237544D03*
X228095Y236673D03*
X232819D03*
X237544D03*
X242268Y227224D03*
X246992D03*
X242268Y231949D03*
X246992D03*
X242268Y236673D03*
X246992D03*
X300595Y208327D03*
Y213051D03*
Y217776D03*
Y222500D03*
Y227224D03*
Y231949D03*
X305319Y213051D03*
X310044D03*
X314768D03*
X319492D03*
Y217776D03*
Y222500D03*
Y227224D03*
Y231949D03*
Y236673D03*
X300595D03*
X305319D03*
X310044D03*
X305319Y217776D03*
X310044D03*
Y222500D03*
Y227224D03*
Y231949D03*
X305319Y222500D03*
Y227224D03*
Y231949D03*
X314768Y217776D03*
Y222500D03*
Y227224D03*
Y231949D03*
Y236673D03*
G54D135*X285000Y222500D03*
G54D133*X300595Y175173D03*
X305319D03*
X310044D03*
X314768D03*
X300595Y170449D03*
X305319D03*
X310044D03*
X314768D03*
X300595Y165724D03*
X305319D03*
X310044D03*
X314768D03*
X319492Y175173D03*
Y170449D03*
Y165724D03*
X300595Y161000D03*
X305319D03*
X310044D03*
X314768D03*
G54D135*X285000D03*
G54D133*X300595Y156276D03*
X305319D03*
X310044D03*
X314768D03*
X300595Y151551D03*
Y146827D03*
X305319Y151551D03*
Y146827D03*
X310044Y151551D03*
Y146827D03*
X314768Y151551D03*
Y146827D03*
X319492Y161000D03*
Y156276D03*
Y151551D03*
Y146827D03*
X305319Y208327D03*
X310044D03*
X314768D03*
X319492D03*
X317500Y192500D03*
X320453Y195453D03*
Y189547D03*
X314547Y195453D03*
Y189547D03*
X291500Y191500D03*
X294453Y188547D03*
Y194453D03*
X288547D03*
Y188547D03*
G54D134*X369500Y192000D03*
G54D133*X228095Y50776D03*
X232819D03*
X237544D03*
X228095Y46051D03*
X232819D03*
X237544D03*
X228095Y41327D03*
X232819D03*
X237544D03*
X242268Y50776D03*
X246992D03*
X242268Y46051D03*
X246992D03*
X242268Y41327D03*
X246992D03*
X228095Y69673D03*
Y64949D03*
Y60224D03*
Y55500D03*
X232819Y69673D03*
X237544D03*
X242268D03*
G54D134*X201000Y86500D03*
G54D133*X232819Y64949D03*
Y60224D03*
Y55500D03*
X237544Y64949D03*
Y60224D03*
Y55500D03*
X242268Y64949D03*
Y60224D03*
Y55500D03*
X246992Y69673D03*
Y64949D03*
Y60224D03*
Y55500D03*
X228095Y102827D03*
Y107551D03*
Y112276D03*
X232819Y102827D03*
Y107551D03*
Y112276D03*
X237544Y102827D03*
Y107551D03*
Y112276D03*
X242268Y102827D03*
Y107551D03*
Y112276D03*
Y117000D03*
X246992D03*
X242268Y121724D03*
X246992D03*
Y102827D03*
Y107551D03*
Y112276D03*
X228095Y117000D03*
X232819D03*
X237544D03*
X228095Y121724D03*
X232819D03*
X237544D03*
X228095Y126449D03*
X232819D03*
X237544D03*
X228095Y131173D03*
X232819D03*
X237544D03*
X242268Y126449D03*
X246992D03*
X242268Y131173D03*
X246992D03*
X300595Y102827D03*
Y107551D03*
Y112276D03*
G54D135*X285000Y117000D03*
G54D133*X305319Y102827D03*
Y107551D03*
Y112276D03*
X310044Y102827D03*
Y107551D03*
Y112276D03*
X314768Y102827D03*
Y107551D03*
Y112276D03*
Y117000D03*
X319492D03*
X314768Y121724D03*
X319492D03*
Y102827D03*
Y107551D03*
Y112276D03*
X300595Y117000D03*
X305319D03*
X310044D03*
X300595Y121724D03*
X305319D03*
X310044D03*
X300595Y126449D03*
X305319D03*
X310044D03*
X300595Y131173D03*
X305319D03*
X310044D03*
X314768Y126449D03*
X319492D03*
X314768Y131173D03*
X319492D03*
X300595Y50776D03*
X305319D03*
X310044D03*
X300595Y46051D03*
X305319D03*
X310044D03*
X300595Y41327D03*
X305319D03*
X310044D03*
X314768Y50776D03*
X319492D03*
X314768Y46051D03*
X319492D03*
X314768Y41327D03*
X319492D03*
X300595Y69673D03*
Y64949D03*
Y60224D03*
Y55500D03*
X305319Y69673D03*
X310044D03*
X314768D03*
X305319Y64949D03*
Y60224D03*
Y55500D03*
G54D135*X285000D03*
G54D133*X310044Y64949D03*
Y60224D03*
Y55500D03*
X314768Y64949D03*
Y60224D03*
Y55500D03*
X319492Y69673D03*
Y64949D03*
Y60224D03*
Y55500D03*
X317500Y87000D03*
X320453Y89953D03*
Y84047D03*
X314547Y89953D03*
Y84047D03*
G54D134*X369500Y86500D03*
G54D133*X291500Y86000D03*
X294453Y83047D03*
Y88953D03*
X288547Y83047D03*
Y88953D03*
X228095Y436724D03*
X232819D03*
X237544D03*
X228095Y441449D03*
X232819D03*
X237544D03*
X228095Y446173D03*
X232819D03*
X237544D03*
X242268Y436724D03*
X246992D03*
X242268Y441449D03*
X246992D03*
X242268Y446173D03*
X246992D03*
X300595Y417827D03*
Y422551D03*
Y427276D03*
Y432000D03*
Y436724D03*
Y441449D03*
X305319Y422551D03*
X310044D03*
X314768D03*
X319492D03*
Y427276D03*
Y432000D03*
Y436724D03*
Y441449D03*
Y446173D03*
X300595D03*
X305319D03*
X310044D03*
X305319Y427276D03*
X310044D03*
Y432000D03*
Y436724D03*
Y441449D03*
X305319Y432000D03*
Y436724D03*
Y441449D03*
X314768Y427276D03*
Y432000D03*
Y436724D03*
Y441449D03*
Y446173D03*
G54D135*X285000Y432000D03*
G54D133*X228095Y384673D03*
Y379949D03*
Y375224D03*
X232819Y384673D03*
X237544D03*
X242268D03*
X232819Y379949D03*
X237544D03*
X242268D03*
X246992Y384673D03*
Y379949D03*
Y375224D03*
Y370500D03*
Y365776D03*
X228095Y370500D03*
Y365776D03*
Y361051D03*
Y356327D03*
X232819Y375224D03*
X237544D03*
Y370500D03*
Y365776D03*
Y361051D03*
Y356327D03*
X232819Y370500D03*
Y365776D03*
Y361051D03*
Y356327D03*
X242268Y375224D03*
Y370500D03*
Y365776D03*
Y361051D03*
Y356327D03*
X246992D03*
Y361051D03*
X228095Y417827D03*
Y422551D03*
Y427276D03*
Y432000D03*
X232819Y417827D03*
X237544D03*
X242268D03*
G54D134*X201000Y401500D03*
G54D133*X232819Y422551D03*
Y427276D03*
Y432000D03*
X237544Y422551D03*
Y427276D03*
Y432000D03*
X242268Y422551D03*
Y427276D03*
Y432000D03*
X246992Y417827D03*
Y422551D03*
Y427276D03*
Y432000D03*
X300595Y384673D03*
X305319D03*
X310044D03*
X314768D03*
X300595Y379949D03*
X305319D03*
X310044D03*
X314768D03*
X300595Y375224D03*
X305319D03*
X310044D03*
X314768D03*
X319492Y384673D03*
Y379949D03*
Y375224D03*
X300595Y370500D03*
X305319D03*
X310044D03*
X314768D03*
G54D135*X285000D03*
G54D133*X300595Y365776D03*
X305319D03*
X310044D03*
X314768D03*
X300595Y361051D03*
Y356327D03*
X305319Y361051D03*
Y356327D03*
X310044Y361051D03*
Y356327D03*
X314768Y361051D03*
Y356327D03*
X319492Y370500D03*
Y365776D03*
Y361051D03*
Y356327D03*
X305319Y417827D03*
X310044D03*
X314768D03*
X319492D03*
X317500Y402000D03*
X320453Y404953D03*
Y399047D03*
X314547Y404953D03*
Y399047D03*
X291500Y401000D03*
X294453Y398047D03*
Y403953D03*
X288547D03*
Y398047D03*
G54D134*X369500Y401500D03*
G54D136*X212370Y310992D02*X215126D01*
G54D137*X220441Y298591D02*X225559D01*
G54D138*X200500Y373575D02*Y367669D01*
Y326331D02*Y320425D01*
G54D139*X232508Y332118D02*X233492D01*
X227008Y332059D02*X227992D01*
X232508Y327000D02*X233492D01*
X227008Y326941D02*X227992D01*
X232508Y336500D02*X233492D01*
X232508Y341618D02*X233492D01*
X227008Y341559D02*X227992D01*
X227008Y336441D02*X227992D01*
G54D137*X220441Y294654D02*X225559D01*
X220441Y290717D02*X225559D01*
X220441Y286780D02*X225559D01*
X220441Y282843D02*X225559D01*
X220441Y278906D02*X225559D01*
X220441Y274969D02*X225559D01*
X220441Y271031D02*X225559D01*
X220441Y267094D02*X225559D01*
G54D140*X251016Y287457D02*X255150D01*
X251016Y277220D02*X255150D01*
X251016Y274661D02*X255150D01*
X251016Y272102D02*X255150D01*
X251016Y269543D02*X255150D01*
G54D141*X264500Y280232D02*Y276768D01*
G54D142*Y281650D02*Y275350D01*
G54D140*X251016Y284898D02*X255150D01*
X251016Y282339D02*X255150D01*
X251016Y279780D02*X255150D01*
G54D139*X246008Y275559D02*X246992D01*
X246008Y270441D02*X246992D01*
G54D143*X234745Y276905D02*X240255D01*
G54D144*X260890Y327500D02*X268370D01*
X239630D02*X247110D01*
G54D145*X236000Y368500D02*X237000D01*
G54D139*X236508Y399441D02*X237492D01*
X236508Y404559D02*X237492D01*
X235008Y395059D02*X235992D01*
X235008Y389941D02*X235992D01*
X225508Y407559D02*X226492D01*
X225508Y402441D02*X226492D01*
X230559Y390992D02*Y390008D01*
X225441Y390992D02*Y390008D01*
X246441Y404992D02*Y404008D01*
X251559Y404992D02*Y404008D01*
G54D146*X258978Y408000D02*X260187D01*
G54D139*X246441Y398992D02*Y398008D01*
X251559Y398992D02*Y398008D01*
X256508Y398559D02*X257492D01*
X256508Y393441D02*X257492D01*
X264941Y391992D02*Y391008D01*
X262008Y396441D02*X262992D01*
X262008Y401559D02*X262992D01*
X272559Y401992D02*Y401008D01*
G54D147*X271181Y396500D02*X272165D01*
X271181D02*X272165D01*
G54D139*X267441Y401992D02*Y401008D01*
G54D146*X266813Y408000D02*X268022D01*
G54D137*X267539Y396795D02*Y396205D01*
Y396795D02*Y396205D01*
X220441Y263157D02*X225559D01*
X220441Y259220D02*X225559D01*
X220441Y255283D02*X225559D01*
X220441Y251346D02*X225559D01*
X220441Y247409D02*X225559D01*
G54D136*X212370Y235008D02*X215126D01*
G54D148*X225732Y234311D03*
Y239035D03*
G54D149*X225260Y239626D02*Y205374D01*
G54D148*X225732Y205965D03*
Y210689D03*
Y215413D03*
Y220138D03*
G54D150*X233724Y233917D02*Y211083D01*
G54D148*X235181Y220138D03*
Y224862D03*
X230457Y220138D03*
Y224862D03*
X235181Y229587D03*
Y234311D03*
Y210689D03*
Y215413D03*
X230457Y210689D03*
Y215413D03*
Y229587D03*
Y234311D03*
X225732Y224862D03*
Y229587D03*
G54D151*X246717Y234311D02*Y210689D01*
G54D148*X249354Y220138D03*
X244630D03*
X239906Y224862D03*
Y229587D03*
Y234311D03*
X249354Y205965D03*
Y210689D03*
Y215413D03*
X244630Y205965D03*
Y210689D03*
Y215413D03*
X239906Y210689D03*
G54D143*X250819Y252595D02*X253181D01*
G54D148*X249354Y224862D03*
Y229587D03*
Y234311D03*
Y239035D03*
X244630Y229587D03*
Y234311D03*
Y224862D03*
Y239035D03*
X239906Y215413D03*
Y220138D03*
G54D139*X236508Y189941D02*X237492D01*
X236508Y195059D02*X237492D01*
X237008Y185559D02*X237992D01*
X246441Y195492D02*Y194508D01*
X226008Y198059D02*X226992D01*
X226008Y192941D02*X226992D01*
X237008Y180441D02*X237992D01*
X229559Y181492D02*Y180508D01*
X224441Y181492D02*Y180508D01*
X246441Y189492D02*Y188508D01*
X251559Y195492D02*Y194508D01*
Y189492D02*Y188508D01*
X256508Y183941D02*X257492D01*
X262008Y186941D02*X262992D01*
G54D146*X258978Y198500D02*X260187D01*
G54D139*X262008Y192059D02*X262992D01*
X256508Y189059D02*X257492D01*
G54D145*X236000Y159000D02*X237000D01*
G54D139*X272559Y192492D02*Y191508D01*
X264941Y182492D02*Y181508D01*
X267441Y192492D02*Y191508D01*
G54D146*X266813Y198500D02*X268022D01*
G54D147*X271181Y187000D02*X272165D01*
G54D137*X267539Y187295D02*Y186705D01*
Y187295D02*Y186705D01*
G54D142*X265417Y205252D02*X273291D01*
G54D152*X265417Y205965D02*X273291D01*
G54D153*X265614D02*X273094D01*
G54D142*X265417Y211402D02*X273291D01*
G54D152*X265417Y210689D02*X273291D01*
G54D153*X265614D02*X273094D01*
G54D152*X265417Y215413D02*X273291D01*
G54D153*X265614D02*X273094D01*
G54D152*X265417Y220138D02*X273291D01*
G54D153*X265614D02*X273094D01*
G54D152*X265417Y239035D02*Y211402D01*
Y224862D02*X273291D01*
G54D153*X265614D02*X273094D01*
G54D152*X265417Y229587D02*X273291D01*
G54D153*X265614D02*X273094D01*
G54D152*X265417Y234311D02*X273291D01*
G54D153*X265614D02*X273094D01*
G54D152*X265417Y239035D02*X273291D01*
G54D153*X265614D02*X273094D01*
G54D139*X270059Y182492D02*Y181508D01*
G54D147*X271181Y187000D02*X272165D01*
G54D139*X270059Y391992D02*Y391008D01*
X320441Y390992D02*Y390008D01*
G54D154*X310426Y391393D02*Y390607D01*
X313574Y391393D02*Y390607D01*
G54D155*X308740Y395701D02*X310709D01*
G54D154*X306074Y405893D02*Y405107D01*
X302926Y405893D02*Y405107D01*
G54D139*X298508Y407559D02*X299492D01*
X298508Y402441D02*X299492D01*
G54D156*X317500Y402965D02*Y401035D01*
G54D157*G36*
X318091Y407118D02*Y402591D01*
X322618D01*
Y407118D01*
X318091D01*
G37*
G36*
Y401409D02*Y396882D01*
X322618D01*
Y401409D01*
X318091D01*
G37*
G36*
X312382Y407118D02*Y402591D01*
X316909D01*
Y407118D01*
X312382D01*
G37*
G36*
Y401409D02*Y396882D01*
X316909D01*
Y401409D01*
X312382D01*
G37*
G54D155*X308740Y398850D02*X310709D01*
X308740Y402000D02*X310709D01*
X308740Y405150D02*X310709D01*
X308740Y408299D02*X310709D01*
G54D142*X265417Y414752D02*X273291D01*
G54D152*X265417Y415465D02*X273291D01*
G54D153*X265614D02*X273094D01*
G54D142*X265417Y420902D02*X273291D01*
G54D152*X265417Y420189D02*X273291D01*
G54D153*X265614D02*X273094D01*
G54D152*X265417Y424913D02*X273291D01*
G54D153*X265614D02*X273094D01*
G54D152*X265417Y429638D02*X273291D01*
G54D153*X265614D02*X273094D01*
G54D152*X265417Y434362D02*X273291D01*
G54D153*X265614D02*X273094D01*
G54D152*X265417Y439087D02*X273291D01*
G54D153*X265614D02*X273094D01*
G54D152*X265417Y443811D02*X273291D01*
G54D153*X265614D02*X273094D01*
G54D152*X265417Y448535D02*X273291D01*
G54D153*X265614D02*X273094D01*
G54D152*X265417D02*Y420902D01*
G54D149*X225260Y449126D02*Y414874D01*
G54D148*X225732Y415465D03*
Y420189D03*
Y424913D03*
Y429638D03*
G54D150*X233724Y443417D02*Y420583D01*
G54D148*X235181Y429638D03*
Y434362D03*
X230457Y429638D03*
Y434362D03*
X235181Y420189D03*
Y424913D03*
X230457Y420189D03*
Y424913D03*
X225732Y434362D03*
Y439087D03*
G54D151*X246717Y443811D02*Y420189D01*
G54D148*X249354Y429638D03*
X244630D03*
X239906Y434362D03*
Y439087D03*
Y443811D03*
X249354Y415465D03*
Y420189D03*
Y424913D03*
X244630Y415465D03*
Y420189D03*
Y424913D03*
X239906Y420189D03*
X249354Y434362D03*
Y439087D03*
Y443811D03*
Y448535D03*
X244630Y439087D03*
Y443811D03*
Y434362D03*
Y448535D03*
X239906Y424913D03*
Y429638D03*
X235181Y439087D03*
Y443811D03*
X230457Y439087D03*
Y443811D03*
X225732D03*
Y448535D03*
G54D149*X297760Y449126D02*Y414874D01*
G54D148*X298232Y415465D03*
Y420189D03*
Y424913D03*
Y429638D03*
G54D150*X306224Y443417D02*Y420583D01*
G54D148*X307681Y429638D03*
Y434362D03*
X302957Y429638D03*
Y434362D03*
X307681Y420189D03*
Y424913D03*
X302957Y420189D03*
Y424913D03*
X298232Y434362D03*
Y439087D03*
G54D142*X337917Y414752D02*X345791D01*
G54D152*X337917Y415465D02*X345791D01*
G54D153*X338114D02*X345594D01*
G54D142*X337917Y420902D02*X345791D01*
G54D152*X337917Y420189D02*X345791D01*
G54D153*X338114D02*X345594D01*
G54D152*X337917Y424913D02*X345791D01*
G54D153*X338114D02*X345594D01*
G54D152*X337917Y429638D02*X345791D01*
G54D153*X338114D02*X345594D01*
G54D152*X337917Y434362D02*X345791D01*
G54D153*X338114D02*X345594D01*
G54D152*X337917Y448535D02*Y420902D01*
Y439087D02*X345791D01*
G54D153*X338114D02*X345594D01*
G54D152*X337917Y443811D02*X345791D01*
G54D153*X338114D02*X345594D01*
G54D152*X337917Y448535D02*X345791D01*
G54D153*X338114D02*X345594D01*
G54D151*X319217Y443811D02*Y420189D01*
G54D148*X321854Y429638D03*
X317130D03*
X312406Y434362D03*
Y439087D03*
Y443811D03*
X321854Y415465D03*
Y420189D03*
Y424913D03*
X317130Y415465D03*
Y420189D03*
Y424913D03*
X312406Y420189D03*
X321854Y434362D03*
Y439087D03*
Y443811D03*
Y448535D03*
X317130Y439087D03*
Y443811D03*
Y434362D03*
Y448535D03*
X312406Y424913D03*
Y429638D03*
X307681Y439087D03*
Y443811D03*
X302957Y439087D03*
Y443811D03*
X298232D03*
Y448535D03*
G54D144*X377390Y439500D02*X384870D01*
X356130D02*X363610D01*
G54D143*X298095Y297181D02*Y294819D01*
G54D158*X293000Y342000D02*X300000D01*
X293000Y305000D02*X300000D01*
G54D159*X330559Y309984D02*Y304630D01*
X333118Y309984D02*Y304630D01*
X335677Y309984D02*Y304630D01*
G54D143*X315905Y288255D02*Y282745D01*
X304095Y288255D02*Y282745D01*
X309905Y297181D02*Y294819D01*
G54D144*X308890Y259500D02*X316370D01*
G54D159*X320323Y309984D02*Y304630D01*
X322882Y309984D02*Y304630D01*
X325441Y309984D02*Y304630D01*
X328000Y309984D02*Y304630D01*
G54D143*X323543Y298393D02*Y297607D01*
X316457Y298393D02*Y297607D01*
G54D139*X328059Y339492D02*Y338508D01*
X322941Y339492D02*Y338508D01*
X332508Y338441D02*X333492D01*
X332508Y343559D02*X333492D01*
G54D159*X335677Y333370D02*Y328016D01*
X333118Y333370D02*Y328016D01*
X330559Y333370D02*Y328016D01*
X328000Y333370D02*Y328016D01*
G54D160*X327803Y319000D02*X328197D01*
G54D159*X325441Y333370D02*Y328016D01*
X322882Y333370D02*Y328016D01*
X320323Y333370D02*Y328016D01*
G54D143*X250819Y264405D02*X253181D01*
X234745Y265095D02*X240255D01*
G54D140*X273850Y274661D02*X277984D01*
G54D161*X275000Y262450D02*Y248550D01*
X262000Y262450D02*Y248550D01*
G54D140*X273850Y277220D02*X277984D01*
G54D139*X287559Y277992D02*Y277008D01*
X282441Y277992D02*Y277008D01*
G54D140*X273850Y279780D02*X277984D01*
X273850Y282339D02*X277984D01*
G54D139*X281941Y283992D02*Y283008D01*
X287059Y283992D02*Y283008D01*
G54D140*X273850Y284898D02*X277984D01*
X273850Y287457D02*X277984D01*
G54D139*X282008Y267441D02*X282992D01*
X282008Y272559D02*X282992D01*
G54D140*X273850Y269543D02*X277984D01*
X273850Y272102D02*X277984D01*
G54D144*X287630Y259500D02*X295110D01*
G54D139*X325559Y390992D02*Y390008D01*
G54D157*G36*
X336050Y268800D02*Y260900D01*
X343950D01*
Y268800D01*
X336050D01*
G37*
G36*
Y253100D02*Y245200D01*
X343950D01*
Y253100D01*
X336050D01*
G37*
G54D162*X342500Y372500D02*Y362500D01*
G54D138*X370000Y323831D02*Y317925D01*
Y301575D02*Y295669D01*
Y254331D02*Y248425D01*
Y371075D02*Y365169D01*
G54D139*X342508Y403441D02*X343492D01*
G54D137*X341705Y398961D02*X342295D01*
X341705D02*X342295D01*
G54D139*X342508Y408559D02*X343492D01*
G54D147*X342000Y395319D02*Y394335D01*
Y395319D02*Y394335D01*
G54D139*X336508Y396441D02*X337492D01*
X336508Y401559D02*X337492D01*
G54D146*X329978Y408000D02*X331187D01*
X337813D02*X339022D01*
G54D155*X324291Y395701D02*X326260D01*
X324291Y398850D02*X326260D01*
X324291Y402000D02*X326260D01*
X324291Y405150D02*X326260D01*
X324291Y408299D02*X326260D01*
G54D145*X275500Y367500D02*X308500D01*
G54D149*X297760Y239626D02*Y205374D01*
G54D148*X298232Y224862D03*
Y229587D03*
Y234311D03*
Y239035D03*
Y205965D03*
Y210689D03*
Y215413D03*
Y220138D03*
G54D139*X298508Y198059D02*X299492D01*
X298508Y192941D02*X299492D01*
G54D150*X306224Y233917D02*Y211083D01*
G54D148*X307681Y220138D03*
X302957Y215413D03*
Y220138D03*
Y229587D03*
Y234311D03*
X312406Y215413D03*
Y220138D03*
X307681Y210689D03*
Y215413D03*
X302957Y210689D03*
X307681Y224862D03*
Y234311D03*
X302957Y224862D03*
X317130Y229587D03*
Y234311D03*
X312406Y224862D03*
Y229587D03*
Y234311D03*
X307681Y229587D03*
G54D154*X306074Y196393D02*Y195607D01*
X302926Y196393D02*Y195607D01*
G54D155*X308740Y192500D02*X310709D01*
X308740Y195650D02*X310709D01*
G54D157*G36*
X312382Y197618D02*Y193091D01*
X316909D01*
Y197618D01*
X312382D01*
G37*
G54D155*X308740Y198799D02*X310709D01*
G54D154*X310426Y181893D02*Y181107D01*
X313574Y181893D02*Y181107D01*
G54D156*X317500Y193465D02*Y191535D01*
G54D157*G36*
X318091Y197618D02*Y193091D01*
X322618D01*
Y197618D01*
X318091D01*
G37*
G36*
Y191909D02*Y187382D01*
X322618D01*
Y191909D01*
X318091D01*
G37*
G36*
X312382D02*Y187382D01*
X316909D01*
Y191909D01*
X312382D01*
G37*
G54D155*X308740Y186201D02*X310709D01*
X308740Y189350D02*X310709D01*
G54D142*X337917Y205252D02*X345791D01*
G54D152*X337917Y205965D02*X345791D01*
G54D153*X338114D02*X345594D01*
G54D142*X337917Y211402D02*X345791D01*
G54D152*X337917Y210689D02*X345791D01*
G54D153*X338114D02*X345594D01*
G54D152*X337917Y215413D02*X345791D01*
G54D153*X338114D02*X345594D01*
G54D139*X342508Y199059D02*X343492D01*
G54D146*X337813Y198500D02*X339022D01*
G54D151*X319217Y234311D02*Y210689D01*
G54D148*X321854Y220138D03*
X317130D03*
Y224862D03*
Y239035D03*
X321854Y224862D03*
Y229587D03*
Y234311D03*
Y239035D03*
Y205965D03*
Y210689D03*
Y215413D03*
X317130Y205965D03*
Y210689D03*
Y215413D03*
X312406Y210689D03*
G54D139*X342508Y193941D02*X343492D01*
G54D137*X341705Y189461D02*X342295D01*
X341705D02*X342295D01*
G54D139*X336508Y192059D02*X337492D01*
G54D155*X324291Y192500D02*X326260D01*
X324291Y195650D02*X326260D01*
G54D146*X329978Y198500D02*X331187D01*
G54D155*X324291Y198799D02*X326260D01*
G54D139*X336508Y186941D02*X337492D01*
G54D147*X342000Y185819D02*Y184835D01*
Y185819D02*Y184835D01*
G54D155*X324291Y186201D02*X326260D01*
X324291Y189350D02*X326260D01*
G54D152*X337917Y220138D02*X345791D01*
G54D153*X338114D02*X345594D01*
G54D152*X337917Y224862D02*X345791D01*
G54D153*X338114D02*X345594D01*
G54D152*X337917Y229587D02*X345791D01*
G54D153*X338114D02*X345594D01*
G54D152*X337917Y234311D02*X345791D01*
G54D153*X338114D02*X345594D01*
G54D152*X337917Y239035D02*X345791D01*
G54D153*X338114D02*X345594D01*
G54D152*X337917D02*Y211402D01*
G54D138*X200500Y166075D02*Y160169D01*
Y118831D02*Y112925D01*
G54D149*X225260Y134126D02*Y99874D01*
G54D148*X225732Y100465D03*
Y105189D03*
Y109913D03*
Y114638D03*
G54D150*X233724Y128417D02*Y105583D01*
G54D148*X235181Y114638D03*
Y119362D03*
X230457Y114638D03*
Y119362D03*
X235181Y105189D03*
Y109913D03*
X230457Y105189D03*
Y109913D03*
X225732Y119362D03*
Y124087D03*
G54D151*X246717Y128811D02*Y105189D01*
G54D148*X249354Y114638D03*
X244630D03*
X239906Y119362D03*
Y124087D03*
Y128811D03*
X249354Y100465D03*
Y105189D03*
Y109913D03*
X244630Y100465D03*
Y105189D03*
Y109913D03*
X239906Y105189D03*
X249354Y119362D03*
Y124087D03*
Y128811D03*
Y133535D03*
X244630Y124087D03*
Y128811D03*
Y119362D03*
Y133535D03*
X239906Y109913D03*
Y114638D03*
X235181Y124087D03*
Y128811D03*
X230457Y124087D03*
Y128811D03*
X225732D03*
Y133535D03*
G54D139*X236508Y84441D02*X237492D01*
X236508Y89559D02*X237492D01*
X237008Y80059D02*X237992D01*
X246441Y89992D02*Y89008D01*
X226008Y92559D02*X226992D01*
X226008Y87441D02*X226992D01*
X237008Y74941D02*X237992D01*
X229559Y75992D02*Y75008D01*
X224441Y75992D02*Y75008D01*
X246441Y83992D02*Y83008D01*
X251559Y89992D02*Y89008D01*
Y83992D02*Y83008D01*
G54D146*X258978Y93000D02*X260187D01*
G54D139*X262008Y81441D02*X262992D01*
G54D137*X267539Y81795D02*Y81205D01*
G54D146*X266813Y93000D02*X268022D01*
G54D139*X262008Y86559D02*X262992D01*
X256508Y83559D02*X257492D01*
X256508Y78441D02*X257492D01*
G54D145*X236000Y53500D02*X237000D01*
G54D144*X206890Y48000D02*X214370D01*
X185630D02*X193110D01*
G54D139*X272559Y86992D02*Y86008D01*
G54D147*X271181Y81500D02*X272165D01*
G54D139*X264941Y76992D02*Y76008D01*
X267441Y86992D02*Y86008D01*
G54D147*X271181Y81500D02*X272165D01*
G54D137*X267539Y81795D02*Y81205D01*
G54D139*X270059Y76992D02*Y76008D01*
X298508Y92559D02*X299492D01*
G54D154*X306074Y90893D02*Y90107D01*
X302926Y90893D02*Y90107D01*
G54D139*X298508Y87441D02*X299492D01*
G54D155*X308740Y87000D02*X310709D01*
X308740Y90150D02*X310709D01*
X308740Y93299D02*X310709D01*
G54D156*X317500Y87965D02*Y86035D01*
G54D157*G36*
X318091Y92118D02*Y87591D01*
X322618D01*
Y92118D01*
X318091D01*
G37*
G36*
Y86409D02*Y81882D01*
X322618D01*
Y86409D01*
X318091D01*
G37*
G36*
X312382Y92118D02*Y87591D01*
X316909D01*
Y92118D01*
X312382D01*
G37*
G36*
Y86409D02*Y81882D01*
X316909D01*
Y86409D01*
X312382D01*
G37*
G54D155*X308740Y80701D02*X310709D01*
X324291D02*X326260D01*
X308740Y83850D02*X310709D01*
X324291D02*X326260D01*
X324291Y87000D02*X326260D01*
X324291Y90150D02*X326260D01*
X324291Y93299D02*X326260D01*
G54D145*X275500Y52500D02*X308500D01*
G54D138*X370000Y166075D02*Y160169D01*
Y118831D02*Y112925D01*
G54D139*X320441Y181492D02*Y180508D01*
X325559Y181492D02*Y180508D01*
G54D162*X342500Y163000D02*Y153000D01*
G54D152*X337917Y128811D02*X345791D01*
G54D153*X338114D02*X345594D01*
G54D152*X337917Y133535D02*X345791D01*
G54D153*X338114D02*X345594D01*
G54D145*X275500Y158000D02*X308500D01*
G54D148*X317130Y133535D03*
G54D152*X337917Y114638D02*X345791D01*
G54D153*X338114D02*X345594D01*
G54D152*X337917Y119362D02*X345791D01*
G54D153*X338114D02*X345594D01*
G54D152*X337917Y124087D02*X345791D01*
G54D153*X338114D02*X345594D01*
G54D152*X337917Y133535D02*Y105902D01*
G54D148*X321854Y114638D03*
Y119362D03*
Y124087D03*
Y128811D03*
Y133535D03*
X317130Y100465D03*
Y105189D03*
X312406D03*
Y109913D03*
X317130D03*
Y114638D03*
Y119362D03*
Y124087D03*
Y128811D03*
X312406Y114638D03*
Y119362D03*
Y124087D03*
Y128811D03*
G54D142*X337917Y99752D02*X345791D01*
G54D152*X337917Y100465D02*X345791D01*
G54D153*X338114D02*X345594D01*
G54D148*X321854D03*
G54D142*X337917Y105902D02*X345791D01*
G54D152*X337917Y105189D02*X345791D01*
G54D153*X338114D02*X345594D01*
G54D148*X321854D03*
Y109913D03*
G54D152*X337917D02*X345791D01*
G54D153*X338114D02*X345594D01*
G54D146*X329978Y93000D02*X331187D01*
X337813D02*X339022D01*
G54D139*X342508Y88441D02*X343492D01*
X342508Y93559D02*X343492D01*
X336508Y81441D02*X337492D01*
X336508Y86559D02*X337492D01*
G54D147*X342000Y80319D02*Y79335D01*
Y80319D02*Y79335D01*
G54D137*X341705Y83961D02*X342295D01*
X341705D02*X342295D01*
G54D151*X319217Y128811D02*Y105189D01*
G54D139*X320441Y75992D02*Y75008D01*
G54D154*X310426Y76393D02*Y75607D01*
X313574Y76393D02*Y75607D01*
G54D139*X325559Y75992D02*Y75008D01*
G54D148*X307681Y105189D03*
Y109913D03*
X302957Y105189D03*
Y109913D03*
X298232Y100465D03*
Y105189D03*
Y109913D03*
G54D142*X265417Y99752D02*X273291D01*
G54D152*X265417Y100465D02*X273291D01*
G54D153*X265614D02*X273094D01*
G54D142*X265417Y105902D02*X273291D01*
G54D152*X265417Y105189D02*X273291D01*
G54D153*X265614D02*X273094D01*
G54D152*X265417Y109913D02*X273291D01*
G54D153*X265614D02*X273094D01*
G54D152*X265417Y114638D02*X273291D01*
G54D153*X265614D02*X273094D01*
G54D152*X265417Y119362D02*X273291D01*
G54D153*X265614D02*X273094D01*
G54D152*X265417Y124087D02*X273291D01*
G54D153*X265614D02*X273094D01*
G54D152*X265417Y128811D02*X273291D01*
G54D153*X265614D02*X273094D01*
G54D152*X265417Y133535D02*X273291D01*
G54D153*X265614D02*X273094D01*
G54D152*X265417D02*Y105902D01*
G54D149*X297760Y134126D02*Y99874D01*
G54D148*X298232Y114638D03*
Y119362D03*
Y124087D03*
Y128811D03*
Y133535D03*
G54D150*X306224Y128417D02*Y105583D01*
G54D148*X307681Y114638D03*
Y119362D03*
X302957Y114638D03*
Y119362D03*
X307681Y124087D03*
Y128811D03*
X302957Y124087D03*
Y128811D03*
G54D162*X342500Y57500D02*Y47500D01*
G54D144*X377390Y48000D02*X384870D01*
X356130D02*X363610D01*
M02*
