G04 start of page 14 for group -3984 idx -3984 *
G04 Title: fet12, fab *
G04 Creator: pcb 20140316 *
G04 CreationDate: Thu 12 Apr 2018 01:23:09 AM GMT UTC *
G04 For: brian *
G04 Format: Gerber/RS-274X *
G04 PCB-Dimensions (mil): 6000.00 5000.00 *
G04 PCB-Coordinate-Origin: lower left *
%MOIN*%
%FSLAX25Y25*%
%LNFAB*%
%ADD234C,0.0100*%
%ADD233C,0.0075*%
%ADD232C,0.0060*%
%ADD231R,0.0080X0.0080*%
G54D231*X199400Y403100D02*X202600D01*
X199400D02*Y399900D01*
X202600D01*
Y403100D02*Y399900D01*
X367900Y403100D02*X371100D01*
X367900D02*Y399900D01*
X371100D01*
Y403100D02*Y399900D01*
X199400Y193600D02*X202600D01*
X199400D02*Y190400D01*
X202600D01*
Y193600D02*Y190400D01*
X367900Y193600D02*X371100D01*
X367900D02*Y190400D01*
X371100D01*
Y193600D02*Y190400D01*
X199400Y88100D02*X202600D01*
X199400D02*Y84900D01*
X202600D01*
Y88100D02*Y84900D01*
X367900Y88100D02*X371100D01*
X367900D02*Y84900D01*
X371100D01*
Y88100D02*Y84900D01*
X13400Y512850D02*X16600D01*
X13400D02*Y509650D01*
X16600D01*
Y512850D02*Y509650D01*
G54D232*X135000Y513500D02*X136500Y510500D01*
X138000Y513500D01*
X136500Y510500D02*Y507500D01*
X139800Y510800D02*X142050D01*
X139800Y507500D02*X142800D01*
X139800Y513500D02*Y507500D01*
Y513500D02*X142800D01*
X147600D02*X148350Y512750D01*
X145350Y513500D02*X147600D01*
X144600Y512750D02*X145350Y513500D01*
X144600Y512750D02*Y511250D01*
X145350Y510500D01*
X147600D01*
X148350Y509750D01*
Y508250D01*
X147600Y507500D02*X148350Y508250D01*
X145350Y507500D02*X147600D01*
X144600Y508250D02*X145350Y507500D01*
X100250Y513500D02*X101000Y512750D01*
X98750Y513500D02*X100250D01*
X98000Y512750D02*X98750Y513500D01*
X98000Y512750D02*Y508250D01*
X98750Y507500D01*
X100250Y510800D02*X101000Y510050D01*
X98000Y510800D02*X100250D01*
X98750Y507500D02*X100250D01*
X101000Y508250D01*
Y510050D02*Y508250D01*
X45000D02*X45750Y507500D01*
X45000Y512750D02*Y508250D01*
Y512750D02*X45750Y513500D01*
X47250D01*
X48000Y512750D01*
Y508250D01*
X47250Y507500D02*X48000Y508250D01*
X45750Y507500D02*X47250D01*
X45000Y509000D02*X48000Y512000D01*
X49800Y507500D02*X50550D01*
X52350Y512750D02*X53100Y513500D01*
X55350D01*
X56100Y512750D01*
Y511250D01*
X52350Y507500D02*X56100Y511250D01*
X52350Y507500D02*X56100D01*
X57900Y512300D02*X59100Y513500D01*
Y507500D01*
X57900D02*X60150D01*
X61950Y513500D02*X64950D01*
X61950D02*Y510500D01*
X62700Y511250D01*
X64200D01*
X64950Y510500D01*
Y508250D01*
X64200Y507500D02*X64950Y508250D01*
X62700Y507500D02*X64200D01*
X61950Y508250D02*X62700Y507500D01*
X284200Y432000D02*G75*G03X285800Y432000I800J0D01*G01*
G75*G03X284200Y432000I-800J0D01*G01*
Y370500D02*G75*G03X285800Y370500I800J0D01*G01*
G75*G03X284200Y370500I-800J0D01*G01*
Y222500D02*G75*G03X285800Y222500I800J0D01*G01*
G75*G03X284200Y222500I-800J0D01*G01*
Y161000D02*G75*G03X285800Y161000I800J0D01*G01*
G75*G03X284200Y161000I-800J0D01*G01*
Y117000D02*G75*G03X285800Y117000I800J0D01*G01*
G75*G03X284200Y117000I-800J0D01*G01*
Y55500D02*G75*G03X285800Y55500I800J0D01*G01*
G75*G03X284200Y55500I-800J0D01*G01*
X14200Y526250D02*G75*G03X15800Y526250I800J0D01*G01*
G75*G03X14200Y526250I-800J0D01*G01*
X135000Y528500D02*X136500Y525500D01*
X138000Y528500D01*
X136500Y525500D02*Y522500D01*
X139800Y525800D02*X142050D01*
X139800Y522500D02*X142800D01*
X139800Y528500D02*Y522500D01*
Y528500D02*X142800D01*
X147600D02*X148350Y527750D01*
X145350Y528500D02*X147600D01*
X144600Y527750D02*X145350Y528500D01*
X144600Y527750D02*Y526250D01*
X145350Y525500D01*
X147600D01*
X148350Y524750D01*
Y523250D01*
X147600Y522500D02*X148350Y523250D01*
X145350Y522500D02*X147600D01*
X144600Y523250D02*X145350Y522500D01*
X100250Y528500D02*X101000Y527750D01*
X98750Y528500D02*X100250D01*
X98000Y527750D02*X98750Y528500D01*
X98000Y527750D02*Y523250D01*
X98750Y522500D01*
X100250Y525800D02*X101000Y525050D01*
X98000Y525800D02*X100250D01*
X98750Y522500D02*X100250D01*
X101000Y523250D01*
Y525050D02*Y523250D01*
X45000D02*X45750Y522500D01*
X45000Y527750D02*Y523250D01*
Y527750D02*X45750Y528500D01*
X47250D01*
X48000Y527750D01*
Y523250D01*
X47250Y522500D02*X48000Y523250D01*
X45750Y522500D02*X47250D01*
X45000Y524000D02*X48000Y527000D01*
X49800Y522500D02*X50550D01*
X52350Y527300D02*X53550Y528500D01*
Y522500D01*
X52350D02*X54600D01*
X56400Y527750D02*X57150Y528500D01*
X59400D01*
X60150Y527750D01*
Y526250D01*
X56400Y522500D02*X60150Y526250D01*
X56400Y522500D02*X60150D01*
X62700D02*X64950Y525500D01*
Y527750D02*Y525500D01*
X64200Y528500D02*X64950Y527750D01*
X62700Y528500D02*X64200D01*
X61950Y527750D02*X62700Y528500D01*
X61950Y527750D02*Y526250D01*
X62700Y525500D01*
X64950D01*
X303300Y253700D02*X305700Y251300D01*
X303300D02*X305700Y253700D01*
X325800Y347700D02*X328200Y345300D01*
X325800D02*X328200Y347700D01*
X227800Y284700D02*X230200Y282300D01*
X227800D02*X230200Y284700D01*
X215800Y284200D02*X218200Y281800D01*
X215800D02*X218200Y284200D01*
X227800Y295700D02*X230200Y293300D01*
X227800D02*X230200Y295700D01*
X215800D02*X218200Y293300D01*
X215800D02*X218200Y295700D01*
X13800Y542450D02*X16200Y540050D01*
X13800D02*X16200Y542450D01*
X135000Y543500D02*X136500Y540500D01*
X138000Y543500D01*
X136500Y540500D02*Y537500D01*
X139800Y540800D02*X142050D01*
X139800Y537500D02*X142800D01*
X139800Y543500D02*Y537500D01*
Y543500D02*X142800D01*
X147600D02*X148350Y542750D01*
X145350Y543500D02*X147600D01*
X144600Y542750D02*X145350Y543500D01*
X144600Y542750D02*Y541250D01*
X145350Y540500D01*
X147600D01*
X148350Y539750D01*
Y538250D01*
X147600Y537500D02*X148350Y538250D01*
X145350Y537500D02*X147600D01*
X144600Y538250D02*X145350Y537500D01*
X100250Y543500D02*X101000Y542750D01*
X98750Y543500D02*X100250D01*
X98000Y542750D02*X98750Y543500D01*
X98000Y542750D02*Y538250D01*
X98750Y537500D01*
X100250Y540800D02*X101000Y540050D01*
X98000Y540800D02*X100250D01*
X98750Y537500D02*X100250D01*
X101000Y538250D01*
Y540050D02*Y538250D01*
X45000D02*X45750Y537500D01*
X45000Y542750D02*Y538250D01*
Y542750D02*X45750Y543500D01*
X47250D01*
X48000Y542750D01*
Y538250D01*
X47250Y537500D02*X48000Y538250D01*
X45750Y537500D02*X47250D01*
X45000Y539000D02*X48000Y542000D01*
X49800Y537500D02*X50550D01*
X52350Y538250D02*X53100Y537500D01*
X52350Y542750D02*Y538250D01*
Y542750D02*X53100Y543500D01*
X54600D01*
X55350Y542750D01*
Y538250D01*
X54600Y537500D02*X55350Y538250D01*
X53100Y537500D02*X54600D01*
X52350Y539000D02*X55350Y542000D01*
X57150Y542750D02*X57900Y543500D01*
X60150D01*
X60900Y542750D01*
Y541250D01*
X57150Y537500D02*X60900Y541250D01*
X57150Y537500D02*X60900D01*
X62700Y543500D02*X65700D01*
X62700D02*Y540500D01*
X63450Y541250D01*
X64950D01*
X65700Y540500D01*
Y538250D01*
X64950Y537500D02*X65700Y538250D01*
X63450Y537500D02*X64950D01*
X62700Y538250D02*X63450Y537500D01*
X251500Y395600D02*Y392400D01*
X249900Y394000D02*X253100D01*
X251500Y410600D02*Y407400D01*
X249900Y409000D02*X253100D01*
X246000Y410100D02*Y406900D01*
X244400Y408500D02*X247600D01*
X246000Y396100D02*Y392900D01*
X244400Y394500D02*X247600D01*
X232500Y410600D02*Y407400D01*
X230900Y409000D02*X234100D01*
X232500Y406100D02*Y402900D01*
X230900Y404500D02*X234100D01*
X295500Y290600D02*Y287400D01*
X293900Y289000D02*X297100D01*
X297500Y287100D02*Y283900D01*
X295900Y285500D02*X299100D01*
X299500Y290600D02*Y287400D01*
X297900Y289000D02*X301100D01*
X299500Y283600D02*Y280400D01*
X297900Y282000D02*X301100D01*
X343000Y326600D02*Y323400D01*
X341400Y325000D02*X344600D01*
X317500Y309100D02*Y305900D01*
X315900Y307500D02*X319100D01*
X330000Y292100D02*Y288900D01*
X328400Y290500D02*X331600D01*
X329000Y298600D02*Y295400D01*
X327400Y297000D02*X330600D01*
X334500Y301100D02*Y297900D01*
X332900Y299500D02*X336100D01*
X337500Y338600D02*Y335400D01*
X335900Y337000D02*X339100D01*
X333000Y348600D02*Y345400D01*
X331400Y347000D02*X334600D01*
X324000Y293100D02*Y289900D01*
X322400Y291500D02*X325600D01*
X330500Y303100D02*Y299900D01*
X328900Y301500D02*X332100D01*
X282000Y342100D02*Y338900D01*
X280400Y340500D02*X283600D01*
X262000Y451600D02*Y448400D01*
X260400Y450000D02*X263600D01*
X262000Y421600D02*Y418400D01*
X260400Y420000D02*X263600D01*
X262000Y427600D02*Y424400D01*
X260400Y426000D02*X263600D01*
X262000Y439600D02*Y436400D01*
X260400Y438000D02*X263600D01*
X262000Y445600D02*Y442400D01*
X260400Y444000D02*X263600D01*
X262000Y433600D02*Y430400D01*
X260400Y432000D02*X263600D01*
X259500Y448600D02*Y445400D01*
X257900Y447000D02*X261100D01*
X259500Y424600D02*Y421400D01*
X257900Y423000D02*X261100D01*
X259500Y436600D02*Y433400D01*
X257900Y435000D02*X261100D01*
X259500Y442600D02*Y439400D01*
X257900Y441000D02*X261100D01*
X259500Y430600D02*Y427400D01*
X257900Y429000D02*X261100D01*
X277000Y447100D02*Y443900D01*
X275400Y445500D02*X278600D01*
X277000Y424600D02*Y421400D01*
X275400Y423000D02*X278600D01*
X280000Y449600D02*Y446400D01*
X278400Y448000D02*X281600D01*
X280000Y444600D02*Y441400D01*
X278400Y443000D02*X281600D01*
X277000Y442100D02*Y438900D01*
X275400Y440500D02*X278600D01*
X280000Y422100D02*Y418900D01*
X278400Y420500D02*X281600D01*
X277000Y452100D02*Y448900D01*
X275400Y450500D02*X278600D01*
X262000Y354100D02*Y350900D01*
X260400Y352500D02*X263600D01*
X262000Y384100D02*Y380900D01*
X260400Y382500D02*X263600D01*
X262000Y378100D02*Y374900D01*
X260400Y376500D02*X263600D01*
X262000Y366100D02*Y362900D01*
X260400Y364500D02*X263600D01*
X262000Y360100D02*Y356900D01*
X260400Y358500D02*X263600D01*
X262000Y372100D02*Y368900D01*
X260400Y370500D02*X263600D01*
X259500Y357100D02*Y353900D01*
X257900Y355500D02*X261100D01*
X259500Y381100D02*Y377900D01*
X257900Y379500D02*X261100D01*
X259500Y369100D02*Y365900D01*
X257900Y367500D02*X261100D01*
X259500Y363100D02*Y359900D01*
X257900Y361500D02*X261100D01*
X259500Y375100D02*Y371900D01*
X257900Y373500D02*X261100D01*
X277000Y358600D02*Y355400D01*
X275400Y357000D02*X278600D01*
X280000Y383100D02*Y379900D01*
X278400Y381500D02*X281600D01*
X277000Y380600D02*Y377400D01*
X275400Y379000D02*X278600D01*
X280000Y361100D02*Y357900D01*
X278400Y359500D02*X281600D01*
X277000Y363600D02*Y360400D01*
X275400Y362000D02*X278600D01*
X280000Y356100D02*Y352900D01*
X278400Y354500D02*X281600D01*
X277000Y353600D02*Y350400D01*
X275400Y352000D02*X278600D01*
X352500Y419600D02*Y416400D01*
X350900Y418000D02*X354100D01*
X349500Y422100D02*Y418900D01*
X347900Y420500D02*X351100D01*
X352500Y424600D02*Y421400D01*
X350900Y423000D02*X354100D01*
X352500Y429600D02*Y426400D01*
X350900Y428000D02*X354100D01*
X352500Y434600D02*Y431400D01*
X350900Y433000D02*X354100D01*
X352500Y439600D02*Y436400D01*
X350900Y438000D02*X354100D01*
X352500Y444600D02*Y441400D01*
X350900Y443000D02*X354100D01*
X352500Y449600D02*Y446400D01*
X350900Y448000D02*X354100D01*
X349500Y452100D02*Y448900D01*
X347900Y450500D02*X351100D01*
X349500Y432100D02*Y428900D01*
X347900Y430500D02*X351100D01*
X349500Y442100D02*Y438900D01*
X347900Y440500D02*X351100D01*
X349500Y437100D02*Y433900D01*
X347900Y435500D02*X351100D01*
X349500Y427100D02*Y423900D01*
X347900Y425500D02*X351100D01*
X349500Y447100D02*Y443900D01*
X347900Y445500D02*X351100D01*
X332000Y430600D02*Y427400D01*
X330400Y429000D02*X333600D01*
X332000Y442600D02*Y439400D01*
X330400Y441000D02*X333600D01*
X332000Y436600D02*Y433400D01*
X330400Y435000D02*X333600D01*
X332000Y424600D02*Y421400D01*
X330400Y423000D02*X333600D01*
X332000Y448600D02*Y445400D01*
X330400Y447000D02*X333600D01*
X334500Y433600D02*Y430400D01*
X332900Y432000D02*X336100D01*
X334500Y445600D02*Y442400D01*
X332900Y444000D02*X336100D01*
X334500Y439600D02*Y436400D01*
X332900Y438000D02*X336100D01*
X334500Y427600D02*Y424400D01*
X332900Y426000D02*X336100D01*
X334500Y421600D02*Y418400D01*
X332900Y420000D02*X336100D01*
X334500Y451600D02*Y448400D01*
X332900Y450000D02*X336100D01*
X352500Y386100D02*Y382900D01*
X350900Y384500D02*X354100D01*
X349500Y383600D02*Y380400D01*
X347900Y382000D02*X351100D01*
X352500Y381100D02*Y377900D01*
X350900Y379500D02*X354100D01*
X352500Y376100D02*Y372900D01*
X350900Y374500D02*X354100D01*
X352500Y371100D02*Y367900D01*
X350900Y369500D02*X354100D01*
X352500Y366100D02*Y362900D01*
X350900Y364500D02*X354100D01*
X352500Y361100D02*Y357900D01*
X350900Y359500D02*X354100D01*
X352500Y356100D02*Y352900D01*
X350900Y354500D02*X354100D01*
X349500Y353600D02*Y350400D01*
X347900Y352000D02*X351100D01*
X349500Y373600D02*Y370400D01*
X347900Y372000D02*X351100D01*
X349500Y363600D02*Y360400D01*
X347900Y362000D02*X351100D01*
X349500Y368600D02*Y365400D01*
X347900Y367000D02*X351100D01*
X349500Y378600D02*Y375400D01*
X347900Y377000D02*X351100D01*
X349500Y358600D02*Y355400D01*
X347900Y357000D02*X351100D01*
X334000Y354100D02*Y350900D01*
X332400Y352500D02*X335600D01*
X334000Y384100D02*Y380900D01*
X332400Y382500D02*X335600D01*
X334000Y378100D02*Y374900D01*
X332400Y376500D02*X335600D01*
X334000Y366100D02*Y362900D01*
X332400Y364500D02*X335600D01*
X334000Y360100D02*Y356900D01*
X332400Y358500D02*X335600D01*
X334000Y372100D02*Y368900D01*
X332400Y370500D02*X335600D01*
X331500Y357100D02*Y353900D01*
X329900Y355500D02*X333100D01*
X331500Y381100D02*Y377900D01*
X329900Y379500D02*X333100D01*
X331500Y369100D02*Y365900D01*
X329900Y367500D02*X333100D01*
X331500Y363100D02*Y359900D01*
X329900Y361500D02*X333100D01*
X331500Y375100D02*Y371900D01*
X329900Y373500D02*X333100D01*
X306000Y403100D02*Y399900D01*
X304400Y401500D02*X307600D01*
X305500Y396100D02*Y392900D01*
X303900Y394500D02*X307100D01*
X280000Y402600D02*Y399400D01*
X278400Y401000D02*X281600D01*
X271500Y410600D02*Y407400D01*
X269900Y409000D02*X273100D01*
X291000Y411600D02*Y408400D01*
X289400Y410000D02*X292600D01*
X332500Y400600D02*Y397400D01*
X330900Y399000D02*X334100D01*
X329500Y404100D02*Y400900D01*
X327900Y402500D02*X331100D01*
X347500Y407600D02*Y404400D01*
X345900Y406000D02*X349100D01*
X332500Y391100D02*Y387900D01*
X330900Y389500D02*X334100D01*
X265000Y347600D02*Y344400D01*
X263400Y346000D02*X266600D01*
X215000Y380100D02*Y376900D01*
X213400Y378500D02*X216600D01*
X226000Y397100D02*Y393900D01*
X224400Y395500D02*X227600D01*
X233000Y400100D02*Y396900D01*
X231400Y398500D02*X234600D01*
X260000Y392100D02*Y388900D01*
X258400Y390500D02*X261600D01*
X332500Y413100D02*Y409900D01*
X330900Y411500D02*X334100D01*
X251500Y186100D02*Y182900D01*
X249900Y184500D02*X253100D01*
X251500Y201100D02*Y197900D01*
X249900Y199500D02*X253100D01*
X246000Y200600D02*Y197400D01*
X244400Y199000D02*X247600D01*
X246000Y186600D02*Y183400D01*
X244400Y185000D02*X247600D01*
X232500Y201100D02*Y197900D01*
X230900Y199500D02*X234100D01*
X232500Y196600D02*Y193400D01*
X230900Y195000D02*X234100D01*
X262000Y242100D02*Y238900D01*
X260400Y240500D02*X263600D01*
X262000Y212100D02*Y208900D01*
X260400Y210500D02*X263600D01*
X262000Y218100D02*Y214900D01*
X260400Y216500D02*X263600D01*
X262000Y230100D02*Y226900D01*
X260400Y228500D02*X263600D01*
X262000Y236100D02*Y232900D01*
X260400Y234500D02*X263600D01*
X262000Y224100D02*Y220900D01*
X260400Y222500D02*X263600D01*
X259500Y239100D02*Y235900D01*
X257900Y237500D02*X261100D01*
X259500Y215100D02*Y211900D01*
X257900Y213500D02*X261100D01*
X259500Y227100D02*Y223900D01*
X257900Y225500D02*X261100D01*
X259500Y233100D02*Y229900D01*
X257900Y231500D02*X261100D01*
X259500Y221100D02*Y217900D01*
X257900Y219500D02*X261100D01*
X277000Y215100D02*Y211900D01*
X275400Y213500D02*X278600D01*
X280000Y212600D02*Y209400D01*
X278400Y211000D02*X281600D01*
X262000Y144600D02*Y141400D01*
X260400Y143000D02*X263600D01*
X262000Y174600D02*Y171400D01*
X260400Y173000D02*X263600D01*
X262000Y168600D02*Y165400D01*
X260400Y167000D02*X263600D01*
X262000Y156600D02*Y153400D01*
X260400Y155000D02*X263600D01*
X262000Y150600D02*Y147400D01*
X260400Y149000D02*X263600D01*
X262000Y162600D02*Y159400D01*
X260400Y161000D02*X263600D01*
X259500Y147600D02*Y144400D01*
X257900Y146000D02*X261100D01*
X259500Y171600D02*Y168400D01*
X257900Y170000D02*X261100D01*
X259500Y159600D02*Y156400D01*
X257900Y158000D02*X261100D01*
X259500Y153600D02*Y150400D01*
X257900Y152000D02*X261100D01*
X259500Y165600D02*Y162400D01*
X257900Y164000D02*X261100D01*
X277000Y149100D02*Y145900D01*
X275400Y147500D02*X278600D01*
X280000Y173600D02*Y170400D01*
X278400Y172000D02*X281600D01*
X277000Y171100D02*Y167900D01*
X275400Y169500D02*X278600D01*
X280000Y151600D02*Y148400D01*
X278400Y150000D02*X281600D01*
X277000Y154100D02*Y150900D01*
X275400Y152500D02*X278600D01*
X280000Y146600D02*Y143400D01*
X278400Y145000D02*X281600D01*
X277000Y144100D02*Y140900D01*
X275400Y142500D02*X278600D01*
X352500Y210100D02*Y206900D01*
X350900Y208500D02*X354100D01*
X349500Y212600D02*Y209400D01*
X347900Y211000D02*X351100D01*
X352500Y215100D02*Y211900D01*
X350900Y213500D02*X354100D01*
X352500Y220100D02*Y216900D01*
X350900Y218500D02*X354100D01*
X352500Y225100D02*Y221900D01*
X350900Y223500D02*X354100D01*
X352500Y230100D02*Y226900D01*
X350900Y228500D02*X354100D01*
X352500Y235100D02*Y231900D01*
X350900Y233500D02*X354100D01*
X352500Y240100D02*Y236900D01*
X350900Y238500D02*X354100D01*
X349500Y242600D02*Y239400D01*
X347900Y241000D02*X351100D01*
X349500Y222600D02*Y219400D01*
X347900Y221000D02*X351100D01*
X349500Y232600D02*Y229400D01*
X347900Y231000D02*X351100D01*
X349500Y227600D02*Y224400D01*
X347900Y226000D02*X351100D01*
X349500Y217600D02*Y214400D01*
X347900Y216000D02*X351100D01*
X349500Y237600D02*Y234400D01*
X347900Y236000D02*X351100D01*
X332000Y221100D02*Y217900D01*
X330400Y219500D02*X333600D01*
X332000Y233100D02*Y229900D01*
X330400Y231500D02*X333600D01*
X332000Y227100D02*Y223900D01*
X330400Y225500D02*X333600D01*
X332000Y215100D02*Y211900D01*
X330400Y213500D02*X333600D01*
X332000Y239100D02*Y235900D01*
X330400Y237500D02*X333600D01*
X334500Y224100D02*Y220900D01*
X332900Y222500D02*X336100D01*
X334500Y236100D02*Y232900D01*
X332900Y234500D02*X336100D01*
X334500Y230100D02*Y226900D01*
X332900Y228500D02*X336100D01*
X334500Y218100D02*Y214900D01*
X332900Y216500D02*X336100D01*
X334500Y212100D02*Y208900D01*
X332900Y210500D02*X336100D01*
X334500Y242100D02*Y238900D01*
X332900Y240500D02*X336100D01*
X352500Y176600D02*Y173400D01*
X350900Y175000D02*X354100D01*
X349500Y174100D02*Y170900D01*
X347900Y172500D02*X351100D01*
X352500Y171600D02*Y168400D01*
X350900Y170000D02*X354100D01*
X352500Y166600D02*Y163400D01*
X350900Y165000D02*X354100D01*
X352500Y161600D02*Y158400D01*
X350900Y160000D02*X354100D01*
X352500Y156600D02*Y153400D01*
X350900Y155000D02*X354100D01*
X352500Y151600D02*Y148400D01*
X350900Y150000D02*X354100D01*
X352500Y146600D02*Y143400D01*
X350900Y145000D02*X354100D01*
X349500Y144100D02*Y140900D01*
X347900Y142500D02*X351100D01*
X349500Y164100D02*Y160900D01*
X347900Y162500D02*X351100D01*
X349500Y154100D02*Y150900D01*
X347900Y152500D02*X351100D01*
X349500Y159100D02*Y155900D01*
X347900Y157500D02*X351100D01*
X349500Y169100D02*Y165900D01*
X347900Y167500D02*X351100D01*
X349500Y149100D02*Y145900D01*
X347900Y147500D02*X351100D01*
X334000Y144600D02*Y141400D01*
X332400Y143000D02*X335600D01*
X334000Y174600D02*Y171400D01*
X332400Y173000D02*X335600D01*
X334000Y168600D02*Y165400D01*
X332400Y167000D02*X335600D01*
X334000Y156600D02*Y153400D01*
X332400Y155000D02*X335600D01*
X334000Y150600D02*Y147400D01*
X332400Y149000D02*X335600D01*
X334000Y162600D02*Y159400D01*
X332400Y161000D02*X335600D01*
X331500Y147600D02*Y144400D01*
X329900Y146000D02*X333100D01*
X331500Y171600D02*Y168400D01*
X329900Y170000D02*X333100D01*
X331500Y159600D02*Y156400D01*
X329900Y158000D02*X333100D01*
X331500Y153600D02*Y150400D01*
X329900Y152000D02*X333100D01*
X331500Y165600D02*Y162400D01*
X329900Y164000D02*X333100D01*
X306000Y193600D02*Y190400D01*
X304400Y192000D02*X307600D01*
X305500Y186600D02*Y183400D01*
X303900Y185000D02*X307100D01*
X280000Y193100D02*Y189900D01*
X278400Y191500D02*X281600D01*
X271500Y201100D02*Y197900D01*
X269900Y199500D02*X273100D01*
X291000Y202100D02*Y198900D01*
X289400Y200500D02*X292600D01*
X332500Y191100D02*Y187900D01*
X330900Y189500D02*X334100D01*
X329500Y194600D02*Y191400D01*
X327900Y193000D02*X331100D01*
X347500Y198100D02*Y194900D01*
X345900Y196500D02*X349100D01*
X233000Y190600D02*Y187400D01*
X231400Y189000D02*X234600D01*
X260000Y182600D02*Y179400D01*
X258400Y181000D02*X261600D01*
X332500Y203600D02*Y200400D01*
X330900Y202000D02*X334100D01*
X251500Y80600D02*Y77400D01*
X249900Y79000D02*X253100D01*
X251500Y95600D02*Y92400D01*
X249900Y94000D02*X253100D01*
X246000Y95100D02*Y91900D01*
X244400Y93500D02*X247600D01*
X246000Y81100D02*Y77900D01*
X244400Y79500D02*X247600D01*
X232500Y95600D02*Y92400D01*
X230900Y94000D02*X234100D01*
X232500Y91100D02*Y87900D01*
X230900Y89500D02*X234100D01*
X262000Y136600D02*Y133400D01*
X260400Y135000D02*X263600D01*
X262000Y106600D02*Y103400D01*
X260400Y105000D02*X263600D01*
X262000Y112600D02*Y109400D01*
X260400Y111000D02*X263600D01*
X262000Y124600D02*Y121400D01*
X260400Y123000D02*X263600D01*
X262000Y130600D02*Y127400D01*
X260400Y129000D02*X263600D01*
X262000Y118600D02*Y115400D01*
X260400Y117000D02*X263600D01*
X259500Y133600D02*Y130400D01*
X257900Y132000D02*X261100D01*
X259500Y109600D02*Y106400D01*
X257900Y108000D02*X261100D01*
X259500Y121600D02*Y118400D01*
X257900Y120000D02*X261100D01*
X259500Y127600D02*Y124400D01*
X257900Y126000D02*X261100D01*
X259500Y115600D02*Y112400D01*
X257900Y114000D02*X261100D01*
X277000Y132100D02*Y128900D01*
X275400Y130500D02*X278600D01*
X277000Y109600D02*Y106400D01*
X275400Y108000D02*X278600D01*
X280000Y134600D02*Y131400D01*
X278400Y133000D02*X281600D01*
X280000Y129600D02*Y126400D01*
X278400Y128000D02*X281600D01*
X277000Y127100D02*Y123900D01*
X275400Y125500D02*X278600D01*
X280000Y107100D02*Y103900D01*
X278400Y105500D02*X281600D01*
X277000Y137100D02*Y133900D01*
X275400Y135500D02*X278600D01*
X262000Y39100D02*Y35900D01*
X260400Y37500D02*X263600D01*
X262000Y69100D02*Y65900D01*
X260400Y67500D02*X263600D01*
X262000Y63100D02*Y59900D01*
X260400Y61500D02*X263600D01*
X262000Y51100D02*Y47900D01*
X260400Y49500D02*X263600D01*
X262000Y45100D02*Y41900D01*
X260400Y43500D02*X263600D01*
X262000Y57100D02*Y53900D01*
X260400Y55500D02*X263600D01*
X259500Y42100D02*Y38900D01*
X257900Y40500D02*X261100D01*
X259500Y66100D02*Y62900D01*
X257900Y64500D02*X261100D01*
X259500Y54100D02*Y50900D01*
X257900Y52500D02*X261100D01*
X259500Y48100D02*Y44900D01*
X257900Y46500D02*X261100D01*
X259500Y60100D02*Y56900D01*
X257900Y58500D02*X261100D01*
X277000Y43600D02*Y40400D01*
X275400Y42000D02*X278600D01*
X280000Y68100D02*Y64900D01*
X278400Y66500D02*X281600D01*
X277000Y65600D02*Y62400D01*
X275400Y64000D02*X278600D01*
X280000Y46100D02*Y42900D01*
X278400Y44500D02*X281600D01*
X277000Y48600D02*Y45400D01*
X275400Y47000D02*X278600D01*
X280000Y41100D02*Y37900D01*
X278400Y39500D02*X281600D01*
X277000Y38600D02*Y35400D01*
X275400Y37000D02*X278600D01*
X352500Y104600D02*Y101400D01*
X350900Y103000D02*X354100D01*
X349500Y107100D02*Y103900D01*
X347900Y105500D02*X351100D01*
X352500Y109600D02*Y106400D01*
X350900Y108000D02*X354100D01*
X352500Y114600D02*Y111400D01*
X350900Y113000D02*X354100D01*
X352500Y119600D02*Y116400D01*
X350900Y118000D02*X354100D01*
X352500Y124600D02*Y121400D01*
X350900Y123000D02*X354100D01*
X352500Y129600D02*Y126400D01*
X350900Y128000D02*X354100D01*
X352500Y134600D02*Y131400D01*
X350900Y133000D02*X354100D01*
X349500Y137100D02*Y133900D01*
X347900Y135500D02*X351100D01*
X349500Y117100D02*Y113900D01*
X347900Y115500D02*X351100D01*
X349500Y127100D02*Y123900D01*
X347900Y125500D02*X351100D01*
X349500Y122100D02*Y118900D01*
X347900Y120500D02*X351100D01*
X349500Y112100D02*Y108900D01*
X347900Y110500D02*X351100D01*
X349500Y132100D02*Y128900D01*
X347900Y130500D02*X351100D01*
X332000Y115600D02*Y112400D01*
X330400Y114000D02*X333600D01*
X332000Y127600D02*Y124400D01*
X330400Y126000D02*X333600D01*
X332000Y121600D02*Y118400D01*
X330400Y120000D02*X333600D01*
X332000Y109600D02*Y106400D01*
X330400Y108000D02*X333600D01*
X332000Y133600D02*Y130400D01*
X330400Y132000D02*X333600D01*
X334500Y118600D02*Y115400D01*
X332900Y117000D02*X336100D01*
X334500Y130600D02*Y127400D01*
X332900Y129000D02*X336100D01*
X334500Y124600D02*Y121400D01*
X332900Y123000D02*X336100D01*
X334500Y112600D02*Y109400D01*
X332900Y111000D02*X336100D01*
X334500Y106600D02*Y103400D01*
X332900Y105000D02*X336100D01*
X334500Y136600D02*Y133400D01*
X332900Y135000D02*X336100D01*
X352500Y71100D02*Y67900D01*
X350900Y69500D02*X354100D01*
X349500Y68600D02*Y65400D01*
X347900Y67000D02*X351100D01*
X352500Y66100D02*Y62900D01*
X350900Y64500D02*X354100D01*
X352500Y61100D02*Y57900D01*
X350900Y59500D02*X354100D01*
X352500Y56100D02*Y52900D01*
X350900Y54500D02*X354100D01*
X352500Y51100D02*Y47900D01*
X350900Y49500D02*X354100D01*
X352500Y46100D02*Y42900D01*
X350900Y44500D02*X354100D01*
X352500Y41100D02*Y37900D01*
X350900Y39500D02*X354100D01*
X349500Y38600D02*Y35400D01*
X347900Y37000D02*X351100D01*
X349500Y58600D02*Y55400D01*
X347900Y57000D02*X351100D01*
X349500Y48600D02*Y45400D01*
X347900Y47000D02*X351100D01*
X349500Y53600D02*Y50400D01*
X347900Y52000D02*X351100D01*
X349500Y63600D02*Y60400D01*
X347900Y62000D02*X351100D01*
X349500Y43600D02*Y40400D01*
X347900Y42000D02*X351100D01*
X334000Y39100D02*Y35900D01*
X332400Y37500D02*X335600D01*
X334000Y69100D02*Y65900D01*
X332400Y67500D02*X335600D01*
X334000Y63100D02*Y59900D01*
X332400Y61500D02*X335600D01*
X334000Y51100D02*Y47900D01*
X332400Y49500D02*X335600D01*
X334000Y45100D02*Y41900D01*
X332400Y43500D02*X335600D01*
X334000Y57100D02*Y53900D01*
X332400Y55500D02*X335600D01*
X331500Y42100D02*Y38900D01*
X329900Y40500D02*X333100D01*
X331500Y66100D02*Y62900D01*
X329900Y64500D02*X333100D01*
X331500Y54100D02*Y50900D01*
X329900Y52500D02*X333100D01*
X331500Y48100D02*Y44900D01*
X329900Y46500D02*X333100D01*
X331500Y60100D02*Y56900D01*
X329900Y58500D02*X333100D01*
X306000Y88100D02*Y84900D01*
X304400Y86500D02*X307600D01*
X305500Y81100D02*Y77900D01*
X303900Y79500D02*X307100D01*
X280000Y87600D02*Y84400D01*
X278400Y86000D02*X281600D01*
X271500Y95600D02*Y92400D01*
X269900Y94000D02*X273100D01*
X291000Y96600D02*Y93400D01*
X289400Y95000D02*X292600D01*
X332500Y85600D02*Y82400D01*
X330900Y84000D02*X334100D01*
X329500Y89100D02*Y85900D01*
X327900Y87500D02*X331100D01*
X347500Y92600D02*Y89400D01*
X345900Y91000D02*X349100D01*
X233000Y85100D02*Y81900D01*
X231400Y83500D02*X234600D01*
X260000Y77100D02*Y73900D01*
X258400Y75500D02*X261600D01*
X332500Y98100D02*Y94900D01*
X330900Y96500D02*X334100D01*
X282500Y289100D02*Y285900D01*
X280900Y287500D02*X284100D01*
X246000Y252600D02*Y249400D01*
X244400Y251000D02*X247600D01*
X241500Y261600D02*Y258400D01*
X239900Y260000D02*X243100D01*
X245500Y259100D02*Y255900D01*
X243900Y257500D02*X247100D01*
X245500Y263600D02*Y260400D01*
X243900Y262000D02*X247100D01*
X245500Y268100D02*Y264900D01*
X243900Y266500D02*X247100D01*
X248000Y291100D02*Y287900D01*
X246400Y289500D02*X249600D01*
X248000Y286600D02*Y283400D01*
X246400Y285000D02*X249600D01*
X290500Y282600D02*Y279400D01*
X288900Y281000D02*X292100D01*
X324500Y282600D02*Y279400D01*
X322900Y281000D02*X326100D01*
X329000Y282600D02*Y279400D01*
X327400Y281000D02*X330600D01*
X324500Y278100D02*Y274900D01*
X322900Y276500D02*X326100D01*
X329000Y278100D02*Y274900D01*
X327400Y276500D02*X330600D01*
X379000Y234600D02*Y231400D01*
X377400Y233000D02*X380600D01*
X377000Y249600D02*Y246400D01*
X375400Y248000D02*X378600D01*
X363000Y251600D02*Y248400D01*
X361400Y250000D02*X364600D01*
X382000Y214100D02*Y210900D01*
X380400Y212500D02*X383600D01*
X367000Y216100D02*Y212900D01*
X365400Y214500D02*X368600D01*
X386500Y214100D02*Y210900D01*
X384900Y212500D02*X388100D01*
X386000Y226100D02*Y222900D01*
X384400Y224500D02*X387600D01*
X358500Y251600D02*Y248400D01*
X356900Y250000D02*X360100D01*
X377000Y259600D02*Y256400D01*
X375400Y258000D02*X378600D01*
X377000Y255100D02*Y251900D01*
X375400Y253500D02*X378600D01*
X368500Y263100D02*Y259900D01*
X366900Y261500D02*X370100D01*
X373000Y263100D02*Y259900D01*
X371400Y261500D02*X374600D01*
X354500Y255600D02*Y252400D01*
X352900Y254000D02*X356100D01*
X354500Y267600D02*Y264400D01*
X352900Y266000D02*X356100D01*
X368500Y267600D02*Y264400D01*
X366900Y266000D02*X370100D01*
X359000Y271600D02*Y268400D01*
X357400Y270000D02*X360600D01*
X364000Y271600D02*Y268400D01*
X362400Y270000D02*X365600D01*
X354500Y261600D02*Y258400D01*
X352900Y260000D02*X356100D01*
X223500Y85100D02*Y81900D01*
X221900Y83500D02*X225100D01*
X222000Y95100D02*Y91900D01*
X220400Y93500D02*X223600D01*
X222500Y89600D02*Y86400D01*
X220900Y88000D02*X224100D01*
X223500Y190600D02*Y187400D01*
X221900Y189000D02*X225100D01*
X222000Y200600D02*Y197400D01*
X220400Y199000D02*X223600D01*
X222500Y195100D02*Y191900D01*
X220900Y193500D02*X224100D01*
X210500Y434600D02*Y431400D01*
X208900Y433000D02*X212100D01*
X187000Y429600D02*Y426400D01*
X185400Y428000D02*X188600D01*
X190000Y441600D02*Y438400D01*
X188400Y440000D02*X191600D01*
X205000Y436100D02*Y432900D01*
X203400Y434500D02*X206600D01*
X198000Y437600D02*Y434400D01*
X196400Y436000D02*X199600D01*
X198000Y444100D02*Y440900D01*
X196400Y442500D02*X199600D01*
X205000Y442600D02*Y439400D01*
X203400Y441000D02*X206600D01*
X327500Y248100D02*Y244900D01*
X325900Y246500D02*X329100D01*
X323000Y249600D02*Y246400D01*
X321400Y248000D02*X324600D01*
X242500Y252600D02*Y249400D01*
X240900Y251000D02*X244100D01*
X277000Y237100D02*Y233900D01*
X275400Y235500D02*X278600D01*
X280000Y239600D02*Y236400D01*
X278400Y238000D02*X281600D01*
X280000Y234600D02*Y231400D01*
X278400Y233000D02*X281600D01*
X277000Y232100D02*Y228900D01*
X275400Y230500D02*X278600D01*
X277000Y242100D02*Y238900D01*
X275400Y240500D02*X278600D01*
X216000Y257600D02*Y254400D01*
X214400Y256000D02*X217600D01*
X229500Y249600D02*Y246400D01*
X227900Y248000D02*X231100D01*
X229000Y254100D02*Y250900D01*
X227400Y252500D02*X230600D01*
X229500Y258600D02*Y255400D01*
X227900Y257000D02*X231100D01*
X229000Y272600D02*Y269400D01*
X227400Y271000D02*X230600D01*
X229000Y268100D02*Y264900D01*
X227400Y266500D02*X230600D01*
X213500Y264600D02*Y261400D01*
X211900Y263000D02*X215100D01*
X221000Y346600D02*Y343400D01*
X219400Y345000D02*X222600D01*
X221000Y342100D02*Y338900D01*
X219400Y340500D02*X222600D01*
X215000Y339600D02*Y336400D01*
X213400Y338000D02*X216600D01*
X195500Y315100D02*Y311900D01*
X193900Y313500D02*X197100D01*
X200500Y315100D02*Y311900D01*
X198900Y313500D02*X202100D01*
X205000Y315100D02*Y311900D01*
X203400Y313500D02*X206600D01*
X207500Y305600D02*Y302400D01*
X205900Y304000D02*X209100D01*
X207500Y300600D02*Y297400D01*
X205900Y299000D02*X209100D01*
X193500Y305600D02*Y302400D01*
X191900Y304000D02*X195100D01*
X193500Y300600D02*Y297400D01*
X191900Y299000D02*X195100D01*
X193500Y310600D02*Y307400D01*
X191900Y309000D02*X195100D01*
X195500Y295100D02*Y291900D01*
X193900Y293500D02*X197100D01*
X200500Y295100D02*Y291900D01*
X198900Y293500D02*X202100D01*
X205500Y295100D02*Y291900D01*
X203900Y293500D02*X207100D01*
X193500Y320100D02*Y316900D01*
X191900Y318500D02*X195100D01*
X193500Y330600D02*Y327400D01*
X191900Y329000D02*X195100D01*
X193500Y325600D02*Y322400D01*
X191900Y324000D02*X195100D01*
X195500Y335100D02*Y331900D01*
X193900Y333500D02*X197100D01*
X200500Y335100D02*Y331900D01*
X198900Y333500D02*X202100D01*
X205000Y335100D02*Y331900D01*
X203400Y333500D02*X206600D01*
X207500Y330600D02*Y327400D01*
X205900Y329000D02*X209100D01*
X207500Y325600D02*Y322400D01*
X205900Y324000D02*X209100D01*
X207500Y320100D02*Y316900D01*
X205900Y318500D02*X209100D01*
X232500Y299600D02*Y296400D01*
X230900Y298000D02*X234100D01*
X228000Y304100D02*Y300900D01*
X226400Y302500D02*X229600D01*
X223500Y304100D02*Y300900D01*
X221900Y302500D02*X225100D01*
X216000Y346600D02*Y343400D01*
X214400Y345000D02*X217600D01*
X209000Y344600D02*Y341400D01*
X207400Y343000D02*X210600D01*
X216500Y276100D02*Y272900D01*
X214900Y274500D02*X218100D01*
X332500Y181600D02*Y178400D01*
X330900Y180000D02*X334100D01*
X184500Y44100D02*Y40900D01*
X182900Y42500D02*X186100D01*
X198500Y49600D02*Y46400D01*
X196900Y48000D02*X200100D01*
X198000Y45600D02*Y42400D01*
X196400Y44000D02*X199600D01*
X198000Y53600D02*Y50400D01*
X196400Y52000D02*X199600D01*
X194000Y55100D02*Y51900D01*
X192400Y53500D02*X195600D01*
X184500Y55100D02*Y51900D01*
X182900Y53500D02*X186100D01*
X189500Y55100D02*Y51900D01*
X187900Y53500D02*X191100D01*
X189500Y44100D02*Y40900D01*
X187900Y42500D02*X191100D01*
X194000Y44100D02*Y40900D01*
X192400Y42500D02*X195600D01*
X386000Y44100D02*Y40900D01*
X384400Y42500D02*X387600D01*
X372000Y49600D02*Y46400D01*
X370400Y48000D02*X373600D01*
X372500Y45600D02*Y42400D01*
X370900Y44000D02*X374100D01*
X372500Y53600D02*Y50400D01*
X370900Y52000D02*X374100D01*
X376500Y55100D02*Y51900D01*
X374900Y53500D02*X378100D01*
X386000Y55100D02*Y51900D01*
X384400Y53500D02*X387600D01*
X381000Y55100D02*Y51900D01*
X379400Y53500D02*X382600D01*
X381000Y44100D02*Y40900D01*
X379400Y42500D02*X382600D01*
X376500Y44100D02*Y40900D01*
X374900Y42500D02*X378100D01*
X200500Y107600D02*Y104400D01*
X198900Y106000D02*X202100D01*
X196500Y107600D02*Y104400D01*
X194900Y106000D02*X198100D01*
X204500Y107600D02*Y104400D01*
X202900Y106000D02*X206100D01*
X207500Y111600D02*Y108400D01*
X205900Y110000D02*X209100D01*
X207500Y119600D02*Y116400D01*
X205900Y118000D02*X209100D01*
X207500Y115600D02*Y112400D01*
X205900Y114000D02*X209100D01*
X200500Y127600D02*Y124400D01*
X198900Y126000D02*X202100D01*
X196500Y127600D02*Y124400D01*
X194900Y126000D02*X198100D01*
X204500Y127600D02*Y124400D01*
X202900Y126000D02*X206100D01*
X207500Y123600D02*Y120400D01*
X205900Y122000D02*X209100D01*
X193500Y111600D02*Y108400D01*
X191900Y110000D02*X195100D01*
X193500Y119600D02*Y116400D01*
X191900Y118000D02*X195100D01*
X193500Y115600D02*Y112400D01*
X191900Y114000D02*X195100D01*
X193500Y123600D02*Y120400D01*
X191900Y122000D02*X195100D01*
X370000Y174600D02*Y171400D01*
X368400Y173000D02*X371600D01*
X374000Y174600D02*Y171400D01*
X372400Y173000D02*X375600D01*
X366000Y174600D02*Y171400D01*
X364400Y173000D02*X367600D01*
X363000Y170600D02*Y167400D01*
X361400Y169000D02*X364600D01*
X363000Y162600D02*Y159400D01*
X361400Y161000D02*X364600D01*
X363000Y166600D02*Y163400D01*
X361400Y165000D02*X364600D01*
X370000Y154600D02*Y151400D01*
X368400Y153000D02*X371600D01*
X374000Y154600D02*Y151400D01*
X372400Y153000D02*X375600D01*
X366000Y154600D02*Y151400D01*
X364400Y153000D02*X367600D01*
X363000Y158600D02*Y155400D01*
X361400Y157000D02*X364600D01*
X377000Y170600D02*Y167400D01*
X375400Y169000D02*X378600D01*
X377000Y162600D02*Y159400D01*
X375400Y161000D02*X378600D01*
X377000Y166600D02*Y163400D01*
X375400Y165000D02*X378600D01*
X377000Y158600D02*Y155400D01*
X375400Y157000D02*X378600D01*
X386000Y446600D02*Y443400D01*
X384400Y445000D02*X387600D01*
X372000Y441100D02*Y437900D01*
X370400Y439500D02*X373600D01*
X372500Y445100D02*Y441900D01*
X370900Y443500D02*X374100D01*
X372500Y437100D02*Y433900D01*
X370900Y435500D02*X374100D01*
X376500Y435600D02*Y432400D01*
X374900Y434000D02*X378100D01*
X386000Y435600D02*Y432400D01*
X384400Y434000D02*X387600D01*
X381000Y435600D02*Y432400D01*
X379400Y434000D02*X382600D01*
X381000Y446600D02*Y443400D01*
X379400Y445000D02*X382600D01*
X376500Y446600D02*Y443400D01*
X374900Y445000D02*X378100D01*
X244000Y323600D02*Y320400D01*
X242400Y322000D02*X245600D01*
X231500Y320600D02*Y317400D01*
X229900Y319000D02*X233100D01*
X236000Y320600D02*Y317400D01*
X234400Y319000D02*X237600D01*
X240500Y320600D02*Y317400D01*
X238900Y319000D02*X242100D01*
X248500Y323600D02*Y320400D01*
X246900Y322000D02*X250100D01*
X246000Y320100D02*Y316900D01*
X244400Y318500D02*X247600D01*
X269500Y323600D02*Y320400D01*
X267900Y322000D02*X271100D01*
X265500Y323600D02*Y320400D01*
X263900Y322000D02*X267100D01*
X261500Y323600D02*Y320400D01*
X259900Y322000D02*X263100D01*
X257500Y323600D02*Y320400D01*
X255900Y322000D02*X259100D01*
X255500Y327600D02*Y324400D01*
X253900Y326000D02*X257100D01*
X255500Y331600D02*Y328400D01*
X253900Y330000D02*X257100D01*
X349500Y248100D02*Y244900D01*
X347900Y246500D02*X351100D01*
X306000Y266100D02*Y262900D01*
X304400Y264500D02*X307600D01*
X314000Y266100D02*Y262900D01*
X312400Y264500D02*X315600D01*
X310000Y266100D02*Y262900D01*
X308400Y264500D02*X311600D01*
X317500Y256100D02*Y252900D01*
X315900Y254500D02*X319100D01*
X313500Y256100D02*Y252900D01*
X311900Y254500D02*X315100D01*
X309500Y256100D02*Y252900D01*
X307900Y254500D02*X311100D01*
X340000Y273600D02*Y270400D01*
X338400Y272000D02*X341600D01*
X333000Y269600D02*Y266400D01*
X331400Y268000D02*X334600D01*
X333000Y264100D02*Y260900D01*
X331400Y262500D02*X334600D01*
X368500Y312600D02*Y309400D01*
X366900Y311000D02*X370100D01*
X371500Y310100D02*Y306900D01*
X369900Y308500D02*X373100D01*
X374500Y312600D02*Y309400D01*
X372900Y311000D02*X376100D01*
X377000Y332600D02*Y329400D01*
X375400Y331000D02*X378600D01*
X377000Y327100D02*Y323900D01*
X375400Y325500D02*X378600D01*
X377000Y321600D02*Y318400D01*
X375400Y320000D02*X378600D01*
X377000Y315600D02*Y312400D01*
X375400Y314000D02*X378600D01*
X363000Y318600D02*Y315400D01*
X361400Y317000D02*X364600D01*
X363000Y325100D02*Y321900D01*
X361400Y323500D02*X364600D01*
X363000Y332600D02*Y329400D01*
X361400Y331000D02*X364600D01*
X365500Y337100D02*Y333900D01*
X363900Y335500D02*X367100D01*
X373500Y337100D02*Y333900D01*
X371900Y335500D02*X375100D01*
X369500Y337100D02*Y333900D01*
X367900Y335500D02*X371100D01*
X354500Y315100D02*Y311900D01*
X352900Y313500D02*X356100D01*
X354500Y309600D02*Y306400D01*
X352900Y308000D02*X356100D01*
X354500Y304100D02*Y300900D01*
X352900Y302500D02*X356100D01*
X363000Y298600D02*Y295400D01*
X361400Y297000D02*X364600D01*
X358500Y298600D02*Y295400D01*
X356900Y297000D02*X360100D01*
X363000Y293600D02*Y290400D01*
X361400Y292000D02*X364600D01*
X366000Y290100D02*Y286900D01*
X364400Y288500D02*X367600D01*
X373000Y290100D02*Y286900D01*
X371400Y288500D02*X374600D01*
X377000Y293600D02*Y290400D01*
X375400Y292000D02*X378600D01*
X377000Y299600D02*Y296400D01*
X375400Y298000D02*X378600D01*
X377000Y304600D02*Y301400D01*
X375400Y303000D02*X378600D01*
X288500Y255600D02*Y252400D01*
X286900Y254000D02*X290100D01*
X288000Y266600D02*Y263400D01*
X286400Y265000D02*X289600D01*
X292000Y266600D02*Y263400D01*
X290400Y265000D02*X293600D01*
X296000Y266600D02*Y263400D01*
X294400Y265000D02*X297600D01*
X294000Y269600D02*Y266400D01*
X292400Y268000D02*X295600D01*
X290000Y269600D02*Y266400D01*
X288400Y268000D02*X291600D01*
X333000Y252100D02*Y248900D01*
X331400Y250500D02*X334600D01*
X347000Y254100D02*Y250900D01*
X345400Y252500D02*X348600D01*
X184500Y226600D02*Y223400D01*
X182900Y225000D02*X186100D01*
X198500Y232100D02*Y228900D01*
X196900Y230500D02*X200100D01*
X198000Y228100D02*Y224900D01*
X196400Y226500D02*X199600D01*
X198000Y236100D02*Y232900D01*
X196400Y234500D02*X199600D01*
X194000Y237600D02*Y234400D01*
X192400Y236000D02*X195600D01*
X184500Y237600D02*Y234400D01*
X182900Y236000D02*X186100D01*
X189500Y237600D02*Y234400D01*
X187900Y236000D02*X191100D01*
X189500Y226600D02*Y223400D01*
X187900Y225000D02*X191100D01*
X194000Y226600D02*Y223400D01*
X192400Y225000D02*X195600D01*
X15000Y557850D02*Y554650D01*
X13400Y556250D02*X16600D01*
X135000Y558500D02*X136500Y555500D01*
X138000Y558500D01*
X136500Y555500D02*Y552500D01*
X139800Y555800D02*X142050D01*
X139800Y552500D02*X142800D01*
X139800Y558500D02*Y552500D01*
Y558500D02*X142800D01*
X147600D02*X148350Y557750D01*
X145350Y558500D02*X147600D01*
X144600Y557750D02*X145350Y558500D01*
X144600Y557750D02*Y556250D01*
X145350Y555500D01*
X147600D01*
X148350Y554750D01*
Y553250D01*
X147600Y552500D02*X148350Y553250D01*
X145350Y552500D02*X147600D01*
X144600Y553250D02*X145350Y552500D01*
X98000Y558500D02*X101000D01*
X98000D02*Y555500D01*
X98750Y556250D01*
X100250D01*
X101000Y555500D01*
Y553250D01*
X100250Y552500D02*X101000Y553250D01*
X98750Y552500D02*X100250D01*
X98000Y553250D02*X98750Y552500D01*
X102800Y557750D02*X103550Y558500D01*
X105800D01*
X106550Y557750D01*
Y556250D01*
X102800Y552500D02*X106550Y556250D01*
X102800Y552500D02*X106550D01*
X109100D02*X111350Y555500D01*
Y557750D02*Y555500D01*
X110600Y558500D02*X111350Y557750D01*
X109100Y558500D02*X110600D01*
X108350Y557750D02*X109100Y558500D01*
X108350Y557750D02*Y556250D01*
X109100Y555500D01*
X111350D01*
X45000Y553250D02*X45750Y552500D01*
X45000Y557750D02*Y553250D01*
Y557750D02*X45750Y558500D01*
X47250D01*
X48000Y557750D01*
Y553250D01*
X47250Y552500D02*X48000Y553250D01*
X45750Y552500D02*X47250D01*
X45000Y554000D02*X48000Y557000D01*
X49800Y552500D02*X50550D01*
X52350Y553250D02*X53100Y552500D01*
X52350Y557750D02*Y553250D01*
Y557750D02*X53100Y558500D01*
X54600D01*
X55350Y557750D01*
Y553250D01*
X54600Y552500D02*X55350Y553250D01*
X53100Y552500D02*X54600D01*
X52350Y554000D02*X55350Y557000D01*
X57150Y557750D02*X57900Y558500D01*
X60150D01*
X60900Y557750D01*
Y556250D01*
X57150Y552500D02*X60900Y556250D01*
X57150Y552500D02*X60900D01*
X62700Y553250D02*X63450Y552500D01*
X62700Y557750D02*Y553250D01*
Y557750D02*X63450Y558500D01*
X64950D01*
X65700Y557750D01*
Y553250D01*
X64950Y552500D02*X65700Y553250D01*
X63450Y552500D02*X64950D01*
X62700Y554000D02*X65700Y557000D01*
X228095Y384673D02*Y383073D01*
Y384673D02*X229482Y385473D01*
X228095Y384673D02*X226708Y385473D01*
X228095Y379949D02*Y378349D01*
Y379949D02*X229482Y380749D01*
X228095Y379949D02*X226708Y380749D01*
X228095Y375224D02*Y373624D01*
Y375224D02*X229482Y376024D01*
X228095Y375224D02*X226708Y376024D01*
X228095Y370500D02*Y368900D01*
Y370500D02*X229482Y371300D01*
X228095Y370500D02*X226708Y371300D01*
X228095Y365776D02*Y364176D01*
Y365776D02*X229482Y366576D01*
X228095Y365776D02*X226708Y366576D01*
X228095Y361051D02*Y359451D01*
Y361051D02*X229482Y361851D01*
X228095Y361051D02*X226708Y361851D01*
X228095Y356327D02*Y354727D01*
Y356327D02*X229482Y357127D01*
X228095Y356327D02*X226708Y357127D01*
X232819Y384673D02*Y383073D01*
Y384673D02*X234206Y385473D01*
X232819Y384673D02*X231432Y385473D01*
X232819Y379949D02*Y378349D01*
Y379949D02*X234206Y380749D01*
X232819Y379949D02*X231432Y380749D01*
X232819Y375224D02*Y373624D01*
Y375224D02*X234206Y376024D01*
X232819Y375224D02*X231432Y376024D01*
X232819Y370500D02*Y368900D01*
Y370500D02*X234206Y371300D01*
X232819Y370500D02*X231432Y371300D01*
X232819Y365776D02*Y364176D01*
Y365776D02*X234206Y366576D01*
X232819Y365776D02*X231432Y366576D01*
X232819Y361051D02*Y359451D01*
Y361051D02*X234206Y361851D01*
X232819Y361051D02*X231432Y361851D01*
X232819Y356327D02*Y354727D01*
Y356327D02*X234206Y357127D01*
X232819Y356327D02*X231432Y357127D01*
X237544Y384673D02*Y383073D01*
Y384673D02*X238931Y385473D01*
X237544Y384673D02*X236157Y385473D01*
X237544Y379949D02*Y378349D01*
Y379949D02*X238931Y380749D01*
X237544Y379949D02*X236157Y380749D01*
X237544Y375224D02*Y373624D01*
Y375224D02*X238931Y376024D01*
X237544Y375224D02*X236157Y376024D01*
X237544Y370500D02*Y368900D01*
Y370500D02*X238931Y371300D01*
X237544Y370500D02*X236157Y371300D01*
X237544Y365776D02*Y364176D01*
Y365776D02*X238931Y366576D01*
X237544Y365776D02*X236157Y366576D01*
X237544Y361051D02*Y359451D01*
Y361051D02*X238931Y361851D01*
X237544Y361051D02*X236157Y361851D01*
X237544Y356327D02*Y354727D01*
Y356327D02*X238931Y357127D01*
X237544Y356327D02*X236157Y357127D01*
X242268Y384673D02*Y383073D01*
Y384673D02*X243655Y385473D01*
X242268Y384673D02*X240881Y385473D01*
X242268Y379949D02*Y378349D01*
Y379949D02*X243655Y380749D01*
X242268Y379949D02*X240881Y380749D01*
X242268Y375224D02*Y373624D01*
Y375224D02*X243655Y376024D01*
X242268Y375224D02*X240881Y376024D01*
X242268Y370500D02*Y368900D01*
Y370500D02*X243655Y371300D01*
X242268Y370500D02*X240881Y371300D01*
X242268Y365776D02*Y364176D01*
Y365776D02*X243655Y366576D01*
X242268Y365776D02*X240881Y366576D01*
X242268Y361051D02*Y359451D01*
Y361051D02*X243655Y361851D01*
X242268Y361051D02*X240881Y361851D01*
X242268Y356327D02*Y354727D01*
Y356327D02*X243655Y357127D01*
X242268Y356327D02*X240881Y357127D01*
X246992Y384673D02*Y383073D01*
Y384673D02*X248379Y385473D01*
X246992Y384673D02*X245605Y385473D01*
X246992Y379949D02*Y378349D01*
Y379949D02*X248379Y380749D01*
X246992Y379949D02*X245605Y380749D01*
X246992Y375224D02*Y373624D01*
Y375224D02*X248379Y376024D01*
X246992Y375224D02*X245605Y376024D01*
X246992Y370500D02*Y368900D01*
Y370500D02*X248379Y371300D01*
X246992Y370500D02*X245605Y371300D01*
X246992Y365776D02*Y364176D01*
Y365776D02*X248379Y366576D01*
X246992Y365776D02*X245605Y366576D01*
X246992Y361051D02*Y359451D01*
Y361051D02*X248379Y361851D01*
X246992Y361051D02*X245605Y361851D01*
X246992Y356327D02*Y354727D01*
Y356327D02*X248379Y357127D01*
X246992Y356327D02*X245605Y357127D01*
X228095Y417827D02*Y416227D01*
Y417827D02*X229482Y418627D01*
X228095Y417827D02*X226708Y418627D01*
X228095Y422551D02*Y420951D01*
Y422551D02*X229482Y423351D01*
X228095Y422551D02*X226708Y423351D01*
X228095Y427276D02*Y425676D01*
Y427276D02*X229482Y428076D01*
X228095Y427276D02*X226708Y428076D01*
X228095Y432000D02*Y430400D01*
Y432000D02*X229482Y432800D01*
X228095Y432000D02*X226708Y432800D01*
X228095Y436724D02*Y435124D01*
Y436724D02*X229482Y437524D01*
X228095Y436724D02*X226708Y437524D01*
X228095Y441449D02*Y439849D01*
Y441449D02*X229482Y442249D01*
X228095Y441449D02*X226708Y442249D01*
X228095Y446173D02*Y444573D01*
Y446173D02*X229482Y446973D01*
X228095Y446173D02*X226708Y446973D01*
X232819Y417827D02*Y416227D01*
Y417827D02*X234206Y418627D01*
X232819Y417827D02*X231432Y418627D01*
X232819Y422551D02*Y420951D01*
Y422551D02*X234206Y423351D01*
X232819Y422551D02*X231432Y423351D01*
X232819Y427276D02*Y425676D01*
Y427276D02*X234206Y428076D01*
X232819Y427276D02*X231432Y428076D01*
X232819Y432000D02*Y430400D01*
Y432000D02*X234206Y432800D01*
X232819Y432000D02*X231432Y432800D01*
X232819Y436724D02*Y435124D01*
Y436724D02*X234206Y437524D01*
X232819Y436724D02*X231432Y437524D01*
X232819Y441449D02*Y439849D01*
Y441449D02*X234206Y442249D01*
X232819Y441449D02*X231432Y442249D01*
X232819Y446173D02*Y444573D01*
Y446173D02*X234206Y446973D01*
X232819Y446173D02*X231432Y446973D01*
X237544Y417827D02*Y416227D01*
Y417827D02*X238931Y418627D01*
X237544Y417827D02*X236157Y418627D01*
X237544Y422551D02*Y420951D01*
Y422551D02*X238931Y423351D01*
X237544Y422551D02*X236157Y423351D01*
X237544Y427276D02*Y425676D01*
Y427276D02*X238931Y428076D01*
X237544Y427276D02*X236157Y428076D01*
X237544Y432000D02*Y430400D01*
Y432000D02*X238931Y432800D01*
X237544Y432000D02*X236157Y432800D01*
X237544Y436724D02*Y435124D01*
Y436724D02*X238931Y437524D01*
X237544Y436724D02*X236157Y437524D01*
X237544Y441449D02*Y439849D01*
Y441449D02*X238931Y442249D01*
X237544Y441449D02*X236157Y442249D01*
X237544Y446173D02*Y444573D01*
Y446173D02*X238931Y446973D01*
X237544Y446173D02*X236157Y446973D01*
X242268Y417827D02*Y416227D01*
Y417827D02*X243655Y418627D01*
X242268Y417827D02*X240881Y418627D01*
X242268Y422551D02*Y420951D01*
Y422551D02*X243655Y423351D01*
X242268Y422551D02*X240881Y423351D01*
X242268Y427276D02*Y425676D01*
Y427276D02*X243655Y428076D01*
X242268Y427276D02*X240881Y428076D01*
X242268Y432000D02*Y430400D01*
Y432000D02*X243655Y432800D01*
X242268Y432000D02*X240881Y432800D01*
X242268Y436724D02*Y435124D01*
Y436724D02*X243655Y437524D01*
X242268Y436724D02*X240881Y437524D01*
X242268Y441449D02*Y439849D01*
Y441449D02*X243655Y442249D01*
X242268Y441449D02*X240881Y442249D01*
X242268Y446173D02*Y444573D01*
Y446173D02*X243655Y446973D01*
X242268Y446173D02*X240881Y446973D01*
X246992Y417827D02*Y416227D01*
Y417827D02*X248379Y418627D01*
X246992Y417827D02*X245605Y418627D01*
X246992Y422551D02*Y420951D01*
Y422551D02*X248379Y423351D01*
X246992Y422551D02*X245605Y423351D01*
X246992Y427276D02*Y425676D01*
Y427276D02*X248379Y428076D01*
X246992Y427276D02*X245605Y428076D01*
X246992Y432000D02*Y430400D01*
Y432000D02*X248379Y432800D01*
X246992Y432000D02*X245605Y432800D01*
X246992Y436724D02*Y435124D01*
Y436724D02*X248379Y437524D01*
X246992Y436724D02*X245605Y437524D01*
X246992Y441449D02*Y439849D01*
Y441449D02*X248379Y442249D01*
X246992Y441449D02*X245605Y442249D01*
X246992Y446173D02*Y444573D01*
Y446173D02*X248379Y446973D01*
X246992Y446173D02*X245605Y446973D01*
X300595Y417827D02*Y416227D01*
Y417827D02*X301982Y418627D01*
X300595Y417827D02*X299208Y418627D01*
X300595Y422551D02*Y420951D01*
Y422551D02*X301982Y423351D01*
X300595Y422551D02*X299208Y423351D01*
X300595Y427276D02*Y425676D01*
Y427276D02*X301982Y428076D01*
X300595Y427276D02*X299208Y428076D01*
X300595Y432000D02*Y430400D01*
Y432000D02*X301982Y432800D01*
X300595Y432000D02*X299208Y432800D01*
X300595Y436724D02*Y435124D01*
Y436724D02*X301982Y437524D01*
X300595Y436724D02*X299208Y437524D01*
X300595Y441449D02*Y439849D01*
Y441449D02*X301982Y442249D01*
X300595Y441449D02*X299208Y442249D01*
X300595Y446173D02*Y444573D01*
Y446173D02*X301982Y446973D01*
X300595Y446173D02*X299208Y446973D01*
X305319Y417827D02*Y416227D01*
Y417827D02*X306706Y418627D01*
X305319Y417827D02*X303932Y418627D01*
X305319Y422551D02*Y420951D01*
Y422551D02*X306706Y423351D01*
X305319Y422551D02*X303932Y423351D01*
X305319Y427276D02*Y425676D01*
Y427276D02*X306706Y428076D01*
X305319Y427276D02*X303932Y428076D01*
X305319Y432000D02*Y430400D01*
Y432000D02*X306706Y432800D01*
X305319Y432000D02*X303932Y432800D01*
X305319Y436724D02*Y435124D01*
Y436724D02*X306706Y437524D01*
X305319Y436724D02*X303932Y437524D01*
X305319Y441449D02*Y439849D01*
Y441449D02*X306706Y442249D01*
X305319Y441449D02*X303932Y442249D01*
X305319Y446173D02*Y444573D01*
Y446173D02*X306706Y446973D01*
X305319Y446173D02*X303932Y446973D01*
X310044Y417827D02*Y416227D01*
Y417827D02*X311431Y418627D01*
X310044Y417827D02*X308657Y418627D01*
X310044Y422551D02*Y420951D01*
Y422551D02*X311431Y423351D01*
X310044Y422551D02*X308657Y423351D01*
X310044Y427276D02*Y425676D01*
Y427276D02*X311431Y428076D01*
X310044Y427276D02*X308657Y428076D01*
X310044Y432000D02*Y430400D01*
Y432000D02*X311431Y432800D01*
X310044Y432000D02*X308657Y432800D01*
X310044Y436724D02*Y435124D01*
Y436724D02*X311431Y437524D01*
X310044Y436724D02*X308657Y437524D01*
X310044Y441449D02*Y439849D01*
Y441449D02*X311431Y442249D01*
X310044Y441449D02*X308657Y442249D01*
X310044Y446173D02*Y444573D01*
Y446173D02*X311431Y446973D01*
X310044Y446173D02*X308657Y446973D01*
X314768Y417827D02*Y416227D01*
Y417827D02*X316155Y418627D01*
X314768Y417827D02*X313381Y418627D01*
X314768Y422551D02*Y420951D01*
Y422551D02*X316155Y423351D01*
X314768Y422551D02*X313381Y423351D01*
X314768Y427276D02*Y425676D01*
Y427276D02*X316155Y428076D01*
X314768Y427276D02*X313381Y428076D01*
X314768Y432000D02*Y430400D01*
Y432000D02*X316155Y432800D01*
X314768Y432000D02*X313381Y432800D01*
X314768Y436724D02*Y435124D01*
Y436724D02*X316155Y437524D01*
X314768Y436724D02*X313381Y437524D01*
X314768Y441449D02*Y439849D01*
Y441449D02*X316155Y442249D01*
X314768Y441449D02*X313381Y442249D01*
X314768Y446173D02*Y444573D01*
Y446173D02*X316155Y446973D01*
X314768Y446173D02*X313381Y446973D01*
X319492Y417827D02*Y416227D01*
Y417827D02*X320879Y418627D01*
X319492Y417827D02*X318105Y418627D01*
X319492Y422551D02*Y420951D01*
Y422551D02*X320879Y423351D01*
X319492Y422551D02*X318105Y423351D01*
X319492Y427276D02*Y425676D01*
Y427276D02*X320879Y428076D01*
X319492Y427276D02*X318105Y428076D01*
X319492Y432000D02*Y430400D01*
Y432000D02*X320879Y432800D01*
X319492Y432000D02*X318105Y432800D01*
X319492Y436724D02*Y435124D01*
Y436724D02*X320879Y437524D01*
X319492Y436724D02*X318105Y437524D01*
X319492Y441449D02*Y439849D01*
Y441449D02*X320879Y442249D01*
X319492Y441449D02*X318105Y442249D01*
X319492Y446173D02*Y444573D01*
Y446173D02*X320879Y446973D01*
X319492Y446173D02*X318105Y446973D01*
X300595Y384673D02*Y383073D01*
Y384673D02*X301982Y385473D01*
X300595Y384673D02*X299208Y385473D01*
X300595Y379949D02*Y378349D01*
Y379949D02*X301982Y380749D01*
X300595Y379949D02*X299208Y380749D01*
X300595Y375224D02*Y373624D01*
Y375224D02*X301982Y376024D01*
X300595Y375224D02*X299208Y376024D01*
X300595Y370500D02*Y368900D01*
Y370500D02*X301982Y371300D01*
X300595Y370500D02*X299208Y371300D01*
X300595Y365776D02*Y364176D01*
Y365776D02*X301982Y366576D01*
X300595Y365776D02*X299208Y366576D01*
X300595Y361051D02*Y359451D01*
Y361051D02*X301982Y361851D01*
X300595Y361051D02*X299208Y361851D01*
X300595Y356327D02*Y354727D01*
Y356327D02*X301982Y357127D01*
X300595Y356327D02*X299208Y357127D01*
X305319Y384673D02*Y383073D01*
Y384673D02*X306706Y385473D01*
X305319Y384673D02*X303932Y385473D01*
X305319Y379949D02*Y378349D01*
Y379949D02*X306706Y380749D01*
X305319Y379949D02*X303932Y380749D01*
X305319Y375224D02*Y373624D01*
Y375224D02*X306706Y376024D01*
X305319Y375224D02*X303932Y376024D01*
X305319Y370500D02*Y368900D01*
Y370500D02*X306706Y371300D01*
X305319Y370500D02*X303932Y371300D01*
X305319Y365776D02*Y364176D01*
Y365776D02*X306706Y366576D01*
X305319Y365776D02*X303932Y366576D01*
X305319Y361051D02*Y359451D01*
Y361051D02*X306706Y361851D01*
X305319Y361051D02*X303932Y361851D01*
X305319Y356327D02*Y354727D01*
Y356327D02*X306706Y357127D01*
X305319Y356327D02*X303932Y357127D01*
X310044Y384673D02*Y383073D01*
Y384673D02*X311431Y385473D01*
X310044Y384673D02*X308657Y385473D01*
X310044Y379949D02*Y378349D01*
Y379949D02*X311431Y380749D01*
X310044Y379949D02*X308657Y380749D01*
X310044Y375224D02*Y373624D01*
Y375224D02*X311431Y376024D01*
X310044Y375224D02*X308657Y376024D01*
X310044Y370500D02*Y368900D01*
Y370500D02*X311431Y371300D01*
X310044Y370500D02*X308657Y371300D01*
X310044Y365776D02*Y364176D01*
Y365776D02*X311431Y366576D01*
X310044Y365776D02*X308657Y366576D01*
X310044Y361051D02*Y359451D01*
Y361051D02*X311431Y361851D01*
X310044Y361051D02*X308657Y361851D01*
X310044Y356327D02*Y354727D01*
Y356327D02*X311431Y357127D01*
X310044Y356327D02*X308657Y357127D01*
X314768Y384673D02*Y383073D01*
Y384673D02*X316155Y385473D01*
X314768Y384673D02*X313381Y385473D01*
X314768Y379949D02*Y378349D01*
Y379949D02*X316155Y380749D01*
X314768Y379949D02*X313381Y380749D01*
X314768Y375224D02*Y373624D01*
Y375224D02*X316155Y376024D01*
X314768Y375224D02*X313381Y376024D01*
X314768Y370500D02*Y368900D01*
Y370500D02*X316155Y371300D01*
X314768Y370500D02*X313381Y371300D01*
X314768Y365776D02*Y364176D01*
Y365776D02*X316155Y366576D01*
X314768Y365776D02*X313381Y366576D01*
X314768Y361051D02*Y359451D01*
Y361051D02*X316155Y361851D01*
X314768Y361051D02*X313381Y361851D01*
X314768Y356327D02*Y354727D01*
Y356327D02*X316155Y357127D01*
X314768Y356327D02*X313381Y357127D01*
X319492Y384673D02*Y383073D01*
Y384673D02*X320879Y385473D01*
X319492Y384673D02*X318105Y385473D01*
X319492Y379949D02*Y378349D01*
Y379949D02*X320879Y380749D01*
X319492Y379949D02*X318105Y380749D01*
X319492Y375224D02*Y373624D01*
Y375224D02*X320879Y376024D01*
X319492Y375224D02*X318105Y376024D01*
X319492Y370500D02*Y368900D01*
Y370500D02*X320879Y371300D01*
X319492Y370500D02*X318105Y371300D01*
X319492Y365776D02*Y364176D01*
Y365776D02*X320879Y366576D01*
X319492Y365776D02*X318105Y366576D01*
X319492Y361051D02*Y359451D01*
Y361051D02*X320879Y361851D01*
X319492Y361051D02*X318105Y361851D01*
X319492Y356327D02*Y354727D01*
Y356327D02*X320879Y357127D01*
X319492Y356327D02*X318105Y357127D01*
X228095Y175173D02*Y173573D01*
Y175173D02*X229482Y175973D01*
X228095Y175173D02*X226708Y175973D01*
X228095Y170449D02*Y168849D01*
Y170449D02*X229482Y171249D01*
X228095Y170449D02*X226708Y171249D01*
X228095Y165724D02*Y164124D01*
Y165724D02*X229482Y166524D01*
X228095Y165724D02*X226708Y166524D01*
X228095Y161000D02*Y159400D01*
Y161000D02*X229482Y161800D01*
X228095Y161000D02*X226708Y161800D01*
X228095Y156276D02*Y154676D01*
Y156276D02*X229482Y157076D01*
X228095Y156276D02*X226708Y157076D01*
X228095Y151551D02*Y149951D01*
Y151551D02*X229482Y152351D01*
X228095Y151551D02*X226708Y152351D01*
X228095Y146827D02*Y145227D01*
Y146827D02*X229482Y147627D01*
X228095Y146827D02*X226708Y147627D01*
X232819Y175173D02*Y173573D01*
Y175173D02*X234206Y175973D01*
X232819Y175173D02*X231432Y175973D01*
X232819Y170449D02*Y168849D01*
Y170449D02*X234206Y171249D01*
X232819Y170449D02*X231432Y171249D01*
X232819Y165724D02*Y164124D01*
Y165724D02*X234206Y166524D01*
X232819Y165724D02*X231432Y166524D01*
X232819Y161000D02*Y159400D01*
Y161000D02*X234206Y161800D01*
X232819Y161000D02*X231432Y161800D01*
X232819Y156276D02*Y154676D01*
Y156276D02*X234206Y157076D01*
X232819Y156276D02*X231432Y157076D01*
X232819Y151551D02*Y149951D01*
Y151551D02*X234206Y152351D01*
X232819Y151551D02*X231432Y152351D01*
X232819Y146827D02*Y145227D01*
Y146827D02*X234206Y147627D01*
X232819Y146827D02*X231432Y147627D01*
X237544Y175173D02*Y173573D01*
Y175173D02*X238931Y175973D01*
X237544Y175173D02*X236157Y175973D01*
X237544Y170449D02*Y168849D01*
Y170449D02*X238931Y171249D01*
X237544Y170449D02*X236157Y171249D01*
X237544Y165724D02*Y164124D01*
Y165724D02*X238931Y166524D01*
X237544Y165724D02*X236157Y166524D01*
X237544Y161000D02*Y159400D01*
Y161000D02*X238931Y161800D01*
X237544Y161000D02*X236157Y161800D01*
X237544Y156276D02*Y154676D01*
Y156276D02*X238931Y157076D01*
X237544Y156276D02*X236157Y157076D01*
X237544Y151551D02*Y149951D01*
Y151551D02*X238931Y152351D01*
X237544Y151551D02*X236157Y152351D01*
X237544Y146827D02*Y145227D01*
Y146827D02*X238931Y147627D01*
X237544Y146827D02*X236157Y147627D01*
X242268Y175173D02*Y173573D01*
Y175173D02*X243655Y175973D01*
X242268Y175173D02*X240881Y175973D01*
X242268Y170449D02*Y168849D01*
Y170449D02*X243655Y171249D01*
X242268Y170449D02*X240881Y171249D01*
X242268Y165724D02*Y164124D01*
Y165724D02*X243655Y166524D01*
X242268Y165724D02*X240881Y166524D01*
X242268Y161000D02*Y159400D01*
Y161000D02*X243655Y161800D01*
X242268Y161000D02*X240881Y161800D01*
X242268Y156276D02*Y154676D01*
Y156276D02*X243655Y157076D01*
X242268Y156276D02*X240881Y157076D01*
X242268Y151551D02*Y149951D01*
Y151551D02*X243655Y152351D01*
X242268Y151551D02*X240881Y152351D01*
X242268Y146827D02*Y145227D01*
Y146827D02*X243655Y147627D01*
X242268Y146827D02*X240881Y147627D01*
X246992Y175173D02*Y173573D01*
Y175173D02*X248379Y175973D01*
X246992Y175173D02*X245605Y175973D01*
X246992Y170449D02*Y168849D01*
Y170449D02*X248379Y171249D01*
X246992Y170449D02*X245605Y171249D01*
X246992Y165724D02*Y164124D01*
Y165724D02*X248379Y166524D01*
X246992Y165724D02*X245605Y166524D01*
X246992Y161000D02*Y159400D01*
Y161000D02*X248379Y161800D01*
X246992Y161000D02*X245605Y161800D01*
X246992Y156276D02*Y154676D01*
Y156276D02*X248379Y157076D01*
X246992Y156276D02*X245605Y157076D01*
X246992Y151551D02*Y149951D01*
Y151551D02*X248379Y152351D01*
X246992Y151551D02*X245605Y152351D01*
X246992Y146827D02*Y145227D01*
Y146827D02*X248379Y147627D01*
X246992Y146827D02*X245605Y147627D01*
X228095Y208327D02*Y206727D01*
Y208327D02*X229482Y209127D01*
X228095Y208327D02*X226708Y209127D01*
X228095Y213051D02*Y211451D01*
Y213051D02*X229482Y213851D01*
X228095Y213051D02*X226708Y213851D01*
X228095Y217776D02*Y216176D01*
Y217776D02*X229482Y218576D01*
X228095Y217776D02*X226708Y218576D01*
X228095Y222500D02*Y220900D01*
Y222500D02*X229482Y223300D01*
X228095Y222500D02*X226708Y223300D01*
X228095Y227224D02*Y225624D01*
Y227224D02*X229482Y228024D01*
X228095Y227224D02*X226708Y228024D01*
X228095Y231949D02*Y230349D01*
Y231949D02*X229482Y232749D01*
X228095Y231949D02*X226708Y232749D01*
X228095Y236673D02*Y235073D01*
Y236673D02*X229482Y237473D01*
X228095Y236673D02*X226708Y237473D01*
X232819Y208327D02*Y206727D01*
Y208327D02*X234206Y209127D01*
X232819Y208327D02*X231432Y209127D01*
X232819Y213051D02*Y211451D01*
Y213051D02*X234206Y213851D01*
X232819Y213051D02*X231432Y213851D01*
X232819Y217776D02*Y216176D01*
Y217776D02*X234206Y218576D01*
X232819Y217776D02*X231432Y218576D01*
X232819Y222500D02*Y220900D01*
Y222500D02*X234206Y223300D01*
X232819Y222500D02*X231432Y223300D01*
X232819Y227224D02*Y225624D01*
Y227224D02*X234206Y228024D01*
X232819Y227224D02*X231432Y228024D01*
X232819Y231949D02*Y230349D01*
Y231949D02*X234206Y232749D01*
X232819Y231949D02*X231432Y232749D01*
X232819Y236673D02*Y235073D01*
Y236673D02*X234206Y237473D01*
X232819Y236673D02*X231432Y237473D01*
X237544Y208327D02*Y206727D01*
Y208327D02*X238931Y209127D01*
X237544Y208327D02*X236157Y209127D01*
X237544Y213051D02*Y211451D01*
Y213051D02*X238931Y213851D01*
X237544Y213051D02*X236157Y213851D01*
X237544Y217776D02*Y216176D01*
Y217776D02*X238931Y218576D01*
X237544Y217776D02*X236157Y218576D01*
X237544Y222500D02*Y220900D01*
Y222500D02*X238931Y223300D01*
X237544Y222500D02*X236157Y223300D01*
X237544Y227224D02*Y225624D01*
Y227224D02*X238931Y228024D01*
X237544Y227224D02*X236157Y228024D01*
X237544Y231949D02*Y230349D01*
Y231949D02*X238931Y232749D01*
X237544Y231949D02*X236157Y232749D01*
X237544Y236673D02*Y235073D01*
Y236673D02*X238931Y237473D01*
X237544Y236673D02*X236157Y237473D01*
X242268Y208327D02*Y206727D01*
Y208327D02*X243655Y209127D01*
X242268Y208327D02*X240881Y209127D01*
X242268Y213051D02*Y211451D01*
Y213051D02*X243655Y213851D01*
X242268Y213051D02*X240881Y213851D01*
X242268Y217776D02*Y216176D01*
Y217776D02*X243655Y218576D01*
X242268Y217776D02*X240881Y218576D01*
X242268Y222500D02*Y220900D01*
Y222500D02*X243655Y223300D01*
X242268Y222500D02*X240881Y223300D01*
X242268Y227224D02*Y225624D01*
Y227224D02*X243655Y228024D01*
X242268Y227224D02*X240881Y228024D01*
X242268Y231949D02*Y230349D01*
Y231949D02*X243655Y232749D01*
X242268Y231949D02*X240881Y232749D01*
X242268Y236673D02*Y235073D01*
Y236673D02*X243655Y237473D01*
X242268Y236673D02*X240881Y237473D01*
X246992Y208327D02*Y206727D01*
Y208327D02*X248379Y209127D01*
X246992Y208327D02*X245605Y209127D01*
X246992Y213051D02*Y211451D01*
Y213051D02*X248379Y213851D01*
X246992Y213051D02*X245605Y213851D01*
X246992Y217776D02*Y216176D01*
Y217776D02*X248379Y218576D01*
X246992Y217776D02*X245605Y218576D01*
X246992Y222500D02*Y220900D01*
Y222500D02*X248379Y223300D01*
X246992Y222500D02*X245605Y223300D01*
X246992Y227224D02*Y225624D01*
Y227224D02*X248379Y228024D01*
X246992Y227224D02*X245605Y228024D01*
X246992Y231949D02*Y230349D01*
Y231949D02*X248379Y232749D01*
X246992Y231949D02*X245605Y232749D01*
X246992Y236673D02*Y235073D01*
Y236673D02*X248379Y237473D01*
X246992Y236673D02*X245605Y237473D01*
X300595Y208327D02*Y206727D01*
Y208327D02*X301982Y209127D01*
X300595Y208327D02*X299208Y209127D01*
X300595Y213051D02*Y211451D01*
Y213051D02*X301982Y213851D01*
X300595Y213051D02*X299208Y213851D01*
X300595Y217776D02*Y216176D01*
Y217776D02*X301982Y218576D01*
X300595Y217776D02*X299208Y218576D01*
X300595Y222500D02*Y220900D01*
Y222500D02*X301982Y223300D01*
X300595Y222500D02*X299208Y223300D01*
X300595Y227224D02*Y225624D01*
Y227224D02*X301982Y228024D01*
X300595Y227224D02*X299208Y228024D01*
X300595Y231949D02*Y230349D01*
Y231949D02*X301982Y232749D01*
X300595Y231949D02*X299208Y232749D01*
X300595Y236673D02*Y235073D01*
Y236673D02*X301982Y237473D01*
X300595Y236673D02*X299208Y237473D01*
X305319Y208327D02*Y206727D01*
Y208327D02*X306706Y209127D01*
X305319Y208327D02*X303932Y209127D01*
X305319Y213051D02*Y211451D01*
Y213051D02*X306706Y213851D01*
X305319Y213051D02*X303932Y213851D01*
X305319Y217776D02*Y216176D01*
Y217776D02*X306706Y218576D01*
X305319Y217776D02*X303932Y218576D01*
X305319Y222500D02*Y220900D01*
Y222500D02*X306706Y223300D01*
X305319Y222500D02*X303932Y223300D01*
X305319Y227224D02*Y225624D01*
Y227224D02*X306706Y228024D01*
X305319Y227224D02*X303932Y228024D01*
X305319Y231949D02*Y230349D01*
Y231949D02*X306706Y232749D01*
X305319Y231949D02*X303932Y232749D01*
X305319Y236673D02*Y235073D01*
Y236673D02*X306706Y237473D01*
X305319Y236673D02*X303932Y237473D01*
X310044Y208327D02*Y206727D01*
Y208327D02*X311431Y209127D01*
X310044Y208327D02*X308657Y209127D01*
X310044Y213051D02*Y211451D01*
Y213051D02*X311431Y213851D01*
X310044Y213051D02*X308657Y213851D01*
X310044Y217776D02*Y216176D01*
Y217776D02*X311431Y218576D01*
X310044Y217776D02*X308657Y218576D01*
X310044Y222500D02*Y220900D01*
Y222500D02*X311431Y223300D01*
X310044Y222500D02*X308657Y223300D01*
X310044Y227224D02*Y225624D01*
Y227224D02*X311431Y228024D01*
X310044Y227224D02*X308657Y228024D01*
X310044Y231949D02*Y230349D01*
Y231949D02*X311431Y232749D01*
X310044Y231949D02*X308657Y232749D01*
X310044Y236673D02*Y235073D01*
Y236673D02*X311431Y237473D01*
X310044Y236673D02*X308657Y237473D01*
X314768Y208327D02*Y206727D01*
Y208327D02*X316155Y209127D01*
X314768Y208327D02*X313381Y209127D01*
X314768Y213051D02*Y211451D01*
Y213051D02*X316155Y213851D01*
X314768Y213051D02*X313381Y213851D01*
X314768Y217776D02*Y216176D01*
Y217776D02*X316155Y218576D01*
X314768Y217776D02*X313381Y218576D01*
X314768Y222500D02*Y220900D01*
Y222500D02*X316155Y223300D01*
X314768Y222500D02*X313381Y223300D01*
X314768Y227224D02*Y225624D01*
Y227224D02*X316155Y228024D01*
X314768Y227224D02*X313381Y228024D01*
X314768Y231949D02*Y230349D01*
Y231949D02*X316155Y232749D01*
X314768Y231949D02*X313381Y232749D01*
X314768Y236673D02*Y235073D01*
Y236673D02*X316155Y237473D01*
X314768Y236673D02*X313381Y237473D01*
X319492Y208327D02*Y206727D01*
Y208327D02*X320879Y209127D01*
X319492Y208327D02*X318105Y209127D01*
X319492Y213051D02*Y211451D01*
Y213051D02*X320879Y213851D01*
X319492Y213051D02*X318105Y213851D01*
X319492Y217776D02*Y216176D01*
Y217776D02*X320879Y218576D01*
X319492Y217776D02*X318105Y218576D01*
X319492Y222500D02*Y220900D01*
Y222500D02*X320879Y223300D01*
X319492Y222500D02*X318105Y223300D01*
X319492Y227224D02*Y225624D01*
Y227224D02*X320879Y228024D01*
X319492Y227224D02*X318105Y228024D01*
X319492Y231949D02*Y230349D01*
Y231949D02*X320879Y232749D01*
X319492Y231949D02*X318105Y232749D01*
X319492Y236673D02*Y235073D01*
Y236673D02*X320879Y237473D01*
X319492Y236673D02*X318105Y237473D01*
X300595Y175173D02*Y173573D01*
Y175173D02*X301982Y175973D01*
X300595Y175173D02*X299208Y175973D01*
X300595Y170449D02*Y168849D01*
Y170449D02*X301982Y171249D01*
X300595Y170449D02*X299208Y171249D01*
X300595Y165724D02*Y164124D01*
Y165724D02*X301982Y166524D01*
X300595Y165724D02*X299208Y166524D01*
X300595Y161000D02*Y159400D01*
Y161000D02*X301982Y161800D01*
X300595Y161000D02*X299208Y161800D01*
X300595Y156276D02*Y154676D01*
Y156276D02*X301982Y157076D01*
X300595Y156276D02*X299208Y157076D01*
X300595Y151551D02*Y149951D01*
Y151551D02*X301982Y152351D01*
X300595Y151551D02*X299208Y152351D01*
X300595Y146827D02*Y145227D01*
Y146827D02*X301982Y147627D01*
X300595Y146827D02*X299208Y147627D01*
X305319Y175173D02*Y173573D01*
Y175173D02*X306706Y175973D01*
X305319Y175173D02*X303932Y175973D01*
X305319Y170449D02*Y168849D01*
Y170449D02*X306706Y171249D01*
X305319Y170449D02*X303932Y171249D01*
X305319Y165724D02*Y164124D01*
Y165724D02*X306706Y166524D01*
X305319Y165724D02*X303932Y166524D01*
X305319Y161000D02*Y159400D01*
Y161000D02*X306706Y161800D01*
X305319Y161000D02*X303932Y161800D01*
X305319Y156276D02*Y154676D01*
Y156276D02*X306706Y157076D01*
X305319Y156276D02*X303932Y157076D01*
X305319Y151551D02*Y149951D01*
Y151551D02*X306706Y152351D01*
X305319Y151551D02*X303932Y152351D01*
X305319Y146827D02*Y145227D01*
Y146827D02*X306706Y147627D01*
X305319Y146827D02*X303932Y147627D01*
X310044Y175173D02*Y173573D01*
Y175173D02*X311431Y175973D01*
X310044Y175173D02*X308657Y175973D01*
X310044Y170449D02*Y168849D01*
Y170449D02*X311431Y171249D01*
X310044Y170449D02*X308657Y171249D01*
X310044Y165724D02*Y164124D01*
Y165724D02*X311431Y166524D01*
X310044Y165724D02*X308657Y166524D01*
X310044Y161000D02*Y159400D01*
Y161000D02*X311431Y161800D01*
X310044Y161000D02*X308657Y161800D01*
X310044Y156276D02*Y154676D01*
Y156276D02*X311431Y157076D01*
X310044Y156276D02*X308657Y157076D01*
X310044Y151551D02*Y149951D01*
Y151551D02*X311431Y152351D01*
X310044Y151551D02*X308657Y152351D01*
X310044Y146827D02*Y145227D01*
Y146827D02*X311431Y147627D01*
X310044Y146827D02*X308657Y147627D01*
X314768Y175173D02*Y173573D01*
Y175173D02*X316155Y175973D01*
X314768Y175173D02*X313381Y175973D01*
X314768Y170449D02*Y168849D01*
Y170449D02*X316155Y171249D01*
X314768Y170449D02*X313381Y171249D01*
X314768Y165724D02*Y164124D01*
Y165724D02*X316155Y166524D01*
X314768Y165724D02*X313381Y166524D01*
X314768Y161000D02*Y159400D01*
Y161000D02*X316155Y161800D01*
X314768Y161000D02*X313381Y161800D01*
X314768Y156276D02*Y154676D01*
Y156276D02*X316155Y157076D01*
X314768Y156276D02*X313381Y157076D01*
X314768Y151551D02*Y149951D01*
Y151551D02*X316155Y152351D01*
X314768Y151551D02*X313381Y152351D01*
X314768Y146827D02*Y145227D01*
Y146827D02*X316155Y147627D01*
X314768Y146827D02*X313381Y147627D01*
X319492Y175173D02*Y173573D01*
Y175173D02*X320879Y175973D01*
X319492Y175173D02*X318105Y175973D01*
X319492Y170449D02*Y168849D01*
Y170449D02*X320879Y171249D01*
X319492Y170449D02*X318105Y171249D01*
X319492Y165724D02*Y164124D01*
Y165724D02*X320879Y166524D01*
X319492Y165724D02*X318105Y166524D01*
X319492Y161000D02*Y159400D01*
Y161000D02*X320879Y161800D01*
X319492Y161000D02*X318105Y161800D01*
X319492Y156276D02*Y154676D01*
Y156276D02*X320879Y157076D01*
X319492Y156276D02*X318105Y157076D01*
X319492Y151551D02*Y149951D01*
Y151551D02*X320879Y152351D01*
X319492Y151551D02*X318105Y152351D01*
X319492Y146827D02*Y145227D01*
Y146827D02*X320879Y147627D01*
X319492Y146827D02*X318105Y147627D01*
X228095Y69673D02*Y68073D01*
Y69673D02*X229482Y70473D01*
X228095Y69673D02*X226708Y70473D01*
X228095Y64949D02*Y63349D01*
Y64949D02*X229482Y65749D01*
X228095Y64949D02*X226708Y65749D01*
X228095Y60224D02*Y58624D01*
Y60224D02*X229482Y61024D01*
X228095Y60224D02*X226708Y61024D01*
X228095Y55500D02*Y53900D01*
Y55500D02*X229482Y56300D01*
X228095Y55500D02*X226708Y56300D01*
X228095Y50776D02*Y49176D01*
Y50776D02*X229482Y51576D01*
X228095Y50776D02*X226708Y51576D01*
X228095Y46051D02*Y44451D01*
Y46051D02*X229482Y46851D01*
X228095Y46051D02*X226708Y46851D01*
X228095Y41327D02*Y39727D01*
Y41327D02*X229482Y42127D01*
X228095Y41327D02*X226708Y42127D01*
X232819Y69673D02*Y68073D01*
Y69673D02*X234206Y70473D01*
X232819Y69673D02*X231432Y70473D01*
X232819Y64949D02*Y63349D01*
Y64949D02*X234206Y65749D01*
X232819Y64949D02*X231432Y65749D01*
X232819Y60224D02*Y58624D01*
Y60224D02*X234206Y61024D01*
X232819Y60224D02*X231432Y61024D01*
X232819Y55500D02*Y53900D01*
Y55500D02*X234206Y56300D01*
X232819Y55500D02*X231432Y56300D01*
X232819Y50776D02*Y49176D01*
Y50776D02*X234206Y51576D01*
X232819Y50776D02*X231432Y51576D01*
X232819Y46051D02*Y44451D01*
Y46051D02*X234206Y46851D01*
X232819Y46051D02*X231432Y46851D01*
X232819Y41327D02*Y39727D01*
Y41327D02*X234206Y42127D01*
X232819Y41327D02*X231432Y42127D01*
X237544Y69673D02*Y68073D01*
Y69673D02*X238931Y70473D01*
X237544Y69673D02*X236157Y70473D01*
X237544Y64949D02*Y63349D01*
Y64949D02*X238931Y65749D01*
X237544Y64949D02*X236157Y65749D01*
X237544Y60224D02*Y58624D01*
Y60224D02*X238931Y61024D01*
X237544Y60224D02*X236157Y61024D01*
X237544Y55500D02*Y53900D01*
Y55500D02*X238931Y56300D01*
X237544Y55500D02*X236157Y56300D01*
X237544Y50776D02*Y49176D01*
Y50776D02*X238931Y51576D01*
X237544Y50776D02*X236157Y51576D01*
X237544Y46051D02*Y44451D01*
Y46051D02*X238931Y46851D01*
X237544Y46051D02*X236157Y46851D01*
X237544Y41327D02*Y39727D01*
Y41327D02*X238931Y42127D01*
X237544Y41327D02*X236157Y42127D01*
X242268Y69673D02*Y68073D01*
Y69673D02*X243655Y70473D01*
X242268Y69673D02*X240881Y70473D01*
X242268Y64949D02*Y63349D01*
Y64949D02*X243655Y65749D01*
X242268Y64949D02*X240881Y65749D01*
X242268Y60224D02*Y58624D01*
Y60224D02*X243655Y61024D01*
X242268Y60224D02*X240881Y61024D01*
X242268Y55500D02*Y53900D01*
Y55500D02*X243655Y56300D01*
X242268Y55500D02*X240881Y56300D01*
X242268Y50776D02*Y49176D01*
Y50776D02*X243655Y51576D01*
X242268Y50776D02*X240881Y51576D01*
X242268Y46051D02*Y44451D01*
Y46051D02*X243655Y46851D01*
X242268Y46051D02*X240881Y46851D01*
X242268Y41327D02*Y39727D01*
Y41327D02*X243655Y42127D01*
X242268Y41327D02*X240881Y42127D01*
X246992Y69673D02*Y68073D01*
Y69673D02*X248379Y70473D01*
X246992Y69673D02*X245605Y70473D01*
X246992Y64949D02*Y63349D01*
Y64949D02*X248379Y65749D01*
X246992Y64949D02*X245605Y65749D01*
X246992Y60224D02*Y58624D01*
Y60224D02*X248379Y61024D01*
X246992Y60224D02*X245605Y61024D01*
X246992Y55500D02*Y53900D01*
Y55500D02*X248379Y56300D01*
X246992Y55500D02*X245605Y56300D01*
X246992Y50776D02*Y49176D01*
Y50776D02*X248379Y51576D01*
X246992Y50776D02*X245605Y51576D01*
X246992Y46051D02*Y44451D01*
Y46051D02*X248379Y46851D01*
X246992Y46051D02*X245605Y46851D01*
X246992Y41327D02*Y39727D01*
Y41327D02*X248379Y42127D01*
X246992Y41327D02*X245605Y42127D01*
X228095Y102827D02*Y101227D01*
Y102827D02*X229482Y103627D01*
X228095Y102827D02*X226708Y103627D01*
X228095Y107551D02*Y105951D01*
Y107551D02*X229482Y108351D01*
X228095Y107551D02*X226708Y108351D01*
X228095Y112276D02*Y110676D01*
Y112276D02*X229482Y113076D01*
X228095Y112276D02*X226708Y113076D01*
X228095Y117000D02*Y115400D01*
Y117000D02*X229482Y117800D01*
X228095Y117000D02*X226708Y117800D01*
X228095Y121724D02*Y120124D01*
Y121724D02*X229482Y122524D01*
X228095Y121724D02*X226708Y122524D01*
X228095Y126449D02*Y124849D01*
Y126449D02*X229482Y127249D01*
X228095Y126449D02*X226708Y127249D01*
X228095Y131173D02*Y129573D01*
Y131173D02*X229482Y131973D01*
X228095Y131173D02*X226708Y131973D01*
X232819Y102827D02*Y101227D01*
Y102827D02*X234206Y103627D01*
X232819Y102827D02*X231432Y103627D01*
X232819Y107551D02*Y105951D01*
Y107551D02*X234206Y108351D01*
X232819Y107551D02*X231432Y108351D01*
X232819Y112276D02*Y110676D01*
Y112276D02*X234206Y113076D01*
X232819Y112276D02*X231432Y113076D01*
X232819Y117000D02*Y115400D01*
Y117000D02*X234206Y117800D01*
X232819Y117000D02*X231432Y117800D01*
X232819Y121724D02*Y120124D01*
Y121724D02*X234206Y122524D01*
X232819Y121724D02*X231432Y122524D01*
X232819Y126449D02*Y124849D01*
Y126449D02*X234206Y127249D01*
X232819Y126449D02*X231432Y127249D01*
X232819Y131173D02*Y129573D01*
Y131173D02*X234206Y131973D01*
X232819Y131173D02*X231432Y131973D01*
X237544Y102827D02*Y101227D01*
Y102827D02*X238931Y103627D01*
X237544Y102827D02*X236157Y103627D01*
X237544Y107551D02*Y105951D01*
Y107551D02*X238931Y108351D01*
X237544Y107551D02*X236157Y108351D01*
X237544Y112276D02*Y110676D01*
Y112276D02*X238931Y113076D01*
X237544Y112276D02*X236157Y113076D01*
X237544Y117000D02*Y115400D01*
Y117000D02*X238931Y117800D01*
X237544Y117000D02*X236157Y117800D01*
X237544Y121724D02*Y120124D01*
Y121724D02*X238931Y122524D01*
X237544Y121724D02*X236157Y122524D01*
X237544Y126449D02*Y124849D01*
Y126449D02*X238931Y127249D01*
X237544Y126449D02*X236157Y127249D01*
X237544Y131173D02*Y129573D01*
Y131173D02*X238931Y131973D01*
X237544Y131173D02*X236157Y131973D01*
X242268Y102827D02*Y101227D01*
Y102827D02*X243655Y103627D01*
X242268Y102827D02*X240881Y103627D01*
X242268Y107551D02*Y105951D01*
Y107551D02*X243655Y108351D01*
X242268Y107551D02*X240881Y108351D01*
X242268Y112276D02*Y110676D01*
Y112276D02*X243655Y113076D01*
X242268Y112276D02*X240881Y113076D01*
X242268Y117000D02*Y115400D01*
Y117000D02*X243655Y117800D01*
X242268Y117000D02*X240881Y117800D01*
X242268Y121724D02*Y120124D01*
Y121724D02*X243655Y122524D01*
X242268Y121724D02*X240881Y122524D01*
X242268Y126449D02*Y124849D01*
Y126449D02*X243655Y127249D01*
X242268Y126449D02*X240881Y127249D01*
X242268Y131173D02*Y129573D01*
Y131173D02*X243655Y131973D01*
X242268Y131173D02*X240881Y131973D01*
X246992Y102827D02*Y101227D01*
Y102827D02*X248379Y103627D01*
X246992Y102827D02*X245605Y103627D01*
X246992Y107551D02*Y105951D01*
Y107551D02*X248379Y108351D01*
X246992Y107551D02*X245605Y108351D01*
X246992Y112276D02*Y110676D01*
Y112276D02*X248379Y113076D01*
X246992Y112276D02*X245605Y113076D01*
X246992Y117000D02*Y115400D01*
Y117000D02*X248379Y117800D01*
X246992Y117000D02*X245605Y117800D01*
X246992Y121724D02*Y120124D01*
Y121724D02*X248379Y122524D01*
X246992Y121724D02*X245605Y122524D01*
X246992Y126449D02*Y124849D01*
Y126449D02*X248379Y127249D01*
X246992Y126449D02*X245605Y127249D01*
X246992Y131173D02*Y129573D01*
Y131173D02*X248379Y131973D01*
X246992Y131173D02*X245605Y131973D01*
X300595Y102827D02*Y101227D01*
Y102827D02*X301982Y103627D01*
X300595Y102827D02*X299208Y103627D01*
X300595Y107551D02*Y105951D01*
Y107551D02*X301982Y108351D01*
X300595Y107551D02*X299208Y108351D01*
X300595Y112276D02*Y110676D01*
Y112276D02*X301982Y113076D01*
X300595Y112276D02*X299208Y113076D01*
X300595Y117000D02*Y115400D01*
Y117000D02*X301982Y117800D01*
X300595Y117000D02*X299208Y117800D01*
X300595Y121724D02*Y120124D01*
Y121724D02*X301982Y122524D01*
X300595Y121724D02*X299208Y122524D01*
X300595Y126449D02*Y124849D01*
Y126449D02*X301982Y127249D01*
X300595Y126449D02*X299208Y127249D01*
X300595Y131173D02*Y129573D01*
Y131173D02*X301982Y131973D01*
X300595Y131173D02*X299208Y131973D01*
X305319Y102827D02*Y101227D01*
Y102827D02*X306706Y103627D01*
X305319Y102827D02*X303932Y103627D01*
X305319Y107551D02*Y105951D01*
Y107551D02*X306706Y108351D01*
X305319Y107551D02*X303932Y108351D01*
X305319Y112276D02*Y110676D01*
Y112276D02*X306706Y113076D01*
X305319Y112276D02*X303932Y113076D01*
X305319Y117000D02*Y115400D01*
Y117000D02*X306706Y117800D01*
X305319Y117000D02*X303932Y117800D01*
X305319Y121724D02*Y120124D01*
Y121724D02*X306706Y122524D01*
X305319Y121724D02*X303932Y122524D01*
X305319Y126449D02*Y124849D01*
Y126449D02*X306706Y127249D01*
X305319Y126449D02*X303932Y127249D01*
X305319Y131173D02*Y129573D01*
Y131173D02*X306706Y131973D01*
X305319Y131173D02*X303932Y131973D01*
X310044Y102827D02*Y101227D01*
Y102827D02*X311431Y103627D01*
X310044Y102827D02*X308657Y103627D01*
X310044Y107551D02*Y105951D01*
Y107551D02*X311431Y108351D01*
X310044Y107551D02*X308657Y108351D01*
X310044Y112276D02*Y110676D01*
Y112276D02*X311431Y113076D01*
X310044Y112276D02*X308657Y113076D01*
X310044Y117000D02*Y115400D01*
Y117000D02*X311431Y117800D01*
X310044Y117000D02*X308657Y117800D01*
X310044Y121724D02*Y120124D01*
Y121724D02*X311431Y122524D01*
X310044Y121724D02*X308657Y122524D01*
X310044Y126449D02*Y124849D01*
Y126449D02*X311431Y127249D01*
X310044Y126449D02*X308657Y127249D01*
X310044Y131173D02*Y129573D01*
Y131173D02*X311431Y131973D01*
X310044Y131173D02*X308657Y131973D01*
X314768Y102827D02*Y101227D01*
Y102827D02*X316155Y103627D01*
X314768Y102827D02*X313381Y103627D01*
X314768Y107551D02*Y105951D01*
Y107551D02*X316155Y108351D01*
X314768Y107551D02*X313381Y108351D01*
X314768Y112276D02*Y110676D01*
Y112276D02*X316155Y113076D01*
X314768Y112276D02*X313381Y113076D01*
X314768Y117000D02*Y115400D01*
Y117000D02*X316155Y117800D01*
X314768Y117000D02*X313381Y117800D01*
X314768Y121724D02*Y120124D01*
Y121724D02*X316155Y122524D01*
X314768Y121724D02*X313381Y122524D01*
X314768Y126449D02*Y124849D01*
Y126449D02*X316155Y127249D01*
X314768Y126449D02*X313381Y127249D01*
X314768Y131173D02*Y129573D01*
Y131173D02*X316155Y131973D01*
X314768Y131173D02*X313381Y131973D01*
X319492Y102827D02*Y101227D01*
Y102827D02*X320879Y103627D01*
X319492Y102827D02*X318105Y103627D01*
X319492Y107551D02*Y105951D01*
Y107551D02*X320879Y108351D01*
X319492Y107551D02*X318105Y108351D01*
X319492Y112276D02*Y110676D01*
Y112276D02*X320879Y113076D01*
X319492Y112276D02*X318105Y113076D01*
X319492Y117000D02*Y115400D01*
Y117000D02*X320879Y117800D01*
X319492Y117000D02*X318105Y117800D01*
X319492Y121724D02*Y120124D01*
Y121724D02*X320879Y122524D01*
X319492Y121724D02*X318105Y122524D01*
X319492Y126449D02*Y124849D01*
Y126449D02*X320879Y127249D01*
X319492Y126449D02*X318105Y127249D01*
X319492Y131173D02*Y129573D01*
Y131173D02*X320879Y131973D01*
X319492Y131173D02*X318105Y131973D01*
X300595Y69673D02*Y68073D01*
Y69673D02*X301982Y70473D01*
X300595Y69673D02*X299208Y70473D01*
X300595Y64949D02*Y63349D01*
Y64949D02*X301982Y65749D01*
X300595Y64949D02*X299208Y65749D01*
X300595Y60224D02*Y58624D01*
Y60224D02*X301982Y61024D01*
X300595Y60224D02*X299208Y61024D01*
X300595Y55500D02*Y53900D01*
Y55500D02*X301982Y56300D01*
X300595Y55500D02*X299208Y56300D01*
X300595Y50776D02*Y49176D01*
Y50776D02*X301982Y51576D01*
X300595Y50776D02*X299208Y51576D01*
X300595Y46051D02*Y44451D01*
Y46051D02*X301982Y46851D01*
X300595Y46051D02*X299208Y46851D01*
X300595Y41327D02*Y39727D01*
Y41327D02*X301982Y42127D01*
X300595Y41327D02*X299208Y42127D01*
X305319Y69673D02*Y68073D01*
Y69673D02*X306706Y70473D01*
X305319Y69673D02*X303932Y70473D01*
X305319Y64949D02*Y63349D01*
Y64949D02*X306706Y65749D01*
X305319Y64949D02*X303932Y65749D01*
X305319Y60224D02*Y58624D01*
Y60224D02*X306706Y61024D01*
X305319Y60224D02*X303932Y61024D01*
X305319Y55500D02*Y53900D01*
Y55500D02*X306706Y56300D01*
X305319Y55500D02*X303932Y56300D01*
X305319Y50776D02*Y49176D01*
Y50776D02*X306706Y51576D01*
X305319Y50776D02*X303932Y51576D01*
X305319Y46051D02*Y44451D01*
Y46051D02*X306706Y46851D01*
X305319Y46051D02*X303932Y46851D01*
X305319Y41327D02*Y39727D01*
Y41327D02*X306706Y42127D01*
X305319Y41327D02*X303932Y42127D01*
X310044Y69673D02*Y68073D01*
Y69673D02*X311431Y70473D01*
X310044Y69673D02*X308657Y70473D01*
X310044Y64949D02*Y63349D01*
Y64949D02*X311431Y65749D01*
X310044Y64949D02*X308657Y65749D01*
X310044Y60224D02*Y58624D01*
Y60224D02*X311431Y61024D01*
X310044Y60224D02*X308657Y61024D01*
X310044Y55500D02*Y53900D01*
Y55500D02*X311431Y56300D01*
X310044Y55500D02*X308657Y56300D01*
X310044Y50776D02*Y49176D01*
Y50776D02*X311431Y51576D01*
X310044Y50776D02*X308657Y51576D01*
X310044Y46051D02*Y44451D01*
Y46051D02*X311431Y46851D01*
X310044Y46051D02*X308657Y46851D01*
X310044Y41327D02*Y39727D01*
Y41327D02*X311431Y42127D01*
X310044Y41327D02*X308657Y42127D01*
X314768Y69673D02*Y68073D01*
Y69673D02*X316155Y70473D01*
X314768Y69673D02*X313381Y70473D01*
X314768Y64949D02*Y63349D01*
Y64949D02*X316155Y65749D01*
X314768Y64949D02*X313381Y65749D01*
X314768Y60224D02*Y58624D01*
Y60224D02*X316155Y61024D01*
X314768Y60224D02*X313381Y61024D01*
X314768Y55500D02*Y53900D01*
Y55500D02*X316155Y56300D01*
X314768Y55500D02*X313381Y56300D01*
X314768Y50776D02*Y49176D01*
Y50776D02*X316155Y51576D01*
X314768Y50776D02*X313381Y51576D01*
X314768Y46051D02*Y44451D01*
Y46051D02*X316155Y46851D01*
X314768Y46051D02*X313381Y46851D01*
X314768Y41327D02*Y39727D01*
Y41327D02*X316155Y42127D01*
X314768Y41327D02*X313381Y42127D01*
X319492Y69673D02*Y68073D01*
Y69673D02*X320879Y70473D01*
X319492Y69673D02*X318105Y70473D01*
X319492Y64949D02*Y63349D01*
Y64949D02*X320879Y65749D01*
X319492Y64949D02*X318105Y65749D01*
X319492Y60224D02*Y58624D01*
Y60224D02*X320879Y61024D01*
X319492Y60224D02*X318105Y61024D01*
X319492Y55500D02*Y53900D01*
Y55500D02*X320879Y56300D01*
X319492Y55500D02*X318105Y56300D01*
X319492Y50776D02*Y49176D01*
Y50776D02*X320879Y51576D01*
X319492Y50776D02*X318105Y51576D01*
X319492Y46051D02*Y44451D01*
Y46051D02*X320879Y46851D01*
X319492Y46051D02*X318105Y46851D01*
X319492Y41327D02*Y39727D01*
Y41327D02*X320879Y42127D01*
X319492Y41327D02*X318105Y42127D01*
X270110Y285980D02*Y284380D01*
Y285980D02*X271497Y286780D01*
X270110Y285980D02*X268724Y286780D01*
X266370Y285980D02*Y284380D01*
Y285980D02*X267757Y286780D01*
X266370Y285980D02*X264983Y286780D01*
X262630Y285980D02*Y284380D01*
Y285980D02*X264017Y286780D01*
X262630Y285980D02*X261243Y286780D01*
X258890Y285980D02*Y284380D01*
Y285980D02*X260276Y286780D01*
X258890Y285980D02*X257503Y286780D01*
X270110Y282240D02*Y280640D01*
Y282240D02*X271497Y283040D01*
X270110Y282240D02*X268724Y283040D01*
X266370Y282240D02*Y280640D01*
Y282240D02*X267757Y283040D01*
X266370Y282240D02*X264983Y283040D01*
X262630Y282240D02*Y280640D01*
Y282240D02*X264017Y283040D01*
X262630Y282240D02*X261243Y283040D01*
X258890Y282240D02*Y280640D01*
Y282240D02*X260276Y283040D01*
X258890Y282240D02*X257503Y283040D01*
X270110Y278500D02*Y276900D01*
Y278500D02*X271497Y279300D01*
X270110Y278500D02*X268724Y279300D01*
X266370Y278500D02*Y276900D01*
Y278500D02*X267757Y279300D01*
X266370Y278500D02*X264983Y279300D01*
X262630Y278500D02*Y276900D01*
Y278500D02*X264017Y279300D01*
X262630Y278500D02*X261243Y279300D01*
X258890Y278500D02*Y276900D01*
Y278500D02*X260276Y279300D01*
X258890Y278500D02*X257503Y279300D01*
X270110Y274760D02*Y273160D01*
Y274760D02*X271497Y275560D01*
X270110Y274760D02*X268724Y275560D01*
X266370Y274760D02*Y273160D01*
Y274760D02*X267757Y275560D01*
X266370Y274760D02*X264983Y275560D01*
X262630Y274760D02*Y273160D01*
Y274760D02*X264017Y275560D01*
X262630Y274760D02*X261243Y275560D01*
X258890Y274760D02*Y273160D01*
Y274760D02*X260276Y275560D01*
X258890Y274760D02*X257503Y275560D01*
X270110Y271020D02*Y269420D01*
Y271020D02*X271497Y271820D01*
X270110Y271020D02*X268724Y271820D01*
X266370Y271020D02*Y269420D01*
Y271020D02*X267757Y271820D01*
X266370Y271020D02*X264983Y271820D01*
X262630Y271020D02*Y269420D01*
Y271020D02*X264017Y271820D01*
X262630Y271020D02*X261243Y271820D01*
X258890Y271020D02*Y269420D01*
Y271020D02*X260276Y271820D01*
X258890Y271020D02*X257503Y271820D01*
X324000Y323000D02*Y321400D01*
Y323000D02*X325387Y323800D01*
X324000Y323000D02*X322613Y323800D01*
X332000Y323000D02*Y321400D01*
Y323000D02*X333387Y323800D01*
X332000Y323000D02*X330613Y323800D01*
X332000Y315000D02*Y313400D01*
Y315000D02*X333387Y315800D01*
X332000Y315000D02*X330613Y315800D01*
X323500Y315000D02*Y313400D01*
Y315000D02*X324887Y315800D01*
X323500Y315000D02*X322113Y315800D01*
X324000Y319000D02*Y317400D01*
Y319000D02*X325387Y319800D01*
X324000Y319000D02*X322613Y319800D01*
X332000Y319000D02*Y317400D01*
Y319000D02*X333387Y319800D01*
X332000Y319000D02*X330613Y319800D01*
X328000Y323000D02*Y321400D01*
Y323000D02*X329387Y323800D01*
X328000Y323000D02*X326613Y323800D01*
X328000Y315000D02*Y313400D01*
Y315000D02*X329387Y315800D01*
X328000Y315000D02*X326613Y315800D01*
X328000Y319000D02*Y317400D01*
Y319000D02*X329387Y319800D01*
X328000Y319000D02*X326613Y319800D01*
X317500Y402000D02*Y400400D01*
Y402000D02*X318887Y402800D01*
X317500Y402000D02*X316113Y402800D01*
X320453Y404953D02*Y403353D01*
Y404953D02*X321839Y405753D01*
X320453Y404953D02*X319066Y405753D01*
X320453Y399047D02*Y397447D01*
Y399047D02*X321839Y399847D01*
X320453Y399047D02*X319066Y399847D01*
X314547Y404953D02*Y403353D01*
Y404953D02*X315934Y405753D01*
X314547Y404953D02*X313161Y405753D01*
X314547Y399047D02*Y397447D01*
Y399047D02*X315934Y399847D01*
X314547Y399047D02*X313161Y399847D01*
X291500Y401000D02*Y399400D01*
Y401000D02*X292887Y401800D01*
X291500Y401000D02*X290113Y401800D01*
X294453Y398047D02*Y396447D01*
Y398047D02*X295839Y398847D01*
X294453Y398047D02*X293066Y398847D01*
X294453Y403953D02*Y402353D01*
Y403953D02*X295839Y404753D01*
X294453Y403953D02*X293066Y404753D01*
X288547Y398047D02*Y396447D01*
Y398047D02*X289934Y398847D01*
X288547Y398047D02*X287161Y398847D01*
X288547Y403953D02*Y402353D01*
Y403953D02*X289934Y404753D01*
X288547Y403953D02*X287161Y404753D01*
X317500Y192500D02*Y190900D01*
Y192500D02*X318887Y193300D01*
X317500Y192500D02*X316113Y193300D01*
X320453Y195453D02*Y193853D01*
Y195453D02*X321839Y196253D01*
X320453Y195453D02*X319066Y196253D01*
X320453Y189547D02*Y187947D01*
Y189547D02*X321839Y190347D01*
X320453Y189547D02*X319066Y190347D01*
X314547Y195453D02*Y193853D01*
Y195453D02*X315934Y196253D01*
X314547Y195453D02*X313161Y196253D01*
X314547Y189547D02*Y187947D01*
Y189547D02*X315934Y190347D01*
X314547Y189547D02*X313161Y190347D01*
X291500Y191500D02*Y189900D01*
Y191500D02*X292887Y192300D01*
X291500Y191500D02*X290113Y192300D01*
X294453Y188547D02*Y186947D01*
Y188547D02*X295839Y189347D01*
X294453Y188547D02*X293066Y189347D01*
X294453Y194453D02*Y192853D01*
Y194453D02*X295839Y195253D01*
X294453Y194453D02*X293066Y195253D01*
X288547Y188547D02*Y186947D01*
Y188547D02*X289934Y189347D01*
X288547Y188547D02*X287161Y189347D01*
X288547Y194453D02*Y192853D01*
Y194453D02*X289934Y195253D01*
X288547Y194453D02*X287161Y195253D01*
X317500Y87000D02*Y85400D01*
Y87000D02*X318887Y87800D01*
X317500Y87000D02*X316113Y87800D01*
X320453Y89953D02*Y88353D01*
Y89953D02*X321839Y90753D01*
X320453Y89953D02*X319066Y90753D01*
X320453Y84047D02*Y82447D01*
Y84047D02*X321839Y84847D01*
X320453Y84047D02*X319066Y84847D01*
X314547Y89953D02*Y88353D01*
Y89953D02*X315934Y90753D01*
X314547Y89953D02*X313161Y90753D01*
X314547Y84047D02*Y82447D01*
Y84047D02*X315934Y84847D01*
X314547Y84047D02*X313161Y84847D01*
X291500Y86000D02*Y84400D01*
Y86000D02*X292887Y86800D01*
X291500Y86000D02*X290113Y86800D01*
X294453Y83047D02*Y81447D01*
Y83047D02*X295839Y83847D01*
X294453Y83047D02*X293066Y83847D01*
X294453Y88953D02*Y87353D01*
Y88953D02*X295839Y89753D01*
X294453Y88953D02*X293066Y89753D01*
X288547Y83047D02*Y81447D01*
Y83047D02*X289934Y83847D01*
X288547Y83047D02*X287161Y83847D01*
X288547Y88953D02*Y87353D01*
Y88953D02*X289934Y89753D01*
X288547Y88953D02*X287161Y89753D01*
X15000Y571250D02*Y569650D01*
Y571250D02*X16387Y572050D01*
X15000Y571250D02*X13613Y572050D01*
X135000Y573500D02*X136500Y570500D01*
X138000Y573500D01*
X136500Y570500D02*Y567500D01*
X139800Y570800D02*X142050D01*
X139800Y567500D02*X142800D01*
X139800Y573500D02*Y567500D01*
Y573500D02*X142800D01*
X147600D02*X148350Y572750D01*
X145350Y573500D02*X147600D01*
X144600Y572750D02*X145350Y573500D01*
X144600Y572750D02*Y571250D01*
X145350Y570500D01*
X147600D01*
X148350Y569750D01*
Y568250D01*
X147600Y567500D02*X148350Y568250D01*
X145350Y567500D02*X147600D01*
X144600Y568250D02*X145350Y567500D01*
X98000Y569750D02*X101000Y573500D01*
X98000Y569750D02*X101750D01*
X101000Y573500D02*Y567500D01*
X104300D02*X107300Y573500D01*
X103550D02*X107300D01*
X109850Y567500D02*X112100Y570500D01*
Y572750D02*Y570500D01*
X111350Y573500D02*X112100Y572750D01*
X109850Y573500D02*X111350D01*
X109100Y572750D02*X109850Y573500D01*
X109100Y572750D02*Y571250D01*
X109850Y570500D01*
X112100D01*
X45000Y568250D02*X45750Y567500D01*
X45000Y572750D02*Y568250D01*
Y572750D02*X45750Y573500D01*
X47250D01*
X48000Y572750D01*
Y568250D01*
X47250Y567500D02*X48000Y568250D01*
X45750Y567500D02*X47250D01*
X45000Y569000D02*X48000Y572000D01*
X49800Y567500D02*X50550D01*
X52350Y568250D02*X53100Y567500D01*
X52350Y572750D02*Y568250D01*
Y572750D02*X53100Y573500D01*
X54600D01*
X55350Y572750D01*
Y568250D01*
X54600Y567500D02*X55350Y568250D01*
X53100Y567500D02*X54600D01*
X52350Y569000D02*X55350Y572000D01*
X57150Y572300D02*X58350Y573500D01*
Y567500D01*
X57150D02*X59400D01*
X61200Y572750D02*X61950Y573500D01*
X64200D01*
X64950Y572750D01*
Y571250D01*
X61200Y567500D02*X64950Y571250D01*
X61200Y567500D02*X64950D01*
X3000Y588500D02*X3750Y587750D01*
X750Y588500D02*X3000D01*
X0Y587750D02*X750Y588500D01*
X0Y587750D02*Y586250D01*
X750Y585500D01*
X3000D01*
X3750Y584750D01*
Y583250D01*
X3000Y582500D02*X3750Y583250D01*
X750Y582500D02*X3000D01*
X0Y583250D02*X750Y582500D01*
X5550Y585500D02*Y583250D01*
X6300Y582500D01*
X8550Y585500D02*Y581000D01*
X7800Y580250D02*X8550Y581000D01*
X6300Y580250D02*X7800D01*
X5550Y581000D02*X6300Y580250D01*
Y582500D02*X7800D01*
X8550Y583250D01*
X11100Y584750D02*Y582500D01*
Y584750D02*X11850Y585500D01*
X12600D01*
X13350Y584750D01*
Y582500D01*
Y584750D02*X14100Y585500D01*
X14850D01*
X15600Y584750D01*
Y582500D01*
X10350Y585500D02*X11100Y584750D01*
X17400Y588500D02*Y582500D01*
Y583250D02*X18150Y582500D01*
X19650D01*
X20400Y583250D01*
Y584750D02*Y583250D01*
X19650Y585500D02*X20400Y584750D01*
X18150Y585500D02*X19650D01*
X17400Y584750D02*X18150Y585500D01*
X22200Y584750D02*Y583250D01*
Y584750D02*X22950Y585500D01*
X24450D01*
X25200Y584750D01*
Y583250D01*
X24450Y582500D02*X25200Y583250D01*
X22950Y582500D02*X24450D01*
X22200Y583250D02*X22950Y582500D01*
X27000Y588500D02*Y583250D01*
X27750Y582500D01*
X0Y579250D02*X29250D01*
X41750Y588500D02*Y582500D01*
X43700Y588500D02*X44750Y587450D01*
Y583550D01*
X43700Y582500D02*X44750Y583550D01*
X41000Y582500D02*X43700D01*
X41000Y588500D02*X43700D01*
G54D233*X46550Y587000D02*Y586850D01*
G54D232*Y584750D02*Y582500D01*
X50300Y585500D02*X51050Y584750D01*
X48800Y585500D02*X50300D01*
X48050Y584750D02*X48800Y585500D01*
X48050Y584750D02*Y583250D01*
X48800Y582500D01*
X51050Y585500D02*Y583250D01*
X51800Y582500D01*
X48800D02*X50300D01*
X51050Y583250D01*
X54350Y584750D02*Y582500D01*
Y584750D02*X55100Y585500D01*
X55850D01*
X56600Y584750D01*
Y582500D01*
Y584750D02*X57350Y585500D01*
X58100D01*
X58850Y584750D01*
Y582500D01*
X53600Y585500D02*X54350Y584750D01*
X60650Y582500D02*X61400D01*
X65900Y583250D02*X66650Y582500D01*
X65900Y587750D02*X66650Y588500D01*
X65900Y587750D02*Y583250D01*
X68450Y588500D02*X69950D01*
X69200D02*Y582500D01*
X68450D02*X69950D01*
X72500Y584750D02*Y582500D01*
Y584750D02*X73250Y585500D01*
X74000D01*
X74750Y584750D01*
Y582500D01*
X71750Y585500D02*X72500Y584750D01*
X77300Y585500D02*X79550D01*
X76550Y584750D02*X77300Y585500D01*
X76550Y584750D02*Y583250D01*
X77300Y582500D01*
X79550D01*
X81350Y588500D02*Y582500D01*
Y584750D02*X82100Y585500D01*
X83600D01*
X84350Y584750D01*
Y582500D01*
X86150Y588500D02*X86900Y587750D01*
Y583250D01*
X86150Y582500D02*X86900Y583250D01*
X41000Y579250D02*X88700D01*
X96050Y582500D02*X98000D01*
X95000Y583550D02*X96050Y582500D01*
X95000Y587450D02*Y583550D01*
Y587450D02*X96050Y588500D01*
X98000D01*
X99800Y584750D02*Y583250D01*
Y584750D02*X100550Y585500D01*
X102050D01*
X102800Y584750D01*
Y583250D01*
X102050Y582500D02*X102800Y583250D01*
X100550Y582500D02*X102050D01*
X99800Y583250D02*X100550Y582500D01*
X104600Y585500D02*Y583250D01*
X105350Y582500D01*
X106850D01*
X107600Y583250D01*
Y585500D02*Y583250D01*
X110150Y584750D02*Y582500D01*
Y584750D02*X110900Y585500D01*
X111650D01*
X112400Y584750D01*
Y582500D01*
X109400Y585500D02*X110150Y584750D01*
X114950Y588500D02*Y583250D01*
X115700Y582500D01*
X114200Y586250D02*X115700D01*
X95000Y579250D02*X117200D01*
X130750Y588500D02*Y582500D01*
X130000Y588500D02*X133000D01*
X133750Y587750D01*
Y586250D01*
X133000Y585500D02*X133750Y586250D01*
X130750Y585500D02*X133000D01*
X135550Y588500D02*Y583250D01*
X136300Y582500D01*
X140050Y585500D02*X140800Y584750D01*
X138550Y585500D02*X140050D01*
X137800Y584750D02*X138550Y585500D01*
X137800Y584750D02*Y583250D01*
X138550Y582500D01*
X140800Y585500D02*Y583250D01*
X141550Y582500D01*
X138550D02*X140050D01*
X140800Y583250D01*
X144100Y588500D02*Y583250D01*
X144850Y582500D01*
X143350Y586250D02*X144850D01*
X147100Y582500D02*X149350D01*
X146350Y583250D02*X147100Y582500D01*
X146350Y584750D02*Y583250D01*
Y584750D02*X147100Y585500D01*
X148600D01*
X149350Y584750D01*
X146350Y584000D02*X149350D01*
Y584750D02*Y584000D01*
X154150Y588500D02*Y582500D01*
X153400D02*X154150Y583250D01*
X151900Y582500D02*X153400D01*
X151150Y583250D02*X151900Y582500D01*
X151150Y584750D02*Y583250D01*
Y584750D02*X151900Y585500D01*
X153400D01*
X154150Y584750D01*
X157450Y585500D02*Y584750D01*
Y583250D02*Y582500D01*
X155950Y587750D02*Y587000D01*
Y587750D02*X156700Y588500D01*
X158200D01*
X158950Y587750D01*
Y587000D01*
X157450Y585500D02*X158950Y587000D01*
X130000Y579250D02*X160750D01*
X0Y603500D02*X3000D01*
X1500D02*Y597500D01*
X4800Y603500D02*Y597500D01*
Y599750D02*X5550Y600500D01*
X7050D01*
X7800Y599750D01*
Y597500D01*
X10350D02*X12600D01*
X9600Y598250D02*X10350Y597500D01*
X9600Y599750D02*Y598250D01*
Y599750D02*X10350Y600500D01*
X11850D01*
X12600Y599750D01*
X9600Y599000D02*X12600D01*
Y599750D02*Y599000D01*
X15150Y599750D02*Y597500D01*
Y599750D02*X15900Y600500D01*
X17400D01*
X14400D02*X15150Y599750D01*
X19950Y597500D02*X22200D01*
X19200Y598250D02*X19950Y597500D01*
X19200Y599750D02*Y598250D01*
Y599750D02*X19950Y600500D01*
X21450D01*
X22200Y599750D01*
X19200Y599000D02*X22200D01*
Y599750D02*Y599000D01*
X28950Y600500D02*X29700Y599750D01*
X27450Y600500D02*X28950D01*
X26700Y599750D02*X27450Y600500D01*
X26700Y599750D02*Y598250D01*
X27450Y597500D01*
X29700Y600500D02*Y598250D01*
X30450Y597500D01*
X27450D02*X28950D01*
X29700Y598250D01*
X33000Y599750D02*Y597500D01*
Y599750D02*X33750Y600500D01*
X35250D01*
X32250D02*X33000Y599750D01*
X37800Y597500D02*X40050D01*
X37050Y598250D02*X37800Y597500D01*
X37050Y599750D02*Y598250D01*
Y599750D02*X37800Y600500D01*
X39300D01*
X40050Y599750D01*
X37050Y599000D02*X40050D01*
Y599750D02*Y599000D01*
X44550Y603500D02*X47550D01*
X44550D02*Y600500D01*
X45300Y601250D01*
X46800D01*
X47550Y600500D01*
Y598250D01*
X46800Y597500D02*X47550Y598250D01*
X45300Y597500D02*X46800D01*
X44550Y598250D02*X45300Y597500D01*
X55050Y603500D02*Y597500D01*
X54300D02*X55050Y598250D01*
X52800Y597500D02*X54300D01*
X52050Y598250D02*X52800Y597500D01*
X52050Y599750D02*Y598250D01*
Y599750D02*X52800Y600500D01*
X54300D01*
X55050Y599750D01*
G54D233*X56850Y602000D02*Y601850D01*
G54D232*Y599750D02*Y597500D01*
X59100Y602750D02*Y597500D01*
Y602750D02*X59850Y603500D01*
X60600D01*
X58350Y600500D02*X59850D01*
X62850Y602750D02*Y597500D01*
Y602750D02*X63600Y603500D01*
X64350D01*
X62100Y600500D02*X63600D01*
X66600Y597500D02*X68850D01*
X65850Y598250D02*X66600Y597500D01*
X65850Y599750D02*Y598250D01*
Y599750D02*X66600Y600500D01*
X68100D01*
X68850Y599750D01*
X65850Y599000D02*X68850D01*
Y599750D02*Y599000D01*
X71400Y599750D02*Y597500D01*
Y599750D02*X72150Y600500D01*
X73650D01*
X70650D02*X71400Y599750D01*
X76200Y597500D02*X78450D01*
X75450Y598250D02*X76200Y597500D01*
X75450Y599750D02*Y598250D01*
Y599750D02*X76200Y600500D01*
X77700D01*
X78450Y599750D01*
X75450Y599000D02*X78450D01*
Y599750D02*Y599000D01*
X81000Y599750D02*Y597500D01*
Y599750D02*X81750Y600500D01*
X82500D01*
X83250Y599750D01*
Y597500D01*
X80250Y600500D02*X81000Y599750D01*
X85800Y603500D02*Y598250D01*
X86550Y597500D01*
X85050Y601250D02*X86550D01*
X93750Y603500D02*Y597500D01*
X93000D02*X93750Y598250D01*
X91500Y597500D02*X93000D01*
X90750Y598250D02*X91500Y597500D01*
X90750Y599750D02*Y598250D01*
Y599750D02*X91500Y600500D01*
X93000D01*
X93750Y599750D01*
X96300D02*Y597500D01*
Y599750D02*X97050Y600500D01*
X98550D01*
X95550D02*X96300Y599750D01*
G54D233*X100350Y602000D02*Y601850D01*
G54D232*Y599750D02*Y597500D01*
X101850Y603500D02*Y598250D01*
X102600Y597500D01*
X104100Y603500D02*Y598250D01*
X104850Y597500D01*
X109800D02*X112050D01*
X112800Y598250D01*
X112050Y599000D02*X112800Y598250D01*
X109800Y599000D02*X112050D01*
X109050Y599750D02*X109800Y599000D01*
X109050Y599750D02*X109800Y600500D01*
X112050D01*
X112800Y599750D01*
X109050Y598250D02*X109800Y597500D01*
G54D233*X114600Y602000D02*Y601850D01*
G54D232*Y599750D02*Y597500D01*
X116100Y600500D02*X119100D01*
X116100Y597500D02*X119100Y600500D01*
X116100Y597500D02*X119100D01*
X121650D02*X123900D01*
X120900Y598250D02*X121650Y597500D01*
X120900Y599750D02*Y598250D01*
Y599750D02*X121650Y600500D01*
X123150D01*
X123900Y599750D01*
X120900Y599000D02*X123900D01*
Y599750D02*Y599000D01*
X126450Y597500D02*X128700D01*
X129450Y598250D01*
X128700Y599000D02*X129450Y598250D01*
X126450Y599000D02*X128700D01*
X125700Y599750D02*X126450Y599000D01*
X125700Y599750D02*X126450Y600500D01*
X128700D01*
X129450Y599750D01*
X125700Y598250D02*X126450Y597500D01*
X133950Y600500D02*Y598250D01*
X134700Y597500D01*
X136200D01*
X136950Y598250D01*
Y600500D02*Y598250D01*
X139500Y597500D02*X141750D01*
X142500Y598250D01*
X141750Y599000D02*X142500Y598250D01*
X139500Y599000D02*X141750D01*
X138750Y599750D02*X139500Y599000D01*
X138750Y599750D02*X139500Y600500D01*
X141750D01*
X142500Y599750D01*
X138750Y598250D02*X139500Y597500D01*
X145050D02*X147300D01*
X144300Y598250D02*X145050Y597500D01*
X144300Y599750D02*Y598250D01*
Y599750D02*X145050Y600500D01*
X146550D01*
X147300Y599750D01*
X144300Y599000D02*X147300D01*
Y599750D02*Y599000D01*
X152100Y603500D02*Y597500D01*
X151350D02*X152100Y598250D01*
X149850Y597500D02*X151350D01*
X149100Y598250D02*X149850Y597500D01*
X149100Y599750D02*Y598250D01*
Y599750D02*X149850Y600500D01*
X151350D01*
X152100Y599750D01*
G54D233*X156600Y602000D02*Y601850D01*
G54D232*Y599750D02*Y597500D01*
X158850Y599750D02*Y597500D01*
Y599750D02*X159600Y600500D01*
X160350D01*
X161100Y599750D01*
Y597500D01*
X158100Y600500D02*X158850Y599750D01*
X166350Y603500D02*Y598250D01*
X167100Y597500D01*
X165600Y601250D02*X167100D01*
X168600Y603500D02*Y597500D01*
Y599750D02*X169350Y600500D01*
X170850D01*
X171600Y599750D01*
Y597500D01*
G54D233*X173400Y602000D02*Y601850D01*
G54D232*Y599750D02*Y597500D01*
X175650D02*X177900D01*
X178650Y598250D01*
X177900Y599000D02*X178650Y598250D01*
X175650Y599000D02*X177900D01*
X174900Y599750D02*X175650Y599000D01*
X174900Y599750D02*X175650Y600500D01*
X177900D01*
X178650Y599750D01*
X174900Y598250D02*X175650Y597500D01*
X183150Y603500D02*Y598250D01*
X183900Y597500D01*
X187650Y600500D02*X188400Y599750D01*
X186150Y600500D02*X187650D01*
X185400Y599750D02*X186150Y600500D01*
X185400Y599750D02*Y598250D01*
X186150Y597500D01*
X188400Y600500D02*Y598250D01*
X189150Y597500D01*
X186150D02*X187650D01*
X188400Y598250D01*
X190950Y600500D02*Y598250D01*
X191700Y597500D01*
X193950Y600500D02*Y596000D01*
X193200Y595250D02*X193950Y596000D01*
X191700Y595250D02*X193200D01*
X190950Y596000D02*X191700Y595250D01*
Y597500D02*X193200D01*
X193950Y598250D01*
X195750Y599750D02*Y598250D01*
Y599750D02*X196500Y600500D01*
X198000D01*
X198750Y599750D01*
Y598250D01*
X198000Y597500D02*X198750Y598250D01*
X196500Y597500D02*X198000D01*
X195750Y598250D02*X196500Y597500D01*
X200550Y600500D02*Y598250D01*
X201300Y597500D01*
X202800D01*
X203550Y598250D01*
Y600500D02*Y598250D01*
X206100Y603500D02*Y598250D01*
X206850Y597500D01*
X205350Y601250D02*X206850D01*
X208350Y596000D02*X209850Y597500D01*
X214350Y602300D02*X215550Y603500D01*
Y597500D01*
X214350D02*X216600D01*
X218400Y598250D02*X219150Y597500D01*
X218400Y602750D02*Y598250D01*
Y602750D02*X219150Y603500D01*
X220650D01*
X221400Y602750D01*
Y598250D01*
X220650Y597500D02*X221400Y598250D01*
X219150Y597500D02*X220650D01*
X218400Y599000D02*X221400Y602000D01*
X223200Y602750D02*X223950Y603500D01*
X226200D01*
X226950Y602750D01*
Y601250D01*
X223200Y597500D02*X226950Y601250D01*
X223200Y597500D02*X226950D01*
X231000Y603500D02*X231750Y602750D01*
X229500Y603500D02*X231000D01*
X228750Y602750D02*X229500Y603500D01*
X228750Y602750D02*Y598250D01*
X229500Y597500D01*
X231000Y600800D02*X231750Y600050D01*
X228750Y600800D02*X231000D01*
X229500Y597500D02*X231000D01*
X231750Y598250D01*
Y600050D02*Y598250D01*
X236250Y603500D02*Y597500D01*
Y599750D02*X237000Y600500D01*
X238500D01*
X239250Y599750D01*
Y597500D01*
X241050Y599750D02*Y598250D01*
Y599750D02*X241800Y600500D01*
X243300D01*
X244050Y599750D01*
Y598250D01*
X243300Y597500D02*X244050Y598250D01*
X241800Y597500D02*X243300D01*
X241050Y598250D02*X241800Y597500D01*
X245850Y603500D02*Y598250D01*
X246600Y597500D01*
X248850D02*X251100D01*
X248100Y598250D02*X248850Y597500D01*
X248100Y599750D02*Y598250D01*
Y599750D02*X248850Y600500D01*
X250350D01*
X251100Y599750D01*
X248100Y599000D02*X251100D01*
Y599750D02*Y599000D01*
X253650Y597500D02*X255900D01*
X256650Y598250D01*
X255900Y599000D02*X256650Y598250D01*
X253650Y599000D02*X255900D01*
X252900Y599750D02*X253650Y599000D01*
X252900Y599750D02*X253650Y600500D01*
X255900D01*
X256650Y599750D01*
X252900Y598250D02*X253650Y597500D01*
X261900Y603500D02*Y598250D01*
X262650Y597500D01*
X261150Y601250D02*X262650D01*
X264150Y599750D02*Y598250D01*
Y599750D02*X264900Y600500D01*
X266400D01*
X267150Y599750D01*
Y598250D01*
X266400Y597500D02*X267150Y598250D01*
X264900Y597500D02*X266400D01*
X264150Y598250D02*X264900Y597500D01*
X269700Y603500D02*Y598250D01*
X270450Y597500D01*
X268950Y601250D02*X270450D01*
X274200Y600500D02*X274950Y599750D01*
X272700Y600500D02*X274200D01*
X271950Y599750D02*X272700Y600500D01*
X271950Y599750D02*Y598250D01*
X272700Y597500D01*
X274950Y600500D02*Y598250D01*
X275700Y597500D01*
X272700D02*X274200D01*
X274950Y598250D01*
X277500Y603500D02*Y598250D01*
X278250Y597500D01*
G54D234*X185500Y455000D02*X385000D01*
X390000Y450000D02*Y37500D01*
X180500Y450000D02*Y37500D01*
X185500Y32500D02*X385000D01*
X390000Y450000D02*G75*G03X385000Y455000I-5000J0D01*G01*
X390000Y37500D02*G75*G02X385000Y32500I-5000J0D01*G01*
X185500Y455000D02*G75*G03X180500Y450000I0J-5000D01*G01*
Y37500D02*G75*G03X185500Y32500I5000J0D01*G01*
G54D232*X213675Y-9500D02*X216675D01*
X217425Y-8750D01*
Y-6950D02*Y-8750D01*
X216675Y-6200D02*X217425Y-6950D01*
X214425Y-6200D02*X216675D01*
X214425Y-3500D02*Y-9500D01*
X213675Y-3500D02*X216675D01*
X217425Y-4250D01*
Y-5450D01*
X216675Y-6200D02*X217425Y-5450D01*
X219225Y-7250D02*Y-8750D01*
Y-7250D02*X219975Y-6500D01*
X221475D01*
X222225Y-7250D01*
Y-8750D01*
X221475Y-9500D02*X222225Y-8750D01*
X219975Y-9500D02*X221475D01*
X219225Y-8750D02*X219975Y-9500D01*
X226275Y-6500D02*X227025Y-7250D01*
X224775Y-6500D02*X226275D01*
X224025Y-7250D02*X224775Y-6500D01*
X224025Y-7250D02*Y-8750D01*
X224775Y-9500D01*
X227025Y-6500D02*Y-8750D01*
X227775Y-9500D01*
X224775D02*X226275D01*
X227025Y-8750D01*
X230325Y-7250D02*Y-9500D01*
Y-7250D02*X231075Y-6500D01*
X232575D01*
X229575D02*X230325Y-7250D01*
X237375Y-3500D02*Y-9500D01*
X236625D02*X237375Y-8750D01*
X235125Y-9500D02*X236625D01*
X234375Y-8750D02*X235125Y-9500D01*
X234375Y-7250D02*Y-8750D01*
Y-7250D02*X235125Y-6500D01*
X236625D01*
X237375Y-7250D01*
X241875D02*Y-8750D01*
Y-7250D02*X242625Y-6500D01*
X244125D01*
X244875Y-7250D01*
Y-8750D01*
X244125Y-9500D02*X244875Y-8750D01*
X242625Y-9500D02*X244125D01*
X241875Y-8750D02*X242625Y-9500D01*
X246675Y-6500D02*Y-8750D01*
X247425Y-9500D01*
X248925D01*
X249675Y-8750D01*
Y-6500D02*Y-8750D01*
X252225Y-3500D02*Y-8750D01*
X252975Y-9500D01*
X251475Y-5750D02*X252975D01*
X254475Y-3500D02*Y-8750D01*
X255225Y-9500D01*
G54D233*X256725Y-5000D02*Y-5150D01*
G54D232*Y-7250D02*Y-9500D01*
X258975Y-7250D02*Y-9500D01*
Y-7250D02*X259725Y-6500D01*
X260475D01*
X261225Y-7250D01*
Y-9500D01*
X258225Y-6500D02*X258975Y-7250D01*
X263775Y-9500D02*X266025D01*
X263025Y-8750D02*X263775Y-9500D01*
X263025Y-7250D02*Y-8750D01*
Y-7250D02*X263775Y-6500D01*
X265275D01*
X266025Y-7250D01*
X263025Y-8000D02*X266025D01*
Y-7250D02*Y-8000D01*
G54D233*X270525Y-5000D02*Y-5150D01*
G54D232*Y-7250D02*Y-9500D01*
X272775D02*X275025D01*
X275775Y-8750D01*
X275025Y-8000D02*X275775Y-8750D01*
X272775Y-8000D02*X275025D01*
X272025Y-7250D02*X272775Y-8000D01*
X272025Y-7250D02*X272775Y-6500D01*
X275025D01*
X275775Y-7250D01*
X272025Y-8750D02*X272775Y-9500D01*
X281025Y-3500D02*Y-8750D01*
X281775Y-9500D01*
X280275Y-5750D02*X281775D01*
X283275Y-3500D02*Y-9500D01*
Y-7250D02*X284025Y-6500D01*
X285525D01*
X286275Y-7250D01*
Y-9500D01*
X288825D02*X291075D01*
X288075Y-8750D02*X288825Y-9500D01*
X288075Y-7250D02*Y-8750D01*
Y-7250D02*X288825Y-6500D01*
X290325D01*
X291075Y-7250D01*
X288075Y-8000D02*X291075D01*
Y-7250D02*Y-8000D01*
X296325Y-6500D02*X298575D01*
X295575Y-7250D02*X296325Y-6500D01*
X295575Y-7250D02*Y-8750D01*
X296325Y-9500D01*
X298575D01*
X301125D02*X303375D01*
X300375Y-8750D02*X301125Y-9500D01*
X300375Y-7250D02*Y-8750D01*
Y-7250D02*X301125Y-6500D01*
X302625D01*
X303375Y-7250D01*
X300375Y-8000D02*X303375D01*
Y-7250D02*Y-8000D01*
X305925Y-7250D02*Y-9500D01*
Y-7250D02*X306675Y-6500D01*
X307425D01*
X308175Y-7250D01*
Y-9500D01*
X305175Y-6500D02*X305925Y-7250D01*
X310725Y-3500D02*Y-8750D01*
X311475Y-9500D01*
X309975Y-5750D02*X311475D01*
X313725Y-9500D02*X315975D01*
X312975Y-8750D02*X313725Y-9500D01*
X312975Y-7250D02*Y-8750D01*
Y-7250D02*X313725Y-6500D01*
X315225D01*
X315975Y-7250D01*
X312975Y-8000D02*X315975D01*
Y-7250D02*Y-8000D01*
X318525Y-7250D02*Y-9500D01*
Y-7250D02*X319275Y-6500D01*
X320775D01*
X317775D02*X318525Y-7250D01*
X322575Y-3500D02*Y-8750D01*
X323325Y-9500D01*
G54D233*X324825Y-5000D02*Y-5150D01*
G54D232*Y-7250D02*Y-9500D01*
X327075Y-7250D02*Y-9500D01*
Y-7250D02*X327825Y-6500D01*
X328575D01*
X329325Y-7250D01*
Y-9500D01*
X326325Y-6500D02*X327075Y-7250D01*
X331875Y-9500D02*X334125D01*
X331125Y-8750D02*X331875Y-9500D01*
X331125Y-7250D02*Y-8750D01*
Y-7250D02*X331875Y-6500D01*
X333375D01*
X334125Y-7250D01*
X331125Y-8000D02*X334125D01*
Y-7250D02*Y-8000D01*
X338625Y-7250D02*Y-8750D01*
Y-7250D02*X339375Y-6500D01*
X340875D01*
X341625Y-7250D01*
Y-8750D01*
X340875Y-9500D02*X341625Y-8750D01*
X339375Y-9500D02*X340875D01*
X338625Y-8750D02*X339375Y-9500D01*
X344175Y-4250D02*Y-9500D01*
Y-4250D02*X344925Y-3500D01*
X345675D01*
X343425Y-6500D02*X344925D01*
X350625Y-3500D02*Y-8750D01*
X351375Y-9500D01*
X349875Y-5750D02*X351375D01*
X352875Y-3500D02*Y-9500D01*
Y-7250D02*X353625Y-6500D01*
X355125D01*
X355875Y-7250D01*
Y-9500D01*
G54D233*X357675Y-5000D02*Y-5150D01*
G54D232*Y-7250D02*Y-9500D01*
X359925D02*X362175D01*
X362925Y-8750D01*
X362175Y-8000D02*X362925Y-8750D01*
X359925Y-8000D02*X362175D01*
X359175Y-7250D02*X359925Y-8000D01*
X359175Y-7250D02*X359925Y-6500D01*
X362175D01*
X362925Y-7250D01*
X359175Y-8750D02*X359925Y-9500D01*
X368175Y-7250D02*Y-11750D01*
X367425Y-6500D02*X368175Y-7250D01*
X368925Y-6500D01*
X370425D01*
X371175Y-7250D01*
Y-8750D01*
X370425Y-9500D02*X371175Y-8750D01*
X368925Y-9500D02*X370425D01*
X368175Y-8750D02*X368925Y-9500D01*
X375225Y-6500D02*X375975Y-7250D01*
X373725Y-6500D02*X375225D01*
X372975Y-7250D02*X373725Y-6500D01*
X372975Y-7250D02*Y-8750D01*
X373725Y-9500D01*
X375975Y-6500D02*Y-8750D01*
X376725Y-9500D01*
X373725D02*X375225D01*
X375975Y-8750D01*
X379275Y-3500D02*Y-8750D01*
X380025Y-9500D01*
X378525Y-5750D02*X380025D01*
X381525Y-3500D02*Y-9500D01*
Y-7250D02*X382275Y-6500D01*
X383775D01*
X384525Y-7250D01*
Y-9500D01*
X200750Y528500D02*Y522500D01*
X202700Y528500D02*X203750Y527450D01*
Y523550D01*
X202700Y522500D02*X203750Y523550D01*
X200000Y522500D02*X202700D01*
X200000Y528500D02*X202700D01*
X207800Y525500D02*X208550Y524750D01*
X206300Y525500D02*X207800D01*
X205550Y524750D02*X206300Y525500D01*
X205550Y524750D02*Y523250D01*
X206300Y522500D01*
X208550Y525500D02*Y523250D01*
X209300Y522500D01*
X206300D02*X207800D01*
X208550Y523250D01*
X211850Y528500D02*Y523250D01*
X212600Y522500D01*
X211100Y526250D02*X212600D01*
X214850Y522500D02*X217100D01*
X214100Y523250D02*X214850Y522500D01*
X214100Y524750D02*Y523250D01*
Y524750D02*X214850Y525500D01*
X216350D01*
X217100Y524750D01*
X214100Y524000D02*X217100D01*
Y524750D02*Y524000D01*
X218900Y526250D02*X219650D01*
X218900Y524750D02*X219650D01*
X224150Y528500D02*X227150D01*
X225650D02*Y522500D01*
X228950Y528500D02*Y522500D01*
Y524750D02*X229700Y525500D01*
X231200D01*
X231950Y524750D01*
Y522500D01*
X233750Y525500D02*Y523250D01*
X234500Y522500D01*
X236000D01*
X236750Y523250D01*
Y525500D02*Y523250D01*
X241250Y527300D02*X242450Y528500D01*
Y522500D01*
X241250D02*X243500D01*
X245300Y527750D02*X246050Y528500D01*
X248300D01*
X249050Y527750D01*
Y526250D01*
X245300Y522500D02*X249050Y526250D01*
X245300Y522500D02*X249050D01*
X253550Y527000D02*Y522500D01*
Y527000D02*X254600Y528500D01*
X256250D01*
X257300Y527000D01*
Y522500D01*
X253550Y525500D02*X257300D01*
X259850Y524750D02*Y520250D01*
X259100Y525500D02*X259850Y524750D01*
X260600Y525500D01*
X262100D01*
X262850Y524750D01*
Y523250D01*
X262100Y522500D02*X262850Y523250D01*
X260600Y522500D02*X262100D01*
X259850Y523250D02*X260600Y522500D01*
X265400Y524750D02*Y522500D01*
Y524750D02*X266150Y525500D01*
X267650D01*
X264650D02*X265400Y524750D01*
X272150Y527750D02*X272900Y528500D01*
X275150D01*
X275900Y527750D01*
Y526250D01*
X272150Y522500D02*X275900Y526250D01*
X272150Y522500D02*X275900D01*
X277700Y523250D02*X278450Y522500D01*
X277700Y527750D02*Y523250D01*
Y527750D02*X278450Y528500D01*
X279950D01*
X280700Y527750D01*
Y523250D01*
X279950Y522500D02*X280700Y523250D01*
X278450Y522500D02*X279950D01*
X277700Y524000D02*X280700Y527000D01*
X282500Y527300D02*X283700Y528500D01*
Y522500D01*
X282500D02*X284750D01*
X286550Y523250D02*X287300Y522500D01*
X286550Y524450D02*Y523250D01*
Y524450D02*X287600Y525500D01*
X288500D01*
X289550Y524450D01*
Y523250D01*
X288800Y522500D02*X289550Y523250D01*
X287300Y522500D02*X288800D01*
X286550Y526550D02*X287600Y525500D01*
X286550Y527750D02*Y526550D01*
Y527750D02*X287300Y528500D01*
X288800D01*
X289550Y527750D01*
Y526550D01*
X288500Y525500D02*X289550Y526550D01*
X294050Y523250D02*X294800Y522500D01*
X294050Y527750D02*Y523250D01*
Y527750D02*X294800Y528500D01*
X296300D01*
X297050Y527750D01*
Y523250D01*
X296300Y522500D02*X297050Y523250D01*
X294800Y522500D02*X296300D01*
X294050Y524000D02*X297050Y527000D01*
X298850Y527300D02*X300050Y528500D01*
Y522500D01*
X298850D02*X301100D01*
X302900Y526250D02*X303650D01*
X302900Y524750D02*X303650D01*
X305450Y527750D02*X306200Y528500D01*
X308450D01*
X309200Y527750D01*
Y526250D01*
X305450Y522500D02*X309200Y526250D01*
X305450Y522500D02*X309200D01*
X311000Y527750D02*X311750Y528500D01*
X313250D01*
X314000Y527750D01*
X313250Y522500D02*X314000Y523250D01*
X311750Y522500D02*X313250D01*
X311000Y523250D02*X311750Y522500D01*
Y525800D02*X313250D01*
X314000Y527750D02*Y526550D01*
Y525050D02*Y523250D01*
Y525050D02*X313250Y525800D01*
X314000Y526550D02*X313250Y525800D01*
X315800Y526250D02*X316550D01*
X315800Y524750D02*X316550D01*
X318350Y523250D02*X319100Y522500D01*
X318350Y527750D02*Y523250D01*
Y527750D02*X319100Y528500D01*
X320600D01*
X321350Y527750D01*
Y523250D01*
X320600Y522500D02*X321350Y523250D01*
X319100Y522500D02*X320600D01*
X318350Y524000D02*X321350Y527000D01*
X323900Y522500D02*X326150Y525500D01*
Y527750D02*Y525500D01*
X325400Y528500D02*X326150Y527750D01*
X323900Y528500D02*X325400D01*
X323150Y527750D02*X323900Y528500D01*
X323150Y527750D02*Y526250D01*
X323900Y525500D01*
X326150D01*
X330650Y527000D02*Y522500D01*
Y527000D02*X331700Y528500D01*
X333350D01*
X334400Y527000D01*
Y522500D01*
X330650Y525500D02*X334400D01*
X336200Y528500D02*Y522500D01*
Y528500D02*X338450Y525500D01*
X340700Y528500D01*
Y522500D01*
X348200Y528500D02*X348950Y527750D01*
X345950Y528500D02*X348200D01*
X345200Y527750D02*X345950Y528500D01*
X345200Y527750D02*Y523250D01*
X345950Y522500D01*
X348200D01*
X348950Y523250D01*
Y524750D02*Y523250D01*
X348200Y525500D02*X348950Y524750D01*
X346700Y525500D02*X348200D01*
X350750Y528500D02*Y522500D01*
Y528500D02*X353000Y525500D01*
X355250Y528500D01*
Y522500D01*
X357050Y528500D02*X360050D01*
X358550D02*Y522500D01*
X364550Y528500D02*Y523250D01*
X365300Y522500D01*
X366800D01*
X367550Y523250D01*
Y528500D02*Y523250D01*
X369350Y528500D02*X372350D01*
X370850D02*Y522500D01*
X375200D02*X377150D01*
X374150Y523550D02*X375200Y522500D01*
X374150Y527450D02*Y523550D01*
Y527450D02*X375200Y528500D01*
X377150D01*
X200000Y542000D02*Y537500D01*
Y542000D02*X201050Y543500D01*
X202700D01*
X203750Y542000D01*
Y537500D01*
X200000Y540500D02*X203750D01*
X205550D02*Y538250D01*
X206300Y537500D01*
X207800D01*
X208550Y538250D01*
Y540500D02*Y538250D01*
X211100Y543500D02*Y538250D01*
X211850Y537500D01*
X210350Y541250D02*X211850D01*
X213350Y543500D02*Y537500D01*
Y539750D02*X214100Y540500D01*
X215600D01*
X216350Y539750D01*
Y537500D01*
X218150Y539750D02*Y538250D01*
Y539750D02*X218900Y540500D01*
X220400D01*
X221150Y539750D01*
Y538250D01*
X220400Y537500D02*X221150Y538250D01*
X218900Y537500D02*X220400D01*
X218150Y538250D02*X218900Y537500D01*
X223700Y539750D02*Y537500D01*
Y539750D02*X224450Y540500D01*
X225950D01*
X222950D02*X223700Y539750D01*
X227750Y541250D02*X228500D01*
X227750Y539750D02*X228500D01*
X233000Y537500D02*X236000D01*
X236750Y538250D01*
Y540050D02*Y538250D01*
X236000Y540800D02*X236750Y540050D01*
X233750Y540800D02*X236000D01*
X233750Y543500D02*Y537500D01*
X233000Y543500D02*X236000D01*
X236750Y542750D01*
Y541550D01*
X236000Y540800D02*X236750Y541550D01*
X239300Y539750D02*Y537500D01*
Y539750D02*X240050Y540500D01*
X241550D01*
X238550D02*X239300Y539750D01*
G54D233*X243350Y542000D02*Y541850D01*
G54D232*Y539750D02*Y537500D01*
X247100Y540500D02*X247850Y539750D01*
X245600Y540500D02*X247100D01*
X244850Y539750D02*X245600Y540500D01*
X244850Y539750D02*Y538250D01*
X245600Y537500D01*
X247850Y540500D02*Y538250D01*
X248600Y537500D01*
X245600D02*X247100D01*
X247850Y538250D01*
X251150Y539750D02*Y537500D01*
Y539750D02*X251900Y540500D01*
X252650D01*
X253400Y539750D01*
Y537500D01*
X250400Y540500D02*X251150Y539750D01*
X260900Y543500D02*X261650Y542750D01*
X258650Y543500D02*X260900D01*
X257900Y542750D02*X258650Y543500D01*
X257900Y542750D02*Y541250D01*
X258650Y540500D01*
X260900D01*
X261650Y539750D01*
Y538250D01*
X260900Y537500D02*X261650Y538250D01*
X258650Y537500D02*X260900D01*
X257900Y538250D02*X258650Y537500D01*
G54D233*X263450Y542000D02*Y541850D01*
G54D232*Y539750D02*Y537500D01*
X264950Y543500D02*Y538250D01*
X265700Y537500D01*
X267200Y540500D02*X268700Y537500D01*
X270200Y540500D02*X268700Y537500D01*
X272750D02*X275000D01*
X272000Y538250D02*X272750Y537500D01*
X272000Y539750D02*Y538250D01*
Y539750D02*X272750Y540500D01*
X274250D01*
X275000Y539750D01*
X272000Y539000D02*X275000D01*
Y539750D02*Y539000D01*
X277550Y539750D02*Y537500D01*
Y539750D02*X278300Y540500D01*
X279800D01*
X276800D02*X277550Y539750D01*
X282350D02*Y537500D01*
Y539750D02*X283100Y540500D01*
X283850D01*
X284600Y539750D01*
Y537500D01*
Y539750D02*X285350Y540500D01*
X286100D01*
X286850Y539750D01*
Y537500D01*
X281600Y540500D02*X282350Y539750D01*
X290900Y540500D02*X291650Y539750D01*
X289400Y540500D02*X290900D01*
X288650Y539750D02*X289400Y540500D01*
X288650Y539750D02*Y538250D01*
X289400Y537500D01*
X291650Y540500D02*Y538250D01*
X292400Y537500D01*
X289400D02*X290900D01*
X291650Y538250D01*
X294950Y539750D02*Y537500D01*
Y539750D02*X295700Y540500D01*
X296450D01*
X297200Y539750D01*
Y537500D01*
X294200Y540500D02*X294950Y539750D01*
X200000Y558500D02*X203000D01*
X201500D02*Y552500D01*
G54D233*X204800Y557000D02*Y556850D01*
G54D232*Y554750D02*Y552500D01*
X207050Y558500D02*Y553250D01*
X207800Y552500D01*
X206300Y556250D02*X207800D01*
X209300Y558500D02*Y553250D01*
X210050Y552500D01*
X212300D02*X214550D01*
X211550Y553250D02*X212300Y552500D01*
X211550Y554750D02*Y553250D01*
Y554750D02*X212300Y555500D01*
X213800D01*
X214550Y554750D01*
X211550Y554000D02*X214550D01*
Y554750D02*Y554000D01*
X216350Y556250D02*X217100D01*
X216350Y554750D02*X217100D01*
X222350Y557750D02*Y552500D01*
Y557750D02*X223100Y558500D01*
X223850D01*
X221600Y555500D02*X223100D01*
X226100Y552500D02*X228350D01*
X225350Y553250D02*X226100Y552500D01*
X225350Y554750D02*Y553250D01*
Y554750D02*X226100Y555500D01*
X227600D01*
X228350Y554750D01*
X225350Y554000D02*X228350D01*
Y554750D02*Y554000D01*
X230900Y558500D02*Y553250D01*
X231650Y552500D01*
X230150Y556250D02*X231650D01*
X233150Y557300D02*X234350Y558500D01*
Y552500D01*
X233150D02*X235400D01*
X237200Y557750D02*X237950Y558500D01*
X240200D01*
X240950Y557750D01*
Y556250D01*
X237200Y552500D02*X240950Y556250D01*
X237200Y552500D02*X240950D01*
X245450Y555500D02*X248450D01*
X252950Y558500D02*Y552500D01*
Y558500D02*X255950D01*
X252950Y555800D02*X255200D01*
X260000Y555500D02*X260750Y554750D01*
X258500Y555500D02*X260000D01*
X257750Y554750D02*X258500Y555500D01*
X257750Y554750D02*Y553250D01*
X258500Y552500D01*
X260750Y555500D02*Y553250D01*
X261500Y552500D01*
X258500D02*X260000D01*
X260750Y553250D01*
X263300Y558500D02*Y552500D01*
Y553250D02*X264050Y552500D01*
X265550D01*
X266300Y553250D01*
Y554750D02*Y553250D01*
X265550Y555500D02*X266300Y554750D01*
X264050Y555500D02*X265550D01*
X263300Y554750D02*X264050Y555500D01*
X268850Y554750D02*Y552500D01*
Y554750D02*X269600Y555500D01*
X271100D01*
X268100D02*X268850Y554750D01*
G54D233*X272900Y557000D02*Y556850D01*
G54D232*Y554750D02*Y552500D01*
X275150Y555500D02*X277400D01*
X274400Y554750D02*X275150Y555500D01*
X274400Y554750D02*Y553250D01*
X275150Y552500D01*
X277400D01*
X281450Y555500D02*X282200Y554750D01*
X279950Y555500D02*X281450D01*
X279200Y554750D02*X279950Y555500D01*
X279200Y554750D02*Y553250D01*
X279950Y552500D01*
X282200Y555500D02*Y553250D01*
X282950Y552500D01*
X279950D02*X281450D01*
X282200Y553250D01*
X285500Y558500D02*Y553250D01*
X286250Y552500D01*
X284750Y556250D02*X286250D01*
G54D233*X287750Y557000D02*Y556850D01*
G54D232*Y554750D02*Y552500D01*
X289250Y554750D02*Y553250D01*
Y554750D02*X290000Y555500D01*
X291500D01*
X292250Y554750D01*
Y553250D01*
X291500Y552500D02*X292250Y553250D01*
X290000Y552500D02*X291500D01*
X289250Y553250D02*X290000Y552500D01*
X294800Y554750D02*Y552500D01*
Y554750D02*X295550Y555500D01*
X296300D01*
X297050Y554750D01*
Y552500D01*
X294050Y555500D02*X294800Y554750D01*
X302300Y558500D02*Y552500D01*
X304250Y558500D02*X305300Y557450D01*
Y553550D01*
X304250Y552500D02*X305300Y553550D01*
X301550Y552500D02*X304250D01*
X301550Y558500D02*X304250D01*
X307850Y554750D02*Y552500D01*
Y554750D02*X308600Y555500D01*
X310100D01*
X307100D02*X307850Y554750D01*
X314150Y555500D02*X314900Y554750D01*
X312650Y555500D02*X314150D01*
X311900Y554750D02*X312650Y555500D01*
X311900Y554750D02*Y553250D01*
X312650Y552500D01*
X314900Y555500D02*Y553250D01*
X315650Y552500D01*
X312650D02*X314150D01*
X314900Y553250D01*
X317450Y555500D02*Y553250D01*
X318200Y552500D01*
X318950D01*
X319700Y553250D01*
Y555500D02*Y553250D01*
X320450Y552500D01*
X321200D01*
X321950Y553250D01*
Y555500D02*Y553250D01*
G54D233*X323750Y557000D02*Y556850D01*
G54D232*Y554750D02*Y552500D01*
X326000Y554750D02*Y552500D01*
Y554750D02*X326750Y555500D01*
X327500D01*
X328250Y554750D01*
Y552500D01*
X325250Y555500D02*X326000Y554750D01*
X332300Y555500D02*X333050Y554750D01*
X330800Y555500D02*X332300D01*
X330050Y554750D02*X330800Y555500D01*
X330050Y554750D02*Y553250D01*
X330800Y552500D01*
X332300D01*
X333050Y553250D01*
X330050Y551000D02*X330800Y550250D01*
X332300D01*
X333050Y551000D01*
Y555500D02*Y551000D01*
M02*
