G04 start of page 9 for group -4062 idx -4062 *
G04 Title: fet12, soldermask *
G04 Creator: pcb 20140316 *
G04 CreationDate: Thu 12 Apr 2018 01:23:09 AM GMT UTC *
G04 For: brian *
G04 Format: Gerber/RS-274X *
G04 PCB-Dimensions (mil): 6000.00 5000.00 *
G04 PCB-Coordinate-Origin: lower left *
%MOIN*%
%FSLAX25Y25*%
%LNBOTTOMMASK*%
%ADD186R,0.2760X0.2760*%
%ADD185C,0.0001*%
%ADD184R,0.1024X0.1024*%
%ADD183C,0.0209*%
%ADD182R,0.0257X0.0257*%
%ADD181R,0.3760X0.3760*%
%ADD180R,0.0728X0.0728*%
%ADD179R,0.0300X0.0300*%
%ADD178R,0.0240X0.0240*%
%ADD177R,0.0295X0.0295*%
%ADD176R,0.0354X0.0354*%
%ADD175R,0.0572X0.0572*%
%ADD174R,0.1457X0.1457*%
%ADD173R,0.1142X0.1142*%
%ADD172R,0.0551X0.0551*%
%ADD171R,0.0276X0.0276*%
%ADD170R,0.0315X0.0315*%
%ADD169R,0.0100X0.0100*%
%ADD168R,0.0355X0.0355*%
%ADD167C,0.0394*%
%ADD166R,0.1074X0.1074*%
%ADD165C,0.1930*%
%ADD164C,0.2540*%
%ADD163C,0.0010*%
G54D163*X228095Y175173D03*
Y170449D03*
Y165724D03*
X232819Y175173D03*
Y170449D03*
Y165724D03*
X237544Y175173D03*
Y170449D03*
Y165724D03*
X242268Y175173D03*
Y170449D03*
Y165724D03*
Y161000D03*
X246992D03*
X242268Y156276D03*
X246992D03*
Y175173D03*
Y170449D03*
Y165724D03*
X228095Y161000D03*
X232819D03*
X237544D03*
X228095Y156276D03*
X232819D03*
X237544D03*
X228095Y151551D03*
X232819D03*
X237544D03*
X228095Y146827D03*
X232819D03*
X237544D03*
X242268Y151551D03*
X246992D03*
X242268Y146827D03*
X246992D03*
X228095Y208327D03*
Y213051D03*
Y217776D03*
Y222500D03*
X232819Y208327D03*
X237544D03*
X242268D03*
G54D164*X201000Y192000D03*
G54D163*X232819Y213051D03*
Y217776D03*
Y222500D03*
X237544Y213051D03*
Y217776D03*
Y222500D03*
X242268Y213051D03*
Y217776D03*
Y222500D03*
X246992Y208327D03*
Y213051D03*
Y217776D03*
Y222500D03*
X228095Y227224D03*
X232819D03*
X237544D03*
X228095Y231949D03*
X232819D03*
X237544D03*
X228095Y236673D03*
X232819D03*
X237544D03*
X242268Y227224D03*
X246992D03*
X242268Y231949D03*
X246992D03*
X242268Y236673D03*
X246992D03*
X300595Y208327D03*
Y213051D03*
Y217776D03*
Y222500D03*
Y227224D03*
Y231949D03*
X305319Y213051D03*
X310044D03*
X314768D03*
X319492D03*
Y217776D03*
Y222500D03*
Y227224D03*
Y231949D03*
Y236673D03*
X300595D03*
X305319D03*
X310044D03*
X305319Y217776D03*
X310044D03*
Y222500D03*
Y227224D03*
Y231949D03*
X305319Y222500D03*
Y227224D03*
Y231949D03*
X314768Y217776D03*
Y222500D03*
Y227224D03*
Y231949D03*
Y236673D03*
G54D165*X285000Y222500D03*
G54D163*X300595Y175173D03*
X305319D03*
X310044D03*
X314768D03*
X300595Y170449D03*
X305319D03*
X310044D03*
X314768D03*
X300595Y165724D03*
X305319D03*
X310044D03*
X314768D03*
X319492Y175173D03*
Y170449D03*
Y165724D03*
X300595Y161000D03*
X305319D03*
X310044D03*
X314768D03*
G54D165*X285000D03*
G54D163*X300595Y156276D03*
X305319D03*
X310044D03*
X314768D03*
X300595Y151551D03*
Y146827D03*
X305319Y151551D03*
Y146827D03*
X310044Y151551D03*
Y146827D03*
X314768Y151551D03*
Y146827D03*
X319492Y161000D03*
Y156276D03*
Y151551D03*
Y146827D03*
X305319Y208327D03*
X310044D03*
X314768D03*
X319492D03*
X317500Y192500D03*
X320453Y195453D03*
Y189547D03*
X314547Y195453D03*
Y189547D03*
X291500Y191500D03*
X294453Y188547D03*
Y194453D03*
X288547D03*
Y188547D03*
G54D164*X369500Y192000D03*
G54D163*X228095Y50776D03*
X232819D03*
X237544D03*
X228095Y46051D03*
X232819D03*
X237544D03*
X228095Y41327D03*
X232819D03*
X237544D03*
X242268Y50776D03*
X246992D03*
X242268Y46051D03*
X246992D03*
X242268Y41327D03*
X246992D03*
X228095Y69673D03*
Y64949D03*
Y60224D03*
Y55500D03*
X232819Y69673D03*
X237544D03*
X242268D03*
G54D164*X201000Y86500D03*
G54D163*X232819Y64949D03*
Y60224D03*
Y55500D03*
X237544Y64949D03*
Y60224D03*
Y55500D03*
X242268Y64949D03*
Y60224D03*
Y55500D03*
X246992Y69673D03*
Y64949D03*
Y60224D03*
Y55500D03*
X228095Y102827D03*
Y107551D03*
Y112276D03*
X232819Y102827D03*
Y107551D03*
Y112276D03*
X237544Y102827D03*
Y107551D03*
Y112276D03*
X242268Y102827D03*
Y107551D03*
Y112276D03*
Y117000D03*
X246992D03*
X242268Y121724D03*
X246992D03*
Y102827D03*
Y107551D03*
Y112276D03*
X228095Y117000D03*
X232819D03*
X237544D03*
X228095Y121724D03*
X232819D03*
X237544D03*
X228095Y126449D03*
X232819D03*
X237544D03*
X228095Y131173D03*
X232819D03*
X237544D03*
X242268Y126449D03*
X246992D03*
X242268Y131173D03*
X246992D03*
X300595Y102827D03*
Y107551D03*
Y112276D03*
G54D165*X285000Y117000D03*
G54D163*X305319Y102827D03*
Y107551D03*
Y112276D03*
X310044Y102827D03*
Y107551D03*
Y112276D03*
X314768Y102827D03*
Y107551D03*
Y112276D03*
Y117000D03*
X319492D03*
X314768Y121724D03*
X319492D03*
Y102827D03*
Y107551D03*
Y112276D03*
X300595Y117000D03*
X305319D03*
X310044D03*
X300595Y121724D03*
X305319D03*
X310044D03*
X300595Y126449D03*
X305319D03*
X310044D03*
X300595Y131173D03*
X305319D03*
X310044D03*
X314768Y126449D03*
X319492D03*
X314768Y131173D03*
X319492D03*
X300595Y50776D03*
X305319D03*
X310044D03*
X300595Y46051D03*
X305319D03*
X310044D03*
X300595Y41327D03*
X305319D03*
X310044D03*
X314768Y50776D03*
X319492D03*
X314768Y46051D03*
X319492D03*
X314768Y41327D03*
X319492D03*
X300595Y69673D03*
Y64949D03*
Y60224D03*
Y55500D03*
X305319Y69673D03*
X310044D03*
X314768D03*
X305319Y64949D03*
Y60224D03*
Y55500D03*
G54D165*X285000D03*
G54D163*X310044Y64949D03*
Y60224D03*
Y55500D03*
X314768Y64949D03*
Y60224D03*
Y55500D03*
X319492Y69673D03*
Y64949D03*
Y60224D03*
Y55500D03*
X317500Y87000D03*
X320453Y89953D03*
Y84047D03*
X314547Y89953D03*
Y84047D03*
G54D164*X369500Y86500D03*
G54D163*X291500Y86000D03*
X294453Y83047D03*
Y88953D03*
X288547Y83047D03*
Y88953D03*
X228095Y436724D03*
X232819D03*
X237544D03*
X228095Y441449D03*
X232819D03*
X237544D03*
X228095Y446173D03*
X232819D03*
X237544D03*
X242268Y436724D03*
X246992D03*
X242268Y441449D03*
X246992D03*
X242268Y446173D03*
X246992D03*
X300595Y417827D03*
Y422551D03*
Y427276D03*
Y432000D03*
Y436724D03*
Y441449D03*
X305319Y422551D03*
X310044D03*
X314768D03*
X319492D03*
Y427276D03*
Y432000D03*
Y436724D03*
Y441449D03*
Y446173D03*
X300595D03*
X305319D03*
X310044D03*
X305319Y427276D03*
X310044D03*
Y432000D03*
Y436724D03*
Y441449D03*
X305319Y432000D03*
Y436724D03*
Y441449D03*
X314768Y427276D03*
Y432000D03*
Y436724D03*
Y441449D03*
Y446173D03*
G54D165*X285000Y432000D03*
G54D163*X228095Y384673D03*
Y379949D03*
Y375224D03*
X232819Y384673D03*
X237544D03*
X242268D03*
X232819Y379949D03*
X237544D03*
X242268D03*
X246992Y384673D03*
Y379949D03*
Y375224D03*
Y370500D03*
Y365776D03*
X228095Y370500D03*
Y365776D03*
Y361051D03*
Y356327D03*
X232819Y375224D03*
X237544D03*
Y370500D03*
Y365776D03*
Y361051D03*
Y356327D03*
X232819Y370500D03*
Y365776D03*
Y361051D03*
Y356327D03*
X242268Y375224D03*
Y370500D03*
Y365776D03*
Y361051D03*
Y356327D03*
X246992D03*
Y361051D03*
X228095Y417827D03*
Y422551D03*
Y427276D03*
Y432000D03*
X232819Y417827D03*
X237544D03*
X242268D03*
G54D164*X201000Y401500D03*
G54D163*X232819Y422551D03*
Y427276D03*
Y432000D03*
X237544Y422551D03*
Y427276D03*
Y432000D03*
X242268Y422551D03*
Y427276D03*
Y432000D03*
X246992Y417827D03*
Y422551D03*
Y427276D03*
Y432000D03*
X300595Y384673D03*
X305319D03*
X310044D03*
X314768D03*
X300595Y379949D03*
X305319D03*
X310044D03*
X314768D03*
X300595Y375224D03*
X305319D03*
X310044D03*
X314768D03*
X319492Y384673D03*
Y379949D03*
Y375224D03*
X300595Y370500D03*
X305319D03*
X310044D03*
X314768D03*
G54D165*X285000D03*
G54D163*X300595Y365776D03*
X305319D03*
X310044D03*
X314768D03*
X300595Y361051D03*
Y356327D03*
X305319Y361051D03*
Y356327D03*
X310044Y361051D03*
Y356327D03*
X314768Y361051D03*
Y356327D03*
X319492Y370500D03*
Y365776D03*
Y361051D03*
Y356327D03*
X305319Y417827D03*
X310044D03*
X314768D03*
X319492D03*
X317500Y402000D03*
X320453Y404953D03*
Y399047D03*
X314547Y404953D03*
Y399047D03*
X291500Y401000D03*
X294453Y398047D03*
Y403953D03*
X288547D03*
Y398047D03*
G54D164*X369500Y401500D03*
G54D166*X200500Y306575D02*Y300669D01*
G54D167*X225732Y372862D03*
Y368138D03*
Y363413D03*
Y358689D03*
Y353965D03*
G54D166*X200500Y373575D02*Y367669D01*
Y326331D02*Y320425D01*
X230425Y326000D02*X236331D01*
G54D168*X243008Y284441D02*X243992D01*
X243008Y289559D02*X243992D01*
X251508D02*X252492D01*
X251508Y284441D02*X252492D01*
X237508D02*X238492D01*
X237508Y289559D02*X238492D01*
G54D167*X249354Y372862D03*
Y368138D03*
Y363413D03*
Y358689D03*
Y353965D03*
X244630Y372862D03*
X239906D03*
X244630Y368138D03*
X239906D03*
X244630Y363413D03*
X239906D03*
Y358689D03*
X244630D03*
Y353965D03*
G54D169*X265417Y387748D02*X273291D01*
G54D170*X265417Y387035D02*X273291D01*
G54D171*X265614D02*X273094D01*
G54D169*X265417Y381598D02*X273291D01*
G54D170*X265417Y382311D02*X273291D01*
G54D171*X265614D02*X273094D01*
G54D170*X265417Y377587D02*X273291D01*
G54D171*X265614D02*X273094D01*
G54D170*X265417Y372862D02*X273291D01*
G54D171*X265614D02*X273094D01*
G54D170*X265417Y381598D02*Y353965D01*
Y368138D02*X273291D01*
G54D171*X265614D02*X273094D01*
G54D170*X265417Y363413D02*X273291D01*
G54D171*X265614D02*X273094D01*
G54D170*X265417Y358689D02*X273291D01*
G54D171*X265614D02*X273094D01*
G54D170*X265417Y353965D02*X273291D01*
G54D171*X265614D02*X273094D01*
G54D172*X225260Y387626D02*Y353374D01*
G54D167*X225732Y387035D03*
Y382311D03*
Y377587D03*
G54D173*X233724Y381917D02*Y359083D01*
G54D167*X235181Y372862D03*
Y368138D03*
X230457Y372862D03*
Y368138D03*
X235181Y363413D03*
Y358689D03*
Y382311D03*
Y377587D03*
X230457Y382311D03*
Y377587D03*
Y363413D03*
Y358689D03*
G54D174*X246717Y382311D02*Y358689D01*
G54D167*X244630Y377587D03*
X239906Y382311D03*
Y377587D03*
X249354Y387035D03*
Y382311D03*
Y377587D03*
X244630Y387035D03*
Y382311D03*
G54D175*X239595Y404255D02*Y398745D01*
X251405Y404255D02*Y398745D01*
G54D168*X256941Y400992D02*Y400008D01*
G54D176*X257335Y405500D02*X258319D01*
X257335D02*X258319D01*
G54D177*X261961Y405795D02*Y405205D01*
Y405795D02*Y405205D01*
G54D178*X256478Y394000D02*X257687D01*
X264313D02*X265522D01*
G54D168*X262059Y400992D02*Y400008D01*
X184008Y440059D02*X184992D01*
G54D179*X190000Y452000D02*Y445500D01*
X195000Y452000D02*Y445500D01*
G54D168*X184008Y434941D02*X184992D01*
X210008Y451559D02*X210992D01*
X210008Y446441D02*X210992D01*
X210008Y441559D02*X210992D01*
G54D179*X205000Y452000D02*Y445500D01*
G54D168*X210008Y436441D02*X210992D01*
X210008Y424441D02*X210992D01*
X210008Y429559D02*X210992D01*
G54D179*X205000Y431500D02*Y425000D01*
X200000Y431500D02*Y425000D01*
Y452000D02*Y445500D01*
X195000Y431500D02*Y425000D01*
X190000Y431500D02*Y425000D01*
G54D166*X200500Y259331D02*Y253425D01*
G54D180*X206890Y230500D02*X214370D01*
X185630D02*X193110D01*
G54D181*X236000Y224500D02*X237000D01*
G54D175*X239595Y194755D02*Y189245D01*
X251405Y194755D02*Y189245D01*
G54D178*X256478Y184500D02*X257687D01*
G54D168*X256941Y191492D02*Y190508D01*
G54D178*X264313Y184500D02*X265522D01*
G54D168*X262059Y191492D02*Y190508D01*
G54D176*X257335Y196000D02*X258319D01*
X257335D02*X258319D01*
G54D177*X261961Y196295D02*Y195705D01*
Y196295D02*Y195705D01*
G54D169*X265417Y178248D02*X273291D01*
G54D170*X265417Y177535D02*X273291D01*
G54D171*X265614D02*X273094D01*
G54D169*X265417Y172098D02*X273291D01*
G54D170*X265417Y172811D02*X273291D01*
G54D171*X265614D02*X273094D01*
G54D170*X265417Y168087D02*X273291D01*
G54D171*X265614D02*X273094D01*
G54D170*X265417Y163362D02*X273291D01*
G54D171*X265614D02*X273094D01*
G54D170*X265417Y158638D02*X273291D01*
G54D171*X265614D02*X273094D01*
G54D170*X265417Y153913D02*X273291D01*
G54D171*X265614D02*X273094D01*
G54D170*X265417Y149189D02*X273291D01*
G54D171*X265614D02*X273094D01*
G54D170*X265417Y144465D02*X273291D01*
G54D171*X265614D02*X273094D01*
G54D170*X265417Y172098D02*Y144465D01*
G54D172*X225260Y178126D02*Y143874D01*
G54D167*X225732Y177535D03*
Y172811D03*
Y168087D03*
Y163362D03*
G54D173*X233724Y172417D02*Y149583D01*
G54D167*X235181Y163362D03*
Y158638D03*
X230457Y163362D03*
Y158638D03*
X235181Y172811D03*
Y168087D03*
X230457Y172811D03*
Y168087D03*
X225732Y158638D03*
Y153913D03*
G54D174*X246717Y172811D02*Y149189D01*
G54D167*X249354Y163362D03*
X244630D03*
X239906Y158638D03*
Y153913D03*
Y149189D03*
X249354Y177535D03*
Y172811D03*
Y168087D03*
X244630Y177535D03*
Y172811D03*
Y168087D03*
X239906Y172811D03*
X249354Y158638D03*
Y153913D03*
Y149189D03*
Y144465D03*
X244630Y153913D03*
Y149189D03*
Y158638D03*
Y144465D03*
X239906Y168087D03*
Y163362D03*
X235181Y153913D03*
Y149189D03*
X230457Y153913D03*
Y149189D03*
X225732D03*
Y144465D03*
G54D168*X269008Y190059D02*X269992D01*
X270941Y195492D02*Y194508D01*
X269008Y184941D02*X269992D01*
X276059Y195492D02*Y194508D01*
G54D182*X280074Y187893D02*Y187107D01*
X276926Y187893D02*Y187107D01*
X283926Y202893D02*Y202107D01*
X287074Y202893D02*Y202107D01*
G54D183*X282740Y197799D02*X284709D01*
X282740Y194650D02*X284709D01*
X282740Y191500D02*X284709D01*
X282740Y188350D02*X284709D01*
X282740Y185201D02*X284709D01*
G54D168*X269008Y399559D02*X269992D01*
X269008Y394441D02*X269992D01*
X270941Y404992D02*Y404008D01*
X276059Y404992D02*Y404008D01*
G54D182*X280074Y397393D02*Y396607D01*
X276926Y397393D02*Y396607D01*
X283926Y412393D02*Y411607D01*
X287074Y412393D02*Y411607D01*
G54D183*X282740Y407299D02*X284709D01*
X282740Y404150D02*X284709D01*
X282740Y401000D02*X284709D01*
X282740Y397850D02*X284709D01*
X282740Y394701D02*X284709D01*
G54D168*X294441Y413492D02*Y412508D01*
X299559Y413492D02*Y412508D01*
G54D167*X317130Y387035D03*
X298232D03*
G54D184*X291500Y401965D02*Y400035D01*
G54D185*G36*
X292091Y400409D02*Y395882D01*
X296618D01*
Y400409D01*
X292091D01*
G37*
G36*
X286382D02*Y395882D01*
X290909D01*
Y400409D01*
X286382D01*
G37*
G36*
Y406118D02*Y401591D01*
X290909D01*
Y406118D01*
X286382D01*
G37*
G36*
X292091D02*Y401591D01*
X296618D01*
Y406118D01*
X292091D01*
G37*
G54D183*X298291Y407299D02*X300260D01*
X298291Y404150D02*X300260D01*
X298291Y401000D02*X300260D01*
X298291Y397850D02*X300260D01*
X298291Y394701D02*X300260D01*
G54D168*X318441Y412492D02*Y411508D01*
X314059Y412492D02*Y411508D01*
X308941Y412492D02*Y411508D01*
G54D181*X235500Y434000D02*X236500D01*
X276000Y435000D02*X309000D01*
G54D175*X338957Y411893D02*Y411107D01*
X346043Y411893D02*Y411107D01*
G54D186*X342500Y440000D02*Y430000D01*
G54D168*X323559Y412492D02*Y411508D01*
G54D180*X377390Y439500D02*X384870D01*
X356130D02*X363610D01*
G54D166*X295500Y304575D02*Y298669D01*
G54D172*X297760Y387626D02*Y353374D01*
G54D173*X306224Y381917D02*Y359083D01*
G54D174*X319217Y382311D02*Y358689D01*
G54D168*X335059Y286492D02*Y285508D01*
X334008Y296059D02*X334992D01*
X334008Y290941D02*X334992D01*
X320441Y286492D02*Y285508D01*
G54D175*X322607Y295957D02*X323393D01*
G54D168*X325559Y286492D02*Y285508D01*
X329941Y286492D02*Y285508D01*
G54D175*X322607Y303043D02*X323393D01*
G54D168*X332441Y341492D02*Y340508D01*
X337559Y341492D02*Y340508D01*
X336508Y333559D02*X337492D01*
X336508Y328441D02*X337492D01*
G54D166*X277669Y326000D02*X283575D01*
G54D169*X337917Y387748D02*X345791D01*
G54D170*X337917Y387035D02*X345791D01*
G54D171*X338114D02*X345594D01*
G54D169*X337917Y381598D02*X345791D01*
G54D170*X337917Y382311D02*X345791D01*
G54D171*X338114D02*X345594D01*
G54D170*X337917Y377587D02*X345791D01*
G54D171*X338114D02*X345594D01*
G54D170*X337917Y372862D02*X345791D01*
G54D171*X338114D02*X345594D01*
G54D170*X337917Y368138D02*X345791D01*
G54D171*X338114D02*X345594D01*
G54D170*X337917Y358689D02*X345791D01*
G54D171*X338114D02*X345594D01*
G54D170*X337917Y353965D02*X345791D01*
G54D171*X338114D02*X345594D01*
G54D170*X337917Y363413D02*X345791D01*
G54D171*X338114D02*X345594D01*
G54D170*X337917Y381598D02*Y353965D01*
G54D166*X370000Y328331D02*Y322425D01*
X361500Y310075D02*Y304169D01*
Y262831D02*Y256925D01*
X370000Y375575D02*Y369669D01*
G54D167*X321854Y387035D03*
Y382311D03*
X317130D03*
Y377587D03*
X321854D03*
Y372862D03*
Y368138D03*
Y363413D03*
Y358689D03*
Y353965D03*
X317130Y372862D03*
Y368138D03*
Y363413D03*
Y358689D03*
Y353965D03*
G54D176*X342835Y400500D02*X343819D01*
X342835D02*X343819D01*
G54D168*X337008Y400441D02*X337992D01*
G54D178*X336813Y394500D02*X338022D01*
G54D177*X347461Y400795D02*Y400205D01*
Y400795D02*Y400205D01*
G54D168*X347059Y394992D02*Y394008D01*
X341941Y394992D02*Y394008D01*
G54D178*X328978Y394500D02*X330187D01*
G54D168*X337008Y405559D02*X337992D01*
G54D167*X312406Y382311D03*
Y377587D03*
Y372862D03*
Y368138D03*
Y363413D03*
Y358689D03*
X307681Y382311D03*
Y377587D03*
X302957Y382311D03*
Y377587D03*
X298232Y382311D03*
Y377587D03*
X307681Y363413D03*
Y358689D03*
Y372862D03*
Y368138D03*
X302957Y372862D03*
Y368138D03*
X298232Y372862D03*
Y368138D03*
X302957Y363413D03*
X298232D03*
X302957Y358689D03*
X298232D03*
Y353965D03*
G54D166*X295500Y257331D02*Y251425D01*
G54D168*X294441Y203992D02*Y203008D01*
X299559Y203992D02*Y203008D01*
G54D183*X298291Y197799D02*X300260D01*
X298291Y194650D02*X300260D01*
X298291Y191500D02*X300260D01*
X298291Y188350D02*X300260D01*
X298291Y185201D02*X300260D01*
G54D184*X291500Y192465D02*Y190535D01*
G54D185*G36*
X292091Y190909D02*Y186382D01*
X296618D01*
Y190909D01*
X292091D01*
G37*
G36*
Y196618D02*Y192091D01*
X296618D01*
Y196618D01*
X292091D01*
G37*
G36*
X286382Y190909D02*Y186382D01*
X290909D01*
Y190909D01*
X286382D01*
G37*
G36*
Y196618D02*Y192091D01*
X290909D01*
Y196618D01*
X286382D01*
G37*
G54D181*X276000Y225500D02*X309000D01*
G54D168*X314059Y202992D02*Y202008D01*
X308941Y202992D02*Y202008D01*
G54D175*X338957Y202393D02*Y201607D01*
X346043Y202393D02*Y201607D01*
G54D168*X318441Y202992D02*Y202008D01*
X323559Y202992D02*Y202008D01*
G54D176*X342835Y191000D02*X343819D01*
X342835D02*X343819D01*
G54D168*X337008Y196059D02*X337992D01*
X337008Y190941D02*X337992D01*
G54D177*X347461Y191295D02*Y190705D01*
Y191295D02*Y190705D01*
G54D178*X328978Y185000D02*X330187D01*
X336813D02*X338022D01*
G54D168*X347059Y185492D02*Y184508D01*
X341941Y185492D02*Y184508D01*
G54D186*X342500Y230500D02*Y220500D01*
G54D168*X385508Y234059D02*X386492D01*
X385508Y228941D02*X386492D01*
X385508Y243559D02*X386492D01*
X385508Y238441D02*X386492D01*
X377059Y212492D02*Y211508D01*
X371941Y212492D02*Y211508D01*
X385508Y221059D02*X386492D01*
X385508Y215941D02*X386492D01*
G54D179*X380500Y224000D02*Y217500D01*
Y244500D02*Y238000D01*
X375500Y224000D02*Y217500D01*
Y244500D02*Y238000D01*
X370500Y224000D02*Y217500D01*
Y244500D02*Y238000D01*
X365500Y224000D02*Y217500D01*
Y244500D02*Y238000D01*
G54D166*X200500Y166075D02*Y160169D01*
Y118831D02*Y112925D01*
G54D181*X235500Y119000D02*X236500D01*
G54D175*X239595Y89255D02*Y83745D01*
X251405Y89255D02*Y83745D01*
G54D168*X256941Y85992D02*Y85008D01*
G54D176*X257335Y90500D02*X258319D01*
X257335D02*X258319D01*
G54D177*X261961Y90795D02*Y90205D01*
Y90795D02*Y90205D01*
G54D178*X264313Y79000D02*X265522D01*
G54D168*X262059Y85992D02*Y85008D01*
G54D178*X256478Y79000D02*X257687D01*
G54D172*X225260Y72626D02*Y38374D01*
G54D167*X225732Y72035D03*
Y67311D03*
Y62587D03*
Y57862D03*
G54D173*X233724Y66917D02*Y44083D01*
G54D167*X235181Y57862D03*
Y53138D03*
X230457Y57862D03*
Y53138D03*
X235181Y67311D03*
Y62587D03*
X230457Y67311D03*
Y62587D03*
X225732Y53138D03*
Y48413D03*
G54D174*X246717Y67311D02*Y43689D01*
G54D167*X249354Y57862D03*
X244630D03*
X239906Y53138D03*
Y48413D03*
Y43689D03*
X249354Y72035D03*
Y67311D03*
Y62587D03*
X244630Y72035D03*
Y67311D03*
Y62587D03*
X239906Y67311D03*
X249354Y53138D03*
Y48413D03*
Y43689D03*
Y38965D03*
X244630Y48413D03*
Y43689D03*
Y53138D03*
Y38965D03*
X239906Y62587D03*
Y57862D03*
X235181Y48413D03*
Y43689D03*
X230457Y48413D03*
Y43689D03*
X225732D03*
Y38965D03*
G54D180*X206890Y48000D02*X214370D01*
X185630D02*X193110D01*
G54D168*X269008Y84559D02*X269992D01*
X270941Y89992D02*Y89008D01*
X269008Y79441D02*X269992D01*
G54D169*X265417Y72748D02*X273291D01*
G54D170*X265417Y72035D02*X273291D01*
G54D171*X265614D02*X273094D01*
G54D169*X265417Y66598D02*X273291D01*
G54D170*X265417Y67311D02*X273291D01*
G54D171*X265614D02*X273094D01*
G54D170*X265417Y62587D02*X273291D01*
G54D171*X265614D02*X273094D01*
G54D170*X265417Y57862D02*X273291D01*
G54D171*X265614D02*X273094D01*
G54D170*X265417Y53138D02*X273291D01*
G54D171*X265614D02*X273094D01*
G54D170*X265417Y48413D02*X273291D01*
G54D171*X265614D02*X273094D01*
G54D170*X265417Y43689D02*X273291D01*
G54D171*X265614D02*X273094D01*
G54D170*X265417Y38965D02*X273291D01*
G54D171*X265614D02*X273094D01*
G54D170*X265417Y66598D02*Y38965D01*
G54D168*X276059Y89992D02*Y89008D01*
G54D182*X280074Y82393D02*Y81607D01*
X276926Y82393D02*Y81607D01*
X283926Y97393D02*Y96607D01*
X287074Y97393D02*Y96607D01*
G54D184*X291500Y86965D02*Y85035D01*
G54D185*G36*
X292091Y85409D02*Y80882D01*
X296618D01*
Y85409D01*
X292091D01*
G37*
G36*
Y91118D02*Y86591D01*
X296618D01*
Y91118D01*
X292091D01*
G37*
G36*
X286382Y85409D02*Y80882D01*
X290909D01*
Y85409D01*
X286382D01*
G37*
G36*
Y91118D02*Y86591D01*
X290909D01*
Y91118D01*
X286382D01*
G37*
G54D183*X282740Y92299D02*X284709D01*
X282740Y89150D02*X284709D01*
X282740Y86000D02*X284709D01*
X282740Y82850D02*X284709D01*
X282740Y79701D02*X284709D01*
X298291Y92299D02*X300260D01*
X298291Y89150D02*X300260D01*
X298291Y86000D02*X300260D01*
X298291Y82850D02*X300260D01*
X298291Y79701D02*X300260D01*
G54D168*X318441Y97492D02*Y96508D01*
X323559Y97492D02*Y96508D01*
X314059Y97492D02*Y96508D01*
X308941Y97492D02*Y96508D01*
G54D181*X276000Y120000D02*X309000D01*
G54D172*X297760Y72626D02*Y38374D01*
G54D173*X306224Y66917D02*Y44083D01*
G54D174*X319217Y67311D02*Y43689D01*
G54D167*X298232D03*
Y38965D03*
G54D166*X370000Y166075D02*Y160169D01*
Y118831D02*Y112925D01*
G54D169*X337917Y178248D02*X345791D01*
G54D170*X337917Y177535D02*X345791D01*
G54D171*X338114D02*X345594D01*
G54D169*X337917Y172098D02*X345791D01*
G54D170*X337917Y172811D02*X345791D01*
G54D171*X338114D02*X345594D01*
G54D170*X337917Y168087D02*X345791D01*
G54D171*X338114D02*X345594D01*
G54D170*X337917Y163362D02*X345791D01*
G54D171*X338114D02*X345594D01*
G54D170*X337917Y172098D02*Y144465D01*
Y158638D02*X345791D01*
G54D171*X338114D02*X345594D01*
G54D170*X337917Y153913D02*X345791D01*
G54D171*X338114D02*X345594D01*
G54D170*X337917Y149189D02*X345791D01*
G54D171*X338114D02*X345594D01*
G54D170*X337917Y144465D02*X345791D01*
G54D171*X338114D02*X345594D01*
G54D186*X342500Y125000D02*Y115000D01*
G54D172*X297760Y178126D02*Y143874D01*
G54D167*X298232Y177535D03*
Y172811D03*
Y168087D03*
Y163362D03*
G54D173*X306224Y172417D02*Y149583D01*
G54D167*X307681Y163362D03*
Y158638D03*
X302957Y163362D03*
Y158638D03*
X307681Y172811D03*
Y168087D03*
X302957Y172811D03*
Y168087D03*
X298232Y158638D03*
Y153913D03*
X307681D03*
Y149189D03*
X302957Y153913D03*
Y149189D03*
X298232D03*
Y144465D03*
G54D174*X319217Y172811D02*Y149189D01*
G54D167*X321854Y163362D03*
X317130D03*
X312406Y158638D03*
Y153913D03*
Y149189D03*
X321854Y177535D03*
Y172811D03*
Y168087D03*
X317130Y177535D03*
Y172811D03*
Y168087D03*
X312406Y172811D03*
G54D175*X338957Y96893D02*Y96107D01*
X346043Y96893D02*Y96107D01*
G54D168*X337008Y90559D02*X337992D01*
G54D178*X328978Y79500D02*X330187D01*
X336813D02*X338022D01*
G54D168*X337008Y85441D02*X337992D01*
X341941Y79992D02*Y79008D01*
G54D177*X347461Y85795D02*Y85205D01*
Y85795D02*Y85205D01*
G54D168*X347059Y79992D02*Y79008D01*
G54D176*X342835Y85500D02*X343819D01*
X342835D02*X343819D01*
G54D167*X321854Y158638D03*
Y153913D03*
Y149189D03*
Y144465D03*
X317130Y153913D03*
Y149189D03*
Y158638D03*
Y144465D03*
X312406Y168087D03*
Y163362D03*
G54D168*X294441Y98492D02*Y97508D01*
X299559Y98492D02*Y97508D01*
G54D167*X298232Y72035D03*
Y67311D03*
Y62587D03*
Y57862D03*
Y53138D03*
Y48413D03*
G54D170*X337917Y62587D02*X345791D01*
G54D171*X338114D02*X345594D01*
G54D170*X337917Y57862D02*X345791D01*
G54D171*X338114D02*X345594D01*
G54D170*X337917Y66598D02*Y38965D01*
Y53138D02*X345791D01*
G54D171*X338114D02*X345594D01*
G54D170*X337917Y48413D02*X345791D01*
G54D171*X338114D02*X345594D01*
G54D170*X337917Y43689D02*X345791D01*
G54D171*X338114D02*X345594D01*
G54D170*X337917Y38965D02*X345791D01*
G54D171*X338114D02*X345594D01*
G54D180*X377390Y48000D02*X384870D01*
X356130D02*X363610D01*
G54D167*X321854Y72035D03*
Y67311D03*
Y62587D03*
Y57862D03*
X317130Y72035D03*
Y67311D03*
X312406D03*
Y62587D03*
X321854Y53138D03*
Y48413D03*
Y43689D03*
Y38965D03*
X317130Y62587D03*
Y57862D03*
Y53138D03*
Y48413D03*
Y43689D03*
Y38965D03*
X312406Y57862D03*
Y53138D03*
Y48413D03*
Y43689D03*
X307681Y67311D03*
X302957D03*
Y62587D03*
X307681D03*
Y57862D03*
Y53138D03*
Y48413D03*
Y43689D03*
X302957Y57862D03*
Y53138D03*
Y48413D03*
Y43689D03*
G54D169*X337917Y72748D02*X345791D01*
G54D170*X337917Y72035D02*X345791D01*
G54D171*X338114D02*X345594D01*
G54D169*X337917Y66598D02*X345791D01*
G54D170*X337917Y67311D02*X345791D01*
G54D171*X338114D02*X345594D01*
M02*
