M48
INCH
T72C0.020
T71C0.035
T70C0.038
T69C0.035
T68C0.040
T67C0.045
T66C0.106
%
T72
X024600Y062450
X025600Y062450
X027400Y064300
X030450Y060400
X032250Y061950
X032250Y059900
X032950Y059800
X033500Y073050
X034300Y060400
X034600Y063850
X035000Y073050
X036500Y061000
X037300Y064000
X039700Y062450
X041100Y068050
X043050Y069650
T71
X016900Y074750
X017450Y074350
X018000Y074750
X018600Y074350
X019200Y074750
X020500Y074550
X020800Y069350
X020900Y068200
X020900Y067600
X020900Y067000
X020900Y066400
X020900Y065800
X020900Y064750
X020900Y064150
X021500Y073850
X021950Y062300
X022450Y074550
X022507Y061443
X022600Y069800
X023250Y062250
X023500Y073850
X024000Y062300
X024500Y074550
X024600Y069800
X025500Y073850
X026250Y068200
X026250Y067600
X026250Y067000
X026250Y066400
X026250Y065800
X027350Y061900
X027350Y061300
X028550Y066800
X028900Y059850
X029250Y066800
X029550Y059850
X029900Y066800
X030200Y059850
X030550Y066800
X034800Y071000
X037200Y071900
X038100Y073300
X041550Y071450
T69
X016676Y070928
X018054Y070928
X020565Y060580
X021943Y060580
X026700Y060539
X026700Y059161
X029595Y058377
X029595Y056999
X040800Y066689
X040800Y065311
T70
X017470Y076680
X017470Y075680
X018470Y076680
X018470Y075680
X019470Y076680
X019470Y075680
X020470Y076680
X020470Y075680
X021470Y076680
X021470Y075680
X022470Y076680
X022470Y075680
X023470Y076680
X023470Y075680
X024470Y076680
X024470Y075680
X025470Y076680
X025470Y075680
X026470Y076680
X026470Y075680
X027470Y076680
X027470Y075680
X028470Y076680
X028470Y075680
X029470Y076680
X029470Y075680
X030470Y076680
X030470Y075680
X031470Y076680
X031470Y075680
X032470Y076680
X032470Y075680
X033470Y076680
X033470Y075680
X034470Y076680
X034470Y075680
X035470Y076680
X035470Y075680
X036470Y076680
X036470Y075680
T68
X015950Y059600
X017950Y059600
X018800Y073200
X020500Y073200
X039550Y063700
X041550Y069150
X044850Y073300
X044850Y071700
T67
X043761Y068066
X043761Y066688
X043761Y065310
X043761Y063932
X046517Y068066
X046517Y066688
X046517Y065310
X046517Y063932
T66
X015551Y076181
X015551Y056890
X038386Y076181
X038386Y056890
M30
