G75*
G70*
%OFA0B0*%
%FSLAX24Y24*%
%IPPOS*%
%LPD*%
%AMOC8*
5,1,8,0,0,1.08239X$1,22.5*
%
%ADD10R,0.0340X0.0880*%
%ADD11R,0.0395X0.0552*%
%ADD12R,0.0552X0.0395*%
%ADD13R,0.0513X0.0474*%
%ADD14R,0.0474X0.0513*%
%ADD15C,0.0820*%
%ADD16R,0.0820X0.0820*%
%ADD17R,0.0671X0.0186*%
%ADD18R,0.0186X0.0671*%
%ADD19R,0.0946X0.0316*%
%ADD20R,0.0682X0.0682*%
%ADD21R,0.1386X0.1386*%
%ADD22R,0.0277X0.0356*%
%ADD23R,0.0356X0.0356*%
%ADD24R,0.0552X0.0867*%
%ADD25C,0.0907*%
%ADD26R,0.0560X0.0438*%
%ADD27R,0.0434X0.0356*%
%ADD28R,0.0356X0.0434*%
%ADD29R,0.0960X0.0560*%
%ADD30R,0.0946X0.1497*%
%ADD31C,0.0595*%
D10*
X016687Y014997D03*
X017187Y014997D03*
X017687Y014997D03*
X018187Y014997D03*
X018187Y017417D03*
X017687Y017417D03*
X017187Y017417D03*
X016687Y017417D03*
D11*
X013412Y014386D03*
X012703Y014386D03*
X017083Y014140D03*
X017792Y014140D03*
X009376Y011089D03*
X008668Y011089D03*
X004652Y005331D03*
X004652Y004691D03*
X003943Y004691D03*
X003520Y004691D03*
X002811Y004691D03*
X002388Y004691D03*
X001679Y004691D03*
X001256Y004691D03*
X000547Y004691D03*
X000941Y005331D03*
X001650Y005331D03*
X002811Y005331D03*
X003520Y005331D03*
X003943Y005331D03*
D12*
X009809Y009898D03*
X009809Y010607D03*
D13*
X014790Y014042D03*
X015459Y014042D03*
X004780Y016109D03*
X004110Y016109D03*
X004110Y016945D03*
X004780Y016945D03*
D14*
X004593Y015360D03*
X004593Y014691D03*
X004593Y014130D03*
X004593Y013461D03*
X010400Y013362D03*
X010400Y014032D03*
X010400Y014593D03*
X011236Y014347D03*
X011236Y015016D03*
X012073Y015016D03*
X012073Y014347D03*
X010400Y015262D03*
X019553Y011768D03*
X019553Y011099D03*
X009268Y005666D03*
X009268Y004996D03*
X009268Y004386D03*
X009268Y003717D03*
X008185Y003717D03*
X008185Y004386D03*
X008185Y004996D03*
X008185Y005666D03*
X007299Y005666D03*
X007299Y004996D03*
X007299Y004386D03*
X007299Y003717D03*
X006217Y003717D03*
X006217Y004386D03*
X006217Y004996D03*
X006217Y005666D03*
D15*
X006266Y002853D03*
X007250Y002853D03*
X008234Y002853D03*
X009219Y002853D03*
X009219Y001853D03*
X008234Y001853D03*
X007250Y001853D03*
X006266Y001853D03*
X006266Y000853D03*
X007250Y000853D03*
X008234Y000853D03*
X009219Y000853D03*
X011187Y001853D03*
X012270Y001853D03*
X013353Y001853D03*
X014435Y001853D03*
X015518Y001853D03*
X016502Y001853D03*
X017486Y001853D03*
X018471Y001853D03*
X019455Y001853D03*
X020439Y001853D03*
X021423Y001853D03*
X022408Y001853D03*
X023392Y001853D03*
X024376Y001853D03*
X025360Y001853D03*
X026345Y001853D03*
X026345Y002853D03*
X025360Y002853D03*
X024376Y002853D03*
X023392Y002853D03*
X022408Y002853D03*
X021423Y002853D03*
X020439Y002853D03*
X019455Y002853D03*
X018471Y002853D03*
X017486Y002853D03*
X016502Y002853D03*
X015518Y002853D03*
X014435Y002853D03*
X014435Y003853D03*
X013353Y003853D03*
X013353Y002853D03*
X012270Y002853D03*
X012270Y003853D03*
X011187Y003853D03*
X011187Y002853D03*
X015518Y000853D03*
X016502Y000853D03*
X017486Y000853D03*
X018471Y000853D03*
X019455Y000853D03*
X020439Y000853D03*
X021423Y000853D03*
X022408Y000853D03*
X023392Y000853D03*
X024376Y000853D03*
X025360Y000853D03*
X026345Y000853D03*
X009695Y012171D03*
X008695Y012171D03*
X007695Y012171D03*
D16*
X010695Y012171D03*
X011187Y000853D03*
X012270Y000853D03*
X013353Y000853D03*
X014435Y000853D03*
D17*
X012467Y007447D03*
X012467Y007644D03*
X012467Y007841D03*
X012467Y008038D03*
X012467Y008234D03*
X012467Y008431D03*
X012467Y008628D03*
X012467Y008825D03*
X012467Y009022D03*
X012467Y009219D03*
X012467Y009416D03*
X012467Y009612D03*
X012467Y009809D03*
X012467Y010006D03*
X012467Y010203D03*
X012467Y010400D03*
X012467Y010597D03*
X012467Y010794D03*
X012467Y010990D03*
X012467Y011187D03*
X012467Y011384D03*
X012467Y011581D03*
X012467Y011778D03*
X012467Y011975D03*
X012467Y012171D03*
X018569Y012171D03*
X018569Y011975D03*
X018569Y011778D03*
X018569Y011581D03*
X018569Y011384D03*
X018569Y011187D03*
X018569Y010990D03*
X018569Y010794D03*
X018569Y010597D03*
X018569Y010400D03*
X018569Y010203D03*
X018569Y010006D03*
X018569Y009809D03*
X018569Y009612D03*
X018569Y009416D03*
X018569Y009219D03*
X018569Y009022D03*
X018569Y008825D03*
X018569Y008628D03*
X018569Y008431D03*
X018569Y008234D03*
X018569Y008038D03*
X018569Y007841D03*
X018569Y007644D03*
X018569Y007447D03*
D18*
X017880Y006758D03*
X017683Y006758D03*
X017486Y006758D03*
X017290Y006758D03*
X017093Y006758D03*
X016896Y006758D03*
X016699Y006758D03*
X016502Y006758D03*
X016305Y006758D03*
X016109Y006758D03*
X015912Y006758D03*
X015715Y006758D03*
X015518Y006758D03*
X015321Y006758D03*
X015124Y006758D03*
X014927Y006758D03*
X014731Y006758D03*
X014534Y006758D03*
X014337Y006758D03*
X014140Y006758D03*
X013943Y006758D03*
X013746Y006758D03*
X013549Y006758D03*
X013353Y006758D03*
X013156Y006758D03*
X013156Y012860D03*
X013353Y012860D03*
X013549Y012860D03*
X013746Y012860D03*
X013943Y012860D03*
X014140Y012860D03*
X014337Y012860D03*
X014534Y012860D03*
X014731Y012860D03*
X014927Y012860D03*
X015124Y012860D03*
X015321Y012860D03*
X015518Y012860D03*
X015715Y012860D03*
X015912Y012860D03*
X016109Y012860D03*
X016305Y012860D03*
X016502Y012860D03*
X016699Y012860D03*
X016896Y012860D03*
X017093Y012860D03*
X017290Y012860D03*
X017486Y012860D03*
X017683Y012860D03*
X017880Y012860D03*
D19*
X009406Y013670D03*
X009406Y014170D03*
X009406Y014670D03*
X009406Y015170D03*
X009406Y015670D03*
X009406Y016170D03*
X009406Y016670D03*
X009406Y017170D03*
X005784Y017170D03*
X005784Y016670D03*
X005784Y016170D03*
X005784Y015670D03*
X005784Y015170D03*
X005784Y014670D03*
X005784Y014170D03*
X005784Y013670D03*
D20*
X003018Y013845D03*
X003018Y014829D03*
X001738Y014829D03*
X001738Y013845D03*
D21*
X002112Y011967D03*
X002112Y016707D03*
D22*
X012112Y005114D03*
X012427Y005114D03*
X012427Y004563D03*
X012112Y004563D03*
X014130Y004514D03*
X014445Y004514D03*
X014445Y005065D03*
X014130Y005065D03*
X017083Y004179D03*
X017398Y004179D03*
X017398Y003628D03*
X017083Y003628D03*
X018756Y003628D03*
X019071Y003628D03*
X019071Y004179D03*
X018756Y004179D03*
X023579Y004081D03*
X023894Y004081D03*
X023894Y003530D03*
X023579Y003530D03*
D23*
X023225Y003530D03*
X023225Y004081D03*
X024248Y004081D03*
X024248Y003530D03*
X019425Y003628D03*
X019425Y004179D03*
X018402Y004179D03*
X017752Y004179D03*
X017752Y003628D03*
X018402Y003628D03*
X016729Y003628D03*
X016729Y004179D03*
X014799Y004514D03*
X014799Y005065D03*
X013776Y005065D03*
X013776Y004514D03*
X012782Y004563D03*
X012782Y005114D03*
X011758Y005114D03*
X011758Y004563D03*
D24*
X004091Y006315D03*
X002831Y006315D03*
X002221Y006315D03*
X002221Y007496D03*
X000961Y007496D03*
X000961Y006315D03*
D25*
X002998Y003215D02*
X003825Y003215D01*
X003825Y001246D02*
X002998Y001246D01*
D26*
X000754Y001439D03*
X000754Y002727D03*
D27*
X011138Y008963D03*
X011138Y009475D03*
X011532Y010144D03*
X011532Y010656D03*
X014042Y013835D03*
X014042Y014347D03*
D28*
X014150Y005921D03*
X013638Y005921D03*
X015656Y005971D03*
X016168Y005971D03*
D29*
X022988Y005553D03*
X022988Y006463D03*
X022988Y007373D03*
D30*
X020548Y006463D03*
D31*
X010351Y002329D03*
M02*
