G04 start of page 12 for group -3984 idx -3984 *
G04 Title: control, fab *
G04 Creator: pcb 20140316 *
G04 CreationDate: Thu 08 Jun 2017 03:46:08 AM GMT UTC *
G04 For: brian *
G04 Format: Gerber/RS-274X *
G04 PCB-Dimensions (mil): 6000.00 5000.00 *
G04 PCB-Coordinate-Origin: lower left *
%MOIN*%
%FSLAX25Y25*%
%LNFAB*%
%ADD97C,0.0100*%
%ADD96C,0.0075*%
%ADD95C,0.0060*%
%ADD94R,0.0080X0.0080*%
G54D94*X342000Y220700D02*Y214300D01*
X338800Y217500D02*X345200D01*
X340400Y219100D02*X343600D01*
X340400D02*Y215900D01*
X343600D01*
Y219100D02*Y215900D01*
X91000Y220700D02*Y214300D01*
X87800Y217500D02*X94200D01*
X89400Y219100D02*X92600D01*
X89400D02*Y215900D01*
X92600D01*
Y219100D02*Y215900D01*
X91000Y80200D02*Y73800D01*
X87800Y77000D02*X94200D01*
X89400Y78600D02*X92600D01*
X89400D02*Y75400D01*
X92600D01*
Y78600D02*Y75400D01*
X15000Y514450D02*Y508050D01*
X11800Y511250D02*X18200D01*
X13400Y512850D02*X16600D01*
X13400D02*Y509650D01*
X16600D01*
Y512850D02*Y509650D01*
G54D95*X135000Y513500D02*X136500Y510500D01*
X138000Y513500D01*
X136500Y510500D02*Y507500D01*
X139800Y510800D02*X142050D01*
X139800Y507500D02*X142800D01*
X139800Y513500D02*Y507500D01*
Y513500D02*X142800D01*
X147600D02*X148350Y512750D01*
X145350Y513500D02*X147600D01*
X144600Y512750D02*X145350Y513500D01*
X144600Y512750D02*Y511250D01*
X145350Y510500D01*
X147600D01*
X148350Y509750D01*
Y508250D01*
X147600Y507500D02*X148350Y508250D01*
X145350Y507500D02*X147600D01*
X144600Y508250D02*X145350Y507500D01*
X98000Y512750D02*X98750Y513500D01*
X100250D01*
X101000Y512750D01*
X100250Y507500D02*X101000Y508250D01*
X98750Y507500D02*X100250D01*
X98000Y508250D02*X98750Y507500D01*
Y510800D02*X100250D01*
X101000Y512750D02*Y511550D01*
Y510050D02*Y508250D01*
Y510050D02*X100250Y510800D01*
X101000Y511550D02*X100250Y510800D01*
X45000Y508250D02*X45750Y507500D01*
X45000Y512750D02*Y508250D01*
Y512750D02*X45750Y513500D01*
X47250D01*
X48000Y512750D01*
Y508250D01*
X47250Y507500D02*X48000Y508250D01*
X45750Y507500D02*X47250D01*
X45000Y509000D02*X48000Y512000D01*
X49800Y507500D02*X50550D01*
X52350Y512300D02*X53550Y513500D01*
Y507500D01*
X52350D02*X54600D01*
X57150D02*X60150Y513500D01*
X56400D02*X60150D01*
X62700Y507500D02*X65700Y513500D01*
X61950D02*X65700D01*
X239591Y161484D02*Y158284D01*
Y161484D02*X242364Y163084D01*
X239591Y161484D02*X236818Y163084D01*
X237991Y161484D02*G75*G03X241191Y161484I1600J0D01*G01*
G75*G03X237991Y161484I-1600J0D01*G01*
X188409D02*Y158284D01*
Y161484D02*X191182Y163084D01*
X188409Y161484D02*X185636Y163084D01*
X186809Y161484D02*G75*G03X190009Y161484I1600J0D01*G01*
G75*G03X186809Y161484I-1600J0D01*G01*
X330484Y149157D02*Y145957D01*
Y149157D02*X333257Y150757D01*
X330484Y149157D02*X327711Y150757D01*
X328884Y149157D02*G75*G03X332084Y149157I1600J0D01*G01*
G75*G03X328884Y149157I-1600J0D01*G01*
X330484Y168843D02*Y165643D01*
Y168843D02*X333257Y170443D01*
X330484Y168843D02*X327711Y170443D01*
X328884Y168843D02*G75*G03X332084Y168843I1600J0D01*G01*
G75*G03X328884Y168843I-1600J0D01*G01*
X330484Y69909D02*Y66709D01*
Y69909D02*X333257Y71509D01*
X330484Y69909D02*X327711Y71509D01*
X328884Y69909D02*G75*G03X332084Y69909I1600J0D01*G01*
G75*G03X328884Y69909I-1600J0D01*G01*
X330484Y121091D02*Y117891D01*
Y121091D02*X333257Y122691D01*
X330484Y121091D02*X327711Y122691D01*
X328884Y121091D02*G75*G03X332084Y121091I1600J0D01*G01*
G75*G03X328884Y121091I-1600J0D01*G01*
X299591Y161484D02*Y158284D01*
Y161484D02*X302364Y163084D01*
X299591Y161484D02*X296818Y163084D01*
X297991Y161484D02*G75*G03X301191Y161484I1600J0D01*G01*
G75*G03X297991Y161484I-1600J0D01*G01*
X248409D02*Y158284D01*
Y161484D02*X251182Y163084D01*
X248409Y161484D02*X245636Y163084D01*
X246809Y161484D02*G75*G03X250009Y161484I1600J0D01*G01*
G75*G03X246809Y161484I-1600J0D01*G01*
X15000Y526250D02*Y523050D01*
Y526250D02*X17773Y527850D01*
X15000Y526250D02*X12227Y527850D01*
X13400Y526250D02*G75*G03X16600Y526250I1600J0D01*G01*
G75*G03X13400Y526250I-1600J0D01*G01*
X135000Y528500D02*X136500Y525500D01*
X138000Y528500D01*
X136500Y525500D02*Y522500D01*
X139800Y525800D02*X142050D01*
X139800Y522500D02*X142800D01*
X139800Y528500D02*Y522500D01*
Y528500D02*X142800D01*
X147600D02*X148350Y527750D01*
X145350Y528500D02*X147600D01*
X144600Y527750D02*X145350Y528500D01*
X144600Y527750D02*Y526250D01*
X145350Y525500D01*
X147600D01*
X148350Y524750D01*
Y523250D01*
X147600Y522500D02*X148350Y523250D01*
X145350Y522500D02*X147600D01*
X144600Y523250D02*X145350Y522500D01*
X98000Y523250D02*X98750Y522500D01*
X98000Y524450D02*Y523250D01*
Y524450D02*X99050Y525500D01*
X99950D01*
X101000Y524450D01*
Y523250D01*
X100250Y522500D02*X101000Y523250D01*
X98750Y522500D02*X100250D01*
X98000Y526550D02*X99050Y525500D01*
X98000Y527750D02*Y526550D01*
Y527750D02*X98750Y528500D01*
X100250D01*
X101000Y527750D01*
Y526550D01*
X99950Y525500D02*X101000Y526550D01*
X45000Y523250D02*X45750Y522500D01*
X45000Y527750D02*Y523250D01*
Y527750D02*X45750Y528500D01*
X47250D01*
X48000Y527750D01*
Y523250D01*
X47250Y522500D02*X48000Y523250D01*
X45750Y522500D02*X47250D01*
X45000Y524000D02*X48000Y527000D01*
X49800Y522500D02*X50550D01*
X52350Y523250D02*X53100Y522500D01*
X52350Y527750D02*Y523250D01*
Y527750D02*X53100Y528500D01*
X54600D01*
X55350Y527750D01*
Y523250D01*
X54600Y522500D02*X55350Y523250D01*
X53100Y522500D02*X54600D01*
X52350Y524000D02*X55350Y527000D01*
X57150Y524750D02*X60150Y528500D01*
X57150Y524750D02*X60900D01*
X60150Y528500D02*Y522500D01*
X62700Y524750D02*X65700Y528500D01*
X62700Y524750D02*X66450D01*
X65700Y528500D02*Y522500D01*
X239900Y225100D02*X243100D01*
X239900D02*Y221900D01*
X243100D01*
Y225100D02*Y221900D01*
X249900Y225100D02*X253100D01*
X249900D02*Y221900D01*
X253100D01*
Y225100D02*Y221900D01*
X259900Y225100D02*X263100D01*
X259900D02*Y221900D01*
X263100D01*
Y225100D02*Y221900D01*
X269900Y225100D02*X273100D01*
X269900D02*Y221900D01*
X273100D01*
Y225100D02*Y221900D01*
X196900Y225100D02*X200100D01*
X196900D02*Y221900D01*
X200100D01*
Y225100D02*Y221900D01*
X206900Y225100D02*X210100D01*
X206900D02*Y221900D01*
X210100D01*
Y225100D02*Y221900D01*
X216900Y225100D02*X220100D01*
X216900D02*Y221900D01*
X220100D01*
Y225100D02*Y221900D01*
X226900Y225100D02*X230100D01*
X226900D02*Y221900D01*
X230100D01*
Y225100D02*Y221900D01*
X311900Y225100D02*X315100D01*
X311900D02*Y221900D01*
X315100D01*
Y225100D02*Y221900D01*
X301900Y225100D02*X305100D01*
X301900D02*Y221900D01*
X305100D01*
Y225100D02*Y221900D01*
X291900Y225100D02*X295100D01*
X291900D02*Y221900D01*
X295100D01*
Y225100D02*Y221900D01*
X281900Y225100D02*X285100D01*
X281900D02*Y221900D01*
X285100D01*
Y225100D02*Y221900D01*
X121400Y225100D02*X124600D01*
X121400D02*Y221900D01*
X124600D01*
Y225100D02*Y221900D01*
X131400Y225100D02*X134600D01*
X131400D02*Y221900D01*
X134600D01*
Y225100D02*Y221900D01*
X141400Y225100D02*X144600D01*
X141400D02*Y221900D01*
X144600D01*
Y225100D02*Y221900D01*
X151400Y225100D02*X154600D01*
X151400D02*Y221900D01*
X154600D01*
Y225100D02*Y221900D01*
X161400Y225100D02*X164600D01*
X161400D02*Y221900D01*
X164600D01*
Y225100D02*Y221900D01*
X82400Y139100D02*X85600D01*
X82400D02*Y135900D01*
X85600D01*
Y139100D02*Y135900D01*
X92400Y139100D02*X95600D01*
X92400D02*Y135900D01*
X95600D01*
Y139100D02*Y135900D01*
X102400Y139100D02*X105600D01*
X102400D02*Y135900D01*
X105600D01*
Y139100D02*Y135900D01*
X112400Y139100D02*X115600D01*
X112400D02*Y135900D01*
X115600D01*
Y139100D02*Y135900D01*
X122400Y139100D02*X125600D01*
X122400D02*Y135900D01*
X125600D01*
Y139100D02*Y135900D01*
X132400Y139100D02*X135600D01*
X132400D02*Y135900D01*
X135600D01*
Y139100D02*Y135900D01*
X142400Y139100D02*X145600D01*
X142400D02*Y135900D01*
X145600D01*
Y139100D02*Y135900D01*
X152400Y139100D02*X155600D01*
X152400D02*Y135900D01*
X155600D01*
Y139100D02*Y135900D01*
X162400Y139100D02*X165600D01*
X162400D02*Y135900D01*
X165600D01*
Y139100D02*Y135900D01*
X172400Y139100D02*X175600D01*
X172400D02*Y135900D01*
X175600D01*
Y139100D02*Y135900D01*
X182400Y139100D02*X185600D01*
X182400D02*Y135900D01*
X185600D01*
Y139100D02*Y135900D01*
X192400Y139100D02*X195600D01*
X192400D02*Y135900D01*
X195600D01*
Y139100D02*Y135900D01*
X202400Y139100D02*X205600D01*
X202400D02*Y135900D01*
X205600D01*
Y139100D02*Y135900D01*
X212400Y139100D02*X215600D01*
X212400D02*Y135900D01*
X215600D01*
Y139100D02*Y135900D01*
X222400Y139100D02*X225600D01*
X222400D02*Y135900D01*
X225600D01*
Y139100D02*Y135900D01*
X232400Y139100D02*X235600D01*
X232400D02*Y135900D01*
X235600D01*
Y139100D02*Y135900D01*
X242400Y139100D02*X245600D01*
X242400D02*Y135900D01*
X245600D01*
Y139100D02*Y135900D01*
X252400Y139100D02*X255600D01*
X252400D02*Y135900D01*
X255600D01*
Y139100D02*Y135900D01*
X262400Y139100D02*X265600D01*
X262400D02*Y135900D01*
X265600D01*
Y139100D02*Y135900D01*
X272400Y139100D02*X275600D01*
X272400D02*Y135900D01*
X275600D01*
Y139100D02*Y135900D01*
X282400Y139100D02*X285600D01*
X282400D02*Y135900D01*
X285600D01*
Y139100D02*Y135900D01*
X292400Y139100D02*X295600D01*
X292400D02*Y135900D01*
X295600D01*
Y139100D02*Y135900D01*
X302400Y139100D02*X305600D01*
X302400D02*Y135900D01*
X305600D01*
Y139100D02*Y135900D01*
X312400Y139100D02*X315600D01*
X312400D02*Y135900D01*
X315600D01*
Y139100D02*Y135900D01*
X312400Y199100D02*X315600D01*
X312400D02*Y195900D01*
X315600D01*
Y199100D02*Y195900D01*
X302400Y199100D02*X305600D01*
X302400D02*Y195900D01*
X305600D01*
Y199100D02*Y195900D01*
X292400Y199100D02*X295600D01*
X292400D02*Y195900D01*
X295600D01*
Y199100D02*Y195900D01*
X282400Y199100D02*X285600D01*
X282400D02*Y195900D01*
X285600D01*
Y199100D02*Y195900D01*
X272400Y199100D02*X275600D01*
X272400D02*Y195900D01*
X275600D01*
Y199100D02*Y195900D01*
X262400Y199100D02*X265600D01*
X262400D02*Y195900D01*
X265600D01*
Y199100D02*Y195900D01*
X252400Y199100D02*X255600D01*
X252400D02*Y195900D01*
X255600D01*
Y199100D02*Y195900D01*
X242400Y199100D02*X245600D01*
X242400D02*Y195900D01*
X245600D01*
Y199100D02*Y195900D01*
X232400Y199100D02*X235600D01*
X232400D02*Y195900D01*
X235600D01*
Y199100D02*Y195900D01*
X222400Y199100D02*X225600D01*
X222400D02*Y195900D01*
X225600D01*
Y199100D02*Y195900D01*
X212400Y199100D02*X215600D01*
X212400D02*Y195900D01*
X215600D01*
Y199100D02*Y195900D01*
X202400Y199100D02*X205600D01*
X202400D02*Y195900D01*
X205600D01*
Y199100D02*Y195900D01*
X192400Y199100D02*X195600D01*
X192400D02*Y195900D01*
X195600D01*
Y199100D02*Y195900D01*
X182400Y199100D02*X185600D01*
X182400D02*Y195900D01*
X185600D01*
Y199100D02*Y195900D01*
X172400Y199100D02*X175600D01*
X172400D02*Y195900D01*
X175600D01*
Y199100D02*Y195900D01*
X162400Y199100D02*X165600D01*
X162400D02*Y195900D01*
X165600D01*
Y199100D02*Y195900D01*
X152400Y199100D02*X155600D01*
X152400D02*Y195900D01*
X155600D01*
Y199100D02*Y195900D01*
X142400Y199100D02*X145600D01*
X142400D02*Y195900D01*
X145600D01*
Y199100D02*Y195900D01*
X132400Y199100D02*X135600D01*
X132400D02*Y195900D01*
X135600D01*
Y199100D02*Y195900D01*
X122400Y199100D02*X125600D01*
X122400D02*Y195900D01*
X125600D01*
Y199100D02*Y195900D01*
X112400Y199100D02*X115600D01*
X112400D02*Y195900D01*
X115600D01*
Y199100D02*Y195900D01*
X102400Y199100D02*X105600D01*
X102400D02*Y195900D01*
X105600D01*
Y199100D02*Y195900D01*
X92400Y199100D02*X95600D01*
X92400D02*Y195900D01*
X95600D01*
Y199100D02*Y195900D01*
X82400Y199100D02*X85600D01*
X82400D02*Y195900D01*
X85600D01*
Y199100D02*Y195900D01*
X13400Y542850D02*X16600D01*
X13400D02*Y539650D01*
X16600D01*
Y542850D02*Y539650D01*
X135000Y543500D02*X136500Y540500D01*
X138000Y543500D01*
X136500Y540500D02*Y537500D01*
X139800Y540800D02*X142050D01*
X139800Y537500D02*X142800D01*
X139800Y543500D02*Y537500D01*
Y543500D02*X142800D01*
X147600D02*X148350Y542750D01*
X145350Y543500D02*X147600D01*
X144600Y542750D02*X145350Y543500D01*
X144600Y542750D02*Y541250D01*
X145350Y540500D01*
X147600D01*
X148350Y539750D01*
Y538250D01*
X147600Y537500D02*X148350Y538250D01*
X145350Y537500D02*X147600D01*
X144600Y538250D02*X145350Y537500D01*
X100250Y543500D02*X101000Y542750D01*
X98750Y543500D02*X100250D01*
X98000Y542750D02*X98750Y543500D01*
X98000Y542750D02*Y538250D01*
X98750Y537500D01*
X100250Y540800D02*X101000Y540050D01*
X98000Y540800D02*X100250D01*
X98750Y537500D02*X100250D01*
X101000Y538250D01*
Y540050D02*Y538250D01*
X102800Y543500D02*X105800D01*
X102800D02*Y540500D01*
X103550Y541250D01*
X105050D01*
X105800Y540500D01*
Y538250D01*
X105050Y537500D02*X105800Y538250D01*
X103550Y537500D02*X105050D01*
X102800Y538250D02*X103550Y537500D01*
X45000Y538250D02*X45750Y537500D01*
X45000Y542750D02*Y538250D01*
Y542750D02*X45750Y543500D01*
X47250D01*
X48000Y542750D01*
Y538250D01*
X47250Y537500D02*X48000Y538250D01*
X45750Y537500D02*X47250D01*
X45000Y539000D02*X48000Y542000D01*
X49800Y537500D02*X50550D01*
X52350Y538250D02*X53100Y537500D01*
X52350Y542750D02*Y538250D01*
Y542750D02*X53100Y543500D01*
X54600D01*
X55350Y542750D01*
Y538250D01*
X54600Y537500D02*X55350Y538250D01*
X53100Y537500D02*X54600D01*
X52350Y539000D02*X55350Y542000D01*
X57150Y542750D02*X57900Y543500D01*
X59400D01*
X60150Y542750D01*
X59400Y537500D02*X60150Y538250D01*
X57900Y537500D02*X59400D01*
X57150Y538250D02*X57900Y537500D01*
Y540800D02*X59400D01*
X60150Y542750D02*Y541550D01*
Y540050D02*Y538250D01*
Y540050D02*X59400Y540800D01*
X60150Y541550D02*X59400Y540800D01*
X61950Y538250D02*X62700Y537500D01*
X61950Y539450D02*Y538250D01*
Y539450D02*X63000Y540500D01*
X63900D01*
X64950Y539450D01*
Y538250D01*
X64200Y537500D02*X64950Y538250D01*
X62700Y537500D02*X64200D01*
X61950Y541550D02*X63000Y540500D01*
X61950Y542750D02*Y541550D01*
Y542750D02*X62700Y543500D01*
X64200D01*
X64950Y542750D01*
Y541550D01*
X63900Y540500D02*X64950Y541550D01*
X150700Y178000D02*G75*G03X152300Y178000I800J0D01*G01*
G75*G03X150700Y178000I-800J0D01*G01*
X142700Y185500D02*G75*G03X144300Y185500I800J0D01*G01*
G75*G03X142700Y185500I-800J0D01*G01*
X199200Y166000D02*G75*G03X200800Y166000I800J0D01*G01*
G75*G03X199200Y166000I-800J0D01*G01*
X208200Y129000D02*G75*G03X209800Y129000I800J0D01*G01*
G75*G03X208200Y129000I-800J0D01*G01*
X221700Y170000D02*G75*G03X223300Y170000I800J0D01*G01*
G75*G03X221700Y170000I-800J0D01*G01*
X233200Y184500D02*G75*G03X234800Y184500I800J0D01*G01*
G75*G03X233200Y184500I-800J0D01*G01*
X206700Y170000D02*G75*G03X208300Y170000I800J0D01*G01*
G75*G03X206700Y170000I-800J0D01*G01*
X258200Y124000D02*G75*G03X259800Y124000I800J0D01*G01*
G75*G03X258200Y124000I-800J0D01*G01*
X225200Y176500D02*G75*G03X226800Y176500I800J0D01*G01*
G75*G03X225200Y176500I-800J0D01*G01*
X14200Y556250D02*G75*G03X15800Y556250I800J0D01*G01*
G75*G03X14200Y556250I-800J0D01*G01*
X135000Y558500D02*X136500Y555500D01*
X138000Y558500D01*
X136500Y555500D02*Y552500D01*
X139800Y555800D02*X142050D01*
X139800Y552500D02*X142800D01*
X139800Y558500D02*Y552500D01*
Y558500D02*X142800D01*
X147600D02*X148350Y557750D01*
X145350Y558500D02*X147600D01*
X144600Y557750D02*X145350Y558500D01*
X144600Y557750D02*Y556250D01*
X145350Y555500D01*
X147600D01*
X148350Y554750D01*
Y553250D01*
X147600Y552500D02*X148350Y553250D01*
X145350Y552500D02*X147600D01*
X144600Y553250D02*X145350Y552500D01*
X98750D02*X101000Y555500D01*
Y557750D02*Y555500D01*
X100250Y558500D02*X101000Y557750D01*
X98750Y558500D02*X100250D01*
X98000Y557750D02*X98750Y558500D01*
X98000Y557750D02*Y556250D01*
X98750Y555500D01*
X101000D01*
X45000Y553250D02*X45750Y552500D01*
X45000Y557750D02*Y553250D01*
Y557750D02*X45750Y558500D01*
X47250D01*
X48000Y557750D01*
Y553250D01*
X47250Y552500D02*X48000Y553250D01*
X45750Y552500D02*X47250D01*
X45000Y554000D02*X48000Y557000D01*
X49800Y552500D02*X50550D01*
X52350Y553250D02*X53100Y552500D01*
X52350Y557750D02*Y553250D01*
Y557750D02*X53100Y558500D01*
X54600D01*
X55350Y557750D01*
Y553250D01*
X54600Y552500D02*X55350Y553250D01*
X53100Y552500D02*X54600D01*
X52350Y554000D02*X55350Y557000D01*
X57150Y557750D02*X57900Y558500D01*
X59400D01*
X60150Y557750D01*
X59400Y552500D02*X60150Y553250D01*
X57900Y552500D02*X59400D01*
X57150Y553250D02*X57900Y552500D01*
Y555800D02*X59400D01*
X60150Y557750D02*Y556550D01*
Y555050D02*Y553250D01*
Y555050D02*X59400Y555800D01*
X60150Y556550D02*X59400Y555800D01*
X61950Y558500D02*X64950D01*
X61950D02*Y555500D01*
X62700Y556250D01*
X64200D01*
X64950Y555500D01*
Y553250D01*
X64200Y552500D02*X64950Y553250D01*
X62700Y552500D02*X64200D01*
X61950Y553250D02*X62700Y552500D01*
X232485Y155417D02*X234885Y153017D01*
X232485D02*X234885Y155417D01*
X224611D02*X227011Y153017D01*
X224611D02*X227011Y155417D01*
X216737D02*X219137Y153017D01*
X216737D02*X219137Y155417D01*
X208863D02*X211263Y153017D01*
X208863D02*X211263Y155417D01*
X200989D02*X203389Y153017D01*
X200989D02*X203389Y155417D01*
X193115D02*X195515Y153017D01*
X193115D02*X195515Y155417D01*
X322017Y156263D02*X324417Y153863D01*
X322017D02*X324417Y156263D01*
X322017Y164137D02*X324417Y161737D01*
X322017D02*X324417Y164137D01*
X322017Y77015D02*X324417Y74615D01*
X322017D02*X324417Y77015D01*
X322017Y84889D02*X324417Y82489D01*
X322017D02*X324417Y84889D01*
X322017Y92763D02*X324417Y90363D01*
X322017D02*X324417Y92763D01*
X322017Y100637D02*X324417Y98237D01*
X322017D02*X324417Y100637D01*
X322017Y108511D02*X324417Y106111D01*
X322017D02*X324417Y108511D01*
X322017Y116385D02*X324417Y113985D01*
X322017D02*X324417Y116385D01*
X292485Y155417D02*X294885Y153017D01*
X292485D02*X294885Y155417D01*
X284611D02*X287011Y153017D01*
X284611D02*X287011Y155417D01*
X276737D02*X279137Y153017D01*
X276737D02*X279137Y155417D01*
X268863D02*X271263Y153017D01*
X268863D02*X271263Y155417D01*
X260989D02*X263389Y153017D01*
X260989D02*X263389Y155417D01*
X253115D02*X255515Y153017D01*
X253115D02*X255515Y155417D01*
X13800Y572450D02*X16200Y570050D01*
X13800D02*X16200Y572450D01*
X135000Y573500D02*X136500Y570500D01*
X138000Y573500D01*
X136500Y570500D02*Y567500D01*
X139800Y570800D02*X142050D01*
X139800Y567500D02*X142800D01*
X139800Y573500D02*Y567500D01*
Y573500D02*X142800D01*
X147600D02*X148350Y572750D01*
X145350Y573500D02*X147600D01*
X144600Y572750D02*X145350Y573500D01*
X144600Y572750D02*Y571250D01*
X145350Y570500D01*
X147600D01*
X148350Y569750D01*
Y568250D01*
X147600Y567500D02*X148350Y568250D01*
X145350Y567500D02*X147600D01*
X144600Y568250D02*X145350Y567500D01*
X98000Y572750D02*X98750Y573500D01*
X101000D01*
X101750Y572750D01*
Y571250D01*
X98000Y567500D02*X101750Y571250D01*
X98000Y567500D02*X101750D01*
X103550Y568250D02*X104300Y567500D01*
X103550Y572750D02*Y568250D01*
Y572750D02*X104300Y573500D01*
X105800D01*
X106550Y572750D01*
Y568250D01*
X105800Y567500D02*X106550Y568250D01*
X104300Y567500D02*X105800D01*
X103550Y569000D02*X106550Y572000D01*
X45000Y568250D02*X45750Y567500D01*
X45000Y572750D02*Y568250D01*
Y572750D02*X45750Y573500D01*
X47250D01*
X48000Y572750D01*
Y568250D01*
X47250Y567500D02*X48000Y568250D01*
X45750Y567500D02*X47250D01*
X45000Y569000D02*X48000Y572000D01*
X49800Y567500D02*X50550D01*
X52350Y568250D02*X53100Y567500D01*
X52350Y572750D02*Y568250D01*
Y572750D02*X53100Y573500D01*
X54600D01*
X55350Y572750D01*
Y568250D01*
X54600Y567500D02*X55350Y568250D01*
X53100Y567500D02*X54600D01*
X52350Y569000D02*X55350Y572000D01*
X57150Y572750D02*X57900Y573500D01*
X60150D01*
X60900Y572750D01*
Y571250D01*
X57150Y567500D02*X60900Y571250D01*
X57150Y567500D02*X60900D01*
X62700Y568250D02*X63450Y567500D01*
X62700Y569450D02*Y568250D01*
Y569450D02*X63750Y570500D01*
X64650D01*
X65700Y569450D01*
Y568250D01*
X64950Y567500D02*X65700Y568250D01*
X63450Y567500D02*X64950D01*
X62700Y571550D02*X63750Y570500D01*
X62700Y572750D02*Y571550D01*
Y572750D02*X63450Y573500D01*
X64950D01*
X65700Y572750D01*
Y571550D01*
X64650Y570500D02*X65700Y571550D01*
X332500Y132600D02*Y129400D01*
X330900Y131000D02*X334100D01*
X181000Y219600D02*Y216400D01*
X179400Y218000D02*X182600D01*
X241000Y215100D02*Y211900D01*
X239400Y213500D02*X242600D01*
X173500Y211100D02*Y207900D01*
X171900Y209500D02*X175100D01*
X158000Y221600D02*Y218400D01*
X156400Y220000D02*X159600D01*
X214000Y189100D02*Y185900D01*
X212400Y187500D02*X215600D01*
X232500Y147600D02*Y144400D01*
X230900Y146000D02*X234100D01*
X249000Y143600D02*Y140400D01*
X247400Y142000D02*X250600D01*
X261500Y164100D02*Y160900D01*
X259900Y162500D02*X263100D01*
X212500Y212600D02*Y209400D01*
X210900Y211000D02*X214100D01*
X168000Y182100D02*Y178900D01*
X166400Y180500D02*X169600D01*
X172500Y182100D02*Y178900D01*
X170900Y180500D02*X174100D01*
X181000Y168600D02*Y165400D01*
X179400Y167000D02*X182600D01*
X176500Y168600D02*Y165400D01*
X174900Y167000D02*X178100D01*
X317000Y161100D02*Y157900D01*
X315400Y159500D02*X318600D01*
X265000Y187600D02*Y184400D01*
X263400Y186000D02*X266600D01*
X272500Y187600D02*Y184400D01*
X270900Y186000D02*X274100D01*
X203500Y211100D02*Y207900D01*
X201900Y209500D02*X205100D01*
X212500Y205600D02*Y202400D01*
X210900Y204000D02*X214100D01*
X232000Y213100D02*Y209900D01*
X230400Y211500D02*X233600D01*
X236500Y214600D02*Y211400D01*
X234900Y213000D02*X238100D01*
X286500Y204600D02*Y201400D01*
X284900Y203000D02*X288100D01*
X270000Y215100D02*Y211900D01*
X268400Y213500D02*X271600D01*
X310500Y217100D02*Y213900D01*
X308900Y215500D02*X312100D01*
X341000Y198100D02*Y194900D01*
X339400Y196500D02*X342600D01*
X315000Y209100D02*Y205900D01*
X313400Y207500D02*X316600D01*
X311500Y180600D02*Y177400D01*
X309900Y179000D02*X313100D01*
X326500Y194600D02*Y191400D01*
X324900Y193000D02*X328100D01*
X331500Y194600D02*Y191400D01*
X329900Y193000D02*X333100D01*
X106000Y150100D02*Y146900D01*
X104400Y148500D02*X107600D01*
X83000Y175600D02*Y172400D01*
X81400Y174000D02*X84600D01*
X106000Y161600D02*Y158400D01*
X104400Y160000D02*X107600D01*
X149000Y134600D02*Y131400D01*
X147400Y133000D02*X150600D01*
X114000Y154600D02*Y151400D01*
X112400Y153000D02*X115600D01*
X308000Y154100D02*Y150900D01*
X306400Y152500D02*X309600D01*
X312500Y158100D02*Y154900D01*
X310900Y156500D02*X314100D01*
X344500Y154100D02*Y150900D01*
X342900Y152500D02*X346100D01*
X348000Y196600D02*Y193400D01*
X346400Y195000D02*X349600D01*
X349000Y160600D02*Y157400D01*
X347400Y159000D02*X350600D01*
X334000Y158100D02*Y154900D01*
X332400Y156500D02*X335600D01*
X334000Y162600D02*Y159400D01*
X332400Y161000D02*X335600D01*
X329000Y159000D02*Y155800D01*
X327400Y157400D02*X330600D01*
X292000Y180100D02*Y176900D01*
X290400Y178500D02*X293600D01*
X210500Y165600D02*Y162400D01*
X208900Y164000D02*X212100D01*
X254500Y175100D02*Y171900D01*
X252900Y173500D02*X256100D01*
X251500Y178600D02*Y175400D01*
X249900Y177000D02*X253100D01*
X285500Y183600D02*Y180400D01*
X283900Y182000D02*X287100D01*
X15000Y587850D02*Y584650D01*
X13400Y586250D02*X16600D01*
X135000Y588500D02*X136500Y585500D01*
X138000Y588500D01*
X136500Y585500D02*Y582500D01*
X139800Y585800D02*X142050D01*
X139800Y582500D02*X142800D01*
X139800Y588500D02*Y582500D01*
Y588500D02*X142800D01*
X147600D02*X148350Y587750D01*
X145350Y588500D02*X147600D01*
X144600Y587750D02*X145350Y588500D01*
X144600Y587750D02*Y586250D01*
X145350Y585500D01*
X147600D01*
X148350Y584750D01*
Y583250D01*
X147600Y582500D02*X148350Y583250D01*
X145350Y582500D02*X147600D01*
X144600Y583250D02*X145350Y582500D01*
X98000Y584750D02*X101000Y588500D01*
X98000Y584750D02*X101750D01*
X101000Y588500D02*Y582500D01*
X104300D02*X107300Y588500D01*
X103550D02*X107300D01*
X45000Y583250D02*X45750Y582500D01*
X45000Y587750D02*Y583250D01*
Y587750D02*X45750Y588500D01*
X47250D01*
X48000Y587750D01*
Y583250D01*
X47250Y582500D02*X48000Y583250D01*
X45750Y582500D02*X47250D01*
X45000Y584000D02*X48000Y587000D01*
X49800Y582500D02*X50550D01*
X52350Y583250D02*X53100Y582500D01*
X52350Y587750D02*Y583250D01*
Y587750D02*X53100Y588500D01*
X54600D01*
X55350Y587750D01*
Y583250D01*
X54600Y582500D02*X55350Y583250D01*
X53100Y582500D02*X54600D01*
X52350Y584000D02*X55350Y587000D01*
X57150Y587750D02*X57900Y588500D01*
X60150D01*
X60900Y587750D01*
Y586250D01*
X57150Y582500D02*X60900Y586250D01*
X57150Y582500D02*X60900D01*
X62700Y583250D02*X63450Y582500D01*
X62700Y587750D02*Y583250D01*
Y587750D02*X63450Y588500D01*
X64950D01*
X65700Y587750D01*
Y583250D01*
X64950Y582500D02*X65700Y583250D01*
X63450Y582500D02*X64950D01*
X62700Y584000D02*X65700Y587000D01*
X234500Y85700D02*Y84100D01*
Y85700D02*X235887Y86500D01*
X234500Y85700D02*X233113Y86500D01*
X235700Y69400D02*Y67800D01*
Y69400D02*X237087Y70200D01*
X235700Y69400D02*X234313Y70200D01*
X226700Y75100D02*Y73500D01*
Y75100D02*X228087Y75900D01*
X226700Y75100D02*X225313Y75900D01*
X226700Y69400D02*Y67800D01*
Y69400D02*X228087Y70200D01*
X226700Y69400D02*X225313Y70200D01*
X228600Y80400D02*Y78800D01*
Y80400D02*X229987Y81200D01*
X228600Y80400D02*X227213Y81200D01*
X233400Y80800D02*Y79200D01*
Y80800D02*X234787Y81600D01*
X233400Y80800D02*X232013Y81600D01*
X238500Y85700D02*Y84100D01*
Y85700D02*X239887Y86500D01*
X238500Y85700D02*X237113Y86500D01*
X242300Y85700D02*Y84100D01*
Y85700D02*X243687Y86500D01*
X242300Y85700D02*X240913Y86500D01*
X246300Y85700D02*Y84100D01*
Y85700D02*X247687Y86500D01*
X246300Y85700D02*X244913Y86500D01*
X249800Y75300D02*Y73700D01*
Y75300D02*X251187Y76100D01*
X249800Y75300D02*X248413Y76100D01*
X244000Y72400D02*Y70800D01*
Y72400D02*X245387Y73200D01*
X244000Y72400D02*X242613Y73200D01*
X244000Y69000D02*Y67400D01*
Y69000D02*X245387Y69800D01*
X244000Y69000D02*X242613Y69800D01*
X122300Y77200D02*Y75600D01*
Y77200D02*X123687Y78000D01*
X122300Y77200D02*X120913Y78000D01*
X128600Y77200D02*Y75600D01*
Y77200D02*X129987Y78000D01*
X128600Y77200D02*X127213Y78000D01*
X125400Y77200D02*Y75600D01*
Y77200D02*X126787Y78000D01*
X125400Y77200D02*X124013Y78000D01*
X119200Y77200D02*Y75600D01*
Y77200D02*X120587Y78000D01*
X119200Y77200D02*X117813Y78000D01*
X116200Y77200D02*Y75600D01*
Y77200D02*X117587Y78000D01*
X116200Y77200D02*X114813Y78000D01*
X113200Y77200D02*Y75600D01*
Y77200D02*X114587Y78000D01*
X113200Y77200D02*X111813Y78000D01*
X116300Y86100D02*Y84500D01*
Y86100D02*X117687Y86900D01*
X116300Y86100D02*X114913Y86900D01*
X133200Y81700D02*Y80100D01*
Y81700D02*X134587Y82500D01*
X133200Y81700D02*X131813Y82500D01*
X108600Y81700D02*Y80100D01*
Y81700D02*X109987Y82500D01*
X108600Y81700D02*X107213Y82500D01*
X113200Y86100D02*Y84500D01*
Y86100D02*X114587Y86900D01*
X113200Y86100D02*X111813Y86900D01*
X119200Y86100D02*Y84500D01*
Y86100D02*X120587Y86900D01*
X119200Y86100D02*X117813Y86900D01*
X122300Y86100D02*Y84500D01*
Y86100D02*X123687Y86900D01*
X122300Y86100D02*X120913Y86900D01*
X125400Y86100D02*Y84500D01*
Y86100D02*X126787Y86900D01*
X125400Y86100D02*X124013Y86900D01*
X128600Y86000D02*Y84400D01*
Y86000D02*X129987Y86800D01*
X128600Y86000D02*X127213Y86800D01*
X134600Y98500D02*Y96900D01*
Y98500D02*X135987Y99300D01*
X134600Y98500D02*X133213Y99300D01*
X137700Y98500D02*Y96900D01*
Y98500D02*X139087Y99300D01*
X137700Y98500D02*X136313Y99300D01*
X141000Y95300D02*Y93700D01*
Y95300D02*X142387Y96100D01*
X141000Y95300D02*X139613Y96100D01*
X142000Y103900D02*Y102300D01*
Y103900D02*X143387Y104700D01*
X142000Y103900D02*X140613Y104700D01*
X142700Y101000D02*Y99400D01*
Y101000D02*X144087Y101800D01*
X142700Y101000D02*X141313Y101800D01*
X146100Y102600D02*Y101000D01*
Y102600D02*X147487Y103400D01*
X146100Y102600D02*X144713Y103400D01*
X149200Y101000D02*Y99400D01*
Y101000D02*X150587Y101800D01*
X149200Y101000D02*X147813Y101800D01*
X152000Y98700D02*Y97100D01*
Y98700D02*X153387Y99500D01*
X152000Y98700D02*X150613Y99500D01*
X152000Y95200D02*Y93600D01*
Y95200D02*X153387Y96000D01*
X152000Y95200D02*X150613Y96000D01*
X154400Y124200D02*Y122600D01*
Y124200D02*X155787Y125000D01*
X154400Y124200D02*X153013Y125000D01*
X170600Y124200D02*Y122600D01*
Y124200D02*X171987Y125000D01*
X170600Y124200D02*X169213Y125000D01*
X174100Y123200D02*Y121600D01*
Y123200D02*X175487Y124000D01*
X174100Y123200D02*X172713Y124000D01*
X169700Y127800D02*Y126200D01*
Y127800D02*X171087Y128600D01*
X169700Y127800D02*X168313Y128600D01*
X166600Y127800D02*Y126200D01*
Y127800D02*X167987Y128600D01*
X166600Y127800D02*X165213Y128600D01*
X163500Y127800D02*Y126200D01*
Y127800D02*X164887Y128600D01*
X163500Y127800D02*X162113Y128600D01*
X160400Y127800D02*Y126200D01*
Y127800D02*X161787Y128600D01*
X160400Y127800D02*X159013Y128600D01*
X157300Y127800D02*Y126200D01*
Y127800D02*X158687Y128600D01*
X157300Y127800D02*X155913Y128600D01*
X154000Y127800D02*Y126200D01*
Y127800D02*X155387Y128600D01*
X154000Y127800D02*X152613Y128600D01*
X166000Y120600D02*Y119000D01*
Y120600D02*X167387Y121400D01*
X166000Y120600D02*X164613Y121400D01*
X162900Y120700D02*Y119100D01*
Y120700D02*X164287Y121500D01*
X162900Y120700D02*X161513Y121500D01*
X159800Y120700D02*Y119100D01*
Y120700D02*X161187Y121500D01*
X159800Y120700D02*X158413Y121500D01*
X156700Y120700D02*Y119100D01*
Y120700D02*X158087Y121500D01*
X156700Y120700D02*X155313Y121500D01*
X153500Y120700D02*Y119100D01*
Y120700D02*X154887Y121500D01*
X153500Y120700D02*X152113Y121500D01*
X153900Y104900D02*Y103300D01*
Y104900D02*X155287Y105700D01*
X153900Y104900D02*X152513Y105700D01*
X157500Y104900D02*Y103300D01*
Y104900D02*X158887Y105700D01*
X157500Y104900D02*X156113Y105700D01*
X161500Y104900D02*Y103300D01*
Y104900D02*X162887Y105700D01*
X161500Y104900D02*X160113Y105700D01*
X165500Y104800D02*Y103200D01*
Y104800D02*X166887Y105600D01*
X165500Y104800D02*X164113Y105600D01*
X124400Y107800D02*Y106200D01*
Y107800D02*X125787Y108600D01*
X124400Y107800D02*X123013Y108600D01*
X124300Y111000D02*Y109400D01*
Y111000D02*X125687Y111800D01*
X124300Y111000D02*X122913Y111800D01*
X136000Y122500D02*Y120900D01*
Y122500D02*X137387Y123300D01*
X136000Y122500D02*X134613Y123300D01*
X133500Y122300D02*Y120700D01*
Y122300D02*X134887Y123100D01*
X133500Y122300D02*X132113Y123100D01*
X133300Y119800D02*Y118200D01*
Y119800D02*X134687Y120600D01*
X133300Y119800D02*X131913Y120600D01*
X184300Y113000D02*Y111400D01*
Y113000D02*X185687Y113800D01*
X184300Y113000D02*X182913Y113800D01*
X187400Y113100D02*Y111500D01*
Y113100D02*X188787Y113900D01*
X187400Y113100D02*X186013Y113900D01*
X188700Y115900D02*Y114300D01*
Y115900D02*X190087Y116700D01*
X188700Y115900D02*X187313Y116700D01*
X188700Y118900D02*Y117300D01*
Y118900D02*X190087Y119700D01*
X188700Y118900D02*X187313Y119700D01*
X159700Y113200D02*Y111600D01*
Y113200D02*X161087Y114000D01*
X159700Y113200D02*X158313Y114000D01*
X142400Y113200D02*Y111600D01*
Y113200D02*X143787Y114000D01*
X142400Y113200D02*X141013Y114000D01*
X15000Y601250D02*Y599650D01*
Y601250D02*X16387Y602050D01*
X15000Y601250D02*X13613Y602050D01*
X135000Y603500D02*X136500Y600500D01*
X138000Y603500D01*
X136500Y600500D02*Y597500D01*
X139800Y600800D02*X142050D01*
X139800Y597500D02*X142800D01*
X139800Y603500D02*Y597500D01*
Y603500D02*X142800D01*
X147600D02*X148350Y602750D01*
X145350Y603500D02*X147600D01*
X144600Y602750D02*X145350Y603500D01*
X144600Y602750D02*Y601250D01*
X145350Y600500D01*
X147600D01*
X148350Y599750D01*
Y598250D01*
X147600Y597500D02*X148350Y598250D01*
X145350Y597500D02*X147600D01*
X144600Y598250D02*X145350Y597500D01*
X100250Y603500D02*X101000Y602750D01*
X98750Y603500D02*X100250D01*
X98000Y602750D02*X98750Y603500D01*
X98000Y602750D02*Y598250D01*
X98750Y597500D01*
X100250Y600800D02*X101000Y600050D01*
X98000Y600800D02*X100250D01*
X98750Y597500D02*X100250D01*
X101000Y598250D01*
Y600050D02*Y598250D01*
X102800Y599750D02*X105800Y603500D01*
X102800Y599750D02*X106550D01*
X105800Y603500D02*Y597500D01*
X45000Y598250D02*X45750Y597500D01*
X45000Y602750D02*Y598250D01*
Y602750D02*X45750Y603500D01*
X47250D01*
X48000Y602750D01*
Y598250D01*
X47250Y597500D02*X48000Y598250D01*
X45750Y597500D02*X47250D01*
X45000Y599000D02*X48000Y602000D01*
X49800Y597500D02*X50550D01*
X52350Y598250D02*X53100Y597500D01*
X52350Y602750D02*Y598250D01*
Y602750D02*X53100Y603500D01*
X54600D01*
X55350Y602750D01*
Y598250D01*
X54600Y597500D02*X55350Y598250D01*
X53100Y597500D02*X54600D01*
X52350Y599000D02*X55350Y602000D01*
X57150Y602300D02*X58350Y603500D01*
Y597500D01*
X57150D02*X59400D01*
X61200Y602750D02*X61950Y603500D01*
X64200D01*
X64950Y602750D01*
Y601250D01*
X61200Y597500D02*X64950Y601250D01*
X61200Y597500D02*X64950D01*
X3000Y618500D02*X3750Y617750D01*
X750Y618500D02*X3000D01*
X0Y617750D02*X750Y618500D01*
X0Y617750D02*Y616250D01*
X750Y615500D01*
X3000D01*
X3750Y614750D01*
Y613250D01*
X3000Y612500D02*X3750Y613250D01*
X750Y612500D02*X3000D01*
X0Y613250D02*X750Y612500D01*
X5550Y615500D02*Y613250D01*
X6300Y612500D01*
X8550Y615500D02*Y611000D01*
X7800Y610250D02*X8550Y611000D01*
X6300Y610250D02*X7800D01*
X5550Y611000D02*X6300Y610250D01*
Y612500D02*X7800D01*
X8550Y613250D01*
X11100Y614750D02*Y612500D01*
Y614750D02*X11850Y615500D01*
X12600D01*
X13350Y614750D01*
Y612500D01*
Y614750D02*X14100Y615500D01*
X14850D01*
X15600Y614750D01*
Y612500D01*
X10350Y615500D02*X11100Y614750D01*
X17400Y618500D02*Y612500D01*
Y613250D02*X18150Y612500D01*
X19650D01*
X20400Y613250D01*
Y614750D02*Y613250D01*
X19650Y615500D02*X20400Y614750D01*
X18150Y615500D02*X19650D01*
X17400Y614750D02*X18150Y615500D01*
X22200Y614750D02*Y613250D01*
Y614750D02*X22950Y615500D01*
X24450D01*
X25200Y614750D01*
Y613250D01*
X24450Y612500D02*X25200Y613250D01*
X22950Y612500D02*X24450D01*
X22200Y613250D02*X22950Y612500D01*
X27000Y618500D02*Y613250D01*
X27750Y612500D01*
X0Y609250D02*X29250D01*
X41750Y618500D02*Y612500D01*
X43700Y618500D02*X44750Y617450D01*
Y613550D01*
X43700Y612500D02*X44750Y613550D01*
X41000Y612500D02*X43700D01*
X41000Y618500D02*X43700D01*
G54D96*X46550Y617000D02*Y616850D01*
G54D95*Y614750D02*Y612500D01*
X50300Y615500D02*X51050Y614750D01*
X48800Y615500D02*X50300D01*
X48050Y614750D02*X48800Y615500D01*
X48050Y614750D02*Y613250D01*
X48800Y612500D01*
X51050Y615500D02*Y613250D01*
X51800Y612500D01*
X48800D02*X50300D01*
X51050Y613250D01*
X54350Y614750D02*Y612500D01*
Y614750D02*X55100Y615500D01*
X55850D01*
X56600Y614750D01*
Y612500D01*
Y614750D02*X57350Y615500D01*
X58100D01*
X58850Y614750D01*
Y612500D01*
X53600Y615500D02*X54350Y614750D01*
X60650Y612500D02*X61400D01*
X65900Y613250D02*X66650Y612500D01*
X65900Y617750D02*X66650Y618500D01*
X65900Y617750D02*Y613250D01*
X68450Y618500D02*X69950D01*
X69200D02*Y612500D01*
X68450D02*X69950D01*
X72500Y614750D02*Y612500D01*
Y614750D02*X73250Y615500D01*
X74000D01*
X74750Y614750D01*
Y612500D01*
X71750Y615500D02*X72500Y614750D01*
X77300Y615500D02*X79550D01*
X76550Y614750D02*X77300Y615500D01*
X76550Y614750D02*Y613250D01*
X77300Y612500D01*
X79550D01*
X81350Y618500D02*Y612500D01*
Y614750D02*X82100Y615500D01*
X83600D01*
X84350Y614750D01*
Y612500D01*
X86150Y618500D02*X86900Y617750D01*
Y613250D01*
X86150Y612500D02*X86900Y613250D01*
X41000Y609250D02*X88700D01*
X96050Y612500D02*X98000D01*
X95000Y613550D02*X96050Y612500D01*
X95000Y617450D02*Y613550D01*
Y617450D02*X96050Y618500D01*
X98000D01*
X99800Y614750D02*Y613250D01*
Y614750D02*X100550Y615500D01*
X102050D01*
X102800Y614750D01*
Y613250D01*
X102050Y612500D02*X102800Y613250D01*
X100550Y612500D02*X102050D01*
X99800Y613250D02*X100550Y612500D01*
X104600Y615500D02*Y613250D01*
X105350Y612500D01*
X106850D01*
X107600Y613250D01*
Y615500D02*Y613250D01*
X110150Y614750D02*Y612500D01*
Y614750D02*X110900Y615500D01*
X111650D01*
X112400Y614750D01*
Y612500D01*
X109400Y615500D02*X110150Y614750D01*
X114950Y618500D02*Y613250D01*
X115700Y612500D01*
X114200Y616250D02*X115700D01*
X95000Y609250D02*X117200D01*
X130750Y618500D02*Y612500D01*
X130000Y618500D02*X133000D01*
X133750Y617750D01*
Y616250D01*
X133000Y615500D02*X133750Y616250D01*
X130750Y615500D02*X133000D01*
X135550Y618500D02*Y613250D01*
X136300Y612500D01*
X140050Y615500D02*X140800Y614750D01*
X138550Y615500D02*X140050D01*
X137800Y614750D02*X138550Y615500D01*
X137800Y614750D02*Y613250D01*
X138550Y612500D01*
X140800Y615500D02*Y613250D01*
X141550Y612500D01*
X138550D02*X140050D01*
X140800Y613250D01*
X144100Y618500D02*Y613250D01*
X144850Y612500D01*
X143350Y616250D02*X144850D01*
X147100Y612500D02*X149350D01*
X146350Y613250D02*X147100Y612500D01*
X146350Y614750D02*Y613250D01*
Y614750D02*X147100Y615500D01*
X148600D01*
X149350Y614750D01*
X146350Y614000D02*X149350D01*
Y614750D02*Y614000D01*
X154150Y618500D02*Y612500D01*
X153400D02*X154150Y613250D01*
X151900Y612500D02*X153400D01*
X151150Y613250D02*X151900Y612500D01*
X151150Y614750D02*Y613250D01*
Y614750D02*X151900Y615500D01*
X153400D01*
X154150Y614750D01*
X157450Y615500D02*Y614750D01*
Y613250D02*Y612500D01*
X155950Y617750D02*Y617000D01*
Y617750D02*X156700Y618500D01*
X158200D01*
X158950Y617750D01*
Y617000D01*
X157450Y615500D02*X158950Y617000D01*
X130000Y609250D02*X160750D01*
X0Y633500D02*X3000D01*
X1500D02*Y627500D01*
X4800Y633500D02*Y627500D01*
Y629750D02*X5550Y630500D01*
X7050D01*
X7800Y629750D01*
Y627500D01*
X10350D02*X12600D01*
X9600Y628250D02*X10350Y627500D01*
X9600Y629750D02*Y628250D01*
Y629750D02*X10350Y630500D01*
X11850D01*
X12600Y629750D01*
X9600Y629000D02*X12600D01*
Y629750D02*Y629000D01*
X15150Y629750D02*Y627500D01*
Y629750D02*X15900Y630500D01*
X17400D01*
X14400D02*X15150Y629750D01*
X19950Y627500D02*X22200D01*
X19200Y628250D02*X19950Y627500D01*
X19200Y629750D02*Y628250D01*
Y629750D02*X19950Y630500D01*
X21450D01*
X22200Y629750D01*
X19200Y629000D02*X22200D01*
Y629750D02*Y629000D01*
X28950Y630500D02*X29700Y629750D01*
X27450Y630500D02*X28950D01*
X26700Y629750D02*X27450Y630500D01*
X26700Y629750D02*Y628250D01*
X27450Y627500D01*
X29700Y630500D02*Y628250D01*
X30450Y627500D01*
X27450D02*X28950D01*
X29700Y628250D01*
X33000Y629750D02*Y627500D01*
Y629750D02*X33750Y630500D01*
X35250D01*
X32250D02*X33000Y629750D01*
X37800Y627500D02*X40050D01*
X37050Y628250D02*X37800Y627500D01*
X37050Y629750D02*Y628250D01*
Y629750D02*X37800Y630500D01*
X39300D01*
X40050Y629750D01*
X37050Y629000D02*X40050D01*
Y629750D02*Y629000D01*
X45300Y627500D02*X48300Y633500D01*
X44550D02*X48300D01*
X55800D02*Y627500D01*
X55050D02*X55800Y628250D01*
X53550Y627500D02*X55050D01*
X52800Y628250D02*X53550Y627500D01*
X52800Y629750D02*Y628250D01*
Y629750D02*X53550Y630500D01*
X55050D01*
X55800Y629750D01*
G54D96*X57600Y632000D02*Y631850D01*
G54D95*Y629750D02*Y627500D01*
X59850Y632750D02*Y627500D01*
Y632750D02*X60600Y633500D01*
X61350D01*
X59100Y630500D02*X60600D01*
X63600Y632750D02*Y627500D01*
Y632750D02*X64350Y633500D01*
X65100D01*
X62850Y630500D02*X64350D01*
X67350Y627500D02*X69600D01*
X66600Y628250D02*X67350Y627500D01*
X66600Y629750D02*Y628250D01*
Y629750D02*X67350Y630500D01*
X68850D01*
X69600Y629750D01*
X66600Y629000D02*X69600D01*
Y629750D02*Y629000D01*
X72150Y629750D02*Y627500D01*
Y629750D02*X72900Y630500D01*
X74400D01*
X71400D02*X72150Y629750D01*
X76950Y627500D02*X79200D01*
X76200Y628250D02*X76950Y627500D01*
X76200Y629750D02*Y628250D01*
Y629750D02*X76950Y630500D01*
X78450D01*
X79200Y629750D01*
X76200Y629000D02*X79200D01*
Y629750D02*Y629000D01*
X81750Y629750D02*Y627500D01*
Y629750D02*X82500Y630500D01*
X83250D01*
X84000Y629750D01*
Y627500D01*
X81000Y630500D02*X81750Y629750D01*
X86550Y633500D02*Y628250D01*
X87300Y627500D01*
X85800Y631250D02*X87300D01*
X94500Y633500D02*Y627500D01*
X93750D02*X94500Y628250D01*
X92250Y627500D02*X93750D01*
X91500Y628250D02*X92250Y627500D01*
X91500Y629750D02*Y628250D01*
Y629750D02*X92250Y630500D01*
X93750D01*
X94500Y629750D01*
X97050D02*Y627500D01*
Y629750D02*X97800Y630500D01*
X99300D01*
X96300D02*X97050Y629750D01*
G54D96*X101100Y632000D02*Y631850D01*
G54D95*Y629750D02*Y627500D01*
X102600Y633500D02*Y628250D01*
X103350Y627500D01*
X104850Y633500D02*Y628250D01*
X105600Y627500D01*
X110550D02*X112800D01*
X113550Y628250D01*
X112800Y629000D02*X113550Y628250D01*
X110550Y629000D02*X112800D01*
X109800Y629750D02*X110550Y629000D01*
X109800Y629750D02*X110550Y630500D01*
X112800D01*
X113550Y629750D01*
X109800Y628250D02*X110550Y627500D01*
G54D96*X115350Y632000D02*Y631850D01*
G54D95*Y629750D02*Y627500D01*
X116850Y630500D02*X119850D01*
X116850Y627500D02*X119850Y630500D01*
X116850Y627500D02*X119850D01*
X122400D02*X124650D01*
X121650Y628250D02*X122400Y627500D01*
X121650Y629750D02*Y628250D01*
Y629750D02*X122400Y630500D01*
X123900D01*
X124650Y629750D01*
X121650Y629000D02*X124650D01*
Y629750D02*Y629000D01*
X127200Y627500D02*X129450D01*
X130200Y628250D01*
X129450Y629000D02*X130200Y628250D01*
X127200Y629000D02*X129450D01*
X126450Y629750D02*X127200Y629000D01*
X126450Y629750D02*X127200Y630500D01*
X129450D01*
X130200Y629750D01*
X126450Y628250D02*X127200Y627500D01*
X134700Y630500D02*Y628250D01*
X135450Y627500D01*
X136950D01*
X137700Y628250D01*
Y630500D02*Y628250D01*
X140250Y627500D02*X142500D01*
X143250Y628250D01*
X142500Y629000D02*X143250Y628250D01*
X140250Y629000D02*X142500D01*
X139500Y629750D02*X140250Y629000D01*
X139500Y629750D02*X140250Y630500D01*
X142500D01*
X143250Y629750D01*
X139500Y628250D02*X140250Y627500D01*
X145800D02*X148050D01*
X145050Y628250D02*X145800Y627500D01*
X145050Y629750D02*Y628250D01*
Y629750D02*X145800Y630500D01*
X147300D01*
X148050Y629750D01*
X145050Y629000D02*X148050D01*
Y629750D02*Y629000D01*
X152850Y633500D02*Y627500D01*
X152100D02*X152850Y628250D01*
X150600Y627500D02*X152100D01*
X149850Y628250D02*X150600Y627500D01*
X149850Y629750D02*Y628250D01*
Y629750D02*X150600Y630500D01*
X152100D01*
X152850Y629750D01*
G54D96*X157350Y632000D02*Y631850D01*
G54D95*Y629750D02*Y627500D01*
X159600Y629750D02*Y627500D01*
Y629750D02*X160350Y630500D01*
X161100D01*
X161850Y629750D01*
Y627500D01*
X158850Y630500D02*X159600Y629750D01*
X167100Y633500D02*Y628250D01*
X167850Y627500D01*
X166350Y631250D02*X167850D01*
X169350Y633500D02*Y627500D01*
Y629750D02*X170100Y630500D01*
X171600D01*
X172350Y629750D01*
Y627500D01*
G54D96*X174150Y632000D02*Y631850D01*
G54D95*Y629750D02*Y627500D01*
X176400D02*X178650D01*
X179400Y628250D01*
X178650Y629000D02*X179400Y628250D01*
X176400Y629000D02*X178650D01*
X175650Y629750D02*X176400Y629000D01*
X175650Y629750D02*X176400Y630500D01*
X178650D01*
X179400Y629750D01*
X175650Y628250D02*X176400Y627500D01*
X183900Y633500D02*Y628250D01*
X184650Y627500D01*
X188400Y630500D02*X189150Y629750D01*
X186900Y630500D02*X188400D01*
X186150Y629750D02*X186900Y630500D01*
X186150Y629750D02*Y628250D01*
X186900Y627500D01*
X189150Y630500D02*Y628250D01*
X189900Y627500D01*
X186900D02*X188400D01*
X189150Y628250D01*
X191700Y630500D02*Y628250D01*
X192450Y627500D01*
X194700Y630500D02*Y626000D01*
X193950Y625250D02*X194700Y626000D01*
X192450Y625250D02*X193950D01*
X191700Y626000D02*X192450Y625250D01*
Y627500D02*X193950D01*
X194700Y628250D01*
X196500Y629750D02*Y628250D01*
Y629750D02*X197250Y630500D01*
X198750D01*
X199500Y629750D01*
Y628250D01*
X198750Y627500D02*X199500Y628250D01*
X197250Y627500D02*X198750D01*
X196500Y628250D02*X197250Y627500D01*
X201300Y630500D02*Y628250D01*
X202050Y627500D01*
X203550D01*
X204300Y628250D01*
Y630500D02*Y628250D01*
X206850Y633500D02*Y628250D01*
X207600Y627500D01*
X206100Y631250D02*X207600D01*
X209100Y626000D02*X210600Y627500D01*
X215100Y632750D02*X215850Y633500D01*
X218100D01*
X218850Y632750D01*
Y631250D01*
X215100Y627500D02*X218850Y631250D01*
X215100Y627500D02*X218850D01*
X220650Y632300D02*X221850Y633500D01*
Y627500D01*
X220650D02*X222900D01*
X226950Y633500D02*X227700Y632750D01*
X225450Y633500D02*X226950D01*
X224700Y632750D02*X225450Y633500D01*
X224700Y632750D02*Y628250D01*
X225450Y627500D01*
X226950Y630800D02*X227700Y630050D01*
X224700Y630800D02*X226950D01*
X225450Y627500D02*X226950D01*
X227700Y628250D01*
Y630050D02*Y628250D01*
X232200Y633500D02*Y627500D01*
Y629750D02*X232950Y630500D01*
X234450D01*
X235200Y629750D01*
Y627500D01*
X237000Y629750D02*Y628250D01*
Y629750D02*X237750Y630500D01*
X239250D01*
X240000Y629750D01*
Y628250D01*
X239250Y627500D02*X240000Y628250D01*
X237750Y627500D02*X239250D01*
X237000Y628250D02*X237750Y627500D01*
X241800Y633500D02*Y628250D01*
X242550Y627500D01*
X244800D02*X247050D01*
X244050Y628250D02*X244800Y627500D01*
X244050Y629750D02*Y628250D01*
Y629750D02*X244800Y630500D01*
X246300D01*
X247050Y629750D01*
X244050Y629000D02*X247050D01*
Y629750D02*Y629000D01*
X249600Y627500D02*X251850D01*
X252600Y628250D01*
X251850Y629000D02*X252600Y628250D01*
X249600Y629000D02*X251850D01*
X248850Y629750D02*X249600Y629000D01*
X248850Y629750D02*X249600Y630500D01*
X251850D01*
X252600Y629750D01*
X248850Y628250D02*X249600Y627500D01*
X257850Y633500D02*Y628250D01*
X258600Y627500D01*
X257100Y631250D02*X258600D01*
X260100Y629750D02*Y628250D01*
Y629750D02*X260850Y630500D01*
X262350D01*
X263100Y629750D01*
Y628250D01*
X262350Y627500D02*X263100Y628250D01*
X260850Y627500D02*X262350D01*
X260100Y628250D02*X260850Y627500D01*
X265650Y633500D02*Y628250D01*
X266400Y627500D01*
X264900Y631250D02*X266400D01*
X270150Y630500D02*X270900Y629750D01*
X268650Y630500D02*X270150D01*
X267900Y629750D02*X268650Y630500D01*
X267900Y629750D02*Y628250D01*
X268650Y627500D01*
X270900Y630500D02*Y628250D01*
X271650Y627500D01*
X268650D02*X270150D01*
X270900Y628250D01*
X273450Y633500D02*Y628250D01*
X274200Y627500D01*
G54D97*X77500Y231000D02*X355500D01*
Y62000D01*
X77500D01*
Y231000D01*
G54D95*X213675Y-9500D02*X216675D01*
X217425Y-8750D01*
Y-6950D02*Y-8750D01*
X216675Y-6200D02*X217425Y-6950D01*
X214425Y-6200D02*X216675D01*
X214425Y-3500D02*Y-9500D01*
X213675Y-3500D02*X216675D01*
X217425Y-4250D01*
Y-5450D01*
X216675Y-6200D02*X217425Y-5450D01*
X219225Y-7250D02*Y-8750D01*
Y-7250D02*X219975Y-6500D01*
X221475D01*
X222225Y-7250D01*
Y-8750D01*
X221475Y-9500D02*X222225Y-8750D01*
X219975Y-9500D02*X221475D01*
X219225Y-8750D02*X219975Y-9500D01*
X226275Y-6500D02*X227025Y-7250D01*
X224775Y-6500D02*X226275D01*
X224025Y-7250D02*X224775Y-6500D01*
X224025Y-7250D02*Y-8750D01*
X224775Y-9500D01*
X227025Y-6500D02*Y-8750D01*
X227775Y-9500D01*
X224775D02*X226275D01*
X227025Y-8750D01*
X230325Y-7250D02*Y-9500D01*
Y-7250D02*X231075Y-6500D01*
X232575D01*
X229575D02*X230325Y-7250D01*
X237375Y-3500D02*Y-9500D01*
X236625D02*X237375Y-8750D01*
X235125Y-9500D02*X236625D01*
X234375Y-8750D02*X235125Y-9500D01*
X234375Y-7250D02*Y-8750D01*
Y-7250D02*X235125Y-6500D01*
X236625D01*
X237375Y-7250D01*
X241875D02*Y-8750D01*
Y-7250D02*X242625Y-6500D01*
X244125D01*
X244875Y-7250D01*
Y-8750D01*
X244125Y-9500D02*X244875Y-8750D01*
X242625Y-9500D02*X244125D01*
X241875Y-8750D02*X242625Y-9500D01*
X246675Y-6500D02*Y-8750D01*
X247425Y-9500D01*
X248925D01*
X249675Y-8750D01*
Y-6500D02*Y-8750D01*
X252225Y-3500D02*Y-8750D01*
X252975Y-9500D01*
X251475Y-5750D02*X252975D01*
X254475Y-3500D02*Y-8750D01*
X255225Y-9500D01*
G54D96*X256725Y-5000D02*Y-5150D01*
G54D95*Y-7250D02*Y-9500D01*
X258975Y-7250D02*Y-9500D01*
Y-7250D02*X259725Y-6500D01*
X260475D01*
X261225Y-7250D01*
Y-9500D01*
X258225Y-6500D02*X258975Y-7250D01*
X263775Y-9500D02*X266025D01*
X263025Y-8750D02*X263775Y-9500D01*
X263025Y-7250D02*Y-8750D01*
Y-7250D02*X263775Y-6500D01*
X265275D01*
X266025Y-7250D01*
X263025Y-8000D02*X266025D01*
Y-7250D02*Y-8000D01*
G54D96*X270525Y-5000D02*Y-5150D01*
G54D95*Y-7250D02*Y-9500D01*
X272775D02*X275025D01*
X275775Y-8750D01*
X275025Y-8000D02*X275775Y-8750D01*
X272775Y-8000D02*X275025D01*
X272025Y-7250D02*X272775Y-8000D01*
X272025Y-7250D02*X272775Y-6500D01*
X275025D01*
X275775Y-7250D01*
X272025Y-8750D02*X272775Y-9500D01*
X281025Y-3500D02*Y-8750D01*
X281775Y-9500D01*
X280275Y-5750D02*X281775D01*
X283275Y-3500D02*Y-9500D01*
Y-7250D02*X284025Y-6500D01*
X285525D01*
X286275Y-7250D01*
Y-9500D01*
X288825D02*X291075D01*
X288075Y-8750D02*X288825Y-9500D01*
X288075Y-7250D02*Y-8750D01*
Y-7250D02*X288825Y-6500D01*
X290325D01*
X291075Y-7250D01*
X288075Y-8000D02*X291075D01*
Y-7250D02*Y-8000D01*
X296325Y-6500D02*X298575D01*
X295575Y-7250D02*X296325Y-6500D01*
X295575Y-7250D02*Y-8750D01*
X296325Y-9500D01*
X298575D01*
X301125D02*X303375D01*
X300375Y-8750D02*X301125Y-9500D01*
X300375Y-7250D02*Y-8750D01*
Y-7250D02*X301125Y-6500D01*
X302625D01*
X303375Y-7250D01*
X300375Y-8000D02*X303375D01*
Y-7250D02*Y-8000D01*
X305925Y-7250D02*Y-9500D01*
Y-7250D02*X306675Y-6500D01*
X307425D01*
X308175Y-7250D01*
Y-9500D01*
X305175Y-6500D02*X305925Y-7250D01*
X310725Y-3500D02*Y-8750D01*
X311475Y-9500D01*
X309975Y-5750D02*X311475D01*
X313725Y-9500D02*X315975D01*
X312975Y-8750D02*X313725Y-9500D01*
X312975Y-7250D02*Y-8750D01*
Y-7250D02*X313725Y-6500D01*
X315225D01*
X315975Y-7250D01*
X312975Y-8000D02*X315975D01*
Y-7250D02*Y-8000D01*
X318525Y-7250D02*Y-9500D01*
Y-7250D02*X319275Y-6500D01*
X320775D01*
X317775D02*X318525Y-7250D01*
X322575Y-3500D02*Y-8750D01*
X323325Y-9500D01*
G54D96*X324825Y-5000D02*Y-5150D01*
G54D95*Y-7250D02*Y-9500D01*
X327075Y-7250D02*Y-9500D01*
Y-7250D02*X327825Y-6500D01*
X328575D01*
X329325Y-7250D01*
Y-9500D01*
X326325Y-6500D02*X327075Y-7250D01*
X331875Y-9500D02*X334125D01*
X331125Y-8750D02*X331875Y-9500D01*
X331125Y-7250D02*Y-8750D01*
Y-7250D02*X331875Y-6500D01*
X333375D01*
X334125Y-7250D01*
X331125Y-8000D02*X334125D01*
Y-7250D02*Y-8000D01*
X338625Y-7250D02*Y-8750D01*
Y-7250D02*X339375Y-6500D01*
X340875D01*
X341625Y-7250D01*
Y-8750D01*
X340875Y-9500D02*X341625Y-8750D01*
X339375Y-9500D02*X340875D01*
X338625Y-8750D02*X339375Y-9500D01*
X344175Y-4250D02*Y-9500D01*
Y-4250D02*X344925Y-3500D01*
X345675D01*
X343425Y-6500D02*X344925D01*
X350625Y-3500D02*Y-8750D01*
X351375Y-9500D01*
X349875Y-5750D02*X351375D01*
X352875Y-3500D02*Y-9500D01*
Y-7250D02*X353625Y-6500D01*
X355125D01*
X355875Y-7250D01*
Y-9500D01*
G54D96*X357675Y-5000D02*Y-5150D01*
G54D95*Y-7250D02*Y-9500D01*
X359925D02*X362175D01*
X362925Y-8750D01*
X362175Y-8000D02*X362925Y-8750D01*
X359925Y-8000D02*X362175D01*
X359175Y-7250D02*X359925Y-8000D01*
X359175Y-7250D02*X359925Y-6500D01*
X362175D01*
X362925Y-7250D01*
X359175Y-8750D02*X359925Y-9500D01*
X368175Y-7250D02*Y-11750D01*
X367425Y-6500D02*X368175Y-7250D01*
X368925Y-6500D01*
X370425D01*
X371175Y-7250D01*
Y-8750D01*
X370425Y-9500D02*X371175Y-8750D01*
X368925Y-9500D02*X370425D01*
X368175Y-8750D02*X368925Y-9500D01*
X375225Y-6500D02*X375975Y-7250D01*
X373725Y-6500D02*X375225D01*
X372975Y-7250D02*X373725Y-6500D01*
X372975Y-7250D02*Y-8750D01*
X373725Y-9500D01*
X375975Y-6500D02*Y-8750D01*
X376725Y-9500D01*
X373725D02*X375225D01*
X375975Y-8750D01*
X379275Y-3500D02*Y-8750D01*
X380025Y-9500D01*
X378525Y-5750D02*X380025D01*
X381525Y-3500D02*Y-9500D01*
Y-7250D02*X382275Y-6500D01*
X383775D01*
X384525Y-7250D01*
Y-9500D01*
X200750Y528500D02*Y522500D01*
X202700Y528500D02*X203750Y527450D01*
Y523550D01*
X202700Y522500D02*X203750Y523550D01*
X200000Y522500D02*X202700D01*
X200000Y528500D02*X202700D01*
X207800Y525500D02*X208550Y524750D01*
X206300Y525500D02*X207800D01*
X205550Y524750D02*X206300Y525500D01*
X205550Y524750D02*Y523250D01*
X206300Y522500D01*
X208550Y525500D02*Y523250D01*
X209300Y522500D01*
X206300D02*X207800D01*
X208550Y523250D01*
X211850Y528500D02*Y523250D01*
X212600Y522500D01*
X211100Y526250D02*X212600D01*
X214850Y522500D02*X217100D01*
X214100Y523250D02*X214850Y522500D01*
X214100Y524750D02*Y523250D01*
Y524750D02*X214850Y525500D01*
X216350D01*
X217100Y524750D01*
X214100Y524000D02*X217100D01*
Y524750D02*Y524000D01*
X218900Y526250D02*X219650D01*
X218900Y524750D02*X219650D01*
X224150Y528500D02*X227150D01*
X225650D02*Y522500D01*
X228950Y528500D02*Y522500D01*
Y524750D02*X229700Y525500D01*
X231200D01*
X231950Y524750D01*
Y522500D01*
X233750Y525500D02*Y523250D01*
X234500Y522500D01*
X236000D01*
X236750Y523250D01*
Y525500D02*Y523250D01*
X241250D02*X242000Y522500D01*
X241250Y527750D02*Y523250D01*
Y527750D02*X242000Y528500D01*
X243500D01*
X244250Y527750D01*
Y523250D01*
X243500Y522500D02*X244250Y523250D01*
X242000Y522500D02*X243500D01*
X241250Y524000D02*X244250Y527000D01*
X246050Y523250D02*X246800Y522500D01*
X246050Y524450D02*Y523250D01*
Y524450D02*X247100Y525500D01*
X248000D01*
X249050Y524450D01*
Y523250D01*
X248300Y522500D02*X249050Y523250D01*
X246800Y522500D02*X248300D01*
X246050Y526550D02*X247100Y525500D01*
X246050Y527750D02*Y526550D01*
Y527750D02*X246800Y528500D01*
X248300D01*
X249050Y527750D01*
Y526550D01*
X248000Y525500D02*X249050Y526550D01*
X254600Y528500D02*X255800D01*
Y523250D01*
X255050Y522500D02*X255800Y523250D01*
X254300Y522500D02*X255050D01*
X253550Y523250D02*X254300Y522500D01*
X253550Y524000D02*Y523250D01*
X257600Y525500D02*Y523250D01*
X258350Y522500D01*
X259850D01*
X260600Y523250D01*
Y525500D02*Y523250D01*
X263150Y524750D02*Y522500D01*
Y524750D02*X263900Y525500D01*
X264650D01*
X265400Y524750D01*
Y522500D01*
X262400Y525500D02*X263150Y524750D01*
X269900Y527750D02*X270650Y528500D01*
X272900D01*
X273650Y527750D01*
Y526250D01*
X269900Y522500D02*X273650Y526250D01*
X269900Y522500D02*X273650D01*
X275450Y523250D02*X276200Y522500D01*
X275450Y527750D02*Y523250D01*
Y527750D02*X276200Y528500D01*
X277700D01*
X278450Y527750D01*
Y523250D01*
X277700Y522500D02*X278450Y523250D01*
X276200Y522500D02*X277700D01*
X275450Y524000D02*X278450Y527000D01*
X280250Y527300D02*X281450Y528500D01*
Y522500D01*
X280250D02*X282500D01*
X285050D02*X288050Y528500D01*
X284300D02*X288050D01*
X292550Y523250D02*X293300Y522500D01*
X292550Y527750D02*Y523250D01*
Y527750D02*X293300Y528500D01*
X294800D01*
X295550Y527750D01*
Y523250D01*
X294800Y522500D02*X295550Y523250D01*
X293300Y522500D02*X294800D01*
X292550Y524000D02*X295550Y527000D01*
X297350Y527750D02*X298100Y528500D01*
X299600D01*
X300350Y527750D01*
X299600Y522500D02*X300350Y523250D01*
X298100Y522500D02*X299600D01*
X297350Y523250D02*X298100Y522500D01*
Y525800D02*X299600D01*
X300350Y527750D02*Y526550D01*
Y525050D02*Y523250D01*
Y525050D02*X299600Y525800D01*
X300350Y526550D02*X299600Y525800D01*
X302150Y526250D02*X302900D01*
X302150Y524750D02*X302900D01*
X304700D02*X307700Y528500D01*
X304700Y524750D02*X308450D01*
X307700Y528500D02*Y522500D01*
X312500Y528500D02*X313250Y527750D01*
X311000Y528500D02*X312500D01*
X310250Y527750D02*X311000Y528500D01*
X310250Y527750D02*Y523250D01*
X311000Y522500D01*
X312500Y525800D02*X313250Y525050D01*
X310250Y525800D02*X312500D01*
X311000Y522500D02*X312500D01*
X313250Y523250D01*
Y525050D02*Y523250D01*
X315050Y526250D02*X315800D01*
X315050Y524750D02*X315800D01*
X317600Y523250D02*X318350Y522500D01*
X317600Y527750D02*Y523250D01*
Y527750D02*X318350Y528500D01*
X319850D01*
X320600Y527750D01*
Y523250D01*
X319850Y522500D02*X320600Y523250D01*
X318350Y522500D02*X319850D01*
X317600Y524000D02*X320600Y527000D01*
X322400Y523250D02*X323150Y522500D01*
X322400Y524450D02*Y523250D01*
Y524450D02*X323450Y525500D01*
X324350D01*
X325400Y524450D01*
Y523250D01*
X324650Y522500D02*X325400Y523250D01*
X323150Y522500D02*X324650D01*
X322400Y526550D02*X323450Y525500D01*
X322400Y527750D02*Y526550D01*
Y527750D02*X323150Y528500D01*
X324650D01*
X325400Y527750D01*
Y526550D01*
X324350Y525500D02*X325400Y526550D01*
X329900Y527000D02*Y522500D01*
Y527000D02*X330950Y528500D01*
X332600D01*
X333650Y527000D01*
Y522500D01*
X329900Y525500D02*X333650D01*
X335450Y528500D02*Y522500D01*
Y528500D02*X337700Y525500D01*
X339950Y528500D01*
Y522500D01*
X347450Y528500D02*X348200Y527750D01*
X345200Y528500D02*X347450D01*
X344450Y527750D02*X345200Y528500D01*
X344450Y527750D02*Y523250D01*
X345200Y522500D01*
X347450D01*
X348200Y523250D01*
Y524750D02*Y523250D01*
X347450Y525500D02*X348200Y524750D01*
X345950Y525500D02*X347450D01*
X350000Y528500D02*Y522500D01*
Y528500D02*X352250Y525500D01*
X354500Y528500D01*
Y522500D01*
X356300Y528500D02*X359300D01*
X357800D02*Y522500D01*
X363800Y528500D02*Y523250D01*
X364550Y522500D01*
X366050D01*
X366800Y523250D01*
Y528500D02*Y523250D01*
X368600Y528500D02*X371600D01*
X370100D02*Y522500D01*
X374450D02*X376400D01*
X373400Y523550D02*X374450Y522500D01*
X373400Y527450D02*Y523550D01*
Y527450D02*X374450Y528500D01*
X376400D01*
X200000Y542000D02*Y537500D01*
Y542000D02*X201050Y543500D01*
X202700D01*
X203750Y542000D01*
Y537500D01*
X200000Y540500D02*X203750D01*
X205550D02*Y538250D01*
X206300Y537500D01*
X207800D01*
X208550Y538250D01*
Y540500D02*Y538250D01*
X211100Y543500D02*Y538250D01*
X211850Y537500D01*
X210350Y541250D02*X211850D01*
X213350Y543500D02*Y537500D01*
Y539750D02*X214100Y540500D01*
X215600D01*
X216350Y539750D01*
Y537500D01*
X218150Y539750D02*Y538250D01*
Y539750D02*X218900Y540500D01*
X220400D01*
X221150Y539750D01*
Y538250D01*
X220400Y537500D02*X221150Y538250D01*
X218900Y537500D02*X220400D01*
X218150Y538250D02*X218900Y537500D01*
X223700Y539750D02*Y537500D01*
Y539750D02*X224450Y540500D01*
X225950D01*
X222950D02*X223700Y539750D01*
X227750Y541250D02*X228500D01*
X227750Y539750D02*X228500D01*
X233000Y537500D02*X236000D01*
X236750Y538250D01*
Y540050D02*Y538250D01*
X236000Y540800D02*X236750Y540050D01*
X233750Y540800D02*X236000D01*
X233750Y543500D02*Y537500D01*
X233000Y543500D02*X236000D01*
X236750Y542750D01*
Y541550D01*
X236000Y540800D02*X236750Y541550D01*
X239300Y539750D02*Y537500D01*
Y539750D02*X240050Y540500D01*
X241550D01*
X238550D02*X239300Y539750D01*
G54D96*X243350Y542000D02*Y541850D01*
G54D95*Y539750D02*Y537500D01*
X247100Y540500D02*X247850Y539750D01*
X245600Y540500D02*X247100D01*
X244850Y539750D02*X245600Y540500D01*
X244850Y539750D02*Y538250D01*
X245600Y537500D01*
X247850Y540500D02*Y538250D01*
X248600Y537500D01*
X245600D02*X247100D01*
X247850Y538250D01*
X251150Y539750D02*Y537500D01*
Y539750D02*X251900Y540500D01*
X252650D01*
X253400Y539750D01*
Y537500D01*
X250400Y540500D02*X251150Y539750D01*
X260900Y543500D02*X261650Y542750D01*
X258650Y543500D02*X260900D01*
X257900Y542750D02*X258650Y543500D01*
X257900Y542750D02*Y541250D01*
X258650Y540500D01*
X260900D01*
X261650Y539750D01*
Y538250D01*
X260900Y537500D02*X261650Y538250D01*
X258650Y537500D02*X260900D01*
X257900Y538250D02*X258650Y537500D01*
G54D96*X263450Y542000D02*Y541850D01*
G54D95*Y539750D02*Y537500D01*
X264950Y543500D02*Y538250D01*
X265700Y537500D01*
X267200Y540500D02*X268700Y537500D01*
X270200Y540500D02*X268700Y537500D01*
X272750D02*X275000D01*
X272000Y538250D02*X272750Y537500D01*
X272000Y539750D02*Y538250D01*
Y539750D02*X272750Y540500D01*
X274250D01*
X275000Y539750D01*
X272000Y539000D02*X275000D01*
Y539750D02*Y539000D01*
X277550Y539750D02*Y537500D01*
Y539750D02*X278300Y540500D01*
X279800D01*
X276800D02*X277550Y539750D01*
X282350D02*Y537500D01*
Y539750D02*X283100Y540500D01*
X283850D01*
X284600Y539750D01*
Y537500D01*
Y539750D02*X285350Y540500D01*
X286100D01*
X286850Y539750D01*
Y537500D01*
X281600Y540500D02*X282350Y539750D01*
X290900Y540500D02*X291650Y539750D01*
X289400Y540500D02*X290900D01*
X288650Y539750D02*X289400Y540500D01*
X288650Y539750D02*Y538250D01*
X289400Y537500D01*
X291650Y540500D02*Y538250D01*
X292400Y537500D01*
X289400D02*X290900D01*
X291650Y538250D01*
X294950Y539750D02*Y537500D01*
Y539750D02*X295700Y540500D01*
X296450D01*
X297200Y539750D01*
Y537500D01*
X294200Y540500D02*X294950Y539750D01*
X200000Y558500D02*X203000D01*
X201500D02*Y552500D01*
G54D96*X204800Y557000D02*Y556850D01*
G54D95*Y554750D02*Y552500D01*
X207050Y558500D02*Y553250D01*
X207800Y552500D01*
X206300Y556250D02*X207800D01*
X209300Y558500D02*Y553250D01*
X210050Y552500D01*
X212300D02*X214550D01*
X211550Y553250D02*X212300Y552500D01*
X211550Y554750D02*Y553250D01*
Y554750D02*X212300Y555500D01*
X213800D01*
X214550Y554750D01*
X211550Y554000D02*X214550D01*
Y554750D02*Y554000D01*
X216350Y556250D02*X217100D01*
X216350Y554750D02*X217100D01*
X222350Y555500D02*X224600D01*
X221600Y554750D02*X222350Y555500D01*
X221600Y554750D02*Y553250D01*
X222350Y552500D01*
X224600D01*
X226400Y554750D02*Y553250D01*
Y554750D02*X227150Y555500D01*
X228650D01*
X229400Y554750D01*
Y553250D01*
X228650Y552500D02*X229400Y553250D01*
X227150Y552500D02*X228650D01*
X226400Y553250D02*X227150Y552500D01*
X231950Y554750D02*Y552500D01*
Y554750D02*X232700Y555500D01*
X233450D01*
X234200Y554750D01*
Y552500D01*
X231200Y555500D02*X231950Y554750D01*
X236750Y558500D02*Y553250D01*
X237500Y552500D01*
X236000Y556250D02*X237500D01*
X239750Y554750D02*Y552500D01*
Y554750D02*X240500Y555500D01*
X242000D01*
X239000D02*X239750Y554750D01*
X243800D02*Y553250D01*
Y554750D02*X244550Y555500D01*
X246050D01*
X246800Y554750D01*
Y553250D01*
X246050Y552500D02*X246800Y553250D01*
X244550Y552500D02*X246050D01*
X243800Y553250D02*X244550Y552500D01*
X248600Y558500D02*Y553250D01*
X249350Y552500D01*
X253550Y555500D02*X256550D01*
X261050Y558500D02*Y552500D01*
Y558500D02*X264050D01*
X261050Y555800D02*X263300D01*
X268100Y555500D02*X268850Y554750D01*
X266600Y555500D02*X268100D01*
X265850Y554750D02*X266600Y555500D01*
X265850Y554750D02*Y553250D01*
X266600Y552500D01*
X268850Y555500D02*Y553250D01*
X269600Y552500D01*
X266600D02*X268100D01*
X268850Y553250D01*
X271400Y558500D02*Y552500D01*
Y553250D02*X272150Y552500D01*
X273650D01*
X274400Y553250D01*
Y554750D02*Y553250D01*
X273650Y555500D02*X274400Y554750D01*
X272150Y555500D02*X273650D01*
X271400Y554750D02*X272150Y555500D01*
X276950Y554750D02*Y552500D01*
Y554750D02*X277700Y555500D01*
X279200D01*
X276200D02*X276950Y554750D01*
G54D96*X281000Y557000D02*Y556850D01*
G54D95*Y554750D02*Y552500D01*
X283250Y555500D02*X285500D01*
X282500Y554750D02*X283250Y555500D01*
X282500Y554750D02*Y553250D01*
X283250Y552500D01*
X285500D01*
X289550Y555500D02*X290300Y554750D01*
X288050Y555500D02*X289550D01*
X287300Y554750D02*X288050Y555500D01*
X287300Y554750D02*Y553250D01*
X288050Y552500D01*
X290300Y555500D02*Y553250D01*
X291050Y552500D01*
X288050D02*X289550D01*
X290300Y553250D01*
X293600Y558500D02*Y553250D01*
X294350Y552500D01*
X292850Y556250D02*X294350D01*
G54D96*X295850Y557000D02*Y556850D01*
G54D95*Y554750D02*Y552500D01*
X297350Y554750D02*Y553250D01*
Y554750D02*X298100Y555500D01*
X299600D01*
X300350Y554750D01*
Y553250D01*
X299600Y552500D02*X300350Y553250D01*
X298100Y552500D02*X299600D01*
X297350Y553250D02*X298100Y552500D01*
X302900Y554750D02*Y552500D01*
Y554750D02*X303650Y555500D01*
X304400D01*
X305150Y554750D01*
Y552500D01*
X302150Y555500D02*X302900Y554750D01*
X310400Y558500D02*Y552500D01*
X312350Y558500D02*X313400Y557450D01*
Y553550D01*
X312350Y552500D02*X313400Y553550D01*
X309650Y552500D02*X312350D01*
X309650Y558500D02*X312350D01*
X315950Y554750D02*Y552500D01*
Y554750D02*X316700Y555500D01*
X318200D01*
X315200D02*X315950Y554750D01*
X322250Y555500D02*X323000Y554750D01*
X320750Y555500D02*X322250D01*
X320000Y554750D02*X320750Y555500D01*
X320000Y554750D02*Y553250D01*
X320750Y552500D01*
X323000Y555500D02*Y553250D01*
X323750Y552500D01*
X320750D02*X322250D01*
X323000Y553250D01*
X325550Y555500D02*Y553250D01*
X326300Y552500D01*
X327050D01*
X327800Y553250D01*
Y555500D02*Y553250D01*
X328550Y552500D01*
X329300D01*
X330050Y553250D01*
Y555500D02*Y553250D01*
G54D96*X331850Y557000D02*Y556850D01*
G54D95*Y554750D02*Y552500D01*
X334100Y554750D02*Y552500D01*
Y554750D02*X334850Y555500D01*
X335600D01*
X336350Y554750D01*
Y552500D01*
X333350Y555500D02*X334100Y554750D01*
X340400Y555500D02*X341150Y554750D01*
X338900Y555500D02*X340400D01*
X338150Y554750D02*X338900Y555500D01*
X338150Y554750D02*Y553250D01*
X338900Y552500D01*
X340400D01*
X341150Y553250D01*
X338150Y551000D02*X338900Y550250D01*
X340400D01*
X341150Y551000D01*
Y555500D02*Y551000D01*
M02*
