G04 start of page 8 for group -4079 idx -4079 *
G04 Title: control, topsilk *
G04 Creator: pcb 20140316 *
G04 CreationDate: Thu 08 Jun 2017 03:46:08 AM GMT UTC *
G04 For: brian *
G04 Format: Gerber/RS-274X *
G04 PCB-Dimensions (mil): 6000.00 5000.00 *
G04 PCB-Coordinate-Origin: lower left *
%MOIN*%
%FSLAX25Y25*%
%LNTOPSILK*%
%ADD81C,0.0080*%
%ADD80C,0.0100*%
G54D80*X339000Y170000D02*Y168000D01*
Y179000D02*Y175500D01*
Y181500D02*X341000Y179000D01*
X339000Y181500D02*X337000Y179000D01*
X341000D01*
X336500Y182000D02*X341500D01*
X339000Y184500D02*Y182000D01*
Y165500D02*X337000Y168000D01*
X339000Y165000D02*Y162500D01*
Y165500D02*X341000Y168000D01*
X337000D02*X341000D01*
X336500Y165000D02*X341500D01*
G54D81*X348000Y177590D02*X348490Y177100D01*
X348000Y180530D02*Y177590D01*
Y180530D02*X348490Y181020D01*
X349470D01*
X349960Y180530D01*
Y177590D01*
X349470Y177100D02*X349960Y177590D01*
X348490Y177100D02*X349470D01*
X348000Y178080D02*X349960Y180040D01*
X348000Y170236D02*X348784Y171020D01*
Y167100D01*
X348000D02*X349470D01*
X163390Y72070D02*Y70600D01*
Y72070D02*X163880Y72560D01*
X164370D01*
X164860Y72070D01*
Y70600D01*
Y72070D02*X165350Y72560D01*
X165840D01*
X166330Y72070D01*
Y70600D01*
X162900Y72560D02*X163390Y72070D01*
X167506Y73540D02*Y73442D01*
Y72070D02*Y70600D01*
X168486Y74520D02*Y71090D01*
X168976Y70600D01*
X171916Y74520D02*Y70600D01*
X171426D02*X171916Y71090D01*
X170446Y70600D02*X171426D01*
X169956Y71090D02*X170446Y70600D01*
X169956Y72070D02*Y71090D01*
Y72070D02*X170446Y72560D01*
X171426D01*
X171916Y72070D01*
X175346Y70600D02*X176816D01*
X177306Y71090D01*
X176816Y71580D02*X177306Y71090D01*
X175346Y71580D02*X176816D01*
X174856Y72070D02*X175346Y71580D01*
X174856Y72070D02*X175346Y72560D01*
X176816D01*
X177306Y72070D01*
X174856Y71090D02*X175346Y70600D01*
X179952Y72560D02*X180442Y72070D01*
X178972Y72560D02*X179952D01*
X178482Y72070D02*X178972Y72560D01*
X178482Y72070D02*Y71090D01*
X178972Y70600D01*
X180442Y72560D02*Y71090D01*
X180932Y70600D01*
X178972D02*X179952D01*
X180442Y71090D01*
X182108Y74520D02*Y71090D01*
X182598Y70600D01*
X184068D02*X185538D01*
X186028Y71090D01*
X185538Y71580D02*X186028Y71090D01*
X184068Y71580D02*X185538D01*
X183578Y72070D02*X184068Y71580D01*
X183578Y72070D02*X184068Y72560D01*
X185538D01*
X186028Y72070D01*
X183578Y71090D02*X184068Y70600D01*
X188674Y72560D02*X189164Y72070D01*
X187694Y72560D02*X188674D01*
X187204Y72070D02*X187694Y72560D01*
X187204Y72070D02*Y71090D01*
X187694Y70600D01*
X189164Y72560D02*Y71090D01*
X189654Y70600D01*
X187694D02*X188674D01*
X189164Y71090D01*
X198900Y74620D02*X199880Y70700D01*
X200860Y74620D01*
X202036Y71190D02*X202526Y70700D01*
X202036Y74130D02*Y71190D01*
Y74130D02*X202526Y74620D01*
X203506D01*
X203996Y74130D01*
Y71190D01*
X203506Y70700D02*X203996Y71190D01*
X202526Y70700D02*X203506D01*
X202036Y71680D02*X203996Y73640D01*
X205172Y70700D02*X205662D01*
X206838Y71190D02*X207328Y70700D01*
X206838Y74130D02*Y71190D01*
Y74130D02*X207328Y74620D01*
X208308D01*
X208798Y74130D01*
Y71190D01*
X208308Y70700D02*X208798Y71190D01*
X207328Y70700D02*X208308D01*
X206838Y71680D02*X208798Y73640D01*
G54D80*X236500Y228500D02*Y218500D01*
X276500D01*
Y228500D01*
X266500Y218500D02*Y228500D01*
X256500Y218500D02*Y228500D01*
X276500D02*X236500D01*
Y218500D02*X246500D01*
Y228500D01*
X193500D02*Y218500D01*
X233500D01*
Y228500D01*
X223500Y218500D02*Y228500D01*
X213500Y218500D02*Y228500D01*
X233500D02*X193500D01*
Y218500D02*X203500D01*
Y228500D01*
X318500D02*Y218500D01*
X278500Y228500D02*X318500D01*
X278500D02*Y218500D01*
X288500Y228500D02*Y218500D01*
X298500Y228500D02*Y218500D01*
X278500D02*X318500D01*
X308500Y228500D02*X318500D01*
X308500D02*Y218500D01*
G54D81*X329500Y217500D02*G75*G03X329500Y217500I12500J0D01*G01*
X78500D02*G75*G03X78500Y217500I12500J0D01*G01*
G54D80*X118000Y228500D02*Y218500D01*
X168000D01*
X158000D02*Y228500D01*
X148000Y218500D02*Y228500D01*
X138000Y218500D02*Y228500D01*
X168000D02*X118000D01*
Y218500D02*X128000D01*
Y228500D01*
X168000Y218500D02*Y228500D01*
X79000Y192500D02*X319000D01*
X79000Y202500D02*X319000D01*
X79000D02*Y192500D01*
X89000Y202500D02*Y192500D01*
X99000Y202500D02*Y192500D01*
X109000Y202500D02*Y192500D01*
X119000Y202500D02*Y192500D01*
X129000Y202500D02*Y192500D01*
X139000Y202500D02*Y192500D01*
X149000Y202500D02*Y192500D01*
X159000Y202500D02*Y192500D01*
X169000Y202500D02*Y192500D01*
X179000Y202500D02*Y192500D01*
X189000Y202500D02*Y192500D01*
X199000Y202500D02*Y192500D01*
X209000Y202500D02*Y192500D01*
X219000Y202500D02*Y192500D01*
X229000Y202500D02*Y192500D01*
X239000Y202500D02*Y192500D01*
X249000Y202500D02*Y192500D01*
X259000Y202500D02*Y192500D01*
X269000Y202500D02*Y192500D01*
X279000Y202500D02*Y192500D01*
X289000Y202500D02*Y192500D01*
X299000Y202500D02*Y192500D01*
X309000Y202500D02*Y192500D01*
X319000Y202500D02*Y192500D01*
X79000Y132500D02*X319000D01*
X79000Y142500D02*X319000D01*
X79000D02*Y132500D01*
X89000Y142500D02*Y132500D01*
X99000Y142500D02*Y132500D01*
X109000Y142500D02*Y132500D01*
X119000Y142500D02*Y132500D01*
X129000Y142500D02*Y132500D01*
X139000Y142500D02*Y132500D01*
X149000Y142500D02*Y132500D01*
X159000Y142500D02*Y132500D01*
X169000Y142500D02*Y132500D01*
X179000Y142500D02*Y132500D01*
X189000Y142500D02*Y132500D01*
X199000Y142500D02*Y132500D01*
X209000Y142500D02*Y132500D01*
X219000Y142500D02*Y132500D01*
X229000Y142500D02*Y132500D01*
X239000Y142500D02*Y132500D01*
X249000Y142500D02*Y132500D01*
X259000Y142500D02*Y132500D01*
X269000Y142500D02*Y132500D01*
X279000Y142500D02*Y132500D01*
X289000Y142500D02*Y132500D01*
X299000Y142500D02*Y132500D01*
X309000Y142500D02*Y132500D01*
X319000Y142500D02*Y132500D01*
G54D81*X78500Y77000D02*G75*G03X78500Y77000I12500J0D01*G01*
X226700Y212500D02*X228000D01*
X226000Y213200D02*X226700Y212500D01*
X226000Y215800D02*Y213200D01*
Y215800D02*X226700Y216500D01*
X228000D01*
X229200Y216000D02*Y213000D01*
Y216000D02*X229700Y216500D01*
X230700D01*
X231200Y216000D01*
Y213000D01*
X230700Y212500D02*X231200Y213000D01*
X229700Y212500D02*X230700D01*
X229200Y213000D02*X229700Y212500D01*
X232400Y216500D02*Y212500D01*
Y216500D02*X234900Y212500D01*
Y216500D02*Y212500D01*
X236100Y216500D02*Y212500D01*
Y216500D02*X238600Y212500D01*
Y216500D02*Y212500D01*
X240300D02*X242300Y216500D01*
X239800D02*X242300D01*
X194200Y213000D02*X195500D01*
X193500Y213700D02*X194200Y213000D01*
X193500Y216300D02*Y213700D01*
Y216300D02*X194200Y217000D01*
X195500D01*
X196700Y216500D02*Y213500D01*
Y216500D02*X197200Y217000D01*
X198200D01*
X198700Y216500D01*
Y213500D01*
X198200Y213000D02*X198700Y213500D01*
X197200Y213000D02*X198200D01*
X196700Y213500D02*X197200Y213000D01*
X199900Y217000D02*Y213000D01*
Y217000D02*X202400Y213000D01*
Y217000D02*Y213000D01*
X203600Y217000D02*Y213000D01*
Y217000D02*X206100Y213000D01*
Y217000D02*Y213000D01*
X207300Y213500D02*X207800Y213000D01*
X207300Y214300D02*Y213500D01*
Y214300D02*X208000Y215000D01*
X208600D01*
X209300Y214300D01*
Y213500D01*
X208800Y213000D02*X209300Y213500D01*
X207800Y213000D02*X208800D01*
X207300Y215700D02*X208000Y215000D01*
X207300Y216500D02*Y215700D01*
Y216500D02*X207800Y217000D01*
X208800D01*
X209300Y216500D01*
Y215700D01*
X208600Y215000D02*X209300Y215700D01*
X202700Y205500D02*X204000D01*
X202000Y206200D02*X202700Y205500D01*
X202000Y208800D02*Y206200D01*
Y208800D02*X202700Y209500D01*
X204000D01*
X205200Y208700D02*X206000Y209500D01*
Y205500D01*
X205200D02*X206700D01*
X209400Y209500D02*X209900Y209000D01*
X208400Y209500D02*X209400D01*
X207900Y209000D02*X208400Y209500D01*
X207900Y209000D02*Y206000D01*
X208400Y205500D01*
X209400Y207700D02*X209900Y207200D01*
X207900Y207700D02*X209400D01*
X208400Y205500D02*X209400D01*
X209900Y206000D01*
Y207200D02*Y206000D01*
X242000Y210230D02*X243540D01*
X243925Y209845D01*
Y209075D01*
X243540Y208690D02*X243925Y209075D01*
X242385Y208690D02*X243540D01*
X242385Y210230D02*Y207150D01*
X243001Y208690D02*X243925Y207150D01*
X244849Y209614D02*X245465Y210230D01*
Y207150D01*
X244849D02*X246004D01*
X246928Y210230D02*X248468D01*
X246928D02*Y208690D01*
X247313Y209075D01*
X248083D01*
X248468Y208690D01*
Y207535D01*
X248083Y207150D02*X248468Y207535D01*
X247313Y207150D02*X248083D01*
X246928Y207535D02*X247313Y207150D01*
X263000Y215230D02*X264540D01*
X264925Y214845D01*
Y214075D01*
X264540Y213690D02*X264925Y214075D01*
X263385Y213690D02*X264540D01*
X263385Y215230D02*Y212150D01*
X264001Y213690D02*X264925Y212150D01*
X265849Y214614D02*X266465Y215230D01*
Y212150D01*
X265849D02*X267004D01*
X267928Y213305D02*X269468Y215230D01*
X267928Y213305D02*X269853D01*
X269468Y215230D02*Y212150D01*
X263539Y206650D02*X264540D01*
X263000Y207189D02*X263539Y206650D01*
X263000Y209191D02*Y207189D01*
Y209191D02*X263539Y209730D01*
X264540D01*
X265464Y209114D02*X266080Y209730D01*
Y206650D01*
X265464D02*X266619D01*
X267543Y209345D02*X267928Y209730D01*
X269083D01*
X269468Y209345D01*
Y208575D01*
X267543Y206650D02*X269468Y208575D01*
X267543Y206650D02*X269468D01*
X274500Y210230D02*X276040D01*
X276425Y209845D01*
Y209075D01*
X276040Y208690D02*X276425Y209075D01*
X274885Y208690D02*X276040D01*
X274885Y210230D02*Y207150D01*
X275501Y208690D02*X276425Y207150D01*
X277734D02*X279274Y210230D01*
X277349D02*X279274D01*
X107500Y208500D02*X109500D01*
X110000Y209000D01*
Y210200D02*Y209000D01*
X109500Y210700D02*X110000Y210200D01*
X108000Y210700D02*X109500D01*
X108000Y212500D02*Y208500D01*
X107500Y212500D02*X109500D01*
X110000Y212000D01*
Y211200D01*
X109500Y210700D02*X110000Y211200D01*
X111200Y212000D02*X111700Y212500D01*
X112700D01*
X113200Y212000D01*
X112700Y208500D02*X113200Y209000D01*
X111700Y208500D02*X112700D01*
X111200Y209000D02*X111700Y208500D01*
Y210700D02*X112700D01*
X113200Y212000D02*Y211200D01*
Y210200D02*Y209000D01*
Y210200D02*X112700Y210700D01*
X113200Y211200D02*X112700Y210700D01*
X125700Y211500D02*X127000D01*
X125000Y212200D02*X125700Y211500D01*
X125000Y214800D02*Y212200D01*
Y214800D02*X125700Y215500D01*
X127000D01*
X128200Y215000D02*Y212000D01*
Y215000D02*X128700Y215500D01*
X129700D01*
X130200Y215000D01*
Y212000D01*
X129700Y211500D02*X130200Y212000D01*
X128700Y211500D02*X129700D01*
X128200Y212000D02*X128700Y211500D01*
X131400Y215500D02*Y211500D01*
Y215500D02*X133900Y211500D01*
Y215500D02*Y211500D01*
X135100Y215500D02*Y211500D01*
Y215500D02*X137600Y211500D01*
Y215500D02*Y211500D01*
X139300D02*X140800Y213500D01*
Y215000D02*Y213500D01*
X140300Y215500D02*X140800Y215000D01*
X139300Y215500D02*X140300D01*
X138800Y215000D02*X139300Y215500D01*
X138800Y215000D02*Y214000D01*
X139300Y213500D01*
X140800D01*
X173700Y206000D02*X175000D01*
X173000Y206700D02*X173700Y206000D01*
X173000Y209300D02*Y206700D01*
Y209300D02*X173700Y210000D01*
X175000D01*
X176200Y209200D02*X177000Y210000D01*
Y206000D01*
X176200D02*X177700D01*
X178900Y210000D02*X180900D01*
X178900D02*Y208000D01*
X179400Y208500D01*
X180400D01*
X180900Y208000D01*
Y206500D01*
X180400Y206000D02*X180900Y206500D01*
X179400Y206000D02*X180400D01*
X178900Y206500D02*X179400Y206000D01*
X199000Y186500D02*Y183000D01*
X199500Y182500D01*
X200500D01*
X201000Y183000D01*
Y186500D02*Y183000D01*
X202200Y186000D02*X202700Y186500D01*
X203700D01*
X204200Y186000D01*
X203700Y182500D02*X204200Y183000D01*
X202700Y182500D02*X203700D01*
X202200Y183000D02*X202700Y182500D01*
Y184700D02*X203700D01*
X204200Y186000D02*Y185200D01*
Y184200D02*Y183000D01*
Y184200D02*X203700Y184700D01*
X204200Y185200D02*X203700Y184700D01*
X142700Y205500D02*X144000D01*
X142000Y206200D02*X142700Y205500D01*
X142000Y208800D02*Y206200D01*
Y208800D02*X142700Y209500D01*
X144000D01*
X145200Y208700D02*X146000Y209500D01*
Y205500D01*
X145200D02*X146700D01*
X147900Y207000D02*X149900Y209500D01*
X147900Y207000D02*X150400D01*
X149900Y209500D02*Y205500D01*
X304200Y212500D02*X305500D01*
X303500Y213200D02*X304200Y212500D01*
X303500Y215800D02*Y213200D01*
Y215800D02*X304200Y216500D01*
X305500D01*
X306700Y216000D02*Y213000D01*
Y216000D02*X307200Y216500D01*
X308200D01*
X308700Y216000D01*
Y213000D01*
X308200Y212500D02*X308700Y213000D01*
X307200Y212500D02*X308200D01*
X306700Y213000D02*X307200Y212500D01*
X309900Y216500D02*Y212500D01*
Y216500D02*X312400Y212500D01*
Y216500D02*Y212500D01*
X313600Y216500D02*Y212500D01*
Y216500D02*X316100Y212500D01*
Y216500D02*Y212500D01*
X318800Y216500D02*X319300Y216000D01*
X317800Y216500D02*X318800D01*
X317300Y216000D02*X317800Y216500D01*
X317300Y216000D02*Y213000D01*
X317800Y212500D01*
X318800Y214700D02*X319300Y214200D01*
X317300Y214700D02*X318800D01*
X317800Y212500D02*X318800D01*
X319300Y213000D01*
Y214200D02*Y213000D01*
X347000Y200000D02*X349000D01*
X349500Y200500D01*
Y201700D02*Y200500D01*
X349000Y202200D02*X349500Y201700D01*
X347500Y202200D02*X349000D01*
X347500Y204000D02*Y200000D01*
X347000Y204000D02*X349000D01*
X349500Y203500D01*
Y202700D01*
X349000Y202200D02*X349500Y202700D01*
X350700Y201500D02*X352700Y204000D01*
X350700Y201500D02*X353200D01*
X352700Y204000D02*Y200000D01*
X292539Y205650D02*X293540D01*
X292000Y206189D02*X292539Y205650D01*
X292000Y208191D02*Y206189D01*
Y208191D02*X292539Y208730D01*
X293540D01*
X294464Y208114D02*X295080Y208730D01*
Y205650D01*
X294464D02*X295619D01*
X296543Y208345D02*X296928Y208730D01*
X297698D01*
X298083Y208345D01*
X297698Y205650D02*X298083Y206035D01*
X296928Y205650D02*X297698D01*
X296543Y206035D02*X296928Y205650D01*
Y207344D02*X297698D01*
X298083Y208345D02*Y207729D01*
Y206959D02*Y206035D01*
Y206959D02*X297698Y207344D01*
X298083Y207729D02*X297698Y207344D01*
X315200Y205500D02*X316500D01*
X314500Y206200D02*X315200Y205500D01*
X314500Y208800D02*Y206200D01*
Y208800D02*X315200Y209500D01*
X316500D01*
X318200Y205500D02*X319700Y207500D01*
Y209000D02*Y207500D01*
X319200Y209500D02*X319700Y209000D01*
X318200Y209500D02*X319200D01*
X317700Y209000D02*X318200Y209500D01*
X317700Y209000D02*Y208000D01*
X318200Y207500D01*
X319700D01*
X292500Y215230D02*X294040D01*
X294425Y214845D01*
Y214075D01*
X294040Y213690D02*X294425Y214075D01*
X292885Y213690D02*X294040D01*
X292885Y215230D02*Y212150D01*
X293501Y213690D02*X294425Y212150D01*
X296504Y215230D02*X296889Y214845D01*
X295734Y215230D02*X296504D01*
X295349Y214845D02*X295734Y215230D01*
X295349Y214845D02*Y212535D01*
X295734Y212150D01*
X296504Y213844D02*X296889Y213459D01*
X295349Y213844D02*X296504D01*
X295734Y212150D02*X296504D01*
X296889Y212535D01*
Y213459D02*Y212535D01*
X337235Y173880D02*Y170800D01*
X338236Y173880D02*X338775Y173341D01*
Y171339D01*
X338236Y170800D02*X338775Y171339D01*
X336850Y170800D02*X338236D01*
X336850Y173880D02*X338236D01*
X340854D02*X341239Y173495D01*
X340084Y173880D02*X340854D01*
X339699Y173495D02*X340084Y173880D01*
X339699Y173495D02*Y171185D01*
X340084Y170800D01*
X340854Y172494D02*X341239Y172109D01*
X339699Y172494D02*X340854D01*
X340084Y170800D02*X340854D01*
X341239Y171185D01*
Y172109D02*Y171185D01*
X330735Y182380D02*Y179300D01*
X331736Y182380D02*X332275Y181841D01*
Y179839D01*
X331736Y179300D02*X332275Y179839D01*
X330350Y179300D02*X331736D01*
X330350Y182380D02*X331736D01*
X333199D02*X334739D01*
X333199D02*Y180840D01*
X333584Y181225D01*
X334354D01*
X334739Y180840D01*
Y179685D01*
X334354Y179300D02*X334739Y179685D01*
X333584Y179300D02*X334354D01*
X333199Y179685D02*X333584Y179300D01*
X333850Y190880D02*X335390D01*
X335775Y190495D01*
Y189725D01*
X335390Y189340D02*X335775Y189725D01*
X334235Y189340D02*X335390D01*
X334235Y190880D02*Y187800D01*
X334851Y189340D02*X335775Y187800D01*
X336699Y190264D02*X337315Y190880D01*
Y187800D01*
X336699D02*X337854D01*
X338778Y188185D02*X339163Y187800D01*
X338778Y188801D02*Y188185D01*
Y188801D02*X339317Y189340D01*
X339779D01*
X340318Y188801D01*
Y188185D01*
X339933Y187800D02*X340318Y188185D01*
X339163Y187800D02*X339933D01*
X338778Y189879D02*X339317Y189340D01*
X338778Y190495D02*Y189879D01*
Y190495D02*X339163Y190880D01*
X339933D01*
X340318Y190495D01*
Y189879D01*
X339779Y189340D02*X340318Y189879D01*
X341500Y151000D02*X343500D01*
X344000Y150500D01*
Y149500D01*
X343500Y149000D02*X344000Y149500D01*
X342000Y149000D02*X343500D01*
X342000Y151000D02*Y147000D01*
X342800Y149000D02*X344000Y147000D01*
X345200Y150200D02*X346000Y151000D01*
Y147000D01*
X345200D02*X346700D01*
X347900Y150200D02*X348700Y151000D01*
Y147000D01*
X347900D02*X349400D01*
X322039Y144650D02*X323040D01*
X321500Y145189D02*X322039Y144650D01*
X321500Y147191D02*Y145189D01*
Y147191D02*X322039Y147730D01*
X323040D01*
X323964Y147114D02*X324580Y147730D01*
Y144650D01*
X323964D02*X325119D01*
X326043Y147114D02*X326659Y147730D01*
Y144650D01*
X326043D02*X327198D01*
X334850Y160380D02*X336390D01*
X336775Y159995D01*
Y159225D01*
X336390Y158840D02*X336775Y159225D01*
X335235Y158840D02*X336390D01*
X335235Y160380D02*Y157300D01*
X335851Y158840D02*X336775Y157300D01*
X337699Y159764D02*X338315Y160380D01*
Y157300D01*
X337699D02*X338854D01*
X340163D02*X341318Y158840D01*
Y159995D02*Y158840D01*
X340933Y160380D02*X341318Y159995D01*
X340163Y160380D02*X340933D01*
X339778Y159995D02*X340163Y160380D01*
X339778Y159995D02*Y159225D01*
X340163Y158840D01*
X341318D01*
X342000Y140500D02*X344000D01*
X344500Y140000D01*
Y139000D01*
X344000Y138500D02*X344500Y139000D01*
X342500Y138500D02*X344000D01*
X342500Y140500D02*Y136500D01*
X343300Y138500D02*X344500Y136500D01*
X345700Y139700D02*X346500Y140500D01*
Y136500D01*
X345700D02*X347200D01*
X348400Y137000D02*X348900Y136500D01*
X348400Y140000D02*Y137000D01*
Y140000D02*X348900Y140500D01*
X349900D01*
X350400Y140000D01*
Y137000D01*
X349900Y136500D02*X350400Y137000D01*
X348900Y136500D02*X349900D01*
X348400Y137500D02*X350400Y139500D01*
X306700Y119000D02*X308000D01*
X306000Y119700D02*X306700Y119000D01*
X306000Y122300D02*Y119700D01*
Y122300D02*X306700Y123000D01*
X308000D01*
X309200Y122200D02*X310000Y123000D01*
Y119000D01*
X309200D02*X310700D01*
X311900Y119500D02*X312400Y119000D01*
X311900Y122500D02*Y119500D01*
Y122500D02*X312400Y123000D01*
X313400D01*
X313900Y122500D01*
Y119500D01*
X313400Y119000D02*X313900Y119500D01*
X312400Y119000D02*X313400D01*
X311900Y120000D02*X313900Y122000D01*
X330200Y91500D02*X331500D01*
X329500Y92200D02*X330200Y91500D01*
X329500Y94800D02*Y92200D01*
Y94800D02*X330200Y95500D01*
X331500D01*
X332700Y95000D02*X333200Y95500D01*
X334700D01*
X335200Y95000D01*
Y94000D01*
X332700Y91500D02*X335200Y94000D01*
X332700Y91500D02*X335200D01*
X336400Y94700D02*X337200Y95500D01*
Y91500D01*
X336400D02*X337900D01*
X335200Y110000D02*X336500D01*
X334500Y110700D02*X335200Y110000D01*
X334500Y113300D02*Y110700D01*
Y113300D02*X335200Y114000D01*
X336500D01*
X337700Y113200D02*X338500Y114000D01*
Y110000D01*
X337700D02*X339200D01*
X340400Y110500D02*X340900Y110000D01*
X340400Y111300D02*Y110500D01*
Y111300D02*X341100Y112000D01*
X341700D01*
X342400Y111300D01*
Y110500D01*
X341900Y110000D02*X342400Y110500D01*
X340900Y110000D02*X341900D01*
X340400Y112700D02*X341100Y112000D01*
X340400Y113500D02*Y112700D01*
Y113500D02*X340900Y114000D01*
X341900D01*
X342400Y113500D01*
Y112700D01*
X341700Y112000D02*X342400Y112700D01*
X318500Y125730D02*X320040D01*
X320425Y125345D01*
Y124575D01*
X320040Y124190D02*X320425Y124575D01*
X318885Y124190D02*X320040D01*
X318885Y125730D02*Y122650D01*
X319501Y124190D02*X320425Y122650D01*
X321349Y125114D02*X321965Y125730D01*
Y122650D01*
X321349D02*X322504D01*
X323428Y125345D02*X323813Y125730D01*
X324583D01*
X324968Y125345D01*
X324583Y122650D02*X324968Y123035D01*
X323813Y122650D02*X324583D01*
X323428Y123035D02*X323813Y122650D01*
Y124344D02*X324583D01*
X324968Y125345D02*Y124729D01*
Y123959D02*Y123035D01*
Y123959D02*X324583Y124344D01*
X324968Y124729D02*X324583Y124344D01*
X331500Y133730D02*X333040D01*
X333425Y133345D01*
Y132575D01*
X333040Y132190D02*X333425Y132575D01*
X331885Y132190D02*X333040D01*
X331885Y133730D02*Y130650D01*
X332501Y132190D02*X333425Y130650D01*
X334349Y133114D02*X334965Y133730D01*
Y130650D01*
X334349D02*X335504D01*
X336428Y133345D02*X336813Y133730D01*
X337968D01*
X338353Y133345D01*
Y132575D01*
X336428Y130650D02*X338353Y132575D01*
X336428Y130650D02*X338353D01*
X106000Y66500D02*X108000D01*
X108500Y67000D01*
Y68200D02*Y67000D01*
X108000Y68700D02*X108500Y68200D01*
X106500Y68700D02*X108000D01*
X106500Y70500D02*Y66500D01*
X106000Y70500D02*X108000D01*
X108500Y70000D01*
Y69200D01*
X108000Y68700D02*X108500Y69200D01*
X109700Y70000D02*X110200Y70500D01*
X111700D01*
X112200Y70000D01*
Y69000D01*
X109700Y66500D02*X112200Y69000D01*
X109700Y66500D02*X112200D01*
X128500Y108000D02*X130500D01*
X131000Y107500D01*
Y106500D01*
X130500Y106000D02*X131000Y106500D01*
X129000Y106000D02*X130500D01*
X129000Y108000D02*Y104000D01*
X129800Y106000D02*X131000Y104000D01*
X132200Y107500D02*X132700Y108000D01*
X133700D01*
X134200Y107500D01*
X133700Y104000D02*X134200Y104500D01*
X132700Y104000D02*X133700D01*
X132200Y104500D02*X132700Y104000D01*
Y106200D02*X133700D01*
X134200Y107500D02*Y106700D01*
Y105700D02*Y104500D01*
Y105700D02*X133700Y106200D01*
X134200Y106700D02*X133700Y106200D01*
X122500Y117500D02*X124500D01*
X125000Y117000D01*
Y116000D01*
X124500Y115500D02*X125000Y116000D01*
X123000Y115500D02*X124500D01*
X123000Y117500D02*Y113500D01*
X123800Y115500D02*X125000Y113500D01*
X126200Y117000D02*X126700Y117500D01*
X128200D01*
X128700Y117000D01*
Y116000D01*
X126200Y113500D02*X128700Y116000D01*
X126200Y113500D02*X128700D01*
M02*
