M48
INCH
T60C0.035
T59C0.020
T58C0.012
T57C0.177
T56C0.044
T55C0.028
T54C0.038
%
T58
X010860Y008170
X011320Y008610
X011320Y007720
X011620Y007720
X011630Y008610
X011920Y008610
X011920Y007720
X012230Y008610
X012230Y007720
X012430Y011100
X012440Y010780
X012540Y008610
X012540Y007720
X012860Y008600
X012860Y007720
X013320Y008170
X013330Y011980
X013350Y012230
X013460Y009850
X013600Y012250
X013770Y009850
X014100Y009530
X014200Y010390
X014240Y011320
X014270Y010100
X014610Y010260
X014920Y010100
X015200Y009870
X015200Y009520
X015350Y012070
X015390Y010490
X015400Y012780
X015440Y012420
X015670Y012070
X015730Y012780
X015750Y010490
X015970Y011320
X015980Y012070
X016040Y012780
X016150Y010490
X016290Y012070
X016350Y012780
X016550Y010480
X016600Y012060
X016660Y012780
X016970Y012780
X017060Y012420
X017410Y012320
X018430Y011300
X018740Y011310
X018870Y011890
X018870Y011590
X022670Y007510
X022670Y006940
X022860Y008040
X023340Y008080
X023450Y008570
X023570Y006940
X023850Y008570
X024230Y008570
X024400Y007240
X024400Y006900
X024630Y008570
X024980Y007530
T59
X008300Y017400
X010600Y016000
X010600Y014850
X011400Y015300
X014900Y013300
X015800Y022000
X016800Y018050
X017250Y018050
X017350Y020950
X017650Y016700
X018100Y021800
X018100Y016700
X020350Y020950
X021050Y016400
X021250Y021100
X021250Y020400
X021400Y018750
X023200Y021150
X023250Y014600
X023650Y021300
X024100Y021350
X024900Y014200
X025150Y017700
X025450Y017350
X026150Y016250
X026500Y018600
X027000Y021350
X027250Y018600
X028550Y018200
X028650Y020300
X029200Y017850
X030800Y015250
X031050Y021550
X031150Y017900
X031250Y015650
X031500Y020750
X031700Y015950
X032650Y019300
X032900Y015740
X033150Y019300
X033250Y013100
X033400Y016100
X033400Y015650
X034100Y019650
X034450Y015250
X034800Y019500
X034900Y015900
T55
X019432Y015422
X020219Y015422
X021006Y015422
X021794Y015422
X022581Y015422
X023368Y015422
X025432Y015422
X026219Y015422
X027006Y015422
X027794Y015422
X028581Y015422
X029368Y015422
X032322Y016294
X032322Y015506
X032322Y011518
X032322Y010731
X032322Y009944
X032322Y009156
X032322Y008369
X032322Y007582
T60
X014350Y018550
X015150Y017800
X020000Y016600
X020750Y017000
X020900Y012900
X022250Y017000
X022600Y017650
X023400Y018450
X025900Y012400
T54
X008400Y019750
X008400Y013750
X009400Y019750
X009400Y013750
X010400Y019750
X010400Y013750
X011400Y019750
X011400Y013750
X012300Y022350
X012400Y019750
X012400Y013750
X013300Y022350
X013400Y019750
X013400Y013750
X014300Y022350
X014400Y019750
X014400Y013750
X015300Y022350
X015400Y019750
X015400Y013750
X016300Y022350
X016400Y019750
X016400Y013750
X017400Y019750
X017400Y013750
X018400Y019750
X018400Y013750
X019400Y019750
X019400Y013750
X019850Y022350
X020400Y019750
X020400Y013750
X020850Y022350
X021400Y019750
X021400Y013750
X021850Y022350
X022400Y019750
X022400Y013750
X022850Y022350
X023400Y019750
X023400Y013750
X024150Y022350
X024400Y019750
X024400Y013750
X025150Y022350
X025400Y019750
X025400Y013750
X026150Y022350
X026400Y019750
X026400Y013750
X027150Y022350
X027400Y019750
X027400Y013750
X028350Y022350
X028400Y019750
X028400Y013750
X029350Y022350
X029400Y019750
X029400Y013750
X030350Y022350
X030400Y019750
X030400Y013750
X031350Y022350
X031400Y019750
X031400Y013750
T56
X018841Y016148
X023959Y016148
X024841Y016148
X029959Y016148
X033048Y016884
X033048Y014916
X033048Y012109
X033048Y006991
T57
X009100Y021750
X009100Y007700
X034200Y021750
M30
