G04 start of page 6 for group -4063 idx -4063 *
G04 Title: control, componentmask *
G04 Creator: pcb 20140316 *
G04 CreationDate: Thu 08 Jun 2017 03:46:08 AM GMT UTC *
G04 For: brian *
G04 Format: Gerber/RS-274X *
G04 PCB-Dimensions (mil): 6000.00 5000.00 *
G04 PCB-Coordinate-Origin: lower left *
%MOIN*%
%FSLAX25Y25*%
%LNTOPMASK*%
%ADD66R,0.0355X0.0355*%
%ADD65C,0.2050*%
%ADD64C,0.0757*%
%ADD63C,0.0640*%
%ADD62C,0.0660*%
%ADD61C,0.0001*%
G54D61*G36*
X195200Y226800D02*Y220200D01*
X201800D01*
Y226800D01*
X195200D01*
G37*
G54D62*X208500Y223500D03*
X218500D03*
X143000D03*
X153000D03*
X163000D03*
X228500D03*
X214000Y137500D03*
X224000D03*
X234000D03*
X244000D03*
G54D63*X233685Y154217D03*
G54D64*X239591Y161484D03*
G54D63*X225811Y154217D03*
X217937D03*
X210063D03*
X202189D03*
X194315D03*
G54D64*X188409Y161484D03*
G54D63*X254315Y154217D03*
G54D64*X248409Y161484D03*
G54D61*G36*
X310200Y226800D02*Y220200D01*
X316800D01*
Y226800D01*
X310200D01*
G37*
G54D65*X342000Y217500D03*
G54D62*X314000Y197500D03*
X303500Y223500D03*
X304000Y197500D03*
X294000D03*
X293500Y223500D03*
X283500D03*
G54D61*G36*
X238200Y226800D02*Y220200D01*
X244800D01*
Y226800D01*
X238200D01*
G37*
G54D62*X251500Y223500D03*
X261500D03*
X271500D03*
X284000Y197500D03*
X274000D03*
X264000D03*
X254000D03*
X244000D03*
X234000D03*
X224000D03*
X214000D03*
X204000D03*
X194000D03*
X184000D03*
X174000D03*
X164000D03*
X154000D03*
X144000D03*
X254000Y137500D03*
X264000D03*
X274000D03*
G54D63*X323217Y75815D03*
G54D64*X330484Y69909D03*
G54D63*X323217Y83689D03*
Y91563D03*
Y99437D03*
Y107311D03*
Y115185D03*
G54D62*X284000Y137500D03*
X294000D03*
X304000D03*
X314000D03*
G54D63*X323217Y155063D03*
Y162937D03*
G54D64*X330484Y149157D03*
Y168843D03*
Y121091D03*
G54D63*X293685Y154217D03*
X285811D03*
X277937D03*
X270063D03*
X262189D03*
G54D64*X299591Y161484D03*
G54D65*X91000Y217500D03*
G54D61*G36*
X119700Y226800D02*Y220200D01*
X126300D01*
Y226800D01*
X119700D01*
G37*
G54D62*X133000Y223500D03*
X134000Y197500D03*
X124000D03*
X114000D03*
X104000D03*
X94000D03*
X84000D03*
G54D61*G36*
X80700Y140800D02*Y134200D01*
X87300D01*
Y140800D01*
X80700D01*
G37*
G54D65*X91000Y77000D03*
G54D62*X94000Y137500D03*
X104000D03*
X114000D03*
X124000D03*
X134000D03*
X144000D03*
X154000D03*
X164000D03*
X174000D03*
X184000D03*
X194000D03*
X204000D03*
G54D66*X193941Y207992D02*Y207008D01*
X199059Y207992D02*Y207008D01*
X164441Y207992D02*Y207008D01*
X169559Y207992D02*Y207008D01*
X153441Y207992D02*Y207008D01*
X158559Y207992D02*Y207008D01*
X283941Y207992D02*Y207008D01*
X244941Y213992D02*Y213008D01*
X250059Y213992D02*Y213008D01*
X254941Y213992D02*Y213008D01*
X260059Y213992D02*Y213008D01*
X254941Y207992D02*Y207008D01*
X260059Y207992D02*Y207008D01*
X273941Y213992D02*Y213008D01*
X279059Y213992D02*Y213008D01*
X283941Y213992D02*Y213008D01*
X289059Y213992D02*Y213008D01*
Y207992D02*Y207008D01*
X305941Y207992D02*Y207008D01*
X311059Y207992D02*Y207008D01*
X344008Y176441D02*X344992D01*
X344008Y181559D02*X344992D01*
X344008Y186441D02*X344992D01*
X344008Y191559D02*X344992D01*
X330441Y100492D02*Y99508D01*
X335559Y100492D02*Y99508D01*
X330508Y108941D02*X331492D01*
X330508Y114059D02*X331492D01*
X306941Y127492D02*Y126508D01*
X312059Y127492D02*Y126508D01*
X323441Y141492D02*Y140508D01*
X328559Y141492D02*Y140508D01*
Y129492D02*Y128508D01*
X323441Y129492D02*Y128508D01*
Y135492D02*Y134508D01*
X328559Y135492D02*Y134508D01*
X337008Y151559D02*X337992D01*
X337008Y146441D02*X337992D01*
X337008Y141559D02*X337992D01*
X337008Y136441D02*X337992D01*
X344008Y161559D02*X344992D01*
X344008Y156441D02*X344992D01*
X344008Y166441D02*X344992D01*
X344008Y171559D02*X344992D01*
X133100Y115892D02*Y114908D01*
X138218Y115892D02*Y114908D01*
X137908Y110218D02*X138892D01*
X137908Y105100D02*X138892D01*
M02*
