G04 start of page 3 for group 1 idx 1 *
G04 Title: control, bottom *
G04 Creator: pcb 20140316 *
G04 CreationDate: Thu 08 Jun 2017 03:46:08 AM GMT UTC *
G04 For: brian *
G04 Format: Gerber/RS-274X *
G04 PCB-Dimensions (mil): 6000.00 5000.00 *
G04 PCB-Coordinate-Origin: lower left *
%MOIN*%
%FSLAX25Y25*%
%LNBOTTOM*%
%ADD52C,0.1770*%
%ADD51C,0.0437*%
%ADD50C,0.0279*%
%ADD49C,0.0380*%
%ADD48C,0.0350*%
%ADD47C,0.0118*%
%ADD46C,0.0360*%
%ADD45C,0.0238*%
%ADD44R,0.0700X0.0700*%
%ADD43R,0.1181X0.1181*%
%ADD42R,0.0165X0.0165*%
%ADD41R,0.0473X0.0473*%
%ADD40R,0.0200X0.0200*%
%ADD39R,0.0512X0.0512*%
%ADD38R,0.0630X0.0630*%
%ADD37R,0.0295X0.0295*%
%ADD36C,0.2000*%
%ADD35C,0.0597*%
%ADD34C,0.0480*%
%ADD33C,0.0600*%
%ADD32C,0.0200*%
%ADD31C,0.0250*%
%ADD30C,0.0100*%
%ADD29C,0.0001*%
G54D29*G36*
X224400Y67000D02*Y86400D01*
X225800Y87800D01*
X247000D01*
X251100Y83700D01*
Y67000D01*
X224400D01*
G37*
G36*
X253000D02*Y104000D01*
X250000Y107000D01*
X232000D01*
Y127500D01*
X300500D01*
Y120500D01*
X319000D01*
Y67000D01*
X253000D01*
G37*
G36*
X176300Y129100D02*Y121400D01*
X174900Y120000D01*
X167800D01*
X166800Y119000D01*
Y92200D01*
X142800D01*
X140700Y90100D01*
Y67000D01*
X107000D01*
Y90000D01*
X131700D01*
X133300Y91600D01*
Y105100D01*
X141500D01*
X143800Y107400D01*
Y108200D01*
X144500Y108900D01*
X152000D01*
X152600Y109500D01*
Y129200D01*
X176300D01*
Y129100D01*
G37*
G36*
X131900Y96000D02*X109800D01*
X107000Y98800D01*
Y109000D01*
X110200Y112200D01*
X139600D01*
X140700Y111100D01*
X144100D01*
X144500Y111500D01*
X151600D01*
Y109800D01*
X144400D01*
X141500Y106900D01*
X133500D01*
X131700Y105100D01*
Y96200D01*
X131900Y96000D01*
G37*
G36*
X137600Y117300D02*X134300D01*
X132200Y119400D01*
Y122600D01*
X133200Y123600D01*
X136500D01*
X137600Y122500D01*
Y117300D01*
G37*
G36*
X183800Y118700D02*X186600D01*
X188000Y120100D01*
X189700D01*
X190700Y119100D01*
Y114900D01*
X187500Y111700D01*
X183100D01*
Y113700D01*
X183800Y114400D01*
Y118700D01*
G37*
G36*
X167800Y111500D02*X175000D01*
Y110900D01*
X176600Y109300D01*
X187300D01*
X195200Y117200D01*
X219600D01*
X222000Y114800D01*
Y105600D01*
X210000Y93600D01*
X177200D01*
X167800Y103000D01*
Y111500D01*
G37*
G36*
X214100Y90000D02*X227100Y103000D01*
X249500D01*
Y92300D01*
X236600D01*
X233300Y89000D01*
X225300D01*
X222000Y85700D01*
Y67100D01*
X157700D01*
X142700Y82100D01*
Y90000D01*
X214100D01*
G37*
G54D30*X225500Y91500D02*Y116600D01*
G54D31*X229500Y118500D02*Y99500D01*
G54D30*X229000Y135500D02*X231500Y133000D01*
G54D31*X230500Y130000D02*X224000Y136500D01*
G54D30*X225500Y91500D02*X214500Y80500D01*
X163500D01*
X177759Y108082D02*X178700Y107141D01*
X171275Y108082D02*X177759D01*
X168716Y110641D02*X171275Y108082D01*
G54D31*X323217Y107311D02*X299811D01*
X299500Y107000D01*
X230500Y130000D02*X301500D01*
X303000Y128500D01*
G54D30*X231500Y133000D02*X330500D01*
G54D31*X209000Y132000D02*Y129000D01*
X199000Y133000D02*Y129500D01*
X204500Y124000D01*
X303000Y128500D02*Y124000D01*
X304500Y122500D01*
X317000D01*
X321000Y126500D01*
X335000D01*
X336500Y125000D01*
G54D30*X332500Y131000D02*X330500Y133000D01*
G54D31*X336500Y112720D02*X323217Y99437D01*
X324280Y100500D02*X323280Y99500D01*
G54D30*X323217Y91689D02*X339500Y107972D01*
X323217Y83689D02*X341500Y101972D01*
X323217Y75815D02*X343500Y96098D01*
G54D31*X336500Y125000D02*Y112720D01*
G54D30*X341500Y101972D02*Y131500D01*
X339500Y107972D02*Y130500D01*
X335000Y135000D01*
X336000Y137000D02*X341500Y131500D01*
X343500Y96098D02*Y136000D01*
X335000Y135000D02*X325500D01*
X140000Y216500D02*X133000Y223500D01*
X141500Y190000D02*X134000Y197500D01*
X123000Y223500D02*X132000Y214500D01*
G54D31*X143500Y185500D02*X116000D01*
G54D30*X194000Y159000D02*X193000D01*
X211000Y164000D02*X212000Y165000D01*
G54D31*X207500Y170000D02*X206000Y171500D01*
X129000Y156500D02*X144000Y171500D01*
X206000D02*X144000D01*
G54D30*X210000Y177000D02*X165000D01*
X181000Y167000D02*Y159000D01*
X176500Y160000D02*Y167000D01*
X140000Y216500D02*X179500D01*
X178500Y221500D02*X176000Y219000D01*
X159000D01*
X158000Y220000D01*
X165000Y177000D02*X152000Y190000D01*
X141500D01*
X159000Y201500D02*Y189500D01*
X168000Y180500D01*
G54D31*X151500Y178000D02*X114500D01*
X104500Y188000D01*
G54D30*X171500Y202000D02*X169000Y199500D01*
Y184000D01*
X172500Y180500D01*
X132000Y214500D02*X193500D01*
X106000Y209500D02*X203500D01*
X209000Y215000D01*
X164000Y197500D02*X170500Y204000D01*
X159000Y201500D02*X163500Y206000D01*
X170500Y204000D02*X207000D01*
X210500Y207500D01*
X171500Y202000D02*X210500D01*
X163500Y206000D02*X205500D01*
X210500Y211000D01*
G54D31*X116000Y185500D02*X104000Y197500D01*
G54D30*X94000D02*X106000Y209500D01*
G54D31*X104500Y188000D02*X93500D01*
X84000Y197500D01*
G54D30*X87000Y179500D02*Y184000D01*
X92250Y189250D01*
X92059Y179500D02*X96941D01*
Y173000D02*X92059D01*
X96941Y166500D02*X92059D01*
X96941Y160000D02*X92059D01*
X102059Y179500D02*Y160000D01*
X86941D02*Y158059D01*
X84000Y164500D02*Y156500D01*
X86000Y154500D01*
X82000Y168059D02*Y153441D01*
X86941Y158059D02*X88500Y156500D01*
X129000D01*
X102059Y160000D02*X106000D01*
X114000Y153000D02*X112500Y154500D01*
X86000D02*X112500D01*
X86941Y166500D02*X86000D01*
X84000Y164500D01*
X86941Y173000D02*X82000Y168059D01*
X87000Y173059D02*X83941D01*
X83000Y174000D01*
X82000Y153441D02*X86941Y148500D01*
X92059D02*X96941D01*
X102059D02*X106000D01*
X129541Y115759D02*X128600Y116700D01*
X129541Y115759D02*X145330D01*
X142141Y118318D02*X141259Y119200D01*
X142141Y118318D02*X145330D01*
X142400Y113200D02*X145330D01*
X167377Y120877D02*X159700Y113200D01*
G54D31*X129000Y156500D02*Y142000D01*
G54D32*Y132500D01*
G54D31*X122500Y126000D01*
Y105500D01*
G54D30*X167377Y120877D02*X168716D01*
X199000Y133000D02*X149000D01*
X171393Y120877D02*Y123460D01*
X174141Y126208D02*X171393Y123460D01*
X179259Y121326D02*Y126700D01*
X179141Y121208D02*X179259Y121326D01*
X175759Y118318D02*X179141Y121700D01*
X168716Y118318D02*X175759D01*
X177759Y113200D02*X178700Y112259D01*
X168716Y113200D02*X177759D01*
X168716Y115759D02*X179259D01*
X180200Y116700D01*
X223500Y118600D02*X225500Y116600D01*
X220892Y121208D02*X223600Y118500D01*
X184259Y121208D02*X220892D01*
G54D31*X224000Y124000D02*X229500Y118500D01*
X224000Y124000D02*X204500D01*
G54D30*X229000Y142500D02*Y135500D01*
G54D31*X224000Y136500D02*Y137500D01*
G54D30*X217937Y154937D02*Y154217D01*
X225811D02*Y154811D01*
G54D31*X218500Y143000D02*X224000Y137500D01*
G54D32*X209000Y142000D02*Y132000D01*
G54D31*X218500Y143000D02*X216900D01*
X211400Y148500D01*
X210000D01*
X197441Y147500D02*Y146059D01*
X200500Y143000D01*
X189000Y151000D02*Y149000D01*
X194000Y144000D01*
G54D30*X194500D01*
G54D32*X199000Y139500D02*Y133000D01*
G54D30*X232500Y146000D02*X235500D01*
X179500Y216500D02*X181000Y218000D01*
X188500Y219000D02*X205000D01*
X188500D02*X186000Y221500D01*
X178500D01*
X193500Y214500D02*X196000Y217000D01*
X215500Y191000D02*X180500D01*
X188500Y193000D02*X216500D01*
X180500Y191000D02*X174000Y197500D01*
X184000D02*X188500Y193000D01*
X203500Y204000D02*X175500D01*
X210500Y202000D02*X212500Y204000D01*
X210500Y211000D02*X212500D01*
X217500Y189000D02*X215500Y191000D01*
X216500Y193000D02*X219500Y190000D01*
G54D31*X224000Y197500D02*Y194500D01*
G54D30*X212500Y211000D02*X211500D01*
X208500Y222500D02*X205000Y219000D01*
X196000Y217000D02*X237500D01*
X209000Y215000D02*X234500D01*
X241000Y213500D02*X237500Y217000D01*
X234500Y215000D02*X236500Y213000D01*
X210500Y207500D02*X228000D01*
X232000Y211500D01*
X217500Y184500D02*Y189000D01*
X219500Y190000D02*Y182500D01*
X218000Y181000D01*
X214000Y187500D02*Y151000D01*
X216000Y167000D02*Y183000D01*
X217500Y184500D01*
X212000Y165000D02*Y175000D01*
X210000Y177000D01*
X218000Y181000D02*Y168000D01*
X220500Y165500D01*
X216000Y167000D02*X219500Y163500D01*
G54D32*X193000Y159000D02*X190500Y156500D01*
G54D30*X190000D01*
X181000Y159000D02*X186000Y154000D01*
X184000Y152500D02*X176500Y160000D01*
X190000Y156500D02*X189500Y156000D01*
G54D31*X189000Y155500D01*
Y149000D01*
G54D30*X184000Y137500D02*Y152500D01*
X194000Y137500D02*X186000Y145500D01*
Y154000D01*
G54D31*X200000Y166000D02*Y165000D01*
X194000Y159000D01*
X194315Y154217D02*X197441Y151091D01*
X202189Y154217D02*X202500Y153906D01*
Y147500D01*
X197441Y151091D02*Y147500D01*
D03*
G54D32*X194500Y144000D02*X199000Y139500D01*
G54D30*X214000Y151000D02*X219000Y146000D01*
G54D31*X210063Y154217D02*X209500Y153654D01*
X210063Y154217D02*Y148437D01*
X209059Y143000D02*X209500Y143441D01*
G54D30*X219000Y146000D02*X225500D01*
X229000Y142500D01*
G54D31*X200500Y143000D02*X209059D01*
X222500Y170000D02*X227500D01*
G54D30*Y165500D02*X220500D01*
X219500Y163500D02*X228500D01*
X229000Y161000D02*X224000D01*
X217937Y154937D01*
X235500Y146000D02*X246500Y157000D01*
X233685Y154217D02*X239717D01*
X244000Y158500D01*
X237000Y166000D02*X243000D01*
X236000Y168000D02*X242000D01*
X243000Y166000D02*X245000Y168000D01*
X242000D02*X244000Y170000D01*
Y158500D02*Y164000D01*
X246000Y166000D01*
X243000Y172000D02*X241000Y170000D01*
X242000Y174000D02*X248500D01*
X251500Y177000D01*
X243000Y172000D02*X253000D01*
X254500Y173500D01*
G54D31*X236500Y178500D02*X238500Y180500D01*
X241500D01*
G54D30*X262189Y154217D02*X279000Y171028D01*
Y182500D01*
X282030Y185530D01*
X293530D01*
X285500Y182000D02*X285811Y181689D01*
Y154217D01*
X241000Y170000D02*X235000D01*
X242000Y174000D02*X240000Y172000D01*
G54D31*X238500Y175000D02*X240500Y177000D01*
X243500D01*
G54D30*X240000Y172000D02*X234000D01*
G54D31*X232500Y175000D02*X238500D01*
X236500Y178500D02*X228000D01*
X227500Y170000D02*X232500Y175000D01*
X226000Y176500D02*X228000Y178500D01*
G54D30*X234000Y172000D02*X227500Y165500D01*
X235000Y170000D02*X228500Y163500D01*
G54D31*X224000Y194500D02*X234000Y184500D01*
G54D30*X236000Y168000D02*X229000Y161000D01*
X237000Y166000D02*X225811Y154811D01*
X246000Y166000D02*X261500D01*
X245000Y168000D02*X258000D01*
X256500Y170000D02*X244000D01*
X261500Y166000D02*X267000Y171500D01*
X258000Y168000D02*X260000Y170000D01*
X258000Y171500D02*X256500Y170000D01*
X267000Y171500D02*Y183000D01*
X260000Y170000D02*Y185500D01*
X264000Y192500D02*X258000Y186500D01*
Y171500D01*
G54D31*X241500Y180500D02*X249000Y188000D01*
Y192000D01*
G54D30*X307500Y185559D02*X307559Y185500D01*
X318500D01*
X307530Y185530D02*X293502D01*
X307500Y180441D02*X307559Y180500D01*
X311500Y179000D02*Y180500D01*
X307500D02*X294000D01*
X307559D02*X318500D01*
X318250Y175500D02*X317500Y174750D01*
Y171000D01*
X294000Y180500D02*X292000Y178500D01*
X329500Y137000D02*X312500Y154000D01*
X325500Y135000D02*X308000Y152500D01*
X323217Y155063D02*Y157217D01*
X325500Y144500D02*X317000Y153000D01*
X329500Y157000D02*X329000Y156500D01*
X317500Y171000D02*X284000Y137500D01*
X281468Y142000D02*X293685Y154217D01*
X294000Y143500D02*Y137500D01*
X312500Y154000D02*Y156500D01*
X317000Y153000D02*Y159500D01*
X321500Y171000D02*X294000Y143500D01*
X321500Y171800D02*X324000Y174300D01*
X323217Y157217D02*X327500Y161500D01*
X329500D02*Y157000D01*
X327500Y161500D02*Y164500D01*
X326000Y166000D01*
Y170500D02*Y166000D01*
G54D31*X256941Y147000D02*Y151591D01*
X254315Y154217D01*
G54D30*X251500Y157000D02*X257000Y162500D01*
X261500D01*
G54D31*X262059Y147000D02*Y154087D01*
X262189Y154217D01*
G54D30*X274500Y188000D02*X272500Y186000D01*
X269000Y187000D02*Y185000D01*
X267000Y183000D01*
X249000Y142000D02*X281468D01*
X246500Y157000D02*X251500D01*
X343500Y136000D02*X335000Y144500D01*
X336000Y137000D02*X329500D01*
X335000Y144500D02*X325500D01*
X338750Y175500D02*X341500D01*
X333000Y178000D02*Y177500D01*
X348000Y175500D02*X340500Y168000D01*
X336000D01*
X341500Y175500D02*X344500Y178500D01*
X333000Y177500D02*X326000Y170500D01*
X331000Y178500D02*X324000Y171500D01*
Y163720D01*
X323217Y162937D01*
X321500Y171000D02*Y171800D01*
X324000Y174300D02*Y188500D01*
X334000Y161000D02*X347000D01*
X349000Y159000D01*
X334000Y156500D02*X340500D01*
X344500Y152500D01*
X329500Y161500D02*X336000Y168000D01*
X293500Y223500D02*X299000Y218000D01*
X283500Y223500D02*X290500Y216500D01*
X274000Y221000D02*X271500Y223500D01*
X270000Y213500D02*X261500Y222000D01*
X299000Y218000D02*Y195000D01*
X290500Y216500D02*Y201000D01*
X289000Y199500D01*
X289100Y196000D01*
X286500Y203000D02*X274000Y215500D01*
Y221000D01*
G54D31*X261500Y223500D02*X259000Y221000D01*
Y203000D01*
X251500Y223500D02*X249000Y221000D01*
G54D30*X261500Y222000D02*Y223500D01*
G54D32*X259000Y203000D02*Y192500D01*
G54D31*X249000Y221000D02*Y202500D01*
G54D32*Y192000D01*
G54D31*X259000Y192500D02*X243500Y177000D01*
G54D30*X338750Y180500D02*X335000D01*
X333000Y178000D01*
X331000Y178500D02*Y181500D01*
X335000Y185500D01*
X339000D01*
X318250Y190500D02*X322000D01*
X338750D02*X338559D01*
X322000D02*X324000Y188500D01*
X344500Y178500D02*Y192500D01*
X344000Y193000D01*
X340000D01*
X348000Y195000D02*Y175500D01*
X299000Y195000D02*X292000Y188000D01*
X310500Y215500D02*X313500Y218500D01*
Y223500D01*
X315000Y207500D02*X330000D01*
X341000Y196500D01*
X335000Y198000D02*Y199500D01*
X333500Y201000D01*
X338559Y190500D02*X331559Y197500D01*
X340000Y193000D02*X335000Y198000D01*
X326441Y197500D02*X326500Y197441D01*
X333500Y201000D02*X327500D01*
X326500Y200000D01*
Y193000D02*Y200000D01*
X331500Y193000D02*Y197559D01*
X292000Y188000D02*X274500D01*
X289100Y196000D02*X285100Y192000D01*
X270500D01*
X286500Y190000D02*X272000D01*
X294000Y197500D02*X286500Y190000D01*
X274000Y197500D02*X270500Y194000D01*
X265000Y186000D02*X270500Y192000D01*
Y194000D02*X268500D01*
X260000Y185500D01*
X264000Y197500D02*Y192500D01*
X272000Y190000D02*X269000Y187000D01*
G54D29*G36*
X195500Y226500D02*Y220500D01*
X201500D01*
Y226500D01*
X195500D01*
G37*
G54D33*X208500Y223500D03*
X218500D03*
X143000D03*
X153000D03*
X163000D03*
X228500D03*
X214000Y137500D03*
X224000D03*
X234000D03*
X244000D03*
G54D34*X233685Y154217D03*
G54D35*X239591Y161484D03*
G54D34*X225811Y154217D03*
X217937D03*
X210063D03*
X202189D03*
X194315D03*
G54D35*X188409Y161484D03*
G54D34*X254315Y154217D03*
G54D35*X248409Y161484D03*
G54D29*G36*
X310500Y226500D02*Y220500D01*
X316500D01*
Y226500D01*
X310500D01*
G37*
G54D36*X342000Y217500D03*
G54D33*X314000Y197500D03*
X303500Y223500D03*
X304000Y197500D03*
X294000D03*
X293500Y223500D03*
X283500D03*
G54D29*G36*
X238500Y226500D02*Y220500D01*
X244500D01*
Y226500D01*
X238500D01*
G37*
G54D33*X251500Y223500D03*
X261500D03*
X271500D03*
X284000Y197500D03*
X274000D03*
X264000D03*
X254000D03*
X244000D03*
X234000D03*
X224000D03*
X214000D03*
X204000D03*
X194000D03*
X184000D03*
X174000D03*
X164000D03*
X154000D03*
X144000D03*
X254000Y137500D03*
X264000D03*
X274000D03*
G54D34*X323217Y75815D03*
G54D35*X330484Y69909D03*
G54D34*X323217Y83689D03*
Y91563D03*
Y99437D03*
Y107311D03*
Y115185D03*
G54D33*X284000Y137500D03*
X294000D03*
X304000D03*
X314000D03*
G54D34*X323217Y155063D03*
Y162937D03*
G54D35*X330484Y149157D03*
Y168843D03*
Y121091D03*
G54D34*X293685Y154217D03*
X285811D03*
X277937D03*
X270063D03*
X262189D03*
G54D35*X299591Y161484D03*
G54D36*X91000Y217500D03*
G54D29*G36*
X120000Y226500D02*Y220500D01*
X126000D01*
Y226500D01*
X120000D01*
G37*
G54D33*X133000Y223500D03*
X134000Y197500D03*
X124000D03*
X114000D03*
X104000D03*
X94000D03*
X84000D03*
G54D29*G36*
X81000Y140500D02*Y134500D01*
X87000D01*
Y140500D01*
X81000D01*
G37*
G54D36*X91000Y77000D03*
G54D33*X94000Y137500D03*
X104000D03*
X114000D03*
X124000D03*
X134000D03*
X144000D03*
X154000D03*
X164000D03*
X174000D03*
X184000D03*
X194000D03*
X204000D03*
G54D37*X209008Y148559D02*X209992D01*
X209008Y143441D02*X209992D01*
X202559Y147992D02*Y147008D01*
X197441Y147992D02*Y147008D01*
X96941Y160492D02*Y159508D01*
Y166992D02*Y166008D01*
Y173492D02*Y172508D01*
Y179992D02*Y179008D01*
X102059Y148992D02*Y148008D01*
Y160492D02*Y159508D01*
Y166992D02*Y166008D01*
Y173492D02*Y172508D01*
Y179992D02*Y179008D01*
X96941Y148992D02*Y148008D01*
X92059Y148992D02*Y148008D01*
X86941Y148992D02*Y148008D01*
X92059Y160492D02*Y159508D01*
Y173492D02*Y172508D01*
Y179992D02*Y179008D01*
X86941Y160492D02*Y159508D01*
Y173492D02*Y172508D01*
Y179992D02*Y179008D01*
X92059Y166992D02*Y166008D01*
X86941Y166992D02*Y166008D01*
X262059Y147992D02*Y147008D01*
X256941Y147992D02*Y147008D01*
G54D29*G36*
X255311Y102289D02*Y75911D01*
X281689D01*
Y102289D01*
X255311D01*
G37*
G54D38*X239563Y80045D02*X245075D01*
X239563Y98155D02*X245075D01*
G54D39*X255643Y70593D02*Y69807D01*
X248557Y70593D02*Y69807D01*
G54D40*X315000Y175500D02*X321500D01*
X335500D02*X342000D01*
X315000Y180500D02*X321500D01*
X335500D02*X342000D01*
X335500Y190500D02*X342000D01*
X335500Y185500D02*X342000D01*
G54D37*X331559Y197992D02*Y197008D01*
X326441Y197992D02*Y197008D01*
G54D40*X315000Y185500D02*X321500D01*
X315000Y190500D02*X321500D01*
G54D37*X307008Y185559D02*X307992D01*
X307008Y180441D02*X307992D01*
X141159Y119792D02*Y118808D01*
X136041Y119792D02*Y118808D01*
G54D39*X128207Y116700D02*X128993D01*
X136207Y109600D02*X136993D01*
X128207Y109614D02*X128993D01*
X136207Y102514D02*X136993D01*
G54D41*X113126Y102236D02*X128874D01*
X113126Y81764D02*X128874D01*
G54D37*X180200Y117192D02*Y116208D01*
X185318Y117192D02*Y116208D01*
X184259Y122192D02*Y121208D01*
X179141Y122192D02*Y121208D01*
X179259Y127192D02*Y126208D01*
X174141Y127192D02*Y126208D01*
G54D42*X168716Y120877D02*X174070D01*
X168716Y118318D02*X174070D01*
X168716Y115759D02*X174070D01*
X168716Y113200D02*X174070D01*
G54D37*X178208Y112259D02*X179192D01*
G54D42*X168716Y110641D02*X174070D01*
X168716Y108082D02*X174070D01*
X168716Y105523D02*X174070D01*
G54D37*X178208Y107141D02*X179192D01*
G54D42*X145330Y105523D02*X150684D01*
X145330Y108082D02*X150684D01*
X145330Y110641D02*X150684D01*
X145330Y113200D02*X150684D01*
X145330Y115759D02*X150684D01*
X145330Y118318D02*X150684D01*
X145330Y120877D02*X150684D01*
G54D43*X159700Y113397D02*Y113003D01*
G54D39*X145319Y84995D02*X147681D01*
X145319Y96805D02*X147681D01*
X228707Y92343D02*X229493D01*
X228707Y85257D02*X229493D01*
G54D44*X199900Y110500D02*X206900D01*
X199900Y73500D02*X206900D01*
G54D45*X235700Y69400D03*
X226700Y75100D03*
Y69400D03*
X234500Y85700D03*
X228600Y80400D03*
X233400Y80800D03*
X238500Y85700D03*
X246300D03*
X249800Y75300D03*
X244000Y72400D03*
Y69000D03*
G54D46*X181000Y218000D03*
X173500Y209500D03*
X158000Y220000D03*
X214000Y187500D03*
G54D33*X222500Y170000D03*
X226000Y176500D03*
X207500Y170000D03*
G54D46*X210500Y164000D03*
X212500Y211000D03*
X203500Y209500D03*
X212500Y204000D03*
G54D33*X200000Y166000D03*
G54D46*X168000Y180500D03*
X172500D03*
X181000Y167000D03*
X176500D03*
G54D45*X242300Y85700D03*
G54D46*X241000Y213500D03*
G54D33*X234000Y184500D03*
G54D46*X232500Y146000D03*
X232000Y211500D03*
X236500Y213000D03*
X249000Y142000D03*
X292000Y178500D03*
X261500Y162500D03*
X254500Y173500D03*
X251500Y177000D03*
X265000Y186000D03*
X272500D03*
X286500Y203000D03*
X270000Y213500D03*
X285500Y182000D03*
X332500Y131000D03*
X317000Y159500D03*
X308000Y152500D03*
X329000Y157400D03*
X344500Y152500D03*
X310500Y215500D03*
X341000Y196500D03*
X326500Y193000D03*
X331500D03*
X348000Y195000D03*
X315000Y207500D03*
X311500Y179000D03*
X312500Y156500D03*
X349000Y159000D03*
X334000Y156500D03*
Y161000D03*
G54D45*X122300Y77200D03*
X128600D03*
X125400D03*
X119200D03*
X116200D03*
X113200D03*
X116300Y86100D03*
X133200Y81700D03*
X108600D03*
X113200Y86100D03*
X119200D03*
X122300D03*
X125400D03*
X128600Y86000D03*
X134600Y98500D03*
X137700D03*
X141000Y95300D03*
X142000Y103900D03*
X142700Y101000D03*
X146100Y102600D03*
X149200Y101000D03*
X152000Y98700D03*
G54D33*X151500Y178000D03*
X143500Y185500D03*
G54D46*X149000Y133000D03*
G54D45*X152000Y95200D03*
X153900Y104900D03*
X124400Y107800D03*
X124300Y111000D03*
G54D46*X83000Y174000D03*
X106000Y160000D03*
X114000Y153000D03*
G54D45*X157500Y104900D03*
X161500D03*
X165500Y104800D03*
X154400Y124200D03*
X136000Y122500D03*
X133500Y122300D03*
X133300Y119800D03*
X142400Y113200D03*
X170600Y124200D03*
X174100Y123200D03*
X169700Y127800D03*
X166600D03*
G54D33*X259000Y124000D03*
G54D45*X163500Y127800D03*
X160400D03*
X157300D03*
G54D33*X209000Y129000D03*
G54D45*X154000Y127800D03*
G54D46*X106000Y148500D03*
G54D45*X166000Y120600D03*
X184300Y113000D03*
X187400Y113100D03*
X188700Y115900D03*
Y118900D03*
X159700Y113200D03*
X162900Y120700D03*
X159800D03*
X156700D03*
X153500D03*
G54D47*G54D32*G54D48*G54D32*G54D48*G54D32*G54D47*G54D32*G54D48*G54D32*G54D47*G54D48*G54D32*G54D47*G54D32*G54D47*G54D48*G54D47*G54D48*G54D47*G54D32*G54D47*G54D49*G54D50*G54D51*G54D50*G54D51*G54D50*G54D51*G54D49*G54D52*G54D49*G54D50*G54D51*G54D50*G54D49*G54D50*G54D51*G54D50*G54D51*G54D52*G54D49*G54D52*G54D49*M02*
