G04 start of page 12 for group -4015 idx -4015 *
G04 Title: 971 BBB Cape, toppaste *
G04 Creator: pcb 20110918 *
G04 CreationDate: Sun Jan 19 01:17:08 2014 UTC *
G04 For: brians *
G04 Format: Gerber/RS-274X *
G04 PCB-Dimensions: 500000 400000 *
G04 PCB-Coordinate-Origin: lower left *
%MOIN*%
%FSLAX25Y25*%
%LNTOPPASTE*%
%ADD328R,0.0110X0.0110*%
%ADD327R,0.2106X0.2106*%
%ADD326R,0.0350X0.0350*%
%ADD325R,0.0550X0.0550*%
%ADD324R,0.0948X0.0948*%
%ADD323R,0.0200X0.0200*%
%ADD322R,0.0340X0.0340*%
%ADD321R,0.0512X0.0512*%
%ADD320R,0.0130X0.0130*%
%ADD319R,0.0295X0.0295*%
G54D319*X394949Y188441D02*X395933D01*
X394949Y193559D02*X395933D01*
X432000Y70492D02*Y69508D01*
X426882Y70492D02*Y69508D01*
X392643Y247056D02*X393627D01*
X392643Y252174D02*X393627D01*
X392949Y365941D02*X393933D01*
X392949Y371059D02*X393933D01*
X392949Y306000D02*X393933D01*
X392949Y311118D02*X393933D01*
G54D320*X394397Y226917D02*Y222311D01*
X391838Y226917D02*Y222311D01*
X389279Y226917D02*Y222311D01*
X386720Y226917D02*Y222311D01*
X384162Y226917D02*Y222311D01*
X381603Y226917D02*Y222311D01*
X379044Y226917D02*Y222311D01*
X376485Y226917D02*Y222311D01*
Y203689D02*Y199083D01*
X379044Y203689D02*Y199083D01*
X381603Y203689D02*Y199083D01*
X384162Y203689D02*Y199083D01*
X386720Y203689D02*Y199083D01*
X389279Y203689D02*Y199083D01*
X391838Y203689D02*Y199083D01*
X394397Y203689D02*Y199083D01*
G54D319*X296748Y247270D02*X297732D01*
X296748Y252388D02*X297732D01*
X243681Y261321D02*Y260337D01*
X248799Y261321D02*Y260337D01*
X246335Y297850D02*X247319D01*
X246335Y292732D02*X247319D01*
X269500Y310492D02*Y309508D01*
X264382Y310492D02*Y309508D01*
G54D321*X239154Y268222D02*Y267436D01*
X246240Y268222D02*Y267436D01*
X290048Y244914D02*X290834D01*
X290048Y252000D02*X290834D01*
G54D319*X168732Y356454D02*Y355470D01*
X173850Y356454D02*Y355470D01*
G54D322*X148299Y292229D02*X148899D01*
X148299Y284429D02*X148899D01*
X156499Y288329D02*X157099D01*
G54D323*X148799Y333829D02*X154799D01*
X148799Y328829D02*X154799D01*
X148799Y323829D02*X154799D01*
X148799Y318829D02*X154799D01*
X148799Y313829D02*X154799D01*
X148799Y308829D02*X154799D01*
X148799Y303829D02*X154799D01*
X148799Y298829D02*X154799D01*
X184799D02*X190799D01*
X184799Y303829D02*X190799D01*
X184799Y308829D02*X190799D01*
X184799Y313829D02*X190799D01*
X184799Y318829D02*X190799D01*
X184799Y323829D02*X190799D01*
X184799Y328829D02*X190799D01*
X184799Y333829D02*X190799D01*
G54D319*X197307Y323888D02*X198291D01*
X197307Y318770D02*X198291D01*
X140949Y334059D02*X141933D01*
X140949Y328941D02*X141933D01*
X197307Y303888D02*X198291D01*
X197307Y298770D02*X198291D01*
X141307Y303770D02*X142291D01*
X141307Y308888D02*X142291D01*
G54D324*X124831Y309514D02*X128768D01*
X124831Y289829D02*X128768D01*
G54D325*X295941Y342350D02*Y338450D01*
Y317550D02*Y313650D01*
X285941Y317550D02*Y313650D01*
Y342350D02*Y338450D01*
G54D319*X303365Y324772D02*X304349D01*
X303365Y319654D02*X304349D01*
X277449Y342559D02*X278433D01*
X277449Y337441D02*X278433D01*
X307462Y295038D02*X308446D01*
X307462Y300156D02*X308446D01*
G54D321*X104816Y243370D02*X110326D01*
X104816Y231560D02*X110326D01*
X116816Y243370D02*X122326D01*
X116816Y231560D02*X122326D01*
G54D326*X130941Y231228D02*Y224929D01*
X135941Y231228D02*Y224929D01*
X140941Y231228D02*Y224929D01*
X145941Y231228D02*Y224929D01*
X150941Y231228D02*Y224929D01*
X155941Y231228D02*Y224929D01*
X160941Y231228D02*Y224929D01*
G54D327*X145941Y264693D02*Y251307D01*
G54D319*X146000Y218992D02*Y218008D01*
X140882Y218992D02*Y218008D01*
X130453Y217862D02*Y216878D01*
X135571Y217862D02*Y216878D01*
X130453Y211862D02*Y210878D01*
X135571Y211862D02*Y210878D01*
G54D321*X143898Y205893D02*Y205107D01*
X150984Y205893D02*Y205107D01*
G54D320*X394397Y344917D02*Y340311D01*
X391838Y344917D02*Y340311D01*
X389279Y344917D02*Y340311D01*
X386720Y344917D02*Y340311D01*
X384162Y344917D02*Y340311D01*
X381603Y344917D02*Y340311D01*
X379044Y344917D02*Y340311D01*
X376485Y344917D02*Y340311D01*
Y321689D02*Y317083D01*
X379044Y321689D02*Y317083D01*
X381603Y321689D02*Y317083D01*
X384162Y321689D02*Y317083D01*
X386720Y321689D02*Y317083D01*
X389279Y321689D02*Y317083D01*
X391838Y321689D02*Y317083D01*
X394397Y321689D02*Y317083D01*
G54D319*X241449Y130941D02*X242433D01*
X241449Y136059D02*X242433D01*
X219000Y148492D02*Y147508D01*
X213882Y148492D02*Y147508D01*
X189949Y130941D02*X190933D01*
X189949Y136059D02*X190933D01*
X189949Y124059D02*X190933D01*
X189949Y118941D02*X190933D01*
X236882Y112992D02*Y112008D01*
X242000Y112992D02*Y112008D01*
X241449Y124059D02*X242433D01*
X241449Y118941D02*X242433D01*
G54D323*X202441Y142500D02*X208941D01*
X202441Y137500D02*X208941D01*
X202441Y132500D02*X208941D01*
X202441Y127500D02*X208941D01*
X202441Y122500D02*X208941D01*
X202441Y117500D02*X208941D01*
X202441Y112500D02*X208941D01*
X222941D02*X229441D01*
X222941Y117500D02*X229441D01*
X222941Y122500D02*X229441D01*
X222941Y127500D02*X229441D01*
X222941Y132500D02*X229441D01*
X222941Y137500D02*X229441D01*
X222941Y142500D02*X229441D01*
G54D319*X195500Y141992D02*Y141008D01*
X190382Y141992D02*Y141008D01*
X195475Y112832D02*Y111848D01*
X190357Y112832D02*Y111848D01*
X113975Y141832D02*Y140848D01*
X108857Y141832D02*Y140848D01*
X155382Y112992D02*Y112008D01*
X160500Y112992D02*Y112008D01*
X108449Y130941D02*X109433D01*
X108449Y136059D02*X109433D01*
X159949Y130941D02*X160933D01*
X159949Y136059D02*X160933D01*
G54D323*X120666Y142340D02*X127166D01*
X120666Y137340D02*X127166D01*
X120666Y132340D02*X127166D01*
X120666Y127340D02*X127166D01*
X120666Y122340D02*X127166D01*
X120666Y117340D02*X127166D01*
X120666Y112340D02*X127166D01*
X141166D02*X147666D01*
X141166Y117340D02*X147666D01*
X141166Y122340D02*X147666D01*
X141166Y127340D02*X147666D01*
X141166Y132340D02*X147666D01*
X141166Y137340D02*X147666D01*
X141166Y142340D02*X147666D01*
G54D319*X114000Y112992D02*Y112008D01*
X108882Y112992D02*Y112008D01*
X108449Y124059D02*X109433D01*
X108449Y118941D02*X109433D01*
X159949Y124059D02*X160933D01*
X159949Y118941D02*X160933D01*
X155382Y141992D02*Y141008D01*
X160500Y141992D02*Y141008D01*
X305696Y110822D02*X306680D01*
X305696Y115940D02*X306680D01*
X304472Y136450D02*X305456D01*
X304472Y141568D02*X305456D01*
G54D323*X271438Y145822D02*X277938D01*
X271438Y140822D02*X277938D01*
X271438Y135822D02*X277938D01*
X271438Y130822D02*X277938D01*
X271438Y125822D02*X277938D01*
X271438Y120822D02*X277938D01*
X271438Y115822D02*X277938D01*
X271438Y110822D02*X277938D01*
X291938D02*X298438D01*
X291938Y115822D02*X298438D01*
X291938Y120822D02*X298438D01*
X291938Y125822D02*X298438D01*
X291938Y130822D02*X298438D01*
X291938Y135822D02*X298438D01*
X291938Y140822D02*X298438D01*
X291938Y145822D02*X298438D01*
G54D319*X140949Y323559D02*X141933D01*
X140949Y318441D02*X141933D01*
G54D321*X245312Y349893D02*Y349107D01*
X252398Y349893D02*Y349107D01*
X245355Y335893D02*Y335107D01*
X252441Y335893D02*Y335107D01*
G54D319*X266000Y335992D02*Y335008D01*
X260882Y335992D02*Y335008D01*
X265957Y342992D02*Y342008D01*
X260839Y342992D02*Y342008D01*
X265957Y349992D02*Y349008D01*
X260839Y349992D02*Y349008D01*
G54D321*X245312Y342893D02*Y342107D01*
X252398Y342893D02*Y342107D01*
G54D328*X292003Y304963D02*Y301565D01*
X290035Y304963D02*Y301565D01*
X288066Y304963D02*Y301565D01*
X286098Y304963D02*Y301565D01*
X284129Y304963D02*Y301565D01*
X282161Y304963D02*Y301565D01*
X280192Y304963D02*Y301565D01*
X278224Y304963D02*Y301565D01*
X276255Y304963D02*Y301565D01*
X274287Y304963D02*Y301565D01*
X272318Y304963D02*Y301565D01*
X270350Y304963D02*Y301565D01*
X268381Y304963D02*Y301565D01*
X266413Y304963D02*Y301565D01*
X264444Y304963D02*Y301565D01*
X262476Y304963D02*Y301565D01*
X253106Y295592D02*X256504D01*
X253106Y293624D02*X256504D01*
X253106Y291655D02*X256504D01*
X253106Y289687D02*X256504D01*
X253106Y287718D02*X256504D01*
X253106Y285750D02*X256504D01*
X253106Y283781D02*X256504D01*
X253106Y281813D02*X256504D01*
X253106Y279844D02*X256504D01*
X253106Y277876D02*X256504D01*
X253106Y275907D02*X256504D01*
X253106Y273939D02*X256504D01*
X253106Y271970D02*X256504D01*
X253106Y270002D02*X256504D01*
X253106Y268033D02*X256504D01*
X253106Y266065D02*X256504D01*
X262477Y260093D02*Y256695D01*
X264445Y260093D02*Y256695D01*
X266414Y260093D02*Y256695D01*
X268382Y260093D02*Y256695D01*
X270351Y260093D02*Y256695D01*
X272319Y260093D02*Y256695D01*
X274288Y260093D02*Y256695D01*
X276256Y260093D02*Y256695D01*
X278225Y260093D02*Y256695D01*
X280193Y260093D02*Y256695D01*
X282162Y260093D02*Y256695D01*
X284130Y260093D02*Y256695D01*
X286099Y260093D02*Y256695D01*
X288067Y260093D02*Y256695D01*
X290036Y260093D02*Y256695D01*
X292004Y260093D02*Y256695D01*
X297976Y266066D02*X301374D01*
X297976Y268034D02*X301374D01*
X297976Y270003D02*X301374D01*
X297976Y271971D02*X301374D01*
X297976Y273940D02*X301374D01*
X297976Y275908D02*X301374D01*
X297976Y277877D02*X301374D01*
X297976Y279845D02*X301374D01*
X297976Y281814D02*X301374D01*
X297976Y283782D02*X301374D01*
X297976Y285751D02*X301374D01*
X297976Y287719D02*X301374D01*
X297976Y289688D02*X301374D01*
X297976Y291656D02*X301374D01*
X297976Y293625D02*X301374D01*
X297976Y295593D02*X301374D01*
G54D319*X235941Y141992D02*Y141008D01*
X241059Y141992D02*Y141008D01*
G54D321*X95548Y204457D02*X96334D01*
X95548Y211543D02*X96334D01*
X170048Y248543D02*X170834D01*
X170048Y241457D02*X170834D01*
G54D319*X170949Y231882D02*X171933D01*
X170949Y237000D02*X171933D01*
X102449Y216559D02*X103433D01*
X102449Y211441D02*X103433D01*
X266000Y356992D02*Y356008D01*
X260882Y356992D02*Y356008D01*
G54D321*X245355Y356893D02*Y356107D01*
X252441Y356893D02*Y356107D01*
G54D319*X166166Y112568D02*X167150D01*
X166166Y107450D02*X167150D01*
X102191Y140958D02*X103175D01*
X102191Y146076D02*X103175D01*
X247516Y131149D02*X248500D01*
X247516Y136267D02*X248500D01*
X247949Y124059D02*X248933D01*
X247949Y118941D02*X248933D01*
X247949Y107559D02*X248933D01*
X247949Y102441D02*X248933D01*
X183949Y124059D02*X184933D01*
X183949Y118941D02*X184933D01*
G54D321*X145036Y198755D02*Y193245D01*
X156846Y198755D02*Y193245D01*
X157398Y205893D02*Y205107D01*
X164484Y205893D02*Y205107D01*
X143898Y212893D02*Y212107D01*
X150984Y212893D02*Y212107D01*
G54D319*X165483Y131219D02*X166467D01*
X165483Y136337D02*X166467D01*
X160534Y148497D02*Y147513D01*
X155416Y148497D02*Y147513D01*
X165949Y124059D02*X166933D01*
X165949Y118941D02*X166933D01*
X101949Y124059D02*X102933D01*
X101949Y118941D02*X102933D01*
X101909Y113435D02*X102893D01*
X101909Y108317D02*X102893D01*
X102298Y131017D02*X103282D01*
X102298Y136135D02*X103282D01*
X241073Y148246D02*Y147262D01*
X235955Y148246D02*Y147262D01*
X183949Y113059D02*X184933D01*
X183949Y107941D02*X184933D01*
X184491Y130953D02*X185475D01*
X184491Y136071D02*X185475D01*
X197000Y148838D02*Y147854D01*
X202118Y148838D02*Y147854D01*
G54D321*X157485Y212763D02*Y211977D01*
X164571Y212763D02*Y211977D01*
X340186Y98404D02*X345696D01*
X340186Y86594D02*X345696D01*
G54D319*X372000Y72491D02*Y71507D01*
X366882Y72491D02*Y71507D01*
X356823Y71992D02*Y71008D01*
X361941Y71992D02*Y71008D01*
X356823Y65992D02*Y65008D01*
X361941Y65992D02*Y65008D01*
G54D321*X374548Y51413D02*X375334D01*
X374548Y58499D02*X375334D01*
X327186Y98404D02*X332696D01*
X327186Y86594D02*X332696D01*
G54D326*X356941Y84728D02*Y78429D01*
X361941Y84728D02*Y78429D01*
X366941Y84728D02*Y78429D01*
X371941Y84728D02*Y78429D01*
X376941Y84728D02*Y78429D01*
X381941Y84728D02*Y78429D01*
X386941Y84728D02*Y78429D01*
G54D327*X371941Y118193D02*Y104807D01*
G54D321*X397548Y98042D02*X398334D01*
X397548Y90956D02*X398334D01*
G54D319*X397449Y79381D02*X398433D01*
X397449Y84499D02*X398433D01*
G54D321*X370398Y66393D02*Y65607D01*
X377484Y66393D02*Y65607D01*
X381536Y48755D02*Y43245D01*
X393346Y48755D02*Y43245D01*
X381898Y58893D02*Y58107D01*
X388984Y58893D02*Y58107D01*
X384398Y66893D02*Y66107D01*
X391484Y66893D02*Y66107D01*
G54D319*X137000Y148492D02*Y147508D01*
X131882Y148492D02*Y147508D01*
M02*
