G04 start of page 9 for group -4063 idx -4063 *
G04 Title: fet12v2logic, componentmask *
G04 Creator: pcb 20140316 *
G04 CreationDate: Wed 13 Jun 2018 07:44:19 AM GMT UTC *
G04 For: brian *
G04 Format: Gerber/RS-274X *
G04 PCB-Dimensions (mil): 6000.00 5000.00 *
G04 PCB-Coordinate-Origin: lower left *
%MOIN*%
%FSLAX25Y25*%
%LNTOPMASK*%
%ADD170R,0.0512X0.0512*%
%ADD169R,0.0430X0.0430*%
%ADD168R,0.0140X0.0140*%
%ADD167R,0.0303X0.0303*%
%ADD166R,0.0900X0.0900*%
%ADD165R,0.1280X0.1280*%
%ADD164R,0.1255X0.1255*%
%ADD163R,0.0230X0.0230*%
%ADD162C,0.0001*%
%ADD161R,0.0789X0.0789*%
%ADD160R,0.0563X0.0563*%
%ADD159R,0.0260X0.0260*%
%ADD158R,0.0700X0.0700*%
%ADD157R,0.0572X0.0572*%
%ADD156R,0.0620X0.0620*%
%ADD155R,0.0355X0.0355*%
%ADD154R,0.0268X0.0268*%
%ADD153R,0.0300X0.0300*%
%ADD152C,0.0880*%
%ADD151C,0.0010*%
%ADD150C,0.0700*%
G54D150*X496000Y161000D03*
Y141000D03*
G54D151*X461453Y122453D03*
X455547D03*
G54D150*X443000Y144000D03*
G54D151*X458500Y119500D03*
X461453Y116547D03*
X455547D03*
G54D152*X520000Y149284D03*
G54D150*X443000Y63500D03*
X496000D03*
X443000Y85500D03*
X496000Y98500D03*
G54D151*X480500Y97000D03*
X483453Y99953D03*
X477547D03*
X483453Y94047D03*
X477547D03*
G54D150*X390000Y161000D03*
Y141000D03*
G54D151*X352500Y119500D03*
X355453Y122453D03*
X349547D03*
X355453Y116547D03*
X349547D03*
G54D150*X337000Y144000D03*
X284000Y161000D03*
Y141000D03*
X231000Y144000D03*
G54D151*X246500Y119500D03*
X249453Y122453D03*
X243547D03*
X249453Y116547D03*
X243547D03*
G54D150*X337000Y63500D03*
Y85500D03*
X390000Y98500D03*
G54D151*X374500Y97000D03*
X377453Y99953D03*
X371547D03*
X377453Y94047D03*
X371547D03*
G54D150*X390000Y63500D03*
X231000D03*
Y85500D03*
X284000Y98500D03*
G54D151*X268500Y97000D03*
X271453Y99953D03*
X265547D03*
X271453Y94047D03*
X265547D03*
G54D150*X284000Y63500D03*
G54D153*X290500Y153500D02*X297000D01*
X290500Y148500D02*X297000D01*
X290500Y143500D02*X297000D01*
X290500Y138500D02*X297000D01*
G54D154*X291756Y177000D02*X293606D01*
G54D155*X295559Y133492D02*Y132508D01*
G54D153*X311000Y138500D02*X317500D01*
X311000Y143500D02*X317500D01*
X311000Y148500D02*X317500D01*
G54D155*X322508Y143441D02*X323492D01*
G54D156*X309700Y123000D02*X316300D01*
X309700Y114000D02*X316300D01*
G54D157*X299107Y115457D02*X299893D01*
X299107Y122543D02*X299893D01*
G54D155*X299941Y133492D02*Y132508D01*
X305059Y133492D02*Y132508D01*
X322508Y148559D02*X323492D01*
X322059Y162492D02*Y161508D01*
G54D158*X307500Y172000D02*X322500D01*
X307500Y182000D02*X322500D01*
G54D154*X299394Y180819D02*X301244D01*
X299394Y173181D02*X301244D01*
G54D153*X311000Y153500D02*X317500D01*
G54D155*X316941Y162492D02*Y161508D01*
X312559Y162492D02*Y161508D01*
X307441Y162492D02*Y161508D01*
X328441Y160992D02*Y160008D01*
X333559Y160992D02*Y160008D01*
G54D159*X335425Y174039D02*Y172268D01*
Y180732D02*Y178961D01*
X332276Y174039D02*Y172268D01*
Y180732D02*Y178961D01*
G54D155*X330508Y155559D02*X331492D01*
X330508Y150441D02*X331492D01*
X230508Y77559D02*X231492D01*
X230508Y72441D02*X231492D01*
X270941Y72492D02*Y71508D01*
X276059Y72492D02*Y71508D01*
X280441Y70492D02*Y69508D01*
X285559Y70492D02*Y69508D01*
X290508Y64941D02*X291492D01*
X277559Y63992D02*Y63008D01*
X272441Y63992D02*Y63008D01*
X290508Y70059D02*X291492D01*
G54D160*X278748Y80000D02*X278866D01*
X267134D02*X267252D01*
X266000Y137366D02*Y137248D01*
Y125752D02*Y125634D01*
G54D155*X274941Y127492D02*Y126508D01*
X280059Y127492D02*Y126508D01*
X274941Y119492D02*Y118508D01*
X280059Y119492D02*Y118508D01*
X290441Y133492D02*Y132508D01*
X250508Y99441D02*X251492D01*
X250508Y104559D02*X251492D01*
X239059Y109492D02*Y108508D01*
X233941Y109492D02*Y108508D01*
X239059Y114992D02*Y114008D01*
X233941Y114992D02*Y114008D01*
X242008Y98941D02*X242992D01*
X242008Y104059D02*X242992D01*
G54D160*X237500Y121752D02*Y121634D01*
Y133366D02*Y133248D01*
G54D156*X309700Y104900D02*X316300D01*
G54D155*X296508Y104441D02*X297492D01*
X296508Y109559D02*X297492D01*
X299008Y65941D02*X299992D01*
X299008Y71059D02*X299992D01*
X309559Y65492D02*Y64508D01*
X304441Y65492D02*Y64508D01*
G54D153*X514000Y110500D02*Y104000D01*
X519000Y110500D02*Y104000D01*
X524000Y110500D02*Y104000D01*
G54D155*X518941Y98992D02*Y98008D01*
X524059Y98992D02*Y98008D01*
X508008Y114941D02*X508992D01*
G54D160*X481500Y115752D02*Y115634D01*
G54D155*X508008Y110559D02*X508992D01*
X508008Y105441D02*X508992D01*
G54D153*X529000Y131000D02*Y124500D01*
X524000Y131000D02*Y124500D01*
X519000Y131000D02*Y124500D01*
X514000Y131000D02*Y124500D01*
G54D155*X523941Y136992D02*Y136008D01*
X529059Y136992D02*Y136008D01*
G54D153*X529000Y110500D02*Y104000D01*
G54D161*X534173Y182354D02*X535354D01*
X535748Y147315D02*X536929D01*
G54D155*X508008Y120059D02*X508992D01*
G54D161*X504646Y168968D02*X505827D01*
X504646Y147315D02*X505827D01*
G54D162*G36*
X473900Y160950D02*Y153050D01*
X481800D01*
Y160950D01*
X473900D01*
G37*
G54D155*X484941Y139492D02*Y138508D01*
X490059Y139492D02*Y138508D01*
X484941Y133992D02*Y133008D01*
X490059Y133992D02*Y133008D01*
G54D162*G36*
X458200Y160950D02*Y153050D01*
X466100D01*
Y160950D01*
X458200D01*
G37*
G54D155*X473508Y135559D02*X474492D01*
X473508Y130441D02*X474492D01*
X473508Y139941D02*X474492D01*
X468008Y130441D02*X468992D01*
X468008Y135559D02*X468992D01*
X473508Y145059D02*X474492D01*
X468008Y139941D02*X468992D01*
X468008Y145059D02*X468992D01*
G54D160*X481500Y127366D02*Y127248D01*
G54D153*X416500Y88000D02*X423000D01*
X416500Y93000D02*X423000D01*
X396000D02*X402500D01*
G54D155*X428008Y93059D02*X428992D01*
X428008Y87941D02*X428992D01*
X390008Y92059D02*X390992D01*
G54D153*X416500Y98000D02*X423000D01*
X416500Y103000D02*X423000D01*
X396000D02*X402500D01*
X396000Y98000D02*X402500D01*
G54D155*X410941Y108992D02*Y108008D01*
X406559Y108992D02*Y108008D01*
X401441Y108992D02*Y108008D01*
X416059Y108992D02*Y108008D01*
G54D153*X396000Y88000D02*X402500D01*
G54D155*X390008Y86941D02*X390992D01*
X380441Y70492D02*Y69508D01*
X385559Y70492D02*Y69508D01*
X390508Y76059D02*X391492D01*
X390508Y70941D02*X391492D01*
G54D160*X384748Y78000D02*X384866D01*
G54D157*X416543Y145393D02*Y144607D01*
G54D163*X413323Y156984D02*Y151630D01*
X415882Y156984D02*Y151630D01*
X418441Y156984D02*Y151630D01*
X421000Y156984D02*Y151630D01*
X423559Y156984D02*Y151630D01*
X426118Y156984D02*Y151630D01*
X428677Y156984D02*Y151630D01*
G54D155*X442941Y152992D02*Y152008D01*
X448059Y152992D02*Y152008D01*
X424441Y186492D02*Y185508D01*
X429559Y186492D02*Y185508D01*
X433941Y185492D02*Y184508D01*
X439059Y185492D02*Y184508D01*
X420059Y186492D02*Y185508D01*
X414941Y186492D02*Y185508D01*
G54D163*X428677Y180370D02*Y175016D01*
G54D155*X439059Y179492D02*Y178508D01*
X433941Y179492D02*Y178508D01*
X442941Y160992D02*Y160008D01*
X448059Y160992D02*Y160008D01*
G54D163*X426118Y180370D02*Y175016D01*
X423559Y180370D02*Y175016D01*
X421000Y180370D02*Y175016D01*
X418441Y180370D02*Y175016D01*
X415882Y180370D02*Y175016D01*
X413323Y180370D02*Y175016D01*
G54D164*X420803Y166000D02*X421197D01*
G54D157*X419405Y137755D02*Y132245D01*
X407595Y137755D02*Y132245D01*
X409457Y145393D02*Y144607D01*
G54D160*X442634Y133000D02*X442752D01*
G54D155*X457559Y63992D02*Y63008D01*
X482941Y72492D02*Y71508D01*
X488059Y72492D02*Y71508D01*
X492441Y70492D02*Y69508D01*
X497559Y70492D02*Y69508D01*
X452441Y63992D02*Y63008D01*
G54D160*X490748Y80000D02*X490866D01*
X479134D02*X479252D01*
G54D155*X442508Y77559D02*X443492D01*
X442508Y72441D02*X443492D01*
X457508Y93941D02*X458492D01*
X457508Y99059D02*X458492D01*
X462508Y99441D02*X463492D01*
G54D165*X337400Y118500D02*Y109500D01*
G54D155*X364008Y126441D02*X364992D01*
X358508D02*X359492D01*
X348059Y141992D02*Y141008D01*
G54D160*X352748Y135500D02*X352866D01*
G54D155*X358508Y135941D02*X359492D01*
X358508Y141059D02*X359492D01*
X364008Y135941D02*X364992D01*
X364008Y141059D02*X364992D01*
X364008Y131559D02*X364992D01*
X358508D02*X359492D01*
X351559Y63992D02*Y63008D01*
X346441Y63992D02*Y63008D01*
X333008Y77059D02*X333992D01*
X333008Y71941D02*X333992D01*
X351508Y93941D02*X352492D01*
X351508Y99059D02*X352492D01*
X356508Y99441D02*X357492D01*
X356508Y104559D02*X357492D01*
X361559Y79492D02*Y78508D01*
X356441Y79492D02*Y78508D01*
Y84992D02*Y84008D01*
X361559Y84992D02*Y84008D01*
G54D160*X372000Y125752D02*Y125634D01*
X373134Y78000D02*X373252D01*
G54D157*X398319Y155905D02*X400681D01*
X398319Y144095D02*X400681D01*
G54D155*X378941Y139492D02*Y138508D01*
X384059Y139492D02*Y138508D01*
X378941Y133992D02*Y133008D01*
X384059Y133992D02*Y133008D01*
G54D160*X372000Y137366D02*Y137248D01*
G54D166*X361000Y185500D02*X368000D01*
X361000Y148500D02*X368000D01*
G54D155*X334508Y132941D02*X335492D01*
X341059Y155492D02*Y154508D01*
X335941Y155492D02*Y154508D01*
X340008Y159941D02*X340992D01*
X340008Y165059D02*X340992D01*
X334508Y138059D02*X335492D01*
X342941Y141992D02*Y141008D01*
G54D160*X341134Y135500D02*X341252D01*
G54D159*X341724Y174039D02*Y172268D01*
Y180732D02*Y178961D01*
X338575Y180732D02*Y178961D01*
G54D167*X337657Y187772D02*X338642D01*
X337657Y184228D02*X338642D01*
X331358D02*X332343D01*
X331358Y187772D02*X332343D01*
G54D159*X338575Y174039D02*Y172268D01*
G54D155*X450559Y108492D02*Y107508D01*
X445441Y108492D02*Y107508D01*
Y113992D02*Y113008D01*
X450559Y113992D02*Y113008D01*
X462508Y104559D02*X463492D01*
X436508Y134941D02*X437492D01*
X436508Y140059D02*X437492D01*
X448941Y140992D02*Y140008D01*
X454059Y140992D02*Y140008D01*
G54D160*X454248Y133000D02*X454366D01*
G54D155*X229508Y132941D02*X230492D01*
X252508Y135441D02*X253492D01*
X252508Y140559D02*X253492D01*
X252941Y126992D02*Y126008D01*
X229508Y138059D02*X230492D01*
X236941Y139492D02*Y138508D01*
X230008Y158559D02*X230992D01*
X230008Y153441D02*X230992D01*
X224508Y157559D02*X225492D01*
X224508Y152441D02*X225492D01*
X246008Y174441D02*X246992D01*
X246008Y179559D02*X246992D01*
X242059Y139492D02*Y138508D01*
X284508Y153059D02*X285492D01*
X284508Y147941D02*X285492D01*
X265941Y145492D02*Y144508D01*
X271059Y145492D02*Y144508D01*
X273008Y149941D02*X273992D01*
X258008Y146059D02*X258992D01*
G54D153*X272500Y169500D02*X279000D01*
G54D155*X271059Y164492D02*Y163508D01*
X273008Y155059D02*X273992D01*
G54D153*X272500Y174500D02*X279000D01*
X272500Y179500D02*X279000D01*
X272500Y184500D02*X279000D01*
G54D155*X265941Y164492D02*Y163508D01*
X284008Y179559D02*X284992D01*
X284008Y174441D02*X284992D01*
X272941Y139492D02*Y138508D01*
X278059Y139492D02*Y138508D01*
X272941Y133992D02*Y133008D01*
X278059Y133992D02*Y133008D01*
X258008Y140941D02*X258992D01*
X258008Y136559D02*X258992D01*
X258008Y131441D02*X258992D01*
X258059Y126992D02*Y126008D01*
X186059Y185992D02*Y185008D01*
X180941Y185992D02*Y185008D01*
G54D153*X252000Y184500D02*X258500D01*
X252000Y179500D02*X258500D01*
X252000Y174500D02*X258500D01*
X252000Y169500D02*X258500D01*
G54D155*X234508Y173441D02*X235492D01*
X234508Y178559D02*X235492D01*
X228508D02*X229492D01*
X228508Y173441D02*X229492D01*
X199508Y173941D02*X200492D01*
X199508Y179059D02*X200492D01*
X205008Y170441D02*X205992D01*
X205008Y175559D02*X205992D01*
X183008Y179059D02*X183992D01*
X183008Y173941D02*X183992D01*
X188508D02*X189492D01*
X216008Y166441D02*X216992D01*
X216008Y171559D02*X216992D01*
X210508Y171941D02*X211492D01*
X210508Y177059D02*X211492D01*
X188508Y179059D02*X189492D01*
G54D168*X201200Y170071D02*Y166673D01*
X199232Y170071D02*Y166673D01*
X197263Y170071D02*Y166673D01*
X195295Y170071D02*Y166673D01*
X193326Y170071D02*Y166673D01*
X191358Y170071D02*Y166673D01*
G54D153*X213800Y152100D02*Y150900D01*
X213400Y144700D02*X214600D01*
X213400Y141300D02*X214600D01*
X218700Y161100D02*Y159900D01*
X217200Y152100D02*Y150900D01*
G54D168*X207173Y148890D02*X210571D01*
X207173Y150859D02*X210571D01*
X207173Y152827D02*X210571D01*
X207173Y154796D02*X210571D01*
X207173Y156764D02*X210571D01*
X207173Y158733D02*X210571D01*
X207173Y160701D02*X210571D01*
G54D153*X215300Y161100D02*Y159900D01*
G54D155*X151508Y164441D02*X152492D01*
X141941Y162992D02*Y162008D01*
X147059Y162992D02*Y162008D01*
G54D169*X123500Y155550D02*Y147450D01*
X128500Y155550D02*Y147450D01*
X133500Y155550D02*Y147450D01*
X138500Y155550D02*Y147450D01*
X143500Y155550D02*Y147450D01*
G54D168*X154429Y160700D02*X157827D01*
X154429Y158732D02*X157827D01*
X154429Y156763D02*X157827D01*
X154429Y154795D02*X157827D01*
X154429Y152826D02*X157827D01*
X154429Y150858D02*X157827D01*
G54D155*X194008Y173941D02*X194992D01*
X194008Y179059D02*X194992D01*
G54D168*X189389Y170071D02*Y166673D01*
G54D155*X130508Y172059D02*X131492D01*
X130508Y166941D02*X131492D01*
X158508Y168441D02*X159492D01*
X158508Y173559D02*X159492D01*
X158059Y178992D02*Y178008D01*
X152941Y178992D02*Y178008D01*
X151508Y169559D02*X152492D01*
X141941Y168492D02*Y167508D01*
X141441Y183992D02*Y183008D01*
X140941Y178492D02*Y177508D01*
X147059Y168492D02*Y167508D01*
X146559Y183992D02*Y183008D01*
X146059Y178492D02*Y177508D01*
X178559Y180492D02*Y179508D01*
Y174992D02*Y174008D01*
X173441Y180492D02*Y179508D01*
Y174992D02*Y174008D01*
X168008Y178559D02*X168992D01*
X168008Y173441D02*X168992D01*
G54D168*X187421Y170071D02*Y166673D01*
X185452Y170071D02*Y166673D01*
X183484Y170071D02*Y166673D01*
X181515Y170071D02*Y166673D01*
X179547Y170071D02*Y166673D01*
X177578Y170071D02*Y166673D01*
X175610Y170071D02*Y166673D01*
X173641Y170071D02*Y166673D01*
X171673Y170071D02*Y166673D01*
X169704Y170071D02*Y166673D01*
X167736Y170071D02*Y166673D01*
X165767Y170071D02*Y166673D01*
X163799Y170071D02*Y166673D01*
G54D155*X142441Y123492D02*Y122508D01*
X147559Y123492D02*Y122508D01*
G54D169*X123500Y139550D02*Y131450D01*
X128500Y139550D02*Y131450D01*
X133500Y139550D02*Y131450D01*
X138500Y139550D02*Y131450D01*
X143500Y139550D02*Y131450D01*
G54D155*X133508Y119059D02*X134492D01*
X133508Y113941D02*X134492D01*
X133559Y124492D02*Y123508D01*
X128441Y124492D02*Y123508D01*
X133441Y103992D02*Y103008D01*
X138559Y103992D02*Y103008D01*
G54D168*X154429Y148889D02*X157827D01*
X154429Y146921D02*X157827D01*
X154429Y144952D02*X157827D01*
X154429Y142984D02*X157827D01*
X154429Y141015D02*X157827D01*
X154429Y139047D02*X157827D01*
X154429Y137078D02*X157827D01*
G54D170*X156256Y115543D02*Y115150D01*
Y108850D02*Y108457D01*
X150744Y115543D02*Y115150D01*
Y108850D02*Y108457D01*
G54D168*X154429Y135110D02*X157827D01*
X154429Y133141D02*X157827D01*
X154429Y131173D02*X157827D01*
X154429Y129204D02*X157827D01*
X154429Y127236D02*X157827D01*
X154429Y125267D02*X157827D01*
X154429Y123299D02*X157827D01*
G54D155*X176008Y103941D02*X176992D01*
X176008Y109059D02*X176992D01*
X170508Y104941D02*X171492D01*
X170508Y110059D02*X171492D01*
G54D168*X163800Y117327D02*Y113929D01*
X165768Y117327D02*Y113929D01*
X167737Y117327D02*Y113929D01*
X169705Y117327D02*Y113929D01*
X171674Y117327D02*Y113929D01*
X173642Y117327D02*Y113929D01*
X175611Y117327D02*Y113929D01*
X177579Y117327D02*Y113929D01*
X179548Y117327D02*Y113929D01*
G54D155*X161941Y98992D02*Y98008D01*
X167059Y98992D02*Y98008D01*
X182508Y109059D02*X183492D01*
X182508Y103941D02*X183492D01*
X188008Y104941D02*X188992D01*
X188008Y110059D02*X188992D01*
G54D168*X181516Y117327D02*Y113929D01*
X183485Y117327D02*Y113929D01*
X185453Y117327D02*Y113929D01*
X187422Y117327D02*Y113929D01*
X189390Y117327D02*Y113929D01*
X191359Y117327D02*Y113929D01*
X193327Y117327D02*Y113929D01*
X195296Y117327D02*Y113929D01*
G54D155*X219059Y126992D02*Y126008D01*
X213941Y126992D02*Y126008D01*
X219059Y132492D02*Y131508D01*
X213941Y132492D02*Y131508D01*
G54D168*X207173Y139048D02*X210571D01*
X207173Y141016D02*X210571D01*
X207173Y129205D02*X210571D01*
X207173Y131174D02*X210571D01*
X207173Y133142D02*X210571D01*
X207173Y135111D02*X210571D01*
X207173Y137079D02*X210571D01*
X207173Y125268D02*X210571D01*
X207173Y127237D02*X210571D01*
X207173Y123300D02*X210571D01*
G54D155*X206508Y100441D02*X207492D01*
X206508Y105559D02*X207492D01*
X196941Y101992D02*Y101008D01*
X202059Y101992D02*Y101008D01*
G54D168*X197264Y117327D02*Y113929D01*
X199233Y117327D02*Y113929D01*
X201201Y117327D02*Y113929D01*
X207173Y142985D02*X210571D01*
X207173Y144953D02*X210571D01*
X207173Y146922D02*X210571D01*
M02*
