G04 start of page 14 for group -4014 idx -4014 *
G04 Title: fet12v2logic, bottompaste *
G04 Creator: pcb 20140316 *
G04 CreationDate: Wed 13 Jun 2018 07:44:19 AM GMT UTC *
G04 For: brian *
G04 Format: Gerber/RS-274X *
G04 PCB-Dimensions (mil): 6000.00 5000.00 *
G04 PCB-Coordinate-Origin: lower left *
%MOIN*%
%FSLAX25Y25*%
%LNBOTTOMPASTE*%
%ADD229R,0.0480X0.0480*%
%ADD228R,0.0217X0.0217*%
%ADD227R,0.0236X0.0236*%
%ADD226R,0.0189X0.0189*%
%ADD225R,0.0949X0.0949*%
%ADD224R,0.0177X0.0177*%
%ADD223R,0.0460X0.0460*%
%ADD222R,0.0669X0.0669*%
%ADD221R,0.0472X0.0472*%
%ADD220R,0.0512X0.0512*%
%ADD219R,0.0197X0.0197*%
%ADD218R,0.0295X0.0295*%
%ADD217C,0.0138*%
%ADD216C,0.0001*%
G54D216*G36*
X459091Y124618D02*Y120091D01*
X463618D01*
Y124618D01*
X459091D01*
G37*
G36*
X453382D02*Y120091D01*
X457909D01*
Y124618D01*
X453382D01*
G37*
G36*
X459091Y118909D02*Y114382D01*
X463618D01*
Y118909D01*
X459091D01*
G37*
G36*
X453382D02*Y114382D01*
X457909D01*
Y118909D01*
X453382D01*
G37*
G54D217*X452201Y112709D02*Y110740D01*
X455350Y112709D02*Y110740D01*
X458500Y112709D02*Y110740D01*
X461650Y112709D02*Y110740D01*
X464799Y112709D02*Y110740D01*
X452201Y128260D02*Y126291D01*
X455350Y128260D02*Y126291D01*
X458500Y128260D02*Y126291D01*
X461650Y128260D02*Y126291D01*
X464799Y128260D02*Y126291D01*
G54D218*X460559Y140492D02*Y139508D01*
X455441Y140492D02*Y139508D01*
G54D219*X460074Y135393D02*Y134607D01*
X456926Y135393D02*Y134607D01*
G54D218*X442008Y125059D02*X442992D01*
X442008Y119941D02*X442992D01*
G54D219*X447107Y124574D02*X447893D01*
X447107Y121426D02*X447893D01*
G54D218*X442508Y96559D02*X443492D01*
X442508Y91441D02*X443492D01*
X448008Y96559D02*X448992D01*
X448008Y91441D02*X448992D01*
X496008Y153059D02*X496992D01*
X496008Y147941D02*X496992D01*
G54D220*X485905Y159755D02*Y154245D01*
X474095Y159755D02*Y154245D01*
X481957Y144893D02*Y144107D01*
X489043Y144893D02*Y144107D01*
G54D218*X479559Y117992D02*Y117008D01*
X474441Y117992D02*Y117008D01*
G54D219*X481574Y112893D02*Y112107D01*
X478426Y112893D02*Y112107D01*
X469107Y102074D02*X469893D01*
X469107Y98926D02*X469893D01*
G54D218*X464008Y102559D02*X464992D01*
X464008Y97441D02*X464992D01*
G54D216*G36*
X481091Y102118D02*Y97591D01*
X485618D01*
Y102118D01*
X481091D01*
G37*
G36*
X475382D02*Y97591D01*
X479909D01*
Y102118D01*
X475382D01*
G37*
G36*
X481091Y96409D02*Y91882D01*
X485618D01*
Y96409D01*
X481091D01*
G37*
G36*
X475382D02*Y91882D01*
X479909D01*
Y96409D01*
X475382D01*
G37*
G54D217*X474201Y90209D02*Y88240D01*
X477350Y90209D02*Y88240D01*
X480500Y90209D02*Y88240D01*
X483650Y90209D02*Y88240D01*
X486799Y90209D02*Y88240D01*
X474201Y105760D02*Y103791D01*
X477350Y105760D02*Y103791D01*
X480500Y105760D02*Y103791D01*
X483650Y105760D02*Y103791D01*
X486799Y105760D02*Y103791D01*
G54D220*X454607Y92457D02*X455393D01*
X454607Y99543D02*X455393D01*
G54D216*G36*
X353091Y124618D02*Y120091D01*
X357618D01*
Y124618D01*
X353091D01*
G37*
G36*
X347382D02*Y120091D01*
X351909D01*
Y124618D01*
X347382D01*
G37*
G36*
X353091Y118909D02*Y114382D01*
X357618D01*
Y118909D01*
X353091D01*
G37*
G36*
X347382D02*Y114382D01*
X351909D01*
Y118909D01*
X347382D01*
G37*
G54D217*X346201Y112709D02*Y110740D01*
X349350Y112709D02*Y110740D01*
X352500Y112709D02*Y110740D01*
X355650Y112709D02*Y110740D01*
X358799Y112709D02*Y110740D01*
X346201Y128260D02*Y126291D01*
X349350Y128260D02*Y126291D01*
X352500Y128260D02*Y126291D01*
X355650Y128260D02*Y126291D01*
X358799Y128260D02*Y126291D01*
G54D218*X354559Y140492D02*Y139508D01*
X349441Y140492D02*Y139508D01*
G54D219*X354074Y135393D02*Y134607D01*
X350926Y135393D02*Y134607D01*
G54D218*X336008Y125059D02*X336992D01*
X336008Y119941D02*X336992D01*
G54D219*X341107Y124574D02*X341893D01*
X341107Y121426D02*X341893D01*
G54D218*X336508Y96559D02*X337492D01*
X336508Y91441D02*X337492D01*
X342008Y96559D02*X342992D01*
X342008Y91441D02*X342992D01*
X390008Y153059D02*X390992D01*
X390008Y147941D02*X390992D01*
G54D220*X379905Y159755D02*Y154245D01*
X368095Y159755D02*Y154245D01*
X375957Y144893D02*Y144107D01*
X383043Y144893D02*Y144107D01*
G54D218*X373559Y117992D02*Y117008D01*
X368441Y117992D02*Y117008D01*
G54D219*X375574Y112893D02*Y112107D01*
X372426Y112893D02*Y112107D01*
X363107Y102074D02*X363893D01*
X363107Y98926D02*X363893D01*
G54D218*X358008Y102559D02*X358992D01*
X358008Y97441D02*X358992D01*
G54D216*G36*
X375091Y102118D02*Y97591D01*
X379618D01*
Y102118D01*
X375091D01*
G37*
G36*
X369382D02*Y97591D01*
X373909D01*
Y102118D01*
X369382D01*
G37*
G36*
X375091Y96409D02*Y91882D01*
X379618D01*
Y96409D01*
X375091D01*
G37*
G36*
X369382D02*Y91882D01*
X373909D01*
Y96409D01*
X369382D01*
G37*
G54D217*X368201Y90209D02*Y88240D01*
X371350Y90209D02*Y88240D01*
X374500Y90209D02*Y88240D01*
X377650Y90209D02*Y88240D01*
X380799Y90209D02*Y88240D01*
X368201Y105760D02*Y103791D01*
X371350Y105760D02*Y103791D01*
X374500Y105760D02*Y103791D01*
X377650Y105760D02*Y103791D01*
X380799Y105760D02*Y103791D01*
G54D220*X348607Y92457D02*X349393D01*
X348607Y99543D02*X349393D01*
G54D216*G36*
X247091Y124618D02*Y120091D01*
X251618D01*
Y124618D01*
X247091D01*
G37*
G36*
X241382D02*Y120091D01*
X245909D01*
Y124618D01*
X241382D01*
G37*
G36*
X247091Y118909D02*Y114382D01*
X251618D01*
Y118909D01*
X247091D01*
G37*
G36*
X241382D02*Y114382D01*
X245909D01*
Y118909D01*
X241382D01*
G37*
G54D217*X240201Y112709D02*Y110740D01*
X243350Y112709D02*Y110740D01*
X246500Y112709D02*Y110740D01*
X249650Y112709D02*Y110740D01*
X252799Y112709D02*Y110740D01*
X240201Y128260D02*Y126291D01*
X243350Y128260D02*Y126291D01*
X246500Y128260D02*Y126291D01*
X249650Y128260D02*Y126291D01*
X252799Y128260D02*Y126291D01*
G54D218*X252008Y134941D02*X252992D01*
X252008Y140059D02*X252992D01*
G54D219*X248074Y135393D02*Y134607D01*
X244926Y135393D02*Y134607D01*
G54D218*X230441Y116992D02*Y116008D01*
X235559Y116992D02*Y116008D01*
G54D219*X235107Y124074D02*X235893D01*
X235107Y120926D02*X235893D01*
G54D218*X230508Y96559D02*X231492D01*
X230508Y91441D02*X231492D01*
X236008Y96559D02*X236992D01*
X236008Y91441D02*X236992D01*
X284008Y153059D02*X284992D01*
X284008Y147941D02*X284992D01*
G54D220*X273905Y159755D02*Y154245D01*
X262095Y159755D02*Y154245D01*
X269957Y144893D02*Y144107D01*
X277043Y144893D02*Y144107D01*
G54D218*X267559Y117992D02*Y117008D01*
X262441Y117992D02*Y117008D01*
G54D219*X269574Y112893D02*Y112107D01*
X266426Y112893D02*Y112107D01*
X257107Y102074D02*X257893D01*
X257107Y98926D02*X257893D01*
G54D218*X252008Y102559D02*X252992D01*
X252008Y97441D02*X252992D01*
G54D216*G36*
X269091Y102118D02*Y97591D01*
X273618D01*
Y102118D01*
X269091D01*
G37*
G36*
X263382D02*Y97591D01*
X267909D01*
Y102118D01*
X263382D01*
G37*
G36*
X269091Y96409D02*Y91882D01*
X273618D01*
Y96409D01*
X269091D01*
G37*
G36*
X263382D02*Y91882D01*
X267909D01*
Y96409D01*
X263382D01*
G37*
G54D217*X262201Y90209D02*Y88240D01*
X265350Y90209D02*Y88240D01*
X268500Y90209D02*Y88240D01*
X271650Y90209D02*Y88240D01*
X274799Y90209D02*Y88240D01*
X262201Y105760D02*Y103791D01*
X265350Y105760D02*Y103791D01*
X268500Y105760D02*Y103791D01*
X271650Y105760D02*Y103791D01*
X274799Y105760D02*Y103791D01*
G54D221*X141252Y161189D02*Y153315D01*
X149126Y161189D02*Y153315D01*
X157000Y161189D02*Y153315D01*
X164874Y161189D02*Y153315D01*
X172748Y161189D02*Y153315D01*
G54D222*X182787Y185913D02*Y171740D01*
X131213Y185913D02*Y171740D01*
G54D220*X298319Y102905D02*X300681D01*
X298319Y91095D02*X300681D01*
G54D218*X335059Y78492D02*Y77508D01*
X329941Y78492D02*Y77508D01*
G54D223*X322500Y106950D02*Y93050D01*
X309500Y106950D02*Y93050D01*
G54D218*X293508Y79941D02*X294492D01*
X293508Y85059D02*X294492D01*
G54D220*X282245Y78595D02*X287755D01*
X282245Y90405D02*X287755D01*
G54D218*X329441Y72492D02*Y71508D01*
X334559Y72492D02*Y71508D01*
X329508Y88059D02*X330492D01*
X329508Y82941D02*X330492D01*
G54D224*X321350Y85957D02*X325484D01*
X321350Y83398D02*X325484D01*
X321350Y80839D02*X325484D01*
X321350Y78280D02*X325484D01*
X321350Y75720D02*X325484D01*
X321350Y73161D02*X325484D01*
X321350Y70602D02*X325484D01*
X321350Y68043D02*X325484D01*
X298516D02*X302650D01*
X298516Y70602D02*X302650D01*
X298516Y73161D02*X302650D01*
X298516Y75720D02*X302650D01*
X298516Y78280D02*X302650D01*
X298516Y80839D02*X302650D01*
X298516Y83398D02*X302650D01*
X298516Y85957D02*X302650D01*
G54D225*X312000Y78732D02*Y75268D01*
G54D218*X159559Y130992D02*Y130008D01*
X154441Y130992D02*Y130008D01*
X329008Y122441D02*X329992D01*
X329008Y127559D02*X329992D01*
G54D226*X315681Y122106D02*Y120256D01*
X323319Y122106D02*Y120256D01*
X319500Y129744D02*Y127894D01*
G54D218*X417508Y149441D02*X418492D01*
X417508Y154559D02*X418492D01*
X429059Y153992D02*Y153008D01*
X423941Y153992D02*Y153008D01*
X417508Y139941D02*X418492D01*
X417508Y145059D02*X418492D01*
X426008Y137441D02*X426992D01*
X426008Y142559D02*X426992D01*
X526508Y132941D02*X527492D01*
X526508Y138059D02*X527492D01*
G54D226*X513681Y131106D02*Y129256D01*
X521319Y131106D02*Y129256D01*
X517500Y138744D02*Y136894D01*
G54D218*X389441Y77492D02*Y76508D01*
X394559Y77492D02*Y76508D01*
G54D226*X388256Y90819D02*X390106D01*
X388256Y83181D02*X390106D01*
X395894Y87000D02*X397744D01*
G54D224*X212776Y127539D02*Y125768D01*
Y134232D02*Y132461D01*
X215925Y127539D02*Y125768D01*
Y134232D02*Y132461D01*
X219075Y127539D02*Y125768D01*
Y134232D02*Y132461D01*
X222224Y127539D02*Y125768D01*
Y134232D02*Y132461D01*
G54D218*X204008Y141941D02*X204992D01*
X204008Y147059D02*X204992D01*
G54D227*X211701Y146240D02*X213669D01*
X211701Y142500D02*X213669D01*
X211701Y138760D02*X213669D01*
X222331D02*X224299D01*
X222331Y142500D02*X224299D01*
X222331Y146240D02*X224299D01*
G54D218*X147559Y139492D02*Y138508D01*
X142441Y139492D02*Y138508D01*
G54D227*X154701Y146240D02*X156669D01*
X154701Y142500D02*X156669D01*
X154701Y138760D02*X156669D01*
X165331D02*X167299D01*
X165331Y142500D02*X167299D01*
X165331Y146240D02*X167299D01*
G54D218*X208008Y130559D02*X208992D01*
X208008Y125441D02*X208992D01*
X200008Y125941D02*X200992D01*
X200008Y131059D02*X200992D01*
X181559Y147992D02*Y147008D01*
X176441Y147992D02*Y147008D01*
Y142492D02*Y141508D01*
X181559Y142492D02*Y141508D01*
X171508Y131941D02*X172492D01*
X171508Y137059D02*X172492D01*
X177008D02*X177992D01*
X177008Y131941D02*X177992D01*
G54D224*X251776Y54039D02*Y52268D01*
Y60732D02*Y58961D01*
X254925Y54039D02*Y52268D01*
Y60732D02*Y58961D01*
X258075Y54039D02*Y52268D01*
Y60732D02*Y58961D01*
X261224Y54039D02*Y52268D01*
Y60732D02*Y58961D01*
G54D228*X254858Y67772D02*X255843D01*
X254858Y64228D02*X255843D01*
X261157D02*X262142D01*
X261157Y67772D02*X262142D01*
X238858D02*X239843D01*
X238858Y64228D02*X239843D01*
X245157D02*X246142D01*
X245157Y67772D02*X246142D01*
G54D224*X235776Y54039D02*Y52268D01*
Y60732D02*Y58961D01*
X238925Y54039D02*Y52268D01*
Y60732D02*Y58961D01*
X242075Y54039D02*Y52268D01*
Y60732D02*Y58961D01*
X245224Y54039D02*Y52268D01*
Y60732D02*Y58961D01*
G54D220*X253107Y77457D02*X253893D01*
X253107Y84543D02*X253893D01*
G54D218*X135059Y116992D02*Y116008D01*
X129941Y116992D02*Y116008D01*
X135059Y122492D02*Y121508D01*
X129941Y122492D02*Y121508D01*
G54D221*X203752Y161189D02*Y153315D01*
X211626Y161189D02*Y153315D01*
X219500Y161189D02*Y153315D01*
X227374Y161189D02*Y153315D01*
X235248Y161189D02*Y153315D01*
G54D222*X245287Y185913D02*Y171740D01*
X193713Y185913D02*Y171740D01*
G54D229*X444000Y102252D02*Y102134D01*
Y113866D02*Y113748D01*
X229634Y103500D02*X229752D01*
X241248D02*X241366D01*
X338000Y102252D02*Y102134D01*
Y113866D02*Y113748D01*
M02*
