G04 start of page 11 for group -4079 idx -4079 *
G04 Title: fet12v2logic, topsilk *
G04 Creator: pcb 20140316 *
G04 CreationDate: Wed 13 Jun 2018 07:44:19 AM GMT UTC *
G04 For: brian *
G04 Format: Gerber/RS-274X *
G04 PCB-Dimensions (mil): 6000.00 5000.00 *
G04 PCB-Coordinate-Origin: lower left *
%MOIN*%
%FSLAX25Y25*%
%LNTOPSILK*%
%ADD193C,0.0170*%
%ADD192C,0.0080*%
%ADD191C,0.0100*%
G54D191*X236500Y170500D02*Y168000D01*
X226000Y149500D02*Y149000D01*
X225000Y148000D01*
X214500Y118500D02*Y123000D01*
X213000Y180000D02*X214000Y181000D01*
X432000Y188500D02*X441500D01*
X474500Y127500D02*Y124500D01*
X477500Y135000D02*X479500D01*
X477500Y133500D02*X478500Y134500D01*
X479500Y133500D01*
X477500D01*
X478500Y137000D02*Y132000D01*
X387500Y90000D02*X385500D01*
X359000Y122000D02*Y123500D01*
X363500D02*Y121000D01*
X295500Y63000D02*Y62500D01*
X294500Y64000D02*X295500Y63000D01*
X329000Y186000D03*
X327500Y151500D02*Y146500D01*
X328500Y145500D01*
X324500Y158000D02*Y159000D01*
X325500Y160000D01*
X331500Y133000D02*X330000Y131500D01*
Y130500D01*
X367500Y142500D02*X368000Y143000D01*
X368500D01*
X354500Y142500D02*Y140500D01*
X356000Y139000D01*
X340500Y146000D02*X341500D01*
X343000Y147500D01*
Y151500D01*
X346000Y154500D01*
X337500Y163000D02*X336500D01*
X336000Y163500D01*
X303500Y170500D02*X303000D01*
X301500Y169000D01*
X206500Y177500D02*Y181000D01*
X214000D02*Y185500D01*
X201000Y182000D02*Y185000D01*
X189000Y182000D02*Y185000D01*
X189500Y185500D01*
X201000Y185000D02*X201500Y185500D01*
G54D192*X146000Y186500D02*X155000D01*
G54D191*X170500Y183000D02*X168500D01*
X166500Y185000D01*
G54D192*X172000Y171500D02*X180500D01*
X156000D02*Y172000D01*
X154500Y173500D01*
X309025Y185750D02*X310000D01*
X308500Y186275D02*X309025Y185750D01*
X308500Y188225D02*Y186275D01*
Y188225D02*X309025Y188750D01*
X310000D01*
X310900Y188000D02*Y185750D01*
Y188000D02*X311425Y188750D01*
X312250D01*
X312775Y188000D01*
Y185750D01*
X310900Y187250D02*X312775D01*
X313675Y188750D02*Y185750D01*
Y188750D02*X315550Y185750D01*
Y188750D02*Y185750D01*
X316450Y188750D02*Y185750D01*
X318325Y188750D02*Y185750D01*
X316450Y187250D02*X318325D01*
X344000Y167020D02*X344980Y163100D01*
X345960Y167020D01*
X347822Y163100D02*X349096D01*
X347136Y163786D02*X347822Y163100D01*
X347136Y166334D02*Y163786D01*
Y166334D02*X347822Y167020D01*
X349096D01*
X350958Y163100D02*X352232D01*
X350272Y163786D02*X350958Y163100D01*
X350272Y166334D02*Y163786D01*
Y166334D02*X350958Y167020D01*
X352232D01*
X310000Y158980D02*X311040D01*
X310000D02*Y157940D01*
X310260Y158200D01*
X310780D01*
X311040Y157940D01*
Y157160D01*
X310780Y156900D02*X311040Y157160D01*
X310260Y156900D02*X310780D01*
X310000Y157160D02*X310260Y156900D01*
X311664Y158980D02*X312184Y156900D01*
X312704Y158980D01*
X326936Y140500D02*X326520Y140916D01*
X328600D01*
Y141280D02*Y140500D01*
X326780Y141904D02*X326520Y142164D01*
Y142944D02*Y142164D01*
Y142944D02*X326780Y143204D01*
X327300D01*
X328600Y141904D02*X327300Y143204D01*
X328600D02*Y141904D01*
X326520Y143828D02*X328600Y144348D01*
X326520Y144868D01*
X429960Y64520D02*X430450Y64030D01*
X428490Y64520D02*X429960D01*
X428000Y64030D02*X428490Y64520D01*
X428000Y64030D02*Y61090D01*
X428490Y60600D01*
X429960D01*
X430450Y61090D01*
Y62070D02*Y61090D01*
X429960Y62560D02*X430450Y62070D01*
X428980Y62560D02*X429960D01*
X431626Y64520D02*Y60600D01*
Y64520D02*X434076Y60600D01*
Y64520D02*Y60600D01*
X435742Y64520D02*Y60600D01*
X437016Y64520D02*X437702Y63834D01*
Y61286D01*
X437016Y60600D02*X437702Y61286D01*
X435252Y60600D02*X437016D01*
X435252Y64520D02*X437016D01*
X375955Y59090D02*X376440Y58605D01*
X374985Y59090D02*X375955D01*
X374500Y58605D02*X374985Y59090D01*
X374500Y58605D02*Y57635D01*
X374985Y57150D01*
X375955D01*
X376440Y57635D01*
X374500Y56180D02*X374985Y55695D01*
X375955D01*
X376440Y56180D01*
Y59090D02*Y56180D01*
X379059Y59090D02*X379544Y58605D01*
X378089Y59090D02*X379059D01*
X377604Y58605D02*X378089Y59090D01*
X377604Y58605D02*Y57635D01*
X378089Y57150D01*
X379544Y59090D02*Y57635D01*
X380029Y57150D01*
X378089D02*X379059D01*
X379544Y57635D01*
X381678Y61030D02*Y57635D01*
X382163Y57150D01*
X381193Y59575D02*X382163D01*
X383618Y57150D02*X385073D01*
X383133Y57635D02*X383618Y57150D01*
X383133Y58605D02*Y57635D01*
Y58605D02*X383618Y59090D01*
X384588D01*
X385073Y58605D01*
X383133Y58120D02*X385073D01*
Y58605D02*Y58120D01*
X286955Y54090D02*X287440Y53605D01*
X285985Y54090D02*X286955D01*
X285500Y53605D02*X285985Y54090D01*
X285500Y53605D02*Y52635D01*
X285985Y52150D01*
X286955D01*
X287440Y52635D01*
X285500Y51180D02*X285985Y50695D01*
X286955D01*
X287440Y51180D01*
Y54090D02*Y51180D01*
X290059Y54090D02*X290544Y53605D01*
X289089Y54090D02*X290059D01*
X288604Y53605D02*X289089Y54090D01*
X288604Y53605D02*Y52635D01*
X289089Y52150D01*
X290544Y54090D02*Y52635D01*
X291029Y52150D01*
X289089D02*X290059D01*
X290544Y52635D01*
X292678Y56030D02*Y52635D01*
X293163Y52150D01*
X292193Y54575D02*X293163D01*
X294618Y52150D02*X296073D01*
X294133Y52635D02*X294618Y52150D01*
X294133Y53605D02*Y52635D01*
Y53605D02*X294618Y54090D01*
X295588D01*
X296073Y53605D01*
X294133Y53120D02*X296073D01*
Y53605D02*Y53120D01*
X339460Y54520D02*X339950Y54030D01*
X337990Y54520D02*X339460D01*
X337500Y54030D02*X337990Y54520D01*
X337500Y54030D02*Y51090D01*
X337990Y50600D01*
X339460D01*
X339950Y51090D01*
Y52070D02*Y51090D01*
X339460Y52560D02*X339950Y52070D01*
X338480Y52560D02*X339460D01*
X341126Y54520D02*Y50600D01*
Y54520D02*X343576Y50600D01*
Y54520D02*Y50600D01*
X345242Y54520D02*Y50600D01*
X346516Y54520D02*X347202Y53834D01*
Y51286D01*
X346516Y50600D02*X347202Y51286D01*
X344752Y50600D02*X346516D01*
X344752Y54520D02*X346516D01*
X237960Y65520D02*X238450Y65030D01*
X236490Y65520D02*X237960D01*
X236000Y65030D02*X236490Y65520D01*
X236000Y65030D02*Y62090D01*
X236490Y61600D01*
X237960D01*
X238450Y62090D01*
Y63070D02*Y62090D01*
X237960Y63560D02*X238450Y63070D01*
X236980Y63560D02*X237960D01*
X239626Y65520D02*Y61600D01*
Y65520D02*X242076Y61600D01*
Y65520D02*Y61600D01*
X243742Y65520D02*Y61600D01*
X245016Y65520D02*X245702Y64834D01*
Y62286D01*
X245016Y61600D02*X245702Y62286D01*
X243252Y61600D02*X245016D01*
X243252Y65520D02*X245016D01*
X439970Y92560D02*X440460Y92070D01*
X438990Y92560D02*X439970D01*
X438500Y92070D02*X438990Y92560D01*
X438500Y92070D02*Y91090D01*
X438990Y90600D01*
X439970D01*
X440460Y91090D01*
X438500Y89620D02*X438990Y89130D01*
X439970D01*
X440460Y89620D01*
Y92560D02*Y89620D01*
X443106Y92560D02*X443596Y92070D01*
X442126Y92560D02*X443106D01*
X441636Y92070D02*X442126Y92560D01*
X441636Y92070D02*Y91090D01*
X442126Y90600D01*
X443596Y92560D02*Y91090D01*
X444086Y90600D01*
X442126D02*X443106D01*
X443596Y91090D01*
X445752Y94520D02*Y91090D01*
X446242Y90600D01*
X445262Y93050D02*X446242D01*
X447712Y90600D02*X449182D01*
X447222Y91090D02*X447712Y90600D01*
X447222Y92070D02*Y91090D01*
Y92070D02*X447712Y92560D01*
X448692D01*
X449182Y92070D01*
X447222Y91580D02*X449182D01*
Y92070D02*Y91580D01*
X322970Y86560D02*X323460Y86070D01*
X321990Y86560D02*X322970D01*
X321500Y86070D02*X321990Y86560D01*
X321500Y86070D02*Y85090D01*
X321990Y84600D01*
X322970D01*
X323460Y85090D01*
X321500Y83620D02*X321990Y83130D01*
X322970D01*
X323460Y83620D01*
Y86560D02*Y83620D01*
X326106Y86560D02*X326596Y86070D01*
X325126Y86560D02*X326106D01*
X324636Y86070D02*X325126Y86560D01*
X324636Y86070D02*Y85090D01*
X325126Y84600D01*
X326596Y86560D02*Y85090D01*
X327086Y84600D01*
X325126D02*X326106D01*
X326596Y85090D01*
X328752Y88520D02*Y85090D01*
X329242Y84600D01*
X328262Y87050D02*X329242D01*
X330712Y84600D02*X332182D01*
X330222Y85090D02*X330712Y84600D01*
X330222Y86070D02*Y85090D01*
Y86070D02*X330712Y86560D01*
X331692D01*
X332182Y86070D01*
X330222Y85580D02*X332182D01*
Y86070D02*Y85580D01*
X237970Y87060D02*X238460Y86570D01*
X236990Y87060D02*X237970D01*
X236500Y86570D02*X236990Y87060D01*
X236500Y86570D02*Y85590D01*
X236990Y85100D01*
X237970D01*
X238460Y85590D01*
X236500Y84120D02*X236990Y83630D01*
X237970D01*
X238460Y84120D01*
Y87060D02*Y84120D01*
X241106Y87060D02*X241596Y86570D01*
X240126Y87060D02*X241106D01*
X239636Y86570D02*X240126Y87060D01*
X239636Y86570D02*Y85590D01*
X240126Y85100D01*
X241596Y87060D02*Y85590D01*
X242086Y85100D01*
X240126D02*X241106D01*
X241596Y85590D01*
X243752Y89020D02*Y85590D01*
X244242Y85100D01*
X243262Y87550D02*X244242D01*
X245712Y85100D02*X247182D01*
X245222Y85590D02*X245712Y85100D01*
X245222Y86570D02*Y85590D01*
Y86570D02*X245712Y87060D01*
X246692D01*
X247182Y86570D01*
X245222Y86080D02*X247182D01*
Y86570D02*Y86080D01*
X271990Y105070D02*Y102130D01*
X271500Y105560D02*X271990Y105070D01*
X272480Y105560D01*
X273460D01*
X273950Y105070D01*
Y104090D01*
X273460Y103600D02*X273950Y104090D01*
X272480Y103600D02*X273460D01*
X271990Y104090D02*X272480Y103600D01*
X275126Y107520D02*Y103600D01*
Y105070D02*X275616Y105560D01*
X276596D01*
X277086Y105070D01*
Y103600D01*
X279732Y105560D02*X280222Y105070D01*
X278752Y105560D02*X279732D01*
X278262Y105070D02*X278752Y105560D01*
X278262Y105070D02*Y104090D01*
X278752Y103600D01*
X280222Y105560D02*Y104090D01*
X280712Y103600D01*
X278752D02*X279732D01*
X280222Y104090D01*
X282378Y103600D02*X283848D01*
X284338Y104090D01*
X283848Y104580D02*X284338Y104090D01*
X282378Y104580D02*X283848D01*
X281888Y105070D02*X282378Y104580D01*
X281888Y105070D02*X282378Y105560D01*
X283848D01*
X284338Y105070D01*
X281888Y104090D02*X282378Y103600D01*
X286004D02*X287474D01*
X285514Y104090D02*X286004Y103600D01*
X285514Y105070D02*Y104090D01*
Y105070D02*X286004Y105560D01*
X286984D01*
X287474Y105070D01*
X285514Y104580D02*X287474D01*
Y105070D02*Y104580D01*
X382430Y101490D02*X385370D01*
X381940Y101000D02*X382430Y101490D01*
X381940Y101980D01*
Y102960D02*Y101980D01*
Y102960D02*X382430Y103450D01*
X383410D01*
X383900Y102960D02*X383410Y103450D01*
X383900Y102960D02*Y101980D01*
X383410Y101490D02*X383900Y101980D01*
X379980Y104626D02*X383900D01*
X382430D02*X381940Y105116D01*
Y106096D02*Y105116D01*
Y106096D02*X382430Y106586D01*
X383900D01*
X381940Y109232D02*X382430Y109722D01*
X381940Y109232D02*Y108252D01*
X382430Y107762D02*X381940Y108252D01*
X382430Y107762D02*X383410D01*
X383900Y108252D01*
X381940Y109722D02*X383410D01*
X383900Y110212D01*
Y109232D02*Y108252D01*
Y109232D02*X383410Y109722D01*
X383900Y113348D02*Y111878D01*
Y113348D02*X383410Y113838D01*
X382920Y113348D02*X383410Y113838D01*
X382920Y113348D02*Y111878D01*
X382430Y111388D02*X382920Y111878D01*
X382430Y111388D02*X381940Y111878D01*
Y113348D02*Y111878D01*
Y113348D02*X382430Y113838D01*
X383410Y111388D02*X383900Y111878D01*
Y116974D02*Y115504D01*
X383410Y115014D02*X383900Y115504D01*
X382430Y115014D02*X383410D01*
X382430D02*X381940Y115504D01*
Y116484D02*Y115504D01*
Y116484D02*X382430Y116974D01*
X382920D02*Y115014D01*
X382430Y116974D02*X382920D01*
X241000Y82750D02*X241375D01*
X241000D02*Y79750D01*
X241375D01*
X242650Y82750D02*Y79750D01*
X242275Y82750D02*X243775D01*
X244150Y82375D01*
Y81625D01*
X243775Y81250D02*X244150Y81625D01*
X242650Y81250D02*X243775D01*
X245050Y82750D02*Y79750D01*
X246925Y82750D02*Y79750D01*
X245050Y81250D02*X246925D01*
X247825Y82000D02*Y79750D01*
Y82000D02*X248350Y82750D01*
X249175D01*
X249700Y82000D01*
Y79750D01*
X247825Y81250D02*X249700D01*
X252100Y82750D02*X252475Y82375D01*
X250975Y82750D02*X252100D01*
X250600Y82375D02*X250975Y82750D01*
X250600Y82375D02*Y81625D01*
X250975Y81250D01*
X252100D01*
X252475Y80875D01*
Y80125D01*
X252100Y79750D02*X252475Y80125D01*
X250975Y79750D02*X252100D01*
X250600Y80125D02*X250975Y79750D01*
X253375Y81400D02*X254500D01*
X253375Y79750D02*X254875D01*
X253375Y82750D02*Y79750D01*
Y82750D02*X254875D01*
X257125Y82375D02*X257500Y82750D01*
X258625D01*
X259000Y82375D01*
Y81625D01*
X257125Y79750D02*X259000Y81625D01*
X257125Y79750D02*X259000D01*
X259900Y82750D02*X260275D01*
Y79750D01*
X259900D02*X260275D01*
X293025Y166250D02*X294000D01*
X292500Y166775D02*X293025Y166250D01*
X292500Y168725D02*Y166775D01*
Y168725D02*X293025Y169250D01*
X294000D01*
X294900Y168500D02*Y166250D01*
Y168500D02*X295425Y169250D01*
X296250D01*
X296775Y168500D01*
Y166250D01*
X294900Y167750D02*X296775D01*
X297675Y169250D02*Y166250D01*
Y169250D02*X299550Y166250D01*
Y169250D02*Y166250D01*
X300450Y169250D02*Y166250D01*
X301950D01*
X275000Y161980D02*X275520Y159900D01*
X276040Y161980D01*
X277028Y159900D02*X277704D01*
X276664Y160264D02*X277028Y159900D01*
X276664Y161616D02*Y160264D01*
Y161616D02*X277028Y161980D01*
X277704D01*
X278692Y159900D02*X279368D01*
X278328Y160264D02*X278692Y159900D01*
X278328Y161616D02*Y160264D01*
Y161616D02*X278692Y161980D01*
X279368D01*
X265500Y154720D02*X265760Y154980D01*
X266280D01*
X266540Y154720D01*
X266280Y152900D02*X266540Y153160D01*
X265760Y152900D02*X266280D01*
X265500Y153160D02*X265760Y152900D01*
Y154044D02*X266280D01*
X266540Y154720D02*Y154304D01*
Y153784D02*Y153160D01*
Y153784D02*X266280Y154044D01*
X266540Y154304D02*X266280Y154044D01*
X267164Y154980D02*X267684Y152900D01*
X268204Y154980D01*
X268828Y154720D02*X269088Y154980D01*
X269608D01*
X269868Y154720D01*
X269608Y152900D02*X269868Y153160D01*
X269088Y152900D02*X269608D01*
X268828Y153160D02*X269088Y152900D01*
Y154044D02*X269608D01*
X269868Y154720D02*Y154304D01*
Y153784D02*Y153160D01*
Y153784D02*X269608Y154044D01*
X269868Y154304D02*X269608Y154044D01*
X486490Y179070D02*Y177600D01*
Y179070D02*X486980Y179560D01*
X487960D01*
X486000D02*X486490Y179070D01*
X489136Y180540D02*Y180442D01*
Y179070D02*Y177600D01*
X490606Y179070D02*Y177600D01*
Y179070D02*X491096Y179560D01*
X491586D01*
X492076Y179070D01*
Y177600D01*
X490116Y179560D02*X490606Y179070D01*
X494722Y179560D02*X495212Y179070D01*
X493742Y179560D02*X494722D01*
X493252Y179070D02*X493742Y179560D01*
X493252Y179070D02*Y178090D01*
X493742Y177600D01*
X494722D01*
X495212Y178090D01*
X493252Y176620D02*X493742Y176130D01*
X494722D01*
X495212Y176620D01*
Y179560D02*Y176620D01*
X498152Y181030D02*Y178090D01*
Y181030D02*X498642Y181520D01*
X499622D01*
X500112Y181030D01*
Y178090D01*
X499622Y177600D02*X500112Y178090D01*
X498642Y177600D02*X499622D01*
X498152Y178090D02*X498642Y177600D01*
X485990Y174520D02*Y171090D01*
X486480Y170600D01*
X485500Y173050D02*X486480D01*
X487460Y173540D02*Y173442D01*
Y172070D02*Y170600D01*
X488930Y172070D02*Y169130D01*
X488440Y172560D02*X488930Y172070D01*
X489420Y172560D01*
X490400D01*
X490890Y172070D01*
Y171090D01*
X490400Y170600D02*X490890Y171090D01*
X489420Y170600D02*X490400D01*
X488930Y171090D02*X489420Y170600D01*
X493830Y174520D02*X494810D01*
X494320D02*Y170600D01*
X493830D02*X494810D01*
X494500Y156250D02*X495250Y153250D01*
X496000Y156250D01*
X497425Y153250D02*X498400D01*
X496900Y153775D02*X497425Y153250D01*
X496900Y155725D02*Y153775D01*
Y155725D02*X497425Y156250D01*
X498400D01*
X499825Y153250D02*X500800D01*
X499300Y153775D02*X499825Y153250D01*
X499300Y155725D02*Y153775D01*
Y155725D02*X499825Y156250D01*
X500800D01*
X496455Y134590D02*X496940Y134105D01*
X495485Y134590D02*X496455D01*
X495000Y134105D02*X495485Y134590D01*
X495000Y134105D02*Y133135D01*
X495485Y132650D01*
X496455D01*
X496940Y133135D01*
X495000Y131680D02*X495485Y131195D01*
X496455D01*
X496940Y131680D01*
Y134590D02*Y131680D01*
X499559Y134590D02*X500044Y134105D01*
X498589Y134590D02*X499559D01*
X498104Y134105D02*X498589Y134590D01*
X498104Y134105D02*Y133135D01*
X498589Y132650D01*
X500044Y134590D02*Y133135D01*
X500529Y132650D01*
X498589D02*X499559D01*
X500044Y133135D01*
X502178Y136530D02*Y133135D01*
X502663Y132650D01*
X501693Y135075D02*X502663D01*
X504118Y132650D02*X505573D01*
X503633Y133135D02*X504118Y132650D01*
X503633Y134105D02*Y133135D01*
Y134105D02*X504118Y134590D01*
X505088D01*
X505573Y134105D01*
X503633Y133620D02*X505573D01*
Y134105D02*Y133620D01*
X483490Y105070D02*Y102130D01*
X483000Y105560D02*X483490Y105070D01*
X483980Y105560D01*
X484960D01*
X485450Y105070D01*
Y104090D01*
X484960Y103600D02*X485450Y104090D01*
X483980Y103600D02*X484960D01*
X483490Y104090D02*X483980Y103600D01*
X486626Y107520D02*Y103600D01*
Y105070D02*X487116Y105560D01*
X488096D01*
X488586Y105070D01*
Y103600D01*
X491232Y105560D02*X491722Y105070D01*
X490252Y105560D02*X491232D01*
X489762Y105070D02*X490252Y105560D01*
X489762Y105070D02*Y104090D01*
X490252Y103600D01*
X491722Y105560D02*Y104090D01*
X492212Y103600D01*
X490252D02*X491232D01*
X491722Y104090D01*
X493878Y103600D02*X495348D01*
X495838Y104090D01*
X495348Y104580D02*X495838Y104090D01*
X493878Y104580D02*X495348D01*
X493388Y105070D02*X493878Y104580D01*
X493388Y105070D02*X493878Y105560D01*
X495348D01*
X495838Y105070D01*
X493388Y104090D02*X493878Y103600D01*
X497504D02*X498974D01*
X497014Y104090D02*X497504Y103600D01*
X497014Y105070D02*Y104090D01*
Y105070D02*X497504Y105560D01*
X498484D01*
X498974Y105070D01*
X497014Y104580D02*X498974D01*
Y105070D02*Y104580D01*
X456500Y178020D02*X456990D01*
X456500D02*Y174100D01*
X456990D01*
X458656Y178020D02*Y174100D01*
X458166Y178020D02*X460126D01*
X460616Y177530D01*
Y176550D01*
X460126Y176060D02*X460616Y176550D01*
X458656Y176060D02*X460126D01*
X461792Y178020D02*Y174100D01*
X464242Y178020D02*Y174100D01*
X461792Y176060D02*X464242D01*
X465418Y177040D02*Y174100D01*
Y177040D02*X466104Y178020D01*
X467182D01*
X467868Y177040D01*
Y174100D01*
X465418Y176060D02*X467868D01*
X471004Y178020D02*X471494Y177530D01*
X469534Y178020D02*X471004D01*
X469044Y177530D02*X469534Y178020D01*
X469044Y177530D02*Y176550D01*
X469534Y176060D01*
X471004D01*
X471494Y175570D01*
Y174590D01*
X471004Y174100D02*X471494Y174590D01*
X469534Y174100D02*X471004D01*
X469044Y174590D02*X469534Y174100D01*
X472670Y176256D02*X474140D01*
X472670Y174100D02*X474630D01*
X472670Y178020D02*Y174100D01*
Y178020D02*X474630D01*
X477570Y174590D02*X478060Y174100D01*
X477570Y177530D02*Y174590D01*
Y177530D02*X478060Y178020D01*
X479040D01*
X479530Y177530D01*
Y174590D01*
X479040Y174100D02*X479530Y174590D01*
X478060Y174100D02*X479040D01*
X477570Y175080D02*X479530Y177040D01*
X480706Y178020D02*X481196D01*
Y174100D01*
X480706D02*X481196D01*
X502470Y64060D02*X502960Y63570D01*
X501490Y64060D02*X502470D01*
X501000Y63570D02*X501490Y64060D01*
X501000Y63570D02*Y62590D01*
X501490Y62100D01*
X502470D01*
X502960Y62590D01*
X501000Y61120D02*X501490Y60630D01*
X502470D01*
X502960Y61120D01*
Y64060D02*Y61120D01*
X505606Y64060D02*X506096Y63570D01*
X504626Y64060D02*X505606D01*
X504136Y63570D02*X504626Y64060D01*
X504136Y63570D02*Y62590D01*
X504626Y62100D01*
X506096Y64060D02*Y62590D01*
X506586Y62100D01*
X504626D02*X505606D01*
X506096Y62590D01*
X508252Y66020D02*Y62590D01*
X508742Y62100D01*
X507762Y64550D02*X508742D01*
X510212Y62100D02*X511682D01*
X509722Y62590D02*X510212Y62100D01*
X509722Y63570D02*Y62590D01*
Y63570D02*X510212Y64060D01*
X511192D01*
X511682Y63570D01*
X509722Y63080D02*X511682D01*
Y63570D02*Y63080D01*
X512460Y85520D02*X512950Y85030D01*
X510990Y85520D02*X512460D01*
X510500Y85030D02*X510990Y85520D01*
X510500Y85030D02*Y84050D01*
X510990Y83560D01*
X512460D01*
X512950Y83070D01*
Y82090D01*
X512460Y81600D02*X512950Y82090D01*
X510990Y81600D02*X512460D01*
X510500Y82090D02*X510990Y81600D01*
X514616D02*X516086D01*
X514126Y82090D02*X514616Y81600D01*
X514126Y83070D02*Y82090D01*
Y83070D02*X514616Y83560D01*
X515596D01*
X516086Y83070D01*
X514126Y82580D02*X516086D01*
Y83070D02*Y82580D01*
X517752Y81600D02*X519222D01*
X517262Y82090D02*X517752Y81600D01*
X517262Y83070D02*Y82090D01*
Y83070D02*X517752Y83560D01*
X518732D01*
X519222Y83070D01*
X517262Y82580D02*X519222D01*
Y83070D02*Y82580D01*
X520888Y83070D02*Y81600D01*
Y83070D02*X521378Y83560D01*
X521868D01*
X522358Y83070D01*
Y81600D01*
Y83070D02*X522848Y83560D01*
X523338D01*
X523828Y83070D01*
Y81600D01*
X520398Y83560D02*X520888Y83070D01*
X525494Y81600D02*X526964D01*
X527454Y82090D01*
X526964Y82580D02*X527454Y82090D01*
X525494Y82580D02*X526964D01*
X525004Y83070D02*X525494Y82580D01*
X525004Y83070D02*X525494Y83560D01*
X526964D01*
X527454Y83070D01*
X525004Y82090D02*X525494Y81600D01*
X506500Y81520D02*X508460D01*
X508950Y81030D01*
Y80050D01*
X508460Y79560D02*X508950Y80050D01*
X506990Y79560D02*X508460D01*
X506990Y81520D02*Y77600D01*
X507774Y79560D02*X508950Y77600D01*
X510616D02*X512086D01*
X510126Y78090D02*X510616Y77600D01*
X510126Y79070D02*Y78090D01*
Y79070D02*X510616Y79560D01*
X511596D01*
X512086Y79070D01*
X510126Y78580D02*X512086D01*
Y79070D02*Y78580D01*
X514732Y79560D02*X515222Y79070D01*
X513752Y79560D02*X514732D01*
X513262Y79070D02*X513752Y79560D01*
X513262Y79070D02*Y78090D01*
X513752Y77600D01*
X515222Y79560D02*Y78090D01*
X515712Y77600D01*
X513752D02*X514732D01*
X515222Y78090D01*
X517378Y77600D02*X518848D01*
X519338Y78090D01*
X518848Y78580D02*X519338Y78090D01*
X517378Y78580D02*X518848D01*
X516888Y79070D02*X517378Y78580D01*
X516888Y79070D02*X517378Y79560D01*
X518848D01*
X519338Y79070D01*
X516888Y78090D02*X517378Y77600D01*
X520514Y79070D02*Y78090D01*
Y79070D02*X521004Y79560D01*
X521984D01*
X522474Y79070D01*
Y78090D01*
X521984Y77600D02*X522474Y78090D01*
X521004Y77600D02*X521984D01*
X520514Y78090D02*X521004Y77600D01*
X524140Y79070D02*Y77600D01*
Y79070D02*X524630Y79560D01*
X525120D01*
X525610Y79070D01*
Y77600D01*
X523650Y79560D02*X524140Y79070D01*
X528256Y79560D02*X528746Y79070D01*
X527276Y79560D02*X528256D01*
X526786Y79070D02*X527276Y79560D01*
X526786Y79070D02*Y78090D01*
X527276Y77600D01*
X528746Y79560D02*Y78090D01*
X529236Y77600D01*
X527276D02*X528256D01*
X528746Y78090D01*
X530412Y81520D02*Y77600D01*
Y78090D02*X530902Y77600D01*
X531882D01*
X532372Y78090D01*
Y79070D02*Y78090D01*
X531882Y79560D02*X532372Y79070D01*
X530902Y79560D02*X531882D01*
X530412Y79070D02*X530902Y79560D01*
X533548Y81520D02*Y78090D01*
X534038Y77600D01*
X535508D02*X536978D01*
X535018Y78090D02*X535508Y77600D01*
X535018Y79070D02*Y78090D01*
Y79070D02*X535508Y79560D01*
X536488D01*
X536978Y79070D01*
X535018Y78580D02*X536978D01*
Y79070D02*Y78580D01*
X511875Y75375D02*Y72750D01*
Y75375D02*X512250Y75750D01*
X512625D01*
X511500Y74250D02*X512250D01*
X513750Y72750D02*X514875D01*
X513375Y73125D02*X513750Y72750D01*
X513375Y73875D02*Y73125D01*
Y73875D02*X513750Y74250D01*
X514500D01*
X514875Y73875D01*
X513375Y73500D02*X514875D01*
Y73875D02*Y73500D01*
X516150Y75750D02*Y73125D01*
X516525Y72750D01*
X515775Y74625D02*X516525D01*
X517275Y75150D02*X517875Y75750D01*
Y72750D01*
X517275D02*X518400D01*
X519300Y75375D02*X519675Y75750D01*
X520800D01*
X521175Y75375D01*
Y74625D01*
X519300Y72750D02*X521175Y74625D01*
X519300Y72750D02*X521175D01*
X522075Y74250D02*X522825Y72750D01*
X523575Y74250D02*X522825Y72750D01*
X524475Y75375D02*X524850Y75750D01*
X525975D01*
X526350Y75375D01*
Y74625D01*
X524475Y72750D02*X526350Y74625D01*
X524475Y72750D02*X526350D01*
X527250Y75750D02*Y73125D01*
X527625Y72750D01*
X528375Y73875D02*Y73125D01*
Y73875D02*X528750Y74250D01*
X529500D01*
X529875Y73875D01*
Y73125D01*
X529500Y72750D02*X529875Y73125D01*
X528750Y72750D02*X529500D01*
X528375Y73125D02*X528750Y72750D01*
X531900Y74250D02*X532275Y73875D01*
X531150Y74250D02*X531900D01*
X530775Y73875D02*X531150Y74250D01*
X530775Y73875D02*Y73125D01*
X531150Y72750D01*
X531900D01*
X532275Y73125D01*
X530775Y72000D02*X531150Y71625D01*
X531900D01*
X532275Y72000D01*
Y74250D02*Y72000D01*
X533175Y75000D02*Y74925D01*
Y73875D02*Y72750D01*
X534300Y74250D02*X535425D01*
X533925Y73875D02*X534300Y74250D01*
X533925Y73875D02*Y73125D01*
X534300Y72750D01*
X535425D01*
X513000Y70030D02*X513490Y70520D01*
X514960D01*
X515450Y70030D01*
Y69050D01*
X513000Y66600D02*X515450Y69050D01*
X513000Y66600D02*X515450D01*
X516626Y67090D02*X517116Y66600D01*
X516626Y70030D02*Y67090D01*
Y70030D02*X517116Y70520D01*
X518096D01*
X518586Y70030D01*
Y67090D01*
X518096Y66600D02*X518586Y67090D01*
X517116Y66600D02*X518096D01*
X516626Y67580D02*X518586Y69540D01*
X519762Y69736D02*X520546Y70520D01*
Y66600D01*
X519762D02*X521232D01*
X522408Y67090D02*X522898Y66600D01*
X522408Y67874D02*Y67090D01*
Y67874D02*X523094Y68560D01*
X523682D01*
X524368Y67874D01*
Y67090D01*
X523878Y66600D02*X524368Y67090D01*
X522898Y66600D02*X523878D01*
X522408Y69246D02*X523094Y68560D01*
X522408Y70030D02*Y69246D01*
Y70030D02*X522898Y70520D01*
X523878D01*
X524368Y70030D01*
Y69246D01*
X523682Y68560D02*X524368Y69246D01*
X525544Y67090D02*X526034Y66600D01*
X525544Y70030D02*Y67090D01*
Y70030D02*X526034Y70520D01*
X527014D01*
X527504Y70030D01*
Y67090D01*
X527014Y66600D02*X527504Y67090D01*
X526034Y66600D02*X527014D01*
X525544Y67580D02*X527504Y69540D01*
X530150Y70520D02*X530640Y70030D01*
X529170Y70520D02*X530150D01*
X528680Y70030D02*X529170Y70520D01*
X528680Y70030D02*Y67090D01*
X529170Y66600D01*
X530150Y68756D02*X530640Y68266D01*
X528680Y68756D02*X530150D01*
X529170Y66600D02*X530150D01*
X530640Y67090D01*
Y68266D02*Y67090D01*
X531816Y69736D02*X532600Y70520D01*
Y66600D01*
X531816D02*X533286D01*
X534462Y69736D02*X535246Y70520D01*
Y66600D01*
X534462D02*X535932D01*
X449470Y147560D02*X449960Y147070D01*
X448490Y147560D02*X449470D01*
X448000Y147070D02*X448490Y147560D01*
X448000Y147070D02*Y146090D01*
X448490Y145600D01*
X449470D01*
X449960Y146090D01*
X448000Y144620D02*X448490Y144130D01*
X449470D01*
X449960Y144620D01*
Y147560D02*Y144620D01*
X452606Y147560D02*X453096Y147070D01*
X451626Y147560D02*X452606D01*
X451136Y147070D02*X451626Y147560D01*
X451136Y147070D02*Y146090D01*
X451626Y145600D01*
X453096Y147560D02*Y146090D01*
X453586Y145600D01*
X451626D02*X452606D01*
X453096Y146090D01*
X455252Y149520D02*Y146090D01*
X455742Y145600D01*
X454762Y148050D02*X455742D01*
X457212Y145600D02*X458682D01*
X456722Y146090D02*X457212Y145600D01*
X456722Y147070D02*Y146090D01*
Y147070D02*X457212Y147560D01*
X458192D01*
X458682Y147070D01*
X456722Y146580D02*X458682D01*
Y147070D02*Y146580D01*
X395000Y163750D02*X395750Y160750D01*
X396500Y163750D01*
X397925Y160750D02*X398900D01*
X397400Y161275D02*X397925Y160750D01*
X397400Y163225D02*Y161275D01*
Y163225D02*X397925Y163750D01*
X398900D01*
X400325Y160750D02*X401300D01*
X399800Y161275D02*X400325Y160750D01*
X399800Y163225D02*Y161275D01*
Y163225D02*X400325Y163750D01*
X401300D01*
X396410Y127455D02*X396895Y127940D01*
X396410Y127455D02*Y126485D01*
X396895Y126000D02*X396410Y126485D01*
X396895Y126000D02*X397865D01*
X398350Y126485D01*
Y127455D02*Y126485D01*
Y127455D02*X397865Y127940D01*
X399320Y126000D02*X399805Y126485D01*
Y127455D02*Y126485D01*
Y127455D02*X399320Y127940D01*
X396410D02*X399320D01*
X396410Y130559D02*X396895Y131044D01*
X396410Y130559D02*Y129589D01*
X396895Y129104D02*X396410Y129589D01*
X396895Y129104D02*X397865D01*
X398350Y129589D01*
X396410Y131044D02*X397865D01*
X398350Y131529D01*
Y130559D02*Y129589D01*
Y130559D02*X397865Y131044D01*
X394470Y133178D02*X397865D01*
X398350Y133663D01*
X395925D02*Y132693D01*
X398350Y136573D02*Y135118D01*
X397865Y134633D02*X398350Y135118D01*
X396895Y134633D02*X397865D01*
X396895D02*X396410Y135118D01*
Y136088D02*Y135118D01*
Y136088D02*X396895Y136573D01*
X397380D02*Y134633D01*
X396895Y136573D02*X397380D01*
X395240Y165370D02*Y165000D01*
X398200D01*
Y165370D02*Y165000D01*
X395240Y166628D02*X398200D01*
X395240Y167738D02*Y166258D01*
Y167738D02*X395610Y168108D01*
X396350D01*
X396720Y167738D02*X396350Y168108D01*
X396720Y167738D02*Y166628D01*
X395240Y168996D02*X398200D01*
X395240Y170846D02*X398200D01*
X396720D02*Y168996D01*
X395980Y171734D02*X398200D01*
X395980D02*X395240Y172252D01*
Y173066D02*Y172252D01*
Y173066D02*X395980Y173584D01*
X398200D01*
X396720D02*Y171734D01*
X395240Y175952D02*X395610Y176322D01*
X395240Y175952D02*Y174842D01*
X395610Y174472D02*X395240Y174842D01*
X395610Y174472D02*X396350D01*
X396720Y174842D01*
Y175952D02*Y174842D01*
Y175952D02*X397090Y176322D01*
X397830D01*
X398200Y175952D02*X397830Y176322D01*
X398200Y175952D02*Y174842D01*
X397830Y174472D02*X398200Y174842D01*
X396572Y178320D02*Y177210D01*
X398200Y178690D02*Y177210D01*
X395240D02*X398200D01*
X395240Y178690D02*Y177210D01*
X395832Y180910D02*X395240Y181502D01*
X398200D01*
Y182020D02*Y180910D01*
X395240Y183278D02*Y182908D01*
Y183278D02*X398200D01*
Y182908D01*
G54D191*X288500Y155500D02*Y136500D01*
X319500D01*
Y155500D01*
X288500D02*X301500D01*
X319500D02*X306500D01*
X301500D02*G75*G03X306500Y155500I2500J0D01*G01*
G54D192*X293173Y174638D02*Y170622D01*
X299827D01*
X293173Y183378D02*Y179362D01*
Y183378D02*X299827D01*
Y178969D02*Y175031D01*
G54D191*X304500Y128200D02*X345900D01*
X304500D02*Y99700D01*
X345900D01*
Y128200D02*Y99700D01*
G54D192*X296745Y119393D02*Y118607D01*
X302255Y119393D02*Y118607D01*
X384800Y187700D02*Y146300D01*
X344200Y187700D02*Y146300D01*
X374500D02*X384800D01*
X344200D02*X354500D01*
X344200Y187700D02*X354500D01*
X374500D02*X384800D01*
X372110Y82528D02*X385890D01*
X372110Y73472D02*X385890D01*
G54D193*X373882Y73866D03*
Y82134D03*
G54D192*X367472Y138390D02*Y124610D01*
X376528Y138390D02*Y124610D01*
G54D193*X376134Y126382D03*
X367866D03*
G54D192*X340110Y130972D02*X353890D01*
X340110Y140028D02*X353890D01*
G54D193*X352118Y139634D03*
Y131366D03*
G54D191*X512000Y133000D02*X531000D01*
X512000D02*Y102000D01*
X531000D01*
Y133000D02*Y120000D01*
Y115000D02*Y102000D01*
Y120000D02*G75*G03X531000Y115000I0J-2500D01*G01*
G54D192*X476972Y128390D02*Y114610D01*
X486028Y128390D02*Y114610D01*
G54D193*X485634Y116382D03*
X477366D03*
G54D192*X478110Y84528D02*X491890D01*
X478110Y75472D02*X491890D01*
G54D193*X479882Y75866D03*
Y84134D03*
G54D191*X472400Y152000D02*Y162000D01*
G54D192*X531417Y190622D02*Y187078D01*
X529842Y190622D02*X531417D01*
X510158D02*X529842D01*
X508583D02*X510158D01*
X532992Y176015D02*Y152040D01*
X508583Y190622D02*Y173692D01*
X510552Y143378D02*X531417D01*
X508583Y164245D02*Y152040D01*
X529842Y198496D02*Y190622D01*
X510158Y198496D02*X529842D01*
X510158D02*Y190622D01*
X441610Y128472D02*X455390D01*
X441610Y137528D02*X455390D01*
G54D193*X453618Y137134D03*
Y128866D03*
G54D192*X261472Y138390D02*Y124610D01*
X270528Y138390D02*Y124610D01*
G54D193*X270134Y126382D03*
X261866D03*
G54D191*X250000Y186500D02*Y167500D01*
X281000D01*
Y186500D02*Y167500D01*
X250000Y186500D02*X263000D01*
X268000D02*X281000D01*
X263000D02*G75*G03X268000Y186500I2500J0D01*G01*
G54D192*X242028Y134390D02*Y120610D01*
X232972Y134390D02*Y120610D01*
G54D193*X233366Y132618D03*
X241634D03*
G54D192*X123500Y144700D02*X143500D01*
X123500Y142300D02*X129250D01*
X137750D02*X143500D01*
X123000Y142800D02*G75*G03X123000Y142800I500J0D01*G01*
X205722Y162322D02*Y118778D01*
X159278D02*X205722D01*
X159278Y165222D02*Y118778D01*
Y165222D02*X202822D01*
X205722Y162322D01*
X202822Y163322D02*G75*G03X202822Y163322I0J-1000D01*G01*
X266110Y84528D02*X279890D01*
X266110Y75472D02*X279890D01*
G54D193*X267882Y75866D03*
Y84134D03*
G54D191*X425000Y105000D02*Y86000D01*
X394000Y105000D02*X425000D01*
X394000D02*Y86000D01*
X412000D02*X425000D01*
X394000D02*X407000D01*
X412000D02*G75*G03X407000Y86000I-2500J0D01*G01*
G54D192*X395760Y152362D02*Y147638D01*
X403240Y152362D02*Y147638D01*
X412607Y142245D02*X413393D01*
X412607Y147755D02*X413393D01*
G54D191*X411674Y149934D02*X430326D01*
Y182066D02*Y149934D01*
X411674Y182066D02*X430326D01*
X411674Y163500D02*Y149934D01*
Y182066D02*Y168500D01*
Y163500D02*G75*G03X411674Y168500I0J2500D01*G01*
G54D192*X411532Y129686D02*X415468D01*
X411532Y140314D02*X415468D01*
X300000Y158730D02*Y156035D01*
X300385Y155650D01*
X301155D01*
X301540Y156035D01*
Y158730D02*Y156035D01*
X302464Y158730D02*X304004D01*
X302464D02*Y157190D01*
X302849Y157575D01*
X303619D01*
X304004Y157190D01*
Y156035D01*
X303619Y155650D02*X304004Y156035D01*
X302849Y155650D02*X303619D01*
X302464Y156035D02*X302849Y155650D01*
X304928Y156035D02*X305313Y155650D01*
X304928Y158345D02*Y156035D01*
Y158345D02*X305313Y158730D01*
X306083D01*
X306468Y158345D01*
Y156035D01*
X306083Y155650D02*X306468Y156035D01*
X305313Y155650D02*X306083D01*
X304928Y156420D02*X306468Y157960D01*
X307392Y158114D02*X308008Y158730D01*
Y155650D01*
X307392D02*X308547D01*
X288500Y187730D02*Y185035D01*
X288885Y184650D01*
X289655D01*
X290040Y185035D01*
Y187730D02*Y185035D01*
X290964Y187345D02*X291349Y187730D01*
X292504D01*
X292889Y187345D01*
Y186575D01*
X290964Y184650D02*X292889Y186575D01*
X290964Y184650D02*X292889D01*
X293813Y187730D02*X295353D01*
X293813D02*Y186190D01*
X294198Y186575D01*
X294968D01*
X295353Y186190D01*
Y185035D01*
X294968Y184650D02*X295353Y185035D01*
X294198Y184650D02*X294968D01*
X293813Y185035D02*X294198Y184650D01*
X296277Y187345D02*X296662Y187730D01*
X297817D01*
X298202Y187345D01*
Y186575D01*
X296277Y184650D02*X298202Y186575D01*
X296277Y184650D02*X298202D01*
X303385Y168230D02*Y165150D01*
X304386Y168230D02*X304925Y167691D01*
Y165689D01*
X304386Y165150D02*X304925Y165689D01*
X303000Y165150D02*X304386D01*
X303000Y168230D02*X304386D01*
X305849Y167845D02*X306234Y168230D01*
X307004D01*
X307389Y167845D01*
X307004Y165150D02*X307389Y165535D01*
X306234Y165150D02*X307004D01*
X305849Y165535D02*X306234Y165150D01*
Y166844D02*X307004D01*
X307389Y167845D02*Y167229D01*
Y166459D02*Y165535D01*
Y166459D02*X307004Y166844D01*
X307389Y167229D02*X307004Y166844D01*
X308313Y165535D02*X308698Y165150D01*
X308313Y167845D02*Y165535D01*
Y167845D02*X308698Y168230D01*
X309468D01*
X309853Y167845D01*
Y165535D01*
X309468Y165150D02*X309853Y165535D01*
X308698Y165150D02*X309468D01*
X308313Y165920D02*X309853Y167460D01*
X310777Y167845D02*X311162Y168230D01*
X312317D01*
X312702Y167845D01*
Y167075D01*
X310777Y165150D02*X312702Y167075D01*
X310777Y165150D02*X312702D01*
X287270Y166040D02*Y164500D01*
Y166040D02*X287655Y166425D01*
X288425D01*
X288810Y166040D02*X288425Y166425D01*
X288810Y166040D02*Y164885D01*
X287270D02*X290350D01*
X288810Y165501D02*X290350Y166425D01*
X287655Y167349D02*X287270Y167734D01*
Y168889D02*Y167734D01*
Y168889D02*X287655Y169274D01*
X288425D01*
X290350Y167349D02*X288425Y169274D01*
X290350D02*Y167349D01*
X287270Y171353D02*X287655Y171738D01*
X287270Y171353D02*Y170583D01*
X287655Y170198D02*X287270Y170583D01*
X287655Y170198D02*X289965D01*
X290350Y170583D01*
X288656Y171353D02*X289041Y171738D01*
X288656Y171353D02*Y170198D01*
X290350Y171353D02*Y170583D01*
Y171353D02*X289965Y171738D01*
X289041D02*X289965D01*
Y172662D02*X290350Y173047D01*
X287655Y172662D02*X289965D01*
X287655D02*X287270Y173047D01*
Y173817D02*Y173047D01*
Y173817D02*X287655Y174202D01*
X289965D01*
X290350Y173817D02*X289965Y174202D01*
X290350Y173817D02*Y173047D01*
X289580Y172662D02*X288040Y174202D01*
X288539Y160150D02*X289540D01*
X288000Y160689D02*X288539Y160150D01*
X288000Y162691D02*Y160689D01*
Y162691D02*X288539Y163230D01*
X289540D01*
X290464Y162845D02*Y160535D01*
Y162845D02*X290849Y163230D01*
X291619D01*
X292004Y162845D01*
Y160535D01*
X291619Y160150D02*X292004Y160535D01*
X290849Y160150D02*X291619D01*
X290464Y160535D02*X290849Y160150D01*
X292928Y163230D02*Y160150D01*
Y163230D02*X294853Y160150D01*
Y163230D02*Y160150D01*
X295777Y163230D02*Y160150D01*
Y163230D02*X297702Y160150D01*
Y163230D02*Y160150D01*
X299781Y163230D02*X300166Y162845D01*
X299011Y163230D02*X299781D01*
X298626Y162845D02*X299011Y163230D01*
X298626Y162845D02*Y160535D01*
X299011Y160150D01*
X299781Y161844D02*X300166Y161459D01*
X298626Y161844D02*X299781D01*
X299011Y160150D02*X299781D01*
X300166Y160535D01*
Y161459D02*Y160535D01*
X301090Y162845D02*X301475Y163230D01*
X302630D01*
X303015Y162845D01*
Y162075D01*
X301090Y160150D02*X303015Y162075D01*
X301090Y160150D02*X303015D01*
X303939Y162614D02*X304555Y163230D01*
Y160150D01*
X303939D02*X305094D01*
X316000Y168230D02*X317540D01*
X317925Y167845D01*
Y167075D01*
X317540Y166690D02*X317925Y167075D01*
X316385Y166690D02*X317540D01*
X316385Y168230D02*Y165150D01*
X317001Y166690D02*X317925Y165150D01*
X318849Y167845D02*X319234Y168230D01*
X320004D01*
X320389Y167845D01*
X320004Y165150D02*X320389Y165535D01*
X319234Y165150D02*X320004D01*
X318849Y165535D02*X319234Y165150D01*
Y166844D02*X320004D01*
X320389Y167845D02*Y167229D01*
Y166459D02*Y165535D01*
Y166459D02*X320004Y166844D01*
X320389Y167229D02*X320004Y166844D01*
X321313Y165535D02*X321698Y165150D01*
X321313Y167845D02*Y165535D01*
Y167845D02*X321698Y168230D01*
X322468D01*
X322853Y167845D01*
Y165535D01*
X322468Y165150D02*X322853Y165535D01*
X321698Y165150D02*X322468D01*
X321313Y165920D02*X322853Y167460D01*
X324932Y168230D02*X325317Y167845D01*
X324162Y168230D02*X324932D01*
X323777Y167845D02*X324162Y168230D01*
X323777Y167845D02*Y165535D01*
X324162Y165150D01*
X324932Y166844D02*X325317Y166459D01*
X323777Y166844D02*X324932D01*
X324162Y165150D02*X324932D01*
X325317Y165535D01*
Y166459D02*Y165535D01*
X314000Y159230D02*X315540D01*
X315925Y158845D01*
Y158075D01*
X315540Y157690D02*X315925Y158075D01*
X314385Y157690D02*X315540D01*
X314385Y159230D02*Y156150D01*
X315001Y157690D02*X315925Y156150D01*
X316849Y158845D02*X317234Y159230D01*
X318004D01*
X318389Y158845D01*
X318004Y156150D02*X318389Y156535D01*
X317234Y156150D02*X318004D01*
X316849Y156535D02*X317234Y156150D01*
Y157844D02*X318004D01*
X318389Y158845D02*Y158229D01*
Y157459D02*Y156535D01*
Y157459D02*X318004Y157844D01*
X318389Y158229D02*X318004Y157844D01*
X319313Y158845D02*X319698Y159230D01*
X320853D01*
X321238Y158845D01*
Y158075D01*
X319313Y156150D02*X321238Y158075D01*
X319313Y156150D02*X321238D01*
X322162Y159230D02*X323702D01*
X322162D02*Y157690D01*
X322547Y158075D01*
X323317D01*
X323702Y157690D01*
Y156535D01*
X323317Y156150D02*X323702Y156535D01*
X322547Y156150D02*X323317D01*
X322162Y156535D02*X322547Y156150D01*
X326270Y170540D02*Y169000D01*
Y170540D02*X326655Y170925D01*
X327425D01*
X327810Y170540D02*X327425Y170925D01*
X327810Y170540D02*Y169385D01*
X326270D02*X329350D01*
X327810Y170001D02*X329350Y170925D01*
X328195Y171849D02*X326270Y173389D01*
X328195Y173774D02*Y171849D01*
X326270Y173389D02*X329350D01*
X326655Y174698D02*X326270Y175083D01*
Y176238D02*Y175083D01*
Y176238D02*X326655Y176623D01*
X327425D01*
X329350Y174698D02*X327425Y176623D01*
X329350D02*Y174698D01*
X328965Y177547D02*X329350Y177932D01*
X326655Y177547D02*X328965D01*
X326655D02*X326270Y177932D01*
Y178702D02*Y177932D01*
Y178702D02*X326655Y179087D01*
X328965D01*
X329350Y178702D02*X328965Y179087D01*
X329350Y178702D02*Y177932D01*
X328580Y177547D02*X327040Y179087D01*
X326020Y181760D02*X328100D01*
X326020Y182436D02*X326384Y182800D01*
X327736D01*
X328100Y182436D02*X327736Y182800D01*
X328100Y182436D02*Y181500D01*
X326020Y182436D02*Y181500D01*
X327320Y183424D02*X326020Y184464D01*
X327320Y184724D02*Y183424D01*
X326020Y184464D02*X328100D01*
X326280Y185348D02*X326020Y185608D01*
Y186388D02*Y185608D01*
Y186388D02*X326280Y186648D01*
X326800D01*
X328100Y185348D02*X326800Y186648D01*
X328100D02*Y185348D01*
X327840Y187272D02*X328100Y187532D01*
X326280Y187272D02*X327840D01*
X326280D02*X326020Y187532D01*
Y188052D02*Y187532D01*
Y188052D02*X326280Y188312D01*
X327840D01*
X328100Y188052D02*X327840Y188312D01*
X328100Y188052D02*Y187532D01*
X327580Y187272D02*X326540Y188312D01*
X326500Y129730D02*X328040D01*
X328425Y129345D01*
Y128575D01*
X328040Y128190D02*X328425Y128575D01*
X326885Y128190D02*X328040D01*
X326885Y129730D02*Y126650D01*
X327501Y128190D02*X328425Y126650D01*
X329349Y129345D02*X329734Y129730D01*
X330504D01*
X330889Y129345D01*
X330504Y126650D02*X330889Y127035D01*
X329734Y126650D02*X330504D01*
X329349Y127035D02*X329734Y126650D01*
Y128344D02*X330504D01*
X330889Y129345D02*Y128729D01*
Y127959D02*Y127035D01*
Y127959D02*X330504Y128344D01*
X330889Y128729D02*X330504Y128344D01*
X332198Y126650D02*X333738Y129730D01*
X331813D02*X333738D01*
X326350Y132540D02*Y131539D01*
X325811Y131000D02*X326350Y131539D01*
X323809Y131000D02*X325811D01*
X323809D02*X323270Y131539D01*
Y132540D02*Y131539D01*
Y135004D02*Y133464D01*
X324810D01*
X324425Y133849D01*
Y134619D02*Y133849D01*
Y134619D02*X324810Y135004D01*
X325965D01*
X326350Y134619D02*X325965Y135004D01*
X326350Y134619D02*Y133849D01*
X325965Y133464D02*X326350Y133849D01*
X325965Y135928D02*X326350Y136313D01*
X323655Y135928D02*X325965D01*
X323655D02*X323270Y136313D01*
Y137083D02*Y136313D01*
Y137083D02*X323655Y137468D01*
X325965D01*
X326350Y137083D02*X325965Y137468D01*
X326350Y137083D02*Y136313D01*
X325580Y135928D02*X324040Y137468D01*
X323655Y138392D02*X323270Y138777D01*
Y139932D02*Y138777D01*
Y139932D02*X323655Y140317D01*
X324425D01*
X326350Y138392D02*X324425Y140317D01*
X326350D02*Y138392D01*
X328770Y138885D02*X331850D01*
X328770Y139886D02*X329309Y140425D01*
X331311D01*
X331850Y139886D02*X331311Y140425D01*
X331850Y139886D02*Y138500D01*
X328770Y139886D02*Y138500D01*
X329155Y141349D02*X328770Y141734D01*
Y142504D02*Y141734D01*
Y142504D02*X329155Y142889D01*
X331850Y142504D02*X331465Y142889D01*
X331850Y142504D02*Y141734D01*
X331465Y141349D02*X331850Y141734D01*
X330156Y142504D02*Y141734D01*
X329155Y142889D02*X329771D01*
X330541D02*X331465D01*
X330541D02*X330156Y142504D01*
X329771Y142889D02*X330156Y142504D01*
X331465Y143813D02*X331850Y144198D01*
X329155Y143813D02*X331465D01*
X329155D02*X328770Y144198D01*
Y144968D02*Y144198D01*
Y144968D02*X329155Y145353D01*
X331465D01*
X331850Y144968D02*X331465Y145353D01*
X331850Y144968D02*Y144198D01*
X331080Y143813D02*X329540Y145353D01*
X328770Y147817D02*Y146277D01*
X330310D01*
X329925Y146662D01*
Y147432D02*Y146662D01*
Y147432D02*X330310Y147817D01*
X331465D01*
X331850Y147432D02*X331465Y147817D01*
X331850Y147432D02*Y146662D01*
X331465Y146277D02*X331850Y146662D01*
X315500Y98010D02*Y94545D01*
X315995Y94050D01*
X316985D01*
X317480Y94545D01*
Y98010D02*Y94545D01*
X318668Y97515D02*X319163Y98010D01*
X320153D01*
X320648Y97515D01*
X320153Y94050D02*X320648Y94545D01*
X319163Y94050D02*X320153D01*
X318668Y94545D02*X319163Y94050D01*
Y96228D02*X320153D01*
X320648Y97515D02*Y96723D01*
Y95733D02*Y94545D01*
Y95733D02*X320153Y96228D01*
X320648Y96723D02*X320153Y96228D01*
X321836Y94545D02*X322331Y94050D01*
X321836Y97515D02*Y94545D01*
Y97515D02*X322331Y98010D01*
X323321D01*
X323816Y97515D01*
Y94545D01*
X323321Y94050D02*X323816Y94545D01*
X322331Y94050D02*X323321D01*
X321836Y95040D02*X323816Y97020D01*
X325004Y95535D02*X326984Y98010D01*
X325004Y95535D02*X327479D01*
X326984Y98010D02*Y94050D01*
X308000Y134730D02*Y131650D01*
X309540D01*
X310464Y134730D02*X312004D01*
X310464D02*Y133190D01*
X310849Y133575D01*
X311619D01*
X312004Y133190D01*
Y132035D01*
X311619Y131650D02*X312004Y132035D01*
X310849Y131650D02*X311619D01*
X310464Y132035D02*X310849Y131650D01*
X312928Y132035D02*X313313Y131650D01*
X312928Y134345D02*Y132035D01*
Y134345D02*X313313Y134730D01*
X314083D01*
X314468Y134345D01*
Y132035D01*
X314083Y131650D02*X314468Y132035D01*
X313313Y131650D02*X314083D01*
X312928Y132420D02*X314468Y133960D01*
X315392Y134114D02*X316008Y134730D01*
Y131650D01*
X315392D02*X316547D01*
X391850Y167540D02*Y166539D01*
X391311Y166000D02*X391850Y166539D01*
X389309Y166000D02*X391311D01*
X389309D02*X388770Y166539D01*
Y167540D02*Y166539D01*
X389155Y168464D02*X391465D01*
X389155D02*X388770Y168849D01*
Y169619D02*Y168849D01*
Y169619D02*X389155Y170004D01*
X391465D01*
X391850Y169619D02*X391465Y170004D01*
X391850Y169619D02*Y168849D01*
X391465Y168464D02*X391850Y168849D01*
X388770Y170928D02*X391850D01*
X388770D02*X391850Y172853D01*
X388770D02*X391850D01*
X388770Y173777D02*X391850D01*
X388770D02*X391850Y175702D01*
X388770D02*X391850D01*
X388770Y177781D02*X389155Y178166D01*
X388770Y177781D02*Y177011D01*
X389155Y176626D02*X388770Y177011D01*
X389155Y176626D02*X391465D01*
X391850Y177011D01*
X390156Y177781D02*X390541Y178166D01*
X390156Y177781D02*Y176626D01*
X391850Y177781D02*Y177011D01*
Y177781D02*X391465Y178166D01*
X390541D02*X391465D01*
X389386Y179090D02*X388770Y179706D01*
X391850D01*
Y180245D02*Y179090D01*
X389386Y181169D02*X388770Y181785D01*
X391850D01*
Y182324D02*Y181169D01*
X386000Y188500D02*Y184500D01*
X388000D01*
X389200Y188000D02*X389700Y188500D01*
X391200D01*
X391700Y188000D01*
Y187000D01*
X389200Y184500D02*X391700Y187000D01*
X389200Y184500D02*X391700D01*
X392900Y185000D02*X393400Y184500D01*
X392900Y188000D02*Y185000D01*
Y188000D02*X393400Y188500D01*
X394400D01*
X394900Y188000D01*
Y185000D01*
X394400Y184500D02*X394900Y185000D01*
X393400Y184500D02*X394400D01*
X392900Y185500D02*X394900Y187500D01*
X396100Y188000D02*X396600Y188500D01*
X398100D01*
X398600Y188000D01*
Y187000D01*
X396100Y184500D02*X398600Y187000D01*
X396100Y184500D02*X398600D01*
X393800Y148020D02*Y147032D01*
X393268Y146500D02*X393800Y147032D01*
X391292Y146500D02*X393268D01*
X391292D02*X390760Y147032D01*
Y148020D02*Y147032D01*
X391140Y148932D02*X390760Y149312D01*
Y150452D02*Y149312D01*
Y150452D02*X391140Y150832D01*
X391900D01*
X393800Y148932D02*X391900Y150832D01*
X393800D02*Y148932D01*
X393420Y151744D02*X393800Y152124D01*
X391140Y151744D02*X393420D01*
X391140D02*X390760Y152124D01*
Y152884D02*Y152124D01*
Y152884D02*X391140Y153264D01*
X393420D01*
X393800Y152884D02*X393420Y153264D01*
X393800Y152884D02*Y152124D01*
X393040Y151744D02*X391520Y153264D01*
X390760Y155696D02*Y154176D01*
X392280D01*
X391900Y154556D01*
Y155316D02*Y154556D01*
Y155316D02*X392280Y155696D01*
X393420D01*
X393800Y155316D02*X393420Y155696D01*
X393800Y155316D02*Y154556D01*
X393420Y154176D02*X393800Y154556D01*
X345539Y155650D02*X346540D01*
X345000Y156189D02*X345539Y155650D01*
X345000Y158191D02*Y156189D01*
Y158191D02*X345539Y158730D01*
X346540D01*
X347464Y158345D02*Y156035D01*
Y158345D02*X347849Y158730D01*
X348619D01*
X349004Y158345D01*
Y156035D01*
X348619Y155650D02*X349004Y156035D01*
X347849Y155650D02*X348619D01*
X347464Y156035D02*X347849Y155650D01*
X349928Y158730D02*Y155650D01*
Y158730D02*X351853Y155650D01*
Y158730D02*Y155650D01*
X352777Y158730D02*Y155650D01*
Y158730D02*X354702Y155650D01*
Y158730D02*Y155650D01*
X356781Y158730D02*X357166Y158345D01*
X356011Y158730D02*X356781D01*
X355626Y158345D02*X356011Y158730D01*
X355626Y158345D02*Y156035D01*
X356011Y155650D01*
X356781Y157344D02*X357166Y156959D01*
X355626Y157344D02*X356781D01*
X356011Y155650D02*X356781D01*
X357166Y156035D01*
Y156959D02*Y156035D01*
X358090D02*X358475Y155650D01*
X358090Y158345D02*Y156035D01*
Y158345D02*X358475Y158730D01*
X359245D01*
X359630Y158345D01*
Y156035D01*
X359245Y155650D02*X359630Y156035D01*
X358475Y155650D02*X359245D01*
X358090Y156420D02*X359630Y157960D01*
X360939Y155650D02*X362094Y157190D01*
Y158345D02*Y157190D01*
X361709Y158730D02*X362094Y158345D01*
X360939Y158730D02*X361709D01*
X360554Y158345D02*X360939Y158730D01*
X360554Y158345D02*Y157575D01*
X360939Y157190D01*
X362094D01*
X368500Y122000D02*Y118000D01*
X369800Y122000D02*X370500Y121300D01*
Y118700D01*
X369800Y118000D02*X370500Y118700D01*
X368000Y118000D02*X369800D01*
X368000Y122000D02*X369800D01*
X371700Y121200D02*X372500Y122000D01*
Y118000D01*
X371700D02*X373200D01*
X374400Y121500D02*X374900Y122000D01*
X375900D01*
X376400Y121500D01*
X375900Y118000D02*X376400Y118500D01*
X374900Y118000D02*X375900D01*
X374400Y118500D02*X374900Y118000D01*
Y120200D02*X375900D01*
X376400Y121500D02*Y120700D01*
Y119700D02*Y118500D01*
Y119700D02*X375900Y120200D01*
X376400Y120700D02*X375900Y120200D01*
X362770Y113885D02*X365850D01*
X362770Y114886D02*X363309Y115425D01*
X365311D01*
X365850Y114886D02*X365311Y115425D01*
X365850Y114886D02*Y113500D01*
X362770Y114886D02*Y113500D01*
X363386Y116349D02*X362770Y116965D01*
X365850D01*
Y117504D02*Y116349D01*
Y118813D02*X362770Y120353D01*
Y118428D01*
X357260Y115520D02*Y114000D01*
Y115520D02*X357640Y115900D01*
X358400D01*
X358780Y115520D02*X358400Y115900D01*
X358780Y115520D02*Y114380D01*
X357260D02*X360300D01*
X358780Y114988D02*X360300Y115900D01*
X359160Y116812D02*X357260Y118332D01*
X359160Y118712D02*Y116812D01*
X357260Y118332D02*X360300D01*
X359160Y119624D02*X357260Y121144D01*
X359160Y121524D02*Y119624D01*
X357260Y121144D02*X360300D01*
X347385Y129730D02*Y126650D01*
X348386Y129730D02*X348925Y129191D01*
Y127189D01*
X348386Y126650D02*X348925Y127189D01*
X347000Y126650D02*X348386D01*
X347000Y129730D02*X348386D01*
X349849Y129114D02*X350465Y129730D01*
Y126650D01*
X349849D02*X351004D01*
X351928Y127805D02*X353468Y129730D01*
X351928Y127805D02*X353853D01*
X353468Y129730D02*Y126650D01*
X351260Y141020D02*Y139500D01*
Y141020D02*X351640Y141400D01*
X352400D01*
X352780Y141020D02*X352400Y141400D01*
X352780Y141020D02*Y139880D01*
X351260D02*X354300D01*
X352780Y140488D02*X354300Y141400D01*
X353160Y142312D02*X351260Y143832D01*
X353160Y144212D02*Y142312D01*
X351260Y143832D02*X354300D01*
X351640Y145124D02*X351260Y145504D01*
Y146264D02*Y145504D01*
Y146264D02*X351640Y146644D01*
X354300Y146264D02*X353920Y146644D01*
X354300Y146264D02*Y145504D01*
X353920Y145124D02*X354300Y145504D01*
X352628Y146264D02*Y145504D01*
X351640Y146644D02*X352248D01*
X353008D02*X353920D01*
X353008D02*X352628Y146264D01*
X352248Y146644D02*X352628Y146264D01*
X369000Y144230D02*X370540D01*
X370925Y143845D01*
Y143075D01*
X370540Y142690D02*X370925Y143075D01*
X369385Y142690D02*X370540D01*
X369385Y144230D02*Y141150D01*
X370001Y142690D02*X370925Y141150D01*
X371849Y142305D02*X373389Y144230D01*
X371849Y142305D02*X373774D01*
X373389Y144230D02*Y141150D01*
X374698Y143845D02*X375083Y144230D01*
X376238D01*
X376623Y143845D01*
Y143075D01*
X374698Y141150D02*X376623Y143075D01*
X374698Y141150D02*X376623D01*
X294850Y116540D02*Y115539D01*
X294311Y115000D02*X294850Y115539D01*
X292309Y115000D02*X294311D01*
X292309D02*X291770Y115539D01*
Y116540D02*Y115539D01*
X292155Y117464D02*X291770Y117849D01*
Y118619D02*Y117849D01*
Y118619D02*X292155Y119004D01*
X294850Y118619D02*X294465Y119004D01*
X294850Y118619D02*Y117849D01*
X294465Y117464D02*X294850Y117849D01*
X293156Y118619D02*Y117849D01*
X292155Y119004D02*X292771D01*
X293541D02*X294465D01*
X293541D02*X293156Y118619D01*
X292771Y119004D02*X293156Y118619D01*
X292155Y119928D02*X291770Y120313D01*
Y121468D02*Y120313D01*
Y121468D02*X292155Y121853D01*
X292925D01*
X294850Y119928D02*X292925Y121853D01*
X294850D02*Y119928D01*
X292386Y122777D02*X291770Y123393D01*
X294850D01*
Y123932D02*Y122777D01*
X251000Y123230D02*X252540D01*
X252925Y122845D01*
Y122075D01*
X252540Y121690D02*X252925Y122075D01*
X251385Y121690D02*X252540D01*
X251385Y123230D02*Y120150D01*
X252001Y121690D02*X252925Y120150D01*
X253849Y122614D02*X254465Y123230D01*
Y120150D01*
X253849D02*X255004D01*
X256313D02*X257468Y121690D01*
Y122845D02*Y121690D01*
X257083Y123230D02*X257468Y122845D01*
X256313Y123230D02*X257083D01*
X255928Y122845D02*X256313Y123230D01*
X255928Y122845D02*Y122075D01*
X256313Y121690D01*
X257468D01*
X261500Y122000D02*Y118000D01*
X262800Y122000D02*X263500Y121300D01*
Y118700D01*
X262800Y118000D02*X263500Y118700D01*
X261000Y118000D02*X262800D01*
X261000Y122000D02*X262800D01*
X264700Y121200D02*X265500Y122000D01*
Y118000D01*
X264700D02*X266200D01*
X293350Y104540D02*Y103539D01*
X292811Y103000D02*X293350Y103539D01*
X290809Y103000D02*X292811D01*
X290809D02*X290270Y103539D01*
Y104540D02*Y103539D01*
X290655Y105464D02*X290270Y105849D01*
Y106619D02*Y105849D01*
Y106619D02*X290655Y107004D01*
X293350Y106619D02*X292965Y107004D01*
X293350Y106619D02*Y105849D01*
X292965Y105464D02*X293350Y105849D01*
X291656Y106619D02*Y105849D01*
X290655Y107004D02*X291271D01*
X292041D02*X292965D01*
X292041D02*X291656Y106619D01*
X291271Y107004D02*X291656Y106619D01*
X290655Y107928D02*X290270Y108313D01*
Y109083D02*Y108313D01*
Y109083D02*X290655Y109468D01*
X293350Y109083D02*X292965Y109468D01*
X293350Y109083D02*Y108313D01*
X292965Y107928D02*X293350Y108313D01*
X291656Y109083D02*Y108313D01*
X290655Y109468D02*X291271D01*
X292041D02*X292965D01*
X292041D02*X291656Y109083D01*
X291271Y109468D02*X291656Y109083D01*
X292965Y110392D02*X293350Y110777D01*
X290655Y110392D02*X292965D01*
X290655D02*X290270Y110777D01*
Y111547D02*Y110777D01*
Y111547D02*X290655Y111932D01*
X292965D01*
X293350Y111547D02*X292965Y111932D01*
X293350Y111547D02*Y110777D01*
X292580Y110392D02*X291040Y111932D01*
X229500Y105730D02*X231040D01*
X231425Y105345D01*
Y104575D01*
X231040Y104190D02*X231425Y104575D01*
X229885Y104190D02*X231040D01*
X229885Y105730D02*Y102650D01*
X230501Y104190D02*X231425Y102650D01*
X232349Y105114D02*X232965Y105730D01*
Y102650D01*
X232349D02*X233504D01*
X234428Y103035D02*X234813Y102650D01*
X234428Y105345D02*Y103035D01*
Y105345D02*X234813Y105730D01*
X235583D01*
X235968Y105345D01*
Y103035D01*
X235583Y102650D02*X235968Y103035D01*
X234813Y102650D02*X235583D01*
X234428Y103420D02*X235968Y104960D01*
X272000Y116000D02*X274000D01*
X274500Y115500D01*
Y114500D01*
X274000Y114000D02*X274500Y114500D01*
X272500Y114000D02*X274000D01*
X272500Y116000D02*Y112000D01*
X273300Y114000D02*X274500Y112000D01*
X277200Y116000D02*X277700Y115500D01*
X276200Y116000D02*X277200D01*
X275700Y115500D02*X276200Y116000D01*
X275700Y115500D02*Y112500D01*
X276200Y112000D01*
X277200Y114200D02*X277700Y113700D01*
X275700Y114200D02*X277200D01*
X276200Y112000D02*X277200D01*
X277700Y112500D01*
Y113700D02*Y112500D01*
X278900Y115200D02*X279700Y116000D01*
Y112000D01*
X278900D02*X280400D01*
X281600Y115200D02*X282400Y116000D01*
Y112000D01*
X281600D02*X283100D01*
X250885Y132730D02*Y129650D01*
X251886Y132730D02*X252425Y132191D01*
Y130189D01*
X251886Y129650D02*X252425Y130189D01*
X250500Y129650D02*X251886D01*
X250500Y132730D02*X251886D01*
X253734Y129650D02*X255274Y132730D01*
X253349D02*X255274D01*
X246770Y136540D02*Y135000D01*
Y136540D02*X247155Y136925D01*
X247925D01*
X248310Y136540D02*X247925Y136925D01*
X248310Y136540D02*Y135385D01*
X246770D02*X249850D01*
X248310Y136001D02*X249850Y136925D01*
X247386Y137849D02*X246770Y138465D01*
X249850D01*
Y139004D02*Y137849D01*
X249465Y139928D02*X249850Y140313D01*
X248849Y139928D02*X249465D01*
X248849D02*X248310Y140467D01*
Y140929D02*Y140467D01*
Y140929D02*X248849Y141468D01*
X249465D01*
X249850Y141083D02*X249465Y141468D01*
X249850Y141083D02*Y140313D01*
X247771Y139928D02*X248310Y140467D01*
X247155Y139928D02*X247771D01*
X247155D02*X246770Y140313D01*
Y141083D02*Y140313D01*
Y141083D02*X247155Y141468D01*
X247771D01*
X248310Y140929D02*X247771Y141468D01*
X280500Y135730D02*X282040D01*
X282425Y135345D01*
Y134575D01*
X282040Y134190D02*X282425Y134575D01*
X280885Y134190D02*X282040D01*
X280885Y135730D02*Y132650D01*
X281501Y134190D02*X282425Y132650D01*
X283349Y135345D02*X283734Y135730D01*
X284504D01*
X284889Y135345D01*
X284504Y132650D02*X284889Y133035D01*
X283734Y132650D02*X284504D01*
X283349Y133035D02*X283734Y132650D01*
Y134344D02*X284504D01*
X284889Y135345D02*Y134729D01*
Y133959D02*Y133035D01*
Y133959D02*X284504Y134344D01*
X284889Y134729D02*X284504Y134344D01*
X281800Y150520D02*Y149532D01*
X281268Y149000D02*X281800Y149532D01*
X279292Y149000D02*X281268D01*
X279292D02*X278760Y149532D01*
Y150520D02*Y149532D01*
Y152952D02*Y151432D01*
X280280D01*
X279900Y151812D01*
Y152572D02*Y151812D01*
Y152572D02*X280280Y152952D01*
X281420D01*
X281800Y152572D02*X281420Y152952D01*
X281800Y152572D02*Y151812D01*
X281420Y151432D02*X281800Y151812D01*
X281420Y153864D02*X281800Y154244D01*
X279140Y153864D02*X281420D01*
X279140D02*X278760Y154244D01*
Y155004D02*Y154244D01*
Y155004D02*X279140Y155384D01*
X281420D01*
X281800Y155004D02*X281420Y155384D01*
X281800Y155004D02*Y154244D01*
X281040Y153864D02*X279520Y155384D01*
X279140Y156296D02*X278760Y156676D01*
Y157436D02*Y156676D01*
Y157436D02*X279140Y157816D01*
X281800Y157436D02*X281420Y157816D01*
X281800Y157436D02*Y156676D01*
X281420Y156296D02*X281800Y156676D01*
X280128Y157436D02*Y156676D01*
X279140Y157816D02*X279748D01*
X280508D02*X281420D01*
X280508D02*X280128Y157436D01*
X279748Y157816D02*X280128Y157436D01*
X285850Y124040D02*Y123039D01*
X285311Y122500D02*X285850Y123039D01*
X283309Y122500D02*X285311D01*
X283309D02*X282770Y123039D01*
Y124040D02*Y123039D01*
Y126119D02*X283155Y126504D01*
X282770Y126119D02*Y125349D01*
X283155Y124964D02*X282770Y125349D01*
X283155Y124964D02*X285465D01*
X285850Y125349D01*
X284156Y126119D02*X284541Y126504D01*
X284156Y126119D02*Y124964D01*
X285850Y126119D02*Y125349D01*
Y126119D02*X285465Y126504D01*
X284541D02*X285465D01*
Y127428D02*X285850Y127813D01*
X283155Y127428D02*X285465D01*
X283155D02*X282770Y127813D01*
Y128583D02*Y127813D01*
Y128583D02*X283155Y128968D01*
X285465D01*
X285850Y128583D02*X285465Y128968D01*
X285850Y128583D02*Y127813D01*
X285080Y127428D02*X283540Y128968D01*
X283386Y129892D02*X282770Y130508D01*
X285850D01*
Y131047D02*Y129892D01*
X288039Y126650D02*X289040D01*
X287500Y127189D02*X288039Y126650D01*
X287500Y129191D02*Y127189D01*
Y129191D02*X288039Y129730D01*
X289040D01*
X289964D02*X291504D01*
X289964D02*Y128190D01*
X290349Y128575D01*
X291119D01*
X291504Y128190D01*
Y127035D01*
X291119Y126650D02*X291504Y127035D01*
X290349Y126650D02*X291119D01*
X289964Y127035D02*X290349Y126650D01*
X292428Y127035D02*X292813Y126650D01*
X292428Y129345D02*Y127035D01*
Y129345D02*X292813Y129730D01*
X293583D01*
X293968Y129345D01*
Y127035D01*
X293583Y126650D02*X293968Y127035D01*
X292813Y126650D02*X293583D01*
X292428Y127420D02*X293968Y128960D01*
X294892Y127805D02*X296432Y129730D01*
X294892Y127805D02*X296817D01*
X296432Y129730D02*Y126650D01*
X261000Y151740D02*X262520D01*
X262900Y151360D01*
Y150600D01*
X262520Y150220D02*X262900Y150600D01*
X261380Y150220D02*X262520D01*
X261380Y151740D02*Y148700D01*
X261988Y150220D02*X262900Y148700D01*
X263812Y151360D02*X264192Y151740D01*
X264952D01*
X265332Y151360D01*
X264952Y148700D02*X265332Y149080D01*
X264192Y148700D02*X264952D01*
X263812Y149080D02*X264192Y148700D01*
Y150372D02*X264952D01*
X265332Y151360D02*Y150752D01*
Y149992D02*Y149080D01*
Y149992D02*X264952Y150372D01*
X265332Y150752D02*X264952Y150372D01*
X266244Y149080D02*X266624Y148700D01*
X266244Y151360D02*Y149080D01*
Y151360D02*X266624Y151740D01*
X267384D01*
X267764Y151360D01*
Y149080D01*
X267384Y148700D02*X267764Y149080D01*
X266624Y148700D02*X267384D01*
X266244Y149460D02*X267764Y150980D01*
X268676Y151740D02*X270196D01*
X268676D02*Y150220D01*
X269056Y150600D01*
X269816D01*
X270196Y150220D01*
Y149080D01*
X269816Y148700D02*X270196Y149080D01*
X269056Y148700D02*X269816D01*
X268676Y149080D02*X269056Y148700D01*
X252270Y149540D02*Y148000D01*
Y149540D02*X252655Y149925D01*
X253425D01*
X253810Y149540D02*X253425Y149925D01*
X253810Y149540D02*Y148385D01*
X252270D02*X255350D01*
X253810Y149001D02*X255350Y149925D01*
X252655Y150849D02*X252270Y151234D01*
Y152389D02*Y151234D01*
Y152389D02*X252655Y152774D01*
X253425D01*
X255350Y150849D02*X253425Y152774D01*
X255350D02*Y150849D01*
X252655Y153698D02*X252270Y154083D01*
Y155238D02*Y154083D01*
Y155238D02*X252655Y155623D01*
X253425D01*
X255350Y153698D02*X253425Y155623D01*
X255350D02*Y153698D01*
X261885Y159230D02*Y156150D01*
X262886Y159230D02*X263425Y158691D01*
Y156689D01*
X262886Y156150D02*X263425Y156689D01*
X261500Y156150D02*X262886D01*
X261500Y159230D02*X262886D01*
X264349Y158845D02*X264734Y159230D01*
X265504D01*
X265889Y158845D01*
X265504Y156150D02*X265889Y156535D01*
X264734Y156150D02*X265504D01*
X264349Y156535D02*X264734Y156150D01*
Y157844D02*X265504D01*
X265889Y158845D02*Y158229D01*
Y157459D02*Y156535D01*
Y157459D02*X265504Y157844D01*
X265889Y158229D02*X265504Y157844D01*
X266813Y156535D02*X267198Y156150D01*
X266813Y158845D02*Y156535D01*
Y158845D02*X267198Y159230D01*
X267968D01*
X268353Y158845D01*
Y156535D01*
X267968Y156150D02*X268353Y156535D01*
X267198Y156150D02*X267968D01*
X266813Y156920D02*X268353Y158460D01*
X269277Y158614D02*X269893Y159230D01*
Y156150D01*
X269277D02*X270432D01*
X230000Y167230D02*X231540D01*
X231925Y166845D01*
Y166075D01*
X231540Y165690D02*X231925Y166075D01*
X230385Y165690D02*X231540D01*
X230385Y167230D02*Y164150D01*
X231001Y165690D02*X231925Y164150D01*
X232849Y166845D02*X233234Y167230D01*
X234389D01*
X234774Y166845D01*
Y166075D01*
X232849Y164150D02*X234774Y166075D01*
X232849Y164150D02*X234774D01*
X235698Y164535D02*X236083Y164150D01*
X235698Y166845D02*Y164535D01*
Y166845D02*X236083Y167230D01*
X236853D01*
X237238Y166845D01*
Y164535D01*
X236853Y164150D02*X237238Y164535D01*
X236083Y164150D02*X236853D01*
X235698Y164920D02*X237238Y166460D01*
X233760Y152520D02*Y151000D01*
Y152520D02*X234140Y152900D01*
X234900D01*
X235280Y152520D02*X234900Y152900D01*
X235280Y152520D02*Y151380D01*
X233760D02*X236800D01*
X235280Y151988D02*X236800Y152900D01*
X234140Y153812D02*X233760Y154192D01*
Y155332D02*Y154192D01*
Y155332D02*X234140Y155712D01*
X234900D01*
X236800Y153812D02*X234900Y155712D01*
X236800D02*Y153812D01*
X236420Y156624D02*X236800Y157004D01*
X235812Y156624D02*X236420D01*
X235812D02*X235280Y157156D01*
Y157612D02*Y157156D01*
Y157612D02*X235812Y158144D01*
X236420D01*
X236800Y157764D02*X236420Y158144D01*
X236800Y157764D02*Y157004D01*
X234748Y156624D02*X235280Y157156D01*
X234140Y156624D02*X234748D01*
X234140D02*X233760Y157004D01*
Y157764D02*Y157004D01*
Y157764D02*X234140Y158144D01*
X234748D01*
X235280Y157612D02*X234748Y158144D01*
X234140Y159056D02*X233760Y159436D01*
Y160576D02*Y159436D01*
Y160576D02*X234140Y160956D01*
X234900D01*
X236800Y159056D02*X234900Y160956D01*
X236800D02*Y159056D01*
X332885Y167230D02*Y164150D01*
X333886Y167230D02*X334425Y166691D01*
Y164689D01*
X333886Y164150D02*X334425Y164689D01*
X332500Y164150D02*X333886D01*
X332500Y167230D02*X333886D01*
X336504D02*X336889Y166845D01*
X335734Y167230D02*X336504D01*
X335349Y166845D02*X335734Y167230D01*
X335349Y166845D02*Y164535D01*
X335734Y164150D01*
X336504Y165844D02*X336889Y165459D01*
X335349Y165844D02*X336504D01*
X335734Y164150D02*X336504D01*
X336889Y164535D01*
Y165459D02*Y164535D01*
X532500Y111500D02*X536000D01*
X536500Y112000D01*
Y113000D02*Y112000D01*
Y113000D02*X536000Y113500D01*
X532500D02*X536000D01*
X532500Y116700D02*Y114700D01*
X534500D01*
X534000Y115200D01*
Y116200D02*Y115200D01*
Y116200D02*X534500Y116700D01*
X536000D01*
X536500Y116200D02*X536000Y116700D01*
X536500Y116200D02*Y115200D01*
X536000Y114700D02*X536500Y115200D01*
X536000Y117900D02*X536500Y118400D01*
X533000Y117900D02*X536000D01*
X533000D02*X532500Y118400D01*
Y119400D02*Y118400D01*
Y119400D02*X533000Y119900D01*
X536000D01*
X536500Y119400D02*X536000Y119900D01*
X536500Y119400D02*Y118400D01*
X535500Y117900D02*X533500Y119900D01*
X533000Y121100D02*X532500Y121600D01*
Y122600D02*Y121600D01*
Y122600D02*X533000Y123100D01*
X536500Y122600D02*X536000Y123100D01*
X536500Y122600D02*Y121600D01*
X536000Y121100D02*X536500Y121600D01*
X534300Y122600D02*Y121600D01*
X533000Y123100D02*X533800D01*
X534800D02*X536000D01*
X534800D02*X534300Y122600D01*
X533800Y123100D02*X534300Y122600D01*
X497539Y91650D02*X498540D01*
X497000Y92189D02*X497539Y91650D01*
X497000Y94191D02*Y92189D01*
Y94191D02*X497539Y94730D01*
X498540D01*
X499464Y94345D02*Y92035D01*
Y94345D02*X499849Y94730D01*
X500619D01*
X501004Y94345D01*
Y92035D01*
X500619Y91650D02*X501004Y92035D01*
X499849Y91650D02*X500619D01*
X499464Y92035D02*X499849Y91650D01*
X501928Y94730D02*Y91650D01*
Y94730D02*X503853Y91650D01*
Y94730D02*Y91650D01*
X504777Y94730D02*Y91650D01*
Y94730D02*X506702Y91650D01*
Y94730D02*Y91650D01*
X508781Y94730D02*X509166Y94345D01*
X508011Y94730D02*X508781D01*
X507626Y94345D02*X508011Y94730D01*
X507626Y94345D02*Y92035D01*
X508011Y91650D01*
X508781Y93344D02*X509166Y92959D01*
X507626Y93344D02*X508781D01*
X508011Y91650D02*X508781D01*
X509166Y92035D01*
Y92959D02*Y92035D01*
X510090D02*X510475Y91650D01*
X510090Y94345D02*Y92035D01*
Y94345D02*X510475Y94730D01*
X511245D01*
X511630Y94345D01*
Y92035D01*
X511245Y91650D02*X511630Y92035D01*
X510475Y91650D02*X511245D01*
X510090Y92420D02*X511630Y93960D01*
X512554Y94730D02*X514094D01*
X512554D02*Y93190D01*
X512939Y93575D01*
X513709D01*
X514094Y93190D01*
Y92035D01*
X513709Y91650D02*X514094Y92035D01*
X512939Y91650D02*X513709D01*
X512554Y92035D02*X512939Y91650D01*
X504500Y116500D02*Y115200D01*
X503800Y114500D02*X504500Y115200D01*
X501200Y114500D02*X503800D01*
X501200D02*X500500Y115200D01*
Y116500D02*Y115200D01*
Y119700D02*Y117700D01*
X502500D01*
X502000Y118200D01*
Y119200D02*Y118200D01*
Y119200D02*X502500Y119700D01*
X504000D01*
X504500Y119200D02*X504000Y119700D01*
X504500Y119200D02*Y118200D01*
X504000Y117700D02*X504500Y118200D01*
X501300Y120900D02*X500500Y121700D01*
X504500D01*
Y122400D02*Y120900D01*
X501300Y123600D02*X500500Y124400D01*
X504500D01*
Y125100D02*Y123600D01*
X522200Y91000D02*X523500D01*
X521500Y91700D02*X522200Y91000D01*
X521500Y94300D02*Y91700D01*
Y94300D02*X522200Y95000D01*
X523500D01*
X524700D02*X526700D01*
X524700D02*Y93000D01*
X525200Y93500D01*
X526200D01*
X526700Y93000D01*
Y91500D01*
X526200Y91000D02*X526700Y91500D01*
X525200Y91000D02*X526200D01*
X524700Y91500D02*X525200Y91000D01*
X527900Y91500D02*X528400Y91000D01*
X527900Y94500D02*Y91500D01*
Y94500D02*X528400Y95000D01*
X529400D01*
X529900Y94500D01*
Y91500D01*
X529400Y91000D02*X529900Y91500D01*
X528400Y91000D02*X529400D01*
X527900Y92000D02*X529900Y94000D01*
X531600Y91000D02*X533100Y93000D01*
Y94500D02*Y93000D01*
X532600Y95000D02*X533100Y94500D01*
X531600Y95000D02*X532600D01*
X531100Y94500D02*X531600Y95000D01*
X531100Y94500D02*Y93500D01*
X531600Y93000D01*
X533100D01*
X500500Y100000D02*X504500D01*
Y102000D02*Y100000D01*
X500500Y105200D02*Y103200D01*
X502500D01*
X502000Y103700D01*
Y104700D02*Y103700D01*
Y104700D02*X502500Y105200D01*
X504000D01*
X504500Y104700D02*X504000Y105200D01*
X504500Y104700D02*Y103700D01*
X504000Y103200D02*X504500Y103700D01*
X504000Y106400D02*X504500Y106900D01*
X501000Y106400D02*X504000D01*
X501000D02*X500500Y106900D01*
Y107900D02*Y106900D01*
Y107900D02*X501000Y108400D01*
X504000D01*
X504500Y107900D02*X504000Y108400D01*
X504500Y107900D02*Y106900D01*
X503500Y106400D02*X501500Y108400D01*
X501000Y109600D02*X500500Y110100D01*
Y111100D02*Y110100D01*
Y111100D02*X501000Y111600D01*
X504500Y111100D02*X504000Y111600D01*
X504500Y111100D02*Y110100D01*
X504000Y109600D02*X504500Y110100D01*
X502300Y111100D02*Y110100D01*
X501000Y111600D02*X501800D01*
X502800D02*X504000D01*
X502800D02*X502300Y111100D01*
X501800Y111600D02*X502300Y111100D01*
X489700Y55000D02*X491000D01*
X489000Y55700D02*X489700Y55000D01*
X489000Y58300D02*Y55700D01*
Y58300D02*X489700Y59000D01*
X491000D01*
X492200Y58500D02*Y55500D01*
Y58500D02*X492700Y59000D01*
X493700D01*
X494200Y58500D01*
Y55500D01*
X493700Y55000D02*X494200Y55500D01*
X492700Y55000D02*X493700D01*
X492200Y55500D02*X492700Y55000D01*
X495400Y59000D02*Y55000D01*
Y59000D02*X497900Y55000D01*
Y59000D02*Y55000D01*
X499100Y59000D02*Y55000D01*
Y59000D02*X501600Y55000D01*
Y59000D02*Y55000D01*
X504300Y59000D02*X504800Y58500D01*
X503300Y59000D02*X504300D01*
X502800Y58500D02*X503300Y59000D01*
X502800Y58500D02*Y55500D01*
X503300Y55000D01*
X504300Y57200D02*X504800Y56700D01*
X502800Y57200D02*X504300D01*
X503300Y55000D02*X504300D01*
X504800Y55500D01*
Y56700D02*Y55500D01*
X506000D02*X506500Y55000D01*
X506000Y58500D02*Y55500D01*
Y58500D02*X506500Y59000D01*
X507500D01*
X508000Y58500D01*
Y55500D01*
X507500Y55000D02*X508000Y55500D01*
X506500Y55000D02*X507500D01*
X506000Y56000D02*X508000Y58000D01*
X509200Y56500D02*X511200Y59000D01*
X509200Y56500D02*X511700D01*
X511200Y59000D02*Y55000D01*
X448039Y81150D02*X449040D01*
X447500Y81689D02*X448039Y81150D01*
X447500Y83691D02*Y81689D01*
Y83691D02*X448039Y84230D01*
X449040D01*
X449964Y83845D02*Y81535D01*
Y83845D02*X450349Y84230D01*
X451119D01*
X451504Y83845D01*
Y81535D01*
X451119Y81150D02*X451504Y81535D01*
X450349Y81150D02*X451119D01*
X449964Y81535D02*X450349Y81150D01*
X452428Y84230D02*Y81150D01*
Y84230D02*X454353Y81150D01*
Y84230D02*Y81150D01*
X455277Y84230D02*Y81150D01*
Y84230D02*X457202Y81150D01*
Y84230D02*Y81150D01*
X459281Y84230D02*X459666Y83845D01*
X458511Y84230D02*X459281D01*
X458126Y83845D02*X458511Y84230D01*
X458126Y83845D02*Y81535D01*
X458511Y81150D01*
X459281Y82844D02*X459666Y82459D01*
X458126Y82844D02*X459281D01*
X458511Y81150D02*X459281D01*
X459666Y81535D01*
Y82459D02*Y81535D01*
X460590D02*X460975Y81150D01*
X460590Y83845D02*Y81535D01*
Y83845D02*X460975Y84230D01*
X461745D01*
X462130Y83845D01*
Y81535D01*
X461745Y81150D02*X462130Y81535D01*
X460975Y81150D02*X461745D01*
X460590Y81920D02*X462130Y83460D01*
X463054Y83845D02*X463439Y84230D01*
X464594D01*
X464979Y83845D01*
Y83075D01*
X463054Y81150D02*X464979Y83075D01*
X463054Y81150D02*X464979D01*
X455500Y70500D02*X457500D01*
X458000Y70000D01*
Y69000D01*
X457500Y68500D02*X458000Y69000D01*
X456000Y68500D02*X457500D01*
X456000Y70500D02*Y66500D01*
X456800Y68500D02*X458000Y66500D01*
X460700Y70500D02*X461200Y70000D01*
X459700Y70500D02*X460700D01*
X459200Y70000D02*X459700Y70500D01*
X459200Y70000D02*Y67000D01*
X459700Y66500D01*
X460700Y68700D02*X461200Y68200D01*
X459200Y68700D02*X460700D01*
X459700Y66500D02*X460700D01*
X461200Y67000D01*
Y68200D02*Y67000D01*
X462400D02*X462900Y66500D01*
X462400Y70000D02*Y67000D01*
Y70000D02*X462900Y70500D01*
X463900D01*
X464400Y70000D01*
Y67000D01*
X463900Y66500D02*X464400Y67000D01*
X462900Y66500D02*X463900D01*
X462400Y67500D02*X464400Y69500D01*
X465600Y70000D02*X466100Y70500D01*
X467600D01*
X468100Y70000D01*
Y69000D01*
X465600Y66500D02*X468100Y69000D01*
X465600Y66500D02*X468100D01*
X480500Y69000D02*X482500D01*
X483000Y68500D01*
Y67500D01*
X482500Y67000D02*X483000Y67500D01*
X481000Y67000D02*X482500D01*
X481000Y69000D02*Y65000D01*
X481800Y67000D02*X483000Y65000D01*
X484200Y65500D02*X484700Y65000D01*
X484200Y66300D02*Y65500D01*
Y66300D02*X484900Y67000D01*
X485500D01*
X486200Y66300D01*
Y65500D01*
X485700Y65000D02*X486200Y65500D01*
X484700Y65000D02*X485700D01*
X484200Y67700D02*X484900Y67000D01*
X484200Y68500D02*Y67700D01*
Y68500D02*X484700Y69000D01*
X485700D01*
X486200Y68500D01*
Y67700D01*
X485500Y67000D02*X486200Y67700D01*
X500000Y72500D02*X502000D01*
X502500Y72000D01*
Y71000D01*
X502000Y70500D02*X502500Y71000D01*
X500500Y70500D02*X502000D01*
X500500Y72500D02*Y68500D01*
X501300Y70500D02*X502500Y68500D01*
X503700Y72000D02*X504200Y72500D01*
X505700D01*
X506200Y72000D01*
Y71000D01*
X503700Y68500D02*X506200Y71000D01*
X503700Y68500D02*X506200D01*
X507400Y72500D02*X509400D01*
X507400D02*Y70500D01*
X507900Y71000D01*
X508900D01*
X509400Y70500D01*
Y69000D01*
X508900Y68500D02*X509400Y69000D01*
X507900Y68500D02*X508900D01*
X507400Y69000D02*X507900Y68500D01*
X448039Y94650D02*X449040D01*
X447500Y95189D02*X448039Y94650D01*
X447500Y97191D02*Y95189D01*
Y97191D02*X448039Y97730D01*
X449040D01*
X449964Y95805D02*X451504Y97730D01*
X449964Y95805D02*X451889D01*
X451504Y97730D02*Y94650D01*
X452813Y97730D02*X454353D01*
X452813D02*Y96190D01*
X453198Y96575D01*
X453968D01*
X454353Y96190D01*
Y95035D01*
X453968Y94650D02*X454353Y95035D01*
X453198Y94650D02*X453968D01*
X452813Y95035D02*X453198Y94650D01*
X466700Y98500D02*X468000D01*
X466000Y99200D02*X466700Y98500D01*
X466000Y101800D02*Y99200D01*
Y101800D02*X466700Y102500D01*
X468000D01*
X469200Y100000D02*X471200Y102500D01*
X469200Y100000D02*X471700D01*
X471200Y102500D02*Y98500D01*
X474400Y102500D02*X474900Y102000D01*
X473400Y102500D02*X474400D01*
X472900Y102000D02*X473400Y102500D01*
X472900Y102000D02*Y99000D01*
X473400Y98500D01*
X474400Y100700D02*X474900Y100200D01*
X472900Y100700D02*X474400D01*
X473400Y98500D02*X474400D01*
X474900Y99000D01*
Y100200D02*Y99000D01*
X471770Y117385D02*X474850D01*
X471770Y118386D02*X472309Y118925D01*
X474311D01*
X474850Y118386D02*X474311Y118925D01*
X474850Y118386D02*Y117000D01*
X471770Y118386D02*Y117000D01*
X472386Y119849D02*X471770Y120465D01*
X474850D01*
Y121004D02*Y119849D01*
X472155Y121928D02*X471770Y122313D01*
Y123468D02*Y122313D01*
Y123468D02*X472155Y123853D01*
X472925D01*
X474850Y121928D02*X472925Y123853D01*
X474850D02*Y121928D01*
X488000Y119500D02*Y115500D01*
X489300Y119500D02*X490000Y118800D01*
Y116200D01*
X489300Y115500D02*X490000Y116200D01*
X487500Y115500D02*X489300D01*
X487500Y119500D02*X489300D01*
X491200Y116000D02*X491700Y115500D01*
X491200Y116800D02*Y116000D01*
Y116800D02*X491900Y117500D01*
X492500D01*
X493200Y116800D01*
Y116000D01*
X492700Y115500D02*X493200Y116000D01*
X491700Y115500D02*X492700D01*
X491200Y118200D02*X491900Y117500D01*
X491200Y119000D02*Y118200D01*
Y119000D02*X491700Y119500D01*
X492700D01*
X493200Y119000D01*
Y118200D01*
X492500Y117500D02*X493200Y118200D01*
X487000Y90000D02*Y86000D01*
X488300Y90000D02*X489000Y89300D01*
Y86700D01*
X488300Y86000D02*X489000Y86700D01*
X486500Y86000D02*X488300D01*
X486500Y90000D02*X488300D01*
X490200Y89200D02*X491000Y90000D01*
Y86000D01*
X490200D02*X491700D01*
X492900Y86500D02*X493400Y86000D01*
X492900Y89500D02*Y86500D01*
Y89500D02*X493400Y90000D01*
X494400D01*
X494900Y89500D01*
Y86500D01*
X494400Y86000D02*X494900Y86500D01*
X493400Y86000D02*X494400D01*
X492900Y87000D02*X494900Y89000D01*
X407000Y84000D02*Y80500D01*
X407500Y80000D01*
X408500D01*
X409000Y80500D01*
Y84000D02*Y80500D01*
X410200Y84000D02*X412200D01*
X410200D02*Y82000D01*
X410700Y82500D01*
X411700D01*
X412200Y82000D01*
Y80500D01*
X411700Y80000D02*X412200Y80500D01*
X410700Y80000D02*X411700D01*
X410200Y80500D02*X410700Y80000D01*
X413400Y80500D02*X413900Y80000D01*
X413400Y83500D02*Y80500D01*
Y83500D02*X413900Y84000D01*
X414900D01*
X415400Y83500D01*
Y80500D01*
X414900Y80000D02*X415400Y80500D01*
X413900Y80000D02*X414900D01*
X413400Y81000D02*X415400Y83000D01*
X416600Y83500D02*X417100Y84000D01*
X418600D01*
X419100Y83500D01*
Y82500D01*
X416600Y80000D02*X419100Y82500D01*
X416600Y80000D02*X419100D01*
X429700Y55000D02*X431000D01*
X429000Y55700D02*X429700Y55000D01*
X429000Y58300D02*Y55700D01*
Y58300D02*X429700Y59000D01*
X431000D01*
X432200Y58500D02*Y55500D01*
Y58500D02*X432700Y59000D01*
X433700D01*
X434200Y58500D01*
Y55500D01*
X433700Y55000D02*X434200Y55500D01*
X432700Y55000D02*X433700D01*
X432200Y55500D02*X432700Y55000D01*
X435400Y59000D02*Y55000D01*
Y59000D02*X437900Y55000D01*
Y59000D02*Y55000D01*
X439100Y59000D02*Y55000D01*
Y59000D02*X441600Y55000D01*
Y59000D02*Y55000D01*
X444300Y59000D02*X444800Y58500D01*
X443300Y59000D02*X444300D01*
X442800Y58500D02*X443300Y59000D01*
X442800Y58500D02*Y55500D01*
X443300Y55000D01*
X444300Y57200D02*X444800Y56700D01*
X442800Y57200D02*X444300D01*
X443300Y55000D02*X444300D01*
X444800Y55500D01*
Y56700D02*Y55500D01*
X446000D02*X446500Y55000D01*
X446000Y58500D02*Y55500D01*
Y58500D02*X446500Y59000D01*
X447500D01*
X448000Y58500D01*
Y55500D01*
X447500Y55000D02*X448000Y55500D01*
X446500Y55000D02*X447500D01*
X446000Y56000D02*X448000Y58000D01*
X450700Y59000D02*X451200Y58500D01*
X449700Y59000D02*X450700D01*
X449200Y58500D02*X449700Y59000D01*
X449200Y58500D02*Y55500D01*
X449700Y55000D01*
X450700Y57200D02*X451200Y56700D01*
X449200Y57200D02*X450700D01*
X449700Y55000D02*X450700D01*
X451200Y55500D01*
Y56700D02*Y55500D01*
X428000Y77000D02*X430000D01*
X430500Y76500D01*
Y75500D01*
X430000Y75000D02*X430500Y75500D01*
X428500Y75000D02*X430000D01*
X428500Y77000D02*Y73000D01*
X429300Y75000D02*X430500Y73000D01*
X433200Y77000D02*X433700Y76500D01*
X432200Y77000D02*X433200D01*
X431700Y76500D02*X432200Y77000D01*
X431700Y76500D02*Y73500D01*
X432200Y73000D01*
X433200Y75200D02*X433700Y74700D01*
X431700Y75200D02*X433200D01*
X432200Y73000D02*X433200D01*
X433700Y73500D01*
Y74700D02*Y73500D01*
X434900D02*X435400Y73000D01*
X434900Y76500D02*Y73500D01*
Y76500D02*X435400Y77000D01*
X436400D01*
X436900Y76500D01*
Y73500D01*
X436400Y73000D02*X436900Y73500D01*
X435400Y73000D02*X436400D01*
X434900Y74000D02*X436900Y76000D01*
X438100Y76200D02*X438900Y77000D01*
Y73000D01*
X438100D02*X439600D01*
X389700Y54500D02*X391000D01*
X389000Y55200D02*X389700Y54500D01*
X389000Y57800D02*Y55200D01*
Y57800D02*X389700Y58500D01*
X391000D01*
X392200Y58000D02*Y55000D01*
Y58000D02*X392700Y58500D01*
X393700D01*
X394200Y58000D01*
Y55000D01*
X393700Y54500D02*X394200Y55000D01*
X392700Y54500D02*X393700D01*
X392200Y55000D02*X392700Y54500D01*
X395400Y58500D02*Y54500D01*
Y58500D02*X397900Y54500D01*
Y58500D02*Y54500D01*
X399100Y58500D02*Y54500D01*
Y58500D02*X401600Y54500D01*
Y58500D02*Y54500D01*
X404300Y58500D02*X404800Y58000D01*
X403300Y58500D02*X404300D01*
X402800Y58000D02*X403300Y58500D01*
X402800Y58000D02*Y55000D01*
X403300Y54500D01*
X404300Y56700D02*X404800Y56200D01*
X402800Y56700D02*X404300D01*
X403300Y54500D02*X404300D01*
X404800Y55000D01*
Y56200D02*Y55000D01*
X406000Y57700D02*X406800Y58500D01*
Y54500D01*
X406000D02*X407500D01*
X408700Y58000D02*X409200Y58500D01*
X410700D01*
X411200Y58000D01*
Y57000D01*
X408700Y54500D02*X411200Y57000D01*
X408700Y54500D02*X411200D01*
X378000Y66730D02*X379540D01*
X379925Y66345D01*
Y65575D01*
X379540Y65190D02*X379925Y65575D01*
X378385Y65190D02*X379540D01*
X378385Y66730D02*Y63650D01*
X379001Y65190D02*X379925Y63650D01*
X380849Y66345D02*X381234Y66730D01*
X382004D01*
X382389Y66345D01*
X382004Y63650D02*X382389Y64035D01*
X381234Y63650D02*X382004D01*
X380849Y64035D02*X381234Y63650D01*
Y65344D02*X382004D01*
X382389Y66345D02*Y65729D01*
Y64959D02*Y64035D01*
Y64959D02*X382004Y65344D01*
X382389Y65729D02*X382004Y65344D01*
X383313Y66730D02*X384853D01*
X383313D02*Y65190D01*
X383698Y65575D01*
X384468D01*
X384853Y65190D01*
Y64035D01*
X384468Y63650D02*X384853Y64035D01*
X383698Y63650D02*X384468D01*
X383313Y64035D02*X383698Y63650D01*
X394270Y71540D02*Y70000D01*
Y71540D02*X394655Y71925D01*
X395425D01*
X395810Y71540D02*X395425Y71925D01*
X395810Y71540D02*Y70385D01*
X394270D02*X397350D01*
X395810Y71001D02*X397350Y71925D01*
X394655Y72849D02*X394270Y73234D01*
Y74004D02*Y73234D01*
Y74004D02*X394655Y74389D01*
X397350Y74004D02*X396965Y74389D01*
X397350Y74004D02*Y73234D01*
X396965Y72849D02*X397350Y73234D01*
X395656Y74004D02*Y73234D01*
X394655Y74389D02*X395271D01*
X396041D02*X396965D01*
X396041D02*X395656Y74004D01*
X395271Y74389D02*X395656Y74004D01*
X396965Y75313D02*X397350Y75698D01*
X396349Y75313D02*X396965D01*
X396349D02*X395810Y75852D01*
Y76314D02*Y75852D01*
Y76314D02*X396349Y76853D01*
X396965D01*
X397350Y76468D02*X396965Y76853D01*
X397350Y76468D02*Y75698D01*
X395271Y75313D02*X395810Y75852D01*
X394655Y75313D02*X395271D01*
X394655D02*X394270Y75698D01*
Y76468D02*Y75698D01*
Y76468D02*X394655Y76853D01*
X395271D01*
X395810Y76314D02*X395271Y76853D01*
X436000Y86500D02*Y85200D01*
X435300Y84500D02*X436000Y85200D01*
X432700Y84500D02*X435300D01*
X432700D02*X432000Y85200D01*
Y86500D02*Y85200D01*
Y89700D02*Y87700D01*
X434000D01*
X433500Y88200D01*
Y89200D02*Y88200D01*
Y89200D02*X434000Y89700D01*
X435500D01*
X436000Y89200D02*X435500Y89700D01*
X436000Y89200D02*Y88200D01*
X435500Y87700D02*X436000Y88200D01*
X435500Y90900D02*X436000Y91400D01*
X432500Y90900D02*X435500D01*
X432500D02*X432000Y91400D01*
Y92400D02*Y91400D01*
Y92400D02*X432500Y92900D01*
X435500D01*
X436000Y92400D02*X435500Y92900D01*
X436000Y92400D02*Y91400D01*
X435000Y90900D02*X433000Y92900D01*
X432000Y96100D02*Y94100D01*
X434000D01*
X433500Y94600D01*
Y95600D02*Y94600D01*
Y95600D02*X434000Y96100D01*
X435500D01*
X436000Y95600D02*X435500Y96100D01*
X436000Y95600D02*Y94600D01*
X435500Y94100D02*X436000Y94600D01*
X422532Y143700D02*X423520D01*
X422000Y144232D02*X422532Y143700D01*
X422000Y146208D02*Y144232D01*
Y146208D02*X422532Y146740D01*
X423520D01*
X424432Y146360D02*Y144080D01*
Y146360D02*X424812Y146740D01*
X425572D01*
X425952Y146360D01*
Y144080D01*
X425572Y143700D02*X425952Y144080D01*
X424812Y143700D02*X425572D01*
X424432Y144080D02*X424812Y143700D01*
X426864Y146740D02*Y143700D01*
Y146740D02*X428764Y143700D01*
Y146740D02*Y143700D01*
X429676Y146740D02*Y143700D01*
Y146740D02*X431576Y143700D01*
Y146740D02*Y143700D01*
X433628Y146740D02*X434008Y146360D01*
X432868Y146740D02*X433628D01*
X432488Y146360D02*X432868Y146740D01*
X432488Y146360D02*Y144080D01*
X432868Y143700D01*
X433628Y145372D02*X434008Y144992D01*
X432488Y145372D02*X433628D01*
X432868Y143700D02*X433628D01*
X434008Y144080D01*
Y144992D02*Y144080D01*
X434920D02*X435300Y143700D01*
X434920Y146360D02*Y144080D01*
Y146360D02*X435300Y146740D01*
X436060D01*
X436440Y146360D01*
Y144080D01*
X436060Y143700D02*X436440Y144080D01*
X435300Y143700D02*X436060D01*
X434920Y144460D02*X436440Y145980D01*
X437352Y146132D02*X437960Y146740D01*
Y143700D01*
X437352D02*X438492D01*
X430620Y135390D02*Y133850D01*
Y135390D02*X431005Y135775D01*
X431775D01*
X432160Y135390D02*X431775Y135775D01*
X432160Y135390D02*Y134235D01*
X430620D02*X433700D01*
X432160Y134851D02*X433700Y135775D01*
X431005Y136699D02*X430620Y137084D01*
Y138239D02*Y137084D01*
Y138239D02*X431005Y138624D01*
X431775D01*
X433700Y136699D02*X431775Y138624D01*
X433700D02*Y136699D01*
X432545Y139548D02*X430620Y141088D01*
X432545Y141473D02*Y139548D01*
X430620Y141088D02*X433700D01*
X457000Y141740D02*X458520D01*
X458900Y141360D01*
Y140600D01*
X458520Y140220D02*X458900Y140600D01*
X457380Y140220D02*X458520D01*
X457380Y141740D02*Y138700D01*
X457988Y140220D02*X458900Y138700D01*
X459812Y141740D02*X461332D01*
X459812D02*Y140220D01*
X460192Y140600D01*
X460952D01*
X461332Y140220D01*
Y139080D01*
X460952Y138700D02*X461332Y139080D01*
X460192Y138700D02*X460952D01*
X459812Y139080D02*X460192Y138700D01*
X462120Y131390D02*Y129850D01*
Y131390D02*X462505Y131775D01*
X463275D01*
X463660Y131390D02*X463275Y131775D01*
X463660Y131390D02*Y130235D01*
X462120D02*X465200D01*
X463660Y130851D02*X465200Y131775D01*
X462505Y132699D02*X462120Y133084D01*
Y133854D02*Y133084D01*
Y133854D02*X462505Y134239D01*
X465200Y133854D02*X464815Y134239D01*
X465200Y133854D02*Y133084D01*
X464815Y132699D02*X465200Y133084D01*
X463506Y133854D02*Y133084D01*
X462505Y134239D02*X463121D01*
X463891D02*X464815D01*
X463891D02*X463506Y133854D01*
X463121Y134239D02*X463506Y133854D01*
X462736Y135163D02*X462120Y135779D01*
X465200D01*
Y136318D02*Y135163D01*
X463350Y150880D02*X464890D01*
X465275Y150495D01*
Y149725D01*
X464890Y149340D02*X465275Y149725D01*
X463735Y149340D02*X464890D01*
X463735Y150880D02*Y147800D01*
X464351Y149340D02*X465275Y147800D01*
X466199Y150495D02*X466584Y150880D01*
X467354D01*
X467739Y150495D01*
X467354Y147800D02*X467739Y148185D01*
X466584Y147800D02*X467354D01*
X466199Y148185D02*X466584Y147800D01*
Y149494D02*X467354D01*
X467739Y150495D02*Y149879D01*
Y149109D02*Y148185D01*
Y149109D02*X467354Y149494D01*
X467739Y149879D02*X467354Y149494D01*
X468663Y148185D02*X469048Y147800D01*
X468663Y150495D02*Y148185D01*
Y150495D02*X469048Y150880D01*
X469818D01*
X470203Y150495D01*
Y148185D01*
X469818Y147800D02*X470203Y148185D01*
X469048Y147800D02*X469818D01*
X468663Y148570D02*X470203Y150110D01*
X431500Y153730D02*X433040D01*
X433425Y153345D01*
Y152575D01*
X433040Y152190D02*X433425Y152575D01*
X431885Y152190D02*X433040D01*
X431885Y153730D02*Y150650D01*
X432501Y152190D02*X433425Y150650D01*
X435504Y153730D02*X435889Y153345D01*
X434734Y153730D02*X435504D01*
X434349Y153345D02*X434734Y153730D01*
X434349Y153345D02*Y151035D01*
X434734Y150650D01*
X435504Y152344D02*X435889Y151959D01*
X434349Y152344D02*X435504D01*
X434734Y150650D02*X435504D01*
X435889Y151035D01*
Y151959D02*Y151035D01*
X436813Y153114D02*X437429Y153730D01*
Y150650D01*
X436813D02*X437968D01*
X438892Y151035D02*X439277Y150650D01*
X438892Y153345D02*Y151035D01*
Y153345D02*X439277Y153730D01*
X440047D01*
X440432Y153345D01*
Y151035D01*
X440047Y150650D02*X440432Y151035D01*
X439277Y150650D02*X440047D01*
X438892Y151420D02*X440432Y152960D01*
X444000Y104730D02*X445540D01*
X445925Y104345D01*
Y103575D01*
X445540Y103190D02*X445925Y103575D01*
X444385Y103190D02*X445540D01*
X444385Y104730D02*Y101650D01*
X445001Y103190D02*X445925Y101650D01*
X446849Y104345D02*X447234Y104730D01*
X448389D01*
X448774Y104345D01*
Y103575D01*
X446849Y101650D02*X448774Y103575D01*
X446849Y101650D02*X448774D01*
X450083D02*X451623Y104730D01*
X449698D02*X451623D01*
X444000Y119730D02*X445540D01*
X445925Y119345D01*
Y118575D01*
X445540Y118190D02*X445925Y118575D01*
X444385Y118190D02*X445540D01*
X444385Y119730D02*Y116650D01*
X445001Y118190D02*X445925Y116650D01*
X446849Y119345D02*X447234Y119730D01*
X448389D01*
X448774Y119345D01*
Y118575D01*
X446849Y116650D02*X448774Y118575D01*
X446849Y116650D02*X448774D01*
X449698Y117035D02*X450083Y116650D01*
X449698Y117651D02*Y117035D01*
Y117651D02*X450237Y118190D01*
X450699D01*
X451238Y117651D01*
Y117035D01*
X450853Y116650D02*X451238Y117035D01*
X450083Y116650D02*X450853D01*
X449698Y118729D02*X450237Y118190D01*
X449698Y119345D02*Y118729D01*
Y119345D02*X450083Y119730D01*
X450853D01*
X451238Y119345D01*
Y118729D01*
X450699Y118190D02*X451238Y118729D01*
X447000Y127000D02*Y123000D01*
X448300Y127000D02*X449000Y126300D01*
Y123700D01*
X448300Y123000D02*X449000Y123700D01*
X446500Y123000D02*X448300D01*
X446500Y127000D02*X448300D01*
X450700Y123000D02*X452200Y125000D01*
Y126500D02*Y125000D01*
X451700Y127000D02*X452200Y126500D01*
X450700Y127000D02*X451700D01*
X450200Y126500D02*X450700Y127000D01*
X450200Y126500D02*Y125500D01*
X450700Y125000D01*
X452200D01*
X491300Y149020D02*Y148032D01*
X490768Y147500D02*X491300Y148032D01*
X488792Y147500D02*X490768D01*
X488792D02*X488260Y148032D01*
Y149020D02*Y148032D01*
X488640Y149932D02*X490920D01*
X488640D02*X488260Y150312D01*
Y151072D02*Y150312D01*
Y151072D02*X488640Y151452D01*
X490920D01*
X491300Y151072D02*X490920Y151452D01*
X491300Y151072D02*Y150312D01*
X490920Y149932D02*X491300Y150312D01*
X488260Y152364D02*X491300D01*
X488260D02*X491300Y154264D01*
X488260D02*X491300D01*
X488260Y155176D02*X491300D01*
X488260D02*X491300Y157076D01*
X488260D02*X491300D01*
X488260Y159128D02*X488640Y159508D01*
X488260Y159128D02*Y158368D01*
X488640Y157988D02*X488260Y158368D01*
X488640Y157988D02*X490920D01*
X491300Y158368D01*
X489628Y159128D02*X490008Y159508D01*
X489628Y159128D02*Y157988D01*
X491300Y159128D02*Y158368D01*
Y159128D02*X490920Y159508D01*
X490008D02*X490920D01*
Y160420D02*X491300Y160800D01*
X488640Y160420D02*X490920D01*
X488640D02*X488260Y160800D01*
Y161560D02*Y160800D01*
Y161560D02*X488640Y161940D01*
X490920D01*
X491300Y161560D02*X490920Y161940D01*
X491300Y161560D02*Y160800D01*
X490540Y160420D02*X489020Y161940D01*
X491300Y163232D02*X488260Y164752D01*
Y162852D01*
X500539Y137150D02*X501540D01*
X500000Y137689D02*X500539Y137150D01*
X500000Y139691D02*Y137689D01*
Y139691D02*X500539Y140230D01*
X501540D01*
X502464Y139845D02*Y137535D01*
Y139845D02*X502849Y140230D01*
X503619D01*
X504004Y139845D01*
Y137535D01*
X503619Y137150D02*X504004Y137535D01*
X502849Y137150D02*X503619D01*
X502464Y137535D02*X502849Y137150D01*
X504928Y140230D02*Y137150D01*
Y140230D02*X506853Y137150D01*
Y140230D02*Y137150D01*
X507777Y140230D02*Y137150D01*
Y140230D02*X509702Y137150D01*
Y140230D02*Y137150D01*
X511781Y140230D02*X512166Y139845D01*
X511011Y140230D02*X511781D01*
X510626Y139845D02*X511011Y140230D01*
X510626Y139845D02*Y137535D01*
X511011Y137150D01*
X511781Y138844D02*X512166Y138459D01*
X510626Y138844D02*X511781D01*
X511011Y137150D02*X511781D01*
X512166Y137535D01*
Y138459D02*Y137535D01*
X513090D02*X513475Y137150D01*
X513090Y139845D02*Y137535D01*
Y139845D02*X513475Y140230D01*
X514245D01*
X514630Y139845D01*
Y137535D01*
X514245Y137150D02*X514630Y137535D01*
X513475Y137150D02*X514245D01*
X513090Y137920D02*X514630Y139460D01*
X515554Y139845D02*X515939Y140230D01*
X516709D01*
X517094Y139845D01*
X516709Y137150D02*X517094Y137535D01*
X515939Y137150D02*X516709D01*
X515554Y137535D02*X515939Y137150D01*
Y138844D02*X516709D01*
X517094Y139845D02*Y139229D01*
Y138459D02*Y137535D01*
Y138459D02*X516709Y138844D01*
X517094Y139229D02*X516709Y138844D01*
X484350Y145380D02*X485890D01*
X486275Y144995D01*
Y144225D01*
X485890Y143840D02*X486275Y144225D01*
X484735Y143840D02*X485890D01*
X484735Y145380D02*Y142300D01*
X485351Y143840D02*X486275Y142300D01*
X487199Y144995D02*X487584Y145380D01*
X488739D01*
X489124Y144995D01*
Y144225D01*
X487199Y142300D02*X489124Y144225D01*
X487199Y142300D02*X489124D01*
X490048Y144995D02*X490433Y145380D01*
X491203D01*
X491588Y144995D01*
X491203Y142300D02*X491588Y142685D01*
X490433Y142300D02*X491203D01*
X490048Y142685D02*X490433Y142300D01*
Y143994D02*X491203D01*
X491588Y144995D02*Y144379D01*
Y143609D02*Y142685D01*
Y143609D02*X491203Y143994D01*
X491588Y144379D02*X491203Y143994D01*
X489500Y130230D02*X491040D01*
X491425Y129845D01*
Y129075D01*
X491040Y128690D02*X491425Y129075D01*
X489885Y128690D02*X491040D01*
X489885Y130230D02*Y127150D01*
X490501Y128690D02*X491425Y127150D01*
X492734D02*X494274Y130230D01*
X492349D02*X494274D01*
X524039Y139650D02*X525040D01*
X523500Y140189D02*X524039Y139650D01*
X523500Y142191D02*Y140189D01*
Y142191D02*X524039Y142730D01*
X525040D01*
X525964D02*X527504D01*
X525964D02*Y141190D01*
X526349Y141575D01*
X527119D01*
X527504Y141190D01*
Y140035D01*
X527119Y139650D02*X527504Y140035D01*
X526349Y139650D02*X527119D01*
X525964Y140035D02*X526349Y139650D01*
X528428Y142114D02*X529044Y142730D01*
Y139650D01*
X528428D02*X529583D01*
X530507Y140035D02*X530892Y139650D01*
X530507Y142345D02*Y140035D01*
Y142345D02*X530892Y142730D01*
X531662D01*
X532047Y142345D01*
Y140035D01*
X531662Y139650D02*X532047Y140035D01*
X530892Y139650D02*X531662D01*
X530507Y140420D02*X532047Y141960D01*
X464500Y167500D02*Y163500D01*
X465800Y167500D02*X466500Y166800D01*
Y164200D01*
X465800Y163500D02*X466500Y164200D01*
X464000Y163500D02*X465800D01*
X464000Y167500D02*X465800D01*
X469200D02*X469700Y167000D01*
X468200Y167500D02*X469200D01*
X467700Y167000D02*X468200Y167500D01*
X467700Y167000D02*Y164000D01*
X468200Y163500D01*
X469200Y165700D02*X469700Y165200D01*
X467700Y165700D02*X469200D01*
X468200Y163500D02*X469200D01*
X469700Y164000D01*
Y165200D02*Y164000D01*
X470900Y166700D02*X471700Y167500D01*
Y163500D01*
X470900D02*X472400D01*
X473600Y164000D02*X474100Y163500D01*
X473600Y167000D02*Y164000D01*
Y167000D02*X474100Y167500D01*
X475100D01*
X475600Y167000D01*
Y164000D01*
X475100Y163500D02*X475600Y164000D01*
X474100Y163500D02*X475100D01*
X473600Y164500D02*X475600Y166500D01*
X431500Y167730D02*Y165035D01*
X431885Y164650D01*
X432655D01*
X433040Y165035D01*
Y167730D02*Y165035D01*
X433964Y167345D02*X434349Y167730D01*
X435504D01*
X435889Y167345D01*
Y166575D01*
X433964Y164650D02*X435889Y166575D01*
X433964Y164650D02*X435889D01*
X436813Y165035D02*X437198Y164650D01*
X436813Y167345D02*Y165035D01*
Y167345D02*X437198Y167730D01*
X437968D01*
X438353Y167345D01*
Y165035D01*
X437968Y164650D02*X438353Y165035D01*
X437198Y164650D02*X437968D01*
X436813Y165420D02*X438353Y166960D01*
X439277Y167345D02*X439662Y167730D01*
X440817D01*
X441202Y167345D01*
Y166575D01*
X439277Y164650D02*X441202Y166575D01*
X439277Y164650D02*X441202D01*
X409250Y150500D02*Y149525D01*
X408725Y149000D02*X409250Y149525D01*
X406775Y149000D02*X408725D01*
X406775D02*X406250Y149525D01*
Y150500D02*Y149525D01*
X406625Y151400D02*X406250Y151775D01*
Y152900D02*Y151775D01*
Y152900D02*X406625Y153275D01*
X407375D01*
X409250Y151400D02*X407375Y153275D01*
X409250D02*Y151400D01*
X408875Y154175D02*X409250Y154550D01*
X406625Y154175D02*X408875D01*
X406625D02*X406250Y154550D01*
Y155300D02*Y154550D01*
Y155300D02*X406625Y155675D01*
X408875D01*
X409250Y155300D02*X408875Y155675D01*
X409250Y155300D02*Y154550D01*
X408500Y154175D02*X407000Y155675D01*
X409250Y156950D02*X406250Y158450D01*
Y156575D01*
X472850Y150880D02*X474390D01*
X474775Y150495D01*
Y149725D01*
X474390Y149340D02*X474775Y149725D01*
X473235Y149340D02*X474390D01*
X473235Y150880D02*Y147800D01*
X473851Y149340D02*X474775Y147800D01*
X475699Y150495D02*X476084Y150880D01*
X477239D01*
X477624Y150495D01*
Y149725D01*
X475699Y147800D02*X477624Y149725D01*
X475699Y147800D02*X477624D01*
X478933D02*X480088Y149340D01*
Y150495D02*Y149340D01*
X479703Y150880D02*X480088Y150495D01*
X478933Y150880D02*X479703D01*
X478548Y150495D02*X478933Y150880D01*
X478548Y150495D02*Y149725D01*
X478933Y149340D01*
X480088D01*
X444039Y163650D02*X445040D01*
X443500Y164189D02*X444039Y163650D01*
X443500Y166191D02*Y164189D01*
Y166191D02*X444039Y166730D01*
X445040D01*
X447119D02*X447504Y166345D01*
X446349Y166730D02*X447119D01*
X445964Y166345D02*X446349Y166730D01*
X445964Y166345D02*Y164035D01*
X446349Y163650D01*
X447119Y165344D02*X447504Y164959D01*
X445964Y165344D02*X447119D01*
X446349Y163650D02*X447119D01*
X447504Y164035D01*
Y164959D02*Y164035D01*
X448428D02*X448813Y163650D01*
X448428Y166345D02*Y164035D01*
Y166345D02*X448813Y166730D01*
X449583D01*
X449968Y166345D01*
Y164035D01*
X449583Y163650D02*X449968Y164035D01*
X448813Y163650D02*X449583D01*
X448428Y164420D02*X449968Y165960D01*
X450892Y166345D02*X451277Y166730D01*
X452432D01*
X452817Y166345D01*
Y165575D01*
X450892Y163650D02*X452817Y165575D01*
X450892Y163650D02*X452817D01*
X485700Y183500D02*X487000D01*
X485000Y184200D02*X485700Y183500D01*
X485000Y186800D02*Y184200D01*
Y186800D02*X485700Y187500D01*
X487000D01*
X488200Y187000D02*Y184000D01*
Y187000D02*X488700Y187500D01*
X489700D01*
X490200Y187000D01*
Y184000D01*
X489700Y183500D02*X490200Y184000D01*
X488700Y183500D02*X489700D01*
X488200Y184000D02*X488700Y183500D01*
X491400Y187500D02*Y183500D01*
Y187500D02*X493900Y183500D01*
Y187500D02*Y183500D01*
X495100Y187500D02*Y183500D01*
Y187500D02*X497600Y183500D01*
Y187500D02*Y183500D01*
X499300D02*X500800Y185500D01*
Y187000D02*Y185500D01*
X500300Y187500D02*X500800Y187000D01*
X499300Y187500D02*X500300D01*
X498800Y187000D02*X499300Y187500D01*
X498800Y187000D02*Y186000D01*
X499300Y185500D01*
X500800D01*
X502000Y184000D02*X502500Y183500D01*
X502000Y187000D02*Y184000D01*
Y187000D02*X502500Y187500D01*
X503500D01*
X504000Y187000D01*
Y184000D01*
X503500Y183500D02*X504000Y184000D01*
X502500Y183500D02*X503500D01*
X502000Y184500D02*X504000Y186500D01*
X443032Y186200D02*X444020D01*
X442500Y186732D02*X443032Y186200D01*
X442500Y188708D02*Y186732D01*
Y188708D02*X443032Y189240D01*
X444020D01*
X444932Y188860D02*X445312Y189240D01*
X446452D01*
X446832Y188860D01*
Y188100D01*
X444932Y186200D02*X446832Y188100D01*
X444932Y186200D02*X446832D01*
X447744Y186580D02*X448124Y186200D01*
X447744Y188860D02*Y186580D01*
Y188860D02*X448124Y189240D01*
X448884D01*
X449264Y188860D01*
Y186580D01*
X448884Y186200D02*X449264Y186580D01*
X448124Y186200D02*X448884D01*
X447744Y186960D02*X449264Y188480D01*
X450176Y187340D02*X451696Y189240D01*
X450176Y187340D02*X452076D01*
X451696Y189240D02*Y186200D01*
X403532Y184700D02*X404520D01*
X403000Y185232D02*X403532Y184700D01*
X403000Y187208D02*Y185232D01*
Y187208D02*X403532Y187740D01*
X404520D01*
X405432Y187360D02*X405812Y187740D01*
X406952D01*
X407332Y187360D01*
Y186600D01*
X405432Y184700D02*X407332Y186600D01*
X405432Y184700D02*X407332D01*
X408244Y185080D02*X408624Y184700D01*
X408244Y187360D02*Y185080D01*
Y187360D02*X408624Y187740D01*
X409384D01*
X409764Y187360D01*
Y185080D01*
X409384Y184700D02*X409764Y185080D01*
X408624Y184700D02*X409384D01*
X408244Y185460D02*X409764Y186980D01*
X410676Y187360D02*X411056Y187740D01*
X411816D01*
X412196Y187360D01*
X411816Y184700D02*X412196Y185080D01*
X411056Y184700D02*X411816D01*
X410676Y185080D02*X411056Y184700D01*
Y186372D02*X411816D01*
X412196Y187360D02*Y186752D01*
Y185992D02*Y185080D01*
Y185992D02*X411816Y186372D01*
X412196Y186752D02*X411816Y186372D01*
X442000Y179730D02*X443540D01*
X443925Y179345D01*
Y178575D01*
X443540Y178190D02*X443925Y178575D01*
X442385Y178190D02*X443540D01*
X442385Y179730D02*Y176650D01*
X443001Y178190D02*X443925Y176650D01*
X444849Y179345D02*X445234Y179730D01*
X446389D01*
X446774Y179345D01*
Y178575D01*
X444849Y176650D02*X446774Y178575D01*
X444849Y176650D02*X446774D01*
X447698Y177035D02*X448083Y176650D01*
X447698Y179345D02*Y177035D01*
Y179345D02*X448083Y179730D01*
X448853D01*
X449238Y179345D01*
Y177035D01*
X448853Y176650D02*X449238Y177035D01*
X448083Y176650D02*X448853D01*
X447698Y177420D02*X449238Y178960D01*
X450162Y177035D02*X450547Y176650D01*
X450162Y179345D02*Y177035D01*
Y179345D02*X450547Y179730D01*
X451317D01*
X451702Y179345D01*
Y177035D01*
X451317Y176650D02*X451702Y177035D01*
X450547Y176650D02*X451317D01*
X450162Y177420D02*X451702Y178960D01*
X442500Y185230D02*X444040D01*
X444425Y184845D01*
Y184075D01*
X444040Y183690D02*X444425Y184075D01*
X442885Y183690D02*X444040D01*
X442885Y185230D02*Y182150D01*
X443501Y183690D02*X444425Y182150D01*
X445349Y184845D02*X445734Y185230D01*
X446889D01*
X447274Y184845D01*
Y184075D01*
X445349Y182150D02*X447274Y184075D01*
X445349Y182150D02*X447274D01*
X448198Y182535D02*X448583Y182150D01*
X448198Y184845D02*Y182535D01*
Y184845D02*X448583Y185230D01*
X449353D01*
X449738Y184845D01*
Y182535D01*
X449353Y182150D02*X449738Y182535D01*
X448583Y182150D02*X449353D01*
X448198Y182920D02*X449738Y184460D01*
X450662Y183305D02*X452202Y185230D01*
X450662Y183305D02*X452587D01*
X452202Y185230D02*Y182150D01*
X378000Y145230D02*X379540D01*
X379925Y144845D01*
Y144075D01*
X379540Y143690D02*X379925Y144075D01*
X378385Y143690D02*X379540D01*
X378385Y145230D02*Y142150D01*
X379001Y143690D02*X379925Y142150D01*
X380849Y144845D02*X381234Y145230D01*
X382004D01*
X382389Y144845D01*
X382004Y142150D02*X382389Y142535D01*
X381234Y142150D02*X382004D01*
X380849Y142535D02*X381234Y142150D01*
Y143844D02*X382004D01*
X382389Y144845D02*Y144229D01*
Y143459D02*Y142535D01*
Y143459D02*X382004Y143844D01*
X382389Y144229D02*X382004Y143844D01*
X384468Y145230D02*X384853Y144845D01*
X383698Y145230D02*X384468D01*
X383313Y144845D02*X383698Y145230D01*
X383313Y144845D02*Y142535D01*
X383698Y142150D01*
X384468Y143844D02*X384853Y143459D01*
X383313Y143844D02*X384468D01*
X383698Y142150D02*X384468D01*
X384853Y142535D01*
Y143459D02*Y142535D01*
X379000Y130230D02*X380540D01*
X380925Y129845D01*
Y129075D01*
X380540Y128690D02*X380925Y129075D01*
X379385Y128690D02*X380540D01*
X379385Y130230D02*Y127150D01*
X380001Y128690D02*X380925Y127150D01*
X381849Y129845D02*X382234Y130230D01*
X383004D01*
X383389Y129845D01*
X383004Y127150D02*X383389Y127535D01*
X382234Y127150D02*X383004D01*
X381849Y127535D02*X382234Y127150D01*
Y128844D02*X383004D01*
X383389Y129845D02*Y129229D01*
Y128459D02*Y127535D01*
Y128459D02*X383004Y128844D01*
X383389Y129229D02*X383004Y128844D01*
X384313Y128305D02*X385853Y130230D01*
X384313Y128305D02*X386238D01*
X385853Y130230D02*Y127150D01*
X389850Y105040D02*Y104039D01*
X389311Y103500D02*X389850Y104039D01*
X387309Y103500D02*X389311D01*
X387309D02*X386770Y104039D01*
Y105040D02*Y104039D01*
X387155Y105964D02*X389465D01*
X387155D02*X386770Y106349D01*
Y107119D02*Y106349D01*
Y107119D02*X387155Y107504D01*
X389465D01*
X389850Y107119D02*X389465Y107504D01*
X389850Y107119D02*Y106349D01*
X389465Y105964D02*X389850Y106349D01*
X386770Y108428D02*X389850D01*
X386770D02*X389850Y110353D01*
X386770D02*X389850D01*
X386770Y111277D02*X389850D01*
X386770D02*X389850Y113202D01*
X386770D02*X389850D01*
X386770Y115281D02*X387155Y115666D01*
X386770Y115281D02*Y114511D01*
X387155Y114126D02*X386770Y114511D01*
X387155Y114126D02*X389465D01*
X389850Y114511D01*
X388156Y115281D02*X388541Y115666D01*
X388156Y115281D02*Y114126D01*
X389850Y115281D02*Y114511D01*
Y115281D02*X389465Y115666D01*
X388541D02*X389465D01*
X387386Y116590D02*X386770Y117206D01*
X389850D01*
Y117745D02*Y116590D01*
X389465Y118669D02*X389850Y119054D01*
X387155Y118669D02*X389465D01*
X387155D02*X386770Y119054D01*
Y119824D02*Y119054D01*
Y119824D02*X387155Y120209D01*
X389465D01*
X389850Y119824D02*X389465Y120209D01*
X389850Y119824D02*Y119054D01*
X389080Y118669D02*X387540Y120209D01*
X393350Y121040D02*Y120039D01*
X392811Y119500D02*X393350Y120039D01*
X390809Y119500D02*X392811D01*
X390809D02*X390270Y120039D01*
Y121040D02*Y120039D01*
X390655Y121964D02*X392965D01*
X390655D02*X390270Y122349D01*
Y123119D02*Y122349D01*
Y123119D02*X390655Y123504D01*
X392965D01*
X393350Y123119D02*X392965Y123504D01*
X393350Y123119D02*Y122349D01*
X392965Y121964D02*X393350Y122349D01*
X390270Y124428D02*X393350D01*
X390270D02*X393350Y126353D01*
X390270D02*X393350D01*
X390270Y127277D02*X393350D01*
X390270D02*X393350Y129202D01*
X390270D02*X393350D01*
X390270Y131281D02*X390655Y131666D01*
X390270Y131281D02*Y130511D01*
X390655Y130126D02*X390270Y130511D01*
X390655Y130126D02*X392965D01*
X393350Y130511D01*
X391656Y131281D02*X392041Y131666D01*
X391656Y131281D02*Y130126D01*
X393350Y131281D02*Y130511D01*
Y131281D02*X392965Y131666D01*
X392041D02*X392965D01*
X390886Y132590D02*X390270Y133206D01*
X393350D01*
Y133745D02*Y132590D01*
X390655Y134669D02*X390270Y135054D01*
Y135824D02*Y135054D01*
Y135824D02*X390655Y136209D01*
X393350Y135824D02*X392965Y136209D01*
X393350Y135824D02*Y135054D01*
X392965Y134669D02*X393350Y135054D01*
X391656Y135824D02*Y135054D01*
X390655Y136209D02*X391271D01*
X392041D02*X392965D01*
X392041D02*X391656Y135824D01*
X391271Y136209D02*X391656Y135824D01*
X411700Y112000D02*X413000D01*
X411000Y112700D02*X411700Y112000D01*
X411000Y115300D02*Y112700D01*
Y115300D02*X411700Y116000D01*
X413000D01*
X414200D02*X416200D01*
X414200D02*Y114000D01*
X414700Y114500D01*
X415700D01*
X416200Y114000D01*
Y112500D01*
X415700Y112000D02*X416200Y112500D01*
X414700Y112000D02*X415700D01*
X414200Y112500D02*X414700Y112000D01*
X417400Y112500D02*X417900Y112000D01*
X417400Y115500D02*Y112500D01*
Y115500D02*X417900Y116000D01*
X418900D01*
X419400Y115500D01*
Y112500D01*
X418900Y112000D02*X419400Y112500D01*
X417900Y112000D02*X418900D01*
X417400Y113000D02*X419400Y115000D01*
X422100Y116000D02*X422600Y115500D01*
X421100Y116000D02*X422100D01*
X420600Y115500D02*X421100Y116000D01*
X420600Y115500D02*Y112500D01*
X421100Y112000D01*
X422100Y114200D02*X422600Y113700D01*
X420600Y114200D02*X422100D01*
X421100Y112000D02*X422100D01*
X422600Y112500D01*
Y113700D02*Y112500D01*
X403532Y125200D02*X404520D01*
X403000Y125732D02*X403532Y125200D01*
X403000Y127708D02*Y125732D01*
Y127708D02*X403532Y128240D01*
X404520D01*
X405432Y127860D02*X405812Y128240D01*
X406952D01*
X407332Y127860D01*
Y127100D01*
X405432Y125200D02*X407332Y127100D01*
X405432Y125200D02*X407332D01*
X408244Y125580D02*X408624Y125200D01*
X408244Y127860D02*Y125580D01*
Y127860D02*X408624Y128240D01*
X409384D01*
X409764Y127860D01*
Y125580D01*
X409384Y125200D02*X409764Y125580D01*
X408624Y125200D02*X409384D01*
X408244Y125960D02*X409764Y127480D01*
X410676Y125580D02*X411056Y125200D01*
X410676Y127860D02*Y125580D01*
Y127860D02*X411056Y128240D01*
X411816D01*
X412196Y127860D01*
Y125580D01*
X411816Y125200D02*X412196Y125580D01*
X411056Y125200D02*X411816D01*
X410676Y125960D02*X412196Y127480D01*
X395000Y116000D02*Y112000D01*
X397000D01*
X398200Y116000D02*X400200D01*
X398200D02*Y114000D01*
X398700Y114500D01*
X399700D01*
X400200Y114000D01*
Y112500D01*
X399700Y112000D02*X400200Y112500D01*
X398700Y112000D02*X399700D01*
X398200Y112500D02*X398700Y112000D01*
X401400Y112500D02*X401900Y112000D01*
X401400Y115500D02*Y112500D01*
Y115500D02*X401900Y116000D01*
X402900D01*
X403400Y115500D01*
Y112500D01*
X402900Y112000D02*X403400Y112500D01*
X401900Y112000D02*X402900D01*
X401400Y113000D02*X403400Y115000D01*
X404600Y115500D02*X405100Y116000D01*
X406600D01*
X407100Y115500D01*
Y114500D01*
X404600Y112000D02*X407100Y114500D01*
X404600Y112000D02*X407100D01*
X201532Y186200D02*X202520D01*
X201000Y186732D02*X201532Y186200D01*
X201000Y188708D02*Y186732D01*
Y188708D02*X201532Y189240D01*
X202520D01*
X203432D02*X204952D01*
X203432D02*Y187720D01*
X203812Y188100D01*
X204572D01*
X204952Y187720D01*
Y186580D01*
X204572Y186200D02*X204952Y186580D01*
X203812Y186200D02*X204572D01*
X203432Y186580D02*X203812Y186200D01*
X205864Y186580D02*X206244Y186200D01*
X205864Y188860D02*Y186580D01*
Y188860D02*X206244Y189240D01*
X207004D01*
X207384Y188860D01*
Y186580D01*
X207004Y186200D02*X207384Y186580D01*
X206244Y186200D02*X207004D01*
X205864Y186960D02*X207384Y188480D01*
X208296Y188632D02*X208904Y189240D01*
Y186200D01*
X208296D02*X209436D01*
X169000Y188730D02*X170540D01*
X170925Y188345D01*
Y187575D01*
X170540Y187190D02*X170925Y187575D01*
X169385Y187190D02*X170540D01*
X169385Y188730D02*Y185650D01*
X170001Y187190D02*X170925Y185650D01*
X171849Y188730D02*X173389D01*
X171849D02*Y187190D01*
X172234Y187575D01*
X173004D01*
X173389Y187190D01*
Y186035D01*
X173004Y185650D02*X173389Y186035D01*
X172234Y185650D02*X173004D01*
X171849Y186035D02*X172234Y185650D01*
X174313Y186035D02*X174698Y185650D01*
X174313Y188345D02*Y186035D01*
Y188345D02*X174698Y188730D01*
X175468D01*
X175853Y188345D01*
Y186035D01*
X175468Y185650D02*X175853Y186035D01*
X174698Y185650D02*X175468D01*
X174313Y186420D02*X175853Y187960D01*
X176777Y186035D02*X177162Y185650D01*
X176777Y188345D02*Y186035D01*
Y188345D02*X177162Y188730D01*
X177932D01*
X178317Y188345D01*
Y186035D01*
X177932Y185650D02*X178317Y186035D01*
X177162Y185650D02*X177932D01*
X176777Y186420D02*X178317Y187960D01*
X191039Y181650D02*X192040D01*
X190500Y182189D02*X191039Y181650D01*
X190500Y184191D02*Y182189D01*
Y184191D02*X191039Y184730D01*
X192040D01*
X192964D02*X194504D01*
X192964D02*Y183190D01*
X193349Y183575D01*
X194119D01*
X194504Y183190D01*
Y182035D01*
X194119Y181650D02*X194504Y182035D01*
X193349Y181650D02*X194119D01*
X192964Y182035D02*X193349Y181650D01*
X195428Y182035D02*X195813Y181650D01*
X195428Y184345D02*Y182035D01*
Y184345D02*X195813Y184730D01*
X196583D01*
X196968Y184345D01*
Y182035D01*
X196583Y181650D02*X196968Y182035D01*
X195813Y181650D02*X196583D01*
X195428Y182420D02*X196968Y183960D01*
X197892Y182035D02*X198277Y181650D01*
X197892Y182651D02*Y182035D01*
Y182651D02*X198431Y183190D01*
X198893D01*
X199432Y182651D01*
Y182035D01*
X199047Y181650D02*X199432Y182035D01*
X198277Y181650D02*X199047D01*
X197892Y183729D02*X198431Y183190D01*
X197892Y184345D02*Y183729D01*
Y184345D02*X198277Y184730D01*
X199047D01*
X199432Y184345D01*
Y183729D01*
X198893Y183190D02*X199432Y183729D01*
X211500Y189230D02*X213040D01*
X213425Y188845D01*
Y188075D01*
X213040Y187690D02*X213425Y188075D01*
X211885Y187690D02*X213040D01*
X211885Y189230D02*Y186150D01*
X212501Y187690D02*X213425Y186150D01*
X214349Y189230D02*X215889D01*
X214349D02*Y187690D01*
X214734Y188075D01*
X215504D01*
X215889Y187690D01*
Y186535D01*
X215504Y186150D02*X215889Y186535D01*
X214734Y186150D02*X215504D01*
X214349Y186535D02*X214734Y186150D01*
X216813Y186535D02*X217198Y186150D01*
X216813Y188845D02*Y186535D01*
Y188845D02*X217198Y189230D01*
X217968D01*
X218353Y188845D01*
Y186535D01*
X217968Y186150D02*X218353Y186535D01*
X217198Y186150D02*X217968D01*
X216813Y186920D02*X218353Y188460D01*
X219277Y188614D02*X219893Y189230D01*
Y186150D01*
X219277D02*X220432D01*
X189000Y189230D02*X190540D01*
X190925Y188845D01*
Y188075D01*
X190540Y187690D02*X190925Y188075D01*
X189385Y187690D02*X190540D01*
X189385Y189230D02*Y186150D01*
X190001Y187690D02*X190925Y186150D01*
X191849Y189230D02*X193389D01*
X191849D02*Y187690D01*
X192234Y188075D01*
X193004D01*
X193389Y187690D01*
Y186535D01*
X193004Y186150D02*X193389Y186535D01*
X192234Y186150D02*X193004D01*
X191849Y186535D02*X192234Y186150D01*
X194313Y186535D02*X194698Y186150D01*
X194313Y188845D02*Y186535D01*
Y188845D02*X194698Y189230D01*
X195468D01*
X195853Y188845D01*
Y186535D01*
X195468Y186150D02*X195853Y186535D01*
X194698Y186150D02*X195468D01*
X194313Y186920D02*X195853Y188460D01*
X196777Y189230D02*X198317D01*
X196777D02*Y187690D01*
X197162Y188075D01*
X197932D01*
X198317Y187690D01*
Y186535D01*
X197932Y186150D02*X198317Y186535D01*
X197162Y186150D02*X197932D01*
X196777Y186535D02*X197162Y186150D01*
X203039Y181650D02*X204040D01*
X202500Y182189D02*X203039Y181650D01*
X202500Y184191D02*Y182189D01*
Y184191D02*X203039Y184730D01*
X204040D01*
X205349Y181650D02*X206889Y184730D01*
X204964D02*X206889D01*
X207813Y182035D02*X208198Y181650D01*
X207813Y184345D02*Y182035D01*
Y184345D02*X208198Y184730D01*
X208968D01*
X209353Y184345D01*
Y182035D01*
X208968Y181650D02*X209353Y182035D01*
X208198Y181650D02*X208968D01*
X207813Y182420D02*X209353Y183960D01*
X210277Y182805D02*X211817Y184730D01*
X210277Y182805D02*X212202D01*
X211817Y184730D02*Y181650D01*
X221260Y174020D02*Y172500D01*
Y174020D02*X221640Y174400D01*
X222400D01*
X222780Y174020D02*X222400Y174400D01*
X222780Y174020D02*Y172880D01*
X221260D02*X224300D01*
X222780Y173488D02*X224300Y174400D01*
X221868Y175312D02*X221260Y175920D01*
X224300D01*
Y176452D02*Y175312D01*
X221640Y177364D02*X221260Y177744D01*
Y178884D02*Y177744D01*
Y178884D02*X221640Y179264D01*
X222400D01*
X224300Y177364D02*X222400Y179264D01*
X224300D02*Y177364D01*
X215270Y176040D02*Y174500D01*
Y176040D02*X215655Y176425D01*
X216425D01*
X216810Y176040D02*X216425Y176425D01*
X216810Y176040D02*Y174885D01*
X215270D02*X218350D01*
X216810Y175501D02*X218350Y176425D01*
X215270Y178889D02*Y177349D01*
X216810D01*
X216425Y177734D01*
Y178504D02*Y177734D01*
Y178504D02*X216810Y178889D01*
X217965D01*
X218350Y178504D02*X217965Y178889D01*
X218350Y178504D02*Y177734D01*
X217965Y177349D02*X218350Y177734D01*
X217965Y179813D02*X218350Y180198D01*
X215655Y179813D02*X217965D01*
X215655D02*X215270Y180198D01*
Y180968D02*Y180198D01*
Y180968D02*X215655Y181353D01*
X217965D01*
X218350Y180968D02*X217965Y181353D01*
X218350Y180968D02*Y180198D01*
X217580Y179813D02*X216040Y181353D01*
X215655Y182277D02*X215270Y182662D01*
Y183817D02*Y182662D01*
Y183817D02*X215655Y184202D01*
X216425D01*
X218350Y182277D02*X216425Y184202D01*
X218350D02*Y182277D01*
X237000Y188000D02*Y184500D01*
X237500Y184000D01*
X238500D01*
X239000Y184500D01*
Y188000D02*Y184500D01*
X240200Y187500D02*X240700Y188000D01*
X242200D01*
X242700Y187500D01*
Y186500D01*
X240200Y184000D02*X242700Y186500D01*
X240200Y184000D02*X242700D01*
X243900Y188000D02*X245900D01*
X243900D02*Y186000D01*
X244400Y186500D01*
X245400D01*
X245900Y186000D01*
Y184500D01*
X245400Y184000D02*X245900Y184500D01*
X244400Y184000D02*X245400D01*
X243900Y184500D02*X244400Y184000D01*
X247100Y187200D02*X247900Y188000D01*
Y184000D01*
X247100D02*X248600D01*
X248350Y163540D02*Y162539D01*
X247811Y162000D02*X248350Y162539D01*
X245809Y162000D02*X247811D01*
X245809D02*X245270Y162539D01*
Y163540D02*Y162539D01*
X245655Y164464D02*X245270Y164849D01*
Y166004D02*Y164849D01*
Y166004D02*X245655Y166389D01*
X246425D01*
X248350Y164464D02*X246425Y166389D01*
X248350D02*Y164464D01*
X245270Y168853D02*Y167313D01*
X246810D01*
X246425Y167698D01*
Y168468D02*Y167698D01*
Y168468D02*X246810Y168853D01*
X247965D01*
X248350Y168468D02*X247965Y168853D01*
X248350Y168468D02*Y167698D01*
X247965Y167313D02*X248350Y167698D01*
X247195Y169777D02*X245270Y171317D01*
X247195Y171702D02*Y169777D01*
X245270Y171317D02*X248350D01*
X254039Y161650D02*X255040D01*
X253500Y162189D02*X254039Y161650D01*
X253500Y164191D02*Y162189D01*
Y164191D02*X254039Y164730D01*
X255040D01*
X255964Y164345D02*X256349Y164730D01*
X257504D01*
X257889Y164345D01*
Y163575D01*
X255964Y161650D02*X257889Y163575D01*
X255964Y161650D02*X257889D01*
X258813Y164730D02*X260353D01*
X258813D02*Y163190D01*
X259198Y163575D01*
X259968D01*
X260353Y163190D01*
Y162035D01*
X259968Y161650D02*X260353Y162035D01*
X259198Y161650D02*X259968D01*
X258813Y162035D02*X259198Y161650D01*
X261277Y164345D02*X261662Y164730D01*
X262432D01*
X262817Y164345D01*
X262432Y161650D02*X262817Y162035D01*
X261662Y161650D02*X262432D01*
X261277Y162035D02*X261662Y161650D01*
Y163344D02*X262432D01*
X262817Y164345D02*Y163729D01*
Y162959D02*Y162035D01*
Y162959D02*X262432Y163344D01*
X262817Y163729D02*X262432Y163344D01*
X223770Y128540D02*Y127000D01*
Y128540D02*X224155Y128925D01*
X224925D01*
X225310Y128540D02*X224925Y128925D01*
X225310Y128540D02*Y127385D01*
X223770D02*X226850D01*
X225310Y128001D02*X226850Y128925D01*
X224386Y129849D02*X223770Y130465D01*
X226850D01*
Y131004D02*Y129849D01*
X225695Y131928D02*X223770Y133468D01*
X225695Y133853D02*Y131928D01*
X223770Y133468D02*X226850D01*
X226000Y124500D02*Y120500D01*
X227300Y124500D02*X228000Y123800D01*
Y121200D01*
X227300Y120500D02*X228000Y121200D01*
X225500Y120500D02*X227300D01*
X225500Y124500D02*X227300D01*
X229200Y124000D02*X229700Y124500D01*
X231200D01*
X231700Y124000D01*
Y123000D01*
X229200Y120500D02*X231700Y123000D01*
X229200Y120500D02*X231700D01*
X235539Y97150D02*X236540D01*
X235000Y97689D02*X235539Y97150D01*
X235000Y99691D02*Y97689D01*
Y99691D02*X235539Y100230D01*
X236540D01*
X237849Y97150D02*X239389Y100230D01*
X237464D02*X239389D01*
X254700Y99000D02*X256000D01*
X254000Y99700D02*X254700Y99000D01*
X254000Y102300D02*Y99700D01*
Y102300D02*X254700Y103000D01*
X256000D01*
X257700Y99000D02*X259200Y101000D01*
Y102500D02*Y101000D01*
X258700Y103000D02*X259200Y102500D01*
X257700Y103000D02*X258700D01*
X257200Y102500D02*X257700Y103000D01*
X257200Y102500D02*Y101500D01*
X257700Y101000D01*
X259200D01*
X208500Y117730D02*X210040D01*
X210425Y117345D01*
Y116575D01*
X210040Y116190D02*X210425Y116575D01*
X208885Y116190D02*X210040D01*
X208885Y117730D02*Y114650D01*
X209501Y116190D02*X210425Y114650D01*
X211349Y117345D02*X211734Y117730D01*
X212889D01*
X213274Y117345D01*
Y116575D01*
X211349Y114650D02*X213274Y116575D01*
X211349Y114650D02*X213274D01*
X214583D02*X216123Y117730D01*
X214198D02*X216123D01*
X217432Y114650D02*X218972Y117730D01*
X217047D02*X218972D01*
X211885Y102730D02*Y99650D01*
X212886Y102730D02*X213425Y102191D01*
Y100189D01*
X212886Y99650D02*X213425Y100189D01*
X211500Y99650D02*X212886D01*
X211500Y102730D02*X212886D01*
X214349Y100805D02*X215889Y102730D01*
X214349Y100805D02*X216274D01*
X215889Y102730D02*Y99650D01*
X217198Y100035D02*X217583Y99650D01*
X217198Y102345D02*Y100035D01*
Y102345D02*X217583Y102730D01*
X218353D01*
X218738Y102345D01*
Y100035D01*
X218353Y99650D02*X218738Y100035D01*
X217583Y99650D02*X218353D01*
X217198Y100420D02*X218738Y101960D01*
X219662Y100805D02*X221202Y102730D01*
X219662Y100805D02*X221587D01*
X221202Y102730D02*Y99650D01*
X225000Y117230D02*X226540D01*
X226925Y116845D01*
Y116075D01*
X226540Y115690D02*X226925Y116075D01*
X225385Y115690D02*X226540D01*
X225385Y117230D02*Y114150D01*
X226001Y115690D02*X226925Y114150D01*
X227849Y116614D02*X228465Y117230D01*
Y114150D01*
X227849D02*X229004D01*
X229928Y116614D02*X230544Y117230D01*
Y114150D01*
X229928D02*X231083D01*
X180525Y97250D02*X181500D01*
X180000Y97775D02*X180525Y97250D01*
X180000Y99725D02*Y97775D01*
Y99725D02*X180525Y100250D01*
X181500D01*
X182775Y97250D02*X184275Y100250D01*
X182400D02*X184275D01*
X185175Y97625D02*X185550Y97250D01*
X185175Y99875D02*Y97625D01*
Y99875D02*X185550Y100250D01*
X186300D01*
X186675Y99875D01*
Y97625D01*
X186300Y97250D02*X186675Y97625D01*
X185550Y97250D02*X186300D01*
X185175Y98000D02*X186675Y99500D01*
X188700Y100250D02*X189075Y99875D01*
X187950Y100250D02*X188700D01*
X187575Y99875D02*X187950Y100250D01*
X187575Y99875D02*Y97625D01*
X187950Y97250D01*
X188700Y98900D02*X189075Y98525D01*
X187575Y98900D02*X188700D01*
X187950Y97250D02*X188700D01*
X189075Y97625D01*
Y98525D02*Y97625D01*
X148000Y105230D02*Y102535D01*
X148385Y102150D01*
X149155D01*
X149540Y102535D01*
Y105230D02*Y102535D01*
X150464Y104845D02*X150849Y105230D01*
X151619D01*
X152004Y104845D01*
X151619Y102150D02*X152004Y102535D01*
X150849Y102150D02*X151619D01*
X150464Y102535D02*X150849Y102150D01*
Y103844D02*X151619D01*
X152004Y104845D02*Y104229D01*
Y103459D02*Y102535D01*
Y103459D02*X151619Y103844D01*
X152004Y104229D02*X151619Y103844D01*
X152928Y102535D02*X153313Y102150D01*
X152928Y104845D02*Y102535D01*
Y104845D02*X153313Y105230D01*
X154083D01*
X154468Y104845D01*
Y102535D01*
X154083Y102150D02*X154468Y102535D01*
X153313Y102150D02*X154083D01*
X152928Y102920D02*X154468Y104460D01*
X155392Y104845D02*X155777Y105230D01*
X156932D01*
X157317Y104845D01*
Y104075D01*
X155392Y102150D02*X157317Y104075D01*
X155392Y102150D02*X157317D01*
X172871Y98850D02*X173560D01*
X172500Y99221D02*X172871Y98850D01*
X172500Y100599D02*Y99221D01*
Y100599D02*X172871Y100970D01*
X173560D01*
X174196Y100705D02*X174461Y100970D01*
X175256D01*
X175521Y100705D01*
Y100175D01*
X174196Y98850D02*X175521Y100175D01*
X174196Y98850D02*X175521D01*
X176422D02*X177482Y100970D01*
X176157D02*X177482D01*
X178118Y99115D02*X178383Y98850D01*
X178118Y99539D02*Y99115D01*
Y99539D02*X178489Y99910D01*
X178807D01*
X179178Y99539D01*
Y99115D01*
X178913Y98850D02*X179178Y99115D01*
X178383Y98850D02*X178913D01*
X178118Y100281D02*X178489Y99910D01*
X178118Y100705D02*Y100281D01*
Y100705D02*X178383Y100970D01*
X178913D01*
X179178Y100705D01*
Y100281D01*
X178807Y99910D02*X179178Y100281D01*
X165260Y104520D02*Y103000D01*
Y104520D02*X165640Y104900D01*
X166400D01*
X166780Y104520D02*X166400Y104900D01*
X166780Y104520D02*Y103380D01*
X165260D02*X168300D01*
X166780Y103988D02*X168300Y104900D01*
X165640Y105812D02*X165260Y106192D01*
Y107332D02*Y106192D01*
Y107332D02*X165640Y107712D01*
X166400D01*
X168300Y105812D02*X166400Y107712D01*
X168300D02*Y105812D01*
Y109004D02*X165260Y110524D01*
Y108624D01*
X167920Y111436D02*X168300Y111816D01*
X167312Y111436D02*X167920D01*
X167312D02*X166780Y111968D01*
Y112424D02*Y111968D01*
Y112424D02*X167312Y112956D01*
X167920D01*
X168300Y112576D02*X167920Y112956D01*
X168300Y112576D02*Y111816D01*
X166248Y111436D02*X166780Y111968D01*
X165640Y111436D02*X166248D01*
X165640D02*X165260Y111816D01*
Y112576D02*Y111816D01*
Y112576D02*X165640Y112956D01*
X166248D01*
X166780Y112424D02*X166248Y112956D01*
X163850Y103040D02*Y102039D01*
X163311Y101500D02*X163850Y102039D01*
X161309Y101500D02*X163311D01*
X161309D02*X160770Y102039D01*
Y103040D02*Y102039D01*
X161155Y103964D02*X160770Y104349D01*
Y105119D02*Y104349D01*
Y105119D02*X161155Y105504D01*
X163850Y105119D02*X163465Y105504D01*
X163850Y105119D02*Y104349D01*
X163465Y103964D02*X163850Y104349D01*
X162156Y105119D02*Y104349D01*
X161155Y105504D02*X161771D01*
X162541D02*X163465D01*
X162541D02*X162156Y105119D01*
X161771Y105504D02*X162156Y105119D01*
X163465Y106428D02*X163850Y106813D01*
X161155Y106428D02*X163465D01*
X161155D02*X160770Y106813D01*
Y107583D02*Y106813D01*
Y107583D02*X161155Y107968D01*
X163465D01*
X163850Y107583D02*X163465Y107968D01*
X163850Y107583D02*Y106813D01*
X163080Y106428D02*X161540Y107968D01*
X163465Y108892D02*X163850Y109277D01*
X162849Y108892D02*X163465D01*
X162849D02*X162310Y109431D01*
Y109893D02*Y109431D01*
Y109893D02*X162849Y110432D01*
X163465D01*
X163850Y110047D02*X163465Y110432D01*
X163850Y110047D02*Y109277D01*
X161771Y108892D02*X162310Y109431D01*
X161155Y108892D02*X161771D01*
X161155D02*X160770Y109277D01*
Y110047D02*Y109277D01*
Y110047D02*X161155Y110432D01*
X161771D01*
X162310Y109893D02*X161771Y110432D01*
X138539Y117150D02*X139540D01*
X138000Y117689D02*X138539Y117150D01*
X138000Y119691D02*Y117689D01*
Y119691D02*X138539Y120230D01*
X139540D01*
X140464Y119845D02*X140849Y120230D01*
X141619D01*
X142004Y119845D01*
X141619Y117150D02*X142004Y117535D01*
X140849Y117150D02*X141619D01*
X140464Y117535D02*X140849Y117150D01*
Y118844D02*X141619D01*
X142004Y119845D02*Y119229D01*
Y118459D02*Y117535D01*
Y118459D02*X141619Y118844D01*
X142004Y119229D02*X141619Y118844D01*
X142928Y117535D02*X143313Y117150D01*
X142928Y119845D02*Y117535D01*
Y119845D02*X143313Y120230D01*
X144083D01*
X144468Y119845D01*
Y117535D01*
X144083Y117150D02*X144468Y117535D01*
X143313Y117150D02*X144083D01*
X142928Y117920D02*X144468Y119460D01*
X145392Y119614D02*X146008Y120230D01*
Y117150D01*
X145392D02*X146547D01*
X127770Y111040D02*Y109500D01*
Y111040D02*X128155Y111425D01*
X128925D01*
X129310Y111040D02*X128925Y111425D01*
X129310Y111040D02*Y109885D01*
X127770D02*X130850D01*
X129310Y110501D02*X130850Y111425D01*
X128155Y112349D02*X127770Y112734D01*
Y113504D02*Y112734D01*
Y113504D02*X128155Y113889D01*
X130850Y113504D02*X130465Y113889D01*
X130850Y113504D02*Y112734D01*
X130465Y112349D02*X130850Y112734D01*
X129156Y113504D02*Y112734D01*
X128155Y113889D02*X128771D01*
X129541D02*X130465D01*
X129541D02*X129156Y113504D01*
X128771Y113889D02*X129156Y113504D01*
X128386Y114813D02*X127770Y115429D01*
X130850D01*
Y115968D02*Y114813D01*
X127770Y118432D02*Y116892D01*
X129310D01*
X128925Y117277D01*
Y118047D02*Y117277D01*
Y118047D02*X129310Y118432D01*
X130465D01*
X130850Y118047D02*X130465Y118432D01*
X130850Y118047D02*Y117277D01*
X130465Y116892D02*X130850Y117277D01*
X122770Y119540D02*Y118000D01*
Y119540D02*X123155Y119925D01*
X123925D01*
X124310Y119540D02*X123925Y119925D01*
X124310Y119540D02*Y118385D01*
X122770D02*X125850D01*
X124310Y119001D02*X125850Y119925D01*
X123155Y120849D02*X122770Y121234D01*
Y122004D02*Y121234D01*
Y122004D02*X123155Y122389D01*
X125850Y122004D02*X125465Y122389D01*
X125850Y122004D02*Y121234D01*
X125465Y120849D02*X125850Y121234D01*
X124156Y122004D02*Y121234D01*
X123155Y122389D02*X123771D01*
X124541D02*X125465D01*
X124541D02*X124156Y122004D01*
X123771Y122389D02*X124156Y122004D01*
X122770Y124853D02*Y123313D01*
X124310D01*
X123925Y123698D01*
Y124468D02*Y123698D01*
Y124468D02*X124310Y124853D01*
X125465D01*
X125850Y124468D02*X125465Y124853D01*
X125850Y124468D02*Y123698D01*
X125465Y123313D02*X125850Y123698D01*
X125465Y125777D02*X125850Y126162D01*
X123155Y125777D02*X125465D01*
X123155D02*X122770Y126162D01*
Y126932D02*Y126162D01*
Y126932D02*X123155Y127317D01*
X125465D01*
X125850Y126932D02*X125465Y127317D01*
X125850Y126932D02*Y126162D01*
X125080Y125777D02*X123540Y127317D01*
X132039Y106650D02*X133040D01*
X131500Y107189D02*X132039Y106650D01*
X131500Y109191D02*Y107189D01*
Y109191D02*X132039Y109730D01*
X133040D01*
X133964Y109345D02*X134349Y109730D01*
X135119D01*
X135504Y109345D01*
X135119Y106650D02*X135504Y107035D01*
X134349Y106650D02*X135119D01*
X133964Y107035D02*X134349Y106650D01*
Y108344D02*X135119D01*
X135504Y109345D02*Y108729D01*
Y107959D02*Y107035D01*
Y107959D02*X135119Y108344D01*
X135504Y108729D02*X135119Y108344D01*
X136428Y107035D02*X136813Y106650D01*
X136428Y109345D02*Y107035D01*
Y109345D02*X136813Y109730D01*
X137583D01*
X137968Y109345D01*
Y107035D01*
X137583Y106650D02*X137968Y107035D01*
X136813Y106650D02*X137583D01*
X136428Y107420D02*X137968Y108960D01*
X139277Y106650D02*X140817Y109730D01*
X138892D02*X140817D01*
X149350Y137040D02*Y136039D01*
X148811Y135500D02*X149350Y136039D01*
X146809Y135500D02*X148811D01*
X146809D02*X146270Y136039D01*
Y137040D02*Y136039D01*
X146655Y137964D02*X148965D01*
X146655D02*X146270Y138349D01*
Y139119D02*Y138349D01*
Y139119D02*X146655Y139504D01*
X148965D01*
X149350Y139119D02*X148965Y139504D01*
X149350Y139119D02*Y138349D01*
X148965Y137964D02*X149350Y138349D01*
X146270Y140428D02*X149350D01*
X146270D02*X149350Y142353D01*
X146270D02*X149350D01*
X146270Y143277D02*X149350D01*
X146270D02*X149350Y145202D01*
X146270D02*X149350D01*
X146655Y146126D02*X146270Y146511D01*
Y147281D02*Y146511D01*
Y147281D02*X146655Y147666D01*
X149350Y147281D02*X148965Y147666D01*
X149350Y147281D02*Y146511D01*
X148965Y146126D02*X149350Y146511D01*
X147656Y147281D02*Y146511D01*
X146655Y147666D02*X147271D01*
X148041D02*X148965D01*
X148041D02*X147656Y147281D01*
X147271Y147666D02*X147656Y147281D01*
X148965Y148590D02*X149350Y148975D01*
X146655Y148590D02*X148965D01*
X146655D02*X146270Y148975D01*
Y149745D02*Y148975D01*
Y149745D02*X146655Y150130D01*
X148965D01*
X149350Y149745D02*X148965Y150130D01*
X149350Y149745D02*Y148975D01*
X148580Y148590D02*X147040Y150130D01*
X146655Y151054D02*X146270Y151439D01*
Y152209D02*Y151439D01*
Y152209D02*X146655Y152594D01*
X149350Y152209D02*X148965Y152594D01*
X149350Y152209D02*Y151439D01*
X148965Y151054D02*X149350Y151439D01*
X147656Y152209D02*Y151439D01*
X146655Y152594D02*X147271D01*
X148041D02*X148965D01*
X148041D02*X147656Y152209D01*
X147271Y152594D02*X147656Y152209D01*
X196500Y106960D02*X197580D01*
X197850Y106690D01*
Y106150D01*
X197580Y105880D02*X197850Y106150D01*
X196770Y105880D02*X197580D01*
X196770Y106960D02*Y104800D01*
X197202Y105880D02*X197850Y104800D01*
X198498Y105610D02*X199578Y106960D01*
X198498Y105610D02*X199848D01*
X199578Y106960D02*Y104800D01*
X200496Y106690D02*X200766Y106960D01*
X201576D01*
X201846Y106690D01*
Y106150D01*
X200496Y104800D02*X201846Y106150D01*
X200496Y104800D02*X201846D01*
X202494Y106690D02*X202764Y106960D01*
X203304D01*
X203574Y106690D01*
X203304Y104800D02*X203574Y105070D01*
X202764Y104800D02*X203304D01*
X202494Y105070D02*X202764Y104800D01*
Y105988D02*X203304D01*
X203574Y106690D02*Y106258D01*
Y105718D02*Y105070D01*
Y105718D02*X203304Y105988D01*
X203574Y106258D02*X203304Y105988D01*
X194850Y104540D02*Y103539D01*
X194311Y103000D02*X194850Y103539D01*
X192309Y103000D02*X194311D01*
X192309D02*X191770Y103539D01*
Y104540D02*Y103539D01*
X192155Y105464D02*X191770Y105849D01*
Y106619D02*Y105849D01*
Y106619D02*X192155Y107004D01*
X194850Y106619D02*X194465Y107004D01*
X194850Y106619D02*Y105849D01*
X194465Y105464D02*X194850Y105849D01*
X193156Y106619D02*Y105849D01*
X192155Y107004D02*X192771D01*
X193541D02*X194465D01*
X193541D02*X193156Y106619D01*
X192771Y107004D02*X193156Y106619D01*
X192386Y107928D02*X191770Y108544D01*
X194850D01*
Y109083D02*Y107928D01*
X192155Y110007D02*X191770Y110392D01*
Y111162D02*Y110392D01*
Y111162D02*X192155Y111547D01*
X194850Y111162D02*X194465Y111547D01*
X194850Y111162D02*Y110392D01*
X194465Y110007D02*X194850Y110392D01*
X193156Y111162D02*Y110392D01*
X192155Y111547D02*X192771D01*
X193541D02*X194465D01*
X193541D02*X193156Y111162D01*
X192771Y111547D02*X193156Y111162D01*
X203270Y109500D02*X205965D01*
X206350Y109885D01*
Y110655D02*Y109885D01*
Y110655D02*X205965Y111040D01*
X203270D02*X205965D01*
X203655Y111964D02*X203270Y112349D01*
Y113119D02*Y112349D01*
Y113119D02*X203655Y113504D01*
X206350Y113119D02*X205965Y113504D01*
X206350Y113119D02*Y112349D01*
X205965Y111964D02*X206350Y112349D01*
X204656Y113119D02*Y112349D01*
X203655Y113504D02*X204271D01*
X205041D02*X205965D01*
X205041D02*X204656Y113119D01*
X204271Y113504D02*X204656Y113119D01*
X205965Y114428D02*X206350Y114813D01*
X203655Y114428D02*X205965D01*
X203655D02*X203270Y114813D01*
Y115583D02*Y114813D01*
Y115583D02*X203655Y115968D01*
X205965D01*
X206350Y115583D02*X205965Y115968D01*
X206350Y115583D02*Y114813D01*
X205580Y114428D02*X204040Y115968D01*
X203886Y116892D02*X203270Y117508D01*
X206350D01*
Y118047D02*Y116892D01*
X277030Y143060D02*Y142000D01*
Y143060D02*X277295Y143325D01*
X277825D01*
X278090Y143060D02*X277825Y143325D01*
X278090Y143060D02*Y142265D01*
X277030D02*X279150D01*
X278090Y142689D02*X279150Y143325D01*
X277454Y143961D02*X277030Y144385D01*
X279150D01*
Y144756D02*Y143961D01*
X277295Y145392D02*X277030Y145657D01*
Y146187D02*Y145657D01*
Y146187D02*X277295Y146452D01*
X279150Y146187D02*X278885Y146452D01*
X279150Y146187D02*Y145657D01*
X278885Y145392D02*X279150Y145657D01*
X277984Y146187D02*Y145657D01*
X277295Y146452D02*X277719D01*
X278249D02*X278885D01*
X278249D02*X277984Y146187D01*
X277719Y146452D02*X277984Y146187D01*
X213378Y135300D02*X214080D01*
X213000Y135678D02*X213378Y135300D01*
X213000Y137082D02*Y135678D01*
Y137082D02*X213378Y137460D01*
X214080D01*
X214728Y137190D02*X214998Y137460D01*
X215808D01*
X216078Y137190D01*
Y136650D01*
X214728Y135300D02*X216078Y136650D01*
X214728Y135300D02*X216078D01*
X216996D02*X218076Y137460D01*
X216726D02*X218076D01*
X218994Y135300D02*X220074Y137460D01*
X218724D02*X220074D01*
X234039Y147150D02*X235040D01*
X233500Y147689D02*X234039Y147150D01*
X233500Y149691D02*Y147689D01*
Y149691D02*X234039Y150230D01*
X235040D01*
X235964Y149845D02*Y147535D01*
Y149845D02*X236349Y150230D01*
X237119D01*
X237504Y149845D01*
Y147535D01*
X237119Y147150D02*X237504Y147535D01*
X236349Y147150D02*X237119D01*
X235964Y147535D02*X236349Y147150D01*
X238428Y150230D02*Y147150D01*
Y150230D02*X240353Y147150D01*
Y150230D02*Y147150D01*
X241277Y150230D02*Y147150D01*
Y150230D02*X243202Y147150D01*
Y150230D02*Y147150D01*
X245281Y150230D02*X245666Y149845D01*
X244511Y150230D02*X245281D01*
X244126Y149845D02*X244511Y150230D01*
X244126Y149845D02*Y147535D01*
X244511Y147150D01*
X245281Y148844D02*X245666Y148459D01*
X244126Y148844D02*X245281D01*
X244511Y147150D02*X245281D01*
X245666Y147535D01*
Y148459D02*Y147535D01*
X246590Y149614D02*X247206Y150230D01*
Y147150D01*
X246590D02*X247745D01*
X248669Y148305D02*X250209Y150230D01*
X248669Y148305D02*X250594D01*
X250209Y150230D02*Y147150D01*
X237500Y145230D02*X239040D01*
X239425Y144845D01*
Y144075D01*
X239040Y143690D02*X239425Y144075D01*
X237885Y143690D02*X239040D01*
X237885Y145230D02*Y142150D01*
X238501Y143690D02*X239425Y142150D01*
X240349Y144614D02*X240965Y145230D01*
Y142150D01*
X240349D02*X241504D01*
X223270Y139040D02*Y137500D01*
Y139040D02*X223655Y139425D01*
X224425D01*
X224810Y139040D02*X224425Y139425D01*
X224810Y139040D02*Y137885D01*
X223270D02*X226350D01*
X224810Y138501D02*X226350Y139425D01*
X223655Y140349D02*X223270Y140734D01*
Y141889D02*Y140734D01*
Y141889D02*X223655Y142274D01*
X224425D01*
X226350Y140349D02*X224425Y142274D01*
X226350D02*Y140349D01*
X223270Y144353D02*X223655Y144738D01*
X223270Y144353D02*Y143583D01*
X223655Y143198D02*X223270Y143583D01*
X223655Y143198D02*X225965D01*
X226350Y143583D01*
X224656Y144353D02*X225041Y144738D01*
X224656Y144353D02*Y143198D01*
X226350Y144353D02*Y143583D01*
Y144353D02*X225965Y144738D01*
X225041D02*X225965D01*
X223270Y147202D02*Y145662D01*
X224810D01*
X224425Y146047D01*
Y146817D02*Y146047D01*
Y146817D02*X224810Y147202D01*
X225965D01*
X226350Y146817D02*X225965Y147202D01*
X226350Y146817D02*Y146047D01*
X225965Y145662D02*X226350Y146047D01*
X157500Y188730D02*X159040D01*
X159425Y188345D01*
Y187575D01*
X159040Y187190D02*X159425Y187575D01*
X157885Y187190D02*X159040D01*
X157885Y188730D02*Y185650D01*
X158501Y187190D02*X159425Y185650D01*
X160349Y188730D02*X161889D01*
X160349D02*Y187190D01*
X160734Y187575D01*
X161504D01*
X161889Y187190D01*
Y186035D01*
X161504Y185650D02*X161889Y186035D01*
X160734Y185650D02*X161504D01*
X160349Y186035D02*X160734Y185650D01*
X162813Y186035D02*X163198Y185650D01*
X162813Y188345D02*Y186035D01*
Y188345D02*X163198Y188730D01*
X163968D01*
X164353Y188345D01*
Y186035D01*
X163968Y185650D02*X164353Y186035D01*
X163198Y185650D02*X163968D01*
X162813Y186420D02*X164353Y187960D01*
X165277Y188345D02*X165662Y188730D01*
X166432D01*
X166817Y188345D01*
X166432Y185650D02*X166817Y186035D01*
X165662Y185650D02*X166432D01*
X165277Y186035D02*X165662Y185650D01*
Y187344D02*X166432D01*
X166817Y188345D02*Y187729D01*
Y186959D02*Y186035D01*
Y186959D02*X166432Y187344D01*
X166817Y187729D02*X166432Y187344D01*
X146539Y187150D02*X147540D01*
X146000Y187689D02*X146539Y187150D01*
X146000Y189691D02*Y187689D01*
Y189691D02*X146539Y190230D01*
X147540D01*
X148464D02*X150004D01*
X148464D02*Y188690D01*
X148849Y189075D01*
X149619D01*
X150004Y188690D01*
Y187535D01*
X149619Y187150D02*X150004Y187535D01*
X148849Y187150D02*X149619D01*
X148464Y187535D02*X148849Y187150D01*
X150928Y187535D02*X151313Y187150D01*
X150928Y189845D02*Y187535D01*
Y189845D02*X151313Y190230D01*
X152083D01*
X152468Y189845D01*
Y187535D01*
X152083Y187150D02*X152468Y187535D01*
X151313Y187150D02*X152083D01*
X150928Y187920D02*X152468Y189460D01*
X153392Y187535D02*X153777Y187150D01*
X153392Y189845D02*Y187535D01*
Y189845D02*X153777Y190230D01*
X154547D01*
X154932Y189845D01*
Y187535D01*
X154547Y187150D02*X154932Y187535D01*
X153777Y187150D02*X154547D01*
X153392Y187920D02*X154932Y189460D01*
X145039Y172150D02*X146040D01*
X144500Y172689D02*X145039Y172150D01*
X144500Y174691D02*Y172689D01*
Y174691D02*X145039Y175230D01*
X146040D01*
X146964Y174845D02*X147349Y175230D01*
X148119D01*
X148504Y174845D01*
X148119Y172150D02*X148504Y172535D01*
X147349Y172150D02*X148119D01*
X146964Y172535D02*X147349Y172150D01*
Y173844D02*X148119D01*
X148504Y174845D02*Y174229D01*
Y173459D02*Y172535D01*
Y173459D02*X148119Y173844D01*
X148504Y174229D02*X148119Y173844D01*
X149428Y172535D02*X149813Y172150D01*
X149428Y174845D02*Y172535D01*
Y174845D02*X149813Y175230D01*
X150583D01*
X150968Y174845D01*
Y172535D01*
X150583Y172150D02*X150968Y172535D01*
X149813Y172150D02*X150583D01*
X149428Y172920D02*X150968Y174460D01*
X151892Y173305D02*X153432Y175230D01*
X151892Y173305D02*X153817D01*
X153432Y175230D02*Y172150D01*
X181770Y155540D02*Y154000D01*
Y155540D02*X182155Y155925D01*
X182925D01*
X183310Y155540D02*X182925Y155925D01*
X183310Y155540D02*Y154385D01*
X181770D02*X184850D01*
X183310Y155001D02*X184850Y155925D01*
X181770Y158389D02*Y156849D01*
X183310D01*
X182925Y157234D01*
Y158004D02*Y157234D01*
Y158004D02*X183310Y158389D01*
X184465D01*
X184850Y158004D02*X184465Y158389D01*
X184850Y158004D02*Y157234D01*
X184465Y156849D02*X184850Y157234D01*
X184465Y159313D02*X184850Y159698D01*
X182155Y159313D02*X184465D01*
X182155D02*X181770Y159698D01*
Y160468D02*Y159698D01*
Y160468D02*X182155Y160853D01*
X184465D01*
X184850Y160468D02*X184465Y160853D01*
X184850Y160468D02*Y159698D01*
X184080Y159313D02*X182540Y160853D01*
X183695Y161777D02*X181770Y163317D01*
X183695Y163702D02*Y161777D01*
X181770Y163317D02*X184850D01*
X162260Y172500D02*X165300D01*
Y174020D02*Y172500D01*
X162640Y174932D02*X162260Y175312D01*
Y176072D02*Y175312D01*
Y176072D02*X162640Y176452D01*
X165300Y176072D02*X164920Y176452D01*
X165300Y176072D02*Y175312D01*
X164920Y174932D02*X165300Y175312D01*
X163628Y176072D02*Y175312D01*
X162640Y176452D02*X163248D01*
X164008D02*X164920D01*
X164008D02*X163628Y176072D01*
X163248Y176452D02*X163628Y176072D01*
X164920Y177364D02*X165300Y177744D01*
X162640Y177364D02*X164920D01*
X162640D02*X162260Y177744D01*
Y178504D02*Y177744D01*
Y178504D02*X162640Y178884D01*
X164920D01*
X165300Y178504D02*X164920Y178884D01*
X165300Y178504D02*Y177744D01*
X164540Y177364D02*X163020Y178884D01*
X162868Y179796D02*X162260Y180404D01*
X165300D01*
Y180936D02*Y179796D01*
X152539Y181650D02*X153540D01*
X152000Y182189D02*X152539Y181650D01*
X152000Y184191D02*Y182189D01*
Y184191D02*X152539Y184730D01*
X153540D01*
X154464Y184345D02*X154849Y184730D01*
X155619D01*
X156004Y184345D01*
X155619Y181650D02*X156004Y182035D01*
X154849Y181650D02*X155619D01*
X154464Y182035D02*X154849Y181650D01*
Y183344D02*X155619D01*
X156004Y184345D02*Y183729D01*
Y182959D02*Y182035D01*
Y182959D02*X155619Y183344D01*
X156004Y183729D02*X155619Y183344D01*
X156928Y182035D02*X157313Y181650D01*
X156928Y184345D02*Y182035D01*
Y184345D02*X157313Y184730D01*
X158083D01*
X158468Y184345D01*
Y182035D01*
X158083Y181650D02*X158468Y182035D01*
X157313Y181650D02*X158083D01*
X156928Y182420D02*X158468Y183960D01*
X159392Y184730D02*X160932D01*
X159392D02*Y183190D01*
X159777Y183575D01*
X160547D01*
X160932Y183190D01*
Y182035D01*
X160547Y181650D02*X160932Y182035D01*
X159777Y181650D02*X160547D01*
X159392Y182035D02*X159777Y181650D01*
X124770Y165540D02*Y164000D01*
Y165540D02*X125155Y165925D01*
X125925D01*
X126310Y165540D02*X125925Y165925D01*
X126310Y165540D02*Y164385D01*
X124770D02*X127850D01*
X126310Y165001D02*X127850Y165925D01*
X125155Y166849D02*X124770Y167234D01*
Y168389D02*Y167234D01*
Y168389D02*X125155Y168774D01*
X125925D01*
X127850Y166849D02*X125925Y168774D01*
X127850D02*Y166849D01*
Y170083D02*X124770Y171623D01*
Y169698D01*
X126695Y172547D02*X124770Y174087D01*
X126695Y174472D02*Y172547D01*
X124770Y174087D02*X127850D01*
X152850Y154040D02*Y153039D01*
X152311Y152500D02*X152850Y153039D01*
X150309Y152500D02*X152311D01*
X150309D02*X149770Y153039D01*
Y154040D02*Y153039D01*
X150155Y154964D02*X149770Y155349D01*
Y156119D02*Y155349D01*
Y156119D02*X150155Y156504D01*
X152850Y156119D02*X152465Y156504D01*
X152850Y156119D02*Y155349D01*
X152465Y154964D02*X152850Y155349D01*
X151156Y156119D02*Y155349D01*
X150155Y156504D02*X150771D01*
X151541D02*X152465D01*
X151541D02*X151156Y156119D01*
X150771Y156504D02*X151156Y156119D01*
X150386Y157428D02*X149770Y158044D01*
X152850D01*
Y158583D02*Y157428D01*
X151695Y159507D02*X149770Y161047D01*
X151695Y161432D02*Y159507D01*
X149770Y161047D02*X152850D01*
X137040Y168080D02*Y167000D01*
Y168080D02*X137310Y168350D01*
X137850D01*
X138120Y168080D02*X137850Y168350D01*
X138120Y168080D02*Y167270D01*
X137040D02*X139200D01*
X138120Y167702D02*X139200Y168350D01*
X137310Y168998D02*X137040Y169268D01*
Y170078D02*Y169268D01*
Y170078D02*X137310Y170348D01*
X137850D01*
X139200Y168998D02*X137850Y170348D01*
X139200D02*Y168998D01*
Y171266D02*X137040Y172346D01*
Y170996D01*
X139200Y173264D02*X138120Y174074D01*
X137310D02*X138120D01*
X137040Y173804D02*X137310Y174074D01*
X137040Y173804D02*Y173264D01*
X137310Y172994D02*X137040Y173264D01*
X137310Y172994D02*X137850D01*
X138120Y173264D01*
Y174074D02*Y173264D01*
X132878Y160800D02*X133580D01*
X132500Y161178D02*X132878Y160800D01*
X132500Y162582D02*Y161178D01*
Y162582D02*X132878Y162960D01*
X133580D01*
X134228Y162690D02*X134498Y162960D01*
X135308D01*
X135578Y162690D01*
Y162150D01*
X134228Y160800D02*X135578Y162150D01*
X134228Y160800D02*X135578D01*
X136496D02*X137576Y162960D01*
X136226D02*X137576D01*
X138494Y160800D02*X139304Y161880D01*
Y162690D02*Y161880D01*
X139034Y162960D02*X139304Y162690D01*
X138494Y162960D02*X139034D01*
X138224Y162690D02*X138494Y162960D01*
X138224Y162690D02*Y162150D01*
X138494Y161880D01*
X139304D01*
X127039Y182150D02*X128040D01*
X126500Y182689D02*X127039Y182150D01*
X126500Y184691D02*Y182689D01*
Y184691D02*X127039Y185230D01*
X128040D01*
X128964Y184845D02*X129349Y185230D01*
X130119D01*
X130504Y184845D01*
X130119Y182150D02*X130504Y182535D01*
X129349Y182150D02*X130119D01*
X128964Y182535D02*X129349Y182150D01*
Y183844D02*X130119D01*
X130504Y184845D02*Y184229D01*
Y183459D02*Y182535D01*
Y183459D02*X130119Y183844D01*
X130504Y184229D02*X130119Y183844D01*
X131428Y182535D02*X131813Y182150D01*
X131428Y184845D02*Y182535D01*
Y184845D02*X131813Y185230D01*
X132583D01*
X132968Y184845D01*
Y182535D01*
X132583Y182150D02*X132968Y182535D01*
X131813Y182150D02*X132583D01*
X131428Y182920D02*X132968Y184460D01*
X134277Y182150D02*X135432Y183690D01*
Y184845D02*Y183690D01*
X135047Y185230D02*X135432Y184845D01*
X134277Y185230D02*X135047D01*
X133892Y184845D02*X134277Y185230D01*
X133892Y184845D02*Y184075D01*
X134277Y183690D01*
X135432D01*
X127039Y176650D02*X128040D01*
X126500Y177189D02*X127039Y176650D01*
X126500Y179191D02*Y177189D01*
Y179191D02*X127039Y179730D01*
X128040D01*
X128964Y179345D02*X129349Y179730D01*
X130119D01*
X130504Y179345D01*
X130119Y176650D02*X130504Y177035D01*
X129349Y176650D02*X130119D01*
X128964Y177035D02*X129349Y176650D01*
Y178344D02*X130119D01*
X130504Y179345D02*Y178729D01*
Y177959D02*Y177035D01*
Y177959D02*X130119Y178344D01*
X130504Y178729D02*X130119Y178344D01*
X131428Y179114D02*X132044Y179730D01*
Y176650D01*
X131428D02*X132583D01*
X133507Y177035D02*X133892Y176650D01*
X133507Y179345D02*Y177035D01*
Y179345D02*X133892Y179730D01*
X134662D01*
X135047Y179345D01*
Y177035D01*
X134662Y176650D02*X135047Y177035D01*
X133892Y176650D02*X134662D01*
X133507Y177420D02*X135047Y178960D01*
X329039Y55650D02*X330040D01*
X328500Y56189D02*X329039Y55650D01*
X328500Y58191D02*Y56189D01*
Y58191D02*X329039Y58730D01*
X330040D01*
X330964Y58345D02*Y56035D01*
Y58345D02*X331349Y58730D01*
X332119D01*
X332504Y58345D01*
Y56035D01*
X332119Y55650D02*X332504Y56035D01*
X331349Y55650D02*X332119D01*
X330964Y56035D02*X331349Y55650D01*
X333428Y58730D02*Y55650D01*
Y58730D02*X335353Y55650D01*
Y58730D02*Y55650D01*
X336277Y58730D02*Y55650D01*
Y58730D02*X338202Y55650D01*
Y58730D02*Y55650D01*
X340281Y58730D02*X340666Y58345D01*
X339511Y58730D02*X340281D01*
X339126Y58345D02*X339511Y58730D01*
X339126Y58345D02*Y56035D01*
X339511Y55650D01*
X340281Y57344D02*X340666Y56959D01*
X339126Y57344D02*X340281D01*
X339511Y55650D02*X340281D01*
X340666Y56035D01*
Y56959D02*Y56035D01*
X341590Y58345D02*X341975Y58730D01*
X343130D01*
X343515Y58345D01*
Y57575D01*
X341590Y55650D02*X343515Y57575D01*
X341590Y55650D02*X343515D01*
X344439Y56035D02*X344824Y55650D01*
X344439Y58345D02*Y56035D01*
Y58345D02*X344824Y58730D01*
X345594D01*
X345979Y58345D01*
Y56035D01*
X345594Y55650D02*X345979Y56035D01*
X344824Y55650D02*X345594D01*
X344439Y56420D02*X345979Y57960D01*
X229039Y55650D02*X230040D01*
X228500Y56189D02*X229039Y55650D01*
X228500Y58191D02*Y56189D01*
Y58191D02*X229039Y58730D01*
X230040D01*
X230964Y58345D02*Y56035D01*
Y58345D02*X231349Y58730D01*
X232119D01*
X232504Y58345D01*
Y56035D01*
X232119Y55650D02*X232504Y56035D01*
X231349Y55650D02*X232119D01*
X230964Y56035D02*X231349Y55650D01*
X233428Y58730D02*Y55650D01*
Y58730D02*X235353Y55650D01*
Y58730D02*Y55650D01*
X236277Y58730D02*Y55650D01*
Y58730D02*X238202Y55650D01*
Y58730D02*Y55650D01*
X240281Y58730D02*X240666Y58345D01*
X239511Y58730D02*X240281D01*
X239126Y58345D02*X239511Y58730D01*
X239126Y58345D02*Y56035D01*
X239511Y55650D01*
X240281Y57344D02*X240666Y56959D01*
X239126Y57344D02*X240281D01*
X239511Y55650D02*X240281D01*
X240666Y56035D01*
Y56959D02*Y56035D01*
X241590Y58114D02*X242206Y58730D01*
Y55650D01*
X241590D02*X242745D01*
X244054D02*X245594Y58730D01*
X243669D02*X245594D01*
X274039Y55150D02*X275040D01*
X273500Y55689D02*X274039Y55150D01*
X273500Y57691D02*Y55689D01*
Y57691D02*X274039Y58230D01*
X275040D01*
X275964Y57845D02*Y55535D01*
Y57845D02*X276349Y58230D01*
X277119D01*
X277504Y57845D01*
Y55535D01*
X277119Y55150D02*X277504Y55535D01*
X276349Y55150D02*X277119D01*
X275964Y55535D02*X276349Y55150D01*
X278428Y58230D02*Y55150D01*
Y58230D02*X280353Y55150D01*
Y58230D02*Y55150D01*
X281277Y58230D02*Y55150D01*
Y58230D02*X283202Y55150D01*
Y58230D02*Y55150D01*
X285281Y58230D02*X285666Y57845D01*
X284511Y58230D02*X285281D01*
X284126Y57845D02*X284511Y58230D01*
X284126Y57845D02*Y55535D01*
X284511Y55150D01*
X285281Y56844D02*X285666Y56459D01*
X284126Y56844D02*X285281D01*
X284511Y55150D02*X285281D01*
X285666Y55535D01*
Y56459D02*Y55535D01*
X286590Y57614D02*X287206Y58230D01*
Y55150D01*
X286590D02*X287745D01*
X289054D02*X290209Y56690D01*
Y57845D02*Y56690D01*
X289824Y58230D02*X290209Y57845D01*
X289054Y58230D02*X289824D01*
X288669Y57845D02*X289054Y58230D01*
X288669Y57845D02*Y57075D01*
X289054Y56690D01*
X290209D01*
X290500Y61730D02*X292040D01*
X292425Y61345D01*
Y60575D01*
X292040Y60190D02*X292425Y60575D01*
X290885Y60190D02*X292040D01*
X290885Y61730D02*Y58650D01*
X291501Y60190D02*X292425Y58650D01*
X293349Y61114D02*X293965Y61730D01*
Y58650D01*
X293349D02*X294504D01*
X295428Y59035D02*X295813Y58650D01*
X295428Y61345D02*Y59035D01*
Y61345D02*X295813Y61730D01*
X296583D01*
X296968Y61345D01*
Y59035D01*
X296583Y58650D02*X296968Y59035D01*
X295813Y58650D02*X296583D01*
X295428Y59420D02*X296968Y60960D01*
X297892Y59035D02*X298277Y58650D01*
X297892Y61345D02*Y59035D01*
Y61345D02*X298277Y61730D01*
X299047D01*
X299432Y61345D01*
Y59035D01*
X299047Y58650D02*X299432Y59035D01*
X298277Y58650D02*X299047D01*
X297892Y59420D02*X299432Y60960D01*
X234760Y75520D02*Y74000D01*
Y75520D02*X235140Y75900D01*
X235900D01*
X236280Y75520D02*X235900Y75900D01*
X236280Y75520D02*Y74380D01*
X234760D02*X237800D01*
X236280Y74988D02*X237800Y75900D01*
X234760Y77952D02*X235140Y78332D01*
X234760Y77952D02*Y77192D01*
X235140Y76812D02*X234760Y77192D01*
X235140Y76812D02*X237420D01*
X237800Y77192D01*
X236128Y77952D02*X236508Y78332D01*
X236128Y77952D02*Y76812D01*
X237800Y77952D02*Y77192D01*
Y77952D02*X237420Y78332D01*
X236508D02*X237420D01*
Y79244D02*X237800Y79624D01*
X235140Y79244D02*X237420D01*
X235140D02*X234760Y79624D01*
Y80384D02*Y79624D01*
Y80384D02*X235140Y80764D01*
X237420D01*
X237800Y80384D02*X237420Y80764D01*
X237800Y80384D02*Y79624D01*
X237040Y79244D02*X235520Y80764D01*
X237800Y82056D02*X236280Y83196D01*
X235140D02*X236280D01*
X234760Y82816D02*X235140Y83196D01*
X234760Y82816D02*Y82056D01*
X235140Y81676D02*X234760Y82056D01*
X235140Y81676D02*X235900D01*
X236280Y82056D01*
Y83196D02*Y82056D01*
X263500Y73730D02*X265040D01*
X265425Y73345D01*
Y72575D01*
X265040Y72190D02*X265425Y72575D01*
X263885Y72190D02*X265040D01*
X263885Y73730D02*Y70650D01*
X264501Y72190D02*X265425Y70650D01*
X266349Y73345D02*X266734Y73730D01*
X267889D01*
X268274Y73345D01*
Y72575D01*
X266349Y70650D02*X268274Y72575D01*
X266349Y70650D02*X268274D01*
X260000Y64730D02*X261540D01*
X261925Y64345D01*
Y63575D01*
X261540Y63190D02*X261925Y63575D01*
X260385Y63190D02*X261540D01*
X260385Y64730D02*Y61650D01*
X261001Y63190D02*X261925Y61650D01*
X264004Y64730D02*X264389Y64345D01*
X263234Y64730D02*X264004D01*
X262849Y64345D02*X263234Y64730D01*
X262849Y64345D02*Y62035D01*
X263234Y61650D01*
X264004Y63344D02*X264389Y62959D01*
X262849Y63344D02*X264004D01*
X263234Y61650D02*X264004D01*
X264389Y62035D01*
Y62959D02*Y62035D01*
X265313D02*X265698Y61650D01*
X265313Y64345D02*Y62035D01*
Y64345D02*X265698Y64730D01*
X266468D01*
X266853Y64345D01*
Y62035D01*
X266468Y61650D02*X266853Y62035D01*
X265698Y61650D02*X266468D01*
X265313Y62420D02*X266853Y63960D01*
X268162Y61650D02*X269702Y64730D01*
X267777D02*X269702D01*
X344350Y76040D02*Y75039D01*
X343811Y74500D02*X344350Y75039D01*
X341809Y74500D02*X343811D01*
X341809D02*X341270Y75039D01*
Y76040D02*Y75039D01*
X341655Y76964D02*X343965D01*
X341655D02*X341270Y77349D01*
Y78119D02*Y77349D01*
Y78119D02*X341655Y78504D01*
X343965D01*
X344350Y78119D02*X343965Y78504D01*
X344350Y78119D02*Y77349D01*
X343965Y76964D02*X344350Y77349D01*
X341270Y79428D02*X344350D01*
X341270D02*X344350Y81353D01*
X341270D02*X344350D01*
X341270Y82277D02*X344350D01*
X341270D02*X344350Y84202D01*
X341270D02*X344350D01*
X341270Y86281D02*X341655Y86666D01*
X341270Y86281D02*Y85511D01*
X341655Y85126D02*X341270Y85511D01*
X341655Y85126D02*X343965D01*
X344350Y85511D01*
X342656Y86281D02*X343041Y86666D01*
X342656Y86281D02*Y85126D01*
X344350Y86281D02*Y85511D01*
Y86281D02*X343965Y86666D01*
X343041D02*X343965D01*
Y87590D02*X344350Y87975D01*
X341655Y87590D02*X343965D01*
X341655D02*X341270Y87975D01*
Y88745D02*Y87975D01*
Y88745D02*X341655Y89130D01*
X343965D01*
X344350Y88745D02*X343965Y89130D01*
X344350Y88745D02*Y87975D01*
X343580Y87590D02*X342040Y89130D01*
X343965Y90054D02*X344350Y90439D01*
X343349Y90054D02*X343965D01*
X343349D02*X342810Y90593D01*
Y91055D02*Y90593D01*
Y91055D02*X343349Y91594D01*
X343965D01*
X344350Y91209D02*X343965Y91594D01*
X344350Y91209D02*Y90439D01*
X342271Y90054D02*X342810Y90593D01*
X341655Y90054D02*X342271D01*
X341655D02*X341270Y90439D01*
Y91209D02*Y90439D01*
Y91209D02*X341655Y91594D01*
X342271D01*
X342810Y91055D02*X342271Y91594D01*
X341200Y93500D02*X342500D01*
X340500Y94200D02*X341200Y93500D01*
X340500Y96800D02*Y94200D01*
Y96800D02*X341200Y97500D01*
X342500D01*
X343700D02*X345700D01*
X343700D02*Y95500D01*
X344200Y96000D01*
X345200D01*
X345700Y95500D01*
Y94000D01*
X345200Y93500D02*X345700Y94000D01*
X344200Y93500D02*X345200D01*
X343700Y94000D02*X344200Y93500D01*
X347400D02*X348900Y95500D01*
Y97000D02*Y95500D01*
X348400Y97500D02*X348900Y97000D01*
X347400Y97500D02*X348400D01*
X346900Y97000D02*X347400Y97500D01*
X346900Y97000D02*Y96000D01*
X347400Y95500D01*
X348900D01*
X360700Y99000D02*X362000D01*
X360000Y99700D02*X360700Y99000D01*
X360000Y102300D02*Y99700D01*
Y102300D02*X360700Y103000D01*
X362000D01*
X364700D02*X365200Y102500D01*
X363700Y103000D02*X364700D01*
X363200Y102500D02*X363700Y103000D01*
X363200Y102500D02*Y99500D01*
X363700Y99000D01*
X364700Y101200D02*X365200Y100700D01*
X363200Y101200D02*X364700D01*
X363700Y99000D02*X364700D01*
X365200Y99500D01*
Y100700D02*Y99500D01*
X366400D02*X366900Y99000D01*
X366400Y102500D02*Y99500D01*
Y102500D02*X366900Y103000D01*
X367900D01*
X368400Y102500D01*
Y99500D01*
X367900Y99000D02*X368400Y99500D01*
X366900Y99000D02*X367900D01*
X366400Y100000D02*X368400Y102000D01*
X345270Y146040D02*Y144500D01*
Y146040D02*X345655Y146425D01*
X346425D01*
X346810Y146040D02*X346425Y146425D01*
X346810Y146040D02*Y144885D01*
X345270D02*X348350D01*
X346810Y145501D02*X348350Y146425D01*
X345655Y147349D02*X345270Y147734D01*
Y148504D02*Y147734D01*
Y148504D02*X345655Y148889D01*
X348350Y148504D02*X347965Y148889D01*
X348350Y148504D02*Y147734D01*
X347965Y147349D02*X348350Y147734D01*
X346656Y148504D02*Y147734D01*
X345655Y148889D02*X346271D01*
X347041D02*X347965D01*
X347041D02*X346656Y148504D01*
X346271Y148889D02*X346656Y148504D01*
X345655Y149813D02*X345270Y150198D01*
Y151353D02*Y150198D01*
Y151353D02*X345655Y151738D01*
X346425D01*
X348350Y149813D02*X346425Y151738D01*
X348350D02*Y149813D01*
X334500Y151730D02*X336040D01*
X336425Y151345D01*
Y150575D01*
X336040Y150190D02*X336425Y150575D01*
X334885Y150190D02*X336040D01*
X334885Y151730D02*Y148650D01*
X335501Y150190D02*X336425Y148650D01*
X337349Y151345D02*X337734Y151730D01*
X338889D01*
X339274Y151345D01*
Y150575D01*
X337349Y148650D02*X339274Y150575D01*
X337349Y148650D02*X339274D01*
X340198Y151114D02*X340814Y151730D01*
Y148650D01*
X340198D02*X341353D01*
X343000Y70500D02*X345000D01*
X345500Y70000D01*
Y69000D01*
X345000Y68500D02*X345500Y69000D01*
X343500Y68500D02*X345000D01*
X343500Y70500D02*Y66500D01*
X344300Y68500D02*X345500Y66500D01*
X348200Y70500D02*X348700Y70000D01*
X347200Y70500D02*X348200D01*
X346700Y70000D02*X347200Y70500D01*
X346700Y70000D02*Y67000D01*
X347200Y66500D01*
X348200Y68700D02*X348700Y68200D01*
X346700Y68700D02*X348200D01*
X347200Y66500D02*X348200D01*
X348700Y67000D01*
Y68200D02*Y67000D01*
X349900D02*X350400Y66500D01*
X349900Y70000D02*Y67000D01*
Y70000D02*X350400Y70500D01*
X351400D01*
X351900Y70000D01*
Y67000D01*
X351400Y66500D02*X351900Y67000D01*
X350400Y66500D02*X351400D01*
X349900Y67500D02*X351900Y69500D01*
X354600Y70500D02*X355100Y70000D01*
X353600Y70500D02*X354600D01*
X353100Y70000D02*X353600Y70500D01*
X353100Y70000D02*Y67000D01*
X353600Y66500D01*
X354600Y68700D02*X355100Y68200D01*
X353100Y68700D02*X354600D01*
X353600Y66500D02*X354600D01*
X355100Y67000D01*
Y68200D02*Y67000D01*
X356000Y76000D02*X358000D01*
X358500Y75500D01*
Y74500D01*
X358000Y74000D02*X358500Y74500D01*
X356500Y74000D02*X358000D01*
X356500Y76000D02*Y72000D01*
X357300Y74000D02*X358500Y72000D01*
X359700Y73500D02*X361700Y76000D01*
X359700Y73500D02*X362200D01*
X361700Y76000D02*Y72000D01*
X363400Y75200D02*X364200Y76000D01*
Y72000D01*
X363400D02*X364900D01*
X369385Y72230D02*Y69150D01*
X370386Y72230D02*X370925Y71691D01*
Y69689D01*
X370386Y69150D02*X370925Y69689D01*
X369000Y69150D02*X370386D01*
X369000Y72230D02*X370386D01*
X371849Y71614D02*X372465Y72230D01*
Y69150D01*
X371849D02*X373004D01*
X373928Y72230D02*X375468D01*
X373928D02*Y70690D01*
X374313Y71075D01*
X375083D01*
X375468Y70690D01*
Y69535D01*
X375083Y69150D02*X375468Y69535D01*
X374313Y69150D02*X375083D01*
X373928Y69535D02*X374313Y69150D01*
X313039Y63650D02*X314040D01*
X312500Y64189D02*X313039Y63650D01*
X312500Y66191D02*Y64189D01*
Y66191D02*X313039Y66730D01*
X314040D01*
X314964Y66114D02*X315580Y66730D01*
Y63650D01*
X314964D02*X316119D01*
X317043Y64035D02*X317428Y63650D01*
X317043Y66345D02*Y64035D01*
Y66345D02*X317428Y66730D01*
X318198D01*
X318583Y66345D01*
Y64035D01*
X318198Y63650D02*X318583Y64035D01*
X317428Y63650D02*X318198D01*
X317043Y64420D02*X318583Y65960D01*
X319507Y66730D02*X321047D01*
X319507D02*Y65190D01*
X319892Y65575D01*
X320662D01*
X321047Y65190D01*
Y64035D01*
X320662Y63650D02*X321047Y64035D01*
X319892Y63650D02*X320662D01*
X319507Y64035D02*X319892Y63650D01*
X321000Y75730D02*X322540D01*
X322925Y75345D01*
Y74575D01*
X322540Y74190D02*X322925Y74575D01*
X321385Y74190D02*X322540D01*
X321385Y75730D02*Y72650D01*
X322001Y74190D02*X322925Y72650D01*
X325004Y75730D02*X325389Y75345D01*
X324234Y75730D02*X325004D01*
X323849Y75345D02*X324234Y75730D01*
X323849Y75345D02*Y73035D01*
X324234Y72650D01*
X325004Y74344D02*X325389Y73959D01*
X323849Y74344D02*X325004D01*
X324234Y72650D02*X325004D01*
X325389Y73035D01*
Y73959D02*Y73035D01*
X326313D02*X326698Y72650D01*
X326313Y75345D02*Y73035D01*
Y75345D02*X326698Y75730D01*
X327468D01*
X327853Y75345D01*
Y73035D01*
X327468Y72650D02*X327853Y73035D01*
X326698Y72650D02*X327468D01*
X326313Y73420D02*X327853Y74960D01*
X328777Y75730D02*X330317D01*
X328777D02*Y74190D01*
X329162Y74575D01*
X329932D01*
X330317Y74190D01*
Y73035D01*
X329932Y72650D02*X330317Y73035D01*
X329162Y72650D02*X329932D01*
X328777Y73035D02*X329162Y72650D01*
X298770Y75540D02*Y74000D01*
Y75540D02*X299155Y75925D01*
X299925D01*
X300310Y75540D02*X299925Y75925D01*
X300310Y75540D02*Y74385D01*
X298770D02*X301850D01*
X300310Y75001D02*X301850Y75925D01*
X299386Y76849D02*X298770Y77465D01*
X301850D01*
Y78004D02*Y76849D01*
X301465Y78928D02*X301850Y79313D01*
X299155Y78928D02*X301465D01*
X299155D02*X298770Y79313D01*
Y80083D02*Y79313D01*
Y80083D02*X299155Y80468D01*
X301465D01*
X301850Y80083D02*X301465Y80468D01*
X301850Y80083D02*Y79313D01*
X301080Y78928D02*X299540Y80468D01*
X299386Y81392D02*X298770Y82008D01*
X301850D01*
Y82547D02*Y81392D01*
X227200Y90000D02*X228500D01*
X226500Y90700D02*X227200Y90000D01*
X226500Y93300D02*Y90700D01*
Y93300D02*X227200Y94000D01*
X228500D01*
X229700Y93500D02*Y90500D01*
Y93500D02*X230200Y94000D01*
X231200D01*
X231700Y93500D01*
Y90500D01*
X231200Y90000D02*X231700Y90500D01*
X230200Y90000D02*X231200D01*
X229700Y90500D02*X230200Y90000D01*
X232900Y94000D02*Y90000D01*
Y94000D02*X235400Y90000D01*
Y94000D02*Y90000D01*
X236600Y94000D02*Y90000D01*
Y94000D02*X239100Y90000D01*
Y94000D02*Y90000D01*
X241800Y94000D02*X242300Y93500D01*
X240800Y94000D02*X241800D01*
X240300Y93500D02*X240800Y94000D01*
X240300Y93500D02*Y90500D01*
X240800Y90000D01*
X241800Y92200D02*X242300Y91700D01*
X240300Y92200D02*X241800D01*
X240800Y90000D02*X241800D01*
X242300Y90500D01*
Y91700D02*Y90500D01*
X243500Y93200D02*X244300Y94000D01*
Y90000D01*
X243500D02*X245000D01*
X246200Y94000D02*X248200D01*
X246200D02*Y92000D01*
X246700Y92500D01*
X247700D01*
X248200Y92000D01*
Y90500D01*
X247700Y90000D02*X248200Y90500D01*
X246700Y90000D02*X247700D01*
X246200Y90500D02*X246700Y90000D01*
X376539Y88650D02*X377540D01*
X376000Y89189D02*X376539Y88650D01*
X376000Y91191D02*Y89189D01*
Y91191D02*X376539Y91730D01*
X377540D01*
X378464D02*X380004D01*
X378464D02*Y90190D01*
X378849Y90575D01*
X379619D01*
X380004Y90190D01*
Y89035D01*
X379619Y88650D02*X380004Y89035D01*
X378849Y88650D02*X379619D01*
X378464Y89035D02*X378849Y88650D01*
X380928Y89035D02*X381313Y88650D01*
X380928Y91345D02*Y89035D01*
Y91345D02*X381313Y91730D01*
X382083D01*
X382468Y91345D01*
Y89035D01*
X382083Y88650D02*X382468Y89035D01*
X381313Y88650D02*X382083D01*
X380928Y89420D02*X382468Y90960D01*
X383777Y88650D02*X385317Y91730D01*
X383392D02*X385317D01*
X358500Y90730D02*X360040D01*
X360425Y90345D01*
Y89575D01*
X360040Y89190D02*X360425Y89575D01*
X358885Y89190D02*X360040D01*
X358885Y90730D02*Y87650D01*
X359501Y89190D02*X360425Y87650D01*
X361349Y88805D02*X362889Y90730D01*
X361349Y88805D02*X363274D01*
X362889Y90730D02*Y87650D01*
X364198Y88035D02*X364583Y87650D01*
X364198Y90345D02*Y88035D01*
Y90345D02*X364583Y90730D01*
X365353D01*
X365738Y90345D01*
Y88035D01*
X365353Y87650D02*X365738Y88035D01*
X364583Y87650D02*X365353D01*
X364198Y88420D02*X365738Y89960D01*
X285200Y90000D02*X286500D01*
X284500Y90700D02*X285200Y90000D01*
X284500Y93300D02*Y90700D01*
Y93300D02*X285200Y94000D01*
X286500D01*
X287700Y93500D02*Y90500D01*
Y93500D02*X288200Y94000D01*
X289200D01*
X289700Y93500D01*
Y90500D01*
X289200Y90000D02*X289700Y90500D01*
X288200Y90000D02*X289200D01*
X287700Y90500D02*X288200Y90000D01*
X290900Y94000D02*Y90000D01*
Y94000D02*X293400Y90000D01*
Y94000D02*Y90000D01*
X294600Y94000D02*Y90000D01*
Y94000D02*X297100Y90000D01*
Y94000D02*Y90000D01*
X299800Y94000D02*X300300Y93500D01*
X298800Y94000D02*X299800D01*
X298300Y93500D02*X298800Y94000D01*
X298300Y93500D02*Y90500D01*
X298800Y90000D01*
X299800Y92200D02*X300300Y91700D01*
X298300Y92200D02*X299800D01*
X298800Y90000D02*X299800D01*
X300300Y90500D01*
Y91700D02*Y90500D01*
X301500Y93200D02*X302300Y94000D01*
Y90000D01*
X301500D02*X303000D01*
X305700Y94000D02*X306200Y93500D01*
X304700Y94000D02*X305700D01*
X304200Y93500D02*X304700Y94000D01*
X304200Y93500D02*Y90500D01*
X304700Y90000D01*
X305700Y92200D02*X306200Y91700D01*
X304200Y92200D02*X305700D01*
X304700Y90000D02*X305700D01*
X306200Y90500D01*
Y91700D02*Y90500D01*
X280500Y76230D02*X282040D01*
X282425Y75845D01*
Y75075D01*
X282040Y74690D02*X282425Y75075D01*
X280885Y74690D02*X282040D01*
X280885Y76230D02*Y73150D01*
X281501Y74690D02*X282425Y73150D01*
X283349Y75614D02*X283965Y76230D01*
Y73150D01*
X283349D02*X284504D01*
X285428Y76230D02*X286968D01*
X285428D02*Y74690D01*
X285813Y75075D01*
X286583D01*
X286968Y74690D01*
Y73535D01*
X286583Y73150D02*X286968Y73535D01*
X285813Y73150D02*X286583D01*
X285428Y73535D02*X285813Y73150D01*
X274000Y90000D02*Y86000D01*
X275300Y90000D02*X276000Y89300D01*
Y86700D01*
X275300Y86000D02*X276000Y86700D01*
X273500Y86000D02*X275300D01*
X273500Y90000D02*X275300D01*
X277200Y89500D02*X277700Y90000D01*
X278700D01*
X279200Y89500D01*
X278700Y86000D02*X279200Y86500D01*
X277700Y86000D02*X278700D01*
X277200Y86500D02*X277700Y86000D01*
Y88200D02*X278700D01*
X279200Y89500D02*Y88700D01*
Y87700D02*Y86500D01*
Y87700D02*X278700Y88200D01*
X279200Y88700D02*X278700Y88200D01*
M02*
