G75*
G70*
%OFA0B0*%
%FSLAX24Y24*%
%IPPOS*%
%LPD*%
%AMOC8*
5,1,8,0,0,1.08239X$1,22.5*
%
%ADD10R,0.0178X0.0474*%
%ADD11R,0.0710X0.1143*%
%ADD12R,0.0513X0.0474*%
%ADD13R,0.0356X0.0434*%
%ADD14R,0.0434X0.0356*%
%ADD15R,0.0592X0.0671*%
%ADD16R,0.0710X0.0867*%
%ADD17R,0.1021X0.3820*%
%ADD18R,0.3509X0.1017*%
%ADD19R,0.2533X0.2734*%
%ADD20R,0.0978X0.0719*%
%ADD21R,0.0395X0.0214*%
%ADD22R,0.0592X0.0214*%
%ADD23R,0.0753X0.0982*%
%ADD24R,0.0907X0.0907*%
%ADD25R,0.0438X0.0560*%
%ADD26R,0.0552X0.0552*%
%ADD27R,0.0710X0.0790*%
%ADD28R,0.0790X0.0710*%
%ADD29C,0.0674*%
%ADD30C,0.0820*%
D10*
X010775Y005770D03*
X010971Y005770D03*
X011168Y005770D03*
X011365Y005770D03*
X011562Y005770D03*
X011562Y007434D03*
X011365Y007434D03*
X011168Y007434D03*
X010971Y007434D03*
X010775Y007434D03*
D11*
X012536Y010637D03*
X013639Y010637D03*
X013639Y011917D03*
X012536Y011917D03*
X012536Y013197D03*
X013639Y013197D03*
X013639Y014476D03*
X012536Y014476D03*
X005076Y008866D03*
X003973Y008866D03*
X003973Y007586D03*
X005076Y007586D03*
X005076Y006307D03*
X003973Y006307D03*
D12*
X008767Y006700D03*
X009436Y006700D03*
X009436Y005864D03*
X008767Y005864D03*
D13*
X006680Y005224D03*
X007192Y005224D03*
X007192Y005716D03*
X006680Y005716D03*
X008156Y005224D03*
X008668Y005224D03*
X008845Y007340D03*
X009357Y007340D03*
X009436Y008718D03*
X009948Y008718D03*
X012192Y007389D03*
X012192Y006897D03*
X012704Y006897D03*
X012704Y007389D03*
X012782Y005765D03*
X013294Y005765D03*
D14*
X012153Y005756D03*
X012153Y006267D03*
X010036Y006641D03*
X010036Y007153D03*
D15*
X009485Y008078D03*
X008816Y008078D03*
D16*
X008895Y009850D03*
X009997Y009850D03*
D17*
X011099Y012852D03*
X008481Y012852D03*
D18*
X016729Y011061D03*
X016729Y008443D03*
D19*
X018042Y013393D03*
D20*
X015229Y012496D03*
X015229Y014291D03*
D21*
X010725Y010234D03*
X010725Y009978D03*
X010725Y009722D03*
X010725Y009466D03*
D22*
X011808Y009466D03*
X011808Y009722D03*
X011808Y009978D03*
X011808Y010234D03*
D23*
X011471Y009850D03*
D24*
X005967Y011065D03*
X005967Y013065D03*
X025769Y013606D03*
X025769Y011606D03*
X025769Y008783D03*
X025769Y006783D03*
D25*
X005168Y005323D03*
X003881Y005323D03*
D26*
X007162Y007193D03*
X007989Y007193D03*
X022025Y006651D03*
X022851Y006651D03*
D27*
X007988Y006504D03*
X006868Y006504D03*
D28*
X023619Y006621D03*
X023619Y005501D03*
D29*
X021060Y007931D03*
X021060Y009899D03*
X022543Y012304D03*
X021151Y013696D03*
D30*
X018995Y006751D03*
X017995Y006751D03*
X017995Y005751D03*
X018995Y005751D03*
X019995Y005751D03*
X020995Y005751D03*
X021995Y005751D03*
X016995Y005751D03*
X016995Y006751D03*
M02*
