%
M48
M72
T01C0.0236
T02C0.0354
T03C0.0400
T04C0.0551
%
T01
X4377Y5323
X5903Y6454
X6542Y7389
X5903Y8078
X7133Y8964
X7822Y8275
X8560Y8915
X7969Y10047
X7576Y11819
X7625Y12950
X7625Y14033
X7625Y14771
X6493Y14771
X6493Y14082
X4967Y14082
X4967Y14771
X3737Y14673
X3688Y13246
X3688Y12212
X4820Y12163
X5903Y9309
X10233Y11031
X10233Y11622
X10233Y12212
X10233Y12852
X10233Y13492
X10233Y14082
X10233Y14722
X11365Y10637
X11906Y10637
X12399Y9801
X12940Y9801
X14466Y7488
X15499Y7488
X15499Y6750
X15253Y5962
X14219Y6405
X13481Y7045
X12694Y6356
X11660Y6405
X10971Y6356
X10381Y5618
X7674Y5815
X7674Y5273
X6198Y5273
X14121Y5519
X17221Y7439
X18550Y7488
X20174Y6750
X21158Y6553
X21651Y7488
X22487Y7439
X21897Y8275
X22536Y9604
X23225Y10342
X24702Y11425
X22733Y11720
X21011Y11671
X20519Y12311
X20716Y12852
X19288Y11720
X19534Y11130
X18944Y9752
X19288Y8817
X23717Y7488
X24702Y7193
X25538Y7734
X24554Y6208
X24997Y5667
X27359Y7537
X28097Y8817
X26523Y9604
X27556Y11769
X26916Y13836
X24751Y14132
X23668Y14181
X21847Y14624
X20469Y14132
X16483Y14328
X16483Y13787
X16483Y13197
X16483Y12655
T02
X21060Y9899
X21060Y7931
X22543Y12304
X21151Y13696
T03
X18995Y6751
X17995Y6751
X17995Y5751
X18995Y5751
X19995Y5751
X20995Y5751
X21995Y5751
X16995Y5751
X16995Y6751
T04
X25769Y6783
X25769Y8783
X25769Y11606
X25769Y13606
X5967Y13065
X5967Y11065
M30
