G75*
G70*
%OFA0B0*%
%FSLAX24Y24*%
%IPPOS*%
%LPD*%
%AMOC8*
5,1,8,0,0,1.08239X$1,22.5*
%
%ADD10R,0.0827X0.0827*%
%ADD11C,0.0594*%
%ADD12C,0.0740*%
%ADD13C,0.0100*%
%ADD14C,0.0436*%
%ADD15C,0.0400*%
%ADD16C,0.0240*%
D10*
X005967Y011065D03*
X005967Y013065D03*
X025769Y013606D03*
X025769Y011606D03*
X025769Y008783D03*
X025769Y006783D03*
D11*
X021060Y007931D03*
X021060Y009899D03*
X022543Y012304D03*
X021151Y013696D03*
D12*
X018995Y006751D03*
X017995Y006751D03*
X017995Y005751D03*
X018995Y005751D03*
X019995Y005751D03*
X020995Y005751D03*
X021995Y005751D03*
X016995Y005751D03*
X016995Y006751D03*
D13*
X003395Y005079D02*
X003395Y011523D01*
X006936Y011523D01*
X007920Y010539D01*
X010578Y010539D01*
X010725Y010391D01*
X010725Y009407D01*
X014219Y009407D01*
X015204Y010391D01*
X018796Y010391D01*
X020125Y009063D01*
X021946Y009063D01*
X021946Y012754D01*
X022487Y013295D01*
X024800Y013295D01*
X025145Y012950D01*
X027767Y012950D01*
X027767Y009113D01*
X026312Y009113D01*
X026312Y009250D01*
X026236Y009327D01*
X025301Y009327D01*
X025225Y009250D01*
X025225Y008316D01*
X025301Y008240D01*
X026236Y008240D01*
X026312Y008316D01*
X026312Y008453D01*
X027946Y008453D01*
X027946Y005425D01*
X022376Y005425D01*
X022419Y005468D01*
X022495Y005652D01*
X022495Y005851D01*
X022419Y006035D01*
X022278Y006175D01*
X022094Y006251D01*
X021896Y006251D01*
X021712Y006175D01*
X021571Y006035D01*
X021495Y005851D01*
X021419Y006035D01*
X021278Y006175D01*
X021094Y006251D01*
X020896Y006251D01*
X020712Y006175D01*
X020571Y006035D01*
X020495Y005851D01*
X020495Y005652D01*
X020571Y005468D01*
X020615Y005425D01*
X019376Y005425D01*
X019419Y005468D01*
X019495Y005652D01*
X019495Y005851D01*
X019419Y006035D01*
X019278Y006175D01*
X019094Y006251D01*
X018896Y006251D01*
X018712Y006175D01*
X018571Y006035D01*
X018495Y005851D01*
X018419Y006035D01*
X018278Y006175D01*
X018245Y006189D01*
X018245Y006314D01*
X018278Y006328D01*
X018419Y006468D01*
X018495Y006652D01*
X018495Y006851D01*
X018419Y007035D01*
X018278Y007175D01*
X018094Y007251D01*
X017896Y007251D01*
X017712Y007175D01*
X017571Y007035D01*
X017495Y006851D01*
X017495Y006652D01*
X017571Y006468D01*
X017712Y006328D01*
X017745Y006314D01*
X017745Y006189D01*
X017712Y006175D01*
X017571Y006035D01*
X017495Y005851D01*
X017495Y005652D01*
X017571Y005468D01*
X017712Y005328D01*
X017745Y005314D01*
X017745Y005125D01*
X017764Y005079D01*
X007970Y005079D01*
X007976Y005093D01*
X010111Y005093D01*
X010216Y005199D01*
X010294Y005277D01*
X010312Y005270D01*
X010450Y005270D01*
X010578Y005323D01*
X017723Y005323D01*
X017745Y005224D02*
X010242Y005224D01*
X010143Y005126D02*
X017745Y005126D01*
X017618Y005421D02*
X010676Y005421D01*
X010729Y005549D01*
X010729Y005687D01*
X010676Y005815D01*
X010578Y005913D01*
X010537Y005930D01*
X010800Y005930D01*
X010885Y006015D01*
X010902Y006008D01*
X011041Y006008D01*
X011169Y006061D01*
X011267Y006159D01*
X011320Y006287D01*
X011320Y006425D01*
X011267Y006553D01*
X011169Y006651D01*
X011041Y006704D01*
X010902Y006704D01*
X010774Y006651D01*
X010676Y006553D01*
X010623Y006425D01*
X010623Y006290D01*
X010159Y006290D01*
X010053Y006184D01*
X009617Y005749D01*
X008022Y005749D01*
X008022Y005884D01*
X007969Y006012D01*
X007871Y006110D01*
X007743Y006163D01*
X007605Y006163D01*
X007477Y006110D01*
X007379Y006012D01*
X007326Y005884D01*
X007326Y005745D01*
X007379Y005617D01*
X007453Y005544D01*
X007379Y005470D01*
X007326Y005343D01*
X007326Y005204D01*
X007378Y005079D01*
X006494Y005079D01*
X006546Y005204D01*
X006546Y005343D01*
X006493Y005470D01*
X006395Y005568D01*
X006267Y005621D01*
X006129Y005621D01*
X006001Y005568D01*
X005903Y005470D01*
X005896Y005453D01*
X004700Y005453D01*
X004672Y005520D01*
X005952Y005520D01*
X006121Y005618D02*
X004572Y005618D01*
X004574Y005618D02*
X004446Y005671D01*
X004308Y005671D01*
X004180Y005618D01*
X004082Y005520D01*
X003395Y005520D01*
X003395Y005618D02*
X004181Y005618D01*
X004082Y005520D02*
X004029Y005392D01*
X004029Y005253D01*
X004082Y005125D01*
X004128Y005079D01*
X003395Y005079D01*
X003395Y005126D02*
X004082Y005126D01*
X004041Y005224D02*
X003395Y005224D01*
X003395Y005323D02*
X004029Y005323D01*
X004041Y005421D02*
X003395Y005421D01*
X003395Y005717D02*
X007338Y005717D01*
X007326Y005815D02*
X003395Y005815D01*
X003395Y005914D02*
X007338Y005914D01*
X007380Y006012D02*
X003395Y006012D01*
X003395Y006111D02*
X007480Y006111D01*
X007674Y005815D02*
X007920Y005569D01*
X009692Y005569D01*
X010233Y006110D01*
X010725Y006110D01*
X010971Y006356D01*
X010726Y006603D02*
X003395Y006603D01*
X003395Y006505D02*
X010656Y006505D01*
X010623Y006406D02*
X003395Y006406D01*
X003395Y006308D02*
X010623Y006308D01*
X010882Y006012D02*
X010891Y006012D01*
X011051Y006012D02*
X017562Y006012D01*
X017521Y005914D02*
X010576Y005914D01*
X010676Y005815D02*
X017495Y005815D01*
X017495Y005717D02*
X010717Y005717D01*
X010729Y005618D02*
X017509Y005618D01*
X017550Y005520D02*
X010717Y005520D01*
X010676Y005421D02*
X010578Y005323D01*
X010381Y005618D02*
X010036Y005273D01*
X007674Y005273D01*
X007358Y005126D02*
X006513Y005126D01*
X006546Y005224D02*
X007326Y005224D01*
X007326Y005323D02*
X006546Y005323D01*
X006513Y005421D02*
X007359Y005421D01*
X007428Y005520D02*
X006444Y005520D01*
X006275Y005618D02*
X007379Y005618D01*
X008022Y005815D02*
X009684Y005815D01*
X009783Y005914D02*
X008010Y005914D01*
X007969Y006012D02*
X009881Y006012D01*
X009980Y006111D02*
X007869Y006111D01*
X006198Y005273D02*
X004426Y005273D01*
X004377Y005323D01*
X004672Y005520D02*
X004574Y005618D01*
X003395Y006209D02*
X010078Y006209D01*
X010897Y006702D02*
X003395Y006702D01*
X003395Y006800D02*
X017495Y006800D01*
X017495Y006702D02*
X011046Y006702D01*
X011216Y006603D02*
X017515Y006603D01*
X017556Y006505D02*
X011287Y006505D01*
X011320Y006406D02*
X017633Y006406D01*
X017745Y006308D02*
X011320Y006308D01*
X011287Y006209D02*
X017745Y006209D01*
X017647Y006111D02*
X011219Y006111D01*
X011464Y006405D02*
X011660Y006405D01*
X010725Y009460D02*
X003395Y009460D01*
X003395Y009558D02*
X010725Y009558D01*
X010725Y009657D02*
X003395Y009657D01*
X003395Y009755D02*
X010725Y009755D01*
X010725Y009854D02*
X003395Y009854D01*
X003395Y009952D02*
X010725Y009952D01*
X010725Y010051D02*
X003395Y010051D01*
X003395Y010149D02*
X010725Y010149D01*
X010725Y010248D02*
X003395Y010248D01*
X003395Y010346D02*
X010725Y010346D01*
X010672Y010445D02*
X003395Y010445D01*
X003395Y010543D02*
X007916Y010543D01*
X007817Y010642D02*
X003395Y010642D01*
X003395Y010740D02*
X007719Y010740D01*
X007620Y010839D02*
X003395Y010839D01*
X003395Y010937D02*
X007522Y010937D01*
X007423Y011036D02*
X003395Y011036D01*
X003395Y011134D02*
X007325Y011134D01*
X007226Y011233D02*
X003395Y011233D01*
X003395Y011331D02*
X007128Y011331D01*
X007029Y011430D02*
X003395Y011430D01*
X003395Y011720D02*
X003395Y015015D01*
X009643Y015015D01*
X009643Y010736D01*
X008019Y010736D01*
X007034Y011720D01*
X003395Y011720D01*
X003395Y011725D02*
X009643Y011725D01*
X009643Y011627D02*
X007128Y011627D01*
X007226Y011528D02*
X009643Y011528D01*
X009643Y011430D02*
X007325Y011430D01*
X007423Y011331D02*
X009643Y011331D01*
X009643Y011233D02*
X007522Y011233D01*
X007620Y011134D02*
X009643Y011134D01*
X009643Y011036D02*
X007719Y011036D01*
X007817Y010937D02*
X009643Y010937D01*
X009643Y010839D02*
X007916Y010839D01*
X008014Y010740D02*
X009643Y010740D01*
X009889Y010785D02*
X009889Y015015D01*
X015991Y015015D01*
X015991Y010588D01*
X015105Y010588D01*
X014170Y009653D01*
X011021Y009653D01*
X011021Y010441D01*
X010676Y010785D01*
X009889Y010785D01*
X009889Y010839D02*
X015991Y010839D01*
X015991Y010937D02*
X009889Y010937D01*
X009889Y011036D02*
X015991Y011036D01*
X015991Y011134D02*
X009889Y011134D01*
X009889Y011233D02*
X015991Y011233D01*
X015991Y011331D02*
X009889Y011331D01*
X009889Y011430D02*
X015991Y011430D01*
X015991Y011528D02*
X009889Y011528D01*
X009889Y011627D02*
X015991Y011627D01*
X015991Y011725D02*
X009889Y011725D01*
X009889Y011824D02*
X015991Y011824D01*
X015991Y011922D02*
X009889Y011922D01*
X009889Y012021D02*
X015991Y012021D01*
X015991Y012119D02*
X009889Y012119D01*
X009889Y012218D02*
X015991Y012218D01*
X015991Y012316D02*
X009889Y012316D01*
X009889Y012415D02*
X015991Y012415D01*
X015991Y012513D02*
X009889Y012513D01*
X009889Y012612D02*
X015991Y012612D01*
X015991Y012710D02*
X009889Y012710D01*
X009889Y012809D02*
X015991Y012809D01*
X015991Y012907D02*
X009889Y012907D01*
X009889Y013006D02*
X015991Y013006D01*
X015991Y013104D02*
X009889Y013104D01*
X009889Y013203D02*
X015991Y013203D01*
X015991Y013301D02*
X009889Y013301D01*
X009889Y013400D02*
X015991Y013400D01*
X015991Y013498D02*
X009889Y013498D01*
X009889Y013597D02*
X015991Y013597D01*
X015991Y013695D02*
X009889Y013695D01*
X009889Y013794D02*
X015991Y013794D01*
X015991Y013892D02*
X009889Y013892D01*
X009889Y013991D02*
X015991Y013991D01*
X015991Y014089D02*
X009889Y014089D01*
X009889Y014188D02*
X015991Y014188D01*
X015991Y014286D02*
X009889Y014286D01*
X009889Y014385D02*
X015991Y014385D01*
X015991Y014483D02*
X009889Y014483D01*
X009889Y014582D02*
X015991Y014582D01*
X015991Y014680D02*
X009889Y014680D01*
X009889Y014779D02*
X015991Y014779D01*
X015991Y014877D02*
X009889Y014877D01*
X009889Y014976D02*
X015991Y014976D01*
X016286Y014976D02*
X028292Y014976D01*
X028292Y015015D02*
X028292Y013147D01*
X025243Y013147D01*
X024899Y013492D01*
X022340Y013492D01*
X021749Y012901D01*
X021749Y009260D01*
X020223Y009260D01*
X018895Y010588D01*
X018895Y011720D01*
X018698Y011917D01*
X016729Y011917D01*
X016286Y012409D01*
X016286Y015015D01*
X028292Y015015D01*
X028292Y014877D02*
X016286Y014877D01*
X016286Y014779D02*
X028292Y014779D01*
X028292Y014680D02*
X016286Y014680D01*
X016286Y014582D02*
X028292Y014582D01*
X028292Y014483D02*
X016286Y014483D01*
X016286Y014385D02*
X028292Y014385D01*
X028292Y014286D02*
X016286Y014286D01*
X016286Y014188D02*
X028292Y014188D01*
X028292Y014089D02*
X016286Y014089D01*
X016286Y013991D02*
X028292Y013991D01*
X028292Y013892D02*
X016286Y013892D01*
X016286Y013794D02*
X028292Y013794D01*
X028292Y013695D02*
X016286Y013695D01*
X016286Y013597D02*
X028292Y013597D01*
X028292Y013498D02*
X016286Y013498D01*
X016286Y013400D02*
X022248Y013400D01*
X022149Y013301D02*
X016286Y013301D01*
X016286Y013203D02*
X022051Y013203D01*
X021952Y013104D02*
X016286Y013104D01*
X016286Y013006D02*
X021854Y013006D01*
X021755Y012907D02*
X016286Y012907D01*
X016286Y012809D02*
X021749Y012809D01*
X021749Y012710D02*
X016286Y012710D01*
X016286Y012612D02*
X021749Y012612D01*
X021749Y012513D02*
X016286Y012513D01*
X016286Y012415D02*
X021749Y012415D01*
X021749Y012316D02*
X016370Y012316D01*
X016459Y012218D02*
X021749Y012218D01*
X021749Y012119D02*
X016547Y012119D01*
X016636Y012021D02*
X021749Y012021D01*
X021749Y011922D02*
X016724Y011922D01*
X015991Y010740D02*
X010721Y010740D01*
X010819Y010642D02*
X015991Y010642D01*
X015159Y010346D02*
X018841Y010346D01*
X018940Y010248D02*
X015060Y010248D01*
X014962Y010149D02*
X019038Y010149D01*
X019137Y010051D02*
X014863Y010051D01*
X014765Y009952D02*
X019235Y009952D01*
X019334Y009854D02*
X014666Y009854D01*
X014568Y009755D02*
X019432Y009755D01*
X019531Y009657D02*
X014469Y009657D01*
X014371Y009558D02*
X019629Y009558D01*
X019728Y009460D02*
X014272Y009460D01*
X014174Y009657D02*
X011021Y009657D01*
X011021Y009755D02*
X014272Y009755D01*
X014371Y009854D02*
X011021Y009854D01*
X011021Y009952D02*
X014469Y009952D01*
X014568Y010051D02*
X011021Y010051D01*
X011021Y010149D02*
X014666Y010149D01*
X014765Y010248D02*
X011021Y010248D01*
X011021Y010346D02*
X014863Y010346D01*
X014962Y010445D02*
X011016Y010445D01*
X010918Y010543D02*
X015060Y010543D01*
X018895Y010642D02*
X021749Y010642D01*
X021749Y010740D02*
X018895Y010740D01*
X018895Y010839D02*
X021749Y010839D01*
X021749Y010937D02*
X018895Y010937D01*
X018895Y011036D02*
X021749Y011036D01*
X021749Y011134D02*
X018895Y011134D01*
X018895Y011233D02*
X021749Y011233D01*
X021749Y011331D02*
X018895Y011331D01*
X018895Y011430D02*
X021749Y011430D01*
X021749Y011528D02*
X018895Y011528D01*
X018895Y011627D02*
X021749Y011627D01*
X021749Y011725D02*
X018889Y011725D01*
X018791Y011824D02*
X021749Y011824D01*
X021946Y011824D02*
X027767Y011824D01*
X027767Y011922D02*
X021946Y011922D01*
X021946Y012021D02*
X027767Y012021D01*
X027767Y012119D02*
X021946Y012119D01*
X021946Y012218D02*
X027767Y012218D01*
X027767Y012316D02*
X021946Y012316D01*
X021946Y012415D02*
X027767Y012415D01*
X027767Y012513D02*
X021946Y012513D01*
X021946Y012612D02*
X027767Y012612D01*
X027767Y012710D02*
X021946Y012710D01*
X022001Y012809D02*
X027767Y012809D01*
X027767Y012907D02*
X022100Y012907D01*
X022198Y013006D02*
X025089Y013006D01*
X024991Y013104D02*
X022297Y013104D01*
X022395Y013203D02*
X024892Y013203D01*
X024991Y013400D02*
X028292Y013400D01*
X028292Y013301D02*
X025089Y013301D01*
X025188Y013203D02*
X028292Y013203D01*
X027767Y011725D02*
X021946Y011725D01*
X021946Y011627D02*
X027767Y011627D01*
X027767Y011528D02*
X021946Y011528D01*
X021946Y011430D02*
X027767Y011430D01*
X027767Y011331D02*
X021946Y011331D01*
X021946Y011233D02*
X027767Y011233D01*
X027767Y011134D02*
X021946Y011134D01*
X021946Y011036D02*
X027767Y011036D01*
X027767Y010937D02*
X021946Y010937D01*
X021946Y010839D02*
X027767Y010839D01*
X027767Y010740D02*
X021946Y010740D01*
X021946Y010642D02*
X027767Y010642D01*
X027767Y010543D02*
X021946Y010543D01*
X021946Y010445D02*
X027767Y010445D01*
X027767Y010346D02*
X021946Y010346D01*
X021946Y010248D02*
X027767Y010248D01*
X027767Y010149D02*
X021946Y010149D01*
X021946Y010051D02*
X027767Y010051D01*
X027767Y009952D02*
X021946Y009952D01*
X021946Y009854D02*
X027767Y009854D01*
X027767Y009755D02*
X021946Y009755D01*
X021946Y009657D02*
X027767Y009657D01*
X027767Y009558D02*
X021946Y009558D01*
X021946Y009460D02*
X027767Y009460D01*
X027767Y009361D02*
X021946Y009361D01*
X021946Y009263D02*
X025238Y009263D01*
X025225Y009164D02*
X021946Y009164D01*
X021946Y009066D02*
X025225Y009066D01*
X025225Y008967D02*
X003395Y008967D01*
X003395Y008869D02*
X025225Y008869D01*
X025225Y008770D02*
X003395Y008770D01*
X003395Y008672D02*
X025225Y008672D01*
X025225Y008573D02*
X003395Y008573D01*
X003395Y008475D02*
X025225Y008475D01*
X025225Y008376D02*
X003395Y008376D01*
X003395Y008278D02*
X025263Y008278D01*
X026274Y008278D02*
X027946Y008278D01*
X027946Y008376D02*
X026312Y008376D01*
X026312Y009164D02*
X027767Y009164D01*
X027767Y009263D02*
X026300Y009263D01*
X027946Y008179D02*
X003395Y008179D01*
X003395Y008081D02*
X027946Y008081D01*
X027946Y007982D02*
X003395Y007982D01*
X003395Y007884D02*
X027946Y007884D01*
X027946Y007785D02*
X003395Y007785D01*
X003395Y007687D02*
X027946Y007687D01*
X027946Y007588D02*
X003395Y007588D01*
X003395Y007490D02*
X027946Y007490D01*
X027946Y007391D02*
X003395Y007391D01*
X003395Y007293D02*
X027946Y007293D01*
X027946Y007194D02*
X019232Y007194D01*
X019278Y007175D02*
X019094Y007251D01*
X018896Y007251D01*
X018712Y007175D01*
X018571Y007035D01*
X018495Y006851D01*
X018495Y006652D01*
X018571Y006468D01*
X018712Y006328D01*
X018896Y006251D01*
X019094Y006251D01*
X019278Y006328D01*
X019419Y006468D01*
X019495Y006652D01*
X019495Y006851D01*
X019419Y007035D01*
X019278Y007175D01*
X019358Y007096D02*
X027946Y007096D01*
X027946Y006997D02*
X019434Y006997D01*
X019475Y006899D02*
X027946Y006899D01*
X027946Y006800D02*
X019495Y006800D01*
X019495Y006702D02*
X027946Y006702D01*
X027946Y006603D02*
X019475Y006603D01*
X019434Y006505D02*
X027946Y006505D01*
X027946Y006406D02*
X019357Y006406D01*
X019231Y006308D02*
X027946Y006308D01*
X027946Y006209D02*
X022196Y006209D01*
X022343Y006111D02*
X027946Y006111D01*
X027946Y006012D02*
X022428Y006012D01*
X022469Y005914D02*
X027946Y005914D01*
X027946Y005815D02*
X022495Y005815D01*
X022495Y005717D02*
X027946Y005717D01*
X027946Y005618D02*
X022481Y005618D01*
X022440Y005520D02*
X027946Y005520D01*
X021794Y006209D02*
X021196Y006209D01*
X021343Y006111D02*
X021647Y006111D01*
X021562Y006012D02*
X021428Y006012D01*
X021469Y005914D02*
X021521Y005914D01*
X021495Y005851D02*
X021495Y005652D01*
X021419Y005468D01*
X021376Y005425D01*
X021615Y005425D01*
X021571Y005468D01*
X021495Y005652D01*
X021495Y005851D01*
X021495Y005815D02*
X021495Y005815D01*
X021495Y005717D02*
X021495Y005717D01*
X021481Y005618D02*
X021509Y005618D01*
X021550Y005520D02*
X021440Y005520D01*
X020550Y005520D02*
X019440Y005520D01*
X019481Y005618D02*
X020509Y005618D01*
X020495Y005717D02*
X019495Y005717D01*
X019495Y005815D02*
X020495Y005815D01*
X020521Y005914D02*
X019469Y005914D01*
X019428Y006012D02*
X020562Y006012D01*
X020647Y006111D02*
X019343Y006111D01*
X019196Y006209D02*
X020794Y006209D01*
X018794Y006209D02*
X018245Y006209D01*
X018245Y006308D02*
X018759Y006308D01*
X018633Y006406D02*
X018357Y006406D01*
X018434Y006505D02*
X018556Y006505D01*
X018515Y006603D02*
X018475Y006603D01*
X018495Y006702D02*
X018495Y006702D01*
X018495Y006800D02*
X018495Y006800D01*
X018475Y006899D02*
X018515Y006899D01*
X018556Y006997D02*
X018434Y006997D01*
X018358Y007096D02*
X018632Y007096D01*
X018758Y007194D02*
X018232Y007194D01*
X017758Y007194D02*
X003395Y007194D01*
X003395Y007096D02*
X017632Y007096D01*
X017556Y006997D02*
X003395Y006997D01*
X003395Y006899D02*
X017515Y006899D01*
X018343Y006111D02*
X018647Y006111D01*
X018562Y006012D02*
X018428Y006012D01*
X018469Y005914D02*
X018521Y005914D01*
X018495Y005851D02*
X018495Y005652D01*
X018419Y005468D01*
X018376Y005425D01*
X018615Y005425D01*
X018571Y005468D01*
X018495Y005652D01*
X018495Y005851D01*
X018495Y005815D02*
X018495Y005815D01*
X018495Y005717D02*
X018495Y005717D01*
X018481Y005618D02*
X018509Y005618D01*
X018550Y005520D02*
X018440Y005520D01*
X020122Y009066D02*
X003395Y009066D01*
X003395Y009164D02*
X020023Y009164D01*
X019925Y009263D02*
X003395Y009263D01*
X003395Y009361D02*
X019826Y009361D01*
X020023Y009460D02*
X021749Y009460D01*
X021749Y009558D02*
X019925Y009558D01*
X019826Y009657D02*
X021749Y009657D01*
X021749Y009755D02*
X019728Y009755D01*
X019629Y009854D02*
X021749Y009854D01*
X021749Y009952D02*
X019531Y009952D01*
X019432Y010051D02*
X021749Y010051D01*
X021749Y010149D02*
X019334Y010149D01*
X019235Y010248D02*
X021749Y010248D01*
X021749Y010346D02*
X019137Y010346D01*
X019038Y010445D02*
X021749Y010445D01*
X021749Y010543D02*
X018940Y010543D01*
X020122Y009361D02*
X021749Y009361D01*
X021749Y009263D02*
X020220Y009263D01*
X009643Y011824D02*
X003395Y011824D01*
X003395Y011922D02*
X009643Y011922D01*
X009643Y012021D02*
X003395Y012021D01*
X003395Y012119D02*
X009643Y012119D01*
X009643Y012218D02*
X003395Y012218D01*
X003395Y012316D02*
X009643Y012316D01*
X009643Y012415D02*
X003395Y012415D01*
X003395Y012513D02*
X009643Y012513D01*
X009643Y012612D02*
X003395Y012612D01*
X003395Y012710D02*
X009643Y012710D01*
X009643Y012809D02*
X003395Y012809D01*
X003395Y012907D02*
X009643Y012907D01*
X009643Y013006D02*
X003395Y013006D01*
X003395Y013104D02*
X009643Y013104D01*
X009643Y013203D02*
X003395Y013203D01*
X003395Y013301D02*
X009643Y013301D01*
X009643Y013400D02*
X003395Y013400D01*
X003395Y013498D02*
X009643Y013498D01*
X009643Y013597D02*
X003395Y013597D01*
X003395Y013695D02*
X009643Y013695D01*
X009643Y013794D02*
X003395Y013794D01*
X003395Y013892D02*
X009643Y013892D01*
X009643Y013991D02*
X003395Y013991D01*
X003395Y014089D02*
X009643Y014089D01*
X009643Y014188D02*
X003395Y014188D01*
X003395Y014286D02*
X009643Y014286D01*
X009643Y014385D02*
X003395Y014385D01*
X003395Y014483D02*
X009643Y014483D01*
X009643Y014582D02*
X003395Y014582D01*
X003395Y014680D02*
X009643Y014680D01*
X009643Y014779D02*
X003395Y014779D01*
X003395Y014877D02*
X009643Y014877D01*
X009643Y014976D02*
X003395Y014976D01*
D14*
X003737Y014673D03*
X004967Y014771D03*
X004967Y014082D03*
X003688Y013246D03*
X003688Y012212D03*
X004820Y012163D03*
X006493Y014082D03*
X006493Y014771D03*
X007625Y014771D03*
X007625Y014033D03*
X007625Y012950D03*
X007576Y011819D03*
X007969Y010047D03*
X008560Y008915D03*
X007822Y008275D03*
X007133Y008964D03*
X005903Y009309D03*
X005903Y008078D03*
X006542Y007389D03*
X005903Y006454D03*
X006198Y005273D03*
X007674Y005273D03*
X007674Y005815D03*
X010381Y005618D03*
X010971Y006356D03*
X011660Y006405D03*
X012694Y006356D03*
X013481Y007045D03*
X014219Y006405D03*
X014121Y005519D03*
X015253Y005962D03*
X015499Y006750D03*
X015499Y007488D03*
X014466Y007488D03*
X017221Y007439D03*
X018550Y007488D03*
X020174Y006750D03*
X021158Y006553D03*
X021651Y007488D03*
X022487Y007439D03*
X021897Y008275D03*
X022536Y009604D03*
X023225Y010342D03*
X024702Y011425D03*
X022733Y011720D03*
X021011Y011671D03*
X020519Y012311D03*
X020716Y012852D03*
X019288Y011720D03*
X019534Y011130D03*
X018944Y009752D03*
X019288Y008817D03*
X023717Y007488D03*
X024702Y007193D03*
X025538Y007734D03*
X024554Y006208D03*
X024997Y005667D03*
X027359Y007537D03*
X028097Y008817D03*
X026523Y009604D03*
X027556Y011769D03*
X026916Y013836D03*
X024751Y014132D03*
X023668Y014181D03*
X021847Y014624D03*
X020469Y014132D03*
X016483Y014328D03*
X016483Y013787D03*
X016483Y013197D03*
X016483Y012655D03*
X012940Y009801D03*
X012399Y009801D03*
X011906Y010637D03*
X011365Y010637D03*
X010233Y011031D03*
X010233Y011622D03*
X010233Y012212D03*
X010233Y012852D03*
X010233Y013492D03*
X010233Y014082D03*
X010233Y014722D03*
X004377Y005323D03*
D15*
X025769Y008783D02*
X028097Y008783D01*
X028097Y008817D01*
X028097Y013606D01*
X025769Y013606D01*
D16*
X028097Y008817D02*
X028196Y008817D01*
X028196Y005175D01*
X020995Y005175D01*
X020995Y005751D01*
X020995Y005175D02*
X017995Y005175D01*
X017995Y006750D01*
M02*
